%TF.GenerationSoftware,KiCad,Pcbnew,(6.0.0-0)*%
%TF.CreationDate,2022-11-22T10:59:52-05:00*%
%TF.ProjectId,AudioJack-Breakout-Panelization,41756469-6f4a-4616-936b-2d427265616b,rev?*%
%TF.SameCoordinates,Original*%
%TF.FileFunction,Profile,NP*%
%FSLAX46Y46*%
G04 Gerber Fmt 4.6, Leading zero omitted, Abs format (unit mm)*
G04 Created by KiCad (PCBNEW (6.0.0-0)) date 2022-11-22 10:59:52*
%MOMM*%
%LPD*%
G01*
G04 APERTURE LIST*
%TA.AperFunction,Profile*%
%ADD10C,0.100000*%
%TD*%
G04 APERTURE END LIST*
D10*
X151180000Y-135444000D02*
X155180000Y-135444000D01*
X143180000Y-135444000D02*
X139180000Y-135444000D01*
X76180000Y-121444000D02*
X76180000Y-125444000D01*
X76180000Y-73444000D02*
X76180000Y-69444000D01*
X170180000Y-125444000D02*
X170180000Y-121444000D01*
X170180000Y-99444000D02*
X170180000Y-95444000D01*
X170180000Y-73444000D02*
X170180000Y-69444000D01*
X76180000Y-99444000D02*
X76180000Y-95444000D01*
X163180000Y-135444000D02*
X167180000Y-135444000D01*
X127180000Y-135444000D02*
X131180000Y-135444000D01*
X115180000Y-135444000D02*
X119180000Y-135444000D01*
X103180000Y-135444000D02*
X107180000Y-135444000D01*
X91180000Y-135444000D02*
X95180000Y-135444000D01*
X79180000Y-135444000D02*
X83180000Y-135444000D01*
X163180000Y-59444000D02*
X167180000Y-59444000D01*
X151180000Y-59444000D02*
X155180000Y-59444000D01*
X139180000Y-59444000D02*
X143180000Y-59444000D01*
X127180000Y-59444000D02*
X131180000Y-59444000D01*
X115180000Y-59444000D02*
X119180000Y-59444000D01*
X103180000Y-59444000D02*
X107180000Y-59444000D01*
X91180000Y-59444000D02*
X95180000Y-59444000D01*
X79180000Y-59444000D02*
X83180000Y-59444000D01*
X167180000Y-135444000D02*
X170180000Y-135444000D01*
X170180000Y-121444000D02*
X170180000Y-111444000D01*
X163180000Y-111444000D02*
X160180000Y-111444000D01*
X170180000Y-111444000D02*
X167180000Y-111444000D01*
X170180000Y-135444000D02*
X170180000Y-125444000D01*
X160180000Y-111444000D02*
X160180000Y-121444000D01*
X160180000Y-135444000D02*
X160180000Y-125444000D01*
X163180000Y-135444000D02*
X160180000Y-135444000D01*
X155180000Y-135444000D02*
X158180000Y-135444000D01*
X158180000Y-121444000D02*
X158180000Y-111444000D01*
X151180000Y-111444000D02*
X148180000Y-111444000D01*
X158180000Y-111444000D02*
X155180000Y-111444000D01*
X158180000Y-135444000D02*
X158180000Y-125444000D01*
X148180000Y-111444000D02*
X148180000Y-121444000D01*
X148180000Y-135444000D02*
X148180000Y-125444000D01*
X151180000Y-135444000D02*
X148180000Y-135444000D01*
X143180000Y-135444000D02*
X146180000Y-135444000D01*
X146180000Y-121444000D02*
X146180000Y-111444000D01*
X139180000Y-111444000D02*
X136180000Y-111444000D01*
X146180000Y-111444000D02*
X143180000Y-111444000D01*
X146180000Y-135444000D02*
X146180000Y-125444000D01*
X136180000Y-111444000D02*
X136180000Y-121444000D01*
X136180000Y-135444000D02*
X136180000Y-125444000D01*
X139180000Y-135444000D02*
X136180000Y-135444000D01*
X131180000Y-135444000D02*
X134180000Y-135444000D01*
X134180000Y-121444000D02*
X134180000Y-111444000D01*
X127180000Y-111444000D02*
X124180000Y-111444000D01*
X134180000Y-111444000D02*
X131180000Y-111444000D01*
X134180000Y-135444000D02*
X134180000Y-125444000D01*
X124180000Y-111444000D02*
X124180000Y-121444000D01*
X124180000Y-135444000D02*
X124180000Y-125444000D01*
X127180000Y-135444000D02*
X124180000Y-135444000D01*
X119180000Y-135444000D02*
X122180000Y-135444000D01*
X122180000Y-121444000D02*
X122180000Y-111444000D01*
X115180000Y-111444000D02*
X112180000Y-111444000D01*
X122180000Y-111444000D02*
X119180000Y-111444000D01*
X122180000Y-135444000D02*
X122180000Y-125444000D01*
X112180000Y-111444000D02*
X112180000Y-121444000D01*
X112180000Y-135444000D02*
X112180000Y-125444000D01*
X115180000Y-135444000D02*
X112180000Y-135444000D01*
X107180000Y-135444000D02*
X110180000Y-135444000D01*
X110180000Y-121444000D02*
X110180000Y-111444000D01*
X103180000Y-111444000D02*
X100180000Y-111444000D01*
X110180000Y-111444000D02*
X107180000Y-111444000D01*
X110180000Y-135444000D02*
X110180000Y-125444000D01*
X100180000Y-111444000D02*
X100180000Y-121444000D01*
X100180000Y-135444000D02*
X100180000Y-125444000D01*
X103180000Y-135444000D02*
X100180000Y-135444000D01*
X95180000Y-135444000D02*
X98180000Y-135444000D01*
X98180000Y-121444000D02*
X98180000Y-111444000D01*
X91180000Y-111444000D02*
X88180000Y-111444000D01*
X98180000Y-111444000D02*
X95180000Y-111444000D01*
X98180000Y-135444000D02*
X98180000Y-125444000D01*
X88180000Y-111444000D02*
X88180000Y-121444000D01*
X88180000Y-135444000D02*
X88180000Y-125444000D01*
X91180000Y-135444000D02*
X88180000Y-135444000D01*
X83180000Y-135444000D02*
X86180000Y-135444000D01*
X86180000Y-121444000D02*
X86180000Y-111444000D01*
X79180000Y-111444000D02*
X76180000Y-111444000D01*
X86180000Y-111444000D02*
X83180000Y-111444000D01*
X86180000Y-135444000D02*
X86180000Y-125444000D01*
X76180000Y-111444000D02*
X76180000Y-121444000D01*
X76180000Y-135444000D02*
X76180000Y-125444000D01*
X79180000Y-135444000D02*
X76180000Y-135444000D01*
X167180000Y-109444000D02*
X170180000Y-109444000D01*
X170180000Y-95444000D02*
X170180000Y-85444000D01*
X163180000Y-85444000D02*
X160180000Y-85444000D01*
X170180000Y-85444000D02*
X167180000Y-85444000D01*
X170180000Y-109444000D02*
X170180000Y-99444000D01*
X160180000Y-85444000D02*
X160180000Y-95444000D01*
X160180000Y-109444000D02*
X160180000Y-99444000D01*
X163180000Y-109444000D02*
X160180000Y-109444000D01*
X155180000Y-109444000D02*
X158180000Y-109444000D01*
X158180000Y-95444000D02*
X158180000Y-85444000D01*
X151180000Y-85444000D02*
X148180000Y-85444000D01*
X158180000Y-85444000D02*
X155180000Y-85444000D01*
X158180000Y-109444000D02*
X158180000Y-99444000D01*
X148180000Y-85444000D02*
X148180000Y-95444000D01*
X148180000Y-109444000D02*
X148180000Y-99444000D01*
X151180000Y-109444000D02*
X148180000Y-109444000D01*
X143180000Y-109444000D02*
X146180000Y-109444000D01*
X146180000Y-95444000D02*
X146180000Y-85444000D01*
X139180000Y-85444000D02*
X136180000Y-85444000D01*
X146180000Y-85444000D02*
X143180000Y-85444000D01*
X146180000Y-109444000D02*
X146180000Y-99444000D01*
X136180000Y-85444000D02*
X136180000Y-95444000D01*
X136180000Y-109444000D02*
X136180000Y-99444000D01*
X139180000Y-109444000D02*
X136180000Y-109444000D01*
X131180000Y-109444000D02*
X134180000Y-109444000D01*
X134180000Y-95444000D02*
X134180000Y-85444000D01*
X127180000Y-85444000D02*
X124180000Y-85444000D01*
X134180000Y-85444000D02*
X131180000Y-85444000D01*
X134180000Y-109444000D02*
X134180000Y-99444000D01*
X124180000Y-85444000D02*
X124180000Y-95444000D01*
X124180000Y-109444000D02*
X124180000Y-99444000D01*
X127180000Y-109444000D02*
X124180000Y-109444000D01*
X119180000Y-109444000D02*
X122180000Y-109444000D01*
X122180000Y-95444000D02*
X122180000Y-85444000D01*
X115180000Y-85444000D02*
X112180000Y-85444000D01*
X122180000Y-85444000D02*
X119180000Y-85444000D01*
X122180000Y-109444000D02*
X122180000Y-99444000D01*
X112180000Y-85444000D02*
X112180000Y-95444000D01*
X112180000Y-109444000D02*
X112180000Y-99444000D01*
X115180000Y-109444000D02*
X112180000Y-109444000D01*
X107180000Y-109444000D02*
X110180000Y-109444000D01*
X110180000Y-95444000D02*
X110180000Y-85444000D01*
X103180000Y-85444000D02*
X100180000Y-85444000D01*
X110180000Y-85444000D02*
X107180000Y-85444000D01*
X110180000Y-109444000D02*
X110180000Y-99444000D01*
X100180000Y-85444000D02*
X100180000Y-95444000D01*
X100180000Y-109444000D02*
X100180000Y-99444000D01*
X103180000Y-109444000D02*
X100180000Y-109444000D01*
X95180000Y-109444000D02*
X98180000Y-109444000D01*
X98180000Y-95444000D02*
X98180000Y-85444000D01*
X91180000Y-85444000D02*
X88180000Y-85444000D01*
X98180000Y-85444000D02*
X95180000Y-85444000D01*
X98180000Y-109444000D02*
X98180000Y-99444000D01*
X88180000Y-85444000D02*
X88180000Y-95444000D01*
X88180000Y-109444000D02*
X88180000Y-99444000D01*
X91180000Y-109444000D02*
X88180000Y-109444000D01*
X83180000Y-109444000D02*
X86180000Y-109444000D01*
X86180000Y-95444000D02*
X86180000Y-85444000D01*
X79180000Y-85444000D02*
X76180000Y-85444000D01*
X86180000Y-85444000D02*
X83180000Y-85444000D01*
X86180000Y-109444000D02*
X86180000Y-99444000D01*
X76180000Y-85444000D02*
X76180000Y-95444000D01*
X76180000Y-109444000D02*
X76180000Y-99444000D01*
X79180000Y-109444000D02*
X76180000Y-109444000D01*
X167180000Y-83444000D02*
X170180000Y-83444000D01*
X170180000Y-69444000D02*
X170180000Y-59444000D01*
X163180000Y-59444000D02*
X160180000Y-59444000D01*
X170180000Y-59444000D02*
X167180000Y-59444000D01*
X170180000Y-83444000D02*
X170180000Y-73444000D01*
X160180000Y-59444000D02*
X160180000Y-69444000D01*
X160180000Y-83444000D02*
X160180000Y-73444000D01*
X163180000Y-83444000D02*
X160180000Y-83444000D01*
X155180000Y-83444000D02*
X158180000Y-83444000D01*
X158180000Y-69444000D02*
X158180000Y-59444000D01*
X151180000Y-59444000D02*
X148180000Y-59444000D01*
X158180000Y-59444000D02*
X155180000Y-59444000D01*
X158180000Y-83444000D02*
X158180000Y-73444000D01*
X148180000Y-59444000D02*
X148180000Y-69444000D01*
X148180000Y-83444000D02*
X148180000Y-73444000D01*
X151180000Y-83444000D02*
X148180000Y-83444000D01*
X143180000Y-83444000D02*
X146180000Y-83444000D01*
X146180000Y-69444000D02*
X146180000Y-59444000D01*
X139180000Y-59444000D02*
X136180000Y-59444000D01*
X146180000Y-59444000D02*
X143180000Y-59444000D01*
X146180000Y-83444000D02*
X146180000Y-73444000D01*
X136180000Y-59444000D02*
X136180000Y-69444000D01*
X136180000Y-83444000D02*
X136180000Y-73444000D01*
X139180000Y-83444000D02*
X136180000Y-83444000D01*
X131180000Y-83444000D02*
X134180000Y-83444000D01*
X134180000Y-69444000D02*
X134180000Y-59444000D01*
X127180000Y-59444000D02*
X124180000Y-59444000D01*
X134180000Y-59444000D02*
X131180000Y-59444000D01*
X134180000Y-83444000D02*
X134180000Y-73444000D01*
X124180000Y-59444000D02*
X124180000Y-69444000D01*
X124180000Y-83444000D02*
X124180000Y-73444000D01*
X127180000Y-83444000D02*
X124180000Y-83444000D01*
X119180000Y-83444000D02*
X122180000Y-83444000D01*
X122180000Y-69444000D02*
X122180000Y-59444000D01*
X115180000Y-59444000D02*
X112180000Y-59444000D01*
X122180000Y-59444000D02*
X119180000Y-59444000D01*
X122180000Y-83444000D02*
X122180000Y-73444000D01*
X112180000Y-59444000D02*
X112180000Y-69444000D01*
X112180000Y-83444000D02*
X112180000Y-73444000D01*
X115180000Y-83444000D02*
X112180000Y-83444000D01*
X107180000Y-83444000D02*
X110180000Y-83444000D01*
X110180000Y-69444000D02*
X110180000Y-59444000D01*
X103180000Y-59444000D02*
X100180000Y-59444000D01*
X110180000Y-59444000D02*
X107180000Y-59444000D01*
X110180000Y-83444000D02*
X110180000Y-73444000D01*
X100180000Y-59444000D02*
X100180000Y-69444000D01*
X100180000Y-83444000D02*
X100180000Y-73444000D01*
X103180000Y-83444000D02*
X100180000Y-83444000D01*
X95180000Y-83444000D02*
X98180000Y-83444000D01*
X98180000Y-69444000D02*
X98180000Y-59444000D01*
X91180000Y-59444000D02*
X88180000Y-59444000D01*
X98180000Y-59444000D02*
X95180000Y-59444000D01*
X98180000Y-83444000D02*
X98180000Y-73444000D01*
X88180000Y-59444000D02*
X88180000Y-69444000D01*
X88180000Y-83444000D02*
X88180000Y-73444000D01*
X91180000Y-83444000D02*
X88180000Y-83444000D01*
X76180000Y-83444000D02*
X76180000Y-73444000D01*
X79180000Y-83444000D02*
X76180000Y-83444000D01*
X76180000Y-59444000D02*
X76180000Y-69444000D01*
X79180000Y-59444000D02*
X76180000Y-59444000D01*
X86180000Y-59444000D02*
X83180000Y-59444000D01*
X86180000Y-69444000D02*
X86180000Y-59444000D01*
X86180000Y-83444000D02*
X86180000Y-73444000D01*
X83180000Y-83444000D02*
X86180000Y-83444000D01*
%TO.C,mouse-bite-2mm-slot47*%
X167180000Y-109444000D02*
G75*
G03*
X167180000Y-111444000I0J-1000000D01*
G01*
X163180000Y-111444000D02*
G75*
G03*
X163180000Y-109444000I0J1000000D01*
G01*
%TO.C,mouse-bite-2mm-slot46*%
X160180000Y-125444000D02*
G75*
G03*
X158180000Y-125444000I-1000000J0D01*
G01*
X158180000Y-121444000D02*
G75*
G03*
X160180000Y-121444000I1000000J0D01*
G01*
%TO.C,mouse-bite-2mm-slot45*%
X155180000Y-109444000D02*
G75*
G03*
X155180000Y-111444000I0J-1000000D01*
G01*
X151180000Y-111444000D02*
G75*
G03*
X151180000Y-109444000I0J1000000D01*
G01*
%TO.C,mouse-bite-2mm-slot44*%
X148180000Y-125444000D02*
G75*
G03*
X146180000Y-125444000I-1000000J0D01*
G01*
X146180000Y-121444000D02*
G75*
G03*
X148180000Y-121444000I1000000J0D01*
G01*
%TO.C,mouse-bite-2mm-slot43*%
X143180000Y-109444000D02*
G75*
G03*
X143180000Y-111444000I0J-1000000D01*
G01*
X139180000Y-111444000D02*
G75*
G03*
X139180000Y-109444000I0J1000000D01*
G01*
%TO.C,mouse-bite-2mm-slot42*%
X136180000Y-125444000D02*
G75*
G03*
X134180000Y-125444000I-1000000J0D01*
G01*
X134180000Y-121444000D02*
G75*
G03*
X136180000Y-121444000I1000000J0D01*
G01*
%TO.C,mouse-bite-2mm-slot41*%
X131180000Y-109444000D02*
G75*
G03*
X131180000Y-111444000I0J-1000000D01*
G01*
X127180000Y-111444000D02*
G75*
G03*
X127180000Y-109444000I0J1000000D01*
G01*
%TO.C,mouse-bite-2mm-slot40*%
X124180000Y-125444000D02*
G75*
G03*
X122180000Y-125444000I-1000000J0D01*
G01*
X122180000Y-121444000D02*
G75*
G03*
X124180000Y-121444000I1000000J0D01*
G01*
%TO.C,mouse-bite-2mm-slot39*%
X119180000Y-109444000D02*
G75*
G03*
X119180000Y-111444000I0J-1000000D01*
G01*
X115180000Y-111444000D02*
G75*
G03*
X115180000Y-109444000I0J1000000D01*
G01*
%TO.C,mouse-bite-2mm-slot38*%
X112180000Y-125444000D02*
G75*
G03*
X110180000Y-125444000I-1000000J0D01*
G01*
X110180000Y-121444000D02*
G75*
G03*
X112180000Y-121444000I1000000J0D01*
G01*
%TO.C,mouse-bite-2mm-slot37*%
X107180000Y-109444000D02*
G75*
G03*
X107180000Y-111444000I0J-1000000D01*
G01*
X103180000Y-111444000D02*
G75*
G03*
X103180000Y-109444000I0J1000000D01*
G01*
%TO.C,mouse-bite-2mm-slot36*%
X100180000Y-125444000D02*
G75*
G03*
X98180000Y-125444000I-1000000J0D01*
G01*
X98180000Y-121444000D02*
G75*
G03*
X100180000Y-121444000I1000000J0D01*
G01*
%TO.C,mouse-bite-2mm-slot35*%
X95180000Y-109444000D02*
G75*
G03*
X95180000Y-111444000I0J-1000000D01*
G01*
X91180000Y-111444000D02*
G75*
G03*
X91180000Y-109444000I0J1000000D01*
G01*
%TO.C,mouse-bite-2mm-slot34*%
X88180000Y-125444000D02*
G75*
G03*
X86180000Y-125444000I-1000000J0D01*
G01*
X86180000Y-121444000D02*
G75*
G03*
X88180000Y-121444000I1000000J0D01*
G01*
%TO.C,mouse-bite-2mm-slot33*%
X83180000Y-109444000D02*
G75*
G03*
X83180000Y-111444000I0J-1000000D01*
G01*
X79180000Y-111444000D02*
G75*
G03*
X79180000Y-109444000I0J1000000D01*
G01*
%TO.C,mouse-bite-2mm-slot31*%
X167180000Y-83444000D02*
G75*
G03*
X167180000Y-85444000I0J-1000000D01*
G01*
X163180000Y-85444000D02*
G75*
G03*
X163180000Y-83444000I0J1000000D01*
G01*
%TO.C,mouse-bite-2mm-slot30*%
X160180000Y-99444000D02*
G75*
G03*
X158180000Y-99444000I-1000000J0D01*
G01*
X158180000Y-95444000D02*
G75*
G03*
X160180000Y-95444000I1000000J0D01*
G01*
%TO.C,mouse-bite-2mm-slot29*%
X155180000Y-83444000D02*
G75*
G03*
X155180000Y-85444000I0J-1000000D01*
G01*
X151180000Y-85444000D02*
G75*
G03*
X151180000Y-83444000I0J1000000D01*
G01*
%TO.C,mouse-bite-2mm-slot27*%
X148180000Y-99444000D02*
G75*
G03*
X146180000Y-99444000I-1000000J0D01*
G01*
X146180000Y-95444000D02*
G75*
G03*
X148180000Y-95444000I1000000J0D01*
G01*
%TO.C,mouse-bite-2mm-slot26*%
X143180000Y-83444000D02*
G75*
G03*
X143180000Y-85444000I0J-1000000D01*
G01*
X139180000Y-85444000D02*
G75*
G03*
X139180000Y-83444000I0J1000000D01*
G01*
%TO.C,mouse-bite-2mm-slot25*%
X136180000Y-99444000D02*
G75*
G03*
X134180000Y-99444000I-1000000J0D01*
G01*
X134180000Y-95444000D02*
G75*
G03*
X136180000Y-95444000I1000000J0D01*
G01*
%TO.C,mouse-bite-2mm-slot24*%
X131180000Y-83444000D02*
G75*
G03*
X131180000Y-85444000I0J-1000000D01*
G01*
X127180000Y-85444000D02*
G75*
G03*
X127180000Y-83444000I0J1000000D01*
G01*
%TO.C,mouse-bite-2mm-slot23*%
X124180000Y-99444000D02*
G75*
G03*
X122180000Y-99444000I-1000000J0D01*
G01*
X122180000Y-95444000D02*
G75*
G03*
X124180000Y-95444000I1000000J0D01*
G01*
%TO.C,mouse-bite-2mm-slot22*%
X119180000Y-83444000D02*
G75*
G03*
X119180000Y-85444000I0J-1000000D01*
G01*
X115180000Y-85444000D02*
G75*
G03*
X115180000Y-83444000I0J1000000D01*
G01*
%TO.C,mouse-bite-2mm-slot21*%
X112180000Y-99444000D02*
G75*
G03*
X110180000Y-99444000I-1000000J0D01*
G01*
X110180000Y-95444000D02*
G75*
G03*
X112180000Y-95444000I1000000J0D01*
G01*
%TO.C,mouse-bite-2mm-slot20*%
X107180000Y-83444000D02*
G75*
G03*
X107180000Y-85444000I0J-1000000D01*
G01*
X103180000Y-85444000D02*
G75*
G03*
X103180000Y-83444000I0J1000000D01*
G01*
%TO.C,mouse-bite-2mm-slot19*%
X100180000Y-99444000D02*
G75*
G03*
X98180000Y-99444000I-1000000J0D01*
G01*
X98180000Y-95444000D02*
G75*
G03*
X100180000Y-95444000I1000000J0D01*
G01*
%TO.C,mouse-bite-2mm-slot18*%
X95180000Y-83444000D02*
G75*
G03*
X95180000Y-85444000I0J-1000000D01*
G01*
X91180000Y-85444000D02*
G75*
G03*
X91180000Y-83444000I0J1000000D01*
G01*
%TO.C,mouse-bite-2mm-slot17*%
X88180000Y-99444000D02*
G75*
G03*
X86180000Y-99444000I-1000000J0D01*
G01*
X86180000Y-95444000D02*
G75*
G03*
X88180000Y-95444000I1000000J0D01*
G01*
%TO.C,mouse-bite-2mm-slot16*%
X83180000Y-83444000D02*
G75*
G03*
X83180000Y-85444000I0J-1000000D01*
G01*
X79180000Y-85444000D02*
G75*
G03*
X79180000Y-83444000I0J1000000D01*
G01*
%TO.C,mouse-bite-2mm-slot13*%
X160180000Y-73444000D02*
G75*
G03*
X158180000Y-73444000I-1000000J0D01*
G01*
X158180000Y-69444000D02*
G75*
G03*
X160180000Y-69444000I1000000J0D01*
G01*
%TO.C,mouse-bite-2mm-slot11*%
X148180000Y-73444000D02*
G75*
G03*
X146180000Y-73444000I-1000000J0D01*
G01*
X146180000Y-69444000D02*
G75*
G03*
X148180000Y-69444000I1000000J0D01*
G01*
%TO.C,mouse-bite-2mm-slot9*%
X136180000Y-73444000D02*
G75*
G03*
X134180000Y-73444000I-1000000J0D01*
G01*
X134180000Y-69444000D02*
G75*
G03*
X136180000Y-69444000I1000000J0D01*
G01*
%TO.C,mouse-bite-2mm-slot7*%
X124180000Y-73444000D02*
G75*
G03*
X122180000Y-73444000I-1000000J0D01*
G01*
X122180000Y-69444000D02*
G75*
G03*
X124180000Y-69444000I1000000J0D01*
G01*
%TO.C,mouse-bite-2mm-slot5*%
X112180000Y-73444000D02*
G75*
G03*
X110180000Y-73444000I-1000000J0D01*
G01*
X110180000Y-69444000D02*
G75*
G03*
X112180000Y-69444000I1000000J0D01*
G01*
%TO.C,mouse-bite-2mm-slot3*%
X100180000Y-73444000D02*
G75*
G03*
X98180000Y-73444000I-1000000J0D01*
G01*
X98180000Y-69444000D02*
G75*
G03*
X100180000Y-69444000I1000000J0D01*
G01*
%TO.C,mouse-bite-2mm-slot1*%
X88180000Y-73444000D02*
G75*
G03*
X86180000Y-73444000I-1000000J0D01*
G01*
X86180000Y-69444000D02*
G75*
G03*
X88180000Y-69444000I1000000J0D01*
G01*
%TD*%
M02*
