M48
; DRILL file {KiCad (6.0.0-0)} date Wednesday, November 30, 2022 at 10:12:22 PM
; FORMAT={-:-/ absolute / inch / decimal}
; #@! TF.CreationDate,2022-11-30T22:12:22-05:00
; #@! TF.GenerationSoftware,Kicad,Pcbnew,(6.0.0-0)
; #@! TF.FileFunction,NonPlated,1,2,NPTH
FMAT,2
INCH
; #@! TA.AperFunction,NonPlated,NPTH,ComponentDrill
T1C0.0197
%
G90
G05
T1
X4.1437Y-3.5138
X4.1437Y-3.5728
X4.1437Y-4.498
X4.1437Y-4.5571
X4.1732Y-3.5138
X4.1732Y-3.5728
X4.1732Y-4.498
X4.1732Y-4.5571
X4.2028Y-3.5138
X4.2028Y-3.5728
X4.2028Y-4.498
X4.2028Y-4.5571
X4.3799Y-3.0413
X4.3799Y-3.0709
X4.3799Y-3.1004
X4.3799Y-4.0256
X4.3799Y-4.0551
X4.3799Y-4.0846
X4.3799Y-5.0098
X4.3799Y-5.0394
X4.3799Y-5.0689
X4.439Y-3.0413
X4.439Y-3.0709
X4.439Y-3.1004
X4.439Y-4.0256
X4.439Y-4.0551
X4.439Y-4.0846
X4.439Y-5.0098
X4.439Y-5.0394
X4.439Y-5.0689
X4.6161Y-3.5138
X4.6161Y-3.5728
X4.6161Y-4.498
X4.6161Y-4.5571
X4.6457Y-3.5138
X4.6457Y-3.5728
X4.6457Y-4.498
X4.6457Y-4.5571
X4.6752Y-3.5138
X4.6752Y-3.5728
X4.6752Y-4.498
X4.6752Y-4.5571
X4.8524Y-3.0413
X4.8524Y-3.0709
X4.8524Y-3.1004
X4.8524Y-4.0256
X4.8524Y-4.0551
X4.8524Y-4.0846
X4.8524Y-5.0098
X4.8524Y-5.0394
X4.8524Y-5.0689
X4.9114Y-3.0413
X4.9114Y-3.0709
X4.9114Y-3.1004
X4.9114Y-4.0256
X4.9114Y-4.0551
X4.9114Y-4.0846
X4.9114Y-5.0098
X4.9114Y-5.0394
X4.9114Y-5.0689
X5.0886Y-3.5138
X5.0886Y-3.5728
X5.0886Y-4.498
X5.0886Y-4.5571
X5.1181Y-3.5138
X5.1181Y-3.5728
X5.1181Y-4.498
X5.1181Y-4.5571
X5.1476Y-3.5138
X5.1476Y-3.5728
X5.1476Y-4.498
X5.1476Y-4.5571
X5.3248Y-3.0413
X5.3248Y-3.0709
X5.3248Y-3.1004
X5.3248Y-4.0256
X5.3248Y-4.0551
X5.3248Y-4.0846
X5.3248Y-5.0098
X5.3248Y-5.0394
X5.3248Y-5.0689
X5.3839Y-3.0413
X5.3839Y-3.0709
X5.3839Y-3.1004
X5.3839Y-4.0256
X5.3839Y-4.0551
X5.3839Y-4.0846
X5.3839Y-5.0098
X5.3839Y-5.0394
X5.3839Y-5.0689
X5.561Y-3.5138
X5.561Y-3.5728
X5.561Y-4.498
X5.561Y-4.5571
X5.5906Y-3.5138
X5.5906Y-3.5728
X5.5906Y-4.498
X5.5906Y-4.5571
X5.6201Y-3.5138
X5.6201Y-3.5728
X5.6201Y-4.498
X5.6201Y-4.5571
X5.7972Y-3.0413
X5.7972Y-3.0709
X5.7972Y-3.1004
X5.7972Y-4.0256
X5.7972Y-4.0551
X5.7972Y-4.0846
X5.7972Y-5.0098
X5.7972Y-5.0394
X5.7972Y-5.0689
X5.8563Y-3.0413
X5.8563Y-3.0709
X5.8563Y-3.1004
X5.8563Y-4.0256
X5.8563Y-4.0551
X5.8563Y-4.0846
X5.8563Y-5.0098
X5.8563Y-5.0394
X5.8563Y-5.0689
X6.0335Y-3.5138
X6.0335Y-3.5728
X6.0335Y-4.498
X6.0335Y-4.5571
X6.063Y-3.5138
X6.063Y-3.5728
X6.063Y-4.498
X6.063Y-4.5571
X6.0925Y-3.5138
X6.0925Y-3.5728
X6.0925Y-4.498
X6.0925Y-4.5571
X6.2697Y-3.0413
X6.2697Y-3.0709
X6.2697Y-3.1004
X6.2697Y-4.0256
X6.2697Y-4.0551
X6.2697Y-4.0846
X6.2697Y-5.0098
X6.2697Y-5.0394
X6.2697Y-5.0689
X6.3287Y-3.0413
X6.3287Y-3.0709
X6.3287Y-3.1004
X6.3287Y-4.0256
X6.3287Y-4.0551
X6.3287Y-4.0846
X6.3287Y-5.0098
X6.3287Y-5.0394
X6.3287Y-5.0689
X6.5059Y-3.5138
X6.5059Y-3.5728
X6.5059Y-4.498
X6.5059Y-4.5571
X6.5354Y-3.5138
X6.5354Y-3.5728
X6.5354Y-4.498
X6.5354Y-4.5571
X6.565Y-3.5138
X6.565Y-3.5728
X6.565Y-4.498
X6.565Y-4.5571
X6.7421Y-3.0413
X6.7421Y-3.0709
X6.7421Y-3.1004
X6.7421Y-4.0256
X6.7421Y-4.0551
X6.7421Y-4.0846
X6.7421Y-5.0098
X6.7421Y-5.0394
X6.7421Y-5.0689
X6.8012Y-3.0413
X6.8012Y-3.0709
X6.8012Y-3.1004
X6.8012Y-4.0256
X6.8012Y-4.0551
X6.8012Y-4.0846
X6.8012Y-5.0098
X6.8012Y-5.0394
X6.8012Y-5.0689
X6.9783Y-3.5138
X6.9783Y-3.5728
X6.9783Y-4.498
X6.9783Y-4.5571
X7.0079Y-3.5138
X7.0079Y-3.5728
X7.0079Y-4.498
X7.0079Y-4.5571
X7.0374Y-3.5138
X7.0374Y-3.5728
X7.0374Y-4.498
X7.0374Y-4.5571
X7.2146Y-3.0413
X7.2146Y-3.0709
X7.2146Y-3.1004
X7.2146Y-4.0256
X7.2146Y-4.0551
X7.2146Y-4.0846
X7.2146Y-5.0098
X7.2146Y-5.0394
X7.2146Y-5.0689
X7.2736Y-3.0413
X7.2736Y-3.0709
X7.2736Y-3.1004
X7.2736Y-4.0256
X7.2736Y-4.0551
X7.2736Y-4.0846
X7.2736Y-5.0098
X7.2736Y-5.0394
X7.2736Y-5.0689
X7.4508Y-3.5138
X7.4508Y-3.5728
X7.4508Y-4.498
X7.4508Y-4.5571
X7.4803Y-3.5138
X7.4803Y-3.5728
X7.4803Y-4.498
X7.4803Y-4.5571
X7.5098Y-3.5138
X7.5098Y-3.5728
X7.5098Y-4.498
X7.5098Y-4.5571
T0
M30
