%TF.GenerationSoftware,KiCad,Pcbnew,(6.0.0-0)*%
%TF.CreationDate,2022-11-22T10:59:51-05:00*%
%TF.ProjectId,AudioJack-Breakout-Panelization,41756469-6f4a-4616-936b-2d427265616b,rev?*%
%TF.SameCoordinates,Original*%
%TF.FileFunction,Soldermask,Top*%
%TF.FilePolarity,Negative*%
%FSLAX46Y46*%
G04 Gerber Fmt 4.6, Leading zero omitted, Abs format (unit mm)*
G04 Created by KiCad (PCBNEW (6.0.0-0)) date 2022-11-22 10:59:51*
%MOMM*%
%LPD*%
G01*
G04 APERTURE LIST*
%ADD10C,0.500000*%
%ADD11O,1.700000X1.700000*%
%ADD12R,1.700000X1.700000*%
%ADD13R,1.930000X1.830000*%
%ADD14C,2.130000*%
G04 APERTURE END LIST*
D10*
%TO.C,mouse-bite-2mm-slot47*%
X165180000Y-109694000D03*
X165930000Y-109694000D03*
X165930000Y-111194000D03*
X164430000Y-111194000D03*
X164430000Y-109694000D03*
X165180000Y-111194000D03*
%TD*%
%TO.C,mouse-bite-2mm-slot46*%
X159930000Y-124194000D03*
X158430000Y-122694000D03*
X159930000Y-123444000D03*
X158430000Y-123444000D03*
X159930000Y-122694000D03*
X158430000Y-124194000D03*
%TD*%
D11*
%TO.C,J178*%
X166445000Y-133904000D03*
D12*
X163905000Y-133904000D03*
%TD*%
D13*
%TO.C,J177*%
X165180000Y-117010000D03*
D14*
X165180000Y-120110000D03*
X165180000Y-128410000D03*
%TD*%
D12*
%TO.C,J179*%
X163905000Y-113584000D03*
D11*
X166445000Y-113584000D03*
%TD*%
D10*
%TO.C,mouse-bite-2mm-slot45*%
X153180000Y-109694000D03*
X153930000Y-109694000D03*
X153930000Y-111194000D03*
X152430000Y-111194000D03*
X152430000Y-109694000D03*
X153180000Y-111194000D03*
%TD*%
%TO.C,mouse-bite-2mm-slot44*%
X147930000Y-124194000D03*
X146430000Y-122694000D03*
X147930000Y-123444000D03*
X146430000Y-123444000D03*
X147930000Y-122694000D03*
X146430000Y-124194000D03*
%TD*%
D11*
%TO.C,J175*%
X154445000Y-133904000D03*
D12*
X151905000Y-133904000D03*
%TD*%
D13*
%TO.C,J174*%
X153180000Y-117010000D03*
D14*
X153180000Y-120110000D03*
X153180000Y-128410000D03*
%TD*%
D12*
%TO.C,J176*%
X151905000Y-113584000D03*
D11*
X154445000Y-113584000D03*
%TD*%
D10*
%TO.C,mouse-bite-2mm-slot43*%
X141180000Y-109694000D03*
X141930000Y-109694000D03*
X141930000Y-111194000D03*
X140430000Y-111194000D03*
X140430000Y-109694000D03*
X141180000Y-111194000D03*
%TD*%
%TO.C,mouse-bite-2mm-slot42*%
X135930000Y-124194000D03*
X134430000Y-122694000D03*
X135930000Y-123444000D03*
X134430000Y-123444000D03*
X135930000Y-122694000D03*
X134430000Y-124194000D03*
%TD*%
D11*
%TO.C,J172*%
X142445000Y-133904000D03*
D12*
X139905000Y-133904000D03*
%TD*%
D13*
%TO.C,J171*%
X141180000Y-117010000D03*
D14*
X141180000Y-120110000D03*
X141180000Y-128410000D03*
%TD*%
D12*
%TO.C,J173*%
X139905000Y-113584000D03*
D11*
X142445000Y-113584000D03*
%TD*%
D10*
%TO.C,mouse-bite-2mm-slot41*%
X129180000Y-109694000D03*
X129930000Y-109694000D03*
X129930000Y-111194000D03*
X128430000Y-111194000D03*
X128430000Y-109694000D03*
X129180000Y-111194000D03*
%TD*%
%TO.C,mouse-bite-2mm-slot40*%
X123930000Y-124194000D03*
X122430000Y-122694000D03*
X123930000Y-123444000D03*
X122430000Y-123444000D03*
X123930000Y-122694000D03*
X122430000Y-124194000D03*
%TD*%
D11*
%TO.C,J169*%
X130445000Y-133904000D03*
D12*
X127905000Y-133904000D03*
%TD*%
D13*
%TO.C,J168*%
X129180000Y-117010000D03*
D14*
X129180000Y-120110000D03*
X129180000Y-128410000D03*
%TD*%
D12*
%TO.C,J170*%
X127905000Y-113584000D03*
D11*
X130445000Y-113584000D03*
%TD*%
D10*
%TO.C,mouse-bite-2mm-slot39*%
X117180000Y-109694000D03*
X117930000Y-109694000D03*
X117930000Y-111194000D03*
X116430000Y-111194000D03*
X116430000Y-109694000D03*
X117180000Y-111194000D03*
%TD*%
%TO.C,mouse-bite-2mm-slot38*%
X111930000Y-124194000D03*
X110430000Y-122694000D03*
X111930000Y-123444000D03*
X110430000Y-123444000D03*
X111930000Y-122694000D03*
X110430000Y-124194000D03*
%TD*%
D11*
%TO.C,J166*%
X118445000Y-133904000D03*
D12*
X115905000Y-133904000D03*
%TD*%
D13*
%TO.C,J165*%
X117180000Y-117010000D03*
D14*
X117180000Y-120110000D03*
X117180000Y-128410000D03*
%TD*%
D12*
%TO.C,J167*%
X115905000Y-113584000D03*
D11*
X118445000Y-113584000D03*
%TD*%
D10*
%TO.C,mouse-bite-2mm-slot37*%
X105180000Y-109694000D03*
X105930000Y-109694000D03*
X105930000Y-111194000D03*
X104430000Y-111194000D03*
X104430000Y-109694000D03*
X105180000Y-111194000D03*
%TD*%
%TO.C,mouse-bite-2mm-slot36*%
X99930000Y-124194000D03*
X98430000Y-122694000D03*
X99930000Y-123444000D03*
X98430000Y-123444000D03*
X99930000Y-122694000D03*
X98430000Y-124194000D03*
%TD*%
D11*
%TO.C,J163*%
X106445000Y-133904000D03*
D12*
X103905000Y-133904000D03*
%TD*%
D13*
%TO.C,J162*%
X105180000Y-117010000D03*
D14*
X105180000Y-120110000D03*
X105180000Y-128410000D03*
%TD*%
D12*
%TO.C,J164*%
X103905000Y-113584000D03*
D11*
X106445000Y-113584000D03*
%TD*%
D10*
%TO.C,mouse-bite-2mm-slot35*%
X93180000Y-109694000D03*
X93930000Y-109694000D03*
X93930000Y-111194000D03*
X92430000Y-111194000D03*
X92430000Y-109694000D03*
X93180000Y-111194000D03*
%TD*%
%TO.C,mouse-bite-2mm-slot34*%
X87930000Y-124194000D03*
X86430000Y-122694000D03*
X87930000Y-123444000D03*
X86430000Y-123444000D03*
X87930000Y-122694000D03*
X86430000Y-124194000D03*
%TD*%
D11*
%TO.C,J160*%
X94445000Y-133904000D03*
D12*
X91905000Y-133904000D03*
%TD*%
D13*
%TO.C,J159*%
X93180000Y-117010000D03*
D14*
X93180000Y-120110000D03*
X93180000Y-128410000D03*
%TD*%
D12*
%TO.C,J161*%
X91905000Y-113584000D03*
D11*
X94445000Y-113584000D03*
%TD*%
D10*
%TO.C,mouse-bite-2mm-slot33*%
X81180000Y-109694000D03*
X81930000Y-109694000D03*
X81930000Y-111194000D03*
X80430000Y-111194000D03*
X80430000Y-109694000D03*
X81180000Y-111194000D03*
%TD*%
D11*
%TO.C,J157*%
X82445000Y-133904000D03*
D12*
X79905000Y-133904000D03*
%TD*%
D13*
%TO.C,J156*%
X81180000Y-117010000D03*
D14*
X81180000Y-120110000D03*
X81180000Y-128410000D03*
%TD*%
D12*
%TO.C,J158*%
X79905000Y-113584000D03*
D11*
X82445000Y-113584000D03*
%TD*%
D10*
%TO.C,mouse-bite-2mm-slot31*%
X165180000Y-83694000D03*
X165930000Y-83694000D03*
X165930000Y-85194000D03*
X164430000Y-85194000D03*
X164430000Y-83694000D03*
X165180000Y-85194000D03*
%TD*%
%TO.C,mouse-bite-2mm-slot30*%
X159930000Y-98194000D03*
X158430000Y-96694000D03*
X159930000Y-97444000D03*
X158430000Y-97444000D03*
X159930000Y-96694000D03*
X158430000Y-98194000D03*
%TD*%
D11*
%TO.C,J154*%
X166445000Y-107904000D03*
D12*
X163905000Y-107904000D03*
%TD*%
D13*
%TO.C,J153*%
X165180000Y-91010000D03*
D14*
X165180000Y-94110000D03*
X165180000Y-102410000D03*
%TD*%
D12*
%TO.C,J155*%
X163905000Y-87584000D03*
D11*
X166445000Y-87584000D03*
%TD*%
D10*
%TO.C,mouse-bite-2mm-slot29*%
X153180000Y-83694000D03*
X153930000Y-83694000D03*
X153930000Y-85194000D03*
X152430000Y-85194000D03*
X152430000Y-83694000D03*
X153180000Y-85194000D03*
%TD*%
%TO.C,mouse-bite-2mm-slot27*%
X147930000Y-98194000D03*
X146430000Y-96694000D03*
X147930000Y-97444000D03*
X146430000Y-97444000D03*
X147930000Y-96694000D03*
X146430000Y-98194000D03*
%TD*%
D11*
%TO.C,J151*%
X154445000Y-107904000D03*
D12*
X151905000Y-107904000D03*
%TD*%
D13*
%TO.C,J150*%
X153180000Y-91010000D03*
D14*
X153180000Y-94110000D03*
X153180000Y-102410000D03*
%TD*%
D12*
%TO.C,J152*%
X151905000Y-87584000D03*
D11*
X154445000Y-87584000D03*
%TD*%
D10*
%TO.C,mouse-bite-2mm-slot26*%
X141180000Y-83694000D03*
X141930000Y-83694000D03*
X141930000Y-85194000D03*
X140430000Y-85194000D03*
X140430000Y-83694000D03*
X141180000Y-85194000D03*
%TD*%
%TO.C,mouse-bite-2mm-slot25*%
X135930000Y-98194000D03*
X134430000Y-96694000D03*
X135930000Y-97444000D03*
X134430000Y-97444000D03*
X135930000Y-96694000D03*
X134430000Y-98194000D03*
%TD*%
D11*
%TO.C,J148*%
X142445000Y-107904000D03*
D12*
X139905000Y-107904000D03*
%TD*%
D13*
%TO.C,J147*%
X141180000Y-91010000D03*
D14*
X141180000Y-94110000D03*
X141180000Y-102410000D03*
%TD*%
D12*
%TO.C,J149*%
X139905000Y-87584000D03*
D11*
X142445000Y-87584000D03*
%TD*%
D10*
%TO.C,mouse-bite-2mm-slot24*%
X129180000Y-83694000D03*
X129930000Y-83694000D03*
X129930000Y-85194000D03*
X128430000Y-85194000D03*
X128430000Y-83694000D03*
X129180000Y-85194000D03*
%TD*%
%TO.C,mouse-bite-2mm-slot23*%
X123930000Y-98194000D03*
X122430000Y-96694000D03*
X123930000Y-97444000D03*
X122430000Y-97444000D03*
X123930000Y-96694000D03*
X122430000Y-98194000D03*
%TD*%
D11*
%TO.C,J145*%
X130445000Y-107904000D03*
D12*
X127905000Y-107904000D03*
%TD*%
D13*
%TO.C,J144*%
X129180000Y-91010000D03*
D14*
X129180000Y-94110000D03*
X129180000Y-102410000D03*
%TD*%
D12*
%TO.C,J146*%
X127905000Y-87584000D03*
D11*
X130445000Y-87584000D03*
%TD*%
D10*
%TO.C,mouse-bite-2mm-slot22*%
X117180000Y-83694000D03*
X117930000Y-83694000D03*
X117930000Y-85194000D03*
X116430000Y-85194000D03*
X116430000Y-83694000D03*
X117180000Y-85194000D03*
%TD*%
%TO.C,mouse-bite-2mm-slot21*%
X111930000Y-98194000D03*
X110430000Y-96694000D03*
X111930000Y-97444000D03*
X110430000Y-97444000D03*
X111930000Y-96694000D03*
X110430000Y-98194000D03*
%TD*%
D11*
%TO.C,J142*%
X118445000Y-107904000D03*
D12*
X115905000Y-107904000D03*
%TD*%
D13*
%TO.C,J141*%
X117180000Y-91010000D03*
D14*
X117180000Y-94110000D03*
X117180000Y-102410000D03*
%TD*%
D12*
%TO.C,J143*%
X115905000Y-87584000D03*
D11*
X118445000Y-87584000D03*
%TD*%
D10*
%TO.C,mouse-bite-2mm-slot20*%
X105180000Y-83694000D03*
X105930000Y-83694000D03*
X105930000Y-85194000D03*
X104430000Y-85194000D03*
X104430000Y-83694000D03*
X105180000Y-85194000D03*
%TD*%
%TO.C,mouse-bite-2mm-slot19*%
X99930000Y-98194000D03*
X98430000Y-96694000D03*
X99930000Y-97444000D03*
X98430000Y-97444000D03*
X99930000Y-96694000D03*
X98430000Y-98194000D03*
%TD*%
D11*
%TO.C,J139*%
X106445000Y-107904000D03*
D12*
X103905000Y-107904000D03*
%TD*%
D13*
%TO.C,J138*%
X105180000Y-91010000D03*
D14*
X105180000Y-94110000D03*
X105180000Y-102410000D03*
%TD*%
D12*
%TO.C,J140*%
X103905000Y-87584000D03*
D11*
X106445000Y-87584000D03*
%TD*%
D10*
%TO.C,mouse-bite-2mm-slot18*%
X93180000Y-83694000D03*
X93930000Y-83694000D03*
X93930000Y-85194000D03*
X92430000Y-85194000D03*
X92430000Y-83694000D03*
X93180000Y-85194000D03*
%TD*%
%TO.C,mouse-bite-2mm-slot17*%
X87930000Y-98194000D03*
X86430000Y-96694000D03*
X87930000Y-97444000D03*
X86430000Y-97444000D03*
X87930000Y-96694000D03*
X86430000Y-98194000D03*
%TD*%
D11*
%TO.C,J136*%
X94445000Y-107904000D03*
D12*
X91905000Y-107904000D03*
%TD*%
D13*
%TO.C,J135*%
X93180000Y-91010000D03*
D14*
X93180000Y-94110000D03*
X93180000Y-102410000D03*
%TD*%
D12*
%TO.C,J137*%
X91905000Y-87584000D03*
D11*
X94445000Y-87584000D03*
%TD*%
D10*
%TO.C,mouse-bite-2mm-slot16*%
X81180000Y-83694000D03*
X81930000Y-83694000D03*
X81930000Y-85194000D03*
X80430000Y-85194000D03*
X80430000Y-83694000D03*
X81180000Y-85194000D03*
%TD*%
D11*
%TO.C,J133*%
X82445000Y-107904000D03*
D12*
X79905000Y-107904000D03*
%TD*%
D13*
%TO.C,J132*%
X81180000Y-91010000D03*
D14*
X81180000Y-94110000D03*
X81180000Y-102410000D03*
%TD*%
D12*
%TO.C,J134*%
X79905000Y-87584000D03*
D11*
X82445000Y-87584000D03*
%TD*%
D10*
%TO.C,mouse-bite-2mm-slot13*%
X159930000Y-72194000D03*
X158430000Y-70694000D03*
X159930000Y-71444000D03*
X158430000Y-71444000D03*
X159930000Y-70694000D03*
X158430000Y-72194000D03*
%TD*%
D11*
%TO.C,J130*%
X166445000Y-81904000D03*
D12*
X163905000Y-81904000D03*
%TD*%
D13*
%TO.C,J129*%
X165180000Y-65010000D03*
D14*
X165180000Y-68110000D03*
X165180000Y-76410000D03*
%TD*%
D12*
%TO.C,J131*%
X163905000Y-61584000D03*
D11*
X166445000Y-61584000D03*
%TD*%
D10*
%TO.C,mouse-bite-2mm-slot11*%
X147930000Y-72194000D03*
X146430000Y-70694000D03*
X147930000Y-71444000D03*
X146430000Y-71444000D03*
X147930000Y-70694000D03*
X146430000Y-72194000D03*
%TD*%
D11*
%TO.C,J127*%
X154445000Y-81904000D03*
D12*
X151905000Y-81904000D03*
%TD*%
D13*
%TO.C,J126*%
X153180000Y-65010000D03*
D14*
X153180000Y-68110000D03*
X153180000Y-76410000D03*
%TD*%
D12*
%TO.C,J128*%
X151905000Y-61584000D03*
D11*
X154445000Y-61584000D03*
%TD*%
D10*
%TO.C,mouse-bite-2mm-slot9*%
X135930000Y-72194000D03*
X134430000Y-70694000D03*
X135930000Y-71444000D03*
X134430000Y-71444000D03*
X135930000Y-70694000D03*
X134430000Y-72194000D03*
%TD*%
D11*
%TO.C,J124*%
X142445000Y-81904000D03*
D12*
X139905000Y-81904000D03*
%TD*%
D13*
%TO.C,J123*%
X141180000Y-65010000D03*
D14*
X141180000Y-68110000D03*
X141180000Y-76410000D03*
%TD*%
D12*
%TO.C,J125*%
X139905000Y-61584000D03*
D11*
X142445000Y-61584000D03*
%TD*%
D10*
%TO.C,mouse-bite-2mm-slot7*%
X123930000Y-72194000D03*
X122430000Y-70694000D03*
X123930000Y-71444000D03*
X122430000Y-71444000D03*
X123930000Y-70694000D03*
X122430000Y-72194000D03*
%TD*%
D11*
%TO.C,J121*%
X130445000Y-81904000D03*
D12*
X127905000Y-81904000D03*
%TD*%
D13*
%TO.C,J120*%
X129180000Y-65010000D03*
D14*
X129180000Y-68110000D03*
X129180000Y-76410000D03*
%TD*%
D12*
%TO.C,J122*%
X127905000Y-61584000D03*
D11*
X130445000Y-61584000D03*
%TD*%
D10*
%TO.C,mouse-bite-2mm-slot5*%
X111930000Y-72194000D03*
X110430000Y-70694000D03*
X111930000Y-71444000D03*
X110430000Y-71444000D03*
X111930000Y-70694000D03*
X110430000Y-72194000D03*
%TD*%
D11*
%TO.C,J118*%
X118445000Y-81904000D03*
D12*
X115905000Y-81904000D03*
%TD*%
D13*
%TO.C,J117*%
X117180000Y-65010000D03*
D14*
X117180000Y-68110000D03*
X117180000Y-76410000D03*
%TD*%
D12*
%TO.C,J119*%
X115905000Y-61584000D03*
D11*
X118445000Y-61584000D03*
%TD*%
D10*
%TO.C,mouse-bite-2mm-slot3*%
X99930000Y-72194000D03*
X98430000Y-70694000D03*
X99930000Y-71444000D03*
X98430000Y-71444000D03*
X99930000Y-70694000D03*
X98430000Y-72194000D03*
%TD*%
D11*
%TO.C,J115*%
X106445000Y-81904000D03*
D12*
X103905000Y-81904000D03*
%TD*%
D13*
%TO.C,J114*%
X105180000Y-65010000D03*
D14*
X105180000Y-68110000D03*
X105180000Y-76410000D03*
%TD*%
D12*
%TO.C,J116*%
X103905000Y-61584000D03*
D11*
X106445000Y-61584000D03*
%TD*%
D10*
%TO.C,mouse-bite-2mm-slot1*%
X87930000Y-72194000D03*
X86430000Y-70694000D03*
X87930000Y-71444000D03*
X86430000Y-71444000D03*
X87930000Y-70694000D03*
X86430000Y-72194000D03*
%TD*%
D11*
%TO.C,J112*%
X94445000Y-81904000D03*
D12*
X91905000Y-81904000D03*
%TD*%
D13*
%TO.C,J111*%
X93180000Y-65010000D03*
D14*
X93180000Y-68110000D03*
X93180000Y-76410000D03*
%TD*%
D12*
%TO.C,J113*%
X91905000Y-61584000D03*
D11*
X94445000Y-61584000D03*
%TD*%
%TO.C,J109*%
X82445000Y-81904000D03*
D12*
X79905000Y-81904000D03*
%TD*%
%TO.C,J110*%
X79905000Y-61584000D03*
D11*
X82445000Y-61584000D03*
%TD*%
D13*
%TO.C,J108*%
X81180000Y-65010000D03*
D14*
X81180000Y-68110000D03*
X81180000Y-76410000D03*
%TD*%
M02*
