M48
; DRILL file {KiCad (6.0.0-0)} date Tuesday, November 22, 2022 at 10:59:57 AM
; FORMAT={-:-/ absolute / inch / decimal}
; #@! TF.CreationDate,2022-11-22T10:59:57-05:00
; #@! TF.GenerationSoftware,Kicad,Pcbnew,(6.0.0-0)
; #@! TF.FileFunction,NonPlated,1,2,NPTH
FMAT,2
INCH
; #@! TA.AperFunction,NonPlated,NPTH,ComponentDrill
T1C0.0197
%
G90
G05
T1
X3.1665Y-3.295
X3.1665Y-3.3541
X3.1665Y-4.3187
X3.1665Y-4.3777
X3.1961Y-3.295
X3.1961Y-3.3541
X3.1961Y-4.3187
X3.1961Y-4.3777
X3.2256Y-3.295
X3.2256Y-3.3541
X3.2256Y-4.3187
X3.2256Y-4.3777
X3.4028Y-2.7832
X3.4028Y-2.8128
X3.4028Y-2.8423
X3.4028Y-3.8069
X3.4028Y-3.8364
X3.4028Y-3.8659
X3.4028Y-4.8305
X3.4028Y-4.86
X3.4028Y-4.8895
X3.4618Y-2.7832
X3.4618Y-2.8128
X3.4618Y-2.8423
X3.4618Y-3.8069
X3.4618Y-3.8364
X3.4618Y-3.8659
X3.4618Y-4.8305
X3.4618Y-4.86
X3.4618Y-4.8895
X3.639Y-3.295
X3.639Y-3.3541
X3.639Y-4.3187
X3.639Y-4.3777
X3.6685Y-3.295
X3.6685Y-3.3541
X3.6685Y-4.3187
X3.6685Y-4.3777
X3.698Y-3.295
X3.698Y-3.3541
X3.698Y-4.3187
X3.698Y-4.3777
X3.8752Y-2.7832
X3.8752Y-2.8128
X3.8752Y-2.8423
X3.8752Y-3.8069
X3.8752Y-3.8364
X3.8752Y-3.8659
X3.8752Y-4.8305
X3.8752Y-4.86
X3.8752Y-4.8895
X3.9343Y-2.7832
X3.9343Y-2.8128
X3.9343Y-2.8423
X3.9343Y-3.8069
X3.9343Y-3.8364
X3.9343Y-3.8659
X3.9343Y-4.8305
X3.9343Y-4.86
X3.9343Y-4.8895
X4.1114Y-3.295
X4.1114Y-3.3541
X4.1114Y-4.3187
X4.1114Y-4.3777
X4.1409Y-3.295
X4.1409Y-3.3541
X4.1409Y-4.3187
X4.1409Y-4.3777
X4.1705Y-3.295
X4.1705Y-3.3541
X4.1705Y-4.3187
X4.1705Y-4.3777
X4.3476Y-2.7832
X4.3476Y-2.8128
X4.3476Y-2.8423
X4.3476Y-3.8069
X4.3476Y-3.8364
X4.3476Y-3.8659
X4.3476Y-4.8305
X4.3476Y-4.86
X4.3476Y-4.8895
X4.4067Y-2.7832
X4.4067Y-2.8128
X4.4067Y-2.8423
X4.4067Y-3.8069
X4.4067Y-3.8364
X4.4067Y-3.8659
X4.4067Y-4.8305
X4.4067Y-4.86
X4.4067Y-4.8895
X4.5839Y-3.295
X4.5839Y-3.3541
X4.5839Y-4.3187
X4.5839Y-4.3777
X4.6134Y-3.295
X4.6134Y-3.3541
X4.6134Y-4.3187
X4.6134Y-4.3777
X4.6429Y-3.295
X4.6429Y-3.3541
X4.6429Y-4.3187
X4.6429Y-4.3777
X4.8201Y-2.7832
X4.8201Y-2.8128
X4.8201Y-2.8423
X4.8201Y-3.8069
X4.8201Y-3.8364
X4.8201Y-3.8659
X4.8201Y-4.8305
X4.8201Y-4.86
X4.8201Y-4.8895
X4.8791Y-2.7832
X4.8791Y-2.8128
X4.8791Y-2.8423
X4.8791Y-3.8069
X4.8791Y-3.8364
X4.8791Y-3.8659
X4.8791Y-4.8305
X4.8791Y-4.86
X4.8791Y-4.8895
X5.0563Y-3.295
X5.0563Y-3.3541
X5.0563Y-4.3187
X5.0563Y-4.3777
X5.0858Y-3.295
X5.0858Y-3.3541
X5.0858Y-4.3187
X5.0858Y-4.3777
X5.1154Y-3.295
X5.1154Y-3.3541
X5.1154Y-4.3187
X5.1154Y-4.3777
X5.2925Y-2.7832
X5.2925Y-2.8128
X5.2925Y-2.8423
X5.2925Y-3.8069
X5.2925Y-3.8364
X5.2925Y-3.8659
X5.2925Y-4.8305
X5.2925Y-4.86
X5.2925Y-4.8895
X5.3516Y-2.7832
X5.3516Y-2.8128
X5.3516Y-2.8423
X5.3516Y-3.8069
X5.3516Y-3.8364
X5.3516Y-3.8659
X5.3516Y-4.8305
X5.3516Y-4.86
X5.3516Y-4.8895
X5.5287Y-3.295
X5.5287Y-3.3541
X5.5287Y-4.3187
X5.5287Y-4.3777
X5.5583Y-3.295
X5.5583Y-3.3541
X5.5583Y-4.3187
X5.5583Y-4.3777
X5.5878Y-3.295
X5.5878Y-3.3541
X5.5878Y-4.3187
X5.5878Y-4.3777
X5.765Y-2.7832
X5.765Y-2.8128
X5.765Y-2.8423
X5.765Y-3.8069
X5.765Y-3.8364
X5.765Y-3.8659
X5.765Y-4.8305
X5.765Y-4.86
X5.765Y-4.8895
X5.824Y-2.7832
X5.824Y-2.8128
X5.824Y-2.8423
X5.824Y-3.8069
X5.824Y-3.8364
X5.824Y-3.8659
X5.824Y-4.8305
X5.824Y-4.86
X5.824Y-4.8895
X6.0012Y-3.295
X6.0012Y-3.3541
X6.0012Y-4.3187
X6.0012Y-4.3777
X6.0307Y-3.295
X6.0307Y-3.3541
X6.0307Y-4.3187
X6.0307Y-4.3777
X6.0602Y-3.295
X6.0602Y-3.3541
X6.0602Y-4.3187
X6.0602Y-4.3777
X6.2374Y-2.7832
X6.2374Y-2.8128
X6.2374Y-2.8423
X6.2374Y-3.8069
X6.2374Y-3.8364
X6.2374Y-3.8659
X6.2374Y-4.8305
X6.2374Y-4.86
X6.2374Y-4.8895
X6.2965Y-2.7832
X6.2965Y-2.8128
X6.2965Y-2.8423
X6.2965Y-3.8069
X6.2965Y-3.8364
X6.2965Y-3.8659
X6.2965Y-4.8305
X6.2965Y-4.86
X6.2965Y-4.8895
X6.4736Y-3.295
X6.4736Y-3.3541
X6.4736Y-4.3187
X6.4736Y-4.3777
X6.5031Y-3.295
X6.5031Y-3.3541
X6.5031Y-4.3187
X6.5031Y-4.3777
X6.5327Y-3.295
X6.5327Y-3.3541
X6.5327Y-4.3187
X6.5327Y-4.3777
T0
M30
