%TF.GenerationSoftware,KiCad,Pcbnew,(6.0.0-0)*%
%TF.CreationDate,2022-11-22T10:59:48-05:00*%
%TF.ProjectId,AudioJack-Breakout-Panelization,41756469-6f4a-4616-936b-2d427265616b,rev?*%
%TF.SameCoordinates,Original*%
%TF.FileFunction,Copper,L2,Bot*%
%TF.FilePolarity,Positive*%
%FSLAX46Y46*%
G04 Gerber Fmt 4.6, Leading zero omitted, Abs format (unit mm)*
G04 Created by KiCad (PCBNEW (6.0.0-0)) date 2022-11-22 10:59:48*
%MOMM*%
%LPD*%
G01*
G04 APERTURE LIST*
%TA.AperFunction,ComponentPad*%
%ADD10O,1.700000X1.700000*%
%TD*%
%TA.AperFunction,ComponentPad*%
%ADD11R,1.700000X1.700000*%
%TD*%
%TA.AperFunction,ComponentPad*%
%ADD12R,1.930000X1.830000*%
%TD*%
%TA.AperFunction,ComponentPad*%
%ADD13C,2.130000*%
%TD*%
G04 APERTURE END LIST*
D10*
%TO.P,J178,2,Pin_2*%
%TO.N,Net-(J3-PadT)*%
X166445000Y-133904000D03*
D11*
%TO.P,J178,1,Pin_1*%
%TO.N,Net-(J3-PadS)*%
X163905000Y-133904000D03*
%TD*%
D12*
%TO.P,J177,*%
%TO.N,*%
X165180000Y-117010000D03*
D13*
%TO.P,J177,S*%
%TO.N,Net-(J3-PadS)*%
X165180000Y-120110000D03*
%TO.P,J177,T*%
%TO.N,Net-(J3-PadT)*%
X165180000Y-128410000D03*
%TD*%
D11*
%TO.P,J179,*%
%TO.N,*%
X163905000Y-113584000D03*
D10*
X166445000Y-113584000D03*
%TD*%
%TO.P,J175,2,Pin_2*%
%TO.N,Net-(J3-PadT)*%
X154445000Y-133904000D03*
D11*
%TO.P,J175,1,Pin_1*%
%TO.N,Net-(J3-PadS)*%
X151905000Y-133904000D03*
%TD*%
D12*
%TO.P,J174,*%
%TO.N,*%
X153180000Y-117010000D03*
D13*
%TO.P,J174,S*%
%TO.N,Net-(J3-PadS)*%
X153180000Y-120110000D03*
%TO.P,J174,T*%
%TO.N,Net-(J3-PadT)*%
X153180000Y-128410000D03*
%TD*%
D11*
%TO.P,J176,*%
%TO.N,*%
X151905000Y-113584000D03*
D10*
X154445000Y-113584000D03*
%TD*%
%TO.P,J172,2,Pin_2*%
%TO.N,Net-(J3-PadT)*%
X142445000Y-133904000D03*
D11*
%TO.P,J172,1,Pin_1*%
%TO.N,Net-(J3-PadS)*%
X139905000Y-133904000D03*
%TD*%
D12*
%TO.P,J171,*%
%TO.N,*%
X141180000Y-117010000D03*
D13*
%TO.P,J171,S*%
%TO.N,Net-(J3-PadS)*%
X141180000Y-120110000D03*
%TO.P,J171,T*%
%TO.N,Net-(J3-PadT)*%
X141180000Y-128410000D03*
%TD*%
D11*
%TO.P,J173,*%
%TO.N,*%
X139905000Y-113584000D03*
D10*
X142445000Y-113584000D03*
%TD*%
%TO.P,J169,2,Pin_2*%
%TO.N,Net-(J3-PadT)*%
X130445000Y-133904000D03*
D11*
%TO.P,J169,1,Pin_1*%
%TO.N,Net-(J3-PadS)*%
X127905000Y-133904000D03*
%TD*%
D12*
%TO.P,J168,*%
%TO.N,*%
X129180000Y-117010000D03*
D13*
%TO.P,J168,S*%
%TO.N,Net-(J3-PadS)*%
X129180000Y-120110000D03*
%TO.P,J168,T*%
%TO.N,Net-(J3-PadT)*%
X129180000Y-128410000D03*
%TD*%
D11*
%TO.P,J170,*%
%TO.N,*%
X127905000Y-113584000D03*
D10*
X130445000Y-113584000D03*
%TD*%
%TO.P,J166,2,Pin_2*%
%TO.N,Net-(J3-PadT)*%
X118445000Y-133904000D03*
D11*
%TO.P,J166,1,Pin_1*%
%TO.N,Net-(J3-PadS)*%
X115905000Y-133904000D03*
%TD*%
D12*
%TO.P,J165,*%
%TO.N,*%
X117180000Y-117010000D03*
D13*
%TO.P,J165,S*%
%TO.N,Net-(J3-PadS)*%
X117180000Y-120110000D03*
%TO.P,J165,T*%
%TO.N,Net-(J3-PadT)*%
X117180000Y-128410000D03*
%TD*%
D11*
%TO.P,J167,*%
%TO.N,*%
X115905000Y-113584000D03*
D10*
X118445000Y-113584000D03*
%TD*%
%TO.P,J163,2,Pin_2*%
%TO.N,Net-(J3-PadT)*%
X106445000Y-133904000D03*
D11*
%TO.P,J163,1,Pin_1*%
%TO.N,Net-(J3-PadS)*%
X103905000Y-133904000D03*
%TD*%
D12*
%TO.P,J162,*%
%TO.N,*%
X105180000Y-117010000D03*
D13*
%TO.P,J162,S*%
%TO.N,Net-(J3-PadS)*%
X105180000Y-120110000D03*
%TO.P,J162,T*%
%TO.N,Net-(J3-PadT)*%
X105180000Y-128410000D03*
%TD*%
D11*
%TO.P,J164,*%
%TO.N,*%
X103905000Y-113584000D03*
D10*
X106445000Y-113584000D03*
%TD*%
%TO.P,J160,2,Pin_2*%
%TO.N,Net-(J3-PadT)*%
X94445000Y-133904000D03*
D11*
%TO.P,J160,1,Pin_1*%
%TO.N,Net-(J3-PadS)*%
X91905000Y-133904000D03*
%TD*%
D12*
%TO.P,J159,*%
%TO.N,*%
X93180000Y-117010000D03*
D13*
%TO.P,J159,S*%
%TO.N,Net-(J3-PadS)*%
X93180000Y-120110000D03*
%TO.P,J159,T*%
%TO.N,Net-(J3-PadT)*%
X93180000Y-128410000D03*
%TD*%
D11*
%TO.P,J161,*%
%TO.N,*%
X91905000Y-113584000D03*
D10*
X94445000Y-113584000D03*
%TD*%
%TO.P,J157,2,Pin_2*%
%TO.N,Net-(J3-PadT)*%
X82445000Y-133904000D03*
D11*
%TO.P,J157,1,Pin_1*%
%TO.N,Net-(J3-PadS)*%
X79905000Y-133904000D03*
%TD*%
D12*
%TO.P,J156,*%
%TO.N,*%
X81180000Y-117010000D03*
D13*
%TO.P,J156,S*%
%TO.N,Net-(J3-PadS)*%
X81180000Y-120110000D03*
%TO.P,J156,T*%
%TO.N,Net-(J3-PadT)*%
X81180000Y-128410000D03*
%TD*%
D11*
%TO.P,J158,*%
%TO.N,*%
X79905000Y-113584000D03*
D10*
X82445000Y-113584000D03*
%TD*%
%TO.P,J154,2,Pin_2*%
%TO.N,Net-(J3-PadT)*%
X166445000Y-107904000D03*
D11*
%TO.P,J154,1,Pin_1*%
%TO.N,Net-(J3-PadS)*%
X163905000Y-107904000D03*
%TD*%
D12*
%TO.P,J153,*%
%TO.N,*%
X165180000Y-91010000D03*
D13*
%TO.P,J153,S*%
%TO.N,Net-(J3-PadS)*%
X165180000Y-94110000D03*
%TO.P,J153,T*%
%TO.N,Net-(J3-PadT)*%
X165180000Y-102410000D03*
%TD*%
D11*
%TO.P,J155,*%
%TO.N,*%
X163905000Y-87584000D03*
D10*
X166445000Y-87584000D03*
%TD*%
%TO.P,J151,2,Pin_2*%
%TO.N,Net-(J3-PadT)*%
X154445000Y-107904000D03*
D11*
%TO.P,J151,1,Pin_1*%
%TO.N,Net-(J3-PadS)*%
X151905000Y-107904000D03*
%TD*%
D12*
%TO.P,J150,*%
%TO.N,*%
X153180000Y-91010000D03*
D13*
%TO.P,J150,S*%
%TO.N,Net-(J3-PadS)*%
X153180000Y-94110000D03*
%TO.P,J150,T*%
%TO.N,Net-(J3-PadT)*%
X153180000Y-102410000D03*
%TD*%
D11*
%TO.P,J152,*%
%TO.N,*%
X151905000Y-87584000D03*
D10*
X154445000Y-87584000D03*
%TD*%
%TO.P,J148,2,Pin_2*%
%TO.N,Net-(J3-PadT)*%
X142445000Y-107904000D03*
D11*
%TO.P,J148,1,Pin_1*%
%TO.N,Net-(J3-PadS)*%
X139905000Y-107904000D03*
%TD*%
D12*
%TO.P,J147,*%
%TO.N,*%
X141180000Y-91010000D03*
D13*
%TO.P,J147,S*%
%TO.N,Net-(J3-PadS)*%
X141180000Y-94110000D03*
%TO.P,J147,T*%
%TO.N,Net-(J3-PadT)*%
X141180000Y-102410000D03*
%TD*%
D11*
%TO.P,J149,*%
%TO.N,*%
X139905000Y-87584000D03*
D10*
X142445000Y-87584000D03*
%TD*%
%TO.P,J145,2,Pin_2*%
%TO.N,Net-(J3-PadT)*%
X130445000Y-107904000D03*
D11*
%TO.P,J145,1,Pin_1*%
%TO.N,Net-(J3-PadS)*%
X127905000Y-107904000D03*
%TD*%
D12*
%TO.P,J144,*%
%TO.N,*%
X129180000Y-91010000D03*
D13*
%TO.P,J144,S*%
%TO.N,Net-(J3-PadS)*%
X129180000Y-94110000D03*
%TO.P,J144,T*%
%TO.N,Net-(J3-PadT)*%
X129180000Y-102410000D03*
%TD*%
D11*
%TO.P,J146,*%
%TO.N,*%
X127905000Y-87584000D03*
D10*
X130445000Y-87584000D03*
%TD*%
%TO.P,J142,2,Pin_2*%
%TO.N,Net-(J3-PadT)*%
X118445000Y-107904000D03*
D11*
%TO.P,J142,1,Pin_1*%
%TO.N,Net-(J3-PadS)*%
X115905000Y-107904000D03*
%TD*%
D12*
%TO.P,J141,*%
%TO.N,*%
X117180000Y-91010000D03*
D13*
%TO.P,J141,S*%
%TO.N,Net-(J3-PadS)*%
X117180000Y-94110000D03*
%TO.P,J141,T*%
%TO.N,Net-(J3-PadT)*%
X117180000Y-102410000D03*
%TD*%
D11*
%TO.P,J143,*%
%TO.N,*%
X115905000Y-87584000D03*
D10*
X118445000Y-87584000D03*
%TD*%
%TO.P,J139,2,Pin_2*%
%TO.N,Net-(J3-PadT)*%
X106445000Y-107904000D03*
D11*
%TO.P,J139,1,Pin_1*%
%TO.N,Net-(J3-PadS)*%
X103905000Y-107904000D03*
%TD*%
D12*
%TO.P,J138,*%
%TO.N,*%
X105180000Y-91010000D03*
D13*
%TO.P,J138,S*%
%TO.N,Net-(J3-PadS)*%
X105180000Y-94110000D03*
%TO.P,J138,T*%
%TO.N,Net-(J3-PadT)*%
X105180000Y-102410000D03*
%TD*%
D11*
%TO.P,J140,*%
%TO.N,*%
X103905000Y-87584000D03*
D10*
X106445000Y-87584000D03*
%TD*%
%TO.P,J136,2,Pin_2*%
%TO.N,Net-(J3-PadT)*%
X94445000Y-107904000D03*
D11*
%TO.P,J136,1,Pin_1*%
%TO.N,Net-(J3-PadS)*%
X91905000Y-107904000D03*
%TD*%
D12*
%TO.P,J135,*%
%TO.N,*%
X93180000Y-91010000D03*
D13*
%TO.P,J135,S*%
%TO.N,Net-(J3-PadS)*%
X93180000Y-94110000D03*
%TO.P,J135,T*%
%TO.N,Net-(J3-PadT)*%
X93180000Y-102410000D03*
%TD*%
D11*
%TO.P,J137,*%
%TO.N,*%
X91905000Y-87584000D03*
D10*
X94445000Y-87584000D03*
%TD*%
%TO.P,J133,2,Pin_2*%
%TO.N,Net-(J3-PadT)*%
X82445000Y-107904000D03*
D11*
%TO.P,J133,1,Pin_1*%
%TO.N,Net-(J3-PadS)*%
X79905000Y-107904000D03*
%TD*%
D12*
%TO.P,J132,*%
%TO.N,*%
X81180000Y-91010000D03*
D13*
%TO.P,J132,S*%
%TO.N,Net-(J3-PadS)*%
X81180000Y-94110000D03*
%TO.P,J132,T*%
%TO.N,Net-(J3-PadT)*%
X81180000Y-102410000D03*
%TD*%
D11*
%TO.P,J134,*%
%TO.N,*%
X79905000Y-87584000D03*
D10*
X82445000Y-87584000D03*
%TD*%
%TO.P,J130,2,Pin_2*%
%TO.N,Net-(J3-PadT)*%
X166445000Y-81904000D03*
D11*
%TO.P,J130,1,Pin_1*%
%TO.N,Net-(J3-PadS)*%
X163905000Y-81904000D03*
%TD*%
D12*
%TO.P,J129,*%
%TO.N,*%
X165180000Y-65010000D03*
D13*
%TO.P,J129,S*%
%TO.N,Net-(J3-PadS)*%
X165180000Y-68110000D03*
%TO.P,J129,T*%
%TO.N,Net-(J3-PadT)*%
X165180000Y-76410000D03*
%TD*%
D11*
%TO.P,J131,*%
%TO.N,*%
X163905000Y-61584000D03*
D10*
X166445000Y-61584000D03*
%TD*%
%TO.P,J127,2,Pin_2*%
%TO.N,Net-(J3-PadT)*%
X154445000Y-81904000D03*
D11*
%TO.P,J127,1,Pin_1*%
%TO.N,Net-(J3-PadS)*%
X151905000Y-81904000D03*
%TD*%
D12*
%TO.P,J126,*%
%TO.N,*%
X153180000Y-65010000D03*
D13*
%TO.P,J126,S*%
%TO.N,Net-(J3-PadS)*%
X153180000Y-68110000D03*
%TO.P,J126,T*%
%TO.N,Net-(J3-PadT)*%
X153180000Y-76410000D03*
%TD*%
D11*
%TO.P,J128,*%
%TO.N,*%
X151905000Y-61584000D03*
D10*
X154445000Y-61584000D03*
%TD*%
%TO.P,J124,2,Pin_2*%
%TO.N,Net-(J3-PadT)*%
X142445000Y-81904000D03*
D11*
%TO.P,J124,1,Pin_1*%
%TO.N,Net-(J3-PadS)*%
X139905000Y-81904000D03*
%TD*%
D12*
%TO.P,J123,*%
%TO.N,*%
X141180000Y-65010000D03*
D13*
%TO.P,J123,S*%
%TO.N,Net-(J3-PadS)*%
X141180000Y-68110000D03*
%TO.P,J123,T*%
%TO.N,Net-(J3-PadT)*%
X141180000Y-76410000D03*
%TD*%
D11*
%TO.P,J125,*%
%TO.N,*%
X139905000Y-61584000D03*
D10*
X142445000Y-61584000D03*
%TD*%
%TO.P,J121,2,Pin_2*%
%TO.N,Net-(J3-PadT)*%
X130445000Y-81904000D03*
D11*
%TO.P,J121,1,Pin_1*%
%TO.N,Net-(J3-PadS)*%
X127905000Y-81904000D03*
%TD*%
D12*
%TO.P,J120,*%
%TO.N,*%
X129180000Y-65010000D03*
D13*
%TO.P,J120,S*%
%TO.N,Net-(J3-PadS)*%
X129180000Y-68110000D03*
%TO.P,J120,T*%
%TO.N,Net-(J3-PadT)*%
X129180000Y-76410000D03*
%TD*%
D11*
%TO.P,J122,*%
%TO.N,*%
X127905000Y-61584000D03*
D10*
X130445000Y-61584000D03*
%TD*%
%TO.P,J118,2,Pin_2*%
%TO.N,Net-(J3-PadT)*%
X118445000Y-81904000D03*
D11*
%TO.P,J118,1,Pin_1*%
%TO.N,Net-(J3-PadS)*%
X115905000Y-81904000D03*
%TD*%
D12*
%TO.P,J117,*%
%TO.N,*%
X117180000Y-65010000D03*
D13*
%TO.P,J117,S*%
%TO.N,Net-(J3-PadS)*%
X117180000Y-68110000D03*
%TO.P,J117,T*%
%TO.N,Net-(J3-PadT)*%
X117180000Y-76410000D03*
%TD*%
D11*
%TO.P,J119,*%
%TO.N,*%
X115905000Y-61584000D03*
D10*
X118445000Y-61584000D03*
%TD*%
%TO.P,J115,2,Pin_2*%
%TO.N,Net-(J3-PadT)*%
X106445000Y-81904000D03*
D11*
%TO.P,J115,1,Pin_1*%
%TO.N,Net-(J3-PadS)*%
X103905000Y-81904000D03*
%TD*%
D12*
%TO.P,J114,*%
%TO.N,*%
X105180000Y-65010000D03*
D13*
%TO.P,J114,S*%
%TO.N,Net-(J3-PadS)*%
X105180000Y-68110000D03*
%TO.P,J114,T*%
%TO.N,Net-(J3-PadT)*%
X105180000Y-76410000D03*
%TD*%
D11*
%TO.P,J116,*%
%TO.N,*%
X103905000Y-61584000D03*
D10*
X106445000Y-61584000D03*
%TD*%
%TO.P,J112,2,Pin_2*%
%TO.N,Net-(J3-PadT)*%
X94445000Y-81904000D03*
D11*
%TO.P,J112,1,Pin_1*%
%TO.N,Net-(J3-PadS)*%
X91905000Y-81904000D03*
%TD*%
D12*
%TO.P,J111,*%
%TO.N,*%
X93180000Y-65010000D03*
D13*
%TO.P,J111,S*%
%TO.N,Net-(J3-PadS)*%
X93180000Y-68110000D03*
%TO.P,J111,T*%
%TO.N,Net-(J3-PadT)*%
X93180000Y-76410000D03*
%TD*%
D11*
%TO.P,J113,*%
%TO.N,*%
X91905000Y-61584000D03*
D10*
X94445000Y-61584000D03*
%TD*%
%TO.P,J109,2,Pin_2*%
%TO.N,Net-(J3-PadT)*%
X82445000Y-81904000D03*
D11*
%TO.P,J109,1,Pin_1*%
%TO.N,Net-(J3-PadS)*%
X79905000Y-81904000D03*
%TD*%
%TO.P,J110,*%
%TO.N,*%
X79905000Y-61584000D03*
D10*
X82445000Y-61584000D03*
%TD*%
D12*
%TO.P,J108,*%
%TO.N,*%
X81180000Y-65010000D03*
D13*
%TO.P,J108,S*%
%TO.N,Net-(J3-PadS)*%
X81180000Y-68110000D03*
%TO.P,J108,T*%
%TO.N,Net-(J3-PadT)*%
X81180000Y-76410000D03*
%TD*%
M02*
