M48
; DRILL file {KiCad (6.0.0-0)} date Tuesday, November 22, 2022 at 10:59:57 AM
; FORMAT={-:-/ absolute / inch / decimal}
; #@! TF.CreationDate,2022-11-22T10:59:57-05:00
; #@! TF.GenerationSoftware,Kicad,Pcbnew,(6.0.0-0)
; #@! TF.FileFunction,Plated,1,2,PTH
FMAT,2
INCH
; #@! TA.AperFunction,Plated,PTH,ComponentDrill
T1C0.0394
; #@! TA.AperFunction,Plated,PTH,ComponentDrill
T2C0.0480
; #@! TA.AperFunction,Plated,PTH,ComponentDrill
T3C0.0559
; #@! TA.AperFunction,Plated,PTH,ComponentDrill
T4C0.0563
%
G90
G05
T1
X3.1459Y-2.4246
X3.1459Y-3.2246
X3.1459Y-3.4482
X3.1459Y-4.2482
X3.1459Y-4.4718
X3.1459Y-5.2718
X3.2459Y-2.4246
X3.2459Y-3.2246
X3.2459Y-3.4482
X3.2459Y-4.2482
X3.2459Y-4.4718
X3.2459Y-5.2718
X3.6183Y-2.4246
X3.6183Y-3.2246
X3.6183Y-3.4482
X3.6183Y-4.2482
X3.6183Y-4.4718
X3.6183Y-5.2718
X3.7183Y-2.4246
X3.7183Y-3.2246
X3.7183Y-3.4482
X3.7183Y-4.2482
X3.7183Y-4.4718
X3.7183Y-5.2718
X4.0907Y-2.4246
X4.0907Y-3.2246
X4.0907Y-3.4482
X4.0907Y-4.2482
X4.0907Y-4.4718
X4.0907Y-5.2718
X4.1907Y-2.4246
X4.1907Y-3.2246
X4.1907Y-3.4482
X4.1907Y-4.2482
X4.1907Y-4.4718
X4.1907Y-5.2718
X4.5632Y-2.4246
X4.5632Y-3.2246
X4.5632Y-3.4482
X4.5632Y-4.2482
X4.5632Y-4.4718
X4.5632Y-5.2718
X4.6632Y-2.4246
X4.6632Y-3.2246
X4.6632Y-3.4482
X4.6632Y-4.2482
X4.6632Y-4.4718
X4.6632Y-5.2718
X5.0356Y-2.4246
X5.0356Y-3.2246
X5.0356Y-3.4482
X5.0356Y-4.2482
X5.0356Y-4.4718
X5.0356Y-5.2718
X5.1356Y-2.4246
X5.1356Y-3.2246
X5.1356Y-3.4482
X5.1356Y-4.2482
X5.1356Y-4.4718
X5.1356Y-5.2718
X5.5081Y-2.4246
X5.5081Y-3.2246
X5.5081Y-3.4482
X5.5081Y-4.2482
X5.5081Y-4.4718
X5.5081Y-5.2718
X5.6081Y-2.4246
X5.6081Y-3.2246
X5.6081Y-3.4482
X5.6081Y-4.2482
X5.6081Y-4.4718
X5.6081Y-5.2718
X5.9805Y-2.4246
X5.9805Y-3.2246
X5.9805Y-3.4482
X5.9805Y-4.2482
X5.9805Y-4.4718
X5.9805Y-5.2718
X6.0805Y-2.4246
X6.0805Y-3.2246
X6.0805Y-3.4482
X6.0805Y-4.2482
X6.0805Y-4.4718
X6.0805Y-5.2718
X6.453Y-2.4246
X6.453Y-3.2246
X6.453Y-3.4482
X6.453Y-4.2482
X6.453Y-4.4718
X6.453Y-5.2718
X6.553Y-2.4246
X6.553Y-3.2246
X6.553Y-3.4482
X6.553Y-4.2482
X6.553Y-4.4718
X6.553Y-5.2718
T2
X3.1961Y-2.5594
X3.1961Y-3.5831
X3.1961Y-4.6067
X3.6685Y-2.5594
X3.6685Y-3.5831
X3.6685Y-4.6067
X4.1409Y-2.5594
X4.1409Y-3.5831
X4.1409Y-4.6067
X4.6134Y-2.5594
X4.6134Y-3.5831
X4.6134Y-4.6067
X5.0858Y-2.5594
X5.0858Y-3.5831
X5.0858Y-4.6067
X5.5583Y-2.5594
X5.5583Y-3.5831
X5.5583Y-4.6067
X6.0307Y-2.5594
X6.0307Y-3.5831
X6.0307Y-4.6067
X6.5031Y-2.5594
X6.5031Y-3.5831
X6.5031Y-4.6067
T3
X3.1961Y-2.6815
X3.1961Y-3.7051
X3.1961Y-4.7287
X3.6685Y-2.6815
X3.6685Y-3.7051
X3.6685Y-4.7287
X4.1409Y-2.6815
X4.1409Y-3.7051
X4.1409Y-4.7287
X4.6134Y-2.6815
X4.6134Y-3.7051
X4.6134Y-4.7287
X5.0858Y-2.6815
X5.0858Y-3.7051
X5.0858Y-4.7287
X5.5583Y-2.6815
X5.5583Y-3.7051
X5.5583Y-4.7287
X6.0307Y-2.6815
X6.0307Y-3.7051
X6.0307Y-4.7287
X6.5031Y-2.6815
X6.5031Y-3.7051
X6.5031Y-4.7287
T4
X3.1961Y-3.0083
X3.1961Y-4.0319
X3.1961Y-5.0555
X3.6685Y-3.0083
X3.6685Y-4.0319
X3.6685Y-5.0555
X4.1409Y-3.0083
X4.1409Y-4.0319
X4.1409Y-5.0555
X4.6134Y-3.0083
X4.6134Y-4.0319
X4.6134Y-5.0555
X5.0858Y-3.0083
X5.0858Y-4.0319
X5.0858Y-5.0555
X5.5583Y-3.0083
X5.5583Y-4.0319
X5.5583Y-5.0555
X6.0307Y-3.0083
X6.0307Y-4.0319
X6.0307Y-5.0555
X6.5031Y-3.0083
X6.5031Y-4.0319
X6.5031Y-5.0555
T0
M30
