%TF.GenerationSoftware,KiCad,Pcbnew,(6.0.0-0)*%
%TF.CreationDate,2022-11-22T10:59:50-05:00*%
%TF.ProjectId,AudioJack-Breakout-Panelization,41756469-6f4a-4616-936b-2d427265616b,rev?*%
%TF.SameCoordinates,Original*%
%TF.FileFunction,Legend,Top*%
%TF.FilePolarity,Positive*%
%FSLAX46Y46*%
G04 Gerber Fmt 4.6, Leading zero omitted, Abs format (unit mm)*
G04 Created by KiCad (PCBNEW (6.0.0-0)) date 2022-11-22 10:59:50*
%MOMM*%
%LPD*%
G01*
G04 APERTURE LIST*
%ADD10C,0.150000*%
%ADD11C,0.120000*%
G04 APERTURE END LIST*
D10*
X169616380Y-117156476D02*
X168616380Y-117156476D01*
X169330666Y-116823142D01*
X168616380Y-116489809D01*
X169616380Y-116489809D01*
X169616380Y-115870761D02*
X169568761Y-115966000D01*
X169521142Y-116013619D01*
X169425904Y-116061238D01*
X169140190Y-116061238D01*
X169044952Y-116013619D01*
X168997333Y-115966000D01*
X168949714Y-115870761D01*
X168949714Y-115727904D01*
X168997333Y-115632666D01*
X169044952Y-115585047D01*
X169140190Y-115537428D01*
X169425904Y-115537428D01*
X169521142Y-115585047D01*
X169568761Y-115632666D01*
X169616380Y-115727904D01*
X169616380Y-115870761D01*
X168949714Y-115108857D02*
X169616380Y-115108857D01*
X169044952Y-115108857D02*
X168997333Y-115061238D01*
X168949714Y-114966000D01*
X168949714Y-114823142D01*
X168997333Y-114727904D01*
X169092571Y-114680285D01*
X169616380Y-114680285D01*
X169616380Y-114061238D02*
X169568761Y-114156476D01*
X169521142Y-114204095D01*
X169425904Y-114251714D01*
X169140190Y-114251714D01*
X169044952Y-114204095D01*
X168997333Y-114156476D01*
X168949714Y-114061238D01*
X168949714Y-113918380D01*
X168997333Y-113823142D01*
X169044952Y-113775523D01*
X169140190Y-113727904D01*
X169425904Y-113727904D01*
X169521142Y-113775523D01*
X169568761Y-113823142D01*
X169616380Y-113918380D01*
X169616380Y-114061238D01*
X160742380Y-117846952D02*
X160742380Y-117227904D01*
X161123333Y-117561238D01*
X161123333Y-117418380D01*
X161170952Y-117323142D01*
X161218571Y-117275523D01*
X161313809Y-117227904D01*
X161551904Y-117227904D01*
X161647142Y-117275523D01*
X161694761Y-117323142D01*
X161742380Y-117418380D01*
X161742380Y-117704095D01*
X161694761Y-117799333D01*
X161647142Y-117846952D01*
X161647142Y-116799333D02*
X161694761Y-116751714D01*
X161742380Y-116799333D01*
X161694761Y-116846952D01*
X161647142Y-116799333D01*
X161742380Y-116799333D01*
X160742380Y-115846952D02*
X160742380Y-116323142D01*
X161218571Y-116370761D01*
X161170952Y-116323142D01*
X161123333Y-116227904D01*
X161123333Y-115989809D01*
X161170952Y-115894571D01*
X161218571Y-115846952D01*
X161313809Y-115799333D01*
X161551904Y-115799333D01*
X161647142Y-115846952D01*
X161694761Y-115894571D01*
X161742380Y-115989809D01*
X161742380Y-116227904D01*
X161694761Y-116323142D01*
X161647142Y-116370761D01*
X161742380Y-115370761D02*
X161075714Y-115370761D01*
X161170952Y-115370761D02*
X161123333Y-115323142D01*
X161075714Y-115227904D01*
X161075714Y-115085047D01*
X161123333Y-114989809D01*
X161218571Y-114942190D01*
X161742380Y-114942190D01*
X161218571Y-114942190D02*
X161123333Y-114894571D01*
X161075714Y-114799333D01*
X161075714Y-114656476D01*
X161123333Y-114561238D01*
X161218571Y-114513619D01*
X161742380Y-114513619D01*
X161742380Y-114037428D02*
X161075714Y-114037428D01*
X161170952Y-114037428D02*
X161123333Y-113989809D01*
X161075714Y-113894571D01*
X161075714Y-113751714D01*
X161123333Y-113656476D01*
X161218571Y-113608857D01*
X161742380Y-113608857D01*
X161218571Y-113608857D02*
X161123333Y-113561238D01*
X161075714Y-113466000D01*
X161075714Y-113323142D01*
X161123333Y-113227904D01*
X161218571Y-113180285D01*
X161742380Y-113180285D01*
X163642285Y-132164761D02*
X163785142Y-132212380D01*
X164023238Y-132212380D01*
X164118476Y-132164761D01*
X164166095Y-132117142D01*
X164213714Y-132021904D01*
X164213714Y-131926666D01*
X164166095Y-131831428D01*
X164118476Y-131783809D01*
X164023238Y-131736190D01*
X163832761Y-131688571D01*
X163737523Y-131640952D01*
X163689904Y-131593333D01*
X163642285Y-131498095D01*
X163642285Y-131402857D01*
X163689904Y-131307619D01*
X163737523Y-131260000D01*
X163832761Y-131212380D01*
X164070857Y-131212380D01*
X164213714Y-131260000D01*
X166212285Y-131212380D02*
X166783714Y-131212380D01*
X166498000Y-132212380D02*
X166498000Y-131212380D01*
X157616380Y-117156476D02*
X156616380Y-117156476D01*
X157330666Y-116823142D01*
X156616380Y-116489809D01*
X157616380Y-116489809D01*
X157616380Y-115870761D02*
X157568761Y-115966000D01*
X157521142Y-116013619D01*
X157425904Y-116061238D01*
X157140190Y-116061238D01*
X157044952Y-116013619D01*
X156997333Y-115966000D01*
X156949714Y-115870761D01*
X156949714Y-115727904D01*
X156997333Y-115632666D01*
X157044952Y-115585047D01*
X157140190Y-115537428D01*
X157425904Y-115537428D01*
X157521142Y-115585047D01*
X157568761Y-115632666D01*
X157616380Y-115727904D01*
X157616380Y-115870761D01*
X156949714Y-115108857D02*
X157616380Y-115108857D01*
X157044952Y-115108857D02*
X156997333Y-115061238D01*
X156949714Y-114966000D01*
X156949714Y-114823142D01*
X156997333Y-114727904D01*
X157092571Y-114680285D01*
X157616380Y-114680285D01*
X157616380Y-114061238D02*
X157568761Y-114156476D01*
X157521142Y-114204095D01*
X157425904Y-114251714D01*
X157140190Y-114251714D01*
X157044952Y-114204095D01*
X156997333Y-114156476D01*
X156949714Y-114061238D01*
X156949714Y-113918380D01*
X156997333Y-113823142D01*
X157044952Y-113775523D01*
X157140190Y-113727904D01*
X157425904Y-113727904D01*
X157521142Y-113775523D01*
X157568761Y-113823142D01*
X157616380Y-113918380D01*
X157616380Y-114061238D01*
X148742380Y-117846952D02*
X148742380Y-117227904D01*
X149123333Y-117561238D01*
X149123333Y-117418380D01*
X149170952Y-117323142D01*
X149218571Y-117275523D01*
X149313809Y-117227904D01*
X149551904Y-117227904D01*
X149647142Y-117275523D01*
X149694761Y-117323142D01*
X149742380Y-117418380D01*
X149742380Y-117704095D01*
X149694761Y-117799333D01*
X149647142Y-117846952D01*
X149647142Y-116799333D02*
X149694761Y-116751714D01*
X149742380Y-116799333D01*
X149694761Y-116846952D01*
X149647142Y-116799333D01*
X149742380Y-116799333D01*
X148742380Y-115846952D02*
X148742380Y-116323142D01*
X149218571Y-116370761D01*
X149170952Y-116323142D01*
X149123333Y-116227904D01*
X149123333Y-115989809D01*
X149170952Y-115894571D01*
X149218571Y-115846952D01*
X149313809Y-115799333D01*
X149551904Y-115799333D01*
X149647142Y-115846952D01*
X149694761Y-115894571D01*
X149742380Y-115989809D01*
X149742380Y-116227904D01*
X149694761Y-116323142D01*
X149647142Y-116370761D01*
X149742380Y-115370761D02*
X149075714Y-115370761D01*
X149170952Y-115370761D02*
X149123333Y-115323142D01*
X149075714Y-115227904D01*
X149075714Y-115085047D01*
X149123333Y-114989809D01*
X149218571Y-114942190D01*
X149742380Y-114942190D01*
X149218571Y-114942190D02*
X149123333Y-114894571D01*
X149075714Y-114799333D01*
X149075714Y-114656476D01*
X149123333Y-114561238D01*
X149218571Y-114513619D01*
X149742380Y-114513619D01*
X149742380Y-114037428D02*
X149075714Y-114037428D01*
X149170952Y-114037428D02*
X149123333Y-113989809D01*
X149075714Y-113894571D01*
X149075714Y-113751714D01*
X149123333Y-113656476D01*
X149218571Y-113608857D01*
X149742380Y-113608857D01*
X149218571Y-113608857D02*
X149123333Y-113561238D01*
X149075714Y-113466000D01*
X149075714Y-113323142D01*
X149123333Y-113227904D01*
X149218571Y-113180285D01*
X149742380Y-113180285D01*
X151642285Y-132164761D02*
X151785142Y-132212380D01*
X152023238Y-132212380D01*
X152118476Y-132164761D01*
X152166095Y-132117142D01*
X152213714Y-132021904D01*
X152213714Y-131926666D01*
X152166095Y-131831428D01*
X152118476Y-131783809D01*
X152023238Y-131736190D01*
X151832761Y-131688571D01*
X151737523Y-131640952D01*
X151689904Y-131593333D01*
X151642285Y-131498095D01*
X151642285Y-131402857D01*
X151689904Y-131307619D01*
X151737523Y-131260000D01*
X151832761Y-131212380D01*
X152070857Y-131212380D01*
X152213714Y-131260000D01*
X154212285Y-131212380D02*
X154783714Y-131212380D01*
X154498000Y-132212380D02*
X154498000Y-131212380D01*
X145616380Y-117156476D02*
X144616380Y-117156476D01*
X145330666Y-116823142D01*
X144616380Y-116489809D01*
X145616380Y-116489809D01*
X145616380Y-115870761D02*
X145568761Y-115966000D01*
X145521142Y-116013619D01*
X145425904Y-116061238D01*
X145140190Y-116061238D01*
X145044952Y-116013619D01*
X144997333Y-115966000D01*
X144949714Y-115870761D01*
X144949714Y-115727904D01*
X144997333Y-115632666D01*
X145044952Y-115585047D01*
X145140190Y-115537428D01*
X145425904Y-115537428D01*
X145521142Y-115585047D01*
X145568761Y-115632666D01*
X145616380Y-115727904D01*
X145616380Y-115870761D01*
X144949714Y-115108857D02*
X145616380Y-115108857D01*
X145044952Y-115108857D02*
X144997333Y-115061238D01*
X144949714Y-114966000D01*
X144949714Y-114823142D01*
X144997333Y-114727904D01*
X145092571Y-114680285D01*
X145616380Y-114680285D01*
X145616380Y-114061238D02*
X145568761Y-114156476D01*
X145521142Y-114204095D01*
X145425904Y-114251714D01*
X145140190Y-114251714D01*
X145044952Y-114204095D01*
X144997333Y-114156476D01*
X144949714Y-114061238D01*
X144949714Y-113918380D01*
X144997333Y-113823142D01*
X145044952Y-113775523D01*
X145140190Y-113727904D01*
X145425904Y-113727904D01*
X145521142Y-113775523D01*
X145568761Y-113823142D01*
X145616380Y-113918380D01*
X145616380Y-114061238D01*
X136742380Y-117846952D02*
X136742380Y-117227904D01*
X137123333Y-117561238D01*
X137123333Y-117418380D01*
X137170952Y-117323142D01*
X137218571Y-117275523D01*
X137313809Y-117227904D01*
X137551904Y-117227904D01*
X137647142Y-117275523D01*
X137694761Y-117323142D01*
X137742380Y-117418380D01*
X137742380Y-117704095D01*
X137694761Y-117799333D01*
X137647142Y-117846952D01*
X137647142Y-116799333D02*
X137694761Y-116751714D01*
X137742380Y-116799333D01*
X137694761Y-116846952D01*
X137647142Y-116799333D01*
X137742380Y-116799333D01*
X136742380Y-115846952D02*
X136742380Y-116323142D01*
X137218571Y-116370761D01*
X137170952Y-116323142D01*
X137123333Y-116227904D01*
X137123333Y-115989809D01*
X137170952Y-115894571D01*
X137218571Y-115846952D01*
X137313809Y-115799333D01*
X137551904Y-115799333D01*
X137647142Y-115846952D01*
X137694761Y-115894571D01*
X137742380Y-115989809D01*
X137742380Y-116227904D01*
X137694761Y-116323142D01*
X137647142Y-116370761D01*
X137742380Y-115370761D02*
X137075714Y-115370761D01*
X137170952Y-115370761D02*
X137123333Y-115323142D01*
X137075714Y-115227904D01*
X137075714Y-115085047D01*
X137123333Y-114989809D01*
X137218571Y-114942190D01*
X137742380Y-114942190D01*
X137218571Y-114942190D02*
X137123333Y-114894571D01*
X137075714Y-114799333D01*
X137075714Y-114656476D01*
X137123333Y-114561238D01*
X137218571Y-114513619D01*
X137742380Y-114513619D01*
X137742380Y-114037428D02*
X137075714Y-114037428D01*
X137170952Y-114037428D02*
X137123333Y-113989809D01*
X137075714Y-113894571D01*
X137075714Y-113751714D01*
X137123333Y-113656476D01*
X137218571Y-113608857D01*
X137742380Y-113608857D01*
X137218571Y-113608857D02*
X137123333Y-113561238D01*
X137075714Y-113466000D01*
X137075714Y-113323142D01*
X137123333Y-113227904D01*
X137218571Y-113180285D01*
X137742380Y-113180285D01*
X139642285Y-132164761D02*
X139785142Y-132212380D01*
X140023238Y-132212380D01*
X140118476Y-132164761D01*
X140166095Y-132117142D01*
X140213714Y-132021904D01*
X140213714Y-131926666D01*
X140166095Y-131831428D01*
X140118476Y-131783809D01*
X140023238Y-131736190D01*
X139832761Y-131688571D01*
X139737523Y-131640952D01*
X139689904Y-131593333D01*
X139642285Y-131498095D01*
X139642285Y-131402857D01*
X139689904Y-131307619D01*
X139737523Y-131260000D01*
X139832761Y-131212380D01*
X140070857Y-131212380D01*
X140213714Y-131260000D01*
X142212285Y-131212380D02*
X142783714Y-131212380D01*
X142498000Y-132212380D02*
X142498000Y-131212380D01*
X133616380Y-117156476D02*
X132616380Y-117156476D01*
X133330666Y-116823142D01*
X132616380Y-116489809D01*
X133616380Y-116489809D01*
X133616380Y-115870761D02*
X133568761Y-115966000D01*
X133521142Y-116013619D01*
X133425904Y-116061238D01*
X133140190Y-116061238D01*
X133044952Y-116013619D01*
X132997333Y-115966000D01*
X132949714Y-115870761D01*
X132949714Y-115727904D01*
X132997333Y-115632666D01*
X133044952Y-115585047D01*
X133140190Y-115537428D01*
X133425904Y-115537428D01*
X133521142Y-115585047D01*
X133568761Y-115632666D01*
X133616380Y-115727904D01*
X133616380Y-115870761D01*
X132949714Y-115108857D02*
X133616380Y-115108857D01*
X133044952Y-115108857D02*
X132997333Y-115061238D01*
X132949714Y-114966000D01*
X132949714Y-114823142D01*
X132997333Y-114727904D01*
X133092571Y-114680285D01*
X133616380Y-114680285D01*
X133616380Y-114061238D02*
X133568761Y-114156476D01*
X133521142Y-114204095D01*
X133425904Y-114251714D01*
X133140190Y-114251714D01*
X133044952Y-114204095D01*
X132997333Y-114156476D01*
X132949714Y-114061238D01*
X132949714Y-113918380D01*
X132997333Y-113823142D01*
X133044952Y-113775523D01*
X133140190Y-113727904D01*
X133425904Y-113727904D01*
X133521142Y-113775523D01*
X133568761Y-113823142D01*
X133616380Y-113918380D01*
X133616380Y-114061238D01*
X124742380Y-117846952D02*
X124742380Y-117227904D01*
X125123333Y-117561238D01*
X125123333Y-117418380D01*
X125170952Y-117323142D01*
X125218571Y-117275523D01*
X125313809Y-117227904D01*
X125551904Y-117227904D01*
X125647142Y-117275523D01*
X125694761Y-117323142D01*
X125742380Y-117418380D01*
X125742380Y-117704095D01*
X125694761Y-117799333D01*
X125647142Y-117846952D01*
X125647142Y-116799333D02*
X125694761Y-116751714D01*
X125742380Y-116799333D01*
X125694761Y-116846952D01*
X125647142Y-116799333D01*
X125742380Y-116799333D01*
X124742380Y-115846952D02*
X124742380Y-116323142D01*
X125218571Y-116370761D01*
X125170952Y-116323142D01*
X125123333Y-116227904D01*
X125123333Y-115989809D01*
X125170952Y-115894571D01*
X125218571Y-115846952D01*
X125313809Y-115799333D01*
X125551904Y-115799333D01*
X125647142Y-115846952D01*
X125694761Y-115894571D01*
X125742380Y-115989809D01*
X125742380Y-116227904D01*
X125694761Y-116323142D01*
X125647142Y-116370761D01*
X125742380Y-115370761D02*
X125075714Y-115370761D01*
X125170952Y-115370761D02*
X125123333Y-115323142D01*
X125075714Y-115227904D01*
X125075714Y-115085047D01*
X125123333Y-114989809D01*
X125218571Y-114942190D01*
X125742380Y-114942190D01*
X125218571Y-114942190D02*
X125123333Y-114894571D01*
X125075714Y-114799333D01*
X125075714Y-114656476D01*
X125123333Y-114561238D01*
X125218571Y-114513619D01*
X125742380Y-114513619D01*
X125742380Y-114037428D02*
X125075714Y-114037428D01*
X125170952Y-114037428D02*
X125123333Y-113989809D01*
X125075714Y-113894571D01*
X125075714Y-113751714D01*
X125123333Y-113656476D01*
X125218571Y-113608857D01*
X125742380Y-113608857D01*
X125218571Y-113608857D02*
X125123333Y-113561238D01*
X125075714Y-113466000D01*
X125075714Y-113323142D01*
X125123333Y-113227904D01*
X125218571Y-113180285D01*
X125742380Y-113180285D01*
X127642285Y-132164761D02*
X127785142Y-132212380D01*
X128023238Y-132212380D01*
X128118476Y-132164761D01*
X128166095Y-132117142D01*
X128213714Y-132021904D01*
X128213714Y-131926666D01*
X128166095Y-131831428D01*
X128118476Y-131783809D01*
X128023238Y-131736190D01*
X127832761Y-131688571D01*
X127737523Y-131640952D01*
X127689904Y-131593333D01*
X127642285Y-131498095D01*
X127642285Y-131402857D01*
X127689904Y-131307619D01*
X127737523Y-131260000D01*
X127832761Y-131212380D01*
X128070857Y-131212380D01*
X128213714Y-131260000D01*
X130212285Y-131212380D02*
X130783714Y-131212380D01*
X130498000Y-132212380D02*
X130498000Y-131212380D01*
X121616380Y-117156476D02*
X120616380Y-117156476D01*
X121330666Y-116823142D01*
X120616380Y-116489809D01*
X121616380Y-116489809D01*
X121616380Y-115870761D02*
X121568761Y-115966000D01*
X121521142Y-116013619D01*
X121425904Y-116061238D01*
X121140190Y-116061238D01*
X121044952Y-116013619D01*
X120997333Y-115966000D01*
X120949714Y-115870761D01*
X120949714Y-115727904D01*
X120997333Y-115632666D01*
X121044952Y-115585047D01*
X121140190Y-115537428D01*
X121425904Y-115537428D01*
X121521142Y-115585047D01*
X121568761Y-115632666D01*
X121616380Y-115727904D01*
X121616380Y-115870761D01*
X120949714Y-115108857D02*
X121616380Y-115108857D01*
X121044952Y-115108857D02*
X120997333Y-115061238D01*
X120949714Y-114966000D01*
X120949714Y-114823142D01*
X120997333Y-114727904D01*
X121092571Y-114680285D01*
X121616380Y-114680285D01*
X121616380Y-114061238D02*
X121568761Y-114156476D01*
X121521142Y-114204095D01*
X121425904Y-114251714D01*
X121140190Y-114251714D01*
X121044952Y-114204095D01*
X120997333Y-114156476D01*
X120949714Y-114061238D01*
X120949714Y-113918380D01*
X120997333Y-113823142D01*
X121044952Y-113775523D01*
X121140190Y-113727904D01*
X121425904Y-113727904D01*
X121521142Y-113775523D01*
X121568761Y-113823142D01*
X121616380Y-113918380D01*
X121616380Y-114061238D01*
X112742380Y-117846952D02*
X112742380Y-117227904D01*
X113123333Y-117561238D01*
X113123333Y-117418380D01*
X113170952Y-117323142D01*
X113218571Y-117275523D01*
X113313809Y-117227904D01*
X113551904Y-117227904D01*
X113647142Y-117275523D01*
X113694761Y-117323142D01*
X113742380Y-117418380D01*
X113742380Y-117704095D01*
X113694761Y-117799333D01*
X113647142Y-117846952D01*
X113647142Y-116799333D02*
X113694761Y-116751714D01*
X113742380Y-116799333D01*
X113694761Y-116846952D01*
X113647142Y-116799333D01*
X113742380Y-116799333D01*
X112742380Y-115846952D02*
X112742380Y-116323142D01*
X113218571Y-116370761D01*
X113170952Y-116323142D01*
X113123333Y-116227904D01*
X113123333Y-115989809D01*
X113170952Y-115894571D01*
X113218571Y-115846952D01*
X113313809Y-115799333D01*
X113551904Y-115799333D01*
X113647142Y-115846952D01*
X113694761Y-115894571D01*
X113742380Y-115989809D01*
X113742380Y-116227904D01*
X113694761Y-116323142D01*
X113647142Y-116370761D01*
X113742380Y-115370761D02*
X113075714Y-115370761D01*
X113170952Y-115370761D02*
X113123333Y-115323142D01*
X113075714Y-115227904D01*
X113075714Y-115085047D01*
X113123333Y-114989809D01*
X113218571Y-114942190D01*
X113742380Y-114942190D01*
X113218571Y-114942190D02*
X113123333Y-114894571D01*
X113075714Y-114799333D01*
X113075714Y-114656476D01*
X113123333Y-114561238D01*
X113218571Y-114513619D01*
X113742380Y-114513619D01*
X113742380Y-114037428D02*
X113075714Y-114037428D01*
X113170952Y-114037428D02*
X113123333Y-113989809D01*
X113075714Y-113894571D01*
X113075714Y-113751714D01*
X113123333Y-113656476D01*
X113218571Y-113608857D01*
X113742380Y-113608857D01*
X113218571Y-113608857D02*
X113123333Y-113561238D01*
X113075714Y-113466000D01*
X113075714Y-113323142D01*
X113123333Y-113227904D01*
X113218571Y-113180285D01*
X113742380Y-113180285D01*
X115642285Y-132164761D02*
X115785142Y-132212380D01*
X116023238Y-132212380D01*
X116118476Y-132164761D01*
X116166095Y-132117142D01*
X116213714Y-132021904D01*
X116213714Y-131926666D01*
X116166095Y-131831428D01*
X116118476Y-131783809D01*
X116023238Y-131736190D01*
X115832761Y-131688571D01*
X115737523Y-131640952D01*
X115689904Y-131593333D01*
X115642285Y-131498095D01*
X115642285Y-131402857D01*
X115689904Y-131307619D01*
X115737523Y-131260000D01*
X115832761Y-131212380D01*
X116070857Y-131212380D01*
X116213714Y-131260000D01*
X118212285Y-131212380D02*
X118783714Y-131212380D01*
X118498000Y-132212380D02*
X118498000Y-131212380D01*
X109616380Y-117156476D02*
X108616380Y-117156476D01*
X109330666Y-116823142D01*
X108616380Y-116489809D01*
X109616380Y-116489809D01*
X109616380Y-115870761D02*
X109568761Y-115966000D01*
X109521142Y-116013619D01*
X109425904Y-116061238D01*
X109140190Y-116061238D01*
X109044952Y-116013619D01*
X108997333Y-115966000D01*
X108949714Y-115870761D01*
X108949714Y-115727904D01*
X108997333Y-115632666D01*
X109044952Y-115585047D01*
X109140190Y-115537428D01*
X109425904Y-115537428D01*
X109521142Y-115585047D01*
X109568761Y-115632666D01*
X109616380Y-115727904D01*
X109616380Y-115870761D01*
X108949714Y-115108857D02*
X109616380Y-115108857D01*
X109044952Y-115108857D02*
X108997333Y-115061238D01*
X108949714Y-114966000D01*
X108949714Y-114823142D01*
X108997333Y-114727904D01*
X109092571Y-114680285D01*
X109616380Y-114680285D01*
X109616380Y-114061238D02*
X109568761Y-114156476D01*
X109521142Y-114204095D01*
X109425904Y-114251714D01*
X109140190Y-114251714D01*
X109044952Y-114204095D01*
X108997333Y-114156476D01*
X108949714Y-114061238D01*
X108949714Y-113918380D01*
X108997333Y-113823142D01*
X109044952Y-113775523D01*
X109140190Y-113727904D01*
X109425904Y-113727904D01*
X109521142Y-113775523D01*
X109568761Y-113823142D01*
X109616380Y-113918380D01*
X109616380Y-114061238D01*
X100742380Y-117846952D02*
X100742380Y-117227904D01*
X101123333Y-117561238D01*
X101123333Y-117418380D01*
X101170952Y-117323142D01*
X101218571Y-117275523D01*
X101313809Y-117227904D01*
X101551904Y-117227904D01*
X101647142Y-117275523D01*
X101694761Y-117323142D01*
X101742380Y-117418380D01*
X101742380Y-117704095D01*
X101694761Y-117799333D01*
X101647142Y-117846952D01*
X101647142Y-116799333D02*
X101694761Y-116751714D01*
X101742380Y-116799333D01*
X101694761Y-116846952D01*
X101647142Y-116799333D01*
X101742380Y-116799333D01*
X100742380Y-115846952D02*
X100742380Y-116323142D01*
X101218571Y-116370761D01*
X101170952Y-116323142D01*
X101123333Y-116227904D01*
X101123333Y-115989809D01*
X101170952Y-115894571D01*
X101218571Y-115846952D01*
X101313809Y-115799333D01*
X101551904Y-115799333D01*
X101647142Y-115846952D01*
X101694761Y-115894571D01*
X101742380Y-115989809D01*
X101742380Y-116227904D01*
X101694761Y-116323142D01*
X101647142Y-116370761D01*
X101742380Y-115370761D02*
X101075714Y-115370761D01*
X101170952Y-115370761D02*
X101123333Y-115323142D01*
X101075714Y-115227904D01*
X101075714Y-115085047D01*
X101123333Y-114989809D01*
X101218571Y-114942190D01*
X101742380Y-114942190D01*
X101218571Y-114942190D02*
X101123333Y-114894571D01*
X101075714Y-114799333D01*
X101075714Y-114656476D01*
X101123333Y-114561238D01*
X101218571Y-114513619D01*
X101742380Y-114513619D01*
X101742380Y-114037428D02*
X101075714Y-114037428D01*
X101170952Y-114037428D02*
X101123333Y-113989809D01*
X101075714Y-113894571D01*
X101075714Y-113751714D01*
X101123333Y-113656476D01*
X101218571Y-113608857D01*
X101742380Y-113608857D01*
X101218571Y-113608857D02*
X101123333Y-113561238D01*
X101075714Y-113466000D01*
X101075714Y-113323142D01*
X101123333Y-113227904D01*
X101218571Y-113180285D01*
X101742380Y-113180285D01*
X103642285Y-132164761D02*
X103785142Y-132212380D01*
X104023238Y-132212380D01*
X104118476Y-132164761D01*
X104166095Y-132117142D01*
X104213714Y-132021904D01*
X104213714Y-131926666D01*
X104166095Y-131831428D01*
X104118476Y-131783809D01*
X104023238Y-131736190D01*
X103832761Y-131688571D01*
X103737523Y-131640952D01*
X103689904Y-131593333D01*
X103642285Y-131498095D01*
X103642285Y-131402857D01*
X103689904Y-131307619D01*
X103737523Y-131260000D01*
X103832761Y-131212380D01*
X104070857Y-131212380D01*
X104213714Y-131260000D01*
X106212285Y-131212380D02*
X106783714Y-131212380D01*
X106498000Y-132212380D02*
X106498000Y-131212380D01*
X97616380Y-117156476D02*
X96616380Y-117156476D01*
X97330666Y-116823142D01*
X96616380Y-116489809D01*
X97616380Y-116489809D01*
X97616380Y-115870761D02*
X97568761Y-115966000D01*
X97521142Y-116013619D01*
X97425904Y-116061238D01*
X97140190Y-116061238D01*
X97044952Y-116013619D01*
X96997333Y-115966000D01*
X96949714Y-115870761D01*
X96949714Y-115727904D01*
X96997333Y-115632666D01*
X97044952Y-115585047D01*
X97140190Y-115537428D01*
X97425904Y-115537428D01*
X97521142Y-115585047D01*
X97568761Y-115632666D01*
X97616380Y-115727904D01*
X97616380Y-115870761D01*
X96949714Y-115108857D02*
X97616380Y-115108857D01*
X97044952Y-115108857D02*
X96997333Y-115061238D01*
X96949714Y-114966000D01*
X96949714Y-114823142D01*
X96997333Y-114727904D01*
X97092571Y-114680285D01*
X97616380Y-114680285D01*
X97616380Y-114061238D02*
X97568761Y-114156476D01*
X97521142Y-114204095D01*
X97425904Y-114251714D01*
X97140190Y-114251714D01*
X97044952Y-114204095D01*
X96997333Y-114156476D01*
X96949714Y-114061238D01*
X96949714Y-113918380D01*
X96997333Y-113823142D01*
X97044952Y-113775523D01*
X97140190Y-113727904D01*
X97425904Y-113727904D01*
X97521142Y-113775523D01*
X97568761Y-113823142D01*
X97616380Y-113918380D01*
X97616380Y-114061238D01*
X88742380Y-117846952D02*
X88742380Y-117227904D01*
X89123333Y-117561238D01*
X89123333Y-117418380D01*
X89170952Y-117323142D01*
X89218571Y-117275523D01*
X89313809Y-117227904D01*
X89551904Y-117227904D01*
X89647142Y-117275523D01*
X89694761Y-117323142D01*
X89742380Y-117418380D01*
X89742380Y-117704095D01*
X89694761Y-117799333D01*
X89647142Y-117846952D01*
X89647142Y-116799333D02*
X89694761Y-116751714D01*
X89742380Y-116799333D01*
X89694761Y-116846952D01*
X89647142Y-116799333D01*
X89742380Y-116799333D01*
X88742380Y-115846952D02*
X88742380Y-116323142D01*
X89218571Y-116370761D01*
X89170952Y-116323142D01*
X89123333Y-116227904D01*
X89123333Y-115989809D01*
X89170952Y-115894571D01*
X89218571Y-115846952D01*
X89313809Y-115799333D01*
X89551904Y-115799333D01*
X89647142Y-115846952D01*
X89694761Y-115894571D01*
X89742380Y-115989809D01*
X89742380Y-116227904D01*
X89694761Y-116323142D01*
X89647142Y-116370761D01*
X89742380Y-115370761D02*
X89075714Y-115370761D01*
X89170952Y-115370761D02*
X89123333Y-115323142D01*
X89075714Y-115227904D01*
X89075714Y-115085047D01*
X89123333Y-114989809D01*
X89218571Y-114942190D01*
X89742380Y-114942190D01*
X89218571Y-114942190D02*
X89123333Y-114894571D01*
X89075714Y-114799333D01*
X89075714Y-114656476D01*
X89123333Y-114561238D01*
X89218571Y-114513619D01*
X89742380Y-114513619D01*
X89742380Y-114037428D02*
X89075714Y-114037428D01*
X89170952Y-114037428D02*
X89123333Y-113989809D01*
X89075714Y-113894571D01*
X89075714Y-113751714D01*
X89123333Y-113656476D01*
X89218571Y-113608857D01*
X89742380Y-113608857D01*
X89218571Y-113608857D02*
X89123333Y-113561238D01*
X89075714Y-113466000D01*
X89075714Y-113323142D01*
X89123333Y-113227904D01*
X89218571Y-113180285D01*
X89742380Y-113180285D01*
X91642285Y-132164761D02*
X91785142Y-132212380D01*
X92023238Y-132212380D01*
X92118476Y-132164761D01*
X92166095Y-132117142D01*
X92213714Y-132021904D01*
X92213714Y-131926666D01*
X92166095Y-131831428D01*
X92118476Y-131783809D01*
X92023238Y-131736190D01*
X91832761Y-131688571D01*
X91737523Y-131640952D01*
X91689904Y-131593333D01*
X91642285Y-131498095D01*
X91642285Y-131402857D01*
X91689904Y-131307619D01*
X91737523Y-131260000D01*
X91832761Y-131212380D01*
X92070857Y-131212380D01*
X92213714Y-131260000D01*
X94212285Y-131212380D02*
X94783714Y-131212380D01*
X94498000Y-132212380D02*
X94498000Y-131212380D01*
X85616380Y-117156476D02*
X84616380Y-117156476D01*
X85330666Y-116823142D01*
X84616380Y-116489809D01*
X85616380Y-116489809D01*
X85616380Y-115870761D02*
X85568761Y-115966000D01*
X85521142Y-116013619D01*
X85425904Y-116061238D01*
X85140190Y-116061238D01*
X85044952Y-116013619D01*
X84997333Y-115966000D01*
X84949714Y-115870761D01*
X84949714Y-115727904D01*
X84997333Y-115632666D01*
X85044952Y-115585047D01*
X85140190Y-115537428D01*
X85425904Y-115537428D01*
X85521142Y-115585047D01*
X85568761Y-115632666D01*
X85616380Y-115727904D01*
X85616380Y-115870761D01*
X84949714Y-115108857D02*
X85616380Y-115108857D01*
X85044952Y-115108857D02*
X84997333Y-115061238D01*
X84949714Y-114966000D01*
X84949714Y-114823142D01*
X84997333Y-114727904D01*
X85092571Y-114680285D01*
X85616380Y-114680285D01*
X85616380Y-114061238D02*
X85568761Y-114156476D01*
X85521142Y-114204095D01*
X85425904Y-114251714D01*
X85140190Y-114251714D01*
X85044952Y-114204095D01*
X84997333Y-114156476D01*
X84949714Y-114061238D01*
X84949714Y-113918380D01*
X84997333Y-113823142D01*
X85044952Y-113775523D01*
X85140190Y-113727904D01*
X85425904Y-113727904D01*
X85521142Y-113775523D01*
X85568761Y-113823142D01*
X85616380Y-113918380D01*
X85616380Y-114061238D01*
X76742380Y-117846952D02*
X76742380Y-117227904D01*
X77123333Y-117561238D01*
X77123333Y-117418380D01*
X77170952Y-117323142D01*
X77218571Y-117275523D01*
X77313809Y-117227904D01*
X77551904Y-117227904D01*
X77647142Y-117275523D01*
X77694761Y-117323142D01*
X77742380Y-117418380D01*
X77742380Y-117704095D01*
X77694761Y-117799333D01*
X77647142Y-117846952D01*
X77647142Y-116799333D02*
X77694761Y-116751714D01*
X77742380Y-116799333D01*
X77694761Y-116846952D01*
X77647142Y-116799333D01*
X77742380Y-116799333D01*
X76742380Y-115846952D02*
X76742380Y-116323142D01*
X77218571Y-116370761D01*
X77170952Y-116323142D01*
X77123333Y-116227904D01*
X77123333Y-115989809D01*
X77170952Y-115894571D01*
X77218571Y-115846952D01*
X77313809Y-115799333D01*
X77551904Y-115799333D01*
X77647142Y-115846952D01*
X77694761Y-115894571D01*
X77742380Y-115989809D01*
X77742380Y-116227904D01*
X77694761Y-116323142D01*
X77647142Y-116370761D01*
X77742380Y-115370761D02*
X77075714Y-115370761D01*
X77170952Y-115370761D02*
X77123333Y-115323142D01*
X77075714Y-115227904D01*
X77075714Y-115085047D01*
X77123333Y-114989809D01*
X77218571Y-114942190D01*
X77742380Y-114942190D01*
X77218571Y-114942190D02*
X77123333Y-114894571D01*
X77075714Y-114799333D01*
X77075714Y-114656476D01*
X77123333Y-114561238D01*
X77218571Y-114513619D01*
X77742380Y-114513619D01*
X77742380Y-114037428D02*
X77075714Y-114037428D01*
X77170952Y-114037428D02*
X77123333Y-113989809D01*
X77075714Y-113894571D01*
X77075714Y-113751714D01*
X77123333Y-113656476D01*
X77218571Y-113608857D01*
X77742380Y-113608857D01*
X77218571Y-113608857D02*
X77123333Y-113561238D01*
X77075714Y-113466000D01*
X77075714Y-113323142D01*
X77123333Y-113227904D01*
X77218571Y-113180285D01*
X77742380Y-113180285D01*
X79642285Y-132164761D02*
X79785142Y-132212380D01*
X80023238Y-132212380D01*
X80118476Y-132164761D01*
X80166095Y-132117142D01*
X80213714Y-132021904D01*
X80213714Y-131926666D01*
X80166095Y-131831428D01*
X80118476Y-131783809D01*
X80023238Y-131736190D01*
X79832761Y-131688571D01*
X79737523Y-131640952D01*
X79689904Y-131593333D01*
X79642285Y-131498095D01*
X79642285Y-131402857D01*
X79689904Y-131307619D01*
X79737523Y-131260000D01*
X79832761Y-131212380D01*
X80070857Y-131212380D01*
X80213714Y-131260000D01*
X82212285Y-131212380D02*
X82783714Y-131212380D01*
X82498000Y-132212380D02*
X82498000Y-131212380D01*
X169616380Y-91156476D02*
X168616380Y-91156476D01*
X169330666Y-90823142D01*
X168616380Y-90489809D01*
X169616380Y-90489809D01*
X169616380Y-89870761D02*
X169568761Y-89966000D01*
X169521142Y-90013619D01*
X169425904Y-90061238D01*
X169140190Y-90061238D01*
X169044952Y-90013619D01*
X168997333Y-89966000D01*
X168949714Y-89870761D01*
X168949714Y-89727904D01*
X168997333Y-89632666D01*
X169044952Y-89585047D01*
X169140190Y-89537428D01*
X169425904Y-89537428D01*
X169521142Y-89585047D01*
X169568761Y-89632666D01*
X169616380Y-89727904D01*
X169616380Y-89870761D01*
X168949714Y-89108857D02*
X169616380Y-89108857D01*
X169044952Y-89108857D02*
X168997333Y-89061238D01*
X168949714Y-88966000D01*
X168949714Y-88823142D01*
X168997333Y-88727904D01*
X169092571Y-88680285D01*
X169616380Y-88680285D01*
X169616380Y-88061238D02*
X169568761Y-88156476D01*
X169521142Y-88204095D01*
X169425904Y-88251714D01*
X169140190Y-88251714D01*
X169044952Y-88204095D01*
X168997333Y-88156476D01*
X168949714Y-88061238D01*
X168949714Y-87918380D01*
X168997333Y-87823142D01*
X169044952Y-87775523D01*
X169140190Y-87727904D01*
X169425904Y-87727904D01*
X169521142Y-87775523D01*
X169568761Y-87823142D01*
X169616380Y-87918380D01*
X169616380Y-88061238D01*
X160742380Y-91846952D02*
X160742380Y-91227904D01*
X161123333Y-91561238D01*
X161123333Y-91418380D01*
X161170952Y-91323142D01*
X161218571Y-91275523D01*
X161313809Y-91227904D01*
X161551904Y-91227904D01*
X161647142Y-91275523D01*
X161694761Y-91323142D01*
X161742380Y-91418380D01*
X161742380Y-91704095D01*
X161694761Y-91799333D01*
X161647142Y-91846952D01*
X161647142Y-90799333D02*
X161694761Y-90751714D01*
X161742380Y-90799333D01*
X161694761Y-90846952D01*
X161647142Y-90799333D01*
X161742380Y-90799333D01*
X160742380Y-89846952D02*
X160742380Y-90323142D01*
X161218571Y-90370761D01*
X161170952Y-90323142D01*
X161123333Y-90227904D01*
X161123333Y-89989809D01*
X161170952Y-89894571D01*
X161218571Y-89846952D01*
X161313809Y-89799333D01*
X161551904Y-89799333D01*
X161647142Y-89846952D01*
X161694761Y-89894571D01*
X161742380Y-89989809D01*
X161742380Y-90227904D01*
X161694761Y-90323142D01*
X161647142Y-90370761D01*
X161742380Y-89370761D02*
X161075714Y-89370761D01*
X161170952Y-89370761D02*
X161123333Y-89323142D01*
X161075714Y-89227904D01*
X161075714Y-89085047D01*
X161123333Y-88989809D01*
X161218571Y-88942190D01*
X161742380Y-88942190D01*
X161218571Y-88942190D02*
X161123333Y-88894571D01*
X161075714Y-88799333D01*
X161075714Y-88656476D01*
X161123333Y-88561238D01*
X161218571Y-88513619D01*
X161742380Y-88513619D01*
X161742380Y-88037428D02*
X161075714Y-88037428D01*
X161170952Y-88037428D02*
X161123333Y-87989809D01*
X161075714Y-87894571D01*
X161075714Y-87751714D01*
X161123333Y-87656476D01*
X161218571Y-87608857D01*
X161742380Y-87608857D01*
X161218571Y-87608857D02*
X161123333Y-87561238D01*
X161075714Y-87466000D01*
X161075714Y-87323142D01*
X161123333Y-87227904D01*
X161218571Y-87180285D01*
X161742380Y-87180285D01*
X163642285Y-106164761D02*
X163785142Y-106212380D01*
X164023238Y-106212380D01*
X164118476Y-106164761D01*
X164166095Y-106117142D01*
X164213714Y-106021904D01*
X164213714Y-105926666D01*
X164166095Y-105831428D01*
X164118476Y-105783809D01*
X164023238Y-105736190D01*
X163832761Y-105688571D01*
X163737523Y-105640952D01*
X163689904Y-105593333D01*
X163642285Y-105498095D01*
X163642285Y-105402857D01*
X163689904Y-105307619D01*
X163737523Y-105260000D01*
X163832761Y-105212380D01*
X164070857Y-105212380D01*
X164213714Y-105260000D01*
X166212285Y-105212380D02*
X166783714Y-105212380D01*
X166498000Y-106212380D02*
X166498000Y-105212380D01*
X157616380Y-91156476D02*
X156616380Y-91156476D01*
X157330666Y-90823142D01*
X156616380Y-90489809D01*
X157616380Y-90489809D01*
X157616380Y-89870761D02*
X157568761Y-89966000D01*
X157521142Y-90013619D01*
X157425904Y-90061238D01*
X157140190Y-90061238D01*
X157044952Y-90013619D01*
X156997333Y-89966000D01*
X156949714Y-89870761D01*
X156949714Y-89727904D01*
X156997333Y-89632666D01*
X157044952Y-89585047D01*
X157140190Y-89537428D01*
X157425904Y-89537428D01*
X157521142Y-89585047D01*
X157568761Y-89632666D01*
X157616380Y-89727904D01*
X157616380Y-89870761D01*
X156949714Y-89108857D02*
X157616380Y-89108857D01*
X157044952Y-89108857D02*
X156997333Y-89061238D01*
X156949714Y-88966000D01*
X156949714Y-88823142D01*
X156997333Y-88727904D01*
X157092571Y-88680285D01*
X157616380Y-88680285D01*
X157616380Y-88061238D02*
X157568761Y-88156476D01*
X157521142Y-88204095D01*
X157425904Y-88251714D01*
X157140190Y-88251714D01*
X157044952Y-88204095D01*
X156997333Y-88156476D01*
X156949714Y-88061238D01*
X156949714Y-87918380D01*
X156997333Y-87823142D01*
X157044952Y-87775523D01*
X157140190Y-87727904D01*
X157425904Y-87727904D01*
X157521142Y-87775523D01*
X157568761Y-87823142D01*
X157616380Y-87918380D01*
X157616380Y-88061238D01*
X148742380Y-91846952D02*
X148742380Y-91227904D01*
X149123333Y-91561238D01*
X149123333Y-91418380D01*
X149170952Y-91323142D01*
X149218571Y-91275523D01*
X149313809Y-91227904D01*
X149551904Y-91227904D01*
X149647142Y-91275523D01*
X149694761Y-91323142D01*
X149742380Y-91418380D01*
X149742380Y-91704095D01*
X149694761Y-91799333D01*
X149647142Y-91846952D01*
X149647142Y-90799333D02*
X149694761Y-90751714D01*
X149742380Y-90799333D01*
X149694761Y-90846952D01*
X149647142Y-90799333D01*
X149742380Y-90799333D01*
X148742380Y-89846952D02*
X148742380Y-90323142D01*
X149218571Y-90370761D01*
X149170952Y-90323142D01*
X149123333Y-90227904D01*
X149123333Y-89989809D01*
X149170952Y-89894571D01*
X149218571Y-89846952D01*
X149313809Y-89799333D01*
X149551904Y-89799333D01*
X149647142Y-89846952D01*
X149694761Y-89894571D01*
X149742380Y-89989809D01*
X149742380Y-90227904D01*
X149694761Y-90323142D01*
X149647142Y-90370761D01*
X149742380Y-89370761D02*
X149075714Y-89370761D01*
X149170952Y-89370761D02*
X149123333Y-89323142D01*
X149075714Y-89227904D01*
X149075714Y-89085047D01*
X149123333Y-88989809D01*
X149218571Y-88942190D01*
X149742380Y-88942190D01*
X149218571Y-88942190D02*
X149123333Y-88894571D01*
X149075714Y-88799333D01*
X149075714Y-88656476D01*
X149123333Y-88561238D01*
X149218571Y-88513619D01*
X149742380Y-88513619D01*
X149742380Y-88037428D02*
X149075714Y-88037428D01*
X149170952Y-88037428D02*
X149123333Y-87989809D01*
X149075714Y-87894571D01*
X149075714Y-87751714D01*
X149123333Y-87656476D01*
X149218571Y-87608857D01*
X149742380Y-87608857D01*
X149218571Y-87608857D02*
X149123333Y-87561238D01*
X149075714Y-87466000D01*
X149075714Y-87323142D01*
X149123333Y-87227904D01*
X149218571Y-87180285D01*
X149742380Y-87180285D01*
X151642285Y-106164761D02*
X151785142Y-106212380D01*
X152023238Y-106212380D01*
X152118476Y-106164761D01*
X152166095Y-106117142D01*
X152213714Y-106021904D01*
X152213714Y-105926666D01*
X152166095Y-105831428D01*
X152118476Y-105783809D01*
X152023238Y-105736190D01*
X151832761Y-105688571D01*
X151737523Y-105640952D01*
X151689904Y-105593333D01*
X151642285Y-105498095D01*
X151642285Y-105402857D01*
X151689904Y-105307619D01*
X151737523Y-105260000D01*
X151832761Y-105212380D01*
X152070857Y-105212380D01*
X152213714Y-105260000D01*
X154212285Y-105212380D02*
X154783714Y-105212380D01*
X154498000Y-106212380D02*
X154498000Y-105212380D01*
X145616380Y-91156476D02*
X144616380Y-91156476D01*
X145330666Y-90823142D01*
X144616380Y-90489809D01*
X145616380Y-90489809D01*
X145616380Y-89870761D02*
X145568761Y-89966000D01*
X145521142Y-90013619D01*
X145425904Y-90061238D01*
X145140190Y-90061238D01*
X145044952Y-90013619D01*
X144997333Y-89966000D01*
X144949714Y-89870761D01*
X144949714Y-89727904D01*
X144997333Y-89632666D01*
X145044952Y-89585047D01*
X145140190Y-89537428D01*
X145425904Y-89537428D01*
X145521142Y-89585047D01*
X145568761Y-89632666D01*
X145616380Y-89727904D01*
X145616380Y-89870761D01*
X144949714Y-89108857D02*
X145616380Y-89108857D01*
X145044952Y-89108857D02*
X144997333Y-89061238D01*
X144949714Y-88966000D01*
X144949714Y-88823142D01*
X144997333Y-88727904D01*
X145092571Y-88680285D01*
X145616380Y-88680285D01*
X145616380Y-88061238D02*
X145568761Y-88156476D01*
X145521142Y-88204095D01*
X145425904Y-88251714D01*
X145140190Y-88251714D01*
X145044952Y-88204095D01*
X144997333Y-88156476D01*
X144949714Y-88061238D01*
X144949714Y-87918380D01*
X144997333Y-87823142D01*
X145044952Y-87775523D01*
X145140190Y-87727904D01*
X145425904Y-87727904D01*
X145521142Y-87775523D01*
X145568761Y-87823142D01*
X145616380Y-87918380D01*
X145616380Y-88061238D01*
X136742380Y-91846952D02*
X136742380Y-91227904D01*
X137123333Y-91561238D01*
X137123333Y-91418380D01*
X137170952Y-91323142D01*
X137218571Y-91275523D01*
X137313809Y-91227904D01*
X137551904Y-91227904D01*
X137647142Y-91275523D01*
X137694761Y-91323142D01*
X137742380Y-91418380D01*
X137742380Y-91704095D01*
X137694761Y-91799333D01*
X137647142Y-91846952D01*
X137647142Y-90799333D02*
X137694761Y-90751714D01*
X137742380Y-90799333D01*
X137694761Y-90846952D01*
X137647142Y-90799333D01*
X137742380Y-90799333D01*
X136742380Y-89846952D02*
X136742380Y-90323142D01*
X137218571Y-90370761D01*
X137170952Y-90323142D01*
X137123333Y-90227904D01*
X137123333Y-89989809D01*
X137170952Y-89894571D01*
X137218571Y-89846952D01*
X137313809Y-89799333D01*
X137551904Y-89799333D01*
X137647142Y-89846952D01*
X137694761Y-89894571D01*
X137742380Y-89989809D01*
X137742380Y-90227904D01*
X137694761Y-90323142D01*
X137647142Y-90370761D01*
X137742380Y-89370761D02*
X137075714Y-89370761D01*
X137170952Y-89370761D02*
X137123333Y-89323142D01*
X137075714Y-89227904D01*
X137075714Y-89085047D01*
X137123333Y-88989809D01*
X137218571Y-88942190D01*
X137742380Y-88942190D01*
X137218571Y-88942190D02*
X137123333Y-88894571D01*
X137075714Y-88799333D01*
X137075714Y-88656476D01*
X137123333Y-88561238D01*
X137218571Y-88513619D01*
X137742380Y-88513619D01*
X137742380Y-88037428D02*
X137075714Y-88037428D01*
X137170952Y-88037428D02*
X137123333Y-87989809D01*
X137075714Y-87894571D01*
X137075714Y-87751714D01*
X137123333Y-87656476D01*
X137218571Y-87608857D01*
X137742380Y-87608857D01*
X137218571Y-87608857D02*
X137123333Y-87561238D01*
X137075714Y-87466000D01*
X137075714Y-87323142D01*
X137123333Y-87227904D01*
X137218571Y-87180285D01*
X137742380Y-87180285D01*
X139642285Y-106164761D02*
X139785142Y-106212380D01*
X140023238Y-106212380D01*
X140118476Y-106164761D01*
X140166095Y-106117142D01*
X140213714Y-106021904D01*
X140213714Y-105926666D01*
X140166095Y-105831428D01*
X140118476Y-105783809D01*
X140023238Y-105736190D01*
X139832761Y-105688571D01*
X139737523Y-105640952D01*
X139689904Y-105593333D01*
X139642285Y-105498095D01*
X139642285Y-105402857D01*
X139689904Y-105307619D01*
X139737523Y-105260000D01*
X139832761Y-105212380D01*
X140070857Y-105212380D01*
X140213714Y-105260000D01*
X142212285Y-105212380D02*
X142783714Y-105212380D01*
X142498000Y-106212380D02*
X142498000Y-105212380D01*
X133616380Y-91156476D02*
X132616380Y-91156476D01*
X133330666Y-90823142D01*
X132616380Y-90489809D01*
X133616380Y-90489809D01*
X133616380Y-89870761D02*
X133568761Y-89966000D01*
X133521142Y-90013619D01*
X133425904Y-90061238D01*
X133140190Y-90061238D01*
X133044952Y-90013619D01*
X132997333Y-89966000D01*
X132949714Y-89870761D01*
X132949714Y-89727904D01*
X132997333Y-89632666D01*
X133044952Y-89585047D01*
X133140190Y-89537428D01*
X133425904Y-89537428D01*
X133521142Y-89585047D01*
X133568761Y-89632666D01*
X133616380Y-89727904D01*
X133616380Y-89870761D01*
X132949714Y-89108857D02*
X133616380Y-89108857D01*
X133044952Y-89108857D02*
X132997333Y-89061238D01*
X132949714Y-88966000D01*
X132949714Y-88823142D01*
X132997333Y-88727904D01*
X133092571Y-88680285D01*
X133616380Y-88680285D01*
X133616380Y-88061238D02*
X133568761Y-88156476D01*
X133521142Y-88204095D01*
X133425904Y-88251714D01*
X133140190Y-88251714D01*
X133044952Y-88204095D01*
X132997333Y-88156476D01*
X132949714Y-88061238D01*
X132949714Y-87918380D01*
X132997333Y-87823142D01*
X133044952Y-87775523D01*
X133140190Y-87727904D01*
X133425904Y-87727904D01*
X133521142Y-87775523D01*
X133568761Y-87823142D01*
X133616380Y-87918380D01*
X133616380Y-88061238D01*
X124742380Y-91846952D02*
X124742380Y-91227904D01*
X125123333Y-91561238D01*
X125123333Y-91418380D01*
X125170952Y-91323142D01*
X125218571Y-91275523D01*
X125313809Y-91227904D01*
X125551904Y-91227904D01*
X125647142Y-91275523D01*
X125694761Y-91323142D01*
X125742380Y-91418380D01*
X125742380Y-91704095D01*
X125694761Y-91799333D01*
X125647142Y-91846952D01*
X125647142Y-90799333D02*
X125694761Y-90751714D01*
X125742380Y-90799333D01*
X125694761Y-90846952D01*
X125647142Y-90799333D01*
X125742380Y-90799333D01*
X124742380Y-89846952D02*
X124742380Y-90323142D01*
X125218571Y-90370761D01*
X125170952Y-90323142D01*
X125123333Y-90227904D01*
X125123333Y-89989809D01*
X125170952Y-89894571D01*
X125218571Y-89846952D01*
X125313809Y-89799333D01*
X125551904Y-89799333D01*
X125647142Y-89846952D01*
X125694761Y-89894571D01*
X125742380Y-89989809D01*
X125742380Y-90227904D01*
X125694761Y-90323142D01*
X125647142Y-90370761D01*
X125742380Y-89370761D02*
X125075714Y-89370761D01*
X125170952Y-89370761D02*
X125123333Y-89323142D01*
X125075714Y-89227904D01*
X125075714Y-89085047D01*
X125123333Y-88989809D01*
X125218571Y-88942190D01*
X125742380Y-88942190D01*
X125218571Y-88942190D02*
X125123333Y-88894571D01*
X125075714Y-88799333D01*
X125075714Y-88656476D01*
X125123333Y-88561238D01*
X125218571Y-88513619D01*
X125742380Y-88513619D01*
X125742380Y-88037428D02*
X125075714Y-88037428D01*
X125170952Y-88037428D02*
X125123333Y-87989809D01*
X125075714Y-87894571D01*
X125075714Y-87751714D01*
X125123333Y-87656476D01*
X125218571Y-87608857D01*
X125742380Y-87608857D01*
X125218571Y-87608857D02*
X125123333Y-87561238D01*
X125075714Y-87466000D01*
X125075714Y-87323142D01*
X125123333Y-87227904D01*
X125218571Y-87180285D01*
X125742380Y-87180285D01*
X127642285Y-106164761D02*
X127785142Y-106212380D01*
X128023238Y-106212380D01*
X128118476Y-106164761D01*
X128166095Y-106117142D01*
X128213714Y-106021904D01*
X128213714Y-105926666D01*
X128166095Y-105831428D01*
X128118476Y-105783809D01*
X128023238Y-105736190D01*
X127832761Y-105688571D01*
X127737523Y-105640952D01*
X127689904Y-105593333D01*
X127642285Y-105498095D01*
X127642285Y-105402857D01*
X127689904Y-105307619D01*
X127737523Y-105260000D01*
X127832761Y-105212380D01*
X128070857Y-105212380D01*
X128213714Y-105260000D01*
X130212285Y-105212380D02*
X130783714Y-105212380D01*
X130498000Y-106212380D02*
X130498000Y-105212380D01*
X121616380Y-91156476D02*
X120616380Y-91156476D01*
X121330666Y-90823142D01*
X120616380Y-90489809D01*
X121616380Y-90489809D01*
X121616380Y-89870761D02*
X121568761Y-89966000D01*
X121521142Y-90013619D01*
X121425904Y-90061238D01*
X121140190Y-90061238D01*
X121044952Y-90013619D01*
X120997333Y-89966000D01*
X120949714Y-89870761D01*
X120949714Y-89727904D01*
X120997333Y-89632666D01*
X121044952Y-89585047D01*
X121140190Y-89537428D01*
X121425904Y-89537428D01*
X121521142Y-89585047D01*
X121568761Y-89632666D01*
X121616380Y-89727904D01*
X121616380Y-89870761D01*
X120949714Y-89108857D02*
X121616380Y-89108857D01*
X121044952Y-89108857D02*
X120997333Y-89061238D01*
X120949714Y-88966000D01*
X120949714Y-88823142D01*
X120997333Y-88727904D01*
X121092571Y-88680285D01*
X121616380Y-88680285D01*
X121616380Y-88061238D02*
X121568761Y-88156476D01*
X121521142Y-88204095D01*
X121425904Y-88251714D01*
X121140190Y-88251714D01*
X121044952Y-88204095D01*
X120997333Y-88156476D01*
X120949714Y-88061238D01*
X120949714Y-87918380D01*
X120997333Y-87823142D01*
X121044952Y-87775523D01*
X121140190Y-87727904D01*
X121425904Y-87727904D01*
X121521142Y-87775523D01*
X121568761Y-87823142D01*
X121616380Y-87918380D01*
X121616380Y-88061238D01*
X112742380Y-91846952D02*
X112742380Y-91227904D01*
X113123333Y-91561238D01*
X113123333Y-91418380D01*
X113170952Y-91323142D01*
X113218571Y-91275523D01*
X113313809Y-91227904D01*
X113551904Y-91227904D01*
X113647142Y-91275523D01*
X113694761Y-91323142D01*
X113742380Y-91418380D01*
X113742380Y-91704095D01*
X113694761Y-91799333D01*
X113647142Y-91846952D01*
X113647142Y-90799333D02*
X113694761Y-90751714D01*
X113742380Y-90799333D01*
X113694761Y-90846952D01*
X113647142Y-90799333D01*
X113742380Y-90799333D01*
X112742380Y-89846952D02*
X112742380Y-90323142D01*
X113218571Y-90370761D01*
X113170952Y-90323142D01*
X113123333Y-90227904D01*
X113123333Y-89989809D01*
X113170952Y-89894571D01*
X113218571Y-89846952D01*
X113313809Y-89799333D01*
X113551904Y-89799333D01*
X113647142Y-89846952D01*
X113694761Y-89894571D01*
X113742380Y-89989809D01*
X113742380Y-90227904D01*
X113694761Y-90323142D01*
X113647142Y-90370761D01*
X113742380Y-89370761D02*
X113075714Y-89370761D01*
X113170952Y-89370761D02*
X113123333Y-89323142D01*
X113075714Y-89227904D01*
X113075714Y-89085047D01*
X113123333Y-88989809D01*
X113218571Y-88942190D01*
X113742380Y-88942190D01*
X113218571Y-88942190D02*
X113123333Y-88894571D01*
X113075714Y-88799333D01*
X113075714Y-88656476D01*
X113123333Y-88561238D01*
X113218571Y-88513619D01*
X113742380Y-88513619D01*
X113742380Y-88037428D02*
X113075714Y-88037428D01*
X113170952Y-88037428D02*
X113123333Y-87989809D01*
X113075714Y-87894571D01*
X113075714Y-87751714D01*
X113123333Y-87656476D01*
X113218571Y-87608857D01*
X113742380Y-87608857D01*
X113218571Y-87608857D02*
X113123333Y-87561238D01*
X113075714Y-87466000D01*
X113075714Y-87323142D01*
X113123333Y-87227904D01*
X113218571Y-87180285D01*
X113742380Y-87180285D01*
X115642285Y-106164761D02*
X115785142Y-106212380D01*
X116023238Y-106212380D01*
X116118476Y-106164761D01*
X116166095Y-106117142D01*
X116213714Y-106021904D01*
X116213714Y-105926666D01*
X116166095Y-105831428D01*
X116118476Y-105783809D01*
X116023238Y-105736190D01*
X115832761Y-105688571D01*
X115737523Y-105640952D01*
X115689904Y-105593333D01*
X115642285Y-105498095D01*
X115642285Y-105402857D01*
X115689904Y-105307619D01*
X115737523Y-105260000D01*
X115832761Y-105212380D01*
X116070857Y-105212380D01*
X116213714Y-105260000D01*
X118212285Y-105212380D02*
X118783714Y-105212380D01*
X118498000Y-106212380D02*
X118498000Y-105212380D01*
X109616380Y-91156476D02*
X108616380Y-91156476D01*
X109330666Y-90823142D01*
X108616380Y-90489809D01*
X109616380Y-90489809D01*
X109616380Y-89870761D02*
X109568761Y-89966000D01*
X109521142Y-90013619D01*
X109425904Y-90061238D01*
X109140190Y-90061238D01*
X109044952Y-90013619D01*
X108997333Y-89966000D01*
X108949714Y-89870761D01*
X108949714Y-89727904D01*
X108997333Y-89632666D01*
X109044952Y-89585047D01*
X109140190Y-89537428D01*
X109425904Y-89537428D01*
X109521142Y-89585047D01*
X109568761Y-89632666D01*
X109616380Y-89727904D01*
X109616380Y-89870761D01*
X108949714Y-89108857D02*
X109616380Y-89108857D01*
X109044952Y-89108857D02*
X108997333Y-89061238D01*
X108949714Y-88966000D01*
X108949714Y-88823142D01*
X108997333Y-88727904D01*
X109092571Y-88680285D01*
X109616380Y-88680285D01*
X109616380Y-88061238D02*
X109568761Y-88156476D01*
X109521142Y-88204095D01*
X109425904Y-88251714D01*
X109140190Y-88251714D01*
X109044952Y-88204095D01*
X108997333Y-88156476D01*
X108949714Y-88061238D01*
X108949714Y-87918380D01*
X108997333Y-87823142D01*
X109044952Y-87775523D01*
X109140190Y-87727904D01*
X109425904Y-87727904D01*
X109521142Y-87775523D01*
X109568761Y-87823142D01*
X109616380Y-87918380D01*
X109616380Y-88061238D01*
X100742380Y-91846952D02*
X100742380Y-91227904D01*
X101123333Y-91561238D01*
X101123333Y-91418380D01*
X101170952Y-91323142D01*
X101218571Y-91275523D01*
X101313809Y-91227904D01*
X101551904Y-91227904D01*
X101647142Y-91275523D01*
X101694761Y-91323142D01*
X101742380Y-91418380D01*
X101742380Y-91704095D01*
X101694761Y-91799333D01*
X101647142Y-91846952D01*
X101647142Y-90799333D02*
X101694761Y-90751714D01*
X101742380Y-90799333D01*
X101694761Y-90846952D01*
X101647142Y-90799333D01*
X101742380Y-90799333D01*
X100742380Y-89846952D02*
X100742380Y-90323142D01*
X101218571Y-90370761D01*
X101170952Y-90323142D01*
X101123333Y-90227904D01*
X101123333Y-89989809D01*
X101170952Y-89894571D01*
X101218571Y-89846952D01*
X101313809Y-89799333D01*
X101551904Y-89799333D01*
X101647142Y-89846952D01*
X101694761Y-89894571D01*
X101742380Y-89989809D01*
X101742380Y-90227904D01*
X101694761Y-90323142D01*
X101647142Y-90370761D01*
X101742380Y-89370761D02*
X101075714Y-89370761D01*
X101170952Y-89370761D02*
X101123333Y-89323142D01*
X101075714Y-89227904D01*
X101075714Y-89085047D01*
X101123333Y-88989809D01*
X101218571Y-88942190D01*
X101742380Y-88942190D01*
X101218571Y-88942190D02*
X101123333Y-88894571D01*
X101075714Y-88799333D01*
X101075714Y-88656476D01*
X101123333Y-88561238D01*
X101218571Y-88513619D01*
X101742380Y-88513619D01*
X101742380Y-88037428D02*
X101075714Y-88037428D01*
X101170952Y-88037428D02*
X101123333Y-87989809D01*
X101075714Y-87894571D01*
X101075714Y-87751714D01*
X101123333Y-87656476D01*
X101218571Y-87608857D01*
X101742380Y-87608857D01*
X101218571Y-87608857D02*
X101123333Y-87561238D01*
X101075714Y-87466000D01*
X101075714Y-87323142D01*
X101123333Y-87227904D01*
X101218571Y-87180285D01*
X101742380Y-87180285D01*
X103642285Y-106164761D02*
X103785142Y-106212380D01*
X104023238Y-106212380D01*
X104118476Y-106164761D01*
X104166095Y-106117142D01*
X104213714Y-106021904D01*
X104213714Y-105926666D01*
X104166095Y-105831428D01*
X104118476Y-105783809D01*
X104023238Y-105736190D01*
X103832761Y-105688571D01*
X103737523Y-105640952D01*
X103689904Y-105593333D01*
X103642285Y-105498095D01*
X103642285Y-105402857D01*
X103689904Y-105307619D01*
X103737523Y-105260000D01*
X103832761Y-105212380D01*
X104070857Y-105212380D01*
X104213714Y-105260000D01*
X106212285Y-105212380D02*
X106783714Y-105212380D01*
X106498000Y-106212380D02*
X106498000Y-105212380D01*
X97616380Y-91156476D02*
X96616380Y-91156476D01*
X97330666Y-90823142D01*
X96616380Y-90489809D01*
X97616380Y-90489809D01*
X97616380Y-89870761D02*
X97568761Y-89966000D01*
X97521142Y-90013619D01*
X97425904Y-90061238D01*
X97140190Y-90061238D01*
X97044952Y-90013619D01*
X96997333Y-89966000D01*
X96949714Y-89870761D01*
X96949714Y-89727904D01*
X96997333Y-89632666D01*
X97044952Y-89585047D01*
X97140190Y-89537428D01*
X97425904Y-89537428D01*
X97521142Y-89585047D01*
X97568761Y-89632666D01*
X97616380Y-89727904D01*
X97616380Y-89870761D01*
X96949714Y-89108857D02*
X97616380Y-89108857D01*
X97044952Y-89108857D02*
X96997333Y-89061238D01*
X96949714Y-88966000D01*
X96949714Y-88823142D01*
X96997333Y-88727904D01*
X97092571Y-88680285D01*
X97616380Y-88680285D01*
X97616380Y-88061238D02*
X97568761Y-88156476D01*
X97521142Y-88204095D01*
X97425904Y-88251714D01*
X97140190Y-88251714D01*
X97044952Y-88204095D01*
X96997333Y-88156476D01*
X96949714Y-88061238D01*
X96949714Y-87918380D01*
X96997333Y-87823142D01*
X97044952Y-87775523D01*
X97140190Y-87727904D01*
X97425904Y-87727904D01*
X97521142Y-87775523D01*
X97568761Y-87823142D01*
X97616380Y-87918380D01*
X97616380Y-88061238D01*
X88742380Y-91846952D02*
X88742380Y-91227904D01*
X89123333Y-91561238D01*
X89123333Y-91418380D01*
X89170952Y-91323142D01*
X89218571Y-91275523D01*
X89313809Y-91227904D01*
X89551904Y-91227904D01*
X89647142Y-91275523D01*
X89694761Y-91323142D01*
X89742380Y-91418380D01*
X89742380Y-91704095D01*
X89694761Y-91799333D01*
X89647142Y-91846952D01*
X89647142Y-90799333D02*
X89694761Y-90751714D01*
X89742380Y-90799333D01*
X89694761Y-90846952D01*
X89647142Y-90799333D01*
X89742380Y-90799333D01*
X88742380Y-89846952D02*
X88742380Y-90323142D01*
X89218571Y-90370761D01*
X89170952Y-90323142D01*
X89123333Y-90227904D01*
X89123333Y-89989809D01*
X89170952Y-89894571D01*
X89218571Y-89846952D01*
X89313809Y-89799333D01*
X89551904Y-89799333D01*
X89647142Y-89846952D01*
X89694761Y-89894571D01*
X89742380Y-89989809D01*
X89742380Y-90227904D01*
X89694761Y-90323142D01*
X89647142Y-90370761D01*
X89742380Y-89370761D02*
X89075714Y-89370761D01*
X89170952Y-89370761D02*
X89123333Y-89323142D01*
X89075714Y-89227904D01*
X89075714Y-89085047D01*
X89123333Y-88989809D01*
X89218571Y-88942190D01*
X89742380Y-88942190D01*
X89218571Y-88942190D02*
X89123333Y-88894571D01*
X89075714Y-88799333D01*
X89075714Y-88656476D01*
X89123333Y-88561238D01*
X89218571Y-88513619D01*
X89742380Y-88513619D01*
X89742380Y-88037428D02*
X89075714Y-88037428D01*
X89170952Y-88037428D02*
X89123333Y-87989809D01*
X89075714Y-87894571D01*
X89075714Y-87751714D01*
X89123333Y-87656476D01*
X89218571Y-87608857D01*
X89742380Y-87608857D01*
X89218571Y-87608857D02*
X89123333Y-87561238D01*
X89075714Y-87466000D01*
X89075714Y-87323142D01*
X89123333Y-87227904D01*
X89218571Y-87180285D01*
X89742380Y-87180285D01*
X91642285Y-106164761D02*
X91785142Y-106212380D01*
X92023238Y-106212380D01*
X92118476Y-106164761D01*
X92166095Y-106117142D01*
X92213714Y-106021904D01*
X92213714Y-105926666D01*
X92166095Y-105831428D01*
X92118476Y-105783809D01*
X92023238Y-105736190D01*
X91832761Y-105688571D01*
X91737523Y-105640952D01*
X91689904Y-105593333D01*
X91642285Y-105498095D01*
X91642285Y-105402857D01*
X91689904Y-105307619D01*
X91737523Y-105260000D01*
X91832761Y-105212380D01*
X92070857Y-105212380D01*
X92213714Y-105260000D01*
X94212285Y-105212380D02*
X94783714Y-105212380D01*
X94498000Y-106212380D02*
X94498000Y-105212380D01*
X85616380Y-91156476D02*
X84616380Y-91156476D01*
X85330666Y-90823142D01*
X84616380Y-90489809D01*
X85616380Y-90489809D01*
X85616380Y-89870761D02*
X85568761Y-89966000D01*
X85521142Y-90013619D01*
X85425904Y-90061238D01*
X85140190Y-90061238D01*
X85044952Y-90013619D01*
X84997333Y-89966000D01*
X84949714Y-89870761D01*
X84949714Y-89727904D01*
X84997333Y-89632666D01*
X85044952Y-89585047D01*
X85140190Y-89537428D01*
X85425904Y-89537428D01*
X85521142Y-89585047D01*
X85568761Y-89632666D01*
X85616380Y-89727904D01*
X85616380Y-89870761D01*
X84949714Y-89108857D02*
X85616380Y-89108857D01*
X85044952Y-89108857D02*
X84997333Y-89061238D01*
X84949714Y-88966000D01*
X84949714Y-88823142D01*
X84997333Y-88727904D01*
X85092571Y-88680285D01*
X85616380Y-88680285D01*
X85616380Y-88061238D02*
X85568761Y-88156476D01*
X85521142Y-88204095D01*
X85425904Y-88251714D01*
X85140190Y-88251714D01*
X85044952Y-88204095D01*
X84997333Y-88156476D01*
X84949714Y-88061238D01*
X84949714Y-87918380D01*
X84997333Y-87823142D01*
X85044952Y-87775523D01*
X85140190Y-87727904D01*
X85425904Y-87727904D01*
X85521142Y-87775523D01*
X85568761Y-87823142D01*
X85616380Y-87918380D01*
X85616380Y-88061238D01*
X76742380Y-91846952D02*
X76742380Y-91227904D01*
X77123333Y-91561238D01*
X77123333Y-91418380D01*
X77170952Y-91323142D01*
X77218571Y-91275523D01*
X77313809Y-91227904D01*
X77551904Y-91227904D01*
X77647142Y-91275523D01*
X77694761Y-91323142D01*
X77742380Y-91418380D01*
X77742380Y-91704095D01*
X77694761Y-91799333D01*
X77647142Y-91846952D01*
X77647142Y-90799333D02*
X77694761Y-90751714D01*
X77742380Y-90799333D01*
X77694761Y-90846952D01*
X77647142Y-90799333D01*
X77742380Y-90799333D01*
X76742380Y-89846952D02*
X76742380Y-90323142D01*
X77218571Y-90370761D01*
X77170952Y-90323142D01*
X77123333Y-90227904D01*
X77123333Y-89989809D01*
X77170952Y-89894571D01*
X77218571Y-89846952D01*
X77313809Y-89799333D01*
X77551904Y-89799333D01*
X77647142Y-89846952D01*
X77694761Y-89894571D01*
X77742380Y-89989809D01*
X77742380Y-90227904D01*
X77694761Y-90323142D01*
X77647142Y-90370761D01*
X77742380Y-89370761D02*
X77075714Y-89370761D01*
X77170952Y-89370761D02*
X77123333Y-89323142D01*
X77075714Y-89227904D01*
X77075714Y-89085047D01*
X77123333Y-88989809D01*
X77218571Y-88942190D01*
X77742380Y-88942190D01*
X77218571Y-88942190D02*
X77123333Y-88894571D01*
X77075714Y-88799333D01*
X77075714Y-88656476D01*
X77123333Y-88561238D01*
X77218571Y-88513619D01*
X77742380Y-88513619D01*
X77742380Y-88037428D02*
X77075714Y-88037428D01*
X77170952Y-88037428D02*
X77123333Y-87989809D01*
X77075714Y-87894571D01*
X77075714Y-87751714D01*
X77123333Y-87656476D01*
X77218571Y-87608857D01*
X77742380Y-87608857D01*
X77218571Y-87608857D02*
X77123333Y-87561238D01*
X77075714Y-87466000D01*
X77075714Y-87323142D01*
X77123333Y-87227904D01*
X77218571Y-87180285D01*
X77742380Y-87180285D01*
X79642285Y-106164761D02*
X79785142Y-106212380D01*
X80023238Y-106212380D01*
X80118476Y-106164761D01*
X80166095Y-106117142D01*
X80213714Y-106021904D01*
X80213714Y-105926666D01*
X80166095Y-105831428D01*
X80118476Y-105783809D01*
X80023238Y-105736190D01*
X79832761Y-105688571D01*
X79737523Y-105640952D01*
X79689904Y-105593333D01*
X79642285Y-105498095D01*
X79642285Y-105402857D01*
X79689904Y-105307619D01*
X79737523Y-105260000D01*
X79832761Y-105212380D01*
X80070857Y-105212380D01*
X80213714Y-105260000D01*
X82212285Y-105212380D02*
X82783714Y-105212380D01*
X82498000Y-106212380D02*
X82498000Y-105212380D01*
X169616380Y-65156476D02*
X168616380Y-65156476D01*
X169330666Y-64823142D01*
X168616380Y-64489809D01*
X169616380Y-64489809D01*
X169616380Y-63870761D02*
X169568761Y-63966000D01*
X169521142Y-64013619D01*
X169425904Y-64061238D01*
X169140190Y-64061238D01*
X169044952Y-64013619D01*
X168997333Y-63966000D01*
X168949714Y-63870761D01*
X168949714Y-63727904D01*
X168997333Y-63632666D01*
X169044952Y-63585047D01*
X169140190Y-63537428D01*
X169425904Y-63537428D01*
X169521142Y-63585047D01*
X169568761Y-63632666D01*
X169616380Y-63727904D01*
X169616380Y-63870761D01*
X168949714Y-63108857D02*
X169616380Y-63108857D01*
X169044952Y-63108857D02*
X168997333Y-63061238D01*
X168949714Y-62966000D01*
X168949714Y-62823142D01*
X168997333Y-62727904D01*
X169092571Y-62680285D01*
X169616380Y-62680285D01*
X169616380Y-62061238D02*
X169568761Y-62156476D01*
X169521142Y-62204095D01*
X169425904Y-62251714D01*
X169140190Y-62251714D01*
X169044952Y-62204095D01*
X168997333Y-62156476D01*
X168949714Y-62061238D01*
X168949714Y-61918380D01*
X168997333Y-61823142D01*
X169044952Y-61775523D01*
X169140190Y-61727904D01*
X169425904Y-61727904D01*
X169521142Y-61775523D01*
X169568761Y-61823142D01*
X169616380Y-61918380D01*
X169616380Y-62061238D01*
X160742380Y-65846952D02*
X160742380Y-65227904D01*
X161123333Y-65561238D01*
X161123333Y-65418380D01*
X161170952Y-65323142D01*
X161218571Y-65275523D01*
X161313809Y-65227904D01*
X161551904Y-65227904D01*
X161647142Y-65275523D01*
X161694761Y-65323142D01*
X161742380Y-65418380D01*
X161742380Y-65704095D01*
X161694761Y-65799333D01*
X161647142Y-65846952D01*
X161647142Y-64799333D02*
X161694761Y-64751714D01*
X161742380Y-64799333D01*
X161694761Y-64846952D01*
X161647142Y-64799333D01*
X161742380Y-64799333D01*
X160742380Y-63846952D02*
X160742380Y-64323142D01*
X161218571Y-64370761D01*
X161170952Y-64323142D01*
X161123333Y-64227904D01*
X161123333Y-63989809D01*
X161170952Y-63894571D01*
X161218571Y-63846952D01*
X161313809Y-63799333D01*
X161551904Y-63799333D01*
X161647142Y-63846952D01*
X161694761Y-63894571D01*
X161742380Y-63989809D01*
X161742380Y-64227904D01*
X161694761Y-64323142D01*
X161647142Y-64370761D01*
X161742380Y-63370761D02*
X161075714Y-63370761D01*
X161170952Y-63370761D02*
X161123333Y-63323142D01*
X161075714Y-63227904D01*
X161075714Y-63085047D01*
X161123333Y-62989809D01*
X161218571Y-62942190D01*
X161742380Y-62942190D01*
X161218571Y-62942190D02*
X161123333Y-62894571D01*
X161075714Y-62799333D01*
X161075714Y-62656476D01*
X161123333Y-62561238D01*
X161218571Y-62513619D01*
X161742380Y-62513619D01*
X161742380Y-62037428D02*
X161075714Y-62037428D01*
X161170952Y-62037428D02*
X161123333Y-61989809D01*
X161075714Y-61894571D01*
X161075714Y-61751714D01*
X161123333Y-61656476D01*
X161218571Y-61608857D01*
X161742380Y-61608857D01*
X161218571Y-61608857D02*
X161123333Y-61561238D01*
X161075714Y-61466000D01*
X161075714Y-61323142D01*
X161123333Y-61227904D01*
X161218571Y-61180285D01*
X161742380Y-61180285D01*
X163642285Y-80164761D02*
X163785142Y-80212380D01*
X164023238Y-80212380D01*
X164118476Y-80164761D01*
X164166095Y-80117142D01*
X164213714Y-80021904D01*
X164213714Y-79926666D01*
X164166095Y-79831428D01*
X164118476Y-79783809D01*
X164023238Y-79736190D01*
X163832761Y-79688571D01*
X163737523Y-79640952D01*
X163689904Y-79593333D01*
X163642285Y-79498095D01*
X163642285Y-79402857D01*
X163689904Y-79307619D01*
X163737523Y-79260000D01*
X163832761Y-79212380D01*
X164070857Y-79212380D01*
X164213714Y-79260000D01*
X166212285Y-79212380D02*
X166783714Y-79212380D01*
X166498000Y-80212380D02*
X166498000Y-79212380D01*
X157616380Y-65156476D02*
X156616380Y-65156476D01*
X157330666Y-64823142D01*
X156616380Y-64489809D01*
X157616380Y-64489809D01*
X157616380Y-63870761D02*
X157568761Y-63966000D01*
X157521142Y-64013619D01*
X157425904Y-64061238D01*
X157140190Y-64061238D01*
X157044952Y-64013619D01*
X156997333Y-63966000D01*
X156949714Y-63870761D01*
X156949714Y-63727904D01*
X156997333Y-63632666D01*
X157044952Y-63585047D01*
X157140190Y-63537428D01*
X157425904Y-63537428D01*
X157521142Y-63585047D01*
X157568761Y-63632666D01*
X157616380Y-63727904D01*
X157616380Y-63870761D01*
X156949714Y-63108857D02*
X157616380Y-63108857D01*
X157044952Y-63108857D02*
X156997333Y-63061238D01*
X156949714Y-62966000D01*
X156949714Y-62823142D01*
X156997333Y-62727904D01*
X157092571Y-62680285D01*
X157616380Y-62680285D01*
X157616380Y-62061238D02*
X157568761Y-62156476D01*
X157521142Y-62204095D01*
X157425904Y-62251714D01*
X157140190Y-62251714D01*
X157044952Y-62204095D01*
X156997333Y-62156476D01*
X156949714Y-62061238D01*
X156949714Y-61918380D01*
X156997333Y-61823142D01*
X157044952Y-61775523D01*
X157140190Y-61727904D01*
X157425904Y-61727904D01*
X157521142Y-61775523D01*
X157568761Y-61823142D01*
X157616380Y-61918380D01*
X157616380Y-62061238D01*
X148742380Y-65846952D02*
X148742380Y-65227904D01*
X149123333Y-65561238D01*
X149123333Y-65418380D01*
X149170952Y-65323142D01*
X149218571Y-65275523D01*
X149313809Y-65227904D01*
X149551904Y-65227904D01*
X149647142Y-65275523D01*
X149694761Y-65323142D01*
X149742380Y-65418380D01*
X149742380Y-65704095D01*
X149694761Y-65799333D01*
X149647142Y-65846952D01*
X149647142Y-64799333D02*
X149694761Y-64751714D01*
X149742380Y-64799333D01*
X149694761Y-64846952D01*
X149647142Y-64799333D01*
X149742380Y-64799333D01*
X148742380Y-63846952D02*
X148742380Y-64323142D01*
X149218571Y-64370761D01*
X149170952Y-64323142D01*
X149123333Y-64227904D01*
X149123333Y-63989809D01*
X149170952Y-63894571D01*
X149218571Y-63846952D01*
X149313809Y-63799333D01*
X149551904Y-63799333D01*
X149647142Y-63846952D01*
X149694761Y-63894571D01*
X149742380Y-63989809D01*
X149742380Y-64227904D01*
X149694761Y-64323142D01*
X149647142Y-64370761D01*
X149742380Y-63370761D02*
X149075714Y-63370761D01*
X149170952Y-63370761D02*
X149123333Y-63323142D01*
X149075714Y-63227904D01*
X149075714Y-63085047D01*
X149123333Y-62989809D01*
X149218571Y-62942190D01*
X149742380Y-62942190D01*
X149218571Y-62942190D02*
X149123333Y-62894571D01*
X149075714Y-62799333D01*
X149075714Y-62656476D01*
X149123333Y-62561238D01*
X149218571Y-62513619D01*
X149742380Y-62513619D01*
X149742380Y-62037428D02*
X149075714Y-62037428D01*
X149170952Y-62037428D02*
X149123333Y-61989809D01*
X149075714Y-61894571D01*
X149075714Y-61751714D01*
X149123333Y-61656476D01*
X149218571Y-61608857D01*
X149742380Y-61608857D01*
X149218571Y-61608857D02*
X149123333Y-61561238D01*
X149075714Y-61466000D01*
X149075714Y-61323142D01*
X149123333Y-61227904D01*
X149218571Y-61180285D01*
X149742380Y-61180285D01*
X151642285Y-80164761D02*
X151785142Y-80212380D01*
X152023238Y-80212380D01*
X152118476Y-80164761D01*
X152166095Y-80117142D01*
X152213714Y-80021904D01*
X152213714Y-79926666D01*
X152166095Y-79831428D01*
X152118476Y-79783809D01*
X152023238Y-79736190D01*
X151832761Y-79688571D01*
X151737523Y-79640952D01*
X151689904Y-79593333D01*
X151642285Y-79498095D01*
X151642285Y-79402857D01*
X151689904Y-79307619D01*
X151737523Y-79260000D01*
X151832761Y-79212380D01*
X152070857Y-79212380D01*
X152213714Y-79260000D01*
X154212285Y-79212380D02*
X154783714Y-79212380D01*
X154498000Y-80212380D02*
X154498000Y-79212380D01*
X145616380Y-65156476D02*
X144616380Y-65156476D01*
X145330666Y-64823142D01*
X144616380Y-64489809D01*
X145616380Y-64489809D01*
X145616380Y-63870761D02*
X145568761Y-63966000D01*
X145521142Y-64013619D01*
X145425904Y-64061238D01*
X145140190Y-64061238D01*
X145044952Y-64013619D01*
X144997333Y-63966000D01*
X144949714Y-63870761D01*
X144949714Y-63727904D01*
X144997333Y-63632666D01*
X145044952Y-63585047D01*
X145140190Y-63537428D01*
X145425904Y-63537428D01*
X145521142Y-63585047D01*
X145568761Y-63632666D01*
X145616380Y-63727904D01*
X145616380Y-63870761D01*
X144949714Y-63108857D02*
X145616380Y-63108857D01*
X145044952Y-63108857D02*
X144997333Y-63061238D01*
X144949714Y-62966000D01*
X144949714Y-62823142D01*
X144997333Y-62727904D01*
X145092571Y-62680285D01*
X145616380Y-62680285D01*
X145616380Y-62061238D02*
X145568761Y-62156476D01*
X145521142Y-62204095D01*
X145425904Y-62251714D01*
X145140190Y-62251714D01*
X145044952Y-62204095D01*
X144997333Y-62156476D01*
X144949714Y-62061238D01*
X144949714Y-61918380D01*
X144997333Y-61823142D01*
X145044952Y-61775523D01*
X145140190Y-61727904D01*
X145425904Y-61727904D01*
X145521142Y-61775523D01*
X145568761Y-61823142D01*
X145616380Y-61918380D01*
X145616380Y-62061238D01*
X136742380Y-65846952D02*
X136742380Y-65227904D01*
X137123333Y-65561238D01*
X137123333Y-65418380D01*
X137170952Y-65323142D01*
X137218571Y-65275523D01*
X137313809Y-65227904D01*
X137551904Y-65227904D01*
X137647142Y-65275523D01*
X137694761Y-65323142D01*
X137742380Y-65418380D01*
X137742380Y-65704095D01*
X137694761Y-65799333D01*
X137647142Y-65846952D01*
X137647142Y-64799333D02*
X137694761Y-64751714D01*
X137742380Y-64799333D01*
X137694761Y-64846952D01*
X137647142Y-64799333D01*
X137742380Y-64799333D01*
X136742380Y-63846952D02*
X136742380Y-64323142D01*
X137218571Y-64370761D01*
X137170952Y-64323142D01*
X137123333Y-64227904D01*
X137123333Y-63989809D01*
X137170952Y-63894571D01*
X137218571Y-63846952D01*
X137313809Y-63799333D01*
X137551904Y-63799333D01*
X137647142Y-63846952D01*
X137694761Y-63894571D01*
X137742380Y-63989809D01*
X137742380Y-64227904D01*
X137694761Y-64323142D01*
X137647142Y-64370761D01*
X137742380Y-63370761D02*
X137075714Y-63370761D01*
X137170952Y-63370761D02*
X137123333Y-63323142D01*
X137075714Y-63227904D01*
X137075714Y-63085047D01*
X137123333Y-62989809D01*
X137218571Y-62942190D01*
X137742380Y-62942190D01*
X137218571Y-62942190D02*
X137123333Y-62894571D01*
X137075714Y-62799333D01*
X137075714Y-62656476D01*
X137123333Y-62561238D01*
X137218571Y-62513619D01*
X137742380Y-62513619D01*
X137742380Y-62037428D02*
X137075714Y-62037428D01*
X137170952Y-62037428D02*
X137123333Y-61989809D01*
X137075714Y-61894571D01*
X137075714Y-61751714D01*
X137123333Y-61656476D01*
X137218571Y-61608857D01*
X137742380Y-61608857D01*
X137218571Y-61608857D02*
X137123333Y-61561238D01*
X137075714Y-61466000D01*
X137075714Y-61323142D01*
X137123333Y-61227904D01*
X137218571Y-61180285D01*
X137742380Y-61180285D01*
X139642285Y-80164761D02*
X139785142Y-80212380D01*
X140023238Y-80212380D01*
X140118476Y-80164761D01*
X140166095Y-80117142D01*
X140213714Y-80021904D01*
X140213714Y-79926666D01*
X140166095Y-79831428D01*
X140118476Y-79783809D01*
X140023238Y-79736190D01*
X139832761Y-79688571D01*
X139737523Y-79640952D01*
X139689904Y-79593333D01*
X139642285Y-79498095D01*
X139642285Y-79402857D01*
X139689904Y-79307619D01*
X139737523Y-79260000D01*
X139832761Y-79212380D01*
X140070857Y-79212380D01*
X140213714Y-79260000D01*
X142212285Y-79212380D02*
X142783714Y-79212380D01*
X142498000Y-80212380D02*
X142498000Y-79212380D01*
X133616380Y-65156476D02*
X132616380Y-65156476D01*
X133330666Y-64823142D01*
X132616380Y-64489809D01*
X133616380Y-64489809D01*
X133616380Y-63870761D02*
X133568761Y-63966000D01*
X133521142Y-64013619D01*
X133425904Y-64061238D01*
X133140190Y-64061238D01*
X133044952Y-64013619D01*
X132997333Y-63966000D01*
X132949714Y-63870761D01*
X132949714Y-63727904D01*
X132997333Y-63632666D01*
X133044952Y-63585047D01*
X133140190Y-63537428D01*
X133425904Y-63537428D01*
X133521142Y-63585047D01*
X133568761Y-63632666D01*
X133616380Y-63727904D01*
X133616380Y-63870761D01*
X132949714Y-63108857D02*
X133616380Y-63108857D01*
X133044952Y-63108857D02*
X132997333Y-63061238D01*
X132949714Y-62966000D01*
X132949714Y-62823142D01*
X132997333Y-62727904D01*
X133092571Y-62680285D01*
X133616380Y-62680285D01*
X133616380Y-62061238D02*
X133568761Y-62156476D01*
X133521142Y-62204095D01*
X133425904Y-62251714D01*
X133140190Y-62251714D01*
X133044952Y-62204095D01*
X132997333Y-62156476D01*
X132949714Y-62061238D01*
X132949714Y-61918380D01*
X132997333Y-61823142D01*
X133044952Y-61775523D01*
X133140190Y-61727904D01*
X133425904Y-61727904D01*
X133521142Y-61775523D01*
X133568761Y-61823142D01*
X133616380Y-61918380D01*
X133616380Y-62061238D01*
X124742380Y-65846952D02*
X124742380Y-65227904D01*
X125123333Y-65561238D01*
X125123333Y-65418380D01*
X125170952Y-65323142D01*
X125218571Y-65275523D01*
X125313809Y-65227904D01*
X125551904Y-65227904D01*
X125647142Y-65275523D01*
X125694761Y-65323142D01*
X125742380Y-65418380D01*
X125742380Y-65704095D01*
X125694761Y-65799333D01*
X125647142Y-65846952D01*
X125647142Y-64799333D02*
X125694761Y-64751714D01*
X125742380Y-64799333D01*
X125694761Y-64846952D01*
X125647142Y-64799333D01*
X125742380Y-64799333D01*
X124742380Y-63846952D02*
X124742380Y-64323142D01*
X125218571Y-64370761D01*
X125170952Y-64323142D01*
X125123333Y-64227904D01*
X125123333Y-63989809D01*
X125170952Y-63894571D01*
X125218571Y-63846952D01*
X125313809Y-63799333D01*
X125551904Y-63799333D01*
X125647142Y-63846952D01*
X125694761Y-63894571D01*
X125742380Y-63989809D01*
X125742380Y-64227904D01*
X125694761Y-64323142D01*
X125647142Y-64370761D01*
X125742380Y-63370761D02*
X125075714Y-63370761D01*
X125170952Y-63370761D02*
X125123333Y-63323142D01*
X125075714Y-63227904D01*
X125075714Y-63085047D01*
X125123333Y-62989809D01*
X125218571Y-62942190D01*
X125742380Y-62942190D01*
X125218571Y-62942190D02*
X125123333Y-62894571D01*
X125075714Y-62799333D01*
X125075714Y-62656476D01*
X125123333Y-62561238D01*
X125218571Y-62513619D01*
X125742380Y-62513619D01*
X125742380Y-62037428D02*
X125075714Y-62037428D01*
X125170952Y-62037428D02*
X125123333Y-61989809D01*
X125075714Y-61894571D01*
X125075714Y-61751714D01*
X125123333Y-61656476D01*
X125218571Y-61608857D01*
X125742380Y-61608857D01*
X125218571Y-61608857D02*
X125123333Y-61561238D01*
X125075714Y-61466000D01*
X125075714Y-61323142D01*
X125123333Y-61227904D01*
X125218571Y-61180285D01*
X125742380Y-61180285D01*
X127642285Y-80164761D02*
X127785142Y-80212380D01*
X128023238Y-80212380D01*
X128118476Y-80164761D01*
X128166095Y-80117142D01*
X128213714Y-80021904D01*
X128213714Y-79926666D01*
X128166095Y-79831428D01*
X128118476Y-79783809D01*
X128023238Y-79736190D01*
X127832761Y-79688571D01*
X127737523Y-79640952D01*
X127689904Y-79593333D01*
X127642285Y-79498095D01*
X127642285Y-79402857D01*
X127689904Y-79307619D01*
X127737523Y-79260000D01*
X127832761Y-79212380D01*
X128070857Y-79212380D01*
X128213714Y-79260000D01*
X130212285Y-79212380D02*
X130783714Y-79212380D01*
X130498000Y-80212380D02*
X130498000Y-79212380D01*
X121616380Y-65156476D02*
X120616380Y-65156476D01*
X121330666Y-64823142D01*
X120616380Y-64489809D01*
X121616380Y-64489809D01*
X121616380Y-63870761D02*
X121568761Y-63966000D01*
X121521142Y-64013619D01*
X121425904Y-64061238D01*
X121140190Y-64061238D01*
X121044952Y-64013619D01*
X120997333Y-63966000D01*
X120949714Y-63870761D01*
X120949714Y-63727904D01*
X120997333Y-63632666D01*
X121044952Y-63585047D01*
X121140190Y-63537428D01*
X121425904Y-63537428D01*
X121521142Y-63585047D01*
X121568761Y-63632666D01*
X121616380Y-63727904D01*
X121616380Y-63870761D01*
X120949714Y-63108857D02*
X121616380Y-63108857D01*
X121044952Y-63108857D02*
X120997333Y-63061238D01*
X120949714Y-62966000D01*
X120949714Y-62823142D01*
X120997333Y-62727904D01*
X121092571Y-62680285D01*
X121616380Y-62680285D01*
X121616380Y-62061238D02*
X121568761Y-62156476D01*
X121521142Y-62204095D01*
X121425904Y-62251714D01*
X121140190Y-62251714D01*
X121044952Y-62204095D01*
X120997333Y-62156476D01*
X120949714Y-62061238D01*
X120949714Y-61918380D01*
X120997333Y-61823142D01*
X121044952Y-61775523D01*
X121140190Y-61727904D01*
X121425904Y-61727904D01*
X121521142Y-61775523D01*
X121568761Y-61823142D01*
X121616380Y-61918380D01*
X121616380Y-62061238D01*
X112742380Y-65846952D02*
X112742380Y-65227904D01*
X113123333Y-65561238D01*
X113123333Y-65418380D01*
X113170952Y-65323142D01*
X113218571Y-65275523D01*
X113313809Y-65227904D01*
X113551904Y-65227904D01*
X113647142Y-65275523D01*
X113694761Y-65323142D01*
X113742380Y-65418380D01*
X113742380Y-65704095D01*
X113694761Y-65799333D01*
X113647142Y-65846952D01*
X113647142Y-64799333D02*
X113694761Y-64751714D01*
X113742380Y-64799333D01*
X113694761Y-64846952D01*
X113647142Y-64799333D01*
X113742380Y-64799333D01*
X112742380Y-63846952D02*
X112742380Y-64323142D01*
X113218571Y-64370761D01*
X113170952Y-64323142D01*
X113123333Y-64227904D01*
X113123333Y-63989809D01*
X113170952Y-63894571D01*
X113218571Y-63846952D01*
X113313809Y-63799333D01*
X113551904Y-63799333D01*
X113647142Y-63846952D01*
X113694761Y-63894571D01*
X113742380Y-63989809D01*
X113742380Y-64227904D01*
X113694761Y-64323142D01*
X113647142Y-64370761D01*
X113742380Y-63370761D02*
X113075714Y-63370761D01*
X113170952Y-63370761D02*
X113123333Y-63323142D01*
X113075714Y-63227904D01*
X113075714Y-63085047D01*
X113123333Y-62989809D01*
X113218571Y-62942190D01*
X113742380Y-62942190D01*
X113218571Y-62942190D02*
X113123333Y-62894571D01*
X113075714Y-62799333D01*
X113075714Y-62656476D01*
X113123333Y-62561238D01*
X113218571Y-62513619D01*
X113742380Y-62513619D01*
X113742380Y-62037428D02*
X113075714Y-62037428D01*
X113170952Y-62037428D02*
X113123333Y-61989809D01*
X113075714Y-61894571D01*
X113075714Y-61751714D01*
X113123333Y-61656476D01*
X113218571Y-61608857D01*
X113742380Y-61608857D01*
X113218571Y-61608857D02*
X113123333Y-61561238D01*
X113075714Y-61466000D01*
X113075714Y-61323142D01*
X113123333Y-61227904D01*
X113218571Y-61180285D01*
X113742380Y-61180285D01*
X115642285Y-80164761D02*
X115785142Y-80212380D01*
X116023238Y-80212380D01*
X116118476Y-80164761D01*
X116166095Y-80117142D01*
X116213714Y-80021904D01*
X116213714Y-79926666D01*
X116166095Y-79831428D01*
X116118476Y-79783809D01*
X116023238Y-79736190D01*
X115832761Y-79688571D01*
X115737523Y-79640952D01*
X115689904Y-79593333D01*
X115642285Y-79498095D01*
X115642285Y-79402857D01*
X115689904Y-79307619D01*
X115737523Y-79260000D01*
X115832761Y-79212380D01*
X116070857Y-79212380D01*
X116213714Y-79260000D01*
X118212285Y-79212380D02*
X118783714Y-79212380D01*
X118498000Y-80212380D02*
X118498000Y-79212380D01*
X109616380Y-65156476D02*
X108616380Y-65156476D01*
X109330666Y-64823142D01*
X108616380Y-64489809D01*
X109616380Y-64489809D01*
X109616380Y-63870761D02*
X109568761Y-63966000D01*
X109521142Y-64013619D01*
X109425904Y-64061238D01*
X109140190Y-64061238D01*
X109044952Y-64013619D01*
X108997333Y-63966000D01*
X108949714Y-63870761D01*
X108949714Y-63727904D01*
X108997333Y-63632666D01*
X109044952Y-63585047D01*
X109140190Y-63537428D01*
X109425904Y-63537428D01*
X109521142Y-63585047D01*
X109568761Y-63632666D01*
X109616380Y-63727904D01*
X109616380Y-63870761D01*
X108949714Y-63108857D02*
X109616380Y-63108857D01*
X109044952Y-63108857D02*
X108997333Y-63061238D01*
X108949714Y-62966000D01*
X108949714Y-62823142D01*
X108997333Y-62727904D01*
X109092571Y-62680285D01*
X109616380Y-62680285D01*
X109616380Y-62061238D02*
X109568761Y-62156476D01*
X109521142Y-62204095D01*
X109425904Y-62251714D01*
X109140190Y-62251714D01*
X109044952Y-62204095D01*
X108997333Y-62156476D01*
X108949714Y-62061238D01*
X108949714Y-61918380D01*
X108997333Y-61823142D01*
X109044952Y-61775523D01*
X109140190Y-61727904D01*
X109425904Y-61727904D01*
X109521142Y-61775523D01*
X109568761Y-61823142D01*
X109616380Y-61918380D01*
X109616380Y-62061238D01*
X100742380Y-65846952D02*
X100742380Y-65227904D01*
X101123333Y-65561238D01*
X101123333Y-65418380D01*
X101170952Y-65323142D01*
X101218571Y-65275523D01*
X101313809Y-65227904D01*
X101551904Y-65227904D01*
X101647142Y-65275523D01*
X101694761Y-65323142D01*
X101742380Y-65418380D01*
X101742380Y-65704095D01*
X101694761Y-65799333D01*
X101647142Y-65846952D01*
X101647142Y-64799333D02*
X101694761Y-64751714D01*
X101742380Y-64799333D01*
X101694761Y-64846952D01*
X101647142Y-64799333D01*
X101742380Y-64799333D01*
X100742380Y-63846952D02*
X100742380Y-64323142D01*
X101218571Y-64370761D01*
X101170952Y-64323142D01*
X101123333Y-64227904D01*
X101123333Y-63989809D01*
X101170952Y-63894571D01*
X101218571Y-63846952D01*
X101313809Y-63799333D01*
X101551904Y-63799333D01*
X101647142Y-63846952D01*
X101694761Y-63894571D01*
X101742380Y-63989809D01*
X101742380Y-64227904D01*
X101694761Y-64323142D01*
X101647142Y-64370761D01*
X101742380Y-63370761D02*
X101075714Y-63370761D01*
X101170952Y-63370761D02*
X101123333Y-63323142D01*
X101075714Y-63227904D01*
X101075714Y-63085047D01*
X101123333Y-62989809D01*
X101218571Y-62942190D01*
X101742380Y-62942190D01*
X101218571Y-62942190D02*
X101123333Y-62894571D01*
X101075714Y-62799333D01*
X101075714Y-62656476D01*
X101123333Y-62561238D01*
X101218571Y-62513619D01*
X101742380Y-62513619D01*
X101742380Y-62037428D02*
X101075714Y-62037428D01*
X101170952Y-62037428D02*
X101123333Y-61989809D01*
X101075714Y-61894571D01*
X101075714Y-61751714D01*
X101123333Y-61656476D01*
X101218571Y-61608857D01*
X101742380Y-61608857D01*
X101218571Y-61608857D02*
X101123333Y-61561238D01*
X101075714Y-61466000D01*
X101075714Y-61323142D01*
X101123333Y-61227904D01*
X101218571Y-61180285D01*
X101742380Y-61180285D01*
X103642285Y-80164761D02*
X103785142Y-80212380D01*
X104023238Y-80212380D01*
X104118476Y-80164761D01*
X104166095Y-80117142D01*
X104213714Y-80021904D01*
X104213714Y-79926666D01*
X104166095Y-79831428D01*
X104118476Y-79783809D01*
X104023238Y-79736190D01*
X103832761Y-79688571D01*
X103737523Y-79640952D01*
X103689904Y-79593333D01*
X103642285Y-79498095D01*
X103642285Y-79402857D01*
X103689904Y-79307619D01*
X103737523Y-79260000D01*
X103832761Y-79212380D01*
X104070857Y-79212380D01*
X104213714Y-79260000D01*
X106212285Y-79212380D02*
X106783714Y-79212380D01*
X106498000Y-80212380D02*
X106498000Y-79212380D01*
X97616380Y-65156476D02*
X96616380Y-65156476D01*
X97330666Y-64823142D01*
X96616380Y-64489809D01*
X97616380Y-64489809D01*
X97616380Y-63870761D02*
X97568761Y-63966000D01*
X97521142Y-64013619D01*
X97425904Y-64061238D01*
X97140190Y-64061238D01*
X97044952Y-64013619D01*
X96997333Y-63966000D01*
X96949714Y-63870761D01*
X96949714Y-63727904D01*
X96997333Y-63632666D01*
X97044952Y-63585047D01*
X97140190Y-63537428D01*
X97425904Y-63537428D01*
X97521142Y-63585047D01*
X97568761Y-63632666D01*
X97616380Y-63727904D01*
X97616380Y-63870761D01*
X96949714Y-63108857D02*
X97616380Y-63108857D01*
X97044952Y-63108857D02*
X96997333Y-63061238D01*
X96949714Y-62966000D01*
X96949714Y-62823142D01*
X96997333Y-62727904D01*
X97092571Y-62680285D01*
X97616380Y-62680285D01*
X97616380Y-62061238D02*
X97568761Y-62156476D01*
X97521142Y-62204095D01*
X97425904Y-62251714D01*
X97140190Y-62251714D01*
X97044952Y-62204095D01*
X96997333Y-62156476D01*
X96949714Y-62061238D01*
X96949714Y-61918380D01*
X96997333Y-61823142D01*
X97044952Y-61775523D01*
X97140190Y-61727904D01*
X97425904Y-61727904D01*
X97521142Y-61775523D01*
X97568761Y-61823142D01*
X97616380Y-61918380D01*
X97616380Y-62061238D01*
X88742380Y-65846952D02*
X88742380Y-65227904D01*
X89123333Y-65561238D01*
X89123333Y-65418380D01*
X89170952Y-65323142D01*
X89218571Y-65275523D01*
X89313809Y-65227904D01*
X89551904Y-65227904D01*
X89647142Y-65275523D01*
X89694761Y-65323142D01*
X89742380Y-65418380D01*
X89742380Y-65704095D01*
X89694761Y-65799333D01*
X89647142Y-65846952D01*
X89647142Y-64799333D02*
X89694761Y-64751714D01*
X89742380Y-64799333D01*
X89694761Y-64846952D01*
X89647142Y-64799333D01*
X89742380Y-64799333D01*
X88742380Y-63846952D02*
X88742380Y-64323142D01*
X89218571Y-64370761D01*
X89170952Y-64323142D01*
X89123333Y-64227904D01*
X89123333Y-63989809D01*
X89170952Y-63894571D01*
X89218571Y-63846952D01*
X89313809Y-63799333D01*
X89551904Y-63799333D01*
X89647142Y-63846952D01*
X89694761Y-63894571D01*
X89742380Y-63989809D01*
X89742380Y-64227904D01*
X89694761Y-64323142D01*
X89647142Y-64370761D01*
X89742380Y-63370761D02*
X89075714Y-63370761D01*
X89170952Y-63370761D02*
X89123333Y-63323142D01*
X89075714Y-63227904D01*
X89075714Y-63085047D01*
X89123333Y-62989809D01*
X89218571Y-62942190D01*
X89742380Y-62942190D01*
X89218571Y-62942190D02*
X89123333Y-62894571D01*
X89075714Y-62799333D01*
X89075714Y-62656476D01*
X89123333Y-62561238D01*
X89218571Y-62513619D01*
X89742380Y-62513619D01*
X89742380Y-62037428D02*
X89075714Y-62037428D01*
X89170952Y-62037428D02*
X89123333Y-61989809D01*
X89075714Y-61894571D01*
X89075714Y-61751714D01*
X89123333Y-61656476D01*
X89218571Y-61608857D01*
X89742380Y-61608857D01*
X89218571Y-61608857D02*
X89123333Y-61561238D01*
X89075714Y-61466000D01*
X89075714Y-61323142D01*
X89123333Y-61227904D01*
X89218571Y-61180285D01*
X89742380Y-61180285D01*
X91642285Y-80164761D02*
X91785142Y-80212380D01*
X92023238Y-80212380D01*
X92118476Y-80164761D01*
X92166095Y-80117142D01*
X92213714Y-80021904D01*
X92213714Y-79926666D01*
X92166095Y-79831428D01*
X92118476Y-79783809D01*
X92023238Y-79736190D01*
X91832761Y-79688571D01*
X91737523Y-79640952D01*
X91689904Y-79593333D01*
X91642285Y-79498095D01*
X91642285Y-79402857D01*
X91689904Y-79307619D01*
X91737523Y-79260000D01*
X91832761Y-79212380D01*
X92070857Y-79212380D01*
X92213714Y-79260000D01*
X94212285Y-79212380D02*
X94783714Y-79212380D01*
X94498000Y-80212380D02*
X94498000Y-79212380D01*
X82212285Y-79212380D02*
X82783714Y-79212380D01*
X82498000Y-80212380D02*
X82498000Y-79212380D01*
X79642285Y-80164761D02*
X79785142Y-80212380D01*
X80023238Y-80212380D01*
X80118476Y-80164761D01*
X80166095Y-80117142D01*
X80213714Y-80021904D01*
X80213714Y-79926666D01*
X80166095Y-79831428D01*
X80118476Y-79783809D01*
X80023238Y-79736190D01*
X79832761Y-79688571D01*
X79737523Y-79640952D01*
X79689904Y-79593333D01*
X79642285Y-79498095D01*
X79642285Y-79402857D01*
X79689904Y-79307619D01*
X79737523Y-79260000D01*
X79832761Y-79212380D01*
X80070857Y-79212380D01*
X80213714Y-79260000D01*
X76742380Y-65846952D02*
X76742380Y-65227904D01*
X77123333Y-65561238D01*
X77123333Y-65418380D01*
X77170952Y-65323142D01*
X77218571Y-65275523D01*
X77313809Y-65227904D01*
X77551904Y-65227904D01*
X77647142Y-65275523D01*
X77694761Y-65323142D01*
X77742380Y-65418380D01*
X77742380Y-65704095D01*
X77694761Y-65799333D01*
X77647142Y-65846952D01*
X77647142Y-64799333D02*
X77694761Y-64751714D01*
X77742380Y-64799333D01*
X77694761Y-64846952D01*
X77647142Y-64799333D01*
X77742380Y-64799333D01*
X76742380Y-63846952D02*
X76742380Y-64323142D01*
X77218571Y-64370761D01*
X77170952Y-64323142D01*
X77123333Y-64227904D01*
X77123333Y-63989809D01*
X77170952Y-63894571D01*
X77218571Y-63846952D01*
X77313809Y-63799333D01*
X77551904Y-63799333D01*
X77647142Y-63846952D01*
X77694761Y-63894571D01*
X77742380Y-63989809D01*
X77742380Y-64227904D01*
X77694761Y-64323142D01*
X77647142Y-64370761D01*
X77742380Y-63370761D02*
X77075714Y-63370761D01*
X77170952Y-63370761D02*
X77123333Y-63323142D01*
X77075714Y-63227904D01*
X77075714Y-63085047D01*
X77123333Y-62989809D01*
X77218571Y-62942190D01*
X77742380Y-62942190D01*
X77218571Y-62942190D02*
X77123333Y-62894571D01*
X77075714Y-62799333D01*
X77075714Y-62656476D01*
X77123333Y-62561238D01*
X77218571Y-62513619D01*
X77742380Y-62513619D01*
X77742380Y-62037428D02*
X77075714Y-62037428D01*
X77170952Y-62037428D02*
X77123333Y-61989809D01*
X77075714Y-61894571D01*
X77075714Y-61751714D01*
X77123333Y-61656476D01*
X77218571Y-61608857D01*
X77742380Y-61608857D01*
X77218571Y-61608857D02*
X77123333Y-61561238D01*
X77075714Y-61466000D01*
X77075714Y-61323142D01*
X77123333Y-61227904D01*
X77218571Y-61180285D01*
X77742380Y-61180285D01*
X85616380Y-65156476D02*
X84616380Y-65156476D01*
X85330666Y-64823142D01*
X84616380Y-64489809D01*
X85616380Y-64489809D01*
X85616380Y-63870761D02*
X85568761Y-63966000D01*
X85521142Y-64013619D01*
X85425904Y-64061238D01*
X85140190Y-64061238D01*
X85044952Y-64013619D01*
X84997333Y-63966000D01*
X84949714Y-63870761D01*
X84949714Y-63727904D01*
X84997333Y-63632666D01*
X85044952Y-63585047D01*
X85140190Y-63537428D01*
X85425904Y-63537428D01*
X85521142Y-63585047D01*
X85568761Y-63632666D01*
X85616380Y-63727904D01*
X85616380Y-63870761D01*
X84949714Y-63108857D02*
X85616380Y-63108857D01*
X85044952Y-63108857D02*
X84997333Y-63061238D01*
X84949714Y-62966000D01*
X84949714Y-62823142D01*
X84997333Y-62727904D01*
X85092571Y-62680285D01*
X85616380Y-62680285D01*
X85616380Y-62061238D02*
X85568761Y-62156476D01*
X85521142Y-62204095D01*
X85425904Y-62251714D01*
X85140190Y-62251714D01*
X85044952Y-62204095D01*
X84997333Y-62156476D01*
X84949714Y-62061238D01*
X84949714Y-61918380D01*
X84997333Y-61823142D01*
X85044952Y-61775523D01*
X85140190Y-61727904D01*
X85425904Y-61727904D01*
X85521142Y-61775523D01*
X85568761Y-61823142D01*
X85616380Y-61918380D01*
X85616380Y-62061238D01*
D11*
%TO.C,J178*%
X162575000Y-135234000D02*
X162575000Y-133904000D01*
X163905000Y-135234000D02*
X162575000Y-135234000D01*
X165175000Y-132574000D02*
X167775000Y-132574000D01*
X165175000Y-135234000D02*
X165175000Y-132574000D01*
X165175000Y-135234000D02*
X167775000Y-135234000D01*
X167775000Y-135234000D02*
X167775000Y-132574000D01*
%TO.C,J177*%
X169680000Y-129490000D02*
X165680000Y-129490000D01*
X169680000Y-118990000D02*
X169680000Y-129490000D01*
X160680000Y-118990000D02*
X160680000Y-129490000D01*
X164680000Y-129490000D02*
X160680000Y-129490000D01*
X164120000Y-116010000D02*
X164980000Y-116010000D01*
X169680000Y-118990000D02*
X165530000Y-118990000D01*
X164120000Y-116010000D02*
X164120000Y-116810000D01*
X164830000Y-118990000D02*
X160680000Y-118990000D01*
X166980000Y-123490000D02*
G75*
G03*
X166980000Y-123490000I-1800000J0D01*
G01*
%TO.C,J179*%
X167775000Y-114914000D02*
X167775000Y-112254000D01*
X165175000Y-112254000D02*
X167775000Y-112254000D01*
X165175000Y-114914000D02*
X167775000Y-114914000D01*
X165175000Y-114914000D02*
X165175000Y-112254000D01*
X162575000Y-114914000D02*
X162575000Y-113584000D01*
X163905000Y-114914000D02*
X162575000Y-114914000D01*
%TO.C,J175*%
X150575000Y-135234000D02*
X150575000Y-133904000D01*
X151905000Y-135234000D02*
X150575000Y-135234000D01*
X153175000Y-132574000D02*
X155775000Y-132574000D01*
X153175000Y-135234000D02*
X153175000Y-132574000D01*
X153175000Y-135234000D02*
X155775000Y-135234000D01*
X155775000Y-135234000D02*
X155775000Y-132574000D01*
%TO.C,J174*%
X157680000Y-129490000D02*
X153680000Y-129490000D01*
X157680000Y-118990000D02*
X157680000Y-129490000D01*
X148680000Y-118990000D02*
X148680000Y-129490000D01*
X152680000Y-129490000D02*
X148680000Y-129490000D01*
X152120000Y-116010000D02*
X152980000Y-116010000D01*
X157680000Y-118990000D02*
X153530000Y-118990000D01*
X152120000Y-116010000D02*
X152120000Y-116810000D01*
X152830000Y-118990000D02*
X148680000Y-118990000D01*
X154980000Y-123490000D02*
G75*
G03*
X154980000Y-123490000I-1800000J0D01*
G01*
%TO.C,J176*%
X155775000Y-114914000D02*
X155775000Y-112254000D01*
X153175000Y-112254000D02*
X155775000Y-112254000D01*
X153175000Y-114914000D02*
X155775000Y-114914000D01*
X153175000Y-114914000D02*
X153175000Y-112254000D01*
X150575000Y-114914000D02*
X150575000Y-113584000D01*
X151905000Y-114914000D02*
X150575000Y-114914000D01*
%TO.C,J172*%
X138575000Y-135234000D02*
X138575000Y-133904000D01*
X139905000Y-135234000D02*
X138575000Y-135234000D01*
X141175000Y-132574000D02*
X143775000Y-132574000D01*
X141175000Y-135234000D02*
X141175000Y-132574000D01*
X141175000Y-135234000D02*
X143775000Y-135234000D01*
X143775000Y-135234000D02*
X143775000Y-132574000D01*
%TO.C,J171*%
X145680000Y-129490000D02*
X141680000Y-129490000D01*
X145680000Y-118990000D02*
X145680000Y-129490000D01*
X136680000Y-118990000D02*
X136680000Y-129490000D01*
X140680000Y-129490000D02*
X136680000Y-129490000D01*
X140120000Y-116010000D02*
X140980000Y-116010000D01*
X145680000Y-118990000D02*
X141530000Y-118990000D01*
X140120000Y-116010000D02*
X140120000Y-116810000D01*
X140830000Y-118990000D02*
X136680000Y-118990000D01*
X142980000Y-123490000D02*
G75*
G03*
X142980000Y-123490000I-1800000J0D01*
G01*
%TO.C,J173*%
X143775000Y-114914000D02*
X143775000Y-112254000D01*
X141175000Y-112254000D02*
X143775000Y-112254000D01*
X141175000Y-114914000D02*
X143775000Y-114914000D01*
X141175000Y-114914000D02*
X141175000Y-112254000D01*
X138575000Y-114914000D02*
X138575000Y-113584000D01*
X139905000Y-114914000D02*
X138575000Y-114914000D01*
%TO.C,J169*%
X126575000Y-135234000D02*
X126575000Y-133904000D01*
X127905000Y-135234000D02*
X126575000Y-135234000D01*
X129175000Y-132574000D02*
X131775000Y-132574000D01*
X129175000Y-135234000D02*
X129175000Y-132574000D01*
X129175000Y-135234000D02*
X131775000Y-135234000D01*
X131775000Y-135234000D02*
X131775000Y-132574000D01*
%TO.C,J168*%
X133680000Y-129490000D02*
X129680000Y-129490000D01*
X133680000Y-118990000D02*
X133680000Y-129490000D01*
X124680000Y-118990000D02*
X124680000Y-129490000D01*
X128680000Y-129490000D02*
X124680000Y-129490000D01*
X128120000Y-116010000D02*
X128980000Y-116010000D01*
X133680000Y-118990000D02*
X129530000Y-118990000D01*
X128120000Y-116010000D02*
X128120000Y-116810000D01*
X128830000Y-118990000D02*
X124680000Y-118990000D01*
X130980000Y-123490000D02*
G75*
G03*
X130980000Y-123490000I-1800000J0D01*
G01*
%TO.C,J170*%
X131775000Y-114914000D02*
X131775000Y-112254000D01*
X129175000Y-112254000D02*
X131775000Y-112254000D01*
X129175000Y-114914000D02*
X131775000Y-114914000D01*
X129175000Y-114914000D02*
X129175000Y-112254000D01*
X126575000Y-114914000D02*
X126575000Y-113584000D01*
X127905000Y-114914000D02*
X126575000Y-114914000D01*
%TO.C,J166*%
X114575000Y-135234000D02*
X114575000Y-133904000D01*
X115905000Y-135234000D02*
X114575000Y-135234000D01*
X117175000Y-132574000D02*
X119775000Y-132574000D01*
X117175000Y-135234000D02*
X117175000Y-132574000D01*
X117175000Y-135234000D02*
X119775000Y-135234000D01*
X119775000Y-135234000D02*
X119775000Y-132574000D01*
%TO.C,J165*%
X121680000Y-129490000D02*
X117680000Y-129490000D01*
X121680000Y-118990000D02*
X121680000Y-129490000D01*
X112680000Y-118990000D02*
X112680000Y-129490000D01*
X116680000Y-129490000D02*
X112680000Y-129490000D01*
X116120000Y-116010000D02*
X116980000Y-116010000D01*
X121680000Y-118990000D02*
X117530000Y-118990000D01*
X116120000Y-116010000D02*
X116120000Y-116810000D01*
X116830000Y-118990000D02*
X112680000Y-118990000D01*
X118980000Y-123490000D02*
G75*
G03*
X118980000Y-123490000I-1800000J0D01*
G01*
%TO.C,J167*%
X119775000Y-114914000D02*
X119775000Y-112254000D01*
X117175000Y-112254000D02*
X119775000Y-112254000D01*
X117175000Y-114914000D02*
X119775000Y-114914000D01*
X117175000Y-114914000D02*
X117175000Y-112254000D01*
X114575000Y-114914000D02*
X114575000Y-113584000D01*
X115905000Y-114914000D02*
X114575000Y-114914000D01*
%TO.C,J163*%
X102575000Y-135234000D02*
X102575000Y-133904000D01*
X103905000Y-135234000D02*
X102575000Y-135234000D01*
X105175000Y-132574000D02*
X107775000Y-132574000D01*
X105175000Y-135234000D02*
X105175000Y-132574000D01*
X105175000Y-135234000D02*
X107775000Y-135234000D01*
X107775000Y-135234000D02*
X107775000Y-132574000D01*
%TO.C,J162*%
X109680000Y-129490000D02*
X105680000Y-129490000D01*
X109680000Y-118990000D02*
X109680000Y-129490000D01*
X100680000Y-118990000D02*
X100680000Y-129490000D01*
X104680000Y-129490000D02*
X100680000Y-129490000D01*
X104120000Y-116010000D02*
X104980000Y-116010000D01*
X109680000Y-118990000D02*
X105530000Y-118990000D01*
X104120000Y-116010000D02*
X104120000Y-116810000D01*
X104830000Y-118990000D02*
X100680000Y-118990000D01*
X106980000Y-123490000D02*
G75*
G03*
X106980000Y-123490000I-1800000J0D01*
G01*
%TO.C,J164*%
X107775000Y-114914000D02*
X107775000Y-112254000D01*
X105175000Y-112254000D02*
X107775000Y-112254000D01*
X105175000Y-114914000D02*
X107775000Y-114914000D01*
X105175000Y-114914000D02*
X105175000Y-112254000D01*
X102575000Y-114914000D02*
X102575000Y-113584000D01*
X103905000Y-114914000D02*
X102575000Y-114914000D01*
%TO.C,J160*%
X90575000Y-135234000D02*
X90575000Y-133904000D01*
X91905000Y-135234000D02*
X90575000Y-135234000D01*
X93175000Y-132574000D02*
X95775000Y-132574000D01*
X93175000Y-135234000D02*
X93175000Y-132574000D01*
X93175000Y-135234000D02*
X95775000Y-135234000D01*
X95775000Y-135234000D02*
X95775000Y-132574000D01*
%TO.C,J159*%
X97680000Y-129490000D02*
X93680000Y-129490000D01*
X97680000Y-118990000D02*
X97680000Y-129490000D01*
X88680000Y-118990000D02*
X88680000Y-129490000D01*
X92680000Y-129490000D02*
X88680000Y-129490000D01*
X92120000Y-116010000D02*
X92980000Y-116010000D01*
X97680000Y-118990000D02*
X93530000Y-118990000D01*
X92120000Y-116010000D02*
X92120000Y-116810000D01*
X92830000Y-118990000D02*
X88680000Y-118990000D01*
X94980000Y-123490000D02*
G75*
G03*
X94980000Y-123490000I-1800000J0D01*
G01*
%TO.C,J161*%
X95775000Y-114914000D02*
X95775000Y-112254000D01*
X93175000Y-112254000D02*
X95775000Y-112254000D01*
X93175000Y-114914000D02*
X95775000Y-114914000D01*
X93175000Y-114914000D02*
X93175000Y-112254000D01*
X90575000Y-114914000D02*
X90575000Y-113584000D01*
X91905000Y-114914000D02*
X90575000Y-114914000D01*
%TO.C,J157*%
X78575000Y-135234000D02*
X78575000Y-133904000D01*
X79905000Y-135234000D02*
X78575000Y-135234000D01*
X81175000Y-132574000D02*
X83775000Y-132574000D01*
X81175000Y-135234000D02*
X81175000Y-132574000D01*
X81175000Y-135234000D02*
X83775000Y-135234000D01*
X83775000Y-135234000D02*
X83775000Y-132574000D01*
%TO.C,J156*%
X85680000Y-129490000D02*
X81680000Y-129490000D01*
X85680000Y-118990000D02*
X85680000Y-129490000D01*
X76680000Y-118990000D02*
X76680000Y-129490000D01*
X80680000Y-129490000D02*
X76680000Y-129490000D01*
X80120000Y-116010000D02*
X80980000Y-116010000D01*
X85680000Y-118990000D02*
X81530000Y-118990000D01*
X80120000Y-116010000D02*
X80120000Y-116810000D01*
X80830000Y-118990000D02*
X76680000Y-118990000D01*
X82980000Y-123490000D02*
G75*
G03*
X82980000Y-123490000I-1800000J0D01*
G01*
%TO.C,J158*%
X83775000Y-114914000D02*
X83775000Y-112254000D01*
X81175000Y-112254000D02*
X83775000Y-112254000D01*
X81175000Y-114914000D02*
X83775000Y-114914000D01*
X81175000Y-114914000D02*
X81175000Y-112254000D01*
X78575000Y-114914000D02*
X78575000Y-113584000D01*
X79905000Y-114914000D02*
X78575000Y-114914000D01*
%TO.C,J154*%
X162575000Y-109234000D02*
X162575000Y-107904000D01*
X163905000Y-109234000D02*
X162575000Y-109234000D01*
X165175000Y-106574000D02*
X167775000Y-106574000D01*
X165175000Y-109234000D02*
X165175000Y-106574000D01*
X165175000Y-109234000D02*
X167775000Y-109234000D01*
X167775000Y-109234000D02*
X167775000Y-106574000D01*
%TO.C,J153*%
X169680000Y-103490000D02*
X165680000Y-103490000D01*
X169680000Y-92990000D02*
X169680000Y-103490000D01*
X160680000Y-92990000D02*
X160680000Y-103490000D01*
X164680000Y-103490000D02*
X160680000Y-103490000D01*
X164120000Y-90010000D02*
X164980000Y-90010000D01*
X169680000Y-92990000D02*
X165530000Y-92990000D01*
X164120000Y-90010000D02*
X164120000Y-90810000D01*
X164830000Y-92990000D02*
X160680000Y-92990000D01*
X166980000Y-97490000D02*
G75*
G03*
X166980000Y-97490000I-1800000J0D01*
G01*
%TO.C,J155*%
X167775000Y-88914000D02*
X167775000Y-86254000D01*
X165175000Y-86254000D02*
X167775000Y-86254000D01*
X165175000Y-88914000D02*
X167775000Y-88914000D01*
X165175000Y-88914000D02*
X165175000Y-86254000D01*
X162575000Y-88914000D02*
X162575000Y-87584000D01*
X163905000Y-88914000D02*
X162575000Y-88914000D01*
%TO.C,J151*%
X150575000Y-109234000D02*
X150575000Y-107904000D01*
X151905000Y-109234000D02*
X150575000Y-109234000D01*
X153175000Y-106574000D02*
X155775000Y-106574000D01*
X153175000Y-109234000D02*
X153175000Y-106574000D01*
X153175000Y-109234000D02*
X155775000Y-109234000D01*
X155775000Y-109234000D02*
X155775000Y-106574000D01*
%TO.C,J150*%
X157680000Y-103490000D02*
X153680000Y-103490000D01*
X157680000Y-92990000D02*
X157680000Y-103490000D01*
X148680000Y-92990000D02*
X148680000Y-103490000D01*
X152680000Y-103490000D02*
X148680000Y-103490000D01*
X152120000Y-90010000D02*
X152980000Y-90010000D01*
X157680000Y-92990000D02*
X153530000Y-92990000D01*
X152120000Y-90010000D02*
X152120000Y-90810000D01*
X152830000Y-92990000D02*
X148680000Y-92990000D01*
X154980000Y-97490000D02*
G75*
G03*
X154980000Y-97490000I-1800000J0D01*
G01*
%TO.C,J152*%
X155775000Y-88914000D02*
X155775000Y-86254000D01*
X153175000Y-86254000D02*
X155775000Y-86254000D01*
X153175000Y-88914000D02*
X155775000Y-88914000D01*
X153175000Y-88914000D02*
X153175000Y-86254000D01*
X150575000Y-88914000D02*
X150575000Y-87584000D01*
X151905000Y-88914000D02*
X150575000Y-88914000D01*
%TO.C,J148*%
X138575000Y-109234000D02*
X138575000Y-107904000D01*
X139905000Y-109234000D02*
X138575000Y-109234000D01*
X141175000Y-106574000D02*
X143775000Y-106574000D01*
X141175000Y-109234000D02*
X141175000Y-106574000D01*
X141175000Y-109234000D02*
X143775000Y-109234000D01*
X143775000Y-109234000D02*
X143775000Y-106574000D01*
%TO.C,J147*%
X145680000Y-103490000D02*
X141680000Y-103490000D01*
X145680000Y-92990000D02*
X145680000Y-103490000D01*
X136680000Y-92990000D02*
X136680000Y-103490000D01*
X140680000Y-103490000D02*
X136680000Y-103490000D01*
X140120000Y-90010000D02*
X140980000Y-90010000D01*
X145680000Y-92990000D02*
X141530000Y-92990000D01*
X140120000Y-90010000D02*
X140120000Y-90810000D01*
X140830000Y-92990000D02*
X136680000Y-92990000D01*
X142980000Y-97490000D02*
G75*
G03*
X142980000Y-97490000I-1800000J0D01*
G01*
%TO.C,J149*%
X143775000Y-88914000D02*
X143775000Y-86254000D01*
X141175000Y-86254000D02*
X143775000Y-86254000D01*
X141175000Y-88914000D02*
X143775000Y-88914000D01*
X141175000Y-88914000D02*
X141175000Y-86254000D01*
X138575000Y-88914000D02*
X138575000Y-87584000D01*
X139905000Y-88914000D02*
X138575000Y-88914000D01*
%TO.C,J145*%
X126575000Y-109234000D02*
X126575000Y-107904000D01*
X127905000Y-109234000D02*
X126575000Y-109234000D01*
X129175000Y-106574000D02*
X131775000Y-106574000D01*
X129175000Y-109234000D02*
X129175000Y-106574000D01*
X129175000Y-109234000D02*
X131775000Y-109234000D01*
X131775000Y-109234000D02*
X131775000Y-106574000D01*
%TO.C,J144*%
X133680000Y-103490000D02*
X129680000Y-103490000D01*
X133680000Y-92990000D02*
X133680000Y-103490000D01*
X124680000Y-92990000D02*
X124680000Y-103490000D01*
X128680000Y-103490000D02*
X124680000Y-103490000D01*
X128120000Y-90010000D02*
X128980000Y-90010000D01*
X133680000Y-92990000D02*
X129530000Y-92990000D01*
X128120000Y-90010000D02*
X128120000Y-90810000D01*
X128830000Y-92990000D02*
X124680000Y-92990000D01*
X130980000Y-97490000D02*
G75*
G03*
X130980000Y-97490000I-1800000J0D01*
G01*
%TO.C,J146*%
X131775000Y-88914000D02*
X131775000Y-86254000D01*
X129175000Y-86254000D02*
X131775000Y-86254000D01*
X129175000Y-88914000D02*
X131775000Y-88914000D01*
X129175000Y-88914000D02*
X129175000Y-86254000D01*
X126575000Y-88914000D02*
X126575000Y-87584000D01*
X127905000Y-88914000D02*
X126575000Y-88914000D01*
%TO.C,J142*%
X114575000Y-109234000D02*
X114575000Y-107904000D01*
X115905000Y-109234000D02*
X114575000Y-109234000D01*
X117175000Y-106574000D02*
X119775000Y-106574000D01*
X117175000Y-109234000D02*
X117175000Y-106574000D01*
X117175000Y-109234000D02*
X119775000Y-109234000D01*
X119775000Y-109234000D02*
X119775000Y-106574000D01*
%TO.C,J141*%
X121680000Y-103490000D02*
X117680000Y-103490000D01*
X121680000Y-92990000D02*
X121680000Y-103490000D01*
X112680000Y-92990000D02*
X112680000Y-103490000D01*
X116680000Y-103490000D02*
X112680000Y-103490000D01*
X116120000Y-90010000D02*
X116980000Y-90010000D01*
X121680000Y-92990000D02*
X117530000Y-92990000D01*
X116120000Y-90010000D02*
X116120000Y-90810000D01*
X116830000Y-92990000D02*
X112680000Y-92990000D01*
X118980000Y-97490000D02*
G75*
G03*
X118980000Y-97490000I-1800000J0D01*
G01*
%TO.C,J143*%
X119775000Y-88914000D02*
X119775000Y-86254000D01*
X117175000Y-86254000D02*
X119775000Y-86254000D01*
X117175000Y-88914000D02*
X119775000Y-88914000D01*
X117175000Y-88914000D02*
X117175000Y-86254000D01*
X114575000Y-88914000D02*
X114575000Y-87584000D01*
X115905000Y-88914000D02*
X114575000Y-88914000D01*
%TO.C,J139*%
X102575000Y-109234000D02*
X102575000Y-107904000D01*
X103905000Y-109234000D02*
X102575000Y-109234000D01*
X105175000Y-106574000D02*
X107775000Y-106574000D01*
X105175000Y-109234000D02*
X105175000Y-106574000D01*
X105175000Y-109234000D02*
X107775000Y-109234000D01*
X107775000Y-109234000D02*
X107775000Y-106574000D01*
%TO.C,J138*%
X109680000Y-103490000D02*
X105680000Y-103490000D01*
X109680000Y-92990000D02*
X109680000Y-103490000D01*
X100680000Y-92990000D02*
X100680000Y-103490000D01*
X104680000Y-103490000D02*
X100680000Y-103490000D01*
X104120000Y-90010000D02*
X104980000Y-90010000D01*
X109680000Y-92990000D02*
X105530000Y-92990000D01*
X104120000Y-90010000D02*
X104120000Y-90810000D01*
X104830000Y-92990000D02*
X100680000Y-92990000D01*
X106980000Y-97490000D02*
G75*
G03*
X106980000Y-97490000I-1800000J0D01*
G01*
%TO.C,J140*%
X107775000Y-88914000D02*
X107775000Y-86254000D01*
X105175000Y-86254000D02*
X107775000Y-86254000D01*
X105175000Y-88914000D02*
X107775000Y-88914000D01*
X105175000Y-88914000D02*
X105175000Y-86254000D01*
X102575000Y-88914000D02*
X102575000Y-87584000D01*
X103905000Y-88914000D02*
X102575000Y-88914000D01*
%TO.C,J136*%
X90575000Y-109234000D02*
X90575000Y-107904000D01*
X91905000Y-109234000D02*
X90575000Y-109234000D01*
X93175000Y-106574000D02*
X95775000Y-106574000D01*
X93175000Y-109234000D02*
X93175000Y-106574000D01*
X93175000Y-109234000D02*
X95775000Y-109234000D01*
X95775000Y-109234000D02*
X95775000Y-106574000D01*
%TO.C,J135*%
X97680000Y-103490000D02*
X93680000Y-103490000D01*
X97680000Y-92990000D02*
X97680000Y-103490000D01*
X88680000Y-92990000D02*
X88680000Y-103490000D01*
X92680000Y-103490000D02*
X88680000Y-103490000D01*
X92120000Y-90010000D02*
X92980000Y-90010000D01*
X97680000Y-92990000D02*
X93530000Y-92990000D01*
X92120000Y-90010000D02*
X92120000Y-90810000D01*
X92830000Y-92990000D02*
X88680000Y-92990000D01*
X94980000Y-97490000D02*
G75*
G03*
X94980000Y-97490000I-1800000J0D01*
G01*
%TO.C,J137*%
X95775000Y-88914000D02*
X95775000Y-86254000D01*
X93175000Y-86254000D02*
X95775000Y-86254000D01*
X93175000Y-88914000D02*
X95775000Y-88914000D01*
X93175000Y-88914000D02*
X93175000Y-86254000D01*
X90575000Y-88914000D02*
X90575000Y-87584000D01*
X91905000Y-88914000D02*
X90575000Y-88914000D01*
%TO.C,J133*%
X78575000Y-109234000D02*
X78575000Y-107904000D01*
X79905000Y-109234000D02*
X78575000Y-109234000D01*
X81175000Y-106574000D02*
X83775000Y-106574000D01*
X81175000Y-109234000D02*
X81175000Y-106574000D01*
X81175000Y-109234000D02*
X83775000Y-109234000D01*
X83775000Y-109234000D02*
X83775000Y-106574000D01*
%TO.C,J132*%
X85680000Y-103490000D02*
X81680000Y-103490000D01*
X85680000Y-92990000D02*
X85680000Y-103490000D01*
X76680000Y-92990000D02*
X76680000Y-103490000D01*
X80680000Y-103490000D02*
X76680000Y-103490000D01*
X80120000Y-90010000D02*
X80980000Y-90010000D01*
X85680000Y-92990000D02*
X81530000Y-92990000D01*
X80120000Y-90010000D02*
X80120000Y-90810000D01*
X80830000Y-92990000D02*
X76680000Y-92990000D01*
X82980000Y-97490000D02*
G75*
G03*
X82980000Y-97490000I-1800000J0D01*
G01*
%TO.C,J134*%
X83775000Y-88914000D02*
X83775000Y-86254000D01*
X81175000Y-86254000D02*
X83775000Y-86254000D01*
X81175000Y-88914000D02*
X83775000Y-88914000D01*
X81175000Y-88914000D02*
X81175000Y-86254000D01*
X78575000Y-88914000D02*
X78575000Y-87584000D01*
X79905000Y-88914000D02*
X78575000Y-88914000D01*
%TO.C,J130*%
X162575000Y-83234000D02*
X162575000Y-81904000D01*
X163905000Y-83234000D02*
X162575000Y-83234000D01*
X165175000Y-80574000D02*
X167775000Y-80574000D01*
X165175000Y-83234000D02*
X165175000Y-80574000D01*
X165175000Y-83234000D02*
X167775000Y-83234000D01*
X167775000Y-83234000D02*
X167775000Y-80574000D01*
%TO.C,J129*%
X169680000Y-77490000D02*
X165680000Y-77490000D01*
X169680000Y-66990000D02*
X169680000Y-77490000D01*
X160680000Y-66990000D02*
X160680000Y-77490000D01*
X164680000Y-77490000D02*
X160680000Y-77490000D01*
X164120000Y-64010000D02*
X164980000Y-64010000D01*
X169680000Y-66990000D02*
X165530000Y-66990000D01*
X164120000Y-64010000D02*
X164120000Y-64810000D01*
X164830000Y-66990000D02*
X160680000Y-66990000D01*
X166980000Y-71490000D02*
G75*
G03*
X166980000Y-71490000I-1800000J0D01*
G01*
%TO.C,J131*%
X167775000Y-62914000D02*
X167775000Y-60254000D01*
X165175000Y-60254000D02*
X167775000Y-60254000D01*
X165175000Y-62914000D02*
X167775000Y-62914000D01*
X165175000Y-62914000D02*
X165175000Y-60254000D01*
X162575000Y-62914000D02*
X162575000Y-61584000D01*
X163905000Y-62914000D02*
X162575000Y-62914000D01*
%TO.C,J127*%
X150575000Y-83234000D02*
X150575000Y-81904000D01*
X151905000Y-83234000D02*
X150575000Y-83234000D01*
X153175000Y-80574000D02*
X155775000Y-80574000D01*
X153175000Y-83234000D02*
X153175000Y-80574000D01*
X153175000Y-83234000D02*
X155775000Y-83234000D01*
X155775000Y-83234000D02*
X155775000Y-80574000D01*
%TO.C,J126*%
X157680000Y-77490000D02*
X153680000Y-77490000D01*
X157680000Y-66990000D02*
X157680000Y-77490000D01*
X148680000Y-66990000D02*
X148680000Y-77490000D01*
X152680000Y-77490000D02*
X148680000Y-77490000D01*
X152120000Y-64010000D02*
X152980000Y-64010000D01*
X157680000Y-66990000D02*
X153530000Y-66990000D01*
X152120000Y-64010000D02*
X152120000Y-64810000D01*
X152830000Y-66990000D02*
X148680000Y-66990000D01*
X154980000Y-71490000D02*
G75*
G03*
X154980000Y-71490000I-1800000J0D01*
G01*
%TO.C,J128*%
X155775000Y-62914000D02*
X155775000Y-60254000D01*
X153175000Y-60254000D02*
X155775000Y-60254000D01*
X153175000Y-62914000D02*
X155775000Y-62914000D01*
X153175000Y-62914000D02*
X153175000Y-60254000D01*
X150575000Y-62914000D02*
X150575000Y-61584000D01*
X151905000Y-62914000D02*
X150575000Y-62914000D01*
%TO.C,J124*%
X138575000Y-83234000D02*
X138575000Y-81904000D01*
X139905000Y-83234000D02*
X138575000Y-83234000D01*
X141175000Y-80574000D02*
X143775000Y-80574000D01*
X141175000Y-83234000D02*
X141175000Y-80574000D01*
X141175000Y-83234000D02*
X143775000Y-83234000D01*
X143775000Y-83234000D02*
X143775000Y-80574000D01*
%TO.C,J123*%
X145680000Y-77490000D02*
X141680000Y-77490000D01*
X145680000Y-66990000D02*
X145680000Y-77490000D01*
X136680000Y-66990000D02*
X136680000Y-77490000D01*
X140680000Y-77490000D02*
X136680000Y-77490000D01*
X140120000Y-64010000D02*
X140980000Y-64010000D01*
X145680000Y-66990000D02*
X141530000Y-66990000D01*
X140120000Y-64010000D02*
X140120000Y-64810000D01*
X140830000Y-66990000D02*
X136680000Y-66990000D01*
X142980000Y-71490000D02*
G75*
G03*
X142980000Y-71490000I-1800000J0D01*
G01*
%TO.C,J125*%
X143775000Y-62914000D02*
X143775000Y-60254000D01*
X141175000Y-60254000D02*
X143775000Y-60254000D01*
X141175000Y-62914000D02*
X143775000Y-62914000D01*
X141175000Y-62914000D02*
X141175000Y-60254000D01*
X138575000Y-62914000D02*
X138575000Y-61584000D01*
X139905000Y-62914000D02*
X138575000Y-62914000D01*
%TO.C,J121*%
X126575000Y-83234000D02*
X126575000Y-81904000D01*
X127905000Y-83234000D02*
X126575000Y-83234000D01*
X129175000Y-80574000D02*
X131775000Y-80574000D01*
X129175000Y-83234000D02*
X129175000Y-80574000D01*
X129175000Y-83234000D02*
X131775000Y-83234000D01*
X131775000Y-83234000D02*
X131775000Y-80574000D01*
%TO.C,J120*%
X133680000Y-77490000D02*
X129680000Y-77490000D01*
X133680000Y-66990000D02*
X133680000Y-77490000D01*
X124680000Y-66990000D02*
X124680000Y-77490000D01*
X128680000Y-77490000D02*
X124680000Y-77490000D01*
X128120000Y-64010000D02*
X128980000Y-64010000D01*
X133680000Y-66990000D02*
X129530000Y-66990000D01*
X128120000Y-64010000D02*
X128120000Y-64810000D01*
X128830000Y-66990000D02*
X124680000Y-66990000D01*
X130980000Y-71490000D02*
G75*
G03*
X130980000Y-71490000I-1800000J0D01*
G01*
%TO.C,J122*%
X131775000Y-62914000D02*
X131775000Y-60254000D01*
X129175000Y-60254000D02*
X131775000Y-60254000D01*
X129175000Y-62914000D02*
X131775000Y-62914000D01*
X129175000Y-62914000D02*
X129175000Y-60254000D01*
X126575000Y-62914000D02*
X126575000Y-61584000D01*
X127905000Y-62914000D02*
X126575000Y-62914000D01*
%TO.C,J118*%
X114575000Y-83234000D02*
X114575000Y-81904000D01*
X115905000Y-83234000D02*
X114575000Y-83234000D01*
X117175000Y-80574000D02*
X119775000Y-80574000D01*
X117175000Y-83234000D02*
X117175000Y-80574000D01*
X117175000Y-83234000D02*
X119775000Y-83234000D01*
X119775000Y-83234000D02*
X119775000Y-80574000D01*
%TO.C,J117*%
X121680000Y-77490000D02*
X117680000Y-77490000D01*
X121680000Y-66990000D02*
X121680000Y-77490000D01*
X112680000Y-66990000D02*
X112680000Y-77490000D01*
X116680000Y-77490000D02*
X112680000Y-77490000D01*
X116120000Y-64010000D02*
X116980000Y-64010000D01*
X121680000Y-66990000D02*
X117530000Y-66990000D01*
X116120000Y-64010000D02*
X116120000Y-64810000D01*
X116830000Y-66990000D02*
X112680000Y-66990000D01*
X118980000Y-71490000D02*
G75*
G03*
X118980000Y-71490000I-1800000J0D01*
G01*
%TO.C,J119*%
X119775000Y-62914000D02*
X119775000Y-60254000D01*
X117175000Y-60254000D02*
X119775000Y-60254000D01*
X117175000Y-62914000D02*
X119775000Y-62914000D01*
X117175000Y-62914000D02*
X117175000Y-60254000D01*
X114575000Y-62914000D02*
X114575000Y-61584000D01*
X115905000Y-62914000D02*
X114575000Y-62914000D01*
%TO.C,J115*%
X102575000Y-83234000D02*
X102575000Y-81904000D01*
X103905000Y-83234000D02*
X102575000Y-83234000D01*
X105175000Y-80574000D02*
X107775000Y-80574000D01*
X105175000Y-83234000D02*
X105175000Y-80574000D01*
X105175000Y-83234000D02*
X107775000Y-83234000D01*
X107775000Y-83234000D02*
X107775000Y-80574000D01*
%TO.C,J114*%
X109680000Y-77490000D02*
X105680000Y-77490000D01*
X109680000Y-66990000D02*
X109680000Y-77490000D01*
X100680000Y-66990000D02*
X100680000Y-77490000D01*
X104680000Y-77490000D02*
X100680000Y-77490000D01*
X104120000Y-64010000D02*
X104980000Y-64010000D01*
X109680000Y-66990000D02*
X105530000Y-66990000D01*
X104120000Y-64010000D02*
X104120000Y-64810000D01*
X104830000Y-66990000D02*
X100680000Y-66990000D01*
X106980000Y-71490000D02*
G75*
G03*
X106980000Y-71490000I-1800000J0D01*
G01*
%TO.C,J116*%
X107775000Y-62914000D02*
X107775000Y-60254000D01*
X105175000Y-60254000D02*
X107775000Y-60254000D01*
X105175000Y-62914000D02*
X107775000Y-62914000D01*
X105175000Y-62914000D02*
X105175000Y-60254000D01*
X102575000Y-62914000D02*
X102575000Y-61584000D01*
X103905000Y-62914000D02*
X102575000Y-62914000D01*
%TO.C,J112*%
X90575000Y-83234000D02*
X90575000Y-81904000D01*
X91905000Y-83234000D02*
X90575000Y-83234000D01*
X93175000Y-80574000D02*
X95775000Y-80574000D01*
X93175000Y-83234000D02*
X93175000Y-80574000D01*
X93175000Y-83234000D02*
X95775000Y-83234000D01*
X95775000Y-83234000D02*
X95775000Y-80574000D01*
%TO.C,J111*%
X97680000Y-77490000D02*
X93680000Y-77490000D01*
X97680000Y-66990000D02*
X97680000Y-77490000D01*
X88680000Y-66990000D02*
X88680000Y-77490000D01*
X92680000Y-77490000D02*
X88680000Y-77490000D01*
X92120000Y-64010000D02*
X92980000Y-64010000D01*
X97680000Y-66990000D02*
X93530000Y-66990000D01*
X92120000Y-64010000D02*
X92120000Y-64810000D01*
X92830000Y-66990000D02*
X88680000Y-66990000D01*
X94980000Y-71490000D02*
G75*
G03*
X94980000Y-71490000I-1800000J0D01*
G01*
%TO.C,J113*%
X95775000Y-62914000D02*
X95775000Y-60254000D01*
X93175000Y-60254000D02*
X95775000Y-60254000D01*
X93175000Y-62914000D02*
X95775000Y-62914000D01*
X93175000Y-62914000D02*
X93175000Y-60254000D01*
X90575000Y-62914000D02*
X90575000Y-61584000D01*
X91905000Y-62914000D02*
X90575000Y-62914000D01*
%TO.C,J109*%
X78575000Y-83234000D02*
X78575000Y-81904000D01*
X79905000Y-83234000D02*
X78575000Y-83234000D01*
X81175000Y-80574000D02*
X83775000Y-80574000D01*
X81175000Y-83234000D02*
X81175000Y-80574000D01*
X81175000Y-83234000D02*
X83775000Y-83234000D01*
X83775000Y-83234000D02*
X83775000Y-80574000D01*
%TO.C,J110*%
X83775000Y-62914000D02*
X83775000Y-60254000D01*
X81175000Y-60254000D02*
X83775000Y-60254000D01*
X81175000Y-62914000D02*
X83775000Y-62914000D01*
X81175000Y-62914000D02*
X81175000Y-60254000D01*
X78575000Y-62914000D02*
X78575000Y-61584000D01*
X79905000Y-62914000D02*
X78575000Y-62914000D01*
%TO.C,J108*%
X85680000Y-77490000D02*
X81680000Y-77490000D01*
X85680000Y-66990000D02*
X85680000Y-77490000D01*
X76680000Y-66990000D02*
X76680000Y-77490000D01*
X80680000Y-77490000D02*
X76680000Y-77490000D01*
X80120000Y-64010000D02*
X80980000Y-64010000D01*
X85680000Y-66990000D02*
X81530000Y-66990000D01*
X80120000Y-64010000D02*
X80120000Y-64810000D01*
X80830000Y-66990000D02*
X76680000Y-66990000D01*
X82980000Y-71490000D02*
G75*
G03*
X82980000Y-71490000I-1800000J0D01*
G01*
%TD*%
M02*
