%TF.GenerationSoftware,KiCad,Pcbnew,(6.0.0-0)*%
%TF.CreationDate,2022-11-30T22:12:17-05:00*%
%TF.ProjectId,AudioJack-Breakout,41756469-6f4a-4616-936b-2d427265616b,rev?*%
%TF.SameCoordinates,Original*%
%TF.FileFunction,Soldermask,Bot*%
%TF.FilePolarity,Negative*%
%FSLAX46Y46*%
G04 Gerber Fmt 4.6, Leading zero omitted, Abs format (unit mm)*
G04 Created by KiCad (PCBNEW (6.0.0-0)) date 2022-11-30 22:12:17*
%MOMM*%
%LPD*%
G01*
G04 APERTURE LIST*
%ADD10R,1.700000X1.700000*%
%ADD11O,1.700000X1.700000*%
%ADD12R,1.930000X1.830000*%
%ADD13C,2.130000*%
%ADD14C,0.500000*%
G04 APERTURE END LIST*
D10*
%TO.C,J74*%
X189000000Y-118000000D03*
D11*
X191540000Y-118000000D03*
%TD*%
D12*
%TO.C,J72*%
X190000000Y-121426000D03*
D13*
X190000000Y-124526000D03*
X190000000Y-132826000D03*
%TD*%
D10*
%TO.C,J73*%
X189000000Y-137000000D03*
D11*
X191540000Y-137000000D03*
%TD*%
D10*
%TO.C,J71*%
X177000000Y-118000000D03*
D11*
X179540000Y-118000000D03*
%TD*%
D14*
%TO.C,mouse-bite-2mm-slot45*%
X184750000Y-127250000D03*
X183250000Y-128750000D03*
X183250000Y-128000000D03*
X184750000Y-128000000D03*
X184750000Y-128750000D03*
X183250000Y-127250000D03*
%TD*%
D12*
%TO.C,J69*%
X178000000Y-121426000D03*
D13*
X178000000Y-124526000D03*
X178000000Y-132826000D03*
%TD*%
D10*
%TO.C,J70*%
X177000000Y-137000000D03*
D11*
X179540000Y-137000000D03*
%TD*%
D10*
%TO.C,J68*%
X165000000Y-118000000D03*
D11*
X167540000Y-118000000D03*
%TD*%
D14*
%TO.C,mouse-bite-2mm-slot43*%
X172750000Y-127250000D03*
X171250000Y-128750000D03*
X171250000Y-128000000D03*
X172750000Y-128000000D03*
X172750000Y-128750000D03*
X171250000Y-127250000D03*
%TD*%
D12*
%TO.C,J66*%
X166000000Y-121426000D03*
D13*
X166000000Y-124526000D03*
X166000000Y-132826000D03*
%TD*%
D10*
%TO.C,J67*%
X165000000Y-137000000D03*
D11*
X167540000Y-137000000D03*
%TD*%
D10*
%TO.C,J65*%
X153000000Y-118000000D03*
D11*
X155540000Y-118000000D03*
%TD*%
D14*
%TO.C,mouse-bite-2mm-slot41*%
X160750000Y-127250000D03*
X159250000Y-128750000D03*
X159250000Y-128000000D03*
X160750000Y-128000000D03*
X160750000Y-128750000D03*
X159250000Y-127250000D03*
%TD*%
D12*
%TO.C,J63*%
X154000000Y-121426000D03*
D13*
X154000000Y-124526000D03*
X154000000Y-132826000D03*
%TD*%
D10*
%TO.C,J64*%
X153000000Y-137000000D03*
D11*
X155540000Y-137000000D03*
%TD*%
D10*
%TO.C,J62*%
X141000000Y-118000000D03*
D11*
X143540000Y-118000000D03*
%TD*%
D14*
%TO.C,mouse-bite-2mm-slot39*%
X148750000Y-127250000D03*
X147250000Y-128750000D03*
X147250000Y-128000000D03*
X148750000Y-128000000D03*
X148750000Y-128750000D03*
X147250000Y-127250000D03*
%TD*%
D12*
%TO.C,J60*%
X142000000Y-121426000D03*
D13*
X142000000Y-124526000D03*
X142000000Y-132826000D03*
%TD*%
D10*
%TO.C,J61*%
X141000000Y-137000000D03*
D11*
X143540000Y-137000000D03*
%TD*%
D10*
%TO.C,J59*%
X129000000Y-118000000D03*
D11*
X131540000Y-118000000D03*
%TD*%
D14*
%TO.C,mouse-bite-2mm-slot37*%
X136750000Y-127250000D03*
X135250000Y-128750000D03*
X135250000Y-128000000D03*
X136750000Y-128000000D03*
X136750000Y-128750000D03*
X135250000Y-127250000D03*
%TD*%
D12*
%TO.C,J57*%
X130000000Y-121426000D03*
D13*
X130000000Y-124526000D03*
X130000000Y-132826000D03*
%TD*%
D10*
%TO.C,J58*%
X129000000Y-137000000D03*
D11*
X131540000Y-137000000D03*
%TD*%
D10*
%TO.C,J56*%
X117000000Y-118000000D03*
D11*
X119540000Y-118000000D03*
%TD*%
D14*
%TO.C,mouse-bite-2mm-slot35*%
X124750000Y-127250000D03*
X123250000Y-128750000D03*
X123250000Y-128000000D03*
X124750000Y-128000000D03*
X124750000Y-128750000D03*
X123250000Y-127250000D03*
%TD*%
D12*
%TO.C,J54*%
X118000000Y-121426000D03*
D13*
X118000000Y-124526000D03*
X118000000Y-132826000D03*
%TD*%
D10*
%TO.C,J55*%
X117000000Y-137000000D03*
D11*
X119540000Y-137000000D03*
%TD*%
D10*
%TO.C,J53*%
X105000000Y-118000000D03*
D11*
X107540000Y-118000000D03*
%TD*%
D14*
%TO.C,mouse-bite-2mm-slot33*%
X112750000Y-127250000D03*
X111250000Y-128750000D03*
X111250000Y-128000000D03*
X112750000Y-128000000D03*
X112750000Y-128750000D03*
X111250000Y-127250000D03*
%TD*%
D12*
%TO.C,J51*%
X106000000Y-121426000D03*
D13*
X106000000Y-124526000D03*
X106000000Y-132826000D03*
%TD*%
D10*
%TO.C,J52*%
X105000000Y-137000000D03*
D11*
X107540000Y-137000000D03*
%TD*%
D10*
%TO.C,J50*%
X189000000Y-93000000D03*
D11*
X191540000Y-93000000D03*
%TD*%
D12*
%TO.C,J48*%
X190000000Y-96426000D03*
D13*
X190000000Y-99526000D03*
X190000000Y-107826000D03*
%TD*%
D10*
%TO.C,J49*%
X189000000Y-112000000D03*
D11*
X191540000Y-112000000D03*
%TD*%
D14*
%TO.C,mouse-bite-2mm-slot30*%
X189250000Y-114250000D03*
X190750000Y-115750000D03*
X190000000Y-115750000D03*
X190000000Y-114250000D03*
X190750000Y-114250000D03*
X189250000Y-115750000D03*
%TD*%
D10*
%TO.C,J47*%
X177000000Y-93000000D03*
D11*
X179540000Y-93000000D03*
%TD*%
D14*
%TO.C,mouse-bite-2mm-slot29*%
X184750000Y-102250000D03*
X183250000Y-103750000D03*
X183250000Y-103000000D03*
X184750000Y-103000000D03*
X184750000Y-103750000D03*
X183250000Y-102250000D03*
%TD*%
D12*
%TO.C,J45*%
X178000000Y-96426000D03*
D13*
X178000000Y-99526000D03*
X178000000Y-107826000D03*
%TD*%
D10*
%TO.C,J46*%
X177000000Y-112000000D03*
D11*
X179540000Y-112000000D03*
%TD*%
D14*
%TO.C,mouse-bite-2mm-slot28*%
X177250000Y-114250000D03*
X178750000Y-115750000D03*
X178000000Y-115750000D03*
X178000000Y-114250000D03*
X178750000Y-114250000D03*
X177250000Y-115750000D03*
%TD*%
D10*
%TO.C,J44*%
X165000000Y-93000000D03*
D11*
X167540000Y-93000000D03*
%TD*%
D14*
%TO.C,mouse-bite-2mm-slot27*%
X172750000Y-102250000D03*
X171250000Y-103750000D03*
X171250000Y-103000000D03*
X172750000Y-103000000D03*
X172750000Y-103750000D03*
X171250000Y-102250000D03*
%TD*%
D12*
%TO.C,J42*%
X166000000Y-96426000D03*
D13*
X166000000Y-99526000D03*
X166000000Y-107826000D03*
%TD*%
D10*
%TO.C,J43*%
X165000000Y-112000000D03*
D11*
X167540000Y-112000000D03*
%TD*%
D14*
%TO.C,mouse-bite-2mm-slot26*%
X165250000Y-114250000D03*
X166750000Y-115750000D03*
X166000000Y-115750000D03*
X166000000Y-114250000D03*
X166750000Y-114250000D03*
X165250000Y-115750000D03*
%TD*%
D10*
%TO.C,J41*%
X153000000Y-93000000D03*
D11*
X155540000Y-93000000D03*
%TD*%
D14*
%TO.C,mouse-bite-2mm-slot25*%
X160750000Y-102250000D03*
X159250000Y-103750000D03*
X159250000Y-103000000D03*
X160750000Y-103000000D03*
X160750000Y-103750000D03*
X159250000Y-102250000D03*
%TD*%
D12*
%TO.C,J39*%
X154000000Y-96426000D03*
D13*
X154000000Y-99526000D03*
X154000000Y-107826000D03*
%TD*%
D10*
%TO.C,J40*%
X153000000Y-112000000D03*
D11*
X155540000Y-112000000D03*
%TD*%
D14*
%TO.C,mouse-bite-2mm-slot24*%
X153250000Y-114250000D03*
X154750000Y-115750000D03*
X154000000Y-115750000D03*
X154000000Y-114250000D03*
X154750000Y-114250000D03*
X153250000Y-115750000D03*
%TD*%
D10*
%TO.C,J38*%
X141000000Y-93000000D03*
D11*
X143540000Y-93000000D03*
%TD*%
D14*
%TO.C,mouse-bite-2mm-slot23*%
X148750000Y-102250000D03*
X147250000Y-103750000D03*
X147250000Y-103000000D03*
X148750000Y-103000000D03*
X148750000Y-103750000D03*
X147250000Y-102250000D03*
%TD*%
D12*
%TO.C,J36*%
X142000000Y-96426000D03*
D13*
X142000000Y-99526000D03*
X142000000Y-107826000D03*
%TD*%
D10*
%TO.C,J37*%
X141000000Y-112000000D03*
D11*
X143540000Y-112000000D03*
%TD*%
D14*
%TO.C,mouse-bite-2mm-slot22*%
X141250000Y-114250000D03*
X142750000Y-115750000D03*
X142000000Y-115750000D03*
X142000000Y-114250000D03*
X142750000Y-114250000D03*
X141250000Y-115750000D03*
%TD*%
D10*
%TO.C,J35*%
X129000000Y-93000000D03*
D11*
X131540000Y-93000000D03*
%TD*%
D14*
%TO.C,mouse-bite-2mm-slot21*%
X136750000Y-102250000D03*
X135250000Y-103750000D03*
X135250000Y-103000000D03*
X136750000Y-103000000D03*
X136750000Y-103750000D03*
X135250000Y-102250000D03*
%TD*%
D12*
%TO.C,J33*%
X130000000Y-96426000D03*
D13*
X130000000Y-99526000D03*
X130000000Y-107826000D03*
%TD*%
D10*
%TO.C,J34*%
X129000000Y-112000000D03*
D11*
X131540000Y-112000000D03*
%TD*%
D14*
%TO.C,mouse-bite-2mm-slot20*%
X129250000Y-114250000D03*
X130750000Y-115750000D03*
X130000000Y-115750000D03*
X130000000Y-114250000D03*
X130750000Y-114250000D03*
X129250000Y-115750000D03*
%TD*%
D10*
%TO.C,J32*%
X117000000Y-93000000D03*
D11*
X119540000Y-93000000D03*
%TD*%
D14*
%TO.C,mouse-bite-2mm-slot19*%
X124750000Y-102250000D03*
X123250000Y-103750000D03*
X123250000Y-103000000D03*
X124750000Y-103000000D03*
X124750000Y-103750000D03*
X123250000Y-102250000D03*
%TD*%
D12*
%TO.C,J30*%
X118000000Y-96426000D03*
D13*
X118000000Y-99526000D03*
X118000000Y-107826000D03*
%TD*%
D10*
%TO.C,J31*%
X117000000Y-112000000D03*
D11*
X119540000Y-112000000D03*
%TD*%
D14*
%TO.C,mouse-bite-2mm-slot18*%
X117250000Y-114250000D03*
X118750000Y-115750000D03*
X118000000Y-115750000D03*
X118000000Y-114250000D03*
X118750000Y-114250000D03*
X117250000Y-115750000D03*
%TD*%
D10*
%TO.C,J29*%
X105000000Y-93000000D03*
D11*
X107540000Y-93000000D03*
%TD*%
D14*
%TO.C,mouse-bite-2mm-slot17*%
X112750000Y-102250000D03*
X111250000Y-103750000D03*
X111250000Y-103000000D03*
X112750000Y-103000000D03*
X112750000Y-103750000D03*
X111250000Y-102250000D03*
%TD*%
D12*
%TO.C,J27*%
X106000000Y-96426000D03*
D13*
X106000000Y-99526000D03*
X106000000Y-107826000D03*
%TD*%
D10*
%TO.C,J28*%
X105000000Y-112000000D03*
D11*
X107540000Y-112000000D03*
%TD*%
D14*
%TO.C,mouse-bite-2mm-slot16*%
X105250000Y-114250000D03*
X106750000Y-115750000D03*
X106000000Y-115750000D03*
X106000000Y-114250000D03*
X106750000Y-114250000D03*
X105250000Y-115750000D03*
%TD*%
D10*
%TO.C,J26*%
X189000000Y-68000000D03*
D11*
X191540000Y-68000000D03*
%TD*%
D12*
%TO.C,J24*%
X190000000Y-71426000D03*
D13*
X190000000Y-74526000D03*
X190000000Y-82826000D03*
%TD*%
D10*
%TO.C,J25*%
X189000000Y-87000000D03*
D11*
X191540000Y-87000000D03*
%TD*%
D14*
%TO.C,mouse-bite-2mm-slot14*%
X189250000Y-89250000D03*
X190750000Y-90750000D03*
X190000000Y-90750000D03*
X190000000Y-89250000D03*
X190750000Y-89250000D03*
X189250000Y-90750000D03*
%TD*%
D10*
%TO.C,J23*%
X177000000Y-68000000D03*
D11*
X179540000Y-68000000D03*
%TD*%
D14*
%TO.C,mouse-bite-2mm-slot13*%
X184750000Y-77250000D03*
X183250000Y-78750000D03*
X183250000Y-78000000D03*
X184750000Y-78000000D03*
X184750000Y-78750000D03*
X183250000Y-77250000D03*
%TD*%
D12*
%TO.C,J21*%
X178000000Y-71426000D03*
D13*
X178000000Y-74526000D03*
X178000000Y-82826000D03*
%TD*%
D10*
%TO.C,J22*%
X177000000Y-87000000D03*
D11*
X179540000Y-87000000D03*
%TD*%
D14*
%TO.C,mouse-bite-2mm-slot12*%
X177250000Y-89250000D03*
X178750000Y-90750000D03*
X178000000Y-90750000D03*
X178000000Y-89250000D03*
X178750000Y-89250000D03*
X177250000Y-90750000D03*
%TD*%
D10*
%TO.C,J20*%
X165000000Y-68000000D03*
D11*
X167540000Y-68000000D03*
%TD*%
D14*
%TO.C,mouse-bite-2mm-slot11*%
X172750000Y-77250000D03*
X171250000Y-78750000D03*
X171250000Y-78000000D03*
X172750000Y-78000000D03*
X172750000Y-78750000D03*
X171250000Y-77250000D03*
%TD*%
D12*
%TO.C,J18*%
X166000000Y-71426000D03*
D13*
X166000000Y-74526000D03*
X166000000Y-82826000D03*
%TD*%
D10*
%TO.C,J19*%
X165000000Y-87000000D03*
D11*
X167540000Y-87000000D03*
%TD*%
D14*
%TO.C,mouse-bite-2mm-slot10*%
X165250000Y-89250000D03*
X166750000Y-90750000D03*
X166000000Y-90750000D03*
X166000000Y-89250000D03*
X166750000Y-89250000D03*
X165250000Y-90750000D03*
%TD*%
D10*
%TO.C,J17*%
X153000000Y-68000000D03*
D11*
X155540000Y-68000000D03*
%TD*%
D14*
%TO.C,mouse-bite-2mm-slot9*%
X160750000Y-77250000D03*
X159250000Y-78750000D03*
X159250000Y-78000000D03*
X160750000Y-78000000D03*
X160750000Y-78750000D03*
X159250000Y-77250000D03*
%TD*%
D12*
%TO.C,J15*%
X154000000Y-71426000D03*
D13*
X154000000Y-74526000D03*
X154000000Y-82826000D03*
%TD*%
D10*
%TO.C,J16*%
X153000000Y-87000000D03*
D11*
X155540000Y-87000000D03*
%TD*%
D14*
%TO.C,mouse-bite-2mm-slot8*%
X153250000Y-89250000D03*
X154750000Y-90750000D03*
X154000000Y-90750000D03*
X154000000Y-89250000D03*
X154750000Y-89250000D03*
X153250000Y-90750000D03*
%TD*%
D10*
%TO.C,J14*%
X141000000Y-68000000D03*
D11*
X143540000Y-68000000D03*
%TD*%
D14*
%TO.C,mouse-bite-2mm-slot7*%
X148750000Y-77250000D03*
X147250000Y-78750000D03*
X147250000Y-78000000D03*
X148750000Y-78000000D03*
X148750000Y-78750000D03*
X147250000Y-77250000D03*
%TD*%
D12*
%TO.C,J12*%
X142000000Y-71426000D03*
D13*
X142000000Y-74526000D03*
X142000000Y-82826000D03*
%TD*%
D10*
%TO.C,J13*%
X141000000Y-87000000D03*
D11*
X143540000Y-87000000D03*
%TD*%
D14*
%TO.C,mouse-bite-2mm-slot6*%
X141250000Y-89250000D03*
X142750000Y-90750000D03*
X142000000Y-90750000D03*
X142000000Y-89250000D03*
X142750000Y-89250000D03*
X141250000Y-90750000D03*
%TD*%
D10*
%TO.C,J11*%
X129000000Y-68000000D03*
D11*
X131540000Y-68000000D03*
%TD*%
D14*
%TO.C,mouse-bite-2mm-slot5*%
X136750000Y-77250000D03*
X135250000Y-78750000D03*
X135250000Y-78000000D03*
X136750000Y-78000000D03*
X136750000Y-78750000D03*
X135250000Y-77250000D03*
%TD*%
D12*
%TO.C,J7*%
X130000000Y-71426000D03*
D13*
X130000000Y-74526000D03*
X130000000Y-82826000D03*
%TD*%
D10*
%TO.C,J10*%
X129000000Y-87000000D03*
D11*
X131540000Y-87000000D03*
%TD*%
D14*
%TO.C,mouse-bite-2mm-slot4*%
X129250000Y-89250000D03*
X130750000Y-90750000D03*
X130000000Y-90750000D03*
X130000000Y-89250000D03*
X130750000Y-89250000D03*
X129250000Y-90750000D03*
%TD*%
D10*
%TO.C,J9*%
X117000000Y-68000000D03*
D11*
X119540000Y-68000000D03*
%TD*%
D14*
%TO.C,mouse-bite-2mm-slot3*%
X124750000Y-77250000D03*
X123250000Y-78750000D03*
X123250000Y-78000000D03*
X124750000Y-78000000D03*
X124750000Y-78750000D03*
X123250000Y-77250000D03*
%TD*%
D12*
%TO.C,J5*%
X118000000Y-71426000D03*
D13*
X118000000Y-74526000D03*
X118000000Y-82826000D03*
%TD*%
D10*
%TO.C,J6*%
X117000000Y-87000000D03*
D11*
X119540000Y-87000000D03*
%TD*%
D14*
%TO.C,mouse-bite-2mm-slot2*%
X117250000Y-89250000D03*
X118750000Y-90750000D03*
X118000000Y-90750000D03*
X118000000Y-89250000D03*
X118750000Y-89250000D03*
X117250000Y-90750000D03*
%TD*%
%TO.C,mouse-bite-2mm-slot1*%
X105250000Y-89250000D03*
X106750000Y-90750000D03*
X106000000Y-90750000D03*
X106000000Y-89250000D03*
X106750000Y-89250000D03*
X105250000Y-90750000D03*
%TD*%
%TO.C,mouse-bite-2mm-slot1*%
X112750000Y-77250000D03*
X111250000Y-78750000D03*
X111250000Y-78000000D03*
X112750000Y-78000000D03*
X112750000Y-78750000D03*
X111250000Y-77250000D03*
%TD*%
D10*
%TO.C,J4*%
X105000000Y-87000000D03*
D11*
X107540000Y-87000000D03*
%TD*%
D12*
%TO.C,J3*%
X106000000Y-71426000D03*
D13*
X106000000Y-74526000D03*
X106000000Y-82826000D03*
%TD*%
D10*
%TO.C,J8*%
X105000000Y-68000000D03*
D11*
X107540000Y-68000000D03*
%TD*%
M02*
