M48
; DRILL file {KiCad (6.0.0-0)} date Wednesday, November 30, 2022 at 10:12:22 PM
; FORMAT={-:-/ absolute / inch / decimal}
; #@! TF.CreationDate,2022-11-30T22:12:22-05:00
; #@! TF.GenerationSoftware,Kicad,Pcbnew,(6.0.0-0)
; #@! TF.FileFunction,Plated,1,2,PTH
FMAT,2
INCH
; #@! TA.AperFunction,Plated,PTH,ComponentDrill
T1C0.0394
; #@! TA.AperFunction,Plated,PTH,ComponentDrill
T2C0.0480
; #@! TA.AperFunction,Plated,PTH,ComponentDrill
T3C0.0559
; #@! TA.AperFunction,Plated,PTH,ComponentDrill
T4C0.0563
%
G90
G05
T1
X4.1339Y-2.6772
X4.1339Y-3.4252
X4.1339Y-3.6614
X4.1339Y-4.4094
X4.1339Y-4.6457
X4.1339Y-5.3937
X4.2339Y-2.6772
X4.2339Y-3.4252
X4.2339Y-3.6614
X4.2339Y-4.4094
X4.2339Y-4.6457
X4.2339Y-5.3937
X4.6063Y-2.6772
X4.6063Y-3.4252
X4.6063Y-3.6614
X4.6063Y-4.4094
X4.6063Y-4.6457
X4.6063Y-5.3937
X4.7063Y-2.6772
X4.7063Y-3.4252
X4.7063Y-3.6614
X4.7063Y-4.4094
X4.7063Y-4.6457
X4.7063Y-5.3937
X5.0787Y-2.6772
X5.0787Y-3.4252
X5.0787Y-3.6614
X5.0787Y-4.4094
X5.0787Y-4.6457
X5.0787Y-5.3937
X5.1787Y-2.6772
X5.1787Y-3.4252
X5.1787Y-3.6614
X5.1787Y-4.4094
X5.1787Y-4.6457
X5.1787Y-5.3937
X5.5512Y-2.6772
X5.5512Y-3.4252
X5.5512Y-3.6614
X5.5512Y-4.4094
X5.5512Y-4.6457
X5.5512Y-5.3937
X5.6512Y-2.6772
X5.6512Y-3.4252
X5.6512Y-3.6614
X5.6512Y-4.4094
X5.6512Y-4.6457
X5.6512Y-5.3937
X6.0236Y-2.6772
X6.0236Y-3.4252
X6.0236Y-3.6614
X6.0236Y-4.4094
X6.0236Y-4.6457
X6.0236Y-5.3937
X6.1236Y-2.6772
X6.1236Y-3.4252
X6.1236Y-3.6614
X6.1236Y-4.4094
X6.1236Y-4.6457
X6.1236Y-5.3937
X6.4961Y-2.6772
X6.4961Y-3.4252
X6.4961Y-3.6614
X6.4961Y-4.4094
X6.4961Y-4.6457
X6.4961Y-5.3937
X6.5961Y-2.6772
X6.5961Y-3.4252
X6.5961Y-3.6614
X6.5961Y-4.4094
X6.5961Y-4.6457
X6.5961Y-5.3937
X6.9685Y-2.6772
X6.9685Y-3.4252
X6.9685Y-3.6614
X6.9685Y-4.4094
X6.9685Y-4.6457
X6.9685Y-5.3937
X7.0685Y-2.6772
X7.0685Y-3.4252
X7.0685Y-3.6614
X7.0685Y-4.4094
X7.0685Y-4.6457
X7.0685Y-5.3937
X7.4409Y-2.6772
X7.4409Y-3.4252
X7.4409Y-3.6614
X7.4409Y-4.4094
X7.4409Y-4.6457
X7.4409Y-5.3937
X7.5409Y-2.6772
X7.5409Y-3.4252
X7.5409Y-3.6614
X7.5409Y-4.4094
X7.5409Y-4.6457
X7.5409Y-5.3937
T2
X4.1732Y-2.812
X4.1732Y-3.7963
X4.1732Y-4.7806
X4.6457Y-2.812
X4.6457Y-3.7963
X4.6457Y-4.7806
X5.1181Y-2.812
X5.1181Y-3.7963
X5.1181Y-4.7806
X5.5906Y-2.812
X5.5906Y-3.7963
X5.5906Y-4.7806
X6.063Y-2.812
X6.063Y-3.7963
X6.063Y-4.7806
X6.5354Y-2.812
X6.5354Y-3.7963
X6.5354Y-4.7806
X7.0079Y-2.812
X7.0079Y-3.7963
X7.0079Y-4.7806
X7.4803Y-2.812
X7.4803Y-3.7963
X7.4803Y-4.7806
T3
X4.1732Y-2.9341
X4.1732Y-3.9183
X4.1732Y-4.9026
X4.6457Y-2.9341
X4.6457Y-3.9183
X4.6457Y-4.9026
X5.1181Y-2.9341
X5.1181Y-3.9183
X5.1181Y-4.9026
X5.5906Y-2.9341
X5.5906Y-3.9183
X5.5906Y-4.9026
X6.063Y-2.9341
X6.063Y-3.9183
X6.063Y-4.9026
X6.5354Y-2.9341
X6.5354Y-3.9183
X6.5354Y-4.9026
X7.0079Y-2.9341
X7.0079Y-3.9183
X7.0079Y-4.9026
X7.4803Y-2.9341
X7.4803Y-3.9183
X7.4803Y-4.9026
T4
X4.1732Y-3.2609
X4.1732Y-4.2451
X4.1732Y-5.2294
X4.6457Y-3.2609
X4.6457Y-4.2451
X4.6457Y-5.2294
X5.1181Y-3.2609
X5.1181Y-4.2451
X5.1181Y-5.2294
X5.5906Y-3.2609
X5.5906Y-4.2451
X5.5906Y-5.2294
X6.063Y-3.2609
X6.063Y-4.2451
X6.063Y-5.2294
X6.5354Y-3.2609
X6.5354Y-4.2451
X6.5354Y-5.2294
X7.0079Y-3.2609
X7.0079Y-4.2451
X7.0079Y-5.2294
X7.4803Y-3.2609
X7.4803Y-4.2451
X7.4803Y-5.2294
T0
M30
