M48
; DRILL file {KiCad (6.0.0-0)} date Tuesday, December 13, 2022 at 02:04:46 PM
; FORMAT={-:-/ absolute / inch / decimal}
; #@! TF.CreationDate,2022-12-13T14:04:46-05:00
; #@! TF.GenerationSoftware,Kicad,Pcbnew,(6.0.0-0)
; #@! TF.FileFunction,Plated,1,2,PTH
FMAT,2
INCH
; #@! TA.AperFunction,Plated,PTH,ViaDrill
T1C0.0157
; #@! TA.AperFunction,Plated,PTH,ComponentDrill
T2C0.0300
; #@! TA.AperFunction,Plated,PTH,ComponentDrill
T3C0.0354
; #@! TA.AperFunction,Plated,PTH,ComponentDrill
T4C0.0394
; #@! TA.AperFunction,Plated,PTH,ComponentDrill
T5C0.0433
; #@! TA.AperFunction,Plated,PTH,ComponentDrill
T6C0.0472
; #@! TA.AperFunction,Plated,PTH,ComponentDrill
T7C0.0480
; #@! TA.AperFunction,Plated,PTH,ComponentDrill
T8C0.0559
; #@! TA.AperFunction,Plated,PTH,ComponentDrill
T9C0.0563
; #@! TA.AperFunction,Plated,PTH,ComponentDrill
T10C0.0591
%
G90
G05
T1
X1.7121Y-4.7639
X1.8121Y-4.6639
X1.9421Y-4.2639
X1.9421Y-4.4639
X2.0221Y-4.7639
X2.0521Y-4.1639
X2.2121Y-4.2639
X2.5421Y-4.1639
X2.5921Y-4.5239
X2.6121Y-4.9639
X2.6321Y-4.4639
X2.6321Y-4.5239
X2.6821Y-4.7639
X2.7421Y-4.1639
X2.8121Y-4.8239
X2.9121Y-4.2639
X3.3821Y-3.9339
X3.4121Y-4.7739
X3.4121Y-4.8339
X3.4221Y-4.9139
X3.5121Y-4.6139
X3.5121Y-4.7039
X3.5121Y-4.9339
X3.5421Y-4.4539
X3.5521Y-5.0424
X3.5921Y-4.9639
X3.6821Y-4.7639
X3.7421Y-4.6639
X3.7521Y-5.0209
X3.8121Y-4.7139
X3.8321Y-4.3239
X3.9121Y-4.6039
X4.0021Y-4.5539
X4.0221Y-4.8339
X4.0421Y-4.3639
X4.0621Y-4.5939
X4.1521Y-4.9339
X4.2521Y-4.8039
X4.2621Y-4.6739
X4.3121Y-4.7139
X4.3421Y-4.2539
X4.4421Y-4.6039
X4.5121Y-4.5539
X4.6021Y-4.7339
X4.6321Y-4.4639
X4.6321Y-4.7739
X4.6721Y-4.6839
X4.7621Y-3.8139
X4.8321Y-3.8939
X4.8921Y-3.9639
X4.8921Y-4.2039
X4.9821Y-4.4739
T2
X1.6225Y-2.5783
X1.6225Y-2.7783
X1.7225Y-2.5783
X1.7225Y-2.7783
X1.8225Y-2.5783
X1.8225Y-2.7783
X2.1661Y-2.5783
X2.1661Y-2.7783
X2.2661Y-2.5783
X2.2661Y-2.7783
X2.3661Y-2.5783
X2.3661Y-2.7783
X2.7125Y-2.5783
X2.7125Y-2.7783
X2.8125Y-2.5783
X2.8125Y-2.7783
X2.9125Y-2.5783
X2.9125Y-2.7783
X3.2625Y-2.5783
X3.2625Y-2.7783
X3.3625Y-2.5783
X3.3625Y-2.7783
X3.4625Y-2.5783
X3.4625Y-2.7783
T3
X1.7221Y-2.3337
X1.7221Y-2.4337
X2.2657Y-2.3337
X2.2657Y-2.4337
X2.8121Y-2.3337
X2.8121Y-2.4337
X3.3621Y-2.3337
X3.3621Y-2.4337
T4
X3.7918Y-1.9143
X3.7918Y-2.0139
X3.7918Y-2.1139
X3.7918Y-2.2139
X3.7918Y-2.3139
X3.7918Y-2.4139
X3.7918Y-2.5139
X3.7918Y-2.6139
X3.8918Y-1.9143
X3.8918Y-2.0143
X3.8918Y-2.1143
X3.8918Y-2.2143
X3.8918Y-2.3143
X3.8918Y-2.4143
X3.8918Y-2.5143
X3.8918Y-2.6143
T6
X1.6261Y-3.3852
X1.7245Y-3.3852
X1.8229Y-3.3852
X2.1684Y-3.3852
X2.2669Y-3.3852
X2.3653Y-3.3852
X2.7161Y-3.3852
X2.8145Y-3.3852
X2.9129Y-3.3852
X3.2661Y-3.3852
X3.3645Y-3.3852
X3.4629Y-3.3852
T7
X1.7221Y-1.7547
X2.2645Y-1.7547
X2.8121Y-1.7547
X3.3621Y-1.7547
X4.6921Y-1.7547
X4.6921Y-2.3363
X4.6921Y-2.9162
X5.1021Y-1.7547
X5.1021Y-2.3363
X5.1021Y-2.9175
T8
X1.7221Y-1.8768
X2.2645Y-1.8768
X2.8121Y-1.8768
X3.3621Y-1.8768
X4.6921Y-1.8768
X4.6921Y-2.4583
X4.6921Y-3.0383
X5.1021Y-1.8768
X5.1021Y-2.4583
X5.1021Y-3.0395
T9
X1.7221Y-2.2035
X2.2645Y-2.2035
X2.8121Y-2.2035
X3.3621Y-2.2035
X4.6921Y-2.2035
X4.6921Y-2.7851
X4.6921Y-3.365
X5.1021Y-2.2035
X5.1021Y-2.7851
X5.1021Y-3.3663
T10
X1.6464Y-3.7159
X1.6464Y-5.3826
X1.8039Y-3.7159
X2.1888Y-3.7159
X2.1888Y-5.3826
X2.3463Y-3.7159
X2.7364Y-3.7159
X2.7364Y-5.3826
X2.8939Y-3.7159
X3.2864Y-3.7159
X3.2864Y-5.3826
X3.4439Y-3.7159
X3.8457Y-3.7172
X3.8457Y-5.3839
X4.0032Y-3.7172
X4.4057Y-3.7172
X4.4057Y-5.3839
X4.5632Y-3.7172
X4.9443Y-3.7172
X4.9443Y-5.3839
X5.1018Y-3.7172
T5
G00X1.5355Y-3.1116
M15
G01X1.5355Y-3.0683
M16
G05
G00X1.9135Y-3.0683
M15
G01X1.9135Y-3.1116
M16
G05
G00X2.0779Y-3.1116
M15
G01X2.0779Y-3.0683
M16
G05
G00X2.4558Y-3.0683
M15
G01X2.4558Y-3.1116
M16
G05
G00X2.6255Y-3.1116
M15
G01X2.6255Y-3.0683
M16
G05
G00X3.0035Y-3.0683
M15
G01X3.0035Y-3.1116
M16
G05
G00X3.1755Y-3.1116
M15
G01X3.1755Y-3.0683
M16
G05
G00X3.5535Y-3.0683
M15
G01X3.5535Y-3.1116
M16
G05
T0
M30
