%TF.GenerationSoftware,KiCad,Pcbnew,(6.0.0-0)*%
%TF.CreationDate,2022-12-13T14:04:23-05:00*%
%TF.ProjectId,mixer,6d697865-722e-46b6-9963-61645f706362,rev?*%
%TF.SameCoordinates,Original*%
%TF.FileFunction,Legend,Bot*%
%TF.FilePolarity,Positive*%
%FSLAX46Y46*%
G04 Gerber Fmt 4.6, Leading zero omitted, Abs format (unit mm)*
G04 Created by KiCad (PCBNEW (6.0.0-0)) date 2022-12-13 14:04:23*
%MOMM*%
%LPD*%
G01*
G04 APERTURE LIST*
%ADD10C,0.150000*%
%ADD11C,0.120000*%
G04 APERTURE END LIST*
D10*
X45930595Y-120946380D02*
X46502023Y-120946380D01*
X46216309Y-120946380D02*
X46216309Y-119946380D01*
X46311547Y-120089238D01*
X46406785Y-120184476D01*
X46502023Y-120232095D01*
X45502023Y-120946380D02*
X45502023Y-119946380D01*
X45406785Y-120565428D02*
X45121071Y-120946380D01*
X45121071Y-120279714D02*
X45502023Y-120660666D01*
X119082595Y-119676380D02*
X119654023Y-119676380D01*
X119368309Y-119676380D02*
X119368309Y-118676380D01*
X119463547Y-118819238D01*
X119558785Y-118914476D01*
X119654023Y-118962095D01*
X118463547Y-118676380D02*
X118368309Y-118676380D01*
X118273071Y-118724000D01*
X118225452Y-118771619D01*
X118177833Y-118866857D01*
X118130214Y-119057333D01*
X118130214Y-119295428D01*
X118177833Y-119485904D01*
X118225452Y-119581142D01*
X118273071Y-119628761D01*
X118368309Y-119676380D01*
X118463547Y-119676380D01*
X118558785Y-119628761D01*
X118606404Y-119581142D01*
X118654023Y-119485904D01*
X118701642Y-119295428D01*
X118701642Y-119057333D01*
X118654023Y-118866857D01*
X118606404Y-118771619D01*
X118558785Y-118724000D01*
X118463547Y-118676380D01*
X117511166Y-118676380D02*
X117415928Y-118676380D01*
X117320690Y-118724000D01*
X117273071Y-118771619D01*
X117225452Y-118866857D01*
X117177833Y-119057333D01*
X117177833Y-119295428D01*
X117225452Y-119485904D01*
X117273071Y-119581142D01*
X117320690Y-119628761D01*
X117415928Y-119676380D01*
X117511166Y-119676380D01*
X117606404Y-119628761D01*
X117654023Y-119581142D01*
X117701642Y-119485904D01*
X117749261Y-119295428D01*
X117749261Y-119057333D01*
X117701642Y-118866857D01*
X117654023Y-118771619D01*
X117606404Y-118724000D01*
X117511166Y-118676380D01*
X116749261Y-119676380D02*
X116749261Y-118676380D01*
X116654023Y-119295428D02*
X116368309Y-119676380D01*
X116368309Y-119009714D02*
X116749261Y-119390666D01*
X126855619Y-113538595D02*
X126855619Y-114110023D01*
X126855619Y-113824309D02*
X127855619Y-113824309D01*
X127712761Y-113919547D01*
X127617523Y-114014785D01*
X127569904Y-114110023D01*
X127855619Y-112919547D02*
X127855619Y-112824309D01*
X127808000Y-112729071D01*
X127760380Y-112681452D01*
X127665142Y-112633833D01*
X127474666Y-112586214D01*
X127236571Y-112586214D01*
X127046095Y-112633833D01*
X126950857Y-112681452D01*
X126903238Y-112729071D01*
X126855619Y-112824309D01*
X126855619Y-112919547D01*
X126903238Y-113014785D01*
X126950857Y-113062404D01*
X127046095Y-113110023D01*
X127236571Y-113157642D01*
X127474666Y-113157642D01*
X127665142Y-113110023D01*
X127760380Y-113062404D01*
X127808000Y-113014785D01*
X127855619Y-112919547D01*
X127855619Y-111967166D02*
X127855619Y-111871928D01*
X127808000Y-111776690D01*
X127760380Y-111729071D01*
X127665142Y-111681452D01*
X127474666Y-111633833D01*
X127236571Y-111633833D01*
X127046095Y-111681452D01*
X126950857Y-111729071D01*
X126903238Y-111776690D01*
X126855619Y-111871928D01*
X126855619Y-111967166D01*
X126903238Y-112062404D01*
X126950857Y-112110023D01*
X127046095Y-112157642D01*
X127236571Y-112205261D01*
X127474666Y-112205261D01*
X127665142Y-112157642D01*
X127760380Y-112110023D01*
X127808000Y-112062404D01*
X127855619Y-111967166D01*
X126855619Y-111205261D02*
X127855619Y-111205261D01*
X127236571Y-111110023D02*
X126855619Y-110824309D01*
X127522285Y-110824309D02*
X127141333Y-111205261D01*
X89872595Y-115612380D02*
X90444023Y-115612380D01*
X90158309Y-115612380D02*
X90158309Y-114612380D01*
X90253547Y-114755238D01*
X90348785Y-114850476D01*
X90444023Y-114898095D01*
X89253547Y-114612380D02*
X89158309Y-114612380D01*
X89063071Y-114660000D01*
X89015452Y-114707619D01*
X88967833Y-114802857D01*
X88920214Y-114993333D01*
X88920214Y-115231428D01*
X88967833Y-115421904D01*
X89015452Y-115517142D01*
X89063071Y-115564761D01*
X89158309Y-115612380D01*
X89253547Y-115612380D01*
X89348785Y-115564761D01*
X89396404Y-115517142D01*
X89444023Y-115421904D01*
X89491642Y-115231428D01*
X89491642Y-114993333D01*
X89444023Y-114802857D01*
X89396404Y-114707619D01*
X89348785Y-114660000D01*
X89253547Y-114612380D01*
X88301166Y-114612380D02*
X88205928Y-114612380D01*
X88110690Y-114660000D01*
X88063071Y-114707619D01*
X88015452Y-114802857D01*
X87967833Y-114993333D01*
X87967833Y-115231428D01*
X88015452Y-115421904D01*
X88063071Y-115517142D01*
X88110690Y-115564761D01*
X88205928Y-115612380D01*
X88301166Y-115612380D01*
X88396404Y-115564761D01*
X88444023Y-115517142D01*
X88491642Y-115421904D01*
X88539261Y-115231428D01*
X88539261Y-114993333D01*
X88491642Y-114802857D01*
X88444023Y-114707619D01*
X88396404Y-114660000D01*
X88301166Y-114612380D01*
X87539261Y-115612380D02*
X87539261Y-114612380D01*
X87444023Y-115231428D02*
X87158309Y-115612380D01*
X87158309Y-114945714D02*
X87539261Y-115326666D01*
X99778595Y-109770380D02*
X100350023Y-109770380D01*
X100064309Y-109770380D02*
X100064309Y-108770380D01*
X100159547Y-108913238D01*
X100254785Y-109008476D01*
X100350023Y-109056095D01*
X99350023Y-109770380D02*
X99350023Y-108770380D01*
X99254785Y-109389428D02*
X98969071Y-109770380D01*
X98969071Y-109103714D02*
X99350023Y-109484666D01*
X50401619Y-70866595D02*
X50401619Y-71438023D01*
X50401619Y-71152309D02*
X51401619Y-71152309D01*
X51258761Y-71247547D01*
X51163523Y-71342785D01*
X51115904Y-71438023D01*
X51401619Y-70247547D02*
X51401619Y-70152309D01*
X51354000Y-70057071D01*
X51306380Y-70009452D01*
X51211142Y-69961833D01*
X51020666Y-69914214D01*
X50782571Y-69914214D01*
X50592095Y-69961833D01*
X50496857Y-70009452D01*
X50449238Y-70057071D01*
X50401619Y-70152309D01*
X50401619Y-70247547D01*
X50449238Y-70342785D01*
X50496857Y-70390404D01*
X50592095Y-70438023D01*
X50782571Y-70485642D01*
X51020666Y-70485642D01*
X51211142Y-70438023D01*
X51306380Y-70390404D01*
X51354000Y-70342785D01*
X51401619Y-70247547D01*
X51401619Y-69295166D02*
X51401619Y-69199928D01*
X51354000Y-69104690D01*
X51306380Y-69057071D01*
X51211142Y-69009452D01*
X51020666Y-68961833D01*
X50782571Y-68961833D01*
X50592095Y-69009452D01*
X50496857Y-69057071D01*
X50449238Y-69104690D01*
X50401619Y-69199928D01*
X50401619Y-69295166D01*
X50449238Y-69390404D01*
X50496857Y-69438023D01*
X50592095Y-69485642D01*
X50782571Y-69533261D01*
X51020666Y-69533261D01*
X51211142Y-69485642D01*
X51306380Y-69438023D01*
X51354000Y-69390404D01*
X51401619Y-69295166D01*
X50401619Y-68533261D02*
X51401619Y-68533261D01*
X50782571Y-68438023D02*
X50401619Y-68152309D01*
X51068285Y-68152309D02*
X50687333Y-68533261D01*
X96730595Y-121962380D02*
X97302023Y-121962380D01*
X97016309Y-121962380D02*
X97016309Y-120962380D01*
X97111547Y-121105238D01*
X97206785Y-121200476D01*
X97302023Y-121248095D01*
X96111547Y-120962380D02*
X96016309Y-120962380D01*
X95921071Y-121010000D01*
X95873452Y-121057619D01*
X95825833Y-121152857D01*
X95778214Y-121343333D01*
X95778214Y-121581428D01*
X95825833Y-121771904D01*
X95873452Y-121867142D01*
X95921071Y-121914761D01*
X96016309Y-121962380D01*
X96111547Y-121962380D01*
X96206785Y-121914761D01*
X96254404Y-121867142D01*
X96302023Y-121771904D01*
X96349642Y-121581428D01*
X96349642Y-121343333D01*
X96302023Y-121152857D01*
X96254404Y-121057619D01*
X96206785Y-121010000D01*
X96111547Y-120962380D01*
X95159166Y-120962380D02*
X95063928Y-120962380D01*
X94968690Y-121010000D01*
X94921071Y-121057619D01*
X94873452Y-121152857D01*
X94825833Y-121343333D01*
X94825833Y-121581428D01*
X94873452Y-121771904D01*
X94921071Y-121867142D01*
X94968690Y-121914761D01*
X95063928Y-121962380D01*
X95159166Y-121962380D01*
X95254404Y-121914761D01*
X95302023Y-121867142D01*
X95349642Y-121771904D01*
X95397261Y-121581428D01*
X95397261Y-121343333D01*
X95349642Y-121152857D01*
X95302023Y-121057619D01*
X95254404Y-121010000D01*
X95159166Y-120962380D01*
X94397261Y-121962380D02*
X94397261Y-120962380D01*
X94302023Y-121581428D02*
X94016309Y-121962380D01*
X94016309Y-121295714D02*
X94397261Y-121676666D01*
X89872595Y-119676380D02*
X90444023Y-119676380D01*
X90158309Y-119676380D02*
X90158309Y-118676380D01*
X90253547Y-118819238D01*
X90348785Y-118914476D01*
X90444023Y-118962095D01*
X89253547Y-118676380D02*
X89158309Y-118676380D01*
X89063071Y-118724000D01*
X89015452Y-118771619D01*
X88967833Y-118866857D01*
X88920214Y-119057333D01*
X88920214Y-119295428D01*
X88967833Y-119485904D01*
X89015452Y-119581142D01*
X89063071Y-119628761D01*
X89158309Y-119676380D01*
X89253547Y-119676380D01*
X89348785Y-119628761D01*
X89396404Y-119581142D01*
X89444023Y-119485904D01*
X89491642Y-119295428D01*
X89491642Y-119057333D01*
X89444023Y-118866857D01*
X89396404Y-118771619D01*
X89348785Y-118724000D01*
X89253547Y-118676380D01*
X88301166Y-118676380D02*
X88205928Y-118676380D01*
X88110690Y-118724000D01*
X88063071Y-118771619D01*
X88015452Y-118866857D01*
X87967833Y-119057333D01*
X87967833Y-119295428D01*
X88015452Y-119485904D01*
X88063071Y-119581142D01*
X88110690Y-119628761D01*
X88205928Y-119676380D01*
X88301166Y-119676380D01*
X88396404Y-119628761D01*
X88444023Y-119581142D01*
X88491642Y-119485904D01*
X88539261Y-119295428D01*
X88539261Y-119057333D01*
X88491642Y-118866857D01*
X88444023Y-118771619D01*
X88396404Y-118724000D01*
X88301166Y-118676380D01*
X87539261Y-119676380D02*
X87539261Y-118676380D01*
X87444023Y-119295428D02*
X87158309Y-119676380D01*
X87158309Y-119009714D02*
X87539261Y-119390666D01*
X45978214Y-124010380D02*
X46454404Y-124010380D01*
X46502023Y-124486571D01*
X46454404Y-124438952D01*
X46359166Y-124391333D01*
X46121071Y-124391333D01*
X46025833Y-124438952D01*
X45978214Y-124486571D01*
X45930595Y-124581809D01*
X45930595Y-124819904D01*
X45978214Y-124915142D01*
X46025833Y-124962761D01*
X46121071Y-125010380D01*
X46359166Y-125010380D01*
X46454404Y-124962761D01*
X46502023Y-124915142D01*
X45311547Y-124010380D02*
X45216309Y-124010380D01*
X45121071Y-124058000D01*
X45073452Y-124105619D01*
X45025833Y-124200857D01*
X44978214Y-124391333D01*
X44978214Y-124629428D01*
X45025833Y-124819904D01*
X45073452Y-124915142D01*
X45121071Y-124962761D01*
X45216309Y-125010380D01*
X45311547Y-125010380D01*
X45406785Y-124962761D01*
X45454404Y-124915142D01*
X45502023Y-124819904D01*
X45549642Y-124629428D01*
X45549642Y-124391333D01*
X45502023Y-124200857D01*
X45454404Y-124105619D01*
X45406785Y-124058000D01*
X45311547Y-124010380D01*
X44549642Y-125010380D02*
X44549642Y-124010380D01*
X44454404Y-124629428D02*
X44168690Y-125010380D01*
X44168690Y-124343714D02*
X44549642Y-124724666D01*
X90533619Y-66802595D02*
X90533619Y-67374023D01*
X90533619Y-67088309D02*
X91533619Y-67088309D01*
X91390761Y-67183547D01*
X91295523Y-67278785D01*
X91247904Y-67374023D01*
X91533619Y-66183547D02*
X91533619Y-66088309D01*
X91486000Y-65993071D01*
X91438380Y-65945452D01*
X91343142Y-65897833D01*
X91152666Y-65850214D01*
X90914571Y-65850214D01*
X90724095Y-65897833D01*
X90628857Y-65945452D01*
X90581238Y-65993071D01*
X90533619Y-66088309D01*
X90533619Y-66183547D01*
X90581238Y-66278785D01*
X90628857Y-66326404D01*
X90724095Y-66374023D01*
X90914571Y-66421642D01*
X91152666Y-66421642D01*
X91343142Y-66374023D01*
X91438380Y-66326404D01*
X91486000Y-66278785D01*
X91533619Y-66183547D01*
X91533619Y-65231166D02*
X91533619Y-65135928D01*
X91486000Y-65040690D01*
X91438380Y-64993071D01*
X91343142Y-64945452D01*
X91152666Y-64897833D01*
X90914571Y-64897833D01*
X90724095Y-64945452D01*
X90628857Y-64993071D01*
X90581238Y-65040690D01*
X90533619Y-65135928D01*
X90533619Y-65231166D01*
X90581238Y-65326404D01*
X90628857Y-65374023D01*
X90724095Y-65421642D01*
X90914571Y-65469261D01*
X91152666Y-65469261D01*
X91343142Y-65421642D01*
X91438380Y-65374023D01*
X91486000Y-65326404D01*
X91533619Y-65231166D01*
X90533619Y-64469261D02*
X91533619Y-64469261D01*
X90914571Y-64374023D02*
X90533619Y-64088309D01*
X91200285Y-64088309D02*
X90819333Y-64469261D01*
X119336595Y-113834380D02*
X119908023Y-113834380D01*
X119622309Y-113834380D02*
X119622309Y-112834380D01*
X119717547Y-112977238D01*
X119812785Y-113072476D01*
X119908023Y-113120095D01*
X118717547Y-112834380D02*
X118622309Y-112834380D01*
X118527071Y-112882000D01*
X118479452Y-112929619D01*
X118431833Y-113024857D01*
X118384214Y-113215333D01*
X118384214Y-113453428D01*
X118431833Y-113643904D01*
X118479452Y-113739142D01*
X118527071Y-113786761D01*
X118622309Y-113834380D01*
X118717547Y-113834380D01*
X118812785Y-113786761D01*
X118860404Y-113739142D01*
X118908023Y-113643904D01*
X118955642Y-113453428D01*
X118955642Y-113215333D01*
X118908023Y-113024857D01*
X118860404Y-112929619D01*
X118812785Y-112882000D01*
X118717547Y-112834380D01*
X117765166Y-112834380D02*
X117669928Y-112834380D01*
X117574690Y-112882000D01*
X117527071Y-112929619D01*
X117479452Y-113024857D01*
X117431833Y-113215333D01*
X117431833Y-113453428D01*
X117479452Y-113643904D01*
X117527071Y-113739142D01*
X117574690Y-113786761D01*
X117669928Y-113834380D01*
X117765166Y-113834380D01*
X117860404Y-113786761D01*
X117908023Y-113739142D01*
X117955642Y-113643904D01*
X118003261Y-113453428D01*
X118003261Y-113215333D01*
X117955642Y-113024857D01*
X117908023Y-112929619D01*
X117860404Y-112882000D01*
X117765166Y-112834380D01*
X117003261Y-113834380D02*
X117003261Y-112834380D01*
X116908023Y-113453428D02*
X116622309Y-113834380D01*
X116622309Y-113167714D02*
X117003261Y-113548666D01*
X127530666Y-141107619D02*
X127530666Y-140393333D01*
X127483047Y-140250476D01*
X127387809Y-140155238D01*
X127244952Y-140107619D01*
X127149714Y-140107619D01*
X128483047Y-140107619D02*
X128006857Y-140107619D01*
X128006857Y-141107619D01*
X129387809Y-140202857D02*
X129340190Y-140155238D01*
X129197333Y-140107619D01*
X129102095Y-140107619D01*
X128959238Y-140155238D01*
X128864000Y-140250476D01*
X128816380Y-140345714D01*
X128768761Y-140536190D01*
X128768761Y-140679047D01*
X128816380Y-140869523D01*
X128864000Y-140964761D01*
X128959238Y-141060000D01*
X129102095Y-141107619D01*
X129197333Y-141107619D01*
X129340190Y-141060000D01*
X129387809Y-141012380D01*
X130102095Y-141107619D02*
X130102095Y-140393333D01*
X130054476Y-140250476D01*
X129959238Y-140155238D01*
X129816380Y-140107619D01*
X129721142Y-140107619D01*
X131054476Y-140107619D02*
X130578285Y-140107619D01*
X130578285Y-141107619D01*
X131959238Y-140202857D02*
X131911619Y-140155238D01*
X131768761Y-140107619D01*
X131673523Y-140107619D01*
X131530666Y-140155238D01*
X131435428Y-140250476D01*
X131387809Y-140345714D01*
X131340190Y-140536190D01*
X131340190Y-140679047D01*
X131387809Y-140869523D01*
X131435428Y-140964761D01*
X131530666Y-141060000D01*
X131673523Y-141107619D01*
X131768761Y-141107619D01*
X131911619Y-141060000D01*
X131959238Y-141012380D01*
X132673523Y-141107619D02*
X132673523Y-140393333D01*
X132625904Y-140250476D01*
X132530666Y-140155238D01*
X132387809Y-140107619D01*
X132292571Y-140107619D01*
X133625904Y-140107619D02*
X133149714Y-140107619D01*
X133149714Y-141107619D01*
X134530666Y-140202857D02*
X134483047Y-140155238D01*
X134340190Y-140107619D01*
X134244952Y-140107619D01*
X134102095Y-140155238D01*
X134006857Y-140250476D01*
X133959238Y-140345714D01*
X133911619Y-140536190D01*
X133911619Y-140679047D01*
X133959238Y-140869523D01*
X134006857Y-140964761D01*
X134102095Y-141060000D01*
X134244952Y-141107619D01*
X134340190Y-141107619D01*
X134483047Y-141060000D01*
X134530666Y-141012380D01*
X89872595Y-117644380D02*
X90444023Y-117644380D01*
X90158309Y-117644380D02*
X90158309Y-116644380D01*
X90253547Y-116787238D01*
X90348785Y-116882476D01*
X90444023Y-116930095D01*
X89253547Y-116644380D02*
X89158309Y-116644380D01*
X89063071Y-116692000D01*
X89015452Y-116739619D01*
X88967833Y-116834857D01*
X88920214Y-117025333D01*
X88920214Y-117263428D01*
X88967833Y-117453904D01*
X89015452Y-117549142D01*
X89063071Y-117596761D01*
X89158309Y-117644380D01*
X89253547Y-117644380D01*
X89348785Y-117596761D01*
X89396404Y-117549142D01*
X89444023Y-117453904D01*
X89491642Y-117263428D01*
X89491642Y-117025333D01*
X89444023Y-116834857D01*
X89396404Y-116739619D01*
X89348785Y-116692000D01*
X89253547Y-116644380D01*
X88301166Y-116644380D02*
X88205928Y-116644380D01*
X88110690Y-116692000D01*
X88063071Y-116739619D01*
X88015452Y-116834857D01*
X87967833Y-117025333D01*
X87967833Y-117263428D01*
X88015452Y-117453904D01*
X88063071Y-117549142D01*
X88110690Y-117596761D01*
X88205928Y-117644380D01*
X88301166Y-117644380D01*
X88396404Y-117596761D01*
X88444023Y-117549142D01*
X88491642Y-117453904D01*
X88539261Y-117263428D01*
X88539261Y-117025333D01*
X88491642Y-116834857D01*
X88444023Y-116739619D01*
X88396404Y-116692000D01*
X88301166Y-116644380D01*
X87539261Y-117644380D02*
X87539261Y-116644380D01*
X87444023Y-117263428D02*
X87158309Y-117644380D01*
X87158309Y-116977714D02*
X87539261Y-117358666D01*
X45978214Y-121978380D02*
X46454404Y-121978380D01*
X46502023Y-122454571D01*
X46454404Y-122406952D01*
X46359166Y-122359333D01*
X46121071Y-122359333D01*
X46025833Y-122406952D01*
X45978214Y-122454571D01*
X45930595Y-122549809D01*
X45930595Y-122787904D01*
X45978214Y-122883142D01*
X46025833Y-122930761D01*
X46121071Y-122978380D01*
X46359166Y-122978380D01*
X46454404Y-122930761D01*
X46502023Y-122883142D01*
X45311547Y-121978380D02*
X45216309Y-121978380D01*
X45121071Y-122026000D01*
X45073452Y-122073619D01*
X45025833Y-122168857D01*
X44978214Y-122359333D01*
X44978214Y-122597428D01*
X45025833Y-122787904D01*
X45073452Y-122883142D01*
X45121071Y-122930761D01*
X45216309Y-122978380D01*
X45311547Y-122978380D01*
X45406785Y-122930761D01*
X45454404Y-122883142D01*
X45502023Y-122787904D01*
X45549642Y-122597428D01*
X45549642Y-122359333D01*
X45502023Y-122168857D01*
X45454404Y-122073619D01*
X45406785Y-122026000D01*
X45311547Y-121978380D01*
X44549642Y-122978380D02*
X44549642Y-121978380D01*
X44454404Y-122597428D02*
X44168690Y-122978380D01*
X44168690Y-122311714D02*
X44549642Y-122692666D01*
X52534595Y-126788380D02*
X53106023Y-126788380D01*
X52820309Y-126788380D02*
X52820309Y-125788380D01*
X52915547Y-125931238D01*
X53010785Y-126026476D01*
X53106023Y-126074095D01*
X51915547Y-125788380D02*
X51820309Y-125788380D01*
X51725071Y-125836000D01*
X51677452Y-125883619D01*
X51629833Y-125978857D01*
X51582214Y-126169333D01*
X51582214Y-126407428D01*
X51629833Y-126597904D01*
X51677452Y-126693142D01*
X51725071Y-126740761D01*
X51820309Y-126788380D01*
X51915547Y-126788380D01*
X52010785Y-126740761D01*
X52058404Y-126693142D01*
X52106023Y-126597904D01*
X52153642Y-126407428D01*
X52153642Y-126169333D01*
X52106023Y-125978857D01*
X52058404Y-125883619D01*
X52010785Y-125836000D01*
X51915547Y-125788380D01*
X51153642Y-126788380D02*
X51153642Y-125788380D01*
X51058404Y-126407428D02*
X50772690Y-126788380D01*
X50772690Y-126121714D02*
X51153642Y-126502666D01*
X52534595Y-121200380D02*
X53106023Y-121200380D01*
X52820309Y-121200380D02*
X52820309Y-120200380D01*
X52915547Y-120343238D01*
X53010785Y-120438476D01*
X53106023Y-120486095D01*
X51915547Y-120200380D02*
X51820309Y-120200380D01*
X51725071Y-120248000D01*
X51677452Y-120295619D01*
X51629833Y-120390857D01*
X51582214Y-120581333D01*
X51582214Y-120819428D01*
X51629833Y-121009904D01*
X51677452Y-121105142D01*
X51725071Y-121152761D01*
X51820309Y-121200380D01*
X51915547Y-121200380D01*
X52010785Y-121152761D01*
X52058404Y-121105142D01*
X52106023Y-121009904D01*
X52153642Y-120819428D01*
X52153642Y-120581333D01*
X52106023Y-120390857D01*
X52058404Y-120295619D01*
X52010785Y-120248000D01*
X51915547Y-120200380D01*
X51153642Y-121200380D02*
X51153642Y-120200380D01*
X51058404Y-120819428D02*
X50772690Y-121200380D01*
X50772690Y-120533714D02*
X51153642Y-120914666D01*
X96730595Y-123994380D02*
X97302023Y-123994380D01*
X97016309Y-123994380D02*
X97016309Y-122994380D01*
X97111547Y-123137238D01*
X97206785Y-123232476D01*
X97302023Y-123280095D01*
X96302023Y-123994380D02*
X96302023Y-122994380D01*
X96206785Y-123613428D02*
X95921071Y-123994380D01*
X95921071Y-123327714D02*
X96302023Y-123708666D01*
X78087619Y-70612595D02*
X78087619Y-71184023D01*
X78087619Y-70898309D02*
X79087619Y-70898309D01*
X78944761Y-70993547D01*
X78849523Y-71088785D01*
X78801904Y-71184023D01*
X79087619Y-69993547D02*
X79087619Y-69898309D01*
X79040000Y-69803071D01*
X78992380Y-69755452D01*
X78897142Y-69707833D01*
X78706666Y-69660214D01*
X78468571Y-69660214D01*
X78278095Y-69707833D01*
X78182857Y-69755452D01*
X78135238Y-69803071D01*
X78087619Y-69898309D01*
X78087619Y-69993547D01*
X78135238Y-70088785D01*
X78182857Y-70136404D01*
X78278095Y-70184023D01*
X78468571Y-70231642D01*
X78706666Y-70231642D01*
X78897142Y-70184023D01*
X78992380Y-70136404D01*
X79040000Y-70088785D01*
X79087619Y-69993547D01*
X79087619Y-69041166D02*
X79087619Y-68945928D01*
X79040000Y-68850690D01*
X78992380Y-68803071D01*
X78897142Y-68755452D01*
X78706666Y-68707833D01*
X78468571Y-68707833D01*
X78278095Y-68755452D01*
X78182857Y-68803071D01*
X78135238Y-68850690D01*
X78087619Y-68945928D01*
X78087619Y-69041166D01*
X78135238Y-69136404D01*
X78182857Y-69184023D01*
X78278095Y-69231642D01*
X78468571Y-69279261D01*
X78706666Y-69279261D01*
X78897142Y-69231642D01*
X78992380Y-69184023D01*
X79040000Y-69136404D01*
X79087619Y-69041166D01*
X78087619Y-68279261D02*
X79087619Y-68279261D01*
X78468571Y-68184023D02*
X78087619Y-67898309D01*
X78754285Y-67898309D02*
X78373333Y-68279261D01*
X64371619Y-70612595D02*
X64371619Y-71184023D01*
X64371619Y-70898309D02*
X65371619Y-70898309D01*
X65228761Y-70993547D01*
X65133523Y-71088785D01*
X65085904Y-71184023D01*
X65371619Y-69993547D02*
X65371619Y-69898309D01*
X65324000Y-69803071D01*
X65276380Y-69755452D01*
X65181142Y-69707833D01*
X64990666Y-69660214D01*
X64752571Y-69660214D01*
X64562095Y-69707833D01*
X64466857Y-69755452D01*
X64419238Y-69803071D01*
X64371619Y-69898309D01*
X64371619Y-69993547D01*
X64419238Y-70088785D01*
X64466857Y-70136404D01*
X64562095Y-70184023D01*
X64752571Y-70231642D01*
X64990666Y-70231642D01*
X65181142Y-70184023D01*
X65276380Y-70136404D01*
X65324000Y-70088785D01*
X65371619Y-69993547D01*
X65371619Y-69041166D02*
X65371619Y-68945928D01*
X65324000Y-68850690D01*
X65276380Y-68803071D01*
X65181142Y-68755452D01*
X64990666Y-68707833D01*
X64752571Y-68707833D01*
X64562095Y-68755452D01*
X64466857Y-68803071D01*
X64419238Y-68850690D01*
X64371619Y-68945928D01*
X64371619Y-69041166D01*
X64419238Y-69136404D01*
X64466857Y-69184023D01*
X64562095Y-69231642D01*
X64752571Y-69279261D01*
X64990666Y-69279261D01*
X65181142Y-69231642D01*
X65276380Y-69184023D01*
X65324000Y-69136404D01*
X65371619Y-69041166D01*
X64371619Y-68279261D02*
X65371619Y-68279261D01*
X64752571Y-68184023D02*
X64371619Y-67898309D01*
X65038285Y-67898309D02*
X64657333Y-68279261D01*
X95105619Y-113538595D02*
X95105619Y-114110023D01*
X95105619Y-113824309D02*
X96105619Y-113824309D01*
X95962761Y-113919547D01*
X95867523Y-114014785D01*
X95819904Y-114110023D01*
X96105619Y-112919547D02*
X96105619Y-112824309D01*
X96058000Y-112729071D01*
X96010380Y-112681452D01*
X95915142Y-112633833D01*
X95724666Y-112586214D01*
X95486571Y-112586214D01*
X95296095Y-112633833D01*
X95200857Y-112681452D01*
X95153238Y-112729071D01*
X95105619Y-112824309D01*
X95105619Y-112919547D01*
X95153238Y-113014785D01*
X95200857Y-113062404D01*
X95296095Y-113110023D01*
X95486571Y-113157642D01*
X95724666Y-113157642D01*
X95915142Y-113110023D01*
X96010380Y-113062404D01*
X96058000Y-113014785D01*
X96105619Y-112919547D01*
X96105619Y-111967166D02*
X96105619Y-111871928D01*
X96058000Y-111776690D01*
X96010380Y-111729071D01*
X95915142Y-111681452D01*
X95724666Y-111633833D01*
X95486571Y-111633833D01*
X95296095Y-111681452D01*
X95200857Y-111729071D01*
X95153238Y-111776690D01*
X95105619Y-111871928D01*
X95105619Y-111967166D01*
X95153238Y-112062404D01*
X95200857Y-112110023D01*
X95296095Y-112157642D01*
X95486571Y-112205261D01*
X95724666Y-112205261D01*
X95915142Y-112157642D01*
X96010380Y-112110023D01*
X96058000Y-112062404D01*
X96105619Y-111967166D01*
X95105619Y-111205261D02*
X96105619Y-111205261D01*
X95486571Y-111110023D02*
X95105619Y-110824309D01*
X95772285Y-110824309D02*
X95391333Y-111205261D01*
X120606595Y-109008380D02*
X121178023Y-109008380D01*
X120892309Y-109008380D02*
X120892309Y-108008380D01*
X120987547Y-108151238D01*
X121082785Y-108246476D01*
X121178023Y-108294095D01*
X120178023Y-109008380D02*
X120178023Y-108008380D01*
X120082785Y-108627428D02*
X119797071Y-109008380D01*
X119797071Y-108341714D02*
X120178023Y-108722666D01*
X45930595Y-118914380D02*
X46502023Y-118914380D01*
X46216309Y-118914380D02*
X46216309Y-117914380D01*
X46311547Y-118057238D01*
X46406785Y-118152476D01*
X46502023Y-118200095D01*
X45311547Y-117914380D02*
X45216309Y-117914380D01*
X45121071Y-117962000D01*
X45073452Y-118009619D01*
X45025833Y-118104857D01*
X44978214Y-118295333D01*
X44978214Y-118533428D01*
X45025833Y-118723904D01*
X45073452Y-118819142D01*
X45121071Y-118866761D01*
X45216309Y-118914380D01*
X45311547Y-118914380D01*
X45406785Y-118866761D01*
X45454404Y-118819142D01*
X45502023Y-118723904D01*
X45549642Y-118533428D01*
X45549642Y-118295333D01*
X45502023Y-118104857D01*
X45454404Y-118009619D01*
X45406785Y-117962000D01*
X45311547Y-117914380D01*
X44359166Y-117914380D02*
X44263928Y-117914380D01*
X44168690Y-117962000D01*
X44121071Y-118009619D01*
X44073452Y-118104857D01*
X44025833Y-118295333D01*
X44025833Y-118533428D01*
X44073452Y-118723904D01*
X44121071Y-118819142D01*
X44168690Y-118866761D01*
X44263928Y-118914380D01*
X44359166Y-118914380D01*
X44454404Y-118866761D01*
X44502023Y-118819142D01*
X44549642Y-118723904D01*
X44597261Y-118533428D01*
X44597261Y-118295333D01*
X44549642Y-118104857D01*
X44502023Y-118009619D01*
X44454404Y-117962000D01*
X44359166Y-117914380D01*
X43597261Y-118914380D02*
X43597261Y-117914380D01*
X43502023Y-118533428D02*
X43216309Y-118914380D01*
X43216309Y-118247714D02*
X43597261Y-118628666D01*
X128887619Y-113538595D02*
X128887619Y-114110023D01*
X128887619Y-113824309D02*
X129887619Y-113824309D01*
X129744761Y-113919547D01*
X129649523Y-114014785D01*
X129601904Y-114110023D01*
X128887619Y-113110023D02*
X129887619Y-113110023D01*
X129268571Y-113014785D02*
X128887619Y-112729071D01*
X129554285Y-112729071D02*
X129173333Y-113110023D01*
X89872595Y-113580380D02*
X90444023Y-113580380D01*
X90158309Y-113580380D02*
X90158309Y-112580380D01*
X90253547Y-112723238D01*
X90348785Y-112818476D01*
X90444023Y-112866095D01*
X89253547Y-112580380D02*
X89158309Y-112580380D01*
X89063071Y-112628000D01*
X89015452Y-112675619D01*
X88967833Y-112770857D01*
X88920214Y-112961333D01*
X88920214Y-113199428D01*
X88967833Y-113389904D01*
X89015452Y-113485142D01*
X89063071Y-113532761D01*
X89158309Y-113580380D01*
X89253547Y-113580380D01*
X89348785Y-113532761D01*
X89396404Y-113485142D01*
X89444023Y-113389904D01*
X89491642Y-113199428D01*
X89491642Y-112961333D01*
X89444023Y-112770857D01*
X89396404Y-112675619D01*
X89348785Y-112628000D01*
X89253547Y-112580380D01*
X88301166Y-112580380D02*
X88205928Y-112580380D01*
X88110690Y-112628000D01*
X88063071Y-112675619D01*
X88015452Y-112770857D01*
X87967833Y-112961333D01*
X87967833Y-113199428D01*
X88015452Y-113389904D01*
X88063071Y-113485142D01*
X88110690Y-113532761D01*
X88205928Y-113580380D01*
X88301166Y-113580380D01*
X88396404Y-113532761D01*
X88444023Y-113485142D01*
X88491642Y-113389904D01*
X88539261Y-113199428D01*
X88539261Y-112961333D01*
X88491642Y-112770857D01*
X88444023Y-112675619D01*
X88396404Y-112628000D01*
X88301166Y-112580380D01*
X87539261Y-113580380D02*
X87539261Y-112580380D01*
X87444023Y-113199428D02*
X87158309Y-113580380D01*
X87158309Y-112913714D02*
X87539261Y-113294666D01*
X120606595Y-111294380D02*
X121178023Y-111294380D01*
X120892309Y-111294380D02*
X120892309Y-110294380D01*
X120987547Y-110437238D01*
X121082785Y-110532476D01*
X121178023Y-110580095D01*
X119987547Y-110294380D02*
X119892309Y-110294380D01*
X119797071Y-110342000D01*
X119749452Y-110389619D01*
X119701833Y-110484857D01*
X119654214Y-110675333D01*
X119654214Y-110913428D01*
X119701833Y-111103904D01*
X119749452Y-111199142D01*
X119797071Y-111246761D01*
X119892309Y-111294380D01*
X119987547Y-111294380D01*
X120082785Y-111246761D01*
X120130404Y-111199142D01*
X120178023Y-111103904D01*
X120225642Y-110913428D01*
X120225642Y-110675333D01*
X120178023Y-110484857D01*
X120130404Y-110389619D01*
X120082785Y-110342000D01*
X119987547Y-110294380D01*
X119035166Y-110294380D02*
X118939928Y-110294380D01*
X118844690Y-110342000D01*
X118797071Y-110389619D01*
X118749452Y-110484857D01*
X118701833Y-110675333D01*
X118701833Y-110913428D01*
X118749452Y-111103904D01*
X118797071Y-111199142D01*
X118844690Y-111246761D01*
X118939928Y-111294380D01*
X119035166Y-111294380D01*
X119130404Y-111246761D01*
X119178023Y-111199142D01*
X119225642Y-111103904D01*
X119273261Y-110913428D01*
X119273261Y-110675333D01*
X119225642Y-110484857D01*
X119178023Y-110389619D01*
X119130404Y-110342000D01*
X119035166Y-110294380D01*
X118273261Y-111294380D02*
X118273261Y-110294380D01*
X118178023Y-110913428D02*
X117892309Y-111294380D01*
X117892309Y-110627714D02*
X118273261Y-111008666D01*
D11*
%TO.C,R12*%
X73941064Y-119197000D02*
X73486936Y-119197000D01*
X73941064Y-117727000D02*
X73486936Y-117727000D01*
%TO.C,R49*%
X113057064Y-122807000D02*
X112602936Y-122807000D01*
X113057064Y-124277000D02*
X112602936Y-124277000D01*
%TO.C,R46*%
X112602936Y-120775000D02*
X113057064Y-120775000D01*
X112602936Y-122245000D02*
X113057064Y-122245000D01*
%TO.C,R38*%
X118645064Y-116457000D02*
X118190936Y-116457000D01*
X118645064Y-117927000D02*
X118190936Y-117927000D01*
%TO.C,R50*%
X113057064Y-110107000D02*
X112602936Y-110107000D01*
X113057064Y-111577000D02*
X112602936Y-111577000D01*
%TO.C,R22*%
X65813064Y-125293000D02*
X65358936Y-125293000D01*
X65813064Y-123823000D02*
X65358936Y-123823000D01*
%TO.C,R40*%
X92887564Y-114425000D02*
X92433436Y-114425000D01*
X92887564Y-115895000D02*
X92433436Y-115895000D01*
%TO.C,R30*%
X69369064Y-125293000D02*
X68914936Y-125293000D01*
X69369064Y-123823000D02*
X68914936Y-123823000D01*
%TO.C,U5*%
X125804000Y-116176000D02*
X125804000Y-114226000D01*
X120684000Y-116176000D02*
X120684000Y-118126000D01*
X125804000Y-116176000D02*
X125804000Y-119626000D01*
X120684000Y-116176000D02*
X120684000Y-114226000D01*
%TO.C,R11*%
X65813064Y-119197000D02*
X65358936Y-119197000D01*
X65813064Y-117727000D02*
X65358936Y-117727000D01*
%TO.C,R23*%
X73941064Y-121791000D02*
X73486936Y-121791000D01*
X73941064Y-123261000D02*
X73486936Y-123261000D01*
%TO.C,R14*%
X56365436Y-121229000D02*
X56819564Y-121229000D01*
X56365436Y-119759000D02*
X56819564Y-119759000D01*
%TO.C,R51*%
X123471064Y-107821000D02*
X123016936Y-107821000D01*
X123471064Y-109291000D02*
X123016936Y-109291000D01*
%TO.C,U1*%
X93020500Y-43414000D02*
X93020500Y-71614000D01*
X93020500Y-71614000D02*
X102140500Y-71614000D01*
X100830500Y-59564000D02*
X100830500Y-59564000D01*
X100830500Y-70314000D02*
X100830500Y-59564000D01*
X100830500Y-59564000D02*
X102140500Y-59564000D01*
X94330500Y-70314000D02*
X100830500Y-70314000D01*
X102140500Y-43414000D02*
X93020500Y-43414000D01*
X100830500Y-44714000D02*
X94330500Y-44714000D01*
X94330500Y-44714000D02*
X94330500Y-70314000D01*
X100830500Y-55464000D02*
X100830500Y-44714000D01*
X102140500Y-71614000D02*
X102140500Y-43414000D01*
X103530500Y-48124000D02*
X103530500Y-49124000D01*
X102530500Y-48624000D02*
X103530500Y-48124000D01*
X102140500Y-55464000D02*
X100830500Y-55464000D01*
X103530500Y-49124000D02*
X102530500Y-48624000D01*
%TO.C,R7*%
X68607000Y-60777064D02*
X68607000Y-60322936D01*
X67137000Y-60777064D02*
X67137000Y-60322936D01*
%TO.C,U4*%
X110270000Y-116176000D02*
X110270000Y-118126000D01*
X115390000Y-116176000D02*
X115390000Y-114226000D01*
X110270000Y-116176000D02*
X110270000Y-112726000D01*
X115390000Y-116176000D02*
X115390000Y-118126000D01*
%TO.C,R47*%
X123471064Y-110107000D02*
X123016936Y-110107000D01*
X123471064Y-111577000D02*
X123016936Y-111577000D01*
%TO.C,R13*%
X48491436Y-121229000D02*
X48945564Y-121229000D01*
X48491436Y-119759000D02*
X48945564Y-119759000D01*
%TO.C,R1*%
X48341000Y-69466936D02*
X48341000Y-69921064D01*
X49811000Y-69466936D02*
X49811000Y-69921064D01*
%TO.C,R6*%
X53421000Y-60777064D02*
X53421000Y-60322936D01*
X54891000Y-60777064D02*
X54891000Y-60322936D01*
%TO.C,U3*%
X72718000Y-110842000D02*
X72718000Y-114292000D01*
X72718000Y-110842000D02*
X72718000Y-108892000D01*
X67598000Y-110842000D02*
X67598000Y-108892000D01*
X67598000Y-110842000D02*
X67598000Y-112792000D01*
%TO.C,R44*%
X128043000Y-115948936D02*
X128043000Y-116403064D01*
X126573000Y-115948936D02*
X126573000Y-116403064D01*
%TO.C,R29*%
X69369064Y-121791000D02*
X68914936Y-121791000D01*
X69369064Y-123261000D02*
X68914936Y-123261000D01*
%TO.C,R42*%
X92887564Y-119959000D02*
X92433436Y-119959000D01*
X92887564Y-118489000D02*
X92433436Y-118489000D01*
%TO.C,R9*%
X48945564Y-119197000D02*
X48491436Y-119197000D01*
X48945564Y-117727000D02*
X48491436Y-117727000D01*
%TO.C,R4*%
X91721000Y-69466936D02*
X91721000Y-69921064D01*
X90251000Y-69466936D02*
X90251000Y-69921064D01*
%TO.C,R34*%
X105945064Y-114679000D02*
X105490936Y-114679000D01*
X105945064Y-116149000D02*
X105490936Y-116149000D01*
%TO.C,R10*%
X56819564Y-119197000D02*
X56365436Y-119197000D01*
X56819564Y-117727000D02*
X56365436Y-117727000D01*
%TO.C,U2*%
X55446000Y-110842000D02*
X55446000Y-108892000D01*
X50326000Y-110842000D02*
X50326000Y-112792000D01*
X50326000Y-110842000D02*
X50326000Y-108892000D01*
X55446000Y-110842000D02*
X55446000Y-114292000D01*
%TO.C,R27*%
X60375564Y-121791000D02*
X59921436Y-121791000D01*
X60375564Y-123261000D02*
X59921436Y-123261000D01*
%TO.C,R36*%
X105945064Y-120213000D02*
X105490936Y-120213000D01*
X105945064Y-118743000D02*
X105490936Y-118743000D01*
%TO.C,R21*%
X65813064Y-121791000D02*
X65358936Y-121791000D01*
X65813064Y-123261000D02*
X65358936Y-123261000D01*
%TO.C,R5*%
X39451000Y-60777064D02*
X39451000Y-60322936D01*
X40921000Y-60777064D02*
X40921000Y-60322936D01*
%TO.C,R41*%
X92887564Y-116457000D02*
X92433436Y-116457000D01*
X92887564Y-117927000D02*
X92433436Y-117927000D01*
%TO.C,R31*%
X77497064Y-123261000D02*
X77042936Y-123261000D01*
X77497064Y-121791000D02*
X77042936Y-121791000D01*
%TO.C,R15*%
X65358936Y-121229000D02*
X65813064Y-121229000D01*
X65358936Y-119759000D02*
X65813064Y-119759000D01*
%TO.C,R48*%
X99394936Y-122245000D02*
X99849064Y-122245000D01*
X99394936Y-120775000D02*
X99849064Y-120775000D01*
%TO.C,R52*%
X130075000Y-115948936D02*
X130075000Y-116403064D01*
X128605000Y-115948936D02*
X128605000Y-116403064D01*
%TO.C,R16*%
X73486936Y-119759000D02*
X73941064Y-119759000D01*
X73486936Y-121229000D02*
X73941064Y-121229000D01*
%TO.C,R39*%
X92887564Y-113863000D02*
X92433436Y-113863000D01*
X92887564Y-112393000D02*
X92433436Y-112393000D01*
%TO.C,R17*%
X48945564Y-125293000D02*
X48491436Y-125293000D01*
X48945564Y-123823000D02*
X48491436Y-123823000D01*
%TO.C,R8*%
X82577000Y-60777064D02*
X82577000Y-60322936D01*
X81107000Y-60777064D02*
X81107000Y-60322936D01*
%TO.C,R37*%
X118645064Y-115895000D02*
X118190936Y-115895000D01*
X118645064Y-114425000D02*
X118190936Y-114425000D01*
%TO.C,R32*%
X77497064Y-123823000D02*
X77042936Y-123823000D01*
X77497064Y-125293000D02*
X77042936Y-125293000D01*
%TO.C,R43*%
X108031000Y-116657064D02*
X108031000Y-116202936D01*
X109501000Y-116657064D02*
X109501000Y-116202936D01*
%TO.C,R2*%
X62311000Y-69466936D02*
X62311000Y-69921064D01*
X63781000Y-69466936D02*
X63781000Y-69921064D01*
%TO.C,R18*%
X48945564Y-121791000D02*
X48491436Y-121791000D01*
X48945564Y-123261000D02*
X48491436Y-123261000D01*
%TO.C,R20*%
X56819564Y-123823000D02*
X56365436Y-123823000D01*
X56819564Y-125293000D02*
X56365436Y-125293000D01*
%TO.C,R33*%
X105945064Y-112647000D02*
X105490936Y-112647000D01*
X105945064Y-114117000D02*
X105490936Y-114117000D01*
%TO.C,R45*%
X94823000Y-116403064D02*
X94823000Y-115948936D01*
X96293000Y-116403064D02*
X96293000Y-115948936D01*
%TO.C,R19*%
X56819564Y-123261000D02*
X56365436Y-123261000D01*
X56819564Y-121791000D02*
X56365436Y-121791000D01*
%TO.C,R54*%
X99849064Y-110361000D02*
X99394936Y-110361000D01*
X99849064Y-111831000D02*
X99394936Y-111831000D01*
%TO.C,R35*%
X105945064Y-118181000D02*
X105490936Y-118181000D01*
X105945064Y-116711000D02*
X105490936Y-116711000D01*
%TO.C,R26*%
X52501564Y-123261000D02*
X52047436Y-123261000D01*
X52501564Y-121791000D02*
X52047436Y-121791000D01*
%TO.C,R53*%
X99849064Y-124277000D02*
X99394936Y-124277000D01*
X99849064Y-122807000D02*
X99394936Y-122807000D01*
%TO.C,R25*%
X52501564Y-125293000D02*
X52047436Y-125293000D01*
X52501564Y-123823000D02*
X52047436Y-123823000D01*
%TO.C,R24*%
X73941064Y-125293000D02*
X73486936Y-125293000D01*
X73941064Y-123823000D02*
X73486936Y-123823000D01*
%TO.C,U6*%
X97062000Y-116176000D02*
X97062000Y-112726000D01*
X102182000Y-116176000D02*
X102182000Y-114226000D01*
X102182000Y-116176000D02*
X102182000Y-118126000D01*
X97062000Y-116176000D02*
X97062000Y-118126000D01*
%TO.C,R3*%
X76027000Y-69466936D02*
X76027000Y-69921064D01*
X77497000Y-69466936D02*
X77497000Y-69921064D01*
%TO.C,R28*%
X60375564Y-123823000D02*
X59921436Y-123823000D01*
X60375564Y-125293000D02*
X59921436Y-125293000D01*
%TD*%
M02*
