%FSLAX45Y45*%
G04 Gerber Fmt 4.5, Leading zero omitted, Abs format (unit mm)*
G04 Created by KiCad (PCBNEW (6.0.0-0)) date 2022-12-13 14:04:48*
%MOMM*%
%LPD*%
G01*
G04 APERTURE LIST*
%TA.AperFunction,Profile*%
%ADD10C,0.100000*%
%TD*%
%ADD11C,0.200000*%
%ADD12C,0.040000*%
%ADD13C,0.076200*%
%ADD14C,0.090000*%
%ADD15C,0.100000*%
%ADD16C,0.110000*%
%ADD17C,0.120000*%
%ADD18C,0.122000*%
%ADD19C,0.142000*%
%ADD20C,0.143000*%
%ADD21C,0.150000*%
G04 APERTURE END LIST*
D10*
X3589200Y-4214400D02*
X13589200Y-4214400D01*
X13589200Y-4214400D02*
X13589200Y-14214400D01*
X13589200Y-14214400D02*
X3589200Y-14214400D01*
X3589200Y-14214400D02*
X3589200Y-4214400D01*
D11*
D12*
X4328800Y-12080200D02*
X4368800Y-12120200D01*
X4368800Y-12080200D02*
X4328800Y-12120200D01*
X4582800Y-11826200D02*
X4622800Y-11866200D01*
X4622800Y-11826200D02*
X4582800Y-11866200D01*
X4913000Y-10810200D02*
X4953000Y-10850200D01*
X4953000Y-10810200D02*
X4913000Y-10850200D01*
X4913000Y-11318200D02*
X4953000Y-11358200D01*
X4953000Y-11318200D02*
X4913000Y-11358200D01*
X5116200Y-12080200D02*
X5156200Y-12120200D01*
X5156200Y-12080200D02*
X5116200Y-12120200D01*
X5192400Y-10556200D02*
X5232400Y-10596200D01*
X5232400Y-10556200D02*
X5192400Y-10596200D01*
X5598800Y-10810200D02*
X5638800Y-10850200D01*
X5638800Y-10810200D02*
X5598800Y-10850200D01*
X6437000Y-10556200D02*
X6477000Y-10596200D01*
X6477000Y-10556200D02*
X6437000Y-10596200D01*
X6564000Y-11470600D02*
X6604000Y-11510600D01*
X6604000Y-11470600D02*
X6564000Y-11510600D01*
X6614800Y-12588200D02*
X6654800Y-12628200D01*
X6654800Y-12588200D02*
X6614800Y-12628200D01*
X6665600Y-11318200D02*
X6705600Y-11358200D01*
X6705600Y-11318200D02*
X6665600Y-11358200D01*
X6665600Y-11470600D02*
X6705600Y-11510600D01*
X6705600Y-11470600D02*
X6665600Y-11510600D01*
X6792600Y-12080200D02*
X6832600Y-12120200D01*
X6832600Y-12080200D02*
X6792600Y-12120200D01*
X6945000Y-10556200D02*
X6985000Y-10596200D01*
X6985000Y-10556200D02*
X6945000Y-10596200D01*
X7122800Y-12232600D02*
X7162800Y-12272600D01*
X7162800Y-12232600D02*
X7122800Y-12272600D01*
X7376800Y-10810200D02*
X7416800Y-10850200D01*
X7416800Y-10810200D02*
X7376800Y-10850200D01*
X8570600Y-9972000D02*
X8610600Y-10012000D01*
X8610600Y-9972000D02*
X8570600Y-10012000D01*
X8646800Y-12105600D02*
X8686800Y-12145600D01*
X8686800Y-12105600D02*
X8646800Y-12145600D01*
X8646800Y-12258000D02*
X8686800Y-12298000D01*
X8686800Y-12258000D02*
X8646800Y-12298000D01*
X8672200Y-12461200D02*
X8712200Y-12501200D01*
X8712200Y-12461200D02*
X8672200Y-12501200D01*
X8900800Y-11699200D02*
X8940800Y-11739200D01*
X8940800Y-11699200D02*
X8900800Y-11739200D01*
X8900800Y-11927800D02*
X8940800Y-11967800D01*
X8940800Y-11927800D02*
X8900800Y-11967800D01*
X8900800Y-12512000D02*
X8940800Y-12552000D01*
X8940800Y-12512000D02*
X8900800Y-12552000D01*
X8977000Y-11292800D02*
X9017000Y-11332800D01*
X9017000Y-11292800D02*
X8977000Y-11332800D01*
X9002280Y-12787650D02*
X9042280Y-12827650D01*
X9042280Y-12787650D02*
X9002280Y-12827650D01*
X9104000Y-12588200D02*
X9144000Y-12628200D01*
X9144000Y-12588200D02*
X9104000Y-12628200D01*
X9332600Y-12080200D02*
X9372600Y-12120200D01*
X9372600Y-12080200D02*
X9332600Y-12120200D01*
X9485000Y-11826200D02*
X9525000Y-11866200D01*
X9525000Y-11826200D02*
X9485000Y-11866200D01*
X9510400Y-12733100D02*
X9550400Y-12773100D01*
X9550400Y-12733100D02*
X9510400Y-12773100D01*
X9662800Y-11953200D02*
X9702800Y-11993200D01*
X9702800Y-11953200D02*
X9662800Y-11993200D01*
X9713600Y-10962600D02*
X9753600Y-11002600D01*
X9753600Y-10962600D02*
X9713600Y-11002600D01*
X9916800Y-11673800D02*
X9956800Y-11713800D01*
X9956800Y-11673800D02*
X9916800Y-11713800D01*
X10145400Y-11546800D02*
X10185400Y-11586800D01*
X10185400Y-11546800D02*
X10145400Y-11586800D01*
X10196200Y-12258000D02*
X10236200Y-12298000D01*
X10236200Y-12258000D02*
X10196200Y-12298000D01*
X10247000Y-11064200D02*
X10287000Y-11104200D01*
X10287000Y-11064200D02*
X10247000Y-11104200D01*
X10297800Y-11648400D02*
X10337800Y-11688400D01*
X10337800Y-11648400D02*
X10297800Y-11688400D01*
X10526400Y-12512000D02*
X10566400Y-12552000D01*
X10566400Y-12512000D02*
X10526400Y-12552000D01*
X10780400Y-12181800D02*
X10820400Y-12221800D01*
X10820400Y-12181800D02*
X10780400Y-12221800D01*
X10805800Y-11851600D02*
X10845800Y-11891600D01*
X10845800Y-11851600D02*
X10805800Y-11891600D01*
X10932800Y-11953200D02*
X10972800Y-11993200D01*
X10972800Y-11953200D02*
X10932800Y-11993200D01*
X11009000Y-10784800D02*
X11049000Y-10824800D01*
X11049000Y-10784800D02*
X11009000Y-10824800D01*
X11263000Y-11673800D02*
X11303000Y-11713800D01*
X11303000Y-11673800D02*
X11263000Y-11713800D01*
X11440800Y-11546800D02*
X11480800Y-11586800D01*
X11480800Y-11546800D02*
X11440800Y-11586800D01*
X11669400Y-12004000D02*
X11709400Y-12044000D01*
X11709400Y-12004000D02*
X11669400Y-12044000D01*
X11745600Y-11318200D02*
X11785600Y-11358200D01*
X11785600Y-11318200D02*
X11745600Y-11358200D01*
X11745600Y-12105600D02*
X11785600Y-12145600D01*
X11785600Y-12105600D02*
X11745600Y-12145600D01*
X11847200Y-11877000D02*
X11887200Y-11917000D01*
X11887200Y-11877000D02*
X11847200Y-11917000D01*
X12075800Y-9667200D02*
X12115800Y-9707200D01*
X12115800Y-9667200D02*
X12075800Y-9707200D01*
X12253600Y-9870400D02*
X12293600Y-9910400D01*
X12293600Y-9870400D02*
X12253600Y-9910400D01*
X12406000Y-10048200D02*
X12446000Y-10088200D01*
X12446000Y-10048200D02*
X12406000Y-10088200D01*
X12406000Y-10657800D02*
X12446000Y-10697800D01*
X12446000Y-10657800D02*
X12406000Y-10697800D01*
X12634600Y-11343600D02*
X12674600Y-11383600D01*
X12674600Y-11343600D02*
X12634600Y-11383600D01*
D13*
X4159300Y-6548950D02*
G75*
G03*
X4159300Y-6548950I-38100J0D01*
G01*
X4159300Y-7056950D02*
G75*
G03*
X4159300Y-7056950I-38100J0D01*
G01*
X4413300Y-6548950D02*
G75*
G03*
X4413300Y-6548950I-38100J0D01*
G01*
X4413300Y-7056950D02*
G75*
G03*
X4413300Y-7056950I-38100J0D01*
G01*
X4667300Y-6548950D02*
G75*
G03*
X4667300Y-6548950I-38100J0D01*
G01*
X4667300Y-7056950D02*
G75*
G03*
X4667300Y-7056950I-38100J0D01*
G01*
X5540000Y-6548950D02*
G75*
G03*
X5540000Y-6548950I-38100J0D01*
G01*
X5540000Y-7056950D02*
G75*
G03*
X5540000Y-7056950I-38100J0D01*
G01*
X5794000Y-6548950D02*
G75*
G03*
X5794000Y-6548950I-38100J0D01*
G01*
X5794000Y-7056950D02*
G75*
G03*
X5794000Y-7056950I-38100J0D01*
G01*
X6048000Y-6548950D02*
G75*
G03*
X6048000Y-6548950I-38100J0D01*
G01*
X6048000Y-7056950D02*
G75*
G03*
X6048000Y-7056950I-38100J0D01*
G01*
X6927900Y-6548950D02*
G75*
G03*
X6927900Y-6548950I-38100J0D01*
G01*
X6927900Y-7056950D02*
G75*
G03*
X6927900Y-7056950I-38100J0D01*
G01*
X7181900Y-6548950D02*
G75*
G03*
X7181900Y-6548950I-38100J0D01*
G01*
X7181900Y-7056950D02*
G75*
G03*
X7181900Y-7056950I-38100J0D01*
G01*
X7435900Y-6548950D02*
G75*
G03*
X7435900Y-6548950I-38100J0D01*
G01*
X7435900Y-7056950D02*
G75*
G03*
X7435900Y-7056950I-38100J0D01*
G01*
X8324900Y-6548950D02*
G75*
G03*
X8324900Y-6548950I-38100J0D01*
G01*
X8324900Y-7056950D02*
G75*
G03*
X8324900Y-7056950I-38100J0D01*
G01*
X8578900Y-6548950D02*
G75*
G03*
X8578900Y-6548950I-38100J0D01*
G01*
X8578900Y-7056950D02*
G75*
G03*
X8578900Y-7056950I-38100J0D01*
G01*
X8832900Y-6548950D02*
G75*
G03*
X8832900Y-6548950I-38100J0D01*
G01*
X8832900Y-7056950D02*
G75*
G03*
X8832900Y-7056950I-38100J0D01*
G01*
D14*
X4374200Y-5882500D02*
X4374200Y-5972500D01*
X4329200Y-5927500D02*
X4419200Y-5927500D01*
X4374200Y-6136500D02*
X4374200Y-6226500D01*
X4329200Y-6181500D02*
X4419200Y-6181500D01*
X5754900Y-5882500D02*
X5754900Y-5972500D01*
X5709900Y-5927500D02*
X5799900Y-5927500D01*
X5754900Y-6136500D02*
X5754900Y-6226500D01*
X5709900Y-6181500D02*
X5799900Y-6181500D01*
X7142800Y-5882500D02*
X7142800Y-5972500D01*
X7097800Y-5927500D02*
X7187800Y-5927500D01*
X7142800Y-6136500D02*
X7142800Y-6226500D01*
X7097800Y-6181500D02*
X7187800Y-6181500D01*
X8539800Y-5882500D02*
X8539800Y-5972500D01*
X8494800Y-5927500D02*
X8584800Y-5927500D01*
X8539800Y-6136500D02*
X8539800Y-6226500D01*
X8494800Y-6181500D02*
X8584800Y-6181500D01*
D15*
X9666406Y-4897756D02*
X9666406Y-4827044D01*
X9595694Y-4827044D01*
X9595694Y-4897756D01*
X9666406Y-4897756D01*
X9666406Y-5150556D02*
X9666406Y-5079844D01*
X9595694Y-5079844D01*
X9595694Y-5150556D01*
X9666406Y-5150556D01*
X9666406Y-5404556D02*
X9666406Y-5333844D01*
X9595694Y-5333844D01*
X9595694Y-5404556D01*
X9666406Y-5404556D01*
X9666406Y-5658556D02*
X9666406Y-5587844D01*
X9595694Y-5587844D01*
X9595694Y-5658556D01*
X9666406Y-5658556D01*
X9666406Y-5912556D02*
X9666406Y-5841844D01*
X9595694Y-5841844D01*
X9595694Y-5912556D01*
X9666406Y-5912556D01*
X9666406Y-6166556D02*
X9666406Y-6095844D01*
X9595694Y-6095844D01*
X9595694Y-6166556D01*
X9666406Y-6166556D01*
X9666406Y-6420556D02*
X9666406Y-6349844D01*
X9595694Y-6349844D01*
X9595694Y-6420556D01*
X9666406Y-6420556D01*
X9666406Y-6674556D02*
X9666406Y-6603844D01*
X9595694Y-6603844D01*
X9595694Y-6674556D01*
X9666406Y-6674556D01*
X9920406Y-4897756D02*
X9920406Y-4827044D01*
X9849694Y-4827044D01*
X9849694Y-4897756D01*
X9920406Y-4897756D01*
X9920406Y-5151756D02*
X9920406Y-5081044D01*
X9849694Y-5081044D01*
X9849694Y-5151756D01*
X9920406Y-5151756D01*
X9920406Y-5405756D02*
X9920406Y-5335044D01*
X9849694Y-5335044D01*
X9849694Y-5405756D01*
X9920406Y-5405756D01*
X9920406Y-5659756D02*
X9920406Y-5589044D01*
X9849694Y-5589044D01*
X9849694Y-5659756D01*
X9920406Y-5659756D01*
X9920406Y-5913756D02*
X9920406Y-5843044D01*
X9849694Y-5843044D01*
X9849694Y-5913756D01*
X9920406Y-5913756D01*
X9920406Y-6167756D02*
X9920406Y-6097044D01*
X9849694Y-6097044D01*
X9849694Y-6167756D01*
X9920406Y-6167756D01*
X9920406Y-6421756D02*
X9920406Y-6351044D01*
X9849694Y-6351044D01*
X9849694Y-6421756D01*
X9920406Y-6421756D01*
X9920406Y-6675756D02*
X9920406Y-6605044D01*
X9849694Y-6605044D01*
X9849694Y-6675756D01*
X9920406Y-6675756D01*
D16*
X3900200Y-7903500D02*
X3955200Y-7848500D01*
X3900200Y-7793500D01*
X3845200Y-7848500D01*
X3900200Y-7903500D01*
D11*
X3945200Y-7903500D02*
X3945200Y-7793500D01*
X3855200Y-7903500D02*
X3855200Y-7793500D01*
X3945200Y-7793500D02*
G75*
G03*
X3855200Y-7793500I-45000J0D01*
G01*
X3855200Y-7903500D02*
G75*
G03*
X3945200Y-7903500I45000J0D01*
G01*
D16*
X4860200Y-7903500D02*
X4915200Y-7848500D01*
X4860200Y-7793500D01*
X4805200Y-7848500D01*
X4860200Y-7903500D01*
D11*
X4815200Y-7793500D02*
X4815200Y-7903500D01*
X4905200Y-7793500D02*
X4905200Y-7903500D01*
X4815200Y-7903500D02*
G75*
G03*
X4905200Y-7903500I45000J0D01*
G01*
X4905200Y-7793500D02*
G75*
G03*
X4815200Y-7793500I-45000J0D01*
G01*
D16*
X5277800Y-7903500D02*
X5332800Y-7848500D01*
X5277800Y-7793500D01*
X5222800Y-7848500D01*
X5277800Y-7903500D01*
D11*
X5322800Y-7903500D02*
X5322800Y-7793500D01*
X5232800Y-7903500D02*
X5232800Y-7793500D01*
X5322800Y-7793500D02*
G75*
G03*
X5232800Y-7793500I-45000J0D01*
G01*
X5232800Y-7903500D02*
G75*
G03*
X5322800Y-7903500I45000J0D01*
G01*
D16*
X6237800Y-7903500D02*
X6292800Y-7848500D01*
X6237800Y-7793500D01*
X6182800Y-7848500D01*
X6237800Y-7903500D01*
D11*
X6192800Y-7793500D02*
X6192800Y-7903500D01*
X6282800Y-7793500D02*
X6282800Y-7903500D01*
X6192800Y-7903500D02*
G75*
G03*
X6282800Y-7903500I45000J0D01*
G01*
X6282800Y-7793500D02*
G75*
G03*
X6192800Y-7793500I-45000J0D01*
G01*
D16*
X6668800Y-7903500D02*
X6723800Y-7848500D01*
X6668800Y-7793500D01*
X6613800Y-7848500D01*
X6668800Y-7903500D01*
D11*
X6713800Y-7903500D02*
X6713800Y-7793500D01*
X6623800Y-7903500D02*
X6623800Y-7793500D01*
X6713800Y-7793500D02*
G75*
G03*
X6623800Y-7793500I-45000J0D01*
G01*
X6623800Y-7903500D02*
G75*
G03*
X6713800Y-7903500I45000J0D01*
G01*
D16*
X7628800Y-7903500D02*
X7683800Y-7848500D01*
X7628800Y-7793500D01*
X7573800Y-7848500D01*
X7628800Y-7903500D01*
D11*
X7583800Y-7793500D02*
X7583800Y-7903500D01*
X7673800Y-7793500D02*
X7673800Y-7903500D01*
X7583800Y-7903500D02*
G75*
G03*
X7673800Y-7903500I45000J0D01*
G01*
X7673800Y-7793500D02*
G75*
G03*
X7583800Y-7793500I-45000J0D01*
G01*
D16*
X8065800Y-7903500D02*
X8120800Y-7848500D01*
X8065800Y-7793500D01*
X8010800Y-7848500D01*
X8065800Y-7903500D01*
D11*
X8110800Y-7903500D02*
X8110800Y-7793500D01*
X8020800Y-7903500D02*
X8020800Y-7793500D01*
X8110800Y-7793500D02*
G75*
G03*
X8020800Y-7793500I-45000J0D01*
G01*
X8020800Y-7903500D02*
G75*
G03*
X8110800Y-7903500I45000J0D01*
G01*
D16*
X9025800Y-7903500D02*
X9080800Y-7848500D01*
X9025800Y-7793500D01*
X8970800Y-7848500D01*
X9025800Y-7903500D01*
D11*
X8980800Y-7793500D02*
X8980800Y-7903500D01*
X9070800Y-7793500D02*
X9070800Y-7903500D01*
X8980800Y-7903500D02*
G75*
G03*
X9070800Y-7903500I45000J0D01*
G01*
X9070800Y-7793500D02*
G75*
G03*
X8980800Y-7793500I-45000J0D01*
G01*
D17*
X4070200Y-8538500D02*
X4190200Y-8658500D01*
X4190200Y-8538500D02*
X4070200Y-8658500D01*
X4190200Y-8598500D02*
G75*
G03*
X4190200Y-8598500I-60000J0D01*
G01*
X4320200Y-8538500D02*
X4440200Y-8658500D01*
X4440200Y-8538500D02*
X4320200Y-8658500D01*
X4440200Y-8598500D02*
G75*
G03*
X4440200Y-8598500I-60000J0D01*
G01*
X4570200Y-8538500D02*
X4690200Y-8658500D01*
X4690200Y-8538500D02*
X4570200Y-8658500D01*
X4690200Y-8598500D02*
G75*
G03*
X4690200Y-8598500I-60000J0D01*
G01*
X5447800Y-8538500D02*
X5567800Y-8658500D01*
X5567800Y-8538500D02*
X5447800Y-8658500D01*
X5567800Y-8598500D02*
G75*
G03*
X5567800Y-8598500I-60000J0D01*
G01*
X5697800Y-8538500D02*
X5817800Y-8658500D01*
X5817800Y-8538500D02*
X5697800Y-8658500D01*
X5817800Y-8598500D02*
G75*
G03*
X5817800Y-8598500I-60000J0D01*
G01*
X5947800Y-8538500D02*
X6067800Y-8658500D01*
X6067800Y-8538500D02*
X5947800Y-8658500D01*
X6067800Y-8598500D02*
G75*
G03*
X6067800Y-8598500I-60000J0D01*
G01*
X6838800Y-8538500D02*
X6958800Y-8658500D01*
X6958800Y-8538500D02*
X6838800Y-8658500D01*
X6958800Y-8598500D02*
G75*
G03*
X6958800Y-8598500I-60000J0D01*
G01*
X7088800Y-8538500D02*
X7208800Y-8658500D01*
X7208800Y-8538500D02*
X7088800Y-8658500D01*
X7208800Y-8598500D02*
G75*
G03*
X7208800Y-8598500I-60000J0D01*
G01*
X7338800Y-8538500D02*
X7458800Y-8658500D01*
X7458800Y-8538500D02*
X7338800Y-8658500D01*
X7458800Y-8598500D02*
G75*
G03*
X7458800Y-8598500I-60000J0D01*
G01*
X8235800Y-8538500D02*
X8355800Y-8658500D01*
X8355800Y-8538500D02*
X8235800Y-8658500D01*
X8355800Y-8598500D02*
G75*
G03*
X8355800Y-8598500I-60000J0D01*
G01*
X8485800Y-8538500D02*
X8605800Y-8658500D01*
X8605800Y-8538500D02*
X8485800Y-8658500D01*
X8605800Y-8598500D02*
G75*
G03*
X8605800Y-8598500I-60000J0D01*
G01*
X8735800Y-8538500D02*
X8855800Y-8658500D01*
X8855800Y-8538500D02*
X8735800Y-8658500D01*
X8855800Y-8598500D02*
G75*
G03*
X8855800Y-8598500I-60000J0D01*
G01*
D18*
X4313200Y-4396000D02*
X4435200Y-4518000D01*
X4435200Y-4396000D02*
X4313200Y-4518000D01*
X4374200Y-4396000D02*
X4374200Y-4518000D01*
X4313200Y-4457000D02*
X4435200Y-4457000D01*
X5690800Y-4396000D02*
X5812800Y-4518000D01*
X5812800Y-4396000D02*
X5690800Y-4518000D01*
X5751800Y-4396000D02*
X5751800Y-4518000D01*
X5690800Y-4457000D02*
X5812800Y-4457000D01*
X7081800Y-4396000D02*
X7203800Y-4518000D01*
X7203800Y-4396000D02*
X7081800Y-4518000D01*
X7142800Y-4396000D02*
X7142800Y-4518000D01*
X7081800Y-4457000D02*
X7203800Y-4457000D01*
X8478800Y-4396000D02*
X8600800Y-4518000D01*
X8600800Y-4396000D02*
X8478800Y-4518000D01*
X8539800Y-4396000D02*
X8539800Y-4518000D01*
X8478800Y-4457000D02*
X8600800Y-4457000D01*
X11857000Y-4396000D02*
X11979000Y-4518000D01*
X11979000Y-4396000D02*
X11857000Y-4518000D01*
X11918000Y-4396000D02*
X11918000Y-4518000D01*
X11857000Y-4457000D02*
X11979000Y-4457000D01*
X11857000Y-5873200D02*
X11979000Y-5995200D01*
X11979000Y-5873200D02*
X11857000Y-5995200D01*
X11918000Y-5873200D02*
X11918000Y-5995200D01*
X11857000Y-5934200D02*
X11979000Y-5934200D01*
X11857000Y-7346200D02*
X11979000Y-7468200D01*
X11979000Y-7346200D02*
X11857000Y-7468200D01*
X11918000Y-7346200D02*
X11918000Y-7468200D01*
X11857000Y-7407200D02*
X11979000Y-7407200D01*
X12898400Y-4396000D02*
X13020400Y-4518000D01*
X13020400Y-4396000D02*
X12898400Y-4518000D01*
X12959400Y-4396000D02*
X12959400Y-4518000D01*
X12898400Y-4457000D02*
X13020400Y-4457000D01*
X12898400Y-5873200D02*
X13020400Y-5995200D01*
X13020400Y-5873200D02*
X12898400Y-5995200D01*
X12959400Y-5873200D02*
X12959400Y-5995200D01*
X12898400Y-5934200D02*
X13020400Y-5934200D01*
X12898400Y-7349400D02*
X13020400Y-7471400D01*
X13020400Y-7349400D02*
X12898400Y-7471400D01*
X12959400Y-7349400D02*
X12959400Y-7471400D01*
X12898400Y-7410400D02*
X13020400Y-7410400D01*
D19*
X4303200Y-4696000D02*
X4445200Y-4838000D01*
X4445200Y-4696000D02*
X4303200Y-4838000D01*
X4424405Y-4817205D02*
X4424405Y-4716795D01*
X4323995Y-4716795D01*
X4323995Y-4817205D01*
X4424405Y-4817205D01*
X5680800Y-4696000D02*
X5822800Y-4838000D01*
X5822800Y-4696000D02*
X5680800Y-4838000D01*
X5802005Y-4817205D02*
X5802005Y-4716795D01*
X5701595Y-4716795D01*
X5701595Y-4817205D01*
X5802005Y-4817205D01*
X7071800Y-4696000D02*
X7213800Y-4838000D01*
X7213800Y-4696000D02*
X7071800Y-4838000D01*
X7193005Y-4817205D02*
X7193005Y-4716795D01*
X7092595Y-4716795D01*
X7092595Y-4817205D01*
X7193005Y-4817205D01*
X8468800Y-4696000D02*
X8610800Y-4838000D01*
X8610800Y-4696000D02*
X8468800Y-4838000D01*
X8590005Y-4817205D02*
X8590005Y-4716795D01*
X8489595Y-4716795D01*
X8489595Y-4817205D01*
X8590005Y-4817205D01*
X11847000Y-4696000D02*
X11989000Y-4838000D01*
X11989000Y-4696000D02*
X11847000Y-4838000D01*
X11968205Y-4817205D02*
X11968205Y-4716795D01*
X11867795Y-4716795D01*
X11867795Y-4817205D01*
X11968205Y-4817205D01*
X11847000Y-6173200D02*
X11989000Y-6315200D01*
X11989000Y-6173200D02*
X11847000Y-6315200D01*
X11968205Y-6294405D02*
X11968205Y-6193995D01*
X11867795Y-6193995D01*
X11867795Y-6294405D01*
X11968205Y-6294405D01*
X11847000Y-7646200D02*
X11989000Y-7788200D01*
X11989000Y-7646200D02*
X11847000Y-7788200D01*
X11968205Y-7767405D02*
X11968205Y-7666995D01*
X11867795Y-7666995D01*
X11867795Y-7767405D01*
X11968205Y-7767405D01*
X12888400Y-4696000D02*
X13030400Y-4838000D01*
X13030400Y-4696000D02*
X12888400Y-4838000D01*
X13009605Y-4817205D02*
X13009605Y-4716795D01*
X12909195Y-4716795D01*
X12909195Y-4817205D01*
X13009605Y-4817205D01*
X12888400Y-6173200D02*
X13030400Y-6315200D01*
X13030400Y-6173200D02*
X12888400Y-6315200D01*
X13009605Y-6294405D02*
X13009605Y-6193995D01*
X12909195Y-6193995D01*
X12909195Y-6294405D01*
X13009605Y-6294405D01*
X12888400Y-7649400D02*
X13030400Y-7791400D01*
X13030400Y-7649400D02*
X12888400Y-7791400D01*
X13009605Y-7770605D02*
X13009605Y-7670195D01*
X12909195Y-7670195D01*
X12909195Y-7770605D01*
X13009605Y-7770605D01*
D20*
X4302700Y-5525500D02*
X4445700Y-5668500D01*
X4445700Y-5525500D02*
X4302700Y-5668500D01*
X4374200Y-5668500D02*
X4445700Y-5597000D01*
X4374200Y-5525500D01*
X4302700Y-5597000D01*
X4374200Y-5668500D01*
X5680300Y-5525500D02*
X5823300Y-5668500D01*
X5823300Y-5525500D02*
X5680300Y-5668500D01*
X5751800Y-5668500D02*
X5823300Y-5597000D01*
X5751800Y-5525500D01*
X5680300Y-5597000D01*
X5751800Y-5668500D01*
X7071300Y-5525500D02*
X7214300Y-5668500D01*
X7214300Y-5525500D02*
X7071300Y-5668500D01*
X7142800Y-5668500D02*
X7214300Y-5597000D01*
X7142800Y-5525500D01*
X7071300Y-5597000D01*
X7142800Y-5668500D01*
X8468300Y-5525500D02*
X8611300Y-5668500D01*
X8611300Y-5525500D02*
X8468300Y-5668500D01*
X8539800Y-5668500D02*
X8611300Y-5597000D01*
X8539800Y-5525500D01*
X8468300Y-5597000D01*
X8539800Y-5668500D01*
X11846500Y-5525500D02*
X11989500Y-5668500D01*
X11989500Y-5525500D02*
X11846500Y-5668500D01*
X11918000Y-5668500D02*
X11989500Y-5597000D01*
X11918000Y-5525500D01*
X11846500Y-5597000D01*
X11918000Y-5668500D01*
X11846500Y-7002700D02*
X11989500Y-7145700D01*
X11989500Y-7002700D02*
X11846500Y-7145700D01*
X11918000Y-7145700D02*
X11989500Y-7074200D01*
X11918000Y-7002700D01*
X11846500Y-7074200D01*
X11918000Y-7145700D01*
X11846500Y-8475700D02*
X11989500Y-8618700D01*
X11989500Y-8475700D02*
X11846500Y-8618700D01*
X11918000Y-8618700D02*
X11989500Y-8547200D01*
X11918000Y-8475700D01*
X11846500Y-8547200D01*
X11918000Y-8618700D01*
X12887900Y-5525500D02*
X13030900Y-5668500D01*
X13030900Y-5525500D02*
X12887900Y-5668500D01*
X12959400Y-5668500D02*
X13030900Y-5597000D01*
X12959400Y-5525500D01*
X12887900Y-5597000D01*
X12959400Y-5668500D01*
X12887900Y-7002700D02*
X13030900Y-7145700D01*
X13030900Y-7002700D02*
X12887900Y-7145700D01*
X12959400Y-7145700D02*
X13030900Y-7074200D01*
X12959400Y-7002700D01*
X12887900Y-7074200D01*
X12959400Y-7145700D01*
X12887900Y-8478900D02*
X13030900Y-8621900D01*
X13030900Y-8478900D02*
X12887900Y-8621900D01*
X12959400Y-8621900D02*
X13030900Y-8550400D01*
X12959400Y-8478900D01*
X12887900Y-8550400D01*
X12959400Y-8621900D01*
D21*
X4181900Y-9363400D02*
X4181900Y-9513400D01*
X4106900Y-9438400D02*
X4256900Y-9438400D01*
X4256900Y-9438400D02*
G75*
G03*
X4256900Y-9438400I-75000J0D01*
G01*
X4181900Y-13596800D02*
X4181900Y-13746800D01*
X4106900Y-13671800D02*
X4256900Y-13671800D01*
X4256900Y-13671800D02*
G75*
G03*
X4256900Y-13671800I-75000J0D01*
G01*
X4581900Y-9363400D02*
X4581900Y-9513400D01*
X4506900Y-9438400D02*
X4656900Y-9438400D01*
X4656900Y-9438400D02*
G75*
G03*
X4656900Y-9438400I-75000J0D01*
G01*
X5559500Y-9363400D02*
X5559500Y-9513400D01*
X5484500Y-9438400D02*
X5634500Y-9438400D01*
X5634500Y-9438400D02*
G75*
G03*
X5634500Y-9438400I-75000J0D01*
G01*
X5559500Y-13596800D02*
X5559500Y-13746800D01*
X5484500Y-13671800D02*
X5634500Y-13671800D01*
X5634500Y-13671800D02*
G75*
G03*
X5634500Y-13671800I-75000J0D01*
G01*
X5959500Y-9363400D02*
X5959500Y-9513400D01*
X5884500Y-9438400D02*
X6034500Y-9438400D01*
X6034500Y-9438400D02*
G75*
G03*
X6034500Y-9438400I-75000J0D01*
G01*
X6950500Y-9363400D02*
X6950500Y-9513400D01*
X6875500Y-9438400D02*
X7025500Y-9438400D01*
X7025500Y-9438400D02*
G75*
G03*
X7025500Y-9438400I-75000J0D01*
G01*
X6950500Y-13596800D02*
X6950500Y-13746800D01*
X6875500Y-13671800D02*
X7025500Y-13671800D01*
X7025500Y-13671800D02*
G75*
G03*
X7025500Y-13671800I-75000J0D01*
G01*
X7350500Y-9363400D02*
X7350500Y-9513400D01*
X7275500Y-9438400D02*
X7425500Y-9438400D01*
X7425500Y-9438400D02*
G75*
G03*
X7425500Y-9438400I-75000J0D01*
G01*
X8347500Y-9363400D02*
X8347500Y-9513400D01*
X8272500Y-9438400D02*
X8422500Y-9438400D01*
X8422500Y-9438400D02*
G75*
G03*
X8422500Y-9438400I-75000J0D01*
G01*
X8347500Y-13596800D02*
X8347500Y-13746800D01*
X8272500Y-13671800D02*
X8422500Y-13671800D01*
X8422500Y-13671800D02*
G75*
G03*
X8422500Y-13671800I-75000J0D01*
G01*
X8747500Y-9363400D02*
X8747500Y-9513400D01*
X8672500Y-9438400D02*
X8822500Y-9438400D01*
X8822500Y-9438400D02*
G75*
G03*
X8822500Y-9438400I-75000J0D01*
G01*
X9768100Y-9366600D02*
X9768100Y-9516600D01*
X9693100Y-9441600D02*
X9843100Y-9441600D01*
X9843100Y-9441600D02*
G75*
G03*
X9843100Y-9441600I-75000J0D01*
G01*
X9768100Y-13600000D02*
X9768100Y-13750000D01*
X9693100Y-13675000D02*
X9843100Y-13675000D01*
X9843100Y-13675000D02*
G75*
G03*
X9843100Y-13675000I-75000J0D01*
G01*
X10168100Y-9366600D02*
X10168100Y-9516600D01*
X10093100Y-9441600D02*
X10243100Y-9441600D01*
X10243100Y-9441600D02*
G75*
G03*
X10243100Y-9441600I-75000J0D01*
G01*
X11190500Y-9366600D02*
X11190500Y-9516600D01*
X11115500Y-9441600D02*
X11265500Y-9441600D01*
X11265500Y-9441600D02*
G75*
G03*
X11265500Y-9441600I-75000J0D01*
G01*
X11190500Y-13600000D02*
X11190500Y-13750000D01*
X11115500Y-13675000D02*
X11265500Y-13675000D01*
X11265500Y-13675000D02*
G75*
G03*
X11265500Y-13675000I-75000J0D01*
G01*
X11590500Y-9366600D02*
X11590500Y-9516600D01*
X11515500Y-9441600D02*
X11665500Y-9441600D01*
X11665500Y-9441600D02*
G75*
G03*
X11665500Y-9441600I-75000J0D01*
G01*
X12558600Y-9366600D02*
X12558600Y-9516600D01*
X12483600Y-9441600D02*
X12633600Y-9441600D01*
X12633600Y-9441600D02*
G75*
G03*
X12633600Y-9441600I-75000J0D01*
G01*
X12558600Y-13600000D02*
X12558600Y-13750000D01*
X12483600Y-13675000D02*
X12633600Y-13675000D01*
X12633600Y-13675000D02*
G75*
G03*
X12633600Y-13675000I-75000J0D01*
G01*
X12958600Y-9366600D02*
X12958600Y-9516600D01*
X12883600Y-9441600D02*
X13033600Y-9441600D01*
X13033600Y-9441600D02*
G75*
G03*
X13033600Y-9441600I-75000J0D01*
G01*
D11*
X3841819Y-14529876D02*
X3841819Y-14329876D01*
X3889438Y-14329876D01*
X3918009Y-14339400D01*
X3937057Y-14358448D01*
X3946581Y-14377495D01*
X3956105Y-14415590D01*
X3956105Y-14444162D01*
X3946581Y-14482257D01*
X3937057Y-14501305D01*
X3918009Y-14520352D01*
X3889438Y-14529876D01*
X3841819Y-14529876D01*
X4041819Y-14529876D02*
X4041819Y-14396543D01*
X4041819Y-14434638D02*
X4051343Y-14415590D01*
X4060867Y-14406067D01*
X4079914Y-14396543D01*
X4098962Y-14396543D01*
X4165628Y-14529876D02*
X4165628Y-14396543D01*
X4165628Y-14329876D02*
X4156105Y-14339400D01*
X4165628Y-14348924D01*
X4175152Y-14339400D01*
X4165628Y-14329876D01*
X4165628Y-14348924D01*
X4289438Y-14529876D02*
X4270390Y-14520352D01*
X4260867Y-14501305D01*
X4260867Y-14329876D01*
X4394200Y-14529876D02*
X4375152Y-14520352D01*
X4365629Y-14501305D01*
X4365629Y-14329876D01*
X4622771Y-14529876D02*
X4622771Y-14329876D01*
X4689438Y-14472733D01*
X4756105Y-14329876D01*
X4756105Y-14529876D01*
X4937057Y-14529876D02*
X4937057Y-14425114D01*
X4927533Y-14406067D01*
X4908486Y-14396543D01*
X4870390Y-14396543D01*
X4851343Y-14406067D01*
X4937057Y-14520352D02*
X4918010Y-14529876D01*
X4870390Y-14529876D01*
X4851343Y-14520352D01*
X4841819Y-14501305D01*
X4841819Y-14482257D01*
X4851343Y-14463209D01*
X4870390Y-14453686D01*
X4918010Y-14453686D01*
X4937057Y-14444162D01*
X5032295Y-14396543D02*
X5032295Y-14596543D01*
X5032295Y-14406067D02*
X5051343Y-14396543D01*
X5089438Y-14396543D01*
X5108486Y-14406067D01*
X5118010Y-14415590D01*
X5127533Y-14434638D01*
X5127533Y-14491781D01*
X5118010Y-14510828D01*
X5108486Y-14520352D01*
X5089438Y-14529876D01*
X5051343Y-14529876D01*
X5032295Y-14520352D01*
X5213248Y-14510828D02*
X5222771Y-14520352D01*
X5213248Y-14529876D01*
X5203724Y-14520352D01*
X5213248Y-14510828D01*
X5213248Y-14529876D01*
X5213248Y-14406067D02*
X5222771Y-14415590D01*
X5213248Y-14425114D01*
X5203724Y-14415590D01*
X5213248Y-14406067D01*
X5213248Y-14425114D01*
D12*
X3544200Y-14839400D02*
X3584200Y-14879400D01*
X3584200Y-14839400D02*
X3544200Y-14879400D01*
D11*
X3879914Y-14749876D02*
X3898962Y-14749876D01*
X3918009Y-14759400D01*
X3927533Y-14768924D01*
X3937057Y-14787971D01*
X3946581Y-14826067D01*
X3946581Y-14873686D01*
X3937057Y-14911781D01*
X3927533Y-14930828D01*
X3918009Y-14940352D01*
X3898962Y-14949876D01*
X3879914Y-14949876D01*
X3860867Y-14940352D01*
X3851343Y-14930828D01*
X3841819Y-14911781D01*
X3832295Y-14873686D01*
X3832295Y-14826067D01*
X3841819Y-14787971D01*
X3851343Y-14768924D01*
X3860867Y-14759400D01*
X3879914Y-14749876D01*
X4032295Y-14930828D02*
X4041819Y-14940352D01*
X4032295Y-14949876D01*
X4022771Y-14940352D01*
X4032295Y-14930828D01*
X4032295Y-14949876D01*
X4213248Y-14816543D02*
X4213248Y-14949876D01*
X4165628Y-14740352D02*
X4118009Y-14883209D01*
X4241819Y-14883209D01*
X4356105Y-14749876D02*
X4375152Y-14749876D01*
X4394200Y-14759400D01*
X4403724Y-14768924D01*
X4413248Y-14787971D01*
X4422771Y-14826067D01*
X4422771Y-14873686D01*
X4413248Y-14911781D01*
X4403724Y-14930828D01*
X4394200Y-14940352D01*
X4375152Y-14949876D01*
X4356105Y-14949876D01*
X4337057Y-14940352D01*
X4327533Y-14930828D01*
X4318010Y-14911781D01*
X4308486Y-14873686D01*
X4308486Y-14826067D01*
X4318010Y-14787971D01*
X4327533Y-14768924D01*
X4337057Y-14759400D01*
X4356105Y-14749876D01*
X4546581Y-14749876D02*
X4565629Y-14749876D01*
X4584676Y-14759400D01*
X4594200Y-14768924D01*
X4603724Y-14787971D01*
X4613248Y-14826067D01*
X4613248Y-14873686D01*
X4603724Y-14911781D01*
X4594200Y-14930828D01*
X4584676Y-14940352D01*
X4565629Y-14949876D01*
X4546581Y-14949876D01*
X4527533Y-14940352D01*
X4518010Y-14930828D01*
X4508486Y-14911781D01*
X4498962Y-14873686D01*
X4498962Y-14826067D01*
X4508486Y-14787971D01*
X4518010Y-14768924D01*
X4527533Y-14759400D01*
X4546581Y-14749876D01*
X4698962Y-14949876D02*
X4698962Y-14816543D01*
X4698962Y-14835590D02*
X4708486Y-14826067D01*
X4727533Y-14816543D01*
X4756105Y-14816543D01*
X4775152Y-14826067D01*
X4784676Y-14845114D01*
X4784676Y-14949876D01*
X4784676Y-14845114D02*
X4794200Y-14826067D01*
X4813248Y-14816543D01*
X4841819Y-14816543D01*
X4860867Y-14826067D01*
X4870390Y-14845114D01*
X4870390Y-14949876D01*
X4965629Y-14949876D02*
X4965629Y-14816543D01*
X4965629Y-14835590D02*
X4975152Y-14826067D01*
X4994200Y-14816543D01*
X5022771Y-14816543D01*
X5041819Y-14826067D01*
X5051343Y-14845114D01*
X5051343Y-14949876D01*
X5051343Y-14845114D02*
X5060867Y-14826067D01*
X5079914Y-14816543D01*
X5108486Y-14816543D01*
X5127533Y-14826067D01*
X5137057Y-14845114D01*
X5137057Y-14949876D01*
X5527533Y-14740352D02*
X5356105Y-14997495D01*
X5784676Y-14749876D02*
X5803724Y-14749876D01*
X5822771Y-14759400D01*
X5832295Y-14768924D01*
X5841819Y-14787971D01*
X5851343Y-14826067D01*
X5851343Y-14873686D01*
X5841819Y-14911781D01*
X5832295Y-14930828D01*
X5822771Y-14940352D01*
X5803724Y-14949876D01*
X5784676Y-14949876D01*
X5765628Y-14940352D01*
X5756105Y-14930828D01*
X5746581Y-14911781D01*
X5737057Y-14873686D01*
X5737057Y-14826067D01*
X5746581Y-14787971D01*
X5756105Y-14768924D01*
X5765628Y-14759400D01*
X5784676Y-14749876D01*
X5937057Y-14930828D02*
X5946581Y-14940352D01*
X5937057Y-14949876D01*
X5927533Y-14940352D01*
X5937057Y-14930828D01*
X5937057Y-14949876D01*
X6070390Y-14749876D02*
X6089438Y-14749876D01*
X6108486Y-14759400D01*
X6118009Y-14768924D01*
X6127533Y-14787971D01*
X6137057Y-14826067D01*
X6137057Y-14873686D01*
X6127533Y-14911781D01*
X6118009Y-14930828D01*
X6108486Y-14940352D01*
X6089438Y-14949876D01*
X6070390Y-14949876D01*
X6051343Y-14940352D01*
X6041819Y-14930828D01*
X6032295Y-14911781D01*
X6022771Y-14873686D01*
X6022771Y-14826067D01*
X6032295Y-14787971D01*
X6041819Y-14768924D01*
X6051343Y-14759400D01*
X6070390Y-14749876D01*
X6327533Y-14949876D02*
X6213248Y-14949876D01*
X6270390Y-14949876D02*
X6270390Y-14749876D01*
X6251343Y-14778448D01*
X6232295Y-14797495D01*
X6213248Y-14807019D01*
X6508486Y-14749876D02*
X6413248Y-14749876D01*
X6403724Y-14845114D01*
X6413248Y-14835590D01*
X6432295Y-14826067D01*
X6479914Y-14826067D01*
X6498962Y-14835590D01*
X6508486Y-14845114D01*
X6518009Y-14864162D01*
X6518009Y-14911781D01*
X6508486Y-14930828D01*
X6498962Y-14940352D01*
X6479914Y-14949876D01*
X6432295Y-14949876D01*
X6413248Y-14940352D01*
X6403724Y-14930828D01*
X6584676Y-14749876D02*
X6718009Y-14749876D01*
X6632295Y-14949876D01*
X6784676Y-14749876D02*
X6784676Y-14787971D01*
X6860867Y-14749876D02*
X6860867Y-14787971D01*
X7156105Y-15026067D02*
X7146581Y-15016543D01*
X7127533Y-14987971D01*
X7118009Y-14968924D01*
X7108486Y-14940352D01*
X7098962Y-14892733D01*
X7098962Y-14854638D01*
X7108486Y-14807019D01*
X7118009Y-14778448D01*
X7127533Y-14759400D01*
X7146581Y-14730828D01*
X7156105Y-14721305D01*
X7327533Y-14749876D02*
X7232295Y-14749876D01*
X7222771Y-14845114D01*
X7232295Y-14835590D01*
X7251343Y-14826067D01*
X7298962Y-14826067D01*
X7318009Y-14835590D01*
X7327533Y-14845114D01*
X7337057Y-14864162D01*
X7337057Y-14911781D01*
X7327533Y-14930828D01*
X7318009Y-14940352D01*
X7298962Y-14949876D01*
X7251343Y-14949876D01*
X7232295Y-14940352D01*
X7222771Y-14930828D01*
X7413248Y-14768924D02*
X7422771Y-14759400D01*
X7441819Y-14749876D01*
X7489438Y-14749876D01*
X7508486Y-14759400D01*
X7518009Y-14768924D01*
X7527533Y-14787971D01*
X7527533Y-14807019D01*
X7518009Y-14835590D01*
X7403724Y-14949876D01*
X7527533Y-14949876D01*
X7765628Y-14949876D02*
X7765628Y-14749876D01*
X7851343Y-14949876D02*
X7851343Y-14845114D01*
X7841819Y-14826067D01*
X7822771Y-14816543D01*
X7794200Y-14816543D01*
X7775152Y-14826067D01*
X7765628Y-14835590D01*
X7975152Y-14949876D02*
X7956105Y-14940352D01*
X7946581Y-14930828D01*
X7937057Y-14911781D01*
X7937057Y-14854638D01*
X7946581Y-14835590D01*
X7956105Y-14826067D01*
X7975152Y-14816543D01*
X8003724Y-14816543D01*
X8022771Y-14826067D01*
X8032295Y-14835590D01*
X8041819Y-14854638D01*
X8041819Y-14911781D01*
X8032295Y-14930828D01*
X8022771Y-14940352D01*
X8003724Y-14949876D01*
X7975152Y-14949876D01*
X8156105Y-14949876D02*
X8137057Y-14940352D01*
X8127533Y-14921305D01*
X8127533Y-14749876D01*
X8308486Y-14940352D02*
X8289438Y-14949876D01*
X8251343Y-14949876D01*
X8232295Y-14940352D01*
X8222771Y-14921305D01*
X8222771Y-14845114D01*
X8232295Y-14826067D01*
X8251343Y-14816543D01*
X8289438Y-14816543D01*
X8308486Y-14826067D01*
X8318009Y-14845114D01*
X8318009Y-14864162D01*
X8222771Y-14883209D01*
X8394200Y-14940352D02*
X8413248Y-14949876D01*
X8451343Y-14949876D01*
X8470390Y-14940352D01*
X8479914Y-14921305D01*
X8479914Y-14911781D01*
X8470390Y-14892733D01*
X8451343Y-14883209D01*
X8422771Y-14883209D01*
X8403724Y-14873686D01*
X8394200Y-14854638D01*
X8394200Y-14845114D01*
X8403724Y-14826067D01*
X8422771Y-14816543D01*
X8451343Y-14816543D01*
X8470390Y-14826067D01*
X8546581Y-15026067D02*
X8556105Y-15016543D01*
X8575152Y-14987971D01*
X8584676Y-14968924D01*
X8594200Y-14940352D01*
X8603724Y-14892733D01*
X8603724Y-14854638D01*
X8594200Y-14807019D01*
X8584676Y-14778448D01*
X8575152Y-14759400D01*
X8556105Y-14730828D01*
X8546581Y-14721305D01*
D13*
X3584200Y-15123400D02*
G75*
G03*
X3584200Y-15123400I-38100J0D01*
G01*
D11*
X3879914Y-15013876D02*
X3898962Y-15013876D01*
X3918009Y-15023400D01*
X3927533Y-15032924D01*
X3937057Y-15051971D01*
X3946581Y-15090067D01*
X3946581Y-15137686D01*
X3937057Y-15175781D01*
X3927533Y-15194828D01*
X3918009Y-15204352D01*
X3898962Y-15213876D01*
X3879914Y-15213876D01*
X3860867Y-15204352D01*
X3851343Y-15194828D01*
X3841819Y-15175781D01*
X3832295Y-15137686D01*
X3832295Y-15090067D01*
X3841819Y-15051971D01*
X3851343Y-15032924D01*
X3860867Y-15023400D01*
X3879914Y-15013876D01*
X4032295Y-15194828D02*
X4041819Y-15204352D01*
X4032295Y-15213876D01*
X4022771Y-15204352D01*
X4032295Y-15194828D01*
X4032295Y-15213876D01*
X4108486Y-15013876D02*
X4241819Y-15013876D01*
X4156105Y-15213876D01*
X4403724Y-15013876D02*
X4365629Y-15013876D01*
X4346581Y-15023400D01*
X4337057Y-15032924D01*
X4318010Y-15061495D01*
X4308486Y-15099590D01*
X4308486Y-15175781D01*
X4318010Y-15194828D01*
X4327533Y-15204352D01*
X4346581Y-15213876D01*
X4384676Y-15213876D01*
X4403724Y-15204352D01*
X4413248Y-15194828D01*
X4422771Y-15175781D01*
X4422771Y-15128162D01*
X4413248Y-15109114D01*
X4403724Y-15099590D01*
X4384676Y-15090067D01*
X4346581Y-15090067D01*
X4327533Y-15099590D01*
X4318010Y-15109114D01*
X4308486Y-15128162D01*
X4498962Y-15032924D02*
X4508486Y-15023400D01*
X4527533Y-15013876D01*
X4575152Y-15013876D01*
X4594200Y-15023400D01*
X4603724Y-15032924D01*
X4613248Y-15051971D01*
X4613248Y-15071019D01*
X4603724Y-15099590D01*
X4489438Y-15213876D01*
X4613248Y-15213876D01*
X4698962Y-15213876D02*
X4698962Y-15080543D01*
X4698962Y-15099590D02*
X4708486Y-15090067D01*
X4727533Y-15080543D01*
X4756105Y-15080543D01*
X4775152Y-15090067D01*
X4784676Y-15109114D01*
X4784676Y-15213876D01*
X4784676Y-15109114D02*
X4794200Y-15090067D01*
X4813248Y-15080543D01*
X4841819Y-15080543D01*
X4860867Y-15090067D01*
X4870390Y-15109114D01*
X4870390Y-15213876D01*
X4965629Y-15213876D02*
X4965629Y-15080543D01*
X4965629Y-15099590D02*
X4975152Y-15090067D01*
X4994200Y-15080543D01*
X5022771Y-15080543D01*
X5041819Y-15090067D01*
X5051343Y-15109114D01*
X5051343Y-15213876D01*
X5051343Y-15109114D02*
X5060867Y-15090067D01*
X5079914Y-15080543D01*
X5108486Y-15080543D01*
X5127533Y-15090067D01*
X5137057Y-15109114D01*
X5137057Y-15213876D01*
X5527533Y-15004352D02*
X5356105Y-15261495D01*
X5784676Y-15013876D02*
X5803724Y-15013876D01*
X5822771Y-15023400D01*
X5832295Y-15032924D01*
X5841819Y-15051971D01*
X5851343Y-15090067D01*
X5851343Y-15137686D01*
X5841819Y-15175781D01*
X5832295Y-15194828D01*
X5822771Y-15204352D01*
X5803724Y-15213876D01*
X5784676Y-15213876D01*
X5765628Y-15204352D01*
X5756105Y-15194828D01*
X5746581Y-15175781D01*
X5737057Y-15137686D01*
X5737057Y-15090067D01*
X5746581Y-15051971D01*
X5756105Y-15032924D01*
X5765628Y-15023400D01*
X5784676Y-15013876D01*
X5937057Y-15194828D02*
X5946581Y-15204352D01*
X5937057Y-15213876D01*
X5927533Y-15204352D01*
X5937057Y-15194828D01*
X5937057Y-15213876D01*
X6070390Y-15013876D02*
X6089438Y-15013876D01*
X6108486Y-15023400D01*
X6118009Y-15032924D01*
X6127533Y-15051971D01*
X6137057Y-15090067D01*
X6137057Y-15137686D01*
X6127533Y-15175781D01*
X6118009Y-15194828D01*
X6108486Y-15204352D01*
X6089438Y-15213876D01*
X6070390Y-15213876D01*
X6051343Y-15204352D01*
X6041819Y-15194828D01*
X6032295Y-15175781D01*
X6022771Y-15137686D01*
X6022771Y-15090067D01*
X6032295Y-15051971D01*
X6041819Y-15032924D01*
X6051343Y-15023400D01*
X6070390Y-15013876D01*
X6203724Y-15013876D02*
X6327533Y-15013876D01*
X6260867Y-15090067D01*
X6289438Y-15090067D01*
X6308486Y-15099590D01*
X6318009Y-15109114D01*
X6327533Y-15128162D01*
X6327533Y-15175781D01*
X6318009Y-15194828D01*
X6308486Y-15204352D01*
X6289438Y-15213876D01*
X6232295Y-15213876D01*
X6213248Y-15204352D01*
X6203724Y-15194828D01*
X6451343Y-15013876D02*
X6470390Y-15013876D01*
X6489438Y-15023400D01*
X6498962Y-15032924D01*
X6508486Y-15051971D01*
X6518009Y-15090067D01*
X6518009Y-15137686D01*
X6508486Y-15175781D01*
X6498962Y-15194828D01*
X6489438Y-15204352D01*
X6470390Y-15213876D01*
X6451343Y-15213876D01*
X6432295Y-15204352D01*
X6422771Y-15194828D01*
X6413248Y-15175781D01*
X6403724Y-15137686D01*
X6403724Y-15090067D01*
X6413248Y-15051971D01*
X6422771Y-15032924D01*
X6432295Y-15023400D01*
X6451343Y-15013876D01*
X6641819Y-15013876D02*
X6660867Y-15013876D01*
X6679914Y-15023400D01*
X6689438Y-15032924D01*
X6698962Y-15051971D01*
X6708486Y-15090067D01*
X6708486Y-15137686D01*
X6698962Y-15175781D01*
X6689438Y-15194828D01*
X6679914Y-15204352D01*
X6660867Y-15213876D01*
X6641819Y-15213876D01*
X6622771Y-15204352D01*
X6613248Y-15194828D01*
X6603724Y-15175781D01*
X6594200Y-15137686D01*
X6594200Y-15090067D01*
X6603724Y-15051971D01*
X6613248Y-15032924D01*
X6622771Y-15023400D01*
X6641819Y-15013876D01*
X6784676Y-15013876D02*
X6784676Y-15051971D01*
X6860867Y-15013876D02*
X6860867Y-15051971D01*
X7156105Y-15290067D02*
X7146581Y-15280543D01*
X7127533Y-15251971D01*
X7118009Y-15232924D01*
X7108486Y-15204352D01*
X7098962Y-15156733D01*
X7098962Y-15118638D01*
X7108486Y-15071019D01*
X7118009Y-15042448D01*
X7127533Y-15023400D01*
X7146581Y-14994828D01*
X7156105Y-14985305D01*
X7222771Y-15032924D02*
X7232295Y-15023400D01*
X7251343Y-15013876D01*
X7298962Y-15013876D01*
X7318009Y-15023400D01*
X7327533Y-15032924D01*
X7337057Y-15051971D01*
X7337057Y-15071019D01*
X7327533Y-15099590D01*
X7213248Y-15213876D01*
X7337057Y-15213876D01*
X7508486Y-15080543D02*
X7508486Y-15213876D01*
X7460867Y-15004352D02*
X7413248Y-15147209D01*
X7537057Y-15147209D01*
X7765628Y-15213876D02*
X7765628Y-15013876D01*
X7851343Y-15213876D02*
X7851343Y-15109114D01*
X7841819Y-15090067D01*
X7822771Y-15080543D01*
X7794200Y-15080543D01*
X7775152Y-15090067D01*
X7765628Y-15099590D01*
X7975152Y-15213876D02*
X7956105Y-15204352D01*
X7946581Y-15194828D01*
X7937057Y-15175781D01*
X7937057Y-15118638D01*
X7946581Y-15099590D01*
X7956105Y-15090067D01*
X7975152Y-15080543D01*
X8003724Y-15080543D01*
X8022771Y-15090067D01*
X8032295Y-15099590D01*
X8041819Y-15118638D01*
X8041819Y-15175781D01*
X8032295Y-15194828D01*
X8022771Y-15204352D01*
X8003724Y-15213876D01*
X7975152Y-15213876D01*
X8156105Y-15213876D02*
X8137057Y-15204352D01*
X8127533Y-15185305D01*
X8127533Y-15013876D01*
X8308486Y-15204352D02*
X8289438Y-15213876D01*
X8251343Y-15213876D01*
X8232295Y-15204352D01*
X8222771Y-15185305D01*
X8222771Y-15109114D01*
X8232295Y-15090067D01*
X8251343Y-15080543D01*
X8289438Y-15080543D01*
X8308486Y-15090067D01*
X8318009Y-15109114D01*
X8318009Y-15128162D01*
X8222771Y-15147209D01*
X8394200Y-15204352D02*
X8413248Y-15213876D01*
X8451343Y-15213876D01*
X8470390Y-15204352D01*
X8479914Y-15185305D01*
X8479914Y-15175781D01*
X8470390Y-15156733D01*
X8451343Y-15147209D01*
X8422771Y-15147209D01*
X8403724Y-15137686D01*
X8394200Y-15118638D01*
X8394200Y-15109114D01*
X8403724Y-15090067D01*
X8422771Y-15080543D01*
X8451343Y-15080543D01*
X8470390Y-15090067D01*
X8546581Y-15290067D02*
X8556105Y-15280543D01*
X8575152Y-15251971D01*
X8584676Y-15232924D01*
X8594200Y-15204352D01*
X8603724Y-15156733D01*
X8603724Y-15118638D01*
X8594200Y-15071019D01*
X8584676Y-15042448D01*
X8575152Y-15023400D01*
X8556105Y-14994828D01*
X8546581Y-14985305D01*
D14*
X3539200Y-15342400D02*
X3539200Y-15432400D01*
X3494200Y-15387400D02*
X3584200Y-15387400D01*
D11*
X3879914Y-15277876D02*
X3898962Y-15277876D01*
X3918009Y-15287400D01*
X3927533Y-15296924D01*
X3937057Y-15315971D01*
X3946581Y-15354067D01*
X3946581Y-15401686D01*
X3937057Y-15439781D01*
X3927533Y-15458828D01*
X3918009Y-15468352D01*
X3898962Y-15477876D01*
X3879914Y-15477876D01*
X3860867Y-15468352D01*
X3851343Y-15458828D01*
X3841819Y-15439781D01*
X3832295Y-15401686D01*
X3832295Y-15354067D01*
X3841819Y-15315971D01*
X3851343Y-15296924D01*
X3860867Y-15287400D01*
X3879914Y-15277876D01*
X4032295Y-15458828D02*
X4041819Y-15468352D01*
X4032295Y-15477876D01*
X4022771Y-15468352D01*
X4032295Y-15458828D01*
X4032295Y-15477876D01*
X4137057Y-15477876D02*
X4175152Y-15477876D01*
X4194200Y-15468352D01*
X4203724Y-15458828D01*
X4222771Y-15430257D01*
X4232295Y-15392162D01*
X4232295Y-15315971D01*
X4222771Y-15296924D01*
X4213248Y-15287400D01*
X4194200Y-15277876D01*
X4156105Y-15277876D01*
X4137057Y-15287400D01*
X4127533Y-15296924D01*
X4118009Y-15315971D01*
X4118009Y-15363590D01*
X4127533Y-15382638D01*
X4137057Y-15392162D01*
X4156105Y-15401686D01*
X4194200Y-15401686D01*
X4213248Y-15392162D01*
X4222771Y-15382638D01*
X4232295Y-15363590D01*
X4356105Y-15277876D02*
X4375152Y-15277876D01*
X4394200Y-15287400D01*
X4403724Y-15296924D01*
X4413248Y-15315971D01*
X4422771Y-15354067D01*
X4422771Y-15401686D01*
X4413248Y-15439781D01*
X4403724Y-15458828D01*
X4394200Y-15468352D01*
X4375152Y-15477876D01*
X4356105Y-15477876D01*
X4337057Y-15468352D01*
X4327533Y-15458828D01*
X4318010Y-15439781D01*
X4308486Y-15401686D01*
X4308486Y-15354067D01*
X4318010Y-15315971D01*
X4327533Y-15296924D01*
X4337057Y-15287400D01*
X4356105Y-15277876D01*
X4546581Y-15277876D02*
X4565629Y-15277876D01*
X4584676Y-15287400D01*
X4594200Y-15296924D01*
X4603724Y-15315971D01*
X4613248Y-15354067D01*
X4613248Y-15401686D01*
X4603724Y-15439781D01*
X4594200Y-15458828D01*
X4584676Y-15468352D01*
X4565629Y-15477876D01*
X4546581Y-15477876D01*
X4527533Y-15468352D01*
X4518010Y-15458828D01*
X4508486Y-15439781D01*
X4498962Y-15401686D01*
X4498962Y-15354067D01*
X4508486Y-15315971D01*
X4518010Y-15296924D01*
X4527533Y-15287400D01*
X4546581Y-15277876D01*
X4698962Y-15477876D02*
X4698962Y-15344543D01*
X4698962Y-15363590D02*
X4708486Y-15354067D01*
X4727533Y-15344543D01*
X4756105Y-15344543D01*
X4775152Y-15354067D01*
X4784676Y-15373114D01*
X4784676Y-15477876D01*
X4784676Y-15373114D02*
X4794200Y-15354067D01*
X4813248Y-15344543D01*
X4841819Y-15344543D01*
X4860867Y-15354067D01*
X4870390Y-15373114D01*
X4870390Y-15477876D01*
X4965629Y-15477876D02*
X4965629Y-15344543D01*
X4965629Y-15363590D02*
X4975152Y-15354067D01*
X4994200Y-15344543D01*
X5022771Y-15344543D01*
X5041819Y-15354067D01*
X5051343Y-15373114D01*
X5051343Y-15477876D01*
X5051343Y-15373114D02*
X5060867Y-15354067D01*
X5079914Y-15344543D01*
X5108486Y-15344543D01*
X5127533Y-15354067D01*
X5137057Y-15373114D01*
X5137057Y-15477876D01*
X5527533Y-15268352D02*
X5356105Y-15525495D01*
X5784676Y-15277876D02*
X5803724Y-15277876D01*
X5822771Y-15287400D01*
X5832295Y-15296924D01*
X5841819Y-15315971D01*
X5851343Y-15354067D01*
X5851343Y-15401686D01*
X5841819Y-15439781D01*
X5832295Y-15458828D01*
X5822771Y-15468352D01*
X5803724Y-15477876D01*
X5784676Y-15477876D01*
X5765628Y-15468352D01*
X5756105Y-15458828D01*
X5746581Y-15439781D01*
X5737057Y-15401686D01*
X5737057Y-15354067D01*
X5746581Y-15315971D01*
X5756105Y-15296924D01*
X5765628Y-15287400D01*
X5784676Y-15277876D01*
X5937057Y-15458828D02*
X5946581Y-15468352D01*
X5937057Y-15477876D01*
X5927533Y-15468352D01*
X5937057Y-15458828D01*
X5937057Y-15477876D01*
X6070390Y-15277876D02*
X6089438Y-15277876D01*
X6108486Y-15287400D01*
X6118009Y-15296924D01*
X6127533Y-15315971D01*
X6137057Y-15354067D01*
X6137057Y-15401686D01*
X6127533Y-15439781D01*
X6118009Y-15458828D01*
X6108486Y-15468352D01*
X6089438Y-15477876D01*
X6070390Y-15477876D01*
X6051343Y-15468352D01*
X6041819Y-15458828D01*
X6032295Y-15439781D01*
X6022771Y-15401686D01*
X6022771Y-15354067D01*
X6032295Y-15315971D01*
X6041819Y-15296924D01*
X6051343Y-15287400D01*
X6070390Y-15277876D01*
X6203724Y-15277876D02*
X6327533Y-15277876D01*
X6260867Y-15354067D01*
X6289438Y-15354067D01*
X6308486Y-15363590D01*
X6318009Y-15373114D01*
X6327533Y-15392162D01*
X6327533Y-15439781D01*
X6318009Y-15458828D01*
X6308486Y-15468352D01*
X6289438Y-15477876D01*
X6232295Y-15477876D01*
X6213248Y-15468352D01*
X6203724Y-15458828D01*
X6508486Y-15277876D02*
X6413248Y-15277876D01*
X6403724Y-15373114D01*
X6413248Y-15363590D01*
X6432295Y-15354067D01*
X6479914Y-15354067D01*
X6498962Y-15363590D01*
X6508486Y-15373114D01*
X6518009Y-15392162D01*
X6518009Y-15439781D01*
X6508486Y-15458828D01*
X6498962Y-15468352D01*
X6479914Y-15477876D01*
X6432295Y-15477876D01*
X6413248Y-15468352D01*
X6403724Y-15458828D01*
X6689438Y-15344543D02*
X6689438Y-15477876D01*
X6641819Y-15268352D02*
X6594200Y-15411209D01*
X6718009Y-15411209D01*
X6784676Y-15277876D02*
X6784676Y-15315971D01*
X6860867Y-15277876D02*
X6860867Y-15315971D01*
X7156105Y-15554067D02*
X7146581Y-15544543D01*
X7127533Y-15515971D01*
X7118009Y-15496924D01*
X7108486Y-15468352D01*
X7098962Y-15420733D01*
X7098962Y-15382638D01*
X7108486Y-15335019D01*
X7118009Y-15306448D01*
X7127533Y-15287400D01*
X7146581Y-15258828D01*
X7156105Y-15249305D01*
X7260867Y-15363590D02*
X7241819Y-15354067D01*
X7232295Y-15344543D01*
X7222771Y-15325495D01*
X7222771Y-15315971D01*
X7232295Y-15296924D01*
X7241819Y-15287400D01*
X7260867Y-15277876D01*
X7298962Y-15277876D01*
X7318009Y-15287400D01*
X7327533Y-15296924D01*
X7337057Y-15315971D01*
X7337057Y-15325495D01*
X7327533Y-15344543D01*
X7318009Y-15354067D01*
X7298962Y-15363590D01*
X7260867Y-15363590D01*
X7241819Y-15373114D01*
X7232295Y-15382638D01*
X7222771Y-15401686D01*
X7222771Y-15439781D01*
X7232295Y-15458828D01*
X7241819Y-15468352D01*
X7260867Y-15477876D01*
X7298962Y-15477876D01*
X7318009Y-15468352D01*
X7327533Y-15458828D01*
X7337057Y-15439781D01*
X7337057Y-15401686D01*
X7327533Y-15382638D01*
X7318009Y-15373114D01*
X7298962Y-15363590D01*
X7575152Y-15477876D02*
X7575152Y-15277876D01*
X7660867Y-15477876D02*
X7660867Y-15373114D01*
X7651343Y-15354067D01*
X7632295Y-15344543D01*
X7603724Y-15344543D01*
X7584676Y-15354067D01*
X7575152Y-15363590D01*
X7784676Y-15477876D02*
X7765628Y-15468352D01*
X7756105Y-15458828D01*
X7746581Y-15439781D01*
X7746581Y-15382638D01*
X7756105Y-15363590D01*
X7765628Y-15354067D01*
X7784676Y-15344543D01*
X7813248Y-15344543D01*
X7832295Y-15354067D01*
X7841819Y-15363590D01*
X7851343Y-15382638D01*
X7851343Y-15439781D01*
X7841819Y-15458828D01*
X7832295Y-15468352D01*
X7813248Y-15477876D01*
X7784676Y-15477876D01*
X7965628Y-15477876D02*
X7946581Y-15468352D01*
X7937057Y-15449305D01*
X7937057Y-15277876D01*
X8118009Y-15468352D02*
X8098962Y-15477876D01*
X8060867Y-15477876D01*
X8041819Y-15468352D01*
X8032295Y-15449305D01*
X8032295Y-15373114D01*
X8041819Y-15354067D01*
X8060867Y-15344543D01*
X8098962Y-15344543D01*
X8118009Y-15354067D01*
X8127533Y-15373114D01*
X8127533Y-15392162D01*
X8032295Y-15411209D01*
X8203724Y-15468352D02*
X8222771Y-15477876D01*
X8260867Y-15477876D01*
X8279914Y-15468352D01*
X8289438Y-15449305D01*
X8289438Y-15439781D01*
X8279914Y-15420733D01*
X8260867Y-15411209D01*
X8232295Y-15411209D01*
X8213248Y-15401686D01*
X8203724Y-15382638D01*
X8203724Y-15373114D01*
X8213248Y-15354067D01*
X8232295Y-15344543D01*
X8260867Y-15344543D01*
X8279914Y-15354067D01*
X8356105Y-15554067D02*
X8365628Y-15544543D01*
X8384676Y-15515971D01*
X8394200Y-15496924D01*
X8403724Y-15468352D01*
X8413248Y-15420733D01*
X8413248Y-15382638D01*
X8403724Y-15335019D01*
X8394200Y-15306448D01*
X8384676Y-15287400D01*
X8365628Y-15258828D01*
X8356105Y-15249305D01*
D15*
X3569556Y-15686756D02*
X3569556Y-15616044D01*
X3498844Y-15616044D01*
X3498844Y-15686756D01*
X3569556Y-15686756D01*
D11*
X3946581Y-15741876D02*
X3832295Y-15741876D01*
X3889438Y-15741876D02*
X3889438Y-15541876D01*
X3870390Y-15570448D01*
X3851343Y-15589495D01*
X3832295Y-15599019D01*
X4032295Y-15722828D02*
X4041819Y-15732352D01*
X4032295Y-15741876D01*
X4022771Y-15732352D01*
X4032295Y-15722828D01*
X4032295Y-15741876D01*
X4165628Y-15541876D02*
X4184676Y-15541876D01*
X4203724Y-15551400D01*
X4213248Y-15560924D01*
X4222771Y-15579971D01*
X4232295Y-15618067D01*
X4232295Y-15665686D01*
X4222771Y-15703781D01*
X4213248Y-15722828D01*
X4203724Y-15732352D01*
X4184676Y-15741876D01*
X4165628Y-15741876D01*
X4146581Y-15732352D01*
X4137057Y-15722828D01*
X4127533Y-15703781D01*
X4118009Y-15665686D01*
X4118009Y-15618067D01*
X4127533Y-15579971D01*
X4137057Y-15560924D01*
X4146581Y-15551400D01*
X4165628Y-15541876D01*
X4356105Y-15541876D02*
X4375152Y-15541876D01*
X4394200Y-15551400D01*
X4403724Y-15560924D01*
X4413248Y-15579971D01*
X4422771Y-15618067D01*
X4422771Y-15665686D01*
X4413248Y-15703781D01*
X4403724Y-15722828D01*
X4394200Y-15732352D01*
X4375152Y-15741876D01*
X4356105Y-15741876D01*
X4337057Y-15732352D01*
X4327533Y-15722828D01*
X4318010Y-15703781D01*
X4308486Y-15665686D01*
X4308486Y-15618067D01*
X4318010Y-15579971D01*
X4327533Y-15560924D01*
X4337057Y-15551400D01*
X4356105Y-15541876D01*
X4546581Y-15541876D02*
X4565629Y-15541876D01*
X4584676Y-15551400D01*
X4594200Y-15560924D01*
X4603724Y-15579971D01*
X4613248Y-15618067D01*
X4613248Y-15665686D01*
X4603724Y-15703781D01*
X4594200Y-15722828D01*
X4584676Y-15732352D01*
X4565629Y-15741876D01*
X4546581Y-15741876D01*
X4527533Y-15732352D01*
X4518010Y-15722828D01*
X4508486Y-15703781D01*
X4498962Y-15665686D01*
X4498962Y-15618067D01*
X4508486Y-15579971D01*
X4518010Y-15560924D01*
X4527533Y-15551400D01*
X4546581Y-15541876D01*
X4698962Y-15741876D02*
X4698962Y-15608543D01*
X4698962Y-15627590D02*
X4708486Y-15618067D01*
X4727533Y-15608543D01*
X4756105Y-15608543D01*
X4775152Y-15618067D01*
X4784676Y-15637114D01*
X4784676Y-15741876D01*
X4784676Y-15637114D02*
X4794200Y-15618067D01*
X4813248Y-15608543D01*
X4841819Y-15608543D01*
X4860867Y-15618067D01*
X4870390Y-15637114D01*
X4870390Y-15741876D01*
X4965629Y-15741876D02*
X4965629Y-15608543D01*
X4965629Y-15627590D02*
X4975152Y-15618067D01*
X4994200Y-15608543D01*
X5022771Y-15608543D01*
X5041819Y-15618067D01*
X5051343Y-15637114D01*
X5051343Y-15741876D01*
X5051343Y-15637114D02*
X5060867Y-15618067D01*
X5079914Y-15608543D01*
X5108486Y-15608543D01*
X5127533Y-15618067D01*
X5137057Y-15637114D01*
X5137057Y-15741876D01*
X5527533Y-15532352D02*
X5356105Y-15789495D01*
X5784676Y-15541876D02*
X5803724Y-15541876D01*
X5822771Y-15551400D01*
X5832295Y-15560924D01*
X5841819Y-15579971D01*
X5851343Y-15618067D01*
X5851343Y-15665686D01*
X5841819Y-15703781D01*
X5832295Y-15722828D01*
X5822771Y-15732352D01*
X5803724Y-15741876D01*
X5784676Y-15741876D01*
X5765628Y-15732352D01*
X5756105Y-15722828D01*
X5746581Y-15703781D01*
X5737057Y-15665686D01*
X5737057Y-15618067D01*
X5746581Y-15579971D01*
X5756105Y-15560924D01*
X5765628Y-15551400D01*
X5784676Y-15541876D01*
X5937057Y-15722828D02*
X5946581Y-15732352D01*
X5937057Y-15741876D01*
X5927533Y-15732352D01*
X5937057Y-15722828D01*
X5937057Y-15741876D01*
X6070390Y-15541876D02*
X6089438Y-15541876D01*
X6108486Y-15551400D01*
X6118009Y-15560924D01*
X6127533Y-15579971D01*
X6137057Y-15618067D01*
X6137057Y-15665686D01*
X6127533Y-15703781D01*
X6118009Y-15722828D01*
X6108486Y-15732352D01*
X6089438Y-15741876D01*
X6070390Y-15741876D01*
X6051343Y-15732352D01*
X6041819Y-15722828D01*
X6032295Y-15703781D01*
X6022771Y-15665686D01*
X6022771Y-15618067D01*
X6032295Y-15579971D01*
X6041819Y-15560924D01*
X6051343Y-15551400D01*
X6070390Y-15541876D01*
X6203724Y-15541876D02*
X6327533Y-15541876D01*
X6260867Y-15618067D01*
X6289438Y-15618067D01*
X6308486Y-15627590D01*
X6318009Y-15637114D01*
X6327533Y-15656162D01*
X6327533Y-15703781D01*
X6318009Y-15722828D01*
X6308486Y-15732352D01*
X6289438Y-15741876D01*
X6232295Y-15741876D01*
X6213248Y-15732352D01*
X6203724Y-15722828D01*
X6422771Y-15741876D02*
X6460867Y-15741876D01*
X6479914Y-15732352D01*
X6489438Y-15722828D01*
X6508486Y-15694257D01*
X6518009Y-15656162D01*
X6518009Y-15579971D01*
X6508486Y-15560924D01*
X6498962Y-15551400D01*
X6479914Y-15541876D01*
X6441819Y-15541876D01*
X6422771Y-15551400D01*
X6413248Y-15560924D01*
X6403724Y-15579971D01*
X6403724Y-15627590D01*
X6413248Y-15646638D01*
X6422771Y-15656162D01*
X6441819Y-15665686D01*
X6479914Y-15665686D01*
X6498962Y-15656162D01*
X6508486Y-15646638D01*
X6518009Y-15627590D01*
X6689438Y-15608543D02*
X6689438Y-15741876D01*
X6641819Y-15532352D02*
X6594200Y-15675209D01*
X6718009Y-15675209D01*
X6784676Y-15541876D02*
X6784676Y-15579971D01*
X6860867Y-15541876D02*
X6860867Y-15579971D01*
X7156105Y-15818067D02*
X7146581Y-15808543D01*
X7127533Y-15779971D01*
X7118009Y-15760924D01*
X7108486Y-15732352D01*
X7098962Y-15684733D01*
X7098962Y-15646638D01*
X7108486Y-15599019D01*
X7118009Y-15570448D01*
X7127533Y-15551400D01*
X7146581Y-15522828D01*
X7156105Y-15513305D01*
X7337057Y-15741876D02*
X7222771Y-15741876D01*
X7279914Y-15741876D02*
X7279914Y-15541876D01*
X7260867Y-15570448D01*
X7241819Y-15589495D01*
X7222771Y-15599019D01*
X7508486Y-15541876D02*
X7470390Y-15541876D01*
X7451343Y-15551400D01*
X7441819Y-15560924D01*
X7422771Y-15589495D01*
X7413248Y-15627590D01*
X7413248Y-15703781D01*
X7422771Y-15722828D01*
X7432295Y-15732352D01*
X7451343Y-15741876D01*
X7489438Y-15741876D01*
X7508486Y-15732352D01*
X7518009Y-15722828D01*
X7527533Y-15703781D01*
X7527533Y-15656162D01*
X7518009Y-15637114D01*
X7508486Y-15627590D01*
X7489438Y-15618067D01*
X7451343Y-15618067D01*
X7432295Y-15627590D01*
X7422771Y-15637114D01*
X7413248Y-15656162D01*
X7765628Y-15741876D02*
X7765628Y-15541876D01*
X7851343Y-15741876D02*
X7851343Y-15637114D01*
X7841819Y-15618067D01*
X7822771Y-15608543D01*
X7794200Y-15608543D01*
X7775152Y-15618067D01*
X7765628Y-15627590D01*
X7975152Y-15741876D02*
X7956105Y-15732352D01*
X7946581Y-15722828D01*
X7937057Y-15703781D01*
X7937057Y-15646638D01*
X7946581Y-15627590D01*
X7956105Y-15618067D01*
X7975152Y-15608543D01*
X8003724Y-15608543D01*
X8022771Y-15618067D01*
X8032295Y-15627590D01*
X8041819Y-15646638D01*
X8041819Y-15703781D01*
X8032295Y-15722828D01*
X8022771Y-15732352D01*
X8003724Y-15741876D01*
X7975152Y-15741876D01*
X8156105Y-15741876D02*
X8137057Y-15732352D01*
X8127533Y-15713305D01*
X8127533Y-15541876D01*
X8308486Y-15732352D02*
X8289438Y-15741876D01*
X8251343Y-15741876D01*
X8232295Y-15732352D01*
X8222771Y-15713305D01*
X8222771Y-15637114D01*
X8232295Y-15618067D01*
X8251343Y-15608543D01*
X8289438Y-15608543D01*
X8308486Y-15618067D01*
X8318009Y-15637114D01*
X8318009Y-15656162D01*
X8222771Y-15675209D01*
X8394200Y-15732352D02*
X8413248Y-15741876D01*
X8451343Y-15741876D01*
X8470390Y-15732352D01*
X8479914Y-15713305D01*
X8479914Y-15703781D01*
X8470390Y-15684733D01*
X8451343Y-15675209D01*
X8422771Y-15675209D01*
X8403724Y-15665686D01*
X8394200Y-15646638D01*
X8394200Y-15637114D01*
X8403724Y-15618067D01*
X8422771Y-15608543D01*
X8451343Y-15608543D01*
X8470390Y-15618067D01*
X8546581Y-15818067D02*
X8556105Y-15808543D01*
X8575152Y-15779971D01*
X8584676Y-15760924D01*
X8594200Y-15732352D01*
X8603724Y-15684733D01*
X8603724Y-15646638D01*
X8594200Y-15599019D01*
X8584676Y-15570448D01*
X8575152Y-15551400D01*
X8556105Y-15522828D01*
X8546581Y-15513305D01*
D16*
X3529200Y-15970400D02*
X3584200Y-15915400D01*
X3529200Y-15860400D01*
X3474200Y-15915400D01*
X3529200Y-15970400D01*
D11*
X3946581Y-16005876D02*
X3832295Y-16005876D01*
X3889438Y-16005876D02*
X3889438Y-15805876D01*
X3870390Y-15834448D01*
X3851343Y-15853495D01*
X3832295Y-15863019D01*
X4032295Y-15986828D02*
X4041819Y-15996352D01*
X4032295Y-16005876D01*
X4022771Y-15996352D01*
X4032295Y-15986828D01*
X4032295Y-16005876D01*
X4232295Y-16005876D02*
X4118009Y-16005876D01*
X4175152Y-16005876D02*
X4175152Y-15805876D01*
X4156105Y-15834448D01*
X4137057Y-15853495D01*
X4118009Y-15863019D01*
X4356105Y-15805876D02*
X4375152Y-15805876D01*
X4394200Y-15815400D01*
X4403724Y-15824924D01*
X4413248Y-15843971D01*
X4422771Y-15882067D01*
X4422771Y-15929686D01*
X4413248Y-15967781D01*
X4403724Y-15986828D01*
X4394200Y-15996352D01*
X4375152Y-16005876D01*
X4356105Y-16005876D01*
X4337057Y-15996352D01*
X4327533Y-15986828D01*
X4318010Y-15967781D01*
X4308486Y-15929686D01*
X4308486Y-15882067D01*
X4318010Y-15843971D01*
X4327533Y-15824924D01*
X4337057Y-15815400D01*
X4356105Y-15805876D01*
X4546581Y-15805876D02*
X4565629Y-15805876D01*
X4584676Y-15815400D01*
X4594200Y-15824924D01*
X4603724Y-15843971D01*
X4613248Y-15882067D01*
X4613248Y-15929686D01*
X4603724Y-15967781D01*
X4594200Y-15986828D01*
X4584676Y-15996352D01*
X4565629Y-16005876D01*
X4546581Y-16005876D01*
X4527533Y-15996352D01*
X4518010Y-15986828D01*
X4508486Y-15967781D01*
X4498962Y-15929686D01*
X4498962Y-15882067D01*
X4508486Y-15843971D01*
X4518010Y-15824924D01*
X4527533Y-15815400D01*
X4546581Y-15805876D01*
X4698962Y-16005876D02*
X4698962Y-15872543D01*
X4698962Y-15891590D02*
X4708486Y-15882067D01*
X4727533Y-15872543D01*
X4756105Y-15872543D01*
X4775152Y-15882067D01*
X4784676Y-15901114D01*
X4784676Y-16005876D01*
X4784676Y-15901114D02*
X4794200Y-15882067D01*
X4813248Y-15872543D01*
X4841819Y-15872543D01*
X4860867Y-15882067D01*
X4870390Y-15901114D01*
X4870390Y-16005876D01*
X4965629Y-16005876D02*
X4965629Y-15872543D01*
X4965629Y-15891590D02*
X4975152Y-15882067D01*
X4994200Y-15872543D01*
X5022771Y-15872543D01*
X5041819Y-15882067D01*
X5051343Y-15901114D01*
X5051343Y-16005876D01*
X5051343Y-15901114D02*
X5060867Y-15882067D01*
X5079914Y-15872543D01*
X5108486Y-15872543D01*
X5127533Y-15882067D01*
X5137057Y-15901114D01*
X5137057Y-16005876D01*
X5527533Y-15796352D02*
X5356105Y-16053495D01*
X5784676Y-15805876D02*
X5803724Y-15805876D01*
X5822771Y-15815400D01*
X5832295Y-15824924D01*
X5841819Y-15843971D01*
X5851343Y-15882067D01*
X5851343Y-15929686D01*
X5841819Y-15967781D01*
X5832295Y-15986828D01*
X5822771Y-15996352D01*
X5803724Y-16005876D01*
X5784676Y-16005876D01*
X5765628Y-15996352D01*
X5756105Y-15986828D01*
X5746581Y-15967781D01*
X5737057Y-15929686D01*
X5737057Y-15882067D01*
X5746581Y-15843971D01*
X5756105Y-15824924D01*
X5765628Y-15815400D01*
X5784676Y-15805876D01*
X5937057Y-15986828D02*
X5946581Y-15996352D01*
X5937057Y-16005876D01*
X5927533Y-15996352D01*
X5937057Y-15986828D01*
X5937057Y-16005876D01*
X6070390Y-15805876D02*
X6089438Y-15805876D01*
X6108486Y-15815400D01*
X6118009Y-15824924D01*
X6127533Y-15843971D01*
X6137057Y-15882067D01*
X6137057Y-15929686D01*
X6127533Y-15967781D01*
X6118009Y-15986828D01*
X6108486Y-15996352D01*
X6089438Y-16005876D01*
X6070390Y-16005876D01*
X6051343Y-15996352D01*
X6041819Y-15986828D01*
X6032295Y-15967781D01*
X6022771Y-15929686D01*
X6022771Y-15882067D01*
X6032295Y-15843971D01*
X6041819Y-15824924D01*
X6051343Y-15815400D01*
X6070390Y-15805876D01*
X6308486Y-15872543D02*
X6308486Y-16005876D01*
X6260867Y-15796352D02*
X6213248Y-15939209D01*
X6337057Y-15939209D01*
X6394200Y-15805876D02*
X6518009Y-15805876D01*
X6451343Y-15882067D01*
X6479914Y-15882067D01*
X6498962Y-15891590D01*
X6508486Y-15901114D01*
X6518009Y-15920162D01*
X6518009Y-15967781D01*
X6508486Y-15986828D01*
X6498962Y-15996352D01*
X6479914Y-16005876D01*
X6422771Y-16005876D01*
X6403724Y-15996352D01*
X6394200Y-15986828D01*
X6584676Y-15805876D02*
X6708486Y-15805876D01*
X6641819Y-15882067D01*
X6670390Y-15882067D01*
X6689438Y-15891590D01*
X6698962Y-15901114D01*
X6708486Y-15920162D01*
X6708486Y-15967781D01*
X6698962Y-15986828D01*
X6689438Y-15996352D01*
X6670390Y-16005876D01*
X6613248Y-16005876D01*
X6594200Y-15996352D01*
X6584676Y-15986828D01*
X6784676Y-15805876D02*
X6784676Y-15843971D01*
X6860867Y-15805876D02*
X6860867Y-15843971D01*
X7156105Y-16082067D02*
X7146581Y-16072543D01*
X7127533Y-16043971D01*
X7118009Y-16024924D01*
X7108486Y-15996352D01*
X7098962Y-15948733D01*
X7098962Y-15910638D01*
X7108486Y-15863019D01*
X7118009Y-15834448D01*
X7127533Y-15815400D01*
X7146581Y-15786828D01*
X7156105Y-15777305D01*
X7270390Y-15805876D02*
X7289438Y-15805876D01*
X7308486Y-15815400D01*
X7318009Y-15824924D01*
X7327533Y-15843971D01*
X7337057Y-15882067D01*
X7337057Y-15929686D01*
X7327533Y-15967781D01*
X7318009Y-15986828D01*
X7308486Y-15996352D01*
X7289438Y-16005876D01*
X7270390Y-16005876D01*
X7251343Y-15996352D01*
X7241819Y-15986828D01*
X7232295Y-15967781D01*
X7222771Y-15929686D01*
X7222771Y-15882067D01*
X7232295Y-15843971D01*
X7241819Y-15824924D01*
X7251343Y-15815400D01*
X7270390Y-15805876D01*
X7575152Y-16005876D02*
X7575152Y-15805876D01*
X7660867Y-16005876D02*
X7660867Y-15901114D01*
X7651343Y-15882067D01*
X7632295Y-15872543D01*
X7603724Y-15872543D01*
X7584676Y-15882067D01*
X7575152Y-15891590D01*
X7784676Y-16005876D02*
X7765628Y-15996352D01*
X7756105Y-15986828D01*
X7746581Y-15967781D01*
X7746581Y-15910638D01*
X7756105Y-15891590D01*
X7765628Y-15882067D01*
X7784676Y-15872543D01*
X7813248Y-15872543D01*
X7832295Y-15882067D01*
X7841819Y-15891590D01*
X7851343Y-15910638D01*
X7851343Y-15967781D01*
X7841819Y-15986828D01*
X7832295Y-15996352D01*
X7813248Y-16005876D01*
X7784676Y-16005876D01*
X7965628Y-16005876D02*
X7946581Y-15996352D01*
X7937057Y-15977305D01*
X7937057Y-15805876D01*
X8118009Y-15996352D02*
X8098962Y-16005876D01*
X8060867Y-16005876D01*
X8041819Y-15996352D01*
X8032295Y-15977305D01*
X8032295Y-15901114D01*
X8041819Y-15882067D01*
X8060867Y-15872543D01*
X8098962Y-15872543D01*
X8118009Y-15882067D01*
X8127533Y-15901114D01*
X8127533Y-15920162D01*
X8032295Y-15939209D01*
X8203724Y-15996352D02*
X8222771Y-16005876D01*
X8260867Y-16005876D01*
X8279914Y-15996352D01*
X8289438Y-15977305D01*
X8289438Y-15967781D01*
X8279914Y-15948733D01*
X8260867Y-15939209D01*
X8232295Y-15939209D01*
X8213248Y-15929686D01*
X8203724Y-15910638D01*
X8203724Y-15901114D01*
X8213248Y-15882067D01*
X8232295Y-15872543D01*
X8260867Y-15872543D01*
X8279914Y-15882067D01*
X8527533Y-15929686D02*
X8679914Y-15929686D01*
X8603724Y-16005876D02*
X8603724Y-15853495D01*
X8956105Y-15891590D02*
X8937057Y-15882067D01*
X8927533Y-15872543D01*
X8918010Y-15853495D01*
X8918010Y-15843971D01*
X8927533Y-15824924D01*
X8937057Y-15815400D01*
X8956105Y-15805876D01*
X8994200Y-15805876D01*
X9013248Y-15815400D01*
X9022771Y-15824924D01*
X9032295Y-15843971D01*
X9032295Y-15853495D01*
X9022771Y-15872543D01*
X9013248Y-15882067D01*
X8994200Y-15891590D01*
X8956105Y-15891590D01*
X8937057Y-15901114D01*
X8927533Y-15910638D01*
X8918010Y-15929686D01*
X8918010Y-15967781D01*
X8927533Y-15986828D01*
X8937057Y-15996352D01*
X8956105Y-16005876D01*
X8994200Y-16005876D01*
X9013248Y-15996352D01*
X9022771Y-15986828D01*
X9032295Y-15967781D01*
X9032295Y-15929686D01*
X9022771Y-15910638D01*
X9013248Y-15901114D01*
X8994200Y-15891590D01*
X9260867Y-15996352D02*
X9279914Y-16005876D01*
X9318010Y-16005876D01*
X9337057Y-15996352D01*
X9346581Y-15977305D01*
X9346581Y-15967781D01*
X9337057Y-15948733D01*
X9318010Y-15939209D01*
X9289438Y-15939209D01*
X9270390Y-15929686D01*
X9260867Y-15910638D01*
X9260867Y-15901114D01*
X9270390Y-15882067D01*
X9289438Y-15872543D01*
X9318010Y-15872543D01*
X9337057Y-15882067D01*
X9460867Y-16005876D02*
X9441819Y-15996352D01*
X9432295Y-15977305D01*
X9432295Y-15805876D01*
X9565629Y-16005876D02*
X9546581Y-15996352D01*
X9537057Y-15986828D01*
X9527533Y-15967781D01*
X9527533Y-15910638D01*
X9537057Y-15891590D01*
X9546581Y-15882067D01*
X9565629Y-15872543D01*
X9594200Y-15872543D01*
X9613248Y-15882067D01*
X9622771Y-15891590D01*
X9632295Y-15910638D01*
X9632295Y-15967781D01*
X9622771Y-15986828D01*
X9613248Y-15996352D01*
X9594200Y-16005876D01*
X9565629Y-16005876D01*
X9689438Y-15872543D02*
X9765629Y-15872543D01*
X9718010Y-15805876D02*
X9718010Y-15977305D01*
X9727533Y-15996352D01*
X9746581Y-16005876D01*
X9765629Y-16005876D01*
X9822771Y-15996352D02*
X9841819Y-16005876D01*
X9879914Y-16005876D01*
X9898962Y-15996352D01*
X9908486Y-15977305D01*
X9908486Y-15967781D01*
X9898962Y-15948733D01*
X9879914Y-15939209D01*
X9851343Y-15939209D01*
X9832295Y-15929686D01*
X9822771Y-15910638D01*
X9822771Y-15901114D01*
X9832295Y-15882067D01*
X9851343Y-15872543D01*
X9879914Y-15872543D01*
X9898962Y-15882067D01*
X9975152Y-16082067D02*
X9984676Y-16072543D01*
X10003724Y-16043971D01*
X10013248Y-16024924D01*
X10022771Y-15996352D01*
X10032295Y-15948733D01*
X10032295Y-15910638D01*
X10022771Y-15863019D01*
X10013248Y-15834448D01*
X10003724Y-15815400D01*
X9984676Y-15786828D01*
X9975152Y-15777305D01*
D17*
X3464200Y-16119400D02*
X3584200Y-16239400D01*
X3584200Y-16119400D02*
X3464200Y-16239400D01*
X3584200Y-16179400D02*
G75*
G03*
X3584200Y-16179400I-60000J0D01*
G01*
D11*
X3946581Y-16269876D02*
X3832295Y-16269876D01*
X3889438Y-16269876D02*
X3889438Y-16069876D01*
X3870390Y-16098448D01*
X3851343Y-16117495D01*
X3832295Y-16127019D01*
X4032295Y-16250828D02*
X4041819Y-16260352D01*
X4032295Y-16269876D01*
X4022771Y-16260352D01*
X4032295Y-16250828D01*
X4032295Y-16269876D01*
X4118009Y-16088924D02*
X4127533Y-16079400D01*
X4146581Y-16069876D01*
X4194200Y-16069876D01*
X4213248Y-16079400D01*
X4222771Y-16088924D01*
X4232295Y-16107971D01*
X4232295Y-16127019D01*
X4222771Y-16155590D01*
X4108486Y-16269876D01*
X4232295Y-16269876D01*
X4356105Y-16069876D02*
X4375152Y-16069876D01*
X4394200Y-16079400D01*
X4403724Y-16088924D01*
X4413248Y-16107971D01*
X4422771Y-16146067D01*
X4422771Y-16193686D01*
X4413248Y-16231781D01*
X4403724Y-16250828D01*
X4394200Y-16260352D01*
X4375152Y-16269876D01*
X4356105Y-16269876D01*
X4337057Y-16260352D01*
X4327533Y-16250828D01*
X4318010Y-16231781D01*
X4308486Y-16193686D01*
X4308486Y-16146067D01*
X4318010Y-16107971D01*
X4327533Y-16088924D01*
X4337057Y-16079400D01*
X4356105Y-16069876D01*
X4546581Y-16069876D02*
X4565629Y-16069876D01*
X4584676Y-16079400D01*
X4594200Y-16088924D01*
X4603724Y-16107971D01*
X4613248Y-16146067D01*
X4613248Y-16193686D01*
X4603724Y-16231781D01*
X4594200Y-16250828D01*
X4584676Y-16260352D01*
X4565629Y-16269876D01*
X4546581Y-16269876D01*
X4527533Y-16260352D01*
X4518010Y-16250828D01*
X4508486Y-16231781D01*
X4498962Y-16193686D01*
X4498962Y-16146067D01*
X4508486Y-16107971D01*
X4518010Y-16088924D01*
X4527533Y-16079400D01*
X4546581Y-16069876D01*
X4698962Y-16269876D02*
X4698962Y-16136543D01*
X4698962Y-16155590D02*
X4708486Y-16146067D01*
X4727533Y-16136543D01*
X4756105Y-16136543D01*
X4775152Y-16146067D01*
X4784676Y-16165114D01*
X4784676Y-16269876D01*
X4784676Y-16165114D02*
X4794200Y-16146067D01*
X4813248Y-16136543D01*
X4841819Y-16136543D01*
X4860867Y-16146067D01*
X4870390Y-16165114D01*
X4870390Y-16269876D01*
X4965629Y-16269876D02*
X4965629Y-16136543D01*
X4965629Y-16155590D02*
X4975152Y-16146067D01*
X4994200Y-16136543D01*
X5022771Y-16136543D01*
X5041819Y-16146067D01*
X5051343Y-16165114D01*
X5051343Y-16269876D01*
X5051343Y-16165114D02*
X5060867Y-16146067D01*
X5079914Y-16136543D01*
X5108486Y-16136543D01*
X5127533Y-16146067D01*
X5137057Y-16165114D01*
X5137057Y-16269876D01*
X5527533Y-16060352D02*
X5356105Y-16317495D01*
X5784676Y-16069876D02*
X5803724Y-16069876D01*
X5822771Y-16079400D01*
X5832295Y-16088924D01*
X5841819Y-16107971D01*
X5851343Y-16146067D01*
X5851343Y-16193686D01*
X5841819Y-16231781D01*
X5832295Y-16250828D01*
X5822771Y-16260352D01*
X5803724Y-16269876D01*
X5784676Y-16269876D01*
X5765628Y-16260352D01*
X5756105Y-16250828D01*
X5746581Y-16231781D01*
X5737057Y-16193686D01*
X5737057Y-16146067D01*
X5746581Y-16107971D01*
X5756105Y-16088924D01*
X5765628Y-16079400D01*
X5784676Y-16069876D01*
X5937057Y-16250828D02*
X5946581Y-16260352D01*
X5937057Y-16269876D01*
X5927533Y-16260352D01*
X5937057Y-16250828D01*
X5937057Y-16269876D01*
X6070390Y-16069876D02*
X6089438Y-16069876D01*
X6108486Y-16079400D01*
X6118009Y-16088924D01*
X6127533Y-16107971D01*
X6137057Y-16146067D01*
X6137057Y-16193686D01*
X6127533Y-16231781D01*
X6118009Y-16250828D01*
X6108486Y-16260352D01*
X6089438Y-16269876D01*
X6070390Y-16269876D01*
X6051343Y-16260352D01*
X6041819Y-16250828D01*
X6032295Y-16231781D01*
X6022771Y-16193686D01*
X6022771Y-16146067D01*
X6032295Y-16107971D01*
X6041819Y-16088924D01*
X6051343Y-16079400D01*
X6070390Y-16069876D01*
X6308486Y-16136543D02*
X6308486Y-16269876D01*
X6260867Y-16060352D02*
X6213248Y-16203209D01*
X6337057Y-16203209D01*
X6394200Y-16069876D02*
X6527533Y-16069876D01*
X6441819Y-16269876D01*
X6594200Y-16088924D02*
X6603724Y-16079400D01*
X6622771Y-16069876D01*
X6670390Y-16069876D01*
X6689438Y-16079400D01*
X6698962Y-16088924D01*
X6708486Y-16107971D01*
X6708486Y-16127019D01*
X6698962Y-16155590D01*
X6584676Y-16269876D01*
X6708486Y-16269876D01*
X6784676Y-16069876D02*
X6784676Y-16107971D01*
X6860867Y-16069876D02*
X6860867Y-16107971D01*
X7156105Y-16346067D02*
X7146581Y-16336543D01*
X7127533Y-16307971D01*
X7118009Y-16288924D01*
X7108486Y-16260352D01*
X7098962Y-16212733D01*
X7098962Y-16174638D01*
X7108486Y-16127019D01*
X7118009Y-16098448D01*
X7127533Y-16079400D01*
X7146581Y-16050828D01*
X7156105Y-16041305D01*
X7337057Y-16269876D02*
X7222771Y-16269876D01*
X7279914Y-16269876D02*
X7279914Y-16069876D01*
X7260867Y-16098448D01*
X7241819Y-16117495D01*
X7222771Y-16127019D01*
X7413248Y-16088924D02*
X7422771Y-16079400D01*
X7441819Y-16069876D01*
X7489438Y-16069876D01*
X7508486Y-16079400D01*
X7518009Y-16088924D01*
X7527533Y-16107971D01*
X7527533Y-16127019D01*
X7518009Y-16155590D01*
X7403724Y-16269876D01*
X7527533Y-16269876D01*
X7765628Y-16269876D02*
X7765628Y-16069876D01*
X7851343Y-16269876D02*
X7851343Y-16165114D01*
X7841819Y-16146067D01*
X7822771Y-16136543D01*
X7794200Y-16136543D01*
X7775152Y-16146067D01*
X7765628Y-16155590D01*
X7975152Y-16269876D02*
X7956105Y-16260352D01*
X7946581Y-16250828D01*
X7937057Y-16231781D01*
X7937057Y-16174638D01*
X7946581Y-16155590D01*
X7956105Y-16146067D01*
X7975152Y-16136543D01*
X8003724Y-16136543D01*
X8022771Y-16146067D01*
X8032295Y-16155590D01*
X8041819Y-16174638D01*
X8041819Y-16231781D01*
X8032295Y-16250828D01*
X8022771Y-16260352D01*
X8003724Y-16269876D01*
X7975152Y-16269876D01*
X8156105Y-16269876D02*
X8137057Y-16260352D01*
X8127533Y-16241305D01*
X8127533Y-16069876D01*
X8308486Y-16260352D02*
X8289438Y-16269876D01*
X8251343Y-16269876D01*
X8232295Y-16260352D01*
X8222771Y-16241305D01*
X8222771Y-16165114D01*
X8232295Y-16146067D01*
X8251343Y-16136543D01*
X8289438Y-16136543D01*
X8308486Y-16146067D01*
X8318009Y-16165114D01*
X8318009Y-16184162D01*
X8222771Y-16203209D01*
X8394200Y-16260352D02*
X8413248Y-16269876D01*
X8451343Y-16269876D01*
X8470390Y-16260352D01*
X8479914Y-16241305D01*
X8479914Y-16231781D01*
X8470390Y-16212733D01*
X8451343Y-16203209D01*
X8422771Y-16203209D01*
X8403724Y-16193686D01*
X8394200Y-16174638D01*
X8394200Y-16165114D01*
X8403724Y-16146067D01*
X8422771Y-16136543D01*
X8451343Y-16136543D01*
X8470390Y-16146067D01*
X8546581Y-16346067D02*
X8556105Y-16336543D01*
X8575152Y-16307971D01*
X8584676Y-16288924D01*
X8594200Y-16260352D01*
X8603724Y-16212733D01*
X8603724Y-16174638D01*
X8594200Y-16127019D01*
X8584676Y-16098448D01*
X8575152Y-16079400D01*
X8556105Y-16050828D01*
X8546581Y-16041305D01*
D18*
X3462200Y-16382400D02*
X3584200Y-16504400D01*
X3584200Y-16382400D02*
X3462200Y-16504400D01*
X3523200Y-16382400D02*
X3523200Y-16504400D01*
X3462200Y-16443400D02*
X3584200Y-16443400D01*
D11*
X3946581Y-16533876D02*
X3832295Y-16533876D01*
X3889438Y-16533876D02*
X3889438Y-16333876D01*
X3870390Y-16362448D01*
X3851343Y-16381495D01*
X3832295Y-16391019D01*
X4032295Y-16514828D02*
X4041819Y-16524352D01*
X4032295Y-16533876D01*
X4022771Y-16524352D01*
X4032295Y-16514828D01*
X4032295Y-16533876D01*
X4118009Y-16352924D02*
X4127533Y-16343400D01*
X4146581Y-16333876D01*
X4194200Y-16333876D01*
X4213248Y-16343400D01*
X4222771Y-16352924D01*
X4232295Y-16371971D01*
X4232295Y-16391019D01*
X4222771Y-16419590D01*
X4108486Y-16533876D01*
X4232295Y-16533876D01*
X4308486Y-16352924D02*
X4318010Y-16343400D01*
X4337057Y-16333876D01*
X4384676Y-16333876D01*
X4403724Y-16343400D01*
X4413248Y-16352924D01*
X4422771Y-16371971D01*
X4422771Y-16391019D01*
X4413248Y-16419590D01*
X4298962Y-16533876D01*
X4422771Y-16533876D01*
X4546581Y-16333876D02*
X4565629Y-16333876D01*
X4584676Y-16343400D01*
X4594200Y-16352924D01*
X4603724Y-16371971D01*
X4613248Y-16410067D01*
X4613248Y-16457686D01*
X4603724Y-16495781D01*
X4594200Y-16514828D01*
X4584676Y-16524352D01*
X4565629Y-16533876D01*
X4546581Y-16533876D01*
X4527533Y-16524352D01*
X4518010Y-16514828D01*
X4508486Y-16495781D01*
X4498962Y-16457686D01*
X4498962Y-16410067D01*
X4508486Y-16371971D01*
X4518010Y-16352924D01*
X4527533Y-16343400D01*
X4546581Y-16333876D01*
X4698962Y-16533876D02*
X4698962Y-16400543D01*
X4698962Y-16419590D02*
X4708486Y-16410067D01*
X4727533Y-16400543D01*
X4756105Y-16400543D01*
X4775152Y-16410067D01*
X4784676Y-16429114D01*
X4784676Y-16533876D01*
X4784676Y-16429114D02*
X4794200Y-16410067D01*
X4813248Y-16400543D01*
X4841819Y-16400543D01*
X4860867Y-16410067D01*
X4870390Y-16429114D01*
X4870390Y-16533876D01*
X4965629Y-16533876D02*
X4965629Y-16400543D01*
X4965629Y-16419590D02*
X4975152Y-16410067D01*
X4994200Y-16400543D01*
X5022771Y-16400543D01*
X5041819Y-16410067D01*
X5051343Y-16429114D01*
X5051343Y-16533876D01*
X5051343Y-16429114D02*
X5060867Y-16410067D01*
X5079914Y-16400543D01*
X5108486Y-16400543D01*
X5127533Y-16410067D01*
X5137057Y-16429114D01*
X5137057Y-16533876D01*
X5527533Y-16324352D02*
X5356105Y-16581495D01*
X5784676Y-16333876D02*
X5803724Y-16333876D01*
X5822771Y-16343400D01*
X5832295Y-16352924D01*
X5841819Y-16371971D01*
X5851343Y-16410067D01*
X5851343Y-16457686D01*
X5841819Y-16495781D01*
X5832295Y-16514828D01*
X5822771Y-16524352D01*
X5803724Y-16533876D01*
X5784676Y-16533876D01*
X5765628Y-16524352D01*
X5756105Y-16514828D01*
X5746581Y-16495781D01*
X5737057Y-16457686D01*
X5737057Y-16410067D01*
X5746581Y-16371971D01*
X5756105Y-16352924D01*
X5765628Y-16343400D01*
X5784676Y-16333876D01*
X5937057Y-16514828D02*
X5946581Y-16524352D01*
X5937057Y-16533876D01*
X5927533Y-16524352D01*
X5937057Y-16514828D01*
X5937057Y-16533876D01*
X6070390Y-16333876D02*
X6089438Y-16333876D01*
X6108486Y-16343400D01*
X6118009Y-16352924D01*
X6127533Y-16371971D01*
X6137057Y-16410067D01*
X6137057Y-16457686D01*
X6127533Y-16495781D01*
X6118009Y-16514828D01*
X6108486Y-16524352D01*
X6089438Y-16533876D01*
X6070390Y-16533876D01*
X6051343Y-16524352D01*
X6041819Y-16514828D01*
X6032295Y-16495781D01*
X6022771Y-16457686D01*
X6022771Y-16410067D01*
X6032295Y-16371971D01*
X6041819Y-16352924D01*
X6051343Y-16343400D01*
X6070390Y-16333876D01*
X6308486Y-16400543D02*
X6308486Y-16533876D01*
X6260867Y-16324352D02*
X6213248Y-16467209D01*
X6337057Y-16467209D01*
X6441819Y-16419590D02*
X6422771Y-16410067D01*
X6413248Y-16400543D01*
X6403724Y-16381495D01*
X6403724Y-16371971D01*
X6413248Y-16352924D01*
X6422771Y-16343400D01*
X6441819Y-16333876D01*
X6479914Y-16333876D01*
X6498962Y-16343400D01*
X6508486Y-16352924D01*
X6518009Y-16371971D01*
X6518009Y-16381495D01*
X6508486Y-16400543D01*
X6498962Y-16410067D01*
X6479914Y-16419590D01*
X6441819Y-16419590D01*
X6422771Y-16429114D01*
X6413248Y-16438638D01*
X6403724Y-16457686D01*
X6403724Y-16495781D01*
X6413248Y-16514828D01*
X6422771Y-16524352D01*
X6441819Y-16533876D01*
X6479914Y-16533876D01*
X6498962Y-16524352D01*
X6508486Y-16514828D01*
X6518009Y-16495781D01*
X6518009Y-16457686D01*
X6508486Y-16438638D01*
X6498962Y-16429114D01*
X6479914Y-16419590D01*
X6641819Y-16333876D02*
X6660867Y-16333876D01*
X6679914Y-16343400D01*
X6689438Y-16352924D01*
X6698962Y-16371971D01*
X6708486Y-16410067D01*
X6708486Y-16457686D01*
X6698962Y-16495781D01*
X6689438Y-16514828D01*
X6679914Y-16524352D01*
X6660867Y-16533876D01*
X6641819Y-16533876D01*
X6622771Y-16524352D01*
X6613248Y-16514828D01*
X6603724Y-16495781D01*
X6594200Y-16457686D01*
X6594200Y-16410067D01*
X6603724Y-16371971D01*
X6613248Y-16352924D01*
X6622771Y-16343400D01*
X6641819Y-16333876D01*
X6784676Y-16333876D02*
X6784676Y-16371971D01*
X6860867Y-16333876D02*
X6860867Y-16371971D01*
X7156105Y-16610067D02*
X7146581Y-16600543D01*
X7127533Y-16571971D01*
X7118009Y-16552924D01*
X7108486Y-16524352D01*
X7098962Y-16476733D01*
X7098962Y-16438638D01*
X7108486Y-16391019D01*
X7118009Y-16362448D01*
X7127533Y-16343400D01*
X7146581Y-16314828D01*
X7156105Y-16305305D01*
X7337057Y-16533876D02*
X7222771Y-16533876D01*
X7279914Y-16533876D02*
X7279914Y-16333876D01*
X7260867Y-16362448D01*
X7241819Y-16381495D01*
X7222771Y-16391019D01*
X7460867Y-16333876D02*
X7479914Y-16333876D01*
X7498962Y-16343400D01*
X7508486Y-16352924D01*
X7518009Y-16371971D01*
X7527533Y-16410067D01*
X7527533Y-16457686D01*
X7518009Y-16495781D01*
X7508486Y-16514828D01*
X7498962Y-16524352D01*
X7479914Y-16533876D01*
X7460867Y-16533876D01*
X7441819Y-16524352D01*
X7432295Y-16514828D01*
X7422771Y-16495781D01*
X7413248Y-16457686D01*
X7413248Y-16410067D01*
X7422771Y-16371971D01*
X7432295Y-16352924D01*
X7441819Y-16343400D01*
X7460867Y-16333876D01*
X7765628Y-16533876D02*
X7765628Y-16333876D01*
X7851343Y-16533876D02*
X7851343Y-16429114D01*
X7841819Y-16410067D01*
X7822771Y-16400543D01*
X7794200Y-16400543D01*
X7775152Y-16410067D01*
X7765628Y-16419590D01*
X7975152Y-16533876D02*
X7956105Y-16524352D01*
X7946581Y-16514828D01*
X7937057Y-16495781D01*
X7937057Y-16438638D01*
X7946581Y-16419590D01*
X7956105Y-16410067D01*
X7975152Y-16400543D01*
X8003724Y-16400543D01*
X8022771Y-16410067D01*
X8032295Y-16419590D01*
X8041819Y-16438638D01*
X8041819Y-16495781D01*
X8032295Y-16514828D01*
X8022771Y-16524352D01*
X8003724Y-16533876D01*
X7975152Y-16533876D01*
X8156105Y-16533876D02*
X8137057Y-16524352D01*
X8127533Y-16505305D01*
X8127533Y-16333876D01*
X8308486Y-16524352D02*
X8289438Y-16533876D01*
X8251343Y-16533876D01*
X8232295Y-16524352D01*
X8222771Y-16505305D01*
X8222771Y-16429114D01*
X8232295Y-16410067D01*
X8251343Y-16400543D01*
X8289438Y-16400543D01*
X8308486Y-16410067D01*
X8318009Y-16429114D01*
X8318009Y-16448162D01*
X8222771Y-16467209D01*
X8394200Y-16524352D02*
X8413248Y-16533876D01*
X8451343Y-16533876D01*
X8470390Y-16524352D01*
X8479914Y-16505305D01*
X8479914Y-16495781D01*
X8470390Y-16476733D01*
X8451343Y-16467209D01*
X8422771Y-16467209D01*
X8403724Y-16457686D01*
X8394200Y-16438638D01*
X8394200Y-16429114D01*
X8403724Y-16410067D01*
X8422771Y-16400543D01*
X8451343Y-16400543D01*
X8470390Y-16410067D01*
X8546581Y-16610067D02*
X8556105Y-16600543D01*
X8575152Y-16571971D01*
X8584676Y-16552924D01*
X8594200Y-16524352D01*
X8603724Y-16476733D01*
X8603724Y-16438638D01*
X8594200Y-16391019D01*
X8584676Y-16362448D01*
X8575152Y-16343400D01*
X8556105Y-16314828D01*
X8546581Y-16305305D01*
D19*
X3442200Y-16636400D02*
X3584200Y-16778400D01*
X3584200Y-16636400D02*
X3442200Y-16778400D01*
X3563405Y-16757605D02*
X3563405Y-16657195D01*
X3462995Y-16657195D01*
X3462995Y-16757605D01*
X3563405Y-16757605D01*
D11*
X3946581Y-16797876D02*
X3832295Y-16797876D01*
X3889438Y-16797876D02*
X3889438Y-16597876D01*
X3870390Y-16626448D01*
X3851343Y-16645495D01*
X3832295Y-16655019D01*
X4032295Y-16778829D02*
X4041819Y-16788352D01*
X4032295Y-16797876D01*
X4022771Y-16788352D01*
X4032295Y-16778829D01*
X4032295Y-16797876D01*
X4213248Y-16664543D02*
X4213248Y-16797876D01*
X4165628Y-16588352D02*
X4118009Y-16731209D01*
X4241819Y-16731209D01*
X4308486Y-16616924D02*
X4318010Y-16607400D01*
X4337057Y-16597876D01*
X4384676Y-16597876D01*
X4403724Y-16607400D01*
X4413248Y-16616924D01*
X4422771Y-16635971D01*
X4422771Y-16655019D01*
X4413248Y-16683590D01*
X4298962Y-16797876D01*
X4422771Y-16797876D01*
X4546581Y-16597876D02*
X4565629Y-16597876D01*
X4584676Y-16607400D01*
X4594200Y-16616924D01*
X4603724Y-16635971D01*
X4613248Y-16674067D01*
X4613248Y-16721686D01*
X4603724Y-16759781D01*
X4594200Y-16778829D01*
X4584676Y-16788352D01*
X4565629Y-16797876D01*
X4546581Y-16797876D01*
X4527533Y-16788352D01*
X4518010Y-16778829D01*
X4508486Y-16759781D01*
X4498962Y-16721686D01*
X4498962Y-16674067D01*
X4508486Y-16635971D01*
X4518010Y-16616924D01*
X4527533Y-16607400D01*
X4546581Y-16597876D01*
X4698962Y-16797876D02*
X4698962Y-16664543D01*
X4698962Y-16683590D02*
X4708486Y-16674067D01*
X4727533Y-16664543D01*
X4756105Y-16664543D01*
X4775152Y-16674067D01*
X4784676Y-16693114D01*
X4784676Y-16797876D01*
X4784676Y-16693114D02*
X4794200Y-16674067D01*
X4813248Y-16664543D01*
X4841819Y-16664543D01*
X4860867Y-16674067D01*
X4870390Y-16693114D01*
X4870390Y-16797876D01*
X4965629Y-16797876D02*
X4965629Y-16664543D01*
X4965629Y-16683590D02*
X4975152Y-16674067D01*
X4994200Y-16664543D01*
X5022771Y-16664543D01*
X5041819Y-16674067D01*
X5051343Y-16693114D01*
X5051343Y-16797876D01*
X5051343Y-16693114D02*
X5060867Y-16674067D01*
X5079914Y-16664543D01*
X5108486Y-16664543D01*
X5127533Y-16674067D01*
X5137057Y-16693114D01*
X5137057Y-16797876D01*
X5527533Y-16588352D02*
X5356105Y-16845495D01*
X5784676Y-16597876D02*
X5803724Y-16597876D01*
X5822771Y-16607400D01*
X5832295Y-16616924D01*
X5841819Y-16635971D01*
X5851343Y-16674067D01*
X5851343Y-16721686D01*
X5841819Y-16759781D01*
X5832295Y-16778829D01*
X5822771Y-16788352D01*
X5803724Y-16797876D01*
X5784676Y-16797876D01*
X5765628Y-16788352D01*
X5756105Y-16778829D01*
X5746581Y-16759781D01*
X5737057Y-16721686D01*
X5737057Y-16674067D01*
X5746581Y-16635971D01*
X5756105Y-16616924D01*
X5765628Y-16607400D01*
X5784676Y-16597876D01*
X5937057Y-16778829D02*
X5946581Y-16788352D01*
X5937057Y-16797876D01*
X5927533Y-16788352D01*
X5937057Y-16778829D01*
X5937057Y-16797876D01*
X6070390Y-16597876D02*
X6089438Y-16597876D01*
X6108486Y-16607400D01*
X6118009Y-16616924D01*
X6127533Y-16635971D01*
X6137057Y-16674067D01*
X6137057Y-16721686D01*
X6127533Y-16759781D01*
X6118009Y-16778829D01*
X6108486Y-16788352D01*
X6089438Y-16797876D01*
X6070390Y-16797876D01*
X6051343Y-16788352D01*
X6041819Y-16778829D01*
X6032295Y-16759781D01*
X6022771Y-16721686D01*
X6022771Y-16674067D01*
X6032295Y-16635971D01*
X6041819Y-16616924D01*
X6051343Y-16607400D01*
X6070390Y-16597876D01*
X6318009Y-16597876D02*
X6222771Y-16597876D01*
X6213248Y-16693114D01*
X6222771Y-16683590D01*
X6241819Y-16674067D01*
X6289438Y-16674067D01*
X6308486Y-16683590D01*
X6318009Y-16693114D01*
X6327533Y-16712162D01*
X6327533Y-16759781D01*
X6318009Y-16778829D01*
X6308486Y-16788352D01*
X6289438Y-16797876D01*
X6241819Y-16797876D01*
X6222771Y-16788352D01*
X6213248Y-16778829D01*
X6508486Y-16597876D02*
X6413248Y-16597876D01*
X6403724Y-16693114D01*
X6413248Y-16683590D01*
X6432295Y-16674067D01*
X6479914Y-16674067D01*
X6498962Y-16683590D01*
X6508486Y-16693114D01*
X6518009Y-16712162D01*
X6518009Y-16759781D01*
X6508486Y-16778829D01*
X6498962Y-16788352D01*
X6479914Y-16797876D01*
X6432295Y-16797876D01*
X6413248Y-16788352D01*
X6403724Y-16778829D01*
X6613248Y-16797876D02*
X6651343Y-16797876D01*
X6670390Y-16788352D01*
X6679914Y-16778829D01*
X6698962Y-16750257D01*
X6708486Y-16712162D01*
X6708486Y-16635971D01*
X6698962Y-16616924D01*
X6689438Y-16607400D01*
X6670390Y-16597876D01*
X6632295Y-16597876D01*
X6613248Y-16607400D01*
X6603724Y-16616924D01*
X6594200Y-16635971D01*
X6594200Y-16683590D01*
X6603724Y-16702638D01*
X6613248Y-16712162D01*
X6632295Y-16721686D01*
X6670390Y-16721686D01*
X6689438Y-16712162D01*
X6698962Y-16702638D01*
X6708486Y-16683590D01*
X6784676Y-16597876D02*
X6784676Y-16635971D01*
X6860867Y-16597876D02*
X6860867Y-16635971D01*
X7156105Y-16874067D02*
X7146581Y-16864543D01*
X7127533Y-16835971D01*
X7118009Y-16816924D01*
X7108486Y-16788352D01*
X7098962Y-16740733D01*
X7098962Y-16702638D01*
X7108486Y-16655019D01*
X7118009Y-16626448D01*
X7127533Y-16607400D01*
X7146581Y-16578828D01*
X7156105Y-16569305D01*
X7337057Y-16797876D02*
X7222771Y-16797876D01*
X7279914Y-16797876D02*
X7279914Y-16597876D01*
X7260867Y-16626448D01*
X7241819Y-16645495D01*
X7222771Y-16655019D01*
X7460867Y-16597876D02*
X7479914Y-16597876D01*
X7498962Y-16607400D01*
X7508486Y-16616924D01*
X7518009Y-16635971D01*
X7527533Y-16674067D01*
X7527533Y-16721686D01*
X7518009Y-16759781D01*
X7508486Y-16778829D01*
X7498962Y-16788352D01*
X7479914Y-16797876D01*
X7460867Y-16797876D01*
X7441819Y-16788352D01*
X7432295Y-16778829D01*
X7422771Y-16759781D01*
X7413248Y-16721686D01*
X7413248Y-16674067D01*
X7422771Y-16635971D01*
X7432295Y-16616924D01*
X7441819Y-16607400D01*
X7460867Y-16597876D01*
X7765628Y-16797876D02*
X7765628Y-16597876D01*
X7851343Y-16797876D02*
X7851343Y-16693114D01*
X7841819Y-16674067D01*
X7822771Y-16664543D01*
X7794200Y-16664543D01*
X7775152Y-16674067D01*
X7765628Y-16683590D01*
X7975152Y-16797876D02*
X7956105Y-16788352D01*
X7946581Y-16778829D01*
X7937057Y-16759781D01*
X7937057Y-16702638D01*
X7946581Y-16683590D01*
X7956105Y-16674067D01*
X7975152Y-16664543D01*
X8003724Y-16664543D01*
X8022771Y-16674067D01*
X8032295Y-16683590D01*
X8041819Y-16702638D01*
X8041819Y-16759781D01*
X8032295Y-16778829D01*
X8022771Y-16788352D01*
X8003724Y-16797876D01*
X7975152Y-16797876D01*
X8156105Y-16797876D02*
X8137057Y-16788352D01*
X8127533Y-16769305D01*
X8127533Y-16597876D01*
X8308486Y-16788352D02*
X8289438Y-16797876D01*
X8251343Y-16797876D01*
X8232295Y-16788352D01*
X8222771Y-16769305D01*
X8222771Y-16693114D01*
X8232295Y-16674067D01*
X8251343Y-16664543D01*
X8289438Y-16664543D01*
X8308486Y-16674067D01*
X8318009Y-16693114D01*
X8318009Y-16712162D01*
X8222771Y-16731209D01*
X8394200Y-16788352D02*
X8413248Y-16797876D01*
X8451343Y-16797876D01*
X8470390Y-16788352D01*
X8479914Y-16769305D01*
X8479914Y-16759781D01*
X8470390Y-16740733D01*
X8451343Y-16731209D01*
X8422771Y-16731209D01*
X8403724Y-16721686D01*
X8394200Y-16702638D01*
X8394200Y-16693114D01*
X8403724Y-16674067D01*
X8422771Y-16664543D01*
X8451343Y-16664543D01*
X8470390Y-16674067D01*
X8546581Y-16874067D02*
X8556105Y-16864543D01*
X8575152Y-16835971D01*
X8584676Y-16816924D01*
X8594200Y-16788352D01*
X8603724Y-16740733D01*
X8603724Y-16702638D01*
X8594200Y-16655019D01*
X8584676Y-16626448D01*
X8575152Y-16607400D01*
X8556105Y-16578828D01*
X8546581Y-16569305D01*
D20*
X3441200Y-16899900D02*
X3584200Y-17042900D01*
X3584200Y-16899900D02*
X3441200Y-17042900D01*
X3512700Y-17042900D02*
X3584200Y-16971400D01*
X3512700Y-16899900D01*
X3441200Y-16971400D01*
X3512700Y-17042900D01*
D11*
X3946581Y-17061876D02*
X3832295Y-17061876D01*
X3889438Y-17061876D02*
X3889438Y-16861876D01*
X3870390Y-16890448D01*
X3851343Y-16909495D01*
X3832295Y-16919019D01*
X4032295Y-17042829D02*
X4041819Y-17052352D01*
X4032295Y-17061876D01*
X4022771Y-17052352D01*
X4032295Y-17042829D01*
X4032295Y-17061876D01*
X4213248Y-16928543D02*
X4213248Y-17061876D01*
X4165628Y-16852352D02*
X4118009Y-16995210D01*
X4241819Y-16995210D01*
X4298962Y-16861876D02*
X4422771Y-16861876D01*
X4356105Y-16938067D01*
X4384676Y-16938067D01*
X4403724Y-16947590D01*
X4413248Y-16957114D01*
X4422771Y-16976162D01*
X4422771Y-17023781D01*
X4413248Y-17042829D01*
X4403724Y-17052352D01*
X4384676Y-17061876D01*
X4327533Y-17061876D01*
X4308486Y-17052352D01*
X4298962Y-17042829D01*
X4546581Y-16861876D02*
X4565629Y-16861876D01*
X4584676Y-16871400D01*
X4594200Y-16880924D01*
X4603724Y-16899971D01*
X4613248Y-16938067D01*
X4613248Y-16985686D01*
X4603724Y-17023781D01*
X4594200Y-17042829D01*
X4584676Y-17052352D01*
X4565629Y-17061876D01*
X4546581Y-17061876D01*
X4527533Y-17052352D01*
X4518010Y-17042829D01*
X4508486Y-17023781D01*
X4498962Y-16985686D01*
X4498962Y-16938067D01*
X4508486Y-16899971D01*
X4518010Y-16880924D01*
X4527533Y-16871400D01*
X4546581Y-16861876D01*
X4698962Y-17061876D02*
X4698962Y-16928543D01*
X4698962Y-16947590D02*
X4708486Y-16938067D01*
X4727533Y-16928543D01*
X4756105Y-16928543D01*
X4775152Y-16938067D01*
X4784676Y-16957114D01*
X4784676Y-17061876D01*
X4784676Y-16957114D02*
X4794200Y-16938067D01*
X4813248Y-16928543D01*
X4841819Y-16928543D01*
X4860867Y-16938067D01*
X4870390Y-16957114D01*
X4870390Y-17061876D01*
X4965629Y-17061876D02*
X4965629Y-16928543D01*
X4965629Y-16947590D02*
X4975152Y-16938067D01*
X4994200Y-16928543D01*
X5022771Y-16928543D01*
X5041819Y-16938067D01*
X5051343Y-16957114D01*
X5051343Y-17061876D01*
X5051343Y-16957114D02*
X5060867Y-16938067D01*
X5079914Y-16928543D01*
X5108486Y-16928543D01*
X5127533Y-16938067D01*
X5137057Y-16957114D01*
X5137057Y-17061876D01*
X5527533Y-16852352D02*
X5356105Y-17109495D01*
X5784676Y-16861876D02*
X5803724Y-16861876D01*
X5822771Y-16871400D01*
X5832295Y-16880924D01*
X5841819Y-16899971D01*
X5851343Y-16938067D01*
X5851343Y-16985686D01*
X5841819Y-17023781D01*
X5832295Y-17042829D01*
X5822771Y-17052352D01*
X5803724Y-17061876D01*
X5784676Y-17061876D01*
X5765628Y-17052352D01*
X5756105Y-17042829D01*
X5746581Y-17023781D01*
X5737057Y-16985686D01*
X5737057Y-16938067D01*
X5746581Y-16899971D01*
X5756105Y-16880924D01*
X5765628Y-16871400D01*
X5784676Y-16861876D01*
X5937057Y-17042829D02*
X5946581Y-17052352D01*
X5937057Y-17061876D01*
X5927533Y-17052352D01*
X5937057Y-17042829D01*
X5937057Y-17061876D01*
X6070390Y-16861876D02*
X6089438Y-16861876D01*
X6108486Y-16871400D01*
X6118009Y-16880924D01*
X6127533Y-16899971D01*
X6137057Y-16938067D01*
X6137057Y-16985686D01*
X6127533Y-17023781D01*
X6118009Y-17042829D01*
X6108486Y-17052352D01*
X6089438Y-17061876D01*
X6070390Y-17061876D01*
X6051343Y-17052352D01*
X6041819Y-17042829D01*
X6032295Y-17023781D01*
X6022771Y-16985686D01*
X6022771Y-16938067D01*
X6032295Y-16899971D01*
X6041819Y-16880924D01*
X6051343Y-16871400D01*
X6070390Y-16861876D01*
X6318009Y-16861876D02*
X6222771Y-16861876D01*
X6213248Y-16957114D01*
X6222771Y-16947590D01*
X6241819Y-16938067D01*
X6289438Y-16938067D01*
X6308486Y-16947590D01*
X6318009Y-16957114D01*
X6327533Y-16976162D01*
X6327533Y-17023781D01*
X6318009Y-17042829D01*
X6308486Y-17052352D01*
X6289438Y-17061876D01*
X6241819Y-17061876D01*
X6222771Y-17052352D01*
X6213248Y-17042829D01*
X6498962Y-16861876D02*
X6460867Y-16861876D01*
X6441819Y-16871400D01*
X6432295Y-16880924D01*
X6413248Y-16909495D01*
X6403724Y-16947590D01*
X6403724Y-17023781D01*
X6413248Y-17042829D01*
X6422771Y-17052352D01*
X6441819Y-17061876D01*
X6479914Y-17061876D01*
X6498962Y-17052352D01*
X6508486Y-17042829D01*
X6518009Y-17023781D01*
X6518009Y-16976162D01*
X6508486Y-16957114D01*
X6498962Y-16947590D01*
X6479914Y-16938067D01*
X6441819Y-16938067D01*
X6422771Y-16947590D01*
X6413248Y-16957114D01*
X6403724Y-16976162D01*
X6584676Y-16861876D02*
X6708486Y-16861876D01*
X6641819Y-16938067D01*
X6670390Y-16938067D01*
X6689438Y-16947590D01*
X6698962Y-16957114D01*
X6708486Y-16976162D01*
X6708486Y-17023781D01*
X6698962Y-17042829D01*
X6689438Y-17052352D01*
X6670390Y-17061876D01*
X6613248Y-17061876D01*
X6594200Y-17052352D01*
X6584676Y-17042829D01*
X6784676Y-16861876D02*
X6784676Y-16899971D01*
X6860867Y-16861876D02*
X6860867Y-16899971D01*
X7156105Y-17138067D02*
X7146581Y-17128543D01*
X7127533Y-17099971D01*
X7118009Y-17080924D01*
X7108486Y-17052352D01*
X7098962Y-17004733D01*
X7098962Y-16966638D01*
X7108486Y-16919019D01*
X7118009Y-16890448D01*
X7127533Y-16871400D01*
X7146581Y-16842829D01*
X7156105Y-16833305D01*
X7337057Y-17061876D02*
X7222771Y-17061876D01*
X7279914Y-17061876D02*
X7279914Y-16861876D01*
X7260867Y-16890448D01*
X7241819Y-16909495D01*
X7222771Y-16919019D01*
X7460867Y-16861876D02*
X7479914Y-16861876D01*
X7498962Y-16871400D01*
X7508486Y-16880924D01*
X7518009Y-16899971D01*
X7527533Y-16938067D01*
X7527533Y-16985686D01*
X7518009Y-17023781D01*
X7508486Y-17042829D01*
X7498962Y-17052352D01*
X7479914Y-17061876D01*
X7460867Y-17061876D01*
X7441819Y-17052352D01*
X7432295Y-17042829D01*
X7422771Y-17023781D01*
X7413248Y-16985686D01*
X7413248Y-16938067D01*
X7422771Y-16899971D01*
X7432295Y-16880924D01*
X7441819Y-16871400D01*
X7460867Y-16861876D01*
X7765628Y-17061876D02*
X7765628Y-16861876D01*
X7851343Y-17061876D02*
X7851343Y-16957114D01*
X7841819Y-16938067D01*
X7822771Y-16928543D01*
X7794200Y-16928543D01*
X7775152Y-16938067D01*
X7765628Y-16947590D01*
X7975152Y-17061876D02*
X7956105Y-17052352D01*
X7946581Y-17042829D01*
X7937057Y-17023781D01*
X7937057Y-16966638D01*
X7946581Y-16947590D01*
X7956105Y-16938067D01*
X7975152Y-16928543D01*
X8003724Y-16928543D01*
X8022771Y-16938067D01*
X8032295Y-16947590D01*
X8041819Y-16966638D01*
X8041819Y-17023781D01*
X8032295Y-17042829D01*
X8022771Y-17052352D01*
X8003724Y-17061876D01*
X7975152Y-17061876D01*
X8156105Y-17061876D02*
X8137057Y-17052352D01*
X8127533Y-17033305D01*
X8127533Y-16861876D01*
X8308486Y-17052352D02*
X8289438Y-17061876D01*
X8251343Y-17061876D01*
X8232295Y-17052352D01*
X8222771Y-17033305D01*
X8222771Y-16957114D01*
X8232295Y-16938067D01*
X8251343Y-16928543D01*
X8289438Y-16928543D01*
X8308486Y-16938067D01*
X8318009Y-16957114D01*
X8318009Y-16976162D01*
X8222771Y-16995210D01*
X8394200Y-17052352D02*
X8413248Y-17061876D01*
X8451343Y-17061876D01*
X8470390Y-17052352D01*
X8479914Y-17033305D01*
X8479914Y-17023781D01*
X8470390Y-17004733D01*
X8451343Y-16995210D01*
X8422771Y-16995210D01*
X8403724Y-16985686D01*
X8394200Y-16966638D01*
X8394200Y-16957114D01*
X8403724Y-16938067D01*
X8422771Y-16928543D01*
X8451343Y-16928543D01*
X8470390Y-16938067D01*
X8546581Y-17138067D02*
X8556105Y-17128543D01*
X8575152Y-17099971D01*
X8584676Y-17080924D01*
X8594200Y-17052352D01*
X8603724Y-17004733D01*
X8603724Y-16966638D01*
X8594200Y-16919019D01*
X8584676Y-16890448D01*
X8575152Y-16871400D01*
X8556105Y-16842829D01*
X8546581Y-16833305D01*
D21*
X3509200Y-17160400D02*
X3509200Y-17310400D01*
X3434200Y-17235400D02*
X3584200Y-17235400D01*
X3584200Y-17235400D02*
G75*
G03*
X3584200Y-17235400I-75000J0D01*
G01*
D11*
X3946581Y-17325876D02*
X3832295Y-17325876D01*
X3889438Y-17325876D02*
X3889438Y-17125876D01*
X3870390Y-17154448D01*
X3851343Y-17173495D01*
X3832295Y-17183019D01*
X4032295Y-17306829D02*
X4041819Y-17316352D01*
X4032295Y-17325876D01*
X4022771Y-17316352D01*
X4032295Y-17306829D01*
X4032295Y-17325876D01*
X4222771Y-17125876D02*
X4127533Y-17125876D01*
X4118009Y-17221114D01*
X4127533Y-17211590D01*
X4146581Y-17202067D01*
X4194200Y-17202067D01*
X4213248Y-17211590D01*
X4222771Y-17221114D01*
X4232295Y-17240162D01*
X4232295Y-17287781D01*
X4222771Y-17306829D01*
X4213248Y-17316352D01*
X4194200Y-17325876D01*
X4146581Y-17325876D01*
X4127533Y-17316352D01*
X4118009Y-17306829D01*
X4356105Y-17125876D02*
X4375152Y-17125876D01*
X4394200Y-17135400D01*
X4403724Y-17144924D01*
X4413248Y-17163971D01*
X4422771Y-17202067D01*
X4422771Y-17249686D01*
X4413248Y-17287781D01*
X4403724Y-17306829D01*
X4394200Y-17316352D01*
X4375152Y-17325876D01*
X4356105Y-17325876D01*
X4337057Y-17316352D01*
X4327533Y-17306829D01*
X4318010Y-17287781D01*
X4308486Y-17249686D01*
X4308486Y-17202067D01*
X4318010Y-17163971D01*
X4327533Y-17144924D01*
X4337057Y-17135400D01*
X4356105Y-17125876D01*
X4546581Y-17125876D02*
X4565629Y-17125876D01*
X4584676Y-17135400D01*
X4594200Y-17144924D01*
X4603724Y-17163971D01*
X4613248Y-17202067D01*
X4613248Y-17249686D01*
X4603724Y-17287781D01*
X4594200Y-17306829D01*
X4584676Y-17316352D01*
X4565629Y-17325876D01*
X4546581Y-17325876D01*
X4527533Y-17316352D01*
X4518010Y-17306829D01*
X4508486Y-17287781D01*
X4498962Y-17249686D01*
X4498962Y-17202067D01*
X4508486Y-17163971D01*
X4518010Y-17144924D01*
X4527533Y-17135400D01*
X4546581Y-17125876D01*
X4698962Y-17325876D02*
X4698962Y-17192543D01*
X4698962Y-17211590D02*
X4708486Y-17202067D01*
X4727533Y-17192543D01*
X4756105Y-17192543D01*
X4775152Y-17202067D01*
X4784676Y-17221114D01*
X4784676Y-17325876D01*
X4784676Y-17221114D02*
X4794200Y-17202067D01*
X4813248Y-17192543D01*
X4841819Y-17192543D01*
X4860867Y-17202067D01*
X4870390Y-17221114D01*
X4870390Y-17325876D01*
X4965629Y-17325876D02*
X4965629Y-17192543D01*
X4965629Y-17211590D02*
X4975152Y-17202067D01*
X4994200Y-17192543D01*
X5022771Y-17192543D01*
X5041819Y-17202067D01*
X5051343Y-17221114D01*
X5051343Y-17325876D01*
X5051343Y-17221114D02*
X5060867Y-17202067D01*
X5079914Y-17192543D01*
X5108486Y-17192543D01*
X5127533Y-17202067D01*
X5137057Y-17221114D01*
X5137057Y-17325876D01*
X5527533Y-17116352D02*
X5356105Y-17373495D01*
X5784676Y-17125876D02*
X5803724Y-17125876D01*
X5822771Y-17135400D01*
X5832295Y-17144924D01*
X5841819Y-17163971D01*
X5851343Y-17202067D01*
X5851343Y-17249686D01*
X5841819Y-17287781D01*
X5832295Y-17306829D01*
X5822771Y-17316352D01*
X5803724Y-17325876D01*
X5784676Y-17325876D01*
X5765628Y-17316352D01*
X5756105Y-17306829D01*
X5746581Y-17287781D01*
X5737057Y-17249686D01*
X5737057Y-17202067D01*
X5746581Y-17163971D01*
X5756105Y-17144924D01*
X5765628Y-17135400D01*
X5784676Y-17125876D01*
X5937057Y-17306829D02*
X5946581Y-17316352D01*
X5937057Y-17325876D01*
X5927533Y-17316352D01*
X5937057Y-17306829D01*
X5937057Y-17325876D01*
X6070390Y-17125876D02*
X6089438Y-17125876D01*
X6108486Y-17135400D01*
X6118009Y-17144924D01*
X6127533Y-17163971D01*
X6137057Y-17202067D01*
X6137057Y-17249686D01*
X6127533Y-17287781D01*
X6118009Y-17306829D01*
X6108486Y-17316352D01*
X6089438Y-17325876D01*
X6070390Y-17325876D01*
X6051343Y-17316352D01*
X6041819Y-17306829D01*
X6032295Y-17287781D01*
X6022771Y-17249686D01*
X6022771Y-17202067D01*
X6032295Y-17163971D01*
X6041819Y-17144924D01*
X6051343Y-17135400D01*
X6070390Y-17125876D01*
X6318009Y-17125876D02*
X6222771Y-17125876D01*
X6213248Y-17221114D01*
X6222771Y-17211590D01*
X6241819Y-17202067D01*
X6289438Y-17202067D01*
X6308486Y-17211590D01*
X6318009Y-17221114D01*
X6327533Y-17240162D01*
X6327533Y-17287781D01*
X6318009Y-17306829D01*
X6308486Y-17316352D01*
X6289438Y-17325876D01*
X6241819Y-17325876D01*
X6222771Y-17316352D01*
X6213248Y-17306829D01*
X6422771Y-17325876D02*
X6460867Y-17325876D01*
X6479914Y-17316352D01*
X6489438Y-17306829D01*
X6508486Y-17278257D01*
X6518009Y-17240162D01*
X6518009Y-17163971D01*
X6508486Y-17144924D01*
X6498962Y-17135400D01*
X6479914Y-17125876D01*
X6441819Y-17125876D01*
X6422771Y-17135400D01*
X6413248Y-17144924D01*
X6403724Y-17163971D01*
X6403724Y-17211590D01*
X6413248Y-17230638D01*
X6422771Y-17240162D01*
X6441819Y-17249686D01*
X6479914Y-17249686D01*
X6498962Y-17240162D01*
X6508486Y-17230638D01*
X6518009Y-17211590D01*
X6708486Y-17325876D02*
X6594200Y-17325876D01*
X6651343Y-17325876D02*
X6651343Y-17125876D01*
X6632295Y-17154448D01*
X6613248Y-17173495D01*
X6594200Y-17183019D01*
X6784676Y-17125876D02*
X6784676Y-17163971D01*
X6860867Y-17125876D02*
X6860867Y-17163971D01*
X7156105Y-17402067D02*
X7146581Y-17392543D01*
X7127533Y-17363971D01*
X7118009Y-17344924D01*
X7108486Y-17316352D01*
X7098962Y-17268733D01*
X7098962Y-17230638D01*
X7108486Y-17183019D01*
X7118009Y-17154448D01*
X7127533Y-17135400D01*
X7146581Y-17106829D01*
X7156105Y-17097305D01*
X7222771Y-17144924D02*
X7232295Y-17135400D01*
X7251343Y-17125876D01*
X7298962Y-17125876D01*
X7318009Y-17135400D01*
X7327533Y-17144924D01*
X7337057Y-17163971D01*
X7337057Y-17183019D01*
X7327533Y-17211590D01*
X7213248Y-17325876D01*
X7337057Y-17325876D01*
X7527533Y-17325876D02*
X7413248Y-17325876D01*
X7470390Y-17325876D02*
X7470390Y-17125876D01*
X7451343Y-17154448D01*
X7432295Y-17173495D01*
X7413248Y-17183019D01*
X7765628Y-17325876D02*
X7765628Y-17125876D01*
X7851343Y-17325876D02*
X7851343Y-17221114D01*
X7841819Y-17202067D01*
X7822771Y-17192543D01*
X7794200Y-17192543D01*
X7775152Y-17202067D01*
X7765628Y-17211590D01*
X7975152Y-17325876D02*
X7956105Y-17316352D01*
X7946581Y-17306829D01*
X7937057Y-17287781D01*
X7937057Y-17230638D01*
X7946581Y-17211590D01*
X7956105Y-17202067D01*
X7975152Y-17192543D01*
X8003724Y-17192543D01*
X8022771Y-17202067D01*
X8032295Y-17211590D01*
X8041819Y-17230638D01*
X8041819Y-17287781D01*
X8032295Y-17306829D01*
X8022771Y-17316352D01*
X8003724Y-17325876D01*
X7975152Y-17325876D01*
X8156105Y-17325876D02*
X8137057Y-17316352D01*
X8127533Y-17297305D01*
X8127533Y-17125876D01*
X8308486Y-17316352D02*
X8289438Y-17325876D01*
X8251343Y-17325876D01*
X8232295Y-17316352D01*
X8222771Y-17297305D01*
X8222771Y-17221114D01*
X8232295Y-17202067D01*
X8251343Y-17192543D01*
X8289438Y-17192543D01*
X8308486Y-17202067D01*
X8318009Y-17221114D01*
X8318009Y-17240162D01*
X8222771Y-17259210D01*
X8394200Y-17316352D02*
X8413248Y-17325876D01*
X8451343Y-17325876D01*
X8470390Y-17316352D01*
X8479914Y-17297305D01*
X8479914Y-17287781D01*
X8470390Y-17268733D01*
X8451343Y-17259210D01*
X8422771Y-17259210D01*
X8403724Y-17249686D01*
X8394200Y-17230638D01*
X8394200Y-17221114D01*
X8403724Y-17202067D01*
X8422771Y-17192543D01*
X8451343Y-17192543D01*
X8470390Y-17202067D01*
X8546581Y-17402067D02*
X8556105Y-17392543D01*
X8575152Y-17363971D01*
X8584676Y-17344924D01*
X8594200Y-17316352D01*
X8603724Y-17268733D01*
X8603724Y-17230638D01*
X8594200Y-17183019D01*
X8584676Y-17154448D01*
X8575152Y-17135400D01*
X8556105Y-17106829D01*
X8546581Y-17097305D01*
M02*
