%TF.GenerationSoftware,KiCad,Pcbnew,(6.0.0-0)*%
%TF.CreationDate,2022-12-13T14:04:23-05:00*%
%TF.ProjectId,mixer,6d697865-722e-46b6-9963-61645f706362,rev?*%
%TF.SameCoordinates,Original*%
%TF.FileFunction,Soldermask,Bot*%
%TF.FilePolarity,Negative*%
%FSLAX46Y46*%
G04 Gerber Fmt 4.6, Leading zero omitted, Abs format (unit mm)*
G04 Created by KiCad (PCBNEW (6.0.0-0)) date 2022-12-13 14:04:23*
%MOMM*%
%LPD*%
G01*
G04 APERTURE LIST*
G04 Aperture macros list*
%AMRoundRect*
0 Rectangle with rounded corners*
0 $1 Rounding radius*
0 $2 $3 $4 $5 $6 $7 $8 $9 X,Y pos of 4 corners*
0 Add a 4 corners polygon primitive as box body*
4,1,4,$2,$3,$4,$5,$6,$7,$8,$9,$2,$3,0*
0 Add four circle primitives for the rounded corners*
1,1,$1+$1,$2,$3*
1,1,$1+$1,$4,$5*
1,1,$1+$1,$6,$7*
1,1,$1+$1,$8,$9*
0 Add four rect primitives between the rounded corners*
20,1,$1+$1,$2,$3,$4,$5,0*
20,1,$1+$1,$4,$5,$6,$7,0*
20,1,$1+$1,$6,$7,$8,$9,0*
20,1,$1+$1,$8,$9,$2,$3,0*%
G04 Aperture macros list end*
%ADD10R,1.930000X1.830000*%
%ADD11C,2.130000*%
%ADD12C,3.000000*%
%ADD13O,2.720000X3.240000*%
%ADD14C,2.000000*%
%ADD15R,1.800000X1.800000*%
%ADD16C,1.800000*%
%ADD17C,1.524000*%
%ADD18RoundRect,0.250000X0.262500X0.450000X-0.262500X0.450000X-0.262500X-0.450000X0.262500X-0.450000X0*%
%ADD19RoundRect,0.250000X-0.262500X-0.450000X0.262500X-0.450000X0.262500X0.450000X-0.262500X0.450000X0*%
%ADD20RoundRect,0.150000X0.150000X-0.825000X0.150000X0.825000X-0.150000X0.825000X-0.150000X-0.825000X0*%
%ADD21RoundRect,0.250000X0.600000X0.600000X-0.600000X0.600000X-0.600000X-0.600000X0.600000X-0.600000X0*%
%ADD22C,1.700000*%
%ADD23RoundRect,0.250000X0.450000X-0.262500X0.450000X0.262500X-0.450000X0.262500X-0.450000X-0.262500X0*%
%ADD24RoundRect,0.150000X-0.150000X0.825000X-0.150000X-0.825000X0.150000X-0.825000X0.150000X0.825000X0*%
%ADD25RoundRect,0.250000X-0.450000X0.262500X-0.450000X-0.262500X0.450000X-0.262500X0.450000X0.262500X0*%
G04 APERTURE END LIST*
D10*
%TO.C,J4*%
X85398000Y-44570000D03*
D11*
X85398000Y-47670000D03*
X85398000Y-55970000D03*
%TD*%
D12*
%TO.C,RV4*%
X83475000Y-94384000D03*
X87475000Y-94384000D03*
X83475000Y-136718000D03*
%TD*%
D13*
%TO.C,RV5*%
X48602000Y-78485000D03*
X39002000Y-78485000D03*
D14*
X41302000Y-85985000D03*
X43802000Y-85985000D03*
X46302000Y-85985000D03*
%TD*%
D15*
%TO.C,D1*%
X43742000Y-59275000D03*
D16*
X43742000Y-61815000D03*
%TD*%
D12*
%TO.C,RV3*%
X69505000Y-94384000D03*
X73505000Y-94384000D03*
X69505000Y-136718000D03*
%TD*%
D17*
%TO.C,SW3*%
X73978000Y-65489500D03*
X68898000Y-65489500D03*
X71438000Y-65489500D03*
X71438000Y-70569500D03*
X73978000Y-70569500D03*
X68898000Y-70569500D03*
%TD*%
D12*
%TO.C,RV1*%
X41819000Y-94384000D03*
X45819000Y-94384000D03*
X41819000Y-136718000D03*
%TD*%
D10*
%TO.C,J10*%
X119180000Y-74072000D03*
D11*
X119180000Y-77172000D03*
X119180000Y-85472000D03*
%TD*%
D10*
%TO.C,J7*%
X129594000Y-59342000D03*
D11*
X129594000Y-62442000D03*
X129594000Y-70742000D03*
%TD*%
D10*
%TO.C,J8*%
X119180000Y-59342000D03*
D11*
X119180000Y-62442000D03*
X119180000Y-70742000D03*
%TD*%
D17*
%TO.C,SW1*%
X46292000Y-65489500D03*
X41212000Y-65489500D03*
X43752000Y-65489500D03*
X43752000Y-70569500D03*
X46292000Y-70569500D03*
X41212000Y-70569500D03*
%TD*%
D10*
%TO.C,J5*%
X129594000Y-44570000D03*
D11*
X129594000Y-47670000D03*
X129594000Y-55970000D03*
%TD*%
D12*
%TO.C,RV2*%
X55595000Y-94384000D03*
X59595000Y-94384000D03*
X55595000Y-136718000D03*
%TD*%
D13*
%TO.C,RV6*%
X52778000Y-78485000D03*
X62378000Y-78485000D03*
D14*
X55078000Y-85985000D03*
X57578000Y-85985000D03*
X60078000Y-85985000D03*
%TD*%
D10*
%TO.C,J1*%
X43742000Y-44570000D03*
D11*
X43742000Y-47670000D03*
X43742000Y-55970000D03*
%TD*%
D12*
%TO.C,RV11*%
X97681000Y-94416000D03*
X101681000Y-94416000D03*
X97681000Y-136750000D03*
%TD*%
D13*
%TO.C,RV8*%
X90258000Y-78485000D03*
X80658000Y-78485000D03*
D14*
X82958000Y-85985000D03*
X85458000Y-85985000D03*
X87958000Y-85985000D03*
%TD*%
D10*
%TO.C,J3*%
X71428000Y-44570000D03*
D11*
X71428000Y-47670000D03*
X71428000Y-55970000D03*
%TD*%
D10*
%TO.C,J6*%
X119180000Y-44570000D03*
D11*
X119180000Y-47670000D03*
X119180000Y-55970000D03*
%TD*%
D10*
%TO.C,J9*%
X129594000Y-74104000D03*
D11*
X129594000Y-77204000D03*
X129594000Y-85504000D03*
%TD*%
D10*
%TO.C,J2*%
X57518000Y-44570000D03*
D11*
X57518000Y-47670000D03*
X57518000Y-55970000D03*
%TD*%
D15*
%TO.C,D3*%
X71428000Y-59275000D03*
D16*
X71428000Y-61815000D03*
%TD*%
D15*
%TO.C,D4*%
X85398000Y-59275000D03*
D16*
X85398000Y-61815000D03*
%TD*%
D13*
%TO.C,RV7*%
X66688000Y-78485000D03*
X76288000Y-78485000D03*
D14*
X68988000Y-85985000D03*
X71488000Y-85985000D03*
X73988000Y-85985000D03*
%TD*%
D18*
%TO.C,R12*%
X74626500Y-118462000D03*
X72801500Y-118462000D03*
%TD*%
D12*
%TO.C,RV10*%
X125586000Y-94416000D03*
X129586000Y-94416000D03*
X125586000Y-136750000D03*
%TD*%
%TO.C,RV9*%
X111905000Y-94416000D03*
X115905000Y-94416000D03*
X111905000Y-136750000D03*
%TD*%
D17*
%TO.C,SW4*%
X87948000Y-65489500D03*
X82868000Y-65489500D03*
X85408000Y-65489500D03*
X85408000Y-70569500D03*
X87948000Y-70569500D03*
X82868000Y-70569500D03*
%TD*%
D15*
%TO.C,D2*%
X57549000Y-59275000D03*
D16*
X57549000Y-61815000D03*
%TD*%
D17*
%TO.C,SW2*%
X60099000Y-65489500D03*
X55019000Y-65489500D03*
X57559000Y-65489500D03*
X57559000Y-70569500D03*
X60099000Y-70569500D03*
X55019000Y-70569500D03*
%TD*%
D18*
%TO.C,R49*%
X113742500Y-123542000D03*
X111917500Y-123542000D03*
%TD*%
D19*
%TO.C,R46*%
X111917500Y-121510000D03*
X113742500Y-121510000D03*
%TD*%
D18*
%TO.C,R38*%
X119330500Y-117192000D03*
X117505500Y-117192000D03*
%TD*%
%TO.C,R50*%
X113742500Y-110842000D03*
X111917500Y-110842000D03*
%TD*%
%TO.C,R22*%
X66498500Y-124558000D03*
X64673500Y-124558000D03*
%TD*%
%TO.C,R40*%
X93573000Y-115160000D03*
X91748000Y-115160000D03*
%TD*%
%TO.C,R30*%
X70054500Y-124558000D03*
X68229500Y-124558000D03*
%TD*%
D20*
%TO.C,U5*%
X125149000Y-118651000D03*
X123879000Y-118651000D03*
X122609000Y-118651000D03*
X121339000Y-118651000D03*
X121339000Y-113701000D03*
X122609000Y-113701000D03*
X123879000Y-113701000D03*
X125149000Y-113701000D03*
%TD*%
D18*
%TO.C,R11*%
X66498500Y-118462000D03*
X64673500Y-118462000D03*
%TD*%
%TO.C,R23*%
X74626500Y-122526000D03*
X72801500Y-122526000D03*
%TD*%
D19*
%TO.C,R14*%
X55680000Y-120494000D03*
X57505000Y-120494000D03*
%TD*%
D18*
%TO.C,R51*%
X124156500Y-108556000D03*
X122331500Y-108556000D03*
%TD*%
D21*
%TO.C,U1*%
X98850500Y-48624000D03*
D22*
X96310500Y-48624000D03*
X96310500Y-51152000D03*
X98850500Y-51164000D03*
X96310500Y-53692000D03*
X98850500Y-53704000D03*
X98850500Y-56244000D03*
X96310500Y-56232000D03*
X96310500Y-58772000D03*
X98850500Y-58784000D03*
X96310500Y-61312000D03*
X98850500Y-61324000D03*
X98850500Y-63864000D03*
X96310500Y-63852000D03*
X98850500Y-66404000D03*
X96310500Y-66392000D03*
%TD*%
D23*
%TO.C,R7*%
X67872000Y-61462500D03*
X67872000Y-59637500D03*
%TD*%
D24*
%TO.C,U4*%
X110925000Y-113701000D03*
X112195000Y-113701000D03*
X113465000Y-113701000D03*
X114735000Y-113701000D03*
X114735000Y-118651000D03*
X113465000Y-118651000D03*
X112195000Y-118651000D03*
X110925000Y-118651000D03*
%TD*%
D18*
%TO.C,R47*%
X124156500Y-110842000D03*
X122331500Y-110842000D03*
%TD*%
D19*
%TO.C,R13*%
X47806000Y-120494000D03*
X49631000Y-120494000D03*
%TD*%
D25*
%TO.C,R1*%
X49076000Y-68781500D03*
X49076000Y-70606500D03*
%TD*%
D23*
%TO.C,R6*%
X54156000Y-61462500D03*
X54156000Y-59637500D03*
%TD*%
D20*
%TO.C,U3*%
X72063000Y-113317000D03*
X70793000Y-113317000D03*
X69523000Y-113317000D03*
X68253000Y-113317000D03*
X68253000Y-108367000D03*
X69523000Y-108367000D03*
X70793000Y-108367000D03*
X72063000Y-108367000D03*
%TD*%
D25*
%TO.C,R44*%
X127308000Y-115263500D03*
X127308000Y-117088500D03*
%TD*%
D18*
%TO.C,R29*%
X70054500Y-122526000D03*
X68229500Y-122526000D03*
%TD*%
%TO.C,R42*%
X93573000Y-119224000D03*
X91748000Y-119224000D03*
%TD*%
%TO.C,R9*%
X49631000Y-118462000D03*
X47806000Y-118462000D03*
%TD*%
D25*
%TO.C,R4*%
X90986000Y-68781500D03*
X90986000Y-70606500D03*
%TD*%
D18*
%TO.C,R34*%
X106630500Y-115414000D03*
X104805500Y-115414000D03*
%TD*%
%TO.C,R10*%
X57505000Y-118462000D03*
X55680000Y-118462000D03*
%TD*%
D20*
%TO.C,U2*%
X54791000Y-113317000D03*
X53521000Y-113317000D03*
X52251000Y-113317000D03*
X50981000Y-113317000D03*
X50981000Y-108367000D03*
X52251000Y-108367000D03*
X53521000Y-108367000D03*
X54791000Y-108367000D03*
%TD*%
D18*
%TO.C,R27*%
X61061000Y-122526000D03*
X59236000Y-122526000D03*
%TD*%
%TO.C,R36*%
X106630500Y-119478000D03*
X104805500Y-119478000D03*
%TD*%
%TO.C,R21*%
X66498500Y-122526000D03*
X64673500Y-122526000D03*
%TD*%
D23*
%TO.C,R5*%
X40186000Y-61462500D03*
X40186000Y-59637500D03*
%TD*%
D18*
%TO.C,R41*%
X93573000Y-117192000D03*
X91748000Y-117192000D03*
%TD*%
%TO.C,R31*%
X78182500Y-122526000D03*
X76357500Y-122526000D03*
%TD*%
D19*
%TO.C,R15*%
X64673500Y-120494000D03*
X66498500Y-120494000D03*
%TD*%
%TO.C,R48*%
X98709500Y-121510000D03*
X100534500Y-121510000D03*
%TD*%
D25*
%TO.C,R52*%
X129340000Y-115263500D03*
X129340000Y-117088500D03*
%TD*%
D19*
%TO.C,R16*%
X72801500Y-120494000D03*
X74626500Y-120494000D03*
%TD*%
D18*
%TO.C,R39*%
X93573000Y-113128000D03*
X91748000Y-113128000D03*
%TD*%
%TO.C,R17*%
X49631000Y-124558000D03*
X47806000Y-124558000D03*
%TD*%
D23*
%TO.C,R8*%
X81842000Y-61462500D03*
X81842000Y-59637500D03*
%TD*%
D18*
%TO.C,R37*%
X119330500Y-115160000D03*
X117505500Y-115160000D03*
%TD*%
%TO.C,R32*%
X78182500Y-124558000D03*
X76357500Y-124558000D03*
%TD*%
D23*
%TO.C,R43*%
X108766000Y-117342500D03*
X108766000Y-115517500D03*
%TD*%
D25*
%TO.C,R2*%
X63046000Y-68781500D03*
X63046000Y-70606500D03*
%TD*%
D18*
%TO.C,R18*%
X49631000Y-122526000D03*
X47806000Y-122526000D03*
%TD*%
%TO.C,R20*%
X57505000Y-124558000D03*
X55680000Y-124558000D03*
%TD*%
%TO.C,R33*%
X106630500Y-113382000D03*
X104805500Y-113382000D03*
%TD*%
D23*
%TO.C,R45*%
X95558000Y-117088500D03*
X95558000Y-115263500D03*
%TD*%
D18*
%TO.C,R19*%
X57505000Y-122526000D03*
X55680000Y-122526000D03*
%TD*%
%TO.C,R54*%
X100534500Y-111096000D03*
X98709500Y-111096000D03*
%TD*%
%TO.C,R35*%
X106630500Y-117446000D03*
X104805500Y-117446000D03*
%TD*%
%TO.C,R26*%
X53187000Y-122526000D03*
X51362000Y-122526000D03*
%TD*%
%TO.C,R53*%
X100534500Y-123542000D03*
X98709500Y-123542000D03*
%TD*%
%TO.C,R25*%
X53187000Y-124558000D03*
X51362000Y-124558000D03*
%TD*%
%TO.C,R24*%
X74626500Y-124558000D03*
X72801500Y-124558000D03*
%TD*%
D24*
%TO.C,U6*%
X97717000Y-113701000D03*
X98987000Y-113701000D03*
X100257000Y-113701000D03*
X101527000Y-113701000D03*
X101527000Y-118651000D03*
X100257000Y-118651000D03*
X98987000Y-118651000D03*
X97717000Y-118651000D03*
%TD*%
D25*
%TO.C,R3*%
X76762000Y-68781500D03*
X76762000Y-70606500D03*
%TD*%
D18*
%TO.C,R28*%
X61061000Y-124558000D03*
X59236000Y-124558000D03*
%TD*%
M02*
