%TF.GenerationSoftware,KiCad,Pcbnew,(6.0.0-0)*%
%TF.CreationDate,2022-11-23T09:42:26-05:00*%
%TF.ProjectId,Breakout_DPDT,42726561-6b6f-4757-945f-445044542e6b,rev?*%
%TF.SameCoordinates,Original*%
%TF.FileFunction,Legend,Bot*%
%TF.FilePolarity,Positive*%
%FSLAX46Y46*%
G04 Gerber Fmt 4.6, Leading zero omitted, Abs format (unit mm)*
G04 Created by KiCad (PCBNEW (6.0.0-0)) date 2022-11-23 09:42:26*
%MOMM*%
%LPD*%
G01*
G04 APERTURE LIST*
%ADD10C,0.150000*%
G04 APERTURE END LIST*
D10*
X158456380Y-115538666D02*
X159170666Y-115538666D01*
X159313523Y-115491047D01*
X159408761Y-115395809D01*
X159456380Y-115252952D01*
X159456380Y-115157714D01*
X159456380Y-116491047D02*
X159456380Y-116014857D01*
X158456380Y-116014857D01*
X159361142Y-117395809D02*
X159408761Y-117348190D01*
X159456380Y-117205333D01*
X159456380Y-117110095D01*
X159408761Y-116967238D01*
X159313523Y-116872000D01*
X159218285Y-116824380D01*
X159027809Y-116776761D01*
X158884952Y-116776761D01*
X158694476Y-116824380D01*
X158599238Y-116872000D01*
X158504000Y-116967238D01*
X158456380Y-117110095D01*
X158456380Y-117205333D01*
X158504000Y-117348190D01*
X158551619Y-117395809D01*
X158456380Y-118110095D02*
X159170666Y-118110095D01*
X159313523Y-118062476D01*
X159408761Y-117967238D01*
X159456380Y-117824380D01*
X159456380Y-117729142D01*
X159456380Y-119062476D02*
X159456380Y-118586285D01*
X158456380Y-118586285D01*
X159361142Y-119967238D02*
X159408761Y-119919619D01*
X159456380Y-119776761D01*
X159456380Y-119681523D01*
X159408761Y-119538666D01*
X159313523Y-119443428D01*
X159218285Y-119395809D01*
X159027809Y-119348190D01*
X158884952Y-119348190D01*
X158694476Y-119395809D01*
X158599238Y-119443428D01*
X158504000Y-119538666D01*
X158456380Y-119681523D01*
X158456380Y-119776761D01*
X158504000Y-119919619D01*
X158551619Y-119967238D01*
X158456380Y-120681523D02*
X159170666Y-120681523D01*
X159313523Y-120633904D01*
X159408761Y-120538666D01*
X159456380Y-120395809D01*
X159456380Y-120300571D01*
X159456380Y-121633904D02*
X159456380Y-121157714D01*
X158456380Y-121157714D01*
X159361142Y-122538666D02*
X159408761Y-122491047D01*
X159456380Y-122348190D01*
X159456380Y-122252952D01*
X159408761Y-122110095D01*
X159313523Y-122014857D01*
X159218285Y-121967238D01*
X159027809Y-121919619D01*
X158884952Y-121919619D01*
X158694476Y-121967238D01*
X158599238Y-122014857D01*
X158504000Y-122110095D01*
X158456380Y-122252952D01*
X158456380Y-122348190D01*
X158504000Y-122491047D01*
X158551619Y-122538666D01*
M02*
