%TF.GenerationSoftware,KiCad,Pcbnew,(6.0.0-0)*%
%TF.CreationDate,2022-11-23T09:42:26-05:00*%
%TF.ProjectId,Breakout_DPDT,42726561-6b6f-4757-945f-445044542e6b,rev?*%
%TF.SameCoordinates,Original*%
%TF.FileFunction,Legend,Top*%
%TF.FilePolarity,Positive*%
%FSLAX46Y46*%
G04 Gerber Fmt 4.6, Leading zero omitted, Abs format (unit mm)*
G04 Created by KiCad (PCBNEW (6.0.0-0)) date 2022-11-23 09:42:26*
%MOMM*%
%LPD*%
G01*
G04 APERTURE LIST*
%ADD10C,0.150000*%
%ADD11C,0.120000*%
G04 APERTURE END LIST*
D10*
X81745714Y-128166380D02*
X81174285Y-128166380D01*
X81460000Y-128166380D02*
X81460000Y-127166380D01*
X81364761Y-127309238D01*
X81269523Y-127404476D01*
X81174285Y-127452095D01*
X137745714Y-44894380D02*
X137174285Y-44894380D01*
X137460000Y-44894380D02*
X137460000Y-43894380D01*
X137364761Y-44037238D01*
X137269523Y-44132476D01*
X137174285Y-44180095D01*
X137745714Y-88894380D02*
X137174285Y-88894380D01*
X137460000Y-88894380D02*
X137460000Y-87894380D01*
X137364761Y-88037238D01*
X137269523Y-88132476D01*
X137174285Y-88180095D01*
X140309523Y-88799142D02*
X140261904Y-88846761D01*
X140119047Y-88894380D01*
X140023809Y-88894380D01*
X139880952Y-88846761D01*
X139785714Y-88751523D01*
X139738095Y-88656285D01*
X139690476Y-88465809D01*
X139690476Y-88322952D01*
X139738095Y-88132476D01*
X139785714Y-88037238D01*
X139880952Y-87942000D01*
X140023809Y-87894380D01*
X140119047Y-87894380D01*
X140261904Y-87942000D01*
X140309523Y-87989619D01*
X100254285Y-109989619D02*
X100301904Y-109942000D01*
X100397142Y-109894380D01*
X100635238Y-109894380D01*
X100730476Y-109942000D01*
X100778095Y-109989619D01*
X100825714Y-110084857D01*
X100825714Y-110180095D01*
X100778095Y-110322952D01*
X100206666Y-110894380D01*
X100825714Y-110894380D01*
X112309523Y-62071142D02*
X112261904Y-62118761D01*
X112119047Y-62166380D01*
X112023809Y-62166380D01*
X111880952Y-62118761D01*
X111785714Y-62023523D01*
X111738095Y-61928285D01*
X111690476Y-61737809D01*
X111690476Y-61594952D01*
X111738095Y-61404476D01*
X111785714Y-61309238D01*
X111880952Y-61214000D01*
X112023809Y-61166380D01*
X112119047Y-61166380D01*
X112261904Y-61214000D01*
X112309523Y-61261619D01*
X70309523Y-110799142D02*
X70261904Y-110846761D01*
X70119047Y-110894380D01*
X70023809Y-110894380D01*
X69880952Y-110846761D01*
X69785714Y-110751523D01*
X69738095Y-110656285D01*
X69690476Y-110465809D01*
X69690476Y-110322952D01*
X69738095Y-110132476D01*
X69785714Y-110037238D01*
X69880952Y-109942000D01*
X70023809Y-109894380D01*
X70119047Y-109894380D01*
X70261904Y-109942000D01*
X70309523Y-109989619D01*
X81745714Y-62166380D02*
X81174285Y-62166380D01*
X81460000Y-62166380D02*
X81460000Y-61166380D01*
X81364761Y-61309238D01*
X81269523Y-61404476D01*
X81174285Y-61452095D01*
X112309523Y-110799142D02*
X112261904Y-110846761D01*
X112119047Y-110894380D01*
X112023809Y-110894380D01*
X111880952Y-110846761D01*
X111785714Y-110751523D01*
X111738095Y-110656285D01*
X111690476Y-110465809D01*
X111690476Y-110322952D01*
X111738095Y-110132476D01*
X111785714Y-110037238D01*
X111880952Y-109942000D01*
X112023809Y-109894380D01*
X112119047Y-109894380D01*
X112261904Y-109942000D01*
X112309523Y-109989619D01*
X140309523Y-84071142D02*
X140261904Y-84118761D01*
X140119047Y-84166380D01*
X140023809Y-84166380D01*
X139880952Y-84118761D01*
X139785714Y-84023523D01*
X139738095Y-83928285D01*
X139690476Y-83737809D01*
X139690476Y-83594952D01*
X139738095Y-83404476D01*
X139785714Y-83309238D01*
X139880952Y-83214000D01*
X140023809Y-83166380D01*
X140119047Y-83166380D01*
X140261904Y-83214000D01*
X140309523Y-83261619D01*
X67745714Y-106166380D02*
X67174285Y-106166380D01*
X67460000Y-106166380D02*
X67460000Y-105166380D01*
X67364761Y-105309238D01*
X67269523Y-105404476D01*
X67174285Y-105452095D01*
X156254285Y-65989619D02*
X156301904Y-65942000D01*
X156397142Y-65894380D01*
X156635238Y-65894380D01*
X156730476Y-65942000D01*
X156778095Y-65989619D01*
X156825714Y-66084857D01*
X156825714Y-66180095D01*
X156778095Y-66322952D01*
X156206666Y-66894380D01*
X156825714Y-66894380D01*
X151745714Y-106166380D02*
X151174285Y-106166380D01*
X151460000Y-106166380D02*
X151460000Y-105166380D01*
X151364761Y-105309238D01*
X151269523Y-105404476D01*
X151174285Y-105452095D01*
X126309523Y-106071142D02*
X126261904Y-106118761D01*
X126119047Y-106166380D01*
X126023809Y-106166380D01*
X125880952Y-106118761D01*
X125785714Y-106023523D01*
X125738095Y-105928285D01*
X125690476Y-105737809D01*
X125690476Y-105594952D01*
X125738095Y-105404476D01*
X125785714Y-105309238D01*
X125880952Y-105214000D01*
X126023809Y-105166380D01*
X126119047Y-105166380D01*
X126261904Y-105214000D01*
X126309523Y-105261619D01*
X72254285Y-65989619D02*
X72301904Y-65942000D01*
X72397142Y-65894380D01*
X72635238Y-65894380D01*
X72730476Y-65942000D01*
X72778095Y-65989619D01*
X72825714Y-66084857D01*
X72825714Y-66180095D01*
X72778095Y-66322952D01*
X72206666Y-66894380D01*
X72825714Y-66894380D01*
X114254285Y-61261619D02*
X114301904Y-61214000D01*
X114397142Y-61166380D01*
X114635238Y-61166380D01*
X114730476Y-61214000D01*
X114778095Y-61261619D01*
X114825714Y-61356857D01*
X114825714Y-61452095D01*
X114778095Y-61594952D01*
X114206666Y-62166380D01*
X114825714Y-62166380D01*
X72254285Y-43989619D02*
X72301904Y-43942000D01*
X72397142Y-43894380D01*
X72635238Y-43894380D01*
X72730476Y-43942000D01*
X72778095Y-43989619D01*
X72825714Y-44084857D01*
X72825714Y-44180095D01*
X72778095Y-44322952D01*
X72206666Y-44894380D01*
X72825714Y-44894380D01*
X126309523Y-62071142D02*
X126261904Y-62118761D01*
X126119047Y-62166380D01*
X126023809Y-62166380D01*
X125880952Y-62118761D01*
X125785714Y-62023523D01*
X125738095Y-61928285D01*
X125690476Y-61737809D01*
X125690476Y-61594952D01*
X125738095Y-61404476D01*
X125785714Y-61309238D01*
X125880952Y-61214000D01*
X126023809Y-61166380D01*
X126119047Y-61166380D01*
X126261904Y-61214000D01*
X126309523Y-61261619D01*
X67745714Y-88894380D02*
X67174285Y-88894380D01*
X67460000Y-88894380D02*
X67460000Y-87894380D01*
X67364761Y-88037238D01*
X67269523Y-88132476D01*
X67174285Y-88180095D01*
X123745714Y-62166380D02*
X123174285Y-62166380D01*
X123460000Y-62166380D02*
X123460000Y-61166380D01*
X123364761Y-61309238D01*
X123269523Y-61404476D01*
X123174285Y-61452095D01*
X81745714Y-66894380D02*
X81174285Y-66894380D01*
X81460000Y-66894380D02*
X81460000Y-65894380D01*
X81364761Y-66037238D01*
X81269523Y-66132476D01*
X81174285Y-66180095D01*
X84309523Y-110799142D02*
X84261904Y-110846761D01*
X84119047Y-110894380D01*
X84023809Y-110894380D01*
X83880952Y-110846761D01*
X83785714Y-110751523D01*
X83738095Y-110656285D01*
X83690476Y-110465809D01*
X83690476Y-110322952D01*
X83738095Y-110132476D01*
X83785714Y-110037238D01*
X83880952Y-109942000D01*
X84023809Y-109894380D01*
X84119047Y-109894380D01*
X84261904Y-109942000D01*
X84309523Y-109989619D01*
X126309523Y-66799142D02*
X126261904Y-66846761D01*
X126119047Y-66894380D01*
X126023809Y-66894380D01*
X125880952Y-66846761D01*
X125785714Y-66751523D01*
X125738095Y-66656285D01*
X125690476Y-66465809D01*
X125690476Y-66322952D01*
X125738095Y-66132476D01*
X125785714Y-66037238D01*
X125880952Y-65942000D01*
X126023809Y-65894380D01*
X126119047Y-65894380D01*
X126261904Y-65942000D01*
X126309523Y-65989619D01*
X151745714Y-62166380D02*
X151174285Y-62166380D01*
X151460000Y-62166380D02*
X151460000Y-61166380D01*
X151364761Y-61309238D01*
X151269523Y-61404476D01*
X151174285Y-61452095D01*
X156254285Y-87989619D02*
X156301904Y-87942000D01*
X156397142Y-87894380D01*
X156635238Y-87894380D01*
X156730476Y-87942000D01*
X156778095Y-87989619D01*
X156825714Y-88084857D01*
X156825714Y-88180095D01*
X156778095Y-88322952D01*
X156206666Y-88894380D01*
X156825714Y-88894380D01*
X114254285Y-83261619D02*
X114301904Y-83214000D01*
X114397142Y-83166380D01*
X114635238Y-83166380D01*
X114730476Y-83214000D01*
X114778095Y-83261619D01*
X114825714Y-83356857D01*
X114825714Y-83452095D01*
X114778095Y-83594952D01*
X114206666Y-84166380D01*
X114825714Y-84166380D01*
X128254285Y-43989619D02*
X128301904Y-43942000D01*
X128397142Y-43894380D01*
X128635238Y-43894380D01*
X128730476Y-43942000D01*
X128778095Y-43989619D01*
X128825714Y-44084857D01*
X128825714Y-44180095D01*
X128778095Y-44322952D01*
X128206666Y-44894380D01*
X128825714Y-44894380D01*
X151745714Y-88894380D02*
X151174285Y-88894380D01*
X151460000Y-88894380D02*
X151460000Y-87894380D01*
X151364761Y-88037238D01*
X151269523Y-88132476D01*
X151174285Y-88180095D01*
X81745714Y-84166380D02*
X81174285Y-84166380D01*
X81460000Y-84166380D02*
X81460000Y-83166380D01*
X81364761Y-83309238D01*
X81269523Y-83404476D01*
X81174285Y-83452095D01*
X72254285Y-109989619D02*
X72301904Y-109942000D01*
X72397142Y-109894380D01*
X72635238Y-109894380D01*
X72730476Y-109942000D01*
X72778095Y-109989619D01*
X72825714Y-110084857D01*
X72825714Y-110180095D01*
X72778095Y-110322952D01*
X72206666Y-110894380D01*
X72825714Y-110894380D01*
X95745714Y-44894380D02*
X95174285Y-44894380D01*
X95460000Y-44894380D02*
X95460000Y-43894380D01*
X95364761Y-44037238D01*
X95269523Y-44132476D01*
X95174285Y-44180095D01*
X123745714Y-84166380D02*
X123174285Y-84166380D01*
X123460000Y-84166380D02*
X123460000Y-83166380D01*
X123364761Y-83309238D01*
X123269523Y-83404476D01*
X123174285Y-83452095D01*
X86254285Y-61261619D02*
X86301904Y-61214000D01*
X86397142Y-61166380D01*
X86635238Y-61166380D01*
X86730476Y-61214000D01*
X86778095Y-61261619D01*
X86825714Y-61356857D01*
X86825714Y-61452095D01*
X86778095Y-61594952D01*
X86206666Y-62166380D01*
X86825714Y-62166380D01*
X128254285Y-109989619D02*
X128301904Y-109942000D01*
X128397142Y-109894380D01*
X128635238Y-109894380D01*
X128730476Y-109942000D01*
X128778095Y-109989619D01*
X128825714Y-110084857D01*
X128825714Y-110180095D01*
X128778095Y-110322952D01*
X128206666Y-110894380D01*
X128825714Y-110894380D01*
X81745714Y-106166380D02*
X81174285Y-106166380D01*
X81460000Y-106166380D02*
X81460000Y-105166380D01*
X81364761Y-105309238D01*
X81269523Y-105404476D01*
X81174285Y-105452095D01*
X140309523Y-66799142D02*
X140261904Y-66846761D01*
X140119047Y-66894380D01*
X140023809Y-66894380D01*
X139880952Y-66846761D01*
X139785714Y-66751523D01*
X139738095Y-66656285D01*
X139690476Y-66465809D01*
X139690476Y-66322952D01*
X139738095Y-66132476D01*
X139785714Y-66037238D01*
X139880952Y-65942000D01*
X140023809Y-65894380D01*
X140119047Y-65894380D01*
X140261904Y-65942000D01*
X140309523Y-65989619D01*
X123745714Y-44894380D02*
X123174285Y-44894380D01*
X123460000Y-44894380D02*
X123460000Y-43894380D01*
X123364761Y-44037238D01*
X123269523Y-44132476D01*
X123174285Y-44180095D01*
X154309523Y-44799142D02*
X154261904Y-44846761D01*
X154119047Y-44894380D01*
X154023809Y-44894380D01*
X153880952Y-44846761D01*
X153785714Y-44751523D01*
X153738095Y-44656285D01*
X153690476Y-44465809D01*
X153690476Y-44322952D01*
X153738095Y-44132476D01*
X153785714Y-44037238D01*
X153880952Y-43942000D01*
X154023809Y-43894380D01*
X154119047Y-43894380D01*
X154261904Y-43942000D01*
X154309523Y-43989619D01*
X112309523Y-106071142D02*
X112261904Y-106118761D01*
X112119047Y-106166380D01*
X112023809Y-106166380D01*
X111880952Y-106118761D01*
X111785714Y-106023523D01*
X111738095Y-105928285D01*
X111690476Y-105737809D01*
X111690476Y-105594952D01*
X111738095Y-105404476D01*
X111785714Y-105309238D01*
X111880952Y-105214000D01*
X112023809Y-105166380D01*
X112119047Y-105166380D01*
X112261904Y-105214000D01*
X112309523Y-105261619D01*
X140309523Y-128071142D02*
X140261904Y-128118761D01*
X140119047Y-128166380D01*
X140023809Y-128166380D01*
X139880952Y-128118761D01*
X139785714Y-128023523D01*
X139738095Y-127928285D01*
X139690476Y-127737809D01*
X139690476Y-127594952D01*
X139738095Y-127404476D01*
X139785714Y-127309238D01*
X139880952Y-127214000D01*
X140023809Y-127166380D01*
X140119047Y-127166380D01*
X140261904Y-127214000D01*
X140309523Y-127261619D01*
X114254285Y-127261619D02*
X114301904Y-127214000D01*
X114397142Y-127166380D01*
X114635238Y-127166380D01*
X114730476Y-127214000D01*
X114778095Y-127261619D01*
X114825714Y-127356857D01*
X114825714Y-127452095D01*
X114778095Y-127594952D01*
X114206666Y-128166380D01*
X114825714Y-128166380D01*
X84309523Y-128071142D02*
X84261904Y-128118761D01*
X84119047Y-128166380D01*
X84023809Y-128166380D01*
X83880952Y-128118761D01*
X83785714Y-128023523D01*
X83738095Y-127928285D01*
X83690476Y-127737809D01*
X83690476Y-127594952D01*
X83738095Y-127404476D01*
X83785714Y-127309238D01*
X83880952Y-127214000D01*
X84023809Y-127166380D01*
X84119047Y-127166380D01*
X84261904Y-127214000D01*
X84309523Y-127261619D01*
X86254285Y-87989619D02*
X86301904Y-87942000D01*
X86397142Y-87894380D01*
X86635238Y-87894380D01*
X86730476Y-87942000D01*
X86778095Y-87989619D01*
X86825714Y-88084857D01*
X86825714Y-88180095D01*
X86778095Y-88322952D01*
X86206666Y-88894380D01*
X86825714Y-88894380D01*
X109745714Y-106166380D02*
X109174285Y-106166380D01*
X109460000Y-106166380D02*
X109460000Y-105166380D01*
X109364761Y-105309238D01*
X109269523Y-105404476D01*
X109174285Y-105452095D01*
X86254285Y-65989619D02*
X86301904Y-65942000D01*
X86397142Y-65894380D01*
X86635238Y-65894380D01*
X86730476Y-65942000D01*
X86778095Y-65989619D01*
X86825714Y-66084857D01*
X86825714Y-66180095D01*
X86778095Y-66322952D01*
X86206666Y-66894380D01*
X86825714Y-66894380D01*
X81745714Y-88894380D02*
X81174285Y-88894380D01*
X81460000Y-88894380D02*
X81460000Y-87894380D01*
X81364761Y-88037238D01*
X81269523Y-88132476D01*
X81174285Y-88180095D01*
X137745714Y-66894380D02*
X137174285Y-66894380D01*
X137460000Y-66894380D02*
X137460000Y-65894380D01*
X137364761Y-66037238D01*
X137269523Y-66132476D01*
X137174285Y-66180095D01*
X112309523Y-66799142D02*
X112261904Y-66846761D01*
X112119047Y-66894380D01*
X112023809Y-66894380D01*
X111880952Y-66846761D01*
X111785714Y-66751523D01*
X111738095Y-66656285D01*
X111690476Y-66465809D01*
X111690476Y-66322952D01*
X111738095Y-66132476D01*
X111785714Y-66037238D01*
X111880952Y-65942000D01*
X112023809Y-65894380D01*
X112119047Y-65894380D01*
X112261904Y-65942000D01*
X112309523Y-65989619D01*
X109745714Y-128166380D02*
X109174285Y-128166380D01*
X109460000Y-128166380D02*
X109460000Y-127166380D01*
X109364761Y-127309238D01*
X109269523Y-127404476D01*
X109174285Y-127452095D01*
X126309523Y-110799142D02*
X126261904Y-110846761D01*
X126119047Y-110894380D01*
X126023809Y-110894380D01*
X125880952Y-110846761D01*
X125785714Y-110751523D01*
X125738095Y-110656285D01*
X125690476Y-110465809D01*
X125690476Y-110322952D01*
X125738095Y-110132476D01*
X125785714Y-110037238D01*
X125880952Y-109942000D01*
X126023809Y-109894380D01*
X126119047Y-109894380D01*
X126261904Y-109942000D01*
X126309523Y-109989619D01*
X67745714Y-62166380D02*
X67174285Y-62166380D01*
X67460000Y-62166380D02*
X67460000Y-61166380D01*
X67364761Y-61309238D01*
X67269523Y-61404476D01*
X67174285Y-61452095D01*
X123745714Y-88894380D02*
X123174285Y-88894380D01*
X123460000Y-88894380D02*
X123460000Y-87894380D01*
X123364761Y-88037238D01*
X123269523Y-88132476D01*
X123174285Y-88180095D01*
X95745714Y-88894380D02*
X95174285Y-88894380D01*
X95460000Y-88894380D02*
X95460000Y-87894380D01*
X95364761Y-88037238D01*
X95269523Y-88132476D01*
X95174285Y-88180095D01*
X100254285Y-105261619D02*
X100301904Y-105214000D01*
X100397142Y-105166380D01*
X100635238Y-105166380D01*
X100730476Y-105214000D01*
X100778095Y-105261619D01*
X100825714Y-105356857D01*
X100825714Y-105452095D01*
X100778095Y-105594952D01*
X100206666Y-106166380D01*
X100825714Y-106166380D01*
X123745714Y-110894380D02*
X123174285Y-110894380D01*
X123460000Y-110894380D02*
X123460000Y-109894380D01*
X123364761Y-110037238D01*
X123269523Y-110132476D01*
X123174285Y-110180095D01*
X95745714Y-110894380D02*
X95174285Y-110894380D01*
X95460000Y-110894380D02*
X95460000Y-109894380D01*
X95364761Y-110037238D01*
X95269523Y-110132476D01*
X95174285Y-110180095D01*
X156254285Y-127261619D02*
X156301904Y-127214000D01*
X156397142Y-127166380D01*
X156635238Y-127166380D01*
X156730476Y-127214000D01*
X156778095Y-127261619D01*
X156825714Y-127356857D01*
X156825714Y-127452095D01*
X156778095Y-127594952D01*
X156206666Y-128166380D01*
X156825714Y-128166380D01*
X70309523Y-66799142D02*
X70261904Y-66846761D01*
X70119047Y-66894380D01*
X70023809Y-66894380D01*
X69880952Y-66846761D01*
X69785714Y-66751523D01*
X69738095Y-66656285D01*
X69690476Y-66465809D01*
X69690476Y-66322952D01*
X69738095Y-66132476D01*
X69785714Y-66037238D01*
X69880952Y-65942000D01*
X70023809Y-65894380D01*
X70119047Y-65894380D01*
X70261904Y-65942000D01*
X70309523Y-65989619D01*
X95745714Y-106166380D02*
X95174285Y-106166380D01*
X95460000Y-106166380D02*
X95460000Y-105166380D01*
X95364761Y-105309238D01*
X95269523Y-105404476D01*
X95174285Y-105452095D01*
X151745714Y-84166380D02*
X151174285Y-84166380D01*
X151460000Y-84166380D02*
X151460000Y-83166380D01*
X151364761Y-83309238D01*
X151269523Y-83404476D01*
X151174285Y-83452095D01*
X70309523Y-84071142D02*
X70261904Y-84118761D01*
X70119047Y-84166380D01*
X70023809Y-84166380D01*
X69880952Y-84118761D01*
X69785714Y-84023523D01*
X69738095Y-83928285D01*
X69690476Y-83737809D01*
X69690476Y-83594952D01*
X69738095Y-83404476D01*
X69785714Y-83309238D01*
X69880952Y-83214000D01*
X70023809Y-83166380D01*
X70119047Y-83166380D01*
X70261904Y-83214000D01*
X70309523Y-83261619D01*
X154309523Y-106071142D02*
X154261904Y-106118761D01*
X154119047Y-106166380D01*
X154023809Y-106166380D01*
X153880952Y-106118761D01*
X153785714Y-106023523D01*
X153738095Y-105928285D01*
X153690476Y-105737809D01*
X153690476Y-105594952D01*
X153738095Y-105404476D01*
X153785714Y-105309238D01*
X153880952Y-105214000D01*
X154023809Y-105166380D01*
X154119047Y-105166380D01*
X154261904Y-105214000D01*
X154309523Y-105261619D01*
X128254285Y-87989619D02*
X128301904Y-87942000D01*
X128397142Y-87894380D01*
X128635238Y-87894380D01*
X128730476Y-87942000D01*
X128778095Y-87989619D01*
X128825714Y-88084857D01*
X128825714Y-88180095D01*
X128778095Y-88322952D01*
X128206666Y-88894380D01*
X128825714Y-88894380D01*
X128254285Y-127261619D02*
X128301904Y-127214000D01*
X128397142Y-127166380D01*
X128635238Y-127166380D01*
X128730476Y-127214000D01*
X128778095Y-127261619D01*
X128825714Y-127356857D01*
X128825714Y-127452095D01*
X128778095Y-127594952D01*
X128206666Y-128166380D01*
X128825714Y-128166380D01*
X98309523Y-66799142D02*
X98261904Y-66846761D01*
X98119047Y-66894380D01*
X98023809Y-66894380D01*
X97880952Y-66846761D01*
X97785714Y-66751523D01*
X97738095Y-66656285D01*
X97690476Y-66465809D01*
X97690476Y-66322952D01*
X97738095Y-66132476D01*
X97785714Y-66037238D01*
X97880952Y-65942000D01*
X98023809Y-65894380D01*
X98119047Y-65894380D01*
X98261904Y-65942000D01*
X98309523Y-65989619D01*
X123745714Y-66894380D02*
X123174285Y-66894380D01*
X123460000Y-66894380D02*
X123460000Y-65894380D01*
X123364761Y-66037238D01*
X123269523Y-66132476D01*
X123174285Y-66180095D01*
X98309523Y-84071142D02*
X98261904Y-84118761D01*
X98119047Y-84166380D01*
X98023809Y-84166380D01*
X97880952Y-84118761D01*
X97785714Y-84023523D01*
X97738095Y-83928285D01*
X97690476Y-83737809D01*
X97690476Y-83594952D01*
X97738095Y-83404476D01*
X97785714Y-83309238D01*
X97880952Y-83214000D01*
X98023809Y-83166380D01*
X98119047Y-83166380D01*
X98261904Y-83214000D01*
X98309523Y-83261619D01*
X151745714Y-110894380D02*
X151174285Y-110894380D01*
X151460000Y-110894380D02*
X151460000Y-109894380D01*
X151364761Y-110037238D01*
X151269523Y-110132476D01*
X151174285Y-110180095D01*
X81745714Y-110894380D02*
X81174285Y-110894380D01*
X81460000Y-110894380D02*
X81460000Y-109894380D01*
X81364761Y-110037238D01*
X81269523Y-110132476D01*
X81174285Y-110180095D01*
X72254285Y-87989619D02*
X72301904Y-87942000D01*
X72397142Y-87894380D01*
X72635238Y-87894380D01*
X72730476Y-87942000D01*
X72778095Y-87989619D01*
X72825714Y-88084857D01*
X72825714Y-88180095D01*
X72778095Y-88322952D01*
X72206666Y-88894380D01*
X72825714Y-88894380D01*
X72254285Y-61261619D02*
X72301904Y-61214000D01*
X72397142Y-61166380D01*
X72635238Y-61166380D01*
X72730476Y-61214000D01*
X72778095Y-61261619D01*
X72825714Y-61356857D01*
X72825714Y-61452095D01*
X72778095Y-61594952D01*
X72206666Y-62166380D01*
X72825714Y-62166380D01*
X86254285Y-127261619D02*
X86301904Y-127214000D01*
X86397142Y-127166380D01*
X86635238Y-127166380D01*
X86730476Y-127214000D01*
X86778095Y-127261619D01*
X86825714Y-127356857D01*
X86825714Y-127452095D01*
X86778095Y-127594952D01*
X86206666Y-128166380D01*
X86825714Y-128166380D01*
X126309523Y-84071142D02*
X126261904Y-84118761D01*
X126119047Y-84166380D01*
X126023809Y-84166380D01*
X125880952Y-84118761D01*
X125785714Y-84023523D01*
X125738095Y-83928285D01*
X125690476Y-83737809D01*
X125690476Y-83594952D01*
X125738095Y-83404476D01*
X125785714Y-83309238D01*
X125880952Y-83214000D01*
X126023809Y-83166380D01*
X126119047Y-83166380D01*
X126261904Y-83214000D01*
X126309523Y-83261619D01*
X86254285Y-105261619D02*
X86301904Y-105214000D01*
X86397142Y-105166380D01*
X86635238Y-105166380D01*
X86730476Y-105214000D01*
X86778095Y-105261619D01*
X86825714Y-105356857D01*
X86825714Y-105452095D01*
X86778095Y-105594952D01*
X86206666Y-106166380D01*
X86825714Y-106166380D01*
X151745714Y-44894380D02*
X151174285Y-44894380D01*
X151460000Y-44894380D02*
X151460000Y-43894380D01*
X151364761Y-44037238D01*
X151269523Y-44132476D01*
X151174285Y-44180095D01*
X156254285Y-83261619D02*
X156301904Y-83214000D01*
X156397142Y-83166380D01*
X156635238Y-83166380D01*
X156730476Y-83214000D01*
X156778095Y-83261619D01*
X156825714Y-83356857D01*
X156825714Y-83452095D01*
X156778095Y-83594952D01*
X156206666Y-84166380D01*
X156825714Y-84166380D01*
X156254285Y-109989619D02*
X156301904Y-109942000D01*
X156397142Y-109894380D01*
X156635238Y-109894380D01*
X156730476Y-109942000D01*
X156778095Y-109989619D01*
X156825714Y-110084857D01*
X156825714Y-110180095D01*
X156778095Y-110322952D01*
X156206666Y-110894380D01*
X156825714Y-110894380D01*
X156254285Y-43989619D02*
X156301904Y-43942000D01*
X156397142Y-43894380D01*
X156635238Y-43894380D01*
X156730476Y-43942000D01*
X156778095Y-43989619D01*
X156825714Y-44084857D01*
X156825714Y-44180095D01*
X156778095Y-44322952D01*
X156206666Y-44894380D01*
X156825714Y-44894380D01*
X100254285Y-127261619D02*
X100301904Y-127214000D01*
X100397142Y-127166380D01*
X100635238Y-127166380D01*
X100730476Y-127214000D01*
X100778095Y-127261619D01*
X100825714Y-127356857D01*
X100825714Y-127452095D01*
X100778095Y-127594952D01*
X100206666Y-128166380D01*
X100825714Y-128166380D01*
X98309523Y-62071142D02*
X98261904Y-62118761D01*
X98119047Y-62166380D01*
X98023809Y-62166380D01*
X97880952Y-62118761D01*
X97785714Y-62023523D01*
X97738095Y-61928285D01*
X97690476Y-61737809D01*
X97690476Y-61594952D01*
X97738095Y-61404476D01*
X97785714Y-61309238D01*
X97880952Y-61214000D01*
X98023809Y-61166380D01*
X98119047Y-61166380D01*
X98261904Y-61214000D01*
X98309523Y-61261619D01*
X154309523Y-128071142D02*
X154261904Y-128118761D01*
X154119047Y-128166380D01*
X154023809Y-128166380D01*
X153880952Y-128118761D01*
X153785714Y-128023523D01*
X153738095Y-127928285D01*
X153690476Y-127737809D01*
X153690476Y-127594952D01*
X153738095Y-127404476D01*
X153785714Y-127309238D01*
X153880952Y-127214000D01*
X154023809Y-127166380D01*
X154119047Y-127166380D01*
X154261904Y-127214000D01*
X154309523Y-127261619D01*
X142254285Y-65989619D02*
X142301904Y-65942000D01*
X142397142Y-65894380D01*
X142635238Y-65894380D01*
X142730476Y-65942000D01*
X142778095Y-65989619D01*
X142825714Y-66084857D01*
X142825714Y-66180095D01*
X142778095Y-66322952D01*
X142206666Y-66894380D01*
X142825714Y-66894380D01*
X142254285Y-43989619D02*
X142301904Y-43942000D01*
X142397142Y-43894380D01*
X142635238Y-43894380D01*
X142730476Y-43942000D01*
X142778095Y-43989619D01*
X142825714Y-44084857D01*
X142825714Y-44180095D01*
X142778095Y-44322952D01*
X142206666Y-44894380D01*
X142825714Y-44894380D01*
X137745714Y-84166380D02*
X137174285Y-84166380D01*
X137460000Y-84166380D02*
X137460000Y-83166380D01*
X137364761Y-83309238D01*
X137269523Y-83404476D01*
X137174285Y-83452095D01*
X100254285Y-83261619D02*
X100301904Y-83214000D01*
X100397142Y-83166380D01*
X100635238Y-83166380D01*
X100730476Y-83214000D01*
X100778095Y-83261619D01*
X100825714Y-83356857D01*
X100825714Y-83452095D01*
X100778095Y-83594952D01*
X100206666Y-84166380D01*
X100825714Y-84166380D01*
X98309523Y-88799142D02*
X98261904Y-88846761D01*
X98119047Y-88894380D01*
X98023809Y-88894380D01*
X97880952Y-88846761D01*
X97785714Y-88751523D01*
X97738095Y-88656285D01*
X97690476Y-88465809D01*
X97690476Y-88322952D01*
X97738095Y-88132476D01*
X97785714Y-88037238D01*
X97880952Y-87942000D01*
X98023809Y-87894380D01*
X98119047Y-87894380D01*
X98261904Y-87942000D01*
X98309523Y-87989619D01*
X86254285Y-109989619D02*
X86301904Y-109942000D01*
X86397142Y-109894380D01*
X86635238Y-109894380D01*
X86730476Y-109942000D01*
X86778095Y-109989619D01*
X86825714Y-110084857D01*
X86825714Y-110180095D01*
X86778095Y-110322952D01*
X86206666Y-110894380D01*
X86825714Y-110894380D01*
X156254285Y-61261619D02*
X156301904Y-61214000D01*
X156397142Y-61166380D01*
X156635238Y-61166380D01*
X156730476Y-61214000D01*
X156778095Y-61261619D01*
X156825714Y-61356857D01*
X156825714Y-61452095D01*
X156778095Y-61594952D01*
X156206666Y-62166380D01*
X156825714Y-62166380D01*
X154309523Y-62071142D02*
X154261904Y-62118761D01*
X154119047Y-62166380D01*
X154023809Y-62166380D01*
X153880952Y-62118761D01*
X153785714Y-62023523D01*
X153738095Y-61928285D01*
X153690476Y-61737809D01*
X153690476Y-61594952D01*
X153738095Y-61404476D01*
X153785714Y-61309238D01*
X153880952Y-61214000D01*
X154023809Y-61166380D01*
X154119047Y-61166380D01*
X154261904Y-61214000D01*
X154309523Y-61261619D01*
X72254285Y-105261619D02*
X72301904Y-105214000D01*
X72397142Y-105166380D01*
X72635238Y-105166380D01*
X72730476Y-105214000D01*
X72778095Y-105261619D01*
X72825714Y-105356857D01*
X72825714Y-105452095D01*
X72778095Y-105594952D01*
X72206666Y-106166380D01*
X72825714Y-106166380D01*
X98309523Y-106071142D02*
X98261904Y-106118761D01*
X98119047Y-106166380D01*
X98023809Y-106166380D01*
X97880952Y-106118761D01*
X97785714Y-106023523D01*
X97738095Y-105928285D01*
X97690476Y-105737809D01*
X97690476Y-105594952D01*
X97738095Y-105404476D01*
X97785714Y-105309238D01*
X97880952Y-105214000D01*
X98023809Y-105166380D01*
X98119047Y-105166380D01*
X98261904Y-105214000D01*
X98309523Y-105261619D01*
X109745714Y-66894380D02*
X109174285Y-66894380D01*
X109460000Y-66894380D02*
X109460000Y-65894380D01*
X109364761Y-66037238D01*
X109269523Y-66132476D01*
X109174285Y-66180095D01*
X151745714Y-128166380D02*
X151174285Y-128166380D01*
X151460000Y-128166380D02*
X151460000Y-127166380D01*
X151364761Y-127309238D01*
X151269523Y-127404476D01*
X151174285Y-127452095D01*
X137745714Y-128166380D02*
X137174285Y-128166380D01*
X137460000Y-128166380D02*
X137460000Y-127166380D01*
X137364761Y-127309238D01*
X137269523Y-127404476D01*
X137174285Y-127452095D01*
X140309523Y-106071142D02*
X140261904Y-106118761D01*
X140119047Y-106166380D01*
X140023809Y-106166380D01*
X139880952Y-106118761D01*
X139785714Y-106023523D01*
X139738095Y-105928285D01*
X139690476Y-105737809D01*
X139690476Y-105594952D01*
X139738095Y-105404476D01*
X139785714Y-105309238D01*
X139880952Y-105214000D01*
X140023809Y-105166380D01*
X140119047Y-105166380D01*
X140261904Y-105214000D01*
X140309523Y-105261619D01*
X114254285Y-87989619D02*
X114301904Y-87942000D01*
X114397142Y-87894380D01*
X114635238Y-87894380D01*
X114730476Y-87942000D01*
X114778095Y-87989619D01*
X114825714Y-88084857D01*
X114825714Y-88180095D01*
X114778095Y-88322952D01*
X114206666Y-88894380D01*
X114825714Y-88894380D01*
X100254285Y-43989619D02*
X100301904Y-43942000D01*
X100397142Y-43894380D01*
X100635238Y-43894380D01*
X100730476Y-43942000D01*
X100778095Y-43989619D01*
X100825714Y-44084857D01*
X100825714Y-44180095D01*
X100778095Y-44322952D01*
X100206666Y-44894380D01*
X100825714Y-44894380D01*
X109745714Y-84166380D02*
X109174285Y-84166380D01*
X109460000Y-84166380D02*
X109460000Y-83166380D01*
X109364761Y-83309238D01*
X109269523Y-83404476D01*
X109174285Y-83452095D01*
X70309523Y-44799142D02*
X70261904Y-44846761D01*
X70119047Y-44894380D01*
X70023809Y-44894380D01*
X69880952Y-44846761D01*
X69785714Y-44751523D01*
X69738095Y-44656285D01*
X69690476Y-44465809D01*
X69690476Y-44322952D01*
X69738095Y-44132476D01*
X69785714Y-44037238D01*
X69880952Y-43942000D01*
X70023809Y-43894380D01*
X70119047Y-43894380D01*
X70261904Y-43942000D01*
X70309523Y-43989619D01*
X86254285Y-83261619D02*
X86301904Y-83214000D01*
X86397142Y-83166380D01*
X86635238Y-83166380D01*
X86730476Y-83214000D01*
X86778095Y-83261619D01*
X86825714Y-83356857D01*
X86825714Y-83452095D01*
X86778095Y-83594952D01*
X86206666Y-84166380D01*
X86825714Y-84166380D01*
X114254285Y-109989619D02*
X114301904Y-109942000D01*
X114397142Y-109894380D01*
X114635238Y-109894380D01*
X114730476Y-109942000D01*
X114778095Y-109989619D01*
X114825714Y-110084857D01*
X114825714Y-110180095D01*
X114778095Y-110322952D01*
X114206666Y-110894380D01*
X114825714Y-110894380D01*
X114254285Y-105261619D02*
X114301904Y-105214000D01*
X114397142Y-105166380D01*
X114635238Y-105166380D01*
X114730476Y-105214000D01*
X114778095Y-105261619D01*
X114825714Y-105356857D01*
X114825714Y-105452095D01*
X114778095Y-105594952D01*
X114206666Y-106166380D01*
X114825714Y-106166380D01*
X112309523Y-128071142D02*
X112261904Y-128118761D01*
X112119047Y-128166380D01*
X112023809Y-128166380D01*
X111880952Y-128118761D01*
X111785714Y-128023523D01*
X111738095Y-127928285D01*
X111690476Y-127737809D01*
X111690476Y-127594952D01*
X111738095Y-127404476D01*
X111785714Y-127309238D01*
X111880952Y-127214000D01*
X112023809Y-127166380D01*
X112119047Y-127166380D01*
X112261904Y-127214000D01*
X112309523Y-127261619D01*
X142254285Y-83261619D02*
X142301904Y-83214000D01*
X142397142Y-83166380D01*
X142635238Y-83166380D01*
X142730476Y-83214000D01*
X142778095Y-83261619D01*
X142825714Y-83356857D01*
X142825714Y-83452095D01*
X142778095Y-83594952D01*
X142206666Y-84166380D01*
X142825714Y-84166380D01*
X81745714Y-44894380D02*
X81174285Y-44894380D01*
X81460000Y-44894380D02*
X81460000Y-43894380D01*
X81364761Y-44037238D01*
X81269523Y-44132476D01*
X81174285Y-44180095D01*
X98309523Y-44799142D02*
X98261904Y-44846761D01*
X98119047Y-44894380D01*
X98023809Y-44894380D01*
X97880952Y-44846761D01*
X97785714Y-44751523D01*
X97738095Y-44656285D01*
X97690476Y-44465809D01*
X97690476Y-44322952D01*
X97738095Y-44132476D01*
X97785714Y-44037238D01*
X97880952Y-43942000D01*
X98023809Y-43894380D01*
X98119047Y-43894380D01*
X98261904Y-43942000D01*
X98309523Y-43989619D01*
X126309523Y-44799142D02*
X126261904Y-44846761D01*
X126119047Y-44894380D01*
X126023809Y-44894380D01*
X125880952Y-44846761D01*
X125785714Y-44751523D01*
X125738095Y-44656285D01*
X125690476Y-44465809D01*
X125690476Y-44322952D01*
X125738095Y-44132476D01*
X125785714Y-44037238D01*
X125880952Y-43942000D01*
X126023809Y-43894380D01*
X126119047Y-43894380D01*
X126261904Y-43942000D01*
X126309523Y-43989619D01*
X109745714Y-110894380D02*
X109174285Y-110894380D01*
X109460000Y-110894380D02*
X109460000Y-109894380D01*
X109364761Y-110037238D01*
X109269523Y-110132476D01*
X109174285Y-110180095D01*
X95745714Y-84166380D02*
X95174285Y-84166380D01*
X95460000Y-84166380D02*
X95460000Y-83166380D01*
X95364761Y-83309238D01*
X95269523Y-83404476D01*
X95174285Y-83452095D01*
X109745714Y-44894380D02*
X109174285Y-44894380D01*
X109460000Y-44894380D02*
X109460000Y-43894380D01*
X109364761Y-44037238D01*
X109269523Y-44132476D01*
X109174285Y-44180095D01*
X95745714Y-62166380D02*
X95174285Y-62166380D01*
X95460000Y-62166380D02*
X95460000Y-61166380D01*
X95364761Y-61309238D01*
X95269523Y-61404476D01*
X95174285Y-61452095D01*
X112309523Y-44799142D02*
X112261904Y-44846761D01*
X112119047Y-44894380D01*
X112023809Y-44894380D01*
X111880952Y-44846761D01*
X111785714Y-44751523D01*
X111738095Y-44656285D01*
X111690476Y-44465809D01*
X111690476Y-44322952D01*
X111738095Y-44132476D01*
X111785714Y-44037238D01*
X111880952Y-43942000D01*
X112023809Y-43894380D01*
X112119047Y-43894380D01*
X112261904Y-43942000D01*
X112309523Y-43989619D01*
X126309523Y-128071142D02*
X126261904Y-128118761D01*
X126119047Y-128166380D01*
X126023809Y-128166380D01*
X125880952Y-128118761D01*
X125785714Y-128023523D01*
X125738095Y-127928285D01*
X125690476Y-127737809D01*
X125690476Y-127594952D01*
X125738095Y-127404476D01*
X125785714Y-127309238D01*
X125880952Y-127214000D01*
X126023809Y-127166380D01*
X126119047Y-127166380D01*
X126261904Y-127214000D01*
X126309523Y-127261619D01*
X142254285Y-109989619D02*
X142301904Y-109942000D01*
X142397142Y-109894380D01*
X142635238Y-109894380D01*
X142730476Y-109942000D01*
X142778095Y-109989619D01*
X142825714Y-110084857D01*
X142825714Y-110180095D01*
X142778095Y-110322952D01*
X142206666Y-110894380D01*
X142825714Y-110894380D01*
X142254285Y-61261619D02*
X142301904Y-61214000D01*
X142397142Y-61166380D01*
X142635238Y-61166380D01*
X142730476Y-61214000D01*
X142778095Y-61261619D01*
X142825714Y-61356857D01*
X142825714Y-61452095D01*
X142778095Y-61594952D01*
X142206666Y-62166380D01*
X142825714Y-62166380D01*
X67745714Y-128166380D02*
X67174285Y-128166380D01*
X67460000Y-128166380D02*
X67460000Y-127166380D01*
X67364761Y-127309238D01*
X67269523Y-127404476D01*
X67174285Y-127452095D01*
X156254285Y-105261619D02*
X156301904Y-105214000D01*
X156397142Y-105166380D01*
X156635238Y-105166380D01*
X156730476Y-105214000D01*
X156778095Y-105261619D01*
X156825714Y-105356857D01*
X156825714Y-105452095D01*
X156778095Y-105594952D01*
X156206666Y-106166380D01*
X156825714Y-106166380D01*
X86254285Y-43989619D02*
X86301904Y-43942000D01*
X86397142Y-43894380D01*
X86635238Y-43894380D01*
X86730476Y-43942000D01*
X86778095Y-43989619D01*
X86825714Y-44084857D01*
X86825714Y-44180095D01*
X86778095Y-44322952D01*
X86206666Y-44894380D01*
X86825714Y-44894380D01*
X154309523Y-88799142D02*
X154261904Y-88846761D01*
X154119047Y-88894380D01*
X154023809Y-88894380D01*
X153880952Y-88846761D01*
X153785714Y-88751523D01*
X153738095Y-88656285D01*
X153690476Y-88465809D01*
X153690476Y-88322952D01*
X153738095Y-88132476D01*
X153785714Y-88037238D01*
X153880952Y-87942000D01*
X154023809Y-87894380D01*
X154119047Y-87894380D01*
X154261904Y-87942000D01*
X154309523Y-87989619D01*
X84309523Y-66799142D02*
X84261904Y-66846761D01*
X84119047Y-66894380D01*
X84023809Y-66894380D01*
X83880952Y-66846761D01*
X83785714Y-66751523D01*
X83738095Y-66656285D01*
X83690476Y-66465809D01*
X83690476Y-66322952D01*
X83738095Y-66132476D01*
X83785714Y-66037238D01*
X83880952Y-65942000D01*
X84023809Y-65894380D01*
X84119047Y-65894380D01*
X84261904Y-65942000D01*
X84309523Y-65989619D01*
X126309523Y-88799142D02*
X126261904Y-88846761D01*
X126119047Y-88894380D01*
X126023809Y-88894380D01*
X125880952Y-88846761D01*
X125785714Y-88751523D01*
X125738095Y-88656285D01*
X125690476Y-88465809D01*
X125690476Y-88322952D01*
X125738095Y-88132476D01*
X125785714Y-88037238D01*
X125880952Y-87942000D01*
X126023809Y-87894380D01*
X126119047Y-87894380D01*
X126261904Y-87942000D01*
X126309523Y-87989619D01*
X84309523Y-62071142D02*
X84261904Y-62118761D01*
X84119047Y-62166380D01*
X84023809Y-62166380D01*
X83880952Y-62118761D01*
X83785714Y-62023523D01*
X83738095Y-61928285D01*
X83690476Y-61737809D01*
X83690476Y-61594952D01*
X83738095Y-61404476D01*
X83785714Y-61309238D01*
X83880952Y-61214000D01*
X84023809Y-61166380D01*
X84119047Y-61166380D01*
X84261904Y-61214000D01*
X84309523Y-61261619D01*
X140309523Y-110799142D02*
X140261904Y-110846761D01*
X140119047Y-110894380D01*
X140023809Y-110894380D01*
X139880952Y-110846761D01*
X139785714Y-110751523D01*
X139738095Y-110656285D01*
X139690476Y-110465809D01*
X139690476Y-110322952D01*
X139738095Y-110132476D01*
X139785714Y-110037238D01*
X139880952Y-109942000D01*
X140023809Y-109894380D01*
X140119047Y-109894380D01*
X140261904Y-109942000D01*
X140309523Y-109989619D01*
X67745714Y-66894380D02*
X67174285Y-66894380D01*
X67460000Y-66894380D02*
X67460000Y-65894380D01*
X67364761Y-66037238D01*
X67269523Y-66132476D01*
X67174285Y-66180095D01*
X72254285Y-83261619D02*
X72301904Y-83214000D01*
X72397142Y-83166380D01*
X72635238Y-83166380D01*
X72730476Y-83214000D01*
X72778095Y-83261619D01*
X72825714Y-83356857D01*
X72825714Y-83452095D01*
X72778095Y-83594952D01*
X72206666Y-84166380D01*
X72825714Y-84166380D01*
X154309523Y-84071142D02*
X154261904Y-84118761D01*
X154119047Y-84166380D01*
X154023809Y-84166380D01*
X153880952Y-84118761D01*
X153785714Y-84023523D01*
X153738095Y-83928285D01*
X153690476Y-83737809D01*
X153690476Y-83594952D01*
X153738095Y-83404476D01*
X153785714Y-83309238D01*
X153880952Y-83214000D01*
X154023809Y-83166380D01*
X154119047Y-83166380D01*
X154261904Y-83214000D01*
X154309523Y-83261619D01*
X123745714Y-106166380D02*
X123174285Y-106166380D01*
X123460000Y-106166380D02*
X123460000Y-105166380D01*
X123364761Y-105309238D01*
X123269523Y-105404476D01*
X123174285Y-105452095D01*
X70309523Y-106071142D02*
X70261904Y-106118761D01*
X70119047Y-106166380D01*
X70023809Y-106166380D01*
X69880952Y-106118761D01*
X69785714Y-106023523D01*
X69738095Y-105928285D01*
X69690476Y-105737809D01*
X69690476Y-105594952D01*
X69738095Y-105404476D01*
X69785714Y-105309238D01*
X69880952Y-105214000D01*
X70023809Y-105166380D01*
X70119047Y-105166380D01*
X70261904Y-105214000D01*
X70309523Y-105261619D01*
X98309523Y-110799142D02*
X98261904Y-110846761D01*
X98119047Y-110894380D01*
X98023809Y-110894380D01*
X97880952Y-110846761D01*
X97785714Y-110751523D01*
X97738095Y-110656285D01*
X97690476Y-110465809D01*
X97690476Y-110322952D01*
X97738095Y-110132476D01*
X97785714Y-110037238D01*
X97880952Y-109942000D01*
X98023809Y-109894380D01*
X98119047Y-109894380D01*
X98261904Y-109942000D01*
X98309523Y-109989619D01*
X95745714Y-128166380D02*
X95174285Y-128166380D01*
X95460000Y-128166380D02*
X95460000Y-127166380D01*
X95364761Y-127309238D01*
X95269523Y-127404476D01*
X95174285Y-127452095D01*
X100254285Y-61261619D02*
X100301904Y-61214000D01*
X100397142Y-61166380D01*
X100635238Y-61166380D01*
X100730476Y-61214000D01*
X100778095Y-61261619D01*
X100825714Y-61356857D01*
X100825714Y-61452095D01*
X100778095Y-61594952D01*
X100206666Y-62166380D01*
X100825714Y-62166380D01*
X70309523Y-62071142D02*
X70261904Y-62118761D01*
X70119047Y-62166380D01*
X70023809Y-62166380D01*
X69880952Y-62118761D01*
X69785714Y-62023523D01*
X69738095Y-61928285D01*
X69690476Y-61737809D01*
X69690476Y-61594952D01*
X69738095Y-61404476D01*
X69785714Y-61309238D01*
X69880952Y-61214000D01*
X70023809Y-61166380D01*
X70119047Y-61166380D01*
X70261904Y-61214000D01*
X70309523Y-61261619D01*
X128254285Y-65989619D02*
X128301904Y-65942000D01*
X128397142Y-65894380D01*
X128635238Y-65894380D01*
X128730476Y-65942000D01*
X128778095Y-65989619D01*
X128825714Y-66084857D01*
X128825714Y-66180095D01*
X128778095Y-66322952D01*
X128206666Y-66894380D01*
X128825714Y-66894380D01*
X128254285Y-61261619D02*
X128301904Y-61214000D01*
X128397142Y-61166380D01*
X128635238Y-61166380D01*
X128730476Y-61214000D01*
X128778095Y-61261619D01*
X128825714Y-61356857D01*
X128825714Y-61452095D01*
X128778095Y-61594952D01*
X128206666Y-62166380D01*
X128825714Y-62166380D01*
X142254285Y-87989619D02*
X142301904Y-87942000D01*
X142397142Y-87894380D01*
X142635238Y-87894380D01*
X142730476Y-87942000D01*
X142778095Y-87989619D01*
X142825714Y-88084857D01*
X142825714Y-88180095D01*
X142778095Y-88322952D01*
X142206666Y-88894380D01*
X142825714Y-88894380D01*
X154309523Y-110799142D02*
X154261904Y-110846761D01*
X154119047Y-110894380D01*
X154023809Y-110894380D01*
X153880952Y-110846761D01*
X153785714Y-110751523D01*
X153738095Y-110656285D01*
X153690476Y-110465809D01*
X153690476Y-110322952D01*
X153738095Y-110132476D01*
X153785714Y-110037238D01*
X153880952Y-109942000D01*
X154023809Y-109894380D01*
X154119047Y-109894380D01*
X154261904Y-109942000D01*
X154309523Y-109989619D01*
X112309523Y-88799142D02*
X112261904Y-88846761D01*
X112119047Y-88894380D01*
X112023809Y-88894380D01*
X111880952Y-88846761D01*
X111785714Y-88751523D01*
X111738095Y-88656285D01*
X111690476Y-88465809D01*
X111690476Y-88322952D01*
X111738095Y-88132476D01*
X111785714Y-88037238D01*
X111880952Y-87942000D01*
X112023809Y-87894380D01*
X112119047Y-87894380D01*
X112261904Y-87942000D01*
X112309523Y-87989619D01*
X109745714Y-62166380D02*
X109174285Y-62166380D01*
X109460000Y-62166380D02*
X109460000Y-61166380D01*
X109364761Y-61309238D01*
X109269523Y-61404476D01*
X109174285Y-61452095D01*
X100254285Y-65989619D02*
X100301904Y-65942000D01*
X100397142Y-65894380D01*
X100635238Y-65894380D01*
X100730476Y-65942000D01*
X100778095Y-65989619D01*
X100825714Y-66084857D01*
X100825714Y-66180095D01*
X100778095Y-66322952D01*
X100206666Y-66894380D01*
X100825714Y-66894380D01*
X142254285Y-127261619D02*
X142301904Y-127214000D01*
X142397142Y-127166380D01*
X142635238Y-127166380D01*
X142730476Y-127214000D01*
X142778095Y-127261619D01*
X142825714Y-127356857D01*
X142825714Y-127452095D01*
X142778095Y-127594952D01*
X142206666Y-128166380D01*
X142825714Y-128166380D01*
X67745714Y-110894380D02*
X67174285Y-110894380D01*
X67460000Y-110894380D02*
X67460000Y-109894380D01*
X67364761Y-110037238D01*
X67269523Y-110132476D01*
X67174285Y-110180095D01*
X137745714Y-110894380D02*
X137174285Y-110894380D01*
X137460000Y-110894380D02*
X137460000Y-109894380D01*
X137364761Y-110037238D01*
X137269523Y-110132476D01*
X137174285Y-110180095D01*
X112309523Y-84071142D02*
X112261904Y-84118761D01*
X112119047Y-84166380D01*
X112023809Y-84166380D01*
X111880952Y-84118761D01*
X111785714Y-84023523D01*
X111738095Y-83928285D01*
X111690476Y-83737809D01*
X111690476Y-83594952D01*
X111738095Y-83404476D01*
X111785714Y-83309238D01*
X111880952Y-83214000D01*
X112023809Y-83166380D01*
X112119047Y-83166380D01*
X112261904Y-83214000D01*
X112309523Y-83261619D01*
X84309523Y-44799142D02*
X84261904Y-44846761D01*
X84119047Y-44894380D01*
X84023809Y-44894380D01*
X83880952Y-44846761D01*
X83785714Y-44751523D01*
X83738095Y-44656285D01*
X83690476Y-44465809D01*
X83690476Y-44322952D01*
X83738095Y-44132476D01*
X83785714Y-44037238D01*
X83880952Y-43942000D01*
X84023809Y-43894380D01*
X84119047Y-43894380D01*
X84261904Y-43942000D01*
X84309523Y-43989619D01*
X67745714Y-44894380D02*
X67174285Y-44894380D01*
X67460000Y-44894380D02*
X67460000Y-43894380D01*
X67364761Y-44037238D01*
X67269523Y-44132476D01*
X67174285Y-44180095D01*
X84309523Y-88799142D02*
X84261904Y-88846761D01*
X84119047Y-88894380D01*
X84023809Y-88894380D01*
X83880952Y-88846761D01*
X83785714Y-88751523D01*
X83738095Y-88656285D01*
X83690476Y-88465809D01*
X83690476Y-88322952D01*
X83738095Y-88132476D01*
X83785714Y-88037238D01*
X83880952Y-87942000D01*
X84023809Y-87894380D01*
X84119047Y-87894380D01*
X84261904Y-87942000D01*
X84309523Y-87989619D01*
X114254285Y-65989619D02*
X114301904Y-65942000D01*
X114397142Y-65894380D01*
X114635238Y-65894380D01*
X114730476Y-65942000D01*
X114778095Y-65989619D01*
X114825714Y-66084857D01*
X114825714Y-66180095D01*
X114778095Y-66322952D01*
X114206666Y-66894380D01*
X114825714Y-66894380D01*
X70309523Y-88799142D02*
X70261904Y-88846761D01*
X70119047Y-88894380D01*
X70023809Y-88894380D01*
X69880952Y-88846761D01*
X69785714Y-88751523D01*
X69738095Y-88656285D01*
X69690476Y-88465809D01*
X69690476Y-88322952D01*
X69738095Y-88132476D01*
X69785714Y-88037238D01*
X69880952Y-87942000D01*
X70023809Y-87894380D01*
X70119047Y-87894380D01*
X70261904Y-87942000D01*
X70309523Y-87989619D01*
X154309523Y-66799142D02*
X154261904Y-66846761D01*
X154119047Y-66894380D01*
X154023809Y-66894380D01*
X153880952Y-66846761D01*
X153785714Y-66751523D01*
X153738095Y-66656285D01*
X153690476Y-66465809D01*
X153690476Y-66322952D01*
X153738095Y-66132476D01*
X153785714Y-66037238D01*
X153880952Y-65942000D01*
X154023809Y-65894380D01*
X154119047Y-65894380D01*
X154261904Y-65942000D01*
X154309523Y-65989619D01*
X72254285Y-127261619D02*
X72301904Y-127214000D01*
X72397142Y-127166380D01*
X72635238Y-127166380D01*
X72730476Y-127214000D01*
X72778095Y-127261619D01*
X72825714Y-127356857D01*
X72825714Y-127452095D01*
X72778095Y-127594952D01*
X72206666Y-128166380D01*
X72825714Y-128166380D01*
X98309523Y-128071142D02*
X98261904Y-128118761D01*
X98119047Y-128166380D01*
X98023809Y-128166380D01*
X97880952Y-128118761D01*
X97785714Y-128023523D01*
X97738095Y-127928285D01*
X97690476Y-127737809D01*
X97690476Y-127594952D01*
X97738095Y-127404476D01*
X97785714Y-127309238D01*
X97880952Y-127214000D01*
X98023809Y-127166380D01*
X98119047Y-127166380D01*
X98261904Y-127214000D01*
X98309523Y-127261619D01*
X70309523Y-128071142D02*
X70261904Y-128118761D01*
X70119047Y-128166380D01*
X70023809Y-128166380D01*
X69880952Y-128118761D01*
X69785714Y-128023523D01*
X69738095Y-127928285D01*
X69690476Y-127737809D01*
X69690476Y-127594952D01*
X69738095Y-127404476D01*
X69785714Y-127309238D01*
X69880952Y-127214000D01*
X70023809Y-127166380D01*
X70119047Y-127166380D01*
X70261904Y-127214000D01*
X70309523Y-127261619D01*
X137745714Y-62166380D02*
X137174285Y-62166380D01*
X137460000Y-62166380D02*
X137460000Y-61166380D01*
X137364761Y-61309238D01*
X137269523Y-61404476D01*
X137174285Y-61452095D01*
X142254285Y-105261619D02*
X142301904Y-105214000D01*
X142397142Y-105166380D01*
X142635238Y-105166380D01*
X142730476Y-105214000D01*
X142778095Y-105261619D01*
X142825714Y-105356857D01*
X142825714Y-105452095D01*
X142778095Y-105594952D01*
X142206666Y-106166380D01*
X142825714Y-106166380D01*
X84309523Y-84071142D02*
X84261904Y-84118761D01*
X84119047Y-84166380D01*
X84023809Y-84166380D01*
X83880952Y-84118761D01*
X83785714Y-84023523D01*
X83738095Y-83928285D01*
X83690476Y-83737809D01*
X83690476Y-83594952D01*
X83738095Y-83404476D01*
X83785714Y-83309238D01*
X83880952Y-83214000D01*
X84023809Y-83166380D01*
X84119047Y-83166380D01*
X84261904Y-83214000D01*
X84309523Y-83261619D01*
X123745714Y-128166380D02*
X123174285Y-128166380D01*
X123460000Y-128166380D02*
X123460000Y-127166380D01*
X123364761Y-127309238D01*
X123269523Y-127404476D01*
X123174285Y-127452095D01*
X95745714Y-66894380D02*
X95174285Y-66894380D01*
X95460000Y-66894380D02*
X95460000Y-65894380D01*
X95364761Y-66037238D01*
X95269523Y-66132476D01*
X95174285Y-66180095D01*
X109745714Y-88894380D02*
X109174285Y-88894380D01*
X109460000Y-88894380D02*
X109460000Y-87894380D01*
X109364761Y-88037238D01*
X109269523Y-88132476D01*
X109174285Y-88180095D01*
X128254285Y-105261619D02*
X128301904Y-105214000D01*
X128397142Y-105166380D01*
X128635238Y-105166380D01*
X128730476Y-105214000D01*
X128778095Y-105261619D01*
X128825714Y-105356857D01*
X128825714Y-105452095D01*
X128778095Y-105594952D01*
X128206666Y-106166380D01*
X128825714Y-106166380D01*
X67745714Y-84166380D02*
X67174285Y-84166380D01*
X67460000Y-84166380D02*
X67460000Y-83166380D01*
X67364761Y-83309238D01*
X67269523Y-83404476D01*
X67174285Y-83452095D01*
X140309523Y-44799142D02*
X140261904Y-44846761D01*
X140119047Y-44894380D01*
X140023809Y-44894380D01*
X139880952Y-44846761D01*
X139785714Y-44751523D01*
X139738095Y-44656285D01*
X139690476Y-44465809D01*
X139690476Y-44322952D01*
X139738095Y-44132476D01*
X139785714Y-44037238D01*
X139880952Y-43942000D01*
X140023809Y-43894380D01*
X140119047Y-43894380D01*
X140261904Y-43942000D01*
X140309523Y-43989619D01*
X140309523Y-62071142D02*
X140261904Y-62118761D01*
X140119047Y-62166380D01*
X140023809Y-62166380D01*
X139880952Y-62118761D01*
X139785714Y-62023523D01*
X139738095Y-61928285D01*
X139690476Y-61737809D01*
X139690476Y-61594952D01*
X139738095Y-61404476D01*
X139785714Y-61309238D01*
X139880952Y-61214000D01*
X140023809Y-61166380D01*
X140119047Y-61166380D01*
X140261904Y-61214000D01*
X140309523Y-61261619D01*
X100254285Y-87989619D02*
X100301904Y-87942000D01*
X100397142Y-87894380D01*
X100635238Y-87894380D01*
X100730476Y-87942000D01*
X100778095Y-87989619D01*
X100825714Y-88084857D01*
X100825714Y-88180095D01*
X100778095Y-88322952D01*
X100206666Y-88894380D01*
X100825714Y-88894380D01*
X128254285Y-83261619D02*
X128301904Y-83214000D01*
X128397142Y-83166380D01*
X128635238Y-83166380D01*
X128730476Y-83214000D01*
X128778095Y-83261619D01*
X128825714Y-83356857D01*
X128825714Y-83452095D01*
X128778095Y-83594952D01*
X128206666Y-84166380D01*
X128825714Y-84166380D01*
X151745714Y-66894380D02*
X151174285Y-66894380D01*
X151460000Y-66894380D02*
X151460000Y-65894380D01*
X151364761Y-66037238D01*
X151269523Y-66132476D01*
X151174285Y-66180095D01*
X114254285Y-43989619D02*
X114301904Y-43942000D01*
X114397142Y-43894380D01*
X114635238Y-43894380D01*
X114730476Y-43942000D01*
X114778095Y-43989619D01*
X114825714Y-44084857D01*
X114825714Y-44180095D01*
X114778095Y-44322952D01*
X114206666Y-44894380D01*
X114825714Y-44894380D01*
X84309523Y-106071142D02*
X84261904Y-106118761D01*
X84119047Y-106166380D01*
X84023809Y-106166380D01*
X83880952Y-106118761D01*
X83785714Y-106023523D01*
X83738095Y-105928285D01*
X83690476Y-105737809D01*
X83690476Y-105594952D01*
X83738095Y-105404476D01*
X83785714Y-105309238D01*
X83880952Y-105214000D01*
X84023809Y-105166380D01*
X84119047Y-105166380D01*
X84261904Y-105214000D01*
X84309523Y-105261619D01*
X137745714Y-106166380D02*
X137174285Y-106166380D01*
X137460000Y-106166380D02*
X137460000Y-105166380D01*
X137364761Y-105309238D01*
X137269523Y-105404476D01*
X137174285Y-105452095D01*
D11*
%TO.C,J2*%
X137460000Y-60758000D02*
X136130000Y-60758000D01*
X138730000Y-60758000D02*
X138730000Y-58098000D01*
X136130000Y-60758000D02*
X136130000Y-59428000D01*
X143870000Y-60758000D02*
X143870000Y-58098000D01*
X138730000Y-58098000D02*
X143870000Y-58098000D01*
X138730000Y-60758000D02*
X143870000Y-60758000D01*
%TO.C,J1*%
X138730000Y-114058000D02*
X138730000Y-111398000D01*
X137460000Y-114058000D02*
X136130000Y-114058000D01*
X136130000Y-114058000D02*
X136130000Y-112728000D01*
X138730000Y-114058000D02*
X143870000Y-114058000D01*
X143870000Y-114058000D02*
X143870000Y-111398000D01*
X138730000Y-111398000D02*
X143870000Y-111398000D01*
%TO.C,SW1*%
X150162000Y-49217000D02*
X150162000Y-56837000D01*
X157782000Y-56837000D02*
X157782000Y-49217000D01*
X157782000Y-56837000D02*
X150162000Y-56837000D01*
X157782000Y-54259000D02*
X150162000Y-54259000D01*
X150162000Y-49217000D02*
X157782000Y-49217000D01*
X157782000Y-76259000D02*
X150162000Y-76259000D01*
X150162000Y-71217000D02*
X150162000Y-78837000D01*
X157782000Y-78837000D02*
X150162000Y-78837000D01*
X157782000Y-78837000D02*
X157782000Y-71217000D01*
X150162000Y-71217000D02*
X157782000Y-71217000D01*
%TO.C,J2*%
X152730000Y-102098000D02*
X157870000Y-102098000D01*
X157870000Y-104758000D02*
X157870000Y-102098000D01*
X150130000Y-104758000D02*
X150130000Y-103428000D01*
X151460000Y-104758000D02*
X150130000Y-104758000D01*
X152730000Y-104758000D02*
X152730000Y-102098000D01*
X152730000Y-104758000D02*
X157870000Y-104758000D01*
%TO.C,SW1*%
X73782000Y-78837000D02*
X66162000Y-78837000D01*
X66162000Y-71217000D02*
X73782000Y-71217000D01*
X73782000Y-76259000D02*
X66162000Y-76259000D01*
X73782000Y-78837000D02*
X73782000Y-71217000D01*
X66162000Y-71217000D02*
X66162000Y-78837000D01*
%TO.C,J1*%
X138730000Y-89398000D02*
X143870000Y-89398000D01*
X143870000Y-92058000D02*
X143870000Y-89398000D01*
X138730000Y-92058000D02*
X138730000Y-89398000D01*
X138730000Y-92058000D02*
X143870000Y-92058000D01*
X136130000Y-92058000D02*
X136130000Y-90728000D01*
X137460000Y-92058000D02*
X136130000Y-92058000D01*
%TO.C,SW1*%
X80162000Y-49217000D02*
X87782000Y-49217000D01*
X87782000Y-56837000D02*
X80162000Y-56837000D01*
X87782000Y-54259000D02*
X80162000Y-54259000D01*
X87782000Y-56837000D02*
X87782000Y-49217000D01*
X80162000Y-49217000D02*
X80162000Y-56837000D01*
%TO.C,J1*%
X96730000Y-114058000D02*
X96730000Y-111398000D01*
X96730000Y-111398000D02*
X101870000Y-111398000D01*
X95460000Y-114058000D02*
X94130000Y-114058000D01*
X94130000Y-114058000D02*
X94130000Y-112728000D01*
X96730000Y-114058000D02*
X101870000Y-114058000D01*
X101870000Y-114058000D02*
X101870000Y-111398000D01*
%TO.C,J2*%
X66130000Y-82758000D02*
X66130000Y-81428000D01*
X68730000Y-80098000D02*
X73870000Y-80098000D01*
X73870000Y-82758000D02*
X73870000Y-80098000D01*
X67460000Y-82758000D02*
X66130000Y-82758000D01*
X68730000Y-82758000D02*
X68730000Y-80098000D01*
X68730000Y-82758000D02*
X73870000Y-82758000D01*
%TO.C,J1*%
X137460000Y-70058000D02*
X136130000Y-70058000D01*
X138730000Y-67398000D02*
X143870000Y-67398000D01*
X138730000Y-70058000D02*
X138730000Y-67398000D01*
X143870000Y-70058000D02*
X143870000Y-67398000D01*
X136130000Y-70058000D02*
X136130000Y-68728000D01*
X138730000Y-70058000D02*
X143870000Y-70058000D01*
X110730000Y-89398000D02*
X115870000Y-89398000D01*
X115870000Y-92058000D02*
X115870000Y-89398000D01*
X109460000Y-92058000D02*
X108130000Y-92058000D01*
X110730000Y-92058000D02*
X110730000Y-89398000D01*
X108130000Y-92058000D02*
X108130000Y-90728000D01*
X110730000Y-92058000D02*
X115870000Y-92058000D01*
%TO.C,J2*%
X109460000Y-126758000D02*
X108130000Y-126758000D01*
X110730000Y-126758000D02*
X110730000Y-124098000D01*
X110730000Y-124098000D02*
X115870000Y-124098000D01*
X108130000Y-126758000D02*
X108130000Y-125428000D01*
X115870000Y-126758000D02*
X115870000Y-124098000D01*
X110730000Y-126758000D02*
X115870000Y-126758000D01*
X150130000Y-82758000D02*
X150130000Y-81428000D01*
X157870000Y-82758000D02*
X157870000Y-80098000D01*
X151460000Y-82758000D02*
X150130000Y-82758000D01*
X152730000Y-82758000D02*
X152730000Y-80098000D01*
X152730000Y-82758000D02*
X157870000Y-82758000D01*
X152730000Y-80098000D02*
X157870000Y-80098000D01*
X96730000Y-104758000D02*
X96730000Y-102098000D01*
X96730000Y-104758000D02*
X101870000Y-104758000D01*
X96730000Y-102098000D02*
X101870000Y-102098000D01*
X101870000Y-104758000D02*
X101870000Y-102098000D01*
X95460000Y-104758000D02*
X94130000Y-104758000D01*
X94130000Y-104758000D02*
X94130000Y-103428000D01*
%TO.C,SW1*%
X115782000Y-122837000D02*
X108162000Y-122837000D01*
X108162000Y-115217000D02*
X108162000Y-122837000D01*
X115782000Y-122837000D02*
X115782000Y-115217000D01*
X115782000Y-120259000D02*
X108162000Y-120259000D01*
X108162000Y-115217000D02*
X115782000Y-115217000D01*
%TO.C,J1*%
X66130000Y-48058000D02*
X66130000Y-46728000D01*
X68730000Y-45398000D02*
X73870000Y-45398000D01*
X68730000Y-48058000D02*
X68730000Y-45398000D01*
X67460000Y-48058000D02*
X66130000Y-48058000D01*
X68730000Y-48058000D02*
X73870000Y-48058000D01*
X73870000Y-48058000D02*
X73870000Y-45398000D01*
%TO.C,J2*%
X122130000Y-82758000D02*
X122130000Y-81428000D01*
X123460000Y-82758000D02*
X122130000Y-82758000D01*
X124730000Y-82758000D02*
X129870000Y-82758000D01*
X129870000Y-82758000D02*
X129870000Y-80098000D01*
X124730000Y-82758000D02*
X124730000Y-80098000D01*
X124730000Y-80098000D02*
X129870000Y-80098000D01*
%TO.C,SW1*%
X115782000Y-76259000D02*
X108162000Y-76259000D01*
X108162000Y-71217000D02*
X108162000Y-78837000D01*
X115782000Y-78837000D02*
X115782000Y-71217000D01*
X108162000Y-71217000D02*
X115782000Y-71217000D01*
X115782000Y-78837000D02*
X108162000Y-78837000D01*
%TO.C,J1*%
X67460000Y-70058000D02*
X66130000Y-70058000D01*
X66130000Y-70058000D02*
X66130000Y-68728000D01*
X68730000Y-67398000D02*
X73870000Y-67398000D01*
X68730000Y-70058000D02*
X73870000Y-70058000D01*
X73870000Y-70058000D02*
X73870000Y-67398000D01*
X68730000Y-70058000D02*
X68730000Y-67398000D01*
%TO.C,SW1*%
X157782000Y-120259000D02*
X150162000Y-120259000D01*
X150162000Y-115217000D02*
X157782000Y-115217000D01*
X157782000Y-122837000D02*
X150162000Y-122837000D01*
X157782000Y-122837000D02*
X157782000Y-115217000D01*
X150162000Y-115217000D02*
X150162000Y-122837000D01*
X73782000Y-122837000D02*
X66162000Y-122837000D01*
X73782000Y-120259000D02*
X66162000Y-120259000D01*
X66162000Y-115217000D02*
X66162000Y-122837000D01*
X73782000Y-122837000D02*
X73782000Y-115217000D01*
X66162000Y-115217000D02*
X73782000Y-115217000D01*
X136162000Y-115217000D02*
X136162000Y-122837000D01*
X143782000Y-122837000D02*
X143782000Y-115217000D01*
X143782000Y-122837000D02*
X136162000Y-122837000D01*
X143782000Y-120259000D02*
X136162000Y-120259000D01*
X136162000Y-115217000D02*
X143782000Y-115217000D01*
%TO.C,J1*%
X138730000Y-48058000D02*
X143870000Y-48058000D01*
X138730000Y-48058000D02*
X138730000Y-45398000D01*
X136130000Y-48058000D02*
X136130000Y-46728000D01*
X137460000Y-48058000D02*
X136130000Y-48058000D01*
X138730000Y-45398000D02*
X143870000Y-45398000D01*
X143870000Y-48058000D02*
X143870000Y-45398000D01*
X80130000Y-92058000D02*
X80130000Y-90728000D01*
X82730000Y-89398000D02*
X87870000Y-89398000D01*
X81460000Y-92058000D02*
X80130000Y-92058000D01*
X87870000Y-92058000D02*
X87870000Y-89398000D01*
X82730000Y-92058000D02*
X82730000Y-89398000D01*
X82730000Y-92058000D02*
X87870000Y-92058000D01*
%TO.C,SW1*%
X101782000Y-78837000D02*
X94162000Y-78837000D01*
X101782000Y-76259000D02*
X94162000Y-76259000D01*
X101782000Y-78837000D02*
X101782000Y-71217000D01*
X94162000Y-71217000D02*
X94162000Y-78837000D01*
X94162000Y-71217000D02*
X101782000Y-71217000D01*
X101782000Y-56837000D02*
X94162000Y-56837000D01*
X94162000Y-49217000D02*
X101782000Y-49217000D01*
X101782000Y-56837000D02*
X101782000Y-49217000D01*
X94162000Y-49217000D02*
X94162000Y-56837000D01*
X101782000Y-54259000D02*
X94162000Y-54259000D01*
X80162000Y-115217000D02*
X87782000Y-115217000D01*
X87782000Y-122837000D02*
X80162000Y-122837000D01*
X80162000Y-115217000D02*
X80162000Y-122837000D01*
X87782000Y-120259000D02*
X80162000Y-120259000D01*
X87782000Y-122837000D02*
X87782000Y-115217000D01*
%TO.C,J1*%
X152730000Y-67398000D02*
X157870000Y-67398000D01*
X152730000Y-70058000D02*
X152730000Y-67398000D01*
X151460000Y-70058000D02*
X150130000Y-70058000D01*
X152730000Y-70058000D02*
X157870000Y-70058000D01*
X157870000Y-70058000D02*
X157870000Y-67398000D01*
X150130000Y-70058000D02*
X150130000Y-68728000D01*
%TO.C,J2*%
X129870000Y-60758000D02*
X129870000Y-58098000D01*
X124730000Y-58098000D02*
X129870000Y-58098000D01*
X124730000Y-60758000D02*
X124730000Y-58098000D01*
X124730000Y-60758000D02*
X129870000Y-60758000D01*
X122130000Y-60758000D02*
X122130000Y-59428000D01*
X123460000Y-60758000D02*
X122130000Y-60758000D01*
%TO.C,SW1*%
X66162000Y-49217000D02*
X66162000Y-56837000D01*
X73782000Y-56837000D02*
X73782000Y-49217000D01*
X73782000Y-56837000D02*
X66162000Y-56837000D01*
X66162000Y-49217000D02*
X73782000Y-49217000D01*
X73782000Y-54259000D02*
X66162000Y-54259000D01*
%TO.C,J2*%
X109460000Y-82758000D02*
X108130000Y-82758000D01*
X115870000Y-82758000D02*
X115870000Y-80098000D01*
X108130000Y-82758000D02*
X108130000Y-81428000D01*
X110730000Y-82758000D02*
X115870000Y-82758000D01*
X110730000Y-82758000D02*
X110730000Y-80098000D01*
X110730000Y-80098000D02*
X115870000Y-80098000D01*
%TO.C,J1*%
X96730000Y-67398000D02*
X101870000Y-67398000D01*
X101870000Y-70058000D02*
X101870000Y-67398000D01*
X96730000Y-70058000D02*
X101870000Y-70058000D01*
X96730000Y-70058000D02*
X96730000Y-67398000D01*
X95460000Y-70058000D02*
X94130000Y-70058000D01*
X94130000Y-70058000D02*
X94130000Y-68728000D01*
%TO.C,SW1*%
X122162000Y-115217000D02*
X129782000Y-115217000D01*
X122162000Y-115217000D02*
X122162000Y-122837000D01*
X129782000Y-122837000D02*
X122162000Y-122837000D01*
X129782000Y-122837000D02*
X129782000Y-115217000D01*
X129782000Y-120259000D02*
X122162000Y-120259000D01*
%TO.C,J1*%
X73870000Y-92058000D02*
X73870000Y-89398000D01*
X68730000Y-92058000D02*
X68730000Y-89398000D01*
X68730000Y-89398000D02*
X73870000Y-89398000D01*
X67460000Y-92058000D02*
X66130000Y-92058000D01*
X68730000Y-92058000D02*
X73870000Y-92058000D01*
X66130000Y-92058000D02*
X66130000Y-90728000D01*
%TO.C,J2*%
X68730000Y-60758000D02*
X73870000Y-60758000D01*
X73870000Y-60758000D02*
X73870000Y-58098000D01*
X68730000Y-60758000D02*
X68730000Y-58098000D01*
X66130000Y-60758000D02*
X66130000Y-59428000D01*
X67460000Y-60758000D02*
X66130000Y-60758000D01*
X68730000Y-58098000D02*
X73870000Y-58098000D01*
%TO.C,J1*%
X96730000Y-45398000D02*
X101870000Y-45398000D01*
X95460000Y-48058000D02*
X94130000Y-48058000D01*
X96730000Y-48058000D02*
X101870000Y-48058000D01*
X101870000Y-48058000D02*
X101870000Y-45398000D01*
X96730000Y-48058000D02*
X96730000Y-45398000D01*
X94130000Y-48058000D02*
X94130000Y-46728000D01*
%TO.C,SW1*%
X143782000Y-56837000D02*
X136162000Y-56837000D01*
X143782000Y-56837000D02*
X143782000Y-49217000D01*
X136162000Y-49217000D02*
X136162000Y-56837000D01*
X143782000Y-54259000D02*
X136162000Y-54259000D01*
X136162000Y-49217000D02*
X143782000Y-49217000D01*
X66162000Y-93217000D02*
X73782000Y-93217000D01*
X73782000Y-100837000D02*
X73782000Y-93217000D01*
X73782000Y-98259000D02*
X66162000Y-98259000D01*
X73782000Y-100837000D02*
X66162000Y-100837000D01*
X66162000Y-93217000D02*
X66162000Y-100837000D01*
%TO.C,J2*%
X157870000Y-60758000D02*
X157870000Y-58098000D01*
X150130000Y-60758000D02*
X150130000Y-59428000D01*
X152730000Y-58098000D02*
X157870000Y-58098000D01*
X152730000Y-60758000D02*
X157870000Y-60758000D01*
X151460000Y-60758000D02*
X150130000Y-60758000D01*
X152730000Y-60758000D02*
X152730000Y-58098000D01*
%TO.C,SW1*%
X87782000Y-78837000D02*
X87782000Y-71217000D01*
X87782000Y-78837000D02*
X80162000Y-78837000D01*
X80162000Y-71217000D02*
X80162000Y-78837000D01*
X80162000Y-71217000D02*
X87782000Y-71217000D01*
X87782000Y-76259000D02*
X80162000Y-76259000D01*
%TO.C,J1*%
X109460000Y-70058000D02*
X108130000Y-70058000D01*
X110730000Y-70058000D02*
X115870000Y-70058000D01*
X110730000Y-70058000D02*
X110730000Y-67398000D01*
X108130000Y-70058000D02*
X108130000Y-68728000D01*
X115870000Y-70058000D02*
X115870000Y-67398000D01*
X110730000Y-67398000D02*
X115870000Y-67398000D01*
X96730000Y-92058000D02*
X101870000Y-92058000D01*
X96730000Y-89398000D02*
X101870000Y-89398000D01*
X94130000Y-92058000D02*
X94130000Y-90728000D01*
X96730000Y-92058000D02*
X96730000Y-89398000D01*
X95460000Y-92058000D02*
X94130000Y-92058000D01*
X101870000Y-92058000D02*
X101870000Y-89398000D01*
%TO.C,J2*%
X109460000Y-60758000D02*
X108130000Y-60758000D01*
X115870000Y-60758000D02*
X115870000Y-58098000D01*
X110730000Y-60758000D02*
X110730000Y-58098000D01*
X110730000Y-60758000D02*
X115870000Y-60758000D01*
X110730000Y-58098000D02*
X115870000Y-58098000D01*
X108130000Y-60758000D02*
X108130000Y-59428000D01*
%TO.C,SW1*%
X115782000Y-54259000D02*
X108162000Y-54259000D01*
X108162000Y-49217000D02*
X108162000Y-56837000D01*
X115782000Y-56837000D02*
X108162000Y-56837000D01*
X108162000Y-49217000D02*
X115782000Y-49217000D01*
X115782000Y-56837000D02*
X115782000Y-49217000D01*
X122162000Y-71217000D02*
X122162000Y-78837000D01*
X122162000Y-71217000D02*
X129782000Y-71217000D01*
X129782000Y-76259000D02*
X122162000Y-76259000D01*
X129782000Y-78837000D02*
X129782000Y-71217000D01*
X129782000Y-78837000D02*
X122162000Y-78837000D01*
%TO.C,J1*%
X157870000Y-114058000D02*
X157870000Y-111398000D01*
X150130000Y-114058000D02*
X150130000Y-112728000D01*
X152730000Y-114058000D02*
X157870000Y-114058000D01*
X152730000Y-111398000D02*
X157870000Y-111398000D01*
X152730000Y-114058000D02*
X152730000Y-111398000D01*
X151460000Y-114058000D02*
X150130000Y-114058000D01*
X129870000Y-70058000D02*
X129870000Y-67398000D01*
X124730000Y-70058000D02*
X129870000Y-70058000D01*
X123460000Y-70058000D02*
X122130000Y-70058000D01*
X124730000Y-67398000D02*
X129870000Y-67398000D01*
X124730000Y-70058000D02*
X124730000Y-67398000D01*
X122130000Y-70058000D02*
X122130000Y-68728000D01*
%TO.C,SW1*%
X157782000Y-100837000D02*
X157782000Y-93217000D01*
X157782000Y-100837000D02*
X150162000Y-100837000D01*
X150162000Y-93217000D02*
X150162000Y-100837000D01*
X157782000Y-98259000D02*
X150162000Y-98259000D01*
X150162000Y-93217000D02*
X157782000Y-93217000D01*
%TO.C,J2*%
X129870000Y-104758000D02*
X129870000Y-102098000D01*
X122130000Y-104758000D02*
X122130000Y-103428000D01*
X124730000Y-104758000D02*
X124730000Y-102098000D01*
X124730000Y-102098000D02*
X129870000Y-102098000D01*
X123460000Y-104758000D02*
X122130000Y-104758000D01*
X124730000Y-104758000D02*
X129870000Y-104758000D01*
X136130000Y-82758000D02*
X136130000Y-81428000D01*
X138730000Y-80098000D02*
X143870000Y-80098000D01*
X143870000Y-82758000D02*
X143870000Y-80098000D01*
X138730000Y-82758000D02*
X143870000Y-82758000D01*
X137460000Y-82758000D02*
X136130000Y-82758000D01*
X138730000Y-82758000D02*
X138730000Y-80098000D01*
X82730000Y-60758000D02*
X87870000Y-60758000D01*
X82730000Y-60758000D02*
X82730000Y-58098000D01*
X87870000Y-60758000D02*
X87870000Y-58098000D01*
X80130000Y-60758000D02*
X80130000Y-59428000D01*
X82730000Y-58098000D02*
X87870000Y-58098000D01*
X81460000Y-60758000D02*
X80130000Y-60758000D01*
%TO.C,SW1*%
X136162000Y-93217000D02*
X136162000Y-100837000D01*
X143782000Y-100837000D02*
X136162000Y-100837000D01*
X143782000Y-100837000D02*
X143782000Y-93217000D01*
X136162000Y-93217000D02*
X143782000Y-93217000D01*
X143782000Y-98259000D02*
X136162000Y-98259000D01*
%TO.C,J1*%
X123460000Y-48058000D02*
X122130000Y-48058000D01*
X122130000Y-48058000D02*
X122130000Y-46728000D01*
X129870000Y-48058000D02*
X129870000Y-45398000D01*
X124730000Y-48058000D02*
X129870000Y-48058000D01*
X124730000Y-48058000D02*
X124730000Y-45398000D01*
X124730000Y-45398000D02*
X129870000Y-45398000D01*
%TO.C,J2*%
X96730000Y-60758000D02*
X101870000Y-60758000D01*
X96730000Y-58098000D02*
X101870000Y-58098000D01*
X95460000Y-60758000D02*
X94130000Y-60758000D01*
X96730000Y-60758000D02*
X96730000Y-58098000D01*
X101870000Y-60758000D02*
X101870000Y-58098000D01*
X94130000Y-60758000D02*
X94130000Y-59428000D01*
%TO.C,J1*%
X151460000Y-92058000D02*
X150130000Y-92058000D01*
X150130000Y-92058000D02*
X150130000Y-90728000D01*
X157870000Y-92058000D02*
X157870000Y-89398000D01*
X152730000Y-92058000D02*
X152730000Y-89398000D01*
X152730000Y-92058000D02*
X157870000Y-92058000D01*
X152730000Y-89398000D02*
X157870000Y-89398000D01*
%TO.C,J2*%
X73870000Y-104758000D02*
X73870000Y-102098000D01*
X68730000Y-104758000D02*
X73870000Y-104758000D01*
X67460000Y-104758000D02*
X66130000Y-104758000D01*
X68730000Y-104758000D02*
X68730000Y-102098000D01*
X66130000Y-104758000D02*
X66130000Y-103428000D01*
X68730000Y-102098000D02*
X73870000Y-102098000D01*
%TO.C,J1*%
X122130000Y-92058000D02*
X122130000Y-90728000D01*
X123460000Y-92058000D02*
X122130000Y-92058000D01*
X124730000Y-92058000D02*
X129870000Y-92058000D01*
X124730000Y-89398000D02*
X129870000Y-89398000D01*
X129870000Y-92058000D02*
X129870000Y-89398000D01*
X124730000Y-92058000D02*
X124730000Y-89398000D01*
%TO.C,SW1*%
X101782000Y-122837000D02*
X101782000Y-115217000D01*
X101782000Y-122837000D02*
X94162000Y-122837000D01*
X94162000Y-115217000D02*
X101782000Y-115217000D01*
X101782000Y-120259000D02*
X94162000Y-120259000D01*
X94162000Y-115217000D02*
X94162000Y-122837000D01*
%TO.C,J2*%
X138730000Y-104758000D02*
X143870000Y-104758000D01*
X137460000Y-104758000D02*
X136130000Y-104758000D01*
X138730000Y-104758000D02*
X138730000Y-102098000D01*
X136130000Y-104758000D02*
X136130000Y-103428000D01*
X138730000Y-102098000D02*
X143870000Y-102098000D01*
X143870000Y-104758000D02*
X143870000Y-102098000D01*
%TO.C,J1*%
X122130000Y-114058000D02*
X122130000Y-112728000D01*
X123460000Y-114058000D02*
X122130000Y-114058000D01*
X124730000Y-114058000D02*
X124730000Y-111398000D01*
X124730000Y-111398000D02*
X129870000Y-111398000D01*
X129870000Y-114058000D02*
X129870000Y-111398000D01*
X124730000Y-114058000D02*
X129870000Y-114058000D01*
X82730000Y-70058000D02*
X82730000Y-67398000D01*
X80130000Y-70058000D02*
X80130000Y-68728000D01*
X81460000Y-70058000D02*
X80130000Y-70058000D01*
X82730000Y-67398000D02*
X87870000Y-67398000D01*
X82730000Y-70058000D02*
X87870000Y-70058000D01*
X87870000Y-70058000D02*
X87870000Y-67398000D01*
X115870000Y-48058000D02*
X115870000Y-45398000D01*
X109460000Y-48058000D02*
X108130000Y-48058000D01*
X110730000Y-48058000D02*
X110730000Y-45398000D01*
X110730000Y-45398000D02*
X115870000Y-45398000D01*
X108130000Y-48058000D02*
X108130000Y-46728000D01*
X110730000Y-48058000D02*
X115870000Y-48058000D01*
%TO.C,J2*%
X157870000Y-126758000D02*
X157870000Y-124098000D01*
X152730000Y-124098000D02*
X157870000Y-124098000D01*
X150130000Y-126758000D02*
X150130000Y-125428000D01*
X152730000Y-126758000D02*
X157870000Y-126758000D01*
X151460000Y-126758000D02*
X150130000Y-126758000D01*
X152730000Y-126758000D02*
X152730000Y-124098000D01*
X138730000Y-126758000D02*
X143870000Y-126758000D01*
X143870000Y-126758000D02*
X143870000Y-124098000D01*
X138730000Y-124098000D02*
X143870000Y-124098000D01*
X138730000Y-126758000D02*
X138730000Y-124098000D01*
X136130000Y-126758000D02*
X136130000Y-125428000D01*
X137460000Y-126758000D02*
X136130000Y-126758000D01*
%TO.C,J1*%
X73870000Y-114058000D02*
X73870000Y-111398000D01*
X67460000Y-114058000D02*
X66130000Y-114058000D01*
X68730000Y-114058000D02*
X68730000Y-111398000D01*
X68730000Y-114058000D02*
X73870000Y-114058000D01*
X68730000Y-111398000D02*
X73870000Y-111398000D01*
X66130000Y-114058000D02*
X66130000Y-112728000D01*
%TO.C,SW1*%
X101782000Y-100837000D02*
X101782000Y-93217000D01*
X101782000Y-100837000D02*
X94162000Y-100837000D01*
X94162000Y-93217000D02*
X101782000Y-93217000D01*
X94162000Y-93217000D02*
X94162000Y-100837000D01*
X101782000Y-98259000D02*
X94162000Y-98259000D01*
%TO.C,J2*%
X96730000Y-82758000D02*
X96730000Y-80098000D01*
X101870000Y-82758000D02*
X101870000Y-80098000D01*
X95460000Y-82758000D02*
X94130000Y-82758000D01*
X96730000Y-82758000D02*
X101870000Y-82758000D01*
X96730000Y-80098000D02*
X101870000Y-80098000D01*
X94130000Y-82758000D02*
X94130000Y-81428000D01*
%TO.C,SW1*%
X87782000Y-100837000D02*
X80162000Y-100837000D01*
X80162000Y-93217000D02*
X87782000Y-93217000D01*
X87782000Y-100837000D02*
X87782000Y-93217000D01*
X80162000Y-93217000D02*
X80162000Y-100837000D01*
X87782000Y-98259000D02*
X80162000Y-98259000D01*
%TO.C,J2*%
X124730000Y-124098000D02*
X129870000Y-124098000D01*
X124730000Y-126758000D02*
X129870000Y-126758000D01*
X124730000Y-126758000D02*
X124730000Y-124098000D01*
X122130000Y-126758000D02*
X122130000Y-125428000D01*
X123460000Y-126758000D02*
X122130000Y-126758000D01*
X129870000Y-126758000D02*
X129870000Y-124098000D01*
%TO.C,J1*%
X152730000Y-48058000D02*
X152730000Y-45398000D01*
X152730000Y-45398000D02*
X157870000Y-45398000D01*
X152730000Y-48058000D02*
X157870000Y-48058000D01*
X157870000Y-48058000D02*
X157870000Y-45398000D01*
X151460000Y-48058000D02*
X150130000Y-48058000D01*
X150130000Y-48058000D02*
X150130000Y-46728000D01*
%TO.C,SW1*%
X129782000Y-54259000D02*
X122162000Y-54259000D01*
X122162000Y-49217000D02*
X129782000Y-49217000D01*
X129782000Y-56837000D02*
X129782000Y-49217000D01*
X129782000Y-56837000D02*
X122162000Y-56837000D01*
X122162000Y-49217000D02*
X122162000Y-56837000D01*
X122162000Y-93217000D02*
X122162000Y-100837000D01*
X129782000Y-100837000D02*
X129782000Y-93217000D01*
X122162000Y-93217000D02*
X129782000Y-93217000D01*
X129782000Y-98259000D02*
X122162000Y-98259000D01*
X129782000Y-100837000D02*
X122162000Y-100837000D01*
%TO.C,J2*%
X80130000Y-82758000D02*
X80130000Y-81428000D01*
X87870000Y-82758000D02*
X87870000Y-80098000D01*
X82730000Y-82758000D02*
X87870000Y-82758000D01*
X82730000Y-82758000D02*
X82730000Y-80098000D01*
X82730000Y-80098000D02*
X87870000Y-80098000D01*
X81460000Y-82758000D02*
X80130000Y-82758000D01*
%TO.C,J1*%
X108130000Y-114058000D02*
X108130000Y-112728000D01*
X109460000Y-114058000D02*
X108130000Y-114058000D01*
X115870000Y-114058000D02*
X115870000Y-111398000D01*
X110730000Y-114058000D02*
X110730000Y-111398000D01*
X110730000Y-111398000D02*
X115870000Y-111398000D01*
X110730000Y-114058000D02*
X115870000Y-114058000D01*
%TO.C,J2*%
X66130000Y-126758000D02*
X66130000Y-125428000D01*
X68730000Y-124098000D02*
X73870000Y-124098000D01*
X68730000Y-126758000D02*
X73870000Y-126758000D01*
X68730000Y-126758000D02*
X68730000Y-124098000D01*
X67460000Y-126758000D02*
X66130000Y-126758000D01*
X73870000Y-126758000D02*
X73870000Y-124098000D01*
%TO.C,J1*%
X87870000Y-48058000D02*
X87870000Y-45398000D01*
X82730000Y-48058000D02*
X87870000Y-48058000D01*
X81460000Y-48058000D02*
X80130000Y-48058000D01*
X82730000Y-48058000D02*
X82730000Y-45398000D01*
X80130000Y-48058000D02*
X80130000Y-46728000D01*
X82730000Y-45398000D02*
X87870000Y-45398000D01*
X82730000Y-111398000D02*
X87870000Y-111398000D01*
X82730000Y-114058000D02*
X82730000Y-111398000D01*
X81460000Y-114058000D02*
X80130000Y-114058000D01*
X87870000Y-114058000D02*
X87870000Y-111398000D01*
X80130000Y-114058000D02*
X80130000Y-112728000D01*
X82730000Y-114058000D02*
X87870000Y-114058000D01*
%TO.C,SW1*%
X143782000Y-78837000D02*
X143782000Y-71217000D01*
X143782000Y-76259000D02*
X136162000Y-76259000D01*
X136162000Y-71217000D02*
X143782000Y-71217000D01*
X136162000Y-71217000D02*
X136162000Y-78837000D01*
X143782000Y-78837000D02*
X136162000Y-78837000D01*
X108162000Y-93217000D02*
X115782000Y-93217000D01*
X115782000Y-98259000D02*
X108162000Y-98259000D01*
X115782000Y-100837000D02*
X115782000Y-93217000D01*
X108162000Y-93217000D02*
X108162000Y-100837000D01*
X115782000Y-100837000D02*
X108162000Y-100837000D01*
%TO.C,J2*%
X82730000Y-104758000D02*
X82730000Y-102098000D01*
X80130000Y-104758000D02*
X80130000Y-103428000D01*
X87870000Y-104758000D02*
X87870000Y-102098000D01*
X82730000Y-102098000D02*
X87870000Y-102098000D01*
X81460000Y-104758000D02*
X80130000Y-104758000D01*
X82730000Y-104758000D02*
X87870000Y-104758000D01*
X81460000Y-126758000D02*
X80130000Y-126758000D01*
X82730000Y-126758000D02*
X87870000Y-126758000D01*
X82730000Y-126758000D02*
X82730000Y-124098000D01*
X82730000Y-124098000D02*
X87870000Y-124098000D01*
X87870000Y-126758000D02*
X87870000Y-124098000D01*
X80130000Y-126758000D02*
X80130000Y-125428000D01*
X96730000Y-124098000D02*
X101870000Y-124098000D01*
X101870000Y-126758000D02*
X101870000Y-124098000D01*
X96730000Y-126758000D02*
X96730000Y-124098000D01*
X94130000Y-126758000D02*
X94130000Y-125428000D01*
X96730000Y-126758000D02*
X101870000Y-126758000D01*
X95460000Y-126758000D02*
X94130000Y-126758000D01*
X110730000Y-104758000D02*
X110730000Y-102098000D01*
X110730000Y-104758000D02*
X115870000Y-104758000D01*
X115870000Y-104758000D02*
X115870000Y-102098000D01*
X108130000Y-104758000D02*
X108130000Y-103428000D01*
X110730000Y-102098000D02*
X115870000Y-102098000D01*
X109460000Y-104758000D02*
X108130000Y-104758000D01*
%TD*%
M02*
