%TF.GenerationSoftware,KiCad,Pcbnew,(6.0.0-0)*%
%TF.CreationDate,2022-11-23T09:42:25-05:00*%
%TF.ProjectId,Breakout_DPDT,42726561-6b6f-4757-945f-445044542e6b,rev?*%
%TF.SameCoordinates,Original*%
%TF.FileFunction,Copper,L2,Bot*%
%TF.FilePolarity,Positive*%
%FSLAX46Y46*%
G04 Gerber Fmt 4.6, Leading zero omitted, Abs format (unit mm)*
G04 Created by KiCad (PCBNEW (6.0.0-0)) date 2022-11-23 09:42:25*
%MOMM*%
%LPD*%
G01*
G04 APERTURE LIST*
%TA.AperFunction,ComponentPad*%
%ADD10R,1.700000X1.700000*%
%TD*%
%TA.AperFunction,ComponentPad*%
%ADD11O,1.700000X1.700000*%
%TD*%
%TA.AperFunction,ComponentPad*%
%ADD12C,1.524000*%
%TD*%
G04 APERTURE END LIST*
D10*
%TO.P,J2,1,Pin_1*%
%TO.N,Net-(J2-Pad1)*%
X137460000Y-59428000D03*
D11*
%TO.P,J2,2,Pin_2*%
%TO.N,Net-(J2-Pad2)*%
X140000000Y-59428000D03*
%TO.P,J2,3,Pin_3*%
%TO.N,Net-(J2-Pad3)*%
X142540000Y-59428000D03*
%TD*%
D10*
%TO.P,J1,1,Pin_1*%
%TO.N,Net-(J1-Pad1)*%
X137460000Y-112728000D03*
D11*
%TO.P,J1,2,Pin_2*%
%TO.N,Net-(J1-Pad2)*%
X140000000Y-112728000D03*
%TO.P,J1,3,Pin_3*%
%TO.N,Net-(J1-Pad3)*%
X142540000Y-112728000D03*
%TD*%
D12*
%TO.P,SW1,1,A*%
%TO.N,Net-(J2-Pad1)*%
X151420000Y-55539000D03*
%TO.P,SW1,2,B*%
%TO.N,Net-(J2-Pad2)*%
X156500000Y-55539000D03*
%TO.P,SW1,3,C*%
%TO.N,Net-(J2-Pad3)*%
X153960000Y-55539000D03*
%TO.P,SW1,4,A*%
%TO.N,Net-(J1-Pad1)*%
X153960000Y-50459000D03*
%TO.P,SW1,5,B*%
%TO.N,Net-(J1-Pad2)*%
X151420000Y-50459000D03*
%TO.P,SW1,6,C*%
%TO.N,Net-(J1-Pad3)*%
X156500000Y-50459000D03*
%TD*%
%TO.P,SW1,1,A*%
%TO.N,Net-(J2-Pad1)*%
X151420000Y-77539000D03*
%TO.P,SW1,2,B*%
%TO.N,Net-(J2-Pad2)*%
X156500000Y-77539000D03*
%TO.P,SW1,3,C*%
%TO.N,Net-(J2-Pad3)*%
X153960000Y-77539000D03*
%TO.P,SW1,4,A*%
%TO.N,Net-(J1-Pad1)*%
X153960000Y-72459000D03*
%TO.P,SW1,5,B*%
%TO.N,Net-(J1-Pad2)*%
X151420000Y-72459000D03*
%TO.P,SW1,6,C*%
%TO.N,Net-(J1-Pad3)*%
X156500000Y-72459000D03*
%TD*%
D10*
%TO.P,J2,1,Pin_1*%
%TO.N,Net-(J2-Pad1)*%
X151460000Y-103428000D03*
D11*
%TO.P,J2,2,Pin_2*%
%TO.N,Net-(J2-Pad2)*%
X154000000Y-103428000D03*
%TO.P,J2,3,Pin_3*%
%TO.N,Net-(J2-Pad3)*%
X156540000Y-103428000D03*
%TD*%
D12*
%TO.P,SW1,1,A*%
%TO.N,Net-(J2-Pad1)*%
X67420000Y-77539000D03*
%TO.P,SW1,2,B*%
%TO.N,Net-(J2-Pad2)*%
X72500000Y-77539000D03*
%TO.P,SW1,3,C*%
%TO.N,Net-(J2-Pad3)*%
X69960000Y-77539000D03*
%TO.P,SW1,4,A*%
%TO.N,Net-(J1-Pad1)*%
X69960000Y-72459000D03*
%TO.P,SW1,5,B*%
%TO.N,Net-(J1-Pad2)*%
X67420000Y-72459000D03*
%TO.P,SW1,6,C*%
%TO.N,Net-(J1-Pad3)*%
X72500000Y-72459000D03*
%TD*%
D10*
%TO.P,J1,1,Pin_1*%
%TO.N,Net-(J1-Pad1)*%
X137460000Y-90728000D03*
D11*
%TO.P,J1,2,Pin_2*%
%TO.N,Net-(J1-Pad2)*%
X140000000Y-90728000D03*
%TO.P,J1,3,Pin_3*%
%TO.N,Net-(J1-Pad3)*%
X142540000Y-90728000D03*
%TD*%
D12*
%TO.P,SW1,1,A*%
%TO.N,Net-(J2-Pad1)*%
X81420000Y-55539000D03*
%TO.P,SW1,2,B*%
%TO.N,Net-(J2-Pad2)*%
X86500000Y-55539000D03*
%TO.P,SW1,3,C*%
%TO.N,Net-(J2-Pad3)*%
X83960000Y-55539000D03*
%TO.P,SW1,4,A*%
%TO.N,Net-(J1-Pad1)*%
X83960000Y-50459000D03*
%TO.P,SW1,5,B*%
%TO.N,Net-(J1-Pad2)*%
X81420000Y-50459000D03*
%TO.P,SW1,6,C*%
%TO.N,Net-(J1-Pad3)*%
X86500000Y-50459000D03*
%TD*%
D10*
%TO.P,J1,1,Pin_1*%
%TO.N,Net-(J1-Pad1)*%
X95460000Y-112728000D03*
D11*
%TO.P,J1,2,Pin_2*%
%TO.N,Net-(J1-Pad2)*%
X98000000Y-112728000D03*
%TO.P,J1,3,Pin_3*%
%TO.N,Net-(J1-Pad3)*%
X100540000Y-112728000D03*
%TD*%
D10*
%TO.P,J2,1,Pin_1*%
%TO.N,Net-(J2-Pad1)*%
X67460000Y-81428000D03*
D11*
%TO.P,J2,2,Pin_2*%
%TO.N,Net-(J2-Pad2)*%
X70000000Y-81428000D03*
%TO.P,J2,3,Pin_3*%
%TO.N,Net-(J2-Pad3)*%
X72540000Y-81428000D03*
%TD*%
D10*
%TO.P,J1,1,Pin_1*%
%TO.N,Net-(J1-Pad1)*%
X137460000Y-68728000D03*
D11*
%TO.P,J1,2,Pin_2*%
%TO.N,Net-(J1-Pad2)*%
X140000000Y-68728000D03*
%TO.P,J1,3,Pin_3*%
%TO.N,Net-(J1-Pad3)*%
X142540000Y-68728000D03*
%TD*%
D10*
%TO.P,J1,1,Pin_1*%
%TO.N,Net-(J1-Pad1)*%
X109460000Y-90728000D03*
D11*
%TO.P,J1,2,Pin_2*%
%TO.N,Net-(J1-Pad2)*%
X112000000Y-90728000D03*
%TO.P,J1,3,Pin_3*%
%TO.N,Net-(J1-Pad3)*%
X114540000Y-90728000D03*
%TD*%
D10*
%TO.P,J2,1,Pin_1*%
%TO.N,Net-(J2-Pad1)*%
X109460000Y-125428000D03*
D11*
%TO.P,J2,2,Pin_2*%
%TO.N,Net-(J2-Pad2)*%
X112000000Y-125428000D03*
%TO.P,J2,3,Pin_3*%
%TO.N,Net-(J2-Pad3)*%
X114540000Y-125428000D03*
%TD*%
D10*
%TO.P,J2,1,Pin_1*%
%TO.N,Net-(J2-Pad1)*%
X151460000Y-81428000D03*
D11*
%TO.P,J2,2,Pin_2*%
%TO.N,Net-(J2-Pad2)*%
X154000000Y-81428000D03*
%TO.P,J2,3,Pin_3*%
%TO.N,Net-(J2-Pad3)*%
X156540000Y-81428000D03*
%TD*%
D10*
%TO.P,J2,1,Pin_1*%
%TO.N,Net-(J2-Pad1)*%
X95460000Y-103428000D03*
D11*
%TO.P,J2,2,Pin_2*%
%TO.N,Net-(J2-Pad2)*%
X98000000Y-103428000D03*
%TO.P,J2,3,Pin_3*%
%TO.N,Net-(J2-Pad3)*%
X100540000Y-103428000D03*
%TD*%
D12*
%TO.P,SW1,1,A*%
%TO.N,Net-(J2-Pad1)*%
X109420000Y-121539000D03*
%TO.P,SW1,2,B*%
%TO.N,Net-(J2-Pad2)*%
X114500000Y-121539000D03*
%TO.P,SW1,3,C*%
%TO.N,Net-(J2-Pad3)*%
X111960000Y-121539000D03*
%TO.P,SW1,4,A*%
%TO.N,Net-(J1-Pad1)*%
X111960000Y-116459000D03*
%TO.P,SW1,5,B*%
%TO.N,Net-(J1-Pad2)*%
X109420000Y-116459000D03*
%TO.P,SW1,6,C*%
%TO.N,Net-(J1-Pad3)*%
X114500000Y-116459000D03*
%TD*%
D10*
%TO.P,J1,1,Pin_1*%
%TO.N,Net-(J1-Pad1)*%
X67460000Y-46728000D03*
D11*
%TO.P,J1,2,Pin_2*%
%TO.N,Net-(J1-Pad2)*%
X70000000Y-46728000D03*
%TO.P,J1,3,Pin_3*%
%TO.N,Net-(J1-Pad3)*%
X72540000Y-46728000D03*
%TD*%
D10*
%TO.P,J2,1,Pin_1*%
%TO.N,Net-(J2-Pad1)*%
X123460000Y-81428000D03*
D11*
%TO.P,J2,2,Pin_2*%
%TO.N,Net-(J2-Pad2)*%
X126000000Y-81428000D03*
%TO.P,J2,3,Pin_3*%
%TO.N,Net-(J2-Pad3)*%
X128540000Y-81428000D03*
%TD*%
D12*
%TO.P,SW1,1,A*%
%TO.N,Net-(J2-Pad1)*%
X109420000Y-77539000D03*
%TO.P,SW1,2,B*%
%TO.N,Net-(J2-Pad2)*%
X114500000Y-77539000D03*
%TO.P,SW1,3,C*%
%TO.N,Net-(J2-Pad3)*%
X111960000Y-77539000D03*
%TO.P,SW1,4,A*%
%TO.N,Net-(J1-Pad1)*%
X111960000Y-72459000D03*
%TO.P,SW1,5,B*%
%TO.N,Net-(J1-Pad2)*%
X109420000Y-72459000D03*
%TO.P,SW1,6,C*%
%TO.N,Net-(J1-Pad3)*%
X114500000Y-72459000D03*
%TD*%
D10*
%TO.P,J1,1,Pin_1*%
%TO.N,Net-(J1-Pad1)*%
X67460000Y-68728000D03*
D11*
%TO.P,J1,2,Pin_2*%
%TO.N,Net-(J1-Pad2)*%
X70000000Y-68728000D03*
%TO.P,J1,3,Pin_3*%
%TO.N,Net-(J1-Pad3)*%
X72540000Y-68728000D03*
%TD*%
D12*
%TO.P,SW1,1,A*%
%TO.N,Net-(J2-Pad1)*%
X151420000Y-121539000D03*
%TO.P,SW1,2,B*%
%TO.N,Net-(J2-Pad2)*%
X156500000Y-121539000D03*
%TO.P,SW1,3,C*%
%TO.N,Net-(J2-Pad3)*%
X153960000Y-121539000D03*
%TO.P,SW1,4,A*%
%TO.N,Net-(J1-Pad1)*%
X153960000Y-116459000D03*
%TO.P,SW1,5,B*%
%TO.N,Net-(J1-Pad2)*%
X151420000Y-116459000D03*
%TO.P,SW1,6,C*%
%TO.N,Net-(J1-Pad3)*%
X156500000Y-116459000D03*
%TD*%
%TO.P,SW1,1,A*%
%TO.N,Net-(J2-Pad1)*%
X67420000Y-121539000D03*
%TO.P,SW1,2,B*%
%TO.N,Net-(J2-Pad2)*%
X72500000Y-121539000D03*
%TO.P,SW1,3,C*%
%TO.N,Net-(J2-Pad3)*%
X69960000Y-121539000D03*
%TO.P,SW1,4,A*%
%TO.N,Net-(J1-Pad1)*%
X69960000Y-116459000D03*
%TO.P,SW1,5,B*%
%TO.N,Net-(J1-Pad2)*%
X67420000Y-116459000D03*
%TO.P,SW1,6,C*%
%TO.N,Net-(J1-Pad3)*%
X72500000Y-116459000D03*
%TD*%
%TO.P,SW1,1,A*%
%TO.N,Net-(J2-Pad1)*%
X137420000Y-121539000D03*
%TO.P,SW1,2,B*%
%TO.N,Net-(J2-Pad2)*%
X142500000Y-121539000D03*
%TO.P,SW1,3,C*%
%TO.N,Net-(J2-Pad3)*%
X139960000Y-121539000D03*
%TO.P,SW1,4,A*%
%TO.N,Net-(J1-Pad1)*%
X139960000Y-116459000D03*
%TO.P,SW1,5,B*%
%TO.N,Net-(J1-Pad2)*%
X137420000Y-116459000D03*
%TO.P,SW1,6,C*%
%TO.N,Net-(J1-Pad3)*%
X142500000Y-116459000D03*
%TD*%
D10*
%TO.P,J1,1,Pin_1*%
%TO.N,Net-(J1-Pad1)*%
X137460000Y-46728000D03*
D11*
%TO.P,J1,2,Pin_2*%
%TO.N,Net-(J1-Pad2)*%
X140000000Y-46728000D03*
%TO.P,J1,3,Pin_3*%
%TO.N,Net-(J1-Pad3)*%
X142540000Y-46728000D03*
%TD*%
D10*
%TO.P,J1,1,Pin_1*%
%TO.N,Net-(J1-Pad1)*%
X81460000Y-90728000D03*
D11*
%TO.P,J1,2,Pin_2*%
%TO.N,Net-(J1-Pad2)*%
X84000000Y-90728000D03*
%TO.P,J1,3,Pin_3*%
%TO.N,Net-(J1-Pad3)*%
X86540000Y-90728000D03*
%TD*%
D12*
%TO.P,SW1,1,A*%
%TO.N,Net-(J2-Pad1)*%
X95420000Y-77539000D03*
%TO.P,SW1,2,B*%
%TO.N,Net-(J2-Pad2)*%
X100500000Y-77539000D03*
%TO.P,SW1,3,C*%
%TO.N,Net-(J2-Pad3)*%
X97960000Y-77539000D03*
%TO.P,SW1,4,A*%
%TO.N,Net-(J1-Pad1)*%
X97960000Y-72459000D03*
%TO.P,SW1,5,B*%
%TO.N,Net-(J1-Pad2)*%
X95420000Y-72459000D03*
%TO.P,SW1,6,C*%
%TO.N,Net-(J1-Pad3)*%
X100500000Y-72459000D03*
%TD*%
%TO.P,SW1,1,A*%
%TO.N,Net-(J2-Pad1)*%
X95420000Y-55539000D03*
%TO.P,SW1,2,B*%
%TO.N,Net-(J2-Pad2)*%
X100500000Y-55539000D03*
%TO.P,SW1,3,C*%
%TO.N,Net-(J2-Pad3)*%
X97960000Y-55539000D03*
%TO.P,SW1,4,A*%
%TO.N,Net-(J1-Pad1)*%
X97960000Y-50459000D03*
%TO.P,SW1,5,B*%
%TO.N,Net-(J1-Pad2)*%
X95420000Y-50459000D03*
%TO.P,SW1,6,C*%
%TO.N,Net-(J1-Pad3)*%
X100500000Y-50459000D03*
%TD*%
%TO.P,SW1,1,A*%
%TO.N,Net-(J2-Pad1)*%
X81420000Y-121539000D03*
%TO.P,SW1,2,B*%
%TO.N,Net-(J2-Pad2)*%
X86500000Y-121539000D03*
%TO.P,SW1,3,C*%
%TO.N,Net-(J2-Pad3)*%
X83960000Y-121539000D03*
%TO.P,SW1,4,A*%
%TO.N,Net-(J1-Pad1)*%
X83960000Y-116459000D03*
%TO.P,SW1,5,B*%
%TO.N,Net-(J1-Pad2)*%
X81420000Y-116459000D03*
%TO.P,SW1,6,C*%
%TO.N,Net-(J1-Pad3)*%
X86500000Y-116459000D03*
%TD*%
D10*
%TO.P,J1,1,Pin_1*%
%TO.N,Net-(J1-Pad1)*%
X151460000Y-68728000D03*
D11*
%TO.P,J1,2,Pin_2*%
%TO.N,Net-(J1-Pad2)*%
X154000000Y-68728000D03*
%TO.P,J1,3,Pin_3*%
%TO.N,Net-(J1-Pad3)*%
X156540000Y-68728000D03*
%TD*%
D10*
%TO.P,J2,1,Pin_1*%
%TO.N,Net-(J2-Pad1)*%
X123460000Y-59428000D03*
D11*
%TO.P,J2,2,Pin_2*%
%TO.N,Net-(J2-Pad2)*%
X126000000Y-59428000D03*
%TO.P,J2,3,Pin_3*%
%TO.N,Net-(J2-Pad3)*%
X128540000Y-59428000D03*
%TD*%
D12*
%TO.P,SW1,1,A*%
%TO.N,Net-(J2-Pad1)*%
X67420000Y-55539000D03*
%TO.P,SW1,2,B*%
%TO.N,Net-(J2-Pad2)*%
X72500000Y-55539000D03*
%TO.P,SW1,3,C*%
%TO.N,Net-(J2-Pad3)*%
X69960000Y-55539000D03*
%TO.P,SW1,4,A*%
%TO.N,Net-(J1-Pad1)*%
X69960000Y-50459000D03*
%TO.P,SW1,5,B*%
%TO.N,Net-(J1-Pad2)*%
X67420000Y-50459000D03*
%TO.P,SW1,6,C*%
%TO.N,Net-(J1-Pad3)*%
X72500000Y-50459000D03*
%TD*%
D10*
%TO.P,J2,1,Pin_1*%
%TO.N,Net-(J2-Pad1)*%
X109460000Y-81428000D03*
D11*
%TO.P,J2,2,Pin_2*%
%TO.N,Net-(J2-Pad2)*%
X112000000Y-81428000D03*
%TO.P,J2,3,Pin_3*%
%TO.N,Net-(J2-Pad3)*%
X114540000Y-81428000D03*
%TD*%
D10*
%TO.P,J1,1,Pin_1*%
%TO.N,Net-(J1-Pad1)*%
X95460000Y-68728000D03*
D11*
%TO.P,J1,2,Pin_2*%
%TO.N,Net-(J1-Pad2)*%
X98000000Y-68728000D03*
%TO.P,J1,3,Pin_3*%
%TO.N,Net-(J1-Pad3)*%
X100540000Y-68728000D03*
%TD*%
D12*
%TO.P,SW1,1,A*%
%TO.N,Net-(J2-Pad1)*%
X123420000Y-121539000D03*
%TO.P,SW1,2,B*%
%TO.N,Net-(J2-Pad2)*%
X128500000Y-121539000D03*
%TO.P,SW1,3,C*%
%TO.N,Net-(J2-Pad3)*%
X125960000Y-121539000D03*
%TO.P,SW1,4,A*%
%TO.N,Net-(J1-Pad1)*%
X125960000Y-116459000D03*
%TO.P,SW1,5,B*%
%TO.N,Net-(J1-Pad2)*%
X123420000Y-116459000D03*
%TO.P,SW1,6,C*%
%TO.N,Net-(J1-Pad3)*%
X128500000Y-116459000D03*
%TD*%
D10*
%TO.P,J1,1,Pin_1*%
%TO.N,Net-(J1-Pad1)*%
X67460000Y-90728000D03*
D11*
%TO.P,J1,2,Pin_2*%
%TO.N,Net-(J1-Pad2)*%
X70000000Y-90728000D03*
%TO.P,J1,3,Pin_3*%
%TO.N,Net-(J1-Pad3)*%
X72540000Y-90728000D03*
%TD*%
D10*
%TO.P,J2,1,Pin_1*%
%TO.N,Net-(J2-Pad1)*%
X67460000Y-59428000D03*
D11*
%TO.P,J2,2,Pin_2*%
%TO.N,Net-(J2-Pad2)*%
X70000000Y-59428000D03*
%TO.P,J2,3,Pin_3*%
%TO.N,Net-(J2-Pad3)*%
X72540000Y-59428000D03*
%TD*%
D10*
%TO.P,J1,1,Pin_1*%
%TO.N,Net-(J1-Pad1)*%
X95460000Y-46728000D03*
D11*
%TO.P,J1,2,Pin_2*%
%TO.N,Net-(J1-Pad2)*%
X98000000Y-46728000D03*
%TO.P,J1,3,Pin_3*%
%TO.N,Net-(J1-Pad3)*%
X100540000Y-46728000D03*
%TD*%
D12*
%TO.P,SW1,1,A*%
%TO.N,Net-(J2-Pad1)*%
X137420000Y-55539000D03*
%TO.P,SW1,2,B*%
%TO.N,Net-(J2-Pad2)*%
X142500000Y-55539000D03*
%TO.P,SW1,3,C*%
%TO.N,Net-(J2-Pad3)*%
X139960000Y-55539000D03*
%TO.P,SW1,4,A*%
%TO.N,Net-(J1-Pad1)*%
X139960000Y-50459000D03*
%TO.P,SW1,5,B*%
%TO.N,Net-(J1-Pad2)*%
X137420000Y-50459000D03*
%TO.P,SW1,6,C*%
%TO.N,Net-(J1-Pad3)*%
X142500000Y-50459000D03*
%TD*%
%TO.P,SW1,1,A*%
%TO.N,Net-(J2-Pad1)*%
X67420000Y-99539000D03*
%TO.P,SW1,2,B*%
%TO.N,Net-(J2-Pad2)*%
X72500000Y-99539000D03*
%TO.P,SW1,3,C*%
%TO.N,Net-(J2-Pad3)*%
X69960000Y-99539000D03*
%TO.P,SW1,4,A*%
%TO.N,Net-(J1-Pad1)*%
X69960000Y-94459000D03*
%TO.P,SW1,5,B*%
%TO.N,Net-(J1-Pad2)*%
X67420000Y-94459000D03*
%TO.P,SW1,6,C*%
%TO.N,Net-(J1-Pad3)*%
X72500000Y-94459000D03*
%TD*%
D10*
%TO.P,J2,1,Pin_1*%
%TO.N,Net-(J2-Pad1)*%
X151460000Y-59428000D03*
D11*
%TO.P,J2,2,Pin_2*%
%TO.N,Net-(J2-Pad2)*%
X154000000Y-59428000D03*
%TO.P,J2,3,Pin_3*%
%TO.N,Net-(J2-Pad3)*%
X156540000Y-59428000D03*
%TD*%
D12*
%TO.P,SW1,1,A*%
%TO.N,Net-(J2-Pad1)*%
X81420000Y-77539000D03*
%TO.P,SW1,2,B*%
%TO.N,Net-(J2-Pad2)*%
X86500000Y-77539000D03*
%TO.P,SW1,3,C*%
%TO.N,Net-(J2-Pad3)*%
X83960000Y-77539000D03*
%TO.P,SW1,4,A*%
%TO.N,Net-(J1-Pad1)*%
X83960000Y-72459000D03*
%TO.P,SW1,5,B*%
%TO.N,Net-(J1-Pad2)*%
X81420000Y-72459000D03*
%TO.P,SW1,6,C*%
%TO.N,Net-(J1-Pad3)*%
X86500000Y-72459000D03*
%TD*%
D10*
%TO.P,J1,1,Pin_1*%
%TO.N,Net-(J1-Pad1)*%
X109460000Y-68728000D03*
D11*
%TO.P,J1,2,Pin_2*%
%TO.N,Net-(J1-Pad2)*%
X112000000Y-68728000D03*
%TO.P,J1,3,Pin_3*%
%TO.N,Net-(J1-Pad3)*%
X114540000Y-68728000D03*
%TD*%
D10*
%TO.P,J1,1,Pin_1*%
%TO.N,Net-(J1-Pad1)*%
X95460000Y-90728000D03*
D11*
%TO.P,J1,2,Pin_2*%
%TO.N,Net-(J1-Pad2)*%
X98000000Y-90728000D03*
%TO.P,J1,3,Pin_3*%
%TO.N,Net-(J1-Pad3)*%
X100540000Y-90728000D03*
%TD*%
D10*
%TO.P,J2,1,Pin_1*%
%TO.N,Net-(J2-Pad1)*%
X109460000Y-59428000D03*
D11*
%TO.P,J2,2,Pin_2*%
%TO.N,Net-(J2-Pad2)*%
X112000000Y-59428000D03*
%TO.P,J2,3,Pin_3*%
%TO.N,Net-(J2-Pad3)*%
X114540000Y-59428000D03*
%TD*%
D12*
%TO.P,SW1,1,A*%
%TO.N,Net-(J2-Pad1)*%
X109420000Y-55539000D03*
%TO.P,SW1,2,B*%
%TO.N,Net-(J2-Pad2)*%
X114500000Y-55539000D03*
%TO.P,SW1,3,C*%
%TO.N,Net-(J2-Pad3)*%
X111960000Y-55539000D03*
%TO.P,SW1,4,A*%
%TO.N,Net-(J1-Pad1)*%
X111960000Y-50459000D03*
%TO.P,SW1,5,B*%
%TO.N,Net-(J1-Pad2)*%
X109420000Y-50459000D03*
%TO.P,SW1,6,C*%
%TO.N,Net-(J1-Pad3)*%
X114500000Y-50459000D03*
%TD*%
%TO.P,SW1,1,A*%
%TO.N,Net-(J2-Pad1)*%
X123420000Y-77539000D03*
%TO.P,SW1,2,B*%
%TO.N,Net-(J2-Pad2)*%
X128500000Y-77539000D03*
%TO.P,SW1,3,C*%
%TO.N,Net-(J2-Pad3)*%
X125960000Y-77539000D03*
%TO.P,SW1,4,A*%
%TO.N,Net-(J1-Pad1)*%
X125960000Y-72459000D03*
%TO.P,SW1,5,B*%
%TO.N,Net-(J1-Pad2)*%
X123420000Y-72459000D03*
%TO.P,SW1,6,C*%
%TO.N,Net-(J1-Pad3)*%
X128500000Y-72459000D03*
%TD*%
D10*
%TO.P,J1,1,Pin_1*%
%TO.N,Net-(J1-Pad1)*%
X151460000Y-112728000D03*
D11*
%TO.P,J1,2,Pin_2*%
%TO.N,Net-(J1-Pad2)*%
X154000000Y-112728000D03*
%TO.P,J1,3,Pin_3*%
%TO.N,Net-(J1-Pad3)*%
X156540000Y-112728000D03*
%TD*%
D10*
%TO.P,J1,1,Pin_1*%
%TO.N,Net-(J1-Pad1)*%
X123460000Y-68728000D03*
D11*
%TO.P,J1,2,Pin_2*%
%TO.N,Net-(J1-Pad2)*%
X126000000Y-68728000D03*
%TO.P,J1,3,Pin_3*%
%TO.N,Net-(J1-Pad3)*%
X128540000Y-68728000D03*
%TD*%
D12*
%TO.P,SW1,1,A*%
%TO.N,Net-(J2-Pad1)*%
X151420000Y-99539000D03*
%TO.P,SW1,2,B*%
%TO.N,Net-(J2-Pad2)*%
X156500000Y-99539000D03*
%TO.P,SW1,3,C*%
%TO.N,Net-(J2-Pad3)*%
X153960000Y-99539000D03*
%TO.P,SW1,4,A*%
%TO.N,Net-(J1-Pad1)*%
X153960000Y-94459000D03*
%TO.P,SW1,5,B*%
%TO.N,Net-(J1-Pad2)*%
X151420000Y-94459000D03*
%TO.P,SW1,6,C*%
%TO.N,Net-(J1-Pad3)*%
X156500000Y-94459000D03*
%TD*%
D10*
%TO.P,J2,1,Pin_1*%
%TO.N,Net-(J2-Pad1)*%
X123460000Y-103428000D03*
D11*
%TO.P,J2,2,Pin_2*%
%TO.N,Net-(J2-Pad2)*%
X126000000Y-103428000D03*
%TO.P,J2,3,Pin_3*%
%TO.N,Net-(J2-Pad3)*%
X128540000Y-103428000D03*
%TD*%
D10*
%TO.P,J2,1,Pin_1*%
%TO.N,Net-(J2-Pad1)*%
X137460000Y-81428000D03*
D11*
%TO.P,J2,2,Pin_2*%
%TO.N,Net-(J2-Pad2)*%
X140000000Y-81428000D03*
%TO.P,J2,3,Pin_3*%
%TO.N,Net-(J2-Pad3)*%
X142540000Y-81428000D03*
%TD*%
D10*
%TO.P,J2,1,Pin_1*%
%TO.N,Net-(J2-Pad1)*%
X81460000Y-59428000D03*
D11*
%TO.P,J2,2,Pin_2*%
%TO.N,Net-(J2-Pad2)*%
X84000000Y-59428000D03*
%TO.P,J2,3,Pin_3*%
%TO.N,Net-(J2-Pad3)*%
X86540000Y-59428000D03*
%TD*%
D12*
%TO.P,SW1,1,A*%
%TO.N,Net-(J2-Pad1)*%
X137420000Y-99539000D03*
%TO.P,SW1,2,B*%
%TO.N,Net-(J2-Pad2)*%
X142500000Y-99539000D03*
%TO.P,SW1,3,C*%
%TO.N,Net-(J2-Pad3)*%
X139960000Y-99539000D03*
%TO.P,SW1,4,A*%
%TO.N,Net-(J1-Pad1)*%
X139960000Y-94459000D03*
%TO.P,SW1,5,B*%
%TO.N,Net-(J1-Pad2)*%
X137420000Y-94459000D03*
%TO.P,SW1,6,C*%
%TO.N,Net-(J1-Pad3)*%
X142500000Y-94459000D03*
%TD*%
D10*
%TO.P,J1,1,Pin_1*%
%TO.N,Net-(J1-Pad1)*%
X123460000Y-46728000D03*
D11*
%TO.P,J1,2,Pin_2*%
%TO.N,Net-(J1-Pad2)*%
X126000000Y-46728000D03*
%TO.P,J1,3,Pin_3*%
%TO.N,Net-(J1-Pad3)*%
X128540000Y-46728000D03*
%TD*%
D10*
%TO.P,J2,1,Pin_1*%
%TO.N,Net-(J2-Pad1)*%
X95460000Y-59428000D03*
D11*
%TO.P,J2,2,Pin_2*%
%TO.N,Net-(J2-Pad2)*%
X98000000Y-59428000D03*
%TO.P,J2,3,Pin_3*%
%TO.N,Net-(J2-Pad3)*%
X100540000Y-59428000D03*
%TD*%
D10*
%TO.P,J1,1,Pin_1*%
%TO.N,Net-(J1-Pad1)*%
X151460000Y-90728000D03*
D11*
%TO.P,J1,2,Pin_2*%
%TO.N,Net-(J1-Pad2)*%
X154000000Y-90728000D03*
%TO.P,J1,3,Pin_3*%
%TO.N,Net-(J1-Pad3)*%
X156540000Y-90728000D03*
%TD*%
D10*
%TO.P,J2,1,Pin_1*%
%TO.N,Net-(J2-Pad1)*%
X67460000Y-103428000D03*
D11*
%TO.P,J2,2,Pin_2*%
%TO.N,Net-(J2-Pad2)*%
X70000000Y-103428000D03*
%TO.P,J2,3,Pin_3*%
%TO.N,Net-(J2-Pad3)*%
X72540000Y-103428000D03*
%TD*%
D10*
%TO.P,J1,1,Pin_1*%
%TO.N,Net-(J1-Pad1)*%
X123460000Y-90728000D03*
D11*
%TO.P,J1,2,Pin_2*%
%TO.N,Net-(J1-Pad2)*%
X126000000Y-90728000D03*
%TO.P,J1,3,Pin_3*%
%TO.N,Net-(J1-Pad3)*%
X128540000Y-90728000D03*
%TD*%
D12*
%TO.P,SW1,1,A*%
%TO.N,Net-(J2-Pad1)*%
X95420000Y-121539000D03*
%TO.P,SW1,2,B*%
%TO.N,Net-(J2-Pad2)*%
X100500000Y-121539000D03*
%TO.P,SW1,3,C*%
%TO.N,Net-(J2-Pad3)*%
X97960000Y-121539000D03*
%TO.P,SW1,4,A*%
%TO.N,Net-(J1-Pad1)*%
X97960000Y-116459000D03*
%TO.P,SW1,5,B*%
%TO.N,Net-(J1-Pad2)*%
X95420000Y-116459000D03*
%TO.P,SW1,6,C*%
%TO.N,Net-(J1-Pad3)*%
X100500000Y-116459000D03*
%TD*%
D10*
%TO.P,J2,1,Pin_1*%
%TO.N,Net-(J2-Pad1)*%
X137460000Y-103428000D03*
D11*
%TO.P,J2,2,Pin_2*%
%TO.N,Net-(J2-Pad2)*%
X140000000Y-103428000D03*
%TO.P,J2,3,Pin_3*%
%TO.N,Net-(J2-Pad3)*%
X142540000Y-103428000D03*
%TD*%
D10*
%TO.P,J1,1,Pin_1*%
%TO.N,Net-(J1-Pad1)*%
X123460000Y-112728000D03*
D11*
%TO.P,J1,2,Pin_2*%
%TO.N,Net-(J1-Pad2)*%
X126000000Y-112728000D03*
%TO.P,J1,3,Pin_3*%
%TO.N,Net-(J1-Pad3)*%
X128540000Y-112728000D03*
%TD*%
D10*
%TO.P,J1,1,Pin_1*%
%TO.N,Net-(J1-Pad1)*%
X81460000Y-68728000D03*
D11*
%TO.P,J1,2,Pin_2*%
%TO.N,Net-(J1-Pad2)*%
X84000000Y-68728000D03*
%TO.P,J1,3,Pin_3*%
%TO.N,Net-(J1-Pad3)*%
X86540000Y-68728000D03*
%TD*%
D10*
%TO.P,J1,1,Pin_1*%
%TO.N,Net-(J1-Pad1)*%
X109460000Y-46728000D03*
D11*
%TO.P,J1,2,Pin_2*%
%TO.N,Net-(J1-Pad2)*%
X112000000Y-46728000D03*
%TO.P,J1,3,Pin_3*%
%TO.N,Net-(J1-Pad3)*%
X114540000Y-46728000D03*
%TD*%
D10*
%TO.P,J2,1,Pin_1*%
%TO.N,Net-(J2-Pad1)*%
X151460000Y-125428000D03*
D11*
%TO.P,J2,2,Pin_2*%
%TO.N,Net-(J2-Pad2)*%
X154000000Y-125428000D03*
%TO.P,J2,3,Pin_3*%
%TO.N,Net-(J2-Pad3)*%
X156540000Y-125428000D03*
%TD*%
D10*
%TO.P,J2,1,Pin_1*%
%TO.N,Net-(J2-Pad1)*%
X137460000Y-125428000D03*
D11*
%TO.P,J2,2,Pin_2*%
%TO.N,Net-(J2-Pad2)*%
X140000000Y-125428000D03*
%TO.P,J2,3,Pin_3*%
%TO.N,Net-(J2-Pad3)*%
X142540000Y-125428000D03*
%TD*%
D10*
%TO.P,J1,1,Pin_1*%
%TO.N,Net-(J1-Pad1)*%
X67460000Y-112728000D03*
D11*
%TO.P,J1,2,Pin_2*%
%TO.N,Net-(J1-Pad2)*%
X70000000Y-112728000D03*
%TO.P,J1,3,Pin_3*%
%TO.N,Net-(J1-Pad3)*%
X72540000Y-112728000D03*
%TD*%
D12*
%TO.P,SW1,1,A*%
%TO.N,Net-(J2-Pad1)*%
X95420000Y-99539000D03*
%TO.P,SW1,2,B*%
%TO.N,Net-(J2-Pad2)*%
X100500000Y-99539000D03*
%TO.P,SW1,3,C*%
%TO.N,Net-(J2-Pad3)*%
X97960000Y-99539000D03*
%TO.P,SW1,4,A*%
%TO.N,Net-(J1-Pad1)*%
X97960000Y-94459000D03*
%TO.P,SW1,5,B*%
%TO.N,Net-(J1-Pad2)*%
X95420000Y-94459000D03*
%TO.P,SW1,6,C*%
%TO.N,Net-(J1-Pad3)*%
X100500000Y-94459000D03*
%TD*%
D10*
%TO.P,J2,1,Pin_1*%
%TO.N,Net-(J2-Pad1)*%
X95460000Y-81428000D03*
D11*
%TO.P,J2,2,Pin_2*%
%TO.N,Net-(J2-Pad2)*%
X98000000Y-81428000D03*
%TO.P,J2,3,Pin_3*%
%TO.N,Net-(J2-Pad3)*%
X100540000Y-81428000D03*
%TD*%
D12*
%TO.P,SW1,1,A*%
%TO.N,Net-(J2-Pad1)*%
X81420000Y-99539000D03*
%TO.P,SW1,2,B*%
%TO.N,Net-(J2-Pad2)*%
X86500000Y-99539000D03*
%TO.P,SW1,3,C*%
%TO.N,Net-(J2-Pad3)*%
X83960000Y-99539000D03*
%TO.P,SW1,4,A*%
%TO.N,Net-(J1-Pad1)*%
X83960000Y-94459000D03*
%TO.P,SW1,5,B*%
%TO.N,Net-(J1-Pad2)*%
X81420000Y-94459000D03*
%TO.P,SW1,6,C*%
%TO.N,Net-(J1-Pad3)*%
X86500000Y-94459000D03*
%TD*%
D10*
%TO.P,J2,1,Pin_1*%
%TO.N,Net-(J2-Pad1)*%
X123460000Y-125428000D03*
D11*
%TO.P,J2,2,Pin_2*%
%TO.N,Net-(J2-Pad2)*%
X126000000Y-125428000D03*
%TO.P,J2,3,Pin_3*%
%TO.N,Net-(J2-Pad3)*%
X128540000Y-125428000D03*
%TD*%
D10*
%TO.P,J1,1,Pin_1*%
%TO.N,Net-(J1-Pad1)*%
X151460000Y-46728000D03*
D11*
%TO.P,J1,2,Pin_2*%
%TO.N,Net-(J1-Pad2)*%
X154000000Y-46728000D03*
%TO.P,J1,3,Pin_3*%
%TO.N,Net-(J1-Pad3)*%
X156540000Y-46728000D03*
%TD*%
D12*
%TO.P,SW1,1,A*%
%TO.N,Net-(J2-Pad1)*%
X123420000Y-55539000D03*
%TO.P,SW1,2,B*%
%TO.N,Net-(J2-Pad2)*%
X128500000Y-55539000D03*
%TO.P,SW1,3,C*%
%TO.N,Net-(J2-Pad3)*%
X125960000Y-55539000D03*
%TO.P,SW1,4,A*%
%TO.N,Net-(J1-Pad1)*%
X125960000Y-50459000D03*
%TO.P,SW1,5,B*%
%TO.N,Net-(J1-Pad2)*%
X123420000Y-50459000D03*
%TO.P,SW1,6,C*%
%TO.N,Net-(J1-Pad3)*%
X128500000Y-50459000D03*
%TD*%
%TO.P,SW1,1,A*%
%TO.N,Net-(J2-Pad1)*%
X123420000Y-99539000D03*
%TO.P,SW1,2,B*%
%TO.N,Net-(J2-Pad2)*%
X128500000Y-99539000D03*
%TO.P,SW1,3,C*%
%TO.N,Net-(J2-Pad3)*%
X125960000Y-99539000D03*
%TO.P,SW1,4,A*%
%TO.N,Net-(J1-Pad1)*%
X125960000Y-94459000D03*
%TO.P,SW1,5,B*%
%TO.N,Net-(J1-Pad2)*%
X123420000Y-94459000D03*
%TO.P,SW1,6,C*%
%TO.N,Net-(J1-Pad3)*%
X128500000Y-94459000D03*
%TD*%
D10*
%TO.P,J2,1,Pin_1*%
%TO.N,Net-(J2-Pad1)*%
X81460000Y-81428000D03*
D11*
%TO.P,J2,2,Pin_2*%
%TO.N,Net-(J2-Pad2)*%
X84000000Y-81428000D03*
%TO.P,J2,3,Pin_3*%
%TO.N,Net-(J2-Pad3)*%
X86540000Y-81428000D03*
%TD*%
D10*
%TO.P,J1,1,Pin_1*%
%TO.N,Net-(J1-Pad1)*%
X109460000Y-112728000D03*
D11*
%TO.P,J1,2,Pin_2*%
%TO.N,Net-(J1-Pad2)*%
X112000000Y-112728000D03*
%TO.P,J1,3,Pin_3*%
%TO.N,Net-(J1-Pad3)*%
X114540000Y-112728000D03*
%TD*%
D10*
%TO.P,J2,1,Pin_1*%
%TO.N,Net-(J2-Pad1)*%
X67460000Y-125428000D03*
D11*
%TO.P,J2,2,Pin_2*%
%TO.N,Net-(J2-Pad2)*%
X70000000Y-125428000D03*
%TO.P,J2,3,Pin_3*%
%TO.N,Net-(J2-Pad3)*%
X72540000Y-125428000D03*
%TD*%
D10*
%TO.P,J1,1,Pin_1*%
%TO.N,Net-(J1-Pad1)*%
X81460000Y-46728000D03*
D11*
%TO.P,J1,2,Pin_2*%
%TO.N,Net-(J1-Pad2)*%
X84000000Y-46728000D03*
%TO.P,J1,3,Pin_3*%
%TO.N,Net-(J1-Pad3)*%
X86540000Y-46728000D03*
%TD*%
D10*
%TO.P,J1,1,Pin_1*%
%TO.N,Net-(J1-Pad1)*%
X81460000Y-112728000D03*
D11*
%TO.P,J1,2,Pin_2*%
%TO.N,Net-(J1-Pad2)*%
X84000000Y-112728000D03*
%TO.P,J1,3,Pin_3*%
%TO.N,Net-(J1-Pad3)*%
X86540000Y-112728000D03*
%TD*%
D12*
%TO.P,SW1,1,A*%
%TO.N,Net-(J2-Pad1)*%
X137420000Y-77539000D03*
%TO.P,SW1,2,B*%
%TO.N,Net-(J2-Pad2)*%
X142500000Y-77539000D03*
%TO.P,SW1,3,C*%
%TO.N,Net-(J2-Pad3)*%
X139960000Y-77539000D03*
%TO.P,SW1,4,A*%
%TO.N,Net-(J1-Pad1)*%
X139960000Y-72459000D03*
%TO.P,SW1,5,B*%
%TO.N,Net-(J1-Pad2)*%
X137420000Y-72459000D03*
%TO.P,SW1,6,C*%
%TO.N,Net-(J1-Pad3)*%
X142500000Y-72459000D03*
%TD*%
%TO.P,SW1,1,A*%
%TO.N,Net-(J2-Pad1)*%
X109420000Y-99539000D03*
%TO.P,SW1,2,B*%
%TO.N,Net-(J2-Pad2)*%
X114500000Y-99539000D03*
%TO.P,SW1,3,C*%
%TO.N,Net-(J2-Pad3)*%
X111960000Y-99539000D03*
%TO.P,SW1,4,A*%
%TO.N,Net-(J1-Pad1)*%
X111960000Y-94459000D03*
%TO.P,SW1,5,B*%
%TO.N,Net-(J1-Pad2)*%
X109420000Y-94459000D03*
%TO.P,SW1,6,C*%
%TO.N,Net-(J1-Pad3)*%
X114500000Y-94459000D03*
%TD*%
D10*
%TO.P,J2,1,Pin_1*%
%TO.N,Net-(J2-Pad1)*%
X81460000Y-103428000D03*
D11*
%TO.P,J2,2,Pin_2*%
%TO.N,Net-(J2-Pad2)*%
X84000000Y-103428000D03*
%TO.P,J2,3,Pin_3*%
%TO.N,Net-(J2-Pad3)*%
X86540000Y-103428000D03*
%TD*%
D10*
%TO.P,J2,1,Pin_1*%
%TO.N,Net-(J2-Pad1)*%
X81460000Y-125428000D03*
D11*
%TO.P,J2,2,Pin_2*%
%TO.N,Net-(J2-Pad2)*%
X84000000Y-125428000D03*
%TO.P,J2,3,Pin_3*%
%TO.N,Net-(J2-Pad3)*%
X86540000Y-125428000D03*
%TD*%
D10*
%TO.P,J2,1,Pin_1*%
%TO.N,Net-(J2-Pad1)*%
X95460000Y-125428000D03*
D11*
%TO.P,J2,2,Pin_2*%
%TO.N,Net-(J2-Pad2)*%
X98000000Y-125428000D03*
%TO.P,J2,3,Pin_3*%
%TO.N,Net-(J2-Pad3)*%
X100540000Y-125428000D03*
%TD*%
D10*
%TO.P,J2,1,Pin_1*%
%TO.N,Net-(J2-Pad1)*%
X109460000Y-103428000D03*
D11*
%TO.P,J2,2,Pin_2*%
%TO.N,Net-(J2-Pad2)*%
X112000000Y-103428000D03*
%TO.P,J2,3,Pin_3*%
%TO.N,Net-(J2-Pad3)*%
X114540000Y-103428000D03*
%TD*%
M02*
