%TF.GenerationSoftware,KiCad,Pcbnew,(6.0.0-0)*%
%TF.CreationDate,2022-11-23T09:42:27-05:00*%
%TF.ProjectId,Breakout_DPDT,42726561-6b6f-4757-945f-445044542e6b,rev?*%
%TF.SameCoordinates,Original*%
%TF.FileFunction,Profile,NP*%
%FSLAX46Y46*%
G04 Gerber Fmt 4.6, Leading zero omitted, Abs format (unit mm)*
G04 Created by KiCad (PCBNEW (6.0.0-0)) date 2022-11-23 09:42:27*
%MOMM*%
%LPD*%
G01*
G04 APERTURE LIST*
%TA.AperFunction,Profile*%
%ADD10C,0.100000*%
%TD*%
G04 APERTURE END LIST*
D10*
X104000000Y-107000000D02*
X104000000Y-99000000D01*
X148000000Y-55000000D02*
X148000000Y-63000000D01*
X134000000Y-65000000D02*
X134000000Y-73000000D01*
X118000000Y-85000000D02*
X118000000Y-77000000D01*
X110000000Y-43000000D02*
X114000000Y-43000000D01*
X156000000Y-129000000D02*
X152000000Y-129000000D01*
X76000000Y-129000000D02*
X76000000Y-121000000D01*
X148000000Y-109000000D02*
X148000000Y-117000000D01*
X96000000Y-65000000D02*
X92000000Y-65000000D01*
X138000000Y-43000000D02*
X134000000Y-43000000D01*
X138000000Y-87000000D02*
X134000000Y-87000000D01*
X76000000Y-107000000D02*
X76000000Y-99000000D01*
X90000000Y-65000000D02*
X86000000Y-65000000D01*
X64000000Y-121000000D02*
X64000000Y-129000000D01*
X90000000Y-129000000D02*
X90000000Y-121000000D01*
X152000000Y-109000000D02*
X148000000Y-109000000D01*
X118000000Y-63000000D02*
X118000000Y-55000000D01*
X76000000Y-117000000D02*
X76000000Y-109000000D01*
X118000000Y-107000000D02*
X118000000Y-99000000D01*
X64000000Y-117000000D02*
X64000000Y-121000000D01*
X78000000Y-99000000D02*
X78000000Y-107000000D01*
X78000000Y-77000000D02*
X78000000Y-85000000D01*
X96000000Y-87000000D02*
X92000000Y-87000000D01*
X78000000Y-109000000D02*
X78000000Y-117000000D01*
X96000000Y-43000000D02*
X100000000Y-43000000D01*
X78000000Y-129000000D02*
X82000000Y-129000000D01*
X114000000Y-129000000D02*
X118000000Y-129000000D01*
X82000000Y-87000000D02*
X78000000Y-87000000D01*
X68000000Y-43000000D02*
X72000000Y-43000000D01*
X146000000Y-85000000D02*
X146000000Y-77000000D01*
X78000000Y-87000000D02*
X78000000Y-95000000D01*
X134000000Y-99000000D02*
X134000000Y-107000000D01*
X106000000Y-107000000D02*
X110000000Y-107000000D01*
X160000000Y-73000000D02*
X160000000Y-65000000D01*
X96000000Y-109000000D02*
X92000000Y-109000000D01*
X104000000Y-109000000D02*
X100000000Y-109000000D01*
X64000000Y-109000000D02*
X64000000Y-117000000D01*
X160000000Y-51000000D02*
X160000000Y-43000000D01*
X128000000Y-129000000D02*
X132000000Y-129000000D01*
X148000000Y-87000000D02*
X148000000Y-95000000D01*
X92000000Y-129000000D02*
X96000000Y-129000000D01*
X132000000Y-43000000D02*
X128000000Y-43000000D01*
X156000000Y-63000000D02*
X160000000Y-63000000D01*
X104000000Y-95000000D02*
X104000000Y-87000000D01*
X156000000Y-129000000D02*
X160000000Y-129000000D01*
X148000000Y-77000000D02*
X148000000Y-85000000D01*
X142000000Y-63000000D02*
X146000000Y-63000000D01*
X134000000Y-77000000D02*
X134000000Y-85000000D01*
X110000000Y-43000000D02*
X106000000Y-43000000D01*
X146000000Y-117000000D02*
X146000000Y-109000000D01*
X92000000Y-77000000D02*
X92000000Y-85000000D01*
X92000000Y-109000000D02*
X92000000Y-117000000D01*
X132000000Y-63000000D02*
X132000000Y-55000000D01*
X64000000Y-77000000D02*
X64000000Y-85000000D01*
X76000000Y-85000000D02*
X76000000Y-77000000D01*
X90000000Y-73000000D02*
X90000000Y-65000000D01*
X160000000Y-95000000D02*
X160000000Y-87000000D01*
X64000000Y-107000000D02*
X68000000Y-107000000D01*
X120000000Y-43000000D02*
X120000000Y-51000000D01*
X106000000Y-85000000D02*
X110000000Y-85000000D01*
X160000000Y-85000000D02*
X160000000Y-77000000D01*
X92000000Y-43000000D02*
X92000000Y-51000000D01*
X138000000Y-109000000D02*
X134000000Y-109000000D01*
X76000000Y-73000000D02*
X76000000Y-65000000D01*
X76000000Y-109000000D02*
X72000000Y-109000000D01*
X160000000Y-87000000D02*
X156000000Y-87000000D01*
X132000000Y-109000000D02*
X128000000Y-109000000D01*
X90000000Y-117000000D02*
X90000000Y-109000000D01*
X90000000Y-85000000D02*
X90000000Y-77000000D01*
X148000000Y-43000000D02*
X148000000Y-51000000D01*
X160000000Y-43000000D02*
X156000000Y-43000000D01*
X76000000Y-43000000D02*
X72000000Y-43000000D01*
X90000000Y-43000000D02*
X86000000Y-43000000D01*
X100000000Y-107000000D02*
X104000000Y-107000000D01*
X142000000Y-107000000D02*
X146000000Y-107000000D01*
X106000000Y-65000000D02*
X106000000Y-73000000D01*
X160000000Y-63000000D02*
X160000000Y-55000000D01*
X90000000Y-109000000D02*
X86000000Y-109000000D01*
X92000000Y-107000000D02*
X96000000Y-107000000D01*
X128000000Y-63000000D02*
X132000000Y-63000000D01*
X68000000Y-109000000D02*
X64000000Y-109000000D01*
X134000000Y-129000000D02*
X138000000Y-129000000D01*
X118000000Y-73000000D02*
X118000000Y-65000000D01*
X72000000Y-107000000D02*
X76000000Y-107000000D01*
X118000000Y-117000000D02*
X118000000Y-109000000D01*
X120000000Y-85000000D02*
X124000000Y-85000000D01*
X132000000Y-51000000D02*
X132000000Y-43000000D01*
X78000000Y-85000000D02*
X82000000Y-85000000D01*
X76000000Y-51000000D02*
X76000000Y-43000000D01*
X156000000Y-85000000D02*
X160000000Y-85000000D01*
X90000000Y-63000000D02*
X90000000Y-55000000D01*
X134000000Y-63000000D02*
X138000000Y-63000000D01*
X148000000Y-99000000D02*
X148000000Y-107000000D01*
X104000000Y-117000000D02*
X104000000Y-109000000D01*
X72000000Y-85000000D02*
X76000000Y-85000000D01*
X64000000Y-63000000D02*
X68000000Y-63000000D01*
X132000000Y-129000000D02*
X132000000Y-121000000D01*
X152000000Y-87000000D02*
X148000000Y-87000000D01*
X78000000Y-43000000D02*
X78000000Y-51000000D01*
X64000000Y-95000000D02*
X64000000Y-99000000D01*
X120000000Y-121000000D02*
X120000000Y-129000000D01*
X106000000Y-55000000D02*
X106000000Y-63000000D01*
X160000000Y-51000000D02*
X160000000Y-55000000D01*
X76000000Y-87000000D02*
X72000000Y-87000000D01*
X138000000Y-43000000D02*
X142000000Y-43000000D01*
X110000000Y-109000000D02*
X106000000Y-109000000D01*
X146000000Y-129000000D02*
X146000000Y-121000000D01*
X128000000Y-107000000D02*
X132000000Y-107000000D01*
X124000000Y-65000000D02*
X120000000Y-65000000D01*
X118000000Y-43000000D02*
X114000000Y-43000000D01*
X146000000Y-109000000D02*
X142000000Y-109000000D01*
X124000000Y-43000000D02*
X120000000Y-43000000D01*
X146000000Y-95000000D02*
X146000000Y-87000000D01*
X96000000Y-43000000D02*
X92000000Y-43000000D01*
X82000000Y-65000000D02*
X78000000Y-65000000D01*
X160000000Y-65000000D02*
X156000000Y-65000000D01*
X104000000Y-65000000D02*
X100000000Y-65000000D01*
X78000000Y-65000000D02*
X78000000Y-73000000D01*
X100000000Y-129000000D02*
X96000000Y-129000000D01*
X106000000Y-121000000D02*
X106000000Y-129000000D01*
X118000000Y-129000000D02*
X118000000Y-121000000D01*
X152000000Y-43000000D02*
X148000000Y-43000000D01*
X120000000Y-55000000D02*
X120000000Y-63000000D01*
X90000000Y-95000000D02*
X90000000Y-87000000D01*
X104000000Y-73000000D02*
X104000000Y-65000000D01*
X68000000Y-65000000D02*
X64000000Y-65000000D01*
X124000000Y-109000000D02*
X120000000Y-109000000D01*
X92000000Y-121000000D02*
X92000000Y-129000000D01*
X106000000Y-87000000D02*
X106000000Y-95000000D01*
X64000000Y-55000000D02*
X64000000Y-51000000D01*
X146000000Y-51000000D02*
X146000000Y-43000000D01*
X76000000Y-63000000D02*
X76000000Y-55000000D01*
X106000000Y-63000000D02*
X110000000Y-63000000D01*
X146000000Y-87000000D02*
X142000000Y-87000000D01*
X148000000Y-85000000D02*
X152000000Y-85000000D01*
X114000000Y-107000000D02*
X118000000Y-107000000D01*
X146000000Y-63000000D02*
X146000000Y-55000000D01*
X134000000Y-121000000D02*
X134000000Y-129000000D01*
X146000000Y-43000000D02*
X142000000Y-43000000D01*
X120000000Y-65000000D02*
X120000000Y-73000000D01*
X90000000Y-87000000D02*
X86000000Y-87000000D01*
X76000000Y-95000000D02*
X76000000Y-87000000D01*
X120000000Y-107000000D02*
X124000000Y-107000000D01*
X78000000Y-107000000D02*
X82000000Y-107000000D01*
X86000000Y-107000000D02*
X90000000Y-107000000D01*
X90000000Y-107000000D02*
X90000000Y-99000000D01*
X78000000Y-63000000D02*
X82000000Y-63000000D01*
X72000000Y-129000000D02*
X76000000Y-129000000D01*
X110000000Y-65000000D02*
X106000000Y-65000000D01*
X86000000Y-85000000D02*
X90000000Y-85000000D01*
X152000000Y-43000000D02*
X156000000Y-43000000D01*
X106000000Y-43000000D02*
X106000000Y-51000000D01*
X148000000Y-129000000D02*
X152000000Y-129000000D01*
X114000000Y-85000000D02*
X118000000Y-85000000D01*
X92000000Y-55000000D02*
X92000000Y-63000000D01*
X132000000Y-107000000D02*
X132000000Y-99000000D01*
X106000000Y-99000000D02*
X106000000Y-107000000D01*
X100000000Y-85000000D02*
X104000000Y-85000000D01*
X72000000Y-63000000D02*
X76000000Y-63000000D01*
X64000000Y-85000000D02*
X68000000Y-85000000D01*
X160000000Y-95000000D02*
X160000000Y-99000000D01*
X134000000Y-55000000D02*
X134000000Y-63000000D01*
X82000000Y-43000000D02*
X86000000Y-43000000D01*
X90000000Y-51000000D02*
X90000000Y-43000000D01*
X132000000Y-117000000D02*
X132000000Y-109000000D01*
X124000000Y-87000000D02*
X120000000Y-87000000D01*
X160000000Y-117000000D02*
X160000000Y-109000000D01*
X64000000Y-55000000D02*
X64000000Y-63000000D01*
X92000000Y-65000000D02*
X92000000Y-73000000D01*
X120000000Y-129000000D02*
X124000000Y-129000000D01*
X78000000Y-55000000D02*
X78000000Y-63000000D01*
X92000000Y-85000000D02*
X96000000Y-85000000D01*
X114000000Y-63000000D02*
X118000000Y-63000000D01*
X106000000Y-129000000D02*
X110000000Y-129000000D01*
X160000000Y-129000000D02*
X160000000Y-121000000D01*
X100000000Y-63000000D02*
X104000000Y-63000000D01*
X148000000Y-121000000D02*
X148000000Y-129000000D01*
X134000000Y-109000000D02*
X134000000Y-117000000D01*
X118000000Y-51000000D02*
X118000000Y-43000000D01*
X82000000Y-43000000D02*
X78000000Y-43000000D01*
X120000000Y-99000000D02*
X120000000Y-107000000D01*
X104000000Y-85000000D02*
X104000000Y-77000000D01*
X120000000Y-77000000D02*
X120000000Y-85000000D01*
X64000000Y-65000000D02*
X64000000Y-73000000D01*
X64000000Y-99000000D02*
X64000000Y-107000000D01*
X142000000Y-129000000D02*
X138000000Y-129000000D01*
X128000000Y-129000000D02*
X124000000Y-129000000D01*
X120000000Y-63000000D02*
X124000000Y-63000000D01*
X68000000Y-87000000D02*
X64000000Y-87000000D01*
X64000000Y-129000000D02*
X68000000Y-129000000D01*
X148000000Y-63000000D02*
X152000000Y-63000000D01*
X86000000Y-129000000D02*
X82000000Y-129000000D01*
X134000000Y-107000000D02*
X138000000Y-107000000D01*
X134000000Y-87000000D02*
X134000000Y-95000000D01*
X86000000Y-129000000D02*
X90000000Y-129000000D01*
X132000000Y-87000000D02*
X128000000Y-87000000D01*
X100000000Y-129000000D02*
X104000000Y-129000000D01*
X104000000Y-129000000D02*
X104000000Y-121000000D01*
X148000000Y-65000000D02*
X148000000Y-73000000D01*
X72000000Y-129000000D02*
X68000000Y-129000000D01*
X128000000Y-85000000D02*
X132000000Y-85000000D01*
X142000000Y-85000000D02*
X146000000Y-85000000D01*
X132000000Y-95000000D02*
X132000000Y-87000000D01*
X106000000Y-109000000D02*
X106000000Y-117000000D01*
X132000000Y-73000000D02*
X132000000Y-65000000D01*
X118000000Y-87000000D02*
X114000000Y-87000000D01*
X64000000Y-77000000D02*
X64000000Y-73000000D01*
X160000000Y-73000000D02*
X160000000Y-77000000D01*
X152000000Y-65000000D02*
X148000000Y-65000000D01*
X92000000Y-63000000D02*
X96000000Y-63000000D01*
X82000000Y-109000000D02*
X78000000Y-109000000D01*
X124000000Y-43000000D02*
X128000000Y-43000000D01*
X86000000Y-63000000D02*
X90000000Y-63000000D01*
X104000000Y-43000000D02*
X100000000Y-43000000D01*
X64000000Y-43000000D02*
X64000000Y-51000000D01*
X120000000Y-109000000D02*
X120000000Y-117000000D01*
X78000000Y-121000000D02*
X78000000Y-129000000D01*
X146000000Y-107000000D02*
X146000000Y-99000000D01*
X104000000Y-51000000D02*
X104000000Y-43000000D01*
X64000000Y-87000000D02*
X64000000Y-95000000D01*
X156000000Y-107000000D02*
X160000000Y-107000000D01*
X76000000Y-65000000D02*
X72000000Y-65000000D01*
X118000000Y-95000000D02*
X118000000Y-87000000D01*
X92000000Y-87000000D02*
X92000000Y-95000000D01*
X160000000Y-109000000D02*
X156000000Y-109000000D01*
X106000000Y-77000000D02*
X106000000Y-85000000D01*
X134000000Y-43000000D02*
X134000000Y-51000000D01*
X146000000Y-65000000D02*
X142000000Y-65000000D01*
X142000000Y-129000000D02*
X146000000Y-129000000D01*
X134000000Y-85000000D02*
X138000000Y-85000000D01*
X160000000Y-117000000D02*
X160000000Y-121000000D01*
X120000000Y-87000000D02*
X120000000Y-95000000D01*
X132000000Y-65000000D02*
X128000000Y-65000000D01*
X114000000Y-129000000D02*
X110000000Y-129000000D01*
X104000000Y-63000000D02*
X104000000Y-55000000D01*
X104000000Y-87000000D02*
X100000000Y-87000000D01*
X138000000Y-65000000D02*
X134000000Y-65000000D01*
X118000000Y-109000000D02*
X114000000Y-109000000D01*
X118000000Y-65000000D02*
X114000000Y-65000000D01*
X160000000Y-107000000D02*
X160000000Y-99000000D01*
X68000000Y-43000000D02*
X64000000Y-43000000D01*
X148000000Y-107000000D02*
X152000000Y-107000000D01*
X92000000Y-99000000D02*
X92000000Y-107000000D01*
X110000000Y-87000000D02*
X106000000Y-87000000D01*
X146000000Y-73000000D02*
X146000000Y-65000000D01*
X132000000Y-85000000D02*
X132000000Y-77000000D01*
%TO.C,mouse-bite-2mm-slot*%
X72000000Y-63000000D02*
G75*
G03*
X72000000Y-65000000I0J-1000000D01*
G01*
X68000000Y-65000000D02*
G75*
G03*
X68000000Y-63000000I0J1000000D01*
G01*
X142000000Y-107000000D02*
G75*
G03*
X142000000Y-109000000I0J-1000000D01*
G01*
X138000000Y-109000000D02*
G75*
G03*
X138000000Y-107000000I0J1000000D01*
G01*
X72000000Y-107000000D02*
G75*
G03*
X72000000Y-109000000I0J-1000000D01*
G01*
X68000000Y-109000000D02*
G75*
G03*
X68000000Y-107000000I0J1000000D01*
G01*
X100000000Y-107000000D02*
G75*
G03*
X100000000Y-109000000I0J-1000000D01*
G01*
X96000000Y-109000000D02*
G75*
G03*
X96000000Y-107000000I0J1000000D01*
G01*
X120000000Y-99000000D02*
G75*
G03*
X118000000Y-99000000I-1000000J0D01*
G01*
X118000000Y-95000000D02*
G75*
G03*
X120000000Y-95000000I1000000J0D01*
G01*
X72000000Y-85000000D02*
G75*
G03*
X72000000Y-87000000I0J-1000000D01*
G01*
X68000000Y-87000000D02*
G75*
G03*
X68000000Y-85000000I0J1000000D01*
G01*
X76000000Y-95000000D02*
G75*
G03*
X78000000Y-95000000I1000000J0D01*
G01*
X78000000Y-99000000D02*
G75*
G03*
X76000000Y-99000000I-1000000J0D01*
G01*
X156000000Y-107000000D02*
G75*
G03*
X156000000Y-109000000I0J-1000000D01*
G01*
X152000000Y-109000000D02*
G75*
G03*
X152000000Y-107000000I0J1000000D01*
G01*
X132000000Y-95000000D02*
G75*
G03*
X134000000Y-95000000I1000000J0D01*
G01*
X134000000Y-99000000D02*
G75*
G03*
X132000000Y-99000000I-1000000J0D01*
G01*
X106000000Y-77000000D02*
G75*
G03*
X104000000Y-77000000I-1000000J0D01*
G01*
X104000000Y-73000000D02*
G75*
G03*
X106000000Y-73000000I1000000J0D01*
G01*
X142000000Y-63000000D02*
G75*
G03*
X142000000Y-65000000I0J-1000000D01*
G01*
X138000000Y-65000000D02*
G75*
G03*
X138000000Y-63000000I0J1000000D01*
G01*
X124000000Y-65000000D02*
G75*
G03*
X124000000Y-63000000I0J1000000D01*
G01*
X128000000Y-63000000D02*
G75*
G03*
X128000000Y-65000000I0J-1000000D01*
G01*
X146000000Y-73000000D02*
G75*
G03*
X148000000Y-73000000I1000000J0D01*
G01*
X148000000Y-77000000D02*
G75*
G03*
X146000000Y-77000000I-1000000J0D01*
G01*
X138000000Y-87000000D02*
G75*
G03*
X138000000Y-85000000I0J1000000D01*
G01*
X142000000Y-85000000D02*
G75*
G03*
X142000000Y-87000000I0J-1000000D01*
G01*
X96000000Y-87000000D02*
G75*
G03*
X96000000Y-85000000I0J1000000D01*
G01*
X100000000Y-85000000D02*
G75*
G03*
X100000000Y-87000000I0J-1000000D01*
G01*
X114000000Y-63000000D02*
G75*
G03*
X114000000Y-65000000I0J-1000000D01*
G01*
X110000000Y-65000000D02*
G75*
G03*
X110000000Y-63000000I0J1000000D01*
G01*
X156000000Y-63000000D02*
G75*
G03*
X156000000Y-65000000I0J-1000000D01*
G01*
X152000000Y-65000000D02*
G75*
G03*
X152000000Y-63000000I0J1000000D01*
G01*
X118000000Y-51000000D02*
G75*
G03*
X120000000Y-51000000I1000000J0D01*
G01*
X120000000Y-55000000D02*
G75*
G03*
X118000000Y-55000000I-1000000J0D01*
G01*
X78000000Y-55000000D02*
G75*
G03*
X76000000Y-55000000I-1000000J0D01*
G01*
X76000000Y-51000000D02*
G75*
G03*
X78000000Y-51000000I1000000J0D01*
G01*
X152000000Y-87000000D02*
G75*
G03*
X152000000Y-85000000I0J1000000D01*
G01*
X156000000Y-85000000D02*
G75*
G03*
X156000000Y-87000000I0J-1000000D01*
G01*
X134000000Y-121000000D02*
G75*
G03*
X132000000Y-121000000I-1000000J0D01*
G01*
X132000000Y-117000000D02*
G75*
G03*
X134000000Y-117000000I1000000J0D01*
G01*
X82000000Y-87000000D02*
G75*
G03*
X82000000Y-85000000I0J1000000D01*
G01*
X86000000Y-85000000D02*
G75*
G03*
X86000000Y-87000000I0J-1000000D01*
G01*
X100000000Y-63000000D02*
G75*
G03*
X100000000Y-65000000I0J-1000000D01*
G01*
X96000000Y-65000000D02*
G75*
G03*
X96000000Y-63000000I0J1000000D01*
G01*
X106000000Y-99000000D02*
G75*
G03*
X104000000Y-99000000I-1000000J0D01*
G01*
X104000000Y-95000000D02*
G75*
G03*
X106000000Y-95000000I1000000J0D01*
G01*
X86000000Y-63000000D02*
G75*
G03*
X86000000Y-65000000I0J-1000000D01*
G01*
X82000000Y-65000000D02*
G75*
G03*
X82000000Y-63000000I0J1000000D01*
G01*
X90000000Y-95000000D02*
G75*
G03*
X92000000Y-95000000I1000000J0D01*
G01*
X92000000Y-99000000D02*
G75*
G03*
X90000000Y-99000000I-1000000J0D01*
G01*
X78000000Y-121000000D02*
G75*
G03*
X76000000Y-121000000I-1000000J0D01*
G01*
X76000000Y-117000000D02*
G75*
G03*
X78000000Y-117000000I1000000J0D01*
G01*
X82000000Y-109000000D02*
G75*
G03*
X82000000Y-107000000I0J1000000D01*
G01*
X86000000Y-107000000D02*
G75*
G03*
X86000000Y-109000000I0J-1000000D01*
G01*
X104000000Y-51000000D02*
G75*
G03*
X106000000Y-51000000I1000000J0D01*
G01*
X106000000Y-55000000D02*
G75*
G03*
X104000000Y-55000000I-1000000J0D01*
G01*
X148000000Y-99000000D02*
G75*
G03*
X146000000Y-99000000I-1000000J0D01*
G01*
X146000000Y-95000000D02*
G75*
G03*
X148000000Y-95000000I1000000J0D01*
G01*
X106000000Y-121000000D02*
G75*
G03*
X104000000Y-121000000I-1000000J0D01*
G01*
X104000000Y-117000000D02*
G75*
G03*
X106000000Y-117000000I1000000J0D01*
G01*
X146000000Y-51000000D02*
G75*
G03*
X148000000Y-51000000I1000000J0D01*
G01*
X148000000Y-55000000D02*
G75*
G03*
X146000000Y-55000000I-1000000J0D01*
G01*
X90000000Y-117000000D02*
G75*
G03*
X92000000Y-117000000I1000000J0D01*
G01*
X92000000Y-121000000D02*
G75*
G03*
X90000000Y-121000000I-1000000J0D01*
G01*
X132000000Y-73000000D02*
G75*
G03*
X134000000Y-73000000I1000000J0D01*
G01*
X134000000Y-77000000D02*
G75*
G03*
X132000000Y-77000000I-1000000J0D01*
G01*
X78000000Y-77000000D02*
G75*
G03*
X76000000Y-77000000I-1000000J0D01*
G01*
X76000000Y-73000000D02*
G75*
G03*
X78000000Y-73000000I1000000J0D01*
G01*
X132000000Y-51000000D02*
G75*
G03*
X134000000Y-51000000I1000000J0D01*
G01*
X134000000Y-55000000D02*
G75*
G03*
X132000000Y-55000000I-1000000J0D01*
G01*
X128000000Y-85000000D02*
G75*
G03*
X128000000Y-87000000I0J-1000000D01*
G01*
X124000000Y-87000000D02*
G75*
G03*
X124000000Y-85000000I0J1000000D01*
G01*
X124000000Y-109000000D02*
G75*
G03*
X124000000Y-107000000I0J1000000D01*
G01*
X128000000Y-107000000D02*
G75*
G03*
X128000000Y-109000000I0J-1000000D01*
G01*
X118000000Y-73000000D02*
G75*
G03*
X120000000Y-73000000I1000000J0D01*
G01*
X120000000Y-77000000D02*
G75*
G03*
X118000000Y-77000000I-1000000J0D01*
G01*
X118000000Y-117000000D02*
G75*
G03*
X120000000Y-117000000I1000000J0D01*
G01*
X120000000Y-121000000D02*
G75*
G03*
X118000000Y-121000000I-1000000J0D01*
G01*
X92000000Y-77000000D02*
G75*
G03*
X90000000Y-77000000I-1000000J0D01*
G01*
X90000000Y-73000000D02*
G75*
G03*
X92000000Y-73000000I1000000J0D01*
G01*
X92000000Y-55000000D02*
G75*
G03*
X90000000Y-55000000I-1000000J0D01*
G01*
X90000000Y-51000000D02*
G75*
G03*
X92000000Y-51000000I1000000J0D01*
G01*
X148000000Y-121000000D02*
G75*
G03*
X146000000Y-121000000I-1000000J0D01*
G01*
X146000000Y-117000000D02*
G75*
G03*
X148000000Y-117000000I1000000J0D01*
G01*
X114000000Y-85000000D02*
G75*
G03*
X114000000Y-87000000I0J-1000000D01*
G01*
X110000000Y-87000000D02*
G75*
G03*
X110000000Y-85000000I0J1000000D01*
G01*
X110000000Y-109000000D02*
G75*
G03*
X110000000Y-107000000I0J1000000D01*
G01*
X114000000Y-107000000D02*
G75*
G03*
X114000000Y-109000000I0J-1000000D01*
G01*
%TD*%
M02*
