M48
; DRILL file {KiCad (6.0.0-0)} date Wednesday, November 23, 2022 at 09:42:29 AM
; FORMAT={-:-/ absolute / inch / decimal}
; #@! TF.CreationDate,2022-11-23T09:42:29-05:00
; #@! TF.GenerationSoftware,Kicad,Pcbnew,(6.0.0-0)
; #@! TF.FileFunction,NonPlated,1,2,NPTH
FMAT,2
INCH
; #@! TA.AperFunction,NonPlated,NPTH,ComponentDrill
T1C0.0197
%
G90
G05
T1
X2.7264Y-2.4902
X2.7264Y-2.5492
X2.7264Y-3.3563
X2.7264Y-3.4154
X2.7264Y-4.2224
X2.7264Y-4.2815
X2.7559Y-2.4902
X2.7559Y-2.5492
X2.7559Y-3.3563
X2.7559Y-3.4154
X2.7559Y-4.2224
X2.7559Y-4.2815
X2.7854Y-2.4902
X2.7854Y-2.5492
X2.7854Y-3.3563
X2.7854Y-3.4154
X2.7854Y-4.2224
X2.7854Y-4.2815
X3.002Y-2.0571
X3.002Y-2.0866
X3.002Y-2.1161
X3.002Y-2.9232
X3.002Y-2.9528
X3.002Y-2.9823
X3.002Y-3.7894
X3.002Y-3.8189
X3.002Y-3.8484
X3.002Y-4.6555
X3.002Y-4.685
X3.002Y-4.7146
X3.061Y-2.0571
X3.061Y-2.0866
X3.061Y-2.1161
X3.061Y-2.9232
X3.061Y-2.9528
X3.061Y-2.9823
X3.061Y-3.7894
X3.061Y-3.8189
X3.061Y-3.8484
X3.061Y-4.6555
X3.061Y-4.685
X3.061Y-4.7146
X3.2776Y-2.4902
X3.2776Y-2.5492
X3.2776Y-3.3563
X3.2776Y-3.4154
X3.2776Y-4.2224
X3.2776Y-4.2815
X3.3071Y-2.4902
X3.3071Y-2.5492
X3.3071Y-3.3563
X3.3071Y-3.4154
X3.3071Y-4.2224
X3.3071Y-4.2815
X3.3366Y-2.4902
X3.3366Y-2.5492
X3.3366Y-3.3563
X3.3366Y-3.4154
X3.3366Y-4.2224
X3.3366Y-4.2815
X3.5531Y-2.0571
X3.5531Y-2.0866
X3.5531Y-2.1161
X3.5531Y-2.9232
X3.5531Y-2.9528
X3.5531Y-2.9823
X3.5531Y-3.7894
X3.5531Y-3.8189
X3.5531Y-3.8484
X3.5531Y-4.6555
X3.5531Y-4.685
X3.5531Y-4.7146
X3.6122Y-2.0571
X3.6122Y-2.0866
X3.6122Y-2.1161
X3.6122Y-2.9232
X3.6122Y-2.9528
X3.6122Y-2.9823
X3.6122Y-3.7894
X3.6122Y-3.8189
X3.6122Y-3.8484
X3.6122Y-4.6555
X3.6122Y-4.685
X3.6122Y-4.7146
X3.8287Y-2.4902
X3.8287Y-2.5492
X3.8287Y-3.3563
X3.8287Y-3.4154
X3.8287Y-4.2224
X3.8287Y-4.2815
X3.8583Y-2.4902
X3.8583Y-2.5492
X3.8583Y-3.3563
X3.8583Y-3.4154
X3.8583Y-4.2224
X3.8583Y-4.2815
X3.8878Y-2.4902
X3.8878Y-2.5492
X3.8878Y-3.3563
X3.8878Y-3.4154
X3.8878Y-4.2224
X3.8878Y-4.2815
X4.1043Y-2.0571
X4.1043Y-2.0866
X4.1043Y-2.1161
X4.1043Y-2.9232
X4.1043Y-2.9528
X4.1043Y-2.9823
X4.1043Y-3.7894
X4.1043Y-3.8189
X4.1043Y-3.8484
X4.1043Y-4.6555
X4.1043Y-4.685
X4.1043Y-4.7146
X4.1634Y-2.0571
X4.1634Y-2.0866
X4.1634Y-2.1161
X4.1634Y-2.9232
X4.1634Y-2.9528
X4.1634Y-2.9823
X4.1634Y-3.7894
X4.1634Y-3.8189
X4.1634Y-3.8484
X4.1634Y-4.6555
X4.1634Y-4.685
X4.1634Y-4.7146
X4.3799Y-2.4902
X4.3799Y-2.5492
X4.3799Y-3.3563
X4.3799Y-3.4154
X4.3799Y-4.2224
X4.3799Y-4.2815
X4.4094Y-2.4902
X4.4094Y-2.5492
X4.4094Y-3.3563
X4.4094Y-3.4154
X4.4094Y-4.2224
X4.4094Y-4.2815
X4.439Y-2.4902
X4.439Y-2.5492
X4.439Y-3.3563
X4.439Y-3.4154
X4.439Y-4.2224
X4.439Y-4.2815
X4.6555Y-2.0571
X4.6555Y-2.0866
X4.6555Y-2.1161
X4.6555Y-2.9232
X4.6555Y-2.9528
X4.6555Y-2.9823
X4.6555Y-3.7894
X4.6555Y-3.8189
X4.6555Y-3.8484
X4.6555Y-4.6555
X4.6555Y-4.685
X4.6555Y-4.7146
X4.7146Y-2.0571
X4.7146Y-2.0866
X4.7146Y-2.1161
X4.7146Y-2.9232
X4.7146Y-2.9528
X4.7146Y-2.9823
X4.7146Y-3.7894
X4.7146Y-3.8189
X4.7146Y-3.8484
X4.7146Y-4.6555
X4.7146Y-4.685
X4.7146Y-4.7146
X4.9311Y-2.4902
X4.9311Y-2.5492
X4.9311Y-3.3563
X4.9311Y-3.4154
X4.9311Y-4.2224
X4.9311Y-4.2815
X4.9606Y-2.4902
X4.9606Y-2.5492
X4.9606Y-3.3563
X4.9606Y-3.4154
X4.9606Y-4.2224
X4.9606Y-4.2815
X4.9902Y-2.4902
X4.9902Y-2.5492
X4.9902Y-3.3563
X4.9902Y-3.4154
X4.9902Y-4.2224
X4.9902Y-4.2815
X5.2067Y-2.0571
X5.2067Y-2.0866
X5.2067Y-2.1161
X5.2067Y-2.9232
X5.2067Y-2.9528
X5.2067Y-2.9823
X5.2067Y-3.7894
X5.2067Y-3.8189
X5.2067Y-3.8484
X5.2067Y-4.6555
X5.2067Y-4.685
X5.2067Y-4.7146
X5.2657Y-2.0571
X5.2657Y-2.0866
X5.2657Y-2.1161
X5.2657Y-2.9232
X5.2657Y-2.9528
X5.2657Y-2.9823
X5.2657Y-3.7894
X5.2657Y-3.8189
X5.2657Y-3.8484
X5.2657Y-4.6555
X5.2657Y-4.685
X5.2657Y-4.7146
X5.4823Y-2.4902
X5.4823Y-2.5492
X5.4823Y-3.3563
X5.4823Y-3.4154
X5.4823Y-4.2224
X5.4823Y-4.2815
X5.5118Y-2.4902
X5.5118Y-2.5492
X5.5118Y-3.3563
X5.5118Y-3.4154
X5.5118Y-4.2224
X5.5118Y-4.2815
X5.5413Y-2.4902
X5.5413Y-2.5492
X5.5413Y-3.3563
X5.5413Y-3.4154
X5.5413Y-4.2224
X5.5413Y-4.2815
X5.7579Y-2.0571
X5.7579Y-2.0866
X5.7579Y-2.1161
X5.7579Y-2.9232
X5.7579Y-2.9528
X5.7579Y-2.9823
X5.7579Y-3.7894
X5.7579Y-3.8189
X5.7579Y-3.8484
X5.7579Y-4.6555
X5.7579Y-4.685
X5.7579Y-4.7146
X5.8169Y-2.0571
X5.8169Y-2.0866
X5.8169Y-2.1161
X5.8169Y-2.9232
X5.8169Y-2.9528
X5.8169Y-2.9823
X5.8169Y-3.7894
X5.8169Y-3.8189
X5.8169Y-3.8484
X5.8169Y-4.6555
X5.8169Y-4.685
X5.8169Y-4.7146
X6.0335Y-2.4902
X6.0335Y-2.5492
X6.0335Y-3.3563
X6.0335Y-3.4154
X6.0335Y-4.2224
X6.0335Y-4.2815
X6.063Y-2.4902
X6.063Y-2.5492
X6.063Y-3.3563
X6.063Y-3.4154
X6.063Y-4.2224
X6.063Y-4.2815
X6.0925Y-2.4902
X6.0925Y-2.5492
X6.0925Y-3.3563
X6.0925Y-3.4154
X6.0925Y-4.2224
X6.0925Y-4.2815
T0
M30
