M48
; DRILL file {KiCad (6.0.0-0)} date Wednesday, November 23, 2022 at 09:42:29 AM
; FORMAT={-:-/ absolute / inch / decimal}
; #@! TF.CreationDate,2022-11-23T09:42:29-05:00
; #@! TF.GenerationSoftware,Kicad,Pcbnew,(6.0.0-0)
; #@! TF.FileFunction,Plated,1,2,PTH
FMAT,2
INCH
; #@! TA.AperFunction,Plated,PTH,ComponentDrill
T1C0.0300
; #@! TA.AperFunction,Plated,PTH,ComponentDrill
T2C0.0394
%
G90
G05
T1
X2.6543Y-1.9866
X2.6543Y-2.1866
X2.6543Y-2.8527
X2.6543Y-3.0527
X2.6543Y-3.7189
X2.6543Y-3.9189
X2.6543Y-4.585
X2.6543Y-4.785
X2.7543Y-1.9866
X2.7543Y-2.1866
X2.7543Y-2.8527
X2.7543Y-3.0527
X2.7543Y-3.7189
X2.7543Y-3.9189
X2.7543Y-4.585
X2.7543Y-4.785
X2.8543Y-1.9866
X2.8543Y-2.1866
X2.8543Y-2.8527
X2.8543Y-3.0527
X2.8543Y-3.7189
X2.8543Y-3.9189
X2.8543Y-4.585
X2.8543Y-4.785
X3.2055Y-1.9866
X3.2055Y-2.1866
X3.2055Y-2.8527
X3.2055Y-3.0527
X3.2055Y-3.7189
X3.2055Y-3.9189
X3.2055Y-4.585
X3.2055Y-4.785
X3.3055Y-1.9866
X3.3055Y-2.1866
X3.3055Y-2.8527
X3.3055Y-3.0527
X3.3055Y-3.7189
X3.3055Y-3.9189
X3.3055Y-4.585
X3.3055Y-4.785
X3.4055Y-1.9866
X3.4055Y-2.1866
X3.4055Y-2.8527
X3.4055Y-3.0527
X3.4055Y-3.7189
X3.4055Y-3.9189
X3.4055Y-4.585
X3.4055Y-4.785
X3.7567Y-1.9866
X3.7567Y-2.1866
X3.7567Y-2.8527
X3.7567Y-3.0527
X3.7567Y-3.7189
X3.7567Y-3.9189
X3.7567Y-4.585
X3.7567Y-4.785
X3.8567Y-1.9866
X3.8567Y-2.1866
X3.8567Y-2.8527
X3.8567Y-3.0527
X3.8567Y-3.7189
X3.8567Y-3.9189
X3.8567Y-4.585
X3.8567Y-4.785
X3.9567Y-1.9866
X3.9567Y-2.1866
X3.9567Y-2.8527
X3.9567Y-3.0527
X3.9567Y-3.7189
X3.9567Y-3.9189
X3.9567Y-4.585
X3.9567Y-4.785
X4.3079Y-1.9866
X4.3079Y-2.1866
X4.3079Y-2.8527
X4.3079Y-3.0527
X4.3079Y-3.7189
X4.3079Y-3.9189
X4.3079Y-4.585
X4.3079Y-4.785
X4.4079Y-1.9866
X4.4079Y-2.1866
X4.4079Y-2.8527
X4.4079Y-3.0527
X4.4079Y-3.7189
X4.4079Y-3.9189
X4.4079Y-4.585
X4.4079Y-4.785
X4.5079Y-1.9866
X4.5079Y-2.1866
X4.5079Y-2.8527
X4.5079Y-3.0527
X4.5079Y-3.7189
X4.5079Y-3.9189
X4.5079Y-4.585
X4.5079Y-4.785
X4.8591Y-1.9866
X4.8591Y-2.1866
X4.8591Y-2.8527
X4.8591Y-3.0527
X4.8591Y-3.7189
X4.8591Y-3.9189
X4.8591Y-4.585
X4.8591Y-4.785
X4.9591Y-1.9866
X4.9591Y-2.1866
X4.9591Y-2.8527
X4.9591Y-3.0527
X4.9591Y-3.7189
X4.9591Y-3.9189
X4.9591Y-4.585
X4.9591Y-4.785
X5.0591Y-1.9866
X5.0591Y-2.1866
X5.0591Y-2.8527
X5.0591Y-3.0527
X5.0591Y-3.7189
X5.0591Y-3.9189
X5.0591Y-4.585
X5.0591Y-4.785
X5.4102Y-1.9866
X5.4102Y-2.1866
X5.4102Y-2.8527
X5.4102Y-3.0527
X5.4102Y-3.7189
X5.4102Y-3.9189
X5.4102Y-4.585
X5.4102Y-4.785
X5.5102Y-1.9866
X5.5102Y-2.1866
X5.5102Y-2.8527
X5.5102Y-3.0527
X5.5102Y-3.7189
X5.5102Y-3.9189
X5.5102Y-4.585
X5.5102Y-4.785
X5.6102Y-1.9866
X5.6102Y-2.1866
X5.6102Y-2.8527
X5.6102Y-3.0527
X5.6102Y-3.7189
X5.6102Y-3.9189
X5.6102Y-4.585
X5.6102Y-4.785
X5.9614Y-1.9866
X5.9614Y-2.1866
X5.9614Y-2.8527
X5.9614Y-3.0527
X5.9614Y-3.7189
X5.9614Y-3.9189
X5.9614Y-4.585
X5.9614Y-4.785
X6.0614Y-1.9866
X6.0614Y-2.1866
X6.0614Y-2.8527
X6.0614Y-3.0527
X6.0614Y-3.7189
X6.0614Y-3.9189
X6.0614Y-4.585
X6.0614Y-4.785
X6.1614Y-1.9866
X6.1614Y-2.1866
X6.1614Y-2.8527
X6.1614Y-3.0527
X6.1614Y-3.7189
X6.1614Y-3.9189
X6.1614Y-4.585
X6.1614Y-4.785
T2
X2.6559Y-1.8397
X2.6559Y-2.3397
X2.6559Y-2.7058
X2.6559Y-3.2058
X2.6559Y-3.572
X2.6559Y-4.072
X2.6559Y-4.4381
X2.6559Y-4.9381
X2.7559Y-1.8397
X2.7559Y-2.3397
X2.7559Y-2.7058
X2.7559Y-3.2058
X2.7559Y-3.572
X2.7559Y-4.072
X2.7559Y-4.4381
X2.7559Y-4.9381
X2.8559Y-1.8397
X2.8559Y-2.3397
X2.8559Y-2.7058
X2.8559Y-3.2058
X2.8559Y-3.572
X2.8559Y-4.072
X2.8559Y-4.4381
X2.8559Y-4.9381
X3.2071Y-1.8397
X3.2071Y-2.3397
X3.2071Y-2.7058
X3.2071Y-3.2058
X3.2071Y-3.572
X3.2071Y-4.072
X3.2071Y-4.4381
X3.2071Y-4.9381
X3.3071Y-1.8397
X3.3071Y-2.3397
X3.3071Y-2.7058
X3.3071Y-3.2058
X3.3071Y-3.572
X3.3071Y-4.072
X3.3071Y-4.4381
X3.3071Y-4.9381
X3.4071Y-1.8397
X3.4071Y-2.3397
X3.4071Y-2.7058
X3.4071Y-3.2058
X3.4071Y-3.572
X3.4071Y-4.072
X3.4071Y-4.4381
X3.4071Y-4.9381
X3.7583Y-1.8397
X3.7583Y-2.3397
X3.7583Y-2.7058
X3.7583Y-3.2058
X3.7583Y-3.572
X3.7583Y-4.072
X3.7583Y-4.4381
X3.7583Y-4.9381
X3.8583Y-1.8397
X3.8583Y-2.3397
X3.8583Y-2.7058
X3.8583Y-3.2058
X3.8583Y-3.572
X3.8583Y-4.072
X3.8583Y-4.4381
X3.8583Y-4.9381
X3.9583Y-1.8397
X3.9583Y-2.3397
X3.9583Y-2.7058
X3.9583Y-3.2058
X3.9583Y-3.572
X3.9583Y-4.072
X3.9583Y-4.4381
X3.9583Y-4.9381
X4.3094Y-1.8397
X4.3094Y-2.3397
X4.3094Y-2.7058
X4.3094Y-3.2058
X4.3094Y-3.572
X4.3094Y-4.072
X4.3094Y-4.4381
X4.3094Y-4.9381
X4.4094Y-1.8397
X4.4094Y-2.3397
X4.4094Y-2.7058
X4.4094Y-3.2058
X4.4094Y-3.572
X4.4094Y-4.072
X4.4094Y-4.4381
X4.4094Y-4.9381
X4.5094Y-1.8397
X4.5094Y-2.3397
X4.5094Y-2.7058
X4.5094Y-3.2058
X4.5094Y-3.572
X4.5094Y-4.072
X4.5094Y-4.4381
X4.5094Y-4.9381
X4.8606Y-1.8397
X4.8606Y-2.3397
X4.8606Y-2.7058
X4.8606Y-3.2058
X4.8606Y-3.572
X4.8606Y-4.072
X4.8606Y-4.4381
X4.8606Y-4.9381
X4.9606Y-1.8397
X4.9606Y-2.3397
X4.9606Y-2.7058
X4.9606Y-3.2058
X4.9606Y-3.572
X4.9606Y-4.072
X4.9606Y-4.4381
X4.9606Y-4.9381
X5.0606Y-1.8397
X5.0606Y-2.3397
X5.0606Y-2.7058
X5.0606Y-3.2058
X5.0606Y-3.572
X5.0606Y-4.072
X5.0606Y-4.4381
X5.0606Y-4.9381
X5.4118Y-1.8397
X5.4118Y-2.3397
X5.4118Y-2.7058
X5.4118Y-3.2058
X5.4118Y-3.572
X5.4118Y-4.072
X5.4118Y-4.4381
X5.4118Y-4.9381
X5.5118Y-1.8397
X5.5118Y-2.3397
X5.5118Y-2.7058
X5.5118Y-3.2058
X5.5118Y-3.572
X5.5118Y-4.072
X5.5118Y-4.4381
X5.5118Y-4.9381
X5.6118Y-1.8397
X5.6118Y-2.3397
X5.6118Y-2.7058
X5.6118Y-3.2058
X5.6118Y-3.572
X5.6118Y-4.072
X5.6118Y-4.4381
X5.6118Y-4.9381
X5.963Y-1.8397
X5.963Y-2.3397
X5.963Y-2.7058
X5.963Y-3.2058
X5.963Y-3.572
X5.963Y-4.072
X5.963Y-4.4381
X5.963Y-4.9381
X6.063Y-1.8397
X6.063Y-2.3397
X6.063Y-2.7058
X6.063Y-3.2058
X6.063Y-3.572
X6.063Y-4.072
X6.063Y-4.4381
X6.063Y-4.9381
X6.163Y-1.8397
X6.163Y-2.3397
X6.163Y-2.7058
X6.163Y-3.2058
X6.163Y-3.572
X6.163Y-4.072
X6.163Y-4.4381
X6.163Y-4.9381
T0
M30
