%TF.GenerationSoftware,KiCad,Pcbnew,(6.0.0-0)*%
%TF.CreationDate,2022-11-30T22:12:17-05:00*%
%TF.ProjectId,AudioJack-Breakout,41756469-6f4a-4616-936b-2d427265616b,rev?*%
%TF.SameCoordinates,Original*%
%TF.FileFunction,Legend,Bot*%
%TF.FilePolarity,Positive*%
%FSLAX46Y46*%
G04 Gerber Fmt 4.6, Leading zero omitted, Abs format (unit mm)*
G04 Created by KiCad (PCBNEW (6.0.0-0)) date 2022-11-30 22:12:17*
%MOMM*%
%LPD*%
G01*
G04 APERTURE LIST*
%ADD10C,0.120000*%
G04 APERTURE END LIST*
D10*
%TO.C,J74*%
X192870000Y-116670000D02*
X192870000Y-119330000D01*
X190270000Y-116670000D02*
X190270000Y-119330000D01*
X190270000Y-119330000D02*
X192870000Y-119330000D01*
X189000000Y-116670000D02*
X187670000Y-116670000D01*
X187670000Y-116670000D02*
X187670000Y-118000000D01*
X190270000Y-116670000D02*
X192870000Y-116670000D01*
%TO.C,J73*%
X192870000Y-135670000D02*
X192870000Y-138330000D01*
X189000000Y-135670000D02*
X187670000Y-135670000D01*
X190270000Y-135670000D02*
X190270000Y-138330000D01*
X190270000Y-138330000D02*
X192870000Y-138330000D01*
X187670000Y-135670000D02*
X187670000Y-137000000D01*
X190270000Y-135670000D02*
X192870000Y-135670000D01*
%TO.C,J71*%
X180870000Y-116670000D02*
X180870000Y-119330000D01*
X178270000Y-116670000D02*
X178270000Y-119330000D01*
X178270000Y-119330000D02*
X180870000Y-119330000D01*
X177000000Y-116670000D02*
X175670000Y-116670000D01*
X175670000Y-116670000D02*
X175670000Y-118000000D01*
X178270000Y-116670000D02*
X180870000Y-116670000D01*
%TO.C,J70*%
X180870000Y-135670000D02*
X180870000Y-138330000D01*
X177000000Y-135670000D02*
X175670000Y-135670000D01*
X178270000Y-135670000D02*
X178270000Y-138330000D01*
X178270000Y-138330000D02*
X180870000Y-138330000D01*
X175670000Y-135670000D02*
X175670000Y-137000000D01*
X178270000Y-135670000D02*
X180870000Y-135670000D01*
%TO.C,J68*%
X168870000Y-116670000D02*
X168870000Y-119330000D01*
X166270000Y-116670000D02*
X166270000Y-119330000D01*
X166270000Y-119330000D02*
X168870000Y-119330000D01*
X165000000Y-116670000D02*
X163670000Y-116670000D01*
X163670000Y-116670000D02*
X163670000Y-118000000D01*
X166270000Y-116670000D02*
X168870000Y-116670000D01*
%TO.C,J67*%
X168870000Y-135670000D02*
X168870000Y-138330000D01*
X165000000Y-135670000D02*
X163670000Y-135670000D01*
X166270000Y-135670000D02*
X166270000Y-138330000D01*
X166270000Y-138330000D02*
X168870000Y-138330000D01*
X163670000Y-135670000D02*
X163670000Y-137000000D01*
X166270000Y-135670000D02*
X168870000Y-135670000D01*
%TO.C,J65*%
X156870000Y-116670000D02*
X156870000Y-119330000D01*
X154270000Y-116670000D02*
X154270000Y-119330000D01*
X154270000Y-119330000D02*
X156870000Y-119330000D01*
X153000000Y-116670000D02*
X151670000Y-116670000D01*
X151670000Y-116670000D02*
X151670000Y-118000000D01*
X154270000Y-116670000D02*
X156870000Y-116670000D01*
%TO.C,J64*%
X156870000Y-135670000D02*
X156870000Y-138330000D01*
X153000000Y-135670000D02*
X151670000Y-135670000D01*
X154270000Y-135670000D02*
X154270000Y-138330000D01*
X154270000Y-138330000D02*
X156870000Y-138330000D01*
X151670000Y-135670000D02*
X151670000Y-137000000D01*
X154270000Y-135670000D02*
X156870000Y-135670000D01*
%TO.C,J62*%
X144870000Y-116670000D02*
X144870000Y-119330000D01*
X142270000Y-116670000D02*
X142270000Y-119330000D01*
X142270000Y-119330000D02*
X144870000Y-119330000D01*
X141000000Y-116670000D02*
X139670000Y-116670000D01*
X139670000Y-116670000D02*
X139670000Y-118000000D01*
X142270000Y-116670000D02*
X144870000Y-116670000D01*
%TO.C,J61*%
X144870000Y-135670000D02*
X144870000Y-138330000D01*
X141000000Y-135670000D02*
X139670000Y-135670000D01*
X142270000Y-135670000D02*
X142270000Y-138330000D01*
X142270000Y-138330000D02*
X144870000Y-138330000D01*
X139670000Y-135670000D02*
X139670000Y-137000000D01*
X142270000Y-135670000D02*
X144870000Y-135670000D01*
%TO.C,J59*%
X132870000Y-116670000D02*
X132870000Y-119330000D01*
X130270000Y-116670000D02*
X130270000Y-119330000D01*
X130270000Y-119330000D02*
X132870000Y-119330000D01*
X129000000Y-116670000D02*
X127670000Y-116670000D01*
X127670000Y-116670000D02*
X127670000Y-118000000D01*
X130270000Y-116670000D02*
X132870000Y-116670000D01*
%TO.C,J58*%
X132870000Y-135670000D02*
X132870000Y-138330000D01*
X129000000Y-135670000D02*
X127670000Y-135670000D01*
X130270000Y-135670000D02*
X130270000Y-138330000D01*
X130270000Y-138330000D02*
X132870000Y-138330000D01*
X127670000Y-135670000D02*
X127670000Y-137000000D01*
X130270000Y-135670000D02*
X132870000Y-135670000D01*
%TO.C,J56*%
X120870000Y-116670000D02*
X120870000Y-119330000D01*
X118270000Y-116670000D02*
X118270000Y-119330000D01*
X118270000Y-119330000D02*
X120870000Y-119330000D01*
X117000000Y-116670000D02*
X115670000Y-116670000D01*
X115670000Y-116670000D02*
X115670000Y-118000000D01*
X118270000Y-116670000D02*
X120870000Y-116670000D01*
%TO.C,J55*%
X120870000Y-135670000D02*
X120870000Y-138330000D01*
X117000000Y-135670000D02*
X115670000Y-135670000D01*
X118270000Y-135670000D02*
X118270000Y-138330000D01*
X118270000Y-138330000D02*
X120870000Y-138330000D01*
X115670000Y-135670000D02*
X115670000Y-137000000D01*
X118270000Y-135670000D02*
X120870000Y-135670000D01*
%TO.C,J53*%
X108870000Y-116670000D02*
X108870000Y-119330000D01*
X106270000Y-116670000D02*
X106270000Y-119330000D01*
X106270000Y-119330000D02*
X108870000Y-119330000D01*
X105000000Y-116670000D02*
X103670000Y-116670000D01*
X103670000Y-116670000D02*
X103670000Y-118000000D01*
X106270000Y-116670000D02*
X108870000Y-116670000D01*
%TO.C,J52*%
X108870000Y-135670000D02*
X108870000Y-138330000D01*
X105000000Y-135670000D02*
X103670000Y-135670000D01*
X106270000Y-135670000D02*
X106270000Y-138330000D01*
X106270000Y-138330000D02*
X108870000Y-138330000D01*
X103670000Y-135670000D02*
X103670000Y-137000000D01*
X106270000Y-135670000D02*
X108870000Y-135670000D01*
%TO.C,J50*%
X192870000Y-91670000D02*
X192870000Y-94330000D01*
X190270000Y-91670000D02*
X190270000Y-94330000D01*
X190270000Y-94330000D02*
X192870000Y-94330000D01*
X189000000Y-91670000D02*
X187670000Y-91670000D01*
X187670000Y-91670000D02*
X187670000Y-93000000D01*
X190270000Y-91670000D02*
X192870000Y-91670000D01*
%TO.C,J49*%
X192870000Y-110670000D02*
X192870000Y-113330000D01*
X189000000Y-110670000D02*
X187670000Y-110670000D01*
X190270000Y-110670000D02*
X190270000Y-113330000D01*
X190270000Y-113330000D02*
X192870000Y-113330000D01*
X187670000Y-110670000D02*
X187670000Y-112000000D01*
X190270000Y-110670000D02*
X192870000Y-110670000D01*
%TO.C,J47*%
X180870000Y-91670000D02*
X180870000Y-94330000D01*
X178270000Y-91670000D02*
X178270000Y-94330000D01*
X178270000Y-94330000D02*
X180870000Y-94330000D01*
X177000000Y-91670000D02*
X175670000Y-91670000D01*
X175670000Y-91670000D02*
X175670000Y-93000000D01*
X178270000Y-91670000D02*
X180870000Y-91670000D01*
%TO.C,J46*%
X180870000Y-110670000D02*
X180870000Y-113330000D01*
X177000000Y-110670000D02*
X175670000Y-110670000D01*
X178270000Y-110670000D02*
X178270000Y-113330000D01*
X178270000Y-113330000D02*
X180870000Y-113330000D01*
X175670000Y-110670000D02*
X175670000Y-112000000D01*
X178270000Y-110670000D02*
X180870000Y-110670000D01*
%TO.C,J44*%
X168870000Y-91670000D02*
X168870000Y-94330000D01*
X166270000Y-91670000D02*
X166270000Y-94330000D01*
X166270000Y-94330000D02*
X168870000Y-94330000D01*
X165000000Y-91670000D02*
X163670000Y-91670000D01*
X163670000Y-91670000D02*
X163670000Y-93000000D01*
X166270000Y-91670000D02*
X168870000Y-91670000D01*
%TO.C,J43*%
X168870000Y-110670000D02*
X168870000Y-113330000D01*
X165000000Y-110670000D02*
X163670000Y-110670000D01*
X166270000Y-110670000D02*
X166270000Y-113330000D01*
X166270000Y-113330000D02*
X168870000Y-113330000D01*
X163670000Y-110670000D02*
X163670000Y-112000000D01*
X166270000Y-110670000D02*
X168870000Y-110670000D01*
%TO.C,J41*%
X156870000Y-91670000D02*
X156870000Y-94330000D01*
X154270000Y-91670000D02*
X154270000Y-94330000D01*
X154270000Y-94330000D02*
X156870000Y-94330000D01*
X153000000Y-91670000D02*
X151670000Y-91670000D01*
X151670000Y-91670000D02*
X151670000Y-93000000D01*
X154270000Y-91670000D02*
X156870000Y-91670000D01*
%TO.C,J40*%
X156870000Y-110670000D02*
X156870000Y-113330000D01*
X153000000Y-110670000D02*
X151670000Y-110670000D01*
X154270000Y-110670000D02*
X154270000Y-113330000D01*
X154270000Y-113330000D02*
X156870000Y-113330000D01*
X151670000Y-110670000D02*
X151670000Y-112000000D01*
X154270000Y-110670000D02*
X156870000Y-110670000D01*
%TO.C,J38*%
X144870000Y-91670000D02*
X144870000Y-94330000D01*
X142270000Y-91670000D02*
X142270000Y-94330000D01*
X142270000Y-94330000D02*
X144870000Y-94330000D01*
X141000000Y-91670000D02*
X139670000Y-91670000D01*
X139670000Y-91670000D02*
X139670000Y-93000000D01*
X142270000Y-91670000D02*
X144870000Y-91670000D01*
%TO.C,J37*%
X144870000Y-110670000D02*
X144870000Y-113330000D01*
X141000000Y-110670000D02*
X139670000Y-110670000D01*
X142270000Y-110670000D02*
X142270000Y-113330000D01*
X142270000Y-113330000D02*
X144870000Y-113330000D01*
X139670000Y-110670000D02*
X139670000Y-112000000D01*
X142270000Y-110670000D02*
X144870000Y-110670000D01*
%TO.C,J35*%
X132870000Y-91670000D02*
X132870000Y-94330000D01*
X130270000Y-91670000D02*
X130270000Y-94330000D01*
X130270000Y-94330000D02*
X132870000Y-94330000D01*
X129000000Y-91670000D02*
X127670000Y-91670000D01*
X127670000Y-91670000D02*
X127670000Y-93000000D01*
X130270000Y-91670000D02*
X132870000Y-91670000D01*
%TO.C,J34*%
X132870000Y-110670000D02*
X132870000Y-113330000D01*
X129000000Y-110670000D02*
X127670000Y-110670000D01*
X130270000Y-110670000D02*
X130270000Y-113330000D01*
X130270000Y-113330000D02*
X132870000Y-113330000D01*
X127670000Y-110670000D02*
X127670000Y-112000000D01*
X130270000Y-110670000D02*
X132870000Y-110670000D01*
%TO.C,J32*%
X120870000Y-91670000D02*
X120870000Y-94330000D01*
X118270000Y-91670000D02*
X118270000Y-94330000D01*
X118270000Y-94330000D02*
X120870000Y-94330000D01*
X117000000Y-91670000D02*
X115670000Y-91670000D01*
X115670000Y-91670000D02*
X115670000Y-93000000D01*
X118270000Y-91670000D02*
X120870000Y-91670000D01*
%TO.C,J31*%
X120870000Y-110670000D02*
X120870000Y-113330000D01*
X117000000Y-110670000D02*
X115670000Y-110670000D01*
X118270000Y-110670000D02*
X118270000Y-113330000D01*
X118270000Y-113330000D02*
X120870000Y-113330000D01*
X115670000Y-110670000D02*
X115670000Y-112000000D01*
X118270000Y-110670000D02*
X120870000Y-110670000D01*
%TO.C,J29*%
X108870000Y-91670000D02*
X108870000Y-94330000D01*
X106270000Y-91670000D02*
X106270000Y-94330000D01*
X106270000Y-94330000D02*
X108870000Y-94330000D01*
X105000000Y-91670000D02*
X103670000Y-91670000D01*
X103670000Y-91670000D02*
X103670000Y-93000000D01*
X106270000Y-91670000D02*
X108870000Y-91670000D01*
%TO.C,J28*%
X108870000Y-110670000D02*
X108870000Y-113330000D01*
X105000000Y-110670000D02*
X103670000Y-110670000D01*
X106270000Y-110670000D02*
X106270000Y-113330000D01*
X106270000Y-113330000D02*
X108870000Y-113330000D01*
X103670000Y-110670000D02*
X103670000Y-112000000D01*
X106270000Y-110670000D02*
X108870000Y-110670000D01*
%TO.C,J26*%
X192870000Y-66670000D02*
X192870000Y-69330000D01*
X190270000Y-66670000D02*
X190270000Y-69330000D01*
X190270000Y-69330000D02*
X192870000Y-69330000D01*
X189000000Y-66670000D02*
X187670000Y-66670000D01*
X187670000Y-66670000D02*
X187670000Y-68000000D01*
X190270000Y-66670000D02*
X192870000Y-66670000D01*
%TO.C,J25*%
X192870000Y-85670000D02*
X192870000Y-88330000D01*
X189000000Y-85670000D02*
X187670000Y-85670000D01*
X190270000Y-85670000D02*
X190270000Y-88330000D01*
X190270000Y-88330000D02*
X192870000Y-88330000D01*
X187670000Y-85670000D02*
X187670000Y-87000000D01*
X190270000Y-85670000D02*
X192870000Y-85670000D01*
%TO.C,J23*%
X180870000Y-66670000D02*
X180870000Y-69330000D01*
X178270000Y-66670000D02*
X178270000Y-69330000D01*
X178270000Y-69330000D02*
X180870000Y-69330000D01*
X177000000Y-66670000D02*
X175670000Y-66670000D01*
X175670000Y-66670000D02*
X175670000Y-68000000D01*
X178270000Y-66670000D02*
X180870000Y-66670000D01*
%TO.C,J22*%
X180870000Y-85670000D02*
X180870000Y-88330000D01*
X177000000Y-85670000D02*
X175670000Y-85670000D01*
X178270000Y-85670000D02*
X178270000Y-88330000D01*
X178270000Y-88330000D02*
X180870000Y-88330000D01*
X175670000Y-85670000D02*
X175670000Y-87000000D01*
X178270000Y-85670000D02*
X180870000Y-85670000D01*
%TO.C,J20*%
X168870000Y-66670000D02*
X168870000Y-69330000D01*
X166270000Y-66670000D02*
X166270000Y-69330000D01*
X166270000Y-69330000D02*
X168870000Y-69330000D01*
X165000000Y-66670000D02*
X163670000Y-66670000D01*
X163670000Y-66670000D02*
X163670000Y-68000000D01*
X166270000Y-66670000D02*
X168870000Y-66670000D01*
%TO.C,J19*%
X168870000Y-85670000D02*
X168870000Y-88330000D01*
X165000000Y-85670000D02*
X163670000Y-85670000D01*
X166270000Y-85670000D02*
X166270000Y-88330000D01*
X166270000Y-88330000D02*
X168870000Y-88330000D01*
X163670000Y-85670000D02*
X163670000Y-87000000D01*
X166270000Y-85670000D02*
X168870000Y-85670000D01*
%TO.C,J17*%
X156870000Y-66670000D02*
X156870000Y-69330000D01*
X154270000Y-66670000D02*
X154270000Y-69330000D01*
X154270000Y-69330000D02*
X156870000Y-69330000D01*
X153000000Y-66670000D02*
X151670000Y-66670000D01*
X151670000Y-66670000D02*
X151670000Y-68000000D01*
X154270000Y-66670000D02*
X156870000Y-66670000D01*
%TO.C,J16*%
X156870000Y-85670000D02*
X156870000Y-88330000D01*
X153000000Y-85670000D02*
X151670000Y-85670000D01*
X154270000Y-85670000D02*
X154270000Y-88330000D01*
X154270000Y-88330000D02*
X156870000Y-88330000D01*
X151670000Y-85670000D02*
X151670000Y-87000000D01*
X154270000Y-85670000D02*
X156870000Y-85670000D01*
%TO.C,J14*%
X144870000Y-66670000D02*
X144870000Y-69330000D01*
X142270000Y-66670000D02*
X142270000Y-69330000D01*
X142270000Y-69330000D02*
X144870000Y-69330000D01*
X141000000Y-66670000D02*
X139670000Y-66670000D01*
X139670000Y-66670000D02*
X139670000Y-68000000D01*
X142270000Y-66670000D02*
X144870000Y-66670000D01*
%TO.C,J13*%
X144870000Y-85670000D02*
X144870000Y-88330000D01*
X141000000Y-85670000D02*
X139670000Y-85670000D01*
X142270000Y-85670000D02*
X142270000Y-88330000D01*
X142270000Y-88330000D02*
X144870000Y-88330000D01*
X139670000Y-85670000D02*
X139670000Y-87000000D01*
X142270000Y-85670000D02*
X144870000Y-85670000D01*
%TO.C,J11*%
X132870000Y-66670000D02*
X132870000Y-69330000D01*
X130270000Y-66670000D02*
X130270000Y-69330000D01*
X130270000Y-69330000D02*
X132870000Y-69330000D01*
X129000000Y-66670000D02*
X127670000Y-66670000D01*
X127670000Y-66670000D02*
X127670000Y-68000000D01*
X130270000Y-66670000D02*
X132870000Y-66670000D01*
%TO.C,J10*%
X132870000Y-85670000D02*
X132870000Y-88330000D01*
X129000000Y-85670000D02*
X127670000Y-85670000D01*
X130270000Y-85670000D02*
X130270000Y-88330000D01*
X130270000Y-88330000D02*
X132870000Y-88330000D01*
X127670000Y-85670000D02*
X127670000Y-87000000D01*
X130270000Y-85670000D02*
X132870000Y-85670000D01*
%TO.C,J9*%
X120870000Y-66670000D02*
X120870000Y-69330000D01*
X118270000Y-66670000D02*
X118270000Y-69330000D01*
X118270000Y-69330000D02*
X120870000Y-69330000D01*
X117000000Y-66670000D02*
X115670000Y-66670000D01*
X115670000Y-66670000D02*
X115670000Y-68000000D01*
X118270000Y-66670000D02*
X120870000Y-66670000D01*
%TO.C,J6*%
X120870000Y-85670000D02*
X120870000Y-88330000D01*
X117000000Y-85670000D02*
X115670000Y-85670000D01*
X118270000Y-85670000D02*
X118270000Y-88330000D01*
X118270000Y-88330000D02*
X120870000Y-88330000D01*
X115670000Y-85670000D02*
X115670000Y-87000000D01*
X118270000Y-85670000D02*
X120870000Y-85670000D01*
%TO.C,J4*%
X108870000Y-85670000D02*
X108870000Y-88330000D01*
X105000000Y-85670000D02*
X103670000Y-85670000D01*
X106270000Y-85670000D02*
X106270000Y-88330000D01*
X106270000Y-88330000D02*
X108870000Y-88330000D01*
X103670000Y-85670000D02*
X103670000Y-87000000D01*
X106270000Y-85670000D02*
X108870000Y-85670000D01*
%TO.C,J8*%
X108870000Y-66670000D02*
X108870000Y-69330000D01*
X106270000Y-66670000D02*
X106270000Y-69330000D01*
X106270000Y-69330000D02*
X108870000Y-69330000D01*
X105000000Y-66670000D02*
X103670000Y-66670000D01*
X103670000Y-66670000D02*
X103670000Y-68000000D01*
X106270000Y-66670000D02*
X108870000Y-66670000D01*
%TD*%
M02*
