%TF.GenerationSoftware,KiCad,Pcbnew,(6.0.0-0)*%
%TF.CreationDate,2022-11-30T22:12:16-05:00*%
%TF.ProjectId,AudioJack-Breakout,41756469-6f4a-4616-936b-2d427265616b,rev?*%
%TF.SameCoordinates,Original*%
%TF.FileFunction,Copper,L2,Bot*%
%TF.FilePolarity,Positive*%
%FSLAX46Y46*%
G04 Gerber Fmt 4.6, Leading zero omitted, Abs format (unit mm)*
G04 Created by KiCad (PCBNEW (6.0.0-0)) date 2022-11-30 22:12:16*
%MOMM*%
%LPD*%
G01*
G04 APERTURE LIST*
%TA.AperFunction,ComponentPad*%
%ADD10R,1.700000X1.700000*%
%TD*%
%TA.AperFunction,ComponentPad*%
%ADD11O,1.700000X1.700000*%
%TD*%
%TA.AperFunction,ComponentPad*%
%ADD12R,1.930000X1.830000*%
%TD*%
%TA.AperFunction,ComponentPad*%
%ADD13C,2.130000*%
%TD*%
G04 APERTURE END LIST*
D10*
%TO.P,J74,1,Pin_1*%
%TO.N,unconnected-(J8-Pad1)*%
X189000000Y-118000000D03*
D11*
%TO.P,J74,2,Pin_2*%
%TO.N,unconnected-(J8-Pad2)*%
X191540000Y-118000000D03*
%TD*%
D12*
%TO.P,J72,G*%
%TO.N,Net-(J3-PadG)*%
X190000000Y-121426000D03*
D13*
%TO.P,J72,S*%
%TO.N,Net-(J3-PadS)*%
X190000000Y-124526000D03*
%TO.P,J72,T*%
X190000000Y-132826000D03*
%TD*%
D10*
%TO.P,J73,1,Pin_1*%
%TO.N,Net-(J3-PadS)*%
X189000000Y-137000000D03*
D11*
%TO.P,J73,2,Pin_2*%
%TO.N,Net-(J3-PadG)*%
X191540000Y-137000000D03*
%TD*%
D10*
%TO.P,J71,1,Pin_1*%
%TO.N,unconnected-(J8-Pad1)*%
X177000000Y-118000000D03*
D11*
%TO.P,J71,2,Pin_2*%
%TO.N,unconnected-(J8-Pad2)*%
X179540000Y-118000000D03*
%TD*%
D12*
%TO.P,J69,G*%
%TO.N,Net-(J3-PadG)*%
X178000000Y-121426000D03*
D13*
%TO.P,J69,S*%
%TO.N,Net-(J3-PadS)*%
X178000000Y-124526000D03*
%TO.P,J69,T*%
X178000000Y-132826000D03*
%TD*%
D10*
%TO.P,J70,1,Pin_1*%
%TO.N,Net-(J3-PadS)*%
X177000000Y-137000000D03*
D11*
%TO.P,J70,2,Pin_2*%
%TO.N,Net-(J3-PadG)*%
X179540000Y-137000000D03*
%TD*%
D10*
%TO.P,J68,1,Pin_1*%
%TO.N,unconnected-(J8-Pad1)*%
X165000000Y-118000000D03*
D11*
%TO.P,J68,2,Pin_2*%
%TO.N,unconnected-(J8-Pad2)*%
X167540000Y-118000000D03*
%TD*%
D12*
%TO.P,J66,G*%
%TO.N,Net-(J3-PadG)*%
X166000000Y-121426000D03*
D13*
%TO.P,J66,S*%
%TO.N,Net-(J3-PadS)*%
X166000000Y-124526000D03*
%TO.P,J66,T*%
X166000000Y-132826000D03*
%TD*%
D10*
%TO.P,J67,1,Pin_1*%
%TO.N,Net-(J3-PadS)*%
X165000000Y-137000000D03*
D11*
%TO.P,J67,2,Pin_2*%
%TO.N,Net-(J3-PadG)*%
X167540000Y-137000000D03*
%TD*%
D10*
%TO.P,J65,1,Pin_1*%
%TO.N,unconnected-(J8-Pad1)*%
X153000000Y-118000000D03*
D11*
%TO.P,J65,2,Pin_2*%
%TO.N,unconnected-(J8-Pad2)*%
X155540000Y-118000000D03*
%TD*%
D12*
%TO.P,J63,G*%
%TO.N,Net-(J3-PadG)*%
X154000000Y-121426000D03*
D13*
%TO.P,J63,S*%
%TO.N,Net-(J3-PadS)*%
X154000000Y-124526000D03*
%TO.P,J63,T*%
X154000000Y-132826000D03*
%TD*%
D10*
%TO.P,J64,1,Pin_1*%
%TO.N,Net-(J3-PadS)*%
X153000000Y-137000000D03*
D11*
%TO.P,J64,2,Pin_2*%
%TO.N,Net-(J3-PadG)*%
X155540000Y-137000000D03*
%TD*%
D10*
%TO.P,J62,1,Pin_1*%
%TO.N,unconnected-(J8-Pad1)*%
X141000000Y-118000000D03*
D11*
%TO.P,J62,2,Pin_2*%
%TO.N,unconnected-(J8-Pad2)*%
X143540000Y-118000000D03*
%TD*%
D12*
%TO.P,J60,G*%
%TO.N,Net-(J3-PadG)*%
X142000000Y-121426000D03*
D13*
%TO.P,J60,S*%
%TO.N,Net-(J3-PadS)*%
X142000000Y-124526000D03*
%TO.P,J60,T*%
X142000000Y-132826000D03*
%TD*%
D10*
%TO.P,J61,1,Pin_1*%
%TO.N,Net-(J3-PadS)*%
X141000000Y-137000000D03*
D11*
%TO.P,J61,2,Pin_2*%
%TO.N,Net-(J3-PadG)*%
X143540000Y-137000000D03*
%TD*%
D10*
%TO.P,J59,1,Pin_1*%
%TO.N,unconnected-(J8-Pad1)*%
X129000000Y-118000000D03*
D11*
%TO.P,J59,2,Pin_2*%
%TO.N,unconnected-(J8-Pad2)*%
X131540000Y-118000000D03*
%TD*%
D12*
%TO.P,J57,G*%
%TO.N,Net-(J3-PadG)*%
X130000000Y-121426000D03*
D13*
%TO.P,J57,S*%
%TO.N,Net-(J3-PadS)*%
X130000000Y-124526000D03*
%TO.P,J57,T*%
X130000000Y-132826000D03*
%TD*%
D10*
%TO.P,J58,1,Pin_1*%
%TO.N,Net-(J3-PadS)*%
X129000000Y-137000000D03*
D11*
%TO.P,J58,2,Pin_2*%
%TO.N,Net-(J3-PadG)*%
X131540000Y-137000000D03*
%TD*%
D10*
%TO.P,J56,1,Pin_1*%
%TO.N,unconnected-(J8-Pad1)*%
X117000000Y-118000000D03*
D11*
%TO.P,J56,2,Pin_2*%
%TO.N,unconnected-(J8-Pad2)*%
X119540000Y-118000000D03*
%TD*%
D12*
%TO.P,J54,G*%
%TO.N,Net-(J3-PadG)*%
X118000000Y-121426000D03*
D13*
%TO.P,J54,S*%
%TO.N,Net-(J3-PadS)*%
X118000000Y-124526000D03*
%TO.P,J54,T*%
X118000000Y-132826000D03*
%TD*%
D10*
%TO.P,J55,1,Pin_1*%
%TO.N,Net-(J3-PadS)*%
X117000000Y-137000000D03*
D11*
%TO.P,J55,2,Pin_2*%
%TO.N,Net-(J3-PadG)*%
X119540000Y-137000000D03*
%TD*%
D10*
%TO.P,J53,1,Pin_1*%
%TO.N,unconnected-(J8-Pad1)*%
X105000000Y-118000000D03*
D11*
%TO.P,J53,2,Pin_2*%
%TO.N,unconnected-(J8-Pad2)*%
X107540000Y-118000000D03*
%TD*%
D12*
%TO.P,J51,G*%
%TO.N,Net-(J3-PadG)*%
X106000000Y-121426000D03*
D13*
%TO.P,J51,S*%
%TO.N,Net-(J3-PadS)*%
X106000000Y-124526000D03*
%TO.P,J51,T*%
X106000000Y-132826000D03*
%TD*%
D10*
%TO.P,J52,1,Pin_1*%
%TO.N,Net-(J3-PadS)*%
X105000000Y-137000000D03*
D11*
%TO.P,J52,2,Pin_2*%
%TO.N,Net-(J3-PadG)*%
X107540000Y-137000000D03*
%TD*%
D10*
%TO.P,J50,1,Pin_1*%
%TO.N,unconnected-(J8-Pad1)*%
X189000000Y-93000000D03*
D11*
%TO.P,J50,2,Pin_2*%
%TO.N,unconnected-(J8-Pad2)*%
X191540000Y-93000000D03*
%TD*%
D12*
%TO.P,J48,G*%
%TO.N,Net-(J3-PadG)*%
X190000000Y-96426000D03*
D13*
%TO.P,J48,S*%
%TO.N,Net-(J3-PadS)*%
X190000000Y-99526000D03*
%TO.P,J48,T*%
X190000000Y-107826000D03*
%TD*%
D10*
%TO.P,J49,1,Pin_1*%
%TO.N,Net-(J3-PadS)*%
X189000000Y-112000000D03*
D11*
%TO.P,J49,2,Pin_2*%
%TO.N,Net-(J3-PadG)*%
X191540000Y-112000000D03*
%TD*%
D10*
%TO.P,J47,1,Pin_1*%
%TO.N,unconnected-(J8-Pad1)*%
X177000000Y-93000000D03*
D11*
%TO.P,J47,2,Pin_2*%
%TO.N,unconnected-(J8-Pad2)*%
X179540000Y-93000000D03*
%TD*%
D12*
%TO.P,J45,G*%
%TO.N,Net-(J3-PadG)*%
X178000000Y-96426000D03*
D13*
%TO.P,J45,S*%
%TO.N,Net-(J3-PadS)*%
X178000000Y-99526000D03*
%TO.P,J45,T*%
X178000000Y-107826000D03*
%TD*%
D10*
%TO.P,J46,1,Pin_1*%
%TO.N,Net-(J3-PadS)*%
X177000000Y-112000000D03*
D11*
%TO.P,J46,2,Pin_2*%
%TO.N,Net-(J3-PadG)*%
X179540000Y-112000000D03*
%TD*%
D10*
%TO.P,J44,1,Pin_1*%
%TO.N,unconnected-(J8-Pad1)*%
X165000000Y-93000000D03*
D11*
%TO.P,J44,2,Pin_2*%
%TO.N,unconnected-(J8-Pad2)*%
X167540000Y-93000000D03*
%TD*%
D12*
%TO.P,J42,G*%
%TO.N,Net-(J3-PadG)*%
X166000000Y-96426000D03*
D13*
%TO.P,J42,S*%
%TO.N,Net-(J3-PadS)*%
X166000000Y-99526000D03*
%TO.P,J42,T*%
X166000000Y-107826000D03*
%TD*%
D10*
%TO.P,J43,1,Pin_1*%
%TO.N,Net-(J3-PadS)*%
X165000000Y-112000000D03*
D11*
%TO.P,J43,2,Pin_2*%
%TO.N,Net-(J3-PadG)*%
X167540000Y-112000000D03*
%TD*%
D10*
%TO.P,J41,1,Pin_1*%
%TO.N,unconnected-(J8-Pad1)*%
X153000000Y-93000000D03*
D11*
%TO.P,J41,2,Pin_2*%
%TO.N,unconnected-(J8-Pad2)*%
X155540000Y-93000000D03*
%TD*%
D12*
%TO.P,J39,G*%
%TO.N,Net-(J3-PadG)*%
X154000000Y-96426000D03*
D13*
%TO.P,J39,S*%
%TO.N,Net-(J3-PadS)*%
X154000000Y-99526000D03*
%TO.P,J39,T*%
X154000000Y-107826000D03*
%TD*%
D10*
%TO.P,J40,1,Pin_1*%
%TO.N,Net-(J3-PadS)*%
X153000000Y-112000000D03*
D11*
%TO.P,J40,2,Pin_2*%
%TO.N,Net-(J3-PadG)*%
X155540000Y-112000000D03*
%TD*%
D10*
%TO.P,J38,1,Pin_1*%
%TO.N,unconnected-(J8-Pad1)*%
X141000000Y-93000000D03*
D11*
%TO.P,J38,2,Pin_2*%
%TO.N,unconnected-(J8-Pad2)*%
X143540000Y-93000000D03*
%TD*%
D12*
%TO.P,J36,G*%
%TO.N,Net-(J3-PadG)*%
X142000000Y-96426000D03*
D13*
%TO.P,J36,S*%
%TO.N,Net-(J3-PadS)*%
X142000000Y-99526000D03*
%TO.P,J36,T*%
X142000000Y-107826000D03*
%TD*%
D10*
%TO.P,J37,1,Pin_1*%
%TO.N,Net-(J3-PadS)*%
X141000000Y-112000000D03*
D11*
%TO.P,J37,2,Pin_2*%
%TO.N,Net-(J3-PadG)*%
X143540000Y-112000000D03*
%TD*%
D10*
%TO.P,J35,1,Pin_1*%
%TO.N,unconnected-(J8-Pad1)*%
X129000000Y-93000000D03*
D11*
%TO.P,J35,2,Pin_2*%
%TO.N,unconnected-(J8-Pad2)*%
X131540000Y-93000000D03*
%TD*%
D12*
%TO.P,J33,G*%
%TO.N,Net-(J3-PadG)*%
X130000000Y-96426000D03*
D13*
%TO.P,J33,S*%
%TO.N,Net-(J3-PadS)*%
X130000000Y-99526000D03*
%TO.P,J33,T*%
X130000000Y-107826000D03*
%TD*%
D10*
%TO.P,J34,1,Pin_1*%
%TO.N,Net-(J3-PadS)*%
X129000000Y-112000000D03*
D11*
%TO.P,J34,2,Pin_2*%
%TO.N,Net-(J3-PadG)*%
X131540000Y-112000000D03*
%TD*%
D10*
%TO.P,J32,1,Pin_1*%
%TO.N,unconnected-(J8-Pad1)*%
X117000000Y-93000000D03*
D11*
%TO.P,J32,2,Pin_2*%
%TO.N,unconnected-(J8-Pad2)*%
X119540000Y-93000000D03*
%TD*%
D12*
%TO.P,J30,G*%
%TO.N,Net-(J3-PadG)*%
X118000000Y-96426000D03*
D13*
%TO.P,J30,S*%
%TO.N,Net-(J3-PadS)*%
X118000000Y-99526000D03*
%TO.P,J30,T*%
X118000000Y-107826000D03*
%TD*%
D10*
%TO.P,J31,1,Pin_1*%
%TO.N,Net-(J3-PadS)*%
X117000000Y-112000000D03*
D11*
%TO.P,J31,2,Pin_2*%
%TO.N,Net-(J3-PadG)*%
X119540000Y-112000000D03*
%TD*%
D10*
%TO.P,J29,1,Pin_1*%
%TO.N,unconnected-(J8-Pad1)*%
X105000000Y-93000000D03*
D11*
%TO.P,J29,2,Pin_2*%
%TO.N,unconnected-(J8-Pad2)*%
X107540000Y-93000000D03*
%TD*%
D12*
%TO.P,J27,G*%
%TO.N,Net-(J3-PadG)*%
X106000000Y-96426000D03*
D13*
%TO.P,J27,S*%
%TO.N,Net-(J3-PadS)*%
X106000000Y-99526000D03*
%TO.P,J27,T*%
X106000000Y-107826000D03*
%TD*%
D10*
%TO.P,J28,1,Pin_1*%
%TO.N,Net-(J3-PadS)*%
X105000000Y-112000000D03*
D11*
%TO.P,J28,2,Pin_2*%
%TO.N,Net-(J3-PadG)*%
X107540000Y-112000000D03*
%TD*%
D10*
%TO.P,J26,1,Pin_1*%
%TO.N,unconnected-(J8-Pad1)*%
X189000000Y-68000000D03*
D11*
%TO.P,J26,2,Pin_2*%
%TO.N,unconnected-(J8-Pad2)*%
X191540000Y-68000000D03*
%TD*%
D12*
%TO.P,J24,G*%
%TO.N,Net-(J3-PadG)*%
X190000000Y-71426000D03*
D13*
%TO.P,J24,S*%
%TO.N,Net-(J3-PadS)*%
X190000000Y-74526000D03*
%TO.P,J24,T*%
X190000000Y-82826000D03*
%TD*%
D10*
%TO.P,J25,1,Pin_1*%
%TO.N,Net-(J3-PadS)*%
X189000000Y-87000000D03*
D11*
%TO.P,J25,2,Pin_2*%
%TO.N,Net-(J3-PadG)*%
X191540000Y-87000000D03*
%TD*%
D10*
%TO.P,J23,1,Pin_1*%
%TO.N,unconnected-(J8-Pad1)*%
X177000000Y-68000000D03*
D11*
%TO.P,J23,2,Pin_2*%
%TO.N,unconnected-(J8-Pad2)*%
X179540000Y-68000000D03*
%TD*%
D12*
%TO.P,J21,G*%
%TO.N,Net-(J3-PadG)*%
X178000000Y-71426000D03*
D13*
%TO.P,J21,S*%
%TO.N,Net-(J3-PadS)*%
X178000000Y-74526000D03*
%TO.P,J21,T*%
X178000000Y-82826000D03*
%TD*%
D10*
%TO.P,J22,1,Pin_1*%
%TO.N,Net-(J3-PadS)*%
X177000000Y-87000000D03*
D11*
%TO.P,J22,2,Pin_2*%
%TO.N,Net-(J3-PadG)*%
X179540000Y-87000000D03*
%TD*%
D10*
%TO.P,J20,1,Pin_1*%
%TO.N,unconnected-(J8-Pad1)*%
X165000000Y-68000000D03*
D11*
%TO.P,J20,2,Pin_2*%
%TO.N,unconnected-(J8-Pad2)*%
X167540000Y-68000000D03*
%TD*%
D12*
%TO.P,J18,G*%
%TO.N,Net-(J3-PadG)*%
X166000000Y-71426000D03*
D13*
%TO.P,J18,S*%
%TO.N,Net-(J3-PadS)*%
X166000000Y-74526000D03*
%TO.P,J18,T*%
X166000000Y-82826000D03*
%TD*%
D10*
%TO.P,J19,1,Pin_1*%
%TO.N,Net-(J3-PadS)*%
X165000000Y-87000000D03*
D11*
%TO.P,J19,2,Pin_2*%
%TO.N,Net-(J3-PadG)*%
X167540000Y-87000000D03*
%TD*%
D10*
%TO.P,J17,1,Pin_1*%
%TO.N,unconnected-(J8-Pad1)*%
X153000000Y-68000000D03*
D11*
%TO.P,J17,2,Pin_2*%
%TO.N,unconnected-(J8-Pad2)*%
X155540000Y-68000000D03*
%TD*%
D12*
%TO.P,J15,G*%
%TO.N,Net-(J3-PadG)*%
X154000000Y-71426000D03*
D13*
%TO.P,J15,S*%
%TO.N,Net-(J3-PadS)*%
X154000000Y-74526000D03*
%TO.P,J15,T*%
X154000000Y-82826000D03*
%TD*%
D10*
%TO.P,J16,1,Pin_1*%
%TO.N,Net-(J3-PadS)*%
X153000000Y-87000000D03*
D11*
%TO.P,J16,2,Pin_2*%
%TO.N,Net-(J3-PadG)*%
X155540000Y-87000000D03*
%TD*%
D10*
%TO.P,J14,1,Pin_1*%
%TO.N,unconnected-(J8-Pad1)*%
X141000000Y-68000000D03*
D11*
%TO.P,J14,2,Pin_2*%
%TO.N,unconnected-(J8-Pad2)*%
X143540000Y-68000000D03*
%TD*%
D12*
%TO.P,J12,G*%
%TO.N,Net-(J3-PadG)*%
X142000000Y-71426000D03*
D13*
%TO.P,J12,S*%
%TO.N,Net-(J3-PadS)*%
X142000000Y-74526000D03*
%TO.P,J12,T*%
X142000000Y-82826000D03*
%TD*%
D10*
%TO.P,J13,1,Pin_1*%
%TO.N,Net-(J3-PadS)*%
X141000000Y-87000000D03*
D11*
%TO.P,J13,2,Pin_2*%
%TO.N,Net-(J3-PadG)*%
X143540000Y-87000000D03*
%TD*%
D10*
%TO.P,J11,1,Pin_1*%
%TO.N,unconnected-(J8-Pad1)*%
X129000000Y-68000000D03*
D11*
%TO.P,J11,2,Pin_2*%
%TO.N,unconnected-(J8-Pad2)*%
X131540000Y-68000000D03*
%TD*%
D12*
%TO.P,J7,G*%
%TO.N,Net-(J3-PadG)*%
X130000000Y-71426000D03*
D13*
%TO.P,J7,S*%
%TO.N,Net-(J3-PadS)*%
X130000000Y-74526000D03*
%TO.P,J7,T*%
X130000000Y-82826000D03*
%TD*%
D10*
%TO.P,J10,1,Pin_1*%
%TO.N,Net-(J3-PadS)*%
X129000000Y-87000000D03*
D11*
%TO.P,J10,2,Pin_2*%
%TO.N,Net-(J3-PadG)*%
X131540000Y-87000000D03*
%TD*%
D10*
%TO.P,J9,1,Pin_1*%
%TO.N,unconnected-(J8-Pad1)*%
X117000000Y-68000000D03*
D11*
%TO.P,J9,2,Pin_2*%
%TO.N,unconnected-(J8-Pad2)*%
X119540000Y-68000000D03*
%TD*%
D12*
%TO.P,J5,G*%
%TO.N,Net-(J3-PadG)*%
X118000000Y-71426000D03*
D13*
%TO.P,J5,S*%
%TO.N,Net-(J3-PadS)*%
X118000000Y-74526000D03*
%TO.P,J5,T*%
X118000000Y-82826000D03*
%TD*%
D10*
%TO.P,J6,1,Pin_1*%
%TO.N,Net-(J3-PadS)*%
X117000000Y-87000000D03*
D11*
%TO.P,J6,2,Pin_2*%
%TO.N,Net-(J3-PadG)*%
X119540000Y-87000000D03*
%TD*%
D10*
%TO.P,J4,1,Pin_1*%
%TO.N,Net-(J3-PadS)*%
X105000000Y-87000000D03*
D11*
%TO.P,J4,2,Pin_2*%
%TO.N,Net-(J3-PadG)*%
X107540000Y-87000000D03*
%TD*%
D12*
%TO.P,J3,G*%
%TO.N,Net-(J3-PadG)*%
X106000000Y-71426000D03*
D13*
%TO.P,J3,S*%
%TO.N,Net-(J3-PadS)*%
X106000000Y-74526000D03*
%TO.P,J3,T*%
X106000000Y-82826000D03*
%TD*%
D10*
%TO.P,J8,1,Pin_1*%
%TO.N,unconnected-(J8-Pad1)*%
X105000000Y-68000000D03*
D11*
%TO.P,J8,2,Pin_2*%
%TO.N,unconnected-(J8-Pad2)*%
X107540000Y-68000000D03*
%TD*%
M02*
