%TF.GenerationSoftware,KiCad,Pcbnew,(6.0.0-0)*%
%TF.CreationDate,2022-12-05T16:43:44-05:00*%
%TF.ProjectId,LFO,4c464f2e-6b69-4636-9164-5f7063625858,rev?*%
%TF.SameCoordinates,Original*%
%TF.FileFunction,Copper,L2,Bot*%
%TF.FilePolarity,Positive*%
%FSLAX46Y46*%
G04 Gerber Fmt 4.6, Leading zero omitted, Abs format (unit mm)*
G04 Created by KiCad (PCBNEW (6.0.0-0)) date 2022-12-05 16:43:44*
%MOMM*%
%LPD*%
G01*
G04 APERTURE LIST*
G04 Aperture macros list*
%AMRoundRect*
0 Rectangle with rounded corners*
0 $1 Rounding radius*
0 $2 $3 $4 $5 $6 $7 $8 $9 X,Y pos of 4 corners*
0 Add a 4 corners polygon primitive as box body*
4,1,4,$2,$3,$4,$5,$6,$7,$8,$9,$2,$3,0*
0 Add four circle primitives for the rounded corners*
1,1,$1+$1,$2,$3*
1,1,$1+$1,$4,$5*
1,1,$1+$1,$6,$7*
1,1,$1+$1,$8,$9*
0 Add four rect primitives between the rounded corners*
20,1,$1+$1,$2,$3,$4,$5,0*
20,1,$1+$1,$4,$5,$6,$7,0*
20,1,$1+$1,$6,$7,$8,$9,0*
20,1,$1+$1,$8,$9,$2,$3,0*%
G04 Aperture macros list end*
%TA.AperFunction,SMDPad,CuDef*%
%ADD10RoundRect,0.150000X0.150000X-0.825000X0.150000X0.825000X-0.150000X0.825000X-0.150000X-0.825000X0*%
%TD*%
%TA.AperFunction,ComponentPad*%
%ADD11R,1.600000X1.600000*%
%TD*%
%TA.AperFunction,ComponentPad*%
%ADD12C,1.600000*%
%TD*%
%TA.AperFunction,SMDPad,CuDef*%
%ADD13RoundRect,0.250000X0.450000X-0.262500X0.450000X0.262500X-0.450000X0.262500X-0.450000X-0.262500X0*%
%TD*%
%TA.AperFunction,SMDPad,CuDef*%
%ADD14RoundRect,0.250000X-0.450000X0.262500X-0.450000X-0.262500X0.450000X-0.262500X0.450000X0.262500X0*%
%TD*%
%TA.AperFunction,SMDPad,CuDef*%
%ADD15RoundRect,0.250000X-0.262500X-0.450000X0.262500X-0.450000X0.262500X0.450000X-0.262500X0.450000X0*%
%TD*%
%TA.AperFunction,SMDPad,CuDef*%
%ADD16RoundRect,0.250000X0.262500X0.450000X-0.262500X0.450000X-0.262500X-0.450000X0.262500X-0.450000X0*%
%TD*%
%TA.AperFunction,ComponentPad*%
%ADD17R,1.500000X1.050000*%
%TD*%
%TA.AperFunction,ComponentPad*%
%ADD18O,1.500000X1.050000*%
%TD*%
%TA.AperFunction,ComponentPad*%
%ADD19C,1.700000*%
%TD*%
%TA.AperFunction,ComponentPad*%
%ADD20RoundRect,0.250000X-0.600000X0.600000X-0.600000X-0.600000X0.600000X-0.600000X0.600000X0.600000X0*%
%TD*%
%TA.AperFunction,ComponentPad*%
%ADD21O,2.720000X3.240000*%
%TD*%
%TA.AperFunction,ComponentPad*%
%ADD22C,2.000000*%
%TD*%
%TA.AperFunction,ComponentPad*%
%ADD23R,1.930000X1.830000*%
%TD*%
%TA.AperFunction,ComponentPad*%
%ADD24C,2.130000*%
%TD*%
%TA.AperFunction,ComponentPad*%
%ADD25C,6.000000*%
%TD*%
%TA.AperFunction,ComponentPad*%
%ADD26C,0.800000*%
%TD*%
%TA.AperFunction,ViaPad*%
%ADD27C,0.800000*%
%TD*%
%TA.AperFunction,Conductor*%
%ADD28C,0.250000*%
%TD*%
G04 APERTURE END LIST*
D10*
%TO.P,U3,1*%
%TO.N,Net-(U3-Pad1)*%
X135255000Y-115505000D03*
%TO.P,U3,2,-*%
%TO.N,Net-(U3-Pad2)*%
X133985000Y-115505000D03*
%TO.P,U3,3,+*%
%TO.N,GND*%
X132715000Y-115505000D03*
%TO.P,U3,4,V-*%
%TO.N,-5V*%
X131445000Y-115505000D03*
%TO.P,U3,5,+*%
%TO.N,Net-(Q1-Pad1)*%
X131445000Y-110555000D03*
%TO.P,U3,6,-*%
%TO.N,Net-(U3-Pad6)*%
X132715000Y-110555000D03*
%TO.P,U3,7*%
%TO.N,Net-(U3-Pad7)*%
X133985000Y-110555000D03*
%TO.P,U3,8,V+*%
%TO.N,+5V*%
X135255000Y-110555000D03*
%TD*%
%TO.P,U2,1*%
%TO.N,/SQR_B*%
X133985000Y-102955500D03*
%TO.P,U2,2,-*%
%TO.N,GND*%
X132715000Y-102955500D03*
%TO.P,U2,3,+*%
%TO.N,Net-(R1-Pad2)*%
X131445000Y-102955500D03*
%TO.P,U2,4,V-*%
%TO.N,-5V*%
X130175000Y-102955500D03*
%TO.P,U2,5,+*%
%TO.N,GND*%
X130175000Y-98005500D03*
%TO.P,U2,6,-*%
%TO.N,Net-(C1-Pad1)*%
X131445000Y-98005500D03*
%TO.P,U2,7*%
%TO.N,/TRI_B*%
X132715000Y-98005500D03*
%TO.P,U2,8,V+*%
%TO.N,+5V*%
X133985000Y-98005500D03*
%TD*%
D11*
%TO.P,C2,1*%
%TO.N,Net-(C2-Pad1)*%
X146558000Y-94234000D03*
D12*
%TO.P,C2,2*%
%TO.N,TRIANGLE*%
X149058000Y-94234000D03*
%TD*%
D13*
%TO.P,R13,1*%
%TO.N,Net-(U3-Pad2)*%
X143002000Y-115974500D03*
%TO.P,R13,2*%
%TO.N,Net-(U3-Pad1)*%
X143002000Y-114149500D03*
%TD*%
D14*
%TO.P,R3,1*%
%TO.N,Net-(R1-Pad2)*%
X142200000Y-101703500D03*
%TO.P,R3,2*%
%TO.N,/SQR_B*%
X142200000Y-103528500D03*
%TD*%
D15*
%TO.P,R7,2*%
%TO.N,Net-(R7-Pad2)*%
X130556000Y-93726000D03*
%TO.P,R7,1*%
%TO.N,Net-(C1-Pad1)*%
X128731000Y-93726000D03*
%TD*%
D14*
%TO.P,R2,1*%
%TO.N,Net-(R1-Pad2)*%
X139700000Y-101703500D03*
%TO.P,R2,2*%
%TO.N,/TRI_B*%
X139700000Y-103528500D03*
%TD*%
D16*
%TO.P,R4,2*%
%TO.N,Net-(R4-Pad2)*%
X132437500Y-93726000D03*
%TO.P,R4,1*%
%TO.N,GND*%
X134262500Y-93726000D03*
%TD*%
D14*
%TO.P,R9,1*%
%TO.N,Net-(C2-Pad1)*%
X139700000Y-97536000D03*
%TO.P,R9,2*%
%TO.N,/TRI_B*%
X139700000Y-99361000D03*
%TD*%
%TO.P,R8,1*%
%TO.N,GND*%
X137160000Y-97536000D03*
%TO.P,R8,2*%
%TO.N,/TRI_B*%
X137160000Y-99361000D03*
%TD*%
D13*
%TO.P,R15,1*%
%TO.N,Net-(U3-Pad1)*%
X127000000Y-113942500D03*
%TO.P,R15,2*%
%TO.N,Net-(U3-Pad6)*%
X127000000Y-112117500D03*
%TD*%
%TO.P,R14,1*%
%TO.N,Net-(U3-Pad1)*%
X129286000Y-113942500D03*
%TO.P,R14,2*%
%TO.N,Net-(Q1-Pad1)*%
X129286000Y-112117500D03*
%TD*%
D14*
%TO.P,R1,1*%
%TO.N,-5V*%
X137160000Y-101703500D03*
%TO.P,R1,2*%
%TO.N,Net-(R1-Pad2)*%
X137160000Y-103528500D03*
%TD*%
%TO.P,R12,2*%
%TO.N,Net-(Q1-Pad2)*%
X143764000Y-110640500D03*
%TO.P,R12,1*%
%TO.N,/SQR_B*%
X143764000Y-108815500D03*
%TD*%
D17*
%TO.P,Q1,1,C*%
%TO.N,Net-(Q1-Pad1)*%
X140314000Y-108458000D03*
D18*
%TO.P,Q1,2,B*%
%TO.N,Net-(Q1-Pad2)*%
X140314000Y-109728000D03*
%TO.P,Q1,3,E*%
%TO.N,GND*%
X140314000Y-110998000D03*
%TD*%
D15*
%TO.P,R17,1*%
%TO.N,Net-(U3-Pad7)*%
X134112000Y-107696000D03*
%TO.P,R17,2*%
%TO.N,SAW*%
X135937000Y-107696000D03*
%TD*%
%TO.P,R16,1*%
%TO.N,Net-(U3-Pad6)*%
X130556000Y-107696000D03*
%TO.P,R16,2*%
%TO.N,Net-(U3-Pad7)*%
X132381000Y-107696000D03*
%TD*%
D13*
%TO.P,R19,1*%
%TO.N,-5V*%
X125984000Y-99615000D03*
%TO.P,R19,2*%
%TO.N,GND*%
X125984000Y-97790000D03*
%TD*%
%TO.P,R18,1*%
%TO.N,-5V*%
X123952000Y-99615000D03*
%TO.P,R18,2*%
%TO.N,-12V*%
X123952000Y-97790000D03*
%TD*%
D15*
%TO.P,R5,2*%
%TO.N,GND*%
X146160500Y-100584000D03*
%TO.P,R5,1*%
%TO.N,/SQR_B*%
X144335500Y-100584000D03*
%TD*%
D12*
%TO.P,C1,1*%
%TO.N,Net-(C1-Pad1)*%
X136946000Y-92964000D03*
%TO.P,C1,2*%
%TO.N,/TRI_B*%
X141946000Y-92964000D03*
%TD*%
D14*
%TO.P,R11,2*%
%TO.N,Net-(U3-Pad2)*%
X140716000Y-115974500D03*
%TO.P,R11,1*%
%TO.N,Net-(R11-Pad1)*%
X140716000Y-114149500D03*
%TD*%
%TO.P,R10,1*%
%TO.N,/TRI_B*%
X138430000Y-114149500D03*
%TO.P,R10,2*%
%TO.N,Net-(U3-Pad2)*%
X138430000Y-115974500D03*
%TD*%
D15*
%TO.P,R6,2*%
%TO.N,SQUARE*%
X146160500Y-103378000D03*
%TO.P,R6,1*%
%TO.N,/SQR_B*%
X144335500Y-103378000D03*
%TD*%
D19*
%TO.P,U1,8,GATE*%
%TO.N,unconnected-(U1-Pad8)*%
X145922000Y-71120000D03*
X145934000Y-68580000D03*
%TO.P,U1,7,CV*%
%TO.N,unconnected-(U1-Pad7)*%
X143394000Y-68580000D03*
X143382000Y-71120000D03*
%TO.P,U1,6,5V*%
%TO.N,+5V*%
X140842000Y-71120000D03*
X140854000Y-68580000D03*
%TO.P,U1,5,12V*%
%TO.N,unconnected-(U1-Pad5)*%
X138314000Y-68580000D03*
X138302000Y-71120000D03*
%TO.P,U1,4,GND*%
%TO.N,GND*%
X135762000Y-71120000D03*
X135774000Y-68580000D03*
%TO.P,U1,3,GND*%
X133222000Y-71120000D03*
X133234000Y-68580000D03*
%TO.P,U1,2,GND*%
X130694000Y-68580000D03*
X130682000Y-71120000D03*
%TO.P,U1,1,-12V*%
%TO.N,-12V*%
X128154000Y-71120000D03*
D20*
X128154000Y-68580000D03*
%TD*%
D21*
%TO.P,RV3,*%
%TO.N,*%
X138142000Y-144686000D03*
X147742000Y-144686000D03*
D22*
%TO.P,RV3,1,1*%
%TO.N,-12V*%
X145442000Y-137186000D03*
%TO.P,RV3,2,2*%
%TO.N,Net-(R11-Pad1)*%
X142942000Y-137186000D03*
%TO.P,RV3,3,3*%
X140442000Y-137186000D03*
%TD*%
D21*
%TO.P,RV2,*%
%TO.N,*%
X135104000Y-80758000D03*
X125504000Y-80758000D03*
D22*
%TO.P,RV2,1,1*%
%TO.N,Net-(RV1-Pad3)*%
X127804000Y-88258000D03*
%TO.P,RV2,2,2*%
%TO.N,Net-(R7-Pad2)*%
X130304000Y-88258000D03*
%TO.P,RV2,3,3*%
%TO.N,Net-(R4-Pad2)*%
X132804000Y-88258000D03*
%TD*%
D21*
%TO.P,RV1,*%
%TO.N,*%
X148362500Y-80729000D03*
X138762500Y-80729000D03*
D22*
%TO.P,RV1,1,1*%
%TO.N,/SQR_B*%
X141062500Y-88229000D03*
%TO.P,RV1,2,2*%
X143562500Y-88229000D03*
%TO.P,RV1,3,3*%
%TO.N,Net-(RV1-Pad3)*%
X146062500Y-88229000D03*
%TD*%
D23*
%TO.P,J3,G*%
%TO.N,GND*%
X129734000Y-120426000D03*
D24*
%TO.P,J3,S*%
%TO.N,SQUARE*%
X129734000Y-123526000D03*
%TO.P,J3,T*%
X129734000Y-131826000D03*
%TD*%
D23*
%TO.P,J2,G*%
%TO.N,GND*%
X143002000Y-120426000D03*
D24*
%TO.P,J2,S*%
%TO.N,TRIANGLE*%
X143002000Y-123526000D03*
%TO.P,J2,T*%
X143002000Y-131826000D03*
%TD*%
D23*
%TO.P,J1,G*%
%TO.N,GND*%
X129794000Y-137876000D03*
D24*
%TO.P,J1,S*%
%TO.N,SAW*%
X129794000Y-140976000D03*
%TO.P,J1,T*%
X129794000Y-149276000D03*
%TD*%
D25*
%TO.P,H4,1,1*%
%TO.N,GND*%
X148336000Y-60960000D03*
D26*
X150586000Y-60960000D03*
X149926990Y-62550990D03*
X148336000Y-63210000D03*
X146745010Y-62550990D03*
X146086000Y-60960000D03*
X146745010Y-59369010D03*
X148336000Y-58710000D03*
X149926990Y-59369010D03*
%TD*%
D25*
%TO.P,H3,1,1*%
%TO.N,GND*%
X125476000Y-154686000D03*
D26*
X127726000Y-154686000D03*
X127066990Y-156276990D03*
X125476000Y-156936000D03*
X123885010Y-156276990D03*
X123226000Y-154686000D03*
X123885010Y-153095010D03*
X125476000Y-152436000D03*
X127066990Y-153095010D03*
%TD*%
D25*
%TO.P,H2,1,1*%
%TO.N,GND*%
X148336000Y-154686000D03*
D26*
X150586000Y-154686000D03*
X149926990Y-156276990D03*
X148336000Y-156936000D03*
X146745010Y-156276990D03*
X146086000Y-154686000D03*
X146745010Y-153095010D03*
X148336000Y-152436000D03*
X149926990Y-153095010D03*
%TD*%
D25*
%TO.P,H1,1,1*%
%TO.N,GND*%
X125476000Y-60960000D03*
D26*
X127726000Y-60960000D03*
X127066990Y-62550990D03*
X125476000Y-63210000D03*
X123885010Y-62550990D03*
X123226000Y-60960000D03*
X123885010Y-59369010D03*
X125476000Y-58710000D03*
X127066990Y-59369010D03*
%TD*%
D27*
%TO.N,GND*%
X147320000Y-110998000D03*
X132842000Y-113538000D03*
X128016000Y-116332000D03*
X126492000Y-91694000D03*
X134366000Y-91694000D03*
%TO.N,+5V*%
X135382002Y-104648000D03*
X135382000Y-98044000D03*
%TO.N,Net-(C2-Pad1)*%
X141478000Y-96266000D03*
%TO.N,/TRI_B*%
X138430000Y-100584000D03*
%TO.N,-5V*%
X131064000Y-113030000D03*
X128270000Y-102870000D03*
%TO.N,-12V*%
X126492000Y-135382000D03*
X123952000Y-96266000D03*
%TO.N,SQUARE*%
X147066000Y-127254000D03*
%TO.N,/TRI_B*%
X138430000Y-112522000D03*
X138430002Y-106426000D03*
%TD*%
D28*
%TO.N,/TRI_B*%
X141946000Y-92964000D02*
X142240000Y-93258000D01*
X142240000Y-93258000D02*
X142240000Y-98298000D01*
X142240000Y-98298000D02*
X141177000Y-99361000D01*
X141177000Y-99361000D02*
X139700000Y-99361000D01*
%TO.N,Net-(C2-Pad1)*%
X140970000Y-96266000D02*
X141478000Y-96266000D01*
X139700000Y-97536000D02*
X140970000Y-96266000D01*
%TO.N,Net-(C1-Pad1)*%
X134152000Y-95758000D02*
X132842000Y-95758000D01*
X132842000Y-95758000D02*
X131445000Y-97155000D01*
X136946000Y-92964000D02*
X134152000Y-95758000D01*
%TO.N,/SQR_B*%
X134789098Y-102955500D02*
X137414000Y-105580402D01*
X137414000Y-105580402D02*
X137414000Y-106688600D01*
X137414000Y-106688600D02*
X137875901Y-107150501D01*
X137875901Y-107150501D02*
X140757800Y-107150501D01*
X133985000Y-102955500D02*
X134789098Y-102955500D01*
X140757800Y-107150501D02*
X142200000Y-105708301D01*
X142200000Y-105708301D02*
X142200000Y-103528500D01*
%TO.N,/TRI_B*%
X139700000Y-103528500D02*
X138430002Y-104798498D01*
X138430002Y-104798498D02*
X138430002Y-106426000D01*
%TO.N,+5V*%
X136906000Y-108904000D02*
X136906000Y-106308304D01*
X135382002Y-104784306D02*
X135382002Y-104648000D01*
X135255000Y-110555000D02*
X136906000Y-108904000D01*
X136906000Y-106308304D02*
X135382002Y-104784306D01*
%TO.N,GND*%
X132715000Y-115505000D02*
X132715000Y-113665000D01*
X132715000Y-113665000D02*
X132842000Y-113538000D01*
X134262500Y-93726000D02*
X134262500Y-91797500D01*
X134262500Y-91797500D02*
X134366000Y-91694000D01*
%TO.N,Net-(RV1-Pad3)*%
X127804000Y-88258000D02*
X127804000Y-86826000D01*
X127804000Y-86826000D02*
X128778000Y-85852000D01*
X128778000Y-85852000D02*
X145034000Y-85852000D01*
X146062500Y-86880500D02*
X146062500Y-88229000D01*
X145034000Y-85852000D02*
X146062500Y-86880500D01*
%TO.N,unconnected-(U1-Pad5)*%
X138302000Y-71120000D02*
X138302000Y-68592000D01*
X138302000Y-68592000D02*
X138314000Y-68580000D01*
%TO.N,unconnected-(U1-Pad8)*%
X145934000Y-68580000D02*
X145934000Y-71108000D01*
X145934000Y-71108000D02*
X145922000Y-71120000D01*
%TO.N,unconnected-(U1-Pad7)*%
X143382000Y-71120000D02*
X143382000Y-68592000D01*
X143382000Y-68592000D02*
X143394000Y-68580000D01*
%TO.N,-12V*%
X128154000Y-71120000D02*
X128154000Y-82666000D01*
X128154000Y-82666000D02*
X123952000Y-86868000D01*
X123952000Y-86868000D02*
X123952000Y-96266000D01*
X128154000Y-68580000D02*
X128154000Y-71120000D01*
%TO.N,-5V*%
X137160000Y-101703500D02*
X136501500Y-101703500D01*
X136501500Y-101703500D02*
X135382000Y-100584000D01*
X135382000Y-100584000D02*
X129286000Y-100584000D01*
X128317000Y-99615000D02*
X125984000Y-99615000D01*
X129286000Y-100584000D02*
X128317000Y-99615000D01*
%TO.N,Net-(R1-Pad2)*%
X131445000Y-102955500D02*
X131445000Y-101727000D01*
X131445000Y-101727000D02*
X131826000Y-101346000D01*
X131826000Y-101346000D02*
X134620000Y-101346000D01*
X134620000Y-101346000D02*
X136802500Y-103528500D01*
X136802500Y-103528500D02*
X137160000Y-103528500D01*
%TO.N,+5V*%
X135382000Y-98044000D02*
X134023500Y-98044000D01*
X134023500Y-98044000D02*
X133985000Y-98005500D01*
%TO.N,/TRI_B*%
X132715000Y-98005500D02*
X132715000Y-99187000D01*
X133350000Y-99822000D02*
X135382000Y-99822000D01*
X135382000Y-99822000D02*
X135890000Y-99314000D01*
X137113000Y-99314000D02*
X137160000Y-99361000D01*
X132715000Y-99187000D02*
X133350000Y-99822000D01*
X135890000Y-99314000D02*
X137113000Y-99314000D01*
%TO.N,Net-(R7-Pad2)*%
X130556000Y-93726000D02*
X130304000Y-93474000D01*
X130304000Y-93474000D02*
X130304000Y-88258000D01*
%TO.N,Net-(R4-Pad2)*%
X132437500Y-93726000D02*
X132804000Y-93359500D01*
X132804000Y-93359500D02*
X132804000Y-88258000D01*
%TO.N,Net-(C1-Pad1)*%
X128731000Y-93726000D02*
X128731000Y-94441000D01*
X128731000Y-94441000D02*
X131445000Y-97155000D01*
X131445000Y-97155000D02*
X131445000Y-98005500D01*
%TO.N,/SQR_B*%
X141062500Y-88229000D02*
X143562500Y-88229000D01*
X144335500Y-100584000D02*
X143562500Y-99811000D01*
X143562500Y-99811000D02*
X143562500Y-88229000D01*
X144335500Y-103378000D02*
X144335500Y-100584000D01*
%TO.N,/TRI_B*%
X139700000Y-99361000D02*
X139653000Y-99361000D01*
X139653000Y-99361000D02*
X138430000Y-100584000D01*
X139700000Y-99361000D02*
X137160000Y-99361000D01*
%TO.N,Net-(R1-Pad2)*%
X139700000Y-101703500D02*
X138985000Y-101703500D01*
X138985000Y-101703500D02*
X137160000Y-103528500D01*
X139700000Y-101703500D02*
X142200000Y-101703500D01*
%TO.N,-5V*%
X128270000Y-102870000D02*
X125984000Y-100584000D01*
X125984000Y-100584000D02*
X125984000Y-99615000D01*
X131445000Y-115505000D02*
X131445000Y-113411000D01*
X131445000Y-113411000D02*
X131064000Y-113030000D01*
X128270000Y-102870000D02*
X130089500Y-102870000D01*
X130089500Y-102870000D02*
X130175000Y-102955500D01*
%TO.N,SAW*%
X129794000Y-140976000D02*
X127006000Y-140976000D01*
X127006000Y-140976000D02*
X125222000Y-139192000D01*
X125222000Y-139192000D02*
X125222000Y-108204000D01*
X125222000Y-108204000D02*
X127254000Y-106172000D01*
X135937000Y-106727000D02*
X135937000Y-107696000D01*
X127254000Y-106172000D02*
X135382000Y-106172000D01*
X135382000Y-106172000D02*
X135937000Y-106727000D01*
X129794000Y-140976000D02*
X129794000Y-149276000D01*
%TO.N,-5V*%
X123952000Y-99615000D02*
X125984000Y-99615000D01*
%TO.N,-12V*%
X137160000Y-139954000D02*
X136144000Y-138938000D01*
X145442000Y-139038000D02*
X144526000Y-139954000D01*
X130302000Y-135382000D02*
X126492000Y-135382000D01*
X132588000Y-135382000D02*
X130302000Y-135382000D01*
X145442000Y-137186000D02*
X145442000Y-139038000D01*
X144526000Y-139954000D02*
X137160000Y-139954000D01*
X136144000Y-138938000D02*
X132588000Y-135382000D01*
X123952000Y-96266000D02*
X123952000Y-97790000D01*
%TO.N,SQUARE*%
X146160500Y-103378000D02*
X146160500Y-126348500D01*
X146160500Y-126348500D02*
X147066000Y-127254000D01*
%TO.N,Net-(Q1-Pad1)*%
X131445000Y-110555000D02*
X131445000Y-111633000D01*
X131445000Y-111633000D02*
X132080000Y-112268000D01*
X132080000Y-112268000D02*
X135636000Y-112268000D01*
X135636000Y-112268000D02*
X139446000Y-108458000D01*
X139446000Y-108458000D02*
X140314000Y-108458000D01*
%TO.N,/TRI_B*%
X138430000Y-114149500D02*
X138430000Y-112522000D01*
%TO.N,Net-(U3-Pad6)*%
X127000000Y-112117500D02*
X127000000Y-109982000D01*
X127000000Y-109982000D02*
X129286000Y-107696000D01*
X129286000Y-107696000D02*
X130556000Y-107696000D01*
%TO.N,Net-(Q1-Pad1)*%
X131445000Y-110555000D02*
X131256000Y-110744000D01*
X131256000Y-110744000D02*
X129794000Y-110744000D01*
X129794000Y-110744000D02*
X129286000Y-111252000D01*
X129286000Y-111252000D02*
X129286000Y-112117500D01*
%TO.N,Net-(U3-Pad6)*%
X132715000Y-110555000D02*
X132715000Y-109855000D01*
X132715000Y-109855000D02*
X131826000Y-108966000D01*
X131064000Y-108966000D02*
X130556000Y-108458000D01*
X131826000Y-108966000D02*
X131064000Y-108966000D01*
X130556000Y-108458000D02*
X130556000Y-107696000D01*
%TO.N,Net-(U3-Pad7)*%
X132381000Y-107696000D02*
X134112000Y-107696000D01*
X133985000Y-110555000D02*
X133985000Y-107823000D01*
X133985000Y-107823000D02*
X134112000Y-107696000D01*
%TO.N,/SQR_B*%
X142200000Y-103528500D02*
X144185000Y-103528500D01*
X144185000Y-103528500D02*
X144335500Y-103378000D01*
X143764000Y-108815500D02*
X143764000Y-106934000D01*
X144335500Y-106362500D02*
X144335500Y-103378000D01*
X143764000Y-106934000D02*
X144335500Y-106362500D01*
%TO.N,Net-(Q1-Pad2)*%
X143764000Y-110640500D02*
X142898500Y-110640500D01*
X142898500Y-110640500D02*
X141986000Y-109728000D01*
X141986000Y-109728000D02*
X140314000Y-109728000D01*
%TO.N,SQUARE*%
X129734000Y-131826000D02*
X129734000Y-123526000D01*
%TO.N,TRIANGLE*%
X143002000Y-131826000D02*
X143002000Y-123526000D01*
%TO.N,Net-(R11-Pad1)*%
X140442000Y-137186000D02*
X142942000Y-137186000D01*
X140716000Y-114149500D02*
X140716000Y-113538000D01*
X140716000Y-113538000D02*
X141478000Y-112776000D01*
X141478000Y-112776000D02*
X144018000Y-112776000D01*
X142942000Y-134934000D02*
X142942000Y-137186000D01*
X144018000Y-112776000D02*
X145542000Y-114300000D01*
X145542000Y-114300000D02*
X145542000Y-132334000D01*
X145542000Y-132334000D02*
X142942000Y-134934000D01*
%TO.N,Net-(U3-Pad1)*%
X143002000Y-114149500D02*
X143867500Y-114149500D01*
X143867500Y-114149500D02*
X144272000Y-114554000D01*
X144272000Y-114554000D02*
X144272000Y-116840000D01*
X144272000Y-116840000D02*
X143764000Y-117348000D01*
X143764000Y-117348000D02*
X136652000Y-117348000D01*
X136652000Y-117348000D02*
X135255000Y-115951000D01*
X135255000Y-115951000D02*
X135255000Y-115505000D01*
%TO.N,Net-(U3-Pad2)*%
X138430000Y-115974500D02*
X143002000Y-115974500D01*
X138430000Y-115974500D02*
X137564500Y-115974500D01*
X137564500Y-115974500D02*
X135636000Y-114046000D01*
X135636000Y-114046000D02*
X134366000Y-114046000D01*
X134366000Y-114046000D02*
X133985000Y-114427000D01*
X133985000Y-114427000D02*
X133985000Y-115505000D01*
%TO.N,Net-(U3-Pad1)*%
X129286000Y-113942500D02*
X129286000Y-116078000D01*
X129286000Y-116078000D02*
X130556000Y-117348000D01*
X130556000Y-117348000D02*
X134620000Y-117348000D01*
X134620000Y-117348000D02*
X135255000Y-116713000D01*
X135255000Y-116713000D02*
X135255000Y-115505000D01*
X129286000Y-113942500D02*
X127000000Y-113942500D01*
%TD*%
%TA.AperFunction,Conductor*%
%TO.N,GND*%
G36*
X123378008Y-57932002D02*
G01*
X123424501Y-57985658D01*
X123434605Y-58055932D01*
X123405111Y-58120512D01*
X123389181Y-58135921D01*
X123194366Y-58293678D01*
X123185900Y-58305933D01*
X123192234Y-58317024D01*
X125463188Y-60587978D01*
X125477132Y-60595592D01*
X125478965Y-60595461D01*
X125485580Y-60591210D01*
X127758900Y-58317890D01*
X127766040Y-58304814D01*
X127758582Y-58294446D01*
X127562819Y-58135921D01*
X127522467Y-58077507D01*
X127520101Y-58006549D01*
X127556474Y-57945578D01*
X127620036Y-57913949D01*
X127642113Y-57912000D01*
X146169887Y-57912000D01*
X146238008Y-57932002D01*
X146284501Y-57985658D01*
X146294605Y-58055932D01*
X146265111Y-58120512D01*
X146249181Y-58135921D01*
X146054366Y-58293678D01*
X146045900Y-58305933D01*
X146052234Y-58317024D01*
X148323188Y-60587978D01*
X148337132Y-60595592D01*
X148338965Y-60595461D01*
X148345580Y-60591210D01*
X150618900Y-58317890D01*
X150626040Y-58304814D01*
X150618582Y-58294446D01*
X150422819Y-58135921D01*
X150382467Y-58077507D01*
X150380101Y-58006549D01*
X150416474Y-57945578D01*
X150480036Y-57913949D01*
X150502113Y-57912000D01*
X151292000Y-57912000D01*
X151360121Y-57932002D01*
X151406614Y-57985658D01*
X151418000Y-58038000D01*
X151418000Y-58839533D01*
X151397998Y-58907654D01*
X151344342Y-58954147D01*
X151274068Y-58964251D01*
X151209488Y-58934757D01*
X151186327Y-58908157D01*
X151179717Y-58897979D01*
X151175854Y-58892662D01*
X151002322Y-58678366D01*
X150990067Y-58669900D01*
X150978976Y-58676234D01*
X148708022Y-60947188D01*
X148700408Y-60961132D01*
X148700539Y-60962965D01*
X148704790Y-60969580D01*
X150978110Y-63242900D01*
X150991186Y-63250040D01*
X151001554Y-63242582D01*
X151175854Y-63027338D01*
X151179717Y-63022021D01*
X151186327Y-63011843D01*
X151240204Y-62965606D01*
X151310525Y-62955836D01*
X151374965Y-62985636D01*
X151413064Y-63045544D01*
X151418000Y-63080467D01*
X151418000Y-152565533D01*
X151397998Y-152633654D01*
X151344342Y-152680147D01*
X151274068Y-152690251D01*
X151209488Y-152660757D01*
X151186327Y-152634157D01*
X151179717Y-152623979D01*
X151175854Y-152618662D01*
X151002322Y-152404366D01*
X150990067Y-152395900D01*
X150978976Y-152402234D01*
X148708022Y-154673188D01*
X148700408Y-154687132D01*
X148700539Y-154688965D01*
X148704790Y-154695580D01*
X150978110Y-156968900D01*
X150991186Y-156976040D01*
X151001554Y-156968582D01*
X151175854Y-156753338D01*
X151179717Y-156748021D01*
X151186327Y-156737843D01*
X151240204Y-156691606D01*
X151310525Y-156681836D01*
X151374965Y-156711636D01*
X151413064Y-156771544D01*
X151418000Y-156806467D01*
X151418000Y-157558000D01*
X151397998Y-157626121D01*
X151344342Y-157672614D01*
X151292000Y-157684000D01*
X150563859Y-157684000D01*
X150495738Y-157663998D01*
X150449245Y-157610342D01*
X150439141Y-157540068D01*
X150468635Y-157475488D01*
X150484565Y-157460080D01*
X150617633Y-157352324D01*
X150626100Y-157340067D01*
X150619766Y-157328976D01*
X148348812Y-155058022D01*
X148334868Y-155050408D01*
X148333035Y-155050539D01*
X148326420Y-155054790D01*
X146053100Y-157328110D01*
X146045960Y-157341186D01*
X146053420Y-157351557D01*
X146187435Y-157460080D01*
X146227787Y-157518494D01*
X146230153Y-157589451D01*
X146193780Y-157650423D01*
X146130218Y-157682051D01*
X146108141Y-157684000D01*
X127703859Y-157684000D01*
X127635738Y-157663998D01*
X127589245Y-157610342D01*
X127579141Y-157540068D01*
X127608635Y-157475488D01*
X127624565Y-157460080D01*
X127757633Y-157352324D01*
X127766100Y-157340067D01*
X127759766Y-157328976D01*
X125488812Y-155058022D01*
X125474868Y-155050408D01*
X125473035Y-155050539D01*
X125466420Y-155054790D01*
X123193100Y-157328110D01*
X123185960Y-157341186D01*
X123193420Y-157351557D01*
X123327435Y-157460080D01*
X123367787Y-157518494D01*
X123370153Y-157589451D01*
X123333780Y-157650423D01*
X123270218Y-157682051D01*
X123248141Y-157684000D01*
X122554000Y-157684000D01*
X122485879Y-157663998D01*
X122439386Y-157610342D01*
X122428000Y-157558000D01*
X122428000Y-156852113D01*
X122448002Y-156783992D01*
X122501658Y-156737499D01*
X122571932Y-156727395D01*
X122636512Y-156756889D01*
X122651921Y-156772819D01*
X122809678Y-156967634D01*
X122821933Y-156976100D01*
X122833024Y-156969766D01*
X125103978Y-154698812D01*
X125110356Y-154687132D01*
X125840408Y-154687132D01*
X125840539Y-154688965D01*
X125844790Y-154695580D01*
X128118110Y-156968900D01*
X128131186Y-156976040D01*
X128141554Y-156968582D01*
X128315854Y-156753338D01*
X128319721Y-156748016D01*
X128516387Y-156445177D01*
X128519683Y-156439468D01*
X128683620Y-156117725D01*
X128686296Y-156111714D01*
X128815700Y-155774605D01*
X128817740Y-155768328D01*
X128911198Y-155419537D01*
X128912567Y-155413099D01*
X128969055Y-155056440D01*
X128969743Y-155049896D01*
X128988641Y-154689301D01*
X144823359Y-154689301D01*
X144842257Y-155049896D01*
X144842945Y-155056440D01*
X144899433Y-155413099D01*
X144900802Y-155419537D01*
X144994260Y-155768328D01*
X144996300Y-155774605D01*
X145125704Y-156111714D01*
X145128380Y-156117725D01*
X145292317Y-156439468D01*
X145295613Y-156445177D01*
X145492279Y-156748016D01*
X145496146Y-156753338D01*
X145669678Y-156967634D01*
X145681933Y-156976100D01*
X145693024Y-156969766D01*
X147963978Y-154698812D01*
X147971592Y-154684868D01*
X147971461Y-154683035D01*
X147967210Y-154676420D01*
X145693890Y-152403100D01*
X145680814Y-152395960D01*
X145670446Y-152403418D01*
X145496146Y-152618662D01*
X145492279Y-152623984D01*
X145295613Y-152926823D01*
X145292317Y-152932532D01*
X145128380Y-153254275D01*
X145125704Y-153260286D01*
X144996300Y-153597395D01*
X144994260Y-153603672D01*
X144900802Y-153952463D01*
X144899433Y-153958901D01*
X144842945Y-154315560D01*
X144842257Y-154322104D01*
X144823359Y-154682699D01*
X144823359Y-154689301D01*
X128988641Y-154689301D01*
X128988641Y-154682699D01*
X128969743Y-154322104D01*
X128969055Y-154315560D01*
X128912567Y-153958901D01*
X128911198Y-153952463D01*
X128817740Y-153603672D01*
X128815700Y-153597395D01*
X128686296Y-153260286D01*
X128683620Y-153254275D01*
X128519683Y-152932532D01*
X128516387Y-152926823D01*
X128319721Y-152623984D01*
X128315854Y-152618662D01*
X128142322Y-152404366D01*
X128130067Y-152395900D01*
X128118976Y-152402234D01*
X125848022Y-154673188D01*
X125840408Y-154687132D01*
X125110356Y-154687132D01*
X125111592Y-154684868D01*
X125111461Y-154683035D01*
X125107210Y-154676420D01*
X122833890Y-152403100D01*
X122820814Y-152395960D01*
X122810446Y-152403418D01*
X122651921Y-152599181D01*
X122593507Y-152639533D01*
X122522549Y-152641899D01*
X122461578Y-152605526D01*
X122429949Y-152541964D01*
X122428000Y-152519887D01*
X122428000Y-152031933D01*
X123185900Y-152031933D01*
X123192234Y-152043024D01*
X125463188Y-154313978D01*
X125477132Y-154321592D01*
X125478965Y-154321461D01*
X125485580Y-154317210D01*
X127758900Y-152043890D01*
X127765429Y-152031933D01*
X146045900Y-152031933D01*
X146052234Y-152043024D01*
X148323188Y-154313978D01*
X148337132Y-154321592D01*
X148338965Y-154321461D01*
X148345580Y-154317210D01*
X150618900Y-152043890D01*
X150626040Y-152030814D01*
X150618582Y-152020446D01*
X150403338Y-151846146D01*
X150398016Y-151842279D01*
X150095177Y-151645613D01*
X150089468Y-151642317D01*
X149767725Y-151478380D01*
X149761714Y-151475704D01*
X149424605Y-151346300D01*
X149418328Y-151344260D01*
X149069537Y-151250802D01*
X149063099Y-151249433D01*
X148706440Y-151192945D01*
X148699896Y-151192257D01*
X148339301Y-151173359D01*
X148332699Y-151173359D01*
X147972104Y-151192257D01*
X147965560Y-151192945D01*
X147608901Y-151249433D01*
X147602463Y-151250802D01*
X147253672Y-151344260D01*
X147247395Y-151346300D01*
X146910286Y-151475704D01*
X146904275Y-151478380D01*
X146582532Y-151642317D01*
X146576823Y-151645613D01*
X146273984Y-151842279D01*
X146268662Y-151846146D01*
X146054366Y-152019678D01*
X146045900Y-152031933D01*
X127765429Y-152031933D01*
X127766040Y-152030814D01*
X127758582Y-152020446D01*
X127543338Y-151846146D01*
X127538016Y-151842279D01*
X127235177Y-151645613D01*
X127229468Y-151642317D01*
X126907725Y-151478380D01*
X126901714Y-151475704D01*
X126564605Y-151346300D01*
X126558328Y-151344260D01*
X126209537Y-151250802D01*
X126203099Y-151249433D01*
X125846440Y-151192945D01*
X125839896Y-151192257D01*
X125479301Y-151173359D01*
X125472699Y-151173359D01*
X125112104Y-151192257D01*
X125105560Y-151192945D01*
X124748901Y-151249433D01*
X124742463Y-151250802D01*
X124393672Y-151344260D01*
X124387395Y-151346300D01*
X124050286Y-151475704D01*
X124044275Y-151478380D01*
X123722532Y-151642317D01*
X123716823Y-151645613D01*
X123413984Y-151842279D01*
X123408662Y-151846146D01*
X123194366Y-152019678D01*
X123185900Y-152031933D01*
X122428000Y-152031933D01*
X122428000Y-99927900D01*
X122743500Y-99927900D01*
X122743837Y-99931146D01*
X122743837Y-99931150D01*
X122752686Y-100016431D01*
X122754474Y-100033666D01*
X122810450Y-100201446D01*
X122903522Y-100351848D01*
X123028697Y-100476805D01*
X123034927Y-100480645D01*
X123034928Y-100480646D01*
X123172090Y-100565194D01*
X123179262Y-100569615D01*
X123222632Y-100584000D01*
X123340611Y-100623132D01*
X123340613Y-100623132D01*
X123347139Y-100625297D01*
X123353975Y-100625997D01*
X123353978Y-100625998D01*
X123389663Y-100629654D01*
X123451600Y-100636000D01*
X124452400Y-100636000D01*
X124455646Y-100635663D01*
X124455650Y-100635663D01*
X124551308Y-100625738D01*
X124551312Y-100625737D01*
X124558166Y-100625026D01*
X124564702Y-100622845D01*
X124564704Y-100622845D01*
X124696806Y-100578772D01*
X124725946Y-100569050D01*
X124876348Y-100475978D01*
X124881521Y-100470796D01*
X124887258Y-100466249D01*
X124888686Y-100468051D01*
X124941226Y-100439309D01*
X125012045Y-100444319D01*
X125049024Y-100468042D01*
X125049771Y-100467096D01*
X125055517Y-100471634D01*
X125060697Y-100476805D01*
X125066927Y-100480645D01*
X125066928Y-100480646D01*
X125204090Y-100565194D01*
X125211262Y-100569615D01*
X125254632Y-100584000D01*
X125270378Y-100589223D01*
X125328738Y-100629654D01*
X125352897Y-100684013D01*
X125353327Y-100683888D01*
X125353327Y-100683889D01*
X125355538Y-100691499D01*
X125358978Y-100703339D01*
X125362987Y-100722700D01*
X125365526Y-100742797D01*
X125368445Y-100750168D01*
X125368445Y-100750170D01*
X125381804Y-100783912D01*
X125385649Y-100795142D01*
X125395771Y-100829983D01*
X125397982Y-100837593D01*
X125402015Y-100844412D01*
X125402017Y-100844417D01*
X125408293Y-100855028D01*
X125416988Y-100872776D01*
X125424448Y-100891617D01*
X125429110Y-100898033D01*
X125429110Y-100898034D01*
X125450436Y-100927387D01*
X125456952Y-100937307D01*
X125474925Y-100967697D01*
X125479458Y-100975362D01*
X125493779Y-100989683D01*
X125506619Y-101004716D01*
X125518528Y-101021107D01*
X125524634Y-101026158D01*
X125552605Y-101049298D01*
X125561384Y-101057288D01*
X127322878Y-102818782D01*
X127356904Y-102881094D01*
X127359092Y-102894703D01*
X127376458Y-103059928D01*
X127435473Y-103241556D01*
X127530960Y-103406944D01*
X127658747Y-103548866D01*
X127813248Y-103661118D01*
X127819276Y-103663802D01*
X127819278Y-103663803D01*
X127981681Y-103736109D01*
X127987712Y-103738794D01*
X128081112Y-103758647D01*
X128168056Y-103777128D01*
X128168061Y-103777128D01*
X128174513Y-103778500D01*
X128365487Y-103778500D01*
X128371939Y-103777128D01*
X128371944Y-103777128D01*
X128458887Y-103758647D01*
X128552288Y-103738794D01*
X128558319Y-103736109D01*
X128720722Y-103663803D01*
X128720724Y-103663802D01*
X128726752Y-103661118D01*
X128881253Y-103548866D01*
X128885668Y-103543963D01*
X128890580Y-103539540D01*
X128891705Y-103540789D01*
X128945014Y-103507949D01*
X128978200Y-103503500D01*
X129240500Y-103503500D01*
X129308621Y-103523502D01*
X129355114Y-103577158D01*
X129366500Y-103629500D01*
X129366500Y-103847002D01*
X129369438Y-103884331D01*
X129415855Y-104044101D01*
X129419892Y-104050927D01*
X129496509Y-104180480D01*
X129496511Y-104180483D01*
X129500547Y-104187307D01*
X129618193Y-104304953D01*
X129625016Y-104308988D01*
X129625020Y-104308991D01*
X129732589Y-104372607D01*
X129761399Y-104389645D01*
X129769010Y-104391856D01*
X129769012Y-104391857D01*
X129821231Y-104407028D01*
X129921169Y-104436062D01*
X129927574Y-104436566D01*
X129927579Y-104436567D01*
X129956042Y-104438807D01*
X129956050Y-104438807D01*
X129958498Y-104439000D01*
X130391502Y-104439000D01*
X130393950Y-104438807D01*
X130393958Y-104438807D01*
X130422421Y-104436567D01*
X130422426Y-104436566D01*
X130428831Y-104436062D01*
X130528769Y-104407028D01*
X130580988Y-104391857D01*
X130580990Y-104391856D01*
X130588601Y-104389645D01*
X130731807Y-104304953D01*
X130734489Y-104302271D01*
X130798861Y-104276998D01*
X130868484Y-104290900D01*
X130884312Y-104301072D01*
X130888193Y-104304953D01*
X131031399Y-104389645D01*
X131039010Y-104391856D01*
X131039012Y-104391857D01*
X131091231Y-104407028D01*
X131191169Y-104436062D01*
X131197574Y-104436566D01*
X131197579Y-104436567D01*
X131226042Y-104438807D01*
X131226050Y-104438807D01*
X131228498Y-104439000D01*
X131661502Y-104439000D01*
X131663950Y-104438807D01*
X131663958Y-104438807D01*
X131692421Y-104436567D01*
X131692426Y-104436566D01*
X131698831Y-104436062D01*
X131798769Y-104407028D01*
X131850988Y-104391857D01*
X131850990Y-104391856D01*
X131858601Y-104389645D01*
X132001807Y-104304953D01*
X132004747Y-104302013D01*
X132069271Y-104276679D01*
X132138894Y-104290580D01*
X132157640Y-104302629D01*
X132165323Y-104308589D01*
X132294779Y-104385148D01*
X132309210Y-104391393D01*
X132443605Y-104430439D01*
X132457706Y-104430399D01*
X132461000Y-104423130D01*
X132461000Y-102827500D01*
X132481002Y-102759379D01*
X132534658Y-102712886D01*
X132587000Y-102701500D01*
X132843000Y-102701500D01*
X132911121Y-102721502D01*
X132957614Y-102775158D01*
X132969000Y-102827500D01*
X132969000Y-104417378D01*
X132972973Y-104430909D01*
X132980871Y-104432044D01*
X133120790Y-104391393D01*
X133135221Y-104385148D01*
X133264676Y-104308590D01*
X133272364Y-104302626D01*
X133338449Y-104276679D01*
X133408072Y-104290580D01*
X133424158Y-104300918D01*
X133428193Y-104304953D01*
X133571399Y-104389645D01*
X133579010Y-104391856D01*
X133579012Y-104391857D01*
X133631231Y-104407028D01*
X133731169Y-104436062D01*
X133737574Y-104436566D01*
X133737579Y-104436567D01*
X133766042Y-104438807D01*
X133766050Y-104438807D01*
X133768498Y-104439000D01*
X134201502Y-104439000D01*
X134203950Y-104438807D01*
X134203958Y-104438807D01*
X134232421Y-104436567D01*
X134232426Y-104436566D01*
X134238831Y-104436062D01*
X134245007Y-104434268D01*
X134245011Y-104434267D01*
X134318647Y-104412874D01*
X134389643Y-104413077D01*
X134449259Y-104451631D01*
X134478567Y-104516296D01*
X134479109Y-104547041D01*
X134468498Y-104648000D01*
X134469188Y-104654565D01*
X134479076Y-104748640D01*
X134488460Y-104837928D01*
X134547475Y-105019556D01*
X134642962Y-105184944D01*
X134647380Y-105189851D01*
X134647381Y-105189852D01*
X134770749Y-105326866D01*
X134768870Y-105328558D01*
X134800138Y-105379328D01*
X134798776Y-105450312D01*
X134759253Y-105509290D01*
X134694118Y-105537539D01*
X134678583Y-105538500D01*
X127332767Y-105538500D01*
X127321584Y-105537973D01*
X127314091Y-105536298D01*
X127306165Y-105536547D01*
X127306164Y-105536547D01*
X127246001Y-105538438D01*
X127242043Y-105538500D01*
X127214144Y-105538500D01*
X127210154Y-105539004D01*
X127198320Y-105539936D01*
X127154111Y-105541326D01*
X127146497Y-105543538D01*
X127146492Y-105543539D01*
X127134659Y-105546977D01*
X127115296Y-105550988D01*
X127095203Y-105553526D01*
X127087836Y-105556443D01*
X127087831Y-105556444D01*
X127054092Y-105569802D01*
X127042865Y-105573646D01*
X127000407Y-105585982D01*
X126993581Y-105590019D01*
X126982972Y-105596293D01*
X126965224Y-105604988D01*
X126946383Y-105612448D01*
X126939967Y-105617110D01*
X126939966Y-105617110D01*
X126910613Y-105638436D01*
X126900693Y-105644952D01*
X126869465Y-105663420D01*
X126869462Y-105663422D01*
X126862638Y-105667458D01*
X126848317Y-105681779D01*
X126833284Y-105694619D01*
X126816893Y-105706528D01*
X126798834Y-105728358D01*
X126788702Y-105740605D01*
X126780712Y-105749384D01*
X124829747Y-107700348D01*
X124821461Y-107707888D01*
X124814982Y-107712000D01*
X124809557Y-107717777D01*
X124768357Y-107761651D01*
X124765602Y-107764493D01*
X124745865Y-107784230D01*
X124743385Y-107787427D01*
X124735682Y-107796447D01*
X124705414Y-107828679D01*
X124701595Y-107835625D01*
X124701593Y-107835628D01*
X124695652Y-107846434D01*
X124684801Y-107862953D01*
X124672386Y-107878959D01*
X124669241Y-107886228D01*
X124669238Y-107886232D01*
X124654826Y-107919537D01*
X124649609Y-107930187D01*
X124628305Y-107968940D01*
X124626334Y-107976615D01*
X124626334Y-107976616D01*
X124623267Y-107988562D01*
X124616863Y-108007266D01*
X124608819Y-108025855D01*
X124607580Y-108033678D01*
X124607577Y-108033688D01*
X124601901Y-108069524D01*
X124599495Y-108081144D01*
X124588500Y-108123970D01*
X124588500Y-108144224D01*
X124586949Y-108163934D01*
X124583780Y-108183943D01*
X124584526Y-108191835D01*
X124587941Y-108227961D01*
X124588500Y-108239819D01*
X124588500Y-139113233D01*
X124587973Y-139124416D01*
X124586298Y-139131909D01*
X124586547Y-139139835D01*
X124586547Y-139139836D01*
X124588438Y-139199986D01*
X124588500Y-139203945D01*
X124588500Y-139231856D01*
X124588997Y-139235790D01*
X124588997Y-139235791D01*
X124589005Y-139235856D01*
X124589938Y-139247693D01*
X124591327Y-139291889D01*
X124596978Y-139311339D01*
X124600987Y-139330700D01*
X124603526Y-139350797D01*
X124606445Y-139358168D01*
X124606445Y-139358170D01*
X124619804Y-139391912D01*
X124623649Y-139403142D01*
X124633771Y-139437983D01*
X124635982Y-139445593D01*
X124640015Y-139452412D01*
X124640017Y-139452417D01*
X124646293Y-139463028D01*
X124654988Y-139480776D01*
X124662448Y-139499617D01*
X124667110Y-139506033D01*
X124667110Y-139506034D01*
X124688436Y-139535387D01*
X124694952Y-139545307D01*
X124708239Y-139567773D01*
X124717458Y-139583362D01*
X124731779Y-139597683D01*
X124744619Y-139612716D01*
X124756528Y-139629107D01*
X124762634Y-139634158D01*
X124790605Y-139657298D01*
X124799384Y-139665288D01*
X126502348Y-141368253D01*
X126509888Y-141376539D01*
X126514000Y-141383018D01*
X126519777Y-141388443D01*
X126563651Y-141429643D01*
X126566493Y-141432398D01*
X126586230Y-141452135D01*
X126589427Y-141454615D01*
X126598447Y-141462318D01*
X126630679Y-141492586D01*
X126637625Y-141496405D01*
X126637628Y-141496407D01*
X126648434Y-141502348D01*
X126664953Y-141513199D01*
X126680959Y-141525614D01*
X126688228Y-141528759D01*
X126688232Y-141528762D01*
X126721537Y-141543174D01*
X126732187Y-141548391D01*
X126770940Y-141569695D01*
X126778615Y-141571666D01*
X126778616Y-141571666D01*
X126790562Y-141574733D01*
X126809267Y-141581137D01*
X126827855Y-141589181D01*
X126835678Y-141590420D01*
X126835688Y-141590423D01*
X126871524Y-141596099D01*
X126883144Y-141598505D01*
X126918289Y-141607528D01*
X126925970Y-141609500D01*
X126946224Y-141609500D01*
X126965934Y-141611051D01*
X126985943Y-141614220D01*
X126993835Y-141613474D01*
X127029961Y-141610059D01*
X127041819Y-141609500D01*
X128269070Y-141609500D01*
X128337191Y-141629502D01*
X128382723Y-141683989D01*
X128383525Y-141683580D01*
X128385312Y-141687088D01*
X128385482Y-141687291D01*
X128385769Y-141687985D01*
X128385771Y-141687989D01*
X128387666Y-141692563D01*
X128517075Y-141903740D01*
X128677927Y-142092073D01*
X128866260Y-142252925D01*
X129077437Y-142382334D01*
X129082007Y-142384227D01*
X129082015Y-142384231D01*
X129082709Y-142384518D01*
X129082933Y-142384698D01*
X129086420Y-142386475D01*
X129086047Y-142387207D01*
X129137994Y-142429062D01*
X129160500Y-142500930D01*
X129160500Y-147751070D01*
X129140498Y-147819191D01*
X129086011Y-147864723D01*
X129086420Y-147865525D01*
X129082912Y-147867312D01*
X129082709Y-147867482D01*
X129082015Y-147867769D01*
X129082007Y-147867773D01*
X129077437Y-147869666D01*
X128866260Y-147999075D01*
X128677927Y-148159927D01*
X128517075Y-148348260D01*
X128387666Y-148559437D01*
X128292885Y-148788258D01*
X128291730Y-148793070D01*
X128236221Y-149024276D01*
X128236220Y-149024282D01*
X128235066Y-149029089D01*
X128215634Y-149276000D01*
X128235066Y-149522911D01*
X128236220Y-149527718D01*
X128236221Y-149527724D01*
X128272499Y-149678830D01*
X128292885Y-149763742D01*
X128387666Y-149992563D01*
X128517075Y-150203740D01*
X128677927Y-150392073D01*
X128866260Y-150552925D01*
X129077437Y-150682334D01*
X129082007Y-150684227D01*
X129082011Y-150684229D01*
X129301685Y-150775221D01*
X129306258Y-150777115D01*
X129391170Y-150797501D01*
X129542276Y-150833779D01*
X129542282Y-150833780D01*
X129547089Y-150834934D01*
X129794000Y-150854366D01*
X130040911Y-150834934D01*
X130045718Y-150833780D01*
X130045724Y-150833779D01*
X130196830Y-150797501D01*
X130281742Y-150777115D01*
X130286315Y-150775221D01*
X130505989Y-150684229D01*
X130505993Y-150684227D01*
X130510563Y-150682334D01*
X130721740Y-150552925D01*
X130910073Y-150392073D01*
X131070925Y-150203740D01*
X131200334Y-149992563D01*
X131295115Y-149763742D01*
X131315501Y-149678830D01*
X131351779Y-149527724D01*
X131351780Y-149527718D01*
X131352934Y-149522911D01*
X131372366Y-149276000D01*
X131352934Y-149029089D01*
X131351780Y-149024282D01*
X131351779Y-149024276D01*
X131296270Y-148793070D01*
X131295115Y-148788258D01*
X131200334Y-148559437D01*
X131070925Y-148348260D01*
X130910073Y-148159927D01*
X130721740Y-147999075D01*
X130510563Y-147869666D01*
X130505993Y-147867773D01*
X130505985Y-147867769D01*
X130505291Y-147867482D01*
X130505067Y-147867302D01*
X130501580Y-147865525D01*
X130501953Y-147864793D01*
X130450006Y-147822938D01*
X130427500Y-147751070D01*
X130427500Y-145014884D01*
X136273500Y-145014884D01*
X136273665Y-145017152D01*
X136273665Y-145017164D01*
X136281725Y-145128238D01*
X136288125Y-145216451D01*
X136289109Y-145220906D01*
X136289109Y-145220909D01*
X136328482Y-145399240D01*
X136346585Y-145481237D01*
X136442655Y-145734810D01*
X136574324Y-145971859D01*
X136738833Y-146187417D01*
X136932736Y-146376970D01*
X137151972Y-146536547D01*
X137391947Y-146662804D01*
X137396248Y-146664323D01*
X137396253Y-146664325D01*
X137529087Y-146711233D01*
X137647634Y-146753096D01*
X137745653Y-146772415D01*
X137909206Y-146804652D01*
X137909212Y-146804653D01*
X137913678Y-146805533D01*
X137918232Y-146805760D01*
X137918234Y-146805760D01*
X138179936Y-146818789D01*
X138179942Y-146818789D01*
X138184505Y-146819016D01*
X138454441Y-146793262D01*
X138458870Y-146792178D01*
X138458877Y-146792177D01*
X138618584Y-146753096D01*
X138717832Y-146728810D01*
X138877039Y-146664325D01*
X138964931Y-146628725D01*
X138964932Y-146628725D01*
X138969160Y-146627012D01*
X139203161Y-146489999D01*
X139414932Y-146320641D01*
X139536399Y-146190612D01*
X139596921Y-146125824D01*
X139596923Y-146125821D01*
X139600037Y-146122488D01*
X139754598Y-145899688D01*
X139836624Y-145734810D01*
X139873346Y-145660997D01*
X139873347Y-145660994D01*
X139875379Y-145656910D01*
X139959847Y-145399240D01*
X140006235Y-145132075D01*
X140010500Y-145046400D01*
X140010500Y-145014884D01*
X145873500Y-145014884D01*
X145873665Y-145017152D01*
X145873665Y-145017164D01*
X145881725Y-145128238D01*
X145888125Y-145216451D01*
X145889109Y-145220906D01*
X145889109Y-145220909D01*
X145928482Y-145399240D01*
X145946585Y-145481237D01*
X146042655Y-145734810D01*
X146174324Y-145971859D01*
X146338833Y-146187417D01*
X146532736Y-146376970D01*
X146751972Y-146536547D01*
X146991947Y-146662804D01*
X146996248Y-146664323D01*
X146996253Y-146664325D01*
X147129087Y-146711233D01*
X147247634Y-146753096D01*
X147345653Y-146772415D01*
X147509206Y-146804652D01*
X147509212Y-146804653D01*
X147513678Y-146805533D01*
X147518232Y-146805760D01*
X147518234Y-146805760D01*
X147779936Y-146818789D01*
X147779942Y-146818789D01*
X147784505Y-146819016D01*
X148054441Y-146793262D01*
X148058870Y-146792178D01*
X148058877Y-146792177D01*
X148218584Y-146753096D01*
X148317832Y-146728810D01*
X148477039Y-146664325D01*
X148564931Y-146628725D01*
X148564932Y-146628725D01*
X148569160Y-146627012D01*
X148803161Y-146489999D01*
X149014932Y-146320641D01*
X149136399Y-146190612D01*
X149196921Y-146125824D01*
X149196923Y-146125821D01*
X149200037Y-146122488D01*
X149354598Y-145899688D01*
X149436624Y-145734810D01*
X149473346Y-145660997D01*
X149473347Y-145660994D01*
X149475379Y-145656910D01*
X149559847Y-145399240D01*
X149606235Y-145132075D01*
X149610500Y-145046400D01*
X149610500Y-144357116D01*
X149608328Y-144327170D01*
X149596205Y-144160100D01*
X149595875Y-144155549D01*
X149594891Y-144151091D01*
X149538400Y-143895223D01*
X149538399Y-143895219D01*
X149537415Y-143890763D01*
X149441345Y-143637190D01*
X149309676Y-143400141D01*
X149145167Y-143184583D01*
X148951264Y-142995030D01*
X148732028Y-142835453D01*
X148492053Y-142709196D01*
X148487752Y-142707677D01*
X148487747Y-142707675D01*
X148309998Y-142644906D01*
X148236366Y-142618904D01*
X148138347Y-142599585D01*
X147974794Y-142567348D01*
X147974788Y-142567347D01*
X147970322Y-142566467D01*
X147965768Y-142566240D01*
X147965766Y-142566240D01*
X147704064Y-142553211D01*
X147704058Y-142553211D01*
X147699495Y-142552984D01*
X147429559Y-142578738D01*
X147425130Y-142579822D01*
X147425123Y-142579823D01*
X147295069Y-142611648D01*
X147166168Y-142643190D01*
X147161933Y-142644905D01*
X147161931Y-142644906D01*
X146919069Y-142743275D01*
X146914840Y-142744988D01*
X146680839Y-142882001D01*
X146469068Y-143051359D01*
X146465947Y-143054700D01*
X146341224Y-143188215D01*
X146283963Y-143249512D01*
X146129402Y-143472312D01*
X146127374Y-143476388D01*
X146127373Y-143476390D01*
X146045252Y-143641460D01*
X146008621Y-143715090D01*
X145924153Y-143972760D01*
X145877765Y-144239925D01*
X145873500Y-144325600D01*
X145873500Y-145014884D01*
X140010500Y-145014884D01*
X140010500Y-144357116D01*
X140008328Y-144327170D01*
X139996205Y-144160100D01*
X139995875Y-144155549D01*
X139994891Y-144151091D01*
X139938400Y-143895223D01*
X139938399Y-143895219D01*
X139937415Y-143890763D01*
X139841345Y-143637190D01*
X139709676Y-143400141D01*
X139545167Y-143184583D01*
X139351264Y-142995030D01*
X139132028Y-142835453D01*
X138892053Y-142709196D01*
X138887752Y-142707677D01*
X138887747Y-142707675D01*
X138709998Y-142644906D01*
X138636366Y-142618904D01*
X138538347Y-142599585D01*
X138374794Y-142567348D01*
X138374788Y-142567347D01*
X138370322Y-142566467D01*
X138365768Y-142566240D01*
X138365766Y-142566240D01*
X138104064Y-142553211D01*
X138104058Y-142553211D01*
X138099495Y-142552984D01*
X137829559Y-142578738D01*
X137825130Y-142579822D01*
X137825123Y-142579823D01*
X137695069Y-142611648D01*
X137566168Y-142643190D01*
X137561933Y-142644905D01*
X137561931Y-142644906D01*
X137319069Y-142743275D01*
X137314840Y-142744988D01*
X137080839Y-142882001D01*
X136869068Y-143051359D01*
X136865947Y-143054700D01*
X136741224Y-143188215D01*
X136683963Y-143249512D01*
X136529402Y-143472312D01*
X136527374Y-143476388D01*
X136527373Y-143476390D01*
X136445252Y-143641460D01*
X136408621Y-143715090D01*
X136324153Y-143972760D01*
X136277765Y-144239925D01*
X136273500Y-144325600D01*
X136273500Y-145014884D01*
X130427500Y-145014884D01*
X130427500Y-142500930D01*
X130447502Y-142432809D01*
X130501989Y-142387277D01*
X130501580Y-142386475D01*
X130505088Y-142384688D01*
X130505291Y-142384518D01*
X130505985Y-142384231D01*
X130505993Y-142384227D01*
X130510563Y-142382334D01*
X130721740Y-142252925D01*
X130910073Y-142092073D01*
X131070925Y-141903740D01*
X131200334Y-141692563D01*
X131202231Y-141687985D01*
X131293221Y-141468315D01*
X131293222Y-141468313D01*
X131295115Y-141463742D01*
X131318040Y-141368253D01*
X131351779Y-141227724D01*
X131351780Y-141227718D01*
X131352934Y-141222911D01*
X131372366Y-140976000D01*
X131352934Y-140729089D01*
X131351780Y-140724282D01*
X131351779Y-140724276D01*
X131310594Y-140552733D01*
X131295115Y-140488258D01*
X131276874Y-140444221D01*
X131202229Y-140264011D01*
X131202227Y-140264007D01*
X131200334Y-140259437D01*
X131070925Y-140048260D01*
X130910073Y-139859927D01*
X130721740Y-139699075D01*
X130510563Y-139569666D01*
X130442342Y-139541408D01*
X130387062Y-139496859D01*
X130364641Y-139429496D01*
X130382199Y-139360705D01*
X130434162Y-139312326D01*
X130490561Y-139298999D01*
X130803669Y-139298999D01*
X130810490Y-139298629D01*
X130861352Y-139293105D01*
X130876604Y-139289479D01*
X130997054Y-139244324D01*
X131012649Y-139235786D01*
X131114724Y-139159285D01*
X131127285Y-139146724D01*
X131203786Y-139044649D01*
X131212324Y-139029054D01*
X131257478Y-138908606D01*
X131261105Y-138893351D01*
X131266631Y-138842486D01*
X131267000Y-138835672D01*
X131267000Y-138148115D01*
X131262525Y-138132876D01*
X131261135Y-138131671D01*
X131253452Y-138130000D01*
X128339116Y-138130000D01*
X128323877Y-138134475D01*
X128322672Y-138135865D01*
X128321001Y-138143548D01*
X128321001Y-138835669D01*
X128321371Y-138842490D01*
X128326895Y-138893352D01*
X128330521Y-138908604D01*
X128375676Y-139029054D01*
X128384214Y-139044649D01*
X128460715Y-139146724D01*
X128473276Y-139159285D01*
X128575351Y-139235786D01*
X128590946Y-139244324D01*
X128711394Y-139289478D01*
X128726649Y-139293105D01*
X128777514Y-139298631D01*
X128784328Y-139299000D01*
X129097438Y-139299000D01*
X129165559Y-139319002D01*
X129212052Y-139372658D01*
X129222156Y-139442932D01*
X129192662Y-139507512D01*
X129145657Y-139541408D01*
X129145057Y-139541657D01*
X129082011Y-139567771D01*
X129082007Y-139567773D01*
X129077437Y-139569666D01*
X128866260Y-139699075D01*
X128677927Y-139859927D01*
X128517075Y-140048260D01*
X128387666Y-140259437D01*
X128385773Y-140264007D01*
X128385769Y-140264015D01*
X128385482Y-140264709D01*
X128385302Y-140264933D01*
X128383525Y-140268420D01*
X128382793Y-140268047D01*
X128340938Y-140319994D01*
X128269070Y-140342500D01*
X127320594Y-140342500D01*
X127252473Y-140322498D01*
X127231499Y-140305595D01*
X125892405Y-138966500D01*
X125858379Y-138904188D01*
X125855500Y-138877405D01*
X125855500Y-137603885D01*
X128321000Y-137603885D01*
X128325475Y-137619124D01*
X128326865Y-137620329D01*
X128334548Y-137622000D01*
X129521885Y-137622000D01*
X129537124Y-137617525D01*
X129538329Y-137616135D01*
X129540000Y-137608452D01*
X129540000Y-137603885D01*
X130048000Y-137603885D01*
X130052475Y-137619124D01*
X130053865Y-137620329D01*
X130061548Y-137622000D01*
X131248884Y-137622000D01*
X131264123Y-137617525D01*
X131265328Y-137616135D01*
X131266999Y-137608452D01*
X131266999Y-136916331D01*
X131266629Y-136909510D01*
X131261105Y-136858648D01*
X131257479Y-136843396D01*
X131212324Y-136722946D01*
X131203786Y-136707351D01*
X131127285Y-136605276D01*
X131114724Y-136592715D01*
X131012649Y-136516214D01*
X130997054Y-136507676D01*
X130876606Y-136462522D01*
X130861351Y-136458895D01*
X130810486Y-136453369D01*
X130803672Y-136453000D01*
X130066115Y-136453000D01*
X130050876Y-136457475D01*
X130049671Y-136458865D01*
X130048000Y-136466548D01*
X130048000Y-137603885D01*
X129540000Y-137603885D01*
X129540000Y-136471116D01*
X129535525Y-136455877D01*
X129534135Y-136454672D01*
X129526452Y-136453001D01*
X128784331Y-136453001D01*
X128777510Y-136453371D01*
X128726648Y-136458895D01*
X128711396Y-136462521D01*
X128590946Y-136507676D01*
X128575351Y-136516214D01*
X128473276Y-136592715D01*
X128460715Y-136605276D01*
X128384214Y-136707351D01*
X128375676Y-136722946D01*
X128330522Y-136843394D01*
X128326895Y-136858649D01*
X128321369Y-136909514D01*
X128321000Y-136916328D01*
X128321000Y-137603885D01*
X125855500Y-137603885D01*
X125855500Y-136286782D01*
X125875502Y-136218661D01*
X125929158Y-136172168D01*
X125999432Y-136162064D01*
X126034730Y-136174282D01*
X126035248Y-136173118D01*
X126209712Y-136250794D01*
X126303112Y-136270647D01*
X126390056Y-136289128D01*
X126390061Y-136289128D01*
X126396513Y-136290500D01*
X126587487Y-136290500D01*
X126593939Y-136289128D01*
X126593944Y-136289128D01*
X126680888Y-136270647D01*
X126774288Y-136250794D01*
X126780319Y-136248109D01*
X126942722Y-136175803D01*
X126942724Y-136175802D01*
X126948752Y-136173118D01*
X126963967Y-136162064D01*
X127097914Y-136064745D01*
X127103253Y-136060866D01*
X127107668Y-136055963D01*
X127112580Y-136051540D01*
X127113705Y-136052789D01*
X127167014Y-136019949D01*
X127200200Y-136015500D01*
X132273406Y-136015500D01*
X132341527Y-136035502D01*
X132362501Y-136052405D01*
X135639458Y-139329362D01*
X136656348Y-140346253D01*
X136663888Y-140354539D01*
X136668000Y-140361018D01*
X136673777Y-140366443D01*
X136717651Y-140407643D01*
X136720493Y-140410398D01*
X136740230Y-140430135D01*
X136743427Y-140432615D01*
X136752447Y-140440318D01*
X136784679Y-140470586D01*
X136791625Y-140474405D01*
X136791628Y-140474407D01*
X136802434Y-140480348D01*
X136818953Y-140491199D01*
X136834959Y-140503614D01*
X136842228Y-140506759D01*
X136842232Y-140506762D01*
X136875537Y-140521174D01*
X136886187Y-140526391D01*
X136924940Y-140547695D01*
X136932615Y-140549666D01*
X136932616Y-140549666D01*
X136944562Y-140552733D01*
X136963267Y-140559137D01*
X136981855Y-140567181D01*
X136989678Y-140568420D01*
X136989688Y-140568423D01*
X137025524Y-140574099D01*
X137037144Y-140576505D01*
X137068959Y-140584673D01*
X137079970Y-140587500D01*
X137100224Y-140587500D01*
X137119934Y-140589051D01*
X137139943Y-140592220D01*
X137147835Y-140591474D01*
X137166580Y-140589702D01*
X137183962Y-140588059D01*
X137195819Y-140587500D01*
X144447233Y-140587500D01*
X144458416Y-140588027D01*
X144465909Y-140589702D01*
X144473835Y-140589453D01*
X144473836Y-140589453D01*
X144533986Y-140587562D01*
X144537945Y-140587500D01*
X144565856Y-140587500D01*
X144569791Y-140587003D01*
X144569856Y-140586995D01*
X144581693Y-140586062D01*
X144613951Y-140585048D01*
X144617970Y-140584922D01*
X144625889Y-140584673D01*
X144645343Y-140579021D01*
X144664700Y-140575013D01*
X144676930Y-140573468D01*
X144676931Y-140573468D01*
X144684797Y-140572474D01*
X144692168Y-140569555D01*
X144692170Y-140569555D01*
X144725912Y-140556196D01*
X144737142Y-140552351D01*
X144771983Y-140542229D01*
X144771984Y-140542229D01*
X144779593Y-140540018D01*
X144786412Y-140535985D01*
X144786417Y-140535983D01*
X144797028Y-140529707D01*
X144814776Y-140521012D01*
X144833617Y-140513552D01*
X144861809Y-140493070D01*
X144869387Y-140487564D01*
X144879307Y-140481048D01*
X144910535Y-140462580D01*
X144910538Y-140462578D01*
X144917362Y-140458542D01*
X144931683Y-140444221D01*
X144946717Y-140431380D01*
X144956694Y-140424131D01*
X144963107Y-140419472D01*
X144991298Y-140385395D01*
X144999288Y-140376616D01*
X145834247Y-139541657D01*
X145842537Y-139534113D01*
X145849018Y-139530000D01*
X145870136Y-139507512D01*
X145895658Y-139480333D01*
X145898413Y-139477491D01*
X145918135Y-139457769D01*
X145920612Y-139454576D01*
X145928317Y-139445555D01*
X145953159Y-139419100D01*
X145958586Y-139413321D01*
X145967210Y-139397634D01*
X145968346Y-139395568D01*
X145979202Y-139379041D01*
X145986757Y-139369302D01*
X145986758Y-139369300D01*
X145991614Y-139363040D01*
X146009174Y-139322460D01*
X146014391Y-139311812D01*
X146031875Y-139280009D01*
X146031876Y-139280007D01*
X146035695Y-139273060D01*
X146040733Y-139253437D01*
X146047137Y-139234734D01*
X146052033Y-139223420D01*
X146052033Y-139223419D01*
X146055181Y-139216145D01*
X146056420Y-139208322D01*
X146056423Y-139208312D01*
X146062099Y-139172476D01*
X146064505Y-139160856D01*
X146073528Y-139125711D01*
X146073528Y-139125710D01*
X146075500Y-139118030D01*
X146075500Y-139097776D01*
X146077051Y-139078065D01*
X146078980Y-139065886D01*
X146080220Y-139058057D01*
X146076059Y-139014038D01*
X146075500Y-139002181D01*
X146075500Y-138637566D01*
X146095502Y-138569445D01*
X146135665Y-138530133D01*
X146327202Y-138412759D01*
X146327208Y-138412755D01*
X146331416Y-138410176D01*
X146511969Y-138255969D01*
X146666176Y-138075416D01*
X146668755Y-138071208D01*
X146668759Y-138071202D01*
X146787654Y-137877183D01*
X146790240Y-137872963D01*
X146881105Y-137653594D01*
X146936535Y-137422711D01*
X146955165Y-137186000D01*
X146936535Y-136949289D01*
X146928623Y-136916331D01*
X146882260Y-136723218D01*
X146881105Y-136718406D01*
X146876526Y-136707351D01*
X146792135Y-136503611D01*
X146792133Y-136503607D01*
X146790240Y-136499037D01*
X146770331Y-136466548D01*
X146668759Y-136300798D01*
X146668755Y-136300792D01*
X146666176Y-136296584D01*
X146511969Y-136116031D01*
X146331416Y-135961824D01*
X146327208Y-135959245D01*
X146327202Y-135959241D01*
X146133183Y-135840346D01*
X146128963Y-135837760D01*
X146124393Y-135835867D01*
X146124389Y-135835865D01*
X145914167Y-135748789D01*
X145914165Y-135748788D01*
X145909594Y-135746895D01*
X145829391Y-135727640D01*
X145683524Y-135692620D01*
X145683518Y-135692619D01*
X145678711Y-135691465D01*
X145442000Y-135672835D01*
X145205289Y-135691465D01*
X145200482Y-135692619D01*
X145200476Y-135692620D01*
X145054609Y-135727640D01*
X144974406Y-135746895D01*
X144969835Y-135748788D01*
X144969833Y-135748789D01*
X144759611Y-135835865D01*
X144759607Y-135835867D01*
X144755037Y-135837760D01*
X144750817Y-135840346D01*
X144556798Y-135959241D01*
X144556792Y-135959245D01*
X144552584Y-135961824D01*
X144372031Y-136116031D01*
X144368823Y-136119787D01*
X144368818Y-136119792D01*
X144287811Y-136214639D01*
X144228361Y-136253449D01*
X144157366Y-136253955D01*
X144096189Y-136214639D01*
X144015182Y-136119792D01*
X144015177Y-136119787D01*
X144011969Y-136116031D01*
X143831416Y-135961824D01*
X143827208Y-135959245D01*
X143827202Y-135959241D01*
X143635665Y-135841867D01*
X143588034Y-135789219D01*
X143575500Y-135734434D01*
X143575500Y-135248594D01*
X143595502Y-135180473D01*
X143612405Y-135159499D01*
X145934247Y-132837657D01*
X145942537Y-132830113D01*
X145949018Y-132826000D01*
X145995659Y-132776332D01*
X145998413Y-132773491D01*
X146018134Y-132753770D01*
X146020612Y-132750575D01*
X146028318Y-132741553D01*
X146053158Y-132715101D01*
X146058586Y-132709321D01*
X146068346Y-132691568D01*
X146079199Y-132675045D01*
X146086753Y-132665306D01*
X146091613Y-132659041D01*
X146109176Y-132618457D01*
X146114383Y-132607827D01*
X146135695Y-132569060D01*
X146137666Y-132561383D01*
X146137668Y-132561378D01*
X146140732Y-132549442D01*
X146147138Y-132530730D01*
X146152033Y-132519419D01*
X146155181Y-132512145D01*
X146156421Y-132504317D01*
X146156423Y-132504310D01*
X146162099Y-132468476D01*
X146164505Y-132456856D01*
X146173528Y-132421711D01*
X146173528Y-132421710D01*
X146175500Y-132414030D01*
X146175500Y-132393776D01*
X146177051Y-132374065D01*
X146178980Y-132361886D01*
X146180220Y-132354057D01*
X146176059Y-132310038D01*
X146175500Y-132298181D01*
X146175500Y-127950971D01*
X146195502Y-127882850D01*
X146249158Y-127836357D01*
X146319432Y-127826253D01*
X146384012Y-127855747D01*
X146395134Y-127866659D01*
X146454747Y-127932866D01*
X146609248Y-128045118D01*
X146615276Y-128047802D01*
X146615278Y-128047803D01*
X146777681Y-128120109D01*
X146783712Y-128122794D01*
X146877113Y-128142647D01*
X146964056Y-128161128D01*
X146964061Y-128161128D01*
X146970513Y-128162500D01*
X147161487Y-128162500D01*
X147167939Y-128161128D01*
X147167944Y-128161128D01*
X147254887Y-128142647D01*
X147348288Y-128122794D01*
X147354319Y-128120109D01*
X147516722Y-128047803D01*
X147516724Y-128047802D01*
X147522752Y-128045118D01*
X147677253Y-127932866D01*
X147805040Y-127790944D01*
X147900527Y-127625556D01*
X147959542Y-127443928D01*
X147979504Y-127254000D01*
X147959542Y-127064072D01*
X147900527Y-126882444D01*
X147805040Y-126717056D01*
X147677253Y-126575134D01*
X147522752Y-126462882D01*
X147516724Y-126460198D01*
X147516722Y-126460197D01*
X147354319Y-126387891D01*
X147354318Y-126387891D01*
X147348288Y-126385206D01*
X147254887Y-126365353D01*
X147167944Y-126346872D01*
X147167939Y-126346872D01*
X147161487Y-126345500D01*
X147105595Y-126345500D01*
X147037474Y-126325498D01*
X147016500Y-126308595D01*
X146830905Y-126123000D01*
X146796879Y-126060688D01*
X146794000Y-126033905D01*
X146794000Y-104560634D01*
X146814002Y-104492513D01*
X146853697Y-104453490D01*
X146881861Y-104436062D01*
X146897348Y-104426478D01*
X147022305Y-104301303D01*
X147039606Y-104273236D01*
X147111275Y-104156968D01*
X147111276Y-104156966D01*
X147115115Y-104150738D01*
X147170797Y-103982861D01*
X147172204Y-103969134D01*
X147175909Y-103932969D01*
X147181500Y-103878400D01*
X147181500Y-102877600D01*
X147181163Y-102874350D01*
X147171238Y-102778692D01*
X147171237Y-102778688D01*
X147170526Y-102771834D01*
X147148301Y-102705216D01*
X147124272Y-102633194D01*
X147114550Y-102604054D01*
X147021478Y-102453652D01*
X146896303Y-102328695D01*
X146853882Y-102302546D01*
X146751968Y-102239725D01*
X146751966Y-102239724D01*
X146745738Y-102235885D01*
X146665995Y-102209436D01*
X146584389Y-102182368D01*
X146584387Y-102182368D01*
X146577861Y-102180203D01*
X146571025Y-102179503D01*
X146571022Y-102179502D01*
X146527969Y-102175091D01*
X146473400Y-102169500D01*
X145847600Y-102169500D01*
X145844354Y-102169837D01*
X145844350Y-102169837D01*
X145748692Y-102179762D01*
X145748688Y-102179763D01*
X145741834Y-102180474D01*
X145735298Y-102182655D01*
X145735296Y-102182655D01*
X145633857Y-102216498D01*
X145574054Y-102236450D01*
X145423652Y-102329522D01*
X145418479Y-102334704D01*
X145337216Y-102416109D01*
X145274934Y-102450188D01*
X145204114Y-102445185D01*
X145159025Y-102416264D01*
X145076483Y-102333866D01*
X145071303Y-102328695D01*
X145065069Y-102324852D01*
X145028883Y-102302546D01*
X144981390Y-102249774D01*
X144969000Y-102195287D01*
X144969000Y-101766634D01*
X144989002Y-101698513D01*
X145028697Y-101659490D01*
X145066120Y-101636332D01*
X145072348Y-101632478D01*
X145106378Y-101598389D01*
X145159138Y-101545537D01*
X145221421Y-101511458D01*
X145292241Y-101516461D01*
X145337329Y-101545382D01*
X145419829Y-101627739D01*
X145431240Y-101636751D01*
X145569243Y-101721816D01*
X145582424Y-101727963D01*
X145736710Y-101779138D01*
X145750086Y-101782005D01*
X145844438Y-101791672D01*
X145850854Y-101792000D01*
X145888385Y-101792000D01*
X145903624Y-101787525D01*
X145904829Y-101786135D01*
X145906500Y-101778452D01*
X145906500Y-101773884D01*
X146414500Y-101773884D01*
X146418975Y-101789123D01*
X146420365Y-101790328D01*
X146428048Y-101791999D01*
X146470095Y-101791999D01*
X146476614Y-101791662D01*
X146572206Y-101781743D01*
X146585600Y-101778851D01*
X146739784Y-101727412D01*
X146752962Y-101721239D01*
X146890807Y-101635937D01*
X146902208Y-101626901D01*
X147016739Y-101512171D01*
X147025751Y-101500760D01*
X147110816Y-101362757D01*
X147116963Y-101349576D01*
X147168138Y-101195290D01*
X147171005Y-101181914D01*
X147180672Y-101087562D01*
X147181000Y-101081146D01*
X147181000Y-100856115D01*
X147176525Y-100840876D01*
X147175135Y-100839671D01*
X147167452Y-100838000D01*
X146432615Y-100838000D01*
X146417376Y-100842475D01*
X146416171Y-100843865D01*
X146414500Y-100851548D01*
X146414500Y-101773884D01*
X145906500Y-101773884D01*
X145906500Y-100311885D01*
X146414500Y-100311885D01*
X146418975Y-100327124D01*
X146420365Y-100328329D01*
X146428048Y-100330000D01*
X147162884Y-100330000D01*
X147178123Y-100325525D01*
X147179328Y-100324135D01*
X147180999Y-100316452D01*
X147180999Y-100086905D01*
X147180662Y-100080386D01*
X147170743Y-99984794D01*
X147167851Y-99971400D01*
X147116412Y-99817216D01*
X147110239Y-99804038D01*
X147024937Y-99666193D01*
X147015901Y-99654792D01*
X146901171Y-99540261D01*
X146889760Y-99531249D01*
X146751757Y-99446184D01*
X146738576Y-99440037D01*
X146584290Y-99388862D01*
X146570914Y-99385995D01*
X146476562Y-99376328D01*
X146470145Y-99376000D01*
X146432615Y-99376000D01*
X146417376Y-99380475D01*
X146416171Y-99381865D01*
X146414500Y-99389548D01*
X146414500Y-100311885D01*
X145906500Y-100311885D01*
X145906500Y-99394116D01*
X145902025Y-99378877D01*
X145900635Y-99377672D01*
X145892952Y-99376001D01*
X145850905Y-99376001D01*
X145844386Y-99376338D01*
X145748794Y-99386257D01*
X145735400Y-99389149D01*
X145581216Y-99440588D01*
X145568038Y-99446761D01*
X145430193Y-99532063D01*
X145418792Y-99541099D01*
X145337570Y-99622462D01*
X145275287Y-99656541D01*
X145204467Y-99651538D01*
X145159380Y-99622617D01*
X145076488Y-99539870D01*
X145076483Y-99539866D01*
X145071303Y-99534695D01*
X145006285Y-99494617D01*
X144926968Y-99445725D01*
X144926966Y-99445724D01*
X144920738Y-99441885D01*
X144840995Y-99415436D01*
X144759389Y-99388368D01*
X144759387Y-99388368D01*
X144752861Y-99386203D01*
X144746025Y-99385503D01*
X144746022Y-99385502D01*
X144702969Y-99381091D01*
X144648400Y-99375500D01*
X144322000Y-99375500D01*
X144253879Y-99355498D01*
X144207386Y-99301842D01*
X144196000Y-99249500D01*
X144196000Y-95082134D01*
X145249500Y-95082134D01*
X145256255Y-95144316D01*
X145307385Y-95280705D01*
X145394739Y-95397261D01*
X145511295Y-95484615D01*
X145647684Y-95535745D01*
X145709866Y-95542500D01*
X147406134Y-95542500D01*
X147468316Y-95535745D01*
X147604705Y-95484615D01*
X147721261Y-95397261D01*
X147808615Y-95280705D01*
X147859745Y-95144316D01*
X147861691Y-95145046D01*
X147891545Y-95092795D01*
X147954503Y-95059979D01*
X148025207Y-95066409D01*
X148068000Y-95094498D01*
X148213700Y-95240198D01*
X148218208Y-95243355D01*
X148218211Y-95243357D01*
X148226877Y-95249425D01*
X148401251Y-95371523D01*
X148406233Y-95373846D01*
X148406238Y-95373849D01*
X148603775Y-95465961D01*
X148608757Y-95468284D01*
X148614065Y-95469706D01*
X148614067Y-95469707D01*
X148824598Y-95526119D01*
X148824600Y-95526119D01*
X148829913Y-95527543D01*
X149058000Y-95547498D01*
X149286087Y-95527543D01*
X149291400Y-95526119D01*
X149291402Y-95526119D01*
X149501933Y-95469707D01*
X149501935Y-95469706D01*
X149507243Y-95468284D01*
X149512225Y-95465961D01*
X149709762Y-95373849D01*
X149709767Y-95373846D01*
X149714749Y-95371523D01*
X149889123Y-95249425D01*
X149897789Y-95243357D01*
X149897792Y-95243355D01*
X149902300Y-95240198D01*
X150064198Y-95078300D01*
X150072525Y-95066409D01*
X150147290Y-94959632D01*
X150195523Y-94890749D01*
X150197846Y-94885767D01*
X150197849Y-94885762D01*
X150289961Y-94688225D01*
X150289961Y-94688224D01*
X150292284Y-94683243D01*
X150298925Y-94658461D01*
X150350119Y-94467402D01*
X150350119Y-94467400D01*
X150351543Y-94462087D01*
X150371498Y-94234000D01*
X150351543Y-94005913D01*
X150299637Y-93812197D01*
X150293707Y-93790067D01*
X150293706Y-93790065D01*
X150292284Y-93784757D01*
X150249500Y-93693006D01*
X150197849Y-93582238D01*
X150197846Y-93582233D01*
X150195523Y-93577251D01*
X150090251Y-93426907D01*
X150067357Y-93394211D01*
X150067355Y-93394208D01*
X150064198Y-93389700D01*
X149902300Y-93227802D01*
X149897792Y-93224645D01*
X149897789Y-93224643D01*
X149758046Y-93126794D01*
X149714749Y-93096477D01*
X149709767Y-93094154D01*
X149709762Y-93094151D01*
X149512225Y-93002039D01*
X149512224Y-93002039D01*
X149507243Y-92999716D01*
X149501935Y-92998294D01*
X149501933Y-92998293D01*
X149291402Y-92941881D01*
X149291400Y-92941881D01*
X149286087Y-92940457D01*
X149058000Y-92920502D01*
X148829913Y-92940457D01*
X148824600Y-92941881D01*
X148824598Y-92941881D01*
X148614067Y-92998293D01*
X148614065Y-92998294D01*
X148608757Y-92999716D01*
X148603776Y-93002039D01*
X148603775Y-93002039D01*
X148406238Y-93094151D01*
X148406233Y-93094154D01*
X148401251Y-93096477D01*
X148357954Y-93126794D01*
X148218211Y-93224643D01*
X148218208Y-93224645D01*
X148213700Y-93227802D01*
X148068000Y-93373502D01*
X148005688Y-93407528D01*
X147934873Y-93402463D01*
X147878037Y-93359916D01*
X147860868Y-93323263D01*
X147859745Y-93323684D01*
X147811767Y-93195703D01*
X147808615Y-93187295D01*
X147721261Y-93070739D01*
X147604705Y-92983385D01*
X147468316Y-92932255D01*
X147406134Y-92925500D01*
X145709866Y-92925500D01*
X145647684Y-92932255D01*
X145511295Y-92983385D01*
X145394739Y-93070739D01*
X145307385Y-93187295D01*
X145256255Y-93323684D01*
X145249500Y-93385866D01*
X145249500Y-95082134D01*
X144196000Y-95082134D01*
X144196000Y-89680566D01*
X144216002Y-89612445D01*
X144256165Y-89573133D01*
X144447702Y-89455759D01*
X144447708Y-89455755D01*
X144451916Y-89453176D01*
X144632469Y-89298969D01*
X144635677Y-89295213D01*
X144635682Y-89295208D01*
X144716689Y-89200361D01*
X144776139Y-89161551D01*
X144847134Y-89161045D01*
X144908311Y-89200361D01*
X144989318Y-89295208D01*
X144989323Y-89295213D01*
X144992531Y-89298969D01*
X145173084Y-89453176D01*
X145177292Y-89455755D01*
X145177298Y-89455759D01*
X145368835Y-89573133D01*
X145375537Y-89577240D01*
X145380107Y-89579133D01*
X145380111Y-89579135D01*
X145590333Y-89666211D01*
X145594906Y-89668105D01*
X145646810Y-89680566D01*
X145820976Y-89722380D01*
X145820982Y-89722381D01*
X145825789Y-89723535D01*
X146062500Y-89742165D01*
X146299211Y-89723535D01*
X146304018Y-89722381D01*
X146304024Y-89722380D01*
X146478190Y-89680566D01*
X146530094Y-89668105D01*
X146534667Y-89666211D01*
X146744889Y-89579135D01*
X146744893Y-89579133D01*
X146749463Y-89577240D01*
X146756165Y-89573133D01*
X146947702Y-89455759D01*
X146947708Y-89455755D01*
X146951916Y-89453176D01*
X147132469Y-89298969D01*
X147286676Y-89118416D01*
X147289255Y-89114208D01*
X147289259Y-89114202D01*
X147408154Y-88920183D01*
X147410740Y-88915963D01*
X147501605Y-88696594D01*
X147520860Y-88616391D01*
X147555880Y-88470524D01*
X147555881Y-88470518D01*
X147557035Y-88465711D01*
X147575665Y-88229000D01*
X147557035Y-87992289D01*
X147501605Y-87761406D01*
X147422752Y-87571037D01*
X147412635Y-87546611D01*
X147412633Y-87546607D01*
X147410740Y-87542037D01*
X147408154Y-87537817D01*
X147289259Y-87343798D01*
X147289255Y-87343792D01*
X147286676Y-87339584D01*
X147132469Y-87159031D01*
X146951916Y-87004824D01*
X146947701Y-87002241D01*
X146947693Y-87002235D01*
X146753104Y-86882990D01*
X146705473Y-86830343D01*
X146694491Y-86795271D01*
X146693423Y-86788528D01*
X146693174Y-86780611D01*
X146687521Y-86761152D01*
X146683512Y-86741793D01*
X146682384Y-86732866D01*
X146680974Y-86721703D01*
X146678058Y-86714337D01*
X146678056Y-86714331D01*
X146664700Y-86680598D01*
X146660855Y-86669368D01*
X146650730Y-86634517D01*
X146650730Y-86634516D01*
X146648519Y-86626907D01*
X146638205Y-86609466D01*
X146629508Y-86591713D01*
X146624972Y-86580258D01*
X146622052Y-86572883D01*
X146596063Y-86537112D01*
X146589547Y-86527192D01*
X146586716Y-86522405D01*
X146567042Y-86489138D01*
X146552721Y-86474817D01*
X146539880Y-86459783D01*
X146533757Y-86451356D01*
X146527972Y-86443393D01*
X146521868Y-86438343D01*
X146521863Y-86438338D01*
X146493902Y-86415207D01*
X146485121Y-86407217D01*
X145537647Y-85459742D01*
X145530113Y-85451463D01*
X145526000Y-85444982D01*
X145476348Y-85398356D01*
X145473507Y-85395602D01*
X145453770Y-85375865D01*
X145450573Y-85373385D01*
X145441551Y-85365680D01*
X145428122Y-85353069D01*
X145409321Y-85335414D01*
X145402375Y-85331595D01*
X145402372Y-85331593D01*
X145391566Y-85325652D01*
X145375047Y-85314801D01*
X145374583Y-85314441D01*
X145359041Y-85302386D01*
X145351772Y-85299241D01*
X145351768Y-85299238D01*
X145318463Y-85284826D01*
X145307813Y-85279609D01*
X145269060Y-85258305D01*
X145249437Y-85253267D01*
X145230734Y-85246863D01*
X145219420Y-85241967D01*
X145219419Y-85241967D01*
X145212145Y-85238819D01*
X145204322Y-85237580D01*
X145204312Y-85237577D01*
X145168476Y-85231901D01*
X145156856Y-85229495D01*
X145121711Y-85220472D01*
X145121710Y-85220472D01*
X145114030Y-85218500D01*
X145093776Y-85218500D01*
X145074065Y-85216949D01*
X145061886Y-85215020D01*
X145054057Y-85213780D01*
X145024786Y-85216547D01*
X145010039Y-85217941D01*
X144998181Y-85218500D01*
X128856767Y-85218500D01*
X128845584Y-85217973D01*
X128838091Y-85216298D01*
X128830165Y-85216547D01*
X128830164Y-85216547D01*
X128770014Y-85218438D01*
X128766055Y-85218500D01*
X128738144Y-85218500D01*
X128734210Y-85218997D01*
X128734209Y-85218997D01*
X128734144Y-85219005D01*
X128722307Y-85219938D01*
X128690049Y-85220952D01*
X128686030Y-85221078D01*
X128678111Y-85221327D01*
X128658657Y-85226979D01*
X128639300Y-85230987D01*
X128627070Y-85232532D01*
X128627069Y-85232532D01*
X128619203Y-85233526D01*
X128611832Y-85236445D01*
X128611830Y-85236445D01*
X128578088Y-85249804D01*
X128566858Y-85253649D01*
X128532017Y-85263771D01*
X128532016Y-85263771D01*
X128524407Y-85265982D01*
X128517588Y-85270015D01*
X128517583Y-85270017D01*
X128506972Y-85276293D01*
X128489224Y-85284988D01*
X128470383Y-85292448D01*
X128463967Y-85297110D01*
X128463966Y-85297110D01*
X128434613Y-85318436D01*
X128424693Y-85324952D01*
X128393465Y-85343420D01*
X128393462Y-85343422D01*
X128386638Y-85347458D01*
X128372317Y-85361779D01*
X128357284Y-85374619D01*
X128340893Y-85386528D01*
X128335843Y-85392632D01*
X128335838Y-85392637D01*
X128312707Y-85420598D01*
X128304717Y-85429379D01*
X127411742Y-86322353D01*
X127403463Y-86329887D01*
X127396982Y-86334000D01*
X127357542Y-86376000D01*
X127350357Y-86383651D01*
X127347602Y-86386493D01*
X127327865Y-86406230D01*
X127325385Y-86409427D01*
X127317682Y-86418447D01*
X127287414Y-86450679D01*
X127283595Y-86457625D01*
X127283593Y-86457628D01*
X127277652Y-86468434D01*
X127266801Y-86484953D01*
X127254386Y-86500959D01*
X127251241Y-86508228D01*
X127251238Y-86508232D01*
X127236826Y-86541537D01*
X127231609Y-86552187D01*
X127210305Y-86590940D01*
X127208334Y-86598615D01*
X127208334Y-86598616D01*
X127205267Y-86610562D01*
X127198863Y-86629266D01*
X127190819Y-86647855D01*
X127189580Y-86655678D01*
X127189577Y-86655688D01*
X127183901Y-86691524D01*
X127181495Y-86703144D01*
X127170500Y-86745970D01*
X127170500Y-86766224D01*
X127168949Y-86785934D01*
X127165780Y-86805943D01*
X127166455Y-86813086D01*
X127144430Y-86880225D01*
X127106459Y-86916242D01*
X126914584Y-87033824D01*
X126734031Y-87188031D01*
X126579824Y-87368584D01*
X126577245Y-87372792D01*
X126577241Y-87372798D01*
X126476117Y-87537817D01*
X126455760Y-87571037D01*
X126364895Y-87790406D01*
X126363740Y-87795218D01*
X126315243Y-87997223D01*
X126309465Y-88021289D01*
X126290835Y-88258000D01*
X126309465Y-88494711D01*
X126364895Y-88725594D01*
X126366788Y-88730165D01*
X126366789Y-88730167D01*
X126445496Y-88920183D01*
X126455760Y-88944963D01*
X126458346Y-88949183D01*
X126577241Y-89143202D01*
X126577245Y-89143208D01*
X126579824Y-89147416D01*
X126734031Y-89327969D01*
X126914584Y-89482176D01*
X126918792Y-89484755D01*
X126918798Y-89484759D01*
X127072806Y-89579135D01*
X127117037Y-89606240D01*
X127121607Y-89608133D01*
X127121611Y-89608135D01*
X127296477Y-89680566D01*
X127336406Y-89697105D01*
X127388310Y-89709566D01*
X127562476Y-89751380D01*
X127562482Y-89751381D01*
X127567289Y-89752535D01*
X127804000Y-89771165D01*
X128040711Y-89752535D01*
X128045518Y-89751381D01*
X128045524Y-89751380D01*
X128219690Y-89709566D01*
X128271594Y-89697105D01*
X128311523Y-89680566D01*
X128486389Y-89608135D01*
X128486393Y-89608133D01*
X128490963Y-89606240D01*
X128535194Y-89579135D01*
X128689202Y-89484759D01*
X128689208Y-89484755D01*
X128693416Y-89482176D01*
X128873969Y-89327969D01*
X128877177Y-89324213D01*
X128877182Y-89324208D01*
X128958189Y-89229361D01*
X129017639Y-89190551D01*
X129088634Y-89190045D01*
X129149811Y-89229361D01*
X129230818Y-89324208D01*
X129230823Y-89324213D01*
X129234031Y-89327969D01*
X129414584Y-89482176D01*
X129418792Y-89484755D01*
X129418798Y-89484759D01*
X129610335Y-89602133D01*
X129657966Y-89654781D01*
X129670500Y-89709566D01*
X129670500Y-92578581D01*
X129650498Y-92646702D01*
X129596842Y-92693195D01*
X129526568Y-92703299D01*
X129468451Y-92678341D01*
X129466803Y-92676695D01*
X129364542Y-92613660D01*
X129322468Y-92587725D01*
X129322466Y-92587724D01*
X129316238Y-92583885D01*
X129198834Y-92544944D01*
X129154889Y-92530368D01*
X129154887Y-92530368D01*
X129148361Y-92528203D01*
X129141525Y-92527503D01*
X129141522Y-92527502D01*
X129098469Y-92523091D01*
X129043900Y-92517500D01*
X128418100Y-92517500D01*
X128414854Y-92517837D01*
X128414850Y-92517837D01*
X128319192Y-92527762D01*
X128319188Y-92527763D01*
X128312334Y-92528474D01*
X128305798Y-92530655D01*
X128305796Y-92530655D01*
X128227140Y-92556897D01*
X128144554Y-92584450D01*
X127994152Y-92677522D01*
X127869195Y-92802697D01*
X127865355Y-92808927D01*
X127865354Y-92808928D01*
X127796579Y-92920502D01*
X127776385Y-92953262D01*
X127720703Y-93121139D01*
X127710000Y-93225600D01*
X127710000Y-94226400D01*
X127710337Y-94229646D01*
X127710337Y-94229650D01*
X127715302Y-94277498D01*
X127720974Y-94332166D01*
X127776950Y-94499946D01*
X127870022Y-94650348D01*
X127995197Y-94775305D01*
X128001427Y-94779145D01*
X128001428Y-94779146D01*
X128138788Y-94863816D01*
X128145762Y-94868115D01*
X128291680Y-94916514D01*
X128341107Y-94947011D01*
X129775125Y-96381029D01*
X129809151Y-96443341D01*
X129804086Y-96514156D01*
X129761539Y-96570992D01*
X129750169Y-96578578D01*
X129625323Y-96652411D01*
X129612896Y-96662051D01*
X129506551Y-96768396D01*
X129496911Y-96780822D01*
X129420352Y-96910279D01*
X129414107Y-96924710D01*
X129371731Y-97070565D01*
X129369430Y-97083167D01*
X129367193Y-97111584D01*
X129367000Y-97116514D01*
X129367000Y-97733385D01*
X129371475Y-97748624D01*
X129372865Y-97749829D01*
X129380548Y-97751500D01*
X130303000Y-97751500D01*
X130371121Y-97771502D01*
X130417614Y-97825158D01*
X130429000Y-97877500D01*
X130429000Y-99467378D01*
X130432973Y-99480909D01*
X130440871Y-99482044D01*
X130580790Y-99441393D01*
X130595221Y-99435148D01*
X130724676Y-99358590D01*
X130732364Y-99352626D01*
X130798449Y-99326679D01*
X130868072Y-99340580D01*
X130884158Y-99350918D01*
X130888193Y-99354953D01*
X130895023Y-99358992D01*
X130895024Y-99358993D01*
X130945530Y-99388862D01*
X131031399Y-99439645D01*
X131039010Y-99441856D01*
X131039012Y-99441857D01*
X131091231Y-99457028D01*
X131191169Y-99486062D01*
X131197574Y-99486566D01*
X131197579Y-99486567D01*
X131226042Y-99488807D01*
X131226050Y-99488807D01*
X131228498Y-99489000D01*
X131661502Y-99489000D01*
X131663950Y-99488807D01*
X131663958Y-99488807D01*
X131692421Y-99486567D01*
X131692426Y-99486566D01*
X131698831Y-99486062D01*
X131798769Y-99457028D01*
X131850988Y-99441857D01*
X131850990Y-99441856D01*
X131858601Y-99439645D01*
X131951407Y-99384759D01*
X132020221Y-99367301D01*
X132087552Y-99389818D01*
X132128932Y-99440422D01*
X132128982Y-99440593D01*
X132133018Y-99447417D01*
X132139293Y-99458028D01*
X132147988Y-99475776D01*
X132155448Y-99494617D01*
X132160110Y-99501033D01*
X132160110Y-99501034D01*
X132181436Y-99530387D01*
X132187952Y-99540307D01*
X132210458Y-99578362D01*
X132224779Y-99592683D01*
X132237619Y-99607716D01*
X132249528Y-99624107D01*
X132255634Y-99629158D01*
X132283605Y-99652298D01*
X132292384Y-99660288D01*
X132367501Y-99735405D01*
X132401527Y-99797717D01*
X132396462Y-99868532D01*
X132353915Y-99925368D01*
X132287395Y-99950179D01*
X132278406Y-99950500D01*
X129600595Y-99950500D01*
X129532474Y-99930498D01*
X129511499Y-99913595D01*
X129176267Y-99578362D01*
X128820647Y-99222742D01*
X128813113Y-99214463D01*
X128809000Y-99207982D01*
X128759348Y-99161356D01*
X128756507Y-99158602D01*
X128736770Y-99138865D01*
X128733573Y-99136385D01*
X128724551Y-99128680D01*
X128698100Y-99103841D01*
X128692321Y-99098414D01*
X128685375Y-99094595D01*
X128685372Y-99094593D01*
X128674566Y-99088652D01*
X128658047Y-99077801D01*
X128657583Y-99077441D01*
X128642041Y-99065386D01*
X128634772Y-99062241D01*
X128634768Y-99062238D01*
X128601463Y-99047826D01*
X128590813Y-99042609D01*
X128552060Y-99021305D01*
X128532437Y-99016267D01*
X128513734Y-99009863D01*
X128502420Y-99004967D01*
X128502419Y-99004967D01*
X128495145Y-99001819D01*
X128487322Y-99000580D01*
X128487312Y-99000577D01*
X128451476Y-98994901D01*
X128439856Y-98992495D01*
X128404711Y-98983472D01*
X128404710Y-98983472D01*
X128397030Y-98981500D01*
X128376776Y-98981500D01*
X128357065Y-98979949D01*
X128344886Y-98978020D01*
X128337057Y-98976780D01*
X128329165Y-98977526D01*
X128293039Y-98980941D01*
X128281181Y-98981500D01*
X127166634Y-98981500D01*
X127098513Y-98961498D01*
X127059490Y-98921803D01*
X127056123Y-98916361D01*
X127042585Y-98894484D01*
X129367001Y-98894484D01*
X129367195Y-98899420D01*
X129369430Y-98927836D01*
X129371730Y-98940431D01*
X129414107Y-99086290D01*
X129420352Y-99100721D01*
X129496911Y-99230178D01*
X129506551Y-99242604D01*
X129612896Y-99348949D01*
X129625322Y-99358589D01*
X129754779Y-99435148D01*
X129769210Y-99441393D01*
X129903605Y-99480439D01*
X129917706Y-99480399D01*
X129921000Y-99473130D01*
X129921000Y-98277615D01*
X129916525Y-98262376D01*
X129915135Y-98261171D01*
X129907452Y-98259500D01*
X129385116Y-98259500D01*
X129369877Y-98263975D01*
X129368672Y-98265365D01*
X129367001Y-98273048D01*
X129367001Y-98894484D01*
X127042585Y-98894484D01*
X127032478Y-98878152D01*
X127027296Y-98872979D01*
X126945537Y-98791362D01*
X126911458Y-98729079D01*
X126916461Y-98658259D01*
X126945382Y-98613171D01*
X127027739Y-98530671D01*
X127036751Y-98519260D01*
X127121816Y-98381257D01*
X127127963Y-98368076D01*
X127179138Y-98213790D01*
X127182005Y-98200414D01*
X127191672Y-98106062D01*
X127192000Y-98099646D01*
X127192000Y-98062115D01*
X127187525Y-98046876D01*
X127186135Y-98045671D01*
X127178452Y-98044000D01*
X125856000Y-98044000D01*
X125787879Y-98023998D01*
X125741386Y-97970342D01*
X125730000Y-97918000D01*
X125730000Y-97517885D01*
X126238000Y-97517885D01*
X126242475Y-97533124D01*
X126243865Y-97534329D01*
X126251548Y-97536000D01*
X127173884Y-97536000D01*
X127189123Y-97531525D01*
X127190328Y-97530135D01*
X127191999Y-97522452D01*
X127191999Y-97480405D01*
X127191662Y-97473886D01*
X127181743Y-97378294D01*
X127178851Y-97364900D01*
X127127412Y-97210716D01*
X127121239Y-97197538D01*
X127035937Y-97059693D01*
X127026901Y-97048292D01*
X126912171Y-96933761D01*
X126900760Y-96924749D01*
X126762757Y-96839684D01*
X126749576Y-96833537D01*
X126595290Y-96782362D01*
X126581914Y-96779495D01*
X126487562Y-96769828D01*
X126481145Y-96769500D01*
X126256115Y-96769500D01*
X126240876Y-96773975D01*
X126239671Y-96775365D01*
X126238000Y-96783048D01*
X126238000Y-97517885D01*
X125730000Y-97517885D01*
X125730000Y-96787616D01*
X125725525Y-96772377D01*
X125724135Y-96771172D01*
X125716452Y-96769501D01*
X125486905Y-96769501D01*
X125480386Y-96769838D01*
X125384794Y-96779757D01*
X125371400Y-96782649D01*
X125217216Y-96834088D01*
X125204038Y-96840261D01*
X125066193Y-96925563D01*
X125049055Y-96939146D01*
X125047616Y-96937331D01*
X124995130Y-96966044D01*
X124924310Y-96961035D01*
X124886906Y-96937041D01*
X124886226Y-96937902D01*
X124880484Y-96933367D01*
X124875303Y-96928195D01*
X124869074Y-96924355D01*
X124869071Y-96924353D01*
X124790285Y-96875788D01*
X124742792Y-96823016D01*
X124731370Y-96752944D01*
X124747283Y-96705529D01*
X124783223Y-96643279D01*
X124783224Y-96643278D01*
X124786527Y-96637556D01*
X124845542Y-96455928D01*
X124847366Y-96438579D01*
X124864814Y-96272565D01*
X124865504Y-96266000D01*
X124857453Y-96189395D01*
X124846232Y-96082635D01*
X124846232Y-96082633D01*
X124845542Y-96076072D01*
X124786527Y-95894444D01*
X124691040Y-95729056D01*
X124617863Y-95647785D01*
X124587147Y-95583779D01*
X124585500Y-95563476D01*
X124585500Y-87182594D01*
X124605502Y-87114473D01*
X124622405Y-87093499D01*
X128546247Y-83169657D01*
X128554537Y-83162113D01*
X128561018Y-83158000D01*
X128607659Y-83108332D01*
X128610413Y-83105491D01*
X128630134Y-83085770D01*
X128632612Y-83082575D01*
X128640318Y-83073553D01*
X128665158Y-83047101D01*
X128670586Y-83041321D01*
X128680346Y-83023568D01*
X128691199Y-83007045D01*
X128698753Y-82997306D01*
X128703613Y-82991041D01*
X128721176Y-82950457D01*
X128726383Y-82939827D01*
X128747695Y-82901060D01*
X128749666Y-82893383D01*
X128749668Y-82893378D01*
X128752732Y-82881442D01*
X128759138Y-82862730D01*
X128759546Y-82861789D01*
X128767181Y-82844145D01*
X128768602Y-82835177D01*
X128774097Y-82800481D01*
X128776504Y-82788860D01*
X128785528Y-82753711D01*
X128785528Y-82753710D01*
X128787500Y-82746030D01*
X128787500Y-82725769D01*
X128789051Y-82706058D01*
X128790533Y-82696705D01*
X128792219Y-82686057D01*
X128788059Y-82642046D01*
X128787500Y-82630189D01*
X128787500Y-81086884D01*
X133235500Y-81086884D01*
X133235665Y-81089152D01*
X133235665Y-81089164D01*
X133241620Y-81171238D01*
X133250125Y-81288451D01*
X133251109Y-81292906D01*
X133251109Y-81292909D01*
X133303209Y-81528886D01*
X133308585Y-81553237D01*
X133404655Y-81806810D01*
X133536324Y-82043859D01*
X133539096Y-82047491D01*
X133629149Y-82165488D01*
X133700833Y-82259417D01*
X133894736Y-82448970D01*
X134113972Y-82608547D01*
X134353947Y-82734804D01*
X134358248Y-82736323D01*
X134358253Y-82736325D01*
X134407487Y-82753711D01*
X134609634Y-82825096D01*
X134666286Y-82836262D01*
X134871206Y-82876652D01*
X134871212Y-82876653D01*
X134875678Y-82877533D01*
X134880232Y-82877760D01*
X134880234Y-82877760D01*
X135141936Y-82890789D01*
X135141942Y-82890789D01*
X135146505Y-82891016D01*
X135416441Y-82865262D01*
X135420870Y-82864178D01*
X135420877Y-82864177D01*
X135580584Y-82825096D01*
X135679832Y-82800810D01*
X135691471Y-82796096D01*
X135926931Y-82700725D01*
X135926932Y-82700725D01*
X135931160Y-82699012D01*
X136165161Y-82561999D01*
X136310490Y-82445776D01*
X136373366Y-82395493D01*
X136373368Y-82395492D01*
X136376932Y-82392641D01*
X136498399Y-82262612D01*
X136558921Y-82197824D01*
X136558923Y-82197821D01*
X136562037Y-82194488D01*
X136716598Y-81971688D01*
X136731026Y-81942688D01*
X136755835Y-81892819D01*
X136826572Y-81750633D01*
X136874822Y-81698554D01*
X136943570Y-81680827D01*
X137010988Y-81703082D01*
X137057209Y-81762116D01*
X137063155Y-81777810D01*
X137065372Y-81781801D01*
X137168580Y-81967610D01*
X137194824Y-82014859D01*
X137359333Y-82230417D01*
X137362599Y-82233610D01*
X137362601Y-82233612D01*
X137392267Y-82262612D01*
X137553236Y-82419970D01*
X137556928Y-82422657D01*
X137556930Y-82422659D01*
X137751537Y-82564309D01*
X137772472Y-82579547D01*
X138012447Y-82705804D01*
X138016748Y-82707323D01*
X138016753Y-82707325D01*
X138103905Y-82738101D01*
X138268134Y-82796096D01*
X138366153Y-82815415D01*
X138529706Y-82847652D01*
X138529712Y-82847653D01*
X138534178Y-82848533D01*
X138538732Y-82848760D01*
X138538734Y-82848760D01*
X138800436Y-82861789D01*
X138800442Y-82861789D01*
X138805005Y-82862016D01*
X139074941Y-82836262D01*
X139079370Y-82835178D01*
X139079377Y-82835177D01*
X139221164Y-82800481D01*
X139338332Y-82771810D01*
X139383017Y-82753711D01*
X139585431Y-82671725D01*
X139585432Y-82671725D01*
X139589660Y-82670012D01*
X139823661Y-82532999D01*
X139995603Y-82395493D01*
X140031866Y-82366493D01*
X140031868Y-82366492D01*
X140035432Y-82363641D01*
X140046862Y-82351405D01*
X140217421Y-82168824D01*
X140217423Y-82168821D01*
X140220537Y-82165488D01*
X140375098Y-81942688D01*
X140457124Y-81777810D01*
X140493846Y-81703997D01*
X140493847Y-81703994D01*
X140495879Y-81699910D01*
X140580347Y-81442240D01*
X140590076Y-81386209D01*
X140626079Y-81178856D01*
X140626080Y-81178848D01*
X140626735Y-81175075D01*
X140631000Y-81089400D01*
X140631000Y-81057884D01*
X146494000Y-81057884D01*
X146494165Y-81060152D01*
X146494165Y-81060164D01*
X146498391Y-81118400D01*
X146508625Y-81259451D01*
X146509609Y-81263906D01*
X146509609Y-81263909D01*
X146548982Y-81442240D01*
X146567085Y-81524237D01*
X146578072Y-81553237D01*
X146626412Y-81680827D01*
X146663155Y-81777810D01*
X146665372Y-81781801D01*
X146768580Y-81967610D01*
X146794824Y-82014859D01*
X146959333Y-82230417D01*
X146962599Y-82233610D01*
X146962601Y-82233612D01*
X146992267Y-82262612D01*
X147153236Y-82419970D01*
X147156928Y-82422657D01*
X147156930Y-82422659D01*
X147351537Y-82564309D01*
X147372472Y-82579547D01*
X147612447Y-82705804D01*
X147616748Y-82707323D01*
X147616753Y-82707325D01*
X147703905Y-82738101D01*
X147868134Y-82796096D01*
X147966153Y-82815415D01*
X148129706Y-82847652D01*
X148129712Y-82847653D01*
X148134178Y-82848533D01*
X148138732Y-82848760D01*
X148138734Y-82848760D01*
X148400436Y-82861789D01*
X148400442Y-82861789D01*
X148405005Y-82862016D01*
X148674941Y-82836262D01*
X148679370Y-82835178D01*
X148679377Y-82835177D01*
X148821164Y-82800481D01*
X148938332Y-82771810D01*
X148983017Y-82753711D01*
X149185431Y-82671725D01*
X149185432Y-82671725D01*
X149189660Y-82670012D01*
X149423661Y-82532999D01*
X149595603Y-82395493D01*
X149631866Y-82366493D01*
X149631868Y-82366492D01*
X149635432Y-82363641D01*
X149646862Y-82351405D01*
X149817421Y-82168824D01*
X149817423Y-82168821D01*
X149820537Y-82165488D01*
X149975098Y-81942688D01*
X150057124Y-81777810D01*
X150093846Y-81703997D01*
X150093847Y-81703994D01*
X150095879Y-81699910D01*
X150180347Y-81442240D01*
X150190076Y-81386209D01*
X150226079Y-81178856D01*
X150226080Y-81178848D01*
X150226735Y-81175075D01*
X150231000Y-81089400D01*
X150231000Y-80400116D01*
X150230818Y-80397600D01*
X150216705Y-80203100D01*
X150216375Y-80198549D01*
X150182421Y-80044760D01*
X150158900Y-79938223D01*
X150158899Y-79938219D01*
X150157915Y-79933763D01*
X150061845Y-79680190D01*
X149930176Y-79443141D01*
X149840212Y-79325260D01*
X149768439Y-79231215D01*
X149768438Y-79231214D01*
X149765667Y-79227583D01*
X149571764Y-79038030D01*
X149352528Y-78878453D01*
X149112553Y-78752196D01*
X149108252Y-78750677D01*
X149108247Y-78750675D01*
X148975413Y-78703767D01*
X148856866Y-78661904D01*
X148737956Y-78638467D01*
X148595294Y-78610348D01*
X148595288Y-78610347D01*
X148590822Y-78609467D01*
X148586268Y-78609240D01*
X148586266Y-78609240D01*
X148324564Y-78596211D01*
X148324558Y-78596211D01*
X148319995Y-78595984D01*
X148050059Y-78621738D01*
X148045630Y-78622822D01*
X148045623Y-78622823D01*
X147931547Y-78650738D01*
X147786668Y-78686190D01*
X147782433Y-78687905D01*
X147782431Y-78687906D01*
X147546850Y-78783326D01*
X147535340Y-78787988D01*
X147301339Y-78925001D01*
X147261509Y-78956854D01*
X147127104Y-79064341D01*
X147089568Y-79094359D01*
X147086447Y-79097700D01*
X146941011Y-79253388D01*
X146904463Y-79292512D01*
X146749902Y-79515312D01*
X146747874Y-79519388D01*
X146747873Y-79519390D01*
X146639929Y-79736366D01*
X146629121Y-79758090D01*
X146544653Y-80015760D01*
X146498265Y-80282925D01*
X146494000Y-80368600D01*
X146494000Y-81057884D01*
X140631000Y-81057884D01*
X140631000Y-80400116D01*
X140630818Y-80397600D01*
X140616705Y-80203100D01*
X140616375Y-80198549D01*
X140582421Y-80044760D01*
X140558900Y-79938223D01*
X140558899Y-79938219D01*
X140557915Y-79933763D01*
X140461845Y-79680190D01*
X140330176Y-79443141D01*
X140240212Y-79325260D01*
X140168439Y-79231215D01*
X140168438Y-79231214D01*
X140165667Y-79227583D01*
X139971764Y-79038030D01*
X139752528Y-78878453D01*
X139512553Y-78752196D01*
X139508252Y-78750677D01*
X139508247Y-78750675D01*
X139375413Y-78703767D01*
X139256866Y-78661904D01*
X139137956Y-78638467D01*
X138995294Y-78610348D01*
X138995288Y-78610347D01*
X138990822Y-78609467D01*
X138986268Y-78609240D01*
X138986266Y-78609240D01*
X138724564Y-78596211D01*
X138724558Y-78596211D01*
X138719995Y-78595984D01*
X138450059Y-78621738D01*
X138445630Y-78622822D01*
X138445623Y-78622823D01*
X138331547Y-78650738D01*
X138186668Y-78686190D01*
X138182433Y-78687905D01*
X138182431Y-78687906D01*
X137946850Y-78783326D01*
X137935340Y-78787988D01*
X137701339Y-78925001D01*
X137661509Y-78956854D01*
X137527104Y-79064341D01*
X137489568Y-79094359D01*
X137486447Y-79097700D01*
X137341011Y-79253388D01*
X137304463Y-79292512D01*
X137149902Y-79515312D01*
X137147874Y-79519388D01*
X137147873Y-79519390D01*
X137133446Y-79548390D01*
X137051325Y-79713460D01*
X137039929Y-79736366D01*
X136991678Y-79788446D01*
X136922930Y-79806173D01*
X136855512Y-79783918D01*
X136809291Y-79724884D01*
X136804963Y-79713460D01*
X136804962Y-79713457D01*
X136803345Y-79709190D01*
X136709684Y-79540568D01*
X136673894Y-79476134D01*
X136673893Y-79476133D01*
X136671676Y-79472141D01*
X136507167Y-79256583D01*
X136477502Y-79227583D01*
X136341220Y-79094359D01*
X136313264Y-79067030D01*
X136277811Y-79041224D01*
X136097721Y-78910141D01*
X136094028Y-78907453D01*
X135854053Y-78781196D01*
X135849752Y-78779677D01*
X135849747Y-78779675D01*
X135671998Y-78716906D01*
X135598366Y-78690904D01*
X135500347Y-78671585D01*
X135336794Y-78639348D01*
X135336788Y-78639347D01*
X135332322Y-78638467D01*
X135327768Y-78638240D01*
X135327766Y-78638240D01*
X135066064Y-78625211D01*
X135066058Y-78625211D01*
X135061495Y-78624984D01*
X134791559Y-78650738D01*
X134787130Y-78651822D01*
X134787123Y-78651823D01*
X134657069Y-78683648D01*
X134528168Y-78715190D01*
X134523933Y-78716905D01*
X134523931Y-78716906D01*
X134352667Y-78786275D01*
X134276840Y-78816988D01*
X134042839Y-78954001D01*
X133904866Y-79064341D01*
X133867331Y-79094359D01*
X133831068Y-79123359D01*
X133827947Y-79126700D01*
X133676170Y-79289176D01*
X133645963Y-79321512D01*
X133491402Y-79544312D01*
X133489374Y-79548388D01*
X133489373Y-79548390D01*
X133387082Y-79754003D01*
X133370621Y-79787090D01*
X133286153Y-80044760D01*
X133285373Y-80049251D01*
X133285373Y-80049252D01*
X133245457Y-80279144D01*
X133239765Y-80311925D01*
X133235500Y-80397600D01*
X133235500Y-81086884D01*
X128787500Y-81086884D01*
X128787500Y-72400427D01*
X128807502Y-72332306D01*
X128848618Y-72292550D01*
X128851994Y-72290896D01*
X128916544Y-72244853D01*
X129921977Y-72244853D01*
X129927258Y-72251907D01*
X130088756Y-72346279D01*
X130098042Y-72350729D01*
X130297001Y-72426703D01*
X130306899Y-72429579D01*
X130515595Y-72472038D01*
X130525823Y-72473257D01*
X130738650Y-72481062D01*
X130748936Y-72480595D01*
X130960185Y-72453534D01*
X130970262Y-72451392D01*
X131174255Y-72390191D01*
X131183842Y-72386433D01*
X131375098Y-72292738D01*
X131383944Y-72287465D01*
X131431247Y-72253723D01*
X131438211Y-72244853D01*
X132461977Y-72244853D01*
X132467258Y-72251907D01*
X132628756Y-72346279D01*
X132638042Y-72350729D01*
X132837001Y-72426703D01*
X132846899Y-72429579D01*
X133055595Y-72472038D01*
X133065823Y-72473257D01*
X133278650Y-72481062D01*
X133288936Y-72480595D01*
X133500185Y-72453534D01*
X133510262Y-72451392D01*
X133714255Y-72390191D01*
X133723842Y-72386433D01*
X133915098Y-72292738D01*
X133923944Y-72287465D01*
X133971247Y-72253723D01*
X133978211Y-72244853D01*
X135001977Y-72244853D01*
X135007258Y-72251907D01*
X135168756Y-72346279D01*
X135178042Y-72350729D01*
X135377001Y-72426703D01*
X135386899Y-72429579D01*
X135595595Y-72472038D01*
X135605823Y-72473257D01*
X135818650Y-72481062D01*
X135828936Y-72480595D01*
X136040185Y-72453534D01*
X136050262Y-72451392D01*
X136254255Y-72390191D01*
X136263842Y-72386433D01*
X136455098Y-72292738D01*
X136463944Y-72287465D01*
X136511247Y-72253723D01*
X136519648Y-72243023D01*
X136512660Y-72229870D01*
X135774812Y-71492022D01*
X135760868Y-71484408D01*
X135759035Y-71484539D01*
X135752420Y-71488790D01*
X135008737Y-72232473D01*
X135001977Y-72244853D01*
X133978211Y-72244853D01*
X133979648Y-72243023D01*
X133972660Y-72229870D01*
X133234812Y-71492022D01*
X133220868Y-71484408D01*
X133219035Y-71484539D01*
X133212420Y-71488790D01*
X132468737Y-72232473D01*
X132461977Y-72244853D01*
X131438211Y-72244853D01*
X131439648Y-72243023D01*
X131432660Y-72229870D01*
X130694812Y-71492022D01*
X130680868Y-71484408D01*
X130679035Y-71484539D01*
X130672420Y-71488790D01*
X129928737Y-72232473D01*
X129921977Y-72244853D01*
X128916544Y-72244853D01*
X129033860Y-72161173D01*
X129192096Y-72003489D01*
X129251594Y-71920689D01*
X129318110Y-71828121D01*
X129374105Y-71784473D01*
X129444808Y-71778027D01*
X129507773Y-71810830D01*
X129527866Y-71835813D01*
X129548459Y-71869419D01*
X129558916Y-71878880D01*
X129567694Y-71875096D01*
X130309978Y-71132812D01*
X130316356Y-71121132D01*
X131046408Y-71121132D01*
X131046539Y-71122965D01*
X131050790Y-71129580D01*
X131792474Y-71871264D01*
X131804484Y-71877823D01*
X131816223Y-71868855D01*
X131850022Y-71821819D01*
X131851149Y-71822629D01*
X131898659Y-71778881D01*
X131968596Y-71766661D01*
X132034038Y-71794191D01*
X132061870Y-71826029D01*
X132088459Y-71869419D01*
X132098916Y-71878880D01*
X132107694Y-71875096D01*
X132849978Y-71132812D01*
X132856356Y-71121132D01*
X133586408Y-71121132D01*
X133586539Y-71122965D01*
X133590790Y-71129580D01*
X134332474Y-71871264D01*
X134344484Y-71877823D01*
X134356223Y-71868855D01*
X134390022Y-71821819D01*
X134391149Y-71822629D01*
X134438659Y-71778881D01*
X134508596Y-71766661D01*
X134574038Y-71794191D01*
X134601870Y-71826029D01*
X134628459Y-71869419D01*
X134638916Y-71878880D01*
X134647694Y-71875096D01*
X135389978Y-71132812D01*
X135396356Y-71121132D01*
X136126408Y-71121132D01*
X136126539Y-71122965D01*
X136130790Y-71129580D01*
X136872474Y-71871264D01*
X136884484Y-71877823D01*
X136896223Y-71868855D01*
X136930022Y-71821819D01*
X136931277Y-71822721D01*
X136978391Y-71779355D01*
X137048330Y-71767148D01*
X137113767Y-71794691D01*
X137141580Y-71826513D01*
X137199287Y-71920683D01*
X137199291Y-71920688D01*
X137201987Y-71925088D01*
X137348250Y-72093938D01*
X137520126Y-72236632D01*
X137713000Y-72349338D01*
X137921692Y-72429030D01*
X137926760Y-72430061D01*
X137926763Y-72430062D01*
X138031604Y-72451392D01*
X138140597Y-72473567D01*
X138145772Y-72473757D01*
X138145774Y-72473757D01*
X138358673Y-72481564D01*
X138358677Y-72481564D01*
X138363837Y-72481753D01*
X138368957Y-72481097D01*
X138368959Y-72481097D01*
X138580288Y-72454025D01*
X138580289Y-72454025D01*
X138585416Y-72453368D01*
X138590366Y-72451883D01*
X138794429Y-72390661D01*
X138794434Y-72390659D01*
X138799384Y-72389174D01*
X138999994Y-72290896D01*
X139181860Y-72161173D01*
X139340096Y-72003489D01*
X139399594Y-71920689D01*
X139470453Y-71822077D01*
X139471776Y-71823028D01*
X139518645Y-71779857D01*
X139588580Y-71767625D01*
X139654026Y-71795144D01*
X139681875Y-71826994D01*
X139741987Y-71925088D01*
X139888250Y-72093938D01*
X140060126Y-72236632D01*
X140253000Y-72349338D01*
X140461692Y-72429030D01*
X140466760Y-72430061D01*
X140466763Y-72430062D01*
X140571604Y-72451392D01*
X140680597Y-72473567D01*
X140685772Y-72473757D01*
X140685774Y-72473757D01*
X140898673Y-72481564D01*
X140898677Y-72481564D01*
X140903837Y-72481753D01*
X140908957Y-72481097D01*
X140908959Y-72481097D01*
X141120288Y-72454025D01*
X141120289Y-72454025D01*
X141125416Y-72453368D01*
X141130366Y-72451883D01*
X141334429Y-72390661D01*
X141334434Y-72390659D01*
X141339384Y-72389174D01*
X141539994Y-72290896D01*
X141721860Y-72161173D01*
X141880096Y-72003489D01*
X141939594Y-71920689D01*
X142010453Y-71822077D01*
X142011776Y-71823028D01*
X142058645Y-71779857D01*
X142128580Y-71767625D01*
X142194026Y-71795144D01*
X142221875Y-71826994D01*
X142281987Y-71925088D01*
X142428250Y-72093938D01*
X142600126Y-72236632D01*
X142793000Y-72349338D01*
X143001692Y-72429030D01*
X143006760Y-72430061D01*
X143006763Y-72430062D01*
X143111604Y-72451392D01*
X143220597Y-72473567D01*
X143225772Y-72473757D01*
X143225774Y-72473757D01*
X143438673Y-72481564D01*
X143438677Y-72481564D01*
X143443837Y-72481753D01*
X143448957Y-72481097D01*
X143448959Y-72481097D01*
X143660288Y-72454025D01*
X143660289Y-72454025D01*
X143665416Y-72453368D01*
X143670366Y-72451883D01*
X143874429Y-72390661D01*
X143874434Y-72390659D01*
X143879384Y-72389174D01*
X144079994Y-72290896D01*
X144261860Y-72161173D01*
X144420096Y-72003489D01*
X144479594Y-71920689D01*
X144550453Y-71822077D01*
X144551776Y-71823028D01*
X144598645Y-71779857D01*
X144668580Y-71767625D01*
X144734026Y-71795144D01*
X144761875Y-71826994D01*
X144821987Y-71925088D01*
X144968250Y-72093938D01*
X145140126Y-72236632D01*
X145333000Y-72349338D01*
X145541692Y-72429030D01*
X145546760Y-72430061D01*
X145546763Y-72430062D01*
X145651604Y-72451392D01*
X145760597Y-72473567D01*
X145765772Y-72473757D01*
X145765774Y-72473757D01*
X145978673Y-72481564D01*
X145978677Y-72481564D01*
X145983837Y-72481753D01*
X145988957Y-72481097D01*
X145988959Y-72481097D01*
X146200288Y-72454025D01*
X146200289Y-72454025D01*
X146205416Y-72453368D01*
X146210366Y-72451883D01*
X146414429Y-72390661D01*
X146414434Y-72390659D01*
X146419384Y-72389174D01*
X146619994Y-72290896D01*
X146801860Y-72161173D01*
X146960096Y-72003489D01*
X147019594Y-71920689D01*
X147087435Y-71826277D01*
X147090453Y-71822077D01*
X147111320Y-71779857D01*
X147187136Y-71626453D01*
X147187137Y-71626451D01*
X147189430Y-71621811D01*
X147254370Y-71408069D01*
X147283529Y-71186590D01*
X147285156Y-71120000D01*
X147266852Y-70897361D01*
X147212431Y-70680702D01*
X147123354Y-70475840D01*
X147002014Y-70288277D01*
X146851670Y-70123051D01*
X146847616Y-70119849D01*
X146847615Y-70119848D01*
X146680414Y-69987800D01*
X146680410Y-69987798D01*
X146676359Y-69984598D01*
X146641569Y-69965393D01*
X146591598Y-69914960D01*
X146576826Y-69845517D01*
X146601942Y-69779112D01*
X146632557Y-69751686D01*
X146631994Y-69750896D01*
X146699110Y-69703023D01*
X146813860Y-69621173D01*
X146972096Y-69463489D01*
X147102453Y-69282077D01*
X147123320Y-69239857D01*
X147199136Y-69086453D01*
X147199137Y-69086451D01*
X147201430Y-69081811D01*
X147266370Y-68868069D01*
X147295529Y-68646590D01*
X147297156Y-68580000D01*
X147278852Y-68357361D01*
X147224431Y-68140702D01*
X147135354Y-67935840D01*
X147050196Y-67804206D01*
X147016822Y-67752617D01*
X147016820Y-67752614D01*
X147014014Y-67748277D01*
X146863670Y-67583051D01*
X146859619Y-67579852D01*
X146859615Y-67579848D01*
X146692414Y-67447800D01*
X146692410Y-67447798D01*
X146688359Y-67444598D01*
X146492789Y-67336638D01*
X146487920Y-67334914D01*
X146487916Y-67334912D01*
X146287087Y-67263795D01*
X146287083Y-67263794D01*
X146282212Y-67262069D01*
X146277119Y-67261162D01*
X146277116Y-67261161D01*
X146067373Y-67223800D01*
X146067367Y-67223799D01*
X146062284Y-67222894D01*
X145988452Y-67221992D01*
X145844081Y-67220228D01*
X145844079Y-67220228D01*
X145838911Y-67220165D01*
X145618091Y-67253955D01*
X145405756Y-67323357D01*
X145327455Y-67364118D01*
X145285678Y-67385866D01*
X145207607Y-67426507D01*
X145203474Y-67429610D01*
X145203471Y-67429612D01*
X145033100Y-67557530D01*
X145028965Y-67560635D01*
X145025393Y-67564373D01*
X144942580Y-67651032D01*
X144874629Y-67722138D01*
X144767201Y-67879621D01*
X144712293Y-67924621D01*
X144641768Y-67932792D01*
X144578021Y-67901538D01*
X144557324Y-67877054D01*
X144476822Y-67752617D01*
X144476820Y-67752614D01*
X144474014Y-67748277D01*
X144323670Y-67583051D01*
X144319619Y-67579852D01*
X144319615Y-67579848D01*
X144152414Y-67447800D01*
X144152410Y-67447798D01*
X144148359Y-67444598D01*
X143952789Y-67336638D01*
X143947920Y-67334914D01*
X143947916Y-67334912D01*
X143747087Y-67263795D01*
X143747083Y-67263794D01*
X143742212Y-67262069D01*
X143737119Y-67261162D01*
X143737116Y-67261161D01*
X143527373Y-67223800D01*
X143527367Y-67223799D01*
X143522284Y-67222894D01*
X143448452Y-67221992D01*
X143304081Y-67220228D01*
X143304079Y-67220228D01*
X143298911Y-67220165D01*
X143078091Y-67253955D01*
X142865756Y-67323357D01*
X142787455Y-67364118D01*
X142745678Y-67385866D01*
X142667607Y-67426507D01*
X142663474Y-67429610D01*
X142663471Y-67429612D01*
X142493100Y-67557530D01*
X142488965Y-67560635D01*
X142485393Y-67564373D01*
X142402580Y-67651032D01*
X142334629Y-67722138D01*
X142227201Y-67879621D01*
X142172293Y-67924621D01*
X142101768Y-67932792D01*
X142038021Y-67901538D01*
X142017324Y-67877054D01*
X141936822Y-67752617D01*
X141936820Y-67752614D01*
X141934014Y-67748277D01*
X141783670Y-67583051D01*
X141779619Y-67579852D01*
X141779615Y-67579848D01*
X141612414Y-67447800D01*
X141612410Y-67447798D01*
X141608359Y-67444598D01*
X141412789Y-67336638D01*
X141407920Y-67334914D01*
X141407916Y-67334912D01*
X141207087Y-67263795D01*
X141207083Y-67263794D01*
X141202212Y-67262069D01*
X141197119Y-67261162D01*
X141197116Y-67261161D01*
X140987373Y-67223800D01*
X140987367Y-67223799D01*
X140982284Y-67222894D01*
X140908452Y-67221992D01*
X140764081Y-67220228D01*
X140764079Y-67220228D01*
X140758911Y-67220165D01*
X140538091Y-67253955D01*
X140325756Y-67323357D01*
X140247455Y-67364118D01*
X140205678Y-67385866D01*
X140127607Y-67426507D01*
X140123474Y-67429610D01*
X140123471Y-67429612D01*
X139953100Y-67557530D01*
X139948965Y-67560635D01*
X139945393Y-67564373D01*
X139862580Y-67651032D01*
X139794629Y-67722138D01*
X139687201Y-67879621D01*
X139632293Y-67924621D01*
X139561768Y-67932792D01*
X139498021Y-67901538D01*
X139477324Y-67877054D01*
X139396822Y-67752617D01*
X139396820Y-67752614D01*
X139394014Y-67748277D01*
X139243670Y-67583051D01*
X139239619Y-67579852D01*
X139239615Y-67579848D01*
X139072414Y-67447800D01*
X139072410Y-67447798D01*
X139068359Y-67444598D01*
X138872789Y-67336638D01*
X138867920Y-67334914D01*
X138867916Y-67334912D01*
X138667087Y-67263795D01*
X138667083Y-67263794D01*
X138662212Y-67262069D01*
X138657119Y-67261162D01*
X138657116Y-67261161D01*
X138447373Y-67223800D01*
X138447367Y-67223799D01*
X138442284Y-67222894D01*
X138368452Y-67221992D01*
X138224081Y-67220228D01*
X138224079Y-67220228D01*
X138218911Y-67220165D01*
X137998091Y-67253955D01*
X137785756Y-67323357D01*
X137707455Y-67364118D01*
X137665678Y-67385866D01*
X137587607Y-67426507D01*
X137583474Y-67429610D01*
X137583471Y-67429612D01*
X137413100Y-67557530D01*
X137408965Y-67560635D01*
X137405393Y-67564373D01*
X137322580Y-67651032D01*
X137254629Y-67722138D01*
X137147204Y-67879618D01*
X137146898Y-67880066D01*
X137091987Y-67925069D01*
X137021462Y-67933240D01*
X136957715Y-67901986D01*
X136937017Y-67877501D01*
X136907062Y-67831197D01*
X136896377Y-67821995D01*
X136886812Y-67826398D01*
X136146022Y-68567188D01*
X136138408Y-68581132D01*
X136138539Y-68582965D01*
X136142790Y-68589580D01*
X136884474Y-69331264D01*
X136896484Y-69337823D01*
X136908223Y-69328855D01*
X136942022Y-69281819D01*
X136943277Y-69282721D01*
X136990391Y-69239355D01*
X137060330Y-69227148D01*
X137125767Y-69254691D01*
X137153580Y-69286513D01*
X137211287Y-69380683D01*
X137211291Y-69380688D01*
X137213987Y-69385088D01*
X137360250Y-69553938D01*
X137532126Y-69696632D01*
X137561374Y-69713723D01*
X137599791Y-69736172D01*
X137648515Y-69787810D01*
X137661586Y-69857593D01*
X137634855Y-69923365D01*
X137594403Y-69956722D01*
X137587112Y-69960518D01*
X137575607Y-69966507D01*
X137571474Y-69969610D01*
X137571471Y-69969612D01*
X137401100Y-70097530D01*
X137396965Y-70100635D01*
X137242629Y-70262138D01*
X137135204Y-70419618D01*
X137134898Y-70420066D01*
X137079987Y-70465069D01*
X137009462Y-70473240D01*
X136945715Y-70441986D01*
X136925017Y-70417501D01*
X136895062Y-70371197D01*
X136884377Y-70361995D01*
X136874812Y-70366398D01*
X136134022Y-71107188D01*
X136126408Y-71121132D01*
X135396356Y-71121132D01*
X135397592Y-71118868D01*
X135397461Y-71117035D01*
X135393210Y-71110420D01*
X134651849Y-70369059D01*
X134640313Y-70362759D01*
X134628028Y-70372384D01*
X134595192Y-70420520D01*
X134540281Y-70465523D01*
X134469756Y-70473694D01*
X134406009Y-70442440D01*
X134385311Y-70417955D01*
X134355062Y-70371197D01*
X134344377Y-70361995D01*
X134334812Y-70366398D01*
X133594022Y-71107188D01*
X133586408Y-71121132D01*
X132856356Y-71121132D01*
X132857592Y-71118868D01*
X132857461Y-71117035D01*
X132853210Y-71110420D01*
X132111849Y-70369059D01*
X132100313Y-70362759D01*
X132088028Y-70372384D01*
X132055192Y-70420520D01*
X132000281Y-70465523D01*
X131929756Y-70473694D01*
X131866009Y-70442440D01*
X131845311Y-70417955D01*
X131815062Y-70371197D01*
X131804377Y-70361995D01*
X131794812Y-70366398D01*
X131054022Y-71107188D01*
X131046408Y-71121132D01*
X130316356Y-71121132D01*
X130317592Y-71118868D01*
X130317461Y-71117035D01*
X130313210Y-71110420D01*
X129571849Y-70369059D01*
X129560313Y-70362759D01*
X129548030Y-70372383D01*
X129521658Y-70411043D01*
X129466747Y-70456046D01*
X129396223Y-70464219D01*
X129332475Y-70432965D01*
X129311777Y-70408480D01*
X129236822Y-70292617D01*
X129236820Y-70292614D01*
X129234014Y-70288277D01*
X129083670Y-70123051D01*
X129041006Y-70089357D01*
X128999944Y-70031441D01*
X128998348Y-69996427D01*
X129923223Y-69996427D01*
X129929968Y-70008758D01*
X130669188Y-70747978D01*
X130683132Y-70755592D01*
X130684965Y-70755461D01*
X130691580Y-70751210D01*
X131435389Y-70007401D01*
X131441382Y-69996427D01*
X132463223Y-69996427D01*
X132469968Y-70008758D01*
X133209188Y-70747978D01*
X133223132Y-70755592D01*
X133224965Y-70755461D01*
X133231580Y-70751210D01*
X133975389Y-70007401D01*
X133981382Y-69996427D01*
X135003223Y-69996427D01*
X135009968Y-70008758D01*
X135749188Y-70747978D01*
X135763132Y-70755592D01*
X135764965Y-70755461D01*
X135771580Y-70751210D01*
X136515389Y-70007401D01*
X136522410Y-69994544D01*
X136515611Y-69985213D01*
X136511554Y-69982518D01*
X136480562Y-69965410D01*
X136430591Y-69914978D01*
X136415818Y-69845536D01*
X136440933Y-69779130D01*
X136472200Y-69751115D01*
X136471737Y-69750465D01*
X136523247Y-69713723D01*
X136531648Y-69703023D01*
X136524660Y-69689870D01*
X135786812Y-68952022D01*
X135772868Y-68944408D01*
X135771035Y-68944539D01*
X135764420Y-68948790D01*
X135020737Y-69692473D01*
X135013977Y-69704853D01*
X135019258Y-69711907D01*
X135060825Y-69736197D01*
X135109549Y-69787835D01*
X135122620Y-69857618D01*
X135095889Y-69923390D01*
X135055436Y-69956748D01*
X135040462Y-69964543D01*
X135031734Y-69970039D01*
X135011677Y-69985099D01*
X135003223Y-69996427D01*
X133981382Y-69996427D01*
X133982410Y-69994544D01*
X133975611Y-69985213D01*
X133971554Y-69982518D01*
X133940562Y-69965410D01*
X133890591Y-69914978D01*
X133875818Y-69845536D01*
X133900933Y-69779130D01*
X133932200Y-69751115D01*
X133931737Y-69750465D01*
X133983247Y-69713723D01*
X133991648Y-69703023D01*
X133984660Y-69689870D01*
X133246812Y-68952022D01*
X133232868Y-68944408D01*
X133231035Y-68944539D01*
X133224420Y-68948790D01*
X132480737Y-69692473D01*
X132473977Y-69704853D01*
X132479258Y-69711907D01*
X132520825Y-69736197D01*
X132569549Y-69787835D01*
X132582620Y-69857618D01*
X132555889Y-69923390D01*
X132515436Y-69956748D01*
X132500462Y-69964543D01*
X132491734Y-69970039D01*
X132471677Y-69985099D01*
X132463223Y-69996427D01*
X131441382Y-69996427D01*
X131442410Y-69994544D01*
X131435611Y-69985213D01*
X131431554Y-69982518D01*
X131400562Y-69965410D01*
X131350591Y-69914978D01*
X131335818Y-69845536D01*
X131360933Y-69779130D01*
X131392200Y-69751115D01*
X131391737Y-69750465D01*
X131443247Y-69713723D01*
X131451648Y-69703023D01*
X131444660Y-69689870D01*
X130706812Y-68952022D01*
X130692868Y-68944408D01*
X130691035Y-68944539D01*
X130684420Y-68948790D01*
X129940737Y-69692473D01*
X129933977Y-69704853D01*
X129939258Y-69711907D01*
X129980825Y-69736197D01*
X130029549Y-69787835D01*
X130042620Y-69857618D01*
X130015889Y-69923390D01*
X129975436Y-69956748D01*
X129960462Y-69964543D01*
X129951734Y-69970039D01*
X129931677Y-69985099D01*
X129923223Y-69996427D01*
X128998348Y-69996427D01*
X128996712Y-69960518D01*
X129032337Y-69899107D01*
X129065647Y-69876376D01*
X129071007Y-69873865D01*
X129077946Y-69871550D01*
X129228348Y-69778478D01*
X129353305Y-69653303D01*
X129375357Y-69617529D01*
X129442275Y-69508968D01*
X129442276Y-69508966D01*
X129446115Y-69502738D01*
X129470913Y-69427975D01*
X129511342Y-69369616D01*
X129540630Y-69351934D01*
X129579694Y-69335096D01*
X130321978Y-68592812D01*
X130328356Y-68581132D01*
X131058408Y-68581132D01*
X131058539Y-68582965D01*
X131062790Y-68589580D01*
X131804474Y-69331264D01*
X131816484Y-69337823D01*
X131828223Y-69328855D01*
X131862022Y-69281819D01*
X131863149Y-69282629D01*
X131910659Y-69238881D01*
X131980596Y-69226661D01*
X132046038Y-69254191D01*
X132073870Y-69286029D01*
X132100459Y-69329419D01*
X132110916Y-69338880D01*
X132119694Y-69335096D01*
X132861978Y-68592812D01*
X132868356Y-68581132D01*
X133598408Y-68581132D01*
X133598539Y-68582965D01*
X133602790Y-68589580D01*
X134344474Y-69331264D01*
X134356484Y-69337823D01*
X134368223Y-69328855D01*
X134402022Y-69281819D01*
X134403149Y-69282629D01*
X134450659Y-69238881D01*
X134520596Y-69226661D01*
X134586038Y-69254191D01*
X134613870Y-69286029D01*
X134640459Y-69329419D01*
X134650916Y-69338880D01*
X134659694Y-69335096D01*
X135401978Y-68592812D01*
X135409592Y-68578868D01*
X135409461Y-68577035D01*
X135405210Y-68570420D01*
X134663849Y-67829059D01*
X134652313Y-67822759D01*
X134640028Y-67832384D01*
X134607192Y-67880520D01*
X134552281Y-67925523D01*
X134481756Y-67933694D01*
X134418009Y-67902440D01*
X134397311Y-67877955D01*
X134367062Y-67831197D01*
X134356377Y-67821995D01*
X134346812Y-67826398D01*
X133606022Y-68567188D01*
X133598408Y-68581132D01*
X132868356Y-68581132D01*
X132869592Y-68578868D01*
X132869461Y-68577035D01*
X132865210Y-68570420D01*
X132123849Y-67829059D01*
X132112313Y-67822759D01*
X132100028Y-67832384D01*
X132067192Y-67880520D01*
X132012281Y-67925523D01*
X131941756Y-67933694D01*
X131878009Y-67902440D01*
X131857311Y-67877955D01*
X131827062Y-67831197D01*
X131816377Y-67821995D01*
X131806812Y-67826398D01*
X131066022Y-68567188D01*
X131058408Y-68581132D01*
X130328356Y-68581132D01*
X130329592Y-68578868D01*
X130329461Y-68577035D01*
X130325210Y-68570420D01*
X129583849Y-67829059D01*
X129543510Y-67807031D01*
X129530523Y-67804206D01*
X129480322Y-67754003D01*
X129471388Y-67733497D01*
X129447870Y-67663007D01*
X129447869Y-67663005D01*
X129445550Y-67656054D01*
X129352478Y-67505652D01*
X129303167Y-67456427D01*
X129935223Y-67456427D01*
X129941968Y-67468758D01*
X130681188Y-68207978D01*
X130695132Y-68215592D01*
X130696965Y-68215461D01*
X130703580Y-68211210D01*
X131447389Y-67467401D01*
X131453382Y-67456427D01*
X132475223Y-67456427D01*
X132481968Y-67468758D01*
X133221188Y-68207978D01*
X133235132Y-68215592D01*
X133236965Y-68215461D01*
X133243580Y-68211210D01*
X133987389Y-67467401D01*
X133993382Y-67456427D01*
X135015223Y-67456427D01*
X135021968Y-67468758D01*
X135761188Y-68207978D01*
X135775132Y-68215592D01*
X135776965Y-68215461D01*
X135783580Y-68211210D01*
X136527389Y-67467401D01*
X136534410Y-67454544D01*
X136527611Y-67445213D01*
X136523554Y-67442518D01*
X136337117Y-67339599D01*
X136327705Y-67335369D01*
X136126959Y-67264280D01*
X136116989Y-67261646D01*
X135907327Y-67224301D01*
X135897073Y-67223331D01*
X135684116Y-67220728D01*
X135673832Y-67221448D01*
X135463321Y-67253661D01*
X135453293Y-67256050D01*
X135250868Y-67322212D01*
X135241359Y-67326209D01*
X135052466Y-67424540D01*
X135043734Y-67430039D01*
X135023677Y-67445099D01*
X135015223Y-67456427D01*
X133993382Y-67456427D01*
X133994410Y-67454544D01*
X133987611Y-67445213D01*
X133983554Y-67442518D01*
X133797117Y-67339599D01*
X133787705Y-67335369D01*
X133586959Y-67264280D01*
X133576989Y-67261646D01*
X133367327Y-67224301D01*
X133357073Y-67223331D01*
X133144116Y-67220728D01*
X133133832Y-67221448D01*
X132923321Y-67253661D01*
X132913293Y-67256050D01*
X132710868Y-67322212D01*
X132701359Y-67326209D01*
X132512466Y-67424540D01*
X132503734Y-67430039D01*
X132483677Y-67445099D01*
X132475223Y-67456427D01*
X131453382Y-67456427D01*
X131454410Y-67454544D01*
X131447611Y-67445213D01*
X131443554Y-67442518D01*
X131257117Y-67339599D01*
X131247705Y-67335369D01*
X131046959Y-67264280D01*
X131036989Y-67261646D01*
X130827327Y-67224301D01*
X130817073Y-67223331D01*
X130604116Y-67220728D01*
X130593832Y-67221448D01*
X130383321Y-67253661D01*
X130373293Y-67256050D01*
X130170868Y-67322212D01*
X130161359Y-67326209D01*
X129972466Y-67424540D01*
X129963734Y-67430039D01*
X129943677Y-67445099D01*
X129935223Y-67456427D01*
X129303167Y-67456427D01*
X129227303Y-67380695D01*
X129221072Y-67376854D01*
X129082968Y-67291725D01*
X129082966Y-67291724D01*
X129076738Y-67287885D01*
X128916254Y-67234655D01*
X128915389Y-67234368D01*
X128915387Y-67234368D01*
X128908861Y-67232203D01*
X128902025Y-67231503D01*
X128902022Y-67231502D01*
X128858969Y-67227091D01*
X128804400Y-67221500D01*
X127503600Y-67221500D01*
X127500354Y-67221837D01*
X127500350Y-67221837D01*
X127404692Y-67231762D01*
X127404688Y-67231763D01*
X127397834Y-67232474D01*
X127391298Y-67234655D01*
X127391296Y-67234655D01*
X127328631Y-67255562D01*
X127230054Y-67288450D01*
X127079652Y-67381522D01*
X127074479Y-67386704D01*
X127018762Y-67442518D01*
X126954695Y-67506697D01*
X126950855Y-67512927D01*
X126950854Y-67512928D01*
X126907630Y-67583051D01*
X126861885Y-67657262D01*
X126806203Y-67825139D01*
X126805503Y-67831975D01*
X126805502Y-67831978D01*
X126801091Y-67875031D01*
X126795500Y-67929600D01*
X126795500Y-69230400D01*
X126795837Y-69233646D01*
X126795837Y-69233650D01*
X126801298Y-69286277D01*
X126806474Y-69336166D01*
X126808655Y-69342702D01*
X126808655Y-69342704D01*
X126852728Y-69474806D01*
X126862450Y-69503946D01*
X126955522Y-69654348D01*
X127080697Y-69779305D01*
X127086927Y-69783145D01*
X127086928Y-69783146D01*
X127207744Y-69857618D01*
X127231262Y-69872115D01*
X127238209Y-69874419D01*
X127240276Y-69875383D01*
X127293561Y-69922299D01*
X127313023Y-69990576D01*
X127292482Y-70058536D01*
X127262681Y-70090337D01*
X127248965Y-70100635D01*
X127094629Y-70262138D01*
X126968743Y-70446680D01*
X126874688Y-70649305D01*
X126814989Y-70864570D01*
X126791251Y-71086695D01*
X126791548Y-71091848D01*
X126791548Y-71091851D01*
X126797011Y-71186590D01*
X126804110Y-71309715D01*
X126805247Y-71314761D01*
X126805248Y-71314767D01*
X126825119Y-71402939D01*
X126853222Y-71527639D01*
X126937266Y-71734616D01*
X126983970Y-71810830D01*
X127051291Y-71920688D01*
X127053987Y-71925088D01*
X127200250Y-72093938D01*
X127372126Y-72236632D01*
X127401374Y-72253723D01*
X127458070Y-72286853D01*
X127506794Y-72338491D01*
X127520500Y-72395641D01*
X127520500Y-79858095D01*
X127500498Y-79926216D01*
X127446842Y-79972709D01*
X127376568Y-79982813D01*
X127311988Y-79953319D01*
X127276673Y-79902736D01*
X127204963Y-79713460D01*
X127204962Y-79713457D01*
X127203345Y-79709190D01*
X127109684Y-79540568D01*
X127073894Y-79476134D01*
X127073893Y-79476133D01*
X127071676Y-79472141D01*
X126907167Y-79256583D01*
X126877502Y-79227583D01*
X126741220Y-79094359D01*
X126713264Y-79067030D01*
X126677811Y-79041224D01*
X126497721Y-78910141D01*
X126494028Y-78907453D01*
X126254053Y-78781196D01*
X126249752Y-78779677D01*
X126249747Y-78779675D01*
X126071998Y-78716906D01*
X125998366Y-78690904D01*
X125900347Y-78671585D01*
X125736794Y-78639348D01*
X125736788Y-78639347D01*
X125732322Y-78638467D01*
X125727768Y-78638240D01*
X125727766Y-78638240D01*
X125466064Y-78625211D01*
X125466058Y-78625211D01*
X125461495Y-78624984D01*
X125191559Y-78650738D01*
X125187130Y-78651822D01*
X125187123Y-78651823D01*
X125057069Y-78683648D01*
X124928168Y-78715190D01*
X124923933Y-78716905D01*
X124923931Y-78716906D01*
X124752667Y-78786275D01*
X124676840Y-78816988D01*
X124442839Y-78954001D01*
X124304866Y-79064341D01*
X124267331Y-79094359D01*
X124231068Y-79123359D01*
X124227947Y-79126700D01*
X124076170Y-79289176D01*
X124045963Y-79321512D01*
X123891402Y-79544312D01*
X123889374Y-79548388D01*
X123889373Y-79548390D01*
X123787082Y-79754003D01*
X123770621Y-79787090D01*
X123686153Y-80044760D01*
X123685373Y-80049251D01*
X123685373Y-80049252D01*
X123645457Y-80279144D01*
X123639765Y-80311925D01*
X123635500Y-80397600D01*
X123635500Y-81086884D01*
X123635665Y-81089152D01*
X123635665Y-81089164D01*
X123641620Y-81171238D01*
X123650125Y-81288451D01*
X123651109Y-81292906D01*
X123651109Y-81292909D01*
X123703209Y-81528886D01*
X123708585Y-81553237D01*
X123804655Y-81806810D01*
X123936324Y-82043859D01*
X123939096Y-82047491D01*
X124029149Y-82165488D01*
X124100833Y-82259417D01*
X124294736Y-82448970D01*
X124513972Y-82608547D01*
X124753947Y-82734804D01*
X124758248Y-82736323D01*
X124758253Y-82736325D01*
X124807487Y-82753711D01*
X125009634Y-82825096D01*
X125066286Y-82836262D01*
X125271206Y-82876652D01*
X125271212Y-82876653D01*
X125275678Y-82877533D01*
X125280232Y-82877760D01*
X125280234Y-82877760D01*
X125541936Y-82890789D01*
X125541942Y-82890789D01*
X125546505Y-82891016D01*
X125816441Y-82865262D01*
X125820870Y-82864178D01*
X125820877Y-82864177D01*
X125980584Y-82825096D01*
X126079832Y-82800810D01*
X126091471Y-82796096D01*
X126326931Y-82700725D01*
X126326932Y-82700725D01*
X126331160Y-82699012D01*
X126565161Y-82561999D01*
X126710490Y-82445776D01*
X126773366Y-82395493D01*
X126773368Y-82395492D01*
X126776932Y-82392641D01*
X126898399Y-82262612D01*
X126958921Y-82197824D01*
X126958923Y-82197821D01*
X126962037Y-82194488D01*
X127116598Y-81971688D01*
X127129163Y-81946432D01*
X127235346Y-81732997D01*
X127235347Y-81732994D01*
X127237379Y-81728910D01*
X127274769Y-81614852D01*
X127314996Y-81556352D01*
X127380465Y-81528886D01*
X127450390Y-81541176D01*
X127502570Y-81589319D01*
X127520500Y-81654102D01*
X127520500Y-82351405D01*
X127500498Y-82419526D01*
X127483595Y-82440500D01*
X123559747Y-86364348D01*
X123551461Y-86371888D01*
X123544982Y-86376000D01*
X123539557Y-86381777D01*
X123498357Y-86425651D01*
X123495602Y-86428493D01*
X123475865Y-86448230D01*
X123473385Y-86451427D01*
X123465682Y-86460447D01*
X123435414Y-86492679D01*
X123431595Y-86499625D01*
X123431593Y-86499628D01*
X123425652Y-86510434D01*
X123414801Y-86526953D01*
X123402386Y-86542959D01*
X123399241Y-86550228D01*
X123399238Y-86550232D01*
X123384826Y-86583537D01*
X123379609Y-86594187D01*
X123358305Y-86632940D01*
X123356334Y-86640615D01*
X123356334Y-86640616D01*
X123353267Y-86652562D01*
X123346863Y-86671266D01*
X123338819Y-86689855D01*
X123337580Y-86697678D01*
X123337577Y-86697688D01*
X123331901Y-86733524D01*
X123329495Y-86745144D01*
X123324495Y-86764620D01*
X123318500Y-86787970D01*
X123318500Y-86808224D01*
X123316949Y-86827934D01*
X123313780Y-86847943D01*
X123314526Y-86855835D01*
X123317941Y-86891961D01*
X123318500Y-86903819D01*
X123318500Y-95563476D01*
X123298498Y-95631597D01*
X123286142Y-95647779D01*
X123212960Y-95729056D01*
X123117473Y-95894444D01*
X123058458Y-96076072D01*
X123057768Y-96082633D01*
X123057768Y-96082635D01*
X123046547Y-96189395D01*
X123038496Y-96266000D01*
X123039186Y-96272565D01*
X123056635Y-96438579D01*
X123058458Y-96455928D01*
X123117473Y-96637556D01*
X123120776Y-96643278D01*
X123120777Y-96643279D01*
X123156707Y-96705511D01*
X123173445Y-96774506D01*
X123150225Y-96841598D01*
X123113893Y-96875654D01*
X123027652Y-96929022D01*
X122902695Y-97054197D01*
X122898855Y-97060427D01*
X122898854Y-97060428D01*
X122821143Y-97186499D01*
X122809885Y-97204762D01*
X122754203Y-97372639D01*
X122743500Y-97477100D01*
X122743500Y-98102900D01*
X122743837Y-98106146D01*
X122743837Y-98106150D01*
X122753618Y-98200414D01*
X122754474Y-98208666D01*
X122756655Y-98215202D01*
X122756655Y-98215204D01*
X122777162Y-98276671D01*
X122810450Y-98376446D01*
X122903522Y-98526848D01*
X122908704Y-98532021D01*
X122990109Y-98613284D01*
X123024188Y-98675566D01*
X123019185Y-98746386D01*
X122990264Y-98791475D01*
X122902695Y-98879197D01*
X122898855Y-98885427D01*
X122898854Y-98885428D01*
X122819724Y-99013801D01*
X122809885Y-99029762D01*
X122793951Y-99077801D01*
X122763869Y-99168498D01*
X122754203Y-99197639D01*
X122743500Y-99302100D01*
X122743500Y-99927900D01*
X122428000Y-99927900D01*
X122428000Y-63615186D01*
X123185960Y-63615186D01*
X123193418Y-63625554D01*
X123408662Y-63799854D01*
X123413984Y-63803721D01*
X123716823Y-64000387D01*
X123722532Y-64003683D01*
X124044275Y-64167620D01*
X124050286Y-64170296D01*
X124387395Y-64299700D01*
X124393672Y-64301740D01*
X124742463Y-64395198D01*
X124748901Y-64396567D01*
X125105560Y-64453055D01*
X125112104Y-64453743D01*
X125472699Y-64472641D01*
X125479301Y-64472641D01*
X125839896Y-64453743D01*
X125846440Y-64453055D01*
X126203099Y-64396567D01*
X126209537Y-64395198D01*
X126558328Y-64301740D01*
X126564605Y-64299700D01*
X126901714Y-64170296D01*
X126907725Y-64167620D01*
X127229468Y-64003683D01*
X127235177Y-64000387D01*
X127538016Y-63803721D01*
X127543338Y-63799854D01*
X127757634Y-63626322D01*
X127765327Y-63615186D01*
X146045960Y-63615186D01*
X146053418Y-63625554D01*
X146268662Y-63799854D01*
X146273984Y-63803721D01*
X146576823Y-64000387D01*
X146582532Y-64003683D01*
X146904275Y-64167620D01*
X146910286Y-64170296D01*
X147247395Y-64299700D01*
X147253672Y-64301740D01*
X147602463Y-64395198D01*
X147608901Y-64396567D01*
X147965560Y-64453055D01*
X147972104Y-64453743D01*
X148332699Y-64472641D01*
X148339301Y-64472641D01*
X148699896Y-64453743D01*
X148706440Y-64453055D01*
X149063099Y-64396567D01*
X149069537Y-64395198D01*
X149418328Y-64301740D01*
X149424605Y-64299700D01*
X149761714Y-64170296D01*
X149767725Y-64167620D01*
X150089468Y-64003683D01*
X150095177Y-64000387D01*
X150398016Y-63803721D01*
X150403338Y-63799854D01*
X150617634Y-63626322D01*
X150626100Y-63614067D01*
X150619766Y-63602976D01*
X148348812Y-61332022D01*
X148334868Y-61324408D01*
X148333035Y-61324539D01*
X148326420Y-61328790D01*
X146053100Y-63602110D01*
X146045960Y-63615186D01*
X127765327Y-63615186D01*
X127766100Y-63614067D01*
X127759766Y-63602976D01*
X125488812Y-61332022D01*
X125474868Y-61324408D01*
X125473035Y-61324539D01*
X125466420Y-61328790D01*
X123193100Y-63602110D01*
X123185960Y-63615186D01*
X122428000Y-63615186D01*
X122428000Y-63126113D01*
X122448002Y-63057992D01*
X122501658Y-63011499D01*
X122571932Y-63001395D01*
X122636512Y-63030889D01*
X122651921Y-63046819D01*
X122809678Y-63241634D01*
X122821933Y-63250100D01*
X122833024Y-63243766D01*
X125103978Y-60972812D01*
X125110356Y-60961132D01*
X125840408Y-60961132D01*
X125840539Y-60962965D01*
X125844790Y-60969580D01*
X128118110Y-63242900D01*
X128131186Y-63250040D01*
X128141554Y-63242582D01*
X128315854Y-63027338D01*
X128319721Y-63022016D01*
X128516387Y-62719177D01*
X128519683Y-62713468D01*
X128683620Y-62391725D01*
X128686296Y-62385714D01*
X128815700Y-62048605D01*
X128817740Y-62042328D01*
X128911198Y-61693537D01*
X128912567Y-61687099D01*
X128969055Y-61330440D01*
X128969743Y-61323896D01*
X128988641Y-60963301D01*
X144823359Y-60963301D01*
X144842257Y-61323896D01*
X144842945Y-61330440D01*
X144899433Y-61687099D01*
X144900802Y-61693537D01*
X144994260Y-62042328D01*
X144996300Y-62048605D01*
X145125704Y-62385714D01*
X145128380Y-62391725D01*
X145292317Y-62713468D01*
X145295613Y-62719177D01*
X145492279Y-63022016D01*
X145496146Y-63027338D01*
X145669678Y-63241634D01*
X145681933Y-63250100D01*
X145693024Y-63243766D01*
X147963978Y-60972812D01*
X147971592Y-60958868D01*
X147971461Y-60957035D01*
X147967210Y-60950420D01*
X145693890Y-58677100D01*
X145680814Y-58669960D01*
X145670446Y-58677418D01*
X145496146Y-58892662D01*
X145492279Y-58897984D01*
X145295613Y-59200823D01*
X145292317Y-59206532D01*
X145128380Y-59528275D01*
X145125704Y-59534286D01*
X144996300Y-59871395D01*
X144994260Y-59877672D01*
X144900802Y-60226463D01*
X144899433Y-60232901D01*
X144842945Y-60589560D01*
X144842257Y-60596104D01*
X144823359Y-60956699D01*
X144823359Y-60963301D01*
X128988641Y-60963301D01*
X128988641Y-60956699D01*
X128969743Y-60596104D01*
X128969055Y-60589560D01*
X128912567Y-60232901D01*
X128911198Y-60226463D01*
X128817740Y-59877672D01*
X128815700Y-59871395D01*
X128686296Y-59534286D01*
X128683620Y-59528275D01*
X128519683Y-59206532D01*
X128516387Y-59200823D01*
X128319721Y-58897984D01*
X128315854Y-58892662D01*
X128142322Y-58678366D01*
X128130067Y-58669900D01*
X128118976Y-58676234D01*
X125848022Y-60947188D01*
X125840408Y-60961132D01*
X125110356Y-60961132D01*
X125111592Y-60958868D01*
X125111461Y-60957035D01*
X125107210Y-60950420D01*
X122833890Y-58677100D01*
X122820814Y-58669960D01*
X122810446Y-58677418D01*
X122651921Y-58873181D01*
X122593507Y-58913533D01*
X122522549Y-58915899D01*
X122461578Y-58879526D01*
X122429949Y-58815964D01*
X122428000Y-58793887D01*
X122428000Y-58038000D01*
X122448002Y-57969879D01*
X122501658Y-57923386D01*
X122554000Y-57912000D01*
X123309887Y-57912000D01*
X123378008Y-57932002D01*
G37*
%TD.AperFunction*%
%TA.AperFunction,Conductor*%
G36*
X128234374Y-114674822D02*
G01*
X128235583Y-114676214D01*
X128237522Y-114679348D01*
X128362697Y-114804305D01*
X128368927Y-114808145D01*
X128368928Y-114808146D01*
X128506090Y-114892694D01*
X128513262Y-114897115D01*
X128566168Y-114914663D01*
X128624527Y-114955094D01*
X128651764Y-115020658D01*
X128652500Y-115034256D01*
X128652500Y-115999233D01*
X128651973Y-116010416D01*
X128650298Y-116017909D01*
X128650547Y-116025835D01*
X128650547Y-116025836D01*
X128652438Y-116085986D01*
X128652500Y-116089945D01*
X128652500Y-116117856D01*
X128652997Y-116121790D01*
X128652997Y-116121791D01*
X128653005Y-116121856D01*
X128653938Y-116133693D01*
X128655327Y-116177889D01*
X128660978Y-116197339D01*
X128664987Y-116216700D01*
X128667526Y-116236797D01*
X128670445Y-116244168D01*
X128670445Y-116244170D01*
X128683804Y-116277912D01*
X128687649Y-116289142D01*
X128699982Y-116331593D01*
X128704015Y-116338412D01*
X128704017Y-116338417D01*
X128710293Y-116349028D01*
X128718988Y-116366776D01*
X128726448Y-116385617D01*
X128731110Y-116392033D01*
X128731110Y-116392034D01*
X128752436Y-116421387D01*
X128758952Y-116431307D01*
X128770383Y-116450635D01*
X128781458Y-116469362D01*
X128795779Y-116483683D01*
X128808619Y-116498716D01*
X128820528Y-116515107D01*
X128826634Y-116520158D01*
X128854605Y-116543298D01*
X128863384Y-116551288D01*
X130052343Y-117740247D01*
X130059887Y-117748537D01*
X130064000Y-117755018D01*
X130069777Y-117760443D01*
X130113667Y-117801658D01*
X130116509Y-117804413D01*
X130136230Y-117824134D01*
X130139425Y-117826612D01*
X130148447Y-117834318D01*
X130180679Y-117864586D01*
X130187628Y-117868406D01*
X130198432Y-117874346D01*
X130214956Y-117885199D01*
X130230959Y-117897613D01*
X130271543Y-117915176D01*
X130282173Y-117920383D01*
X130320940Y-117941695D01*
X130328617Y-117943666D01*
X130328622Y-117943668D01*
X130340558Y-117946732D01*
X130359266Y-117953137D01*
X130377855Y-117961181D01*
X130385683Y-117962421D01*
X130385690Y-117962423D01*
X130421524Y-117968099D01*
X130433144Y-117970505D01*
X130464959Y-117978673D01*
X130475970Y-117981500D01*
X130496224Y-117981500D01*
X130515934Y-117983051D01*
X130535943Y-117986220D01*
X130543835Y-117985474D01*
X130562580Y-117983702D01*
X130579962Y-117982059D01*
X130591819Y-117981500D01*
X134541233Y-117981500D01*
X134552416Y-117982027D01*
X134559909Y-117983702D01*
X134567835Y-117983453D01*
X134567836Y-117983453D01*
X134627986Y-117981562D01*
X134631945Y-117981500D01*
X134659856Y-117981500D01*
X134663791Y-117981003D01*
X134663856Y-117980995D01*
X134675693Y-117980062D01*
X134707951Y-117979048D01*
X134711970Y-117978922D01*
X134719889Y-117978673D01*
X134739343Y-117973021D01*
X134758700Y-117969013D01*
X134770930Y-117967468D01*
X134770931Y-117967468D01*
X134778797Y-117966474D01*
X134786168Y-117963555D01*
X134786170Y-117963555D01*
X134819912Y-117950196D01*
X134831142Y-117946351D01*
X134865983Y-117936229D01*
X134865984Y-117936229D01*
X134873593Y-117934018D01*
X134880412Y-117929985D01*
X134880417Y-117929983D01*
X134891028Y-117923707D01*
X134908776Y-117915012D01*
X134927617Y-117907552D01*
X134947987Y-117892753D01*
X134963387Y-117881564D01*
X134973307Y-117875048D01*
X135004535Y-117856580D01*
X135004538Y-117856578D01*
X135011362Y-117852542D01*
X135025683Y-117838221D01*
X135040717Y-117825380D01*
X135042432Y-117824134D01*
X135057107Y-117813472D01*
X135085298Y-117779395D01*
X135093288Y-117770616D01*
X135546905Y-117316999D01*
X135609217Y-117282973D01*
X135680032Y-117288038D01*
X135725095Y-117316999D01*
X136148343Y-117740247D01*
X136155887Y-117748537D01*
X136160000Y-117755018D01*
X136165777Y-117760443D01*
X136209667Y-117801658D01*
X136212509Y-117804413D01*
X136232230Y-117824134D01*
X136235425Y-117826612D01*
X136244447Y-117834318D01*
X136276679Y-117864586D01*
X136283628Y-117868406D01*
X136294432Y-117874346D01*
X136310956Y-117885199D01*
X136326959Y-117897613D01*
X136367543Y-117915176D01*
X136378173Y-117920383D01*
X136416940Y-117941695D01*
X136424617Y-117943666D01*
X136424622Y-117943668D01*
X136436558Y-117946732D01*
X136455266Y-117953137D01*
X136473855Y-117961181D01*
X136481680Y-117962420D01*
X136481682Y-117962421D01*
X136517519Y-117968097D01*
X136529140Y-117970504D01*
X136560959Y-117978673D01*
X136571970Y-117981500D01*
X136592231Y-117981500D01*
X136611940Y-117983051D01*
X136631943Y-117986219D01*
X136639835Y-117985473D01*
X136645062Y-117984979D01*
X136675954Y-117982059D01*
X136687811Y-117981500D01*
X143685233Y-117981500D01*
X143696416Y-117982027D01*
X143703909Y-117983702D01*
X143711835Y-117983453D01*
X143711836Y-117983453D01*
X143771986Y-117981562D01*
X143775945Y-117981500D01*
X143803856Y-117981500D01*
X143807791Y-117981003D01*
X143807856Y-117980995D01*
X143819693Y-117980062D01*
X143851951Y-117979048D01*
X143855970Y-117978922D01*
X143863889Y-117978673D01*
X143883343Y-117973021D01*
X143902700Y-117969013D01*
X143914930Y-117967468D01*
X143914931Y-117967468D01*
X143922797Y-117966474D01*
X143930168Y-117963555D01*
X143930170Y-117963555D01*
X143963912Y-117950196D01*
X143975142Y-117946351D01*
X144009983Y-117936229D01*
X144009984Y-117936229D01*
X144017593Y-117934018D01*
X144024412Y-117929985D01*
X144024417Y-117929983D01*
X144035028Y-117923707D01*
X144052776Y-117915012D01*
X144071617Y-117907552D01*
X144091987Y-117892753D01*
X144107387Y-117881564D01*
X144117307Y-117875048D01*
X144148535Y-117856580D01*
X144148538Y-117856578D01*
X144155362Y-117852542D01*
X144169683Y-117838221D01*
X144184717Y-117825380D01*
X144186432Y-117824134D01*
X144201107Y-117813472D01*
X144229298Y-117779395D01*
X144237288Y-117770616D01*
X144664247Y-117343657D01*
X144672537Y-117336113D01*
X144679018Y-117332000D01*
X144690649Y-117319614D01*
X144751862Y-117283648D01*
X144822802Y-117286485D01*
X144880946Y-117327225D01*
X144907835Y-117392933D01*
X144908500Y-117405866D01*
X144908500Y-132019405D01*
X144888498Y-132087526D01*
X144871595Y-132108500D01*
X144767453Y-132212642D01*
X144705141Y-132246668D01*
X144634326Y-132241603D01*
X144577490Y-132199056D01*
X144552679Y-132132536D01*
X144555839Y-132094133D01*
X144559779Y-132077724D01*
X144559780Y-132077718D01*
X144560934Y-132072911D01*
X144580366Y-131826000D01*
X144560934Y-131579089D01*
X144559780Y-131574282D01*
X144559779Y-131574276D01*
X144504270Y-131343070D01*
X144503115Y-131338258D01*
X144408334Y-131109437D01*
X144278925Y-130898260D01*
X144118073Y-130709927D01*
X143929740Y-130549075D01*
X143718563Y-130419666D01*
X143713993Y-130417773D01*
X143713985Y-130417769D01*
X143713291Y-130417482D01*
X143713067Y-130417302D01*
X143709580Y-130415525D01*
X143709953Y-130414793D01*
X143658006Y-130372938D01*
X143635500Y-130301070D01*
X143635500Y-125050930D01*
X143655502Y-124982809D01*
X143709989Y-124937277D01*
X143709580Y-124936475D01*
X143713088Y-124934688D01*
X143713291Y-124934518D01*
X143713985Y-124934231D01*
X143713993Y-124934227D01*
X143718563Y-124932334D01*
X143929740Y-124802925D01*
X144118073Y-124642073D01*
X144278925Y-124453740D01*
X144408334Y-124242563D01*
X144503115Y-124013742D01*
X144523501Y-123928830D01*
X144559779Y-123777724D01*
X144559780Y-123777718D01*
X144560934Y-123772911D01*
X144580366Y-123526000D01*
X144560934Y-123279089D01*
X144559780Y-123274282D01*
X144559779Y-123274276D01*
X144504270Y-123043070D01*
X144503115Y-123038258D01*
X144408334Y-122809437D01*
X144278925Y-122598260D01*
X144118073Y-122409927D01*
X143929740Y-122249075D01*
X143718563Y-122119666D01*
X143650342Y-122091408D01*
X143595062Y-122046859D01*
X143572641Y-121979496D01*
X143590199Y-121910705D01*
X143642162Y-121862326D01*
X143698561Y-121848999D01*
X144011669Y-121848999D01*
X144018490Y-121848629D01*
X144069352Y-121843105D01*
X144084604Y-121839479D01*
X144205054Y-121794324D01*
X144220649Y-121785786D01*
X144322724Y-121709285D01*
X144335285Y-121696724D01*
X144411786Y-121594649D01*
X144420324Y-121579054D01*
X144465478Y-121458606D01*
X144469105Y-121443351D01*
X144474631Y-121392486D01*
X144475000Y-121385672D01*
X144475000Y-120698115D01*
X144470525Y-120682876D01*
X144469135Y-120681671D01*
X144461452Y-120680000D01*
X141547116Y-120680000D01*
X141531877Y-120684475D01*
X141530672Y-120685865D01*
X141529001Y-120693548D01*
X141529001Y-121385669D01*
X141529371Y-121392490D01*
X141534895Y-121443352D01*
X141538521Y-121458604D01*
X141583676Y-121579054D01*
X141592214Y-121594649D01*
X141668715Y-121696724D01*
X141681276Y-121709285D01*
X141783351Y-121785786D01*
X141798946Y-121794324D01*
X141919394Y-121839478D01*
X141934649Y-121843105D01*
X141985514Y-121848631D01*
X141992328Y-121849000D01*
X142305438Y-121849000D01*
X142373559Y-121869002D01*
X142420052Y-121922658D01*
X142430156Y-121992932D01*
X142400662Y-122057512D01*
X142353657Y-122091408D01*
X142325360Y-122103129D01*
X142290011Y-122117771D01*
X142290007Y-122117773D01*
X142285437Y-122119666D01*
X142074260Y-122249075D01*
X141885927Y-122409927D01*
X141725075Y-122598260D01*
X141595666Y-122809437D01*
X141500885Y-123038258D01*
X141499730Y-123043070D01*
X141444221Y-123274276D01*
X141444220Y-123274282D01*
X141443066Y-123279089D01*
X141423634Y-123526000D01*
X141443066Y-123772911D01*
X141444220Y-123777718D01*
X141444221Y-123777724D01*
X141480499Y-123928830D01*
X141500885Y-124013742D01*
X141595666Y-124242563D01*
X141725075Y-124453740D01*
X141885927Y-124642073D01*
X142074260Y-124802925D01*
X142285437Y-124932334D01*
X142290007Y-124934227D01*
X142290015Y-124934231D01*
X142290709Y-124934518D01*
X142290933Y-124934698D01*
X142294420Y-124936475D01*
X142294047Y-124937207D01*
X142345994Y-124979062D01*
X142368500Y-125050930D01*
X142368500Y-130301070D01*
X142348498Y-130369191D01*
X142294011Y-130414723D01*
X142294420Y-130415525D01*
X142290912Y-130417312D01*
X142290709Y-130417482D01*
X142290015Y-130417769D01*
X142290007Y-130417773D01*
X142285437Y-130419666D01*
X142074260Y-130549075D01*
X141885927Y-130709927D01*
X141725075Y-130898260D01*
X141595666Y-131109437D01*
X141500885Y-131338258D01*
X141499730Y-131343070D01*
X141444221Y-131574276D01*
X141444220Y-131574282D01*
X141443066Y-131579089D01*
X141423634Y-131826000D01*
X141443066Y-132072911D01*
X141444220Y-132077718D01*
X141444221Y-132077724D01*
X141448161Y-132094133D01*
X141500885Y-132313742D01*
X141502778Y-132318313D01*
X141502779Y-132318315D01*
X141590765Y-132530730D01*
X141595666Y-132542563D01*
X141725075Y-132753740D01*
X141885927Y-132942073D01*
X142074260Y-133102925D01*
X142285437Y-133232334D01*
X142290007Y-133234227D01*
X142290011Y-133234229D01*
X142509685Y-133325221D01*
X142514258Y-133327115D01*
X142599170Y-133347501D01*
X142750276Y-133383779D01*
X142750282Y-133383780D01*
X142755089Y-133384934D01*
X143002000Y-133404366D01*
X143248911Y-133384934D01*
X143253718Y-133383780D01*
X143253724Y-133383779D01*
X143270133Y-133379839D01*
X143341041Y-133383386D01*
X143398775Y-133424706D01*
X143425005Y-133490679D01*
X143411403Y-133560361D01*
X143388642Y-133591453D01*
X142549747Y-134430348D01*
X142541461Y-134437888D01*
X142534982Y-134442000D01*
X142529557Y-134447777D01*
X142488357Y-134491651D01*
X142485602Y-134494493D01*
X142465865Y-134514230D01*
X142463385Y-134517427D01*
X142455682Y-134526447D01*
X142425414Y-134558679D01*
X142421595Y-134565625D01*
X142421593Y-134565628D01*
X142415652Y-134576434D01*
X142404801Y-134592953D01*
X142392386Y-134608959D01*
X142389241Y-134616228D01*
X142389238Y-134616232D01*
X142374826Y-134649537D01*
X142369609Y-134660187D01*
X142348305Y-134698940D01*
X142346334Y-134706615D01*
X142346334Y-134706616D01*
X142343267Y-134718562D01*
X142336863Y-134737266D01*
X142328819Y-134755855D01*
X142327580Y-134763678D01*
X142327577Y-134763688D01*
X142321901Y-134799524D01*
X142319495Y-134811144D01*
X142312795Y-134837242D01*
X142308500Y-134853970D01*
X142308500Y-134874224D01*
X142306949Y-134893934D01*
X142303780Y-134913943D01*
X142304526Y-134921835D01*
X142307941Y-134957961D01*
X142308500Y-134969819D01*
X142308500Y-135734434D01*
X142288498Y-135802555D01*
X142248335Y-135841867D01*
X142056798Y-135959241D01*
X142056792Y-135959245D01*
X142052584Y-135961824D01*
X141872031Y-136116031D01*
X141868823Y-136119787D01*
X141868818Y-136119792D01*
X141787811Y-136214639D01*
X141728361Y-136253449D01*
X141657366Y-136253955D01*
X141596189Y-136214639D01*
X141515182Y-136119792D01*
X141515177Y-136119787D01*
X141511969Y-136116031D01*
X141331416Y-135961824D01*
X141327208Y-135959245D01*
X141327202Y-135959241D01*
X141133183Y-135840346D01*
X141128963Y-135837760D01*
X141124393Y-135835867D01*
X141124389Y-135835865D01*
X140914167Y-135748789D01*
X140914165Y-135748788D01*
X140909594Y-135746895D01*
X140829391Y-135727640D01*
X140683524Y-135692620D01*
X140683518Y-135692619D01*
X140678711Y-135691465D01*
X140442000Y-135672835D01*
X140205289Y-135691465D01*
X140200482Y-135692619D01*
X140200476Y-135692620D01*
X140054609Y-135727640D01*
X139974406Y-135746895D01*
X139969835Y-135748788D01*
X139969833Y-135748789D01*
X139759611Y-135835865D01*
X139759607Y-135835867D01*
X139755037Y-135837760D01*
X139750817Y-135840346D01*
X139556798Y-135959241D01*
X139556792Y-135959245D01*
X139552584Y-135961824D01*
X139372031Y-136116031D01*
X139217824Y-136296584D01*
X139215245Y-136300792D01*
X139215241Y-136300798D01*
X139113669Y-136466548D01*
X139093760Y-136499037D01*
X139091867Y-136503607D01*
X139091865Y-136503611D01*
X139007474Y-136707351D01*
X139002895Y-136718406D01*
X139001740Y-136723218D01*
X138955378Y-136916331D01*
X138947465Y-136949289D01*
X138928835Y-137186000D01*
X138947465Y-137422711D01*
X139002895Y-137653594D01*
X139093760Y-137872963D01*
X139096346Y-137877183D01*
X139215241Y-138071202D01*
X139215245Y-138071208D01*
X139217824Y-138075416D01*
X139372031Y-138255969D01*
X139552584Y-138410176D01*
X139556792Y-138412755D01*
X139556798Y-138412759D01*
X139636932Y-138461865D01*
X139755037Y-138534240D01*
X139759607Y-138536133D01*
X139759611Y-138536135D01*
X139969833Y-138623211D01*
X139974406Y-138625105D01*
X140026310Y-138637566D01*
X140200476Y-138679380D01*
X140200482Y-138679381D01*
X140205289Y-138680535D01*
X140442000Y-138699165D01*
X140678711Y-138680535D01*
X140683518Y-138679381D01*
X140683524Y-138679380D01*
X140857690Y-138637566D01*
X140909594Y-138625105D01*
X140914167Y-138623211D01*
X141124389Y-138536135D01*
X141124393Y-138536133D01*
X141128963Y-138534240D01*
X141247068Y-138461865D01*
X141327202Y-138412759D01*
X141327208Y-138412755D01*
X141331416Y-138410176D01*
X141511969Y-138255969D01*
X141515177Y-138252213D01*
X141515182Y-138252208D01*
X141596189Y-138157361D01*
X141655639Y-138118551D01*
X141726634Y-138118045D01*
X141787811Y-138157361D01*
X141868818Y-138252208D01*
X141868823Y-138252213D01*
X141872031Y-138255969D01*
X142052584Y-138410176D01*
X142056792Y-138412755D01*
X142056798Y-138412759D01*
X142136932Y-138461865D01*
X142255037Y-138534240D01*
X142259607Y-138536133D01*
X142259611Y-138536135D01*
X142469833Y-138623211D01*
X142474406Y-138625105D01*
X142526310Y-138637566D01*
X142700476Y-138679380D01*
X142700482Y-138679381D01*
X142705289Y-138680535D01*
X142942000Y-138699165D01*
X143178711Y-138680535D01*
X143183518Y-138679381D01*
X143183524Y-138679380D01*
X143357690Y-138637566D01*
X143409594Y-138625105D01*
X143414167Y-138623211D01*
X143624389Y-138536135D01*
X143624393Y-138536133D01*
X143628963Y-138534240D01*
X143747068Y-138461865D01*
X143827202Y-138412759D01*
X143827208Y-138412755D01*
X143831416Y-138410176D01*
X144011969Y-138255969D01*
X144015177Y-138252213D01*
X144015182Y-138252208D01*
X144096189Y-138157361D01*
X144155639Y-138118551D01*
X144226634Y-138118045D01*
X144287811Y-138157361D01*
X144368818Y-138252208D01*
X144368823Y-138252213D01*
X144372031Y-138255969D01*
X144552584Y-138410176D01*
X144556792Y-138412755D01*
X144556798Y-138412759D01*
X144748335Y-138530133D01*
X144795966Y-138582781D01*
X144808500Y-138637566D01*
X144808500Y-138723405D01*
X144788498Y-138791526D01*
X144771595Y-138812501D01*
X144300499Y-139283596D01*
X144238187Y-139317621D01*
X144211404Y-139320500D01*
X137474595Y-139320500D01*
X137406474Y-139300498D01*
X137385499Y-139283595D01*
X136979310Y-138877405D01*
X133091646Y-134989741D01*
X133084111Y-134981460D01*
X133080000Y-134974982D01*
X133030348Y-134928356D01*
X133027507Y-134925602D01*
X133007770Y-134905865D01*
X133004573Y-134903385D01*
X132995551Y-134895680D01*
X132969100Y-134870841D01*
X132963321Y-134865414D01*
X132956375Y-134861595D01*
X132956372Y-134861593D01*
X132945566Y-134855652D01*
X132929047Y-134844801D01*
X132928583Y-134844441D01*
X132913041Y-134832386D01*
X132905772Y-134829241D01*
X132905768Y-134829238D01*
X132872463Y-134814826D01*
X132861813Y-134809609D01*
X132823060Y-134788305D01*
X132803437Y-134783267D01*
X132784734Y-134776863D01*
X132773420Y-134771967D01*
X132773419Y-134771967D01*
X132766145Y-134768819D01*
X132758322Y-134767580D01*
X132758312Y-134767577D01*
X132722476Y-134761901D01*
X132710856Y-134759495D01*
X132675711Y-134750472D01*
X132675710Y-134750472D01*
X132668030Y-134748500D01*
X132647776Y-134748500D01*
X132628065Y-134746949D01*
X132615886Y-134745020D01*
X132608057Y-134743780D01*
X132600165Y-134744526D01*
X132564039Y-134747941D01*
X132552181Y-134748500D01*
X127200200Y-134748500D01*
X127132079Y-134728498D01*
X127112853Y-134712157D01*
X127112580Y-134712460D01*
X127107668Y-134708037D01*
X127103253Y-134703134D01*
X126948752Y-134590882D01*
X126942724Y-134588198D01*
X126942722Y-134588197D01*
X126780319Y-134515891D01*
X126780318Y-134515891D01*
X126774288Y-134513206D01*
X126672880Y-134491651D01*
X126593944Y-134474872D01*
X126593939Y-134474872D01*
X126587487Y-134473500D01*
X126396513Y-134473500D01*
X126390061Y-134474872D01*
X126390056Y-134474872D01*
X126311120Y-134491651D01*
X126209712Y-134513206D01*
X126203682Y-134515891D01*
X126203681Y-134515891D01*
X126120557Y-134552900D01*
X126035248Y-134590882D01*
X126034323Y-134588804D01*
X125975512Y-134603076D01*
X125908419Y-134579859D01*
X125864528Y-134524055D01*
X125855500Y-134477218D01*
X125855500Y-131826000D01*
X128155634Y-131826000D01*
X128175066Y-132072911D01*
X128176220Y-132077718D01*
X128176221Y-132077724D01*
X128180161Y-132094133D01*
X128232885Y-132313742D01*
X128234778Y-132318313D01*
X128234779Y-132318315D01*
X128322765Y-132530730D01*
X128327666Y-132542563D01*
X128457075Y-132753740D01*
X128617927Y-132942073D01*
X128806260Y-133102925D01*
X129017437Y-133232334D01*
X129022007Y-133234227D01*
X129022011Y-133234229D01*
X129241685Y-133325221D01*
X129246258Y-133327115D01*
X129331170Y-133347501D01*
X129482276Y-133383779D01*
X129482282Y-133383780D01*
X129487089Y-133384934D01*
X129734000Y-133404366D01*
X129980911Y-133384934D01*
X129985718Y-133383780D01*
X129985724Y-133383779D01*
X130136830Y-133347501D01*
X130221742Y-133327115D01*
X130226315Y-133325221D01*
X130445989Y-133234229D01*
X130445993Y-133234227D01*
X130450563Y-133232334D01*
X130661740Y-133102925D01*
X130850073Y-132942073D01*
X131010925Y-132753740D01*
X131140334Y-132542563D01*
X131145236Y-132530730D01*
X131233221Y-132318315D01*
X131233222Y-132318313D01*
X131235115Y-132313742D01*
X131287839Y-132094133D01*
X131291779Y-132077724D01*
X131291780Y-132077718D01*
X131292934Y-132072911D01*
X131312366Y-131826000D01*
X131292934Y-131579089D01*
X131291780Y-131574282D01*
X131291779Y-131574276D01*
X131236270Y-131343070D01*
X131235115Y-131338258D01*
X131140334Y-131109437D01*
X131010925Y-130898260D01*
X130850073Y-130709927D01*
X130661740Y-130549075D01*
X130450563Y-130419666D01*
X130445993Y-130417773D01*
X130445985Y-130417769D01*
X130445291Y-130417482D01*
X130445067Y-130417302D01*
X130441580Y-130415525D01*
X130441953Y-130414793D01*
X130390006Y-130372938D01*
X130367500Y-130301070D01*
X130367500Y-125050930D01*
X130387502Y-124982809D01*
X130441989Y-124937277D01*
X130441580Y-124936475D01*
X130445088Y-124934688D01*
X130445291Y-124934518D01*
X130445985Y-124934231D01*
X130445993Y-124934227D01*
X130450563Y-124932334D01*
X130661740Y-124802925D01*
X130850073Y-124642073D01*
X131010925Y-124453740D01*
X131140334Y-124242563D01*
X131235115Y-124013742D01*
X131255501Y-123928830D01*
X131291779Y-123777724D01*
X131291780Y-123777718D01*
X131292934Y-123772911D01*
X131312366Y-123526000D01*
X131292934Y-123279089D01*
X131291780Y-123274282D01*
X131291779Y-123274276D01*
X131236270Y-123043070D01*
X131235115Y-123038258D01*
X131140334Y-122809437D01*
X131010925Y-122598260D01*
X130850073Y-122409927D01*
X130661740Y-122249075D01*
X130450563Y-122119666D01*
X130382342Y-122091408D01*
X130327062Y-122046859D01*
X130304641Y-121979496D01*
X130322199Y-121910705D01*
X130374162Y-121862326D01*
X130430561Y-121848999D01*
X130743669Y-121848999D01*
X130750490Y-121848629D01*
X130801352Y-121843105D01*
X130816604Y-121839479D01*
X130937054Y-121794324D01*
X130952649Y-121785786D01*
X131054724Y-121709285D01*
X131067285Y-121696724D01*
X131143786Y-121594649D01*
X131152324Y-121579054D01*
X131197478Y-121458606D01*
X131201105Y-121443351D01*
X131206631Y-121392486D01*
X131207000Y-121385672D01*
X131207000Y-120698115D01*
X131202525Y-120682876D01*
X131201135Y-120681671D01*
X131193452Y-120680000D01*
X128279116Y-120680000D01*
X128263877Y-120684475D01*
X128262672Y-120685865D01*
X128261001Y-120693548D01*
X128261001Y-121385669D01*
X128261371Y-121392490D01*
X128266895Y-121443352D01*
X128270521Y-121458604D01*
X128315676Y-121579054D01*
X128324214Y-121594649D01*
X128400715Y-121696724D01*
X128413276Y-121709285D01*
X128515351Y-121785786D01*
X128530946Y-121794324D01*
X128651394Y-121839478D01*
X128666649Y-121843105D01*
X128717514Y-121848631D01*
X128724328Y-121849000D01*
X129037438Y-121849000D01*
X129105559Y-121869002D01*
X129152052Y-121922658D01*
X129162156Y-121992932D01*
X129132662Y-122057512D01*
X129085657Y-122091408D01*
X129057360Y-122103129D01*
X129022011Y-122117771D01*
X129022007Y-122117773D01*
X129017437Y-122119666D01*
X128806260Y-122249075D01*
X128617927Y-122409927D01*
X128457075Y-122598260D01*
X128327666Y-122809437D01*
X128232885Y-123038258D01*
X128231730Y-123043070D01*
X128176221Y-123274276D01*
X128176220Y-123274282D01*
X128175066Y-123279089D01*
X128155634Y-123526000D01*
X128175066Y-123772911D01*
X128176220Y-123777718D01*
X128176221Y-123777724D01*
X128212499Y-123928830D01*
X128232885Y-124013742D01*
X128327666Y-124242563D01*
X128457075Y-124453740D01*
X128617927Y-124642073D01*
X128806260Y-124802925D01*
X129017437Y-124932334D01*
X129022007Y-124934227D01*
X129022015Y-124934231D01*
X129022709Y-124934518D01*
X129022933Y-124934698D01*
X129026420Y-124936475D01*
X129026047Y-124937207D01*
X129077994Y-124979062D01*
X129100500Y-125050930D01*
X129100500Y-130301070D01*
X129080498Y-130369191D01*
X129026011Y-130414723D01*
X129026420Y-130415525D01*
X129022912Y-130417312D01*
X129022709Y-130417482D01*
X129022015Y-130417769D01*
X129022007Y-130417773D01*
X129017437Y-130419666D01*
X128806260Y-130549075D01*
X128617927Y-130709927D01*
X128457075Y-130898260D01*
X128327666Y-131109437D01*
X128232885Y-131338258D01*
X128231730Y-131343070D01*
X128176221Y-131574276D01*
X128176220Y-131574282D01*
X128175066Y-131579089D01*
X128155634Y-131826000D01*
X125855500Y-131826000D01*
X125855500Y-120153885D01*
X128261000Y-120153885D01*
X128265475Y-120169124D01*
X128266865Y-120170329D01*
X128274548Y-120172000D01*
X129461885Y-120172000D01*
X129477124Y-120167525D01*
X129478329Y-120166135D01*
X129480000Y-120158452D01*
X129480000Y-120153885D01*
X129988000Y-120153885D01*
X129992475Y-120169124D01*
X129993865Y-120170329D01*
X130001548Y-120172000D01*
X131188884Y-120172000D01*
X131204123Y-120167525D01*
X131205328Y-120166135D01*
X131206999Y-120158452D01*
X131206999Y-120153885D01*
X141529000Y-120153885D01*
X141533475Y-120169124D01*
X141534865Y-120170329D01*
X141542548Y-120172000D01*
X142729885Y-120172000D01*
X142745124Y-120167525D01*
X142746329Y-120166135D01*
X142748000Y-120158452D01*
X142748000Y-120153885D01*
X143256000Y-120153885D01*
X143260475Y-120169124D01*
X143261865Y-120170329D01*
X143269548Y-120172000D01*
X144456884Y-120172000D01*
X144472123Y-120167525D01*
X144473328Y-120166135D01*
X144474999Y-120158452D01*
X144474999Y-119466331D01*
X144474629Y-119459510D01*
X144469105Y-119408648D01*
X144465479Y-119393396D01*
X144420324Y-119272946D01*
X144411786Y-119257351D01*
X144335285Y-119155276D01*
X144322724Y-119142715D01*
X144220649Y-119066214D01*
X144205054Y-119057676D01*
X144084606Y-119012522D01*
X144069351Y-119008895D01*
X144018486Y-119003369D01*
X144011672Y-119003000D01*
X143274115Y-119003000D01*
X143258876Y-119007475D01*
X143257671Y-119008865D01*
X143256000Y-119016548D01*
X143256000Y-120153885D01*
X142748000Y-120153885D01*
X142748000Y-119021116D01*
X142743525Y-119005877D01*
X142742135Y-119004672D01*
X142734452Y-119003001D01*
X141992331Y-119003001D01*
X141985510Y-119003371D01*
X141934648Y-119008895D01*
X141919396Y-119012521D01*
X141798946Y-119057676D01*
X141783351Y-119066214D01*
X141681276Y-119142715D01*
X141668715Y-119155276D01*
X141592214Y-119257351D01*
X141583676Y-119272946D01*
X141538522Y-119393394D01*
X141534895Y-119408649D01*
X141529369Y-119459514D01*
X141529000Y-119466328D01*
X141529000Y-120153885D01*
X131206999Y-120153885D01*
X131206999Y-119466331D01*
X131206629Y-119459510D01*
X131201105Y-119408648D01*
X131197479Y-119393396D01*
X131152324Y-119272946D01*
X131143786Y-119257351D01*
X131067285Y-119155276D01*
X131054724Y-119142715D01*
X130952649Y-119066214D01*
X130937054Y-119057676D01*
X130816606Y-119012522D01*
X130801351Y-119008895D01*
X130750486Y-119003369D01*
X130743672Y-119003000D01*
X130006115Y-119003000D01*
X129990876Y-119007475D01*
X129989671Y-119008865D01*
X129988000Y-119016548D01*
X129988000Y-120153885D01*
X129480000Y-120153885D01*
X129480000Y-119021116D01*
X129475525Y-119005877D01*
X129474135Y-119004672D01*
X129466452Y-119003001D01*
X128724331Y-119003001D01*
X128717510Y-119003371D01*
X128666648Y-119008895D01*
X128651396Y-119012521D01*
X128530946Y-119057676D01*
X128515351Y-119066214D01*
X128413276Y-119142715D01*
X128400715Y-119155276D01*
X128324214Y-119257351D01*
X128315676Y-119272946D01*
X128270522Y-119393394D01*
X128266895Y-119408649D01*
X128261369Y-119459514D01*
X128261000Y-119466328D01*
X128261000Y-120153885D01*
X125855500Y-120153885D01*
X125855500Y-114887310D01*
X125875502Y-114819189D01*
X125929158Y-114772696D01*
X125999432Y-114762592D01*
X126064012Y-114792086D01*
X126070516Y-114798135D01*
X126071427Y-114799044D01*
X126076697Y-114804305D01*
X126082927Y-114808145D01*
X126082928Y-114808146D01*
X126220090Y-114892694D01*
X126227262Y-114897115D01*
X126280168Y-114914663D01*
X126388611Y-114950632D01*
X126388613Y-114950632D01*
X126395139Y-114952797D01*
X126401975Y-114953497D01*
X126401978Y-114953498D01*
X126445031Y-114957909D01*
X126499600Y-114963500D01*
X127500400Y-114963500D01*
X127503646Y-114963163D01*
X127503650Y-114963163D01*
X127599308Y-114953238D01*
X127599312Y-114953237D01*
X127606166Y-114952526D01*
X127612702Y-114950345D01*
X127612704Y-114950345D01*
X127744806Y-114906272D01*
X127773946Y-114896550D01*
X127924348Y-114803478D01*
X128049305Y-114678303D01*
X128050195Y-114679191D01*
X128102039Y-114642432D01*
X128172962Y-114639199D01*
X128234374Y-114674822D01*
G37*
%TD.AperFunction*%
%TA.AperFunction,Conductor*%
G36*
X145291886Y-104310815D02*
G01*
X145336976Y-104339736D01*
X145424697Y-104427305D01*
X145430929Y-104431147D01*
X145430931Y-104431148D01*
X145467117Y-104453454D01*
X145514610Y-104506226D01*
X145527000Y-104560713D01*
X145527000Y-113084905D01*
X145506998Y-113153026D01*
X145453342Y-113199519D01*
X145383068Y-113209623D01*
X145318488Y-113180129D01*
X145311905Y-113174000D01*
X144521652Y-112383747D01*
X144514112Y-112375461D01*
X144510000Y-112368982D01*
X144460348Y-112322356D01*
X144457507Y-112319602D01*
X144437770Y-112299865D01*
X144434573Y-112297385D01*
X144425551Y-112289680D01*
X144412122Y-112277069D01*
X144393321Y-112259414D01*
X144386375Y-112255595D01*
X144386372Y-112255593D01*
X144375566Y-112249652D01*
X144359047Y-112238801D01*
X144358583Y-112238441D01*
X144343041Y-112226386D01*
X144335772Y-112223241D01*
X144335768Y-112223238D01*
X144302463Y-112208826D01*
X144291813Y-112203609D01*
X144253060Y-112182305D01*
X144233437Y-112177267D01*
X144214734Y-112170863D01*
X144203420Y-112165967D01*
X144203419Y-112165967D01*
X144196145Y-112162819D01*
X144188322Y-112161580D01*
X144188312Y-112161577D01*
X144152476Y-112155901D01*
X144140856Y-112153495D01*
X144105711Y-112144472D01*
X144105710Y-112144472D01*
X144098030Y-112142500D01*
X144077776Y-112142500D01*
X144058065Y-112140949D01*
X144045886Y-112139020D01*
X144038057Y-112137780D01*
X144008786Y-112140547D01*
X143994039Y-112141941D01*
X143982181Y-112142500D01*
X141556768Y-112142500D01*
X141545585Y-112141973D01*
X141538092Y-112140298D01*
X141530166Y-112140547D01*
X141530165Y-112140547D01*
X141470002Y-112142438D01*
X141466044Y-112142500D01*
X141438144Y-112142500D01*
X141434154Y-112143004D01*
X141422320Y-112143936D01*
X141378111Y-112145326D01*
X141370497Y-112147538D01*
X141370492Y-112147539D01*
X141358659Y-112150977D01*
X141339296Y-112154988D01*
X141319203Y-112157526D01*
X141311836Y-112160443D01*
X141311831Y-112160444D01*
X141278092Y-112173802D01*
X141266865Y-112177646D01*
X141224407Y-112189982D01*
X141217581Y-112194019D01*
X141206972Y-112200293D01*
X141189224Y-112208988D01*
X141170383Y-112216448D01*
X141163967Y-112221110D01*
X141163966Y-112221110D01*
X141134613Y-112242436D01*
X141124693Y-112248952D01*
X141093465Y-112267420D01*
X141093462Y-112267422D01*
X141086638Y-112271458D01*
X141072317Y-112285779D01*
X141057284Y-112298619D01*
X141040893Y-112310528D01*
X141017641Y-112338635D01*
X141012712Y-112344593D01*
X141004722Y-112353374D01*
X140323742Y-113034353D01*
X140315463Y-113041887D01*
X140308982Y-113046000D01*
X140265370Y-113092443D01*
X140204159Y-113128408D01*
X140186523Y-113131517D01*
X140116693Y-113138762D01*
X140116690Y-113138763D01*
X140109834Y-113139474D01*
X140103298Y-113141655D01*
X140103296Y-113141655D01*
X140006785Y-113173854D01*
X139942054Y-113195450D01*
X139791652Y-113288522D01*
X139666695Y-113413697D01*
X139665805Y-113412809D01*
X139613961Y-113449568D01*
X139543038Y-113452801D01*
X139481626Y-113417178D01*
X139480417Y-113415786D01*
X139478478Y-113412652D01*
X139353303Y-113287695D01*
X139344287Y-113282137D01*
X139224214Y-113208123D01*
X139176721Y-113155351D01*
X139165297Y-113085279D01*
X139181211Y-113037863D01*
X139181267Y-113037767D01*
X139250999Y-112916988D01*
X139261223Y-112899279D01*
X139261224Y-112899278D01*
X139264527Y-112893556D01*
X139323542Y-112711928D01*
X139325340Y-112694827D01*
X139342814Y-112528565D01*
X139343504Y-112522000D01*
X139328317Y-112377502D01*
X139324232Y-112338635D01*
X139324232Y-112338633D01*
X139323542Y-112332072D01*
X139264527Y-112150444D01*
X139260228Y-112142997D01*
X139195566Y-112031000D01*
X139169040Y-111985056D01*
X139145992Y-111959458D01*
X139045675Y-111848045D01*
X139045674Y-111848044D01*
X139041253Y-111843134D01*
X138886752Y-111730882D01*
X138880724Y-111728198D01*
X138880722Y-111728197D01*
X138718319Y-111655891D01*
X138718318Y-111655891D01*
X138712288Y-111653206D01*
X138618888Y-111633353D01*
X138531944Y-111614872D01*
X138531939Y-111614872D01*
X138525487Y-111613500D01*
X138334513Y-111613500D01*
X138328061Y-111614872D01*
X138328056Y-111614872D01*
X138241112Y-111633353D01*
X138147712Y-111653206D01*
X138141682Y-111655891D01*
X138141681Y-111655891D01*
X137979278Y-111728197D01*
X137979276Y-111728198D01*
X137973248Y-111730882D01*
X137818747Y-111843134D01*
X137814326Y-111848044D01*
X137814325Y-111848045D01*
X137714009Y-111959458D01*
X137690960Y-111985056D01*
X137664434Y-112031000D01*
X137599773Y-112142997D01*
X137595473Y-112150444D01*
X137536458Y-112332072D01*
X137535768Y-112338633D01*
X137535768Y-112338635D01*
X137531683Y-112377502D01*
X137516496Y-112522000D01*
X137517186Y-112528565D01*
X137534661Y-112694827D01*
X137536458Y-112711928D01*
X137595473Y-112893556D01*
X137598776Y-112899278D01*
X137598777Y-112899279D01*
X137678733Y-113037767D01*
X137695471Y-113106762D01*
X137672250Y-113173854D01*
X137635917Y-113207911D01*
X137551633Y-113260068D01*
X137505652Y-113288522D01*
X137380695Y-113413697D01*
X137376855Y-113419927D01*
X137376854Y-113419928D01*
X137301942Y-113541458D01*
X137287885Y-113564262D01*
X137232203Y-113732139D01*
X137221500Y-113836600D01*
X137221500Y-114431406D01*
X137201498Y-114499527D01*
X137147842Y-114546020D01*
X137077568Y-114556124D01*
X137012988Y-114526630D01*
X137006424Y-114520520D01*
X136139641Y-113653736D01*
X136132112Y-113645462D01*
X136128000Y-113638982D01*
X136078348Y-113592356D01*
X136075507Y-113589602D01*
X136055770Y-113569865D01*
X136052573Y-113567385D01*
X136043551Y-113559680D01*
X136030116Y-113547064D01*
X136011321Y-113529414D01*
X136004375Y-113525595D01*
X136004372Y-113525593D01*
X135993566Y-113519652D01*
X135977047Y-113508801D01*
X135976583Y-113508441D01*
X135961041Y-113496386D01*
X135953772Y-113493241D01*
X135953768Y-113493238D01*
X135920463Y-113478826D01*
X135909813Y-113473609D01*
X135871060Y-113452305D01*
X135851437Y-113447267D01*
X135832734Y-113440863D01*
X135821420Y-113435967D01*
X135821419Y-113435967D01*
X135814145Y-113432819D01*
X135806322Y-113431580D01*
X135806312Y-113431577D01*
X135770476Y-113425901D01*
X135758856Y-113423495D01*
X135723711Y-113414472D01*
X135723710Y-113414472D01*
X135716030Y-113412500D01*
X135695776Y-113412500D01*
X135676065Y-113410949D01*
X135673534Y-113410548D01*
X135656057Y-113407780D01*
X135648165Y-113408526D01*
X135612039Y-113411941D01*
X135600181Y-113412500D01*
X134444763Y-113412500D01*
X134433579Y-113411973D01*
X134426091Y-113410299D01*
X134418168Y-113410548D01*
X134358033Y-113412438D01*
X134354075Y-113412500D01*
X134326144Y-113412500D01*
X134322229Y-113412995D01*
X134322225Y-113412995D01*
X134322167Y-113413003D01*
X134322138Y-113413006D01*
X134310296Y-113413939D01*
X134266110Y-113415327D01*
X134248744Y-113420372D01*
X134246658Y-113420978D01*
X134227306Y-113424986D01*
X134215068Y-113426532D01*
X134215066Y-113426533D01*
X134207203Y-113427526D01*
X134166086Y-113443806D01*
X134154885Y-113447641D01*
X134112406Y-113459982D01*
X134105587Y-113464015D01*
X134105582Y-113464017D01*
X134094971Y-113470293D01*
X134077221Y-113478990D01*
X134058383Y-113486448D01*
X134051967Y-113491109D01*
X134051966Y-113491110D01*
X134022625Y-113512428D01*
X134012701Y-113518947D01*
X133981460Y-113537422D01*
X133981455Y-113537426D01*
X133974637Y-113541458D01*
X133960313Y-113555782D01*
X133945281Y-113568621D01*
X133928893Y-113580528D01*
X133900712Y-113614593D01*
X133892722Y-113623373D01*
X133592747Y-113923348D01*
X133584461Y-113930888D01*
X133577982Y-113935000D01*
X133572557Y-113940777D01*
X133531357Y-113984651D01*
X133528602Y-113987493D01*
X133508865Y-114007230D01*
X133506385Y-114010427D01*
X133498682Y-114019447D01*
X133468414Y-114051679D01*
X133464595Y-114058625D01*
X133464593Y-114058628D01*
X133458652Y-114069434D01*
X133447801Y-114085953D01*
X133435386Y-114101959D01*
X133433349Y-114106665D01*
X133382369Y-114154268D01*
X133312519Y-114166974D01*
X133261667Y-114150131D01*
X133135221Y-114075352D01*
X133120790Y-114069107D01*
X132986395Y-114030061D01*
X132972294Y-114030101D01*
X132969000Y-114037370D01*
X132969000Y-115633000D01*
X132948998Y-115701121D01*
X132895342Y-115747614D01*
X132843000Y-115759000D01*
X132587000Y-115759000D01*
X132518879Y-115738998D01*
X132472386Y-115685342D01*
X132461000Y-115633000D01*
X132461000Y-114043122D01*
X132457027Y-114029591D01*
X132449129Y-114028456D01*
X132309210Y-114069107D01*
X132294779Y-114075352D01*
X132268639Y-114090811D01*
X132199823Y-114108270D01*
X132132491Y-114085753D01*
X132088022Y-114030409D01*
X132078500Y-113982357D01*
X132078500Y-113489763D01*
X132079027Y-113478579D01*
X132080701Y-113471091D01*
X132078562Y-113403032D01*
X132078500Y-113399075D01*
X132078500Y-113371144D01*
X132077994Y-113367138D01*
X132077061Y-113355292D01*
X132075922Y-113319037D01*
X132075673Y-113311110D01*
X132070022Y-113291658D01*
X132066014Y-113272306D01*
X132064468Y-113260068D01*
X132064467Y-113260066D01*
X132063474Y-113252203D01*
X132047194Y-113211086D01*
X132043359Y-113199885D01*
X132031018Y-113157406D01*
X132026985Y-113150587D01*
X132026983Y-113150582D01*
X132020707Y-113139971D01*
X132012010Y-113122221D01*
X132004552Y-113103383D01*
X131999890Y-113096966D01*
X131996073Y-113090023D01*
X131998900Y-113088469D01*
X131980053Y-113035602D01*
X131996151Y-112966454D01*
X132047079Y-112916988D01*
X132093997Y-112903001D01*
X132103967Y-112902059D01*
X132115819Y-112901500D01*
X135557233Y-112901500D01*
X135568416Y-112902027D01*
X135575909Y-112903702D01*
X135583835Y-112903453D01*
X135583836Y-112903453D01*
X135643986Y-112901562D01*
X135647945Y-112901500D01*
X135675856Y-112901500D01*
X135679791Y-112901003D01*
X135679856Y-112900995D01*
X135691693Y-112900062D01*
X135723951Y-112899048D01*
X135727970Y-112898922D01*
X135735889Y-112898673D01*
X135755343Y-112893021D01*
X135774700Y-112889013D01*
X135786930Y-112887468D01*
X135786931Y-112887468D01*
X135794797Y-112886474D01*
X135802168Y-112883555D01*
X135802170Y-112883555D01*
X135835912Y-112870196D01*
X135847142Y-112866351D01*
X135881983Y-112856229D01*
X135881984Y-112856229D01*
X135889593Y-112854018D01*
X135896412Y-112849985D01*
X135896417Y-112849983D01*
X135907028Y-112843707D01*
X135924776Y-112835012D01*
X135943617Y-112827552D01*
X135979387Y-112801564D01*
X135989307Y-112795048D01*
X136020535Y-112776580D01*
X136020538Y-112776578D01*
X136027362Y-112772542D01*
X136041683Y-112758221D01*
X136056717Y-112745380D01*
X136066694Y-112738131D01*
X136073107Y-112733472D01*
X136101298Y-112699395D01*
X136109288Y-112690616D01*
X137536136Y-111263768D01*
X139090363Y-111263768D01*
X139124846Y-111380932D01*
X139129439Y-111392300D01*
X139217586Y-111560911D01*
X139224302Y-111571173D01*
X139343515Y-111719443D01*
X139352103Y-111728213D01*
X139497838Y-111850499D01*
X139507969Y-111857437D01*
X139674692Y-111949094D01*
X139685962Y-111953924D01*
X139867315Y-112011452D01*
X139879309Y-112014002D01*
X140027350Y-112030607D01*
X140034374Y-112031000D01*
X140041885Y-112031000D01*
X140057124Y-112026525D01*
X140058329Y-112025135D01*
X140060000Y-112017452D01*
X140060000Y-112012885D01*
X140568000Y-112012885D01*
X140572475Y-112028124D01*
X140573865Y-112029329D01*
X140581548Y-112031000D01*
X140586890Y-112031000D01*
X140593035Y-112030700D01*
X140734481Y-112016830D01*
X140746519Y-112014447D01*
X140928651Y-111959458D01*
X140939993Y-111954783D01*
X141107977Y-111865465D01*
X141118193Y-111858678D01*
X141265634Y-111738428D01*
X141274338Y-111729784D01*
X141395610Y-111583191D01*
X141402470Y-111573020D01*
X141492962Y-111405658D01*
X141497714Y-111394353D01*
X141536422Y-111269308D01*
X141536628Y-111255205D01*
X141529873Y-111252000D01*
X140586115Y-111252000D01*
X140570876Y-111256475D01*
X140569671Y-111257865D01*
X140568000Y-111265548D01*
X140568000Y-112012885D01*
X140060000Y-112012885D01*
X140060000Y-111270115D01*
X140055525Y-111254876D01*
X140054135Y-111253671D01*
X140046452Y-111252000D01*
X139105014Y-111252000D01*
X139091483Y-111255973D01*
X139090363Y-111263768D01*
X137536136Y-111263768D01*
X138875275Y-109924629D01*
X138937587Y-109890603D01*
X139008402Y-109895668D01*
X139065238Y-109938215D01*
X139085243Y-109978149D01*
X139124376Y-110111111D01*
X139124381Y-110111122D01*
X139126119Y-110117029D01*
X139128972Y-110122486D01*
X139128973Y-110122489D01*
X139217162Y-110291181D01*
X139217165Y-110291185D01*
X139220019Y-110296645D01*
X139220221Y-110296897D01*
X139240201Y-110362912D01*
X139225041Y-110423885D01*
X139135038Y-110590342D01*
X139130286Y-110601647D01*
X139091578Y-110726692D01*
X139091372Y-110740795D01*
X139098127Y-110744000D01*
X139867758Y-110744000D01*
X139881803Y-110744785D01*
X140030817Y-110761500D01*
X140590004Y-110761500D01*
X140740713Y-110746723D01*
X140743002Y-110746032D01*
X140763724Y-110744000D01*
X141522986Y-110744000D01*
X141536517Y-110740027D01*
X141537637Y-110732232D01*
X141503154Y-110615068D01*
X141498561Y-110603700D01*
X141468331Y-110545875D01*
X141454497Y-110476239D01*
X141480507Y-110410179D01*
X141538103Y-110368667D01*
X141579993Y-110361500D01*
X141671405Y-110361500D01*
X141739526Y-110381502D01*
X141760501Y-110398405D01*
X142394853Y-111032758D01*
X142402387Y-111041037D01*
X142406500Y-111047518D01*
X142455918Y-111093924D01*
X142456151Y-111094143D01*
X142458993Y-111096898D01*
X142478730Y-111116635D01*
X142481927Y-111119115D01*
X142490947Y-111126818D01*
X142523179Y-111157086D01*
X142530125Y-111160905D01*
X142530128Y-111160907D01*
X142540934Y-111166848D01*
X142557453Y-111177699D01*
X142562475Y-111181594D01*
X142573459Y-111190114D01*
X142580738Y-111193264D01*
X142586963Y-111196945D01*
X142629968Y-111239095D01*
X142715522Y-111377348D01*
X142840697Y-111502305D01*
X142846927Y-111506145D01*
X142846928Y-111506146D01*
X142984090Y-111590694D01*
X142991262Y-111595115D01*
X143050828Y-111614872D01*
X143152611Y-111648632D01*
X143152613Y-111648632D01*
X143159139Y-111650797D01*
X143165975Y-111651497D01*
X143165978Y-111651498D01*
X143208856Y-111655891D01*
X143263600Y-111661500D01*
X144264400Y-111661500D01*
X144267646Y-111661163D01*
X144267650Y-111661163D01*
X144363308Y-111651238D01*
X144363312Y-111651237D01*
X144370166Y-111650526D01*
X144376702Y-111648345D01*
X144376704Y-111648345D01*
X144508806Y-111604272D01*
X144537946Y-111594550D01*
X144688348Y-111501478D01*
X144813305Y-111376303D01*
X144863059Y-111295588D01*
X144902275Y-111231968D01*
X144902276Y-111231966D01*
X144906115Y-111225738D01*
X144936643Y-111133699D01*
X144959632Y-111064389D01*
X144959632Y-111064387D01*
X144961797Y-111057861D01*
X144962996Y-111046166D01*
X144970493Y-110972989D01*
X144972500Y-110953400D01*
X144972500Y-110327600D01*
X144971854Y-110321373D01*
X144962238Y-110228692D01*
X144962237Y-110228688D01*
X144961526Y-110221834D01*
X144956744Y-110207499D01*
X144907868Y-110061002D01*
X144905550Y-110054054D01*
X144812478Y-109903652D01*
X144725891Y-109817216D01*
X144691812Y-109754934D01*
X144696815Y-109684114D01*
X144725736Y-109639025D01*
X144808134Y-109556483D01*
X144813305Y-109551303D01*
X144819607Y-109541079D01*
X144902275Y-109406968D01*
X144902276Y-109406966D01*
X144906115Y-109400738D01*
X144948478Y-109273016D01*
X144959632Y-109239389D01*
X144959632Y-109239387D01*
X144961797Y-109232861D01*
X144963995Y-109211414D01*
X144969499Y-109157689D01*
X144972500Y-109128400D01*
X144972500Y-108502600D01*
X144969112Y-108469946D01*
X144962238Y-108403692D01*
X144962237Y-108403688D01*
X144961526Y-108396834D01*
X144905550Y-108229054D01*
X144812478Y-108078652D01*
X144687303Y-107953695D01*
X144649184Y-107930198D01*
X144542968Y-107864725D01*
X144542966Y-107864724D01*
X144536738Y-107860885D01*
X144483832Y-107843337D01*
X144425473Y-107802906D01*
X144398236Y-107737342D01*
X144397500Y-107723744D01*
X144397500Y-107248595D01*
X144417502Y-107180474D01*
X144434405Y-107159499D01*
X144727758Y-106866147D01*
X144736037Y-106858613D01*
X144742518Y-106854500D01*
X144789144Y-106804848D01*
X144791898Y-106802007D01*
X144811635Y-106782270D01*
X144814115Y-106779073D01*
X144821820Y-106770051D01*
X144835151Y-106755855D01*
X144852086Y-106737821D01*
X144855905Y-106730875D01*
X144855907Y-106730872D01*
X144861848Y-106720066D01*
X144872699Y-106703547D01*
X144880258Y-106693801D01*
X144885114Y-106687541D01*
X144888259Y-106680272D01*
X144888262Y-106680268D01*
X144902674Y-106646963D01*
X144907891Y-106636313D01*
X144929195Y-106597560D01*
X144934233Y-106577937D01*
X144940637Y-106559234D01*
X144945533Y-106547920D01*
X144945533Y-106547919D01*
X144948681Y-106540645D01*
X144949920Y-106532822D01*
X144949923Y-106532812D01*
X144955599Y-106496976D01*
X144958005Y-106485356D01*
X144967028Y-106450211D01*
X144967028Y-106450210D01*
X144969000Y-106442530D01*
X144969000Y-106422276D01*
X144970551Y-106402565D01*
X144972480Y-106390386D01*
X144973720Y-106382557D01*
X144969559Y-106338538D01*
X144969000Y-106326681D01*
X144969000Y-104560634D01*
X144989002Y-104492513D01*
X145028697Y-104453490D01*
X145056861Y-104436062D01*
X145072348Y-104426478D01*
X145158784Y-104339891D01*
X145221066Y-104305812D01*
X145291886Y-104310815D01*
G37*
%TD.AperFunction*%
%TA.AperFunction,Conductor*%
G36*
X140867312Y-86505502D02*
G01*
X140913805Y-86559158D01*
X140923909Y-86629432D01*
X140894415Y-86694012D01*
X140834689Y-86732396D01*
X140825774Y-86734402D01*
X140825789Y-86734465D01*
X140594906Y-86789895D01*
X140590335Y-86791788D01*
X140590333Y-86791789D01*
X140380111Y-86878865D01*
X140380107Y-86878867D01*
X140375537Y-86880760D01*
X140371317Y-86883346D01*
X140177298Y-87002241D01*
X140177292Y-87002245D01*
X140173084Y-87004824D01*
X139992531Y-87159031D01*
X139838324Y-87339584D01*
X139835745Y-87343792D01*
X139835741Y-87343798D01*
X139716846Y-87537817D01*
X139714260Y-87542037D01*
X139712367Y-87546607D01*
X139712365Y-87546611D01*
X139702248Y-87571037D01*
X139623395Y-87761406D01*
X139567965Y-87992289D01*
X139549335Y-88229000D01*
X139567965Y-88465711D01*
X139569119Y-88470518D01*
X139569120Y-88470524D01*
X139604140Y-88616391D01*
X139623395Y-88696594D01*
X139714260Y-88915963D01*
X139716846Y-88920183D01*
X139835741Y-89114202D01*
X139835745Y-89114208D01*
X139838324Y-89118416D01*
X139992531Y-89298969D01*
X140173084Y-89453176D01*
X140177292Y-89455755D01*
X140177298Y-89455759D01*
X140368835Y-89573133D01*
X140375537Y-89577240D01*
X140380107Y-89579133D01*
X140380111Y-89579135D01*
X140590333Y-89666211D01*
X140594906Y-89668105D01*
X140646810Y-89680566D01*
X140820976Y-89722380D01*
X140820982Y-89722381D01*
X140825789Y-89723535D01*
X141062500Y-89742165D01*
X141299211Y-89723535D01*
X141304018Y-89722381D01*
X141304024Y-89722380D01*
X141478190Y-89680566D01*
X141530094Y-89668105D01*
X141534667Y-89666211D01*
X141744889Y-89579135D01*
X141744893Y-89579133D01*
X141749463Y-89577240D01*
X141756165Y-89573133D01*
X141947702Y-89455759D01*
X141947708Y-89455755D01*
X141951916Y-89453176D01*
X142132469Y-89298969D01*
X142135677Y-89295213D01*
X142135682Y-89295208D01*
X142216689Y-89200361D01*
X142276139Y-89161551D01*
X142347134Y-89161045D01*
X142408311Y-89200361D01*
X142489318Y-89295208D01*
X142489323Y-89295213D01*
X142492531Y-89298969D01*
X142673084Y-89453176D01*
X142677292Y-89455755D01*
X142677298Y-89455759D01*
X142868835Y-89573133D01*
X142916466Y-89625781D01*
X142929000Y-89680566D01*
X142929000Y-91812877D01*
X142908998Y-91880998D01*
X142855342Y-91927491D01*
X142785068Y-91937595D01*
X142730729Y-91916090D01*
X142602749Y-91826477D01*
X142597767Y-91824154D01*
X142597762Y-91824151D01*
X142400225Y-91732039D01*
X142400224Y-91732039D01*
X142395243Y-91729716D01*
X142389935Y-91728294D01*
X142389933Y-91728293D01*
X142179402Y-91671881D01*
X142179400Y-91671881D01*
X142174087Y-91670457D01*
X141946000Y-91650502D01*
X141717913Y-91670457D01*
X141712600Y-91671881D01*
X141712598Y-91671881D01*
X141502067Y-91728293D01*
X141502065Y-91728294D01*
X141496757Y-91729716D01*
X141491776Y-91732039D01*
X141491775Y-91732039D01*
X141294238Y-91824151D01*
X141294233Y-91824154D01*
X141289251Y-91826477D01*
X141211387Y-91880998D01*
X141106211Y-91954643D01*
X141106208Y-91954645D01*
X141101700Y-91957802D01*
X140939802Y-92119700D01*
X140808477Y-92307251D01*
X140806154Y-92312233D01*
X140806151Y-92312238D01*
X140765631Y-92399135D01*
X140711716Y-92514757D01*
X140710294Y-92520065D01*
X140710293Y-92520067D01*
X140668119Y-92677463D01*
X140652457Y-92735913D01*
X140632502Y-92964000D01*
X140652457Y-93192087D01*
X140653881Y-93197400D01*
X140653881Y-93197402D01*
X140710185Y-93407528D01*
X140711716Y-93413243D01*
X140714039Y-93418224D01*
X140714039Y-93418225D01*
X140806151Y-93615762D01*
X140806154Y-93615767D01*
X140808477Y-93620749D01*
X140811634Y-93625257D01*
X140919829Y-93779775D01*
X140939802Y-93808300D01*
X141101700Y-93970198D01*
X141106208Y-93973355D01*
X141106211Y-93973357D01*
X141152706Y-94005913D01*
X141289251Y-94101523D01*
X141294233Y-94103846D01*
X141294238Y-94103849D01*
X141399591Y-94152975D01*
X141496757Y-94198284D01*
X141502064Y-94199706D01*
X141502075Y-94199710D01*
X141513109Y-94202666D01*
X141573732Y-94239616D01*
X141604755Y-94303476D01*
X141606500Y-94324373D01*
X141606500Y-95231500D01*
X141586498Y-95299621D01*
X141532842Y-95346114D01*
X141480500Y-95357500D01*
X141382513Y-95357500D01*
X141376061Y-95358872D01*
X141376056Y-95358872D01*
X141316540Y-95371523D01*
X141195712Y-95397206D01*
X141189682Y-95399891D01*
X141189681Y-95399891D01*
X141027278Y-95472197D01*
X141027276Y-95472198D01*
X141021248Y-95474882D01*
X141015907Y-95478762D01*
X141015906Y-95478763D01*
X140936304Y-95536598D01*
X140866747Y-95587134D01*
X140862329Y-95592040D01*
X140862322Y-95592047D01*
X140832791Y-95624845D01*
X140785538Y-95657687D01*
X140770098Y-95663800D01*
X140758869Y-95667645D01*
X140716407Y-95679982D01*
X140709585Y-95684016D01*
X140709579Y-95684019D01*
X140698968Y-95690294D01*
X140681218Y-95698990D01*
X140669756Y-95703528D01*
X140669751Y-95703531D01*
X140662383Y-95706448D01*
X140655968Y-95711109D01*
X140626625Y-95732427D01*
X140616707Y-95738943D01*
X140598019Y-95749995D01*
X140578637Y-95761458D01*
X140564313Y-95775782D01*
X140549281Y-95788621D01*
X140532893Y-95800528D01*
X140504712Y-95834593D01*
X140496722Y-95843373D01*
X139862000Y-96478095D01*
X139799688Y-96512121D01*
X139772905Y-96515000D01*
X139199600Y-96515000D01*
X139196354Y-96515337D01*
X139196350Y-96515337D01*
X139100692Y-96525262D01*
X139100688Y-96525263D01*
X139093834Y-96525974D01*
X139087298Y-96528155D01*
X139087296Y-96528155D01*
X138960077Y-96570599D01*
X138926054Y-96581950D01*
X138775652Y-96675022D01*
X138650695Y-96800197D01*
X138646855Y-96806427D01*
X138646854Y-96806428D01*
X138568092Y-96934204D01*
X138557885Y-96950762D01*
X138554478Y-96961035D01*
X138549274Y-96976723D01*
X138508844Y-97035084D01*
X138443280Y-97062321D01*
X138373398Y-97049788D01*
X138321386Y-97001464D01*
X138310157Y-96976933D01*
X138303412Y-96956716D01*
X138297239Y-96943538D01*
X138211937Y-96805693D01*
X138202901Y-96794292D01*
X138088171Y-96679761D01*
X138076760Y-96670749D01*
X137938757Y-96585684D01*
X137925576Y-96579537D01*
X137771290Y-96528362D01*
X137757914Y-96525495D01*
X137663562Y-96515828D01*
X137657145Y-96515500D01*
X137432115Y-96515500D01*
X137416876Y-96519975D01*
X137415671Y-96521365D01*
X137414000Y-96529048D01*
X137414000Y-97664000D01*
X137393998Y-97732121D01*
X137340342Y-97778614D01*
X137288000Y-97790000D01*
X137032000Y-97790000D01*
X136963879Y-97769998D01*
X136917386Y-97716342D01*
X136906000Y-97664000D01*
X136906000Y-96533616D01*
X136901525Y-96518377D01*
X136900135Y-96517172D01*
X136892452Y-96515501D01*
X136662905Y-96515501D01*
X136656386Y-96515838D01*
X136560794Y-96525757D01*
X136547400Y-96528649D01*
X136393216Y-96580088D01*
X136380038Y-96586261D01*
X136242193Y-96671563D01*
X136230792Y-96680599D01*
X136116261Y-96795329D01*
X136107249Y-96806740D01*
X136022184Y-96944743D01*
X136016037Y-96957924D01*
X135964862Y-97112210D01*
X135961994Y-97125592D01*
X135961868Y-97126816D01*
X135961580Y-97127522D01*
X135960553Y-97132311D01*
X135959698Y-97132128D01*
X135935023Y-97192541D01*
X135876906Y-97233320D01*
X135805968Y-97236205D01*
X135785276Y-97229073D01*
X135670319Y-97177891D01*
X135670318Y-97177891D01*
X135664288Y-97175206D01*
X135570888Y-97155353D01*
X135483944Y-97136872D01*
X135483939Y-97136872D01*
X135477487Y-97135500D01*
X135286513Y-97135500D01*
X135280061Y-97136872D01*
X135280056Y-97136872D01*
X135193113Y-97155353D01*
X135099712Y-97175206D01*
X134970748Y-97232624D01*
X134900382Y-97242058D01*
X134836085Y-97211952D01*
X134798271Y-97151863D01*
X134793697Y-97118935D01*
X134793597Y-97118939D01*
X134793557Y-97117930D01*
X134793500Y-97117517D01*
X134793500Y-97113998D01*
X134793307Y-97111542D01*
X134791067Y-97083079D01*
X134791066Y-97083074D01*
X134790562Y-97076669D01*
X134746426Y-96924749D01*
X134746357Y-96924512D01*
X134746356Y-96924510D01*
X134744145Y-96916899D01*
X134699612Y-96841598D01*
X134663491Y-96780520D01*
X134663489Y-96780517D01*
X134659453Y-96773693D01*
X134541807Y-96656047D01*
X134534983Y-96652011D01*
X134534980Y-96652009D01*
X134413368Y-96580088D01*
X134398601Y-96571355D01*
X134399048Y-96570599D01*
X134349566Y-96529420D01*
X134328209Y-96461712D01*
X134346849Y-96393206D01*
X134402622Y-96344881D01*
X134405593Y-96344018D01*
X134412421Y-96339980D01*
X134412423Y-96339979D01*
X134423028Y-96333707D01*
X134440776Y-96325012D01*
X134459617Y-96317552D01*
X134495387Y-96291564D01*
X134505307Y-96285048D01*
X134536535Y-96266580D01*
X134536538Y-96266578D01*
X134543362Y-96262542D01*
X134557683Y-96248221D01*
X134572717Y-96235380D01*
X134582694Y-96228131D01*
X134589107Y-96223472D01*
X134617298Y-96189395D01*
X134625288Y-96180616D01*
X136532752Y-94273152D01*
X136595064Y-94239126D01*
X136654459Y-94240541D01*
X136712591Y-94256118D01*
X136712602Y-94256120D01*
X136717913Y-94257543D01*
X136946000Y-94277498D01*
X137174087Y-94257543D01*
X137179400Y-94256119D01*
X137179402Y-94256119D01*
X137389933Y-94199707D01*
X137389935Y-94199706D01*
X137395243Y-94198284D01*
X137400229Y-94195959D01*
X137597762Y-94103849D01*
X137597767Y-94103846D01*
X137602749Y-94101523D01*
X137739294Y-94005913D01*
X137785789Y-93973357D01*
X137785792Y-93973355D01*
X137790300Y-93970198D01*
X137952198Y-93808300D01*
X137972172Y-93779775D01*
X138080366Y-93625257D01*
X138083523Y-93620749D01*
X138085846Y-93615767D01*
X138085849Y-93615762D01*
X138177961Y-93418225D01*
X138177961Y-93418224D01*
X138180284Y-93413243D01*
X138181816Y-93407528D01*
X138238119Y-93197402D01*
X138238119Y-93197400D01*
X138239543Y-93192087D01*
X138259498Y-92964000D01*
X138239543Y-92735913D01*
X138223881Y-92677463D01*
X138181707Y-92520067D01*
X138181706Y-92520065D01*
X138180284Y-92514757D01*
X138126369Y-92399135D01*
X138085849Y-92312238D01*
X138085846Y-92312233D01*
X138083523Y-92307251D01*
X137952198Y-92119700D01*
X137790300Y-91957802D01*
X137785792Y-91954645D01*
X137785789Y-91954643D01*
X137680613Y-91880998D01*
X137602749Y-91826477D01*
X137597767Y-91824154D01*
X137597762Y-91824151D01*
X137400225Y-91732039D01*
X137400224Y-91732039D01*
X137395243Y-91729716D01*
X137389935Y-91728294D01*
X137389933Y-91728293D01*
X137179402Y-91671881D01*
X137179400Y-91671881D01*
X137174087Y-91670457D01*
X136946000Y-91650502D01*
X136717913Y-91670457D01*
X136712600Y-91671881D01*
X136712598Y-91671881D01*
X136502067Y-91728293D01*
X136502065Y-91728294D01*
X136496757Y-91729716D01*
X136491776Y-91732039D01*
X136491775Y-91732039D01*
X136294238Y-91824151D01*
X136294233Y-91824154D01*
X136289251Y-91826477D01*
X136211387Y-91880998D01*
X136106211Y-91954643D01*
X136106208Y-91954645D01*
X136101700Y-91957802D01*
X135939802Y-92119700D01*
X135808477Y-92307251D01*
X135806154Y-92312233D01*
X135806151Y-92312238D01*
X135765631Y-92399135D01*
X135711716Y-92514757D01*
X135710294Y-92520065D01*
X135710293Y-92520067D01*
X135668119Y-92677463D01*
X135652457Y-92735913D01*
X135632502Y-92964000D01*
X135652457Y-93192087D01*
X135653880Y-93197398D01*
X135653882Y-93197409D01*
X135669459Y-93255541D01*
X135667770Y-93326517D01*
X135636848Y-93377248D01*
X135498094Y-93516002D01*
X135435782Y-93550028D01*
X135364967Y-93544963D01*
X135308131Y-93502416D01*
X135283320Y-93435896D01*
X135282999Y-93426907D01*
X135282999Y-93228905D01*
X135282662Y-93222386D01*
X135272743Y-93126794D01*
X135269851Y-93113400D01*
X135218412Y-92959216D01*
X135212239Y-92946038D01*
X135126937Y-92808193D01*
X135117901Y-92796792D01*
X135003171Y-92682261D01*
X134991760Y-92673249D01*
X134853757Y-92588184D01*
X134840576Y-92582037D01*
X134686290Y-92530862D01*
X134672914Y-92527995D01*
X134578562Y-92518328D01*
X134572145Y-92518000D01*
X134534615Y-92518000D01*
X134519376Y-92522475D01*
X134518171Y-92523865D01*
X134516500Y-92531548D01*
X134516500Y-93854000D01*
X134496498Y-93922121D01*
X134442842Y-93968614D01*
X134390500Y-93980000D01*
X134134500Y-93980000D01*
X134066379Y-93959998D01*
X134019886Y-93906342D01*
X134008500Y-93854000D01*
X134008500Y-92536116D01*
X134004025Y-92520877D01*
X134002635Y-92519672D01*
X133994952Y-92518001D01*
X133952905Y-92518001D01*
X133946386Y-92518338D01*
X133850794Y-92528257D01*
X133837400Y-92531149D01*
X133683216Y-92582588D01*
X133670042Y-92588759D01*
X133629804Y-92613660D01*
X133561352Y-92632498D01*
X133493582Y-92611337D01*
X133448011Y-92556897D01*
X133437500Y-92506516D01*
X133437500Y-89709566D01*
X133457502Y-89641445D01*
X133497665Y-89602133D01*
X133689202Y-89484759D01*
X133689208Y-89484755D01*
X133693416Y-89482176D01*
X133873969Y-89327969D01*
X134028176Y-89147416D01*
X134030755Y-89143208D01*
X134030759Y-89143202D01*
X134149654Y-88949183D01*
X134152240Y-88944963D01*
X134162505Y-88920183D01*
X134241211Y-88730167D01*
X134241212Y-88730165D01*
X134243105Y-88725594D01*
X134298535Y-88494711D01*
X134317165Y-88258000D01*
X134298535Y-88021289D01*
X134292758Y-87997223D01*
X134244260Y-87795218D01*
X134243105Y-87790406D01*
X134152240Y-87571037D01*
X134131883Y-87537817D01*
X134030759Y-87372798D01*
X134030755Y-87372792D01*
X134028176Y-87368584D01*
X133873969Y-87188031D01*
X133693416Y-87033824D01*
X133689203Y-87031242D01*
X133689202Y-87031241D01*
X133495183Y-86912346D01*
X133490963Y-86909760D01*
X133486393Y-86907867D01*
X133486389Y-86907865D01*
X133276167Y-86820789D01*
X133276165Y-86820788D01*
X133271594Y-86818895D01*
X133173193Y-86795271D01*
X133045524Y-86764620D01*
X133045518Y-86764619D01*
X133040711Y-86763465D01*
X132804000Y-86744835D01*
X132567289Y-86763465D01*
X132562482Y-86764619D01*
X132562476Y-86764620D01*
X132434807Y-86795271D01*
X132336406Y-86818895D01*
X132331835Y-86820788D01*
X132331833Y-86820789D01*
X132121611Y-86907865D01*
X132121607Y-86907867D01*
X132117037Y-86909760D01*
X132112817Y-86912346D01*
X131918798Y-87031241D01*
X131918797Y-87031242D01*
X131914584Y-87033824D01*
X131734031Y-87188031D01*
X131730823Y-87191787D01*
X131730818Y-87191792D01*
X131649811Y-87286639D01*
X131590361Y-87325449D01*
X131519366Y-87325955D01*
X131458189Y-87286639D01*
X131377182Y-87191792D01*
X131377177Y-87191787D01*
X131373969Y-87188031D01*
X131193416Y-87033824D01*
X131189203Y-87031242D01*
X131189202Y-87031241D01*
X130995183Y-86912346D01*
X130990963Y-86909760D01*
X130986393Y-86907867D01*
X130986389Y-86907865D01*
X130776167Y-86820789D01*
X130776165Y-86820788D01*
X130771594Y-86818895D01*
X130673193Y-86795271D01*
X130545524Y-86764620D01*
X130545518Y-86764619D01*
X130540711Y-86763465D01*
X130304000Y-86744835D01*
X130067289Y-86763465D01*
X130062482Y-86764619D01*
X130062476Y-86764620D01*
X129934807Y-86795271D01*
X129836406Y-86818895D01*
X129831835Y-86820788D01*
X129831833Y-86820789D01*
X129621611Y-86907865D01*
X129621607Y-86907867D01*
X129617037Y-86909760D01*
X129612817Y-86912346D01*
X129418798Y-87031241D01*
X129418797Y-87031242D01*
X129414584Y-87033824D01*
X129234031Y-87188031D01*
X129230823Y-87191787D01*
X129230818Y-87191792D01*
X129149811Y-87286639D01*
X129090361Y-87325449D01*
X129019366Y-87325955D01*
X128958189Y-87286639D01*
X128877182Y-87191792D01*
X128877177Y-87191787D01*
X128873969Y-87188031D01*
X128844412Y-87162787D01*
X128697170Y-87037030D01*
X128697168Y-87037029D01*
X128693416Y-87033824D01*
X128693790Y-87033386D01*
X128652521Y-86979862D01*
X128646450Y-86909126D01*
X128680844Y-86845060D01*
X128810070Y-86715835D01*
X129003501Y-86522404D01*
X129065813Y-86488379D01*
X129092596Y-86485500D01*
X140799191Y-86485500D01*
X140867312Y-86505502D01*
G37*
%TD.AperFunction*%
%TD*%
M02*
