M48
; DRILL file {KiCad (6.0.0-0)} date Monday, December 05, 2022 at 04:43:47 PM
; FORMAT={-:-/ absolute / inch / decimal}
; #@! TF.CreationDate,2022-12-05T16:43:47-05:00
; #@! TF.GenerationSoftware,Kicad,Pcbnew,(6.0.0-0)
; #@! TF.FileFunction,Plated,1,2,PTH
FMAT,2
INCH
; #@! TA.AperFunction,Plated,PTH,ViaDrill
T1C0.0157
; #@! TA.AperFunction,Plated,PTH,ComponentDrill
T2C0.0197
; #@! TA.AperFunction,Plated,PTH,ComponentDrill
T3C0.0295
; #@! TA.AperFunction,Plated,PTH,ComponentDrill
T4C0.0315
; #@! TA.AperFunction,Plated,PTH,ComponentDrill
T5C0.0394
; #@! TA.AperFunction,Plated,PTH,ComponentDrill
T6C0.0433
; #@! TA.AperFunction,Plated,PTH,ComponentDrill
T7C0.0472
; #@! TA.AperFunction,Plated,PTH,ComponentDrill
T8C0.0480
; #@! TA.AperFunction,Plated,PTH,ComponentDrill
T9C0.0559
; #@! TA.AperFunction,Plated,PTH,ComponentDrill
T10C0.0563
; #@! TA.AperFunction,Plated,PTH,ComponentDrill
T11C0.1181
%
G90
G05
T1
X4.88Y-3.79
X4.98Y-3.61
X4.98Y-5.33
X5.04Y-4.58
X5.05Y-4.05
X5.16Y-4.45
X5.23Y-4.47
X5.29Y-3.61
X5.33Y-3.86
X5.33Y-4.12
X5.45Y-3.96
X5.45Y-4.43
X5.45Y-4.19
X5.57Y-3.79
X5.79Y-5.01
X5.8Y-4.37
T2
X4.8514Y-2.4
X4.8514Y-6.09
X4.8774Y-2.3374
X4.8774Y-2.4626
X4.8774Y-6.0274
X4.8774Y-6.1526
X4.94Y-2.3114
X4.94Y-2.4886
X4.94Y-6.0014
X4.94Y-6.1786
X5.0026Y-2.3374
X5.0026Y-2.4626
X5.0026Y-6.0274
X5.0026Y-6.1526
X5.0286Y-2.4
X5.0286Y-6.09
X5.7514Y-2.4
X5.7514Y-6.09
X5.7774Y-2.3374
X5.7774Y-2.4626
X5.7774Y-6.0274
X5.7774Y-6.1526
X5.84Y-2.3114
X5.84Y-2.4886
X5.84Y-6.0014
X5.84Y-6.1786
X5.9026Y-2.3374
X5.9026Y-2.4626
X5.9026Y-6.0274
X5.9026Y-6.1526
X5.9286Y-2.4
X5.9286Y-6.09
T3
X5.5242Y-4.27
X5.5242Y-4.32
X5.5242Y-4.37
T4
X5.3916Y-3.66
X5.5884Y-3.66
X5.77Y-3.71
X5.8684Y-3.71
T5
X5.0454Y-2.7
X5.0454Y-2.8
X5.145Y-2.8
X5.1454Y-2.7
X5.245Y-2.8
X5.2454Y-2.7
X5.345Y-2.8
X5.3454Y-2.7
X5.445Y-2.8
X5.4454Y-2.7
X5.545Y-2.8
X5.5454Y-2.7
X5.645Y-2.8
X5.6454Y-2.7
X5.745Y-2.8
X5.7454Y-2.7
T7
X5.0317Y-3.4747
X5.1301Y-3.4747
X5.2285Y-3.4747
X5.5292Y-5.401
X5.5536Y-3.4736
X5.6276Y-5.401
X5.6521Y-3.4736
X5.7261Y-5.401
X5.7505Y-3.4736
T8
X5.1076Y-4.7412
X5.11Y-5.4282
X5.63Y-4.7412
T9
X5.1076Y-4.8632
X5.11Y-5.5502
X5.63Y-4.8632
T10
X5.1076Y-5.19
X5.11Y-5.877
X5.63Y-5.19
T11
X4.94Y-2.4
X4.94Y-6.09
X5.84Y-2.4
X5.84Y-6.09
T6
G00X4.9411Y-3.2011
M15
G01X4.9411Y-3.1578
M16
G05
G00X5.3191Y-3.1578
M15
G01X5.3191Y-3.2011
M16
G05
G00X5.4387Y-5.718
M15
G01X5.4387Y-5.6746
M16
G05
G00X5.4631Y-3.2
M15
G01X5.4631Y-3.1567
M16
G05
G00X5.8166Y-5.6746
M15
G01X5.8166Y-5.718
M16
G05
G00X5.841Y-3.1567
M15
G01X5.841Y-3.2
M16
G05
T0
M30
