%TF.GenerationSoftware,KiCad,Pcbnew,(6.0.0-0)*%
%TF.CreationDate,2022-12-05T16:43:45-05:00*%
%TF.ProjectId,LFO,4c464f2e-6b69-4636-9164-5f7063625858,rev?*%
%TF.SameCoordinates,Original*%
%TF.FileFunction,Soldermask,Bot*%
%TF.FilePolarity,Negative*%
%FSLAX46Y46*%
G04 Gerber Fmt 4.6, Leading zero omitted, Abs format (unit mm)*
G04 Created by KiCad (PCBNEW (6.0.0-0)) date 2022-12-05 16:43:45*
%MOMM*%
%LPD*%
G01*
G04 APERTURE LIST*
G04 Aperture macros list*
%AMRoundRect*
0 Rectangle with rounded corners*
0 $1 Rounding radius*
0 $2 $3 $4 $5 $6 $7 $8 $9 X,Y pos of 4 corners*
0 Add a 4 corners polygon primitive as box body*
4,1,4,$2,$3,$4,$5,$6,$7,$8,$9,$2,$3,0*
0 Add four circle primitives for the rounded corners*
1,1,$1+$1,$2,$3*
1,1,$1+$1,$4,$5*
1,1,$1+$1,$6,$7*
1,1,$1+$1,$8,$9*
0 Add four rect primitives between the rounded corners*
20,1,$1+$1,$2,$3,$4,$5,0*
20,1,$1+$1,$4,$5,$6,$7,0*
20,1,$1+$1,$6,$7,$8,$9,0*
20,1,$1+$1,$8,$9,$2,$3,0*%
G04 Aperture macros list end*
%ADD10RoundRect,0.150000X0.150000X-0.825000X0.150000X0.825000X-0.150000X0.825000X-0.150000X-0.825000X0*%
%ADD11R,1.600000X1.600000*%
%ADD12C,1.600000*%
%ADD13RoundRect,0.250000X0.450000X-0.262500X0.450000X0.262500X-0.450000X0.262500X-0.450000X-0.262500X0*%
%ADD14RoundRect,0.250000X-0.450000X0.262500X-0.450000X-0.262500X0.450000X-0.262500X0.450000X0.262500X0*%
%ADD15RoundRect,0.250000X-0.262500X-0.450000X0.262500X-0.450000X0.262500X0.450000X-0.262500X0.450000X0*%
%ADD16RoundRect,0.250000X0.262500X0.450000X-0.262500X0.450000X-0.262500X-0.450000X0.262500X-0.450000X0*%
%ADD17R,1.500000X1.050000*%
%ADD18O,1.500000X1.050000*%
%ADD19C,1.700000*%
%ADD20RoundRect,0.250000X-0.600000X0.600000X-0.600000X-0.600000X0.600000X-0.600000X0.600000X0.600000X0*%
%ADD21O,2.720000X3.240000*%
%ADD22C,2.000000*%
%ADD23R,1.930000X1.830000*%
%ADD24C,2.130000*%
%ADD25C,6.000000*%
%ADD26C,0.800000*%
G04 APERTURE END LIST*
D10*
%TO.C,U3*%
X135255000Y-115505000D03*
X133985000Y-115505000D03*
X132715000Y-115505000D03*
X131445000Y-115505000D03*
X131445000Y-110555000D03*
X132715000Y-110555000D03*
X133985000Y-110555000D03*
X135255000Y-110555000D03*
%TD*%
%TO.C,U2*%
X133985000Y-102955500D03*
X132715000Y-102955500D03*
X131445000Y-102955500D03*
X130175000Y-102955500D03*
X130175000Y-98005500D03*
X131445000Y-98005500D03*
X132715000Y-98005500D03*
X133985000Y-98005500D03*
%TD*%
D11*
%TO.C,C2*%
X146558000Y-94234000D03*
D12*
X149058000Y-94234000D03*
%TD*%
D13*
%TO.C,R13*%
X143002000Y-115974500D03*
X143002000Y-114149500D03*
%TD*%
D14*
%TO.C,R3*%
X142200000Y-101703500D03*
X142200000Y-103528500D03*
%TD*%
D15*
%TO.C,R7*%
X130556000Y-93726000D03*
X128731000Y-93726000D03*
%TD*%
D14*
%TO.C,R2*%
X139700000Y-101703500D03*
X139700000Y-103528500D03*
%TD*%
D16*
%TO.C,R4*%
X132437500Y-93726000D03*
X134262500Y-93726000D03*
%TD*%
D14*
%TO.C,R9*%
X139700000Y-97536000D03*
X139700000Y-99361000D03*
%TD*%
%TO.C,R8*%
X137160000Y-97536000D03*
X137160000Y-99361000D03*
%TD*%
D13*
%TO.C,R15*%
X127000000Y-113942500D03*
X127000000Y-112117500D03*
%TD*%
%TO.C,R14*%
X129286000Y-113942500D03*
X129286000Y-112117500D03*
%TD*%
D14*
%TO.C,R1*%
X137160000Y-101703500D03*
X137160000Y-103528500D03*
%TD*%
%TO.C,R12*%
X143764000Y-110640500D03*
X143764000Y-108815500D03*
%TD*%
D17*
%TO.C,Q1*%
X140314000Y-108458000D03*
D18*
X140314000Y-109728000D03*
X140314000Y-110998000D03*
%TD*%
D15*
%TO.C,R17*%
X134112000Y-107696000D03*
X135937000Y-107696000D03*
%TD*%
%TO.C,R16*%
X130556000Y-107696000D03*
X132381000Y-107696000D03*
%TD*%
D13*
%TO.C,R19*%
X125984000Y-99615000D03*
X125984000Y-97790000D03*
%TD*%
%TO.C,R18*%
X123952000Y-99615000D03*
X123952000Y-97790000D03*
%TD*%
D15*
%TO.C,R5*%
X146160500Y-100584000D03*
X144335500Y-100584000D03*
%TD*%
D12*
%TO.C,C1*%
X136946000Y-92964000D03*
X141946000Y-92964000D03*
%TD*%
D14*
%TO.C,R11*%
X140716000Y-115974500D03*
X140716000Y-114149500D03*
%TD*%
%TO.C,R10*%
X138430000Y-114149500D03*
X138430000Y-115974500D03*
%TD*%
D15*
%TO.C,R6*%
X146160500Y-103378000D03*
X144335500Y-103378000D03*
%TD*%
D19*
%TO.C,U1*%
X145922000Y-71120000D03*
X145934000Y-68580000D03*
X143394000Y-68580000D03*
X143382000Y-71120000D03*
X140842000Y-71120000D03*
X140854000Y-68580000D03*
X138314000Y-68580000D03*
X138302000Y-71120000D03*
X135762000Y-71120000D03*
X135774000Y-68580000D03*
X133222000Y-71120000D03*
X133234000Y-68580000D03*
X130694000Y-68580000D03*
X130682000Y-71120000D03*
X128154000Y-71120000D03*
D20*
X128154000Y-68580000D03*
%TD*%
D21*
%TO.C,RV3*%
X138142000Y-144686000D03*
X147742000Y-144686000D03*
D22*
X145442000Y-137186000D03*
X142942000Y-137186000D03*
X140442000Y-137186000D03*
%TD*%
D21*
%TO.C,RV2*%
X135104000Y-80758000D03*
X125504000Y-80758000D03*
D22*
X127804000Y-88258000D03*
X130304000Y-88258000D03*
X132804000Y-88258000D03*
%TD*%
D21*
%TO.C,RV1*%
X148362500Y-80729000D03*
X138762500Y-80729000D03*
D22*
X141062500Y-88229000D03*
X143562500Y-88229000D03*
X146062500Y-88229000D03*
%TD*%
D23*
%TO.C,J3*%
X129734000Y-120426000D03*
D24*
X129734000Y-123526000D03*
X129734000Y-131826000D03*
%TD*%
D23*
%TO.C,J2*%
X143002000Y-120426000D03*
D24*
X143002000Y-123526000D03*
X143002000Y-131826000D03*
%TD*%
D23*
%TO.C,J1*%
X129794000Y-137876000D03*
D24*
X129794000Y-140976000D03*
X129794000Y-149276000D03*
%TD*%
D25*
%TO.C,H4*%
X148336000Y-60960000D03*
D26*
X150586000Y-60960000D03*
X149926990Y-62550990D03*
X148336000Y-63210000D03*
X146745010Y-62550990D03*
X146086000Y-60960000D03*
X146745010Y-59369010D03*
X148336000Y-58710000D03*
X149926990Y-59369010D03*
%TD*%
D25*
%TO.C,H3*%
X125476000Y-154686000D03*
D26*
X127726000Y-154686000D03*
X127066990Y-156276990D03*
X125476000Y-156936000D03*
X123885010Y-156276990D03*
X123226000Y-154686000D03*
X123885010Y-153095010D03*
X125476000Y-152436000D03*
X127066990Y-153095010D03*
%TD*%
D25*
%TO.C,H2*%
X148336000Y-154686000D03*
D26*
X150586000Y-154686000D03*
X149926990Y-156276990D03*
X148336000Y-156936000D03*
X146745010Y-156276990D03*
X146086000Y-154686000D03*
X146745010Y-153095010D03*
X148336000Y-152436000D03*
X149926990Y-153095010D03*
%TD*%
D25*
%TO.C,H1*%
X125476000Y-60960000D03*
D26*
X127726000Y-60960000D03*
X127066990Y-62550990D03*
X125476000Y-63210000D03*
X123885010Y-62550990D03*
X123226000Y-60960000D03*
X123885010Y-59369010D03*
X125476000Y-58710000D03*
X127066990Y-59369010D03*
%TD*%
M02*
