%TF.GenerationSoftware,KiCad,Pcbnew,(6.0.0-0)*%
%TF.CreationDate,2022-12-05T16:43:45-05:00*%
%TF.ProjectId,LFO,4c464f2e-6b69-4636-9164-5f7063625858,rev?*%
%TF.SameCoordinates,Original*%
%TF.FileFunction,Soldermask,Top*%
%TF.FilePolarity,Negative*%
%FSLAX46Y46*%
G04 Gerber Fmt 4.6, Leading zero omitted, Abs format (unit mm)*
G04 Created by KiCad (PCBNEW (6.0.0-0)) date 2022-12-05 16:43:45*
%MOMM*%
%LPD*%
G01*
G04 APERTURE LIST*
G04 Aperture macros list*
%AMRoundRect*
0 Rectangle with rounded corners*
0 $1 Rounding radius*
0 $2 $3 $4 $5 $6 $7 $8 $9 X,Y pos of 4 corners*
0 Add a 4 corners polygon primitive as box body*
4,1,4,$2,$3,$4,$5,$6,$7,$8,$9,$2,$3,0*
0 Add four circle primitives for the rounded corners*
1,1,$1+$1,$2,$3*
1,1,$1+$1,$4,$5*
1,1,$1+$1,$6,$7*
1,1,$1+$1,$8,$9*
0 Add four rect primitives between the rounded corners*
20,1,$1+$1,$2,$3,$4,$5,0*
20,1,$1+$1,$4,$5,$6,$7,0*
20,1,$1+$1,$6,$7,$8,$9,0*
20,1,$1+$1,$8,$9,$2,$3,0*%
G04 Aperture macros list end*
%ADD10R,1.600000X1.600000*%
%ADD11C,1.600000*%
%ADD12R,1.500000X1.050000*%
%ADD13O,1.500000X1.050000*%
%ADD14C,1.700000*%
%ADD15RoundRect,0.250000X-0.600000X0.600000X-0.600000X-0.600000X0.600000X-0.600000X0.600000X0.600000X0*%
%ADD16O,2.720000X3.240000*%
%ADD17C,2.000000*%
%ADD18R,1.930000X1.830000*%
%ADD19C,2.130000*%
%ADD20C,6.000000*%
%ADD21C,0.800000*%
G04 APERTURE END LIST*
D10*
%TO.C,C2*%
X146558000Y-94234000D03*
D11*
X149058000Y-94234000D03*
%TD*%
D12*
%TO.C,Q1*%
X140314000Y-108458000D03*
D13*
X140314000Y-109728000D03*
X140314000Y-110998000D03*
%TD*%
D11*
%TO.C,C1*%
X136946000Y-92964000D03*
X141946000Y-92964000D03*
%TD*%
D14*
%TO.C,U1*%
X145922000Y-71120000D03*
X145934000Y-68580000D03*
X143394000Y-68580000D03*
X143382000Y-71120000D03*
X140842000Y-71120000D03*
X140854000Y-68580000D03*
X138314000Y-68580000D03*
X138302000Y-71120000D03*
X135762000Y-71120000D03*
X135774000Y-68580000D03*
X133222000Y-71120000D03*
X133234000Y-68580000D03*
X130694000Y-68580000D03*
X130682000Y-71120000D03*
X128154000Y-71120000D03*
D15*
X128154000Y-68580000D03*
%TD*%
D16*
%TO.C,RV3*%
X138142000Y-144686000D03*
X147742000Y-144686000D03*
D17*
X145442000Y-137186000D03*
X142942000Y-137186000D03*
X140442000Y-137186000D03*
%TD*%
D16*
%TO.C,RV2*%
X135104000Y-80758000D03*
X125504000Y-80758000D03*
D17*
X127804000Y-88258000D03*
X130304000Y-88258000D03*
X132804000Y-88258000D03*
%TD*%
D16*
%TO.C,RV1*%
X148362500Y-80729000D03*
X138762500Y-80729000D03*
D17*
X141062500Y-88229000D03*
X143562500Y-88229000D03*
X146062500Y-88229000D03*
%TD*%
D18*
%TO.C,J3*%
X129734000Y-120426000D03*
D19*
X129734000Y-123526000D03*
X129734000Y-131826000D03*
%TD*%
D18*
%TO.C,J2*%
X143002000Y-120426000D03*
D19*
X143002000Y-123526000D03*
X143002000Y-131826000D03*
%TD*%
D18*
%TO.C,J1*%
X129794000Y-137876000D03*
D19*
X129794000Y-140976000D03*
X129794000Y-149276000D03*
%TD*%
D20*
%TO.C,H4*%
X148336000Y-60960000D03*
D21*
X150586000Y-60960000D03*
X149926990Y-62550990D03*
X148336000Y-63210000D03*
X146745010Y-62550990D03*
X146086000Y-60960000D03*
X146745010Y-59369010D03*
X148336000Y-58710000D03*
X149926990Y-59369010D03*
%TD*%
D20*
%TO.C,H3*%
X125476000Y-154686000D03*
D21*
X127726000Y-154686000D03*
X127066990Y-156276990D03*
X125476000Y-156936000D03*
X123885010Y-156276990D03*
X123226000Y-154686000D03*
X123885010Y-153095010D03*
X125476000Y-152436000D03*
X127066990Y-153095010D03*
%TD*%
D20*
%TO.C,H2*%
X148336000Y-154686000D03*
D21*
X150586000Y-154686000D03*
X149926990Y-156276990D03*
X148336000Y-156936000D03*
X146745010Y-156276990D03*
X146086000Y-154686000D03*
X146745010Y-153095010D03*
X148336000Y-152436000D03*
X149926990Y-153095010D03*
%TD*%
D20*
%TO.C,H1*%
X125476000Y-60960000D03*
D21*
X127726000Y-60960000D03*
X127066990Y-62550990D03*
X125476000Y-63210000D03*
X123885010Y-62550990D03*
X123226000Y-60960000D03*
X123885010Y-59369010D03*
X125476000Y-58710000D03*
X127066990Y-59369010D03*
%TD*%
M02*
