%TF.GenerationSoftware,KiCad,Pcbnew,(6.0.0-0)*%
%TF.CreationDate,2022-12-05T16:43:45-05:00*%
%TF.ProjectId,LFO,4c464f2e-6b69-4636-9164-5f7063625858,rev?*%
%TF.SameCoordinates,Original*%
%TF.FileFunction,Paste,Bot*%
%TF.FilePolarity,Positive*%
%FSLAX46Y46*%
G04 Gerber Fmt 4.6, Leading zero omitted, Abs format (unit mm)*
G04 Created by KiCad (PCBNEW (6.0.0-0)) date 2022-12-05 16:43:45*
%MOMM*%
%LPD*%
G01*
G04 APERTURE LIST*
G04 Aperture macros list*
%AMRoundRect*
0 Rectangle with rounded corners*
0 $1 Rounding radius*
0 $2 $3 $4 $5 $6 $7 $8 $9 X,Y pos of 4 corners*
0 Add a 4 corners polygon primitive as box body*
4,1,4,$2,$3,$4,$5,$6,$7,$8,$9,$2,$3,0*
0 Add four circle primitives for the rounded corners*
1,1,$1+$1,$2,$3*
1,1,$1+$1,$4,$5*
1,1,$1+$1,$6,$7*
1,1,$1+$1,$8,$9*
0 Add four rect primitives between the rounded corners*
20,1,$1+$1,$2,$3,$4,$5,0*
20,1,$1+$1,$4,$5,$6,$7,0*
20,1,$1+$1,$6,$7,$8,$9,0*
20,1,$1+$1,$8,$9,$2,$3,0*%
G04 Aperture macros list end*
%ADD10RoundRect,0.150000X0.150000X-0.825000X0.150000X0.825000X-0.150000X0.825000X-0.150000X-0.825000X0*%
%ADD11RoundRect,0.250000X0.450000X-0.262500X0.450000X0.262500X-0.450000X0.262500X-0.450000X-0.262500X0*%
%ADD12RoundRect,0.250000X-0.450000X0.262500X-0.450000X-0.262500X0.450000X-0.262500X0.450000X0.262500X0*%
%ADD13RoundRect,0.250000X-0.262500X-0.450000X0.262500X-0.450000X0.262500X0.450000X-0.262500X0.450000X0*%
%ADD14RoundRect,0.250000X0.262500X0.450000X-0.262500X0.450000X-0.262500X-0.450000X0.262500X-0.450000X0*%
G04 APERTURE END LIST*
D10*
%TO.C,U3*%
X135255000Y-115505000D03*
X133985000Y-115505000D03*
X132715000Y-115505000D03*
X131445000Y-115505000D03*
X131445000Y-110555000D03*
X132715000Y-110555000D03*
X133985000Y-110555000D03*
X135255000Y-110555000D03*
%TD*%
%TO.C,U2*%
X133985000Y-102955500D03*
X132715000Y-102955500D03*
X131445000Y-102955500D03*
X130175000Y-102955500D03*
X130175000Y-98005500D03*
X131445000Y-98005500D03*
X132715000Y-98005500D03*
X133985000Y-98005500D03*
%TD*%
D11*
%TO.C,R13*%
X143002000Y-115974500D03*
X143002000Y-114149500D03*
%TD*%
D12*
%TO.C,R3*%
X142200000Y-101703500D03*
X142200000Y-103528500D03*
%TD*%
D13*
%TO.C,R7*%
X130556000Y-93726000D03*
X128731000Y-93726000D03*
%TD*%
D12*
%TO.C,R2*%
X139700000Y-101703500D03*
X139700000Y-103528500D03*
%TD*%
D14*
%TO.C,R4*%
X132437500Y-93726000D03*
X134262500Y-93726000D03*
%TD*%
D12*
%TO.C,R9*%
X139700000Y-97536000D03*
X139700000Y-99361000D03*
%TD*%
%TO.C,R8*%
X137160000Y-97536000D03*
X137160000Y-99361000D03*
%TD*%
D11*
%TO.C,R15*%
X127000000Y-113942500D03*
X127000000Y-112117500D03*
%TD*%
%TO.C,R14*%
X129286000Y-113942500D03*
X129286000Y-112117500D03*
%TD*%
D12*
%TO.C,R1*%
X137160000Y-101703500D03*
X137160000Y-103528500D03*
%TD*%
%TO.C,R12*%
X143764000Y-110640500D03*
X143764000Y-108815500D03*
%TD*%
D13*
%TO.C,R17*%
X134112000Y-107696000D03*
X135937000Y-107696000D03*
%TD*%
%TO.C,R16*%
X130556000Y-107696000D03*
X132381000Y-107696000D03*
%TD*%
D11*
%TO.C,R19*%
X125984000Y-99615000D03*
X125984000Y-97790000D03*
%TD*%
%TO.C,R18*%
X123952000Y-99615000D03*
X123952000Y-97790000D03*
%TD*%
D13*
%TO.C,R5*%
X146160500Y-100584000D03*
X144335500Y-100584000D03*
%TD*%
D12*
%TO.C,R11*%
X140716000Y-115974500D03*
X140716000Y-114149500D03*
%TD*%
%TO.C,R10*%
X138430000Y-114149500D03*
X138430000Y-115974500D03*
%TD*%
D13*
%TO.C,R6*%
X146160500Y-103378000D03*
X144335500Y-103378000D03*
%TD*%
M02*
