%TF.GenerationSoftware,KiCad,Pcbnew,(6.0.0-0)*%
%TF.CreationDate,2022-12-05T16:43:45-05:00*%
%TF.ProjectId,LFO,4c464f2e-6b69-4636-9164-5f7063625858,rev?*%
%TF.SameCoordinates,Original*%
%TF.FileFunction,Legend,Top*%
%TF.FilePolarity,Positive*%
%FSLAX46Y46*%
G04 Gerber Fmt 4.6, Leading zero omitted, Abs format (unit mm)*
G04 Created by KiCad (PCBNEW (6.0.0-0)) date 2022-12-05 16:43:45*
%MOMM*%
%LPD*%
G01*
G04 APERTURE LIST*
%ADD10C,0.250000*%
%ADD11C,0.150000*%
%ADD12C,0.013229*%
%ADD13C,0.120000*%
G04 APERTURE END LIST*
D10*
X135231428Y-62571142D02*
X133802857Y-62571142D01*
X133802857Y-59571142D01*
X137231428Y-60999714D02*
X136231428Y-60999714D01*
X136231428Y-62571142D02*
X136231428Y-59571142D01*
X137660000Y-59571142D01*
X139374285Y-59571142D02*
X139945714Y-59571142D01*
X140231428Y-59714000D01*
X140517142Y-59999714D01*
X140660000Y-60571142D01*
X140660000Y-61571142D01*
X140517142Y-62142571D01*
X140231428Y-62428285D01*
X139945714Y-62571142D01*
X139374285Y-62571142D01*
X139088571Y-62428285D01*
X138802857Y-62142571D01*
X138660000Y-61571142D01*
X138660000Y-60571142D01*
X138802857Y-59999714D01*
X139088571Y-59714000D01*
X139374285Y-59571142D01*
D11*
%TO.C,RV3*%
X139097238Y-151680761D02*
X139240095Y-151728380D01*
X139478190Y-151728380D01*
X139573428Y-151680761D01*
X139621047Y-151633142D01*
X139668666Y-151537904D01*
X139668666Y-151442666D01*
X139621047Y-151347428D01*
X139573428Y-151299809D01*
X139478190Y-151252190D01*
X139287714Y-151204571D01*
X139192476Y-151156952D01*
X139144857Y-151109333D01*
X139097238Y-151014095D01*
X139097238Y-150918857D01*
X139144857Y-150823619D01*
X139192476Y-150776000D01*
X139287714Y-150728380D01*
X139525809Y-150728380D01*
X139668666Y-150776000D01*
X140525809Y-151728380D02*
X140525809Y-151204571D01*
X140478190Y-151109333D01*
X140382952Y-151061714D01*
X140192476Y-151061714D01*
X140097238Y-151109333D01*
X140525809Y-151680761D02*
X140430571Y-151728380D01*
X140192476Y-151728380D01*
X140097238Y-151680761D01*
X140049619Y-151585523D01*
X140049619Y-151490285D01*
X140097238Y-151395047D01*
X140192476Y-151347428D01*
X140430571Y-151347428D01*
X140525809Y-151299809D01*
X140906761Y-151061714D02*
X141097238Y-151728380D01*
X141287714Y-151252190D01*
X141478190Y-151728380D01*
X141668666Y-151061714D01*
X142763904Y-151442666D02*
X143240095Y-151442666D01*
X142668666Y-151728380D02*
X143002000Y-150728380D01*
X143335333Y-151728380D01*
X144097238Y-151728380D02*
X144097238Y-150728380D01*
X144097238Y-151680761D02*
X144002000Y-151728380D01*
X143811523Y-151728380D01*
X143716285Y-151680761D01*
X143668666Y-151633142D01*
X143621047Y-151537904D01*
X143621047Y-151252190D01*
X143668666Y-151156952D01*
X143716285Y-151109333D01*
X143811523Y-151061714D01*
X144002000Y-151061714D01*
X144097238Y-151109333D01*
X144573428Y-151061714D02*
X144573428Y-151918857D01*
X144525809Y-152014095D01*
X144430571Y-152061714D01*
X144382952Y-152061714D01*
X144573428Y-150728380D02*
X144525809Y-150776000D01*
X144573428Y-150823619D01*
X144621047Y-150776000D01*
X144573428Y-150728380D01*
X144573428Y-150823619D01*
X145478190Y-151061714D02*
X145478190Y-151728380D01*
X145049619Y-151061714D02*
X145049619Y-151585523D01*
X145097238Y-151680761D01*
X145192476Y-151728380D01*
X145335333Y-151728380D01*
X145430571Y-151680761D01*
X145478190Y-151633142D01*
X145906761Y-151680761D02*
X146002000Y-151728380D01*
X146192476Y-151728380D01*
X146287714Y-151680761D01*
X146335333Y-151585523D01*
X146335333Y-151537904D01*
X146287714Y-151442666D01*
X146192476Y-151395047D01*
X146049619Y-151395047D01*
X145954380Y-151347428D01*
X145906761Y-151252190D01*
X145906761Y-151204571D01*
X145954380Y-151109333D01*
X146049619Y-151061714D01*
X146192476Y-151061714D01*
X146287714Y-151109333D01*
X146621047Y-151061714D02*
X147002000Y-151061714D01*
X146763904Y-150728380D02*
X146763904Y-151585523D01*
X146811523Y-151680761D01*
X146906761Y-151728380D01*
X147002000Y-151728380D01*
X141359142Y-143965619D02*
X141406761Y-143918000D01*
X141502000Y-143870380D01*
X141740095Y-143870380D01*
X141835333Y-143918000D01*
X141882952Y-143965619D01*
X141930571Y-144060857D01*
X141930571Y-144156095D01*
X141882952Y-144298952D01*
X141311523Y-144870380D01*
X141930571Y-144870380D01*
X142549619Y-143870380D02*
X142644857Y-143870380D01*
X142740095Y-143918000D01*
X142787714Y-143965619D01*
X142835333Y-144060857D01*
X142882952Y-144251333D01*
X142882952Y-144489428D01*
X142835333Y-144679904D01*
X142787714Y-144775142D01*
X142740095Y-144822761D01*
X142644857Y-144870380D01*
X142549619Y-144870380D01*
X142454380Y-144822761D01*
X142406761Y-144775142D01*
X142359142Y-144679904D01*
X142311523Y-144489428D01*
X142311523Y-144251333D01*
X142359142Y-144060857D01*
X142406761Y-143965619D01*
X142454380Y-143918000D01*
X142549619Y-143870380D01*
X143502000Y-143870380D02*
X143597238Y-143870380D01*
X143692476Y-143918000D01*
X143740095Y-143965619D01*
X143787714Y-144060857D01*
X143835333Y-144251333D01*
X143835333Y-144489428D01*
X143787714Y-144679904D01*
X143740095Y-144775142D01*
X143692476Y-144822761D01*
X143597238Y-144870380D01*
X143502000Y-144870380D01*
X143406761Y-144822761D01*
X143359142Y-144775142D01*
X143311523Y-144679904D01*
X143263904Y-144489428D01*
X143263904Y-144251333D01*
X143311523Y-144060857D01*
X143359142Y-143965619D01*
X143406761Y-143918000D01*
X143502000Y-143870380D01*
X144263904Y-144870380D02*
X144263904Y-143870380D01*
X144359142Y-144489428D02*
X144644857Y-144870380D01*
X144644857Y-144203714D02*
X144263904Y-144584666D01*
%TO.C,RV2*%
X128556404Y-90752142D02*
X128508785Y-90799761D01*
X128365928Y-90847380D01*
X128270690Y-90847380D01*
X128127833Y-90799761D01*
X128032595Y-90704523D01*
X127984976Y-90609285D01*
X127937357Y-90418809D01*
X127937357Y-90275952D01*
X127984976Y-90085476D01*
X128032595Y-89990238D01*
X128127833Y-89895000D01*
X128270690Y-89847380D01*
X128365928Y-89847380D01*
X128508785Y-89895000D01*
X128556404Y-89942619D01*
X129127833Y-90847380D02*
X129032595Y-90799761D01*
X128984976Y-90752142D01*
X128937357Y-90656904D01*
X128937357Y-90371190D01*
X128984976Y-90275952D01*
X129032595Y-90228333D01*
X129127833Y-90180714D01*
X129270690Y-90180714D01*
X129365928Y-90228333D01*
X129413547Y-90275952D01*
X129461166Y-90371190D01*
X129461166Y-90656904D01*
X129413547Y-90752142D01*
X129365928Y-90799761D01*
X129270690Y-90847380D01*
X129127833Y-90847380D01*
X130318309Y-90180714D02*
X130318309Y-90847380D01*
X129889738Y-90180714D02*
X129889738Y-90704523D01*
X129937357Y-90799761D01*
X130032595Y-90847380D01*
X130175452Y-90847380D01*
X130270690Y-90799761D01*
X130318309Y-90752142D01*
X130794500Y-90847380D02*
X130794500Y-90180714D01*
X130794500Y-90371190D02*
X130842119Y-90275952D01*
X130889738Y-90228333D01*
X130984976Y-90180714D01*
X131080214Y-90180714D01*
X131365928Y-90799761D02*
X131461166Y-90847380D01*
X131651642Y-90847380D01*
X131746880Y-90799761D01*
X131794500Y-90704523D01*
X131794500Y-90656904D01*
X131746880Y-90561666D01*
X131651642Y-90514047D01*
X131508785Y-90514047D01*
X131413547Y-90466428D01*
X131365928Y-90371190D01*
X131365928Y-90323571D01*
X131413547Y-90228333D01*
X131508785Y-90180714D01*
X131651642Y-90180714D01*
X131746880Y-90228333D01*
X132604023Y-90799761D02*
X132508785Y-90847380D01*
X132318309Y-90847380D01*
X132223071Y-90799761D01*
X132175452Y-90704523D01*
X132175452Y-90323571D01*
X132223071Y-90228333D01*
X132318309Y-90180714D01*
X132508785Y-90180714D01*
X132604023Y-90228333D01*
X132651642Y-90323571D01*
X132651642Y-90418809D01*
X132175452Y-90514047D01*
X129958285Y-81478380D02*
X129386857Y-81478380D01*
X129672571Y-81478380D02*
X129672571Y-80478380D01*
X129577333Y-80621238D01*
X129482095Y-80716476D01*
X129386857Y-80764095D01*
X130386857Y-81478380D02*
X130386857Y-80478380D01*
X130720190Y-81192666D01*
X131053523Y-80478380D01*
X131053523Y-81478380D01*
%TO.C,RV1*%
X142526309Y-90323571D02*
X142192976Y-90323571D01*
X142192976Y-90847380D02*
X142192976Y-89847380D01*
X142669166Y-89847380D01*
X143050119Y-90847380D02*
X143050119Y-90180714D01*
X143050119Y-89847380D02*
X143002500Y-89895000D01*
X143050119Y-89942619D01*
X143097738Y-89895000D01*
X143050119Y-89847380D01*
X143050119Y-89942619D01*
X143526309Y-90180714D02*
X143526309Y-90847380D01*
X143526309Y-90275952D02*
X143573928Y-90228333D01*
X143669166Y-90180714D01*
X143812023Y-90180714D01*
X143907261Y-90228333D01*
X143954880Y-90323571D01*
X143954880Y-90847380D01*
X144812023Y-90799761D02*
X144716785Y-90847380D01*
X144526309Y-90847380D01*
X144431071Y-90799761D01*
X144383452Y-90704523D01*
X144383452Y-90323571D01*
X144431071Y-90228333D01*
X144526309Y-90180714D01*
X144716785Y-90180714D01*
X144812023Y-90228333D01*
X144859642Y-90323571D01*
X144859642Y-90418809D01*
X144383452Y-90514047D01*
X143216785Y-81449380D02*
X142645357Y-81449380D01*
X142931071Y-81449380D02*
X142931071Y-80449380D01*
X142835833Y-80592238D01*
X142740595Y-80687476D01*
X142645357Y-80735095D01*
X143645357Y-81449380D02*
X143645357Y-80449380D01*
X143978690Y-81163666D01*
X144312023Y-80449380D01*
X144312023Y-81449380D01*
%TO.C,J3*%
X127413047Y-134694761D02*
X127555904Y-134742380D01*
X127794000Y-134742380D01*
X127889238Y-134694761D01*
X127936857Y-134647142D01*
X127984476Y-134551904D01*
X127984476Y-134456666D01*
X127936857Y-134361428D01*
X127889238Y-134313809D01*
X127794000Y-134266190D01*
X127603523Y-134218571D01*
X127508285Y-134170952D01*
X127460666Y-134123333D01*
X127413047Y-134028095D01*
X127413047Y-133932857D01*
X127460666Y-133837619D01*
X127508285Y-133790000D01*
X127603523Y-133742380D01*
X127841619Y-133742380D01*
X127984476Y-133790000D01*
X128841619Y-134075714D02*
X128841619Y-135075714D01*
X128841619Y-134694761D02*
X128746380Y-134742380D01*
X128555904Y-134742380D01*
X128460666Y-134694761D01*
X128413047Y-134647142D01*
X128365428Y-134551904D01*
X128365428Y-134266190D01*
X128413047Y-134170952D01*
X128460666Y-134123333D01*
X128555904Y-134075714D01*
X128746380Y-134075714D01*
X128841619Y-134123333D01*
X129746380Y-134075714D02*
X129746380Y-134742380D01*
X129317809Y-134075714D02*
X129317809Y-134599523D01*
X129365428Y-134694761D01*
X129460666Y-134742380D01*
X129603523Y-134742380D01*
X129698761Y-134694761D01*
X129746380Y-134647142D01*
X130651142Y-134742380D02*
X130651142Y-134218571D01*
X130603523Y-134123333D01*
X130508285Y-134075714D01*
X130317809Y-134075714D01*
X130222571Y-134123333D01*
X130651142Y-134694761D02*
X130555904Y-134742380D01*
X130317809Y-134742380D01*
X130222571Y-134694761D01*
X130174952Y-134599523D01*
X130174952Y-134504285D01*
X130222571Y-134409047D01*
X130317809Y-134361428D01*
X130555904Y-134361428D01*
X130651142Y-134313809D01*
X131127333Y-134742380D02*
X131127333Y-134075714D01*
X131127333Y-134266190D02*
X131174952Y-134170952D01*
X131222571Y-134123333D01*
X131317809Y-134075714D01*
X131413047Y-134075714D01*
X132127333Y-134694761D02*
X132032095Y-134742380D01*
X131841619Y-134742380D01*
X131746380Y-134694761D01*
X131698761Y-134599523D01*
X131698761Y-134218571D01*
X131746380Y-134123333D01*
X131841619Y-134075714D01*
X132032095Y-134075714D01*
X132127333Y-134123333D01*
X132174952Y-134218571D01*
X132174952Y-134313809D01*
X131698761Y-134409047D01*
%TO.C,J2*%
X140121047Y-133742380D02*
X140692476Y-133742380D01*
X140406761Y-134742380D02*
X140406761Y-133742380D01*
X141025809Y-134742380D02*
X141025809Y-134075714D01*
X141025809Y-134266190D02*
X141073428Y-134170952D01*
X141121047Y-134123333D01*
X141216285Y-134075714D01*
X141311523Y-134075714D01*
X141644857Y-134742380D02*
X141644857Y-134075714D01*
X141644857Y-133742380D02*
X141597238Y-133790000D01*
X141644857Y-133837619D01*
X141692476Y-133790000D01*
X141644857Y-133742380D01*
X141644857Y-133837619D01*
X142549619Y-134742380D02*
X142549619Y-134218571D01*
X142502000Y-134123333D01*
X142406761Y-134075714D01*
X142216285Y-134075714D01*
X142121047Y-134123333D01*
X142549619Y-134694761D02*
X142454380Y-134742380D01*
X142216285Y-134742380D01*
X142121047Y-134694761D01*
X142073428Y-134599523D01*
X142073428Y-134504285D01*
X142121047Y-134409047D01*
X142216285Y-134361428D01*
X142454380Y-134361428D01*
X142549619Y-134313809D01*
X143025809Y-134075714D02*
X143025809Y-134742380D01*
X143025809Y-134170952D02*
X143073428Y-134123333D01*
X143168666Y-134075714D01*
X143311523Y-134075714D01*
X143406761Y-134123333D01*
X143454380Y-134218571D01*
X143454380Y-134742380D01*
X144359142Y-134075714D02*
X144359142Y-134885238D01*
X144311523Y-134980476D01*
X144263904Y-135028095D01*
X144168666Y-135075714D01*
X144025809Y-135075714D01*
X143930571Y-135028095D01*
X144359142Y-134694761D02*
X144263904Y-134742380D01*
X144073428Y-134742380D01*
X143978190Y-134694761D01*
X143930571Y-134647142D01*
X143882952Y-134551904D01*
X143882952Y-134266190D01*
X143930571Y-134170952D01*
X143978190Y-134123333D01*
X144073428Y-134075714D01*
X144263904Y-134075714D01*
X144359142Y-134123333D01*
X144978190Y-134742380D02*
X144882952Y-134694761D01*
X144835333Y-134599523D01*
X144835333Y-133742380D01*
X145740095Y-134694761D02*
X145644857Y-134742380D01*
X145454380Y-134742380D01*
X145359142Y-134694761D01*
X145311523Y-134599523D01*
X145311523Y-134218571D01*
X145359142Y-134123333D01*
X145454380Y-134075714D01*
X145644857Y-134075714D01*
X145740095Y-134123333D01*
X145787714Y-134218571D01*
X145787714Y-134313809D01*
X145311523Y-134409047D01*
%TO.C,J1*%
X128532095Y-152442761D02*
X128674952Y-152490380D01*
X128913047Y-152490380D01*
X129008285Y-152442761D01*
X129055904Y-152395142D01*
X129103523Y-152299904D01*
X129103523Y-152204666D01*
X129055904Y-152109428D01*
X129008285Y-152061809D01*
X128913047Y-152014190D01*
X128722571Y-151966571D01*
X128627333Y-151918952D01*
X128579714Y-151871333D01*
X128532095Y-151776095D01*
X128532095Y-151680857D01*
X128579714Y-151585619D01*
X128627333Y-151538000D01*
X128722571Y-151490380D01*
X128960666Y-151490380D01*
X129103523Y-151538000D01*
X129960666Y-152490380D02*
X129960666Y-151966571D01*
X129913047Y-151871333D01*
X129817809Y-151823714D01*
X129627333Y-151823714D01*
X129532095Y-151871333D01*
X129960666Y-152442761D02*
X129865428Y-152490380D01*
X129627333Y-152490380D01*
X129532095Y-152442761D01*
X129484476Y-152347523D01*
X129484476Y-152252285D01*
X129532095Y-152157047D01*
X129627333Y-152109428D01*
X129865428Y-152109428D01*
X129960666Y-152061809D01*
X130341619Y-151823714D02*
X130532095Y-152490380D01*
X130722571Y-152014190D01*
X130913047Y-152490380D01*
X131103523Y-151823714D01*
D12*
%TO.C,REF\u002A\u002A*%
X135142053Y-154092042D02*
X135124098Y-154242013D01*
X135624417Y-152865697D02*
X135607674Y-152860048D01*
X135244181Y-153524660D02*
X135199273Y-153735981D01*
X135451652Y-152968705D02*
X135451652Y-152968705D01*
X138104679Y-153756684D02*
X138138527Y-153951653D01*
X135700077Y-152946492D02*
X135671360Y-152904323D01*
X135333687Y-153215559D02*
X135300794Y-153314609D01*
X135534785Y-152877990D02*
X135515003Y-152893434D01*
X135888215Y-153689430D02*
X135854914Y-153492436D01*
X137852349Y-152989475D02*
X137852349Y-152989475D01*
X135494564Y-152913591D02*
X135473453Y-152938627D01*
X137486399Y-153325641D02*
X137506877Y-153238693D01*
X135751913Y-153064296D02*
X135726885Y-153000257D01*
X135515003Y-152893434D02*
X135494564Y-152913591D01*
X138161930Y-154112700D02*
X138179903Y-154262650D01*
X135473453Y-152938627D02*
X135451652Y-152968705D01*
X135726885Y-153000257D02*
X135700077Y-152946492D01*
X137415786Y-153710200D02*
X137449092Y-153513206D01*
X135817620Y-153304871D02*
X135797150Y-153217923D01*
X135409037Y-153040407D02*
X135369741Y-153123425D01*
X135607674Y-152860048D02*
X135590355Y-152858289D01*
X137506877Y-153238693D02*
X137528745Y-153158062D01*
X137852349Y-152989475D02*
X137894942Y-153061176D01*
X138138527Y-153951653D02*
X138161930Y-154112700D01*
X137696383Y-152880818D02*
X137713699Y-152879058D01*
X137552131Y-153085066D02*
X137577166Y-153021027D01*
X135797150Y-153217923D02*
X135775291Y-153137292D01*
X137830560Y-152959396D02*
X137852349Y-152989475D01*
X137934222Y-153144189D02*
X137970265Y-153236316D01*
X137577166Y-153021027D02*
X137603979Y-152967262D01*
X137894942Y-153061176D02*
X137934222Y-153144189D01*
X137647816Y-152908769D02*
X137663458Y-152895838D01*
X137679641Y-152886467D02*
X137696383Y-152880818D01*
X135165440Y-153930974D02*
X135142053Y-154092042D01*
X137750118Y-152887864D02*
X137769254Y-152898760D01*
X138059762Y-153545388D02*
X138104679Y-153756684D01*
X135775291Y-153137292D02*
X135751913Y-153064296D01*
X137731605Y-152881352D02*
X137750118Y-152887864D01*
X137789029Y-152914204D02*
X137809459Y-152934361D01*
X137449092Y-153513206D02*
X137486399Y-153325641D01*
X135199273Y-153735981D02*
X135165440Y-153930974D01*
X137809459Y-152934361D02*
X137830560Y-152959396D01*
X137603979Y-152967262D02*
X137632699Y-152925093D01*
X135854914Y-153492436D02*
X135817620Y-153304871D01*
X137663458Y-152895838D02*
X137679641Y-152886467D01*
X135656244Y-152887999D02*
X135640602Y-152875069D01*
X135369741Y-153123425D02*
X135333687Y-153215559D01*
X135451652Y-152968705D02*
X135409037Y-153040407D01*
X135572445Y-152860582D02*
X135553927Y-152867094D01*
X137713699Y-152879058D02*
X137731605Y-152881352D01*
X135300794Y-153314609D02*
X135270985Y-153418376D01*
X135671360Y-152904323D02*
X135656244Y-152887999D01*
X137769254Y-152898760D02*
X137789029Y-152914204D01*
X137632699Y-152925093D02*
X137647816Y-152908769D01*
X135270985Y-153418376D02*
X135244181Y-153524660D01*
X138032957Y-153439115D02*
X138059762Y-153545388D01*
X135553927Y-152867094D02*
X135534785Y-152877990D01*
X137528745Y-153158062D02*
X137552131Y-153085066D01*
X135590355Y-152858289D02*
X135572445Y-152860582D01*
X138003151Y-153335358D02*
X138032957Y-153439115D01*
X137970265Y-153236316D02*
X138003151Y-153335358D01*
X135640602Y-152875069D02*
X135624417Y-152865697D01*
X136176610Y-155394538D02*
X136289058Y-156091714D01*
X136289058Y-156091714D02*
X136989014Y-156091714D01*
X136989014Y-156091714D02*
X137101462Y-155394538D01*
X137101462Y-155394538D02*
X136176610Y-155394538D01*
X136176610Y-155394538D02*
X136176610Y-155394538D01*
G36*
X136989014Y-156091714D02*
G01*
X136289058Y-156091714D01*
X136176610Y-155394538D01*
X137101462Y-155394538D01*
X136989014Y-156091714D01*
G37*
X136989014Y-156091714D02*
X136289058Y-156091714D01*
X136176610Y-155394538D01*
X137101462Y-155394538D01*
X136989014Y-156091714D01*
X135816909Y-154155362D02*
X135882394Y-154515989D01*
X135882394Y-154515989D02*
X135596908Y-154515989D01*
X135596908Y-154515989D02*
X135409848Y-154787980D01*
X135409848Y-154787980D02*
X135191831Y-154787980D01*
X135191831Y-154787980D02*
X135130183Y-154425369D01*
X135130183Y-154425369D02*
X135380876Y-154427353D01*
X135380876Y-154427353D02*
X135575742Y-154155362D01*
X135575742Y-154155362D02*
X135816909Y-154155362D01*
X135816909Y-154155362D02*
X135816909Y-154155362D01*
G36*
X135882394Y-154515989D02*
G01*
X135596908Y-154515989D01*
X135409848Y-154787980D01*
X135191831Y-154787980D01*
X135130183Y-154425369D01*
X135380876Y-154427353D01*
X135575742Y-154155362D01*
X135816909Y-154155362D01*
X135882394Y-154515989D01*
G37*
X135882394Y-154515989D02*
X135596908Y-154515989D01*
X135409848Y-154787980D01*
X135191831Y-154787980D01*
X135130183Y-154425369D01*
X135380876Y-154427353D01*
X135575742Y-154155362D01*
X135816909Y-154155362D01*
X135882394Y-154515989D01*
X137233489Y-153440458D02*
X137230609Y-153442704D01*
X137230609Y-153442704D02*
X137227669Y-153444868D01*
X137227669Y-153444868D02*
X137224672Y-153446950D01*
X137224672Y-153446950D02*
X137221619Y-153448947D01*
X137221619Y-153448947D02*
X137218512Y-153450858D01*
X137218512Y-153450858D02*
X137215352Y-153452683D01*
X137215352Y-153452683D02*
X137212142Y-153454420D01*
X137212142Y-153454420D02*
X137208882Y-153456068D01*
X137208882Y-153456068D02*
X137207314Y-153454782D01*
X137207314Y-153454782D02*
X137203277Y-153451537D01*
X137203277Y-153451537D02*
X137200646Y-153449466D01*
X137200646Y-153449466D02*
X137197776Y-153447250D01*
X137197776Y-153447250D02*
X137194791Y-153445003D01*
X137194791Y-153445003D02*
X137191817Y-153442839D01*
X137191817Y-153442839D02*
X137189521Y-153441351D01*
X137189521Y-153441351D02*
X137187204Y-153439896D01*
X137187204Y-153439896D02*
X137184868Y-153438473D01*
X137184868Y-153438473D02*
X137182512Y-153437083D01*
X137182512Y-153437083D02*
X137180137Y-153435727D01*
X137180137Y-153435727D02*
X137177743Y-153434404D01*
X137177743Y-153434404D02*
X137175330Y-153433114D01*
X137175330Y-153433114D02*
X137172899Y-153431859D01*
X137172899Y-153431859D02*
X137162299Y-153425608D01*
X137162299Y-153425608D02*
X137155728Y-153421664D01*
X137155728Y-153421664D02*
X137148425Y-153417175D01*
X137148425Y-153417175D02*
X137124745Y-153406326D01*
X137124745Y-153406326D02*
X137120228Y-153404455D01*
X137120228Y-153404455D02*
X137114806Y-153402275D01*
X137114806Y-153402275D02*
X137111752Y-153401095D01*
X137111752Y-153401095D02*
X137108467Y-153399871D01*
X137108467Y-153399871D02*
X137104949Y-153398612D01*
X137104949Y-153398612D02*
X137101197Y-153397330D01*
X137101197Y-153397330D02*
X137089902Y-153393825D01*
X137089902Y-153393825D02*
X137083058Y-153391749D01*
X137083058Y-153391749D02*
X137075532Y-153389525D01*
X137075532Y-153389525D02*
X137062640Y-153385869D01*
X137062640Y-153385869D02*
X137054848Y-153383751D01*
X137054848Y-153383751D02*
X137046213Y-153381505D01*
X137046213Y-153381505D02*
X137036779Y-153379178D01*
X137036779Y-153379178D02*
X137026586Y-153376819D01*
X137026586Y-153376819D02*
X137015678Y-153374475D01*
X137015678Y-153374475D02*
X137004095Y-153372195D01*
X137004095Y-153372195D02*
X136993921Y-153370344D01*
X136993921Y-153370344D02*
X136983721Y-153368657D01*
X136983721Y-153368657D02*
X136973496Y-153367135D01*
X136973496Y-153367135D02*
X136963249Y-153365779D01*
X136963249Y-153365779D02*
X136952981Y-153364588D01*
X136952981Y-153364588D02*
X136942695Y-153363562D01*
X136942695Y-153363562D02*
X136932391Y-153362702D01*
X136932391Y-153362702D02*
X136922074Y-153362009D01*
X136922074Y-153362009D02*
X136920916Y-153353360D01*
X136920916Y-153353360D02*
X136919953Y-153345433D01*
X136919953Y-153345433D02*
X136919516Y-153341410D01*
X136919516Y-153341410D02*
X136919163Y-153337667D01*
X136919163Y-153337667D02*
X136918691Y-153332925D01*
X136918691Y-153332925D02*
X136918377Y-153328175D01*
X136918377Y-153328175D02*
X136918222Y-153323419D01*
X136918222Y-153323419D02*
X136918226Y-153318661D01*
X136918226Y-153318661D02*
X136918388Y-153313907D01*
X136918388Y-153313907D02*
X136918709Y-153309159D01*
X136918709Y-153309159D02*
X136919187Y-153304422D01*
X136919187Y-153304422D02*
X136919825Y-153299700D01*
X136919825Y-153299700D02*
X136920632Y-153295711D01*
X136920632Y-153295711D02*
X136921516Y-153291740D01*
X136921516Y-153291740D02*
X136922477Y-153287788D01*
X136922477Y-153287788D02*
X136923515Y-153283856D01*
X136923515Y-153283856D02*
X136924629Y-153279945D01*
X136924629Y-153279945D02*
X136925818Y-153276055D01*
X136925818Y-153276055D02*
X136927083Y-153272189D01*
X136927083Y-153272189D02*
X136928423Y-153268346D01*
X136928423Y-153268346D02*
X136928424Y-153268346D01*
X136928424Y-153268346D02*
X136951525Y-153270728D01*
X136951525Y-153270728D02*
X136962343Y-153271951D01*
X136962343Y-153271951D02*
X136974132Y-153273369D01*
X136974132Y-153273369D02*
X136986372Y-153274955D01*
X136986372Y-153274955D02*
X136998538Y-153276681D01*
X136998538Y-153276681D02*
X137008155Y-153278160D01*
X137008155Y-153278160D02*
X137017748Y-153279774D01*
X137017748Y-153279774D02*
X137027316Y-153281524D01*
X137027316Y-153281524D02*
X137036859Y-153283408D01*
X137036859Y-153283408D02*
X137046373Y-153285428D01*
X137046373Y-153285428D02*
X137055859Y-153287581D01*
X137055859Y-153287581D02*
X137065314Y-153289869D01*
X137065314Y-153289869D02*
X137074738Y-153292291D01*
X137074738Y-153292291D02*
X137083530Y-153294643D01*
X137083530Y-153294643D02*
X137092284Y-153297127D01*
X137092284Y-153297127D02*
X137100999Y-153299743D01*
X137100999Y-153299743D02*
X137109672Y-153302490D01*
X137109672Y-153302490D02*
X137118303Y-153305368D01*
X137118303Y-153305368D02*
X137126890Y-153308376D01*
X137126890Y-153308376D02*
X137135432Y-153311514D01*
X137135432Y-153311514D02*
X137143926Y-153314781D01*
X137143926Y-153314781D02*
X137157156Y-153320205D01*
X137157156Y-153320205D02*
X137164316Y-153323016D01*
X137164316Y-153323016D02*
X137167927Y-153324484D01*
X137167927Y-153324484D02*
X137171576Y-153326026D01*
X137171576Y-153326026D02*
X137175807Y-153327917D01*
X137175807Y-153327917D02*
X137180820Y-153330243D01*
X137180820Y-153330243D02*
X137191155Y-153335154D01*
X137191155Y-153335154D02*
X137195969Y-153337744D01*
X137195969Y-153337744D02*
X137200496Y-153340247D01*
X137200496Y-153340247D02*
X137208733Y-153344944D01*
X137208733Y-153344944D02*
X137215954Y-153349144D01*
X137215954Y-153349144D02*
X137222244Y-153352749D01*
X137222244Y-153352749D02*
X137225443Y-153354535D01*
X137225443Y-153354535D02*
X137228617Y-153356364D01*
X137228617Y-153356364D02*
X137231766Y-153358236D01*
X137231766Y-153358236D02*
X137234889Y-153360151D01*
X137234889Y-153360151D02*
X137237986Y-153362107D01*
X137237986Y-153362107D02*
X137241056Y-153364106D01*
X137241056Y-153364106D02*
X137244099Y-153366146D01*
X137244099Y-153366146D02*
X137247114Y-153368227D01*
X137247114Y-153368227D02*
X137249850Y-153370293D01*
X137249850Y-153370293D02*
X137252547Y-153372407D01*
X137252547Y-153372407D02*
X137255205Y-153374569D01*
X137255205Y-153374569D02*
X137257823Y-153376780D01*
X137257823Y-153376780D02*
X137260401Y-153379037D01*
X137260401Y-153379037D02*
X137262937Y-153381341D01*
X137262937Y-153381341D02*
X137265432Y-153383691D01*
X137265432Y-153383691D02*
X137267884Y-153386086D01*
X137267884Y-153386086D02*
X137250422Y-153417439D01*
X137250422Y-153417439D02*
X137249693Y-153419095D01*
X137249693Y-153419095D02*
X137248917Y-153420727D01*
X137248917Y-153420727D02*
X137248095Y-153422333D01*
X137248095Y-153422333D02*
X137247227Y-153423912D01*
X137247227Y-153423912D02*
X137246313Y-153425464D01*
X137246313Y-153425464D02*
X137245356Y-153426987D01*
X137245356Y-153426987D02*
X137244354Y-153428482D01*
X137244354Y-153428482D02*
X137243310Y-153429946D01*
X137243310Y-153429946D02*
X137242223Y-153431379D01*
X137242223Y-153431379D02*
X137241095Y-153432780D01*
X137241095Y-153432780D02*
X137239926Y-153434147D01*
X137239926Y-153434147D02*
X137238716Y-153435481D01*
X137238716Y-153435481D02*
X137237467Y-153436780D01*
X137237467Y-153436780D02*
X137236178Y-153438043D01*
X137236178Y-153438043D02*
X137234852Y-153439269D01*
X137234852Y-153439269D02*
X137233488Y-153440458D01*
X137233488Y-153440458D02*
X137233489Y-153440458D01*
X137233489Y-153440458D02*
X137233489Y-153440458D01*
G36*
X136951525Y-153270728D02*
G01*
X136962343Y-153271951D01*
X136974132Y-153273369D01*
X136986372Y-153274955D01*
X136998538Y-153276681D01*
X137008155Y-153278160D01*
X137017748Y-153279774D01*
X137027316Y-153281524D01*
X137036859Y-153283408D01*
X137046373Y-153285428D01*
X137055859Y-153287581D01*
X137065314Y-153289869D01*
X137074738Y-153292291D01*
X137083530Y-153294643D01*
X137092284Y-153297127D01*
X137100999Y-153299743D01*
X137109672Y-153302490D01*
X137118303Y-153305368D01*
X137126890Y-153308376D01*
X137135432Y-153311514D01*
X137143926Y-153314781D01*
X137157156Y-153320205D01*
X137164316Y-153323016D01*
X137167927Y-153324484D01*
X137171576Y-153326026D01*
X137175807Y-153327917D01*
X137180820Y-153330243D01*
X137191155Y-153335154D01*
X137195969Y-153337744D01*
X137200496Y-153340247D01*
X137208733Y-153344944D01*
X137215954Y-153349144D01*
X137222244Y-153352749D01*
X137225443Y-153354535D01*
X137228617Y-153356364D01*
X137231766Y-153358236D01*
X137234889Y-153360151D01*
X137237986Y-153362107D01*
X137241056Y-153364106D01*
X137244099Y-153366146D01*
X137247114Y-153368227D01*
X137249850Y-153370293D01*
X137252547Y-153372407D01*
X137255205Y-153374569D01*
X137257823Y-153376780D01*
X137260401Y-153379037D01*
X137262937Y-153381341D01*
X137265432Y-153383691D01*
X137267884Y-153386086D01*
X137250422Y-153417439D01*
X137249693Y-153419095D01*
X137248917Y-153420727D01*
X137248095Y-153422333D01*
X137247227Y-153423912D01*
X137246313Y-153425464D01*
X137245356Y-153426987D01*
X137244354Y-153428482D01*
X137243310Y-153429946D01*
X137242223Y-153431379D01*
X137241095Y-153432780D01*
X137239926Y-153434147D01*
X137238716Y-153435481D01*
X137237467Y-153436780D01*
X137236178Y-153438043D01*
X137234852Y-153439269D01*
X137233488Y-153440458D01*
X137233489Y-153440458D01*
X137230609Y-153442704D01*
X137227669Y-153444868D01*
X137224672Y-153446950D01*
X137221619Y-153448947D01*
X137218512Y-153450858D01*
X137215352Y-153452683D01*
X137212142Y-153454420D01*
X137208882Y-153456068D01*
X137207314Y-153454782D01*
X137203277Y-153451537D01*
X137200646Y-153449466D01*
X137197776Y-153447250D01*
X137194791Y-153445003D01*
X137191817Y-153442839D01*
X137189521Y-153441351D01*
X137187204Y-153439896D01*
X137184868Y-153438473D01*
X137182512Y-153437083D01*
X137180137Y-153435727D01*
X137177743Y-153434404D01*
X137175330Y-153433114D01*
X137172899Y-153431859D01*
X137162299Y-153425608D01*
X137155728Y-153421664D01*
X137148425Y-153417175D01*
X137124745Y-153406326D01*
X137120228Y-153404455D01*
X137114806Y-153402275D01*
X137111752Y-153401095D01*
X137108467Y-153399871D01*
X137104949Y-153398612D01*
X137101197Y-153397330D01*
X137089902Y-153393825D01*
X137083058Y-153391749D01*
X137075532Y-153389525D01*
X137062640Y-153385869D01*
X137054848Y-153383751D01*
X137046213Y-153381505D01*
X137036779Y-153379178D01*
X137026586Y-153376819D01*
X137015678Y-153374475D01*
X137004095Y-153372195D01*
X136993921Y-153370344D01*
X136983721Y-153368657D01*
X136973496Y-153367135D01*
X136963249Y-153365779D01*
X136952981Y-153364588D01*
X136942695Y-153363562D01*
X136932391Y-153362702D01*
X136922074Y-153362009D01*
X136920916Y-153353360D01*
X136919953Y-153345433D01*
X136919516Y-153341410D01*
X136919163Y-153337667D01*
X136918691Y-153332925D01*
X136918377Y-153328175D01*
X136918222Y-153323419D01*
X136918226Y-153318661D01*
X136918388Y-153313907D01*
X136918709Y-153309159D01*
X136919187Y-153304422D01*
X136919825Y-153299700D01*
X136920632Y-153295711D01*
X136921516Y-153291740D01*
X136922477Y-153287788D01*
X136923515Y-153283856D01*
X136924629Y-153279945D01*
X136925818Y-153276055D01*
X136927083Y-153272189D01*
X136928423Y-153268346D01*
X136928424Y-153268346D01*
X136951525Y-153270728D01*
G37*
X136951525Y-153270728D02*
X136962343Y-153271951D01*
X136974132Y-153273369D01*
X136986372Y-153274955D01*
X136998538Y-153276681D01*
X137008155Y-153278160D01*
X137017748Y-153279774D01*
X137027316Y-153281524D01*
X137036859Y-153283408D01*
X137046373Y-153285428D01*
X137055859Y-153287581D01*
X137065314Y-153289869D01*
X137074738Y-153292291D01*
X137083530Y-153294643D01*
X137092284Y-153297127D01*
X137100999Y-153299743D01*
X137109672Y-153302490D01*
X137118303Y-153305368D01*
X137126890Y-153308376D01*
X137135432Y-153311514D01*
X137143926Y-153314781D01*
X137157156Y-153320205D01*
X137164316Y-153323016D01*
X137167927Y-153324484D01*
X137171576Y-153326026D01*
X137175807Y-153327917D01*
X137180820Y-153330243D01*
X137191155Y-153335154D01*
X137195969Y-153337744D01*
X137200496Y-153340247D01*
X137208733Y-153344944D01*
X137215954Y-153349144D01*
X137222244Y-153352749D01*
X137225443Y-153354535D01*
X137228617Y-153356364D01*
X137231766Y-153358236D01*
X137234889Y-153360151D01*
X137237986Y-153362107D01*
X137241056Y-153364106D01*
X137244099Y-153366146D01*
X137247114Y-153368227D01*
X137249850Y-153370293D01*
X137252547Y-153372407D01*
X137255205Y-153374569D01*
X137257823Y-153376780D01*
X137260401Y-153379037D01*
X137262937Y-153381341D01*
X137265432Y-153383691D01*
X137267884Y-153386086D01*
X137250422Y-153417439D01*
X137249693Y-153419095D01*
X137248917Y-153420727D01*
X137248095Y-153422333D01*
X137247227Y-153423912D01*
X137246313Y-153425464D01*
X137245356Y-153426987D01*
X137244354Y-153428482D01*
X137243310Y-153429946D01*
X137242223Y-153431379D01*
X137241095Y-153432780D01*
X137239926Y-153434147D01*
X137238716Y-153435481D01*
X137237467Y-153436780D01*
X137236178Y-153438043D01*
X137234852Y-153439269D01*
X137233488Y-153440458D01*
X137233489Y-153440458D01*
X137230609Y-153442704D01*
X137227669Y-153444868D01*
X137224672Y-153446950D01*
X137221619Y-153448947D01*
X137218512Y-153450858D01*
X137215352Y-153452683D01*
X137212142Y-153454420D01*
X137208882Y-153456068D01*
X137207314Y-153454782D01*
X137203277Y-153451537D01*
X137200646Y-153449466D01*
X137197776Y-153447250D01*
X137194791Y-153445003D01*
X137191817Y-153442839D01*
X137189521Y-153441351D01*
X137187204Y-153439896D01*
X137184868Y-153438473D01*
X137182512Y-153437083D01*
X137180137Y-153435727D01*
X137177743Y-153434404D01*
X137175330Y-153433114D01*
X137172899Y-153431859D01*
X137162299Y-153425608D01*
X137155728Y-153421664D01*
X137148425Y-153417175D01*
X137124745Y-153406326D01*
X137120228Y-153404455D01*
X137114806Y-153402275D01*
X137111752Y-153401095D01*
X137108467Y-153399871D01*
X137104949Y-153398612D01*
X137101197Y-153397330D01*
X137089902Y-153393825D01*
X137083058Y-153391749D01*
X137075532Y-153389525D01*
X137062640Y-153385869D01*
X137054848Y-153383751D01*
X137046213Y-153381505D01*
X137036779Y-153379178D01*
X137026586Y-153376819D01*
X137015678Y-153374475D01*
X137004095Y-153372195D01*
X136993921Y-153370344D01*
X136983721Y-153368657D01*
X136973496Y-153367135D01*
X136963249Y-153365779D01*
X136952981Y-153364588D01*
X136942695Y-153363562D01*
X136932391Y-153362702D01*
X136922074Y-153362009D01*
X136920916Y-153353360D01*
X136919953Y-153345433D01*
X136919516Y-153341410D01*
X136919163Y-153337667D01*
X136918691Y-153332925D01*
X136918377Y-153328175D01*
X136918222Y-153323419D01*
X136918226Y-153318661D01*
X136918388Y-153313907D01*
X136918709Y-153309159D01*
X136919187Y-153304422D01*
X136919825Y-153299700D01*
X136920632Y-153295711D01*
X136921516Y-153291740D01*
X136922477Y-153287788D01*
X136923515Y-153283856D01*
X136924629Y-153279945D01*
X136925818Y-153276055D01*
X136927083Y-153272189D01*
X136928423Y-153268346D01*
X136928424Y-153268346D01*
X136951525Y-153270728D01*
X137487621Y-154155362D02*
X137422004Y-154515989D01*
X137422004Y-154515989D02*
X137707490Y-154515989D01*
X137707490Y-154515989D02*
X137894550Y-154787980D01*
X137894550Y-154787980D02*
X138112566Y-154787980D01*
X138112566Y-154787980D02*
X138174214Y-154425369D01*
X138174214Y-154425369D02*
X137923522Y-154427353D01*
X137923522Y-154427353D02*
X137728656Y-154155362D01*
X137728656Y-154155362D02*
X137487621Y-154155362D01*
X137487621Y-154155362D02*
X137487621Y-154155362D01*
G36*
X137923522Y-154427353D02*
G01*
X138174214Y-154425369D01*
X138112566Y-154787980D01*
X137894550Y-154787980D01*
X137707490Y-154515989D01*
X137422004Y-154515989D01*
X137487621Y-154155362D01*
X137728656Y-154155362D01*
X137923522Y-154427353D01*
G37*
X137923522Y-154427353D02*
X138174214Y-154425369D01*
X138112566Y-154787980D01*
X137894550Y-154787980D01*
X137707490Y-154515989D01*
X137422004Y-154515989D01*
X137487621Y-154155362D01*
X137728656Y-154155362D01*
X137923522Y-154427353D01*
X136086520Y-154852010D02*
X137188509Y-154852010D01*
X137188509Y-154852010D02*
X137123951Y-155287646D01*
X137123951Y-155287646D02*
X136162455Y-155287646D01*
X136162455Y-155287646D02*
X136086520Y-154852010D01*
X136086520Y-154852010D02*
X136086520Y-154852010D01*
G36*
X137123951Y-155287646D02*
G01*
X136162455Y-155287646D01*
X136086520Y-154852010D01*
X137188509Y-154852010D01*
X137123951Y-155287646D01*
G37*
X137123951Y-155287646D02*
X136162455Y-155287646D01*
X136086520Y-154852010D01*
X137188509Y-154852010D01*
X137123951Y-155287646D01*
X137146838Y-155690077D02*
X137081221Y-156050837D01*
X137081221Y-156050837D02*
X137366706Y-156050837D01*
X137366706Y-156050837D02*
X137553767Y-156322828D01*
X137553767Y-156322828D02*
X137771783Y-156322828D01*
X137771783Y-156322828D02*
X137833431Y-155960085D01*
X137833431Y-155960085D02*
X137582739Y-155962069D01*
X137582739Y-155962069D02*
X137387873Y-155690077D01*
X137387873Y-155690077D02*
X137146838Y-155690077D01*
X137146838Y-155690077D02*
X137146838Y-155690077D01*
G36*
X137582739Y-155962069D02*
G01*
X137833431Y-155960085D01*
X137771783Y-156322828D01*
X137553767Y-156322828D01*
X137366706Y-156050837D01*
X137081221Y-156050837D01*
X137146838Y-155690077D01*
X137387873Y-155690077D01*
X137582739Y-155962069D01*
G37*
X137582739Y-155962069D02*
X137833431Y-155960085D01*
X137771783Y-156322828D01*
X137553767Y-156322828D01*
X137366706Y-156050837D01*
X137081221Y-156050837D01*
X137146838Y-155690077D01*
X137387873Y-155690077D01*
X137582739Y-155962069D01*
X136638970Y-152987094D02*
X136572887Y-152988906D01*
X136572887Y-152988906D02*
X136507630Y-152994209D01*
X136507630Y-152994209D02*
X136443297Y-153002804D01*
X136443297Y-153002804D02*
X136379984Y-153014492D01*
X136379984Y-153014492D02*
X136317790Y-153029073D01*
X136317790Y-153029073D02*
X136256810Y-153046348D01*
X136256810Y-153046348D02*
X136197143Y-153066118D01*
X136197143Y-153066118D02*
X136138885Y-153088183D01*
X136138885Y-153088183D02*
X136026984Y-153138403D01*
X136026984Y-153138403D02*
X135921886Y-153195414D01*
X135921886Y-153195414D02*
X135824366Y-153257621D01*
X135824366Y-153257621D02*
X135735203Y-153323429D01*
X135735203Y-153323429D02*
X135655172Y-153391245D01*
X135655172Y-153391245D02*
X135585051Y-153459475D01*
X135585051Y-153459475D02*
X135525617Y-153526523D01*
X135525617Y-153526523D02*
X135477645Y-153590797D01*
X135477645Y-153590797D02*
X135441915Y-153650701D01*
X135441915Y-153650701D02*
X135419201Y-153704641D01*
X135419201Y-153704641D02*
X135412969Y-153728876D01*
X135412969Y-153728876D02*
X135410282Y-153751023D01*
X135410282Y-153751023D02*
X135411238Y-153770881D01*
X135411238Y-153770881D02*
X135415933Y-153788253D01*
X135415933Y-153788253D02*
X135422577Y-153800530D01*
X135422577Y-153800530D02*
X135431749Y-153811428D01*
X135431749Y-153811428D02*
X135443346Y-153821035D01*
X135443346Y-153821035D02*
X135457267Y-153829440D01*
X135457267Y-153829440D02*
X135473407Y-153836734D01*
X135473407Y-153836734D02*
X135491665Y-153843005D01*
X135491665Y-153843005D02*
X135511937Y-153848343D01*
X135511937Y-153848343D02*
X135534122Y-153852838D01*
X135534122Y-153852838D02*
X135583816Y-153859655D01*
X135583816Y-153859655D02*
X135639927Y-153864171D01*
X135639927Y-153864171D02*
X135768110Y-153869165D01*
X135768110Y-153869165D02*
X135912101Y-153873546D01*
X135912101Y-153873546D02*
X135987970Y-153877295D01*
X135987970Y-153877295D02*
X136065326Y-153883037D01*
X136065326Y-153883037D02*
X136143349Y-153891489D01*
X136143349Y-153891489D02*
X136221215Y-153903366D01*
X136221215Y-153903366D02*
X136259833Y-153910812D01*
X136259833Y-153910812D02*
X136298105Y-153919383D01*
X136298105Y-153919383D02*
X136335926Y-153929167D01*
X136335926Y-153929167D02*
X136373196Y-153940256D01*
X136373196Y-153940256D02*
X136404788Y-153950209D01*
X136404788Y-153950209D02*
X136436659Y-153958900D01*
X136436659Y-153958900D02*
X136468770Y-153966328D01*
X136468770Y-153966328D02*
X136501086Y-153972491D01*
X136501086Y-153972491D02*
X136533568Y-153977390D01*
X136533568Y-153977390D02*
X136566180Y-153981024D01*
X136566180Y-153981024D02*
X136598884Y-153983392D01*
X136598884Y-153983392D02*
X136631644Y-153984494D01*
X136631644Y-153984494D02*
X136664421Y-153984329D01*
X136664421Y-153984329D02*
X136697180Y-153982897D01*
X136697180Y-153982897D02*
X136729882Y-153980197D01*
X136729882Y-153980197D02*
X136762491Y-153976229D01*
X136762491Y-153976229D02*
X136794970Y-153970992D01*
X136794970Y-153970992D02*
X136827281Y-153964486D01*
X136827281Y-153964486D02*
X136859387Y-153956710D01*
X136859387Y-153956710D02*
X136891251Y-153947664D01*
X136891251Y-153947664D02*
X136968672Y-153927939D01*
X136968672Y-153927939D02*
X137047603Y-153912664D01*
X137047603Y-153912664D02*
X137127243Y-153901165D01*
X137127243Y-153901165D02*
X137206789Y-153892767D01*
X137206789Y-153892767D02*
X137362386Y-153882575D01*
X137362386Y-153882575D02*
X137507977Y-153876689D01*
X137507977Y-153876689D02*
X137637141Y-153869712D01*
X137637141Y-153869712D02*
X137693557Y-153864128D01*
X137693557Y-153864128D02*
X137743458Y-153856246D01*
X137743458Y-153856246D02*
X137786043Y-153845393D01*
X137786043Y-153845393D02*
X137820509Y-153830892D01*
X137820509Y-153830892D02*
X137834447Y-153822064D01*
X137834447Y-153822064D02*
X137846054Y-153812070D01*
X137846054Y-153812070D02*
X137855229Y-153800828D01*
X137855229Y-153800828D02*
X137861874Y-153788253D01*
X137861874Y-153788253D02*
X137866588Y-153770532D01*
X137866588Y-153770532D02*
X137867549Y-153750367D01*
X137867549Y-153750367D02*
X137864856Y-153727956D01*
X137864856Y-153727956D02*
X137858606Y-153703496D01*
X137858606Y-153703496D02*
X137848899Y-153677183D01*
X137848899Y-153677183D02*
X137835833Y-153649216D01*
X137835833Y-153649216D02*
X137819505Y-153619790D01*
X137819505Y-153619790D02*
X137800015Y-153589104D01*
X137800015Y-153589104D02*
X137777460Y-153557354D01*
X137777460Y-153557354D02*
X137751939Y-153524738D01*
X137751939Y-153524738D02*
X137723550Y-153491453D01*
X137723550Y-153491453D02*
X137692391Y-153457696D01*
X137692391Y-153457696D02*
X137658561Y-153423664D01*
X137658561Y-153423664D02*
X137622158Y-153389554D01*
X137622158Y-153389554D02*
X137583280Y-153355564D01*
X137583280Y-153355564D02*
X137542026Y-153321891D01*
X137542026Y-153321891D02*
X137498493Y-153288732D01*
X137498493Y-153288732D02*
X137452781Y-153256284D01*
X137452781Y-153256284D02*
X137404987Y-153224744D01*
X137404987Y-153224744D02*
X137355210Y-153194309D01*
X137355210Y-153194309D02*
X137303548Y-153165177D01*
X137303548Y-153165177D02*
X137250099Y-153137545D01*
X137250099Y-153137545D02*
X137194962Y-153111610D01*
X137194962Y-153111610D02*
X137138234Y-153087570D01*
X137138234Y-153087570D02*
X137080015Y-153065620D01*
X137080015Y-153065620D02*
X137020403Y-153045959D01*
X137020403Y-153045959D02*
X136959495Y-153028784D01*
X136959495Y-153028784D02*
X136897391Y-153014291D01*
X136897391Y-153014291D02*
X136834188Y-153002679D01*
X136834188Y-153002679D02*
X136769984Y-152994144D01*
X136769984Y-152994144D02*
X136704879Y-152988883D01*
X136704879Y-152988883D02*
X136638970Y-152987094D01*
X136638970Y-152987094D02*
X136638970Y-152987094D01*
G36*
X136704879Y-152988883D02*
G01*
X136769984Y-152994144D01*
X136834188Y-153002679D01*
X136897391Y-153014291D01*
X136959495Y-153028784D01*
X137020403Y-153045959D01*
X137080015Y-153065620D01*
X137138234Y-153087570D01*
X137194962Y-153111610D01*
X137250099Y-153137545D01*
X137303548Y-153165177D01*
X137355210Y-153194309D01*
X137404987Y-153224744D01*
X137452781Y-153256284D01*
X137498493Y-153288732D01*
X137542026Y-153321891D01*
X137583280Y-153355564D01*
X137622158Y-153389554D01*
X137658561Y-153423664D01*
X137692391Y-153457696D01*
X137723550Y-153491453D01*
X137751939Y-153524738D01*
X137777460Y-153557354D01*
X137800015Y-153589104D01*
X137819505Y-153619790D01*
X137835833Y-153649216D01*
X137848899Y-153677183D01*
X137858606Y-153703496D01*
X137864856Y-153727956D01*
X137867549Y-153750367D01*
X137866588Y-153770532D01*
X137861874Y-153788253D01*
X137855229Y-153800828D01*
X137846054Y-153812070D01*
X137834447Y-153822064D01*
X137820509Y-153830892D01*
X137786043Y-153845393D01*
X137743458Y-153856246D01*
X137693557Y-153864128D01*
X137637141Y-153869712D01*
X137507977Y-153876689D01*
X137362386Y-153882575D01*
X137206789Y-153892767D01*
X137127243Y-153901165D01*
X137047603Y-153912664D01*
X136968672Y-153927939D01*
X136891251Y-153947664D01*
X136859387Y-153956710D01*
X136827281Y-153964486D01*
X136794970Y-153970992D01*
X136762491Y-153976229D01*
X136729882Y-153980197D01*
X136697180Y-153982897D01*
X136664421Y-153984329D01*
X136631644Y-153984494D01*
X136598884Y-153983392D01*
X136566180Y-153981024D01*
X136533568Y-153977390D01*
X136501086Y-153972491D01*
X136468770Y-153966328D01*
X136436659Y-153958900D01*
X136404788Y-153950209D01*
X136373196Y-153940256D01*
X136335926Y-153929167D01*
X136298105Y-153919383D01*
X136259833Y-153910812D01*
X136221215Y-153903366D01*
X136143349Y-153891489D01*
X136065326Y-153883037D01*
X135987970Y-153877295D01*
X135912101Y-153873546D01*
X135768110Y-153869165D01*
X135639927Y-153864171D01*
X135583816Y-153859655D01*
X135534122Y-153852838D01*
X135511937Y-153848343D01*
X135491665Y-153843005D01*
X135473407Y-153836734D01*
X135457267Y-153829440D01*
X135443346Y-153821035D01*
X135431749Y-153811428D01*
X135422577Y-153800530D01*
X135415933Y-153788253D01*
X135411238Y-153770881D01*
X135410282Y-153751023D01*
X135412969Y-153728876D01*
X135419201Y-153704641D01*
X135441915Y-153650701D01*
X135477645Y-153590797D01*
X135525617Y-153526523D01*
X135585051Y-153459475D01*
X135655172Y-153391245D01*
X135735203Y-153323429D01*
X135824366Y-153257621D01*
X135921886Y-153195414D01*
X136026984Y-153138403D01*
X136138885Y-153088183D01*
X136197143Y-153066118D01*
X136256810Y-153046348D01*
X136317790Y-153029073D01*
X136379984Y-153014492D01*
X136443297Y-153002804D01*
X136507630Y-152994209D01*
X136572887Y-152988906D01*
X136638970Y-152987094D01*
X136704879Y-152988883D01*
G37*
X136704879Y-152988883D02*
X136769984Y-152994144D01*
X136834188Y-153002679D01*
X136897391Y-153014291D01*
X136959495Y-153028784D01*
X137020403Y-153045959D01*
X137080015Y-153065620D01*
X137138234Y-153087570D01*
X137194962Y-153111610D01*
X137250099Y-153137545D01*
X137303548Y-153165177D01*
X137355210Y-153194309D01*
X137404987Y-153224744D01*
X137452781Y-153256284D01*
X137498493Y-153288732D01*
X137542026Y-153321891D01*
X137583280Y-153355564D01*
X137622158Y-153389554D01*
X137658561Y-153423664D01*
X137692391Y-153457696D01*
X137723550Y-153491453D01*
X137751939Y-153524738D01*
X137777460Y-153557354D01*
X137800015Y-153589104D01*
X137819505Y-153619790D01*
X137835833Y-153649216D01*
X137848899Y-153677183D01*
X137858606Y-153703496D01*
X137864856Y-153727956D01*
X137867549Y-153750367D01*
X137866588Y-153770532D01*
X137861874Y-153788253D01*
X137855229Y-153800828D01*
X137846054Y-153812070D01*
X137834447Y-153822064D01*
X137820509Y-153830892D01*
X137786043Y-153845393D01*
X137743458Y-153856246D01*
X137693557Y-153864128D01*
X137637141Y-153869712D01*
X137507977Y-153876689D01*
X137362386Y-153882575D01*
X137206789Y-153892767D01*
X137127243Y-153901165D01*
X137047603Y-153912664D01*
X136968672Y-153927939D01*
X136891251Y-153947664D01*
X136859387Y-153956710D01*
X136827281Y-153964486D01*
X136794970Y-153970992D01*
X136762491Y-153976229D01*
X136729882Y-153980197D01*
X136697180Y-153982897D01*
X136664421Y-153984329D01*
X136631644Y-153984494D01*
X136598884Y-153983392D01*
X136566180Y-153981024D01*
X136533568Y-153977390D01*
X136501086Y-153972491D01*
X136468770Y-153966328D01*
X136436659Y-153958900D01*
X136404788Y-153950209D01*
X136373196Y-153940256D01*
X136335926Y-153929167D01*
X136298105Y-153919383D01*
X136259833Y-153910812D01*
X136221215Y-153903366D01*
X136143349Y-153891489D01*
X136065326Y-153883037D01*
X135987970Y-153877295D01*
X135912101Y-153873546D01*
X135768110Y-153869165D01*
X135639927Y-153864171D01*
X135583816Y-153859655D01*
X135534122Y-153852838D01*
X135511937Y-153848343D01*
X135491665Y-153843005D01*
X135473407Y-153836734D01*
X135457267Y-153829440D01*
X135443346Y-153821035D01*
X135431749Y-153811428D01*
X135422577Y-153800530D01*
X135415933Y-153788253D01*
X135411238Y-153770881D01*
X135410282Y-153751023D01*
X135412969Y-153728876D01*
X135419201Y-153704641D01*
X135441915Y-153650701D01*
X135477645Y-153590797D01*
X135525617Y-153526523D01*
X135585051Y-153459475D01*
X135655172Y-153391245D01*
X135735203Y-153323429D01*
X135824366Y-153257621D01*
X135921886Y-153195414D01*
X136026984Y-153138403D01*
X136138885Y-153088183D01*
X136197143Y-153066118D01*
X136256810Y-153046348D01*
X136317790Y-153029073D01*
X136379984Y-153014492D01*
X136443297Y-153002804D01*
X136507630Y-152994209D01*
X136572887Y-152988906D01*
X136638970Y-152987094D01*
X136704879Y-152988883D01*
X136021035Y-155176521D02*
X136086520Y-155537148D01*
X136086520Y-155537148D02*
X135801167Y-155537148D01*
X135801167Y-155537148D02*
X135613974Y-155809140D01*
X135613974Y-155809140D02*
X135396090Y-155809140D01*
X135396090Y-155809140D02*
X135334309Y-155446528D01*
X135334309Y-155446528D02*
X135585134Y-155448513D01*
X135585134Y-155448513D02*
X135779868Y-155176521D01*
X135779868Y-155176521D02*
X136021035Y-155176521D01*
X136021035Y-155176521D02*
X136021035Y-155176521D01*
G36*
X136086520Y-155537148D02*
G01*
X135801167Y-155537148D01*
X135613974Y-155809140D01*
X135396090Y-155809140D01*
X135334309Y-155446528D01*
X135585134Y-155448513D01*
X135779868Y-155176521D01*
X136021035Y-155176521D01*
X136086520Y-155537148D01*
G37*
X136086520Y-155537148D02*
X135801167Y-155537148D01*
X135613974Y-155809140D01*
X135396090Y-155809140D01*
X135334309Y-155446528D01*
X135585134Y-155448513D01*
X135779868Y-155176521D01*
X136021035Y-155176521D01*
X136086520Y-155537148D01*
X135921552Y-154649603D02*
X135987037Y-155010362D01*
X135987037Y-155010362D02*
X135701551Y-155010362D01*
X135701551Y-155010362D02*
X135514491Y-155282354D01*
X135514491Y-155282354D02*
X135296606Y-155282354D01*
X135296606Y-155282354D02*
X135234826Y-154919743D01*
X135234826Y-154919743D02*
X135485519Y-154921595D01*
X135485519Y-154921595D02*
X135680384Y-154649603D01*
X135680384Y-154649603D02*
X135921552Y-154649603D01*
X135921552Y-154649603D02*
X135921552Y-154649603D01*
G36*
X135987037Y-155010362D02*
G01*
X135701551Y-155010362D01*
X135514491Y-155282354D01*
X135296606Y-155282354D01*
X135234826Y-154919743D01*
X135485519Y-154921595D01*
X135680384Y-154649603D01*
X135921552Y-154649603D01*
X135987037Y-155010362D01*
G37*
X135987037Y-155010362D02*
X135701551Y-155010362D01*
X135514491Y-155282354D01*
X135296606Y-155282354D01*
X135234826Y-154919743D01*
X135485519Y-154921595D01*
X135680384Y-154649603D01*
X135921552Y-154649603D01*
X135987037Y-155010362D01*
X135998017Y-154091465D02*
X136467123Y-154091465D01*
X136467123Y-154091465D02*
X136467902Y-154097428D01*
X136467902Y-154097428D02*
X136468853Y-154103363D01*
X136468853Y-154103363D02*
X136469974Y-154109265D01*
X136469974Y-154109265D02*
X136471264Y-154115132D01*
X136471264Y-154115132D02*
X136472723Y-154120958D01*
X136472723Y-154120958D02*
X136474350Y-154126742D01*
X136474350Y-154126742D02*
X136476144Y-154132478D01*
X136476144Y-154132478D02*
X136478103Y-154138164D01*
X136478103Y-154138164D02*
X136479154Y-154140570D01*
X136479154Y-154140570D02*
X136480251Y-154142954D01*
X136480251Y-154142954D02*
X136481393Y-154145315D01*
X136481393Y-154145315D02*
X136482580Y-154147652D01*
X136482580Y-154147652D02*
X136483812Y-154149964D01*
X136483812Y-154149964D02*
X136485088Y-154152252D01*
X136485088Y-154152252D02*
X136486408Y-154154514D01*
X136486408Y-154154514D02*
X136487771Y-154156750D01*
X136487771Y-154156750D02*
X136489177Y-154158959D01*
X136489177Y-154158959D02*
X136490627Y-154161141D01*
X136490627Y-154161141D02*
X136492118Y-154163294D01*
X136492118Y-154163294D02*
X136493651Y-154165419D01*
X136493651Y-154165419D02*
X136495226Y-154167514D01*
X136495226Y-154167514D02*
X136496842Y-154169580D01*
X136496842Y-154169580D02*
X136498499Y-154171614D01*
X136498499Y-154171614D02*
X136500196Y-154173618D01*
X136500196Y-154173618D02*
X136502485Y-154176536D01*
X136502485Y-154176536D02*
X136504825Y-154179410D01*
X136504825Y-154179410D02*
X136507216Y-154182239D01*
X136507216Y-154182239D02*
X136509658Y-154185023D01*
X136509658Y-154185023D02*
X136512150Y-154187760D01*
X136512150Y-154187760D02*
X136514691Y-154190450D01*
X136514691Y-154190450D02*
X136517281Y-154193093D01*
X136517281Y-154193093D02*
X136519919Y-154195687D01*
X136519919Y-154195687D02*
X136522603Y-154198233D01*
X136522603Y-154198233D02*
X136525335Y-154200729D01*
X136525335Y-154200729D02*
X136528112Y-154203175D01*
X136528112Y-154203175D02*
X136530934Y-154205570D01*
X136530934Y-154205570D02*
X136533801Y-154207913D01*
X136533801Y-154207913D02*
X136536711Y-154210205D01*
X136536711Y-154210205D02*
X136539665Y-154212443D01*
X136539665Y-154212443D02*
X136542661Y-154214629D01*
X136542661Y-154214629D02*
X136546535Y-154217268D01*
X136546535Y-154217268D02*
X136550466Y-154219813D01*
X136550466Y-154219813D02*
X136554452Y-154222262D01*
X136554452Y-154222262D02*
X136558492Y-154224616D01*
X136558492Y-154224616D02*
X136562585Y-154226872D01*
X136562585Y-154226872D02*
X136566727Y-154229030D01*
X136566727Y-154229030D02*
X136570918Y-154231090D01*
X136570918Y-154231090D02*
X136575156Y-154233050D01*
X136575156Y-154233050D02*
X136579439Y-154234910D01*
X136579439Y-154234910D02*
X136583765Y-154236669D01*
X136583765Y-154236669D02*
X136588132Y-154238326D01*
X136588132Y-154238326D02*
X136592539Y-154239880D01*
X136592539Y-154239880D02*
X136596984Y-154241331D01*
X136596984Y-154241331D02*
X136601465Y-154242678D01*
X136601465Y-154242678D02*
X136605980Y-154243919D01*
X136605980Y-154243919D02*
X136610527Y-154245055D01*
X136610527Y-154245055D02*
X136614944Y-154246110D01*
X136614944Y-154246110D02*
X136619384Y-154247058D01*
X136619384Y-154247058D02*
X136623844Y-154247898D01*
X136623844Y-154247898D02*
X136628322Y-154248631D01*
X136628322Y-154248631D02*
X136632816Y-154249256D01*
X136632816Y-154249256D02*
X136637325Y-154249772D01*
X136637325Y-154249772D02*
X136641846Y-154250180D01*
X136641846Y-154250180D02*
X136646378Y-154250480D01*
X136646378Y-154250480D02*
X136650588Y-154250631D01*
X136650588Y-154250631D02*
X136654799Y-154250683D01*
X136654799Y-154250683D02*
X136659010Y-154250634D01*
X136659010Y-154250634D02*
X136663217Y-154250486D01*
X136663217Y-154250486D02*
X136667419Y-154250237D01*
X136667419Y-154250237D02*
X136671615Y-154249888D01*
X136671615Y-154249888D02*
X136675802Y-154249440D01*
X136675802Y-154249440D02*
X136679980Y-154248892D01*
X136679980Y-154248892D02*
X136684011Y-154248151D01*
X136684011Y-154248151D02*
X136688021Y-154247319D01*
X136688021Y-154247319D02*
X136692008Y-154246399D01*
X136692008Y-154246399D02*
X136695970Y-154245389D01*
X136695970Y-154245389D02*
X136699907Y-154244291D01*
X136699907Y-154244291D02*
X136703817Y-154243106D01*
X136703817Y-154243106D02*
X136707698Y-154241833D01*
X136707698Y-154241833D02*
X136711549Y-154240473D01*
X136711549Y-154240473D02*
X136715369Y-154239027D01*
X136715369Y-154239027D02*
X136719155Y-154237495D01*
X136719155Y-154237495D02*
X136722907Y-154235878D01*
X136722907Y-154235878D02*
X136726623Y-154234176D01*
X136726623Y-154234176D02*
X136730302Y-154232391D01*
X136730302Y-154232391D02*
X136733942Y-154230522D01*
X136733942Y-154230522D02*
X136737541Y-154228569D01*
X136737541Y-154228569D02*
X136741099Y-154226534D01*
X136741099Y-154226534D02*
X136744816Y-154224423D01*
X136744816Y-154224423D02*
X136748485Y-154222234D01*
X136748485Y-154222234D02*
X136752102Y-154219968D01*
X136752102Y-154219968D02*
X136755669Y-154217626D01*
X136755669Y-154217626D02*
X136759182Y-154215209D01*
X136759182Y-154215209D02*
X136762641Y-154212717D01*
X136762641Y-154212717D02*
X136766046Y-154210153D01*
X136766046Y-154210153D02*
X136769394Y-154207517D01*
X136769394Y-154207517D02*
X136772684Y-154204809D01*
X136772684Y-154204809D02*
X136775917Y-154202031D01*
X136775917Y-154202031D02*
X136779089Y-154199183D01*
X136779089Y-154199183D02*
X136782201Y-154196267D01*
X136782201Y-154196267D02*
X136785250Y-154193284D01*
X136785250Y-154193284D02*
X136788237Y-154190233D01*
X136788237Y-154190233D02*
X136791159Y-154187117D01*
X136791159Y-154187117D02*
X136794016Y-154183937D01*
X136794016Y-154183937D02*
X136796560Y-154181168D01*
X136796560Y-154181168D02*
X136799030Y-154178340D01*
X136799030Y-154178340D02*
X136801426Y-154175453D01*
X136801426Y-154175453D02*
X136803747Y-154172508D01*
X136803747Y-154172508D02*
X136805991Y-154169508D01*
X136805991Y-154169508D02*
X136808158Y-154166454D01*
X136808158Y-154166454D02*
X136810247Y-154163347D01*
X136810247Y-154163347D02*
X136812256Y-154160190D01*
X136812256Y-154160190D02*
X136814185Y-154156982D01*
X136814185Y-154156982D02*
X136816034Y-154153727D01*
X136816034Y-154153727D02*
X136817800Y-154150425D01*
X136817800Y-154150425D02*
X136819483Y-154147078D01*
X136819483Y-154147078D02*
X136821083Y-154143687D01*
X136821083Y-154143687D02*
X136822598Y-154140254D01*
X136822598Y-154140254D02*
X136824026Y-154136781D01*
X136824026Y-154136781D02*
X136825369Y-154133269D01*
X136825369Y-154133269D02*
X136826965Y-154128109D01*
X136826965Y-154128109D02*
X136828493Y-154122928D01*
X136828493Y-154122928D02*
X136829952Y-154117728D01*
X136829952Y-154117728D02*
X136831343Y-154112510D01*
X136831343Y-154112510D02*
X136832665Y-154107274D01*
X136832665Y-154107274D02*
X136833918Y-154102021D01*
X136833918Y-154102021D02*
X136835102Y-154096751D01*
X136835102Y-154096751D02*
X136836217Y-154091465D01*
X136836217Y-154091465D02*
X137276483Y-154091465D01*
X137276483Y-154091465D02*
X137201474Y-154745250D01*
X137201474Y-154745250D02*
X136086123Y-154745250D01*
X136086123Y-154745250D02*
X135998017Y-154091465D01*
X135998017Y-154091465D02*
X135998017Y-154091465D01*
G36*
X136467902Y-154097428D02*
G01*
X136468853Y-154103363D01*
X136469974Y-154109265D01*
X136471264Y-154115132D01*
X136472723Y-154120958D01*
X136474350Y-154126742D01*
X136476144Y-154132478D01*
X136478103Y-154138164D01*
X136479154Y-154140570D01*
X136480251Y-154142954D01*
X136481393Y-154145315D01*
X136482580Y-154147652D01*
X136483812Y-154149964D01*
X136485088Y-154152252D01*
X136486408Y-154154514D01*
X136487771Y-154156750D01*
X136489177Y-154158959D01*
X136490627Y-154161141D01*
X136492118Y-154163294D01*
X136493651Y-154165419D01*
X136495226Y-154167514D01*
X136496842Y-154169580D01*
X136498499Y-154171614D01*
X136500196Y-154173618D01*
X136502485Y-154176536D01*
X136504825Y-154179410D01*
X136507216Y-154182239D01*
X136509658Y-154185023D01*
X136512150Y-154187760D01*
X136514691Y-154190450D01*
X136517281Y-154193093D01*
X136519919Y-154195687D01*
X136522603Y-154198233D01*
X136525335Y-154200729D01*
X136528112Y-154203175D01*
X136530934Y-154205570D01*
X136533801Y-154207913D01*
X136536711Y-154210205D01*
X136539665Y-154212443D01*
X136542661Y-154214629D01*
X136546535Y-154217268D01*
X136550466Y-154219813D01*
X136554452Y-154222262D01*
X136558492Y-154224616D01*
X136562585Y-154226872D01*
X136566727Y-154229030D01*
X136570918Y-154231090D01*
X136575156Y-154233050D01*
X136579439Y-154234910D01*
X136583765Y-154236669D01*
X136588132Y-154238326D01*
X136592539Y-154239880D01*
X136596984Y-154241331D01*
X136601465Y-154242678D01*
X136605980Y-154243919D01*
X136610527Y-154245055D01*
X136614944Y-154246110D01*
X136619384Y-154247058D01*
X136623844Y-154247898D01*
X136628322Y-154248631D01*
X136632816Y-154249256D01*
X136637325Y-154249772D01*
X136641846Y-154250180D01*
X136646378Y-154250480D01*
X136650588Y-154250631D01*
X136654799Y-154250683D01*
X136659010Y-154250634D01*
X136663217Y-154250486D01*
X136667419Y-154250237D01*
X136671615Y-154249888D01*
X136675802Y-154249440D01*
X136679980Y-154248892D01*
X136684011Y-154248151D01*
X136688021Y-154247319D01*
X136692008Y-154246399D01*
X136695970Y-154245389D01*
X136699907Y-154244291D01*
X136703817Y-154243106D01*
X136707698Y-154241833D01*
X136711549Y-154240473D01*
X136715369Y-154239027D01*
X136719155Y-154237495D01*
X136722907Y-154235878D01*
X136726623Y-154234176D01*
X136730302Y-154232391D01*
X136733942Y-154230522D01*
X136737541Y-154228569D01*
X136741099Y-154226534D01*
X136744816Y-154224423D01*
X136748485Y-154222234D01*
X136752102Y-154219968D01*
X136755669Y-154217626D01*
X136759182Y-154215209D01*
X136762641Y-154212717D01*
X136766046Y-154210153D01*
X136769394Y-154207517D01*
X136772684Y-154204809D01*
X136775917Y-154202031D01*
X136779089Y-154199183D01*
X136782201Y-154196267D01*
X136785250Y-154193284D01*
X136788237Y-154190233D01*
X136791159Y-154187117D01*
X136794016Y-154183937D01*
X136796560Y-154181168D01*
X136799030Y-154178340D01*
X136801426Y-154175453D01*
X136803747Y-154172508D01*
X136805991Y-154169508D01*
X136808158Y-154166454D01*
X136810247Y-154163347D01*
X136812256Y-154160190D01*
X136814185Y-154156982D01*
X136816034Y-154153727D01*
X136817800Y-154150425D01*
X136819483Y-154147078D01*
X136821083Y-154143687D01*
X136822598Y-154140254D01*
X136824026Y-154136781D01*
X136825369Y-154133269D01*
X136826965Y-154128109D01*
X136828493Y-154122928D01*
X136829952Y-154117728D01*
X136831343Y-154112510D01*
X136832665Y-154107274D01*
X136833918Y-154102021D01*
X136835102Y-154096751D01*
X136836217Y-154091465D01*
X137276483Y-154091465D01*
X137201474Y-154745250D01*
X136086123Y-154745250D01*
X135998017Y-154091465D01*
X136467123Y-154091465D01*
X136467902Y-154097428D01*
G37*
X136467902Y-154097428D02*
X136468853Y-154103363D01*
X136469974Y-154109265D01*
X136471264Y-154115132D01*
X136472723Y-154120958D01*
X136474350Y-154126742D01*
X136476144Y-154132478D01*
X136478103Y-154138164D01*
X136479154Y-154140570D01*
X136480251Y-154142954D01*
X136481393Y-154145315D01*
X136482580Y-154147652D01*
X136483812Y-154149964D01*
X136485088Y-154152252D01*
X136486408Y-154154514D01*
X136487771Y-154156750D01*
X136489177Y-154158959D01*
X136490627Y-154161141D01*
X136492118Y-154163294D01*
X136493651Y-154165419D01*
X136495226Y-154167514D01*
X136496842Y-154169580D01*
X136498499Y-154171614D01*
X136500196Y-154173618D01*
X136502485Y-154176536D01*
X136504825Y-154179410D01*
X136507216Y-154182239D01*
X136509658Y-154185023D01*
X136512150Y-154187760D01*
X136514691Y-154190450D01*
X136517281Y-154193093D01*
X136519919Y-154195687D01*
X136522603Y-154198233D01*
X136525335Y-154200729D01*
X136528112Y-154203175D01*
X136530934Y-154205570D01*
X136533801Y-154207913D01*
X136536711Y-154210205D01*
X136539665Y-154212443D01*
X136542661Y-154214629D01*
X136546535Y-154217268D01*
X136550466Y-154219813D01*
X136554452Y-154222262D01*
X136558492Y-154224616D01*
X136562585Y-154226872D01*
X136566727Y-154229030D01*
X136570918Y-154231090D01*
X136575156Y-154233050D01*
X136579439Y-154234910D01*
X136583765Y-154236669D01*
X136588132Y-154238326D01*
X136592539Y-154239880D01*
X136596984Y-154241331D01*
X136601465Y-154242678D01*
X136605980Y-154243919D01*
X136610527Y-154245055D01*
X136614944Y-154246110D01*
X136619384Y-154247058D01*
X136623844Y-154247898D01*
X136628322Y-154248631D01*
X136632816Y-154249256D01*
X136637325Y-154249772D01*
X136641846Y-154250180D01*
X136646378Y-154250480D01*
X136650588Y-154250631D01*
X136654799Y-154250683D01*
X136659010Y-154250634D01*
X136663217Y-154250486D01*
X136667419Y-154250237D01*
X136671615Y-154249888D01*
X136675802Y-154249440D01*
X136679980Y-154248892D01*
X136684011Y-154248151D01*
X136688021Y-154247319D01*
X136692008Y-154246399D01*
X136695970Y-154245389D01*
X136699907Y-154244291D01*
X136703817Y-154243106D01*
X136707698Y-154241833D01*
X136711549Y-154240473D01*
X136715369Y-154239027D01*
X136719155Y-154237495D01*
X136722907Y-154235878D01*
X136726623Y-154234176D01*
X136730302Y-154232391D01*
X136733942Y-154230522D01*
X136737541Y-154228569D01*
X136741099Y-154226534D01*
X136744816Y-154224423D01*
X136748485Y-154222234D01*
X136752102Y-154219968D01*
X136755669Y-154217626D01*
X136759182Y-154215209D01*
X136762641Y-154212717D01*
X136766046Y-154210153D01*
X136769394Y-154207517D01*
X136772684Y-154204809D01*
X136775917Y-154202031D01*
X136779089Y-154199183D01*
X136782201Y-154196267D01*
X136785250Y-154193284D01*
X136788237Y-154190233D01*
X136791159Y-154187117D01*
X136794016Y-154183937D01*
X136796560Y-154181168D01*
X136799030Y-154178340D01*
X136801426Y-154175453D01*
X136803747Y-154172508D01*
X136805991Y-154169508D01*
X136808158Y-154166454D01*
X136810247Y-154163347D01*
X136812256Y-154160190D01*
X136814185Y-154156982D01*
X136816034Y-154153727D01*
X136817800Y-154150425D01*
X136819483Y-154147078D01*
X136821083Y-154143687D01*
X136822598Y-154140254D01*
X136824026Y-154136781D01*
X136825369Y-154133269D01*
X136826965Y-154128109D01*
X136828493Y-154122928D01*
X136829952Y-154117728D01*
X136831343Y-154112510D01*
X136832665Y-154107274D01*
X136833918Y-154102021D01*
X136835102Y-154096751D01*
X136836217Y-154091465D01*
X137276483Y-154091465D01*
X137201474Y-154745250D01*
X136086123Y-154745250D01*
X135998017Y-154091465D01*
X136467123Y-154091465D01*
X136467902Y-154097428D01*
X136128721Y-155690077D02*
X136194338Y-156050837D01*
X136194338Y-156050837D02*
X135908852Y-156050837D01*
X135908852Y-156050837D02*
X135721792Y-156322828D01*
X135721792Y-156322828D02*
X135503775Y-156322828D01*
X135503775Y-156322828D02*
X135442127Y-155960085D01*
X135442127Y-155960085D02*
X135692820Y-155962069D01*
X135692820Y-155962069D02*
X135887686Y-155690077D01*
X135887686Y-155690077D02*
X136128721Y-155690077D01*
X136128721Y-155690077D02*
X136128721Y-155690077D01*
G36*
X136194338Y-156050837D02*
G01*
X135908852Y-156050837D01*
X135721792Y-156322828D01*
X135503775Y-156322828D01*
X135442127Y-155960085D01*
X135692820Y-155962069D01*
X135887686Y-155690077D01*
X136128721Y-155690077D01*
X136194338Y-156050837D01*
G37*
X136194338Y-156050837D02*
X135908852Y-156050837D01*
X135721792Y-156322828D01*
X135503775Y-156322828D01*
X135442127Y-155960085D01*
X135692820Y-155962069D01*
X135887686Y-155690077D01*
X136128721Y-155690077D01*
X136194338Y-156050837D01*
X137354006Y-154649603D02*
X137288522Y-155010362D01*
X137288522Y-155010362D02*
X137574007Y-155010362D01*
X137574007Y-155010362D02*
X137761068Y-155282354D01*
X137761068Y-155282354D02*
X137979084Y-155282354D01*
X137979084Y-155282354D02*
X138040732Y-154919743D01*
X138040732Y-154919743D02*
X137790040Y-154921595D01*
X137790040Y-154921595D02*
X137595174Y-154649603D01*
X137595174Y-154649603D02*
X137354006Y-154649603D01*
X137354006Y-154649603D02*
X137354006Y-154649603D01*
G36*
X137790040Y-154921595D02*
G01*
X138040732Y-154919743D01*
X137979084Y-155282354D01*
X137761068Y-155282354D01*
X137574007Y-155010362D01*
X137288522Y-155010362D01*
X137354006Y-154649603D01*
X137595174Y-154649603D01*
X137790040Y-154921595D01*
G37*
X137790040Y-154921595D02*
X138040732Y-154919743D01*
X137979084Y-155282354D01*
X137761068Y-155282354D01*
X137574007Y-155010362D01*
X137288522Y-155010362D01*
X137354006Y-154649603D01*
X137595174Y-154649603D01*
X137790040Y-154921595D01*
X137254523Y-155176521D02*
X137189039Y-155537148D01*
X137189039Y-155537148D02*
X137474392Y-155537148D01*
X137474392Y-155537148D02*
X137661584Y-155809140D01*
X137661584Y-155809140D02*
X137879469Y-155809140D01*
X137879469Y-155809140D02*
X137941249Y-155446528D01*
X137941249Y-155446528D02*
X137690556Y-155448513D01*
X137690556Y-155448513D02*
X137495691Y-155176521D01*
X137495691Y-155176521D02*
X137254523Y-155176521D01*
X137254523Y-155176521D02*
X137254523Y-155176521D01*
G36*
X137690556Y-155448513D02*
G01*
X137941249Y-155446528D01*
X137879469Y-155809140D01*
X137661584Y-155809140D01*
X137474392Y-155537148D01*
X137189039Y-155537148D01*
X137254523Y-155176521D01*
X137495691Y-155176521D01*
X137690556Y-155448513D01*
G37*
X137690556Y-155448513D02*
X137941249Y-155446528D01*
X137879469Y-155809140D01*
X137661584Y-155809140D01*
X137474392Y-155537148D01*
X137189039Y-155537148D01*
X137254523Y-155176521D01*
X137495691Y-155176521D01*
X137690556Y-155448513D01*
X136340652Y-153327480D02*
X136340550Y-153328429D01*
X136340550Y-153328429D02*
X136340280Y-153330106D01*
X136340280Y-153330106D02*
X136339462Y-153334591D01*
X136339462Y-153334591D02*
X136338271Y-153340710D01*
X136338271Y-153340710D02*
X136327155Y-153341778D01*
X136327155Y-153341778D02*
X136316066Y-153343072D01*
X136316066Y-153343072D02*
X136305008Y-153344590D01*
X136305008Y-153344590D02*
X136293984Y-153346332D01*
X136293984Y-153346332D02*
X136282997Y-153348297D01*
X136282997Y-153348297D02*
X136272052Y-153350485D01*
X136272052Y-153350485D02*
X136261151Y-153352894D01*
X136261151Y-153352894D02*
X136250298Y-153355526D01*
X136250298Y-153355526D02*
X136244602Y-153357267D01*
X136244602Y-153357267D02*
X136238930Y-153359083D01*
X136238930Y-153359083D02*
X136233284Y-153360974D01*
X136233284Y-153360974D02*
X136227663Y-153362938D01*
X136227663Y-153362938D02*
X136222068Y-153364977D01*
X136222068Y-153364977D02*
X136216501Y-153367089D01*
X136216501Y-153367089D02*
X136210961Y-153369274D01*
X136210961Y-153369274D02*
X136205450Y-153371533D01*
X136205450Y-153371533D02*
X136203838Y-153372176D01*
X136203838Y-153372176D02*
X136202025Y-153372931D01*
X136202025Y-153372931D02*
X136197496Y-153374874D01*
X136197496Y-153374874D02*
X136191256Y-153377561D01*
X136191256Y-153377561D02*
X136182696Y-153381191D01*
X136182696Y-153381191D02*
X136159677Y-153390980D01*
X136159677Y-153390980D02*
X136154810Y-153393300D01*
X136154810Y-153393300D02*
X136149981Y-153395695D01*
X136149981Y-153395695D02*
X136145190Y-153398165D01*
X136145190Y-153398165D02*
X136140438Y-153400709D01*
X136140438Y-153400709D02*
X136135727Y-153403327D01*
X136135727Y-153403327D02*
X136131056Y-153406018D01*
X136131056Y-153406018D02*
X136126428Y-153408781D01*
X136126428Y-153408781D02*
X136121842Y-153411617D01*
X136121842Y-153411617D02*
X136116919Y-153415281D01*
X136116919Y-153415281D02*
X136112050Y-153419096D01*
X136112050Y-153419096D02*
X136102346Y-153426997D01*
X136102346Y-153426997D02*
X136097444Y-153430989D01*
X136097444Y-153430989D02*
X136092467Y-153434947D01*
X136092467Y-153434947D02*
X136087381Y-153438824D01*
X136087381Y-153438824D02*
X136084788Y-153440718D01*
X136084788Y-153440718D02*
X136082154Y-153442574D01*
X136082154Y-153442574D02*
X136081722Y-153443114D01*
X136081722Y-153443114D02*
X136081281Y-153443646D01*
X136081281Y-153443646D02*
X136080831Y-153444170D01*
X136080831Y-153444170D02*
X136080372Y-153444687D01*
X136080372Y-153444687D02*
X136079904Y-153445196D01*
X136079904Y-153445196D02*
X136079428Y-153445697D01*
X136079428Y-153445697D02*
X136078944Y-153446190D01*
X136078944Y-153446190D02*
X136078451Y-153446675D01*
X136078451Y-153446675D02*
X136077652Y-153447456D01*
X136077652Y-153447456D02*
X136076923Y-153448134D01*
X136076923Y-153448134D02*
X136076234Y-153448745D01*
X136076234Y-153448745D02*
X136075556Y-153449321D01*
X136075556Y-153449321D02*
X136074116Y-153450507D01*
X136074116Y-153450507D02*
X136073294Y-153451186D01*
X136073294Y-153451186D02*
X136072365Y-153451967D01*
X136072365Y-153451967D02*
X136067338Y-153456994D01*
X136067338Y-153456994D02*
X136060062Y-153465196D01*
X136060062Y-153465196D02*
X136055167Y-153470884D01*
X136055167Y-153470884D02*
X136050841Y-153469325D01*
X136050841Y-153469325D02*
X136046561Y-153467652D01*
X136046561Y-153467652D02*
X136042329Y-153465866D01*
X136042329Y-153465866D02*
X136038147Y-153463967D01*
X136038147Y-153463967D02*
X136034017Y-153461958D01*
X136034017Y-153461958D02*
X136029941Y-153459839D01*
X136029941Y-153459839D02*
X136025922Y-153457610D01*
X136025922Y-153457610D02*
X136021962Y-153455274D01*
X136021962Y-153455274D02*
X136019914Y-153454134D01*
X136019914Y-153454134D02*
X136017904Y-153452935D01*
X136017904Y-153452935D02*
X136015934Y-153451678D01*
X136015934Y-153451678D02*
X136014004Y-153450364D01*
X136014004Y-153450364D02*
X136012117Y-153448994D01*
X136012117Y-153448994D02*
X136010272Y-153447569D01*
X136010272Y-153447569D02*
X136008471Y-153446090D01*
X136008471Y-153446090D02*
X136006716Y-153444559D01*
X136006716Y-153444559D02*
X136005007Y-153442976D01*
X136005007Y-153442976D02*
X136003346Y-153441342D01*
X136003346Y-153441342D02*
X136001734Y-153439659D01*
X136001734Y-153439659D02*
X136000172Y-153437927D01*
X136000172Y-153437927D02*
X135998660Y-153436148D01*
X135998660Y-153436148D02*
X135997201Y-153434322D01*
X135997201Y-153434322D02*
X135995796Y-153432451D01*
X135995796Y-153432451D02*
X135994445Y-153430535D01*
X135994445Y-153430535D02*
X135984391Y-153412015D01*
X135984391Y-153412015D02*
X136000266Y-153394420D01*
X136000266Y-153394420D02*
X136006087Y-153388483D01*
X136006087Y-153388483D02*
X136010870Y-153383649D01*
X136010870Y-153383649D02*
X136013002Y-153381519D01*
X136013002Y-153381519D02*
X136014685Y-153379868D01*
X136014685Y-153379868D02*
X136018428Y-153376239D01*
X136018428Y-153376239D02*
X136022232Y-153372677D01*
X136022232Y-153372677D02*
X136026097Y-153369183D01*
X136026097Y-153369183D02*
X136030022Y-153365756D01*
X136030022Y-153365756D02*
X136034006Y-153362399D01*
X136034006Y-153362399D02*
X136038048Y-153359111D01*
X136038048Y-153359111D02*
X136042147Y-153355894D01*
X136042147Y-153355894D02*
X136046303Y-153352748D01*
X136046303Y-153352748D02*
X136049832Y-153349871D01*
X136049832Y-153349871D02*
X136053408Y-153347055D01*
X136053408Y-153347055D02*
X136057029Y-153344299D01*
X136057029Y-153344299D02*
X136060697Y-153341604D01*
X136060697Y-153341604D02*
X136064408Y-153338972D01*
X136064408Y-153338972D02*
X136068164Y-153336401D01*
X136068164Y-153336401D02*
X136071963Y-153333894D01*
X136071963Y-153333894D02*
X136075804Y-153331450D01*
X136075804Y-153331450D02*
X136077952Y-153330121D01*
X136077952Y-153330121D02*
X136080137Y-153328804D01*
X136080137Y-153328804D02*
X136084668Y-153326158D01*
X136084668Y-153326158D02*
X136094722Y-153320469D01*
X136094722Y-153320469D02*
X136101471Y-153316740D01*
X136101471Y-153316740D02*
X136106843Y-153313855D01*
X136106843Y-153313855D02*
X136110851Y-153311763D01*
X136110851Y-153311763D02*
X136113507Y-153310415D01*
X136113507Y-153310415D02*
X136125149Y-153304594D01*
X136125149Y-153304594D02*
X136140125Y-153297725D01*
X136140125Y-153297725D02*
X136155264Y-153291245D01*
X136155264Y-153291245D02*
X136170560Y-153285155D01*
X136170560Y-153285155D02*
X136186003Y-153279460D01*
X136186003Y-153279460D02*
X136201587Y-153274162D01*
X136201587Y-153274162D02*
X136217304Y-153269263D01*
X136217304Y-153269263D02*
X136233146Y-153264766D01*
X136233146Y-153264766D02*
X136249106Y-153260674D01*
X136249106Y-153260674D02*
X136263152Y-153257750D01*
X136263152Y-153257750D02*
X136277135Y-153255146D01*
X136277135Y-153255146D02*
X136290499Y-153252883D01*
X136290499Y-153252883D02*
X136302684Y-153250983D01*
X136302684Y-153250983D02*
X136328481Y-153247444D01*
X136328481Y-153247444D02*
X136329457Y-153249755D01*
X136329457Y-153249755D02*
X136331822Y-153255514D01*
X136331822Y-153255514D02*
X136333261Y-153259136D01*
X136333261Y-153259136D02*
X136334732Y-153262959D01*
X136334732Y-153262959D02*
X136336128Y-153266764D01*
X136336128Y-153266764D02*
X136337345Y-153270331D01*
X136337345Y-153270331D02*
X136338288Y-153273824D01*
X136338288Y-153273824D02*
X136339134Y-153277338D01*
X136339134Y-153277338D02*
X136339881Y-153280869D01*
X136339881Y-153280869D02*
X136340531Y-153284416D01*
X136340531Y-153284416D02*
X136341083Y-153287977D01*
X136341083Y-153287977D02*
X136341537Y-153291550D01*
X136341537Y-153291550D02*
X136341892Y-153295133D01*
X136341892Y-153295133D02*
X136342150Y-153298723D01*
X136342150Y-153298723D02*
X136342308Y-153302319D01*
X136342308Y-153302319D02*
X136342368Y-153305919D01*
X136342368Y-153305919D02*
X136342330Y-153309520D01*
X136342330Y-153309520D02*
X136342192Y-153313121D01*
X136342192Y-153313121D02*
X136341956Y-153316720D01*
X136341956Y-153316720D02*
X136341621Y-153320314D01*
X136341621Y-153320314D02*
X136341186Y-153323902D01*
X136341186Y-153323902D02*
X136340652Y-153327480D01*
X136340652Y-153327480D02*
X136340652Y-153327480D01*
G36*
X136329457Y-153249755D02*
G01*
X136331822Y-153255514D01*
X136333261Y-153259136D01*
X136334732Y-153262959D01*
X136336128Y-153266764D01*
X136337345Y-153270331D01*
X136338288Y-153273824D01*
X136339134Y-153277338D01*
X136339881Y-153280869D01*
X136340531Y-153284416D01*
X136341083Y-153287977D01*
X136341537Y-153291550D01*
X136341892Y-153295133D01*
X136342150Y-153298723D01*
X136342308Y-153302319D01*
X136342368Y-153305919D01*
X136342330Y-153309520D01*
X136342192Y-153313121D01*
X136341956Y-153316720D01*
X136341621Y-153320314D01*
X136341186Y-153323902D01*
X136340652Y-153327480D01*
X136340550Y-153328429D01*
X136340280Y-153330106D01*
X136339462Y-153334591D01*
X136338271Y-153340710D01*
X136327155Y-153341778D01*
X136316066Y-153343072D01*
X136305008Y-153344590D01*
X136293984Y-153346332D01*
X136282997Y-153348297D01*
X136272052Y-153350485D01*
X136261151Y-153352894D01*
X136250298Y-153355526D01*
X136244602Y-153357267D01*
X136238930Y-153359083D01*
X136233284Y-153360974D01*
X136227663Y-153362938D01*
X136222068Y-153364977D01*
X136216501Y-153367089D01*
X136210961Y-153369274D01*
X136205450Y-153371533D01*
X136203838Y-153372176D01*
X136202025Y-153372931D01*
X136197496Y-153374874D01*
X136191256Y-153377561D01*
X136182696Y-153381191D01*
X136159677Y-153390980D01*
X136154810Y-153393300D01*
X136149981Y-153395695D01*
X136145190Y-153398165D01*
X136140438Y-153400709D01*
X136135727Y-153403327D01*
X136131056Y-153406018D01*
X136126428Y-153408781D01*
X136121842Y-153411617D01*
X136116919Y-153415281D01*
X136112050Y-153419096D01*
X136102346Y-153426997D01*
X136097444Y-153430989D01*
X136092467Y-153434947D01*
X136087381Y-153438824D01*
X136084788Y-153440718D01*
X136082154Y-153442574D01*
X136081722Y-153443114D01*
X136081281Y-153443646D01*
X136080831Y-153444170D01*
X136080372Y-153444687D01*
X136079904Y-153445196D01*
X136079428Y-153445697D01*
X136078944Y-153446190D01*
X136078451Y-153446675D01*
X136077652Y-153447456D01*
X136076923Y-153448134D01*
X136076234Y-153448745D01*
X136075556Y-153449321D01*
X136074116Y-153450507D01*
X136073294Y-153451186D01*
X136072365Y-153451967D01*
X136067338Y-153456994D01*
X136060062Y-153465196D01*
X136055167Y-153470884D01*
X136050841Y-153469325D01*
X136046561Y-153467652D01*
X136042329Y-153465866D01*
X136038147Y-153463967D01*
X136034017Y-153461958D01*
X136029941Y-153459839D01*
X136025922Y-153457610D01*
X136021962Y-153455274D01*
X136019914Y-153454134D01*
X136017904Y-153452935D01*
X136015934Y-153451678D01*
X136014004Y-153450364D01*
X136012117Y-153448994D01*
X136010272Y-153447569D01*
X136008471Y-153446090D01*
X136006716Y-153444559D01*
X136005007Y-153442976D01*
X136003346Y-153441342D01*
X136001734Y-153439659D01*
X136000172Y-153437927D01*
X135998660Y-153436148D01*
X135997201Y-153434322D01*
X135995796Y-153432451D01*
X135994445Y-153430535D01*
X135984391Y-153412015D01*
X136000266Y-153394420D01*
X136006087Y-153388483D01*
X136010870Y-153383649D01*
X136013002Y-153381519D01*
X136014685Y-153379868D01*
X136018428Y-153376239D01*
X136022232Y-153372677D01*
X136026097Y-153369183D01*
X136030022Y-153365756D01*
X136034006Y-153362399D01*
X136038048Y-153359111D01*
X136042147Y-153355894D01*
X136046303Y-153352748D01*
X136049832Y-153349871D01*
X136053408Y-153347055D01*
X136057029Y-153344299D01*
X136060697Y-153341604D01*
X136064408Y-153338972D01*
X136068164Y-153336401D01*
X136071963Y-153333894D01*
X136075804Y-153331450D01*
X136077952Y-153330121D01*
X136080137Y-153328804D01*
X136084668Y-153326158D01*
X136094722Y-153320469D01*
X136101471Y-153316740D01*
X136106843Y-153313855D01*
X136110851Y-153311763D01*
X136113507Y-153310415D01*
X136125149Y-153304594D01*
X136140125Y-153297725D01*
X136155264Y-153291245D01*
X136170560Y-153285155D01*
X136186003Y-153279460D01*
X136201587Y-153274162D01*
X136217304Y-153269263D01*
X136233146Y-153264766D01*
X136249106Y-153260674D01*
X136263152Y-153257750D01*
X136277135Y-153255146D01*
X136290499Y-153252883D01*
X136302684Y-153250983D01*
X136328481Y-153247444D01*
X136329457Y-153249755D01*
G37*
X136329457Y-153249755D02*
X136331822Y-153255514D01*
X136333261Y-153259136D01*
X136334732Y-153262959D01*
X136336128Y-153266764D01*
X136337345Y-153270331D01*
X136338288Y-153273824D01*
X136339134Y-153277338D01*
X136339881Y-153280869D01*
X136340531Y-153284416D01*
X136341083Y-153287977D01*
X136341537Y-153291550D01*
X136341892Y-153295133D01*
X136342150Y-153298723D01*
X136342308Y-153302319D01*
X136342368Y-153305919D01*
X136342330Y-153309520D01*
X136342192Y-153313121D01*
X136341956Y-153316720D01*
X136341621Y-153320314D01*
X136341186Y-153323902D01*
X136340652Y-153327480D01*
X136340550Y-153328429D01*
X136340280Y-153330106D01*
X136339462Y-153334591D01*
X136338271Y-153340710D01*
X136327155Y-153341778D01*
X136316066Y-153343072D01*
X136305008Y-153344590D01*
X136293984Y-153346332D01*
X136282997Y-153348297D01*
X136272052Y-153350485D01*
X136261151Y-153352894D01*
X136250298Y-153355526D01*
X136244602Y-153357267D01*
X136238930Y-153359083D01*
X136233284Y-153360974D01*
X136227663Y-153362938D01*
X136222068Y-153364977D01*
X136216501Y-153367089D01*
X136210961Y-153369274D01*
X136205450Y-153371533D01*
X136203838Y-153372176D01*
X136202025Y-153372931D01*
X136197496Y-153374874D01*
X136191256Y-153377561D01*
X136182696Y-153381191D01*
X136159677Y-153390980D01*
X136154810Y-153393300D01*
X136149981Y-153395695D01*
X136145190Y-153398165D01*
X136140438Y-153400709D01*
X136135727Y-153403327D01*
X136131056Y-153406018D01*
X136126428Y-153408781D01*
X136121842Y-153411617D01*
X136116919Y-153415281D01*
X136112050Y-153419096D01*
X136102346Y-153426997D01*
X136097444Y-153430989D01*
X136092467Y-153434947D01*
X136087381Y-153438824D01*
X136084788Y-153440718D01*
X136082154Y-153442574D01*
X136081722Y-153443114D01*
X136081281Y-153443646D01*
X136080831Y-153444170D01*
X136080372Y-153444687D01*
X136079904Y-153445196D01*
X136079428Y-153445697D01*
X136078944Y-153446190D01*
X136078451Y-153446675D01*
X136077652Y-153447456D01*
X136076923Y-153448134D01*
X136076234Y-153448745D01*
X136075556Y-153449321D01*
X136074116Y-153450507D01*
X136073294Y-153451186D01*
X136072365Y-153451967D01*
X136067338Y-153456994D01*
X136060062Y-153465196D01*
X136055167Y-153470884D01*
X136050841Y-153469325D01*
X136046561Y-153467652D01*
X136042329Y-153465866D01*
X136038147Y-153463967D01*
X136034017Y-153461958D01*
X136029941Y-153459839D01*
X136025922Y-153457610D01*
X136021962Y-153455274D01*
X136019914Y-153454134D01*
X136017904Y-153452935D01*
X136015934Y-153451678D01*
X136014004Y-153450364D01*
X136012117Y-153448994D01*
X136010272Y-153447569D01*
X136008471Y-153446090D01*
X136006716Y-153444559D01*
X136005007Y-153442976D01*
X136003346Y-153441342D01*
X136001734Y-153439659D01*
X136000172Y-153437927D01*
X135998660Y-153436148D01*
X135997201Y-153434322D01*
X135995796Y-153432451D01*
X135994445Y-153430535D01*
X135984391Y-153412015D01*
X136000266Y-153394420D01*
X136006087Y-153388483D01*
X136010870Y-153383649D01*
X136013002Y-153381519D01*
X136014685Y-153379868D01*
X136018428Y-153376239D01*
X136022232Y-153372677D01*
X136026097Y-153369183D01*
X136030022Y-153365756D01*
X136034006Y-153362399D01*
X136038048Y-153359111D01*
X136042147Y-153355894D01*
X136046303Y-153352748D01*
X136049832Y-153349871D01*
X136053408Y-153347055D01*
X136057029Y-153344299D01*
X136060697Y-153341604D01*
X136064408Y-153338972D01*
X136068164Y-153336401D01*
X136071963Y-153333894D01*
X136075804Y-153331450D01*
X136077952Y-153330121D01*
X136080137Y-153328804D01*
X136084668Y-153326158D01*
X136094722Y-153320469D01*
X136101471Y-153316740D01*
X136106843Y-153313855D01*
X136110851Y-153311763D01*
X136113507Y-153310415D01*
X136125149Y-153304594D01*
X136140125Y-153297725D01*
X136155264Y-153291245D01*
X136170560Y-153285155D01*
X136186003Y-153279460D01*
X136201587Y-153274162D01*
X136217304Y-153269263D01*
X136233146Y-153264766D01*
X136249106Y-153260674D01*
X136263152Y-153257750D01*
X136277135Y-153255146D01*
X136290499Y-153252883D01*
X136302684Y-153250983D01*
X136328481Y-153247444D01*
X136329457Y-153249755D01*
D13*
%TO.C,RV3*%
X138072000Y-138066000D02*
X138072000Y-142786000D01*
X147822000Y-138066000D02*
X147822000Y-142786000D01*
X141282000Y-138066000D02*
X142112000Y-138066000D01*
X138072000Y-138066000D02*
X139562000Y-138066000D01*
X146632000Y-138066000D02*
X147812000Y-138066000D01*
X143732000Y-138066000D02*
X144262000Y-138066000D01*
X147812000Y-146596000D02*
X147812000Y-149656000D01*
X138072000Y-146596000D02*
X138072000Y-149656000D01*
X138072000Y-149656000D02*
X147812000Y-149656000D01*
%TO.C,RV2*%
X135174000Y-87378000D02*
X135174000Y-82658000D01*
X125424000Y-87378000D02*
X125424000Y-82658000D01*
X131964000Y-87378000D02*
X131134000Y-87378000D01*
X135174000Y-87378000D02*
X133684000Y-87378000D01*
X126614000Y-87378000D02*
X125434000Y-87378000D01*
X129514000Y-87378000D02*
X128984000Y-87378000D01*
X125434000Y-78848000D02*
X125434000Y-75788000D01*
X135174000Y-78848000D02*
X135174000Y-75788000D01*
X135174000Y-75788000D02*
X125434000Y-75788000D01*
%TO.C,RV1*%
X148432500Y-87349000D02*
X148432500Y-82629000D01*
X138682500Y-87349000D02*
X138682500Y-82629000D01*
X145222500Y-87349000D02*
X144392500Y-87349000D01*
X148432500Y-87349000D02*
X146942500Y-87349000D01*
X139872500Y-87349000D02*
X138692500Y-87349000D01*
X142772500Y-87349000D02*
X142242500Y-87349000D01*
X138692500Y-78819000D02*
X138692500Y-75759000D01*
X148432500Y-78819000D02*
X148432500Y-75759000D01*
X148432500Y-75759000D02*
X138692500Y-75759000D01*
%TO.C,J3*%
X134234000Y-122406000D02*
X134234000Y-132906000D01*
X129384000Y-122406000D02*
X125234000Y-122406000D01*
X134234000Y-132906000D02*
X130234000Y-132906000D01*
X129234000Y-132906000D02*
X125234000Y-132906000D01*
X125234000Y-122406000D02*
X125234000Y-132906000D01*
X128674000Y-119426000D02*
X129534000Y-119426000D01*
X128674000Y-119426000D02*
X128674000Y-120226000D01*
X134234000Y-122406000D02*
X130084000Y-122406000D01*
X131534000Y-126906000D02*
G75*
G03*
X131534000Y-126906000I-1800000J0D01*
G01*
%TO.C,J2*%
X147502000Y-122406000D02*
X147502000Y-132906000D01*
X142652000Y-122406000D02*
X138502000Y-122406000D01*
X147502000Y-132906000D02*
X143502000Y-132906000D01*
X142502000Y-132906000D02*
X138502000Y-132906000D01*
X138502000Y-122406000D02*
X138502000Y-132906000D01*
X141942000Y-119426000D02*
X142802000Y-119426000D01*
X141942000Y-119426000D02*
X141942000Y-120226000D01*
X147502000Y-122406000D02*
X143352000Y-122406000D01*
X144802000Y-126906000D02*
G75*
G03*
X144802000Y-126906000I-1800000J0D01*
G01*
%TO.C,J1*%
X134294000Y-139856000D02*
X134294000Y-150356000D01*
X129444000Y-139856000D02*
X125294000Y-139856000D01*
X134294000Y-150356000D02*
X130294000Y-150356000D01*
X129294000Y-150356000D02*
X125294000Y-150356000D01*
X125294000Y-139856000D02*
X125294000Y-150356000D01*
X128734000Y-136876000D02*
X129594000Y-136876000D01*
X128734000Y-136876000D02*
X128734000Y-137676000D01*
X134294000Y-139856000D02*
X130144000Y-139856000D01*
X131594000Y-144356000D02*
G75*
G03*
X131594000Y-144356000I-1800000J0D01*
G01*
%TD*%
M02*
