%TF.GenerationSoftware,KiCad,Pcbnew,(6.0.0-0)*%
%TF.CreationDate,2022-11-09T20:37:39-05:00*%
%TF.ProjectId,VCO,56434f2e-6b69-4636-9164-5f7063625858,rev?*%
%TF.SameCoordinates,Original*%
%TF.FileFunction,Legend,Bot*%
%TF.FilePolarity,Positive*%
%FSLAX46Y46*%
G04 Gerber Fmt 4.6, Leading zero omitted, Abs format (unit mm)*
G04 Created by KiCad (PCBNEW (6.0.0-0)) date 2022-11-09 20:37:39*
%MOMM*%
%LPD*%
G01*
G04 APERTURE LIST*
%ADD10C,0.150000*%
%ADD11C,0.120000*%
G04 APERTURE END LIST*
D10*
X64476380Y-60166666D02*
X65190666Y-60166666D01*
X65333523Y-60119047D01*
X65428761Y-60023809D01*
X65476380Y-59880952D01*
X65476380Y-59785714D01*
X65476380Y-61119047D02*
X65476380Y-60642857D01*
X64476380Y-60642857D01*
X65381142Y-62023809D02*
X65428761Y-61976190D01*
X65476380Y-61833333D01*
X65476380Y-61738095D01*
X65428761Y-61595238D01*
X65333523Y-61500000D01*
X65238285Y-61452380D01*
X65047809Y-61404761D01*
X64904952Y-61404761D01*
X64714476Y-61452380D01*
X64619238Y-61500000D01*
X64524000Y-61595238D01*
X64476380Y-61738095D01*
X64476380Y-61833333D01*
X64524000Y-61976190D01*
X64571619Y-62023809D01*
X64476380Y-62738095D02*
X65190666Y-62738095D01*
X65333523Y-62690476D01*
X65428761Y-62595238D01*
X65476380Y-62452380D01*
X65476380Y-62357142D01*
X65476380Y-63690476D02*
X65476380Y-63214285D01*
X64476380Y-63214285D01*
X65381142Y-64595238D02*
X65428761Y-64547619D01*
X65476380Y-64404761D01*
X65476380Y-64309523D01*
X65428761Y-64166666D01*
X65333523Y-64071428D01*
X65238285Y-64023809D01*
X65047809Y-63976190D01*
X64904952Y-63976190D01*
X64714476Y-64023809D01*
X64619238Y-64071428D01*
X64524000Y-64166666D01*
X64476380Y-64309523D01*
X64476380Y-64404761D01*
X64524000Y-64547619D01*
X64571619Y-64595238D01*
X64476380Y-65309523D02*
X65190666Y-65309523D01*
X65333523Y-65261904D01*
X65428761Y-65166666D01*
X65476380Y-65023809D01*
X65476380Y-64928571D01*
X65476380Y-66261904D02*
X65476380Y-65785714D01*
X64476380Y-65785714D01*
X65381142Y-67166666D02*
X65428761Y-67119047D01*
X65476380Y-66976190D01*
X65476380Y-66880952D01*
X65428761Y-66738095D01*
X65333523Y-66642857D01*
X65238285Y-66595238D01*
X65047809Y-66547619D01*
X64904952Y-66547619D01*
X64714476Y-66595238D01*
X64619238Y-66642857D01*
X64524000Y-66738095D01*
X64476380Y-66880952D01*
X64476380Y-66976190D01*
X64524000Y-67119047D01*
X64571619Y-67166666D01*
D11*
%TO.C,R11*%
X50035000Y-47217064D02*
X50035000Y-46762936D01*
X51505000Y-47217064D02*
X51505000Y-46762936D01*
%TO.C,R12*%
X55145000Y-120369064D02*
X55145000Y-119914936D01*
X56615000Y-120369064D02*
X56615000Y-119914936D01*
%TO.C,R8*%
X52321000Y-46762936D02*
X52321000Y-47217064D01*
X53791000Y-46762936D02*
X53791000Y-47217064D01*
%TO.C,R4*%
X51505000Y-60105064D02*
X51505000Y-59650936D01*
X50035000Y-60105064D02*
X50035000Y-59650936D01*
%TO.C,R3*%
X60224936Y-84609000D02*
X60679064Y-84609000D01*
X60224936Y-86079000D02*
X60679064Y-86079000D01*
%TO.C,R13*%
X54329000Y-120369064D02*
X54329000Y-119914936D01*
X52859000Y-120369064D02*
X52859000Y-119914936D01*
%TO.C,U1*%
X41098000Y-53340000D02*
X41098000Y-55290000D01*
X46218000Y-53340000D02*
X46218000Y-56790000D01*
X41098000Y-53340000D02*
X41098000Y-51390000D01*
X46218000Y-53340000D02*
X46218000Y-51390000D01*
%TO.C,C1*%
X56077000Y-59616748D02*
X56077000Y-60139252D01*
X54607000Y-59616748D02*
X54607000Y-60139252D01*
%TO.C,J1*%
X57666000Y-45056500D02*
X58166000Y-44056500D01*
X62076000Y-35856500D02*
X36476000Y-35856500D01*
X47226000Y-42356500D02*
X47226000Y-42356500D01*
X58666000Y-45056500D02*
X57666000Y-45056500D01*
X62076000Y-42356500D02*
X62076000Y-35856500D01*
X35176000Y-43666500D02*
X63376000Y-43666500D01*
X36476000Y-42356500D02*
X47226000Y-42356500D01*
X47226000Y-42356500D02*
X47226000Y-43666500D01*
X35176000Y-34546500D02*
X35176000Y-43666500D01*
X63376000Y-43666500D02*
X63376000Y-34546500D01*
X51326000Y-43666500D02*
X51326000Y-42356500D01*
X36476000Y-35856500D02*
X36476000Y-42356500D01*
X51326000Y-42356500D02*
X62076000Y-42356500D01*
X63376000Y-34546500D02*
X35176000Y-34546500D01*
X58166000Y-44056500D02*
X58666000Y-45056500D01*
%TO.C,R5*%
X45463000Y-60105064D02*
X45463000Y-59650936D01*
X46933000Y-60105064D02*
X46933000Y-59650936D01*
%TO.C,R7*%
X39367000Y-59650936D02*
X39367000Y-60105064D01*
X40837000Y-59650936D02*
X40837000Y-60105064D01*
%TO.C,R1*%
X49219000Y-60105064D02*
X49219000Y-59650936D01*
X47749000Y-60105064D02*
X47749000Y-59650936D01*
%TO.C,R9*%
X56077000Y-47217064D02*
X56077000Y-46762936D01*
X54607000Y-47217064D02*
X54607000Y-46762936D01*
%TO.C,Q1*%
X44740000Y-60198000D02*
X44740000Y-60848000D01*
X41620000Y-60198000D02*
X41620000Y-58523000D01*
X44740000Y-60198000D02*
X44740000Y-59548000D01*
X41620000Y-60198000D02*
X41620000Y-60848000D01*
%TO.C,R2*%
X51588936Y-74449000D02*
X52043064Y-74449000D01*
X51588936Y-75919000D02*
X52043064Y-75919000D01*
%TO.C,R10*%
X49219000Y-47217064D02*
X49219000Y-46762936D01*
X47749000Y-47217064D02*
X47749000Y-46762936D01*
%TO.C,R6*%
X52321000Y-60105064D02*
X52321000Y-59650936D01*
X53791000Y-60105064D02*
X53791000Y-59650936D01*
%TO.C,U2*%
X53738000Y-53340000D02*
X53738000Y-51390000D01*
X48618000Y-53340000D02*
X48618000Y-55290000D01*
X53738000Y-53340000D02*
X53738000Y-56790000D01*
X48618000Y-53340000D02*
X48618000Y-51390000D01*
%TD*%
M02*
