%TF.GenerationSoftware,KiCad,Pcbnew,(6.0.0-0)*%
%TF.CreationDate,2022-11-09T20:37:38-05:00*%
%TF.ProjectId,VCO,56434f2e-6b69-4636-9164-5f7063625858,rev?*%
%TF.SameCoordinates,Original*%
%TF.FileFunction,Copper,L1,Top*%
%TF.FilePolarity,Positive*%
%FSLAX46Y46*%
G04 Gerber Fmt 4.6, Leading zero omitted, Abs format (unit mm)*
G04 Created by KiCad (PCBNEW (6.0.0-0)) date 2022-11-09 20:37:38*
%MOMM*%
%LPD*%
G01*
G04 APERTURE LIST*
G04 Aperture macros list*
%AMRoundRect*
0 Rectangle with rounded corners*
0 $1 Rounding radius*
0 $2 $3 $4 $5 $6 $7 $8 $9 X,Y pos of 4 corners*
0 Add a 4 corners polygon primitive as box body*
4,1,4,$2,$3,$4,$5,$6,$7,$8,$9,$2,$3,0*
0 Add four circle primitives for the rounded corners*
1,1,$1+$1,$2,$3*
1,1,$1+$1,$4,$5*
1,1,$1+$1,$6,$7*
1,1,$1+$1,$8,$9*
0 Add four rect primitives between the rounded corners*
20,1,$1+$1,$2,$3,$4,$5,0*
20,1,$1+$1,$4,$5,$6,$7,0*
20,1,$1+$1,$6,$7,$8,$9,0*
20,1,$1+$1,$8,$9,$2,$3,0*%
%AMRotRect*
0 Rectangle, with rotation*
0 The origin of the aperture is its center*
0 $1 length*
0 $2 width*
0 $3 Rotation angle, in degrees counterclockwise*
0 Add horizontal line*
21,1,$1,$2,0,0,$3*%
G04 Aperture macros list end*
%TA.AperFunction,ComponentPad*%
%ADD10C,2.340000*%
%TD*%
%TA.AperFunction,ComponentPad*%
%ADD11C,0.800000*%
%TD*%
%TA.AperFunction,ComponentPad*%
%ADD12C,6.000000*%
%TD*%
%TA.AperFunction,ComponentPad*%
%ADD13R,3.000000X8.500000*%
%TD*%
%TA.AperFunction,ComponentPad*%
%ADD14RotRect,3.000000X6.500000X315.000000*%
%TD*%
%TA.AperFunction,ComponentPad*%
%ADD15RoundRect,0.250000X0.600000X-0.600000X0.600000X0.600000X-0.600000X0.600000X-0.600000X-0.600000X0*%
%TD*%
%TA.AperFunction,ComponentPad*%
%ADD16C,1.700000*%
%TD*%
%TA.AperFunction,ViaPad*%
%ADD17C,0.800000*%
%TD*%
%TA.AperFunction,Conductor*%
%ADD18C,0.700000*%
%TD*%
%TA.AperFunction,Conductor*%
%ADD19C,0.250000*%
%TD*%
G04 APERTURE END LIST*
D10*
%TO.P,RV1,1,1*%
%TO.N,GND*%
X54276000Y-68574000D03*
%TO.P,RV1,2,2*%
%TO.N,Net-(R2-Pad1)*%
X49276000Y-68574000D03*
%TO.P,RV1,3,3*%
%TO.N,+12V*%
X44276000Y-68574000D03*
%TD*%
D11*
%TO.P,REF\u002A\u002A,1*%
%TO.N,N/C*%
X64480000Y-48514000D03*
X63820990Y-46923010D03*
X62230000Y-46264000D03*
X63820990Y-50104990D03*
X62230000Y-50764000D03*
X59980000Y-48514000D03*
D12*
X62230000Y-48514000D03*
D11*
X60639010Y-46923010D03*
X60639010Y-50104990D03*
%TD*%
D10*
%TO.P,RV2,1,1*%
%TO.N,GND*%
X54276000Y-93212000D03*
%TO.P,RV2,2,2*%
%TO.N,Net-(R3-Pad1)*%
X49276000Y-93212000D03*
%TO.P,RV2,3,3*%
%TO.N,+12V*%
X44276000Y-93212000D03*
%TD*%
D13*
%TO.P,J2,*%
%TO.N,*%
X43651000Y-123415000D03*
D14*
%TO.P,J2,1,Pin_1*%
%TO.N,SQUARE*%
X54861000Y-127397000D03*
%TD*%
D11*
%TO.P,REF\u002A\u002A,1*%
%TO.N,N/C*%
X45907010Y-116688990D03*
X49748000Y-115098000D03*
X47498000Y-112848000D03*
X45248000Y-115098000D03*
X47498000Y-117348000D03*
X49088990Y-116688990D03*
X49088990Y-113507010D03*
X45907010Y-113507010D03*
D12*
X47498000Y-115098000D03*
%TD*%
D13*
%TO.P,J3,*%
%TO.N,*%
X43651000Y-106397000D03*
D14*
%TO.P,J3,1,Pin_1*%
%TO.N,TRIANGLE*%
X54861000Y-110379000D03*
%TD*%
D15*
%TO.P,J1,1,Pin_1*%
%TO.N,-12V*%
X58166000Y-40376500D03*
D16*
%TO.P,J1,2,Pin_2*%
X58166000Y-37836500D03*
%TO.P,J1,3,Pin_3*%
%TO.N,GND*%
X55626000Y-40376500D03*
%TO.P,J1,4,Pin_4*%
X55626000Y-37836500D03*
%TO.P,J1,5,Pin_5*%
X53086000Y-40376500D03*
%TO.P,J1,6,Pin_6*%
X53086000Y-37836500D03*
%TO.P,J1,7,Pin_7*%
X50546000Y-40376500D03*
%TO.P,J1,8,Pin_8*%
X50546000Y-37836500D03*
%TO.P,J1,9,Pin_9*%
%TO.N,+12V*%
X48006000Y-40376500D03*
%TO.P,J1,10,Pin_10*%
X48006000Y-37836500D03*
%TO.P,J1,11,Pin_11*%
%TO.N,unconnected-(J1-Pad11)*%
X45466000Y-40376500D03*
%TO.P,J1,12,Pin_12*%
%TO.N,unconnected-(J1-Pad12)*%
X45466000Y-37836500D03*
%TO.P,J1,13,Pin_13*%
%TO.N,unconnected-(J1-Pad13)*%
X42926000Y-40376500D03*
%TO.P,J1,14,Pin_14*%
%TO.N,unconnected-(J1-Pad14)*%
X42926000Y-37836500D03*
%TO.P,J1,15,Pin_15*%
%TO.N,unconnected-(J1-Pad15)*%
X40386000Y-40376500D03*
%TO.P,J1,16,Pin_16*%
%TO.N,unconnected-(J1-Pad16)*%
X40386000Y-37836500D03*
%TD*%
D17*
%TO.N,GND*%
X45466000Y-62484000D03*
%TO.N,+12V*%
X46990000Y-50800000D03*
X54356000Y-50800000D03*
%TO.N,Net-(C1-Pad2)*%
X53086000Y-54102000D03*
X48260000Y-50800000D03*
%TO.N,TRIANGLE*%
X38100000Y-47752000D03*
X42926000Y-47752000D03*
%TO.N,Net-(R12-Pad2)*%
X47244000Y-57658000D03*
X47244000Y-61976000D03*
%TD*%
D18*
%TO.N,TRIANGLE*%
X42926000Y-47752000D02*
X38100000Y-47752000D01*
D19*
%TO.N,GND*%
X51556000Y-68574000D02*
X54276000Y-68574000D01*
X45466000Y-62484000D02*
X51556000Y-68574000D01*
%TO.N,Net-(C1-Pad2)*%
X48260000Y-50800000D02*
X50546000Y-50800000D01*
X50546000Y-50800000D02*
X53086000Y-53340000D01*
X53086000Y-53340000D02*
X53086000Y-54102000D01*
D18*
%TO.N,-12V*%
X58166000Y-40376500D02*
X58166000Y-37836500D01*
%TO.N,Net-(R12-Pad2)*%
X47244000Y-61976000D02*
X47244000Y-57658000D01*
%TD*%
%TA.AperFunction,Conductor*%
%TO.N,+12V*%
G36*
X65982121Y-33294002D02*
G01*
X66028614Y-33347658D01*
X66040000Y-33400000D01*
X66040000Y-132208000D01*
X66019998Y-132276121D01*
X65966342Y-132322614D01*
X65914000Y-132334000D01*
X32130000Y-132334000D01*
X32061879Y-132313998D01*
X32015386Y-132260342D01*
X32004000Y-132208000D01*
X32004000Y-128634437D01*
X50988514Y-128634437D01*
X51009163Y-128778623D01*
X51069450Y-128911219D01*
X51074397Y-128917372D01*
X51074399Y-128917375D01*
X51095187Y-128943229D01*
X51108643Y-128959965D01*
X53298035Y-131149357D01*
X53300697Y-131151497D01*
X53340625Y-131183601D01*
X53340628Y-131183603D01*
X53346781Y-131188550D01*
X53479377Y-131248837D01*
X53488260Y-131250109D01*
X53488263Y-131250110D01*
X53614674Y-131268213D01*
X53623563Y-131269486D01*
X53632452Y-131268213D01*
X53758863Y-131250110D01*
X53758866Y-131250109D01*
X53767749Y-131248837D01*
X53900345Y-131188550D01*
X53906498Y-131183603D01*
X53906501Y-131183601D01*
X53946429Y-131151497D01*
X53949091Y-131149357D01*
X58613357Y-126485091D01*
X58626813Y-126468355D01*
X58647601Y-126442501D01*
X58647603Y-126442498D01*
X58652550Y-126436345D01*
X58712837Y-126303749D01*
X58733486Y-126159563D01*
X58712837Y-126015377D01*
X58652550Y-125882781D01*
X58647603Y-125876628D01*
X58647601Y-125876625D01*
X58615497Y-125836697D01*
X58613357Y-125834035D01*
X56423965Y-123644643D01*
X56407229Y-123631187D01*
X56381375Y-123610399D01*
X56381372Y-123610397D01*
X56375219Y-123605450D01*
X56242623Y-123545163D01*
X56233740Y-123543891D01*
X56233737Y-123543890D01*
X56107326Y-123525787D01*
X56098437Y-123524514D01*
X56089548Y-123525787D01*
X55963137Y-123543890D01*
X55963134Y-123543891D01*
X55954251Y-123545163D01*
X55821655Y-123605450D01*
X55815502Y-123610397D01*
X55815499Y-123610399D01*
X55789645Y-123631187D01*
X55772909Y-123644643D01*
X51108643Y-128308909D01*
X51106503Y-128311571D01*
X51074399Y-128351499D01*
X51074397Y-128351502D01*
X51069450Y-128357655D01*
X51009163Y-128490251D01*
X50988514Y-128634437D01*
X32004000Y-128634437D01*
X32004000Y-127713134D01*
X41642500Y-127713134D01*
X41649255Y-127775316D01*
X41700385Y-127911705D01*
X41787739Y-128028261D01*
X41904295Y-128115615D01*
X42040684Y-128166745D01*
X42102866Y-128173500D01*
X45199134Y-128173500D01*
X45261316Y-128166745D01*
X45397705Y-128115615D01*
X45514261Y-128028261D01*
X45601615Y-127911705D01*
X45652745Y-127775316D01*
X45659500Y-127713134D01*
X45659500Y-119116866D01*
X45652745Y-119054684D01*
X45601615Y-118918295D01*
X45514261Y-118801739D01*
X45397705Y-118714385D01*
X45261316Y-118663255D01*
X45199134Y-118656500D01*
X42102866Y-118656500D01*
X42040684Y-118663255D01*
X41904295Y-118714385D01*
X41787739Y-118801739D01*
X41700385Y-118918295D01*
X41649255Y-119054684D01*
X41642500Y-119116866D01*
X41642500Y-127713134D01*
X32004000Y-127713134D01*
X32004000Y-115098000D01*
X43984685Y-115098000D01*
X44003931Y-115465241D01*
X44061459Y-115828459D01*
X44156639Y-116183674D01*
X44288427Y-116526994D01*
X44455380Y-116854657D01*
X44655668Y-117163075D01*
X44887098Y-117448867D01*
X45147133Y-117708902D01*
X45432925Y-117940332D01*
X45741342Y-118140620D01*
X45744276Y-118142115D01*
X45744283Y-118142119D01*
X46066066Y-118306075D01*
X46069006Y-118307573D01*
X46412326Y-118439361D01*
X46767541Y-118534541D01*
X46960558Y-118565112D01*
X47127511Y-118591555D01*
X47127519Y-118591556D01*
X47130759Y-118592069D01*
X47498000Y-118611315D01*
X47865241Y-118592069D01*
X47868481Y-118591556D01*
X47868489Y-118591555D01*
X48035442Y-118565112D01*
X48228459Y-118534541D01*
X48583674Y-118439361D01*
X48926994Y-118307573D01*
X48929934Y-118306075D01*
X49251717Y-118142119D01*
X49251724Y-118142115D01*
X49254658Y-118140620D01*
X49563075Y-117940332D01*
X49848867Y-117708902D01*
X50108902Y-117448867D01*
X50340332Y-117163075D01*
X50540620Y-116854657D01*
X50707573Y-116526994D01*
X50839361Y-116183674D01*
X50934541Y-115828459D01*
X50992069Y-115465241D01*
X51011315Y-115098000D01*
X50992069Y-114730759D01*
X50934541Y-114367541D01*
X50839361Y-114012326D01*
X50707573Y-113669006D01*
X50540620Y-113341343D01*
X50340332Y-113032925D01*
X50108902Y-112747133D01*
X49848867Y-112487098D01*
X49563075Y-112255668D01*
X49254658Y-112055380D01*
X49251724Y-112053885D01*
X49251717Y-112053881D01*
X48929934Y-111889925D01*
X48926994Y-111888427D01*
X48583674Y-111756639D01*
X48228459Y-111661459D01*
X48000324Y-111625326D01*
X47944202Y-111616437D01*
X50988514Y-111616437D01*
X51009163Y-111760623D01*
X51069450Y-111893219D01*
X51074397Y-111899372D01*
X51074399Y-111899375D01*
X51095187Y-111925229D01*
X51108643Y-111941965D01*
X53298035Y-114131357D01*
X53300697Y-114133497D01*
X53340625Y-114165601D01*
X53340628Y-114165603D01*
X53346781Y-114170550D01*
X53479377Y-114230837D01*
X53488260Y-114232109D01*
X53488263Y-114232110D01*
X53614674Y-114250213D01*
X53623563Y-114251486D01*
X53632452Y-114250213D01*
X53758863Y-114232110D01*
X53758866Y-114232109D01*
X53767749Y-114230837D01*
X53900345Y-114170550D01*
X53906498Y-114165603D01*
X53906501Y-114165601D01*
X53946429Y-114133497D01*
X53949091Y-114131357D01*
X58613357Y-109467091D01*
X58626813Y-109450355D01*
X58647601Y-109424501D01*
X58647603Y-109424498D01*
X58652550Y-109418345D01*
X58712837Y-109285749D01*
X58733486Y-109141563D01*
X58712837Y-108997377D01*
X58652550Y-108864781D01*
X58647603Y-108858628D01*
X58647601Y-108858625D01*
X58615497Y-108818697D01*
X58613357Y-108816035D01*
X56423965Y-106626643D01*
X56407229Y-106613187D01*
X56381375Y-106592399D01*
X56381372Y-106592397D01*
X56375219Y-106587450D01*
X56242623Y-106527163D01*
X56233740Y-106525891D01*
X56233737Y-106525890D01*
X56107326Y-106507787D01*
X56098437Y-106506514D01*
X56089548Y-106507787D01*
X55963137Y-106525890D01*
X55963134Y-106525891D01*
X55954251Y-106527163D01*
X55821655Y-106587450D01*
X55815502Y-106592397D01*
X55815499Y-106592399D01*
X55789645Y-106613187D01*
X55772909Y-106626643D01*
X51108643Y-111290909D01*
X51106503Y-111293571D01*
X51074399Y-111333499D01*
X51074397Y-111333502D01*
X51069450Y-111339655D01*
X51009163Y-111472251D01*
X50988514Y-111616437D01*
X47944202Y-111616437D01*
X47868489Y-111604445D01*
X47868481Y-111604444D01*
X47865241Y-111603931D01*
X47498000Y-111584685D01*
X47130759Y-111603931D01*
X47127519Y-111604444D01*
X47127511Y-111604445D01*
X46995676Y-111625326D01*
X46767541Y-111661459D01*
X46412326Y-111756639D01*
X46069006Y-111888427D01*
X46066066Y-111889925D01*
X45744284Y-112053881D01*
X45744277Y-112053885D01*
X45741343Y-112055380D01*
X45432925Y-112255668D01*
X45147133Y-112487098D01*
X44887098Y-112747133D01*
X44655668Y-113032925D01*
X44455380Y-113341343D01*
X44288427Y-113669006D01*
X44156639Y-114012326D01*
X44061459Y-114367541D01*
X44003931Y-114730759D01*
X43984685Y-115098000D01*
X32004000Y-115098000D01*
X32004000Y-110695134D01*
X41642500Y-110695134D01*
X41649255Y-110757316D01*
X41700385Y-110893705D01*
X41787739Y-111010261D01*
X41904295Y-111097615D01*
X42040684Y-111148745D01*
X42102866Y-111155500D01*
X45199134Y-111155500D01*
X45261316Y-111148745D01*
X45397705Y-111097615D01*
X45514261Y-111010261D01*
X45601615Y-110893705D01*
X45652745Y-110757316D01*
X45659500Y-110695134D01*
X45659500Y-102098866D01*
X45652745Y-102036684D01*
X45601615Y-101900295D01*
X45514261Y-101783739D01*
X45397705Y-101696385D01*
X45261316Y-101645255D01*
X45199134Y-101638500D01*
X42102866Y-101638500D01*
X42040684Y-101645255D01*
X41904295Y-101696385D01*
X41787739Y-101783739D01*
X41700385Y-101900295D01*
X41649255Y-102036684D01*
X41642500Y-102098866D01*
X41642500Y-110695134D01*
X32004000Y-110695134D01*
X32004000Y-94563895D01*
X43288851Y-94563895D01*
X43297563Y-94575415D01*
X43380529Y-94636249D01*
X43388444Y-94641194D01*
X43600873Y-94752959D01*
X43609447Y-94756687D01*
X43836067Y-94835826D01*
X43845077Y-94838240D01*
X44080923Y-94883017D01*
X44090180Y-94884071D01*
X44330058Y-94893497D01*
X44339372Y-94893171D01*
X44577996Y-94867038D01*
X44587173Y-94865337D01*
X44819312Y-94804220D01*
X44828132Y-94801183D01*
X45048693Y-94706423D01*
X45056965Y-94702116D01*
X45260026Y-94576458D01*
X45266751Y-94566253D01*
X45260688Y-94555899D01*
X44288810Y-93584020D01*
X44274869Y-93576408D01*
X44273034Y-93576539D01*
X44266420Y-93580790D01*
X43295509Y-94551702D01*
X43288851Y-94563895D01*
X32004000Y-94563895D01*
X32004000Y-93172624D01*
X42594096Y-93172624D01*
X42605614Y-93412398D01*
X42606751Y-93421658D01*
X42653581Y-93657095D01*
X42656075Y-93666088D01*
X42737189Y-93892009D01*
X42740989Y-93900544D01*
X42854607Y-94111996D01*
X42859618Y-94119863D01*
X42912609Y-94190826D01*
X42923867Y-94199275D01*
X42936286Y-94192503D01*
X43903980Y-93224810D01*
X43910357Y-93213131D01*
X44640408Y-93213131D01*
X44640539Y-93214966D01*
X44644790Y-93221580D01*
X45618024Y-94194813D01*
X45630404Y-94201573D01*
X45638745Y-94195330D01*
X45752265Y-94018843D01*
X45756708Y-94010659D01*
X45855304Y-93791783D01*
X45858494Y-93783018D01*
X45923654Y-93551981D01*
X45925514Y-93542839D01*
X45956001Y-93303196D01*
X45956482Y-93296909D01*
X45958622Y-93215160D01*
X45958471Y-93208851D01*
X45955431Y-93167939D01*
X47593370Y-93167939D01*
X47593594Y-93172606D01*
X47593594Y-93172611D01*
X47599354Y-93292535D01*
X47605339Y-93417131D01*
X47654010Y-93661818D01*
X47738314Y-93896622D01*
X47856398Y-94116386D01*
X48005668Y-94316283D01*
X48182844Y-94491921D01*
X48186606Y-94494679D01*
X48186609Y-94494682D01*
X48298139Y-94576458D01*
X48384036Y-94639440D01*
X48388171Y-94641616D01*
X48388175Y-94641618D01*
X48503163Y-94702116D01*
X48604823Y-94755602D01*
X48735347Y-94801183D01*
X48834550Y-94835826D01*
X48840354Y-94837853D01*
X48844947Y-94838725D01*
X49080867Y-94883516D01*
X49080870Y-94883516D01*
X49085456Y-94884387D01*
X49210099Y-94889284D01*
X49330075Y-94893999D01*
X49330081Y-94893999D01*
X49334743Y-94894182D01*
X49424181Y-94884387D01*
X49578087Y-94867532D01*
X49578092Y-94867531D01*
X49582740Y-94867022D01*
X49589140Y-94865337D01*
X49819476Y-94804694D01*
X49819478Y-94804693D01*
X49823999Y-94803503D01*
X49829399Y-94801183D01*
X50048924Y-94706868D01*
X50048926Y-94706867D01*
X50053218Y-94705023D01*
X50155679Y-94641618D01*
X50261391Y-94576202D01*
X50261395Y-94576199D01*
X50265364Y-94573743D01*
X50455775Y-94412548D01*
X50537316Y-94319569D01*
X50617187Y-94228494D01*
X50617191Y-94228489D01*
X50620269Y-94224979D01*
X50636803Y-94199275D01*
X50752703Y-94019087D01*
X50755231Y-94015157D01*
X50857697Y-93787691D01*
X50859015Y-93783018D01*
X50924146Y-93552082D01*
X50924147Y-93552079D01*
X50925416Y-93547578D01*
X50956900Y-93300092D01*
X50956984Y-93296909D01*
X50958243Y-93248828D01*
X50959207Y-93212000D01*
X50955933Y-93167939D01*
X52593370Y-93167939D01*
X52593594Y-93172606D01*
X52593594Y-93172611D01*
X52599354Y-93292535D01*
X52605339Y-93417131D01*
X52654010Y-93661818D01*
X52738314Y-93896622D01*
X52856398Y-94116386D01*
X53005668Y-94316283D01*
X53182844Y-94491921D01*
X53186606Y-94494679D01*
X53186609Y-94494682D01*
X53298139Y-94576458D01*
X53384036Y-94639440D01*
X53388171Y-94641616D01*
X53388175Y-94641618D01*
X53503163Y-94702116D01*
X53604823Y-94755602D01*
X53735347Y-94801183D01*
X53834550Y-94835826D01*
X53840354Y-94837853D01*
X53844947Y-94838725D01*
X54080867Y-94883516D01*
X54080870Y-94883516D01*
X54085456Y-94884387D01*
X54210099Y-94889284D01*
X54330075Y-94893999D01*
X54330081Y-94893999D01*
X54334743Y-94894182D01*
X54424181Y-94884387D01*
X54578087Y-94867532D01*
X54578092Y-94867531D01*
X54582740Y-94867022D01*
X54589140Y-94865337D01*
X54819476Y-94804694D01*
X54819478Y-94804693D01*
X54823999Y-94803503D01*
X54829399Y-94801183D01*
X55048924Y-94706868D01*
X55048926Y-94706867D01*
X55053218Y-94705023D01*
X55155679Y-94641618D01*
X55261391Y-94576202D01*
X55261395Y-94576199D01*
X55265364Y-94573743D01*
X55455775Y-94412548D01*
X55537316Y-94319569D01*
X55617187Y-94228494D01*
X55617191Y-94228489D01*
X55620269Y-94224979D01*
X55636803Y-94199275D01*
X55752703Y-94019087D01*
X55755231Y-94015157D01*
X55857697Y-93787691D01*
X55859015Y-93783018D01*
X55924146Y-93552082D01*
X55924147Y-93552079D01*
X55925416Y-93547578D01*
X55956900Y-93300092D01*
X55956984Y-93296909D01*
X55958243Y-93248828D01*
X55959207Y-93212000D01*
X55940718Y-92963206D01*
X55885659Y-92719878D01*
X55871164Y-92682605D01*
X55796931Y-92491714D01*
X55796930Y-92491712D01*
X55795238Y-92487361D01*
X55770494Y-92444067D01*
X55749285Y-92406959D01*
X55671442Y-92270763D01*
X55516990Y-92074842D01*
X55335276Y-91903902D01*
X55134751Y-91764793D01*
X55134130Y-91764362D01*
X55134125Y-91764359D01*
X55130292Y-91761700D01*
X55126110Y-91759637D01*
X55126102Y-91759633D01*
X54910728Y-91653423D01*
X54910725Y-91653422D01*
X54906540Y-91651358D01*
X54668937Y-91575300D01*
X54664330Y-91574550D01*
X54664327Y-91574549D01*
X54427312Y-91535949D01*
X54427313Y-91535949D01*
X54422701Y-91535198D01*
X54301753Y-91533615D01*
X54177920Y-91531994D01*
X54177917Y-91531994D01*
X54173243Y-91531933D01*
X53926042Y-91565575D01*
X53921556Y-91566883D01*
X53921554Y-91566883D01*
X53893576Y-91575038D01*
X53686528Y-91635387D01*
X53682275Y-91637347D01*
X53682274Y-91637348D01*
X53654971Y-91649935D01*
X53459965Y-91739834D01*
X53456056Y-91742397D01*
X53255242Y-91874056D01*
X53255237Y-91874060D01*
X53251329Y-91876622D01*
X53065202Y-92042746D01*
X52905675Y-92234557D01*
X52776252Y-92447840D01*
X52774443Y-92452154D01*
X52774442Y-92452156D01*
X52761290Y-92483521D01*
X52679775Y-92677911D01*
X52678624Y-92682443D01*
X52678623Y-92682446D01*
X52670185Y-92715671D01*
X52618365Y-92919714D01*
X52593370Y-93167939D01*
X50955933Y-93167939D01*
X50940718Y-92963206D01*
X50885659Y-92719878D01*
X50871164Y-92682605D01*
X50796931Y-92491714D01*
X50796930Y-92491712D01*
X50795238Y-92487361D01*
X50770494Y-92444067D01*
X50749285Y-92406959D01*
X50671442Y-92270763D01*
X50516990Y-92074842D01*
X50335276Y-91903902D01*
X50134751Y-91764793D01*
X50134130Y-91764362D01*
X50134125Y-91764359D01*
X50130292Y-91761700D01*
X50126110Y-91759637D01*
X50126102Y-91759633D01*
X49910728Y-91653423D01*
X49910725Y-91653422D01*
X49906540Y-91651358D01*
X49668937Y-91575300D01*
X49664330Y-91574550D01*
X49664327Y-91574549D01*
X49427312Y-91535949D01*
X49427313Y-91535949D01*
X49422701Y-91535198D01*
X49301753Y-91533615D01*
X49177920Y-91531994D01*
X49177917Y-91531994D01*
X49173243Y-91531933D01*
X48926042Y-91565575D01*
X48921556Y-91566883D01*
X48921554Y-91566883D01*
X48893576Y-91575038D01*
X48686528Y-91635387D01*
X48682275Y-91637347D01*
X48682274Y-91637348D01*
X48654971Y-91649935D01*
X48459965Y-91739834D01*
X48456056Y-91742397D01*
X48255242Y-91874056D01*
X48255237Y-91874060D01*
X48251329Y-91876622D01*
X48065202Y-92042746D01*
X47905675Y-92234557D01*
X47776252Y-92447840D01*
X47774443Y-92452154D01*
X47774442Y-92452156D01*
X47761290Y-92483521D01*
X47679775Y-92677911D01*
X47678624Y-92682443D01*
X47678623Y-92682446D01*
X47670185Y-92715671D01*
X47618365Y-92919714D01*
X47593370Y-93167939D01*
X45955431Y-93167939D01*
X45940568Y-92967932D01*
X45939191Y-92958726D01*
X45886210Y-92724582D01*
X45883486Y-92715671D01*
X45796478Y-92491930D01*
X45792467Y-92483521D01*
X45673347Y-92275105D01*
X45668130Y-92267370D01*
X45640425Y-92232227D01*
X45628501Y-92223758D01*
X45616965Y-92230246D01*
X44648020Y-93199190D01*
X44640408Y-93213131D01*
X43910357Y-93213131D01*
X43911592Y-93210869D01*
X43911461Y-93209034D01*
X43907210Y-93202420D01*
X42934131Y-92229342D01*
X42920823Y-92222075D01*
X42910786Y-92229195D01*
X42909076Y-92231251D01*
X42903655Y-92238851D01*
X42779127Y-92444067D01*
X42774889Y-92452384D01*
X42682060Y-92673755D01*
X42679099Y-92682605D01*
X42620011Y-92915264D01*
X42618390Y-92924458D01*
X42594341Y-93163297D01*
X42594096Y-93172624D01*
X32004000Y-93172624D01*
X32004000Y-91858585D01*
X43286999Y-91858585D01*
X43291572Y-91868361D01*
X44263190Y-92839980D01*
X44277131Y-92847592D01*
X44278966Y-92847461D01*
X44285580Y-92843210D01*
X45256929Y-91871860D01*
X45263313Y-91860169D01*
X45253903Y-91848061D01*
X45133873Y-91764793D01*
X45125846Y-91760065D01*
X44910540Y-91653888D01*
X44901907Y-91650400D01*
X44673265Y-91577211D01*
X44664214Y-91575038D01*
X44427269Y-91536449D01*
X44417980Y-91535637D01*
X44177950Y-91532495D01*
X44168638Y-91533065D01*
X43930776Y-91565436D01*
X43921658Y-91567374D01*
X43691203Y-91634546D01*
X43682450Y-91637818D01*
X43464454Y-91738316D01*
X43456299Y-91742836D01*
X43296136Y-91847844D01*
X43286999Y-91858585D01*
X32004000Y-91858585D01*
X32004000Y-69925895D01*
X43288851Y-69925895D01*
X43297563Y-69937415D01*
X43380529Y-69998249D01*
X43388444Y-70003194D01*
X43600873Y-70114959D01*
X43609447Y-70118687D01*
X43836067Y-70197826D01*
X43845077Y-70200240D01*
X44080923Y-70245017D01*
X44090180Y-70246071D01*
X44330058Y-70255497D01*
X44339372Y-70255171D01*
X44577996Y-70229038D01*
X44587173Y-70227337D01*
X44819312Y-70166220D01*
X44828132Y-70163183D01*
X45048693Y-70068423D01*
X45056965Y-70064116D01*
X45260026Y-69938458D01*
X45266751Y-69928253D01*
X45260688Y-69917899D01*
X44288810Y-68946020D01*
X44274869Y-68938408D01*
X44273034Y-68938539D01*
X44266420Y-68942790D01*
X43295509Y-69913702D01*
X43288851Y-69925895D01*
X32004000Y-69925895D01*
X32004000Y-68534624D01*
X42594096Y-68534624D01*
X42605614Y-68774398D01*
X42606751Y-68783658D01*
X42653581Y-69019095D01*
X42656075Y-69028088D01*
X42737189Y-69254009D01*
X42740989Y-69262544D01*
X42854607Y-69473996D01*
X42859618Y-69481863D01*
X42912609Y-69552826D01*
X42923867Y-69561275D01*
X42936286Y-69554503D01*
X43903980Y-68586810D01*
X43910357Y-68575131D01*
X44640408Y-68575131D01*
X44640539Y-68576966D01*
X44644790Y-68583580D01*
X45618024Y-69556813D01*
X45630404Y-69563573D01*
X45638745Y-69557330D01*
X45752265Y-69380843D01*
X45756708Y-69372659D01*
X45855304Y-69153783D01*
X45858494Y-69145018D01*
X45923654Y-68913981D01*
X45925514Y-68904839D01*
X45956001Y-68665196D01*
X45956482Y-68658909D01*
X45958622Y-68577160D01*
X45958471Y-68570851D01*
X45940568Y-68329932D01*
X45939191Y-68320726D01*
X45886210Y-68086582D01*
X45883486Y-68077671D01*
X45796478Y-67853930D01*
X45792467Y-67845521D01*
X45673347Y-67637105D01*
X45668130Y-67629370D01*
X45640425Y-67594227D01*
X45628501Y-67585758D01*
X45616965Y-67592246D01*
X44648020Y-68561190D01*
X44640408Y-68575131D01*
X43910357Y-68575131D01*
X43911592Y-68572869D01*
X43911461Y-68571034D01*
X43907210Y-68564420D01*
X42934131Y-67591342D01*
X42920823Y-67584075D01*
X42910786Y-67591195D01*
X42909076Y-67593251D01*
X42903655Y-67600851D01*
X42779127Y-67806067D01*
X42774889Y-67814384D01*
X42682060Y-68035755D01*
X42679099Y-68044605D01*
X42620011Y-68277264D01*
X42618390Y-68286458D01*
X42594341Y-68525297D01*
X42594096Y-68534624D01*
X32004000Y-68534624D01*
X32004000Y-67220585D01*
X43286999Y-67220585D01*
X43291572Y-67230361D01*
X44263190Y-68201980D01*
X44277131Y-68209592D01*
X44278966Y-68209461D01*
X44285580Y-68205210D01*
X45256929Y-67233860D01*
X45263313Y-67222169D01*
X45253903Y-67210061D01*
X45133873Y-67126793D01*
X45125846Y-67122065D01*
X44910540Y-67015888D01*
X44901907Y-67012400D01*
X44673265Y-66939211D01*
X44664214Y-66937038D01*
X44427269Y-66898449D01*
X44417980Y-66897637D01*
X44177950Y-66894495D01*
X44168638Y-66895065D01*
X43930776Y-66927436D01*
X43921658Y-66929374D01*
X43691203Y-66996546D01*
X43682450Y-66999818D01*
X43464454Y-67100316D01*
X43456299Y-67104836D01*
X43296136Y-67209844D01*
X43286999Y-67220585D01*
X32004000Y-67220585D01*
X32004000Y-62484000D01*
X44552496Y-62484000D01*
X44553186Y-62490565D01*
X44570863Y-62658749D01*
X44572458Y-62673928D01*
X44631473Y-62855556D01*
X44726960Y-63020944D01*
X44854747Y-63162866D01*
X45009248Y-63275118D01*
X45015276Y-63277802D01*
X45015278Y-63277803D01*
X45177681Y-63350109D01*
X45183712Y-63352794D01*
X45277112Y-63372647D01*
X45364056Y-63391128D01*
X45364061Y-63391128D01*
X45370513Y-63392500D01*
X45426406Y-63392500D01*
X45494527Y-63412502D01*
X45515501Y-63429405D01*
X48843392Y-66757296D01*
X48877418Y-66819608D01*
X48872353Y-66890423D01*
X48829806Y-66947259D01*
X48789556Y-66967357D01*
X48686528Y-66997387D01*
X48682275Y-66999347D01*
X48682274Y-66999348D01*
X48654971Y-67011935D01*
X48459965Y-67101834D01*
X48456056Y-67104397D01*
X48255242Y-67236056D01*
X48255237Y-67236060D01*
X48251329Y-67238622D01*
X48065202Y-67404746D01*
X47905675Y-67596557D01*
X47776252Y-67809840D01*
X47774443Y-67814154D01*
X47774442Y-67814156D01*
X47721462Y-67940500D01*
X47679775Y-68039911D01*
X47678624Y-68044443D01*
X47678623Y-68044446D01*
X47670185Y-68077671D01*
X47618365Y-68281714D01*
X47593370Y-68529939D01*
X47593594Y-68534606D01*
X47593594Y-68534611D01*
X47599355Y-68654535D01*
X47605339Y-68779131D01*
X47654010Y-69023818D01*
X47738314Y-69258622D01*
X47856398Y-69478386D01*
X48005668Y-69678283D01*
X48182844Y-69853921D01*
X48186606Y-69856679D01*
X48186609Y-69856682D01*
X48298139Y-69938458D01*
X48384036Y-70001440D01*
X48388171Y-70003616D01*
X48388175Y-70003618D01*
X48503163Y-70064116D01*
X48604823Y-70117602D01*
X48735347Y-70163183D01*
X48834550Y-70197826D01*
X48840354Y-70199853D01*
X48844947Y-70200725D01*
X49080867Y-70245516D01*
X49080870Y-70245516D01*
X49085456Y-70246387D01*
X49210099Y-70251284D01*
X49330075Y-70255999D01*
X49330081Y-70255999D01*
X49334743Y-70256182D01*
X49424181Y-70246387D01*
X49578087Y-70229532D01*
X49578092Y-70229531D01*
X49582740Y-70229022D01*
X49589140Y-70227337D01*
X49819476Y-70166694D01*
X49819478Y-70166693D01*
X49823999Y-70165503D01*
X49829399Y-70163183D01*
X50048924Y-70068868D01*
X50048926Y-70068867D01*
X50053218Y-70067023D01*
X50155679Y-70003618D01*
X50261391Y-69938202D01*
X50261395Y-69938199D01*
X50265364Y-69935743D01*
X50455775Y-69774548D01*
X50537316Y-69681569D01*
X50617187Y-69590494D01*
X50617191Y-69590489D01*
X50620269Y-69586979D01*
X50636803Y-69561275D01*
X50752703Y-69381087D01*
X50755231Y-69377157D01*
X50857697Y-69149691D01*
X50864165Y-69126759D01*
X50882198Y-69062818D01*
X50919940Y-69002684D01*
X50984201Y-68972502D01*
X51054579Y-68981853D01*
X51089718Y-69005169D01*
X51104548Y-69019095D01*
X51113667Y-69027658D01*
X51116509Y-69030413D01*
X51136231Y-69050135D01*
X51139355Y-69052558D01*
X51139359Y-69052562D01*
X51139424Y-69052612D01*
X51148445Y-69060317D01*
X51180679Y-69090586D01*
X51187627Y-69094405D01*
X51187629Y-69094407D01*
X51198432Y-69100346D01*
X51214959Y-69111202D01*
X51224698Y-69118757D01*
X51224700Y-69118758D01*
X51230960Y-69123614D01*
X51271540Y-69141174D01*
X51282188Y-69146391D01*
X51320940Y-69167695D01*
X51328616Y-69169666D01*
X51328619Y-69169667D01*
X51340562Y-69172733D01*
X51359267Y-69179137D01*
X51377855Y-69187181D01*
X51385678Y-69188420D01*
X51385688Y-69188423D01*
X51421524Y-69194099D01*
X51433144Y-69196505D01*
X51468289Y-69205528D01*
X51475970Y-69207500D01*
X51496224Y-69207500D01*
X51515934Y-69209051D01*
X51535943Y-69212220D01*
X51543835Y-69211474D01*
X51579961Y-69208059D01*
X51591819Y-69207500D01*
X52635511Y-69207500D01*
X52703632Y-69227502D01*
X52746502Y-69273861D01*
X52856398Y-69478386D01*
X53005668Y-69678283D01*
X53182844Y-69853921D01*
X53186606Y-69856679D01*
X53186609Y-69856682D01*
X53298139Y-69938458D01*
X53384036Y-70001440D01*
X53388171Y-70003616D01*
X53388175Y-70003618D01*
X53503163Y-70064116D01*
X53604823Y-70117602D01*
X53735347Y-70163183D01*
X53834550Y-70197826D01*
X53840354Y-70199853D01*
X53844947Y-70200725D01*
X54080867Y-70245516D01*
X54080870Y-70245516D01*
X54085456Y-70246387D01*
X54210099Y-70251284D01*
X54330075Y-70255999D01*
X54330081Y-70255999D01*
X54334743Y-70256182D01*
X54424181Y-70246387D01*
X54578087Y-70229532D01*
X54578092Y-70229531D01*
X54582740Y-70229022D01*
X54589140Y-70227337D01*
X54819476Y-70166694D01*
X54819478Y-70166693D01*
X54823999Y-70165503D01*
X54829399Y-70163183D01*
X55048924Y-70068868D01*
X55048926Y-70068867D01*
X55053218Y-70067023D01*
X55155679Y-70003618D01*
X55261391Y-69938202D01*
X55261395Y-69938199D01*
X55265364Y-69935743D01*
X55455775Y-69774548D01*
X55537316Y-69681569D01*
X55617187Y-69590494D01*
X55617191Y-69590489D01*
X55620269Y-69586979D01*
X55636803Y-69561275D01*
X55752703Y-69381087D01*
X55755231Y-69377157D01*
X55857697Y-69149691D01*
X55864165Y-69126759D01*
X55924146Y-68914082D01*
X55924147Y-68914079D01*
X55925416Y-68909578D01*
X55956900Y-68662092D01*
X55956984Y-68658909D01*
X55958243Y-68610828D01*
X55959207Y-68574000D01*
X55940718Y-68325206D01*
X55885659Y-68081878D01*
X55871164Y-68044605D01*
X55796931Y-67853714D01*
X55796930Y-67853712D01*
X55795238Y-67849361D01*
X55770494Y-67806067D01*
X55749285Y-67768959D01*
X55671442Y-67632763D01*
X55516990Y-67436842D01*
X55335276Y-67265902D01*
X55134751Y-67126793D01*
X55134130Y-67126362D01*
X55134125Y-67126359D01*
X55130292Y-67123700D01*
X55126110Y-67121637D01*
X55126102Y-67121633D01*
X54910728Y-67015423D01*
X54910725Y-67015422D01*
X54906540Y-67013358D01*
X54668937Y-66937300D01*
X54664330Y-66936550D01*
X54664327Y-66936549D01*
X54427312Y-66897949D01*
X54427313Y-66897949D01*
X54422701Y-66897198D01*
X54301753Y-66895615D01*
X54177920Y-66893994D01*
X54177917Y-66893994D01*
X54173243Y-66893933D01*
X53926042Y-66927575D01*
X53921556Y-66928883D01*
X53921554Y-66928883D01*
X53893576Y-66937038D01*
X53686528Y-66997387D01*
X53682275Y-66999347D01*
X53682274Y-66999348D01*
X53654971Y-67011935D01*
X53459965Y-67101834D01*
X53456056Y-67104397D01*
X53255242Y-67236056D01*
X53255237Y-67236060D01*
X53251329Y-67238622D01*
X53065202Y-67404746D01*
X52905675Y-67596557D01*
X52881070Y-67637105D01*
X52778680Y-67805839D01*
X52776252Y-67809840D01*
X52774443Y-67814154D01*
X52753866Y-67863225D01*
X52709078Y-67918311D01*
X52637669Y-67940500D01*
X51870594Y-67940500D01*
X51802473Y-67920498D01*
X51781499Y-67903595D01*
X46958963Y-63081058D01*
X46924937Y-63018746D01*
X46930002Y-62947931D01*
X46972549Y-62891095D01*
X47039069Y-62866284D01*
X47074255Y-62868716D01*
X47142056Y-62883128D01*
X47142061Y-62883128D01*
X47148513Y-62884500D01*
X47339487Y-62884500D01*
X47345939Y-62883128D01*
X47345944Y-62883128D01*
X47432887Y-62864647D01*
X47526288Y-62844794D01*
X47532319Y-62842109D01*
X47694722Y-62769803D01*
X47694724Y-62769802D01*
X47700752Y-62767118D01*
X47855253Y-62654866D01*
X47983040Y-62512944D01*
X48078527Y-62347556D01*
X48137542Y-62165928D01*
X48157504Y-61976000D01*
X48149483Y-61899685D01*
X48138233Y-61792642D01*
X48138232Y-61792638D01*
X48137542Y-61786072D01*
X48108667Y-61697205D01*
X48102500Y-61658268D01*
X48102500Y-57975732D01*
X48108667Y-57936795D01*
X48137542Y-57847928D01*
X48157504Y-57658000D01*
X48137542Y-57468072D01*
X48078527Y-57286444D01*
X47983040Y-57121056D01*
X47855253Y-56979134D01*
X47700752Y-56866882D01*
X47694724Y-56864198D01*
X47694722Y-56864197D01*
X47532319Y-56791891D01*
X47532318Y-56791891D01*
X47526288Y-56789206D01*
X47432887Y-56769353D01*
X47345944Y-56750872D01*
X47345939Y-56750872D01*
X47339487Y-56749500D01*
X47148513Y-56749500D01*
X47142061Y-56750872D01*
X47142056Y-56750872D01*
X47055113Y-56769353D01*
X46961712Y-56789206D01*
X46955682Y-56791891D01*
X46955681Y-56791891D01*
X46793278Y-56864197D01*
X46793276Y-56864198D01*
X46787248Y-56866882D01*
X46632747Y-56979134D01*
X46504960Y-57121056D01*
X46409473Y-57286444D01*
X46350458Y-57468072D01*
X46330496Y-57658000D01*
X46350458Y-57847928D01*
X46379333Y-57936795D01*
X46385500Y-57975732D01*
X46385500Y-61658268D01*
X46379333Y-61697205D01*
X46350458Y-61786072D01*
X46349768Y-61792638D01*
X46349767Y-61792642D01*
X46349688Y-61793398D01*
X46349520Y-61793806D01*
X46348395Y-61799099D01*
X46347427Y-61798893D01*
X46322676Y-61859055D01*
X46264455Y-61899685D01*
X46193510Y-61902389D01*
X46130742Y-61864540D01*
X46077253Y-61805134D01*
X45922752Y-61692882D01*
X45916724Y-61690198D01*
X45916722Y-61690197D01*
X45754319Y-61617891D01*
X45754318Y-61617891D01*
X45748288Y-61615206D01*
X45654887Y-61595353D01*
X45567944Y-61576872D01*
X45567939Y-61576872D01*
X45561487Y-61575500D01*
X45370513Y-61575500D01*
X45364061Y-61576872D01*
X45364056Y-61576872D01*
X45277113Y-61595353D01*
X45183712Y-61615206D01*
X45177682Y-61617891D01*
X45177681Y-61617891D01*
X45015278Y-61690197D01*
X45015276Y-61690198D01*
X45009248Y-61692882D01*
X44854747Y-61805134D01*
X44726960Y-61947056D01*
X44631473Y-62112444D01*
X44572458Y-62294072D01*
X44552496Y-62484000D01*
X32004000Y-62484000D01*
X32004000Y-50800000D01*
X47346496Y-50800000D01*
X47366458Y-50989928D01*
X47425473Y-51171556D01*
X47520960Y-51336944D01*
X47525378Y-51341851D01*
X47525379Y-51341852D01*
X47607899Y-51433500D01*
X47648747Y-51478866D01*
X47803248Y-51591118D01*
X47809276Y-51593802D01*
X47809278Y-51593803D01*
X47971681Y-51666109D01*
X47977712Y-51668794D01*
X48071113Y-51688647D01*
X48158056Y-51707128D01*
X48158061Y-51707128D01*
X48164513Y-51708500D01*
X48355487Y-51708500D01*
X48361939Y-51707128D01*
X48361944Y-51707128D01*
X48448888Y-51688647D01*
X48542288Y-51668794D01*
X48548319Y-51666109D01*
X48710722Y-51593803D01*
X48710724Y-51593802D01*
X48716752Y-51591118D01*
X48871253Y-51478866D01*
X48875668Y-51473963D01*
X48880580Y-51469540D01*
X48881705Y-51470789D01*
X48935014Y-51437949D01*
X48968200Y-51433500D01*
X50231406Y-51433500D01*
X50299527Y-51453502D01*
X50320501Y-51470405D01*
X52303555Y-53453459D01*
X52337581Y-53515771D01*
X52332516Y-53586586D01*
X52323582Y-53605549D01*
X52251473Y-53730444D01*
X52192458Y-53912072D01*
X52172496Y-54102000D01*
X52192458Y-54291928D01*
X52251473Y-54473556D01*
X52346960Y-54638944D01*
X52474747Y-54780866D01*
X52629248Y-54893118D01*
X52635276Y-54895802D01*
X52635278Y-54895803D01*
X52797681Y-54968109D01*
X52803712Y-54970794D01*
X52897113Y-54990647D01*
X52984056Y-55009128D01*
X52984061Y-55009128D01*
X52990513Y-55010500D01*
X53181487Y-55010500D01*
X53187939Y-55009128D01*
X53187944Y-55009128D01*
X53274887Y-54990647D01*
X53368288Y-54970794D01*
X53374319Y-54968109D01*
X53536722Y-54895803D01*
X53536724Y-54895802D01*
X53542752Y-54893118D01*
X53697253Y-54780866D01*
X53825040Y-54638944D01*
X53920527Y-54473556D01*
X53979542Y-54291928D01*
X53999504Y-54102000D01*
X53979542Y-53912072D01*
X53920527Y-53730444D01*
X53825040Y-53565056D01*
X53753514Y-53485618D01*
X53722796Y-53421611D01*
X53722068Y-53400079D01*
X53721701Y-53400091D01*
X53719562Y-53332033D01*
X53719500Y-53328075D01*
X53719500Y-53300144D01*
X53718994Y-53296138D01*
X53718061Y-53284292D01*
X53716922Y-53248037D01*
X53716673Y-53240110D01*
X53711022Y-53220658D01*
X53707014Y-53201306D01*
X53705468Y-53189068D01*
X53705467Y-53189066D01*
X53704474Y-53181203D01*
X53688194Y-53140086D01*
X53684359Y-53128885D01*
X53672018Y-53086406D01*
X53667985Y-53079587D01*
X53667983Y-53079582D01*
X53661707Y-53068971D01*
X53653010Y-53051221D01*
X53645552Y-53032383D01*
X53619571Y-52996623D01*
X53613053Y-52986701D01*
X53594578Y-52955460D01*
X53594574Y-52955455D01*
X53590542Y-52948637D01*
X53576218Y-52934313D01*
X53563376Y-52919278D01*
X53551472Y-52902893D01*
X53517406Y-52874711D01*
X53508627Y-52866722D01*
X51049652Y-50407747D01*
X51042112Y-50399461D01*
X51038000Y-50392982D01*
X50988348Y-50346356D01*
X50985507Y-50343602D01*
X50965770Y-50323865D01*
X50962573Y-50321385D01*
X50953551Y-50313680D01*
X50927100Y-50288841D01*
X50921321Y-50283414D01*
X50914375Y-50279595D01*
X50914372Y-50279593D01*
X50903566Y-50273652D01*
X50887047Y-50262801D01*
X50881048Y-50258148D01*
X50871041Y-50250386D01*
X50863772Y-50247241D01*
X50863768Y-50247238D01*
X50830463Y-50232826D01*
X50819813Y-50227609D01*
X50781060Y-50206305D01*
X50761437Y-50201267D01*
X50742734Y-50194863D01*
X50731420Y-50189967D01*
X50731419Y-50189967D01*
X50724145Y-50186819D01*
X50716322Y-50185580D01*
X50716312Y-50185577D01*
X50680476Y-50179901D01*
X50668856Y-50177495D01*
X50633711Y-50168472D01*
X50633710Y-50168472D01*
X50626030Y-50166500D01*
X50605776Y-50166500D01*
X50586065Y-50164949D01*
X50573886Y-50163020D01*
X50566057Y-50161780D01*
X50558165Y-50162526D01*
X50522039Y-50165941D01*
X50510181Y-50166500D01*
X48968200Y-50166500D01*
X48900079Y-50146498D01*
X48880853Y-50130157D01*
X48880580Y-50130460D01*
X48875668Y-50126037D01*
X48871253Y-50121134D01*
X48716752Y-50008882D01*
X48710724Y-50006198D01*
X48710722Y-50006197D01*
X48548319Y-49933891D01*
X48548318Y-49933891D01*
X48542288Y-49931206D01*
X48448888Y-49911353D01*
X48361944Y-49892872D01*
X48361939Y-49892872D01*
X48355487Y-49891500D01*
X48164513Y-49891500D01*
X48158061Y-49892872D01*
X48158056Y-49892872D01*
X48071112Y-49911353D01*
X47977712Y-49931206D01*
X47971682Y-49933891D01*
X47971681Y-49933891D01*
X47809278Y-50006197D01*
X47809276Y-50006198D01*
X47803248Y-50008882D01*
X47648747Y-50121134D01*
X47644326Y-50126044D01*
X47644325Y-50126045D01*
X47535203Y-50247238D01*
X47520960Y-50263056D01*
X47425473Y-50428444D01*
X47366458Y-50610072D01*
X47346496Y-50800000D01*
X32004000Y-50800000D01*
X32004000Y-47752000D01*
X37186496Y-47752000D01*
X37206458Y-47941928D01*
X37265473Y-48123556D01*
X37360960Y-48288944D01*
X37488747Y-48430866D01*
X37643248Y-48543118D01*
X37649276Y-48545802D01*
X37649278Y-48545803D01*
X37811681Y-48618109D01*
X37817712Y-48620794D01*
X37911112Y-48640647D01*
X37998056Y-48659128D01*
X37998061Y-48659128D01*
X38004513Y-48660500D01*
X38195487Y-48660500D01*
X38201939Y-48659128D01*
X38201944Y-48659128D01*
X38375831Y-48622167D01*
X38375836Y-48622166D01*
X38382288Y-48620794D01*
X38388319Y-48618109D01*
X38392756Y-48616667D01*
X38431693Y-48610500D01*
X42594307Y-48610500D01*
X42633244Y-48616667D01*
X42637681Y-48618109D01*
X42643712Y-48620794D01*
X42650164Y-48622166D01*
X42650169Y-48622167D01*
X42824056Y-48659128D01*
X42824061Y-48659128D01*
X42830513Y-48660500D01*
X43021487Y-48660500D01*
X43027939Y-48659128D01*
X43027944Y-48659128D01*
X43114888Y-48640647D01*
X43208288Y-48620794D01*
X43214319Y-48618109D01*
X43376722Y-48545803D01*
X43376724Y-48545802D01*
X43382752Y-48543118D01*
X43422829Y-48514000D01*
X58716685Y-48514000D01*
X58735931Y-48881241D01*
X58793459Y-49244459D01*
X58888639Y-49599674D01*
X59020427Y-49942994D01*
X59021925Y-49945934D01*
X59179526Y-50255242D01*
X59187380Y-50270657D01*
X59189176Y-50273423D01*
X59189178Y-50273426D01*
X59223754Y-50326669D01*
X59387668Y-50579075D01*
X59619098Y-50864867D01*
X59879133Y-51124902D01*
X60164925Y-51356332D01*
X60167700Y-51358134D01*
X60283754Y-51433500D01*
X60473342Y-51556620D01*
X60476276Y-51558115D01*
X60476283Y-51558119D01*
X60798066Y-51722075D01*
X60801006Y-51723573D01*
X61144326Y-51855361D01*
X61499541Y-51950541D01*
X61692558Y-51981112D01*
X61859511Y-52007555D01*
X61859519Y-52007556D01*
X61862759Y-52008069D01*
X62230000Y-52027315D01*
X62597241Y-52008069D01*
X62600481Y-52007556D01*
X62600489Y-52007555D01*
X62767442Y-51981112D01*
X62960459Y-51950541D01*
X63315674Y-51855361D01*
X63658994Y-51723573D01*
X63661934Y-51722075D01*
X63983717Y-51558119D01*
X63983724Y-51558115D01*
X63986658Y-51556620D01*
X64176247Y-51433500D01*
X64292300Y-51358134D01*
X64295075Y-51356332D01*
X64580867Y-51124902D01*
X64840902Y-50864867D01*
X65072332Y-50579075D01*
X65236246Y-50326669D01*
X65270822Y-50273426D01*
X65270824Y-50273423D01*
X65272620Y-50270657D01*
X65280475Y-50255242D01*
X65438075Y-49945934D01*
X65439573Y-49942994D01*
X65571361Y-49599674D01*
X65666541Y-49244459D01*
X65724069Y-48881241D01*
X65743315Y-48514000D01*
X65724069Y-48146759D01*
X65721301Y-48129279D01*
X65691627Y-47941928D01*
X65666541Y-47783541D01*
X65571361Y-47428326D01*
X65555394Y-47386729D01*
X65440757Y-47088091D01*
X65439573Y-47085006D01*
X65376329Y-46960882D01*
X65274119Y-46760284D01*
X65274115Y-46760277D01*
X65272620Y-46757343D01*
X65072332Y-46448925D01*
X64840902Y-46163133D01*
X64580867Y-45903098D01*
X64295075Y-45671668D01*
X63986658Y-45471380D01*
X63983724Y-45469885D01*
X63983717Y-45469881D01*
X63661934Y-45305925D01*
X63658994Y-45304427D01*
X63315674Y-45172639D01*
X62960459Y-45077459D01*
X62767442Y-45046888D01*
X62600489Y-45020445D01*
X62600481Y-45020444D01*
X62597241Y-45019931D01*
X62230000Y-45000685D01*
X61862759Y-45019931D01*
X61859519Y-45020444D01*
X61859511Y-45020445D01*
X61692558Y-45046888D01*
X61499541Y-45077459D01*
X61144326Y-45172639D01*
X60801006Y-45304427D01*
X60798066Y-45305925D01*
X60476284Y-45469881D01*
X60476277Y-45469885D01*
X60473343Y-45471380D01*
X60164925Y-45671668D01*
X59879133Y-45903098D01*
X59619098Y-46163133D01*
X59387668Y-46448925D01*
X59187380Y-46757343D01*
X59185885Y-46760277D01*
X59185881Y-46760284D01*
X59083671Y-46960882D01*
X59020427Y-47085006D01*
X59019243Y-47088091D01*
X58904607Y-47386729D01*
X58888639Y-47428326D01*
X58793459Y-47783541D01*
X58768373Y-47941928D01*
X58738700Y-48129279D01*
X58735931Y-48146759D01*
X58716685Y-48514000D01*
X43422829Y-48514000D01*
X43537253Y-48430866D01*
X43665040Y-48288944D01*
X43760527Y-48123556D01*
X43819542Y-47941928D01*
X43839504Y-47752000D01*
X43819542Y-47562072D01*
X43760527Y-47380444D01*
X43665040Y-47215056D01*
X43545296Y-47082066D01*
X43541675Y-47078045D01*
X43541674Y-47078044D01*
X43537253Y-47073134D01*
X43382752Y-46960882D01*
X43376724Y-46958198D01*
X43376722Y-46958197D01*
X43214319Y-46885891D01*
X43214318Y-46885891D01*
X43208288Y-46883206D01*
X43114887Y-46863353D01*
X43027944Y-46844872D01*
X43027939Y-46844872D01*
X43021487Y-46843500D01*
X42830513Y-46843500D01*
X42824061Y-46844872D01*
X42824056Y-46844872D01*
X42650169Y-46881833D01*
X42650164Y-46881834D01*
X42643712Y-46883206D01*
X42637681Y-46885891D01*
X42633244Y-46887333D01*
X42594307Y-46893500D01*
X38431693Y-46893500D01*
X38392756Y-46887333D01*
X38388319Y-46885891D01*
X38382288Y-46883206D01*
X38375836Y-46881834D01*
X38375831Y-46881833D01*
X38201944Y-46844872D01*
X38201939Y-46844872D01*
X38195487Y-46843500D01*
X38004513Y-46843500D01*
X37998061Y-46844872D01*
X37998056Y-46844872D01*
X37911113Y-46863353D01*
X37817712Y-46883206D01*
X37811682Y-46885891D01*
X37811681Y-46885891D01*
X37649278Y-46958197D01*
X37649276Y-46958198D01*
X37643248Y-46960882D01*
X37488747Y-47073134D01*
X37484326Y-47078044D01*
X37484325Y-47078045D01*
X37480705Y-47082066D01*
X37360960Y-47215056D01*
X37265473Y-47380444D01*
X37206458Y-47562072D01*
X37186496Y-47752000D01*
X32004000Y-47752000D01*
X32004000Y-40343195D01*
X39023251Y-40343195D01*
X39023548Y-40348348D01*
X39023548Y-40348351D01*
X39025910Y-40389312D01*
X39036110Y-40566215D01*
X39037247Y-40571261D01*
X39037248Y-40571267D01*
X39058275Y-40664569D01*
X39085222Y-40784139D01*
X39169266Y-40991116D01*
X39220942Y-41075444D01*
X39283291Y-41177188D01*
X39285987Y-41181588D01*
X39432250Y-41350438D01*
X39604126Y-41493132D01*
X39797000Y-41605838D01*
X40005692Y-41685530D01*
X40010760Y-41686561D01*
X40010763Y-41686562D01*
X40115604Y-41707892D01*
X40224597Y-41730067D01*
X40229772Y-41730257D01*
X40229774Y-41730257D01*
X40442673Y-41738064D01*
X40442677Y-41738064D01*
X40447837Y-41738253D01*
X40452957Y-41737597D01*
X40452959Y-41737597D01*
X40664288Y-41710525D01*
X40664289Y-41710525D01*
X40669416Y-41709868D01*
X40674366Y-41708383D01*
X40878429Y-41647161D01*
X40878434Y-41647159D01*
X40883384Y-41645674D01*
X41083994Y-41547396D01*
X41265860Y-41417673D01*
X41424096Y-41259989D01*
X41483594Y-41177189D01*
X41554453Y-41078577D01*
X41555776Y-41079528D01*
X41602645Y-41036357D01*
X41672580Y-41024125D01*
X41738026Y-41051644D01*
X41765875Y-41083494D01*
X41825987Y-41181588D01*
X41972250Y-41350438D01*
X42144126Y-41493132D01*
X42337000Y-41605838D01*
X42545692Y-41685530D01*
X42550760Y-41686561D01*
X42550763Y-41686562D01*
X42655604Y-41707892D01*
X42764597Y-41730067D01*
X42769772Y-41730257D01*
X42769774Y-41730257D01*
X42982673Y-41738064D01*
X42982677Y-41738064D01*
X42987837Y-41738253D01*
X42992957Y-41737597D01*
X42992959Y-41737597D01*
X43204288Y-41710525D01*
X43204289Y-41710525D01*
X43209416Y-41709868D01*
X43214366Y-41708383D01*
X43418429Y-41647161D01*
X43418434Y-41647159D01*
X43423384Y-41645674D01*
X43623994Y-41547396D01*
X43805860Y-41417673D01*
X43964096Y-41259989D01*
X44023594Y-41177189D01*
X44094453Y-41078577D01*
X44095776Y-41079528D01*
X44142645Y-41036357D01*
X44212580Y-41024125D01*
X44278026Y-41051644D01*
X44305875Y-41083494D01*
X44365987Y-41181588D01*
X44512250Y-41350438D01*
X44684126Y-41493132D01*
X44877000Y-41605838D01*
X45085692Y-41685530D01*
X45090760Y-41686561D01*
X45090763Y-41686562D01*
X45195604Y-41707892D01*
X45304597Y-41730067D01*
X45309772Y-41730257D01*
X45309774Y-41730257D01*
X45522673Y-41738064D01*
X45522677Y-41738064D01*
X45527837Y-41738253D01*
X45532957Y-41737597D01*
X45532959Y-41737597D01*
X45744288Y-41710525D01*
X45744289Y-41710525D01*
X45749416Y-41709868D01*
X45754366Y-41708383D01*
X45958429Y-41647161D01*
X45958434Y-41647159D01*
X45963384Y-41645674D01*
X46163994Y-41547396D01*
X46228544Y-41501353D01*
X47245977Y-41501353D01*
X47251258Y-41508407D01*
X47412756Y-41602779D01*
X47422042Y-41607229D01*
X47621001Y-41683203D01*
X47630899Y-41686079D01*
X47839595Y-41728538D01*
X47849823Y-41729757D01*
X48062650Y-41737562D01*
X48072936Y-41737095D01*
X48284185Y-41710034D01*
X48294262Y-41707892D01*
X48498255Y-41646691D01*
X48507842Y-41642933D01*
X48699098Y-41549238D01*
X48707944Y-41543965D01*
X48755247Y-41510223D01*
X48763648Y-41499523D01*
X48756660Y-41486370D01*
X48018812Y-40748522D01*
X48004868Y-40740908D01*
X48003035Y-40741039D01*
X47996420Y-40745290D01*
X47252737Y-41488973D01*
X47245977Y-41501353D01*
X46228544Y-41501353D01*
X46345860Y-41417673D01*
X46504096Y-41259989D01*
X46563594Y-41177189D01*
X46634453Y-41078577D01*
X46635640Y-41079430D01*
X46682960Y-41035862D01*
X46752897Y-41023645D01*
X46818338Y-41051178D01*
X46846166Y-41083012D01*
X46872459Y-41125919D01*
X46882916Y-41135380D01*
X46891694Y-41131596D01*
X47633978Y-40389312D01*
X47640356Y-40377632D01*
X48370408Y-40377632D01*
X48370539Y-40379465D01*
X48374790Y-40386080D01*
X49116474Y-41127764D01*
X49128484Y-41134323D01*
X49140223Y-41125355D01*
X49174022Y-41078319D01*
X49175277Y-41079221D01*
X49222391Y-41035855D01*
X49292330Y-41023648D01*
X49357767Y-41051191D01*
X49385580Y-41083013D01*
X49443287Y-41177183D01*
X49443291Y-41177188D01*
X49445987Y-41181588D01*
X49592250Y-41350438D01*
X49764126Y-41493132D01*
X49957000Y-41605838D01*
X50165692Y-41685530D01*
X50170760Y-41686561D01*
X50170763Y-41686562D01*
X50275604Y-41707892D01*
X50384597Y-41730067D01*
X50389772Y-41730257D01*
X50389774Y-41730257D01*
X50602673Y-41738064D01*
X50602677Y-41738064D01*
X50607837Y-41738253D01*
X50612957Y-41737597D01*
X50612959Y-41737597D01*
X50824288Y-41710525D01*
X50824289Y-41710525D01*
X50829416Y-41709868D01*
X50834366Y-41708383D01*
X51038429Y-41647161D01*
X51038434Y-41647159D01*
X51043384Y-41645674D01*
X51243994Y-41547396D01*
X51425860Y-41417673D01*
X51584096Y-41259989D01*
X51643594Y-41177189D01*
X51714453Y-41078577D01*
X51715776Y-41079528D01*
X51762645Y-41036357D01*
X51832580Y-41024125D01*
X51898026Y-41051644D01*
X51925875Y-41083494D01*
X51985987Y-41181588D01*
X52132250Y-41350438D01*
X52304126Y-41493132D01*
X52497000Y-41605838D01*
X52705692Y-41685530D01*
X52710760Y-41686561D01*
X52710763Y-41686562D01*
X52815604Y-41707892D01*
X52924597Y-41730067D01*
X52929772Y-41730257D01*
X52929774Y-41730257D01*
X53142673Y-41738064D01*
X53142677Y-41738064D01*
X53147837Y-41738253D01*
X53152957Y-41737597D01*
X53152959Y-41737597D01*
X53364288Y-41710525D01*
X53364289Y-41710525D01*
X53369416Y-41709868D01*
X53374366Y-41708383D01*
X53578429Y-41647161D01*
X53578434Y-41647159D01*
X53583384Y-41645674D01*
X53783994Y-41547396D01*
X53965860Y-41417673D01*
X54124096Y-41259989D01*
X54183594Y-41177189D01*
X54254453Y-41078577D01*
X54255776Y-41079528D01*
X54302645Y-41036357D01*
X54372580Y-41024125D01*
X54438026Y-41051644D01*
X54465875Y-41083494D01*
X54525987Y-41181588D01*
X54672250Y-41350438D01*
X54844126Y-41493132D01*
X55037000Y-41605838D01*
X55245692Y-41685530D01*
X55250760Y-41686561D01*
X55250763Y-41686562D01*
X55355604Y-41707892D01*
X55464597Y-41730067D01*
X55469772Y-41730257D01*
X55469774Y-41730257D01*
X55682673Y-41738064D01*
X55682677Y-41738064D01*
X55687837Y-41738253D01*
X55692957Y-41737597D01*
X55692959Y-41737597D01*
X55904288Y-41710525D01*
X55904289Y-41710525D01*
X55909416Y-41709868D01*
X55914366Y-41708383D01*
X56118429Y-41647161D01*
X56118434Y-41647159D01*
X56123384Y-41645674D01*
X56323994Y-41547396D01*
X56505860Y-41417673D01*
X56664096Y-41259989D01*
X56664671Y-41260566D01*
X56720391Y-41224062D01*
X56791385Y-41223439D01*
X56851446Y-41261296D01*
X56871051Y-41291191D01*
X56872133Y-41293500D01*
X56874450Y-41300446D01*
X56967522Y-41450848D01*
X57092697Y-41575805D01*
X57098927Y-41579645D01*
X57098928Y-41579646D01*
X57236090Y-41664194D01*
X57243262Y-41668615D01*
X57295915Y-41686079D01*
X57404611Y-41722132D01*
X57404613Y-41722132D01*
X57411139Y-41724297D01*
X57417975Y-41724997D01*
X57417978Y-41724998D01*
X57452531Y-41728538D01*
X57515600Y-41735000D01*
X58816400Y-41735000D01*
X58819646Y-41734663D01*
X58819650Y-41734663D01*
X58915308Y-41724738D01*
X58915312Y-41724737D01*
X58922166Y-41724026D01*
X58928702Y-41721845D01*
X58928704Y-41721845D01*
X59060806Y-41677772D01*
X59089946Y-41668050D01*
X59240348Y-41574978D01*
X59365305Y-41449803D01*
X59387357Y-41414029D01*
X59454275Y-41305468D01*
X59454276Y-41305466D01*
X59458115Y-41299238D01*
X59513797Y-41131361D01*
X59524500Y-41026900D01*
X59524500Y-39726100D01*
X59524163Y-39722850D01*
X59514238Y-39627192D01*
X59514237Y-39627188D01*
X59513526Y-39620334D01*
X59479598Y-39518638D01*
X59459868Y-39459502D01*
X59457550Y-39452554D01*
X59364478Y-39302152D01*
X59239303Y-39177195D01*
X59224166Y-39167864D01*
X59088738Y-39084385D01*
X59089774Y-39082705D01*
X59043969Y-39042379D01*
X59024500Y-38975095D01*
X59024500Y-38951279D01*
X59044502Y-38883158D01*
X59061560Y-38862028D01*
X59200435Y-38723637D01*
X59204096Y-38719989D01*
X59263594Y-38637189D01*
X59331435Y-38542777D01*
X59334453Y-38538577D01*
X59347995Y-38511178D01*
X59431136Y-38342953D01*
X59431137Y-38342951D01*
X59433430Y-38338311D01*
X59498370Y-38124569D01*
X59527529Y-37903090D01*
X59529156Y-37836500D01*
X59510852Y-37613861D01*
X59456431Y-37397202D01*
X59367354Y-37192340D01*
X59246014Y-37004777D01*
X59095670Y-36839551D01*
X59091619Y-36836352D01*
X59091615Y-36836348D01*
X58924414Y-36704300D01*
X58924410Y-36704298D01*
X58920359Y-36701098D01*
X58724789Y-36593138D01*
X58719920Y-36591414D01*
X58719916Y-36591412D01*
X58519087Y-36520295D01*
X58519083Y-36520294D01*
X58514212Y-36518569D01*
X58509119Y-36517662D01*
X58509116Y-36517661D01*
X58299373Y-36480300D01*
X58299367Y-36480299D01*
X58294284Y-36479394D01*
X58220452Y-36478492D01*
X58076081Y-36476728D01*
X58076079Y-36476728D01*
X58070911Y-36476665D01*
X57850091Y-36510455D01*
X57637756Y-36579857D01*
X57439607Y-36683007D01*
X57435474Y-36686110D01*
X57435471Y-36686112D01*
X57265100Y-36814030D01*
X57260965Y-36817135D01*
X57106629Y-36978638D01*
X56999201Y-37136121D01*
X56944293Y-37181121D01*
X56873768Y-37189292D01*
X56810021Y-37158038D01*
X56789324Y-37133554D01*
X56708822Y-37009117D01*
X56708820Y-37009114D01*
X56706014Y-37004777D01*
X56555670Y-36839551D01*
X56551619Y-36836352D01*
X56551615Y-36836348D01*
X56384414Y-36704300D01*
X56384410Y-36704298D01*
X56380359Y-36701098D01*
X56184789Y-36593138D01*
X56179920Y-36591414D01*
X56179916Y-36591412D01*
X55979087Y-36520295D01*
X55979083Y-36520294D01*
X55974212Y-36518569D01*
X55969119Y-36517662D01*
X55969116Y-36517661D01*
X55759373Y-36480300D01*
X55759367Y-36480299D01*
X55754284Y-36479394D01*
X55680452Y-36478492D01*
X55536081Y-36476728D01*
X55536079Y-36476728D01*
X55530911Y-36476665D01*
X55310091Y-36510455D01*
X55097756Y-36579857D01*
X54899607Y-36683007D01*
X54895474Y-36686110D01*
X54895471Y-36686112D01*
X54725100Y-36814030D01*
X54720965Y-36817135D01*
X54566629Y-36978638D01*
X54459201Y-37136121D01*
X54404293Y-37181121D01*
X54333768Y-37189292D01*
X54270021Y-37158038D01*
X54249324Y-37133554D01*
X54168822Y-37009117D01*
X54168820Y-37009114D01*
X54166014Y-37004777D01*
X54015670Y-36839551D01*
X54011619Y-36836352D01*
X54011615Y-36836348D01*
X53844414Y-36704300D01*
X53844410Y-36704298D01*
X53840359Y-36701098D01*
X53644789Y-36593138D01*
X53639920Y-36591414D01*
X53639916Y-36591412D01*
X53439087Y-36520295D01*
X53439083Y-36520294D01*
X53434212Y-36518569D01*
X53429119Y-36517662D01*
X53429116Y-36517661D01*
X53219373Y-36480300D01*
X53219367Y-36480299D01*
X53214284Y-36479394D01*
X53140452Y-36478492D01*
X52996081Y-36476728D01*
X52996079Y-36476728D01*
X52990911Y-36476665D01*
X52770091Y-36510455D01*
X52557756Y-36579857D01*
X52359607Y-36683007D01*
X52355474Y-36686110D01*
X52355471Y-36686112D01*
X52185100Y-36814030D01*
X52180965Y-36817135D01*
X52026629Y-36978638D01*
X51919201Y-37136121D01*
X51864293Y-37181121D01*
X51793768Y-37189292D01*
X51730021Y-37158038D01*
X51709324Y-37133554D01*
X51628822Y-37009117D01*
X51628820Y-37009114D01*
X51626014Y-37004777D01*
X51475670Y-36839551D01*
X51471619Y-36836352D01*
X51471615Y-36836348D01*
X51304414Y-36704300D01*
X51304410Y-36704298D01*
X51300359Y-36701098D01*
X51104789Y-36593138D01*
X51099920Y-36591414D01*
X51099916Y-36591412D01*
X50899087Y-36520295D01*
X50899083Y-36520294D01*
X50894212Y-36518569D01*
X50889119Y-36517662D01*
X50889116Y-36517661D01*
X50679373Y-36480300D01*
X50679367Y-36480299D01*
X50674284Y-36479394D01*
X50600452Y-36478492D01*
X50456081Y-36476728D01*
X50456079Y-36476728D01*
X50450911Y-36476665D01*
X50230091Y-36510455D01*
X50017756Y-36579857D01*
X49819607Y-36683007D01*
X49815474Y-36686110D01*
X49815471Y-36686112D01*
X49645100Y-36814030D01*
X49640965Y-36817135D01*
X49486629Y-36978638D01*
X49379204Y-37136118D01*
X49378898Y-37136566D01*
X49323987Y-37181569D01*
X49253462Y-37189740D01*
X49189715Y-37158486D01*
X49169017Y-37134001D01*
X49139062Y-37087697D01*
X49128377Y-37078495D01*
X49118812Y-37082898D01*
X48378022Y-37823688D01*
X48370408Y-37837632D01*
X48370539Y-37839465D01*
X48374790Y-37846080D01*
X49116474Y-38587764D01*
X49128484Y-38594323D01*
X49140223Y-38585355D01*
X49174022Y-38538319D01*
X49175277Y-38539221D01*
X49222391Y-38495855D01*
X49292330Y-38483648D01*
X49357767Y-38511191D01*
X49385580Y-38543013D01*
X49443287Y-38637183D01*
X49443291Y-38637188D01*
X49445987Y-38641588D01*
X49592250Y-38810438D01*
X49764126Y-38953132D01*
X49801742Y-38975113D01*
X49837445Y-38995976D01*
X49886169Y-39047614D01*
X49899240Y-39117397D01*
X49872509Y-39183169D01*
X49832055Y-39216527D01*
X49819607Y-39223007D01*
X49815474Y-39226110D01*
X49815471Y-39226112D01*
X49645100Y-39354030D01*
X49640965Y-39357135D01*
X49486629Y-39518638D01*
X49379204Y-39676118D01*
X49378898Y-39676566D01*
X49323987Y-39721569D01*
X49253462Y-39729740D01*
X49189715Y-39698486D01*
X49169017Y-39674001D01*
X49139062Y-39627697D01*
X49128377Y-39618495D01*
X49118812Y-39622898D01*
X48378022Y-40363688D01*
X48370408Y-40377632D01*
X47640356Y-40377632D01*
X47641592Y-40375368D01*
X47641461Y-40373535D01*
X47637210Y-40366920D01*
X46895849Y-39625559D01*
X46884313Y-39619259D01*
X46872031Y-39628882D01*
X46839499Y-39676572D01*
X46784587Y-39721575D01*
X46714063Y-39729746D01*
X46650316Y-39698492D01*
X46629618Y-39674008D01*
X46548822Y-39549117D01*
X46548820Y-39549114D01*
X46546014Y-39544777D01*
X46395670Y-39379551D01*
X46391619Y-39376352D01*
X46391615Y-39376348D01*
X46224414Y-39244300D01*
X46224410Y-39244298D01*
X46220359Y-39241098D01*
X46179053Y-39218296D01*
X46129084Y-39167864D01*
X46114312Y-39098421D01*
X46139428Y-39032016D01*
X46166780Y-39005409D01*
X46228544Y-38961353D01*
X47245977Y-38961353D01*
X47251258Y-38968407D01*
X47298479Y-38996001D01*
X47347203Y-39047639D01*
X47360274Y-39117422D01*
X47333543Y-39183194D01*
X47293087Y-39216553D01*
X47284466Y-39221041D01*
X47275734Y-39226539D01*
X47255677Y-39241599D01*
X47247223Y-39252927D01*
X47253968Y-39265258D01*
X47993188Y-40004478D01*
X48007132Y-40012092D01*
X48008965Y-40011961D01*
X48015580Y-40007710D01*
X48759389Y-39263901D01*
X48766410Y-39251044D01*
X48759611Y-39241713D01*
X48755559Y-39239021D01*
X48718116Y-39218352D01*
X48668145Y-39167920D01*
X48653373Y-39098477D01*
X48678489Y-39032072D01*
X48705840Y-39005465D01*
X48755247Y-38970223D01*
X48763648Y-38959523D01*
X48756660Y-38946370D01*
X48018812Y-38208522D01*
X48004868Y-38200908D01*
X48003035Y-38201039D01*
X47996420Y-38205290D01*
X47252737Y-38948973D01*
X47245977Y-38961353D01*
X46228544Y-38961353D01*
X46231110Y-38959523D01*
X46345860Y-38877673D01*
X46504096Y-38719989D01*
X46563594Y-38637189D01*
X46634453Y-38538577D01*
X46635640Y-38539430D01*
X46682960Y-38495862D01*
X46752897Y-38483645D01*
X46818338Y-38511178D01*
X46846166Y-38543012D01*
X46872459Y-38585919D01*
X46882916Y-38595380D01*
X46891694Y-38591596D01*
X47633978Y-37849312D01*
X47641592Y-37835368D01*
X47641461Y-37833535D01*
X47637210Y-37826920D01*
X46895849Y-37085559D01*
X46884313Y-37079259D01*
X46872031Y-37088882D01*
X46839499Y-37136572D01*
X46784587Y-37181575D01*
X46714063Y-37189746D01*
X46650316Y-37158492D01*
X46629618Y-37134008D01*
X46548822Y-37009117D01*
X46548820Y-37009114D01*
X46546014Y-37004777D01*
X46395670Y-36839551D01*
X46391619Y-36836352D01*
X46391615Y-36836348D01*
X46235338Y-36712927D01*
X47247223Y-36712927D01*
X47253968Y-36725258D01*
X47993188Y-37464478D01*
X48007132Y-37472092D01*
X48008965Y-37471961D01*
X48015580Y-37467710D01*
X48759389Y-36723901D01*
X48766410Y-36711044D01*
X48759611Y-36701713D01*
X48755554Y-36699018D01*
X48569117Y-36596099D01*
X48559705Y-36591869D01*
X48358959Y-36520780D01*
X48348989Y-36518146D01*
X48139327Y-36480801D01*
X48129073Y-36479831D01*
X47916116Y-36477228D01*
X47905832Y-36477948D01*
X47695321Y-36510161D01*
X47685293Y-36512550D01*
X47482868Y-36578712D01*
X47473359Y-36582709D01*
X47284466Y-36681040D01*
X47275734Y-36686539D01*
X47255677Y-36701599D01*
X47247223Y-36712927D01*
X46235338Y-36712927D01*
X46224414Y-36704300D01*
X46224410Y-36704298D01*
X46220359Y-36701098D01*
X46024789Y-36593138D01*
X46019920Y-36591414D01*
X46019916Y-36591412D01*
X45819087Y-36520295D01*
X45819083Y-36520294D01*
X45814212Y-36518569D01*
X45809119Y-36517662D01*
X45809116Y-36517661D01*
X45599373Y-36480300D01*
X45599367Y-36480299D01*
X45594284Y-36479394D01*
X45520452Y-36478492D01*
X45376081Y-36476728D01*
X45376079Y-36476728D01*
X45370911Y-36476665D01*
X45150091Y-36510455D01*
X44937756Y-36579857D01*
X44739607Y-36683007D01*
X44735474Y-36686110D01*
X44735471Y-36686112D01*
X44565100Y-36814030D01*
X44560965Y-36817135D01*
X44406629Y-36978638D01*
X44299201Y-37136121D01*
X44244293Y-37181121D01*
X44173768Y-37189292D01*
X44110021Y-37158038D01*
X44089324Y-37133554D01*
X44008822Y-37009117D01*
X44008820Y-37009114D01*
X44006014Y-37004777D01*
X43855670Y-36839551D01*
X43851619Y-36836352D01*
X43851615Y-36836348D01*
X43684414Y-36704300D01*
X43684410Y-36704298D01*
X43680359Y-36701098D01*
X43484789Y-36593138D01*
X43479920Y-36591414D01*
X43479916Y-36591412D01*
X43279087Y-36520295D01*
X43279083Y-36520294D01*
X43274212Y-36518569D01*
X43269119Y-36517662D01*
X43269116Y-36517661D01*
X43059373Y-36480300D01*
X43059367Y-36480299D01*
X43054284Y-36479394D01*
X42980452Y-36478492D01*
X42836081Y-36476728D01*
X42836079Y-36476728D01*
X42830911Y-36476665D01*
X42610091Y-36510455D01*
X42397756Y-36579857D01*
X42199607Y-36683007D01*
X42195474Y-36686110D01*
X42195471Y-36686112D01*
X42025100Y-36814030D01*
X42020965Y-36817135D01*
X41866629Y-36978638D01*
X41759201Y-37136121D01*
X41704293Y-37181121D01*
X41633768Y-37189292D01*
X41570021Y-37158038D01*
X41549324Y-37133554D01*
X41468822Y-37009117D01*
X41468820Y-37009114D01*
X41466014Y-37004777D01*
X41315670Y-36839551D01*
X41311619Y-36836352D01*
X41311615Y-36836348D01*
X41144414Y-36704300D01*
X41144410Y-36704298D01*
X41140359Y-36701098D01*
X40944789Y-36593138D01*
X40939920Y-36591414D01*
X40939916Y-36591412D01*
X40739087Y-36520295D01*
X40739083Y-36520294D01*
X40734212Y-36518569D01*
X40729119Y-36517662D01*
X40729116Y-36517661D01*
X40519373Y-36480300D01*
X40519367Y-36480299D01*
X40514284Y-36479394D01*
X40440452Y-36478492D01*
X40296081Y-36476728D01*
X40296079Y-36476728D01*
X40290911Y-36476665D01*
X40070091Y-36510455D01*
X39857756Y-36579857D01*
X39659607Y-36683007D01*
X39655474Y-36686110D01*
X39655471Y-36686112D01*
X39485100Y-36814030D01*
X39480965Y-36817135D01*
X39326629Y-36978638D01*
X39200743Y-37163180D01*
X39106688Y-37365805D01*
X39046989Y-37581070D01*
X39023251Y-37803195D01*
X39023548Y-37808348D01*
X39023548Y-37808351D01*
X39029011Y-37903090D01*
X39036110Y-38026215D01*
X39037247Y-38031261D01*
X39037248Y-38031267D01*
X39057119Y-38119439D01*
X39085222Y-38244139D01*
X39169266Y-38451116D01*
X39220019Y-38533938D01*
X39283291Y-38637188D01*
X39285987Y-38641588D01*
X39432250Y-38810438D01*
X39604126Y-38953132D01*
X39641742Y-38975113D01*
X39677445Y-38995976D01*
X39726169Y-39047614D01*
X39739240Y-39117397D01*
X39712509Y-39183169D01*
X39672055Y-39216527D01*
X39659607Y-39223007D01*
X39655474Y-39226110D01*
X39655471Y-39226112D01*
X39485100Y-39354030D01*
X39480965Y-39357135D01*
X39326629Y-39518638D01*
X39200743Y-39703180D01*
X39106688Y-39905805D01*
X39046989Y-40121070D01*
X39023251Y-40343195D01*
X32004000Y-40343195D01*
X32004000Y-33400000D01*
X32024002Y-33331879D01*
X32077658Y-33285386D01*
X32130000Y-33274000D01*
X65914000Y-33274000D01*
X65982121Y-33294002D01*
G37*
%TD.AperFunction*%
%TD*%
M02*
