%TF.GenerationSoftware,KiCad,Pcbnew,(6.0.0-0)*%
%TF.CreationDate,2022-11-09T20:37:39-05:00*%
%TF.ProjectId,VCO,56434f2e-6b69-4636-9164-5f7063625858,rev?*%
%TF.SameCoordinates,Original*%
%TF.FileFunction,Legend,Top*%
%TF.FilePolarity,Positive*%
%FSLAX46Y46*%
G04 Gerber Fmt 4.6, Leading zero omitted, Abs format (unit mm)*
G04 Created by KiCad (PCBNEW (6.0.0-0)) date 2022-11-09 20:37:39*
%MOMM*%
%LPD*%
G01*
G04 APERTURE LIST*
%ADD10C,0.100000*%
%ADD11C,0.150000*%
%ADD12C,0.200000*%
%ADD13C,0.120000*%
%ADD14C,0.013229*%
G04 APERTURE END LIST*
D10*
X47644095Y-34810761D02*
X47644095Y-34353619D01*
X47644095Y-34582190D02*
X48444095Y-34582190D01*
X48329809Y-34506000D01*
X48253619Y-34429809D01*
X48215523Y-34353619D01*
X48367904Y-35115523D02*
X48406000Y-35153619D01*
X48444095Y-35229809D01*
X48444095Y-35420285D01*
X48406000Y-35496476D01*
X48367904Y-35534571D01*
X48291714Y-35572666D01*
X48215523Y-35572666D01*
X48101238Y-35534571D01*
X47644095Y-35077428D01*
X47644095Y-35572666D01*
X48444095Y-35801238D02*
X47644095Y-36067904D01*
X48444095Y-36334571D01*
X50946000Y-34791714D02*
X50984095Y-34715523D01*
X50984095Y-34601238D01*
X50946000Y-34486952D01*
X50869809Y-34410761D01*
X50793619Y-34372666D01*
X50641238Y-34334571D01*
X50526952Y-34334571D01*
X50374571Y-34372666D01*
X50298380Y-34410761D01*
X50222190Y-34486952D01*
X50184095Y-34601238D01*
X50184095Y-34677428D01*
X50222190Y-34791714D01*
X50260285Y-34829809D01*
X50526952Y-34829809D01*
X50526952Y-34677428D01*
X50717428Y-35172666D02*
X50184095Y-35172666D01*
X50641238Y-35172666D02*
X50679333Y-35210761D01*
X50717428Y-35286952D01*
X50717428Y-35401238D01*
X50679333Y-35477428D01*
X50603142Y-35515523D01*
X50184095Y-35515523D01*
X50184095Y-36239333D02*
X50984095Y-36239333D01*
X50222190Y-36239333D02*
X50184095Y-36163142D01*
X50184095Y-36010761D01*
X50222190Y-35934571D01*
X50260285Y-35896476D01*
X50336476Y-35858380D01*
X50565047Y-35858380D01*
X50641238Y-35896476D01*
X50679333Y-35934571D01*
X50717428Y-36010761D01*
X50717428Y-36163142D01*
X50679333Y-36239333D01*
X53486000Y-34791714D02*
X53524095Y-34715523D01*
X53524095Y-34601238D01*
X53486000Y-34486952D01*
X53409809Y-34410761D01*
X53333619Y-34372666D01*
X53181238Y-34334571D01*
X53066952Y-34334571D01*
X52914571Y-34372666D01*
X52838380Y-34410761D01*
X52762190Y-34486952D01*
X52724095Y-34601238D01*
X52724095Y-34677428D01*
X52762190Y-34791714D01*
X52800285Y-34829809D01*
X53066952Y-34829809D01*
X53066952Y-34677428D01*
X53257428Y-35172666D02*
X52724095Y-35172666D01*
X53181238Y-35172666D02*
X53219333Y-35210761D01*
X53257428Y-35286952D01*
X53257428Y-35401238D01*
X53219333Y-35477428D01*
X53143142Y-35515523D01*
X52724095Y-35515523D01*
X52724095Y-36239333D02*
X53524095Y-36239333D01*
X52762190Y-36239333D02*
X52724095Y-36163142D01*
X52724095Y-36010761D01*
X52762190Y-35934571D01*
X52800285Y-35896476D01*
X52876476Y-35858380D01*
X53105047Y-35858380D01*
X53181238Y-35896476D01*
X53219333Y-35934571D01*
X53257428Y-36010761D01*
X53257428Y-36163142D01*
X53219333Y-36239333D01*
X56026000Y-34791714D02*
X56064095Y-34715523D01*
X56064095Y-34601238D01*
X56026000Y-34486952D01*
X55949809Y-34410761D01*
X55873619Y-34372666D01*
X55721238Y-34334571D01*
X55606952Y-34334571D01*
X55454571Y-34372666D01*
X55378380Y-34410761D01*
X55302190Y-34486952D01*
X55264095Y-34601238D01*
X55264095Y-34677428D01*
X55302190Y-34791714D01*
X55340285Y-34829809D01*
X55606952Y-34829809D01*
X55606952Y-34677428D01*
X55797428Y-35172666D02*
X55264095Y-35172666D01*
X55721238Y-35172666D02*
X55759333Y-35210761D01*
X55797428Y-35286952D01*
X55797428Y-35401238D01*
X55759333Y-35477428D01*
X55683142Y-35515523D01*
X55264095Y-35515523D01*
X55264095Y-36239333D02*
X56064095Y-36239333D01*
X55302190Y-36239333D02*
X55264095Y-36163142D01*
X55264095Y-36010761D01*
X55302190Y-35934571D01*
X55340285Y-35896476D01*
X55416476Y-35858380D01*
X55645047Y-35858380D01*
X55721238Y-35896476D01*
X55759333Y-35934571D01*
X55797428Y-36010761D01*
X55797428Y-36163142D01*
X55759333Y-36239333D01*
X58108857Y-33388476D02*
X58108857Y-33998000D01*
X57804095Y-34798000D02*
X57804095Y-34340857D01*
X57804095Y-34569428D02*
X58604095Y-34569428D01*
X58489809Y-34493238D01*
X58413619Y-34417047D01*
X58375523Y-34340857D01*
X58527904Y-35102761D02*
X58566000Y-35140857D01*
X58604095Y-35217047D01*
X58604095Y-35407523D01*
X58566000Y-35483714D01*
X58527904Y-35521809D01*
X58451714Y-35559904D01*
X58375523Y-35559904D01*
X58261238Y-35521809D01*
X57804095Y-35064666D01*
X57804095Y-35559904D01*
X58604095Y-35788476D02*
X57804095Y-36055142D01*
X58604095Y-36321809D01*
D11*
X37973000Y-108458000D02*
X34163000Y-110998000D01*
X34163000Y-105918000D02*
X37973000Y-108458000D01*
X38100000Y-119126000D02*
X34290000Y-119126000D01*
X38100000Y-123952000D02*
X34290000Y-123952000D01*
X34290000Y-129286000D02*
X34290000Y-126492000D01*
X34290000Y-123952000D02*
X34290000Y-121412000D01*
X34290000Y-119126000D02*
X34290000Y-116332000D01*
X36068000Y-116332000D02*
X38100000Y-116332000D01*
X34290000Y-126492000D02*
X38100000Y-126492000D01*
X34290000Y-116332000D02*
X36068000Y-116332000D01*
X38100000Y-121412000D02*
X38100000Y-119126000D01*
X37846000Y-113792000D02*
X34163000Y-110998000D01*
X37973000Y-103378000D02*
X34163000Y-101092000D01*
X38100000Y-126492000D02*
X38100000Y-123952000D01*
X37846000Y-98044000D02*
X34163000Y-101092000D01*
X34290000Y-121412000D02*
X38100000Y-121412000D01*
X36068000Y-129286000D02*
X34290000Y-129286000D01*
X37973000Y-103378000D02*
X34163000Y-105918000D01*
X38100000Y-129286000D02*
X36068000Y-129286000D01*
D12*
X60309142Y-58276857D02*
X60309142Y-58943523D01*
X61356761Y-58943523D02*
X59356761Y-58943523D01*
X59356761Y-57991142D01*
X61356761Y-57229238D02*
X59356761Y-57229238D01*
X61356761Y-56276857D02*
X59356761Y-56276857D01*
X61356761Y-55134000D01*
X59356761Y-55134000D01*
X60309142Y-54181619D02*
X60309142Y-53514952D01*
X61356761Y-53229238D02*
X61356761Y-54181619D01*
X59356761Y-54181619D01*
X59356761Y-53229238D01*
X61166285Y-85105333D02*
X61261523Y-85200571D01*
X61356761Y-85486285D01*
X61356761Y-85676761D01*
X61261523Y-85962476D01*
X61071047Y-86152952D01*
X60880571Y-86248190D01*
X60499619Y-86343428D01*
X60213904Y-86343428D01*
X59832952Y-86248190D01*
X59642476Y-86152952D01*
X59452000Y-85962476D01*
X59356761Y-85676761D01*
X59356761Y-85486285D01*
X59452000Y-85200571D01*
X59547238Y-85105333D01*
X59356761Y-83867238D02*
X59356761Y-83486285D01*
X59452000Y-83295809D01*
X59642476Y-83105333D01*
X60023428Y-83010095D01*
X60690095Y-83010095D01*
X61071047Y-83105333D01*
X61261523Y-83295809D01*
X61356761Y-83486285D01*
X61356761Y-83867238D01*
X61261523Y-84057714D01*
X61071047Y-84248190D01*
X60690095Y-84343428D01*
X60023428Y-84343428D01*
X59642476Y-84248190D01*
X59452000Y-84057714D01*
X59356761Y-83867238D01*
X59356761Y-82152952D02*
X60975809Y-82152952D01*
X61166285Y-82057714D01*
X61261523Y-81962476D01*
X61356761Y-81772000D01*
X61356761Y-81391047D01*
X61261523Y-81200571D01*
X61166285Y-81105333D01*
X60975809Y-81010095D01*
X59356761Y-81010095D01*
X61356761Y-78914857D02*
X60404380Y-79581523D01*
X61356761Y-80057714D02*
X59356761Y-80057714D01*
X59356761Y-79295809D01*
X59452000Y-79105333D01*
X59547238Y-79010095D01*
X59737714Y-78914857D01*
X60023428Y-78914857D01*
X60213904Y-79010095D01*
X60309142Y-79105333D01*
X60404380Y-79295809D01*
X60404380Y-80057714D01*
X61261523Y-78152952D02*
X61356761Y-77867238D01*
X61356761Y-77391047D01*
X61261523Y-77200571D01*
X61166285Y-77105333D01*
X60975809Y-77010095D01*
X60785333Y-77010095D01*
X60594857Y-77105333D01*
X60499619Y-77200571D01*
X60404380Y-77391047D01*
X60309142Y-77772000D01*
X60213904Y-77962476D01*
X60118666Y-78057714D01*
X59928190Y-78152952D01*
X59737714Y-78152952D01*
X59547238Y-78057714D01*
X59452000Y-77962476D01*
X59356761Y-77772000D01*
X59356761Y-77295809D01*
X59452000Y-77010095D01*
X60309142Y-76152952D02*
X60309142Y-75486285D01*
X61356761Y-75200571D02*
X61356761Y-76152952D01*
X59356761Y-76152952D01*
X59356761Y-75200571D01*
D11*
X37298380Y-92184761D02*
X38298380Y-91851428D01*
X37298380Y-91518095D01*
X38298380Y-91041904D02*
X38250761Y-91137142D01*
X38203142Y-91184761D01*
X38107904Y-91232380D01*
X37822190Y-91232380D01*
X37726952Y-91184761D01*
X37679333Y-91137142D01*
X37631714Y-91041904D01*
X37631714Y-90899047D01*
X37679333Y-90803809D01*
X37726952Y-90756190D01*
X37822190Y-90708571D01*
X38107904Y-90708571D01*
X38203142Y-90756190D01*
X38250761Y-90803809D01*
X38298380Y-90899047D01*
X38298380Y-91041904D01*
X38298380Y-90137142D02*
X38250761Y-90232380D01*
X38155523Y-90280000D01*
X37298380Y-90280000D01*
X37631714Y-89899047D02*
X37631714Y-89518095D01*
X37298380Y-89756190D02*
X38155523Y-89756190D01*
X38250761Y-89708571D01*
X38298380Y-89613333D01*
X38298380Y-89518095D01*
X38298380Y-88756190D02*
X37774571Y-88756190D01*
X37679333Y-88803809D01*
X37631714Y-88899047D01*
X37631714Y-89089523D01*
X37679333Y-89184761D01*
X38250761Y-88756190D02*
X38298380Y-88851428D01*
X38298380Y-89089523D01*
X38250761Y-89184761D01*
X38155523Y-89232380D01*
X38060285Y-89232380D01*
X37965047Y-89184761D01*
X37917428Y-89089523D01*
X37917428Y-88851428D01*
X37869809Y-88756190D01*
X37631714Y-87851428D02*
X38441238Y-87851428D01*
X38536476Y-87899047D01*
X38584095Y-87946666D01*
X38631714Y-88041904D01*
X38631714Y-88184761D01*
X38584095Y-88280000D01*
X38250761Y-87851428D02*
X38298380Y-87946666D01*
X38298380Y-88137142D01*
X38250761Y-88232380D01*
X38203142Y-88280000D01*
X38107904Y-88327619D01*
X37822190Y-88327619D01*
X37726952Y-88280000D01*
X37679333Y-88232380D01*
X37631714Y-88137142D01*
X37631714Y-87946666D01*
X37679333Y-87851428D01*
X38250761Y-86994285D02*
X38298380Y-87089523D01*
X38298380Y-87280000D01*
X38250761Y-87375238D01*
X38155523Y-87422857D01*
X37774571Y-87422857D01*
X37679333Y-87375238D01*
X37631714Y-87280000D01*
X37631714Y-87089523D01*
X37679333Y-86994285D01*
X37774571Y-86946666D01*
X37869809Y-86946666D01*
X37965047Y-87422857D01*
X38203142Y-85184761D02*
X38250761Y-85232380D01*
X38298380Y-85375238D01*
X38298380Y-85470476D01*
X38250761Y-85613333D01*
X38155523Y-85708571D01*
X38060285Y-85756190D01*
X37869809Y-85803809D01*
X37726952Y-85803809D01*
X37536476Y-85756190D01*
X37441238Y-85708571D01*
X37346000Y-85613333D01*
X37298380Y-85470476D01*
X37298380Y-85375238D01*
X37346000Y-85232380D01*
X37393619Y-85184761D01*
X38298380Y-84613333D02*
X38250761Y-84708571D01*
X38203142Y-84756190D01*
X38107904Y-84803809D01*
X37822190Y-84803809D01*
X37726952Y-84756190D01*
X37679333Y-84708571D01*
X37631714Y-84613333D01*
X37631714Y-84470476D01*
X37679333Y-84375238D01*
X37726952Y-84327619D01*
X37822190Y-84280000D01*
X38107904Y-84280000D01*
X38203142Y-84327619D01*
X38250761Y-84375238D01*
X38298380Y-84470476D01*
X38298380Y-84613333D01*
X37631714Y-83851428D02*
X38298380Y-83851428D01*
X37726952Y-83851428D02*
X37679333Y-83803809D01*
X37631714Y-83708571D01*
X37631714Y-83565714D01*
X37679333Y-83470476D01*
X37774571Y-83422857D01*
X38298380Y-83422857D01*
X37631714Y-83089523D02*
X37631714Y-82708571D01*
X37298380Y-82946666D02*
X38155523Y-82946666D01*
X38250761Y-82899047D01*
X38298380Y-82803809D01*
X38298380Y-82708571D01*
X38298380Y-82375238D02*
X37631714Y-82375238D01*
X37822190Y-82375238D02*
X37726952Y-82327619D01*
X37679333Y-82280000D01*
X37631714Y-82184761D01*
X37631714Y-82089523D01*
X38298380Y-81613333D02*
X38250761Y-81708571D01*
X38203142Y-81756190D01*
X38107904Y-81803809D01*
X37822190Y-81803809D01*
X37726952Y-81756190D01*
X37679333Y-81708571D01*
X37631714Y-81613333D01*
X37631714Y-81470476D01*
X37679333Y-81375238D01*
X37726952Y-81327619D01*
X37822190Y-81280000D01*
X38107904Y-81280000D01*
X38203142Y-81327619D01*
X38250761Y-81375238D01*
X38298380Y-81470476D01*
X38298380Y-81613333D01*
X38298380Y-80708571D02*
X38250761Y-80803809D01*
X38155523Y-80851428D01*
X37298380Y-80851428D01*
X38298380Y-80184761D02*
X38250761Y-80280000D01*
X38155523Y-80327619D01*
X37298380Y-80327619D01*
X38250761Y-79422857D02*
X38298380Y-79518095D01*
X38298380Y-79708571D01*
X38250761Y-79803809D01*
X38155523Y-79851428D01*
X37774571Y-79851428D01*
X37679333Y-79803809D01*
X37631714Y-79708571D01*
X37631714Y-79518095D01*
X37679333Y-79422857D01*
X37774571Y-79375238D01*
X37869809Y-79375238D01*
X37965047Y-79851428D01*
X38298380Y-78518095D02*
X37298380Y-78518095D01*
X38250761Y-78518095D02*
X38298380Y-78613333D01*
X38298380Y-78803809D01*
X38250761Y-78899047D01*
X38203142Y-78946666D01*
X38107904Y-78994285D01*
X37822190Y-78994285D01*
X37726952Y-78946666D01*
X37679333Y-78899047D01*
X37631714Y-78803809D01*
X37631714Y-78613333D01*
X37679333Y-78518095D01*
X37298380Y-77089523D02*
X37298380Y-76899047D01*
X37346000Y-76803809D01*
X37441238Y-76708571D01*
X37631714Y-76660952D01*
X37965047Y-76660952D01*
X38155523Y-76708571D01*
X38250761Y-76803809D01*
X38298380Y-76899047D01*
X38298380Y-77089523D01*
X38250761Y-77184761D01*
X38155523Y-77280000D01*
X37965047Y-77327619D01*
X37631714Y-77327619D01*
X37441238Y-77280000D01*
X37346000Y-77184761D01*
X37298380Y-77089523D01*
X38250761Y-76280000D02*
X38298380Y-76184761D01*
X38298380Y-75994285D01*
X38250761Y-75899047D01*
X38155523Y-75851428D01*
X38107904Y-75851428D01*
X38012666Y-75899047D01*
X37965047Y-75994285D01*
X37965047Y-76137142D01*
X37917428Y-76232380D01*
X37822190Y-76280000D01*
X37774571Y-76280000D01*
X37679333Y-76232380D01*
X37631714Y-76137142D01*
X37631714Y-75994285D01*
X37679333Y-75899047D01*
X38250761Y-74994285D02*
X38298380Y-75089523D01*
X38298380Y-75280000D01*
X38250761Y-75375238D01*
X38203142Y-75422857D01*
X38107904Y-75470476D01*
X37822190Y-75470476D01*
X37726952Y-75422857D01*
X37679333Y-75375238D01*
X37631714Y-75280000D01*
X37631714Y-75089523D01*
X37679333Y-74994285D01*
X38298380Y-74565714D02*
X37631714Y-74565714D01*
X37298380Y-74565714D02*
X37346000Y-74613333D01*
X37393619Y-74565714D01*
X37346000Y-74518095D01*
X37298380Y-74565714D01*
X37393619Y-74565714D01*
X38298380Y-73946666D02*
X38250761Y-74041904D01*
X38155523Y-74089523D01*
X37298380Y-74089523D01*
X38298380Y-73422857D02*
X38250761Y-73518095D01*
X38155523Y-73565714D01*
X37298380Y-73565714D01*
X38298380Y-72613333D02*
X37774571Y-72613333D01*
X37679333Y-72660952D01*
X37631714Y-72756190D01*
X37631714Y-72946666D01*
X37679333Y-73041904D01*
X38250761Y-72613333D02*
X38298380Y-72708571D01*
X38298380Y-72946666D01*
X38250761Y-73041904D01*
X38155523Y-73089523D01*
X38060285Y-73089523D01*
X37965047Y-73041904D01*
X37917428Y-72946666D01*
X37917428Y-72708571D01*
X37869809Y-72613333D01*
X37631714Y-72280000D02*
X37631714Y-71899047D01*
X37298380Y-72137142D02*
X38155523Y-72137142D01*
X38250761Y-72089523D01*
X38298380Y-71994285D01*
X38298380Y-71899047D01*
X38298380Y-71422857D02*
X38250761Y-71518095D01*
X38203142Y-71565714D01*
X38107904Y-71613333D01*
X37822190Y-71613333D01*
X37726952Y-71565714D01*
X37679333Y-71518095D01*
X37631714Y-71422857D01*
X37631714Y-71280000D01*
X37679333Y-71184761D01*
X37726952Y-71137142D01*
X37822190Y-71089523D01*
X38107904Y-71089523D01*
X38203142Y-71137142D01*
X38250761Y-71184761D01*
X38298380Y-71280000D01*
X38298380Y-71422857D01*
X38298380Y-70660952D02*
X37631714Y-70660952D01*
X37822190Y-70660952D02*
X37726952Y-70613333D01*
X37679333Y-70565714D01*
X37631714Y-70470476D01*
X37631714Y-70375238D01*
D12*
X59864761Y-112330666D02*
X59864761Y-111187809D01*
X61864761Y-111759238D02*
X59864761Y-111759238D01*
X61864761Y-109378285D02*
X60912380Y-110044952D01*
X61864761Y-110521142D02*
X59864761Y-110521142D01*
X59864761Y-109759238D01*
X59960000Y-109568761D01*
X60055238Y-109473523D01*
X60245714Y-109378285D01*
X60531428Y-109378285D01*
X60721904Y-109473523D01*
X60817142Y-109568761D01*
X60912380Y-109759238D01*
X60912380Y-110521142D01*
X61864761Y-108521142D02*
X59864761Y-108521142D01*
X61293333Y-107664000D02*
X61293333Y-106711619D01*
X61864761Y-107854476D02*
X59864761Y-107187809D01*
X61864761Y-106521142D01*
X61864761Y-105854476D02*
X59864761Y-105854476D01*
X61864761Y-104711619D01*
X59864761Y-104711619D01*
X59960000Y-102711619D02*
X59864761Y-102902095D01*
X59864761Y-103187809D01*
X59960000Y-103473523D01*
X60150476Y-103664000D01*
X60340952Y-103759238D01*
X60721904Y-103854476D01*
X61007619Y-103854476D01*
X61388571Y-103759238D01*
X61579047Y-103664000D01*
X61769523Y-103473523D01*
X61864761Y-103187809D01*
X61864761Y-102997333D01*
X61769523Y-102711619D01*
X61674285Y-102616380D01*
X61007619Y-102616380D01*
X61007619Y-102997333D01*
X61864761Y-100806857D02*
X61864761Y-101759238D01*
X59864761Y-101759238D01*
X60817142Y-100140190D02*
X60817142Y-99473523D01*
X61864761Y-99187809D02*
X61864761Y-100140190D01*
X59864761Y-100140190D01*
X59864761Y-99187809D01*
X61769523Y-128110571D02*
X61864761Y-127824857D01*
X61864761Y-127348666D01*
X61769523Y-127158190D01*
X61674285Y-127062952D01*
X61483809Y-126967714D01*
X61293333Y-126967714D01*
X61102857Y-127062952D01*
X61007619Y-127158190D01*
X60912380Y-127348666D01*
X60817142Y-127729619D01*
X60721904Y-127920095D01*
X60626666Y-128015333D01*
X60436190Y-128110571D01*
X60245714Y-128110571D01*
X60055238Y-128015333D01*
X59960000Y-127920095D01*
X59864761Y-127729619D01*
X59864761Y-127253428D01*
X59960000Y-126967714D01*
X62055238Y-124777238D02*
X61960000Y-124967714D01*
X61769523Y-125158190D01*
X61483809Y-125443904D01*
X61388571Y-125634380D01*
X61388571Y-125824857D01*
X61864761Y-125729619D02*
X61769523Y-125920095D01*
X61579047Y-126110571D01*
X61198095Y-126205809D01*
X60531428Y-126205809D01*
X60150476Y-126110571D01*
X59960000Y-125920095D01*
X59864761Y-125729619D01*
X59864761Y-125348666D01*
X59960000Y-125158190D01*
X60150476Y-124967714D01*
X60531428Y-124872476D01*
X61198095Y-124872476D01*
X61579047Y-124967714D01*
X61769523Y-125158190D01*
X61864761Y-125348666D01*
X61864761Y-125729619D01*
X59864761Y-124015333D02*
X61483809Y-124015333D01*
X61674285Y-123920095D01*
X61769523Y-123824857D01*
X61864761Y-123634380D01*
X61864761Y-123253428D01*
X61769523Y-123062952D01*
X61674285Y-122967714D01*
X61483809Y-122872476D01*
X59864761Y-122872476D01*
X61293333Y-122015333D02*
X61293333Y-121062952D01*
X61864761Y-122205809D02*
X59864761Y-121539142D01*
X61864761Y-120872476D01*
X61864761Y-119062952D02*
X60912380Y-119729619D01*
X61864761Y-120205809D02*
X59864761Y-120205809D01*
X59864761Y-119443904D01*
X59960000Y-119253428D01*
X60055238Y-119158190D01*
X60245714Y-119062952D01*
X60531428Y-119062952D01*
X60721904Y-119158190D01*
X60817142Y-119253428D01*
X60912380Y-119443904D01*
X60912380Y-120205809D01*
X60817142Y-118205809D02*
X60817142Y-117539142D01*
X61864761Y-117253428D02*
X61864761Y-118205809D01*
X59864761Y-118205809D01*
X59864761Y-117253428D01*
X34230571Y-57220857D02*
X34230571Y-56363714D01*
X35730571Y-56792285D02*
X34230571Y-56792285D01*
X35730571Y-55863714D02*
X34730571Y-55863714D01*
X35016285Y-55863714D02*
X34873428Y-55792285D01*
X34802000Y-55720857D01*
X34730571Y-55578000D01*
X34730571Y-55435142D01*
X35730571Y-54935142D02*
X34730571Y-54935142D01*
X34230571Y-54935142D02*
X34302000Y-55006571D01*
X34373428Y-54935142D01*
X34302000Y-54863714D01*
X34230571Y-54935142D01*
X34373428Y-54935142D01*
X35730571Y-54006571D02*
X35659142Y-54149428D01*
X35516285Y-54220857D01*
X34230571Y-54220857D01*
X35730571Y-53220857D02*
X35659142Y-53363714D01*
X35587714Y-53435142D01*
X35444857Y-53506571D01*
X35016285Y-53506571D01*
X34873428Y-53435142D01*
X34802000Y-53363714D01*
X34730571Y-53220857D01*
X34730571Y-53006571D01*
X34802000Y-52863714D01*
X34873428Y-52792285D01*
X35016285Y-52720857D01*
X35444857Y-52720857D01*
X35587714Y-52792285D01*
X35659142Y-52863714D01*
X35730571Y-53006571D01*
X35730571Y-53220857D01*
X35730571Y-52078000D02*
X34230571Y-52078000D01*
X34802000Y-52078000D02*
X34730571Y-51935142D01*
X34730571Y-51649428D01*
X34802000Y-51506571D01*
X34873428Y-51435142D01*
X35016285Y-51363714D01*
X35444857Y-51363714D01*
X35587714Y-51435142D01*
X35659142Y-51506571D01*
X35730571Y-51649428D01*
X35730571Y-51935142D01*
X35659142Y-52078000D01*
X34730571Y-50863714D02*
X35730571Y-50506571D01*
X34730571Y-50149428D02*
X35730571Y-50506571D01*
X36087714Y-50649428D01*
X36159142Y-50720857D01*
X36230571Y-50863714D01*
X34730571Y-49792285D02*
X34730571Y-49220857D01*
X34230571Y-49578000D02*
X35516285Y-49578000D01*
X35659142Y-49506571D01*
X35730571Y-49363714D01*
X35730571Y-49220857D01*
X35659142Y-48149428D02*
X35730571Y-48292285D01*
X35730571Y-48578000D01*
X35659142Y-48720857D01*
X35516285Y-48792285D01*
X34944857Y-48792285D01*
X34802000Y-48720857D01*
X34730571Y-48578000D01*
X34730571Y-48292285D01*
X34802000Y-48149428D01*
X34944857Y-48078000D01*
X35087714Y-48078000D01*
X35230571Y-48792285D01*
X33155142Y-85351428D02*
X36155142Y-84351428D01*
X33155142Y-83351428D01*
X35869428Y-80637142D02*
X36012285Y-80780000D01*
X36155142Y-81208571D01*
X36155142Y-81494285D01*
X36012285Y-81922857D01*
X35726571Y-82208571D01*
X35440857Y-82351428D01*
X34869428Y-82494285D01*
X34440857Y-82494285D01*
X33869428Y-82351428D01*
X33583714Y-82208571D01*
X33298000Y-81922857D01*
X33155142Y-81494285D01*
X33155142Y-81208571D01*
X33298000Y-80780000D01*
X33440857Y-80637142D01*
X33155142Y-78780000D02*
X33155142Y-78208571D01*
X33298000Y-77922857D01*
X33583714Y-77637142D01*
X34155142Y-77494285D01*
X35155142Y-77494285D01*
X35726571Y-77637142D01*
X36012285Y-77922857D01*
X36155142Y-78208571D01*
X36155142Y-78780000D01*
X36012285Y-79065714D01*
X35726571Y-79351428D01*
X35155142Y-79494285D01*
X34155142Y-79494285D01*
X33583714Y-79351428D01*
X33298000Y-79065714D01*
X33155142Y-78780000D01*
D13*
%TO.C,RV1*%
X40706000Y-66944000D02*
X40706000Y-56024000D01*
X57846000Y-66944000D02*
X57846000Y-56024000D01*
X40706000Y-66944000D02*
X57846000Y-66944000D01*
X57846000Y-56024000D02*
G75*
G03*
X57846000Y-56024000I-8570000J0D01*
G01*
D14*
%TO.C,REF\u002A\u002A*%
X33693480Y-60001348D02*
X33694429Y-60001450D01*
X33694429Y-60001450D02*
X33696106Y-60001720D01*
X33696106Y-60001720D02*
X33700591Y-60002538D01*
X33700591Y-60002538D02*
X33706710Y-60003729D01*
X33706710Y-60003729D02*
X33707778Y-60014845D01*
X33707778Y-60014845D02*
X33709072Y-60025934D01*
X33709072Y-60025934D02*
X33710590Y-60036992D01*
X33710590Y-60036992D02*
X33712332Y-60048016D01*
X33712332Y-60048016D02*
X33714297Y-60059003D01*
X33714297Y-60059003D02*
X33716485Y-60069948D01*
X33716485Y-60069948D02*
X33718894Y-60080849D01*
X33718894Y-60080849D02*
X33721526Y-60091702D01*
X33721526Y-60091702D02*
X33723267Y-60097398D01*
X33723267Y-60097398D02*
X33725083Y-60103070D01*
X33725083Y-60103070D02*
X33726974Y-60108716D01*
X33726974Y-60108716D02*
X33728938Y-60114337D01*
X33728938Y-60114337D02*
X33730977Y-60119932D01*
X33730977Y-60119932D02*
X33733089Y-60125499D01*
X33733089Y-60125499D02*
X33735274Y-60131039D01*
X33735274Y-60131039D02*
X33737533Y-60136550D01*
X33737533Y-60136550D02*
X33738176Y-60138162D01*
X33738176Y-60138162D02*
X33738931Y-60139975D01*
X33738931Y-60139975D02*
X33740874Y-60144504D01*
X33740874Y-60144504D02*
X33743561Y-60150744D01*
X33743561Y-60150744D02*
X33747191Y-60159304D01*
X33747191Y-60159304D02*
X33756980Y-60182323D01*
X33756980Y-60182323D02*
X33759300Y-60187190D01*
X33759300Y-60187190D02*
X33761695Y-60192019D01*
X33761695Y-60192019D02*
X33764165Y-60196810D01*
X33764165Y-60196810D02*
X33766709Y-60201562D01*
X33766709Y-60201562D02*
X33769327Y-60206273D01*
X33769327Y-60206273D02*
X33772018Y-60210944D01*
X33772018Y-60210944D02*
X33774781Y-60215572D01*
X33774781Y-60215572D02*
X33777617Y-60220158D01*
X33777617Y-60220158D02*
X33781281Y-60225081D01*
X33781281Y-60225081D02*
X33785096Y-60229950D01*
X33785096Y-60229950D02*
X33792997Y-60239654D01*
X33792997Y-60239654D02*
X33796989Y-60244556D01*
X33796989Y-60244556D02*
X33800947Y-60249533D01*
X33800947Y-60249533D02*
X33804824Y-60254619D01*
X33804824Y-60254619D02*
X33806718Y-60257212D01*
X33806718Y-60257212D02*
X33808574Y-60259846D01*
X33808574Y-60259846D02*
X33809114Y-60260278D01*
X33809114Y-60260278D02*
X33809646Y-60260719D01*
X33809646Y-60260719D02*
X33810170Y-60261169D01*
X33810170Y-60261169D02*
X33810687Y-60261628D01*
X33810687Y-60261628D02*
X33811196Y-60262096D01*
X33811196Y-60262096D02*
X33811697Y-60262572D01*
X33811697Y-60262572D02*
X33812190Y-60263056D01*
X33812190Y-60263056D02*
X33812675Y-60263549D01*
X33812675Y-60263549D02*
X33813456Y-60264348D01*
X33813456Y-60264348D02*
X33814134Y-60265077D01*
X33814134Y-60265077D02*
X33814745Y-60265766D01*
X33814745Y-60265766D02*
X33815321Y-60266444D01*
X33815321Y-60266444D02*
X33816507Y-60267884D01*
X33816507Y-60267884D02*
X33817186Y-60268706D01*
X33817186Y-60268706D02*
X33817967Y-60269635D01*
X33817967Y-60269635D02*
X33822994Y-60274662D01*
X33822994Y-60274662D02*
X33831196Y-60281938D01*
X33831196Y-60281938D02*
X33836884Y-60286833D01*
X33836884Y-60286833D02*
X33835325Y-60291159D01*
X33835325Y-60291159D02*
X33833652Y-60295439D01*
X33833652Y-60295439D02*
X33831866Y-60299671D01*
X33831866Y-60299671D02*
X33829967Y-60303853D01*
X33829967Y-60303853D02*
X33827958Y-60307983D01*
X33827958Y-60307983D02*
X33825839Y-60312059D01*
X33825839Y-60312059D02*
X33823610Y-60316078D01*
X33823610Y-60316078D02*
X33821274Y-60320038D01*
X33821274Y-60320038D02*
X33820134Y-60322086D01*
X33820134Y-60322086D02*
X33818935Y-60324096D01*
X33818935Y-60324096D02*
X33817678Y-60326066D01*
X33817678Y-60326066D02*
X33816364Y-60327996D01*
X33816364Y-60327996D02*
X33814994Y-60329883D01*
X33814994Y-60329883D02*
X33813569Y-60331728D01*
X33813569Y-60331728D02*
X33812090Y-60333529D01*
X33812090Y-60333529D02*
X33810559Y-60335284D01*
X33810559Y-60335284D02*
X33808976Y-60336993D01*
X33808976Y-60336993D02*
X33807342Y-60338654D01*
X33807342Y-60338654D02*
X33805659Y-60340266D01*
X33805659Y-60340266D02*
X33803927Y-60341828D01*
X33803927Y-60341828D02*
X33802148Y-60343340D01*
X33802148Y-60343340D02*
X33800322Y-60344799D01*
X33800322Y-60344799D02*
X33798451Y-60346204D01*
X33798451Y-60346204D02*
X33796535Y-60347555D01*
X33796535Y-60347555D02*
X33778015Y-60357609D01*
X33778015Y-60357609D02*
X33760420Y-60341734D01*
X33760420Y-60341734D02*
X33754483Y-60335913D01*
X33754483Y-60335913D02*
X33749649Y-60331130D01*
X33749649Y-60331130D02*
X33747519Y-60328998D01*
X33747519Y-60328998D02*
X33745868Y-60327315D01*
X33745868Y-60327315D02*
X33742239Y-60323572D01*
X33742239Y-60323572D02*
X33738677Y-60319768D01*
X33738677Y-60319768D02*
X33735183Y-60315903D01*
X33735183Y-60315903D02*
X33731756Y-60311978D01*
X33731756Y-60311978D02*
X33728399Y-60307994D01*
X33728399Y-60307994D02*
X33725111Y-60303952D01*
X33725111Y-60303952D02*
X33721894Y-60299853D01*
X33721894Y-60299853D02*
X33718748Y-60295697D01*
X33718748Y-60295697D02*
X33715871Y-60292168D01*
X33715871Y-60292168D02*
X33713055Y-60288592D01*
X33713055Y-60288592D02*
X33710299Y-60284971D01*
X33710299Y-60284971D02*
X33707604Y-60281303D01*
X33707604Y-60281303D02*
X33704972Y-60277592D01*
X33704972Y-60277592D02*
X33702401Y-60273836D01*
X33702401Y-60273836D02*
X33699894Y-60270037D01*
X33699894Y-60270037D02*
X33697450Y-60266196D01*
X33697450Y-60266196D02*
X33696121Y-60264048D01*
X33696121Y-60264048D02*
X33694804Y-60261863D01*
X33694804Y-60261863D02*
X33692158Y-60257332D01*
X33692158Y-60257332D02*
X33686469Y-60247278D01*
X33686469Y-60247278D02*
X33682740Y-60240529D01*
X33682740Y-60240529D02*
X33679855Y-60235157D01*
X33679855Y-60235157D02*
X33677763Y-60231149D01*
X33677763Y-60231149D02*
X33676415Y-60228493D01*
X33676415Y-60228493D02*
X33670594Y-60216851D01*
X33670594Y-60216851D02*
X33663725Y-60201875D01*
X33663725Y-60201875D02*
X33657245Y-60186736D01*
X33657245Y-60186736D02*
X33651155Y-60171440D01*
X33651155Y-60171440D02*
X33645460Y-60155997D01*
X33645460Y-60155997D02*
X33640162Y-60140413D01*
X33640162Y-60140413D02*
X33635263Y-60124696D01*
X33635263Y-60124696D02*
X33630766Y-60108854D01*
X33630766Y-60108854D02*
X33626674Y-60092894D01*
X33626674Y-60092894D02*
X33623750Y-60078848D01*
X33623750Y-60078848D02*
X33621146Y-60064865D01*
X33621146Y-60064865D02*
X33618883Y-60051501D01*
X33618883Y-60051501D02*
X33616983Y-60039316D01*
X33616983Y-60039316D02*
X33613444Y-60013519D01*
X33613444Y-60013519D02*
X33615755Y-60012543D01*
X33615755Y-60012543D02*
X33621514Y-60010178D01*
X33621514Y-60010178D02*
X33625136Y-60008739D01*
X33625136Y-60008739D02*
X33628959Y-60007268D01*
X33628959Y-60007268D02*
X33632764Y-60005872D01*
X33632764Y-60005872D02*
X33636331Y-60004655D01*
X33636331Y-60004655D02*
X33639824Y-60003712D01*
X33639824Y-60003712D02*
X33643338Y-60002866D01*
X33643338Y-60002866D02*
X33646869Y-60002119D01*
X33646869Y-60002119D02*
X33650416Y-60001469D01*
X33650416Y-60001469D02*
X33653977Y-60000917D01*
X33653977Y-60000917D02*
X33657550Y-60000463D01*
X33657550Y-60000463D02*
X33661133Y-60000108D01*
X33661133Y-60000108D02*
X33664723Y-59999850D01*
X33664723Y-59999850D02*
X33668319Y-59999692D01*
X33668319Y-59999692D02*
X33671919Y-59999632D01*
X33671919Y-59999632D02*
X33675520Y-59999670D01*
X33675520Y-59999670D02*
X33679121Y-59999808D01*
X33679121Y-59999808D02*
X33682720Y-60000044D01*
X33682720Y-60000044D02*
X33686314Y-60000379D01*
X33686314Y-60000379D02*
X33689902Y-60000814D01*
X33689902Y-60000814D02*
X33693480Y-60001348D01*
X33693480Y-60001348D02*
X33693480Y-60001348D01*
G36*
X33675520Y-59999670D02*
G01*
X33679121Y-59999808D01*
X33682720Y-60000044D01*
X33686314Y-60000379D01*
X33689902Y-60000814D01*
X33693480Y-60001348D01*
X33694429Y-60001450D01*
X33696106Y-60001720D01*
X33700591Y-60002538D01*
X33706710Y-60003729D01*
X33707778Y-60014845D01*
X33709072Y-60025934D01*
X33710590Y-60036992D01*
X33712332Y-60048016D01*
X33714297Y-60059003D01*
X33716485Y-60069948D01*
X33718894Y-60080849D01*
X33721526Y-60091702D01*
X33723267Y-60097398D01*
X33725083Y-60103070D01*
X33726974Y-60108716D01*
X33728938Y-60114337D01*
X33730977Y-60119932D01*
X33733089Y-60125499D01*
X33735274Y-60131039D01*
X33737533Y-60136550D01*
X33738176Y-60138162D01*
X33738931Y-60139975D01*
X33740874Y-60144504D01*
X33743561Y-60150744D01*
X33747191Y-60159304D01*
X33756980Y-60182323D01*
X33759300Y-60187190D01*
X33761695Y-60192019D01*
X33764165Y-60196810D01*
X33766709Y-60201562D01*
X33769327Y-60206273D01*
X33772018Y-60210944D01*
X33774781Y-60215572D01*
X33777617Y-60220158D01*
X33781281Y-60225081D01*
X33785096Y-60229950D01*
X33792997Y-60239654D01*
X33796989Y-60244556D01*
X33800947Y-60249533D01*
X33804824Y-60254619D01*
X33806718Y-60257212D01*
X33808574Y-60259846D01*
X33809114Y-60260278D01*
X33809646Y-60260719D01*
X33810170Y-60261169D01*
X33810687Y-60261628D01*
X33811196Y-60262096D01*
X33811697Y-60262572D01*
X33812190Y-60263056D01*
X33812675Y-60263549D01*
X33813456Y-60264348D01*
X33814134Y-60265077D01*
X33814745Y-60265766D01*
X33815321Y-60266444D01*
X33816507Y-60267884D01*
X33817186Y-60268706D01*
X33817967Y-60269635D01*
X33822994Y-60274662D01*
X33831196Y-60281938D01*
X33836884Y-60286833D01*
X33835325Y-60291159D01*
X33833652Y-60295439D01*
X33831866Y-60299671D01*
X33829967Y-60303853D01*
X33827958Y-60307983D01*
X33825839Y-60312059D01*
X33823610Y-60316078D01*
X33821274Y-60320038D01*
X33820134Y-60322086D01*
X33818935Y-60324096D01*
X33817678Y-60326066D01*
X33816364Y-60327996D01*
X33814994Y-60329883D01*
X33813569Y-60331728D01*
X33812090Y-60333529D01*
X33810559Y-60335284D01*
X33808976Y-60336993D01*
X33807342Y-60338654D01*
X33805659Y-60340266D01*
X33803927Y-60341828D01*
X33802148Y-60343340D01*
X33800322Y-60344799D01*
X33798451Y-60346204D01*
X33796535Y-60347555D01*
X33778015Y-60357609D01*
X33760420Y-60341734D01*
X33754483Y-60335913D01*
X33749649Y-60331130D01*
X33747519Y-60328998D01*
X33745868Y-60327315D01*
X33742239Y-60323572D01*
X33738677Y-60319768D01*
X33735183Y-60315903D01*
X33731756Y-60311978D01*
X33728399Y-60307994D01*
X33725111Y-60303952D01*
X33721894Y-60299853D01*
X33718748Y-60295697D01*
X33715871Y-60292168D01*
X33713055Y-60288592D01*
X33710299Y-60284971D01*
X33707604Y-60281303D01*
X33704972Y-60277592D01*
X33702401Y-60273836D01*
X33699894Y-60270037D01*
X33697450Y-60266196D01*
X33696121Y-60264048D01*
X33694804Y-60261863D01*
X33692158Y-60257332D01*
X33686469Y-60247278D01*
X33682740Y-60240529D01*
X33679855Y-60235157D01*
X33677763Y-60231149D01*
X33676415Y-60228493D01*
X33670594Y-60216851D01*
X33663725Y-60201875D01*
X33657245Y-60186736D01*
X33651155Y-60171440D01*
X33645460Y-60155997D01*
X33640162Y-60140413D01*
X33635263Y-60124696D01*
X33630766Y-60108854D01*
X33626674Y-60092894D01*
X33623750Y-60078848D01*
X33621146Y-60064865D01*
X33618883Y-60051501D01*
X33616983Y-60039316D01*
X33613444Y-60013519D01*
X33615755Y-60012543D01*
X33621514Y-60010178D01*
X33625136Y-60008739D01*
X33628959Y-60007268D01*
X33632764Y-60005872D01*
X33636331Y-60004655D01*
X33639824Y-60003712D01*
X33643338Y-60002866D01*
X33646869Y-60002119D01*
X33650416Y-60001469D01*
X33653977Y-60000917D01*
X33657550Y-60000463D01*
X33661133Y-60000108D01*
X33664723Y-59999850D01*
X33668319Y-59999692D01*
X33671919Y-59999632D01*
X33675520Y-59999670D01*
G37*
X33675520Y-59999670D02*
X33679121Y-59999808D01*
X33682720Y-60000044D01*
X33686314Y-60000379D01*
X33689902Y-60000814D01*
X33693480Y-60001348D01*
X33694429Y-60001450D01*
X33696106Y-60001720D01*
X33700591Y-60002538D01*
X33706710Y-60003729D01*
X33707778Y-60014845D01*
X33709072Y-60025934D01*
X33710590Y-60036992D01*
X33712332Y-60048016D01*
X33714297Y-60059003D01*
X33716485Y-60069948D01*
X33718894Y-60080849D01*
X33721526Y-60091702D01*
X33723267Y-60097398D01*
X33725083Y-60103070D01*
X33726974Y-60108716D01*
X33728938Y-60114337D01*
X33730977Y-60119932D01*
X33733089Y-60125499D01*
X33735274Y-60131039D01*
X33737533Y-60136550D01*
X33738176Y-60138162D01*
X33738931Y-60139975D01*
X33740874Y-60144504D01*
X33743561Y-60150744D01*
X33747191Y-60159304D01*
X33756980Y-60182323D01*
X33759300Y-60187190D01*
X33761695Y-60192019D01*
X33764165Y-60196810D01*
X33766709Y-60201562D01*
X33769327Y-60206273D01*
X33772018Y-60210944D01*
X33774781Y-60215572D01*
X33777617Y-60220158D01*
X33781281Y-60225081D01*
X33785096Y-60229950D01*
X33792997Y-60239654D01*
X33796989Y-60244556D01*
X33800947Y-60249533D01*
X33804824Y-60254619D01*
X33806718Y-60257212D01*
X33808574Y-60259846D01*
X33809114Y-60260278D01*
X33809646Y-60260719D01*
X33810170Y-60261169D01*
X33810687Y-60261628D01*
X33811196Y-60262096D01*
X33811697Y-60262572D01*
X33812190Y-60263056D01*
X33812675Y-60263549D01*
X33813456Y-60264348D01*
X33814134Y-60265077D01*
X33814745Y-60265766D01*
X33815321Y-60266444D01*
X33816507Y-60267884D01*
X33817186Y-60268706D01*
X33817967Y-60269635D01*
X33822994Y-60274662D01*
X33831196Y-60281938D01*
X33836884Y-60286833D01*
X33835325Y-60291159D01*
X33833652Y-60295439D01*
X33831866Y-60299671D01*
X33829967Y-60303853D01*
X33827958Y-60307983D01*
X33825839Y-60312059D01*
X33823610Y-60316078D01*
X33821274Y-60320038D01*
X33820134Y-60322086D01*
X33818935Y-60324096D01*
X33817678Y-60326066D01*
X33816364Y-60327996D01*
X33814994Y-60329883D01*
X33813569Y-60331728D01*
X33812090Y-60333529D01*
X33810559Y-60335284D01*
X33808976Y-60336993D01*
X33807342Y-60338654D01*
X33805659Y-60340266D01*
X33803927Y-60341828D01*
X33802148Y-60343340D01*
X33800322Y-60344799D01*
X33798451Y-60346204D01*
X33796535Y-60347555D01*
X33778015Y-60357609D01*
X33760420Y-60341734D01*
X33754483Y-60335913D01*
X33749649Y-60331130D01*
X33747519Y-60328998D01*
X33745868Y-60327315D01*
X33742239Y-60323572D01*
X33738677Y-60319768D01*
X33735183Y-60315903D01*
X33731756Y-60311978D01*
X33728399Y-60307994D01*
X33725111Y-60303952D01*
X33721894Y-60299853D01*
X33718748Y-60295697D01*
X33715871Y-60292168D01*
X33713055Y-60288592D01*
X33710299Y-60284971D01*
X33707604Y-60281303D01*
X33704972Y-60277592D01*
X33702401Y-60273836D01*
X33699894Y-60270037D01*
X33697450Y-60266196D01*
X33696121Y-60264048D01*
X33694804Y-60261863D01*
X33692158Y-60257332D01*
X33686469Y-60247278D01*
X33682740Y-60240529D01*
X33679855Y-60235157D01*
X33677763Y-60231149D01*
X33676415Y-60228493D01*
X33670594Y-60216851D01*
X33663725Y-60201875D01*
X33657245Y-60186736D01*
X33651155Y-60171440D01*
X33645460Y-60155997D01*
X33640162Y-60140413D01*
X33635263Y-60124696D01*
X33630766Y-60108854D01*
X33626674Y-60092894D01*
X33623750Y-60078848D01*
X33621146Y-60064865D01*
X33618883Y-60051501D01*
X33616983Y-60039316D01*
X33613444Y-60013519D01*
X33615755Y-60012543D01*
X33621514Y-60010178D01*
X33625136Y-60008739D01*
X33628959Y-60007268D01*
X33632764Y-60005872D01*
X33636331Y-60004655D01*
X33639824Y-60003712D01*
X33643338Y-60002866D01*
X33646869Y-60002119D01*
X33650416Y-60001469D01*
X33653977Y-60000917D01*
X33657550Y-60000463D01*
X33661133Y-60000108D01*
X33664723Y-59999850D01*
X33668319Y-59999692D01*
X33671919Y-59999632D01*
X33675520Y-59999670D01*
X35542521Y-59087477D02*
X35903148Y-59152961D01*
X35903148Y-59152961D02*
X35903148Y-58867608D01*
X35903148Y-58867608D02*
X36175140Y-58680416D01*
X36175140Y-58680416D02*
X36175140Y-58462531D01*
X36175140Y-58462531D02*
X35812528Y-58400751D01*
X35812528Y-58400751D02*
X35814513Y-58651444D01*
X35814513Y-58651444D02*
X35542521Y-58846309D01*
X35542521Y-58846309D02*
X35542521Y-59087477D01*
X35542521Y-59087477D02*
X35542521Y-59087477D01*
G36*
X36175140Y-58462531D02*
G01*
X36175140Y-58680416D01*
X35903148Y-58867608D01*
X35903148Y-59152961D01*
X35542521Y-59087477D01*
X35542521Y-58846309D01*
X35814513Y-58651444D01*
X35812528Y-58400751D01*
X36175140Y-58462531D01*
G37*
X36175140Y-58462531D02*
X36175140Y-58680416D01*
X35903148Y-58867608D01*
X35903148Y-59152961D01*
X35542521Y-59087477D01*
X35542521Y-58846309D01*
X35814513Y-58651444D01*
X35812528Y-58400751D01*
X36175140Y-58462531D01*
X35015603Y-58987994D02*
X35376362Y-59053478D01*
X35376362Y-59053478D02*
X35376362Y-58767993D01*
X35376362Y-58767993D02*
X35648354Y-58580932D01*
X35648354Y-58580932D02*
X35648354Y-58362916D01*
X35648354Y-58362916D02*
X35285743Y-58301268D01*
X35285743Y-58301268D02*
X35287595Y-58551960D01*
X35287595Y-58551960D02*
X35015603Y-58746826D01*
X35015603Y-58746826D02*
X35015603Y-58987994D01*
X35015603Y-58987994D02*
X35015603Y-58987994D01*
G36*
X35648354Y-58362916D02*
G01*
X35648354Y-58580932D01*
X35376362Y-58767993D01*
X35376362Y-59053478D01*
X35015603Y-58987994D01*
X35015603Y-58746826D01*
X35287595Y-58551960D01*
X35285743Y-58301268D01*
X35648354Y-58362916D01*
G37*
X35648354Y-58362916D02*
X35648354Y-58580932D01*
X35376362Y-58767993D01*
X35376362Y-59053478D01*
X35015603Y-58987994D01*
X35015603Y-58746826D01*
X35287595Y-58551960D01*
X35285743Y-58301268D01*
X35648354Y-58362916D01*
X36056077Y-60213279D02*
X36416837Y-60147662D01*
X36416837Y-60147662D02*
X36416837Y-60433148D01*
X36416837Y-60433148D02*
X36688828Y-60620208D01*
X36688828Y-60620208D02*
X36688828Y-60838225D01*
X36688828Y-60838225D02*
X36326085Y-60899873D01*
X36326085Y-60899873D02*
X36328069Y-60649180D01*
X36328069Y-60649180D02*
X36056077Y-60454314D01*
X36056077Y-60454314D02*
X36056077Y-60213279D01*
X36056077Y-60213279D02*
X36056077Y-60213279D01*
G36*
X36416837Y-60433148D02*
G01*
X36688828Y-60620208D01*
X36688828Y-60838225D01*
X36326085Y-60899873D01*
X36328069Y-60649180D01*
X36056077Y-60454314D01*
X36056077Y-60213279D01*
X36416837Y-60147662D01*
X36416837Y-60433148D01*
G37*
X36416837Y-60433148D02*
X36688828Y-60620208D01*
X36688828Y-60838225D01*
X36326085Y-60899873D01*
X36328069Y-60649180D01*
X36056077Y-60454314D01*
X36056077Y-60213279D01*
X36416837Y-60147662D01*
X36416837Y-60433148D01*
X34457465Y-60343983D02*
X34457465Y-59874877D01*
X34457465Y-59874877D02*
X34463428Y-59874098D01*
X34463428Y-59874098D02*
X34469363Y-59873147D01*
X34469363Y-59873147D02*
X34475265Y-59872026D01*
X34475265Y-59872026D02*
X34481132Y-59870736D01*
X34481132Y-59870736D02*
X34486958Y-59869277D01*
X34486958Y-59869277D02*
X34492742Y-59867650D01*
X34492742Y-59867650D02*
X34498478Y-59865856D01*
X34498478Y-59865856D02*
X34504164Y-59863897D01*
X34504164Y-59863897D02*
X34506570Y-59862846D01*
X34506570Y-59862846D02*
X34508954Y-59861749D01*
X34508954Y-59861749D02*
X34511315Y-59860607D01*
X34511315Y-59860607D02*
X34513652Y-59859420D01*
X34513652Y-59859420D02*
X34515964Y-59858188D01*
X34515964Y-59858188D02*
X34518252Y-59856912D01*
X34518252Y-59856912D02*
X34520514Y-59855592D01*
X34520514Y-59855592D02*
X34522750Y-59854229D01*
X34522750Y-59854229D02*
X34524959Y-59852823D01*
X34524959Y-59852823D02*
X34527141Y-59851373D01*
X34527141Y-59851373D02*
X34529294Y-59849882D01*
X34529294Y-59849882D02*
X34531419Y-59848349D01*
X34531419Y-59848349D02*
X34533514Y-59846774D01*
X34533514Y-59846774D02*
X34535580Y-59845158D01*
X34535580Y-59845158D02*
X34537614Y-59843501D01*
X34537614Y-59843501D02*
X34539618Y-59841804D01*
X34539618Y-59841804D02*
X34542536Y-59839515D01*
X34542536Y-59839515D02*
X34545410Y-59837175D01*
X34545410Y-59837175D02*
X34548239Y-59834784D01*
X34548239Y-59834784D02*
X34551023Y-59832342D01*
X34551023Y-59832342D02*
X34553760Y-59829850D01*
X34553760Y-59829850D02*
X34556450Y-59827309D01*
X34556450Y-59827309D02*
X34559093Y-59824719D01*
X34559093Y-59824719D02*
X34561687Y-59822081D01*
X34561687Y-59822081D02*
X34564233Y-59819397D01*
X34564233Y-59819397D02*
X34566729Y-59816665D01*
X34566729Y-59816665D02*
X34569175Y-59813888D01*
X34569175Y-59813888D02*
X34571570Y-59811066D01*
X34571570Y-59811066D02*
X34573913Y-59808199D01*
X34573913Y-59808199D02*
X34576205Y-59805289D01*
X34576205Y-59805289D02*
X34578443Y-59802335D01*
X34578443Y-59802335D02*
X34580629Y-59799339D01*
X34580629Y-59799339D02*
X34583268Y-59795465D01*
X34583268Y-59795465D02*
X34585813Y-59791534D01*
X34585813Y-59791534D02*
X34588262Y-59787548D01*
X34588262Y-59787548D02*
X34590616Y-59783508D01*
X34590616Y-59783508D02*
X34592872Y-59779415D01*
X34592872Y-59779415D02*
X34595030Y-59775273D01*
X34595030Y-59775273D02*
X34597090Y-59771082D01*
X34597090Y-59771082D02*
X34599050Y-59766844D01*
X34599050Y-59766844D02*
X34600910Y-59762561D01*
X34600910Y-59762561D02*
X34602669Y-59758235D01*
X34602669Y-59758235D02*
X34604326Y-59753868D01*
X34604326Y-59753868D02*
X34605880Y-59749461D01*
X34605880Y-59749461D02*
X34607331Y-59745016D01*
X34607331Y-59745016D02*
X34608678Y-59740535D01*
X34608678Y-59740535D02*
X34609919Y-59736020D01*
X34609919Y-59736020D02*
X34611055Y-59731473D01*
X34611055Y-59731473D02*
X34612110Y-59727056D01*
X34612110Y-59727056D02*
X34613058Y-59722616D01*
X34613058Y-59722616D02*
X34613898Y-59718156D01*
X34613898Y-59718156D02*
X34614631Y-59713678D01*
X34614631Y-59713678D02*
X34615256Y-59709184D01*
X34615256Y-59709184D02*
X34615772Y-59704675D01*
X34615772Y-59704675D02*
X34616180Y-59700154D01*
X34616180Y-59700154D02*
X34616480Y-59695622D01*
X34616480Y-59695622D02*
X34616631Y-59691412D01*
X34616631Y-59691412D02*
X34616683Y-59687201D01*
X34616683Y-59687201D02*
X34616634Y-59682990D01*
X34616634Y-59682990D02*
X34616486Y-59678783D01*
X34616486Y-59678783D02*
X34616237Y-59674581D01*
X34616237Y-59674581D02*
X34615888Y-59670385D01*
X34615888Y-59670385D02*
X34615440Y-59666198D01*
X34615440Y-59666198D02*
X34614892Y-59662020D01*
X34614892Y-59662020D02*
X34614151Y-59657989D01*
X34614151Y-59657989D02*
X34613319Y-59653979D01*
X34613319Y-59653979D02*
X34612399Y-59649992D01*
X34612399Y-59649992D02*
X34611389Y-59646030D01*
X34611389Y-59646030D02*
X34610291Y-59642093D01*
X34610291Y-59642093D02*
X34609106Y-59638183D01*
X34609106Y-59638183D02*
X34607833Y-59634302D01*
X34607833Y-59634302D02*
X34606473Y-59630451D01*
X34606473Y-59630451D02*
X34605027Y-59626631D01*
X34605027Y-59626631D02*
X34603495Y-59622845D01*
X34603495Y-59622845D02*
X34601878Y-59619093D01*
X34601878Y-59619093D02*
X34600176Y-59615377D01*
X34600176Y-59615377D02*
X34598391Y-59611698D01*
X34598391Y-59611698D02*
X34596522Y-59608058D01*
X34596522Y-59608058D02*
X34594569Y-59604459D01*
X34594569Y-59604459D02*
X34592534Y-59600901D01*
X34592534Y-59600901D02*
X34590423Y-59597184D01*
X34590423Y-59597184D02*
X34588234Y-59593515D01*
X34588234Y-59593515D02*
X34585968Y-59589898D01*
X34585968Y-59589898D02*
X34583626Y-59586331D01*
X34583626Y-59586331D02*
X34581209Y-59582818D01*
X34581209Y-59582818D02*
X34578717Y-59579359D01*
X34578717Y-59579359D02*
X34576153Y-59575954D01*
X34576153Y-59575954D02*
X34573517Y-59572606D01*
X34573517Y-59572606D02*
X34570809Y-59569316D01*
X34570809Y-59569316D02*
X34568031Y-59566083D01*
X34568031Y-59566083D02*
X34565183Y-59562911D01*
X34565183Y-59562911D02*
X34562267Y-59559799D01*
X34562267Y-59559799D02*
X34559284Y-59556750D01*
X34559284Y-59556750D02*
X34556233Y-59553763D01*
X34556233Y-59553763D02*
X34553117Y-59550841D01*
X34553117Y-59550841D02*
X34549937Y-59547984D01*
X34549937Y-59547984D02*
X34547168Y-59545440D01*
X34547168Y-59545440D02*
X34544340Y-59542970D01*
X34544340Y-59542970D02*
X34541453Y-59540574D01*
X34541453Y-59540574D02*
X34538508Y-59538253D01*
X34538508Y-59538253D02*
X34535508Y-59536009D01*
X34535508Y-59536009D02*
X34532454Y-59533842D01*
X34532454Y-59533842D02*
X34529347Y-59531753D01*
X34529347Y-59531753D02*
X34526190Y-59529744D01*
X34526190Y-59529744D02*
X34522982Y-59527815D01*
X34522982Y-59527815D02*
X34519727Y-59525966D01*
X34519727Y-59525966D02*
X34516425Y-59524200D01*
X34516425Y-59524200D02*
X34513078Y-59522517D01*
X34513078Y-59522517D02*
X34509687Y-59520917D01*
X34509687Y-59520917D02*
X34506254Y-59519402D01*
X34506254Y-59519402D02*
X34502781Y-59517974D01*
X34502781Y-59517974D02*
X34499269Y-59516631D01*
X34499269Y-59516631D02*
X34494109Y-59515035D01*
X34494109Y-59515035D02*
X34488928Y-59513507D01*
X34488928Y-59513507D02*
X34483728Y-59512048D01*
X34483728Y-59512048D02*
X34478510Y-59510657D01*
X34478510Y-59510657D02*
X34473274Y-59509335D01*
X34473274Y-59509335D02*
X34468021Y-59508082D01*
X34468021Y-59508082D02*
X34462751Y-59506898D01*
X34462751Y-59506898D02*
X34457465Y-59505783D01*
X34457465Y-59505783D02*
X34457465Y-59065517D01*
X34457465Y-59065517D02*
X35111250Y-59140526D01*
X35111250Y-59140526D02*
X35111250Y-60255877D01*
X35111250Y-60255877D02*
X34457465Y-60343983D01*
X34457465Y-60343983D02*
X34457465Y-60343983D01*
G36*
X35111250Y-59140526D02*
G01*
X35111250Y-60255877D01*
X34457465Y-60343983D01*
X34457465Y-59874877D01*
X34463428Y-59874098D01*
X34469363Y-59873147D01*
X34475265Y-59872026D01*
X34481132Y-59870736D01*
X34486958Y-59869277D01*
X34492742Y-59867650D01*
X34498478Y-59865856D01*
X34504164Y-59863897D01*
X34506570Y-59862846D01*
X34508954Y-59861749D01*
X34511315Y-59860607D01*
X34513652Y-59859420D01*
X34515964Y-59858188D01*
X34518252Y-59856912D01*
X34520514Y-59855592D01*
X34522750Y-59854229D01*
X34524959Y-59852823D01*
X34527141Y-59851373D01*
X34529294Y-59849882D01*
X34531419Y-59848349D01*
X34533514Y-59846774D01*
X34535580Y-59845158D01*
X34537614Y-59843501D01*
X34539618Y-59841804D01*
X34542536Y-59839515D01*
X34545410Y-59837175D01*
X34548239Y-59834784D01*
X34551023Y-59832342D01*
X34553760Y-59829850D01*
X34556450Y-59827309D01*
X34559093Y-59824719D01*
X34561687Y-59822081D01*
X34564233Y-59819397D01*
X34566729Y-59816665D01*
X34569175Y-59813888D01*
X34571570Y-59811066D01*
X34573913Y-59808199D01*
X34576205Y-59805289D01*
X34578443Y-59802335D01*
X34580629Y-59799339D01*
X34583268Y-59795465D01*
X34585813Y-59791534D01*
X34588262Y-59787548D01*
X34590616Y-59783508D01*
X34592872Y-59779415D01*
X34595030Y-59775273D01*
X34597090Y-59771082D01*
X34599050Y-59766844D01*
X34600910Y-59762561D01*
X34602669Y-59758235D01*
X34604326Y-59753868D01*
X34605880Y-59749461D01*
X34607331Y-59745016D01*
X34608678Y-59740535D01*
X34609919Y-59736020D01*
X34611055Y-59731473D01*
X34612110Y-59727056D01*
X34613058Y-59722616D01*
X34613898Y-59718156D01*
X34614631Y-59713678D01*
X34615256Y-59709184D01*
X34615772Y-59704675D01*
X34616180Y-59700154D01*
X34616480Y-59695622D01*
X34616631Y-59691412D01*
X34616683Y-59687201D01*
X34616634Y-59682990D01*
X34616486Y-59678783D01*
X34616237Y-59674581D01*
X34615888Y-59670385D01*
X34615440Y-59666198D01*
X34614892Y-59662020D01*
X34614151Y-59657989D01*
X34613319Y-59653979D01*
X34612399Y-59649992D01*
X34611389Y-59646030D01*
X34610291Y-59642093D01*
X34609106Y-59638183D01*
X34607833Y-59634302D01*
X34606473Y-59630451D01*
X34605027Y-59626631D01*
X34603495Y-59622845D01*
X34601878Y-59619093D01*
X34600176Y-59615377D01*
X34598391Y-59611698D01*
X34596522Y-59608058D01*
X34594569Y-59604459D01*
X34592534Y-59600901D01*
X34590423Y-59597184D01*
X34588234Y-59593515D01*
X34585968Y-59589898D01*
X34583626Y-59586331D01*
X34581209Y-59582818D01*
X34578717Y-59579359D01*
X34576153Y-59575954D01*
X34573517Y-59572606D01*
X34570809Y-59569316D01*
X34568031Y-59566083D01*
X34565183Y-59562911D01*
X34562267Y-59559799D01*
X34559284Y-59556750D01*
X34556233Y-59553763D01*
X34553117Y-59550841D01*
X34549937Y-59547984D01*
X34547168Y-59545440D01*
X34544340Y-59542970D01*
X34541453Y-59540574D01*
X34538508Y-59538253D01*
X34535508Y-59536009D01*
X34532454Y-59533842D01*
X34529347Y-59531753D01*
X34526190Y-59529744D01*
X34522982Y-59527815D01*
X34519727Y-59525966D01*
X34516425Y-59524200D01*
X34513078Y-59522517D01*
X34509687Y-59520917D01*
X34506254Y-59519402D01*
X34502781Y-59517974D01*
X34499269Y-59516631D01*
X34494109Y-59515035D01*
X34488928Y-59513507D01*
X34483728Y-59512048D01*
X34478510Y-59510657D01*
X34473274Y-59509335D01*
X34468021Y-59508082D01*
X34462751Y-59506898D01*
X34457465Y-59505783D01*
X34457465Y-59065517D01*
X35111250Y-59140526D01*
G37*
X35111250Y-59140526D02*
X35111250Y-60255877D01*
X34457465Y-60343983D01*
X34457465Y-59874877D01*
X34463428Y-59874098D01*
X34469363Y-59873147D01*
X34475265Y-59872026D01*
X34481132Y-59870736D01*
X34486958Y-59869277D01*
X34492742Y-59867650D01*
X34498478Y-59865856D01*
X34504164Y-59863897D01*
X34506570Y-59862846D01*
X34508954Y-59861749D01*
X34511315Y-59860607D01*
X34513652Y-59859420D01*
X34515964Y-59858188D01*
X34518252Y-59856912D01*
X34520514Y-59855592D01*
X34522750Y-59854229D01*
X34524959Y-59852823D01*
X34527141Y-59851373D01*
X34529294Y-59849882D01*
X34531419Y-59848349D01*
X34533514Y-59846774D01*
X34535580Y-59845158D01*
X34537614Y-59843501D01*
X34539618Y-59841804D01*
X34542536Y-59839515D01*
X34545410Y-59837175D01*
X34548239Y-59834784D01*
X34551023Y-59832342D01*
X34553760Y-59829850D01*
X34556450Y-59827309D01*
X34559093Y-59824719D01*
X34561687Y-59822081D01*
X34564233Y-59819397D01*
X34566729Y-59816665D01*
X34569175Y-59813888D01*
X34571570Y-59811066D01*
X34573913Y-59808199D01*
X34576205Y-59805289D01*
X34578443Y-59802335D01*
X34580629Y-59799339D01*
X34583268Y-59795465D01*
X34585813Y-59791534D01*
X34588262Y-59787548D01*
X34590616Y-59783508D01*
X34592872Y-59779415D01*
X34595030Y-59775273D01*
X34597090Y-59771082D01*
X34599050Y-59766844D01*
X34600910Y-59762561D01*
X34602669Y-59758235D01*
X34604326Y-59753868D01*
X34605880Y-59749461D01*
X34607331Y-59745016D01*
X34608678Y-59740535D01*
X34609919Y-59736020D01*
X34611055Y-59731473D01*
X34612110Y-59727056D01*
X34613058Y-59722616D01*
X34613898Y-59718156D01*
X34614631Y-59713678D01*
X34615256Y-59709184D01*
X34615772Y-59704675D01*
X34616180Y-59700154D01*
X34616480Y-59695622D01*
X34616631Y-59691412D01*
X34616683Y-59687201D01*
X34616634Y-59682990D01*
X34616486Y-59678783D01*
X34616237Y-59674581D01*
X34615888Y-59670385D01*
X34615440Y-59666198D01*
X34614892Y-59662020D01*
X34614151Y-59657989D01*
X34613319Y-59653979D01*
X34612399Y-59649992D01*
X34611389Y-59646030D01*
X34610291Y-59642093D01*
X34609106Y-59638183D01*
X34607833Y-59634302D01*
X34606473Y-59630451D01*
X34605027Y-59626631D01*
X34603495Y-59622845D01*
X34601878Y-59619093D01*
X34600176Y-59615377D01*
X34598391Y-59611698D01*
X34596522Y-59608058D01*
X34594569Y-59604459D01*
X34592534Y-59600901D01*
X34590423Y-59597184D01*
X34588234Y-59593515D01*
X34585968Y-59589898D01*
X34583626Y-59586331D01*
X34581209Y-59582818D01*
X34578717Y-59579359D01*
X34576153Y-59575954D01*
X34573517Y-59572606D01*
X34570809Y-59569316D01*
X34568031Y-59566083D01*
X34565183Y-59562911D01*
X34562267Y-59559799D01*
X34559284Y-59556750D01*
X34556233Y-59553763D01*
X34553117Y-59550841D01*
X34549937Y-59547984D01*
X34547168Y-59545440D01*
X34544340Y-59542970D01*
X34541453Y-59540574D01*
X34538508Y-59538253D01*
X34535508Y-59536009D01*
X34532454Y-59533842D01*
X34529347Y-59531753D01*
X34526190Y-59529744D01*
X34522982Y-59527815D01*
X34519727Y-59525966D01*
X34516425Y-59524200D01*
X34513078Y-59522517D01*
X34509687Y-59520917D01*
X34506254Y-59519402D01*
X34502781Y-59517974D01*
X34499269Y-59516631D01*
X34494109Y-59515035D01*
X34488928Y-59513507D01*
X34483728Y-59512048D01*
X34478510Y-59510657D01*
X34473274Y-59509335D01*
X34468021Y-59508082D01*
X34462751Y-59506898D01*
X34457465Y-59505783D01*
X34457465Y-59065517D01*
X35111250Y-59140526D01*
X35015603Y-60420448D02*
X35376362Y-60354963D01*
X35376362Y-60354963D02*
X35376362Y-60640449D01*
X35376362Y-60640449D02*
X35648354Y-60827509D01*
X35648354Y-60827509D02*
X35648354Y-61045394D01*
X35648354Y-61045394D02*
X35285743Y-61107174D01*
X35285743Y-61107174D02*
X35287595Y-60856481D01*
X35287595Y-60856481D02*
X35015603Y-60661616D01*
X35015603Y-60661616D02*
X35015603Y-60420448D01*
X35015603Y-60420448D02*
X35015603Y-60420448D01*
G36*
X35376362Y-60640449D02*
G01*
X35648354Y-60827509D01*
X35648354Y-61045394D01*
X35285743Y-61107174D01*
X35287595Y-60856481D01*
X35015603Y-60661616D01*
X35015603Y-60420448D01*
X35376362Y-60354963D01*
X35376362Y-60640449D01*
G37*
X35376362Y-60640449D02*
X35648354Y-60827509D01*
X35648354Y-61045394D01*
X35285743Y-61107174D01*
X35287595Y-60856481D01*
X35015603Y-60661616D01*
X35015603Y-60420448D01*
X35376362Y-60354963D01*
X35376362Y-60640449D01*
X35542521Y-60320965D02*
X35903148Y-60255480D01*
X35903148Y-60255480D02*
X35903148Y-60540833D01*
X35903148Y-60540833D02*
X36175140Y-60728026D01*
X36175140Y-60728026D02*
X36175140Y-60945910D01*
X36175140Y-60945910D02*
X35812528Y-61007691D01*
X35812528Y-61007691D02*
X35814513Y-60756866D01*
X35814513Y-60756866D02*
X35542521Y-60562132D01*
X35542521Y-60562132D02*
X35542521Y-60320965D01*
X35542521Y-60320965D02*
X35542521Y-60320965D01*
G36*
X35903148Y-60540833D02*
G01*
X36175140Y-60728026D01*
X36175140Y-60945910D01*
X35812528Y-61007691D01*
X35814513Y-60756866D01*
X35542521Y-60562132D01*
X35542521Y-60320965D01*
X35903148Y-60255480D01*
X35903148Y-60540833D01*
G37*
X35903148Y-60540833D02*
X36175140Y-60728026D01*
X36175140Y-60945910D01*
X35812528Y-61007691D01*
X35814513Y-60756866D01*
X35542521Y-60562132D01*
X35542521Y-60320965D01*
X35903148Y-60255480D01*
X35903148Y-60540833D01*
X33353094Y-59703030D02*
X33354906Y-59769113D01*
X33354906Y-59769113D02*
X33360209Y-59834370D01*
X33360209Y-59834370D02*
X33368804Y-59898703D01*
X33368804Y-59898703D02*
X33380492Y-59962016D01*
X33380492Y-59962016D02*
X33395073Y-60024210D01*
X33395073Y-60024210D02*
X33412348Y-60085190D01*
X33412348Y-60085190D02*
X33432118Y-60144857D01*
X33432118Y-60144857D02*
X33454183Y-60203115D01*
X33454183Y-60203115D02*
X33504403Y-60315016D01*
X33504403Y-60315016D02*
X33561414Y-60420114D01*
X33561414Y-60420114D02*
X33623621Y-60517634D01*
X33623621Y-60517634D02*
X33689429Y-60606797D01*
X33689429Y-60606797D02*
X33757245Y-60686828D01*
X33757245Y-60686828D02*
X33825475Y-60756949D01*
X33825475Y-60756949D02*
X33892523Y-60816383D01*
X33892523Y-60816383D02*
X33956797Y-60864355D01*
X33956797Y-60864355D02*
X34016701Y-60900085D01*
X34016701Y-60900085D02*
X34070641Y-60922799D01*
X34070641Y-60922799D02*
X34094876Y-60929031D01*
X34094876Y-60929031D02*
X34117023Y-60931718D01*
X34117023Y-60931718D02*
X34136881Y-60930762D01*
X34136881Y-60930762D02*
X34154253Y-60926067D01*
X34154253Y-60926067D02*
X34166530Y-60919423D01*
X34166530Y-60919423D02*
X34177428Y-60910251D01*
X34177428Y-60910251D02*
X34187035Y-60898654D01*
X34187035Y-60898654D02*
X34195440Y-60884733D01*
X34195440Y-60884733D02*
X34202734Y-60868593D01*
X34202734Y-60868593D02*
X34209005Y-60850335D01*
X34209005Y-60850335D02*
X34214343Y-60830063D01*
X34214343Y-60830063D02*
X34218838Y-60807878D01*
X34218838Y-60807878D02*
X34225655Y-60758184D01*
X34225655Y-60758184D02*
X34230171Y-60702073D01*
X34230171Y-60702073D02*
X34235165Y-60573890D01*
X34235165Y-60573890D02*
X34239546Y-60429899D01*
X34239546Y-60429899D02*
X34243295Y-60354030D01*
X34243295Y-60354030D02*
X34249037Y-60276674D01*
X34249037Y-60276674D02*
X34257489Y-60198651D01*
X34257489Y-60198651D02*
X34269366Y-60120785D01*
X34269366Y-60120785D02*
X34276812Y-60082167D01*
X34276812Y-60082167D02*
X34285383Y-60043895D01*
X34285383Y-60043895D02*
X34295167Y-60006074D01*
X34295167Y-60006074D02*
X34306256Y-59968804D01*
X34306256Y-59968804D02*
X34316209Y-59937212D01*
X34316209Y-59937212D02*
X34324900Y-59905341D01*
X34324900Y-59905341D02*
X34332328Y-59873230D01*
X34332328Y-59873230D02*
X34338491Y-59840914D01*
X34338491Y-59840914D02*
X34343390Y-59808432D01*
X34343390Y-59808432D02*
X34347024Y-59775820D01*
X34347024Y-59775820D02*
X34349392Y-59743116D01*
X34349392Y-59743116D02*
X34350494Y-59710356D01*
X34350494Y-59710356D02*
X34350329Y-59677579D01*
X34350329Y-59677579D02*
X34348897Y-59644820D01*
X34348897Y-59644820D02*
X34346197Y-59612118D01*
X34346197Y-59612118D02*
X34342229Y-59579509D01*
X34342229Y-59579509D02*
X34336992Y-59547030D01*
X34336992Y-59547030D02*
X34330486Y-59514719D01*
X34330486Y-59514719D02*
X34322710Y-59482613D01*
X34322710Y-59482613D02*
X34313664Y-59450749D01*
X34313664Y-59450749D02*
X34293939Y-59373328D01*
X34293939Y-59373328D02*
X34278664Y-59294397D01*
X34278664Y-59294397D02*
X34267165Y-59214757D01*
X34267165Y-59214757D02*
X34258767Y-59135211D01*
X34258767Y-59135211D02*
X34248575Y-58979614D01*
X34248575Y-58979614D02*
X34242689Y-58834023D01*
X34242689Y-58834023D02*
X34235712Y-58704859D01*
X34235712Y-58704859D02*
X34230128Y-58648443D01*
X34230128Y-58648443D02*
X34222246Y-58598542D01*
X34222246Y-58598542D02*
X34211393Y-58555957D01*
X34211393Y-58555957D02*
X34196892Y-58521491D01*
X34196892Y-58521491D02*
X34188064Y-58507553D01*
X34188064Y-58507553D02*
X34178070Y-58495946D01*
X34178070Y-58495946D02*
X34166828Y-58486771D01*
X34166828Y-58486771D02*
X34154253Y-58480126D01*
X34154253Y-58480126D02*
X34136532Y-58475412D01*
X34136532Y-58475412D02*
X34116367Y-58474451D01*
X34116367Y-58474451D02*
X34093956Y-58477144D01*
X34093956Y-58477144D02*
X34069496Y-58483394D01*
X34069496Y-58483394D02*
X34043183Y-58493101D01*
X34043183Y-58493101D02*
X34015216Y-58506167D01*
X34015216Y-58506167D02*
X33985790Y-58522495D01*
X33985790Y-58522495D02*
X33955104Y-58541985D01*
X33955104Y-58541985D02*
X33923354Y-58564540D01*
X33923354Y-58564540D02*
X33890738Y-58590061D01*
X33890738Y-58590061D02*
X33857453Y-58618450D01*
X33857453Y-58618450D02*
X33823696Y-58649609D01*
X33823696Y-58649609D02*
X33789664Y-58683439D01*
X33789664Y-58683439D02*
X33755554Y-58719842D01*
X33755554Y-58719842D02*
X33721564Y-58758720D01*
X33721564Y-58758720D02*
X33687891Y-58799974D01*
X33687891Y-58799974D02*
X33654732Y-58843507D01*
X33654732Y-58843507D02*
X33622284Y-58889219D01*
X33622284Y-58889219D02*
X33590744Y-58937013D01*
X33590744Y-58937013D02*
X33560309Y-58986790D01*
X33560309Y-58986790D02*
X33531177Y-59038452D01*
X33531177Y-59038452D02*
X33503545Y-59091901D01*
X33503545Y-59091901D02*
X33477610Y-59147038D01*
X33477610Y-59147038D02*
X33453570Y-59203766D01*
X33453570Y-59203766D02*
X33431620Y-59261985D01*
X33431620Y-59261985D02*
X33411959Y-59321597D01*
X33411959Y-59321597D02*
X33394784Y-59382505D01*
X33394784Y-59382505D02*
X33380291Y-59444609D01*
X33380291Y-59444609D02*
X33368679Y-59507812D01*
X33368679Y-59507812D02*
X33360144Y-59572016D01*
X33360144Y-59572016D02*
X33354883Y-59637121D01*
X33354883Y-59637121D02*
X33353094Y-59703030D01*
X33353094Y-59703030D02*
X33353094Y-59703030D01*
G36*
X34136532Y-58475412D02*
G01*
X34154253Y-58480126D01*
X34166828Y-58486771D01*
X34178070Y-58495946D01*
X34188064Y-58507553D01*
X34196892Y-58521491D01*
X34211393Y-58555957D01*
X34222246Y-58598542D01*
X34230128Y-58648443D01*
X34235712Y-58704859D01*
X34242689Y-58834023D01*
X34248575Y-58979614D01*
X34258767Y-59135211D01*
X34267165Y-59214757D01*
X34278664Y-59294397D01*
X34293939Y-59373328D01*
X34313664Y-59450749D01*
X34322710Y-59482613D01*
X34330486Y-59514719D01*
X34336992Y-59547030D01*
X34342229Y-59579509D01*
X34346197Y-59612118D01*
X34348897Y-59644820D01*
X34350329Y-59677579D01*
X34350494Y-59710356D01*
X34349392Y-59743116D01*
X34347024Y-59775820D01*
X34343390Y-59808432D01*
X34338491Y-59840914D01*
X34332328Y-59873230D01*
X34324900Y-59905341D01*
X34316209Y-59937212D01*
X34306256Y-59968804D01*
X34295167Y-60006074D01*
X34285383Y-60043895D01*
X34276812Y-60082167D01*
X34269366Y-60120785D01*
X34257489Y-60198651D01*
X34249037Y-60276674D01*
X34243295Y-60354030D01*
X34239546Y-60429899D01*
X34235165Y-60573890D01*
X34230171Y-60702073D01*
X34225655Y-60758184D01*
X34218838Y-60807878D01*
X34214343Y-60830063D01*
X34209005Y-60850335D01*
X34202734Y-60868593D01*
X34195440Y-60884733D01*
X34187035Y-60898654D01*
X34177428Y-60910251D01*
X34166530Y-60919423D01*
X34154253Y-60926067D01*
X34136881Y-60930762D01*
X34117023Y-60931718D01*
X34094876Y-60929031D01*
X34070641Y-60922799D01*
X34016701Y-60900085D01*
X33956797Y-60864355D01*
X33892523Y-60816383D01*
X33825475Y-60756949D01*
X33757245Y-60686828D01*
X33689429Y-60606797D01*
X33623621Y-60517634D01*
X33561414Y-60420114D01*
X33504403Y-60315016D01*
X33454183Y-60203115D01*
X33432118Y-60144857D01*
X33412348Y-60085190D01*
X33395073Y-60024210D01*
X33380492Y-59962016D01*
X33368804Y-59898703D01*
X33360209Y-59834370D01*
X33354906Y-59769113D01*
X33353094Y-59703030D01*
X33354883Y-59637121D01*
X33360144Y-59572016D01*
X33368679Y-59507812D01*
X33380291Y-59444609D01*
X33394784Y-59382505D01*
X33411959Y-59321597D01*
X33431620Y-59261985D01*
X33453570Y-59203766D01*
X33477610Y-59147038D01*
X33503545Y-59091901D01*
X33531177Y-59038452D01*
X33560309Y-58986790D01*
X33590744Y-58937013D01*
X33622284Y-58889219D01*
X33654732Y-58843507D01*
X33687891Y-58799974D01*
X33721564Y-58758720D01*
X33755554Y-58719842D01*
X33789664Y-58683439D01*
X33823696Y-58649609D01*
X33857453Y-58618450D01*
X33890738Y-58590061D01*
X33923354Y-58564540D01*
X33955104Y-58541985D01*
X33985790Y-58522495D01*
X34015216Y-58506167D01*
X34043183Y-58493101D01*
X34069496Y-58483394D01*
X34093956Y-58477144D01*
X34116367Y-58474451D01*
X34136532Y-58475412D01*
G37*
X34136532Y-58475412D02*
X34154253Y-58480126D01*
X34166828Y-58486771D01*
X34178070Y-58495946D01*
X34188064Y-58507553D01*
X34196892Y-58521491D01*
X34211393Y-58555957D01*
X34222246Y-58598542D01*
X34230128Y-58648443D01*
X34235712Y-58704859D01*
X34242689Y-58834023D01*
X34248575Y-58979614D01*
X34258767Y-59135211D01*
X34267165Y-59214757D01*
X34278664Y-59294397D01*
X34293939Y-59373328D01*
X34313664Y-59450749D01*
X34322710Y-59482613D01*
X34330486Y-59514719D01*
X34336992Y-59547030D01*
X34342229Y-59579509D01*
X34346197Y-59612118D01*
X34348897Y-59644820D01*
X34350329Y-59677579D01*
X34350494Y-59710356D01*
X34349392Y-59743116D01*
X34347024Y-59775820D01*
X34343390Y-59808432D01*
X34338491Y-59840914D01*
X34332328Y-59873230D01*
X34324900Y-59905341D01*
X34316209Y-59937212D01*
X34306256Y-59968804D01*
X34295167Y-60006074D01*
X34285383Y-60043895D01*
X34276812Y-60082167D01*
X34269366Y-60120785D01*
X34257489Y-60198651D01*
X34249037Y-60276674D01*
X34243295Y-60354030D01*
X34239546Y-60429899D01*
X34235165Y-60573890D01*
X34230171Y-60702073D01*
X34225655Y-60758184D01*
X34218838Y-60807878D01*
X34214343Y-60830063D01*
X34209005Y-60850335D01*
X34202734Y-60868593D01*
X34195440Y-60884733D01*
X34187035Y-60898654D01*
X34177428Y-60910251D01*
X34166530Y-60919423D01*
X34154253Y-60926067D01*
X34136881Y-60930762D01*
X34117023Y-60931718D01*
X34094876Y-60929031D01*
X34070641Y-60922799D01*
X34016701Y-60900085D01*
X33956797Y-60864355D01*
X33892523Y-60816383D01*
X33825475Y-60756949D01*
X33757245Y-60686828D01*
X33689429Y-60606797D01*
X33623621Y-60517634D01*
X33561414Y-60420114D01*
X33504403Y-60315016D01*
X33454183Y-60203115D01*
X33432118Y-60144857D01*
X33412348Y-60085190D01*
X33395073Y-60024210D01*
X33380492Y-59962016D01*
X33368804Y-59898703D01*
X33360209Y-59834370D01*
X33354906Y-59769113D01*
X33353094Y-59703030D01*
X33354883Y-59637121D01*
X33360144Y-59572016D01*
X33368679Y-59507812D01*
X33380291Y-59444609D01*
X33394784Y-59382505D01*
X33411959Y-59321597D01*
X33431620Y-59261985D01*
X33453570Y-59203766D01*
X33477610Y-59147038D01*
X33503545Y-59091901D01*
X33531177Y-59038452D01*
X33560309Y-58986790D01*
X33590744Y-58937013D01*
X33622284Y-58889219D01*
X33654732Y-58843507D01*
X33687891Y-58799974D01*
X33721564Y-58758720D01*
X33755554Y-58719842D01*
X33789664Y-58683439D01*
X33823696Y-58649609D01*
X33857453Y-58618450D01*
X33890738Y-58590061D01*
X33923354Y-58564540D01*
X33955104Y-58541985D01*
X33985790Y-58522495D01*
X34015216Y-58506167D01*
X34043183Y-58493101D01*
X34069496Y-58483394D01*
X34093956Y-58477144D01*
X34116367Y-58474451D01*
X34136532Y-58475412D01*
X36056077Y-59195162D02*
X36416837Y-59260779D01*
X36416837Y-59260779D02*
X36416837Y-58975294D01*
X36416837Y-58975294D02*
X36688828Y-58788233D01*
X36688828Y-58788233D02*
X36688828Y-58570217D01*
X36688828Y-58570217D02*
X36326085Y-58508569D01*
X36326085Y-58508569D02*
X36328069Y-58759261D01*
X36328069Y-58759261D02*
X36056077Y-58954127D01*
X36056077Y-58954127D02*
X36056077Y-59195162D01*
X36056077Y-59195162D02*
X36056077Y-59195162D01*
G36*
X36688828Y-58570217D02*
G01*
X36688828Y-58788233D01*
X36416837Y-58975294D01*
X36416837Y-59260779D01*
X36056077Y-59195162D01*
X36056077Y-58954127D01*
X36328069Y-58759261D01*
X36326085Y-58508569D01*
X36688828Y-58570217D01*
G37*
X36688828Y-58570217D02*
X36688828Y-58788233D01*
X36416837Y-58975294D01*
X36416837Y-59260779D01*
X36056077Y-59195162D01*
X36056077Y-58954127D01*
X36328069Y-58759261D01*
X36326085Y-58508569D01*
X36688828Y-58570217D01*
X35218010Y-60255480D02*
X35218010Y-59153491D01*
X35218010Y-59153491D02*
X35653646Y-59218049D01*
X35653646Y-59218049D02*
X35653646Y-60179545D01*
X35653646Y-60179545D02*
X35218010Y-60255480D01*
X35218010Y-60255480D02*
X35218010Y-60255480D01*
G36*
X35653646Y-59218049D02*
G01*
X35653646Y-60179545D01*
X35218010Y-60255480D01*
X35218010Y-59153491D01*
X35653646Y-59218049D01*
G37*
X35653646Y-59218049D02*
X35653646Y-60179545D01*
X35218010Y-60255480D01*
X35218010Y-59153491D01*
X35653646Y-59218049D01*
X34521362Y-58854379D02*
X34881989Y-58919996D01*
X34881989Y-58919996D02*
X34881989Y-58634510D01*
X34881989Y-58634510D02*
X35153980Y-58447450D01*
X35153980Y-58447450D02*
X35153980Y-58229434D01*
X35153980Y-58229434D02*
X34791369Y-58167786D01*
X34791369Y-58167786D02*
X34793353Y-58418478D01*
X34793353Y-58418478D02*
X34521362Y-58613344D01*
X34521362Y-58613344D02*
X34521362Y-58854379D01*
X34521362Y-58854379D02*
X34521362Y-58854379D01*
G36*
X35153980Y-58229434D02*
G01*
X35153980Y-58447450D01*
X34881989Y-58634510D01*
X34881989Y-58919996D01*
X34521362Y-58854379D01*
X34521362Y-58613344D01*
X34793353Y-58418478D01*
X34791369Y-58167786D01*
X35153980Y-58229434D01*
G37*
X35153980Y-58229434D02*
X35153980Y-58447450D01*
X34881989Y-58634510D01*
X34881989Y-58919996D01*
X34521362Y-58854379D01*
X34521362Y-58613344D01*
X34793353Y-58418478D01*
X34791369Y-58167786D01*
X35153980Y-58229434D01*
X33806458Y-59108511D02*
X33808704Y-59111391D01*
X33808704Y-59111391D02*
X33810868Y-59114331D01*
X33810868Y-59114331D02*
X33812950Y-59117328D01*
X33812950Y-59117328D02*
X33814947Y-59120381D01*
X33814947Y-59120381D02*
X33816858Y-59123488D01*
X33816858Y-59123488D02*
X33818683Y-59126648D01*
X33818683Y-59126648D02*
X33820420Y-59129858D01*
X33820420Y-59129858D02*
X33822068Y-59133118D01*
X33822068Y-59133118D02*
X33820782Y-59134686D01*
X33820782Y-59134686D02*
X33817537Y-59138723D01*
X33817537Y-59138723D02*
X33815466Y-59141354D01*
X33815466Y-59141354D02*
X33813250Y-59144224D01*
X33813250Y-59144224D02*
X33811003Y-59147209D01*
X33811003Y-59147209D02*
X33808839Y-59150183D01*
X33808839Y-59150183D02*
X33807351Y-59152479D01*
X33807351Y-59152479D02*
X33805896Y-59154796D01*
X33805896Y-59154796D02*
X33804473Y-59157132D01*
X33804473Y-59157132D02*
X33803083Y-59159488D01*
X33803083Y-59159488D02*
X33801727Y-59161863D01*
X33801727Y-59161863D02*
X33800404Y-59164257D01*
X33800404Y-59164257D02*
X33799114Y-59166670D01*
X33799114Y-59166670D02*
X33797859Y-59169101D01*
X33797859Y-59169101D02*
X33791608Y-59179701D01*
X33791608Y-59179701D02*
X33787664Y-59186272D01*
X33787664Y-59186272D02*
X33783175Y-59193575D01*
X33783175Y-59193575D02*
X33772326Y-59217255D01*
X33772326Y-59217255D02*
X33770455Y-59221772D01*
X33770455Y-59221772D02*
X33768275Y-59227194D01*
X33768275Y-59227194D02*
X33767095Y-59230248D01*
X33767095Y-59230248D02*
X33765871Y-59233533D01*
X33765871Y-59233533D02*
X33764612Y-59237051D01*
X33764612Y-59237051D02*
X33763330Y-59240803D01*
X33763330Y-59240803D02*
X33759825Y-59252098D01*
X33759825Y-59252098D02*
X33757749Y-59258942D01*
X33757749Y-59258942D02*
X33755525Y-59266468D01*
X33755525Y-59266468D02*
X33751869Y-59279360D01*
X33751869Y-59279360D02*
X33749751Y-59287152D01*
X33749751Y-59287152D02*
X33747505Y-59295787D01*
X33747505Y-59295787D02*
X33745178Y-59305221D01*
X33745178Y-59305221D02*
X33742819Y-59315414D01*
X33742819Y-59315414D02*
X33740475Y-59326322D01*
X33740475Y-59326322D02*
X33738195Y-59337905D01*
X33738195Y-59337905D02*
X33736344Y-59348079D01*
X33736344Y-59348079D02*
X33734657Y-59358279D01*
X33734657Y-59358279D02*
X33733135Y-59368504D01*
X33733135Y-59368504D02*
X33731779Y-59378751D01*
X33731779Y-59378751D02*
X33730588Y-59389019D01*
X33730588Y-59389019D02*
X33729562Y-59399305D01*
X33729562Y-59399305D02*
X33728702Y-59409609D01*
X33728702Y-59409609D02*
X33728009Y-59419926D01*
X33728009Y-59419926D02*
X33719360Y-59421084D01*
X33719360Y-59421084D02*
X33711433Y-59422047D01*
X33711433Y-59422047D02*
X33707410Y-59422484D01*
X33707410Y-59422484D02*
X33703667Y-59422837D01*
X33703667Y-59422837D02*
X33698925Y-59423309D01*
X33698925Y-59423309D02*
X33694175Y-59423623D01*
X33694175Y-59423623D02*
X33689419Y-59423778D01*
X33689419Y-59423778D02*
X33684661Y-59423774D01*
X33684661Y-59423774D02*
X33679907Y-59423612D01*
X33679907Y-59423612D02*
X33675159Y-59423291D01*
X33675159Y-59423291D02*
X33670422Y-59422813D01*
X33670422Y-59422813D02*
X33665700Y-59422175D01*
X33665700Y-59422175D02*
X33661711Y-59421368D01*
X33661711Y-59421368D02*
X33657740Y-59420484D01*
X33657740Y-59420484D02*
X33653788Y-59419523D01*
X33653788Y-59419523D02*
X33649856Y-59418485D01*
X33649856Y-59418485D02*
X33645945Y-59417371D01*
X33645945Y-59417371D02*
X33642055Y-59416182D01*
X33642055Y-59416182D02*
X33638189Y-59414917D01*
X33638189Y-59414917D02*
X33634346Y-59413577D01*
X33634346Y-59413577D02*
X33634346Y-59413576D01*
X33634346Y-59413576D02*
X33636728Y-59390475D01*
X33636728Y-59390475D02*
X33637951Y-59379657D01*
X33637951Y-59379657D02*
X33639369Y-59367868D01*
X33639369Y-59367868D02*
X33640955Y-59355628D01*
X33640955Y-59355628D02*
X33642681Y-59343462D01*
X33642681Y-59343462D02*
X33644160Y-59333845D01*
X33644160Y-59333845D02*
X33645774Y-59324252D01*
X33645774Y-59324252D02*
X33647524Y-59314684D01*
X33647524Y-59314684D02*
X33649408Y-59305141D01*
X33649408Y-59305141D02*
X33651428Y-59295627D01*
X33651428Y-59295627D02*
X33653581Y-59286141D01*
X33653581Y-59286141D02*
X33655869Y-59276686D01*
X33655869Y-59276686D02*
X33658291Y-59267262D01*
X33658291Y-59267262D02*
X33660643Y-59258470D01*
X33660643Y-59258470D02*
X33663127Y-59249716D01*
X33663127Y-59249716D02*
X33665743Y-59241001D01*
X33665743Y-59241001D02*
X33668490Y-59232328D01*
X33668490Y-59232328D02*
X33671368Y-59223697D01*
X33671368Y-59223697D02*
X33674376Y-59215110D01*
X33674376Y-59215110D02*
X33677514Y-59206568D01*
X33677514Y-59206568D02*
X33680781Y-59198074D01*
X33680781Y-59198074D02*
X33686205Y-59184844D01*
X33686205Y-59184844D02*
X33689016Y-59177684D01*
X33689016Y-59177684D02*
X33690484Y-59174073D01*
X33690484Y-59174073D02*
X33692026Y-59170424D01*
X33692026Y-59170424D02*
X33693917Y-59166193D01*
X33693917Y-59166193D02*
X33696243Y-59161180D01*
X33696243Y-59161180D02*
X33701154Y-59150845D01*
X33701154Y-59150845D02*
X33703744Y-59146031D01*
X33703744Y-59146031D02*
X33706247Y-59141504D01*
X33706247Y-59141504D02*
X33710944Y-59133267D01*
X33710944Y-59133267D02*
X33715144Y-59126046D01*
X33715144Y-59126046D02*
X33718749Y-59119756D01*
X33718749Y-59119756D02*
X33720535Y-59116557D01*
X33720535Y-59116557D02*
X33722364Y-59113383D01*
X33722364Y-59113383D02*
X33724236Y-59110234D01*
X33724236Y-59110234D02*
X33726151Y-59107111D01*
X33726151Y-59107111D02*
X33728107Y-59104014D01*
X33728107Y-59104014D02*
X33730106Y-59100944D01*
X33730106Y-59100944D02*
X33732146Y-59097901D01*
X33732146Y-59097901D02*
X33734227Y-59094886D01*
X33734227Y-59094886D02*
X33736293Y-59092150D01*
X33736293Y-59092150D02*
X33738407Y-59089453D01*
X33738407Y-59089453D02*
X33740569Y-59086795D01*
X33740569Y-59086795D02*
X33742780Y-59084177D01*
X33742780Y-59084177D02*
X33745037Y-59081599D01*
X33745037Y-59081599D02*
X33747341Y-59079063D01*
X33747341Y-59079063D02*
X33749691Y-59076568D01*
X33749691Y-59076568D02*
X33752086Y-59074116D01*
X33752086Y-59074116D02*
X33783439Y-59091578D01*
X33783439Y-59091578D02*
X33785095Y-59092307D01*
X33785095Y-59092307D02*
X33786727Y-59093083D01*
X33786727Y-59093083D02*
X33788333Y-59093905D01*
X33788333Y-59093905D02*
X33789912Y-59094773D01*
X33789912Y-59094773D02*
X33791464Y-59095687D01*
X33791464Y-59095687D02*
X33792987Y-59096644D01*
X33792987Y-59096644D02*
X33794482Y-59097646D01*
X33794482Y-59097646D02*
X33795946Y-59098690D01*
X33795946Y-59098690D02*
X33797379Y-59099777D01*
X33797379Y-59099777D02*
X33798780Y-59100905D01*
X33798780Y-59100905D02*
X33800147Y-59102074D01*
X33800147Y-59102074D02*
X33801481Y-59103284D01*
X33801481Y-59103284D02*
X33802780Y-59104533D01*
X33802780Y-59104533D02*
X33804043Y-59105822D01*
X33804043Y-59105822D02*
X33805269Y-59107148D01*
X33805269Y-59107148D02*
X33806458Y-59108512D01*
X33806458Y-59108512D02*
X33806458Y-59108511D01*
X33806458Y-59108511D02*
X33806458Y-59108511D01*
G36*
X33783439Y-59091578D02*
G01*
X33785095Y-59092307D01*
X33786727Y-59093083D01*
X33788333Y-59093905D01*
X33789912Y-59094773D01*
X33791464Y-59095687D01*
X33792987Y-59096644D01*
X33794482Y-59097646D01*
X33795946Y-59098690D01*
X33797379Y-59099777D01*
X33798780Y-59100905D01*
X33800147Y-59102074D01*
X33801481Y-59103284D01*
X33802780Y-59104533D01*
X33804043Y-59105822D01*
X33805269Y-59107148D01*
X33806458Y-59108512D01*
X33806458Y-59108511D01*
X33808704Y-59111391D01*
X33810868Y-59114331D01*
X33812950Y-59117328D01*
X33814947Y-59120381D01*
X33816858Y-59123488D01*
X33818683Y-59126648D01*
X33820420Y-59129858D01*
X33822068Y-59133118D01*
X33820782Y-59134686D01*
X33817537Y-59138723D01*
X33815466Y-59141354D01*
X33813250Y-59144224D01*
X33811003Y-59147209D01*
X33808839Y-59150183D01*
X33807351Y-59152479D01*
X33805896Y-59154796D01*
X33804473Y-59157132D01*
X33803083Y-59159488D01*
X33801727Y-59161863D01*
X33800404Y-59164257D01*
X33799114Y-59166670D01*
X33797859Y-59169101D01*
X33791608Y-59179701D01*
X33787664Y-59186272D01*
X33783175Y-59193575D01*
X33772326Y-59217255D01*
X33770455Y-59221772D01*
X33768275Y-59227194D01*
X33767095Y-59230248D01*
X33765871Y-59233533D01*
X33764612Y-59237051D01*
X33763330Y-59240803D01*
X33759825Y-59252098D01*
X33757749Y-59258942D01*
X33755525Y-59266468D01*
X33751869Y-59279360D01*
X33749751Y-59287152D01*
X33747505Y-59295787D01*
X33745178Y-59305221D01*
X33742819Y-59315414D01*
X33740475Y-59326322D01*
X33738195Y-59337905D01*
X33736344Y-59348079D01*
X33734657Y-59358279D01*
X33733135Y-59368504D01*
X33731779Y-59378751D01*
X33730588Y-59389019D01*
X33729562Y-59399305D01*
X33728702Y-59409609D01*
X33728009Y-59419926D01*
X33719360Y-59421084D01*
X33711433Y-59422047D01*
X33707410Y-59422484D01*
X33703667Y-59422837D01*
X33698925Y-59423309D01*
X33694175Y-59423623D01*
X33689419Y-59423778D01*
X33684661Y-59423774D01*
X33679907Y-59423612D01*
X33675159Y-59423291D01*
X33670422Y-59422813D01*
X33665700Y-59422175D01*
X33661711Y-59421368D01*
X33657740Y-59420484D01*
X33653788Y-59419523D01*
X33649856Y-59418485D01*
X33645945Y-59417371D01*
X33642055Y-59416182D01*
X33638189Y-59414917D01*
X33634346Y-59413577D01*
X33634346Y-59413576D01*
X33636728Y-59390475D01*
X33637951Y-59379657D01*
X33639369Y-59367868D01*
X33640955Y-59355628D01*
X33642681Y-59343462D01*
X33644160Y-59333845D01*
X33645774Y-59324252D01*
X33647524Y-59314684D01*
X33649408Y-59305141D01*
X33651428Y-59295627D01*
X33653581Y-59286141D01*
X33655869Y-59276686D01*
X33658291Y-59267262D01*
X33660643Y-59258470D01*
X33663127Y-59249716D01*
X33665743Y-59241001D01*
X33668490Y-59232328D01*
X33671368Y-59223697D01*
X33674376Y-59215110D01*
X33677514Y-59206568D01*
X33680781Y-59198074D01*
X33686205Y-59184844D01*
X33689016Y-59177684D01*
X33690484Y-59174073D01*
X33692026Y-59170424D01*
X33693917Y-59166193D01*
X33696243Y-59161180D01*
X33701154Y-59150845D01*
X33703744Y-59146031D01*
X33706247Y-59141504D01*
X33710944Y-59133267D01*
X33715144Y-59126046D01*
X33718749Y-59119756D01*
X33720535Y-59116557D01*
X33722364Y-59113383D01*
X33724236Y-59110234D01*
X33726151Y-59107111D01*
X33728107Y-59104014D01*
X33730106Y-59100944D01*
X33732146Y-59097901D01*
X33734227Y-59094886D01*
X33736293Y-59092150D01*
X33738407Y-59089453D01*
X33740569Y-59086795D01*
X33742780Y-59084177D01*
X33745037Y-59081599D01*
X33747341Y-59079063D01*
X33749691Y-59076568D01*
X33752086Y-59074116D01*
X33783439Y-59091578D01*
G37*
X33783439Y-59091578D02*
X33785095Y-59092307D01*
X33786727Y-59093083D01*
X33788333Y-59093905D01*
X33789912Y-59094773D01*
X33791464Y-59095687D01*
X33792987Y-59096644D01*
X33794482Y-59097646D01*
X33795946Y-59098690D01*
X33797379Y-59099777D01*
X33798780Y-59100905D01*
X33800147Y-59102074D01*
X33801481Y-59103284D01*
X33802780Y-59104533D01*
X33804043Y-59105822D01*
X33805269Y-59107148D01*
X33806458Y-59108512D01*
X33806458Y-59108511D01*
X33808704Y-59111391D01*
X33810868Y-59114331D01*
X33812950Y-59117328D01*
X33814947Y-59120381D01*
X33816858Y-59123488D01*
X33818683Y-59126648D01*
X33820420Y-59129858D01*
X33822068Y-59133118D01*
X33820782Y-59134686D01*
X33817537Y-59138723D01*
X33815466Y-59141354D01*
X33813250Y-59144224D01*
X33811003Y-59147209D01*
X33808839Y-59150183D01*
X33807351Y-59152479D01*
X33805896Y-59154796D01*
X33804473Y-59157132D01*
X33803083Y-59159488D01*
X33801727Y-59161863D01*
X33800404Y-59164257D01*
X33799114Y-59166670D01*
X33797859Y-59169101D01*
X33791608Y-59179701D01*
X33787664Y-59186272D01*
X33783175Y-59193575D01*
X33772326Y-59217255D01*
X33770455Y-59221772D01*
X33768275Y-59227194D01*
X33767095Y-59230248D01*
X33765871Y-59233533D01*
X33764612Y-59237051D01*
X33763330Y-59240803D01*
X33759825Y-59252098D01*
X33757749Y-59258942D01*
X33755525Y-59266468D01*
X33751869Y-59279360D01*
X33749751Y-59287152D01*
X33747505Y-59295787D01*
X33745178Y-59305221D01*
X33742819Y-59315414D01*
X33740475Y-59326322D01*
X33738195Y-59337905D01*
X33736344Y-59348079D01*
X33734657Y-59358279D01*
X33733135Y-59368504D01*
X33731779Y-59378751D01*
X33730588Y-59389019D01*
X33729562Y-59399305D01*
X33728702Y-59409609D01*
X33728009Y-59419926D01*
X33719360Y-59421084D01*
X33711433Y-59422047D01*
X33707410Y-59422484D01*
X33703667Y-59422837D01*
X33698925Y-59423309D01*
X33694175Y-59423623D01*
X33689419Y-59423778D01*
X33684661Y-59423774D01*
X33679907Y-59423612D01*
X33675159Y-59423291D01*
X33670422Y-59422813D01*
X33665700Y-59422175D01*
X33661711Y-59421368D01*
X33657740Y-59420484D01*
X33653788Y-59419523D01*
X33649856Y-59418485D01*
X33645945Y-59417371D01*
X33642055Y-59416182D01*
X33638189Y-59414917D01*
X33634346Y-59413577D01*
X33634346Y-59413576D01*
X33636728Y-59390475D01*
X33637951Y-59379657D01*
X33639369Y-59367868D01*
X33640955Y-59355628D01*
X33642681Y-59343462D01*
X33644160Y-59333845D01*
X33645774Y-59324252D01*
X33647524Y-59314684D01*
X33649408Y-59305141D01*
X33651428Y-59295627D01*
X33653581Y-59286141D01*
X33655869Y-59276686D01*
X33658291Y-59267262D01*
X33660643Y-59258470D01*
X33663127Y-59249716D01*
X33665743Y-59241001D01*
X33668490Y-59232328D01*
X33671368Y-59223697D01*
X33674376Y-59215110D01*
X33677514Y-59206568D01*
X33680781Y-59198074D01*
X33686205Y-59184844D01*
X33689016Y-59177684D01*
X33690484Y-59174073D01*
X33692026Y-59170424D01*
X33693917Y-59166193D01*
X33696243Y-59161180D01*
X33701154Y-59150845D01*
X33703744Y-59146031D01*
X33706247Y-59141504D01*
X33710944Y-59133267D01*
X33715144Y-59126046D01*
X33718749Y-59119756D01*
X33720535Y-59116557D01*
X33722364Y-59113383D01*
X33724236Y-59110234D01*
X33726151Y-59107111D01*
X33728107Y-59104014D01*
X33730106Y-59100944D01*
X33732146Y-59097901D01*
X33734227Y-59094886D01*
X33736293Y-59092150D01*
X33738407Y-59089453D01*
X33740569Y-59086795D01*
X33742780Y-59084177D01*
X33745037Y-59081599D01*
X33747341Y-59079063D01*
X33749691Y-59076568D01*
X33752086Y-59074116D01*
X33783439Y-59091578D01*
X34521362Y-60525091D02*
X34881989Y-60459606D01*
X34881989Y-60459606D02*
X34881989Y-60745092D01*
X34881989Y-60745092D02*
X35153980Y-60932152D01*
X35153980Y-60932152D02*
X35153980Y-61150169D01*
X35153980Y-61150169D02*
X34791369Y-61211817D01*
X34791369Y-61211817D02*
X34793353Y-60961124D01*
X34793353Y-60961124D02*
X34521362Y-60766258D01*
X34521362Y-60766258D02*
X34521362Y-60525091D01*
X34521362Y-60525091D02*
X34521362Y-60525091D01*
G36*
X34881989Y-60745092D02*
G01*
X35153980Y-60932152D01*
X35153980Y-61150169D01*
X34791369Y-61211817D01*
X34793353Y-60961124D01*
X34521362Y-60766258D01*
X34521362Y-60525091D01*
X34881989Y-60459606D01*
X34881989Y-60745092D01*
G37*
X34881989Y-60745092D02*
X35153980Y-60932152D01*
X35153980Y-61150169D01*
X34791369Y-61211817D01*
X34793353Y-60961124D01*
X34521362Y-60766258D01*
X34521362Y-60525091D01*
X34881989Y-60459606D01*
X34881989Y-60745092D01*
X35760538Y-60165390D02*
X36457714Y-60052942D01*
X36457714Y-60052942D02*
X36457714Y-59352986D01*
X36457714Y-59352986D02*
X35760538Y-59240538D01*
X35760538Y-59240538D02*
X35760538Y-60165390D01*
X35760538Y-60165390D02*
X35760538Y-60165390D01*
G36*
X36457714Y-59352986D02*
G01*
X36457714Y-60052942D01*
X35760538Y-60165390D01*
X35760538Y-59240538D01*
X36457714Y-59352986D01*
G37*
X36457714Y-59352986D02*
X36457714Y-60052942D01*
X35760538Y-60165390D01*
X35760538Y-59240538D01*
X36457714Y-59352986D01*
X33241069Y-60701398D02*
X33231697Y-60717583D01*
X33602316Y-58371735D02*
X33701358Y-58338849D01*
X33701358Y-58338849D02*
X33805115Y-58309043D01*
X33224289Y-60751645D02*
X33226582Y-60769555D01*
X33524062Y-58813255D02*
X33451066Y-58789869D01*
X33233094Y-60788073D02*
X33243990Y-60807215D01*
X33805115Y-58309043D02*
X33911388Y-58282238D01*
X33784376Y-61071015D02*
X33890660Y-61097819D01*
X33291093Y-58709301D02*
X33274769Y-58694184D01*
X33264760Y-58572746D02*
X33280204Y-58552971D01*
X33270323Y-60670640D02*
X33253999Y-60685756D01*
X33680609Y-61041206D02*
X33784376Y-61071015D01*
X33245058Y-58628301D02*
X33247352Y-58610395D01*
X33226582Y-60769555D02*
X33233094Y-60788073D01*
X33334705Y-60890348D02*
X33406407Y-60932963D01*
X33489425Y-60972259D02*
X33581559Y-61008313D01*
X33253999Y-60685756D02*
X33241069Y-60701398D01*
X33261838Y-58678542D02*
X33252467Y-58662359D01*
X33858436Y-60487086D02*
X33670871Y-60524380D01*
X33333262Y-58738021D02*
X33291093Y-58709301D01*
X33300361Y-58532541D02*
X33325396Y-58511440D01*
X34101981Y-61142727D02*
X34296974Y-61176560D01*
X33879206Y-58892908D02*
X33691641Y-58855601D01*
X33280204Y-58552971D02*
X33300361Y-58532541D01*
X33247352Y-58610395D02*
X33253864Y-58591882D01*
X33503292Y-60566709D02*
X33430296Y-60590087D01*
X33911388Y-58282238D02*
X34122684Y-58237321D01*
X33253864Y-58591882D02*
X33264760Y-58572746D01*
X34296974Y-61176560D02*
X34458042Y-61199947D01*
X33252467Y-58662359D02*
X33246818Y-58645617D01*
X33274769Y-58694184D02*
X33261838Y-58678542D01*
X33427176Y-58447058D02*
X33510189Y-58407778D01*
X33387027Y-58764834D02*
X33333262Y-58738021D01*
X33510189Y-58407778D02*
X33602316Y-58371735D01*
X33325396Y-58511440D02*
X33355475Y-58489651D01*
X33583923Y-60544850D02*
X33503292Y-60566709D01*
X33451066Y-58789869D02*
X33387027Y-58764834D01*
X33246818Y-58645617D02*
X33245058Y-58628301D01*
X34317653Y-58203473D02*
X34478700Y-58180070D01*
X33355475Y-58489651D02*
X33427176Y-58447058D01*
X33604693Y-58835123D02*
X33524062Y-58813255D01*
X33226048Y-60734326D02*
X33224289Y-60751645D01*
X33406407Y-60932963D02*
X33489425Y-60972259D01*
X33670871Y-60524380D02*
X33583923Y-60544850D01*
X34076200Y-58926214D02*
X33879206Y-58892908D01*
X33366257Y-60615115D02*
X33312492Y-60641923D01*
X33304627Y-60868547D02*
X33334705Y-60890348D01*
X34478700Y-58180070D02*
X34628650Y-58162097D01*
X33259434Y-60826997D02*
X33279591Y-60847436D01*
X33430296Y-60590087D02*
X33366257Y-60615115D01*
X33691641Y-58855601D02*
X33604693Y-58835123D01*
X33279591Y-60847436D02*
X33304627Y-60868547D01*
X33355475Y-58489651D02*
X33355475Y-58489651D01*
X34055430Y-60453785D02*
X33858436Y-60487086D01*
X33243990Y-60807215D02*
X33259434Y-60826997D01*
X33581559Y-61008313D02*
X33680609Y-61041206D01*
X33312492Y-60641923D02*
X33270323Y-60670640D01*
X34122684Y-58237321D02*
X34317653Y-58203473D01*
X33334705Y-60890348D02*
X33334705Y-60890348D01*
X33890660Y-61097819D02*
X34101981Y-61142727D01*
X33231697Y-60717583D02*
X33226048Y-60734326D01*
X34458042Y-61199947D02*
X34608013Y-61217902D01*
D13*
%TO.C,RV2*%
X40706000Y-91582000D02*
X40706000Y-80662000D01*
X40706000Y-91582000D02*
X57846000Y-91582000D01*
X57846000Y-91582000D02*
X57846000Y-80662000D01*
X57846000Y-80662000D02*
G75*
G03*
X57846000Y-80662000I-8570000J0D01*
G01*
%TO.C,J2*%
X58501000Y-127947000D02*
X58501000Y-115316000D01*
X41148000Y-131337000D02*
X55101000Y-131337000D01*
X41148000Y-115316000D02*
X41148000Y-131337000D01*
X55101000Y-131337000D02*
X58501000Y-127937000D01*
X58501000Y-115316000D02*
X41148000Y-115316000D01*
%TO.C,J3*%
X58501000Y-110929000D02*
X58501000Y-98298000D01*
X55101000Y-114319000D02*
X58501000Y-110919000D01*
X41148000Y-114319000D02*
X55101000Y-114319000D01*
X58501000Y-98298000D02*
X41148000Y-98298000D01*
X41148000Y-98298000D02*
X41148000Y-114319000D01*
%TD*%
M02*
