%TF.GenerationSoftware,KiCad,Pcbnew,(6.0.0-0)*%
%TF.CreationDate,2022-11-09T20:37:39-05:00*%
%TF.ProjectId,VCO,56434f2e-6b69-4636-9164-5f7063625858,rev?*%
%TF.SameCoordinates,Original*%
%TF.FileFunction,Soldermask,Bot*%
%TF.FilePolarity,Negative*%
%FSLAX46Y46*%
G04 Gerber Fmt 4.6, Leading zero omitted, Abs format (unit mm)*
G04 Created by KiCad (PCBNEW (6.0.0-0)) date 2022-11-09 20:37:39*
%MOMM*%
%LPD*%
G01*
G04 APERTURE LIST*
G04 Aperture macros list*
%AMRoundRect*
0 Rectangle with rounded corners*
0 $1 Rounding radius*
0 $2 $3 $4 $5 $6 $7 $8 $9 X,Y pos of 4 corners*
0 Add a 4 corners polygon primitive as box body*
4,1,4,$2,$3,$4,$5,$6,$7,$8,$9,$2,$3,0*
0 Add four circle primitives for the rounded corners*
1,1,$1+$1,$2,$3*
1,1,$1+$1,$4,$5*
1,1,$1+$1,$6,$7*
1,1,$1+$1,$8,$9*
0 Add four rect primitives between the rounded corners*
20,1,$1+$1,$2,$3,$4,$5,0*
20,1,$1+$1,$4,$5,$6,$7,0*
20,1,$1+$1,$6,$7,$8,$9,0*
20,1,$1+$1,$8,$9,$2,$3,0*%
%AMRotRect*
0 Rectangle, with rotation*
0 The origin of the aperture is its center*
0 $1 length*
0 $2 width*
0 $3 Rotation angle, in degrees counterclockwise*
0 Add horizontal line*
21,1,$1,$2,0,0,$3*%
G04 Aperture macros list end*
%ADD10C,2.340000*%
%ADD11C,0.800000*%
%ADD12C,6.000000*%
%ADD13R,3.000000X8.500000*%
%ADD14RotRect,3.000000X6.500000X315.000000*%
%ADD15RoundRect,0.250000X0.450000X-0.262500X0.450000X0.262500X-0.450000X0.262500X-0.450000X-0.262500X0*%
%ADD16RoundRect,0.250000X-0.450000X0.262500X-0.450000X-0.262500X0.450000X-0.262500X0.450000X0.262500X0*%
%ADD17RoundRect,0.250000X-0.262500X-0.450000X0.262500X-0.450000X0.262500X0.450000X-0.262500X0.450000X0*%
%ADD18RoundRect,0.150000X0.150000X-0.825000X0.150000X0.825000X-0.150000X0.825000X-0.150000X-0.825000X0*%
%ADD19RoundRect,0.250000X-0.475000X0.250000X-0.475000X-0.250000X0.475000X-0.250000X0.475000X0.250000X0*%
%ADD20RoundRect,0.250000X0.600000X-0.600000X0.600000X0.600000X-0.600000X0.600000X-0.600000X-0.600000X0*%
%ADD21C,1.700000*%
%ADD22RoundRect,0.150000X-0.150000X0.587500X-0.150000X-0.587500X0.150000X-0.587500X0.150000X0.587500X0*%
G04 APERTURE END LIST*
D10*
%TO.C,RV1*%
X54276000Y-68574000D03*
X49276000Y-68574000D03*
X44276000Y-68574000D03*
%TD*%
D11*
%TO.C,REF\u002A\u002A*%
X64480000Y-48514000D03*
X63820990Y-46923010D03*
X62230000Y-46264000D03*
X63820990Y-50104990D03*
X62230000Y-50764000D03*
X59980000Y-48514000D03*
D12*
X62230000Y-48514000D03*
D11*
X60639010Y-46923010D03*
X60639010Y-50104990D03*
%TD*%
D10*
%TO.C,RV2*%
X54276000Y-93212000D03*
X49276000Y-93212000D03*
X44276000Y-93212000D03*
%TD*%
D13*
%TO.C,J2*%
X43651000Y-123415000D03*
D14*
X54861000Y-127397000D03*
%TD*%
D11*
%TO.C,REF\u002A\u002A*%
X45907010Y-116688990D03*
X49748000Y-115098000D03*
X47498000Y-112848000D03*
X45248000Y-115098000D03*
X47498000Y-117348000D03*
X49088990Y-116688990D03*
X49088990Y-113507010D03*
X45907010Y-113507010D03*
D12*
X47498000Y-115098000D03*
%TD*%
D13*
%TO.C,J3*%
X43651000Y-106397000D03*
D14*
X54861000Y-110379000D03*
%TD*%
D15*
%TO.C,R11*%
X50770000Y-47902500D03*
X50770000Y-46077500D03*
%TD*%
%TO.C,R12*%
X55880000Y-119229500D03*
X55880000Y-121054500D03*
%TD*%
D16*
%TO.C,R8*%
X53056000Y-46077500D03*
X53056000Y-47902500D03*
%TD*%
D15*
%TO.C,R4*%
X50770000Y-60790500D03*
X50770000Y-58965500D03*
%TD*%
D17*
%TO.C,R3*%
X61364500Y-85344000D03*
X59539500Y-85344000D03*
%TD*%
D15*
%TO.C,R13*%
X53594000Y-119229500D03*
X53594000Y-121054500D03*
%TD*%
D18*
%TO.C,U1*%
X45563000Y-55815000D03*
X44293000Y-55815000D03*
X43023000Y-55815000D03*
X41753000Y-55815000D03*
X41753000Y-50865000D03*
X43023000Y-50865000D03*
X44293000Y-50865000D03*
X45563000Y-50865000D03*
%TD*%
D19*
%TO.C,C1*%
X55342000Y-58928000D03*
X55342000Y-60828000D03*
%TD*%
D20*
%TO.C,J1*%
X58166000Y-40376500D03*
D21*
X58166000Y-37836500D03*
X55626000Y-40376500D03*
X55626000Y-37836500D03*
X53086000Y-40376500D03*
X53086000Y-37836500D03*
X50546000Y-40376500D03*
X50546000Y-37836500D03*
X48006000Y-40376500D03*
X48006000Y-37836500D03*
X45466000Y-40376500D03*
X45466000Y-37836500D03*
X42926000Y-40376500D03*
X42926000Y-37836500D03*
X40386000Y-40376500D03*
X40386000Y-37836500D03*
%TD*%
D15*
%TO.C,R5*%
X46198000Y-60790500D03*
X46198000Y-58965500D03*
%TD*%
D16*
%TO.C,R7*%
X40102000Y-58965500D03*
X40102000Y-60790500D03*
%TD*%
D15*
%TO.C,R1*%
X48484000Y-60790500D03*
X48484000Y-58965500D03*
%TD*%
%TO.C,R9*%
X55342000Y-47902500D03*
X55342000Y-46077500D03*
%TD*%
D22*
%TO.C,Q1*%
X42230000Y-59260500D03*
X44130000Y-59260500D03*
X43180000Y-61135500D03*
%TD*%
D17*
%TO.C,R2*%
X52728500Y-75184000D03*
X50903500Y-75184000D03*
%TD*%
D15*
%TO.C,R10*%
X48484000Y-47902500D03*
X48484000Y-46077500D03*
%TD*%
%TO.C,R6*%
X53056000Y-60790500D03*
X53056000Y-58965500D03*
%TD*%
D18*
%TO.C,U2*%
X53083000Y-55815000D03*
X51813000Y-55815000D03*
X50543000Y-55815000D03*
X49273000Y-55815000D03*
X49273000Y-50865000D03*
X50543000Y-50865000D03*
X51813000Y-50865000D03*
X53083000Y-50865000D03*
%TD*%
M02*
