M48
; DRILL file {KiCad (6.0.0-0)} date Tuesday, December 06, 2022 at 12:22:32 AM
; FORMAT={-:-/ absolute / inch / decimal}
; #@! TF.CreationDate,2022-12-06T00:22:32-05:00
; #@! TF.GenerationSoftware,Kicad,Pcbnew,(6.0.0-0)
; #@! TF.FileFunction,Plated,1,2,PTH
FMAT,2
INCH
; #@! TA.AperFunction,Plated,PTH,ComponentDrill
T1C0.0394
; #@! TA.AperFunction,Plated,PTH,ComponentDrill
T2C0.0512
%
G90
G05
T1
X4.1183Y-4.5349
X4.1183Y-4.6349
X4.1183Y-4.7349
X4.1188Y-4.8747
X4.1188Y-4.9747
X4.1188Y-5.0747
X4.1188Y-5.1747
X4.1188Y-5.2747
X4.2138Y-4.1814
X4.2138Y-4.2814
X4.214Y-2.4123
X4.214Y-2.5123
X4.2183Y-4.5349
X4.2183Y-4.6349
X4.2183Y-4.7349
X4.2188Y-4.8747
X4.2188Y-4.9747
X4.2188Y-5.0747
X4.2188Y-5.1747
X4.2188Y-5.2747
X4.265Y-3.0124
X4.265Y-3.1124
X4.265Y-3.2124
X4.265Y-3.3124
X4.265Y-3.4124
X4.265Y-3.5124
X4.265Y-3.6124
X4.265Y-3.7124
X4.3138Y-4.1814
X4.3138Y-4.2814
X4.314Y-2.4123
X4.314Y-2.5123
X4.365Y-3.0124
X4.365Y-3.1124
X4.365Y-3.2124
X4.365Y-3.3124
X4.365Y-3.4124
X4.365Y-3.5124
X4.365Y-3.6124
X4.365Y-3.7124
X4.4138Y-4.1814
X4.4138Y-4.2814
X4.414Y-2.4123
X4.414Y-2.5123
X4.5138Y-4.1814
X4.5138Y-4.2814
X4.514Y-2.4123
X4.514Y-2.5123
X4.6138Y-4.1814
X4.6138Y-4.2814
X4.614Y-2.4123
X4.614Y-2.5123
X4.7127Y-4.5953
X4.7127Y-4.6953
X4.7537Y-4.0799
X4.7537Y-4.1799
X4.7537Y-4.2799
X4.7538Y-2.4118
X4.7538Y-2.5118
X4.7934Y-3.0062
X4.7934Y-3.1062
X4.7934Y-3.2062
X4.7934Y-3.3062
X4.7934Y-3.4062
X4.7934Y-3.5062
X4.7934Y-3.6062
X4.7934Y-3.7062
X4.8127Y-4.5953
X4.8127Y-4.6953
X4.8537Y-4.0799
X4.8537Y-4.1799
X4.8537Y-4.2799
X4.8538Y-2.4118
X4.8538Y-2.5118
X4.8934Y-3.0062
X4.8934Y-3.1062
X4.8934Y-3.2062
X4.8934Y-3.3062
X4.8934Y-3.4062
X4.8934Y-3.5062
X4.8934Y-3.6062
X4.8934Y-3.7062
X4.9127Y-4.5953
X4.9127Y-4.6953
X4.9537Y-4.0799
X4.9537Y-4.1799
X4.9537Y-4.2799
X4.9538Y-2.4118
X4.9538Y-2.5118
X5.0127Y-4.5953
X5.0127Y-4.6953
X5.1127Y-4.5953
X5.1127Y-4.6953
X5.2125Y-4.1806
X5.2125Y-4.2806
X5.2126Y-2.4125
X5.2126Y-2.5125
X5.2126Y-2.6125
X5.2127Y-4.5953
X5.2127Y-4.6953
X5.2729Y-2.9862
X5.2729Y-3.0862
X5.2729Y-3.1862
X5.2729Y-3.2862
X5.2729Y-3.3862
X5.2729Y-3.4862
X5.2729Y-3.5862
X5.2729Y-3.6862
X5.3125Y-4.1806
X5.3125Y-4.2806
X5.3126Y-2.4125
X5.3126Y-2.5125
X5.3126Y-2.6125
X5.3127Y-4.5953
X5.3127Y-4.6953
X5.3729Y-2.9862
X5.3729Y-3.0862
X5.3729Y-3.1862
X5.3729Y-3.2862
X5.3729Y-3.3862
X5.3729Y-3.4862
X5.3729Y-3.5862
X5.3729Y-3.6862
X5.4125Y-4.1806
X5.4125Y-4.2806
X5.4126Y-2.4125
X5.4126Y-2.5125
X5.4126Y-2.6125
X5.4127Y-4.5953
X5.4127Y-4.6953
X5.5523Y-4.1801
X5.5523Y-4.2801
X5.5525Y-2.411
X5.5525Y-2.511
X5.6523Y-4.1801
X5.6523Y-4.2801
X5.6525Y-2.411
X5.6525Y-2.511
X5.7523Y-4.1801
X5.7523Y-4.2801
X5.7525Y-2.411
X5.7525Y-2.511
X5.7864Y-4.535
X5.7864Y-4.635
X5.7864Y-4.735
X5.8013Y-2.98
X5.8013Y-3.08
X5.8013Y-3.18
X5.8013Y-3.28
X5.8013Y-3.38
X5.8013Y-3.48
X5.8013Y-3.58
X5.8013Y-3.68
X5.8523Y-4.1801
X5.8523Y-4.2801
X5.8525Y-2.411
X5.8525Y-2.511
X5.8864Y-4.535
X5.8864Y-4.635
X5.8864Y-4.735
X5.8879Y-4.8749
X5.8879Y-4.9749
X5.8879Y-5.0749
X5.8879Y-5.1749
X5.8879Y-5.2749
X5.9013Y-2.98
X5.9013Y-3.08
X5.9013Y-3.18
X5.9013Y-3.28
X5.9013Y-3.38
X5.9013Y-3.48
X5.9013Y-3.58
X5.9013Y-3.68
X5.9523Y-4.1801
X5.9523Y-4.2801
X5.9525Y-2.411
X5.9525Y-2.511
X5.9864Y-4.535
X5.9864Y-4.635
X5.9864Y-4.735
X5.9879Y-4.8749
X5.9879Y-4.9749
X5.9879Y-5.0749
X5.9879Y-5.1749
X5.9879Y-5.2749
X6.71Y-2.98
X6.71Y-3.08
X6.71Y-3.18
X6.71Y-3.28
X6.71Y-3.38
X6.71Y-3.48
X6.71Y-3.58
X6.71Y-3.68
X6.81Y-2.98
X6.81Y-3.08
X6.81Y-3.18
X6.81Y-3.28
X6.81Y-3.38
X6.81Y-3.48
X6.81Y-3.58
X6.81Y-3.68
T2
X4.119Y-3.0718
X4.119Y-3.2687
X4.119Y-3.4655
X4.119Y-3.6624
X6.0473Y-3.03
X6.0473Y-3.2269
X6.0473Y-3.4237
X6.0473Y-3.6206
X6.9561Y-3.03
X6.9561Y-3.2269
X6.9561Y-3.4237
X6.9561Y-3.6206
T0
M30
