%TF.GenerationSoftware,KiCad,Pcbnew,(6.0.0-0)*%
%TF.CreationDate,2022-12-06T00:22:27-05:00*%
%TF.ProjectId,Breakout-Eurorack-Power-Breadboard,42726561-6b6f-4757-942d-4575726f7261,rev?*%
%TF.SameCoordinates,Original*%
%TF.FileFunction,Soldermask,Bot*%
%TF.FilePolarity,Negative*%
%FSLAX46Y46*%
G04 Gerber Fmt 4.6, Leading zero omitted, Abs format (unit mm)*
G04 Created by KiCad (PCBNEW (6.0.0-0)) date 2022-12-06 00:22:27*
%MOMM*%
%LPD*%
G01*
G04 APERTURE LIST*
G04 Aperture macros list*
%AMRoundRect*
0 Rectangle with rounded corners*
0 $1 Rounding radius*
0 $2 $3 $4 $5 $6 $7 $8 $9 X,Y pos of 4 corners*
0 Add a 4 corners polygon primitive as box body*
4,1,4,$2,$3,$4,$5,$6,$7,$8,$9,$2,$3,0*
0 Add four circle primitives for the rounded corners*
1,1,$1+$1,$2,$3*
1,1,$1+$1,$4,$5*
1,1,$1+$1,$6,$7*
1,1,$1+$1,$8,$9*
0 Add four rect primitives between the rounded corners*
20,1,$1+$1,$2,$3,$4,$5,0*
20,1,$1+$1,$4,$5,$6,$7,0*
20,1,$1+$1,$6,$7,$8,$9,0*
20,1,$1+$1,$8,$9,$2,$3,0*%
G04 Aperture macros list end*
%ADD10C,0.500000*%
%ADD11R,2.600000X2.600000*%
%ADD12C,2.600000*%
%ADD13O,1.700000X1.700000*%
%ADD14R,1.700000X1.700000*%
%ADD15RoundRect,0.250000X0.600000X0.600000X-0.600000X0.600000X-0.600000X-0.600000X0.600000X-0.600000X0*%
%ADD16C,1.700000*%
%ADD17RoundRect,0.250000X-0.600000X0.600000X-0.600000X-0.600000X0.600000X-0.600000X0.600000X0.600000X0*%
%ADD18RoundRect,0.250000X-0.600000X-0.600000X0.600000X-0.600000X0.600000X0.600000X-0.600000X0.600000X0*%
G04 APERTURE END LIST*
D10*
%TO.C,mouse-bite-2mm-slot*%
X165612000Y-85362000D03*
X165612000Y-83862000D03*
X164112000Y-84612000D03*
X164112000Y-85362000D03*
X165612000Y-84612000D03*
X164112000Y-83862000D03*
%TD*%
%TO.C,mouse-bite-2mm-slot*%
X114427000Y-112651000D03*
X115927000Y-112651000D03*
X115177000Y-111151000D03*
X114427000Y-111151000D03*
X115177000Y-112651000D03*
X115927000Y-111151000D03*
%TD*%
D11*
%TO.C,J8*%
X176684000Y-76962000D03*
D12*
X176684000Y-81962000D03*
X176684000Y-86962000D03*
X176684000Y-91962000D03*
%TD*%
D13*
%TO.C,J2*%
X149553000Y-133983000D03*
X152093000Y-133983000D03*
X149553000Y-131443000D03*
X152093000Y-131443000D03*
X149553000Y-128903000D03*
X152093000Y-128903000D03*
X149553000Y-126363000D03*
X152093000Y-126363000D03*
X149553000Y-123823000D03*
D14*
X152093000Y-123823000D03*
%TD*%
D15*
%TO.C,J7*%
X172974000Y-93472000D03*
D16*
X170434000Y-93472000D03*
X172974000Y-90932000D03*
X170434000Y-90932000D03*
X172974000Y-88392000D03*
X170434000Y-88392000D03*
X172974000Y-85852000D03*
X170434000Y-85852000D03*
X172974000Y-83312000D03*
X170434000Y-83312000D03*
X172974000Y-80772000D03*
X170434000Y-80772000D03*
X172974000Y-78232000D03*
X170434000Y-78232000D03*
X172974000Y-75692000D03*
X170434000Y-75692000D03*
%TD*%
D14*
%TO.C,J6*%
X146975000Y-115189000D03*
D13*
X146975000Y-117729000D03*
X146975000Y-120269000D03*
%TD*%
D10*
%TO.C,mouse-bite-2mm-slot*%
X142427000Y-112651000D03*
X143927000Y-112651000D03*
X143177000Y-111151000D03*
X142427000Y-111151000D03*
X143177000Y-112651000D03*
X143927000Y-111151000D03*
%TD*%
D14*
%TO.C,J3*%
X107158000Y-123818000D03*
D13*
X104618000Y-123818000D03*
X107158000Y-126358000D03*
X104618000Y-126358000D03*
X107158000Y-128898000D03*
X104618000Y-128898000D03*
X107158000Y-131438000D03*
X104618000Y-131438000D03*
X107158000Y-133978000D03*
X104618000Y-133978000D03*
%TD*%
D17*
%TO.C,J1*%
X137483000Y-116720500D03*
D16*
X137483000Y-119260500D03*
X134943000Y-116720500D03*
X134943000Y-119260500D03*
X132403000Y-116720500D03*
X132403000Y-119260500D03*
X129863000Y-116720500D03*
X129863000Y-119260500D03*
X127323000Y-116720500D03*
X127323000Y-119260500D03*
X124783000Y-116720500D03*
X124783000Y-119260500D03*
X122243000Y-116720500D03*
X122243000Y-119260500D03*
X119703000Y-116720500D03*
X119703000Y-119260500D03*
%TD*%
D14*
%TO.C,J4*%
X104605000Y-115187000D03*
D13*
X107145000Y-115187000D03*
X104605000Y-117727000D03*
X107145000Y-117727000D03*
X104605000Y-120267000D03*
X107145000Y-120267000D03*
%TD*%
D14*
%TO.C,J5*%
X149515000Y-115189000D03*
D13*
X152055000Y-115189000D03*
X149515000Y-117729000D03*
X152055000Y-117729000D03*
X149515000Y-120269000D03*
X152055000Y-120269000D03*
%TD*%
D10*
%TO.C,mouse-bite-2mm-slot*%
X128362000Y-68827000D03*
X128362000Y-70327000D03*
X129862000Y-69577000D03*
X129862000Y-68827000D03*
X128362000Y-69577000D03*
X129862000Y-70327000D03*
%TD*%
%TO.C,mouse-bite-2mm-slot*%
X128362000Y-99827000D03*
X128362000Y-101327000D03*
X129862000Y-100577000D03*
X129862000Y-99827000D03*
X128362000Y-100577000D03*
X129862000Y-101327000D03*
%TD*%
%TO.C,mouse-bite-2mm-slot*%
X142530000Y-85362000D03*
X142530000Y-83862000D03*
X141030000Y-84612000D03*
X141030000Y-85362000D03*
X142530000Y-84612000D03*
X141030000Y-83862000D03*
%TD*%
D15*
%TO.C,J7*%
X149892000Y-93472000D03*
D16*
X147352000Y-93472000D03*
X149892000Y-90932000D03*
X147352000Y-90932000D03*
X149892000Y-88392000D03*
X147352000Y-88392000D03*
X149892000Y-85852000D03*
X147352000Y-85852000D03*
X149892000Y-83312000D03*
X147352000Y-83312000D03*
X149892000Y-80772000D03*
X147352000Y-80772000D03*
X149892000Y-78232000D03*
X147352000Y-78232000D03*
X149892000Y-75692000D03*
X147352000Y-75692000D03*
%TD*%
D18*
%TO.C,J1*%
X133931500Y-75849000D03*
D16*
X136471500Y-75849000D03*
X133931500Y-78389000D03*
X136471500Y-78389000D03*
X133931500Y-80929000D03*
X136471500Y-80929000D03*
X133931500Y-83469000D03*
X136471500Y-83469000D03*
X133931500Y-86009000D03*
X136471500Y-86009000D03*
X133931500Y-88549000D03*
X136471500Y-88549000D03*
X133931500Y-91089000D03*
X136471500Y-91089000D03*
X133931500Y-93629000D03*
X136471500Y-93629000D03*
%TD*%
D14*
%TO.C,J6*%
X132400000Y-66357000D03*
D13*
X134940000Y-66357000D03*
X137480000Y-66357000D03*
%TD*%
D14*
%TO.C,J4*%
X132398000Y-108727000D03*
D13*
X132398000Y-106187000D03*
X134938000Y-108727000D03*
X134938000Y-106187000D03*
X137478000Y-108727000D03*
X137478000Y-106187000D03*
%TD*%
D14*
%TO.C,J3*%
X141029000Y-106174000D03*
D13*
X141029000Y-108714000D03*
X143569000Y-106174000D03*
X143569000Y-108714000D03*
X146109000Y-106174000D03*
X146109000Y-108714000D03*
X148649000Y-106174000D03*
X148649000Y-108714000D03*
X151189000Y-106174000D03*
X151189000Y-108714000D03*
%TD*%
D11*
%TO.C,J8*%
X153602000Y-76962000D03*
D12*
X153602000Y-81962000D03*
X153602000Y-86962000D03*
X153602000Y-91962000D03*
%TD*%
D14*
%TO.C,J2*%
X141034000Y-61239000D03*
D13*
X141034000Y-63779000D03*
X143574000Y-61239000D03*
X143574000Y-63779000D03*
X146114000Y-61239000D03*
X146114000Y-63779000D03*
X148654000Y-61239000D03*
X148654000Y-63779000D03*
X151194000Y-61239000D03*
X151194000Y-63779000D03*
%TD*%
D14*
%TO.C,J5*%
X132400000Y-63817000D03*
D13*
X132400000Y-61277000D03*
X134940000Y-63817000D03*
X134940000Y-61277000D03*
X137480000Y-63817000D03*
X137480000Y-61277000D03*
%TD*%
D10*
%TO.C,mouse-bite-2mm-slot*%
X115694000Y-85374000D03*
X117194000Y-86124000D03*
X115694000Y-84624000D03*
X115694000Y-86124000D03*
X117194000Y-84624000D03*
X117194000Y-85374000D03*
%TD*%
D11*
%TO.C,J8*%
X104622000Y-93024000D03*
D12*
X104622000Y-88024000D03*
X104622000Y-83024000D03*
X104622000Y-78024000D03*
%TD*%
D16*
%TO.C,J7*%
X110872000Y-94294000D03*
X110872000Y-91754000D03*
X110872000Y-89214000D03*
X110872000Y-86674000D03*
X110872000Y-84134000D03*
X110872000Y-81594000D03*
X110872000Y-79054000D03*
X110872000Y-76514000D03*
X108332000Y-94294000D03*
X108332000Y-91754000D03*
X108332000Y-89214000D03*
X108332000Y-86674000D03*
X108332000Y-84134000D03*
X108332000Y-81594000D03*
X108332000Y-79054000D03*
D18*
X108332000Y-76514000D03*
%TD*%
D13*
%TO.C,J5*%
X120744000Y-108709000D03*
X120744000Y-106169000D03*
X123284000Y-108709000D03*
X123284000Y-106169000D03*
X125824000Y-108709000D03*
D14*
X125824000Y-106169000D03*
%TD*%
%TO.C,J6*%
X125824000Y-103629000D03*
D13*
X123284000Y-103629000D03*
X120744000Y-103629000D03*
%TD*%
D14*
%TO.C,J4*%
X125826000Y-61259000D03*
D13*
X125826000Y-63799000D03*
X123286000Y-61259000D03*
X123286000Y-63799000D03*
X120746000Y-61259000D03*
X120746000Y-63799000D03*
%TD*%
D14*
%TO.C,J3*%
X117195000Y-63812000D03*
D13*
X117195000Y-61272000D03*
X114655000Y-63812000D03*
X114655000Y-61272000D03*
X112115000Y-63812000D03*
X112115000Y-61272000D03*
X109575000Y-63812000D03*
X109575000Y-61272000D03*
X107035000Y-63812000D03*
X107035000Y-61272000D03*
%TD*%
D14*
%TO.C,J2*%
X117190000Y-108747000D03*
D13*
X117190000Y-106207000D03*
X114650000Y-108747000D03*
X114650000Y-106207000D03*
X112110000Y-108747000D03*
X112110000Y-106207000D03*
X109570000Y-108747000D03*
X109570000Y-106207000D03*
X107030000Y-108747000D03*
X107030000Y-106207000D03*
%TD*%
D16*
%TO.C,J1*%
X121752500Y-76357000D03*
X121752500Y-78897000D03*
X121752500Y-81437000D03*
X121752500Y-83977000D03*
X121752500Y-86517000D03*
X121752500Y-89057000D03*
X121752500Y-91597000D03*
X121752500Y-94137000D03*
X124292500Y-76357000D03*
X124292500Y-78897000D03*
X124292500Y-81437000D03*
X124292500Y-83977000D03*
X124292500Y-86517000D03*
X124292500Y-89057000D03*
X124292500Y-91597000D03*
D15*
X124292500Y-94137000D03*
%TD*%
M02*
