M48
; DRILL file {KiCad (6.0.0-0)} date Tuesday, December 06, 2022 at 12:22:32 AM
; FORMAT={-:-/ absolute / inch / decimal}
; #@! TF.CreationDate,2022-12-06T00:22:32-05:00
; #@! TF.GenerationSoftware,Kicad,Pcbnew,(6.0.0-0)
; #@! TF.FileFunction,NonPlated,1,2,NPTH
FMAT,2
INCH
; #@! TA.AperFunction,NonPlated,NPTH,ComponentDrill
T1C0.0197
%
G90
G05
T1
X4.505Y-4.376
X4.505Y-4.4351
X4.5345Y-4.376
X4.5345Y-4.4351
X4.5549Y-3.3317
X4.5549Y-3.3612
X4.5549Y-3.3907
X4.5641Y-4.376
X4.5641Y-4.4351
X4.6139Y-3.3317
X4.6139Y-3.3612
X4.6139Y-3.3907
X5.0536Y-2.7097
X5.0536Y-2.7393
X5.0536Y-2.7688
X5.0536Y-3.9302
X5.0536Y-3.9597
X5.0536Y-3.9893
X5.1127Y-2.7097
X5.1127Y-2.7393
X5.1127Y-2.7688
X5.1127Y-3.9302
X5.1127Y-3.9597
X5.1127Y-3.9893
X5.5524Y-3.3017
X5.5524Y-3.3312
X5.5524Y-3.3607
X5.6074Y-4.376
X5.6074Y-4.4351
X5.6114Y-3.3017
X5.6114Y-3.3312
X5.6114Y-3.3607
X5.6369Y-4.376
X5.6369Y-4.4351
X5.6664Y-4.376
X5.6664Y-4.4351
X6.4611Y-3.3017
X6.4611Y-3.3312
X6.4611Y-3.3607
X6.5202Y-3.3017
X6.5202Y-3.3312
X6.5202Y-3.3607
T0
M30
