%TF.GenerationSoftware,KiCad,Pcbnew,(6.0.0-0)*%
%TF.CreationDate,2022-11-22T11:37:48-05:00*%
%TF.ProjectId,Breakout-Potentiometer-Panel,42726561-6b6f-4757-942d-506f74656e74,rev?*%
%TF.SameCoordinates,Original*%
%TF.FileFunction,Legend,Top*%
%TF.FilePolarity,Positive*%
%FSLAX46Y46*%
G04 Gerber Fmt 4.6, Leading zero omitted, Abs format (unit mm)*
G04 Created by KiCad (PCBNEW (6.0.0-0)) date 2022-11-22 11:37:48*
%MOMM*%
%LPD*%
G01*
G04 APERTURE LIST*
%ADD10C,0.120000*%
G04 APERTURE END LIST*
D10*
%TO.C,RV14*%
X109620000Y-120294000D02*
X109620000Y-115574000D01*
X116160000Y-120294000D02*
X115330000Y-120294000D01*
X119370000Y-111764000D02*
X119370000Y-108704000D01*
X113710000Y-120294000D02*
X113180000Y-120294000D01*
X119370000Y-108704000D02*
X109630000Y-108704000D01*
X110810000Y-120294000D02*
X109630000Y-120294000D01*
X109630000Y-111764000D02*
X109630000Y-108704000D01*
X119370000Y-120294000D02*
X119370000Y-115574000D01*
X119370000Y-120294000D02*
X117880000Y-120294000D01*
%TO.C,RV3*%
X131160000Y-72294000D02*
X130330000Y-72294000D01*
X124620000Y-72294000D02*
X124620000Y-67574000D01*
X134370000Y-63764000D02*
X134370000Y-60704000D01*
X134370000Y-72294000D02*
X134370000Y-67574000D01*
X125810000Y-72294000D02*
X124630000Y-72294000D01*
X134370000Y-60704000D02*
X124630000Y-60704000D01*
X134370000Y-72294000D02*
X132880000Y-72294000D01*
X124630000Y-63764000D02*
X124630000Y-60704000D01*
X128710000Y-72294000D02*
X128180000Y-72294000D01*
%TO.C,RV15*%
X134370000Y-111764000D02*
X134370000Y-108704000D01*
X134370000Y-120294000D02*
X132880000Y-120294000D01*
X124630000Y-111764000D02*
X124630000Y-108704000D01*
X125810000Y-120294000D02*
X124630000Y-120294000D01*
X134370000Y-120294000D02*
X134370000Y-115574000D01*
X124620000Y-120294000D02*
X124620000Y-115574000D01*
X134370000Y-108704000D02*
X124630000Y-108704000D01*
X131160000Y-120294000D02*
X130330000Y-120294000D01*
X128710000Y-120294000D02*
X128180000Y-120294000D01*
%TO.C,RV1*%
X98710000Y-72294000D02*
X98180000Y-72294000D01*
X104370000Y-60704000D02*
X94630000Y-60704000D01*
X104370000Y-72294000D02*
X102880000Y-72294000D01*
X94620000Y-72294000D02*
X94620000Y-67574000D01*
X104370000Y-63764000D02*
X104370000Y-60704000D01*
X101160000Y-72294000D02*
X100330000Y-72294000D01*
X94630000Y-63764000D02*
X94630000Y-60704000D01*
X95810000Y-72294000D02*
X94630000Y-72294000D01*
X104370000Y-72294000D02*
X104370000Y-67574000D01*
%TO.C,RV11*%
X154620000Y-96294000D02*
X154620000Y-91574000D01*
X155810000Y-96294000D02*
X154630000Y-96294000D01*
X164370000Y-84704000D02*
X154630000Y-84704000D01*
X158710000Y-96294000D02*
X158180000Y-96294000D01*
X154630000Y-87764000D02*
X154630000Y-84704000D01*
X164370000Y-87764000D02*
X164370000Y-84704000D01*
X164370000Y-96294000D02*
X164370000Y-91574000D01*
X161160000Y-96294000D02*
X160330000Y-96294000D01*
X164370000Y-96294000D02*
X162880000Y-96294000D01*
%TO.C,RV17*%
X154630000Y-111764000D02*
X154630000Y-108704000D01*
X164370000Y-108704000D02*
X154630000Y-108704000D01*
X158710000Y-120294000D02*
X158180000Y-120294000D01*
X154620000Y-120294000D02*
X154620000Y-115574000D01*
X164370000Y-120294000D02*
X164370000Y-115574000D01*
X164370000Y-120294000D02*
X162880000Y-120294000D01*
X161160000Y-120294000D02*
X160330000Y-120294000D01*
X164370000Y-111764000D02*
X164370000Y-108704000D01*
X155810000Y-120294000D02*
X154630000Y-120294000D01*
%TO.C,RV7*%
X94630000Y-87764000D02*
X94630000Y-84704000D01*
X104370000Y-84704000D02*
X94630000Y-84704000D01*
X94620000Y-96294000D02*
X94620000Y-91574000D01*
X95810000Y-96294000D02*
X94630000Y-96294000D01*
X101160000Y-96294000D02*
X100330000Y-96294000D01*
X104370000Y-96294000D02*
X102880000Y-96294000D01*
X104370000Y-87764000D02*
X104370000Y-84704000D01*
X98710000Y-96294000D02*
X98180000Y-96294000D01*
X104370000Y-96294000D02*
X104370000Y-91574000D01*
%TO.C,RV12*%
X179370000Y-96294000D02*
X179370000Y-91574000D01*
X179370000Y-87764000D02*
X179370000Y-84704000D01*
X173710000Y-96294000D02*
X173180000Y-96294000D01*
X179370000Y-96294000D02*
X177880000Y-96294000D01*
X179370000Y-84704000D02*
X169630000Y-84704000D01*
X169620000Y-96294000D02*
X169620000Y-91574000D01*
X176160000Y-96294000D02*
X175330000Y-96294000D01*
X170810000Y-96294000D02*
X169630000Y-96294000D01*
X169630000Y-87764000D02*
X169630000Y-84704000D01*
%TO.C,RV6*%
X169630000Y-63764000D02*
X169630000Y-60704000D01*
X169620000Y-72294000D02*
X169620000Y-67574000D01*
X179370000Y-63764000D02*
X179370000Y-60704000D01*
X179370000Y-60704000D02*
X169630000Y-60704000D01*
X179370000Y-72294000D02*
X177880000Y-72294000D01*
X170810000Y-72294000D02*
X169630000Y-72294000D01*
X173710000Y-72294000D02*
X173180000Y-72294000D01*
X179370000Y-72294000D02*
X179370000Y-67574000D01*
X176160000Y-72294000D02*
X175330000Y-72294000D01*
%TO.C,RV9*%
X128710000Y-96294000D02*
X128180000Y-96294000D01*
X134370000Y-84704000D02*
X124630000Y-84704000D01*
X134370000Y-87764000D02*
X134370000Y-84704000D01*
X134370000Y-96294000D02*
X134370000Y-91574000D01*
X134370000Y-96294000D02*
X132880000Y-96294000D01*
X131160000Y-96294000D02*
X130330000Y-96294000D01*
X125810000Y-96294000D02*
X124630000Y-96294000D01*
X124620000Y-96294000D02*
X124620000Y-91574000D01*
X124630000Y-87764000D02*
X124630000Y-84704000D01*
%TO.C,RV18*%
X169630000Y-111764000D02*
X169630000Y-108704000D01*
X176160000Y-120294000D02*
X175330000Y-120294000D01*
X170810000Y-120294000D02*
X169630000Y-120294000D01*
X179370000Y-120294000D02*
X179370000Y-115574000D01*
X179370000Y-108704000D02*
X169630000Y-108704000D01*
X179370000Y-111764000D02*
X179370000Y-108704000D01*
X179370000Y-120294000D02*
X177880000Y-120294000D01*
X173710000Y-120294000D02*
X173180000Y-120294000D01*
X169620000Y-120294000D02*
X169620000Y-115574000D01*
%TO.C,RV2*%
X109630000Y-63764000D02*
X109630000Y-60704000D01*
X119370000Y-60704000D02*
X109630000Y-60704000D01*
X119370000Y-63764000D02*
X119370000Y-60704000D01*
X119370000Y-72294000D02*
X117880000Y-72294000D01*
X113710000Y-72294000D02*
X113180000Y-72294000D01*
X116160000Y-72294000D02*
X115330000Y-72294000D01*
X110810000Y-72294000D02*
X109630000Y-72294000D01*
X119370000Y-72294000D02*
X119370000Y-67574000D01*
X109620000Y-72294000D02*
X109620000Y-67574000D01*
%TO.C,RV5*%
X154630000Y-63764000D02*
X154630000Y-60704000D01*
X164370000Y-63764000D02*
X164370000Y-60704000D01*
X164370000Y-72294000D02*
X164370000Y-67574000D01*
X158710000Y-72294000D02*
X158180000Y-72294000D01*
X164370000Y-60704000D02*
X154630000Y-60704000D01*
X161160000Y-72294000D02*
X160330000Y-72294000D01*
X155810000Y-72294000D02*
X154630000Y-72294000D01*
X154620000Y-72294000D02*
X154620000Y-67574000D01*
X164370000Y-72294000D02*
X162880000Y-72294000D01*
%TO.C,RV10*%
X149370000Y-96294000D02*
X149370000Y-91574000D01*
X149370000Y-96294000D02*
X147880000Y-96294000D01*
X143710000Y-96294000D02*
X143180000Y-96294000D01*
X139630000Y-87764000D02*
X139630000Y-84704000D01*
X139620000Y-96294000D02*
X139620000Y-91574000D01*
X149370000Y-87764000D02*
X149370000Y-84704000D01*
X149370000Y-84704000D02*
X139630000Y-84704000D01*
X140810000Y-96294000D02*
X139630000Y-96294000D01*
X146160000Y-96294000D02*
X145330000Y-96294000D01*
%TO.C,RV4*%
X149370000Y-72294000D02*
X147880000Y-72294000D01*
X139630000Y-63764000D02*
X139630000Y-60704000D01*
X149370000Y-63764000D02*
X149370000Y-60704000D01*
X139620000Y-72294000D02*
X139620000Y-67574000D01*
X149370000Y-60704000D02*
X139630000Y-60704000D01*
X146160000Y-72294000D02*
X145330000Y-72294000D01*
X149370000Y-72294000D02*
X149370000Y-67574000D01*
X140810000Y-72294000D02*
X139630000Y-72294000D01*
X143710000Y-72294000D02*
X143180000Y-72294000D01*
%TO.C,RV13*%
X101160000Y-120294000D02*
X100330000Y-120294000D01*
X98710000Y-120294000D02*
X98180000Y-120294000D01*
X104370000Y-120294000D02*
X102880000Y-120294000D01*
X104370000Y-120294000D02*
X104370000Y-115574000D01*
X94620000Y-120294000D02*
X94620000Y-115574000D01*
X104370000Y-108704000D02*
X94630000Y-108704000D01*
X104370000Y-111764000D02*
X104370000Y-108704000D01*
X95810000Y-120294000D02*
X94630000Y-120294000D01*
X94630000Y-111764000D02*
X94630000Y-108704000D01*
%TO.C,RV16*%
X146160000Y-120294000D02*
X145330000Y-120294000D01*
X149370000Y-120294000D02*
X149370000Y-115574000D01*
X139630000Y-111764000D02*
X139630000Y-108704000D01*
X143710000Y-120294000D02*
X143180000Y-120294000D01*
X149370000Y-111764000D02*
X149370000Y-108704000D01*
X149370000Y-108704000D02*
X139630000Y-108704000D01*
X140810000Y-120294000D02*
X139630000Y-120294000D01*
X149370000Y-120294000D02*
X147880000Y-120294000D01*
X139620000Y-120294000D02*
X139620000Y-115574000D01*
%TO.C,RV8*%
X109630000Y-87764000D02*
X109630000Y-84704000D01*
X113710000Y-96294000D02*
X113180000Y-96294000D01*
X119370000Y-84704000D02*
X109630000Y-84704000D01*
X119370000Y-96294000D02*
X119370000Y-91574000D01*
X110810000Y-96294000D02*
X109630000Y-96294000D01*
X119370000Y-87764000D02*
X119370000Y-84704000D01*
X119370000Y-96294000D02*
X117880000Y-96294000D01*
X116160000Y-96294000D02*
X115330000Y-96294000D01*
X109620000Y-96294000D02*
X109620000Y-91574000D01*
%TD*%
M02*
