M48
; DRILL file {KiCad (6.0.0-0)} date Tuesday, November 22, 2022 at 11:37:54 AM
; FORMAT={-:-/ absolute / inch / decimal}
; #@! TF.CreationDate,2022-11-22T11:37:54-05:00
; #@! TF.GenerationSoftware,Kicad,Pcbnew,(6.0.0-0)
; #@! TF.FileFunction,Plated,1,2,PTH
FMAT,2
INCH
; #@! TA.AperFunction,Plated,PTH,ComponentDrill
T1C0.0394
; #@! TA.AperFunction,Plated,PTH,ComponentDrill
T2C0.0433
; #@! TA.AperFunction,Plated,PTH,ComponentDrill
T3C0.0472
%
G90
G05
T1
X3.8179Y-2.2809
X3.8179Y-2.9809
X3.8179Y-3.2257
X3.8179Y-3.9257
X3.8179Y-4.1706
X3.8179Y-4.8706
X3.9179Y-2.2809
X3.9179Y-2.9809
X3.9179Y-3.2257
X3.9179Y-3.9257
X3.9179Y-4.1706
X3.9179Y-4.8706
X4.0179Y-2.2809
X4.0179Y-2.9809
X4.0179Y-3.2257
X4.0179Y-3.9257
X4.0179Y-4.1706
X4.0179Y-4.8706
X4.4085Y-2.2809
X4.4085Y-2.9809
X4.4085Y-3.2257
X4.4085Y-3.9257
X4.4085Y-4.1706
X4.4085Y-4.8706
X4.5085Y-2.2809
X4.5085Y-2.9809
X4.5085Y-3.2257
X4.5085Y-3.9257
X4.5085Y-4.1706
X4.5085Y-4.8706
X4.6085Y-2.2809
X4.6085Y-2.9809
X4.6085Y-3.2257
X4.6085Y-3.9257
X4.6085Y-4.1706
X4.6085Y-4.8706
X4.999Y-2.2809
X4.999Y-2.9809
X4.999Y-3.2257
X4.999Y-3.9257
X4.999Y-4.1706
X4.999Y-4.8706
X5.099Y-2.2809
X5.099Y-2.9809
X5.099Y-3.2257
X5.099Y-3.9257
X5.099Y-4.1706
X5.099Y-4.8706
X5.199Y-2.2809
X5.199Y-2.9809
X5.199Y-3.2257
X5.199Y-3.9257
X5.199Y-4.1706
X5.199Y-4.8706
X5.5896Y-2.2809
X5.5896Y-2.9809
X5.5896Y-3.2257
X5.5896Y-3.9257
X5.5896Y-4.1706
X5.5896Y-4.8706
X5.6896Y-2.2809
X5.6896Y-2.9809
X5.6896Y-3.2257
X5.6896Y-3.9257
X5.6896Y-4.1706
X5.6896Y-4.8706
X5.7896Y-2.2809
X5.7896Y-2.9809
X5.7896Y-3.2257
X5.7896Y-3.9257
X5.7896Y-4.1706
X5.7896Y-4.8706
X6.1801Y-2.2809
X6.1801Y-2.9809
X6.1801Y-3.2257
X6.1801Y-3.9257
X6.1801Y-4.1706
X6.1801Y-4.8706
X6.2801Y-2.2809
X6.2801Y-2.9809
X6.2801Y-3.2257
X6.2801Y-3.9257
X6.2801Y-4.1706
X6.2801Y-4.8706
X6.3801Y-2.2809
X6.3801Y-2.9809
X6.3801Y-3.2257
X6.3801Y-3.9257
X6.3801Y-4.1706
X6.3801Y-4.8706
X6.7707Y-2.2809
X6.7707Y-2.9809
X6.7707Y-3.2257
X6.7707Y-3.9257
X6.7707Y-4.1706
X6.7707Y-4.8706
X6.8707Y-2.2809
X6.8707Y-2.9809
X6.8707Y-3.2257
X6.8707Y-3.9257
X6.8707Y-4.1706
X6.8707Y-4.8706
X6.9707Y-2.2809
X6.9707Y-2.9809
X6.9707Y-3.2257
X6.9707Y-3.9257
X6.9707Y-4.1706
X6.9707Y-4.8706
T3
X3.8189Y-2.8809
X3.8189Y-3.8257
X3.8189Y-4.7706
X3.9173Y-2.8809
X3.9173Y-3.8257
X3.9173Y-4.7706
X4.0157Y-2.8809
X4.0157Y-3.8257
X4.0157Y-4.7706
X4.4094Y-2.8809
X4.4094Y-3.8257
X4.4094Y-4.7706
X4.5079Y-2.8809
X4.5079Y-3.8257
X4.5079Y-4.7706
X4.6063Y-2.8809
X4.6063Y-3.8257
X4.6063Y-4.7706
X5.0Y-2.8809
X5.0Y-3.8257
X5.0Y-4.7706
X5.0984Y-2.8809
X5.0984Y-3.8257
X5.0984Y-4.7706
X5.1969Y-2.8809
X5.1969Y-3.8257
X5.1969Y-4.7706
X5.5906Y-2.8809
X5.5906Y-3.8257
X5.5906Y-4.7706
X5.689Y-2.8809
X5.689Y-3.8257
X5.689Y-4.7706
X5.7874Y-2.8809
X5.7874Y-3.8257
X5.7874Y-4.7706
X6.1811Y-2.8809
X6.1811Y-3.8257
X6.1811Y-4.7706
X6.2795Y-2.8809
X6.2795Y-3.8257
X6.2795Y-4.7706
X6.378Y-2.8809
X6.378Y-3.8257
X6.378Y-4.7706
X6.7717Y-2.8809
X6.7717Y-3.8257
X6.7717Y-4.7706
X6.8701Y-2.8809
X6.8701Y-3.8257
X6.8701Y-4.7706
X6.9685Y-2.8809
X6.9685Y-3.8257
X6.9685Y-4.7706
T2
G00X3.7283Y-2.6072
M15
G01X3.7283Y-2.5639
M16
G05
G00X3.7283Y-3.5521
M15
G01X3.7283Y-3.5088
M16
G05
G00X3.7283Y-4.497
M15
G01X3.7283Y-4.4537
M16
G05
G00X4.1063Y-2.5639
M15
G01X4.1063Y-2.6072
M16
G05
G00X4.1063Y-3.5088
M15
G01X4.1063Y-3.5521
M16
G05
G00X4.1063Y-4.4537
M15
G01X4.1063Y-4.497
M16
G05
G00X4.3189Y-2.6072
M15
G01X4.3189Y-2.5639
M16
G05
G00X4.3189Y-3.5521
M15
G01X4.3189Y-3.5088
M16
G05
G00X4.3189Y-4.497
M15
G01X4.3189Y-4.4537
M16
G05
G00X4.6969Y-2.5639
M15
G01X4.6969Y-2.6072
M16
G05
G00X4.6969Y-3.5088
M15
G01X4.6969Y-3.5521
M16
G05
G00X4.6969Y-4.4537
M15
G01X4.6969Y-4.497
M16
G05
G00X4.9094Y-2.6072
M15
G01X4.9094Y-2.5639
M16
G05
G00X4.9094Y-3.5521
M15
G01X4.9094Y-3.5088
M16
G05
G00X4.9094Y-4.497
M15
G01X4.9094Y-4.4537
M16
G05
G00X5.2874Y-2.5639
M15
G01X5.2874Y-2.6072
M16
G05
G00X5.2874Y-3.5088
M15
G01X5.2874Y-3.5521
M16
G05
G00X5.2874Y-4.4537
M15
G01X5.2874Y-4.497
M16
G05
G00X5.5Y-2.6072
M15
G01X5.5Y-2.5639
M16
G05
G00X5.5Y-3.5521
M15
G01X5.5Y-3.5088
M16
G05
G00X5.5Y-4.497
M15
G01X5.5Y-4.4537
M16
G05
G00X5.878Y-2.5639
M15
G01X5.878Y-2.6072
M16
G05
G00X5.878Y-3.5088
M15
G01X5.878Y-3.5521
M16
G05
G00X5.878Y-4.4537
M15
G01X5.878Y-4.497
M16
G05
G00X6.0906Y-2.6072
M15
G01X6.0906Y-2.5639
M16
G05
G00X6.0906Y-3.5521
M15
G01X6.0906Y-3.5088
M16
G05
G00X6.0906Y-4.497
M15
G01X6.0906Y-4.4537
M16
G05
G00X6.4685Y-2.5639
M15
G01X6.4685Y-2.6072
M16
G05
G00X6.4685Y-3.5088
M15
G01X6.4685Y-3.5521
M16
G05
G00X6.4685Y-4.4537
M15
G01X6.4685Y-4.497
M16
G05
G00X6.6811Y-2.6072
M15
G01X6.6811Y-2.5639
M16
G05
G00X6.6811Y-3.5521
M15
G01X6.6811Y-3.5088
M16
G05
G00X6.6811Y-4.497
M15
G01X6.6811Y-4.4537
M16
G05
G00X7.0591Y-2.5639
M15
G01X7.0591Y-2.6072
M16
G05
G00X7.0591Y-3.5088
M15
G01X7.0591Y-3.5521
M16
G05
G00X7.0591Y-4.4537
M15
G01X7.0591Y-4.497
M16
G05
T0
M30
