%TF.GenerationSoftware,KiCad,Pcbnew,(6.0.0-0)*%
%TF.CreationDate,2022-11-09T21:07:36-05:00*%
%TF.ProjectId,POWER_DISTRIBUTION,504f5745-525f-4444-9953-545249425554,rev?*%
%TF.SameCoordinates,Original*%
%TF.FileFunction,Soldermask,Top*%
%TF.FilePolarity,Negative*%
%FSLAX46Y46*%
G04 Gerber Fmt 4.6, Leading zero omitted, Abs format (unit mm)*
G04 Created by KiCad (PCBNEW (6.0.0-0)) date 2022-11-09 21:07:36*
%MOMM*%
%LPD*%
G01*
G04 APERTURE LIST*
G04 Aperture macros list*
%AMRoundRect*
0 Rectangle with rounded corners*
0 $1 Rounding radius*
0 $2 $3 $4 $5 $6 $7 $8 $9 X,Y pos of 4 corners*
0 Add a 4 corners polygon primitive as box body*
4,1,4,$2,$3,$4,$5,$6,$7,$8,$9,$2,$3,0*
0 Add four circle primitives for the rounded corners*
1,1,$1+$1,$2,$3*
1,1,$1+$1,$4,$5*
1,1,$1+$1,$6,$7*
1,1,$1+$1,$8,$9*
0 Add four rect primitives between the rounded corners*
20,1,$1+$1,$2,$3,$4,$5,0*
20,1,$1+$1,$4,$5,$6,$7,0*
20,1,$1+$1,$6,$7,$8,$9,0*
20,1,$1+$1,$8,$9,$2,$3,0*%
G04 Aperture macros list end*
%ADD10C,0.800000*%
%ADD11C,6.000000*%
%ADD12RoundRect,0.250000X0.600000X0.600000X-0.600000X0.600000X-0.600000X-0.600000X0.600000X-0.600000X0*%
%ADD13C,1.700000*%
%ADD14RoundRect,0.250000X-1.500000X-0.550000X1.500000X-0.550000X1.500000X0.550000X-1.500000X0.550000X0*%
%ADD15R,2.600000X2.600000*%
%ADD16C,2.600000*%
%ADD17RoundRect,0.250000X-0.250000X-0.475000X0.250000X-0.475000X0.250000X0.475000X-0.250000X0.475000X0*%
%ADD18R,1.700000X1.700000*%
%ADD19O,1.700000X1.700000*%
%ADD20RoundRect,0.250000X-0.475000X0.250000X-0.475000X-0.250000X0.475000X-0.250000X0.475000X0.250000X0*%
%ADD21RoundRect,0.243750X0.243750X0.456250X-0.243750X0.456250X-0.243750X-0.456250X0.243750X-0.456250X0*%
%ADD22RoundRect,0.250000X-0.262500X-0.450000X0.262500X-0.450000X0.262500X0.450000X-0.262500X0.450000X0*%
G04 APERTURE END LIST*
D10*
%TO.C,REF\u002A\u002A*%
X265750990Y-58994990D03*
D11*
X264160000Y-57404000D03*
D10*
X264160000Y-59654000D03*
X262569010Y-58994990D03*
X266410000Y-57404000D03*
X265750990Y-55813010D03*
X261910000Y-57404000D03*
X262569010Y-55813010D03*
X264160000Y-55154000D03*
%TD*%
D12*
%TO.C,J1*%
X114473856Y-82042000D03*
D13*
X111933856Y-82042000D03*
X114473856Y-79502000D03*
X111933856Y-79502000D03*
X114473856Y-76962000D03*
X111933856Y-76962000D03*
X114473856Y-74422000D03*
X111933856Y-74422000D03*
X114473856Y-71882000D03*
X111933856Y-71882000D03*
X114473856Y-69342000D03*
X111933856Y-69342000D03*
X114473856Y-66802000D03*
X111933856Y-66802000D03*
X114473856Y-64262000D03*
X111933856Y-64262000D03*
%TD*%
D12*
%TO.C,J5*%
X240496032Y-82042000D03*
D13*
X237956032Y-82042000D03*
X240496032Y-79502000D03*
X237956032Y-79502000D03*
X240496032Y-76962000D03*
X237956032Y-76962000D03*
X240496032Y-74422000D03*
X237956032Y-74422000D03*
X240496032Y-71882000D03*
X237956032Y-71882000D03*
X240496032Y-69342000D03*
X237956032Y-69342000D03*
X240496032Y-66802000D03*
X237956032Y-66802000D03*
X240496032Y-64262000D03*
X237956032Y-64262000D03*
%TD*%
D12*
%TO.C,J8*%
X226493568Y-82042000D03*
D13*
X223953568Y-82042000D03*
X226493568Y-79502000D03*
X223953568Y-79502000D03*
X226493568Y-76962000D03*
X223953568Y-76962000D03*
X226493568Y-74422000D03*
X223953568Y-74422000D03*
X226493568Y-71882000D03*
X223953568Y-71882000D03*
X226493568Y-69342000D03*
X223953568Y-69342000D03*
X226493568Y-66802000D03*
X223953568Y-66802000D03*
X226493568Y-64262000D03*
X223953568Y-64262000D03*
%TD*%
D14*
%TO.C,C6*%
X44036000Y-62230000D03*
X49436000Y-62230000D03*
%TD*%
D15*
%TO.C,J13*%
X30226000Y-65786000D03*
D16*
X30226000Y-70866000D03*
X30226000Y-75946000D03*
X30226000Y-81026000D03*
%TD*%
D12*
%TO.C,J3*%
X72466464Y-82042000D03*
D13*
X69926464Y-82042000D03*
X72466464Y-79502000D03*
X69926464Y-79502000D03*
X72466464Y-76962000D03*
X69926464Y-76962000D03*
X72466464Y-74422000D03*
X69926464Y-74422000D03*
X72466464Y-71882000D03*
X69926464Y-71882000D03*
X72466464Y-69342000D03*
X69926464Y-69342000D03*
X72466464Y-66802000D03*
X69926464Y-66802000D03*
X72466464Y-64262000D03*
X69926464Y-64262000D03*
%TD*%
D10*
%TO.C,REF\u002A\u002A*%
X264160000Y-91404000D03*
X264160000Y-86904000D03*
X262569010Y-90744990D03*
X265750990Y-87563010D03*
X262569010Y-87563010D03*
X265750990Y-90744990D03*
X266410000Y-89154000D03*
D11*
X264160000Y-89154000D03*
D10*
X261910000Y-89154000D03*
%TD*%
D17*
%TO.C,C5*%
X45786000Y-66924000D03*
X47686000Y-66924000D03*
%TD*%
D12*
%TO.C,J15*%
X198488640Y-82042000D03*
D13*
X195948640Y-82042000D03*
X198488640Y-79502000D03*
X195948640Y-79502000D03*
X198488640Y-76962000D03*
X195948640Y-76962000D03*
X198488640Y-74422000D03*
X195948640Y-74422000D03*
X198488640Y-71882000D03*
X195948640Y-71882000D03*
X198488640Y-69342000D03*
X195948640Y-69342000D03*
X198488640Y-66802000D03*
X195948640Y-66802000D03*
X198488640Y-64262000D03*
X195948640Y-64262000D03*
%TD*%
D18*
%TO.C,SW1*%
X40386000Y-55372000D03*
D19*
X37846000Y-55372000D03*
%TD*%
D12*
%TO.C,J4*%
X184486176Y-82042000D03*
D13*
X181946176Y-82042000D03*
X184486176Y-79502000D03*
X181946176Y-79502000D03*
X184486176Y-76962000D03*
X181946176Y-76962000D03*
X184486176Y-74422000D03*
X181946176Y-74422000D03*
X184486176Y-71882000D03*
X181946176Y-71882000D03*
X184486176Y-69342000D03*
X181946176Y-69342000D03*
X184486176Y-66802000D03*
X181946176Y-66802000D03*
X184486176Y-64262000D03*
X181946176Y-64262000D03*
%TD*%
D12*
%TO.C,J2*%
X212491104Y-82042000D03*
D13*
X209951104Y-82042000D03*
X212491104Y-79502000D03*
X209951104Y-79502000D03*
X212491104Y-76962000D03*
X209951104Y-76962000D03*
X212491104Y-74422000D03*
X209951104Y-74422000D03*
X212491104Y-71882000D03*
X209951104Y-71882000D03*
X212491104Y-69342000D03*
X209951104Y-69342000D03*
X212491104Y-66802000D03*
X209951104Y-66802000D03*
X212491104Y-64262000D03*
X209951104Y-64262000D03*
%TD*%
D12*
%TO.C,J12*%
X142478784Y-82042000D03*
D13*
X139938784Y-82042000D03*
X142478784Y-79502000D03*
X139938784Y-79502000D03*
X142478784Y-76962000D03*
X139938784Y-76962000D03*
X142478784Y-74422000D03*
X139938784Y-74422000D03*
X142478784Y-71882000D03*
X139938784Y-71882000D03*
X142478784Y-69342000D03*
X139938784Y-69342000D03*
X142478784Y-66802000D03*
X139938784Y-66802000D03*
X142478784Y-64262000D03*
X139938784Y-64262000D03*
%TD*%
D12*
%TO.C,J14*%
X100471392Y-82042000D03*
D13*
X97931392Y-82042000D03*
X100471392Y-79502000D03*
X97931392Y-79502000D03*
X100471392Y-76962000D03*
X97931392Y-76962000D03*
X100471392Y-74422000D03*
X97931392Y-74422000D03*
X100471392Y-71882000D03*
X97931392Y-71882000D03*
X100471392Y-69342000D03*
X97931392Y-69342000D03*
X100471392Y-66802000D03*
X97931392Y-66802000D03*
X100471392Y-64262000D03*
X97931392Y-64262000D03*
%TD*%
D14*
%TO.C,C2*%
X44036000Y-75184000D03*
X49436000Y-75184000D03*
%TD*%
D10*
%TO.C,REF\u002A\u002A*%
X26198000Y-89154000D03*
X28448000Y-86904000D03*
D11*
X28448000Y-89154000D03*
D10*
X28448000Y-91404000D03*
X26857010Y-90744990D03*
X30038990Y-90744990D03*
X30698000Y-89154000D03*
X26857010Y-87563010D03*
X30038990Y-87563010D03*
%TD*%
D20*
%TO.C,C3*%
X42926000Y-82042000D03*
X42926000Y-83942000D03*
%TD*%
D12*
%TO.C,J11*%
X128476320Y-82042000D03*
D13*
X125936320Y-82042000D03*
X128476320Y-79502000D03*
X125936320Y-79502000D03*
X128476320Y-76962000D03*
X125936320Y-76962000D03*
X128476320Y-74422000D03*
X125936320Y-74422000D03*
X128476320Y-71882000D03*
X125936320Y-71882000D03*
X128476320Y-69342000D03*
X125936320Y-69342000D03*
X128476320Y-66802000D03*
X125936320Y-66802000D03*
X128476320Y-64262000D03*
X125936320Y-64262000D03*
%TD*%
D17*
%TO.C,C4*%
X45786000Y-80010000D03*
X47686000Y-80010000D03*
%TD*%
D11*
%TO.C,REF\u002A\u002A*%
X28448000Y-56134000D03*
D10*
X28448000Y-53884000D03*
X28448000Y-58384000D03*
X30038990Y-54543010D03*
X26198000Y-56134000D03*
X30038990Y-57724990D03*
X26857010Y-57724990D03*
X30698000Y-56134000D03*
X26857010Y-54543010D03*
%TD*%
D21*
%TO.C,D1*%
X46149500Y-55372000D03*
X44274500Y-55372000D03*
%TD*%
D12*
%TO.C,J6*%
X58464000Y-82042000D03*
D13*
X55924000Y-82042000D03*
X58464000Y-79502000D03*
X55924000Y-79502000D03*
X58464000Y-76962000D03*
X55924000Y-76962000D03*
X58464000Y-74422000D03*
X55924000Y-74422000D03*
X58464000Y-71882000D03*
X55924000Y-71882000D03*
X58464000Y-69342000D03*
X55924000Y-69342000D03*
X58464000Y-66802000D03*
X55924000Y-66802000D03*
X58464000Y-64262000D03*
X55924000Y-64262000D03*
%TD*%
D12*
%TO.C,J16*%
X254498500Y-82042000D03*
D13*
X251958500Y-82042000D03*
X254498500Y-79502000D03*
X251958500Y-79502000D03*
X254498500Y-76962000D03*
X251958500Y-76962000D03*
X254498500Y-74422000D03*
X251958500Y-74422000D03*
X254498500Y-71882000D03*
X251958500Y-71882000D03*
X254498500Y-69342000D03*
X251958500Y-69342000D03*
X254498500Y-66802000D03*
X251958500Y-66802000D03*
X254498500Y-64262000D03*
X251958500Y-64262000D03*
%TD*%
D12*
%TO.C,J7*%
X170483712Y-82042000D03*
D13*
X167943712Y-82042000D03*
X170483712Y-79502000D03*
X167943712Y-79502000D03*
X170483712Y-76962000D03*
X167943712Y-76962000D03*
X170483712Y-74422000D03*
X167943712Y-74422000D03*
X170483712Y-71882000D03*
X167943712Y-71882000D03*
X170483712Y-69342000D03*
X167943712Y-69342000D03*
X170483712Y-66802000D03*
X167943712Y-66802000D03*
X170483712Y-64262000D03*
X167943712Y-64262000D03*
%TD*%
D12*
%TO.C,J9*%
X156481248Y-82042000D03*
D13*
X153941248Y-82042000D03*
X156481248Y-79502000D03*
X153941248Y-79502000D03*
X156481248Y-76962000D03*
X153941248Y-76962000D03*
X156481248Y-74422000D03*
X153941248Y-74422000D03*
X156481248Y-71882000D03*
X153941248Y-71882000D03*
X156481248Y-69342000D03*
X153941248Y-69342000D03*
X156481248Y-66802000D03*
X153941248Y-66802000D03*
X156481248Y-64262000D03*
X153941248Y-64262000D03*
%TD*%
D22*
%TO.C,R1*%
X48109500Y-55327000D03*
X49934500Y-55327000D03*
%TD*%
D12*
%TO.C,J10*%
X86468928Y-82042000D03*
D13*
X83928928Y-82042000D03*
X86468928Y-79502000D03*
X83928928Y-79502000D03*
X86468928Y-76962000D03*
X83928928Y-76962000D03*
X86468928Y-74422000D03*
X83928928Y-74422000D03*
X86468928Y-71882000D03*
X83928928Y-71882000D03*
X86468928Y-69342000D03*
X83928928Y-69342000D03*
X86468928Y-66802000D03*
X83928928Y-66802000D03*
X86468928Y-64262000D03*
X83928928Y-64262000D03*
%TD*%
M02*
