M48
; DRILL file {KiCad (6.0.0-0)} date Wednesday, November 09, 2022 at 09:07:40 PM
; FORMAT={-:-/ absolute / inch / decimal}
; #@! TF.CreationDate,2022-11-09T21:07:40-05:00
; #@! TF.GenerationSoftware,Kicad,Pcbnew,(6.0.0-0)
; #@! TF.FileFunction,Plated,1,2,PTH
FMAT,2
INCH
; #@! TA.AperFunction,Plated,PTH,ViaDrill
T1C0.0157
; #@! TA.AperFunction,Plated,PTH,ComponentDrill
T2C0.0197
; #@! TA.AperFunction,Plated,PTH,ComponentDrill
T3C0.0394
; #@! TA.AperFunction,Plated,PTH,ComponentDrill
T4C0.0512
; #@! TA.AperFunction,Plated,PTH,ComponentDrill
T5C0.1181
%
G90
G05
T1
X1.69Y-3.37
X1.9448Y-2.6348
X1.95Y-3.15
X1.96Y-2.37
X1.97Y-2.25
X1.97Y-2.89
T2
X1.0314Y-2.21
X1.0314Y-3.51
X1.0574Y-2.1474
X1.0574Y-2.2726
X1.0574Y-3.4474
X1.0574Y-3.5726
X1.12Y-2.1214
X1.12Y-2.2986
X1.12Y-3.4214
X1.12Y-3.5986
X1.1826Y-2.1474
X1.1826Y-2.2726
X1.1826Y-3.4474
X1.1826Y-3.5726
X1.2086Y-2.21
X1.2086Y-3.51
X10.3114Y-2.26
X10.3114Y-3.51
X10.3374Y-2.1974
X10.3374Y-2.3226
X10.3374Y-3.4474
X10.3374Y-3.5726
X10.4Y-2.1714
X10.4Y-2.3486
X10.4Y-3.4214
X10.4Y-3.5986
X10.4626Y-2.1974
X10.4626Y-2.3226
X10.4626Y-3.4474
X10.4626Y-3.5726
X10.4886Y-2.26
X10.4886Y-3.51
T3
X1.49Y-2.18
X1.59Y-2.18
X2.2017Y-2.53
X2.2017Y-2.63
X2.2017Y-2.73
X2.2017Y-2.83
X2.2017Y-2.93
X2.2017Y-3.03
X2.2017Y-3.13
X2.2017Y-3.23
X2.3017Y-2.53
X2.3017Y-2.63
X2.3017Y-2.73
X2.3017Y-2.83
X2.3017Y-2.93
X2.3017Y-3.03
X2.3017Y-3.13
X2.3017Y-3.23
X2.753Y-2.53
X2.753Y-2.63
X2.753Y-2.73
X2.753Y-2.83
X2.753Y-2.93
X2.753Y-3.03
X2.753Y-3.13
X2.753Y-3.23
X2.853Y-2.53
X2.853Y-2.63
X2.853Y-2.73
X2.853Y-2.83
X2.853Y-2.93
X2.853Y-3.03
X2.853Y-3.13
X2.853Y-3.23
X3.3043Y-2.53
X3.3043Y-2.63
X3.3043Y-2.73
X3.3043Y-2.83
X3.3043Y-2.93
X3.3043Y-3.03
X3.3043Y-3.13
X3.3043Y-3.23
X3.4043Y-2.53
X3.4043Y-2.63
X3.4043Y-2.73
X3.4043Y-2.83
X3.4043Y-2.93
X3.4043Y-3.03
X3.4043Y-3.13
X3.4043Y-3.23
X3.8556Y-2.53
X3.8556Y-2.63
X3.8556Y-2.73
X3.8556Y-2.83
X3.8556Y-2.93
X3.8556Y-3.03
X3.8556Y-3.13
X3.8556Y-3.23
X3.9556Y-2.53
X3.9556Y-2.63
X3.9556Y-2.73
X3.9556Y-2.83
X3.9556Y-2.93
X3.9556Y-3.03
X3.9556Y-3.13
X3.9556Y-3.23
X4.4068Y-2.53
X4.4068Y-2.63
X4.4068Y-2.73
X4.4068Y-2.83
X4.4068Y-2.93
X4.4068Y-3.03
X4.4068Y-3.13
X4.4068Y-3.23
X4.5068Y-2.53
X4.5068Y-2.63
X4.5068Y-2.73
X4.5068Y-2.83
X4.5068Y-2.93
X4.5068Y-3.03
X4.5068Y-3.13
X4.5068Y-3.23
X4.9581Y-2.53
X4.9581Y-2.63
X4.9581Y-2.73
X4.9581Y-2.83
X4.9581Y-2.93
X4.9581Y-3.03
X4.9581Y-3.13
X4.9581Y-3.23
X5.0581Y-2.53
X5.0581Y-2.63
X5.0581Y-2.73
X5.0581Y-2.83
X5.0581Y-2.93
X5.0581Y-3.03
X5.0581Y-3.13
X5.0581Y-3.23
X5.5094Y-2.53
X5.5094Y-2.63
X5.5094Y-2.73
X5.5094Y-2.83
X5.5094Y-2.93
X5.5094Y-3.03
X5.5094Y-3.13
X5.5094Y-3.23
X5.6094Y-2.53
X5.6094Y-2.63
X5.6094Y-2.73
X5.6094Y-2.83
X5.6094Y-2.93
X5.6094Y-3.03
X5.6094Y-3.13
X5.6094Y-3.23
X6.0607Y-2.53
X6.0607Y-2.63
X6.0607Y-2.73
X6.0607Y-2.83
X6.0607Y-2.93
X6.0607Y-3.03
X6.0607Y-3.13
X6.0607Y-3.23
X6.1607Y-2.53
X6.1607Y-2.63
X6.1607Y-2.73
X6.1607Y-2.83
X6.1607Y-2.93
X6.1607Y-3.03
X6.1607Y-3.13
X6.1607Y-3.23
X6.612Y-2.53
X6.612Y-2.63
X6.612Y-2.73
X6.612Y-2.83
X6.612Y-2.93
X6.612Y-3.03
X6.612Y-3.13
X6.612Y-3.23
X6.712Y-2.53
X6.712Y-2.63
X6.712Y-2.73
X6.712Y-2.83
X6.712Y-2.93
X6.712Y-3.03
X6.712Y-3.13
X6.712Y-3.23
X7.1632Y-2.53
X7.1632Y-2.63
X7.1632Y-2.73
X7.1632Y-2.83
X7.1632Y-2.93
X7.1632Y-3.03
X7.1632Y-3.13
X7.1632Y-3.23
X7.2632Y-2.53
X7.2632Y-2.63
X7.2632Y-2.73
X7.2632Y-2.83
X7.2632Y-2.93
X7.2632Y-3.03
X7.2632Y-3.13
X7.2632Y-3.23
X7.7145Y-2.53
X7.7145Y-2.63
X7.7145Y-2.73
X7.7145Y-2.83
X7.7145Y-2.93
X7.7145Y-3.03
X7.7145Y-3.13
X7.7145Y-3.23
X7.8145Y-2.53
X7.8145Y-2.63
X7.8145Y-2.73
X7.8145Y-2.83
X7.8145Y-2.93
X7.8145Y-3.03
X7.8145Y-3.13
X7.8145Y-3.23
X8.2658Y-2.53
X8.2658Y-2.63
X8.2658Y-2.73
X8.2658Y-2.83
X8.2658Y-2.93
X8.2658Y-3.03
X8.2658Y-3.13
X8.2658Y-3.23
X8.3658Y-2.53
X8.3658Y-2.63
X8.3658Y-2.73
X8.3658Y-2.83
X8.3658Y-2.93
X8.3658Y-3.03
X8.3658Y-3.13
X8.3658Y-3.23
X8.8171Y-2.53
X8.8171Y-2.63
X8.8171Y-2.73
X8.8171Y-2.83
X8.8171Y-2.93
X8.8171Y-3.03
X8.8171Y-3.13
X8.8171Y-3.23
X8.9171Y-2.53
X8.9171Y-2.63
X8.9171Y-2.73
X8.9171Y-2.83
X8.9171Y-2.93
X8.9171Y-3.03
X8.9171Y-3.13
X8.9171Y-3.23
X9.3683Y-2.53
X9.3683Y-2.63
X9.3683Y-2.73
X9.3683Y-2.83
X9.3683Y-2.93
X9.3683Y-3.03
X9.3683Y-3.13
X9.3683Y-3.23
X9.4683Y-2.53
X9.4683Y-2.63
X9.4683Y-2.73
X9.4683Y-2.83
X9.4683Y-2.93
X9.4683Y-3.03
X9.4683Y-3.13
X9.4683Y-3.23
X9.9196Y-2.53
X9.9196Y-2.63
X9.9196Y-2.73
X9.9196Y-2.83
X9.9196Y-2.93
X9.9196Y-3.03
X9.9196Y-3.13
X9.9196Y-3.23
X10.0196Y-2.53
X10.0196Y-2.63
X10.0196Y-2.73
X10.0196Y-2.83
X10.0196Y-2.93
X10.0196Y-3.03
X10.0196Y-3.13
X10.0196Y-3.23
T4
X1.19Y-2.59
X1.19Y-2.79
X1.19Y-2.99
X1.19Y-3.19
T5
X1.12Y-2.21
X1.12Y-3.51
X10.4Y-2.26
X10.4Y-3.51
T0
M30
