%TF.GenerationSoftware,KiCad,Pcbnew,(6.0.0-0)*%
%TF.CreationDate,2022-12-13T21:11:07-05:00*%
%TF.ProjectId,power-module,706f7765-722d-46d6-9f64-756c652e6b69,rev?*%
%TF.SameCoordinates,Original*%
%TF.FileFunction,Legend,Top*%
%TF.FilePolarity,Positive*%
%FSLAX46Y46*%
G04 Gerber Fmt 4.6, Leading zero omitted, Abs format (unit mm)*
G04 Created by KiCad (PCBNEW (6.0.0-0)) date 2022-12-13 21:11:07*
%MOMM*%
%LPD*%
G01*
G04 APERTURE LIST*
%ADD10C,0.150000*%
%ADD11C,0.200000*%
%ADD12C,0.120000*%
G04 APERTURE END LIST*
D10*
X139382666Y-84399428D02*
X140144571Y-84399428D01*
X141144571Y-84780380D02*
X140573142Y-84780380D01*
X140858857Y-84780380D02*
X140858857Y-83780380D01*
X140763619Y-83923238D01*
X140668380Y-84018476D01*
X140573142Y-84066095D01*
X141525523Y-83875619D02*
X141573142Y-83828000D01*
X141668380Y-83780380D01*
X141906476Y-83780380D01*
X142001714Y-83828000D01*
X142049333Y-83875619D01*
X142096952Y-83970857D01*
X142096952Y-84066095D01*
X142049333Y-84208952D01*
X141477904Y-84780380D01*
X142096952Y-84780380D01*
X140073142Y-78748000D02*
X139977904Y-78700380D01*
X139835047Y-78700380D01*
X139692190Y-78748000D01*
X139596952Y-78843238D01*
X139549333Y-78938476D01*
X139501714Y-79128952D01*
X139501714Y-79271809D01*
X139549333Y-79462285D01*
X139596952Y-79557523D01*
X139692190Y-79652761D01*
X139835047Y-79700380D01*
X139930285Y-79700380D01*
X140073142Y-79652761D01*
X140120761Y-79605142D01*
X140120761Y-79271809D01*
X139930285Y-79271809D01*
X140549333Y-79033714D02*
X140549333Y-79700380D01*
X140549333Y-79128952D02*
X140596952Y-79081333D01*
X140692190Y-79033714D01*
X140835047Y-79033714D01*
X140930285Y-79081333D01*
X140977904Y-79176571D01*
X140977904Y-79700380D01*
X141882666Y-79700380D02*
X141882666Y-78700380D01*
X141882666Y-79652761D02*
X141787428Y-79700380D01*
X141596952Y-79700380D01*
X141501714Y-79652761D01*
X141454095Y-79605142D01*
X141406476Y-79509904D01*
X141406476Y-79224190D01*
X141454095Y-79128952D01*
X141501714Y-79081333D01*
X141596952Y-79033714D01*
X141787428Y-79033714D01*
X141882666Y-79081333D01*
X139382666Y-74486176D02*
X140144571Y-74486176D01*
X139763619Y-74867128D02*
X139763619Y-74105224D01*
X141144571Y-74867128D02*
X140573142Y-74867128D01*
X140858857Y-74867128D02*
X140858857Y-73867128D01*
X140763619Y-74009986D01*
X140668380Y-74105224D01*
X140573142Y-74152843D01*
X141525523Y-73962367D02*
X141573142Y-73914748D01*
X141668380Y-73867128D01*
X141906476Y-73867128D01*
X142001714Y-73914748D01*
X142049333Y-73962367D01*
X142096952Y-74057605D01*
X142096952Y-74152843D01*
X142049333Y-74295700D01*
X141477904Y-74867128D01*
X142096952Y-74867128D01*
D11*
X65278190Y-86376000D02*
X65087714Y-86280761D01*
X64802000Y-86280761D01*
X64516285Y-86376000D01*
X64325809Y-86566476D01*
X64230571Y-86756952D01*
X64135333Y-87137904D01*
X64135333Y-87423619D01*
X64230571Y-87804571D01*
X64325809Y-87995047D01*
X64516285Y-88185523D01*
X64802000Y-88280761D01*
X64992476Y-88280761D01*
X65278190Y-88185523D01*
X65373428Y-88090285D01*
X65373428Y-87423619D01*
X64992476Y-87423619D01*
X66230571Y-88280761D02*
X66230571Y-86280761D01*
X67373428Y-88280761D01*
X67373428Y-86280761D01*
X68325809Y-88280761D02*
X68325809Y-86280761D01*
X68802000Y-86280761D01*
X69087714Y-86376000D01*
X69278190Y-86566476D01*
X69373428Y-86756952D01*
X69468666Y-87137904D01*
X69468666Y-87423619D01*
X69373428Y-87804571D01*
X69278190Y-87995047D01*
X69087714Y-88185523D01*
X68802000Y-88280761D01*
X68325809Y-88280761D01*
X80296190Y-87518857D02*
X81820000Y-87518857D01*
X83820000Y-88280761D02*
X82677142Y-88280761D01*
X83248571Y-88280761D02*
X83248571Y-86280761D01*
X83058095Y-86566476D01*
X82867619Y-86756952D01*
X82677142Y-86852190D01*
X84581904Y-86471238D02*
X84677142Y-86376000D01*
X84867619Y-86280761D01*
X85343809Y-86280761D01*
X85534285Y-86376000D01*
X85629523Y-86471238D01*
X85724761Y-86661714D01*
X85724761Y-86852190D01*
X85629523Y-87137904D01*
X84486666Y-88280761D01*
X85724761Y-88280761D01*
X86296190Y-86280761D02*
X86962857Y-88280761D01*
X87629523Y-86280761D01*
X99092190Y-87518857D02*
X100616000Y-87518857D01*
X99854095Y-88280761D02*
X99854095Y-86756952D01*
X102616000Y-88280761D02*
X101473142Y-88280761D01*
X102044571Y-88280761D02*
X102044571Y-86280761D01*
X101854095Y-86566476D01*
X101663619Y-86756952D01*
X101473142Y-86852190D01*
X103377904Y-86471238D02*
X103473142Y-86376000D01*
X103663619Y-86280761D01*
X104139809Y-86280761D01*
X104330285Y-86376000D01*
X104425523Y-86471238D01*
X104520761Y-86661714D01*
X104520761Y-86852190D01*
X104425523Y-87137904D01*
X103282666Y-88280761D01*
X104520761Y-88280761D01*
X105092190Y-86280761D02*
X105758857Y-88280761D01*
X106425523Y-86280761D01*
X133318571Y-87518857D02*
X134842380Y-87518857D01*
X136747142Y-86280761D02*
X135794761Y-86280761D01*
X135699523Y-87233142D01*
X135794761Y-87137904D01*
X135985238Y-87042666D01*
X136461428Y-87042666D01*
X136651904Y-87137904D01*
X136747142Y-87233142D01*
X136842380Y-87423619D01*
X136842380Y-87899809D01*
X136747142Y-88090285D01*
X136651904Y-88185523D01*
X136461428Y-88280761D01*
X135985238Y-88280761D01*
X135794761Y-88185523D01*
X135699523Y-88090285D01*
X137413809Y-86280761D02*
X138080476Y-88280761D01*
X138747142Y-86280761D01*
X118840571Y-87518857D02*
X120364380Y-87518857D01*
X119602476Y-88280761D02*
X119602476Y-86756952D01*
X122269142Y-86280761D02*
X121316761Y-86280761D01*
X121221523Y-87233142D01*
X121316761Y-87137904D01*
X121507238Y-87042666D01*
X121983428Y-87042666D01*
X122173904Y-87137904D01*
X122269142Y-87233142D01*
X122364380Y-87423619D01*
X122364380Y-87899809D01*
X122269142Y-88090285D01*
X122173904Y-88185523D01*
X121983428Y-88280761D01*
X121507238Y-88280761D01*
X121316761Y-88185523D01*
X121221523Y-88090285D01*
X122935809Y-86280761D02*
X123602476Y-88280761D01*
X124269142Y-86280761D01*
D12*
%TO.C,J8*%
X97036000Y-62376000D02*
X97536000Y-63376000D01*
X98036000Y-62376000D02*
X97036000Y-62376000D01*
X97536000Y-63376000D02*
X98036000Y-62376000D01*
X86596000Y-65076000D02*
X86596000Y-63766000D01*
X86596000Y-65076000D02*
X86596000Y-65076000D01*
X75846000Y-65076000D02*
X86596000Y-65076000D01*
X75846000Y-71576000D02*
X75846000Y-65076000D01*
X101446000Y-71576000D02*
X75846000Y-71576000D01*
X101446000Y-65076000D02*
X101446000Y-71576000D01*
X90696000Y-65076000D02*
X101446000Y-65076000D01*
X90696000Y-63766000D02*
X90696000Y-65076000D01*
X74546000Y-63766000D02*
X102746000Y-63766000D01*
X74546000Y-72886000D02*
X74546000Y-63766000D01*
X102746000Y-72886000D02*
X74546000Y-72886000D01*
X102746000Y-63766000D02*
X102746000Y-72886000D01*
%TO.C,J7*%
X64775000Y-96676000D02*
G75*
G03*
X65458318Y-96530756I0J1680000D01*
G01*
X66310001Y-95680000D02*
G75*
G03*
X66310427Y-94312958I-1535001J684000D01*
G01*
X65459000Y-93460999D02*
G75*
G03*
X64091958Y-93460573I-684000J-1535001D01*
G01*
X63239999Y-94312000D02*
G75*
G03*
X63239573Y-95679042I1535001J-684000D01*
G01*
X64091000Y-96531000D02*
G75*
G03*
X64803805Y-96676253I684000J1535000D01*
G01*
X71535000Y-94996000D02*
G75*
G03*
X71535000Y-94996000I-1680000J0D01*
G01*
X76615000Y-94996000D02*
G75*
G03*
X76615000Y-94996000I-1680000J0D01*
G01*
X62175000Y-99096000D02*
X77535000Y-99096000D01*
X62175000Y-97596000D02*
X77535000Y-97596000D01*
X62175000Y-92695000D02*
X77535000Y-92695000D01*
X62175000Y-89735000D02*
X77535000Y-89735000D01*
X62175000Y-99656000D02*
X77535000Y-99656000D01*
X62175000Y-89735000D02*
X62175000Y-99656000D01*
X77535000Y-89735000D02*
X77535000Y-99656000D01*
X71130000Y-93927000D02*
X71083000Y-93973000D01*
X68821000Y-96235000D02*
X68786000Y-96270000D01*
X70925000Y-93721000D02*
X70890000Y-93757000D01*
X68628000Y-96019000D02*
X68581000Y-96065000D01*
X76210000Y-93927000D02*
X76163000Y-93973000D01*
X73901000Y-96235000D02*
X73866000Y-96270000D01*
X76005000Y-93721000D02*
X75970000Y-93757000D01*
X73708000Y-96019000D02*
X73661000Y-96065000D01*
X61935000Y-99156000D02*
X61935000Y-99896000D01*
X61935000Y-99896000D02*
X62435000Y-99896000D01*
%TO.C,R2*%
X64035000Y-80496064D02*
X64035000Y-80041936D01*
X65505000Y-80496064D02*
X65505000Y-80041936D01*
%TO.C,D2*%
X60135392Y-78596665D02*
G75*
G03*
X59978484Y-81829000I1078608J-1672335D01*
G01*
X62449516Y-81829000D02*
G75*
G03*
X62292608Y-78596665I-1235516J1560000D01*
G01*
X60134163Y-79227870D02*
G75*
G03*
X60134000Y-81309961I1079837J-1041130D01*
G01*
X62294000Y-81309961D02*
G75*
G03*
X62293837Y-79227870I-1080000J1040961D01*
G01*
X59978000Y-81829000D02*
X60134000Y-81829000D01*
X62294000Y-81829000D02*
X62450000Y-81829000D01*
%TO.C,J6*%
X81534000Y-96727000D02*
G75*
G03*
X82217318Y-96581756I0J1680000D01*
G01*
X83069001Y-95731000D02*
G75*
G03*
X83069427Y-94363958I-1535001J684000D01*
G01*
X82218000Y-93511999D02*
G75*
G03*
X80850958Y-93511573I-684000J-1535001D01*
G01*
X79998999Y-94363000D02*
G75*
G03*
X79998573Y-95730042I1535001J-684000D01*
G01*
X80850000Y-96582000D02*
G75*
G03*
X81562805Y-96727253I684000J1535000D01*
G01*
X88294000Y-95047000D02*
G75*
G03*
X88294000Y-95047000I-1680000J0D01*
G01*
X93374000Y-95047000D02*
G75*
G03*
X93374000Y-95047000I-1680000J0D01*
G01*
X78934000Y-99147000D02*
X94294000Y-99147000D01*
X78934000Y-97647000D02*
X94294000Y-97647000D01*
X78934000Y-92746000D02*
X94294000Y-92746000D01*
X78934000Y-89786000D02*
X94294000Y-89786000D01*
X78934000Y-99707000D02*
X94294000Y-99707000D01*
X78934000Y-89786000D02*
X78934000Y-99707000D01*
X94294000Y-89786000D02*
X94294000Y-99707000D01*
X87889000Y-93978000D02*
X87842000Y-94024000D01*
X85580000Y-96286000D02*
X85545000Y-96321000D01*
X87684000Y-93772000D02*
X87649000Y-93808000D01*
X85387000Y-96070000D02*
X85340000Y-96116000D01*
X92969000Y-93978000D02*
X92922000Y-94024000D01*
X90660000Y-96286000D02*
X90625000Y-96321000D01*
X92764000Y-93772000D02*
X92729000Y-93808000D01*
X90467000Y-96070000D02*
X90420000Y-96116000D01*
X78694000Y-99207000D02*
X78694000Y-99947000D01*
X78694000Y-99947000D02*
X79194000Y-99947000D01*
%TO.C,J5*%
X98298000Y-96727000D02*
G75*
G03*
X98981318Y-96581756I0J1680000D01*
G01*
X99833001Y-95731000D02*
G75*
G03*
X99833427Y-94363958I-1535001J684000D01*
G01*
X98982000Y-93511999D02*
G75*
G03*
X97614958Y-93511573I-684000J-1535001D01*
G01*
X96762999Y-94363000D02*
G75*
G03*
X96762573Y-95730042I1535001J-684000D01*
G01*
X97614000Y-96582000D02*
G75*
G03*
X98326805Y-96727253I684000J1535000D01*
G01*
X105058000Y-95047000D02*
G75*
G03*
X105058000Y-95047000I-1680000J0D01*
G01*
X110138000Y-95047000D02*
G75*
G03*
X110138000Y-95047000I-1680000J0D01*
G01*
X95698000Y-99147000D02*
X111058000Y-99147000D01*
X95698000Y-97647000D02*
X111058000Y-97647000D01*
X95698000Y-92746000D02*
X111058000Y-92746000D01*
X95698000Y-89786000D02*
X111058000Y-89786000D01*
X95698000Y-99707000D02*
X111058000Y-99707000D01*
X95698000Y-89786000D02*
X95698000Y-99707000D01*
X111058000Y-89786000D02*
X111058000Y-99707000D01*
X104653000Y-93978000D02*
X104606000Y-94024000D01*
X102344000Y-96286000D02*
X102309000Y-96321000D01*
X104448000Y-93772000D02*
X104413000Y-93808000D01*
X102151000Y-96070000D02*
X102104000Y-96116000D01*
X109733000Y-93978000D02*
X109686000Y-94024000D01*
X107424000Y-96286000D02*
X107389000Y-96321000D01*
X109528000Y-93772000D02*
X109493000Y-93808000D01*
X107231000Y-96070000D02*
X107184000Y-96116000D01*
X95458000Y-99207000D02*
X95458000Y-99947000D01*
X95458000Y-99947000D02*
X95958000Y-99947000D01*
%TO.C,J4*%
X131831000Y-96727000D02*
G75*
G03*
X132514318Y-96581756I0J1680000D01*
G01*
X133366001Y-95731000D02*
G75*
G03*
X133366427Y-94363958I-1535001J684000D01*
G01*
X132515000Y-93511999D02*
G75*
G03*
X131147958Y-93511573I-684000J-1535001D01*
G01*
X130295999Y-94363000D02*
G75*
G03*
X130295573Y-95730042I1535001J-684000D01*
G01*
X131147000Y-96582000D02*
G75*
G03*
X131859805Y-96727253I684000J1535000D01*
G01*
X138591000Y-95047000D02*
G75*
G03*
X138591000Y-95047000I-1680000J0D01*
G01*
X143671000Y-95047000D02*
G75*
G03*
X143671000Y-95047000I-1680000J0D01*
G01*
X129231000Y-99147000D02*
X144591000Y-99147000D01*
X129231000Y-97647000D02*
X144591000Y-97647000D01*
X129231000Y-92746000D02*
X144591000Y-92746000D01*
X129231000Y-89786000D02*
X144591000Y-89786000D01*
X129231000Y-99707000D02*
X144591000Y-99707000D01*
X129231000Y-89786000D02*
X129231000Y-99707000D01*
X144591000Y-89786000D02*
X144591000Y-99707000D01*
X138186000Y-93978000D02*
X138139000Y-94024000D01*
X135877000Y-96286000D02*
X135842000Y-96321000D01*
X137981000Y-93772000D02*
X137946000Y-93808000D01*
X135684000Y-96070000D02*
X135637000Y-96116000D01*
X143266000Y-93978000D02*
X143219000Y-94024000D01*
X140957000Y-96286000D02*
X140922000Y-96321000D01*
X143061000Y-93772000D02*
X143026000Y-93808000D01*
X140764000Y-96070000D02*
X140717000Y-96116000D01*
X128991000Y-99207000D02*
X128991000Y-99947000D01*
X128991000Y-99947000D02*
X129491000Y-99947000D01*
%TO.C,J3*%
X115067000Y-96676000D02*
G75*
G03*
X115750318Y-96530756I0J1680000D01*
G01*
X116602001Y-95680000D02*
G75*
G03*
X116602427Y-94312958I-1535001J684000D01*
G01*
X115751000Y-93460999D02*
G75*
G03*
X114383958Y-93460573I-684000J-1535001D01*
G01*
X113531999Y-94312000D02*
G75*
G03*
X113531573Y-95679042I1535001J-684000D01*
G01*
X114383000Y-96531000D02*
G75*
G03*
X115095805Y-96676253I684000J1535000D01*
G01*
X121827000Y-94996000D02*
G75*
G03*
X121827000Y-94996000I-1680000J0D01*
G01*
X126907000Y-94996000D02*
G75*
G03*
X126907000Y-94996000I-1680000J0D01*
G01*
X112467000Y-99096000D02*
X127827000Y-99096000D01*
X112467000Y-97596000D02*
X127827000Y-97596000D01*
X112467000Y-92695000D02*
X127827000Y-92695000D01*
X112467000Y-89735000D02*
X127827000Y-89735000D01*
X112467000Y-99656000D02*
X127827000Y-99656000D01*
X112467000Y-89735000D02*
X112467000Y-99656000D01*
X127827000Y-89735000D02*
X127827000Y-99656000D01*
X121422000Y-93927000D02*
X121375000Y-93973000D01*
X119113000Y-96235000D02*
X119078000Y-96270000D01*
X121217000Y-93721000D02*
X121182000Y-93757000D01*
X118920000Y-96019000D02*
X118873000Y-96065000D01*
X126502000Y-93927000D02*
X126455000Y-93973000D01*
X124193000Y-96235000D02*
X124158000Y-96270000D01*
X126297000Y-93721000D02*
X126262000Y-93757000D01*
X124000000Y-96019000D02*
X123953000Y-96065000D01*
X112227000Y-99156000D02*
X112227000Y-99896000D01*
X112227000Y-99896000D02*
X112727000Y-99896000D01*
%TO.C,J1*%
X149813000Y-84333000D02*
G75*
G03*
X149667756Y-83649682I-1680000J0D01*
G01*
X148817000Y-82797999D02*
G75*
G03*
X147449958Y-82797573I-684000J-1535001D01*
G01*
X146597999Y-83649000D02*
G75*
G03*
X146597573Y-85016042I1535001J-684000D01*
G01*
X147449000Y-85868001D02*
G75*
G03*
X148816042Y-85868427I684000J1535001D01*
G01*
X149668000Y-85017000D02*
G75*
G03*
X149813253Y-84304195I-1535000J684000D01*
G01*
X149813000Y-79253000D02*
G75*
G03*
X149813000Y-79253000I-1680000J0D01*
G01*
X149813000Y-74173000D02*
G75*
G03*
X149813000Y-74173000I-1680000J0D01*
G01*
X152233000Y-86933000D02*
X152233000Y-71573000D01*
X150733000Y-86933000D02*
X150733000Y-71573000D01*
X145832000Y-86933000D02*
X145832000Y-71573000D01*
X142872000Y-86933000D02*
X142872000Y-71573000D01*
X152793000Y-86933000D02*
X152793000Y-71573000D01*
X142872000Y-86933000D02*
X152793000Y-86933000D01*
X142872000Y-71573000D02*
X152793000Y-71573000D01*
X147064000Y-77978000D02*
X147110000Y-78025000D01*
X149372000Y-80287000D02*
X149407000Y-80322000D01*
X146858000Y-78183000D02*
X146894000Y-78218000D01*
X149156000Y-80480000D02*
X149202000Y-80527000D01*
X147064000Y-72898000D02*
X147110000Y-72945000D01*
X149372000Y-75207000D02*
X149407000Y-75242000D01*
X146858000Y-73103000D02*
X146894000Y-73138000D01*
X149156000Y-75400000D02*
X149202000Y-75447000D01*
X152293000Y-87173000D02*
X153033000Y-87173000D01*
X153033000Y-87173000D02*
X153033000Y-86673000D01*
%TO.C,U2*%
X125911000Y-79724000D02*
X125911000Y-78214000D01*
X129612000Y-79724000D02*
X129612000Y-78214000D01*
X132882000Y-78214000D02*
X122642000Y-78214000D01*
X122642000Y-79724000D02*
X122642000Y-75083000D01*
X132882000Y-79724000D02*
X132882000Y-75083000D01*
X132882000Y-75083000D02*
X122642000Y-75083000D01*
X132882000Y-79724000D02*
X122642000Y-79724000D01*
%TO.C,U1*%
X109401000Y-79724000D02*
X109401000Y-78214000D01*
X113102000Y-79724000D02*
X113102000Y-78214000D01*
X116372000Y-78214000D02*
X106132000Y-78214000D01*
X106132000Y-79724000D02*
X106132000Y-75083000D01*
X116372000Y-79724000D02*
X116372000Y-75083000D01*
X116372000Y-75083000D02*
X106132000Y-75083000D01*
X116372000Y-79724000D02*
X106132000Y-79724000D01*
%TO.C,SW1*%
X137982000Y-75383000D02*
X135322000Y-75383000D01*
X137982000Y-77983000D02*
X137982000Y-75383000D01*
X135322000Y-77983000D02*
X135322000Y-75383000D01*
X137982000Y-77983000D02*
X135322000Y-77983000D01*
X137982000Y-79253000D02*
X137982000Y-80583000D01*
X137982000Y-80583000D02*
X136652000Y-80583000D01*
%TO.C,R1*%
X67591000Y-80491064D02*
X67591000Y-80036936D01*
X69061000Y-80491064D02*
X69061000Y-80036936D01*
%TO.C,J2*%
X127516000Y-62376000D02*
X128016000Y-63376000D01*
X128516000Y-62376000D02*
X127516000Y-62376000D01*
X128016000Y-63376000D02*
X128516000Y-62376000D01*
X117076000Y-65076000D02*
X117076000Y-63766000D01*
X117076000Y-65076000D02*
X117076000Y-65076000D01*
X106326000Y-65076000D02*
X117076000Y-65076000D01*
X106326000Y-71576000D02*
X106326000Y-65076000D01*
X131926000Y-71576000D02*
X106326000Y-71576000D01*
X131926000Y-65076000D02*
X131926000Y-71576000D01*
X121176000Y-65076000D02*
X131926000Y-65076000D01*
X121176000Y-63766000D02*
X121176000Y-65076000D01*
X105026000Y-63766000D02*
X133226000Y-63766000D01*
X105026000Y-72886000D02*
X105026000Y-63766000D01*
X133226000Y-72886000D02*
X105026000Y-72886000D01*
X133226000Y-63766000D02*
X133226000Y-72886000D01*
%TO.C,D1*%
X69652000Y-79264000D02*
X69652000Y-81949000D01*
X69652000Y-81949000D02*
X71572000Y-81949000D01*
X71572000Y-81949000D02*
X71572000Y-79264000D01*
%TO.C,C5*%
X88594000Y-83674000D02*
X88594000Y-81324000D01*
X88594000Y-76854000D02*
X88594000Y-79204000D01*
X82838437Y-76854000D02*
X88594000Y-76854000D01*
X82838437Y-83674000D02*
X88594000Y-83674000D01*
X81774000Y-82609563D02*
X81774000Y-81324000D01*
X81774000Y-77918437D02*
X81774000Y-79204000D01*
X81774000Y-77918437D02*
X82838437Y-76854000D01*
X81774000Y-82609563D02*
X82838437Y-83674000D01*
X80746500Y-78416500D02*
X81534000Y-78416500D01*
X81140250Y-78022750D02*
X81140250Y-78810250D01*
%TO.C,C4*%
X99676000Y-83674000D02*
X99676000Y-81324000D01*
X99676000Y-76854000D02*
X99676000Y-79204000D01*
X93920437Y-76854000D02*
X99676000Y-76854000D01*
X93920437Y-83674000D02*
X99676000Y-83674000D01*
X92856000Y-82609563D02*
X92856000Y-81324000D01*
X92856000Y-77918437D02*
X92856000Y-79204000D01*
X92856000Y-77918437D02*
X93920437Y-76854000D01*
X92856000Y-82609563D02*
X93920437Y-83674000D01*
X91828500Y-78416500D02*
X92616000Y-78416500D01*
X92222250Y-78022750D02*
X92222250Y-78810250D01*
%TO.C,C3*%
X74922748Y-79529000D02*
X75445252Y-79529000D01*
X74922748Y-80999000D02*
X75445252Y-80999000D01*
%TO.C,C2*%
X140911252Y-71655000D02*
X140388748Y-71655000D01*
X140911252Y-73125000D02*
X140388748Y-73125000D01*
%TO.C,C1*%
X140911252Y-82523000D02*
X140388748Y-82523000D01*
X140911252Y-81053000D02*
X140388748Y-81053000D01*
%TD*%
M02*
