%TF.GenerationSoftware,KiCad,Pcbnew,(6.0.0-0)*%
%TF.CreationDate,2022-12-13T21:11:07-05:00*%
%TF.ProjectId,power-module,706f7765-722d-46d6-9f64-756c652e6b69,rev?*%
%TF.SameCoordinates,Original*%
%TF.FileFunction,Legend,Bot*%
%TF.FilePolarity,Positive*%
%FSLAX46Y46*%
G04 Gerber Fmt 4.6, Leading zero omitted, Abs format (unit mm)*
G04 Created by KiCad (PCBNEW (6.0.0-0)) date 2022-12-13 21:11:07*
%MOMM*%
%LPD*%
G01*
G04 APERTURE LIST*
%ADD10C,0.150000*%
G04 APERTURE END LIST*
D10*
X68103333Y-62444380D02*
X68103333Y-63158666D01*
X68150952Y-63301523D01*
X68246190Y-63396761D01*
X68389047Y-63444380D01*
X68484285Y-63444380D01*
X67150952Y-63444380D02*
X67627142Y-63444380D01*
X67627142Y-62444380D01*
X66246190Y-63349142D02*
X66293809Y-63396761D01*
X66436666Y-63444380D01*
X66531904Y-63444380D01*
X66674761Y-63396761D01*
X66770000Y-63301523D01*
X66817619Y-63206285D01*
X66865238Y-63015809D01*
X66865238Y-62872952D01*
X66817619Y-62682476D01*
X66770000Y-62587238D01*
X66674761Y-62492000D01*
X66531904Y-62444380D01*
X66436666Y-62444380D01*
X66293809Y-62492000D01*
X66246190Y-62539619D01*
X65531904Y-62444380D02*
X65531904Y-63158666D01*
X65579523Y-63301523D01*
X65674761Y-63396761D01*
X65817619Y-63444380D01*
X65912857Y-63444380D01*
X64579523Y-63444380D02*
X65055714Y-63444380D01*
X65055714Y-62444380D01*
X63674761Y-63349142D02*
X63722380Y-63396761D01*
X63865238Y-63444380D01*
X63960476Y-63444380D01*
X64103333Y-63396761D01*
X64198571Y-63301523D01*
X64246190Y-63206285D01*
X64293809Y-63015809D01*
X64293809Y-62872952D01*
X64246190Y-62682476D01*
X64198571Y-62587238D01*
X64103333Y-62492000D01*
X63960476Y-62444380D01*
X63865238Y-62444380D01*
X63722380Y-62492000D01*
X63674761Y-62539619D01*
X62960476Y-62444380D02*
X62960476Y-63158666D01*
X63008095Y-63301523D01*
X63103333Y-63396761D01*
X63246190Y-63444380D01*
X63341428Y-63444380D01*
X62008095Y-63444380D02*
X62484285Y-63444380D01*
X62484285Y-62444380D01*
X61103333Y-63349142D02*
X61150952Y-63396761D01*
X61293809Y-63444380D01*
X61389047Y-63444380D01*
X61531904Y-63396761D01*
X61627142Y-63301523D01*
X61674761Y-63206285D01*
X61722380Y-63015809D01*
X61722380Y-62872952D01*
X61674761Y-62682476D01*
X61627142Y-62587238D01*
X61531904Y-62492000D01*
X61389047Y-62444380D01*
X61293809Y-62444380D01*
X61150952Y-62492000D01*
X61103333Y-62539619D01*
M02*
