%FSLAX45Y45*%
G04 Gerber Fmt 4.5, Leading zero omitted, Abs format (unit mm)*
G04 Created by KiCad (PCBNEW (6.0.0-0)) date 2022-12-13 21:11:11*
%MOMM*%
%LPD*%
G01*
G04 APERTURE LIST*
%TA.AperFunction,Profile*%
%ADD10C,0.150000*%
%TD*%
%ADD11C,0.200000*%
%ADD12C,0.050000*%
%ADD13C,0.090000*%
%ADD14C,0.100000*%
%ADD15C,0.110000*%
%ADD16C,0.130000*%
%ADD17C,0.350000*%
G04 APERTURE END LIST*
D10*
X5308600Y-6197600D02*
X15316200Y-6197600D01*
X15316200Y-6197600D02*
X15316200Y-10083800D01*
X15316200Y-10083800D02*
X5308600Y-10083800D01*
X5308600Y-10083800D02*
X5308600Y-6197600D01*
D11*
D12*
X5402100Y-6561415D02*
X5452100Y-6611415D01*
X5452100Y-6561415D02*
X5402100Y-6611415D01*
X5402100Y-9677800D02*
X5452100Y-9727800D01*
X5452100Y-9677800D02*
X5402100Y-9727800D01*
X5478985Y-6375800D02*
X5528985Y-6425800D01*
X5528985Y-6375800D02*
X5478985Y-6425800D01*
X5478985Y-6747031D02*
X5528985Y-6797031D01*
X5528985Y-6747031D02*
X5478985Y-6797031D01*
X5478985Y-9492185D02*
X5528985Y-9542185D01*
X5528985Y-9492185D02*
X5478985Y-9542185D01*
X5478985Y-9863416D02*
X5528985Y-9913416D01*
X5528985Y-9863416D02*
X5478985Y-9913416D01*
X5664600Y-6298915D02*
X5714600Y-6348915D01*
X5714600Y-6298915D02*
X5664600Y-6348915D01*
X5664600Y-6823915D02*
X5714600Y-6873915D01*
X5714600Y-6823915D02*
X5664600Y-6873915D01*
X5664600Y-9415300D02*
X5714600Y-9465300D01*
X5714600Y-9415300D02*
X5664600Y-9465300D01*
X5664600Y-9940300D02*
X5714600Y-9990300D01*
X5714600Y-9940300D02*
X5664600Y-9990300D01*
X5850215Y-6375800D02*
X5900215Y-6425800D01*
X5900215Y-6375800D02*
X5850215Y-6425800D01*
X5850215Y-6747031D02*
X5900215Y-6797031D01*
X5900215Y-6747031D02*
X5850215Y-6797031D01*
X5850215Y-9492185D02*
X5900215Y-9542185D01*
X5900215Y-9492185D02*
X5850215Y-9542185D01*
X5850215Y-9863416D02*
X5900215Y-9913416D01*
X5900215Y-9863416D02*
X5850215Y-9913416D01*
X5927100Y-6561415D02*
X5977100Y-6611415D01*
X5977100Y-6561415D02*
X5927100Y-6611415D01*
X5927100Y-9677800D02*
X5977100Y-9727800D01*
X5977100Y-9677800D02*
X5927100Y-9727800D01*
X14647700Y-6553600D02*
X14697700Y-6603600D01*
X14697700Y-6553600D02*
X14647700Y-6603600D01*
X14647700Y-9677800D02*
X14697700Y-9727800D01*
X14697700Y-9677800D02*
X14647700Y-9727800D01*
X14724584Y-6367984D02*
X14774584Y-6417984D01*
X14774584Y-6367984D02*
X14724584Y-6417984D01*
X14724584Y-6739215D02*
X14774584Y-6789215D01*
X14774584Y-6739215D02*
X14724584Y-6789215D01*
X14724584Y-9492185D02*
X14774584Y-9542185D01*
X14774584Y-9492185D02*
X14724584Y-9542185D01*
X14724584Y-9863416D02*
X14774584Y-9913416D01*
X14774584Y-9863416D02*
X14724584Y-9913416D01*
X14910200Y-6291100D02*
X14960200Y-6341100D01*
X14960200Y-6291100D02*
X14910200Y-6341100D01*
X14910200Y-6816100D02*
X14960200Y-6866100D01*
X14960200Y-6816100D02*
X14910200Y-6866100D01*
X14910200Y-9415300D02*
X14960200Y-9465300D01*
X14960200Y-9415300D02*
X14910200Y-9465300D01*
X14910200Y-9940300D02*
X14960200Y-9990300D01*
X14960200Y-9940300D02*
X14910200Y-9990300D01*
X15095815Y-6367984D02*
X15145815Y-6417984D01*
X15145815Y-6367984D02*
X15095815Y-6417984D01*
X15095815Y-6739215D02*
X15145815Y-6789215D01*
X15145815Y-6739215D02*
X15095815Y-6789215D01*
X15095815Y-9492185D02*
X15145815Y-9542185D01*
X15145815Y-9492185D02*
X15095815Y-9542185D01*
X15095815Y-9863416D02*
X15145815Y-9913416D01*
X15145815Y-9863416D02*
X15095815Y-9913416D01*
X15172700Y-6553600D02*
X15222700Y-6603600D01*
X15222700Y-6553600D02*
X15172700Y-6603600D01*
X15172700Y-9677800D02*
X15222700Y-9727800D01*
X15222700Y-9677800D02*
X15172700Y-9727800D01*
D13*
X6166400Y-7899900D02*
G75*
G03*
X6166400Y-7899900I-45000J0D01*
G01*
X6166400Y-8153900D02*
G75*
G03*
X6166400Y-8153900I-45000J0D01*
G01*
D14*
X7975600Y-6655600D02*
X7975600Y-6755600D01*
X7925600Y-6705600D02*
X8025600Y-6705600D01*
X7975600Y-6909600D02*
X7975600Y-7009600D01*
X7925600Y-6959600D02*
X8025600Y-6959600D01*
X8229600Y-6655600D02*
X8229600Y-6755600D01*
X8179600Y-6705600D02*
X8279600Y-6705600D01*
X8229600Y-6909600D02*
X8229600Y-7009600D01*
X8179600Y-6959600D02*
X8279600Y-6959600D01*
X8483600Y-6655600D02*
X8483600Y-6755600D01*
X8433600Y-6705600D02*
X8533600Y-6705600D01*
X8483600Y-6909600D02*
X8483600Y-7009600D01*
X8433600Y-6959600D02*
X8533600Y-6959600D01*
X8737600Y-6655600D02*
X8737600Y-6755600D01*
X8687600Y-6705600D02*
X8787600Y-6705600D01*
X8737600Y-6909600D02*
X8737600Y-7009600D01*
X8687600Y-6959600D02*
X8787600Y-6959600D01*
X8991600Y-6655600D02*
X8991600Y-6755600D01*
X8941600Y-6705600D02*
X9041600Y-6705600D01*
X8991600Y-6909600D02*
X8991600Y-7009600D01*
X8941600Y-6959600D02*
X9041600Y-6959600D01*
X9245600Y-6655600D02*
X9245600Y-6755600D01*
X9195600Y-6705600D02*
X9295600Y-6705600D01*
X9245600Y-6909600D02*
X9245600Y-7009600D01*
X9195600Y-6959600D02*
X9295600Y-6959600D01*
X9499600Y-6655600D02*
X9499600Y-6755600D01*
X9449600Y-6705600D02*
X9549600Y-6705600D01*
X9499600Y-6909600D02*
X9499600Y-7009600D01*
X9449600Y-6959600D02*
X9549600Y-6959600D01*
X9753600Y-6655600D02*
X9753600Y-6755600D01*
X9703600Y-6705600D02*
X9803600Y-6705600D01*
X9753600Y-6909600D02*
X9753600Y-7009600D01*
X9703600Y-6959600D02*
X9803600Y-6959600D01*
X11023600Y-6655600D02*
X11023600Y-6755600D01*
X10973600Y-6705600D02*
X11073600Y-6705600D01*
X11023600Y-6909600D02*
X11023600Y-7009600D01*
X10973600Y-6959600D02*
X11073600Y-6959600D01*
X11277600Y-6655600D02*
X11277600Y-6755600D01*
X11227600Y-6705600D02*
X11327600Y-6705600D01*
X11277600Y-6909600D02*
X11277600Y-7009600D01*
X11227600Y-6959600D02*
X11327600Y-6959600D01*
X11531600Y-6655600D02*
X11531600Y-6755600D01*
X11481600Y-6705600D02*
X11581600Y-6705600D01*
X11531600Y-6909600D02*
X11531600Y-7009600D01*
X11481600Y-6959600D02*
X11581600Y-6959600D01*
X11785600Y-6655600D02*
X11785600Y-6755600D01*
X11735600Y-6705600D02*
X11835600Y-6705600D01*
X11785600Y-6909600D02*
X11785600Y-7009600D01*
X11735600Y-6959600D02*
X11835600Y-6959600D01*
X12039600Y-6655600D02*
X12039600Y-6755600D01*
X11989600Y-6705600D02*
X12089600Y-6705600D01*
X12039600Y-6909600D02*
X12039600Y-7009600D01*
X11989600Y-6959600D02*
X12089600Y-6959600D01*
X12293600Y-6655600D02*
X12293600Y-6755600D01*
X12243600Y-6705600D02*
X12343600Y-6705600D01*
X12293600Y-6909600D02*
X12293600Y-7009600D01*
X12243600Y-6959600D02*
X12343600Y-6959600D01*
X12547600Y-6655600D02*
X12547600Y-6755600D01*
X12497600Y-6705600D02*
X12597600Y-6705600D01*
X12547600Y-6909600D02*
X12547600Y-7009600D01*
X12497600Y-6959600D02*
X12597600Y-6959600D01*
X12801600Y-6655600D02*
X12801600Y-6755600D01*
X12751600Y-6705600D02*
X12851600Y-6705600D01*
X12801600Y-6909600D02*
X12801600Y-7009600D01*
X12751600Y-6959600D02*
X12851600Y-6959600D01*
X13665200Y-7621300D02*
X13665200Y-7721300D01*
X13615200Y-7671300D02*
X13715200Y-7671300D01*
X13665200Y-7875300D02*
X13665200Y-7975300D01*
X13615200Y-7925300D02*
X13715200Y-7925300D01*
D15*
X10910091Y-7684291D02*
X10910091Y-7606509D01*
X10832309Y-7606509D01*
X10832309Y-7684291D01*
X10910091Y-7684291D01*
X11164091Y-7684291D02*
X11164091Y-7606509D01*
X11086309Y-7606509D01*
X11086309Y-7684291D01*
X11164091Y-7684291D01*
X11418091Y-7684291D02*
X11418091Y-7606509D01*
X11340309Y-7606509D01*
X11340309Y-7684291D01*
X11418091Y-7684291D01*
X12561091Y-7684291D02*
X12561091Y-7606509D01*
X12483309Y-7606509D01*
X12483309Y-7684291D01*
X12561091Y-7684291D01*
X12815091Y-7684291D02*
X12815091Y-7606509D01*
X12737309Y-7606509D01*
X12737309Y-7684291D01*
X12815091Y-7684291D01*
X13069091Y-7684291D02*
X13069091Y-7606509D01*
X12991309Y-7606509D01*
X12991309Y-7684291D01*
X13069091Y-7684291D01*
D16*
X6477500Y-9564600D02*
X6542500Y-9499600D01*
X6477500Y-9434600D01*
X6412500Y-9499600D01*
X6477500Y-9564600D01*
X6985500Y-9564600D02*
X7050500Y-9499600D01*
X6985500Y-9434600D01*
X6920500Y-9499600D01*
X6985500Y-9564600D01*
X7493500Y-9564600D02*
X7558500Y-9499600D01*
X7493500Y-9434600D01*
X7428500Y-9499600D01*
X7493500Y-9564600D01*
X8153400Y-9569700D02*
X8218400Y-9504700D01*
X8153400Y-9439700D01*
X8088400Y-9504700D01*
X8153400Y-9569700D01*
X8661400Y-9569700D02*
X8726400Y-9504700D01*
X8661400Y-9439700D01*
X8596400Y-9504700D01*
X8661400Y-9569700D01*
X9169400Y-9569700D02*
X9234400Y-9504700D01*
X9169400Y-9439700D01*
X9104400Y-9504700D01*
X9169400Y-9569700D01*
X9829800Y-9569700D02*
X9894800Y-9504700D01*
X9829800Y-9439700D01*
X9764800Y-9504700D01*
X9829800Y-9569700D01*
X10337800Y-9569700D02*
X10402800Y-9504700D01*
X10337800Y-9439700D01*
X10272800Y-9504700D01*
X10337800Y-9569700D01*
X10845800Y-9569700D02*
X10910800Y-9504700D01*
X10845800Y-9439700D01*
X10780800Y-9504700D01*
X10845800Y-9569700D01*
X11506700Y-9564600D02*
X11571700Y-9499600D01*
X11506700Y-9434600D01*
X11441700Y-9499600D01*
X11506700Y-9564600D01*
X12014700Y-9564600D02*
X12079700Y-9499600D01*
X12014700Y-9434600D01*
X11949700Y-9499600D01*
X12014700Y-9564600D01*
X12522700Y-9564600D02*
X12587700Y-9499600D01*
X12522700Y-9434600D01*
X12457700Y-9499600D01*
X12522700Y-9564600D01*
X13183100Y-9569700D02*
X13248100Y-9504700D01*
X13183100Y-9439700D01*
X13118100Y-9504700D01*
X13183100Y-9569700D01*
X13691100Y-9569700D02*
X13756100Y-9504700D01*
X13691100Y-9439700D01*
X13626100Y-9504700D01*
X13691100Y-9569700D01*
X14199100Y-9569700D02*
X14264100Y-9504700D01*
X14199100Y-9439700D01*
X14134100Y-9504700D01*
X14199100Y-9569700D01*
X14813300Y-7482300D02*
X14878300Y-7417300D01*
X14813300Y-7352300D01*
X14748300Y-7417300D01*
X14813300Y-7482300D01*
X14813300Y-7990300D02*
X14878300Y-7925300D01*
X14813300Y-7860300D01*
X14748300Y-7925300D01*
X14813300Y-7990300D01*
X14813300Y-8498300D02*
X14878300Y-8433300D01*
X14813300Y-8368300D01*
X14748300Y-8433300D01*
X14813300Y-8498300D01*
D17*
X5514600Y-6411415D02*
X5864600Y-6761415D01*
X5864600Y-6411415D02*
X5514600Y-6761415D01*
X5864600Y-6586415D02*
G75*
G03*
X5864600Y-6586415I-175000J0D01*
G01*
X5514600Y-9527800D02*
X5864600Y-9877800D01*
X5864600Y-9527800D02*
X5514600Y-9877800D01*
X5864600Y-9702800D02*
G75*
G03*
X5864600Y-9702800I-175000J0D01*
G01*
X14760200Y-6403600D02*
X15110200Y-6753600D01*
X15110200Y-6403600D02*
X14760200Y-6753600D01*
X15110200Y-6578600D02*
G75*
G03*
X15110200Y-6578600I-175000J0D01*
G01*
X14760200Y-9527800D02*
X15110200Y-9877800D01*
X15110200Y-9527800D02*
X14760200Y-9877800D01*
X15110200Y-9702800D02*
G75*
G03*
X15110200Y-9702800I-175000J0D01*
G01*
D11*
X5558719Y-10401776D02*
X5558719Y-10201776D01*
X5606338Y-10201776D01*
X5634909Y-10211300D01*
X5653957Y-10230348D01*
X5663481Y-10249395D01*
X5673005Y-10287490D01*
X5673005Y-10316062D01*
X5663481Y-10354157D01*
X5653957Y-10373205D01*
X5634909Y-10392252D01*
X5606338Y-10401776D01*
X5558719Y-10401776D01*
X5758719Y-10401776D02*
X5758719Y-10268443D01*
X5758719Y-10306538D02*
X5768243Y-10287490D01*
X5777767Y-10277967D01*
X5796814Y-10268443D01*
X5815862Y-10268443D01*
X5882528Y-10401776D02*
X5882528Y-10268443D01*
X5882528Y-10201776D02*
X5873005Y-10211300D01*
X5882528Y-10220824D01*
X5892052Y-10211300D01*
X5882528Y-10201776D01*
X5882528Y-10220824D01*
X6006338Y-10401776D02*
X5987290Y-10392252D01*
X5977767Y-10373205D01*
X5977767Y-10201776D01*
X6111100Y-10401776D02*
X6092052Y-10392252D01*
X6082528Y-10373205D01*
X6082528Y-10201776D01*
X6339671Y-10401776D02*
X6339671Y-10201776D01*
X6406338Y-10344633D01*
X6473005Y-10201776D01*
X6473005Y-10401776D01*
X6653957Y-10401776D02*
X6653957Y-10297014D01*
X6644433Y-10277967D01*
X6625386Y-10268443D01*
X6587290Y-10268443D01*
X6568243Y-10277967D01*
X6653957Y-10392252D02*
X6634909Y-10401776D01*
X6587290Y-10401776D01*
X6568243Y-10392252D01*
X6558719Y-10373205D01*
X6558719Y-10354157D01*
X6568243Y-10335110D01*
X6587290Y-10325586D01*
X6634909Y-10325586D01*
X6653957Y-10316062D01*
X6749195Y-10268443D02*
X6749195Y-10468443D01*
X6749195Y-10277967D02*
X6768243Y-10268443D01*
X6806338Y-10268443D01*
X6825386Y-10277967D01*
X6834909Y-10287490D01*
X6844433Y-10306538D01*
X6844433Y-10363681D01*
X6834909Y-10382729D01*
X6825386Y-10392252D01*
X6806338Y-10401776D01*
X6768243Y-10401776D01*
X6749195Y-10392252D01*
X6930148Y-10382729D02*
X6939671Y-10392252D01*
X6930148Y-10401776D01*
X6920624Y-10392252D01*
X6930148Y-10382729D01*
X6930148Y-10401776D01*
X6930148Y-10277967D02*
X6939671Y-10287490D01*
X6930148Y-10297014D01*
X6920624Y-10287490D01*
X6930148Y-10277967D01*
X6930148Y-10297014D01*
D12*
X5251100Y-10706300D02*
X5301100Y-10756300D01*
X5301100Y-10706300D02*
X5251100Y-10756300D01*
D11*
X5596814Y-10621776D02*
X5615862Y-10621776D01*
X5634909Y-10631300D01*
X5644433Y-10640824D01*
X5653957Y-10659871D01*
X5663481Y-10697967D01*
X5663481Y-10745586D01*
X5653957Y-10783681D01*
X5644433Y-10802729D01*
X5634909Y-10812252D01*
X5615862Y-10821776D01*
X5596814Y-10821776D01*
X5577767Y-10812252D01*
X5568243Y-10802729D01*
X5558719Y-10783681D01*
X5549195Y-10745586D01*
X5549195Y-10697967D01*
X5558719Y-10659871D01*
X5568243Y-10640824D01*
X5577767Y-10631300D01*
X5596814Y-10621776D01*
X5749195Y-10802729D02*
X5758719Y-10812252D01*
X5749195Y-10821776D01*
X5739671Y-10812252D01*
X5749195Y-10802729D01*
X5749195Y-10821776D01*
X5939671Y-10621776D02*
X5844433Y-10621776D01*
X5834909Y-10717014D01*
X5844433Y-10707490D01*
X5863481Y-10697967D01*
X5911100Y-10697967D01*
X5930148Y-10707490D01*
X5939671Y-10717014D01*
X5949195Y-10736062D01*
X5949195Y-10783681D01*
X5939671Y-10802729D01*
X5930148Y-10812252D01*
X5911100Y-10821776D01*
X5863481Y-10821776D01*
X5844433Y-10812252D01*
X5834909Y-10802729D01*
X6073005Y-10621776D02*
X6092052Y-10621776D01*
X6111100Y-10631300D01*
X6120624Y-10640824D01*
X6130148Y-10659871D01*
X6139671Y-10697967D01*
X6139671Y-10745586D01*
X6130148Y-10783681D01*
X6120624Y-10802729D01*
X6111100Y-10812252D01*
X6092052Y-10821776D01*
X6073005Y-10821776D01*
X6053957Y-10812252D01*
X6044433Y-10802729D01*
X6034909Y-10783681D01*
X6025386Y-10745586D01*
X6025386Y-10697967D01*
X6034909Y-10659871D01*
X6044433Y-10640824D01*
X6053957Y-10631300D01*
X6073005Y-10621776D01*
X6263481Y-10621776D02*
X6282528Y-10621776D01*
X6301576Y-10631300D01*
X6311100Y-10640824D01*
X6320624Y-10659871D01*
X6330148Y-10697967D01*
X6330148Y-10745586D01*
X6320624Y-10783681D01*
X6311100Y-10802729D01*
X6301576Y-10812252D01*
X6282528Y-10821776D01*
X6263481Y-10821776D01*
X6244433Y-10812252D01*
X6234909Y-10802729D01*
X6225386Y-10783681D01*
X6215862Y-10745586D01*
X6215862Y-10697967D01*
X6225386Y-10659871D01*
X6234909Y-10640824D01*
X6244433Y-10631300D01*
X6263481Y-10621776D01*
X6415862Y-10821776D02*
X6415862Y-10688443D01*
X6415862Y-10707490D02*
X6425386Y-10697967D01*
X6444433Y-10688443D01*
X6473005Y-10688443D01*
X6492052Y-10697967D01*
X6501576Y-10717014D01*
X6501576Y-10821776D01*
X6501576Y-10717014D02*
X6511100Y-10697967D01*
X6530148Y-10688443D01*
X6558719Y-10688443D01*
X6577767Y-10697967D01*
X6587290Y-10717014D01*
X6587290Y-10821776D01*
X6682528Y-10821776D02*
X6682528Y-10688443D01*
X6682528Y-10707490D02*
X6692052Y-10697967D01*
X6711100Y-10688443D01*
X6739671Y-10688443D01*
X6758719Y-10697967D01*
X6768243Y-10717014D01*
X6768243Y-10821776D01*
X6768243Y-10717014D02*
X6777767Y-10697967D01*
X6796814Y-10688443D01*
X6825386Y-10688443D01*
X6844433Y-10697967D01*
X6853957Y-10717014D01*
X6853957Y-10821776D01*
X7244433Y-10612252D02*
X7073005Y-10869395D01*
X7501576Y-10621776D02*
X7520624Y-10621776D01*
X7539671Y-10631300D01*
X7549195Y-10640824D01*
X7558719Y-10659871D01*
X7568243Y-10697967D01*
X7568243Y-10745586D01*
X7558719Y-10783681D01*
X7549195Y-10802729D01*
X7539671Y-10812252D01*
X7520624Y-10821776D01*
X7501576Y-10821776D01*
X7482528Y-10812252D01*
X7473005Y-10802729D01*
X7463481Y-10783681D01*
X7453957Y-10745586D01*
X7453957Y-10697967D01*
X7463481Y-10659871D01*
X7473005Y-10640824D01*
X7482528Y-10631300D01*
X7501576Y-10621776D01*
X7653957Y-10802729D02*
X7663481Y-10812252D01*
X7653957Y-10821776D01*
X7644433Y-10812252D01*
X7653957Y-10802729D01*
X7653957Y-10821776D01*
X7787290Y-10621776D02*
X7806338Y-10621776D01*
X7825386Y-10631300D01*
X7834909Y-10640824D01*
X7844433Y-10659871D01*
X7853957Y-10697967D01*
X7853957Y-10745586D01*
X7844433Y-10783681D01*
X7834909Y-10802729D01*
X7825386Y-10812252D01*
X7806338Y-10821776D01*
X7787290Y-10821776D01*
X7768243Y-10812252D01*
X7758719Y-10802729D01*
X7749195Y-10783681D01*
X7739671Y-10745586D01*
X7739671Y-10697967D01*
X7749195Y-10659871D01*
X7758719Y-10640824D01*
X7768243Y-10631300D01*
X7787290Y-10621776D01*
X8044433Y-10821776D02*
X7930148Y-10821776D01*
X7987290Y-10821776D02*
X7987290Y-10621776D01*
X7968243Y-10650348D01*
X7949195Y-10669395D01*
X7930148Y-10678919D01*
X8139671Y-10821776D02*
X8177767Y-10821776D01*
X8196814Y-10812252D01*
X8206338Y-10802729D01*
X8225386Y-10774157D01*
X8234909Y-10736062D01*
X8234909Y-10659871D01*
X8225386Y-10640824D01*
X8215862Y-10631300D01*
X8196814Y-10621776D01*
X8158719Y-10621776D01*
X8139671Y-10631300D01*
X8130148Y-10640824D01*
X8120624Y-10659871D01*
X8120624Y-10707490D01*
X8130148Y-10726538D01*
X8139671Y-10736062D01*
X8158719Y-10745586D01*
X8196814Y-10745586D01*
X8215862Y-10736062D01*
X8225386Y-10726538D01*
X8234909Y-10707490D01*
X8301576Y-10621776D02*
X8434910Y-10621776D01*
X8349195Y-10821776D01*
X8501576Y-10621776D02*
X8501576Y-10659871D01*
X8577767Y-10621776D02*
X8577767Y-10659871D01*
X8873005Y-10897967D02*
X8863481Y-10888443D01*
X8844433Y-10859871D01*
X8834910Y-10840824D01*
X8825386Y-10812252D01*
X8815862Y-10764633D01*
X8815862Y-10726538D01*
X8825386Y-10678919D01*
X8834910Y-10650348D01*
X8844433Y-10631300D01*
X8863481Y-10602729D01*
X8873005Y-10593205D01*
X8930148Y-10621776D02*
X9053957Y-10621776D01*
X8987290Y-10697967D01*
X9015862Y-10697967D01*
X9034910Y-10707490D01*
X9044433Y-10717014D01*
X9053957Y-10736062D01*
X9053957Y-10783681D01*
X9044433Y-10802729D01*
X9034910Y-10812252D01*
X9015862Y-10821776D01*
X8958719Y-10821776D01*
X8939671Y-10812252D01*
X8930148Y-10802729D01*
X9130148Y-10640824D02*
X9139671Y-10631300D01*
X9158719Y-10621776D01*
X9206338Y-10621776D01*
X9225386Y-10631300D01*
X9234910Y-10640824D01*
X9244433Y-10659871D01*
X9244433Y-10678919D01*
X9234910Y-10707490D01*
X9120624Y-10821776D01*
X9244433Y-10821776D01*
X9482529Y-10821776D02*
X9482529Y-10621776D01*
X9568243Y-10821776D02*
X9568243Y-10717014D01*
X9558719Y-10697967D01*
X9539671Y-10688443D01*
X9511100Y-10688443D01*
X9492052Y-10697967D01*
X9482529Y-10707490D01*
X9692052Y-10821776D02*
X9673005Y-10812252D01*
X9663481Y-10802729D01*
X9653957Y-10783681D01*
X9653957Y-10726538D01*
X9663481Y-10707490D01*
X9673005Y-10697967D01*
X9692052Y-10688443D01*
X9720624Y-10688443D01*
X9739671Y-10697967D01*
X9749195Y-10707490D01*
X9758719Y-10726538D01*
X9758719Y-10783681D01*
X9749195Y-10802729D01*
X9739671Y-10812252D01*
X9720624Y-10821776D01*
X9692052Y-10821776D01*
X9873005Y-10821776D02*
X9853957Y-10812252D01*
X9844433Y-10793205D01*
X9844433Y-10621776D01*
X10025386Y-10812252D02*
X10006338Y-10821776D01*
X9968243Y-10821776D01*
X9949195Y-10812252D01*
X9939671Y-10793205D01*
X9939671Y-10717014D01*
X9949195Y-10697967D01*
X9968243Y-10688443D01*
X10006338Y-10688443D01*
X10025386Y-10697967D01*
X10034910Y-10717014D01*
X10034910Y-10736062D01*
X9939671Y-10755110D01*
X10111100Y-10812252D02*
X10130148Y-10821776D01*
X10168243Y-10821776D01*
X10187290Y-10812252D01*
X10196814Y-10793205D01*
X10196814Y-10783681D01*
X10187290Y-10764633D01*
X10168243Y-10755110D01*
X10139671Y-10755110D01*
X10120624Y-10745586D01*
X10111100Y-10726538D01*
X10111100Y-10717014D01*
X10120624Y-10697967D01*
X10139671Y-10688443D01*
X10168243Y-10688443D01*
X10187290Y-10697967D01*
X10263481Y-10897967D02*
X10273005Y-10888443D01*
X10292052Y-10859871D01*
X10301576Y-10840824D01*
X10311100Y-10812252D01*
X10320624Y-10764633D01*
X10320624Y-10726538D01*
X10311100Y-10678919D01*
X10301576Y-10650348D01*
X10292052Y-10631300D01*
X10273005Y-10602729D01*
X10263481Y-10593205D01*
D13*
X5301100Y-10995300D02*
G75*
G03*
X5301100Y-10995300I-45000J0D01*
G01*
D11*
X5596814Y-10885776D02*
X5615862Y-10885776D01*
X5634909Y-10895300D01*
X5644433Y-10904824D01*
X5653957Y-10923871D01*
X5663481Y-10961967D01*
X5663481Y-11009586D01*
X5653957Y-11047681D01*
X5644433Y-11066729D01*
X5634909Y-11076252D01*
X5615862Y-11085776D01*
X5596814Y-11085776D01*
X5577767Y-11076252D01*
X5568243Y-11066729D01*
X5558719Y-11047681D01*
X5549195Y-11009586D01*
X5549195Y-10961967D01*
X5558719Y-10923871D01*
X5568243Y-10904824D01*
X5577767Y-10895300D01*
X5596814Y-10885776D01*
X5749195Y-11066729D02*
X5758719Y-11076252D01*
X5749195Y-11085776D01*
X5739671Y-11076252D01*
X5749195Y-11066729D01*
X5749195Y-11085776D01*
X5853957Y-11085776D02*
X5892052Y-11085776D01*
X5911100Y-11076252D01*
X5920624Y-11066729D01*
X5939671Y-11038157D01*
X5949195Y-11000062D01*
X5949195Y-10923871D01*
X5939671Y-10904824D01*
X5930148Y-10895300D01*
X5911100Y-10885776D01*
X5873005Y-10885776D01*
X5853957Y-10895300D01*
X5844433Y-10904824D01*
X5834909Y-10923871D01*
X5834909Y-10971490D01*
X5844433Y-10990538D01*
X5853957Y-11000062D01*
X5873005Y-11009586D01*
X5911100Y-11009586D01*
X5930148Y-11000062D01*
X5939671Y-10990538D01*
X5949195Y-10971490D01*
X6073005Y-10885776D02*
X6092052Y-10885776D01*
X6111100Y-10895300D01*
X6120624Y-10904824D01*
X6130148Y-10923871D01*
X6139671Y-10961967D01*
X6139671Y-11009586D01*
X6130148Y-11047681D01*
X6120624Y-11066729D01*
X6111100Y-11076252D01*
X6092052Y-11085776D01*
X6073005Y-11085776D01*
X6053957Y-11076252D01*
X6044433Y-11066729D01*
X6034909Y-11047681D01*
X6025386Y-11009586D01*
X6025386Y-10961967D01*
X6034909Y-10923871D01*
X6044433Y-10904824D01*
X6053957Y-10895300D01*
X6073005Y-10885776D01*
X6263481Y-10885776D02*
X6282528Y-10885776D01*
X6301576Y-10895300D01*
X6311100Y-10904824D01*
X6320624Y-10923871D01*
X6330148Y-10961967D01*
X6330148Y-11009586D01*
X6320624Y-11047681D01*
X6311100Y-11066729D01*
X6301576Y-11076252D01*
X6282528Y-11085776D01*
X6263481Y-11085776D01*
X6244433Y-11076252D01*
X6234909Y-11066729D01*
X6225386Y-11047681D01*
X6215862Y-11009586D01*
X6215862Y-10961967D01*
X6225386Y-10923871D01*
X6234909Y-10904824D01*
X6244433Y-10895300D01*
X6263481Y-10885776D01*
X6415862Y-11085776D02*
X6415862Y-10952443D01*
X6415862Y-10971490D02*
X6425386Y-10961967D01*
X6444433Y-10952443D01*
X6473005Y-10952443D01*
X6492052Y-10961967D01*
X6501576Y-10981014D01*
X6501576Y-11085776D01*
X6501576Y-10981014D02*
X6511100Y-10961967D01*
X6530148Y-10952443D01*
X6558719Y-10952443D01*
X6577767Y-10961967D01*
X6587290Y-10981014D01*
X6587290Y-11085776D01*
X6682528Y-11085776D02*
X6682528Y-10952443D01*
X6682528Y-10971490D02*
X6692052Y-10961967D01*
X6711100Y-10952443D01*
X6739671Y-10952443D01*
X6758719Y-10961967D01*
X6768243Y-10981014D01*
X6768243Y-11085776D01*
X6768243Y-10981014D02*
X6777767Y-10961967D01*
X6796814Y-10952443D01*
X6825386Y-10952443D01*
X6844433Y-10961967D01*
X6853957Y-10981014D01*
X6853957Y-11085776D01*
X7244433Y-10876252D02*
X7073005Y-11133395D01*
X7501576Y-10885776D02*
X7520624Y-10885776D01*
X7539671Y-10895300D01*
X7549195Y-10904824D01*
X7558719Y-10923871D01*
X7568243Y-10961967D01*
X7568243Y-11009586D01*
X7558719Y-11047681D01*
X7549195Y-11066729D01*
X7539671Y-11076252D01*
X7520624Y-11085776D01*
X7501576Y-11085776D01*
X7482528Y-11076252D01*
X7473005Y-11066729D01*
X7463481Y-11047681D01*
X7453957Y-11009586D01*
X7453957Y-10961967D01*
X7463481Y-10923871D01*
X7473005Y-10904824D01*
X7482528Y-10895300D01*
X7501576Y-10885776D01*
X7653957Y-11066729D02*
X7663481Y-11076252D01*
X7653957Y-11085776D01*
X7644433Y-11076252D01*
X7653957Y-11066729D01*
X7653957Y-11085776D01*
X7787290Y-10885776D02*
X7806338Y-10885776D01*
X7825386Y-10895300D01*
X7834909Y-10904824D01*
X7844433Y-10923871D01*
X7853957Y-10961967D01*
X7853957Y-11009586D01*
X7844433Y-11047681D01*
X7834909Y-11066729D01*
X7825386Y-11076252D01*
X7806338Y-11085776D01*
X7787290Y-11085776D01*
X7768243Y-11076252D01*
X7758719Y-11066729D01*
X7749195Y-11047681D01*
X7739671Y-11009586D01*
X7739671Y-10961967D01*
X7749195Y-10923871D01*
X7758719Y-10904824D01*
X7768243Y-10895300D01*
X7787290Y-10885776D01*
X7920624Y-10885776D02*
X8044433Y-10885776D01*
X7977767Y-10961967D01*
X8006338Y-10961967D01*
X8025386Y-10971490D01*
X8034909Y-10981014D01*
X8044433Y-11000062D01*
X8044433Y-11047681D01*
X8034909Y-11066729D01*
X8025386Y-11076252D01*
X8006338Y-11085776D01*
X7949195Y-11085776D01*
X7930148Y-11076252D01*
X7920624Y-11066729D01*
X8225386Y-10885776D02*
X8130148Y-10885776D01*
X8120624Y-10981014D01*
X8130148Y-10971490D01*
X8149195Y-10961967D01*
X8196814Y-10961967D01*
X8215862Y-10971490D01*
X8225386Y-10981014D01*
X8234909Y-11000062D01*
X8234909Y-11047681D01*
X8225386Y-11066729D01*
X8215862Y-11076252D01*
X8196814Y-11085776D01*
X8149195Y-11085776D01*
X8130148Y-11076252D01*
X8120624Y-11066729D01*
X8406338Y-10952443D02*
X8406338Y-11085776D01*
X8358719Y-10876252D02*
X8311100Y-11019110D01*
X8434910Y-11019110D01*
X8501576Y-10885776D02*
X8501576Y-10923871D01*
X8577767Y-10885776D02*
X8577767Y-10923871D01*
X8873005Y-11161967D02*
X8863481Y-11152443D01*
X8844433Y-11123871D01*
X8834910Y-11104824D01*
X8825386Y-11076252D01*
X8815862Y-11028633D01*
X8815862Y-10990538D01*
X8825386Y-10942919D01*
X8834910Y-10914348D01*
X8844433Y-10895300D01*
X8863481Y-10866729D01*
X8873005Y-10857205D01*
X8939671Y-10904824D02*
X8949195Y-10895300D01*
X8968243Y-10885776D01*
X9015862Y-10885776D01*
X9034910Y-10895300D01*
X9044433Y-10904824D01*
X9053957Y-10923871D01*
X9053957Y-10942919D01*
X9044433Y-10971490D01*
X8930148Y-11085776D01*
X9053957Y-11085776D01*
X9292052Y-11085776D02*
X9292052Y-10885776D01*
X9377767Y-11085776D02*
X9377767Y-10981014D01*
X9368243Y-10961967D01*
X9349195Y-10952443D01*
X9320624Y-10952443D01*
X9301576Y-10961967D01*
X9292052Y-10971490D01*
X9501576Y-11085776D02*
X9482529Y-11076252D01*
X9473005Y-11066729D01*
X9463481Y-11047681D01*
X9463481Y-10990538D01*
X9473005Y-10971490D01*
X9482529Y-10961967D01*
X9501576Y-10952443D01*
X9530148Y-10952443D01*
X9549195Y-10961967D01*
X9558719Y-10971490D01*
X9568243Y-10990538D01*
X9568243Y-11047681D01*
X9558719Y-11066729D01*
X9549195Y-11076252D01*
X9530148Y-11085776D01*
X9501576Y-11085776D01*
X9682529Y-11085776D02*
X9663481Y-11076252D01*
X9653957Y-11057205D01*
X9653957Y-10885776D01*
X9834910Y-11076252D02*
X9815862Y-11085776D01*
X9777767Y-11085776D01*
X9758719Y-11076252D01*
X9749195Y-11057205D01*
X9749195Y-10981014D01*
X9758719Y-10961967D01*
X9777767Y-10952443D01*
X9815862Y-10952443D01*
X9834910Y-10961967D01*
X9844433Y-10981014D01*
X9844433Y-11000062D01*
X9749195Y-11019110D01*
X9920624Y-11076252D02*
X9939671Y-11085776D01*
X9977767Y-11085776D01*
X9996814Y-11076252D01*
X10006338Y-11057205D01*
X10006338Y-11047681D01*
X9996814Y-11028633D01*
X9977767Y-11019110D01*
X9949195Y-11019110D01*
X9930148Y-11009586D01*
X9920624Y-10990538D01*
X9920624Y-10981014D01*
X9930148Y-10961967D01*
X9949195Y-10952443D01*
X9977767Y-10952443D01*
X9996814Y-10961967D01*
X10073005Y-11161967D02*
X10082529Y-11152443D01*
X10101576Y-11123871D01*
X10111100Y-11104824D01*
X10120624Y-11076252D01*
X10130148Y-11028633D01*
X10130148Y-10990538D01*
X10120624Y-10942919D01*
X10111100Y-10914348D01*
X10101576Y-10895300D01*
X10082529Y-10866729D01*
X10073005Y-10857205D01*
D14*
X5251100Y-11209300D02*
X5251100Y-11309300D01*
X5201100Y-11259300D02*
X5301100Y-11259300D01*
D11*
X5663481Y-11349776D02*
X5549195Y-11349776D01*
X5606338Y-11349776D02*
X5606338Y-11149776D01*
X5587290Y-11178348D01*
X5568243Y-11197395D01*
X5549195Y-11206919D01*
X5749195Y-11330728D02*
X5758719Y-11340252D01*
X5749195Y-11349776D01*
X5739671Y-11340252D01*
X5749195Y-11330728D01*
X5749195Y-11349776D01*
X5882528Y-11149776D02*
X5901576Y-11149776D01*
X5920624Y-11159300D01*
X5930148Y-11168824D01*
X5939671Y-11187871D01*
X5949195Y-11225967D01*
X5949195Y-11273586D01*
X5939671Y-11311681D01*
X5930148Y-11330728D01*
X5920624Y-11340252D01*
X5901576Y-11349776D01*
X5882528Y-11349776D01*
X5863481Y-11340252D01*
X5853957Y-11330728D01*
X5844433Y-11311681D01*
X5834909Y-11273586D01*
X5834909Y-11225967D01*
X5844433Y-11187871D01*
X5853957Y-11168824D01*
X5863481Y-11159300D01*
X5882528Y-11149776D01*
X6073005Y-11149776D02*
X6092052Y-11149776D01*
X6111100Y-11159300D01*
X6120624Y-11168824D01*
X6130148Y-11187871D01*
X6139671Y-11225967D01*
X6139671Y-11273586D01*
X6130148Y-11311681D01*
X6120624Y-11330728D01*
X6111100Y-11340252D01*
X6092052Y-11349776D01*
X6073005Y-11349776D01*
X6053957Y-11340252D01*
X6044433Y-11330728D01*
X6034909Y-11311681D01*
X6025386Y-11273586D01*
X6025386Y-11225967D01*
X6034909Y-11187871D01*
X6044433Y-11168824D01*
X6053957Y-11159300D01*
X6073005Y-11149776D01*
X6263481Y-11149776D02*
X6282528Y-11149776D01*
X6301576Y-11159300D01*
X6311100Y-11168824D01*
X6320624Y-11187871D01*
X6330148Y-11225967D01*
X6330148Y-11273586D01*
X6320624Y-11311681D01*
X6311100Y-11330728D01*
X6301576Y-11340252D01*
X6282528Y-11349776D01*
X6263481Y-11349776D01*
X6244433Y-11340252D01*
X6234909Y-11330728D01*
X6225386Y-11311681D01*
X6215862Y-11273586D01*
X6215862Y-11225967D01*
X6225386Y-11187871D01*
X6234909Y-11168824D01*
X6244433Y-11159300D01*
X6263481Y-11149776D01*
X6415862Y-11349776D02*
X6415862Y-11216443D01*
X6415862Y-11235490D02*
X6425386Y-11225967D01*
X6444433Y-11216443D01*
X6473005Y-11216443D01*
X6492052Y-11225967D01*
X6501576Y-11245014D01*
X6501576Y-11349776D01*
X6501576Y-11245014D02*
X6511100Y-11225967D01*
X6530148Y-11216443D01*
X6558719Y-11216443D01*
X6577767Y-11225967D01*
X6587290Y-11245014D01*
X6587290Y-11349776D01*
X6682528Y-11349776D02*
X6682528Y-11216443D01*
X6682528Y-11235490D02*
X6692052Y-11225967D01*
X6711100Y-11216443D01*
X6739671Y-11216443D01*
X6758719Y-11225967D01*
X6768243Y-11245014D01*
X6768243Y-11349776D01*
X6768243Y-11245014D02*
X6777767Y-11225967D01*
X6796814Y-11216443D01*
X6825386Y-11216443D01*
X6844433Y-11225967D01*
X6853957Y-11245014D01*
X6853957Y-11349776D01*
X7244433Y-11140252D02*
X7073005Y-11397395D01*
X7501576Y-11149776D02*
X7520624Y-11149776D01*
X7539671Y-11159300D01*
X7549195Y-11168824D01*
X7558719Y-11187871D01*
X7568243Y-11225967D01*
X7568243Y-11273586D01*
X7558719Y-11311681D01*
X7549195Y-11330728D01*
X7539671Y-11340252D01*
X7520624Y-11349776D01*
X7501576Y-11349776D01*
X7482528Y-11340252D01*
X7473005Y-11330728D01*
X7463481Y-11311681D01*
X7453957Y-11273586D01*
X7453957Y-11225967D01*
X7463481Y-11187871D01*
X7473005Y-11168824D01*
X7482528Y-11159300D01*
X7501576Y-11149776D01*
X7653957Y-11330728D02*
X7663481Y-11340252D01*
X7653957Y-11349776D01*
X7644433Y-11340252D01*
X7653957Y-11330728D01*
X7653957Y-11349776D01*
X7787290Y-11149776D02*
X7806338Y-11149776D01*
X7825386Y-11159300D01*
X7834909Y-11168824D01*
X7844433Y-11187871D01*
X7853957Y-11225967D01*
X7853957Y-11273586D01*
X7844433Y-11311681D01*
X7834909Y-11330728D01*
X7825386Y-11340252D01*
X7806338Y-11349776D01*
X7787290Y-11349776D01*
X7768243Y-11340252D01*
X7758719Y-11330728D01*
X7749195Y-11311681D01*
X7739671Y-11273586D01*
X7739671Y-11225967D01*
X7749195Y-11187871D01*
X7758719Y-11168824D01*
X7768243Y-11159300D01*
X7787290Y-11149776D01*
X7920624Y-11149776D02*
X8044433Y-11149776D01*
X7977767Y-11225967D01*
X8006338Y-11225967D01*
X8025386Y-11235490D01*
X8034909Y-11245014D01*
X8044433Y-11264062D01*
X8044433Y-11311681D01*
X8034909Y-11330728D01*
X8025386Y-11340252D01*
X8006338Y-11349776D01*
X7949195Y-11349776D01*
X7930148Y-11340252D01*
X7920624Y-11330728D01*
X8139671Y-11349776D02*
X8177767Y-11349776D01*
X8196814Y-11340252D01*
X8206338Y-11330728D01*
X8225386Y-11302157D01*
X8234909Y-11264062D01*
X8234909Y-11187871D01*
X8225386Y-11168824D01*
X8215862Y-11159300D01*
X8196814Y-11149776D01*
X8158719Y-11149776D01*
X8139671Y-11159300D01*
X8130148Y-11168824D01*
X8120624Y-11187871D01*
X8120624Y-11235490D01*
X8130148Y-11254538D01*
X8139671Y-11264062D01*
X8158719Y-11273586D01*
X8196814Y-11273586D01*
X8215862Y-11264062D01*
X8225386Y-11254538D01*
X8234909Y-11235490D01*
X8406338Y-11216443D02*
X8406338Y-11349776D01*
X8358719Y-11140252D02*
X8311100Y-11283109D01*
X8434910Y-11283109D01*
X8501576Y-11149776D02*
X8501576Y-11187871D01*
X8577767Y-11149776D02*
X8577767Y-11187871D01*
X8873005Y-11425967D02*
X8863481Y-11416443D01*
X8844433Y-11387871D01*
X8834910Y-11368824D01*
X8825386Y-11340252D01*
X8815862Y-11292633D01*
X8815862Y-11254538D01*
X8825386Y-11206919D01*
X8834910Y-11178348D01*
X8844433Y-11159300D01*
X8863481Y-11130729D01*
X8873005Y-11121205D01*
X8930148Y-11149776D02*
X9053957Y-11149776D01*
X8987290Y-11225967D01*
X9015862Y-11225967D01*
X9034910Y-11235490D01*
X9044433Y-11245014D01*
X9053957Y-11264062D01*
X9053957Y-11311681D01*
X9044433Y-11330728D01*
X9034910Y-11340252D01*
X9015862Y-11349776D01*
X8958719Y-11349776D01*
X8939671Y-11340252D01*
X8930148Y-11330728D01*
X9225386Y-11216443D02*
X9225386Y-11349776D01*
X9177767Y-11140252D02*
X9130148Y-11283109D01*
X9253957Y-11283109D01*
X9482529Y-11349776D02*
X9482529Y-11149776D01*
X9568243Y-11349776D02*
X9568243Y-11245014D01*
X9558719Y-11225967D01*
X9539671Y-11216443D01*
X9511100Y-11216443D01*
X9492052Y-11225967D01*
X9482529Y-11235490D01*
X9692052Y-11349776D02*
X9673005Y-11340252D01*
X9663481Y-11330728D01*
X9653957Y-11311681D01*
X9653957Y-11254538D01*
X9663481Y-11235490D01*
X9673005Y-11225967D01*
X9692052Y-11216443D01*
X9720624Y-11216443D01*
X9739671Y-11225967D01*
X9749195Y-11235490D01*
X9758719Y-11254538D01*
X9758719Y-11311681D01*
X9749195Y-11330728D01*
X9739671Y-11340252D01*
X9720624Y-11349776D01*
X9692052Y-11349776D01*
X9873005Y-11349776D02*
X9853957Y-11340252D01*
X9844433Y-11321205D01*
X9844433Y-11149776D01*
X10025386Y-11340252D02*
X10006338Y-11349776D01*
X9968243Y-11349776D01*
X9949195Y-11340252D01*
X9939671Y-11321205D01*
X9939671Y-11245014D01*
X9949195Y-11225967D01*
X9968243Y-11216443D01*
X10006338Y-11216443D01*
X10025386Y-11225967D01*
X10034910Y-11245014D01*
X10034910Y-11264062D01*
X9939671Y-11283109D01*
X10111100Y-11340252D02*
X10130148Y-11349776D01*
X10168243Y-11349776D01*
X10187290Y-11340252D01*
X10196814Y-11321205D01*
X10196814Y-11311681D01*
X10187290Y-11292633D01*
X10168243Y-11283109D01*
X10139671Y-11283109D01*
X10120624Y-11273586D01*
X10111100Y-11254538D01*
X10111100Y-11245014D01*
X10120624Y-11225967D01*
X10139671Y-11216443D01*
X10168243Y-11216443D01*
X10187290Y-11225967D01*
X10263481Y-11425967D02*
X10273005Y-11416443D01*
X10292052Y-11387871D01*
X10301576Y-11368824D01*
X10311100Y-11340252D01*
X10320624Y-11292633D01*
X10320624Y-11254538D01*
X10311100Y-11206919D01*
X10301576Y-11178348D01*
X10292052Y-11159300D01*
X10273005Y-11130729D01*
X10263481Y-11121205D01*
D15*
X5284991Y-11562191D02*
X5284991Y-11484409D01*
X5207209Y-11484409D01*
X5207209Y-11562191D01*
X5284991Y-11562191D01*
D11*
X5663481Y-11613776D02*
X5549195Y-11613776D01*
X5606338Y-11613776D02*
X5606338Y-11413776D01*
X5587290Y-11442348D01*
X5568243Y-11461395D01*
X5549195Y-11470919D01*
X5749195Y-11594728D02*
X5758719Y-11604252D01*
X5749195Y-11613776D01*
X5739671Y-11604252D01*
X5749195Y-11594728D01*
X5749195Y-11613776D01*
X5949195Y-11613776D02*
X5834909Y-11613776D01*
X5892052Y-11613776D02*
X5892052Y-11413776D01*
X5873005Y-11442348D01*
X5853957Y-11461395D01*
X5834909Y-11470919D01*
X6073005Y-11413776D02*
X6092052Y-11413776D01*
X6111100Y-11423300D01*
X6120624Y-11432824D01*
X6130148Y-11451871D01*
X6139671Y-11489967D01*
X6139671Y-11537586D01*
X6130148Y-11575681D01*
X6120624Y-11594728D01*
X6111100Y-11604252D01*
X6092052Y-11613776D01*
X6073005Y-11613776D01*
X6053957Y-11604252D01*
X6044433Y-11594728D01*
X6034909Y-11575681D01*
X6025386Y-11537586D01*
X6025386Y-11489967D01*
X6034909Y-11451871D01*
X6044433Y-11432824D01*
X6053957Y-11423300D01*
X6073005Y-11413776D01*
X6263481Y-11413776D02*
X6282528Y-11413776D01*
X6301576Y-11423300D01*
X6311100Y-11432824D01*
X6320624Y-11451871D01*
X6330148Y-11489967D01*
X6330148Y-11537586D01*
X6320624Y-11575681D01*
X6311100Y-11594728D01*
X6301576Y-11604252D01*
X6282528Y-11613776D01*
X6263481Y-11613776D01*
X6244433Y-11604252D01*
X6234909Y-11594728D01*
X6225386Y-11575681D01*
X6215862Y-11537586D01*
X6215862Y-11489967D01*
X6225386Y-11451871D01*
X6234909Y-11432824D01*
X6244433Y-11423300D01*
X6263481Y-11413776D01*
X6415862Y-11613776D02*
X6415862Y-11480443D01*
X6415862Y-11499490D02*
X6425386Y-11489967D01*
X6444433Y-11480443D01*
X6473005Y-11480443D01*
X6492052Y-11489967D01*
X6501576Y-11509014D01*
X6501576Y-11613776D01*
X6501576Y-11509014D02*
X6511100Y-11489967D01*
X6530148Y-11480443D01*
X6558719Y-11480443D01*
X6577767Y-11489967D01*
X6587290Y-11509014D01*
X6587290Y-11613776D01*
X6682528Y-11613776D02*
X6682528Y-11480443D01*
X6682528Y-11499490D02*
X6692052Y-11489967D01*
X6711100Y-11480443D01*
X6739671Y-11480443D01*
X6758719Y-11489967D01*
X6768243Y-11509014D01*
X6768243Y-11613776D01*
X6768243Y-11509014D02*
X6777767Y-11489967D01*
X6796814Y-11480443D01*
X6825386Y-11480443D01*
X6844433Y-11489967D01*
X6853957Y-11509014D01*
X6853957Y-11613776D01*
X7244433Y-11404252D02*
X7073005Y-11661395D01*
X7501576Y-11413776D02*
X7520624Y-11413776D01*
X7539671Y-11423300D01*
X7549195Y-11432824D01*
X7558719Y-11451871D01*
X7568243Y-11489967D01*
X7568243Y-11537586D01*
X7558719Y-11575681D01*
X7549195Y-11594728D01*
X7539671Y-11604252D01*
X7520624Y-11613776D01*
X7501576Y-11613776D01*
X7482528Y-11604252D01*
X7473005Y-11594728D01*
X7463481Y-11575681D01*
X7453957Y-11537586D01*
X7453957Y-11489967D01*
X7463481Y-11451871D01*
X7473005Y-11432824D01*
X7482528Y-11423300D01*
X7501576Y-11413776D01*
X7653957Y-11594728D02*
X7663481Y-11604252D01*
X7653957Y-11613776D01*
X7644433Y-11604252D01*
X7653957Y-11594728D01*
X7653957Y-11613776D01*
X7787290Y-11413776D02*
X7806338Y-11413776D01*
X7825386Y-11423300D01*
X7834909Y-11432824D01*
X7844433Y-11451871D01*
X7853957Y-11489967D01*
X7853957Y-11537586D01*
X7844433Y-11575681D01*
X7834909Y-11594728D01*
X7825386Y-11604252D01*
X7806338Y-11613776D01*
X7787290Y-11613776D01*
X7768243Y-11604252D01*
X7758719Y-11594728D01*
X7749195Y-11575681D01*
X7739671Y-11537586D01*
X7739671Y-11489967D01*
X7749195Y-11451871D01*
X7758719Y-11432824D01*
X7768243Y-11423300D01*
X7787290Y-11413776D01*
X8025386Y-11480443D02*
X8025386Y-11613776D01*
X7977767Y-11404252D02*
X7930148Y-11547109D01*
X8053957Y-11547109D01*
X8111100Y-11413776D02*
X8234909Y-11413776D01*
X8168243Y-11489967D01*
X8196814Y-11489967D01*
X8215862Y-11499490D01*
X8225386Y-11509014D01*
X8234909Y-11528062D01*
X8234909Y-11575681D01*
X8225386Y-11594728D01*
X8215862Y-11604252D01*
X8196814Y-11613776D01*
X8139671Y-11613776D01*
X8120624Y-11604252D01*
X8111100Y-11594728D01*
X8301576Y-11413776D02*
X8425386Y-11413776D01*
X8358719Y-11489967D01*
X8387290Y-11489967D01*
X8406338Y-11499490D01*
X8415862Y-11509014D01*
X8425386Y-11528062D01*
X8425386Y-11575681D01*
X8415862Y-11594728D01*
X8406338Y-11604252D01*
X8387290Y-11613776D01*
X8330148Y-11613776D01*
X8311100Y-11604252D01*
X8301576Y-11594728D01*
X8501576Y-11413776D02*
X8501576Y-11451871D01*
X8577767Y-11413776D02*
X8577767Y-11451871D01*
X8873005Y-11689967D02*
X8863481Y-11680443D01*
X8844433Y-11651871D01*
X8834910Y-11632824D01*
X8825386Y-11604252D01*
X8815862Y-11556633D01*
X8815862Y-11518538D01*
X8825386Y-11470919D01*
X8834910Y-11442348D01*
X8844433Y-11423300D01*
X8863481Y-11394728D01*
X8873005Y-11385205D01*
X9034910Y-11413776D02*
X8996814Y-11413776D01*
X8977767Y-11423300D01*
X8968243Y-11432824D01*
X8949195Y-11461395D01*
X8939671Y-11499490D01*
X8939671Y-11575681D01*
X8949195Y-11594728D01*
X8958719Y-11604252D01*
X8977767Y-11613776D01*
X9015862Y-11613776D01*
X9034910Y-11604252D01*
X9044433Y-11594728D01*
X9053957Y-11575681D01*
X9053957Y-11528062D01*
X9044433Y-11509014D01*
X9034910Y-11499490D01*
X9015862Y-11489967D01*
X8977767Y-11489967D01*
X8958719Y-11499490D01*
X8949195Y-11509014D01*
X8939671Y-11528062D01*
X9292052Y-11613776D02*
X9292052Y-11413776D01*
X9377767Y-11613776D02*
X9377767Y-11509014D01*
X9368243Y-11489967D01*
X9349195Y-11480443D01*
X9320624Y-11480443D01*
X9301576Y-11489967D01*
X9292052Y-11499490D01*
X9501576Y-11613776D02*
X9482529Y-11604252D01*
X9473005Y-11594728D01*
X9463481Y-11575681D01*
X9463481Y-11518538D01*
X9473005Y-11499490D01*
X9482529Y-11489967D01*
X9501576Y-11480443D01*
X9530148Y-11480443D01*
X9549195Y-11489967D01*
X9558719Y-11499490D01*
X9568243Y-11518538D01*
X9568243Y-11575681D01*
X9558719Y-11594728D01*
X9549195Y-11604252D01*
X9530148Y-11613776D01*
X9501576Y-11613776D01*
X9682529Y-11613776D02*
X9663481Y-11604252D01*
X9653957Y-11585205D01*
X9653957Y-11413776D01*
X9834910Y-11604252D02*
X9815862Y-11613776D01*
X9777767Y-11613776D01*
X9758719Y-11604252D01*
X9749195Y-11585205D01*
X9749195Y-11509014D01*
X9758719Y-11489967D01*
X9777767Y-11480443D01*
X9815862Y-11480443D01*
X9834910Y-11489967D01*
X9844433Y-11509014D01*
X9844433Y-11528062D01*
X9749195Y-11547109D01*
X9920624Y-11604252D02*
X9939671Y-11613776D01*
X9977767Y-11613776D01*
X9996814Y-11604252D01*
X10006338Y-11585205D01*
X10006338Y-11575681D01*
X9996814Y-11556633D01*
X9977767Y-11547109D01*
X9949195Y-11547109D01*
X9930148Y-11537586D01*
X9920624Y-11518538D01*
X9920624Y-11509014D01*
X9930148Y-11489967D01*
X9949195Y-11480443D01*
X9977767Y-11480443D01*
X9996814Y-11489967D01*
X10073005Y-11689967D02*
X10082529Y-11680443D01*
X10101576Y-11651871D01*
X10111100Y-11632824D01*
X10120624Y-11604252D01*
X10130148Y-11556633D01*
X10130148Y-11518538D01*
X10120624Y-11470919D01*
X10111100Y-11442348D01*
X10101576Y-11423300D01*
X10082529Y-11394728D01*
X10073005Y-11385205D01*
D16*
X5236100Y-11852300D02*
X5301100Y-11787300D01*
X5236100Y-11722300D01*
X5171100Y-11787300D01*
X5236100Y-11852300D01*
D11*
X5663481Y-11877776D02*
X5549195Y-11877776D01*
X5606338Y-11877776D02*
X5606338Y-11677776D01*
X5587290Y-11706348D01*
X5568243Y-11725395D01*
X5549195Y-11734919D01*
X5749195Y-11858728D02*
X5758719Y-11868252D01*
X5749195Y-11877776D01*
X5739671Y-11868252D01*
X5749195Y-11858728D01*
X5749195Y-11877776D01*
X5825386Y-11677776D02*
X5949195Y-11677776D01*
X5882528Y-11753967D01*
X5911100Y-11753967D01*
X5930148Y-11763490D01*
X5939671Y-11773014D01*
X5949195Y-11792062D01*
X5949195Y-11839681D01*
X5939671Y-11858728D01*
X5930148Y-11868252D01*
X5911100Y-11877776D01*
X5853957Y-11877776D01*
X5834909Y-11868252D01*
X5825386Y-11858728D01*
X6073005Y-11677776D02*
X6092052Y-11677776D01*
X6111100Y-11687300D01*
X6120624Y-11696824D01*
X6130148Y-11715871D01*
X6139671Y-11753967D01*
X6139671Y-11801586D01*
X6130148Y-11839681D01*
X6120624Y-11858728D01*
X6111100Y-11868252D01*
X6092052Y-11877776D01*
X6073005Y-11877776D01*
X6053957Y-11868252D01*
X6044433Y-11858728D01*
X6034909Y-11839681D01*
X6025386Y-11801586D01*
X6025386Y-11753967D01*
X6034909Y-11715871D01*
X6044433Y-11696824D01*
X6053957Y-11687300D01*
X6073005Y-11677776D01*
X6263481Y-11677776D02*
X6282528Y-11677776D01*
X6301576Y-11687300D01*
X6311100Y-11696824D01*
X6320624Y-11715871D01*
X6330148Y-11753967D01*
X6330148Y-11801586D01*
X6320624Y-11839681D01*
X6311100Y-11858728D01*
X6301576Y-11868252D01*
X6282528Y-11877776D01*
X6263481Y-11877776D01*
X6244433Y-11868252D01*
X6234909Y-11858728D01*
X6225386Y-11839681D01*
X6215862Y-11801586D01*
X6215862Y-11753967D01*
X6225386Y-11715871D01*
X6234909Y-11696824D01*
X6244433Y-11687300D01*
X6263481Y-11677776D01*
X6415862Y-11877776D02*
X6415862Y-11744443D01*
X6415862Y-11763490D02*
X6425386Y-11753967D01*
X6444433Y-11744443D01*
X6473005Y-11744443D01*
X6492052Y-11753967D01*
X6501576Y-11773014D01*
X6501576Y-11877776D01*
X6501576Y-11773014D02*
X6511100Y-11753967D01*
X6530148Y-11744443D01*
X6558719Y-11744443D01*
X6577767Y-11753967D01*
X6587290Y-11773014D01*
X6587290Y-11877776D01*
X6682528Y-11877776D02*
X6682528Y-11744443D01*
X6682528Y-11763490D02*
X6692052Y-11753967D01*
X6711100Y-11744443D01*
X6739671Y-11744443D01*
X6758719Y-11753967D01*
X6768243Y-11773014D01*
X6768243Y-11877776D01*
X6768243Y-11773014D02*
X6777767Y-11753967D01*
X6796814Y-11744443D01*
X6825386Y-11744443D01*
X6844433Y-11753967D01*
X6853957Y-11773014D01*
X6853957Y-11877776D01*
X7244433Y-11668252D02*
X7073005Y-11925395D01*
X7501576Y-11677776D02*
X7520624Y-11677776D01*
X7539671Y-11687300D01*
X7549195Y-11696824D01*
X7558719Y-11715871D01*
X7568243Y-11753967D01*
X7568243Y-11801586D01*
X7558719Y-11839681D01*
X7549195Y-11858728D01*
X7539671Y-11868252D01*
X7520624Y-11877776D01*
X7501576Y-11877776D01*
X7482528Y-11868252D01*
X7473005Y-11858728D01*
X7463481Y-11839681D01*
X7453957Y-11801586D01*
X7453957Y-11753967D01*
X7463481Y-11715871D01*
X7473005Y-11696824D01*
X7482528Y-11687300D01*
X7501576Y-11677776D01*
X7653957Y-11858728D02*
X7663481Y-11868252D01*
X7653957Y-11877776D01*
X7644433Y-11868252D01*
X7653957Y-11858728D01*
X7653957Y-11877776D01*
X7787290Y-11677776D02*
X7806338Y-11677776D01*
X7825386Y-11687300D01*
X7834909Y-11696824D01*
X7844433Y-11715871D01*
X7853957Y-11753967D01*
X7853957Y-11801586D01*
X7844433Y-11839681D01*
X7834909Y-11858728D01*
X7825386Y-11868252D01*
X7806338Y-11877776D01*
X7787290Y-11877776D01*
X7768243Y-11868252D01*
X7758719Y-11858728D01*
X7749195Y-11839681D01*
X7739671Y-11801586D01*
X7739671Y-11753967D01*
X7749195Y-11715871D01*
X7758719Y-11696824D01*
X7768243Y-11687300D01*
X7787290Y-11677776D01*
X8034909Y-11677776D02*
X7939671Y-11677776D01*
X7930148Y-11773014D01*
X7939671Y-11763490D01*
X7958719Y-11753967D01*
X8006338Y-11753967D01*
X8025386Y-11763490D01*
X8034909Y-11773014D01*
X8044433Y-11792062D01*
X8044433Y-11839681D01*
X8034909Y-11858728D01*
X8025386Y-11868252D01*
X8006338Y-11877776D01*
X7958719Y-11877776D01*
X7939671Y-11868252D01*
X7930148Y-11858728D01*
X8234909Y-11877776D02*
X8120624Y-11877776D01*
X8177767Y-11877776D02*
X8177767Y-11677776D01*
X8158719Y-11706348D01*
X8139671Y-11725395D01*
X8120624Y-11734919D01*
X8311100Y-11696824D02*
X8320624Y-11687300D01*
X8339671Y-11677776D01*
X8387290Y-11677776D01*
X8406338Y-11687300D01*
X8415862Y-11696824D01*
X8425386Y-11715871D01*
X8425386Y-11734919D01*
X8415862Y-11763490D01*
X8301576Y-11877776D01*
X8425386Y-11877776D01*
X8501576Y-11677776D02*
X8501576Y-11715871D01*
X8577767Y-11677776D02*
X8577767Y-11715871D01*
X8873005Y-11953967D02*
X8863481Y-11944443D01*
X8844433Y-11915871D01*
X8834910Y-11896824D01*
X8825386Y-11868252D01*
X8815862Y-11820633D01*
X8815862Y-11782538D01*
X8825386Y-11734919D01*
X8834910Y-11706348D01*
X8844433Y-11687300D01*
X8863481Y-11658728D01*
X8873005Y-11649205D01*
X9053957Y-11877776D02*
X8939671Y-11877776D01*
X8996814Y-11877776D02*
X8996814Y-11677776D01*
X8977767Y-11706348D01*
X8958719Y-11725395D01*
X8939671Y-11734919D01*
X9168243Y-11763490D02*
X9149195Y-11753967D01*
X9139671Y-11744443D01*
X9130148Y-11725395D01*
X9130148Y-11715871D01*
X9139671Y-11696824D01*
X9149195Y-11687300D01*
X9168243Y-11677776D01*
X9206338Y-11677776D01*
X9225386Y-11687300D01*
X9234910Y-11696824D01*
X9244433Y-11715871D01*
X9244433Y-11725395D01*
X9234910Y-11744443D01*
X9225386Y-11753967D01*
X9206338Y-11763490D01*
X9168243Y-11763490D01*
X9149195Y-11773014D01*
X9139671Y-11782538D01*
X9130148Y-11801586D01*
X9130148Y-11839681D01*
X9139671Y-11858728D01*
X9149195Y-11868252D01*
X9168243Y-11877776D01*
X9206338Y-11877776D01*
X9225386Y-11868252D01*
X9234910Y-11858728D01*
X9244433Y-11839681D01*
X9244433Y-11801586D01*
X9234910Y-11782538D01*
X9225386Y-11773014D01*
X9206338Y-11763490D01*
X9482529Y-11877776D02*
X9482529Y-11677776D01*
X9568243Y-11877776D02*
X9568243Y-11773014D01*
X9558719Y-11753967D01*
X9539671Y-11744443D01*
X9511100Y-11744443D01*
X9492052Y-11753967D01*
X9482529Y-11763490D01*
X9692052Y-11877776D02*
X9673005Y-11868252D01*
X9663481Y-11858728D01*
X9653957Y-11839681D01*
X9653957Y-11782538D01*
X9663481Y-11763490D01*
X9673005Y-11753967D01*
X9692052Y-11744443D01*
X9720624Y-11744443D01*
X9739671Y-11753967D01*
X9749195Y-11763490D01*
X9758719Y-11782538D01*
X9758719Y-11839681D01*
X9749195Y-11858728D01*
X9739671Y-11868252D01*
X9720624Y-11877776D01*
X9692052Y-11877776D01*
X9873005Y-11877776D02*
X9853957Y-11868252D01*
X9844433Y-11849205D01*
X9844433Y-11677776D01*
X10025386Y-11868252D02*
X10006338Y-11877776D01*
X9968243Y-11877776D01*
X9949195Y-11868252D01*
X9939671Y-11849205D01*
X9939671Y-11773014D01*
X9949195Y-11753967D01*
X9968243Y-11744443D01*
X10006338Y-11744443D01*
X10025386Y-11753967D01*
X10034910Y-11773014D01*
X10034910Y-11792062D01*
X9939671Y-11811109D01*
X10111100Y-11868252D02*
X10130148Y-11877776D01*
X10168243Y-11877776D01*
X10187290Y-11868252D01*
X10196814Y-11849205D01*
X10196814Y-11839681D01*
X10187290Y-11820633D01*
X10168243Y-11811109D01*
X10139671Y-11811109D01*
X10120624Y-11801586D01*
X10111100Y-11782538D01*
X10111100Y-11773014D01*
X10120624Y-11753967D01*
X10139671Y-11744443D01*
X10168243Y-11744443D01*
X10187290Y-11753967D01*
X10263481Y-11953967D02*
X10273005Y-11944443D01*
X10292052Y-11915871D01*
X10301576Y-11896824D01*
X10311100Y-11868252D01*
X10320624Y-11820633D01*
X10320624Y-11782538D01*
X10311100Y-11734919D01*
X10301576Y-11706348D01*
X10292052Y-11687300D01*
X10273005Y-11658728D01*
X10263481Y-11649205D01*
X5101100Y-11951300D02*
X5301100Y-12151300D01*
X5301100Y-11951300D02*
X5101100Y-12151300D01*
X5301100Y-12051300D02*
G75*
G03*
X5301100Y-12051300I-100000J0D01*
G01*
X5539671Y-11941776D02*
X5663481Y-11941776D01*
X5596814Y-12017967D01*
X5625386Y-12017967D01*
X5644433Y-12027490D01*
X5653957Y-12037014D01*
X5663481Y-12056062D01*
X5663481Y-12103681D01*
X5653957Y-12122728D01*
X5644433Y-12132252D01*
X5625386Y-12141776D01*
X5568243Y-12141776D01*
X5549195Y-12132252D01*
X5539671Y-12122728D01*
X5749195Y-12122728D02*
X5758719Y-12132252D01*
X5749195Y-12141776D01*
X5739671Y-12132252D01*
X5749195Y-12122728D01*
X5749195Y-12141776D01*
X5939671Y-11941776D02*
X5844433Y-11941776D01*
X5834909Y-12037014D01*
X5844433Y-12027490D01*
X5863481Y-12017967D01*
X5911100Y-12017967D01*
X5930148Y-12027490D01*
X5939671Y-12037014D01*
X5949195Y-12056062D01*
X5949195Y-12103681D01*
X5939671Y-12122728D01*
X5930148Y-12132252D01*
X5911100Y-12141776D01*
X5863481Y-12141776D01*
X5844433Y-12132252D01*
X5834909Y-12122728D01*
X6073005Y-11941776D02*
X6092052Y-11941776D01*
X6111100Y-11951300D01*
X6120624Y-11960824D01*
X6130148Y-11979871D01*
X6139671Y-12017967D01*
X6139671Y-12065586D01*
X6130148Y-12103681D01*
X6120624Y-12122728D01*
X6111100Y-12132252D01*
X6092052Y-12141776D01*
X6073005Y-12141776D01*
X6053957Y-12132252D01*
X6044433Y-12122728D01*
X6034909Y-12103681D01*
X6025386Y-12065586D01*
X6025386Y-12017967D01*
X6034909Y-11979871D01*
X6044433Y-11960824D01*
X6053957Y-11951300D01*
X6073005Y-11941776D01*
X6263481Y-11941776D02*
X6282528Y-11941776D01*
X6301576Y-11951300D01*
X6311100Y-11960824D01*
X6320624Y-11979871D01*
X6330148Y-12017967D01*
X6330148Y-12065586D01*
X6320624Y-12103681D01*
X6311100Y-12122728D01*
X6301576Y-12132252D01*
X6282528Y-12141776D01*
X6263481Y-12141776D01*
X6244433Y-12132252D01*
X6234909Y-12122728D01*
X6225386Y-12103681D01*
X6215862Y-12065586D01*
X6215862Y-12017967D01*
X6225386Y-11979871D01*
X6234909Y-11960824D01*
X6244433Y-11951300D01*
X6263481Y-11941776D01*
X6415862Y-12141776D02*
X6415862Y-12008443D01*
X6415862Y-12027490D02*
X6425386Y-12017967D01*
X6444433Y-12008443D01*
X6473005Y-12008443D01*
X6492052Y-12017967D01*
X6501576Y-12037014D01*
X6501576Y-12141776D01*
X6501576Y-12037014D02*
X6511100Y-12017967D01*
X6530148Y-12008443D01*
X6558719Y-12008443D01*
X6577767Y-12017967D01*
X6587290Y-12037014D01*
X6587290Y-12141776D01*
X6682528Y-12141776D02*
X6682528Y-12008443D01*
X6682528Y-12027490D02*
X6692052Y-12017967D01*
X6711100Y-12008443D01*
X6739671Y-12008443D01*
X6758719Y-12017967D01*
X6768243Y-12037014D01*
X6768243Y-12141776D01*
X6768243Y-12037014D02*
X6777767Y-12017967D01*
X6796814Y-12008443D01*
X6825386Y-12008443D01*
X6844433Y-12017967D01*
X6853957Y-12037014D01*
X6853957Y-12141776D01*
X7244433Y-11932252D02*
X7073005Y-12189395D01*
X7501576Y-11941776D02*
X7520624Y-11941776D01*
X7539671Y-11951300D01*
X7549195Y-11960824D01*
X7558719Y-11979871D01*
X7568243Y-12017967D01*
X7568243Y-12065586D01*
X7558719Y-12103681D01*
X7549195Y-12122728D01*
X7539671Y-12132252D01*
X7520624Y-12141776D01*
X7501576Y-12141776D01*
X7482528Y-12132252D01*
X7473005Y-12122728D01*
X7463481Y-12103681D01*
X7453957Y-12065586D01*
X7453957Y-12017967D01*
X7463481Y-11979871D01*
X7473005Y-11960824D01*
X7482528Y-11951300D01*
X7501576Y-11941776D01*
X7653957Y-12122728D02*
X7663481Y-12132252D01*
X7653957Y-12141776D01*
X7644433Y-12132252D01*
X7653957Y-12122728D01*
X7653957Y-12141776D01*
X7853957Y-12141776D02*
X7739671Y-12141776D01*
X7796814Y-12141776D02*
X7796814Y-11941776D01*
X7777767Y-11970348D01*
X7758719Y-11989395D01*
X7739671Y-11998919D01*
X7920624Y-11941776D02*
X8044433Y-11941776D01*
X7977767Y-12017967D01*
X8006338Y-12017967D01*
X8025386Y-12027490D01*
X8034909Y-12037014D01*
X8044433Y-12056062D01*
X8044433Y-12103681D01*
X8034909Y-12122728D01*
X8025386Y-12132252D01*
X8006338Y-12141776D01*
X7949195Y-12141776D01*
X7930148Y-12132252D01*
X7920624Y-12122728D01*
X8111100Y-11941776D02*
X8244433Y-11941776D01*
X8158719Y-12141776D01*
X8349195Y-12027490D02*
X8330148Y-12017967D01*
X8320624Y-12008443D01*
X8311100Y-11989395D01*
X8311100Y-11979871D01*
X8320624Y-11960824D01*
X8330148Y-11951300D01*
X8349195Y-11941776D01*
X8387290Y-11941776D01*
X8406338Y-11951300D01*
X8415862Y-11960824D01*
X8425386Y-11979871D01*
X8425386Y-11989395D01*
X8415862Y-12008443D01*
X8406338Y-12017967D01*
X8387290Y-12027490D01*
X8349195Y-12027490D01*
X8330148Y-12037014D01*
X8320624Y-12046538D01*
X8311100Y-12065586D01*
X8311100Y-12103681D01*
X8320624Y-12122728D01*
X8330148Y-12132252D01*
X8349195Y-12141776D01*
X8387290Y-12141776D01*
X8406338Y-12132252D01*
X8415862Y-12122728D01*
X8425386Y-12103681D01*
X8425386Y-12065586D01*
X8415862Y-12046538D01*
X8406338Y-12037014D01*
X8387290Y-12027490D01*
X8501576Y-11941776D02*
X8501576Y-11979871D01*
X8577767Y-11941776D02*
X8577767Y-11979871D01*
X8873005Y-12217967D02*
X8863481Y-12208443D01*
X8844433Y-12179871D01*
X8834910Y-12160824D01*
X8825386Y-12132252D01*
X8815862Y-12084633D01*
X8815862Y-12046538D01*
X8825386Y-11998919D01*
X8834910Y-11970348D01*
X8844433Y-11951300D01*
X8863481Y-11922728D01*
X8873005Y-11913205D01*
X9034910Y-12008443D02*
X9034910Y-12141776D01*
X8987290Y-11932252D02*
X8939671Y-12075109D01*
X9063481Y-12075109D01*
X9292052Y-12141776D02*
X9292052Y-11941776D01*
X9377767Y-12141776D02*
X9377767Y-12037014D01*
X9368243Y-12017967D01*
X9349195Y-12008443D01*
X9320624Y-12008443D01*
X9301576Y-12017967D01*
X9292052Y-12027490D01*
X9501576Y-12141776D02*
X9482529Y-12132252D01*
X9473005Y-12122728D01*
X9463481Y-12103681D01*
X9463481Y-12046538D01*
X9473005Y-12027490D01*
X9482529Y-12017967D01*
X9501576Y-12008443D01*
X9530148Y-12008443D01*
X9549195Y-12017967D01*
X9558719Y-12027490D01*
X9568243Y-12046538D01*
X9568243Y-12103681D01*
X9558719Y-12122728D01*
X9549195Y-12132252D01*
X9530148Y-12141776D01*
X9501576Y-12141776D01*
X9682529Y-12141776D02*
X9663481Y-12132252D01*
X9653957Y-12113205D01*
X9653957Y-11941776D01*
X9834910Y-12132252D02*
X9815862Y-12141776D01*
X9777767Y-12141776D01*
X9758719Y-12132252D01*
X9749195Y-12113205D01*
X9749195Y-12037014D01*
X9758719Y-12017967D01*
X9777767Y-12008443D01*
X9815862Y-12008443D01*
X9834910Y-12017967D01*
X9844433Y-12037014D01*
X9844433Y-12056062D01*
X9749195Y-12075109D01*
X9920624Y-12132252D02*
X9939671Y-12141776D01*
X9977767Y-12141776D01*
X9996814Y-12132252D01*
X10006338Y-12113205D01*
X10006338Y-12103681D01*
X9996814Y-12084633D01*
X9977767Y-12075109D01*
X9949195Y-12075109D01*
X9930148Y-12065586D01*
X9920624Y-12046538D01*
X9920624Y-12037014D01*
X9930148Y-12017967D01*
X9949195Y-12008443D01*
X9977767Y-12008443D01*
X9996814Y-12017967D01*
X10073005Y-12217967D02*
X10082529Y-12208443D01*
X10101576Y-12179871D01*
X10111100Y-12160824D01*
X10120624Y-12132252D01*
X10130148Y-12084633D01*
X10130148Y-12046538D01*
X10120624Y-11998919D01*
X10111100Y-11970348D01*
X10101576Y-11951300D01*
X10082529Y-11922728D01*
X10073005Y-11913205D01*
M02*
