M48
; DRILL file {KiCad (6.0.0-0)} date Tuesday, December 13, 2022 at 09:11:10 PM
; FORMAT={-:-/ absolute / inch / decimal}
; #@! TF.CreationDate,2022-12-13T21:11:10-05:00
; #@! TF.GenerationSoftware,Kicad,Pcbnew,(6.0.0-0)
; #@! TF.FileFunction,Plated,1,2,PTH
FMAT,2
INCH
; #@! TA.AperFunction,Plated,PTH,ComponentDrill
T1C0.0197
; #@! TA.AperFunction,Plated,PTH,ComponentDrill
T2C0.0354
; #@! TA.AperFunction,Plated,PTH,ComponentDrill
T3C0.0394
; #@! TA.AperFunction,Plated,PTH,ComponentDrill
T4C0.0433
; #@! TA.AperFunction,Plated,PTH,ComponentDrill
T5C0.0512
; #@! TA.AperFunction,Plated,PTH,ComponentDrill
T6C0.1378
%
G90
G05
T1
X2.1367Y-2.5931
X2.1367Y-3.82
X2.1669Y-2.52
X2.1669Y-2.6662
X2.1669Y-3.7469
X2.1669Y-3.8931
X2.24Y-2.4897
X2.24Y-2.6964
X2.24Y-3.7167
X2.24Y-3.9233
X2.3131Y-2.52
X2.3131Y-2.6662
X2.3131Y-3.7469
X2.3131Y-3.8931
X2.3433Y-2.5931
X2.3433Y-3.82
X5.7767Y-2.59
X5.7767Y-3.82
X5.8069Y-2.5169
X5.8069Y-2.6631
X5.8069Y-3.7469
X5.8069Y-3.8931
X5.88Y-2.4867
X5.88Y-2.6933
X5.88Y-3.7167
X5.88Y-3.9233
X5.9531Y-2.5169
X5.9531Y-2.6631
X5.9531Y-3.7469
X5.9531Y-3.8931
X5.9833Y-2.59
X5.9833Y-3.82
T2
X2.41Y-3.1102
X2.41Y-3.2102
T3
X3.14Y-2.64
X3.14Y-2.74
X3.24Y-2.64
X3.24Y-2.74
X3.34Y-2.64
X3.34Y-2.74
X3.44Y-2.64
X3.44Y-2.74
X3.54Y-2.64
X3.54Y-2.74
X3.64Y-2.64
X3.64Y-2.74
X3.74Y-2.64
X3.74Y-2.74
X3.84Y-2.64
X3.84Y-2.74
X4.34Y-2.64
X4.34Y-2.74
X4.44Y-2.64
X4.44Y-2.74
X4.54Y-2.64
X4.54Y-2.74
X4.64Y-2.64
X4.64Y-2.74
X4.74Y-2.64
X4.74Y-2.74
X4.84Y-2.64
X4.84Y-2.74
X4.94Y-2.64
X4.94Y-2.74
X5.04Y-2.64
X5.04Y-2.74
X5.38Y-3.0202
X5.38Y-3.1202
T4
X4.28Y-3.01
X4.38Y-3.01
X4.48Y-3.01
X4.93Y-3.01
X5.03Y-3.01
X5.13Y-3.01
T5
X2.5502Y-3.74
X2.7502Y-3.74
X2.9502Y-3.74
X3.21Y-3.742
X3.41Y-3.742
X3.61Y-3.742
X3.87Y-3.742
X4.07Y-3.742
X4.27Y-3.742
X4.5302Y-3.74
X4.7302Y-3.74
X4.9302Y-3.74
X5.1902Y-3.742
X5.3902Y-3.742
X5.5902Y-3.742
X5.832Y-2.9202
X5.832Y-3.1202
X5.832Y-3.3202
T6
X2.24Y-2.5931
X2.24Y-3.82
X5.88Y-2.59
X5.88Y-3.82
T0
M30
