%TF.GenerationSoftware,KiCad,Pcbnew,(6.0.0-0)*%
%TF.CreationDate,2022-12-13T21:11:06-05:00*%
%TF.ProjectId,power-module,706f7765-722d-46d6-9f64-756c652e6b69,rev?*%
%TF.SameCoordinates,Original*%
%TF.FileFunction,Copper,L2,Bot*%
%TF.FilePolarity,Positive*%
%FSLAX46Y46*%
G04 Gerber Fmt 4.6, Leading zero omitted, Abs format (unit mm)*
G04 Created by KiCad (PCBNEW (6.0.0-0)) date 2022-12-13 21:11:06*
%MOMM*%
%LPD*%
G01*
G04 APERTURE LIST*
G04 Aperture macros list*
%AMRoundRect*
0 Rectangle with rounded corners*
0 $1 Rounding radius*
0 $2 $3 $4 $5 $6 $7 $8 $9 X,Y pos of 4 corners*
0 Add a 4 corners polygon primitive as box body*
4,1,4,$2,$3,$4,$5,$6,$7,$8,$9,$2,$3,0*
0 Add four circle primitives for the rounded corners*
1,1,$1+$1,$2,$3*
1,1,$1+$1,$4,$5*
1,1,$1+$1,$6,$7*
1,1,$1+$1,$8,$9*
0 Add four rect primitives between the rounded corners*
20,1,$1+$1,$2,$3,$4,$5,0*
20,1,$1+$1,$4,$5,$6,$7,0*
20,1,$1+$1,$6,$7,$8,$9,0*
20,1,$1+$1,$8,$9,$2,$3,0*%
G04 Aperture macros list end*
%TA.AperFunction,ComponentPad*%
%ADD10C,1.700000*%
%TD*%
%TA.AperFunction,ComponentPad*%
%ADD11RoundRect,0.250000X-0.600000X0.600000X-0.600000X-0.600000X0.600000X-0.600000X0.600000X0.600000X0*%
%TD*%
%TA.AperFunction,ComponentPad*%
%ADD12C,0.800000*%
%TD*%
%TA.AperFunction,ComponentPad*%
%ADD13C,7.000000*%
%TD*%
%TA.AperFunction,ComponentPad*%
%ADD14R,2.600000X2.600000*%
%TD*%
%TA.AperFunction,ComponentPad*%
%ADD15C,2.600000*%
%TD*%
%TA.AperFunction,ComponentPad*%
%ADD16R,1.800000X1.800000*%
%TD*%
%TA.AperFunction,ComponentPad*%
%ADD17C,1.800000*%
%TD*%
%TA.AperFunction,ComponentPad*%
%ADD18O,1.905000X2.000000*%
%TD*%
%TA.AperFunction,ComponentPad*%
%ADD19R,1.905000X2.000000*%
%TD*%
%TA.AperFunction,ComponentPad*%
%ADD20R,1.700000X1.700000*%
%TD*%
%TA.AperFunction,ComponentPad*%
%ADD21O,1.700000X1.700000*%
%TD*%
%TA.AperFunction,Conductor*%
%ADD22C,1.000000*%
%TD*%
G04 APERTURE END LIST*
D10*
%TO.P,J8,16,Pin_16*%
%TO.N,unconnected-(J8-Pad16)*%
X79756000Y-69596000D03*
%TO.P,J8,14,Pin_14*%
%TO.N,unconnected-(J8-Pad14)*%
X82296000Y-69596000D03*
%TO.P,J8,12,Pin_12*%
%TO.N,+5V*%
X84836000Y-69596000D03*
%TO.P,J8,10,Pin_10*%
%TO.N,+12V*%
X87376000Y-69596000D03*
%TO.P,J8,8,Pin_8*%
%TO.N,GND*%
X89916000Y-69596000D03*
%TO.P,J8,6,Pin_6*%
X92456000Y-69596000D03*
%TO.P,J8,4,Pin_4*%
X94996000Y-69596000D03*
%TO.P,J8,2,Pin_2*%
%TO.N,-12V*%
X97536000Y-69596000D03*
%TO.P,J8,15,Pin_15*%
%TO.N,unconnected-(J8-Pad15)*%
X79756000Y-67056000D03*
%TO.P,J8,13,Pin_13*%
%TO.N,unconnected-(J8-Pad13)*%
X82296000Y-67056000D03*
%TO.P,J8,11,Pin_11*%
%TO.N,+5V*%
X84836000Y-67056000D03*
%TO.P,J8,9,Pin_9*%
%TO.N,+12V*%
X87376000Y-67056000D03*
%TO.P,J8,7,Pin_7*%
%TO.N,GND*%
X89916000Y-67056000D03*
%TO.P,J8,5,Pin_5*%
X92456000Y-67056000D03*
%TO.P,J8,3,Pin_3*%
X94996000Y-67056000D03*
D11*
%TO.P,J8,1,Pin_1*%
%TO.N,-12V*%
X97536000Y-67056000D03*
%TD*%
D12*
%TO.P,REF\u002A\u002A,1*%
%TO.N,N/C*%
X149352000Y-63161000D03*
X149352000Y-68411000D03*
X146727000Y-65786000D03*
X147495845Y-67642155D03*
X147495845Y-63929845D03*
X151977000Y-65786000D03*
X151208155Y-67642155D03*
X151208155Y-63929845D03*
D13*
X149352000Y-65786000D03*
%TD*%
%TO.P,REF\u002A\u002A,1*%
%TO.N,N/C*%
X149352000Y-97028000D03*
D12*
X151208155Y-95171845D03*
X151208155Y-98884155D03*
X151977000Y-97028000D03*
X147495845Y-95171845D03*
X147495845Y-98884155D03*
X146727000Y-97028000D03*
X149352000Y-99653000D03*
X149352000Y-94403000D03*
%TD*%
D13*
%TO.P,REF\u002A\u002A,1*%
%TO.N,N/C*%
X56896000Y-97028000D03*
D12*
X58752155Y-95171845D03*
X58752155Y-98884155D03*
X59521000Y-97028000D03*
X55039845Y-95171845D03*
X55039845Y-98884155D03*
X54271000Y-97028000D03*
X56896000Y-99653000D03*
X56896000Y-94403000D03*
%TD*%
%TO.P,REF\u002A\u002A,1*%
%TO.N,N/C*%
X58752155Y-64008000D03*
X56896000Y-63239155D03*
X55039845Y-64008000D03*
X54271000Y-65864155D03*
X55039845Y-67720310D03*
X56896000Y-68489155D03*
X58752155Y-67720310D03*
X59521000Y-65864155D03*
D13*
X56896000Y-65864155D03*
%TD*%
D14*
%TO.P,J7,1,Pin_1*%
%TO.N,GND*%
X64775000Y-94996000D03*
D15*
%TO.P,J7,2,Pin_2*%
X69855000Y-94996000D03*
%TO.P,J7,3,Pin_3*%
X74935000Y-94996000D03*
%TD*%
D16*
%TO.P,D2,1,K*%
%TO.N,Net-(D2-Pad1)*%
X61214000Y-81539000D03*
D17*
%TO.P,D2,2,A*%
%TO.N,+5V*%
X61214000Y-78999000D03*
%TD*%
D14*
%TO.P,J6,1,Pin_1*%
%TO.N,-12V*%
X81534000Y-95047000D03*
D15*
%TO.P,J6,2,Pin_2*%
X86614000Y-95047000D03*
%TO.P,J6,3,Pin_3*%
X91694000Y-95047000D03*
%TD*%
D14*
%TO.P,J5,1,Pin_1*%
%TO.N,+12V*%
X98298000Y-95047000D03*
D15*
%TO.P,J5,2,Pin_2*%
X103378000Y-95047000D03*
%TO.P,J5,3,Pin_3*%
X108458000Y-95047000D03*
%TD*%
D14*
%TO.P,J4,1,Pin_1*%
%TO.N,-5V*%
X131831000Y-95047000D03*
D15*
%TO.P,J4,2,Pin_2*%
X136911000Y-95047000D03*
%TO.P,J4,3,Pin_3*%
X141991000Y-95047000D03*
%TD*%
D14*
%TO.P,J3,1,Pin_1*%
%TO.N,+5V*%
X115067000Y-94996000D03*
D15*
%TO.P,J3,2,Pin_2*%
X120147000Y-94996000D03*
%TO.P,J3,3,Pin_3*%
X125227000Y-94996000D03*
%TD*%
D14*
%TO.P,J1,1,Pin_1*%
%TO.N,-12V*%
X148133000Y-84333000D03*
D15*
%TO.P,J1,2,Pin_2*%
%TO.N,Net-(J1-Pad2)*%
X148133000Y-79253000D03*
%TO.P,J1,3,Pin_3*%
%TO.N,+12V*%
X148133000Y-74173000D03*
%TD*%
D18*
%TO.P,U2,3,VO*%
%TO.N,-5V*%
X125222000Y-76454000D03*
%TO.P,U2,2,VI*%
%TO.N,-12V*%
X127762000Y-76454000D03*
D19*
%TO.P,U2,1,GND*%
%TO.N,GND*%
X130302000Y-76454000D03*
%TD*%
D18*
%TO.P,U1,3,VO*%
%TO.N,+5V*%
X108712000Y-76454000D03*
%TO.P,U1,2,GND*%
%TO.N,GND*%
X111252000Y-76454000D03*
D19*
%TO.P,U1,1,VI*%
%TO.N,+12V*%
X113792000Y-76454000D03*
%TD*%
D20*
%TO.P,SW1,1,A*%
%TO.N,GND*%
X136652000Y-79253000D03*
D21*
%TO.P,SW1,2,B*%
%TO.N,Net-(J1-Pad2)*%
X136652000Y-76713000D03*
%TD*%
D10*
%TO.P,J2,16,Pin_16*%
%TO.N,unconnected-(J2-Pad16)*%
X110236000Y-69596000D03*
%TO.P,J2,14,Pin_14*%
%TO.N,unconnected-(J2-Pad14)*%
X112776000Y-69596000D03*
%TO.P,J2,12,Pin_12*%
%TO.N,+5V*%
X115316000Y-69596000D03*
%TO.P,J2,10,Pin_10*%
%TO.N,+12V*%
X117856000Y-69596000D03*
%TO.P,J2,8,Pin_8*%
%TO.N,GND*%
X120396000Y-69596000D03*
%TO.P,J2,6,Pin_6*%
X122936000Y-69596000D03*
%TO.P,J2,4,Pin_4*%
X125476000Y-69596000D03*
%TO.P,J2,2,Pin_2*%
%TO.N,-12V*%
X128016000Y-69596000D03*
%TO.P,J2,15,Pin_15*%
%TO.N,unconnected-(J2-Pad15)*%
X110236000Y-67056000D03*
%TO.P,J2,13,Pin_13*%
%TO.N,unconnected-(J2-Pad13)*%
X112776000Y-67056000D03*
%TO.P,J2,11,Pin_11*%
%TO.N,+5V*%
X115316000Y-67056000D03*
%TO.P,J2,9,Pin_9*%
%TO.N,+12V*%
X117856000Y-67056000D03*
%TO.P,J2,7,Pin_7*%
%TO.N,GND*%
X120396000Y-67056000D03*
%TO.P,J2,5,Pin_5*%
X122936000Y-67056000D03*
%TO.P,J2,3,Pin_3*%
X125476000Y-67056000D03*
D11*
%TO.P,J2,1,Pin_1*%
%TO.N,-12V*%
X128016000Y-67056000D03*
%TD*%
D22*
%TO.N,-12V*%
X97536000Y-69596000D02*
X100838000Y-69596000D01*
X100838000Y-69596000D02*
X104394000Y-73152000D01*
X127762000Y-75184000D02*
X127762000Y-76454000D01*
X104394000Y-73152000D02*
X125730000Y-73152000D01*
X125730000Y-73152000D02*
X127762000Y-75184000D01*
X91694000Y-95047000D02*
X91694000Y-82550000D01*
X91694000Y-82550000D02*
X97536000Y-76708000D01*
X97536000Y-76708000D02*
X97536000Y-69596000D01*
X91694000Y-95047000D02*
X81534000Y-95047000D01*
%TO.N,+12V*%
X113792000Y-76454000D02*
X113792000Y-83566000D01*
X113792000Y-83566000D02*
X108458000Y-88900000D01*
X108458000Y-88900000D02*
X108458000Y-95047000D01*
%TD*%
%TA.AperFunction,Conductor*%
%TO.N,GND*%
G36*
X146769922Y-62504002D02*
G01*
X146816415Y-62557658D01*
X146826519Y-62627932D01*
X146797025Y-62692512D01*
X146785456Y-62704222D01*
X146546322Y-62916536D01*
X146546316Y-62916542D01*
X146544017Y-62918583D01*
X146541938Y-62920828D01*
X146541931Y-62920835D01*
X146279694Y-63204026D01*
X146277608Y-63206279D01*
X146040544Y-63518599D01*
X145835089Y-63852562D01*
X145663203Y-64204980D01*
X145526527Y-64572489D01*
X145426367Y-64951581D01*
X145363677Y-65338638D01*
X145363483Y-65341718D01*
X145363483Y-65341720D01*
X145341100Y-65697500D01*
X145339057Y-65729965D01*
X145339165Y-65733054D01*
X145350549Y-66059051D01*
X145352741Y-66121827D01*
X145353147Y-66124871D01*
X145353148Y-66124881D01*
X145375620Y-66293296D01*
X145404599Y-66510484D01*
X145405299Y-66513468D01*
X145405300Y-66513474D01*
X145493433Y-66889228D01*
X145494136Y-66892225D01*
X145620496Y-67263407D01*
X145782475Y-67620487D01*
X145978525Y-67960056D01*
X145980314Y-67962554D01*
X145980316Y-67962558D01*
X146198375Y-68267139D01*
X146206776Y-68278874D01*
X146208802Y-68281189D01*
X146208805Y-68281192D01*
X146458434Y-68566340D01*
X146465049Y-68573896D01*
X146750878Y-68842308D01*
X146890322Y-68949694D01*
X146992626Y-69028478D01*
X147061536Y-69081546D01*
X147064139Y-69083173D01*
X147064144Y-69083176D01*
X147124051Y-69120610D01*
X147394056Y-69289328D01*
X147745266Y-69463670D01*
X148111812Y-69602907D01*
X148490195Y-69705712D01*
X148788419Y-69756153D01*
X148873783Y-69770591D01*
X148873786Y-69770591D01*
X148876805Y-69771102D01*
X149011873Y-69780547D01*
X149264885Y-69798240D01*
X149264893Y-69798240D01*
X149267951Y-69798454D01*
X149520037Y-69791413D01*
X149656825Y-69787592D01*
X149656828Y-69787592D01*
X149659899Y-69787506D01*
X149662952Y-69787120D01*
X149662956Y-69787120D01*
X149804576Y-69769229D01*
X150048908Y-69738362D01*
X150051912Y-69737680D01*
X150051915Y-69737679D01*
X150428269Y-69652174D01*
X150428275Y-69652172D01*
X150431265Y-69651493D01*
X150572138Y-69604631D01*
X150800396Y-69528700D01*
X150800402Y-69528698D01*
X150803320Y-69527727D01*
X150944735Y-69464765D01*
X151158722Y-69369492D01*
X151158728Y-69369489D01*
X151161522Y-69368245D01*
X151219009Y-69335588D01*
X151499784Y-69176086D01*
X151499790Y-69176083D01*
X151502452Y-69174570D01*
X151709550Y-69028478D01*
X151820342Y-68950323D01*
X151820346Y-68950320D01*
X151822855Y-68948550D01*
X152029130Y-68770499D01*
X152117347Y-68694353D01*
X152117351Y-68694349D01*
X152119674Y-68692344D01*
X152143297Y-68667538D01*
X152387957Y-68410618D01*
X152390074Y-68408395D01*
X152393667Y-68403797D01*
X152428711Y-68358942D01*
X152486412Y-68317576D01*
X152557317Y-68313973D01*
X152618914Y-68349276D01*
X152651647Y-68412277D01*
X152654000Y-68436515D01*
X152654000Y-94376328D01*
X152633998Y-94444449D01*
X152580342Y-94490942D01*
X152510068Y-94501046D01*
X152445488Y-94471552D01*
X152434364Y-94460639D01*
X152201805Y-94202357D01*
X152199744Y-94200068D01*
X151910195Y-93935673D01*
X151596228Y-93700795D01*
X151548015Y-93671596D01*
X151263467Y-93499267D01*
X151263458Y-93499262D01*
X151260839Y-93497676D01*
X150953113Y-93350239D01*
X150910001Y-93329583D01*
X150909999Y-93329582D01*
X150907229Y-93328255D01*
X150904339Y-93327203D01*
X150904334Y-93327201D01*
X150541674Y-93195204D01*
X150541671Y-93195203D01*
X150538775Y-93194149D01*
X150262563Y-93123229D01*
X150161977Y-93097403D01*
X150161974Y-93097402D01*
X150158993Y-93096637D01*
X149771508Y-93036651D01*
X149380018Y-93014764D01*
X149376939Y-93014893D01*
X149376936Y-93014893D01*
X149121188Y-93025612D01*
X148988261Y-93031183D01*
X148985217Y-93031611D01*
X148985215Y-93031611D01*
X148774778Y-93061186D01*
X148599976Y-93085753D01*
X148218869Y-93177953D01*
X147848579Y-93306902D01*
X147492638Y-93471369D01*
X147154446Y-93669785D01*
X147010405Y-93774437D01*
X146839711Y-93898453D01*
X146839705Y-93898458D01*
X146837230Y-93900256D01*
X146834944Y-93902285D01*
X146834941Y-93902288D01*
X146793299Y-93939260D01*
X146544017Y-94160583D01*
X146541938Y-94162828D01*
X146541931Y-94162835D01*
X146279694Y-94446026D01*
X146277608Y-94448279D01*
X146245225Y-94490942D01*
X146061749Y-94732663D01*
X146040544Y-94760599D01*
X146011964Y-94807055D01*
X145837333Y-95090915D01*
X145835089Y-95094562D01*
X145663203Y-95446980D01*
X145662131Y-95449864D01*
X145662130Y-95449865D01*
X145537626Y-95784646D01*
X145526527Y-95814489D01*
X145426367Y-96193581D01*
X145416981Y-96251534D01*
X145371183Y-96534297D01*
X145363677Y-96580638D01*
X145363483Y-96583718D01*
X145363483Y-96583720D01*
X145346408Y-96855131D01*
X145339057Y-96971965D01*
X145352741Y-97363827D01*
X145404599Y-97752484D01*
X145494136Y-98134225D01*
X145620496Y-98505407D01*
X145782475Y-98862487D01*
X145978525Y-99202056D01*
X145980314Y-99204554D01*
X145980316Y-99204558D01*
X146080047Y-99343860D01*
X146206776Y-99520874D01*
X146208802Y-99523189D01*
X146208805Y-99523192D01*
X146463017Y-99813575D01*
X146465049Y-99815896D01*
X146750878Y-100084308D01*
X146776671Y-100104171D01*
X146818438Y-100161582D01*
X146822537Y-100232460D01*
X146787665Y-100294302D01*
X146724895Y-100327474D01*
X146699793Y-100330000D01*
X59544106Y-100330000D01*
X59475985Y-100309998D01*
X59429492Y-100256342D01*
X59419388Y-100186068D01*
X59448882Y-100121488D01*
X59461775Y-100108618D01*
X59661347Y-99936353D01*
X59661351Y-99936349D01*
X59663674Y-99934344D01*
X59934074Y-99650395D01*
X59966505Y-99608886D01*
X60173565Y-99343860D01*
X60173567Y-99343857D01*
X60175475Y-99341415D01*
X60385574Y-99010354D01*
X60562363Y-98660370D01*
X60622469Y-98505407D01*
X60703041Y-98297681D01*
X60703044Y-98297672D01*
X60704156Y-98294805D01*
X60809600Y-97917148D01*
X60877688Y-97531004D01*
X60907769Y-97140059D01*
X60909334Y-97028000D01*
X60906594Y-96971965D01*
X60895726Y-96749767D01*
X60890180Y-96636367D01*
X60846515Y-96340669D01*
X62967001Y-96340669D01*
X62967371Y-96347490D01*
X62972895Y-96398352D01*
X62976521Y-96413604D01*
X63021676Y-96534054D01*
X63030214Y-96549649D01*
X63106715Y-96651724D01*
X63119276Y-96664285D01*
X63221351Y-96740786D01*
X63236946Y-96749324D01*
X63357394Y-96794478D01*
X63372649Y-96798105D01*
X63423514Y-96803631D01*
X63430328Y-96804000D01*
X64502885Y-96804000D01*
X64518124Y-96799525D01*
X64519329Y-96798135D01*
X64521000Y-96790452D01*
X64521000Y-96785884D01*
X65029000Y-96785884D01*
X65033475Y-96801123D01*
X65034865Y-96802328D01*
X65042548Y-96803999D01*
X66119669Y-96803999D01*
X66126490Y-96803629D01*
X66177352Y-96798105D01*
X66192604Y-96794479D01*
X66313054Y-96749324D01*
X66328649Y-96740786D01*
X66430724Y-96664285D01*
X66443285Y-96651724D01*
X66519786Y-96549649D01*
X66528324Y-96534054D01*
X66563244Y-96440906D01*
X68774839Y-96440906D01*
X68783553Y-96452427D01*
X68890452Y-96530809D01*
X68898351Y-96535745D01*
X69127905Y-96656519D01*
X69136454Y-96660236D01*
X69381327Y-96745749D01*
X69390336Y-96748163D01*
X69645166Y-96796544D01*
X69654423Y-96797598D01*
X69913607Y-96807783D01*
X69922921Y-96807457D01*
X70180753Y-96779220D01*
X70189930Y-96777519D01*
X70440758Y-96711481D01*
X70449574Y-96708445D01*
X70687880Y-96606062D01*
X70696167Y-96601748D01*
X70916718Y-96465266D01*
X70924268Y-96459780D01*
X70929559Y-96455301D01*
X70937997Y-96442497D01*
X70937065Y-96440906D01*
X73854839Y-96440906D01*
X73863553Y-96452427D01*
X73970452Y-96530809D01*
X73978351Y-96535745D01*
X74207905Y-96656519D01*
X74216454Y-96660236D01*
X74461327Y-96745749D01*
X74470336Y-96748163D01*
X74725166Y-96796544D01*
X74734423Y-96797598D01*
X74993607Y-96807783D01*
X75002921Y-96807457D01*
X75260753Y-96779220D01*
X75269930Y-96777519D01*
X75520758Y-96711481D01*
X75529574Y-96708445D01*
X75767880Y-96606062D01*
X75776167Y-96601748D01*
X75996718Y-96465266D01*
X76004268Y-96459780D01*
X76009559Y-96455301D01*
X76017997Y-96442497D01*
X76011935Y-96432145D01*
X75974924Y-96395134D01*
X79725500Y-96395134D01*
X79732255Y-96457316D01*
X79783385Y-96593705D01*
X79870739Y-96710261D01*
X79987295Y-96797615D01*
X80123684Y-96848745D01*
X80185866Y-96855500D01*
X82882134Y-96855500D01*
X82944316Y-96848745D01*
X83080705Y-96797615D01*
X83197261Y-96710261D01*
X83284615Y-96593705D01*
X83335745Y-96457316D01*
X83342500Y-96395134D01*
X83342500Y-96181500D01*
X83362502Y-96113379D01*
X83416158Y-96066886D01*
X83468500Y-96055500D01*
X85046726Y-96055500D01*
X85114847Y-96075502D01*
X85147684Y-96106111D01*
X85245281Y-96236810D01*
X85248590Y-96240090D01*
X85248595Y-96240096D01*
X85416273Y-96406316D01*
X85436180Y-96426050D01*
X85439942Y-96428808D01*
X85439945Y-96428811D01*
X85604748Y-96549649D01*
X85652954Y-96584995D01*
X85657089Y-96587171D01*
X85657093Y-96587173D01*
X85886698Y-96707975D01*
X85890840Y-96710154D01*
X85978557Y-96740786D01*
X86107699Y-96785884D01*
X86144613Y-96798775D01*
X86149206Y-96799647D01*
X86404109Y-96848042D01*
X86404112Y-96848042D01*
X86408698Y-96848913D01*
X86536370Y-96853929D01*
X86672625Y-96859283D01*
X86672630Y-96859283D01*
X86677293Y-96859466D01*
X86781607Y-96848042D01*
X86939844Y-96830713D01*
X86939850Y-96830712D01*
X86944497Y-96830203D01*
X86949021Y-96829012D01*
X87199918Y-96762956D01*
X87199920Y-96762955D01*
X87204441Y-96761765D01*
X87232367Y-96749767D01*
X87447120Y-96657502D01*
X87447122Y-96657501D01*
X87451414Y-96655657D01*
X87570071Y-96582230D01*
X87676017Y-96516669D01*
X87676021Y-96516666D01*
X87679990Y-96514210D01*
X87885149Y-96340530D01*
X88062382Y-96138434D01*
X88078525Y-96113337D01*
X88132199Y-96066866D01*
X88184496Y-96055500D01*
X90126726Y-96055500D01*
X90194847Y-96075502D01*
X90227684Y-96106111D01*
X90325281Y-96236810D01*
X90328590Y-96240090D01*
X90328595Y-96240096D01*
X90496273Y-96406316D01*
X90516180Y-96426050D01*
X90519942Y-96428808D01*
X90519945Y-96428811D01*
X90684748Y-96549649D01*
X90732954Y-96584995D01*
X90737089Y-96587171D01*
X90737093Y-96587173D01*
X90966698Y-96707975D01*
X90970840Y-96710154D01*
X91058557Y-96740786D01*
X91187699Y-96785884D01*
X91224613Y-96798775D01*
X91229206Y-96799647D01*
X91484109Y-96848042D01*
X91484112Y-96848042D01*
X91488698Y-96848913D01*
X91616370Y-96853929D01*
X91752625Y-96859283D01*
X91752630Y-96859283D01*
X91757293Y-96859466D01*
X91861607Y-96848042D01*
X92019844Y-96830713D01*
X92019850Y-96830712D01*
X92024497Y-96830203D01*
X92029021Y-96829012D01*
X92279918Y-96762956D01*
X92279920Y-96762955D01*
X92284441Y-96761765D01*
X92312367Y-96749767D01*
X92527120Y-96657502D01*
X92527122Y-96657501D01*
X92531414Y-96655657D01*
X92650071Y-96582230D01*
X92756017Y-96516669D01*
X92756021Y-96516666D01*
X92759990Y-96514210D01*
X92900648Y-96395134D01*
X96489500Y-96395134D01*
X96496255Y-96457316D01*
X96547385Y-96593705D01*
X96634739Y-96710261D01*
X96751295Y-96797615D01*
X96887684Y-96848745D01*
X96949866Y-96855500D01*
X99646134Y-96855500D01*
X99708316Y-96848745D01*
X99844705Y-96797615D01*
X99961261Y-96710261D01*
X100048615Y-96593705D01*
X100099745Y-96457316D01*
X100106500Y-96395134D01*
X100106500Y-94999526D01*
X101565050Y-94999526D01*
X101565274Y-95004192D01*
X101565274Y-95004197D01*
X101565496Y-95008812D01*
X101577947Y-95268019D01*
X101630388Y-95531656D01*
X101721220Y-95784646D01*
X101723432Y-95788762D01*
X101723433Y-95788765D01*
X101737255Y-95814489D01*
X101848450Y-96021431D01*
X101851241Y-96025168D01*
X101851245Y-96025175D01*
X101932887Y-96134506D01*
X102009281Y-96236810D01*
X102012590Y-96240090D01*
X102012595Y-96240096D01*
X102180273Y-96406316D01*
X102200180Y-96426050D01*
X102203942Y-96428808D01*
X102203945Y-96428811D01*
X102368748Y-96549649D01*
X102416954Y-96584995D01*
X102421089Y-96587171D01*
X102421093Y-96587173D01*
X102650698Y-96707975D01*
X102654840Y-96710154D01*
X102742557Y-96740786D01*
X102871699Y-96785884D01*
X102908613Y-96798775D01*
X102913206Y-96799647D01*
X103168109Y-96848042D01*
X103168112Y-96848042D01*
X103172698Y-96848913D01*
X103300370Y-96853929D01*
X103436625Y-96859283D01*
X103436630Y-96859283D01*
X103441293Y-96859466D01*
X103545607Y-96848042D01*
X103703844Y-96830713D01*
X103703850Y-96830712D01*
X103708497Y-96830203D01*
X103713021Y-96829012D01*
X103963918Y-96762956D01*
X103963920Y-96762955D01*
X103968441Y-96761765D01*
X103996367Y-96749767D01*
X104211120Y-96657502D01*
X104211122Y-96657501D01*
X104215414Y-96655657D01*
X104334071Y-96582230D01*
X104440017Y-96516669D01*
X104440021Y-96516666D01*
X104443990Y-96514210D01*
X104649149Y-96340530D01*
X104826382Y-96138434D01*
X104859187Y-96087434D01*
X104969269Y-95916291D01*
X104971797Y-95912361D01*
X105082199Y-95667278D01*
X105095380Y-95620542D01*
X105153893Y-95413072D01*
X105153894Y-95413069D01*
X105155163Y-95408568D01*
X105173612Y-95263548D01*
X105188688Y-95145045D01*
X105188688Y-95145041D01*
X105189086Y-95141915D01*
X105191571Y-95047000D01*
X105188043Y-94999526D01*
X106645050Y-94999526D01*
X106645274Y-95004192D01*
X106645274Y-95004197D01*
X106645496Y-95008812D01*
X106657947Y-95268019D01*
X106710388Y-95531656D01*
X106801220Y-95784646D01*
X106803432Y-95788762D01*
X106803433Y-95788765D01*
X106817255Y-95814489D01*
X106928450Y-96021431D01*
X106931241Y-96025168D01*
X106931245Y-96025175D01*
X107012887Y-96134506D01*
X107089281Y-96236810D01*
X107092590Y-96240090D01*
X107092595Y-96240096D01*
X107260273Y-96406316D01*
X107280180Y-96426050D01*
X107283942Y-96428808D01*
X107283945Y-96428811D01*
X107448748Y-96549649D01*
X107496954Y-96584995D01*
X107501089Y-96587171D01*
X107501093Y-96587173D01*
X107730698Y-96707975D01*
X107734840Y-96710154D01*
X107822557Y-96740786D01*
X107951699Y-96785884D01*
X107988613Y-96798775D01*
X107993206Y-96799647D01*
X108248109Y-96848042D01*
X108248112Y-96848042D01*
X108252698Y-96848913D01*
X108380370Y-96853929D01*
X108516625Y-96859283D01*
X108516630Y-96859283D01*
X108521293Y-96859466D01*
X108625607Y-96848042D01*
X108783844Y-96830713D01*
X108783850Y-96830712D01*
X108788497Y-96830203D01*
X108793021Y-96829012D01*
X109043918Y-96762956D01*
X109043920Y-96762955D01*
X109048441Y-96761765D01*
X109076367Y-96749767D01*
X109291120Y-96657502D01*
X109291122Y-96657501D01*
X109295414Y-96655657D01*
X109414071Y-96582230D01*
X109520017Y-96516669D01*
X109520021Y-96516666D01*
X109523990Y-96514210D01*
X109724892Y-96344134D01*
X113258500Y-96344134D01*
X113265255Y-96406316D01*
X113316385Y-96542705D01*
X113403739Y-96659261D01*
X113520295Y-96746615D01*
X113656684Y-96797745D01*
X113718866Y-96804500D01*
X116415134Y-96804500D01*
X116477316Y-96797745D01*
X116613705Y-96746615D01*
X116730261Y-96659261D01*
X116817615Y-96542705D01*
X116868745Y-96406316D01*
X116875500Y-96344134D01*
X116875500Y-94948526D01*
X118334050Y-94948526D01*
X118334274Y-94953192D01*
X118334274Y-94953197D01*
X118336946Y-95008812D01*
X118346947Y-95217019D01*
X118399388Y-95480656D01*
X118490220Y-95733646D01*
X118617450Y-95970431D01*
X118620241Y-95974168D01*
X118620245Y-95974175D01*
X118695910Y-96075502D01*
X118778281Y-96185810D01*
X118781590Y-96189090D01*
X118781595Y-96189096D01*
X118965863Y-96371762D01*
X118969180Y-96375050D01*
X118972942Y-96377808D01*
X118972945Y-96377811D01*
X119081377Y-96457316D01*
X119185954Y-96533995D01*
X119190089Y-96536171D01*
X119190093Y-96536173D01*
X119419698Y-96656975D01*
X119423840Y-96659154D01*
X119677613Y-96747775D01*
X119682206Y-96748647D01*
X119937109Y-96797042D01*
X119937112Y-96797042D01*
X119941698Y-96797913D01*
X120069370Y-96802929D01*
X120205625Y-96808283D01*
X120205630Y-96808283D01*
X120210293Y-96808466D01*
X120314607Y-96797042D01*
X120472844Y-96779713D01*
X120472850Y-96779712D01*
X120477497Y-96779203D01*
X120482021Y-96778012D01*
X120732918Y-96711956D01*
X120732920Y-96711955D01*
X120737441Y-96710765D01*
X120845626Y-96664285D01*
X120980120Y-96606502D01*
X120980122Y-96606501D01*
X120984414Y-96604657D01*
X121135452Y-96511192D01*
X121209017Y-96465669D01*
X121209021Y-96465666D01*
X121212990Y-96463210D01*
X121418149Y-96289530D01*
X121595382Y-96087434D01*
X121602631Y-96076165D01*
X121738269Y-95865291D01*
X121740797Y-95861361D01*
X121851199Y-95616278D01*
X121852517Y-95611605D01*
X121922893Y-95362072D01*
X121922894Y-95362069D01*
X121924163Y-95357568D01*
X121942043Y-95217019D01*
X121957688Y-95094045D01*
X121957688Y-95094041D01*
X121958086Y-95090915D01*
X121958170Y-95087733D01*
X121959477Y-95037779D01*
X121960571Y-94996000D01*
X121957043Y-94948526D01*
X123414050Y-94948526D01*
X123414274Y-94953192D01*
X123414274Y-94953197D01*
X123416946Y-95008812D01*
X123426947Y-95217019D01*
X123479388Y-95480656D01*
X123570220Y-95733646D01*
X123697450Y-95970431D01*
X123700241Y-95974168D01*
X123700245Y-95974175D01*
X123775910Y-96075502D01*
X123858281Y-96185810D01*
X123861590Y-96189090D01*
X123861595Y-96189096D01*
X124045863Y-96371762D01*
X124049180Y-96375050D01*
X124052942Y-96377808D01*
X124052945Y-96377811D01*
X124161377Y-96457316D01*
X124265954Y-96533995D01*
X124270089Y-96536171D01*
X124270093Y-96536173D01*
X124499698Y-96656975D01*
X124503840Y-96659154D01*
X124757613Y-96747775D01*
X124762206Y-96748647D01*
X125017109Y-96797042D01*
X125017112Y-96797042D01*
X125021698Y-96797913D01*
X125149370Y-96802929D01*
X125285625Y-96808283D01*
X125285630Y-96808283D01*
X125290293Y-96808466D01*
X125394607Y-96797042D01*
X125552844Y-96779713D01*
X125552850Y-96779712D01*
X125557497Y-96779203D01*
X125562021Y-96778012D01*
X125812918Y-96711956D01*
X125812920Y-96711955D01*
X125817441Y-96710765D01*
X125925626Y-96664285D01*
X126060120Y-96606502D01*
X126060122Y-96606501D01*
X126064414Y-96604657D01*
X126215452Y-96511192D01*
X126289017Y-96465669D01*
X126289021Y-96465666D01*
X126292990Y-96463210D01*
X126373405Y-96395134D01*
X130022500Y-96395134D01*
X130029255Y-96457316D01*
X130080385Y-96593705D01*
X130167739Y-96710261D01*
X130284295Y-96797615D01*
X130420684Y-96848745D01*
X130482866Y-96855500D01*
X133179134Y-96855500D01*
X133241316Y-96848745D01*
X133377705Y-96797615D01*
X133494261Y-96710261D01*
X133581615Y-96593705D01*
X133632745Y-96457316D01*
X133639500Y-96395134D01*
X133639500Y-94999526D01*
X135098050Y-94999526D01*
X135098274Y-95004192D01*
X135098274Y-95004197D01*
X135098496Y-95008812D01*
X135110947Y-95268019D01*
X135163388Y-95531656D01*
X135254220Y-95784646D01*
X135256432Y-95788762D01*
X135256433Y-95788765D01*
X135270255Y-95814489D01*
X135381450Y-96021431D01*
X135384241Y-96025168D01*
X135384245Y-96025175D01*
X135465887Y-96134506D01*
X135542281Y-96236810D01*
X135545590Y-96240090D01*
X135545595Y-96240096D01*
X135713273Y-96406316D01*
X135733180Y-96426050D01*
X135736942Y-96428808D01*
X135736945Y-96428811D01*
X135901748Y-96549649D01*
X135949954Y-96584995D01*
X135954089Y-96587171D01*
X135954093Y-96587173D01*
X136183698Y-96707975D01*
X136187840Y-96710154D01*
X136275557Y-96740786D01*
X136404699Y-96785884D01*
X136441613Y-96798775D01*
X136446206Y-96799647D01*
X136701109Y-96848042D01*
X136701112Y-96848042D01*
X136705698Y-96848913D01*
X136833370Y-96853929D01*
X136969625Y-96859283D01*
X136969630Y-96859283D01*
X136974293Y-96859466D01*
X137078607Y-96848042D01*
X137236844Y-96830713D01*
X137236850Y-96830712D01*
X137241497Y-96830203D01*
X137246021Y-96829012D01*
X137496918Y-96762956D01*
X137496920Y-96762955D01*
X137501441Y-96761765D01*
X137529367Y-96749767D01*
X137744120Y-96657502D01*
X137744122Y-96657501D01*
X137748414Y-96655657D01*
X137867071Y-96582230D01*
X137973017Y-96516669D01*
X137973021Y-96516666D01*
X137976990Y-96514210D01*
X138182149Y-96340530D01*
X138359382Y-96138434D01*
X138392187Y-96087434D01*
X138502269Y-95916291D01*
X138504797Y-95912361D01*
X138615199Y-95667278D01*
X138628380Y-95620542D01*
X138686893Y-95413072D01*
X138686894Y-95413069D01*
X138688163Y-95408568D01*
X138706612Y-95263548D01*
X138721688Y-95145045D01*
X138721688Y-95145041D01*
X138722086Y-95141915D01*
X138724571Y-95047000D01*
X138721043Y-94999526D01*
X140178050Y-94999526D01*
X140178274Y-95004192D01*
X140178274Y-95004197D01*
X140178496Y-95008812D01*
X140190947Y-95268019D01*
X140243388Y-95531656D01*
X140334220Y-95784646D01*
X140336432Y-95788762D01*
X140336433Y-95788765D01*
X140350255Y-95814489D01*
X140461450Y-96021431D01*
X140464241Y-96025168D01*
X140464245Y-96025175D01*
X140545887Y-96134506D01*
X140622281Y-96236810D01*
X140625590Y-96240090D01*
X140625595Y-96240096D01*
X140793273Y-96406316D01*
X140813180Y-96426050D01*
X140816942Y-96428808D01*
X140816945Y-96428811D01*
X140981748Y-96549649D01*
X141029954Y-96584995D01*
X141034089Y-96587171D01*
X141034093Y-96587173D01*
X141263698Y-96707975D01*
X141267840Y-96710154D01*
X141355557Y-96740786D01*
X141484699Y-96785884D01*
X141521613Y-96798775D01*
X141526206Y-96799647D01*
X141781109Y-96848042D01*
X141781112Y-96848042D01*
X141785698Y-96848913D01*
X141913370Y-96853929D01*
X142049625Y-96859283D01*
X142049630Y-96859283D01*
X142054293Y-96859466D01*
X142158607Y-96848042D01*
X142316844Y-96830713D01*
X142316850Y-96830712D01*
X142321497Y-96830203D01*
X142326021Y-96829012D01*
X142576918Y-96762956D01*
X142576920Y-96762955D01*
X142581441Y-96761765D01*
X142609367Y-96749767D01*
X142824120Y-96657502D01*
X142824122Y-96657501D01*
X142828414Y-96655657D01*
X142947071Y-96582230D01*
X143053017Y-96516669D01*
X143053021Y-96516666D01*
X143056990Y-96514210D01*
X143262149Y-96340530D01*
X143439382Y-96138434D01*
X143472187Y-96087434D01*
X143582269Y-95916291D01*
X143584797Y-95912361D01*
X143695199Y-95667278D01*
X143708380Y-95620542D01*
X143766893Y-95413072D01*
X143766894Y-95413069D01*
X143768163Y-95408568D01*
X143786612Y-95263548D01*
X143801688Y-95145045D01*
X143801688Y-95145041D01*
X143802086Y-95141915D01*
X143804571Y-95047000D01*
X143784650Y-94778937D01*
X143783619Y-94774379D01*
X143726361Y-94521331D01*
X143726360Y-94521326D01*
X143725327Y-94516763D01*
X143627902Y-94266238D01*
X143494518Y-94032864D01*
X143463147Y-93993069D01*
X143408427Y-93923658D01*
X143328105Y-93821769D01*
X143132317Y-93637591D01*
X142930632Y-93497676D01*
X142915299Y-93487039D01*
X142915296Y-93487037D01*
X142911457Y-93484374D01*
X142901596Y-93479511D01*
X142674564Y-93367551D01*
X142674561Y-93367550D01*
X142670376Y-93365486D01*
X142622745Y-93350239D01*
X142517503Y-93316551D01*
X142414370Y-93283538D01*
X142409763Y-93282788D01*
X142409760Y-93282787D01*
X142180102Y-93245385D01*
X142149063Y-93240330D01*
X142018719Y-93238624D01*
X141884961Y-93236873D01*
X141884958Y-93236873D01*
X141880284Y-93236812D01*
X141613937Y-93273060D01*
X141355874Y-93348278D01*
X141111763Y-93460815D01*
X141083247Y-93479511D01*
X140890881Y-93605631D01*
X140890877Y-93605634D01*
X140886968Y-93608197D01*
X140846249Y-93644540D01*
X140743567Y-93736188D01*
X140686426Y-93787188D01*
X140514544Y-93993854D01*
X140375096Y-94223656D01*
X140373287Y-94227970D01*
X140373285Y-94227974D01*
X140301278Y-94399693D01*
X140271148Y-94471545D01*
X140204981Y-94732077D01*
X140178050Y-94999526D01*
X138721043Y-94999526D01*
X138704650Y-94778937D01*
X138703619Y-94774379D01*
X138646361Y-94521331D01*
X138646360Y-94521326D01*
X138645327Y-94516763D01*
X138547902Y-94266238D01*
X138414518Y-94032864D01*
X138383147Y-93993069D01*
X138328427Y-93923658D01*
X138248105Y-93821769D01*
X138052317Y-93637591D01*
X137850632Y-93497676D01*
X137835299Y-93487039D01*
X137835296Y-93487037D01*
X137831457Y-93484374D01*
X137821596Y-93479511D01*
X137594564Y-93367551D01*
X137594561Y-93367550D01*
X137590376Y-93365486D01*
X137542745Y-93350239D01*
X137437503Y-93316551D01*
X137334370Y-93283538D01*
X137329763Y-93282788D01*
X137329760Y-93282787D01*
X137100102Y-93245385D01*
X137069063Y-93240330D01*
X136938719Y-93238624D01*
X136804961Y-93236873D01*
X136804958Y-93236873D01*
X136800284Y-93236812D01*
X136533937Y-93273060D01*
X136275874Y-93348278D01*
X136031763Y-93460815D01*
X136003247Y-93479511D01*
X135810881Y-93605631D01*
X135810877Y-93605634D01*
X135806968Y-93608197D01*
X135766249Y-93644540D01*
X135663567Y-93736188D01*
X135606426Y-93787188D01*
X135434544Y-93993854D01*
X135295096Y-94223656D01*
X135293287Y-94227970D01*
X135293285Y-94227974D01*
X135221278Y-94399693D01*
X135191148Y-94471545D01*
X135124981Y-94732077D01*
X135098050Y-94999526D01*
X133639500Y-94999526D01*
X133639500Y-93698866D01*
X133632745Y-93636684D01*
X133581615Y-93500295D01*
X133494261Y-93383739D01*
X133377705Y-93296385D01*
X133241316Y-93245255D01*
X133179134Y-93238500D01*
X130482866Y-93238500D01*
X130420684Y-93245255D01*
X130284295Y-93296385D01*
X130167739Y-93383739D01*
X130080385Y-93500295D01*
X130029255Y-93636684D01*
X130022500Y-93698866D01*
X130022500Y-96395134D01*
X126373405Y-96395134D01*
X126498149Y-96289530D01*
X126675382Y-96087434D01*
X126682631Y-96076165D01*
X126818269Y-95865291D01*
X126820797Y-95861361D01*
X126931199Y-95616278D01*
X126932517Y-95611605D01*
X127002893Y-95362072D01*
X127002894Y-95362069D01*
X127004163Y-95357568D01*
X127022043Y-95217019D01*
X127037688Y-95094045D01*
X127037688Y-95094041D01*
X127038086Y-95090915D01*
X127038170Y-95087733D01*
X127039477Y-95037779D01*
X127040571Y-94996000D01*
X127022418Y-94751727D01*
X127020996Y-94732592D01*
X127020996Y-94732591D01*
X127020650Y-94727937D01*
X127019619Y-94723379D01*
X126962361Y-94470331D01*
X126962360Y-94470326D01*
X126961327Y-94465763D01*
X126863902Y-94215238D01*
X126730518Y-93981864D01*
X126683068Y-93921673D01*
X126664416Y-93898014D01*
X126564105Y-93770769D01*
X126368317Y-93586591D01*
X126211074Y-93477507D01*
X126151299Y-93436039D01*
X126151296Y-93436037D01*
X126147457Y-93433374D01*
X126105770Y-93412816D01*
X125910564Y-93316551D01*
X125910561Y-93316550D01*
X125906376Y-93314486D01*
X125866655Y-93301771D01*
X125774993Y-93272430D01*
X125650370Y-93232538D01*
X125645763Y-93231788D01*
X125645760Y-93231787D01*
X125421131Y-93195204D01*
X125385063Y-93189330D01*
X125254719Y-93187624D01*
X125120961Y-93185873D01*
X125120958Y-93185873D01*
X125116284Y-93185812D01*
X124849937Y-93222060D01*
X124845451Y-93223368D01*
X124845449Y-93223368D01*
X124787464Y-93240269D01*
X124591874Y-93297278D01*
X124587621Y-93299238D01*
X124587620Y-93299239D01*
X124570998Y-93306902D01*
X124347763Y-93409815D01*
X124343854Y-93412378D01*
X124126881Y-93554631D01*
X124126876Y-93554635D01*
X124122968Y-93557197D01*
X124062335Y-93611314D01*
X123964242Y-93698866D01*
X123922426Y-93736188D01*
X123750544Y-93942854D01*
X123611096Y-94172656D01*
X123609287Y-94176970D01*
X123609285Y-94176974D01*
X123591324Y-94219806D01*
X123507148Y-94420545D01*
X123440981Y-94681077D01*
X123414050Y-94948526D01*
X121957043Y-94948526D01*
X121942418Y-94751727D01*
X121940996Y-94732592D01*
X121940996Y-94732591D01*
X121940650Y-94727937D01*
X121939619Y-94723379D01*
X121882361Y-94470331D01*
X121882360Y-94470326D01*
X121881327Y-94465763D01*
X121783902Y-94215238D01*
X121650518Y-93981864D01*
X121603068Y-93921673D01*
X121584416Y-93898014D01*
X121484105Y-93770769D01*
X121288317Y-93586591D01*
X121131074Y-93477507D01*
X121071299Y-93436039D01*
X121071296Y-93436037D01*
X121067457Y-93433374D01*
X121025770Y-93412816D01*
X120830564Y-93316551D01*
X120830561Y-93316550D01*
X120826376Y-93314486D01*
X120786655Y-93301771D01*
X120694993Y-93272430D01*
X120570370Y-93232538D01*
X120565763Y-93231788D01*
X120565760Y-93231787D01*
X120341131Y-93195204D01*
X120305063Y-93189330D01*
X120174719Y-93187624D01*
X120040961Y-93185873D01*
X120040958Y-93185873D01*
X120036284Y-93185812D01*
X119769937Y-93222060D01*
X119765451Y-93223368D01*
X119765449Y-93223368D01*
X119707464Y-93240269D01*
X119511874Y-93297278D01*
X119507621Y-93299238D01*
X119507620Y-93299239D01*
X119490998Y-93306902D01*
X119267763Y-93409815D01*
X119263854Y-93412378D01*
X119046881Y-93554631D01*
X119046876Y-93554635D01*
X119042968Y-93557197D01*
X118982335Y-93611314D01*
X118884242Y-93698866D01*
X118842426Y-93736188D01*
X118670544Y-93942854D01*
X118531096Y-94172656D01*
X118529287Y-94176970D01*
X118529285Y-94176974D01*
X118511324Y-94219806D01*
X118427148Y-94420545D01*
X118360981Y-94681077D01*
X118334050Y-94948526D01*
X116875500Y-94948526D01*
X116875500Y-93647866D01*
X116868745Y-93585684D01*
X116817615Y-93449295D01*
X116730261Y-93332739D01*
X116613705Y-93245385D01*
X116477316Y-93194255D01*
X116415134Y-93187500D01*
X113718866Y-93187500D01*
X113656684Y-93194255D01*
X113520295Y-93245385D01*
X113403739Y-93332739D01*
X113316385Y-93449295D01*
X113265255Y-93585684D01*
X113258500Y-93647866D01*
X113258500Y-96344134D01*
X109724892Y-96344134D01*
X109729149Y-96340530D01*
X109906382Y-96138434D01*
X109939187Y-96087434D01*
X110049269Y-95916291D01*
X110051797Y-95912361D01*
X110162199Y-95667278D01*
X110175380Y-95620542D01*
X110233893Y-95413072D01*
X110233894Y-95413069D01*
X110235163Y-95408568D01*
X110253612Y-95263548D01*
X110268688Y-95145045D01*
X110268688Y-95145041D01*
X110269086Y-95141915D01*
X110271571Y-95047000D01*
X110251650Y-94778937D01*
X110250619Y-94774379D01*
X110193361Y-94521331D01*
X110193360Y-94521326D01*
X110192327Y-94516763D01*
X110094902Y-94266238D01*
X109961518Y-94032864D01*
X109930147Y-93993069D01*
X109875427Y-93923658D01*
X109795105Y-93821769D01*
X109599317Y-93637591D01*
X109556946Y-93608197D01*
X109520680Y-93583038D01*
X109476110Y-93527775D01*
X109466500Y-93479511D01*
X109466500Y-89369925D01*
X109486502Y-89301804D01*
X109503405Y-89280830D01*
X113103100Y-85681134D01*
X146324500Y-85681134D01*
X146331255Y-85743316D01*
X146382385Y-85879705D01*
X146469739Y-85996261D01*
X146586295Y-86083615D01*
X146722684Y-86134745D01*
X146784866Y-86141500D01*
X149481134Y-86141500D01*
X149543316Y-86134745D01*
X149679705Y-86083615D01*
X149796261Y-85996261D01*
X149883615Y-85879705D01*
X149934745Y-85743316D01*
X149941500Y-85681134D01*
X149941500Y-82984866D01*
X149934745Y-82922684D01*
X149883615Y-82786295D01*
X149796261Y-82669739D01*
X149679705Y-82582385D01*
X149543316Y-82531255D01*
X149481134Y-82524500D01*
X146784866Y-82524500D01*
X146722684Y-82531255D01*
X146586295Y-82582385D01*
X146469739Y-82669739D01*
X146382385Y-82786295D01*
X146331255Y-82922684D01*
X146324500Y-82984866D01*
X146324500Y-85681134D01*
X113103100Y-85681134D01*
X114461379Y-84322855D01*
X114471522Y-84313753D01*
X114496218Y-84293897D01*
X114501025Y-84290032D01*
X114533292Y-84251578D01*
X114536472Y-84247931D01*
X114538115Y-84246119D01*
X114540309Y-84243925D01*
X114567642Y-84210651D01*
X114568348Y-84209800D01*
X114624195Y-84143244D01*
X114628154Y-84138526D01*
X114630722Y-84133856D01*
X114634103Y-84129739D01*
X114677977Y-84047914D01*
X114678606Y-84046755D01*
X114720462Y-83970619D01*
X114720465Y-83970611D01*
X114723433Y-83965213D01*
X114725045Y-83960131D01*
X114727562Y-83955437D01*
X114754762Y-83866469D01*
X114755108Y-83865358D01*
X114781373Y-83782563D01*
X114783235Y-83776694D01*
X114783829Y-83771398D01*
X114785387Y-83766302D01*
X114794790Y-83673743D01*
X114794911Y-83672607D01*
X114800500Y-83622773D01*
X114800500Y-83619246D01*
X114800555Y-83618261D01*
X114801002Y-83612581D01*
X114805374Y-83569538D01*
X114801059Y-83523891D01*
X114800500Y-83512033D01*
X114800500Y-80147669D01*
X135294001Y-80147669D01*
X135294371Y-80154490D01*
X135299895Y-80205352D01*
X135303521Y-80220604D01*
X135348676Y-80341054D01*
X135357214Y-80356649D01*
X135433715Y-80458724D01*
X135446276Y-80471285D01*
X135548351Y-80547786D01*
X135563946Y-80556324D01*
X135684394Y-80601478D01*
X135699649Y-80605105D01*
X135750514Y-80610631D01*
X135757328Y-80611000D01*
X136379885Y-80611000D01*
X136395124Y-80606525D01*
X136396329Y-80605135D01*
X136398000Y-80597452D01*
X136398000Y-80592884D01*
X136906000Y-80592884D01*
X136910475Y-80608123D01*
X136911865Y-80609328D01*
X136919548Y-80610999D01*
X137546669Y-80610999D01*
X137553490Y-80610629D01*
X137604352Y-80605105D01*
X137619604Y-80601479D01*
X137740054Y-80556324D01*
X137755649Y-80547786D01*
X137857724Y-80471285D01*
X137870285Y-80458724D01*
X137946786Y-80356649D01*
X137955324Y-80341054D01*
X138000478Y-80220606D01*
X138004105Y-80205351D01*
X138009631Y-80154486D01*
X138010000Y-80147672D01*
X138010000Y-79525115D01*
X138005525Y-79509876D01*
X138004135Y-79508671D01*
X137996452Y-79507000D01*
X136924115Y-79507000D01*
X136908876Y-79511475D01*
X136907671Y-79512865D01*
X136906000Y-79520548D01*
X136906000Y-80592884D01*
X136398000Y-80592884D01*
X136398000Y-79525115D01*
X136393525Y-79509876D01*
X136392135Y-79508671D01*
X136384452Y-79507000D01*
X135312116Y-79507000D01*
X135296877Y-79511475D01*
X135295672Y-79512865D01*
X135294001Y-79520548D01*
X135294001Y-80147669D01*
X114800500Y-80147669D01*
X114800500Y-79205526D01*
X146320050Y-79205526D01*
X146332947Y-79474019D01*
X146385388Y-79737656D01*
X146476220Y-79990646D01*
X146478432Y-79994762D01*
X146478433Y-79994765D01*
X146542555Y-80114100D01*
X146603450Y-80227431D01*
X146606241Y-80231168D01*
X146606245Y-80231175D01*
X146718720Y-80381796D01*
X146764281Y-80442810D01*
X146767590Y-80446090D01*
X146767595Y-80446096D01*
X146924340Y-80601478D01*
X146955180Y-80632050D01*
X146958942Y-80634808D01*
X146958945Y-80634811D01*
X147071299Y-80717192D01*
X147171954Y-80790995D01*
X147176089Y-80793171D01*
X147176093Y-80793173D01*
X147405698Y-80913975D01*
X147409840Y-80916154D01*
X147663613Y-81004775D01*
X147668206Y-81005647D01*
X147923109Y-81054042D01*
X147923112Y-81054042D01*
X147927698Y-81054913D01*
X148055370Y-81059929D01*
X148191625Y-81065283D01*
X148191630Y-81065283D01*
X148196293Y-81065466D01*
X148300607Y-81054042D01*
X148458844Y-81036713D01*
X148458850Y-81036712D01*
X148463497Y-81036203D01*
X148468021Y-81035012D01*
X148718918Y-80968956D01*
X148718920Y-80968955D01*
X148723441Y-80967765D01*
X148727738Y-80965919D01*
X148966120Y-80863502D01*
X148966122Y-80863501D01*
X148970414Y-80861657D01*
X149089071Y-80788230D01*
X149195017Y-80722669D01*
X149195021Y-80722666D01*
X149198990Y-80720210D01*
X149404149Y-80546530D01*
X149581382Y-80344434D01*
X149629030Y-80270358D01*
X149705614Y-80151294D01*
X149726797Y-80118361D01*
X149837199Y-79873278D01*
X149874209Y-79742051D01*
X149908893Y-79619072D01*
X149908894Y-79619069D01*
X149910163Y-79614568D01*
X149928043Y-79474019D01*
X149943688Y-79351045D01*
X149943688Y-79351041D01*
X149944086Y-79347915D01*
X149946571Y-79253000D01*
X149942313Y-79195697D01*
X149926996Y-78989592D01*
X149926996Y-78989591D01*
X149926650Y-78984937D01*
X149925619Y-78980379D01*
X149868361Y-78727331D01*
X149868360Y-78727326D01*
X149867327Y-78722763D01*
X149769902Y-78472238D01*
X149636518Y-78238864D01*
X149470105Y-78027769D01*
X149274317Y-77843591D01*
X149079081Y-77708150D01*
X149057299Y-77693039D01*
X149057296Y-77693037D01*
X149053457Y-77690374D01*
X149049264Y-77688306D01*
X148816564Y-77573551D01*
X148816561Y-77573550D01*
X148812376Y-77571486D01*
X148807269Y-77569851D01*
X148645560Y-77518088D01*
X148556370Y-77489538D01*
X148551763Y-77488788D01*
X148551760Y-77488787D01*
X148295674Y-77447081D01*
X148295675Y-77447081D01*
X148291063Y-77446330D01*
X148160719Y-77444624D01*
X148026961Y-77442873D01*
X148026958Y-77442873D01*
X148022284Y-77442812D01*
X147755937Y-77479060D01*
X147497874Y-77554278D01*
X147253763Y-77666815D01*
X147214893Y-77692299D01*
X147032881Y-77811631D01*
X147032876Y-77811635D01*
X147028968Y-77814197D01*
X146971257Y-77865706D01*
X146855324Y-77969181D01*
X146828426Y-77993188D01*
X146656544Y-78199854D01*
X146517096Y-78429656D01*
X146515287Y-78433970D01*
X146515285Y-78433974D01*
X146467242Y-78548544D01*
X146413148Y-78677545D01*
X146346981Y-78938077D01*
X146320050Y-79205526D01*
X114800500Y-79205526D01*
X114800500Y-78063435D01*
X114820502Y-77995314D01*
X114874158Y-77948821D01*
X114882270Y-77945453D01*
X114982797Y-77907767D01*
X114991205Y-77904615D01*
X115107761Y-77817261D01*
X115195115Y-77700705D01*
X115246245Y-77564316D01*
X115253000Y-77502134D01*
X115253000Y-75405866D01*
X115246245Y-75343684D01*
X115195115Y-75207295D01*
X115107761Y-75090739D01*
X114991205Y-75003385D01*
X114854816Y-74952255D01*
X114792634Y-74945500D01*
X112791366Y-74945500D01*
X112729184Y-74952255D01*
X112592795Y-75003385D01*
X112476239Y-75090739D01*
X112388885Y-75207295D01*
X112385734Y-75215701D01*
X112381242Y-75227683D01*
X112338599Y-75284447D01*
X112272038Y-75309146D01*
X112202689Y-75293938D01*
X112185168Y-75282334D01*
X112067056Y-75189055D01*
X112058469Y-75183350D01*
X111857278Y-75072286D01*
X111847866Y-75068056D01*
X111631232Y-74991341D01*
X111621261Y-74988707D01*
X111523837Y-74971353D01*
X111510540Y-74972813D01*
X111506000Y-74987370D01*
X111506000Y-77922096D01*
X111509918Y-77935440D01*
X111524194Y-77937427D01*
X111586515Y-77927890D01*
X111596543Y-77925501D01*
X111814988Y-77854102D01*
X111824497Y-77850105D01*
X112028344Y-77743989D01*
X112037061Y-77738500D01*
X112188099Y-77625098D01*
X112254584Y-77600193D01*
X112323980Y-77615186D01*
X112374253Y-77665316D01*
X112381732Y-77681625D01*
X112388885Y-77700705D01*
X112476239Y-77817261D01*
X112592795Y-77904615D01*
X112601203Y-77907767D01*
X112701730Y-77945453D01*
X112758494Y-77988095D01*
X112783194Y-78054656D01*
X112783500Y-78063435D01*
X112783500Y-83096075D01*
X112763498Y-83164196D01*
X112746595Y-83185170D01*
X107788621Y-88143145D01*
X107778478Y-88152247D01*
X107748975Y-88175968D01*
X107745008Y-88180696D01*
X107716709Y-88214421D01*
X107713528Y-88218069D01*
X107711885Y-88219881D01*
X107709691Y-88222075D01*
X107682358Y-88255349D01*
X107681696Y-88256147D01*
X107621846Y-88327474D01*
X107619278Y-88332144D01*
X107615897Y-88336261D01*
X107584860Y-88394145D01*
X107572023Y-88418086D01*
X107571394Y-88419245D01*
X107529538Y-88495381D01*
X107529535Y-88495389D01*
X107526567Y-88500787D01*
X107524955Y-88505869D01*
X107522438Y-88510563D01*
X107495238Y-88599531D01*
X107494918Y-88600559D01*
X107466765Y-88689306D01*
X107466171Y-88694602D01*
X107464613Y-88699698D01*
X107463990Y-88705834D01*
X107455218Y-88792187D01*
X107455089Y-88793393D01*
X107449500Y-88843227D01*
X107449500Y-88846754D01*
X107449445Y-88847739D01*
X107448998Y-88853419D01*
X107444626Y-88896462D01*
X107445206Y-88902593D01*
X107448941Y-88942109D01*
X107449500Y-88953967D01*
X107449500Y-93477507D01*
X107429498Y-93545628D01*
X107392586Y-93582878D01*
X107353968Y-93608197D01*
X107313249Y-93644540D01*
X107210567Y-93736188D01*
X107153426Y-93787188D01*
X106981544Y-93993854D01*
X106842096Y-94223656D01*
X106840287Y-94227970D01*
X106840285Y-94227974D01*
X106768278Y-94399693D01*
X106738148Y-94471545D01*
X106671981Y-94732077D01*
X106645050Y-94999526D01*
X105188043Y-94999526D01*
X105171650Y-94778937D01*
X105170619Y-94774379D01*
X105113361Y-94521331D01*
X105113360Y-94521326D01*
X105112327Y-94516763D01*
X105014902Y-94266238D01*
X104881518Y-94032864D01*
X104850147Y-93993069D01*
X104795427Y-93923658D01*
X104715105Y-93821769D01*
X104519317Y-93637591D01*
X104317632Y-93497676D01*
X104302299Y-93487039D01*
X104302296Y-93487037D01*
X104298457Y-93484374D01*
X104288596Y-93479511D01*
X104061564Y-93367551D01*
X104061561Y-93367550D01*
X104057376Y-93365486D01*
X104009745Y-93350239D01*
X103904503Y-93316551D01*
X103801370Y-93283538D01*
X103796763Y-93282788D01*
X103796760Y-93282787D01*
X103567102Y-93245385D01*
X103536063Y-93240330D01*
X103405719Y-93238624D01*
X103271961Y-93236873D01*
X103271958Y-93236873D01*
X103267284Y-93236812D01*
X103000937Y-93273060D01*
X102742874Y-93348278D01*
X102498763Y-93460815D01*
X102470247Y-93479511D01*
X102277881Y-93605631D01*
X102277877Y-93605634D01*
X102273968Y-93608197D01*
X102233249Y-93644540D01*
X102130567Y-93736188D01*
X102073426Y-93787188D01*
X101901544Y-93993854D01*
X101762096Y-94223656D01*
X101760287Y-94227970D01*
X101760285Y-94227974D01*
X101688278Y-94399693D01*
X101658148Y-94471545D01*
X101591981Y-94732077D01*
X101565050Y-94999526D01*
X100106500Y-94999526D01*
X100106500Y-93698866D01*
X100099745Y-93636684D01*
X100048615Y-93500295D01*
X99961261Y-93383739D01*
X99844705Y-93296385D01*
X99708316Y-93245255D01*
X99646134Y-93238500D01*
X96949866Y-93238500D01*
X96887684Y-93245255D01*
X96751295Y-93296385D01*
X96634739Y-93383739D01*
X96547385Y-93500295D01*
X96496255Y-93636684D01*
X96489500Y-93698866D01*
X96489500Y-96395134D01*
X92900648Y-96395134D01*
X92965149Y-96340530D01*
X93142382Y-96138434D01*
X93175187Y-96087434D01*
X93285269Y-95916291D01*
X93287797Y-95912361D01*
X93398199Y-95667278D01*
X93411380Y-95620542D01*
X93469893Y-95413072D01*
X93469894Y-95413069D01*
X93471163Y-95408568D01*
X93489612Y-95263548D01*
X93504688Y-95145045D01*
X93504688Y-95145041D01*
X93505086Y-95141915D01*
X93507571Y-95047000D01*
X93487650Y-94778937D01*
X93486619Y-94774379D01*
X93429361Y-94521331D01*
X93429360Y-94521326D01*
X93428327Y-94516763D01*
X93330902Y-94266238D01*
X93197518Y-94032864D01*
X93166147Y-93993069D01*
X93111427Y-93923658D01*
X93031105Y-93821769D01*
X92835317Y-93637591D01*
X92792946Y-93608197D01*
X92756680Y-93583038D01*
X92712110Y-93527775D01*
X92702500Y-93479511D01*
X92702500Y-83019925D01*
X92722502Y-82951804D01*
X92739405Y-82930830D01*
X98205379Y-77464855D01*
X98215522Y-77455753D01*
X98240218Y-77435897D01*
X98245025Y-77432032D01*
X98277292Y-77393578D01*
X98280473Y-77389930D01*
X98282117Y-77388117D01*
X98284309Y-77385925D01*
X98311580Y-77352724D01*
X98312362Y-77351782D01*
X98368193Y-77285247D01*
X98368195Y-77285244D01*
X98372154Y-77280526D01*
X98374723Y-77275853D01*
X98378103Y-77271738D01*
X98400251Y-77230434D01*
X98422028Y-77189820D01*
X98422657Y-77188662D01*
X98464465Y-77112612D01*
X98464465Y-77112611D01*
X98467433Y-77107213D01*
X98469044Y-77102135D01*
X98471563Y-77097437D01*
X98498753Y-77008502D01*
X98499136Y-77007272D01*
X98509709Y-76973944D01*
X98527235Y-76918694D01*
X98527828Y-76913403D01*
X98529388Y-76908302D01*
X98538795Y-76815689D01*
X98538915Y-76814569D01*
X98544500Y-76764773D01*
X98544500Y-76761244D01*
X98544555Y-76760261D01*
X98545004Y-76754556D01*
X98548752Y-76717664D01*
X98548752Y-76717661D01*
X98549374Y-76711537D01*
X98545059Y-76665888D01*
X98544500Y-76654031D01*
X98544500Y-76562402D01*
X107251000Y-76562402D01*
X107251212Y-76564975D01*
X107251212Y-76564986D01*
X107258533Y-76654031D01*
X107265678Y-76740937D01*
X107324206Y-76973944D01*
X107375342Y-77091549D01*
X107417827Y-77189258D01*
X107420003Y-77194263D01*
X107503176Y-77322829D01*
X107544755Y-77387099D01*
X107550498Y-77395977D01*
X107712186Y-77573670D01*
X107764974Y-77615359D01*
X107896670Y-77719367D01*
X107896675Y-77719370D01*
X107900724Y-77722568D01*
X107905240Y-77725061D01*
X107905243Y-77725063D01*
X108106526Y-77836177D01*
X108106530Y-77836179D01*
X108111050Y-77838674D01*
X108115919Y-77840398D01*
X108115923Y-77840400D01*
X108332640Y-77917144D01*
X108332644Y-77917145D01*
X108337515Y-77918870D01*
X108342608Y-77919777D01*
X108342611Y-77919778D01*
X108568948Y-77960095D01*
X108568954Y-77960096D01*
X108574037Y-77961001D01*
X108655804Y-77962000D01*
X108809093Y-77963873D01*
X108809095Y-77963873D01*
X108814263Y-77963936D01*
X109051744Y-77927596D01*
X109182184Y-77884962D01*
X109275183Y-77854566D01*
X109275189Y-77854563D01*
X109280101Y-77852958D01*
X109284687Y-77850571D01*
X109284691Y-77850569D01*
X109488607Y-77744416D01*
X109493200Y-77742025D01*
X109640200Y-77631654D01*
X109681185Y-77600882D01*
X109681188Y-77600880D01*
X109685320Y-77597777D01*
X109821041Y-77455753D01*
X109847730Y-77427825D01*
X109847731Y-77427824D01*
X109851301Y-77424088D01*
X109876840Y-77386649D01*
X109931751Y-77341648D01*
X110002275Y-77333477D01*
X110066022Y-77364731D01*
X110086716Y-77389210D01*
X110088085Y-77391326D01*
X110094378Y-77399498D01*
X110249050Y-77569480D01*
X110256583Y-77576506D01*
X110436944Y-77718945D01*
X110445531Y-77724650D01*
X110646722Y-77835714D01*
X110656134Y-77839944D01*
X110872768Y-77916659D01*
X110882739Y-77919293D01*
X110980163Y-77936647D01*
X110993460Y-77935187D01*
X110998000Y-77920630D01*
X110998000Y-74985904D01*
X110994082Y-74972560D01*
X110979806Y-74970573D01*
X110917485Y-74980110D01*
X110907457Y-74982499D01*
X110689012Y-75053898D01*
X110679503Y-75057895D01*
X110475656Y-75164011D01*
X110466931Y-75169505D01*
X110283148Y-75307493D01*
X110275441Y-75314336D01*
X110116661Y-75480491D01*
X110110177Y-75488498D01*
X110087763Y-75521356D01*
X110032852Y-75566359D01*
X109962328Y-75574532D01*
X109898580Y-75543278D01*
X109877884Y-75518796D01*
X109876311Y-75516365D01*
X109873502Y-75512023D01*
X109711814Y-75334330D01*
X109623310Y-75264434D01*
X109527330Y-75188633D01*
X109527325Y-75188630D01*
X109523276Y-75185432D01*
X109518760Y-75182939D01*
X109518757Y-75182937D01*
X109317474Y-75071823D01*
X109317470Y-75071821D01*
X109312950Y-75069326D01*
X109308081Y-75067602D01*
X109308077Y-75067600D01*
X109091360Y-74990856D01*
X109091356Y-74990855D01*
X109086485Y-74989130D01*
X109081392Y-74988223D01*
X109081389Y-74988222D01*
X108855052Y-74947905D01*
X108855046Y-74947904D01*
X108849963Y-74946999D01*
X108757474Y-74945869D01*
X108614907Y-74944127D01*
X108614905Y-74944127D01*
X108609737Y-74944064D01*
X108372256Y-74980404D01*
X108284111Y-75009214D01*
X108148817Y-75053434D01*
X108148811Y-75053437D01*
X108143899Y-75055042D01*
X108139313Y-75057429D01*
X108139309Y-75057431D01*
X107991779Y-75134231D01*
X107930800Y-75165975D01*
X107908209Y-75182937D01*
X107760370Y-75293938D01*
X107738680Y-75310223D01*
X107695096Y-75355831D01*
X107586340Y-75469638D01*
X107572699Y-75483912D01*
X107569785Y-75488184D01*
X107440597Y-75677566D01*
X107437314Y-75682378D01*
X107435140Y-75687061D01*
X107435138Y-75687065D01*
X107341977Y-75887765D01*
X107336163Y-75900290D01*
X107271960Y-76131798D01*
X107271411Y-76136935D01*
X107256259Y-76278720D01*
X107251000Y-76327928D01*
X107251000Y-76562402D01*
X98544500Y-76562402D01*
X98544500Y-70730500D01*
X98564502Y-70662379D01*
X98618158Y-70615886D01*
X98670500Y-70604500D01*
X100368075Y-70604500D01*
X100436196Y-70624502D01*
X100457170Y-70641405D01*
X103637145Y-73821379D01*
X103646247Y-73831522D01*
X103669968Y-73861025D01*
X103708456Y-73893320D01*
X103712075Y-73896478D01*
X103713890Y-73898124D01*
X103716075Y-73900309D01*
X103718455Y-73902264D01*
X103718465Y-73902273D01*
X103749236Y-73927549D01*
X103750251Y-73928391D01*
X103821474Y-73988154D01*
X103826148Y-73990723D01*
X103830261Y-73994102D01*
X103835698Y-73997017D01*
X103835699Y-73997018D01*
X103912047Y-74037955D01*
X103913177Y-74038568D01*
X103994787Y-74083433D01*
X103999869Y-74085045D01*
X104004563Y-74087562D01*
X104093531Y-74114762D01*
X104094559Y-74115082D01*
X104183306Y-74143235D01*
X104188602Y-74143829D01*
X104193698Y-74145387D01*
X104286257Y-74154790D01*
X104287393Y-74154911D01*
X104321008Y-74158681D01*
X104333730Y-74160108D01*
X104333734Y-74160108D01*
X104337227Y-74160500D01*
X104340754Y-74160500D01*
X104341739Y-74160555D01*
X104347419Y-74161002D01*
X104376825Y-74163989D01*
X104384337Y-74164752D01*
X104384339Y-74164752D01*
X104390462Y-74165374D01*
X104436108Y-74161059D01*
X104447967Y-74160500D01*
X125260075Y-74160500D01*
X125328196Y-74180502D01*
X125349165Y-74197400D01*
X126081762Y-74929996D01*
X126115785Y-74992306D01*
X126110721Y-75063121D01*
X126068174Y-75119957D01*
X126001654Y-75144768D01*
X125931772Y-75129398D01*
X125827480Y-75071826D01*
X125827473Y-75071823D01*
X125822950Y-75069326D01*
X125818081Y-75067602D01*
X125818077Y-75067600D01*
X125601360Y-74990856D01*
X125601356Y-74990855D01*
X125596485Y-74989130D01*
X125591392Y-74988223D01*
X125591389Y-74988222D01*
X125365052Y-74947905D01*
X125365046Y-74947904D01*
X125359963Y-74946999D01*
X125267474Y-74945869D01*
X125124907Y-74944127D01*
X125124905Y-74944127D01*
X125119737Y-74944064D01*
X124882256Y-74980404D01*
X124794111Y-75009214D01*
X124658817Y-75053434D01*
X124658811Y-75053437D01*
X124653899Y-75055042D01*
X124649313Y-75057429D01*
X124649309Y-75057431D01*
X124501779Y-75134231D01*
X124440800Y-75165975D01*
X124418209Y-75182937D01*
X124270370Y-75293938D01*
X124248680Y-75310223D01*
X124205096Y-75355831D01*
X124096340Y-75469638D01*
X124082699Y-75483912D01*
X124079785Y-75488184D01*
X123950597Y-75677566D01*
X123947314Y-75682378D01*
X123945140Y-75687061D01*
X123945138Y-75687065D01*
X123851977Y-75887765D01*
X123846163Y-75900290D01*
X123781960Y-76131798D01*
X123781411Y-76136935D01*
X123766259Y-76278720D01*
X123761000Y-76327928D01*
X123761000Y-76562402D01*
X123761212Y-76564975D01*
X123761212Y-76564986D01*
X123768533Y-76654031D01*
X123775678Y-76740937D01*
X123834206Y-76973944D01*
X123885342Y-77091549D01*
X123927827Y-77189258D01*
X123930003Y-77194263D01*
X124013176Y-77322829D01*
X124054755Y-77387099D01*
X124060498Y-77395977D01*
X124222186Y-77573670D01*
X124274974Y-77615359D01*
X124406670Y-77719367D01*
X124406675Y-77719370D01*
X124410724Y-77722568D01*
X124415240Y-77725061D01*
X124415243Y-77725063D01*
X124616526Y-77836177D01*
X124616530Y-77836179D01*
X124621050Y-77838674D01*
X124625919Y-77840398D01*
X124625923Y-77840400D01*
X124842640Y-77917144D01*
X124842644Y-77917145D01*
X124847515Y-77918870D01*
X124852608Y-77919777D01*
X124852611Y-77919778D01*
X125078948Y-77960095D01*
X125078954Y-77960096D01*
X125084037Y-77961001D01*
X125165804Y-77962000D01*
X125319093Y-77963873D01*
X125319095Y-77963873D01*
X125324263Y-77963936D01*
X125561744Y-77927596D01*
X125692184Y-77884962D01*
X125785183Y-77854566D01*
X125785189Y-77854563D01*
X125790101Y-77852958D01*
X125794687Y-77850571D01*
X125794691Y-77850569D01*
X125998607Y-77744416D01*
X126003200Y-77742025D01*
X126150200Y-77631654D01*
X126191185Y-77600882D01*
X126191188Y-77600880D01*
X126195320Y-77597777D01*
X126331041Y-77455753D01*
X126357730Y-77427825D01*
X126357731Y-77427824D01*
X126361301Y-77424088D01*
X126386535Y-77387097D01*
X126441444Y-77342096D01*
X126511968Y-77333925D01*
X126575716Y-77365179D01*
X126596411Y-77389660D01*
X126600498Y-77395977D01*
X126762186Y-77573670D01*
X126814974Y-77615359D01*
X126946670Y-77719367D01*
X126946675Y-77719370D01*
X126950724Y-77722568D01*
X126955240Y-77725061D01*
X126955243Y-77725063D01*
X127156526Y-77836177D01*
X127156530Y-77836179D01*
X127161050Y-77838674D01*
X127165919Y-77840398D01*
X127165923Y-77840400D01*
X127382640Y-77917144D01*
X127382644Y-77917145D01*
X127387515Y-77918870D01*
X127392608Y-77919777D01*
X127392611Y-77919778D01*
X127618948Y-77960095D01*
X127618954Y-77960096D01*
X127624037Y-77961001D01*
X127705804Y-77962000D01*
X127859093Y-77963873D01*
X127859095Y-77963873D01*
X127864263Y-77963936D01*
X128101744Y-77927596D01*
X128232184Y-77884962D01*
X128325183Y-77854566D01*
X128325189Y-77854563D01*
X128330101Y-77852958D01*
X128334687Y-77850571D01*
X128334691Y-77850569D01*
X128538607Y-77744416D01*
X128543200Y-77742025D01*
X128698700Y-77625272D01*
X128765182Y-77600367D01*
X128834578Y-77615359D01*
X128884852Y-77665489D01*
X128892333Y-77681803D01*
X128896176Y-77692054D01*
X128904714Y-77707649D01*
X128981215Y-77809724D01*
X128993776Y-77822285D01*
X129095851Y-77898786D01*
X129111446Y-77907324D01*
X129231894Y-77952478D01*
X129247149Y-77956105D01*
X129298014Y-77961631D01*
X129304828Y-77962000D01*
X130029885Y-77962000D01*
X130045124Y-77957525D01*
X130046329Y-77956135D01*
X130048000Y-77948452D01*
X130048000Y-77943884D01*
X130556000Y-77943884D01*
X130560475Y-77959123D01*
X130561865Y-77960328D01*
X130569548Y-77961999D01*
X131299169Y-77961999D01*
X131305990Y-77961629D01*
X131356852Y-77956105D01*
X131372104Y-77952479D01*
X131492554Y-77907324D01*
X131508149Y-77898786D01*
X131610224Y-77822285D01*
X131622785Y-77809724D01*
X131699286Y-77707649D01*
X131707824Y-77692054D01*
X131752978Y-77571606D01*
X131756605Y-77556351D01*
X131762131Y-77505486D01*
X131762500Y-77498672D01*
X131762500Y-76726115D01*
X131758025Y-76710876D01*
X131756635Y-76709671D01*
X131748952Y-76708000D01*
X130574115Y-76708000D01*
X130558876Y-76712475D01*
X130557671Y-76713865D01*
X130556000Y-76721548D01*
X130556000Y-77943884D01*
X130048000Y-77943884D01*
X130048000Y-76679695D01*
X135289251Y-76679695D01*
X135289548Y-76684848D01*
X135289548Y-76684851D01*
X135295011Y-76779590D01*
X135302110Y-76902715D01*
X135303247Y-76907761D01*
X135303248Y-76907767D01*
X135307035Y-76924570D01*
X135351222Y-77120639D01*
X135435266Y-77327616D01*
X135473452Y-77389930D01*
X135544265Y-77505486D01*
X135551987Y-77518088D01*
X135698250Y-77686938D01*
X135702225Y-77690238D01*
X135702231Y-77690244D01*
X135707425Y-77694556D01*
X135747059Y-77753460D01*
X135748555Y-77824441D01*
X135711439Y-77884962D01*
X135671168Y-77909480D01*
X135563946Y-77949676D01*
X135548351Y-77958214D01*
X135446276Y-78034715D01*
X135433715Y-78047276D01*
X135357214Y-78149351D01*
X135348676Y-78164946D01*
X135303522Y-78285394D01*
X135299895Y-78300649D01*
X135294369Y-78351514D01*
X135294000Y-78358328D01*
X135294000Y-78980885D01*
X135298475Y-78996124D01*
X135299865Y-78997329D01*
X135307548Y-78999000D01*
X137991884Y-78999000D01*
X138007123Y-78994525D01*
X138008328Y-78993135D01*
X138009999Y-78985452D01*
X138009999Y-78358331D01*
X138009629Y-78351510D01*
X138004105Y-78300648D01*
X138000479Y-78285396D01*
X137955324Y-78164946D01*
X137946786Y-78149351D01*
X137870285Y-78047276D01*
X137857724Y-78034715D01*
X137755649Y-77958214D01*
X137740054Y-77949676D01*
X137629813Y-77908348D01*
X137573049Y-77865706D01*
X137548349Y-77799145D01*
X137563557Y-77729796D01*
X137585104Y-77701115D01*
X137686430Y-77600144D01*
X137686440Y-77600132D01*
X137690096Y-77596489D01*
X137693407Y-77591882D01*
X137817435Y-77419277D01*
X137820453Y-77415077D01*
X137832192Y-77391326D01*
X137917136Y-77219453D01*
X137917137Y-77219451D01*
X137919430Y-77214811D01*
X137982352Y-77007710D01*
X137982865Y-77006023D01*
X137982865Y-77006021D01*
X137984370Y-77001069D01*
X138013529Y-76779590D01*
X138014351Y-76745956D01*
X138015074Y-76716365D01*
X138015074Y-76716361D01*
X138015156Y-76713000D01*
X137996852Y-76490361D01*
X137942431Y-76273702D01*
X137853354Y-76068840D01*
X137736982Y-75888956D01*
X137734822Y-75885617D01*
X137734820Y-75885614D01*
X137732014Y-75881277D01*
X137581670Y-75716051D01*
X137577619Y-75712852D01*
X137577615Y-75712848D01*
X137410414Y-75580800D01*
X137410410Y-75580798D01*
X137406359Y-75577598D01*
X137210789Y-75469638D01*
X137205920Y-75467914D01*
X137205916Y-75467912D01*
X137005087Y-75396795D01*
X137005083Y-75396794D01*
X137000212Y-75395069D01*
X136995119Y-75394162D01*
X136995116Y-75394161D01*
X136785373Y-75356800D01*
X136785367Y-75356799D01*
X136780284Y-75355894D01*
X136706452Y-75354992D01*
X136562081Y-75353228D01*
X136562079Y-75353228D01*
X136556911Y-75353165D01*
X136336091Y-75386955D01*
X136123756Y-75456357D01*
X136093443Y-75472137D01*
X135956783Y-75543278D01*
X135925607Y-75559507D01*
X135921474Y-75562610D01*
X135921471Y-75562612D01*
X135755715Y-75687065D01*
X135746965Y-75693635D01*
X135743393Y-75697373D01*
X135610771Y-75836154D01*
X135592629Y-75855138D01*
X135466743Y-76039680D01*
X135451003Y-76073590D01*
X135395048Y-76194135D01*
X135372688Y-76242305D01*
X135312989Y-76457570D01*
X135289251Y-76679695D01*
X130048000Y-76679695D01*
X130048000Y-76181885D01*
X130556000Y-76181885D01*
X130560475Y-76197124D01*
X130561865Y-76198329D01*
X130569548Y-76200000D01*
X131744384Y-76200000D01*
X131759623Y-76195525D01*
X131760828Y-76194135D01*
X131762499Y-76186452D01*
X131762499Y-75409331D01*
X131762129Y-75402510D01*
X131756605Y-75351648D01*
X131752979Y-75336396D01*
X131707824Y-75215946D01*
X131699286Y-75200351D01*
X131622785Y-75098276D01*
X131610224Y-75085715D01*
X131508149Y-75009214D01*
X131492554Y-75000676D01*
X131372106Y-74955522D01*
X131356851Y-74951895D01*
X131305986Y-74946369D01*
X131299172Y-74946000D01*
X130574115Y-74946000D01*
X130558876Y-74950475D01*
X130557671Y-74951865D01*
X130556000Y-74959548D01*
X130556000Y-76181885D01*
X130048000Y-76181885D01*
X130048000Y-74964116D01*
X130043525Y-74948877D01*
X130042135Y-74947672D01*
X130034452Y-74946001D01*
X129304831Y-74946001D01*
X129298010Y-74946371D01*
X129247148Y-74951895D01*
X129231896Y-74955521D01*
X129111446Y-75000676D01*
X129095851Y-75009214D01*
X128993776Y-75085715D01*
X128975204Y-75104287D01*
X128912892Y-75138313D01*
X128842077Y-75133248D01*
X128785241Y-75090701D01*
X128760588Y-75026174D01*
X128758623Y-75003718D01*
X128758087Y-74997587D01*
X128756600Y-74992468D01*
X128756080Y-74987167D01*
X128729209Y-74898166D01*
X128728874Y-74897033D01*
X128704630Y-74813586D01*
X128704628Y-74813582D01*
X128702909Y-74807664D01*
X128700456Y-74802932D01*
X128698916Y-74797831D01*
X128655269Y-74715740D01*
X128654657Y-74714574D01*
X128614729Y-74637547D01*
X128611892Y-74632074D01*
X128608569Y-74627911D01*
X128606066Y-74623204D01*
X128547245Y-74551082D01*
X128546554Y-74550226D01*
X128515262Y-74511027D01*
X128512758Y-74508523D01*
X128512116Y-74507805D01*
X128508415Y-74503472D01*
X128481065Y-74469938D01*
X128445737Y-74440712D01*
X128436958Y-74432723D01*
X128129761Y-74125526D01*
X146320050Y-74125526D01*
X146320274Y-74130192D01*
X146320274Y-74130197D01*
X146326738Y-74264758D01*
X146332947Y-74394019D01*
X146385388Y-74657656D01*
X146476220Y-74910646D01*
X146478432Y-74914762D01*
X146478433Y-74914765D01*
X146517456Y-74987389D01*
X146603450Y-75147431D01*
X146606241Y-75151168D01*
X146606245Y-75151175D01*
X146663377Y-75227683D01*
X146764281Y-75362810D01*
X146767590Y-75366090D01*
X146767595Y-75366096D01*
X146914802Y-75512023D01*
X146955180Y-75552050D01*
X146958942Y-75554808D01*
X146958945Y-75554811D01*
X147144043Y-75690530D01*
X147171954Y-75710995D01*
X147176089Y-75713171D01*
X147176093Y-75713173D01*
X147405698Y-75833975D01*
X147409840Y-75836154D01*
X147663613Y-75924775D01*
X147668206Y-75925647D01*
X147923109Y-75974042D01*
X147923112Y-75974042D01*
X147927698Y-75974913D01*
X148055370Y-75979929D01*
X148191625Y-75985283D01*
X148191630Y-75985283D01*
X148196293Y-75985466D01*
X148300607Y-75974042D01*
X148458844Y-75956713D01*
X148458850Y-75956712D01*
X148463497Y-75956203D01*
X148547617Y-75934056D01*
X148718918Y-75888956D01*
X148718920Y-75888955D01*
X148723441Y-75887765D01*
X148728441Y-75885617D01*
X148966120Y-75783502D01*
X148966122Y-75783501D01*
X148970414Y-75781657D01*
X149123273Y-75687065D01*
X149195017Y-75642669D01*
X149195021Y-75642666D01*
X149198990Y-75640210D01*
X149404149Y-75466530D01*
X149581382Y-75264434D01*
X149597730Y-75239019D01*
X149696338Y-75085715D01*
X149726797Y-75038361D01*
X149837199Y-74793278D01*
X149874209Y-74662051D01*
X149908893Y-74539072D01*
X149908894Y-74539069D01*
X149910163Y-74534568D01*
X149922584Y-74436929D01*
X149943688Y-74271045D01*
X149943688Y-74271041D01*
X149944086Y-74267915D01*
X149946571Y-74173000D01*
X149926650Y-73904937D01*
X149925603Y-73900309D01*
X149868361Y-73647331D01*
X149868360Y-73647326D01*
X149867327Y-73642763D01*
X149769902Y-73392238D01*
X149636518Y-73158864D01*
X149470105Y-72947769D01*
X149274317Y-72763591D01*
X149053457Y-72610374D01*
X149049264Y-72608306D01*
X148816564Y-72493551D01*
X148816561Y-72493550D01*
X148812376Y-72491486D01*
X148764745Y-72476239D01*
X148648434Y-72439008D01*
X148556370Y-72409538D01*
X148551763Y-72408788D01*
X148551760Y-72408787D01*
X148295674Y-72367081D01*
X148295675Y-72367081D01*
X148291063Y-72366330D01*
X148160719Y-72364624D01*
X148026961Y-72362873D01*
X148026958Y-72362873D01*
X148022284Y-72362812D01*
X147755937Y-72399060D01*
X147751451Y-72400368D01*
X147751449Y-72400368D01*
X147727351Y-72407392D01*
X147497874Y-72474278D01*
X147493621Y-72476238D01*
X147493620Y-72476239D01*
X147463634Y-72490063D01*
X147253763Y-72586815D01*
X147249854Y-72589378D01*
X147032881Y-72731631D01*
X147032876Y-72731635D01*
X147028968Y-72734197D01*
X146828426Y-72913188D01*
X146656544Y-73119854D01*
X146517096Y-73349656D01*
X146413148Y-73597545D01*
X146346981Y-73858077D01*
X146320050Y-74125526D01*
X128129761Y-74125526D01*
X126486855Y-72482621D01*
X126477753Y-72472478D01*
X126457897Y-72447782D01*
X126454032Y-72442975D01*
X126415578Y-72410708D01*
X126411931Y-72407528D01*
X126410119Y-72405885D01*
X126407925Y-72403691D01*
X126374651Y-72376358D01*
X126373853Y-72375696D01*
X126302526Y-72315846D01*
X126297856Y-72313278D01*
X126293739Y-72309897D01*
X126211914Y-72266023D01*
X126210755Y-72265394D01*
X126134619Y-72223538D01*
X126134611Y-72223535D01*
X126129213Y-72220567D01*
X126124131Y-72218955D01*
X126119437Y-72216438D01*
X126030469Y-72189238D01*
X126029441Y-72188918D01*
X125940694Y-72160765D01*
X125935398Y-72160171D01*
X125930302Y-72158613D01*
X125837743Y-72149210D01*
X125836607Y-72149089D01*
X125802992Y-72145319D01*
X125790270Y-72143892D01*
X125790266Y-72143892D01*
X125786773Y-72143500D01*
X125783246Y-72143500D01*
X125782261Y-72143445D01*
X125776581Y-72142998D01*
X125747175Y-72140011D01*
X125739663Y-72139248D01*
X125739661Y-72139248D01*
X125733538Y-72138626D01*
X125691259Y-72142623D01*
X125687891Y-72142941D01*
X125676033Y-72143500D01*
X104863924Y-72143500D01*
X104795803Y-72123498D01*
X104774829Y-72106595D01*
X102230929Y-69562695D01*
X108873251Y-69562695D01*
X108873548Y-69567848D01*
X108873548Y-69567851D01*
X108883340Y-69737679D01*
X108886110Y-69785715D01*
X108887247Y-69790761D01*
X108887248Y-69790767D01*
X108900315Y-69848746D01*
X108935222Y-70003639D01*
X109019266Y-70210616D01*
X109070019Y-70293438D01*
X109133291Y-70396688D01*
X109135987Y-70401088D01*
X109282250Y-70569938D01*
X109454126Y-70712632D01*
X109647000Y-70825338D01*
X109855692Y-70905030D01*
X109860760Y-70906061D01*
X109860763Y-70906062D01*
X109965604Y-70927392D01*
X110074597Y-70949567D01*
X110079772Y-70949757D01*
X110079774Y-70949757D01*
X110292673Y-70957564D01*
X110292677Y-70957564D01*
X110297837Y-70957753D01*
X110302957Y-70957097D01*
X110302959Y-70957097D01*
X110514288Y-70930025D01*
X110514289Y-70930025D01*
X110519416Y-70929368D01*
X110524366Y-70927883D01*
X110728429Y-70866661D01*
X110728434Y-70866659D01*
X110733384Y-70865174D01*
X110933994Y-70766896D01*
X111115860Y-70637173D01*
X111128576Y-70624502D01*
X111217584Y-70535804D01*
X111274096Y-70479489D01*
X111333594Y-70396689D01*
X111404453Y-70298077D01*
X111405776Y-70299028D01*
X111452645Y-70255857D01*
X111522580Y-70243625D01*
X111588026Y-70271144D01*
X111615875Y-70302994D01*
X111675987Y-70401088D01*
X111822250Y-70569938D01*
X111994126Y-70712632D01*
X112187000Y-70825338D01*
X112395692Y-70905030D01*
X112400760Y-70906061D01*
X112400763Y-70906062D01*
X112505604Y-70927392D01*
X112614597Y-70949567D01*
X112619772Y-70949757D01*
X112619774Y-70949757D01*
X112832673Y-70957564D01*
X112832677Y-70957564D01*
X112837837Y-70957753D01*
X112842957Y-70957097D01*
X112842959Y-70957097D01*
X113054288Y-70930025D01*
X113054289Y-70930025D01*
X113059416Y-70929368D01*
X113064366Y-70927883D01*
X113268429Y-70866661D01*
X113268434Y-70866659D01*
X113273384Y-70865174D01*
X113473994Y-70766896D01*
X113655860Y-70637173D01*
X113668576Y-70624502D01*
X113757584Y-70535804D01*
X113814096Y-70479489D01*
X113873594Y-70396689D01*
X113944453Y-70298077D01*
X113945776Y-70299028D01*
X113992645Y-70255857D01*
X114062580Y-70243625D01*
X114128026Y-70271144D01*
X114155875Y-70302994D01*
X114215987Y-70401088D01*
X114362250Y-70569938D01*
X114534126Y-70712632D01*
X114727000Y-70825338D01*
X114935692Y-70905030D01*
X114940760Y-70906061D01*
X114940763Y-70906062D01*
X115045604Y-70927392D01*
X115154597Y-70949567D01*
X115159772Y-70949757D01*
X115159774Y-70949757D01*
X115372673Y-70957564D01*
X115372677Y-70957564D01*
X115377837Y-70957753D01*
X115382957Y-70957097D01*
X115382959Y-70957097D01*
X115594288Y-70930025D01*
X115594289Y-70930025D01*
X115599416Y-70929368D01*
X115604366Y-70927883D01*
X115808429Y-70866661D01*
X115808434Y-70866659D01*
X115813384Y-70865174D01*
X116013994Y-70766896D01*
X116195860Y-70637173D01*
X116208576Y-70624502D01*
X116297584Y-70535804D01*
X116354096Y-70479489D01*
X116413594Y-70396689D01*
X116484453Y-70298077D01*
X116485776Y-70299028D01*
X116532645Y-70255857D01*
X116602580Y-70243625D01*
X116668026Y-70271144D01*
X116695875Y-70302994D01*
X116755987Y-70401088D01*
X116902250Y-70569938D01*
X117074126Y-70712632D01*
X117267000Y-70825338D01*
X117475692Y-70905030D01*
X117480760Y-70906061D01*
X117480763Y-70906062D01*
X117585604Y-70927392D01*
X117694597Y-70949567D01*
X117699772Y-70949757D01*
X117699774Y-70949757D01*
X117912673Y-70957564D01*
X117912677Y-70957564D01*
X117917837Y-70957753D01*
X117922957Y-70957097D01*
X117922959Y-70957097D01*
X118134288Y-70930025D01*
X118134289Y-70930025D01*
X118139416Y-70929368D01*
X118144366Y-70927883D01*
X118348429Y-70866661D01*
X118348434Y-70866659D01*
X118353384Y-70865174D01*
X118553994Y-70766896D01*
X118618544Y-70720853D01*
X119635977Y-70720853D01*
X119641258Y-70727907D01*
X119802756Y-70822279D01*
X119812042Y-70826729D01*
X120011001Y-70902703D01*
X120020899Y-70905579D01*
X120229595Y-70948038D01*
X120239823Y-70949257D01*
X120452650Y-70957062D01*
X120462936Y-70956595D01*
X120674185Y-70929534D01*
X120684262Y-70927392D01*
X120888255Y-70866191D01*
X120897842Y-70862433D01*
X121089098Y-70768738D01*
X121097944Y-70763465D01*
X121145247Y-70729723D01*
X121152211Y-70720853D01*
X122175977Y-70720853D01*
X122181258Y-70727907D01*
X122342756Y-70822279D01*
X122352042Y-70826729D01*
X122551001Y-70902703D01*
X122560899Y-70905579D01*
X122769595Y-70948038D01*
X122779823Y-70949257D01*
X122992650Y-70957062D01*
X123002936Y-70956595D01*
X123214185Y-70929534D01*
X123224262Y-70927392D01*
X123428255Y-70866191D01*
X123437842Y-70862433D01*
X123629098Y-70768738D01*
X123637944Y-70763465D01*
X123685247Y-70729723D01*
X123692211Y-70720853D01*
X124715977Y-70720853D01*
X124721258Y-70727907D01*
X124882756Y-70822279D01*
X124892042Y-70826729D01*
X125091001Y-70902703D01*
X125100899Y-70905579D01*
X125309595Y-70948038D01*
X125319823Y-70949257D01*
X125532650Y-70957062D01*
X125542936Y-70956595D01*
X125754185Y-70929534D01*
X125764262Y-70927392D01*
X125968255Y-70866191D01*
X125977842Y-70862433D01*
X126169098Y-70768738D01*
X126177944Y-70763465D01*
X126225247Y-70729723D01*
X126233648Y-70719023D01*
X126226660Y-70705870D01*
X125488812Y-69968022D01*
X125474868Y-69960408D01*
X125473035Y-69960539D01*
X125466420Y-69964790D01*
X124722737Y-70708473D01*
X124715977Y-70720853D01*
X123692211Y-70720853D01*
X123693648Y-70719023D01*
X123686660Y-70705870D01*
X122948812Y-69968022D01*
X122934868Y-69960408D01*
X122933035Y-69960539D01*
X122926420Y-69964790D01*
X122182737Y-70708473D01*
X122175977Y-70720853D01*
X121152211Y-70720853D01*
X121153648Y-70719023D01*
X121146660Y-70705870D01*
X120408812Y-69968022D01*
X120394868Y-69960408D01*
X120393035Y-69960539D01*
X120386420Y-69964790D01*
X119642737Y-70708473D01*
X119635977Y-70720853D01*
X118618544Y-70720853D01*
X118735860Y-70637173D01*
X118748576Y-70624502D01*
X118837584Y-70535804D01*
X118894096Y-70479489D01*
X118953594Y-70396689D01*
X119024453Y-70298077D01*
X119025640Y-70298930D01*
X119072960Y-70255362D01*
X119142897Y-70243145D01*
X119208338Y-70270678D01*
X119236166Y-70302512D01*
X119262459Y-70345419D01*
X119272916Y-70354880D01*
X119281694Y-70351096D01*
X120023978Y-69608812D01*
X120030356Y-69597132D01*
X120760408Y-69597132D01*
X120760539Y-69598965D01*
X120764790Y-69605580D01*
X121506474Y-70347264D01*
X121518484Y-70353823D01*
X121530223Y-70344855D01*
X121564022Y-70297819D01*
X121565149Y-70298629D01*
X121612659Y-70254881D01*
X121682596Y-70242661D01*
X121748038Y-70270191D01*
X121775870Y-70302029D01*
X121802459Y-70345419D01*
X121812916Y-70354880D01*
X121821694Y-70351096D01*
X122563978Y-69608812D01*
X122570356Y-69597132D01*
X123300408Y-69597132D01*
X123300539Y-69598965D01*
X123304790Y-69605580D01*
X124046474Y-70347264D01*
X124058484Y-70353823D01*
X124070223Y-70344855D01*
X124104022Y-70297819D01*
X124105149Y-70298629D01*
X124152659Y-70254881D01*
X124222596Y-70242661D01*
X124288038Y-70270191D01*
X124315870Y-70302029D01*
X124342459Y-70345419D01*
X124352916Y-70354880D01*
X124361694Y-70351096D01*
X125103978Y-69608812D01*
X125110356Y-69597132D01*
X125840408Y-69597132D01*
X125840539Y-69598965D01*
X125844790Y-69605580D01*
X126586474Y-70347264D01*
X126598484Y-70353823D01*
X126610223Y-70344855D01*
X126644022Y-70297819D01*
X126645277Y-70298721D01*
X126692391Y-70255355D01*
X126762330Y-70243148D01*
X126827767Y-70270691D01*
X126855580Y-70302513D01*
X126913287Y-70396683D01*
X126913291Y-70396688D01*
X126915987Y-70401088D01*
X127062250Y-70569938D01*
X127234126Y-70712632D01*
X127427000Y-70825338D01*
X127635692Y-70905030D01*
X127640760Y-70906061D01*
X127640763Y-70906062D01*
X127745604Y-70927392D01*
X127854597Y-70949567D01*
X127859772Y-70949757D01*
X127859774Y-70949757D01*
X128072673Y-70957564D01*
X128072677Y-70957564D01*
X128077837Y-70957753D01*
X128082957Y-70957097D01*
X128082959Y-70957097D01*
X128294288Y-70930025D01*
X128294289Y-70930025D01*
X128299416Y-70929368D01*
X128304366Y-70927883D01*
X128508429Y-70866661D01*
X128508434Y-70866659D01*
X128513384Y-70865174D01*
X128713994Y-70766896D01*
X128895860Y-70637173D01*
X128908576Y-70624502D01*
X128997584Y-70535804D01*
X129054096Y-70479489D01*
X129113594Y-70396689D01*
X129181435Y-70302277D01*
X129184453Y-70298077D01*
X129197995Y-70270678D01*
X129281136Y-70102453D01*
X129281137Y-70102451D01*
X129283430Y-70097811D01*
X129348370Y-69884069D01*
X129377529Y-69662590D01*
X129377611Y-69659240D01*
X129379074Y-69599365D01*
X129379074Y-69599361D01*
X129379156Y-69596000D01*
X129360852Y-69373361D01*
X129306431Y-69156702D01*
X129217354Y-68951840D01*
X129143704Y-68837995D01*
X129098822Y-68768617D01*
X129098820Y-68768614D01*
X129096014Y-68764277D01*
X128945670Y-68599051D01*
X128903006Y-68565357D01*
X128861944Y-68507441D01*
X128858712Y-68436518D01*
X128894337Y-68375107D01*
X128927647Y-68352376D01*
X128933007Y-68349865D01*
X128939946Y-68347550D01*
X129090348Y-68254478D01*
X129215305Y-68129303D01*
X129255607Y-68063921D01*
X129304275Y-67984968D01*
X129304276Y-67984966D01*
X129308115Y-67978738D01*
X129348597Y-67856688D01*
X129361632Y-67817389D01*
X129361632Y-67817387D01*
X129363797Y-67810861D01*
X129374500Y-67706400D01*
X129374500Y-66405600D01*
X129374077Y-66401523D01*
X129364238Y-66306692D01*
X129364237Y-66306688D01*
X129363526Y-66299834D01*
X129329598Y-66198138D01*
X129309868Y-66139002D01*
X129307550Y-66132054D01*
X129214478Y-65981652D01*
X129089303Y-65856695D01*
X129083072Y-65852854D01*
X128944968Y-65767725D01*
X128944966Y-65767724D01*
X128938738Y-65763885D01*
X128778254Y-65710655D01*
X128777389Y-65710368D01*
X128777387Y-65710368D01*
X128770861Y-65708203D01*
X128764025Y-65707503D01*
X128764022Y-65707502D01*
X128720969Y-65703091D01*
X128666400Y-65697500D01*
X127365600Y-65697500D01*
X127362354Y-65697837D01*
X127362350Y-65697837D01*
X127266692Y-65707762D01*
X127266688Y-65707763D01*
X127259834Y-65708474D01*
X127253298Y-65710655D01*
X127253296Y-65710655D01*
X127190631Y-65731562D01*
X127092054Y-65764450D01*
X126941652Y-65857522D01*
X126936479Y-65862704D01*
X126880762Y-65918518D01*
X126816695Y-65982697D01*
X126812855Y-65988927D01*
X126812854Y-65988928D01*
X126730934Y-66121827D01*
X126723885Y-66133262D01*
X126721581Y-66140209D01*
X126699236Y-66207577D01*
X126658806Y-66265937D01*
X126632330Y-66282366D01*
X126588811Y-66302399D01*
X125848022Y-67043188D01*
X125840408Y-67057132D01*
X125840539Y-67058965D01*
X125844790Y-67065580D01*
X126586474Y-67807264D01*
X126626998Y-67829393D01*
X126639589Y-67832132D01*
X126689791Y-67882335D01*
X126698726Y-67902842D01*
X126724450Y-67979946D01*
X126817522Y-68130348D01*
X126942697Y-68255305D01*
X126948927Y-68259145D01*
X126948928Y-68259146D01*
X127086095Y-68343697D01*
X127093262Y-68348115D01*
X127100209Y-68350419D01*
X127102276Y-68351383D01*
X127155561Y-68398299D01*
X127175023Y-68466576D01*
X127154482Y-68534536D01*
X127124681Y-68566337D01*
X127110965Y-68576635D01*
X126956629Y-68738138D01*
X126953720Y-68742403D01*
X126953714Y-68742411D01*
X126943268Y-68757725D01*
X126849204Y-68895618D01*
X126848898Y-68896066D01*
X126793987Y-68941069D01*
X126723462Y-68949240D01*
X126659715Y-68917986D01*
X126639017Y-68893501D01*
X126609062Y-68847197D01*
X126598377Y-68837995D01*
X126588812Y-68842398D01*
X125848022Y-69583188D01*
X125840408Y-69597132D01*
X125110356Y-69597132D01*
X125111592Y-69594868D01*
X125111461Y-69593035D01*
X125107210Y-69586420D01*
X124365849Y-68845059D01*
X124354313Y-68838759D01*
X124342028Y-68848384D01*
X124309192Y-68896520D01*
X124254281Y-68941523D01*
X124183756Y-68949694D01*
X124120009Y-68918440D01*
X124099311Y-68893955D01*
X124069062Y-68847197D01*
X124058377Y-68837995D01*
X124048812Y-68842398D01*
X123308022Y-69583188D01*
X123300408Y-69597132D01*
X122570356Y-69597132D01*
X122571592Y-69594868D01*
X122571461Y-69593035D01*
X122567210Y-69586420D01*
X121825849Y-68845059D01*
X121814313Y-68838759D01*
X121802028Y-68848384D01*
X121769192Y-68896520D01*
X121714281Y-68941523D01*
X121643756Y-68949694D01*
X121580009Y-68918440D01*
X121559311Y-68893955D01*
X121529062Y-68847197D01*
X121518377Y-68837995D01*
X121508812Y-68842398D01*
X120768022Y-69583188D01*
X120760408Y-69597132D01*
X120030356Y-69597132D01*
X120031592Y-69594868D01*
X120031461Y-69593035D01*
X120027210Y-69586420D01*
X119285849Y-68845059D01*
X119274313Y-68838759D01*
X119262031Y-68848382D01*
X119229499Y-68896072D01*
X119174587Y-68941075D01*
X119104063Y-68949246D01*
X119040316Y-68917992D01*
X119019618Y-68893508D01*
X118938822Y-68768617D01*
X118938820Y-68768614D01*
X118936014Y-68764277D01*
X118785670Y-68599051D01*
X118781616Y-68595849D01*
X118781615Y-68595848D01*
X118614414Y-68463800D01*
X118614410Y-68463798D01*
X118610359Y-68460598D01*
X118569053Y-68437796D01*
X118519084Y-68387364D01*
X118504312Y-68317921D01*
X118529428Y-68251516D01*
X118556780Y-68224909D01*
X118618544Y-68180853D01*
X119635977Y-68180853D01*
X119641258Y-68187907D01*
X119688479Y-68215501D01*
X119737203Y-68267139D01*
X119750274Y-68336922D01*
X119723543Y-68402694D01*
X119683087Y-68436053D01*
X119674466Y-68440541D01*
X119665734Y-68446039D01*
X119645677Y-68461099D01*
X119637223Y-68472427D01*
X119643968Y-68484758D01*
X120383188Y-69223978D01*
X120397132Y-69231592D01*
X120398965Y-69231461D01*
X120405580Y-69227210D01*
X121149389Y-68483401D01*
X121156410Y-68470544D01*
X121149611Y-68461213D01*
X121145559Y-68458521D01*
X121108116Y-68437852D01*
X121058145Y-68387420D01*
X121043373Y-68317977D01*
X121068489Y-68251572D01*
X121095840Y-68224965D01*
X121145247Y-68189723D01*
X121152211Y-68180853D01*
X122175977Y-68180853D01*
X122181258Y-68187907D01*
X122228479Y-68215501D01*
X122277203Y-68267139D01*
X122290274Y-68336922D01*
X122263543Y-68402694D01*
X122223087Y-68436053D01*
X122214466Y-68440541D01*
X122205734Y-68446039D01*
X122185677Y-68461099D01*
X122177223Y-68472427D01*
X122183968Y-68484758D01*
X122923188Y-69223978D01*
X122937132Y-69231592D01*
X122938965Y-69231461D01*
X122945580Y-69227210D01*
X123689389Y-68483401D01*
X123696410Y-68470544D01*
X123689611Y-68461213D01*
X123685559Y-68458521D01*
X123648116Y-68437852D01*
X123598145Y-68387420D01*
X123583373Y-68317977D01*
X123608489Y-68251572D01*
X123635840Y-68224965D01*
X123685247Y-68189723D01*
X123692211Y-68180853D01*
X124715977Y-68180853D01*
X124721258Y-68187907D01*
X124768479Y-68215501D01*
X124817203Y-68267139D01*
X124830274Y-68336922D01*
X124803543Y-68402694D01*
X124763087Y-68436053D01*
X124754466Y-68440541D01*
X124745734Y-68446039D01*
X124725677Y-68461099D01*
X124717223Y-68472427D01*
X124723968Y-68484758D01*
X125463188Y-69223978D01*
X125477132Y-69231592D01*
X125478965Y-69231461D01*
X125485580Y-69227210D01*
X126229389Y-68483401D01*
X126236410Y-68470544D01*
X126229611Y-68461213D01*
X126225559Y-68458521D01*
X126188116Y-68437852D01*
X126138145Y-68387420D01*
X126123373Y-68317977D01*
X126148489Y-68251572D01*
X126175840Y-68224965D01*
X126225247Y-68189723D01*
X126233648Y-68179023D01*
X126226660Y-68165870D01*
X125488812Y-67428022D01*
X125474868Y-67420408D01*
X125473035Y-67420539D01*
X125466420Y-67424790D01*
X124722737Y-68168473D01*
X124715977Y-68180853D01*
X123692211Y-68180853D01*
X123693648Y-68179023D01*
X123686660Y-68165870D01*
X122948812Y-67428022D01*
X122934868Y-67420408D01*
X122933035Y-67420539D01*
X122926420Y-67424790D01*
X122182737Y-68168473D01*
X122175977Y-68180853D01*
X121152211Y-68180853D01*
X121153648Y-68179023D01*
X121146660Y-68165870D01*
X120408812Y-67428022D01*
X120394868Y-67420408D01*
X120393035Y-67420539D01*
X120386420Y-67424790D01*
X119642737Y-68168473D01*
X119635977Y-68180853D01*
X118618544Y-68180853D01*
X118623147Y-68177570D01*
X118735860Y-68097173D01*
X118769229Y-68063921D01*
X118817209Y-68016107D01*
X118894096Y-67939489D01*
X118920430Y-67902842D01*
X119024453Y-67758077D01*
X119025640Y-67758930D01*
X119072960Y-67715362D01*
X119142897Y-67703145D01*
X119208338Y-67730678D01*
X119236166Y-67762512D01*
X119262459Y-67805419D01*
X119272916Y-67814880D01*
X119281694Y-67811096D01*
X120023978Y-67068812D01*
X120030356Y-67057132D01*
X120760408Y-67057132D01*
X120760539Y-67058965D01*
X120764790Y-67065580D01*
X121506474Y-67807264D01*
X121518484Y-67813823D01*
X121530223Y-67804855D01*
X121564022Y-67757819D01*
X121565149Y-67758629D01*
X121612659Y-67714881D01*
X121682596Y-67702661D01*
X121748038Y-67730191D01*
X121775870Y-67762029D01*
X121802459Y-67805419D01*
X121812916Y-67814880D01*
X121821694Y-67811096D01*
X122563978Y-67068812D01*
X122570356Y-67057132D01*
X123300408Y-67057132D01*
X123300539Y-67058965D01*
X123304790Y-67065580D01*
X124046474Y-67807264D01*
X124058484Y-67813823D01*
X124070223Y-67804855D01*
X124104022Y-67757819D01*
X124105149Y-67758629D01*
X124152659Y-67714881D01*
X124222596Y-67702661D01*
X124288038Y-67730191D01*
X124315870Y-67762029D01*
X124342459Y-67805419D01*
X124352916Y-67814880D01*
X124361694Y-67811096D01*
X125103978Y-67068812D01*
X125111592Y-67054868D01*
X125111461Y-67053035D01*
X125107210Y-67046420D01*
X124365849Y-66305059D01*
X124354313Y-66298759D01*
X124342028Y-66308384D01*
X124309192Y-66356520D01*
X124254281Y-66401523D01*
X124183756Y-66409694D01*
X124120009Y-66378440D01*
X124099311Y-66353955D01*
X124069062Y-66307197D01*
X124058377Y-66297995D01*
X124048812Y-66302398D01*
X123308022Y-67043188D01*
X123300408Y-67057132D01*
X122570356Y-67057132D01*
X122571592Y-67054868D01*
X122571461Y-67053035D01*
X122567210Y-67046420D01*
X121825849Y-66305059D01*
X121814313Y-66298759D01*
X121802028Y-66308384D01*
X121769192Y-66356520D01*
X121714281Y-66401523D01*
X121643756Y-66409694D01*
X121580009Y-66378440D01*
X121559311Y-66353955D01*
X121529062Y-66307197D01*
X121518377Y-66297995D01*
X121508812Y-66302398D01*
X120768022Y-67043188D01*
X120760408Y-67057132D01*
X120030356Y-67057132D01*
X120031592Y-67054868D01*
X120031461Y-67053035D01*
X120027210Y-67046420D01*
X119285849Y-66305059D01*
X119274313Y-66298759D01*
X119262031Y-66308382D01*
X119229499Y-66356072D01*
X119174587Y-66401075D01*
X119104063Y-66409246D01*
X119040316Y-66377992D01*
X119019618Y-66353508D01*
X118938822Y-66228617D01*
X118938820Y-66228614D01*
X118936014Y-66224277D01*
X118785670Y-66059051D01*
X118781619Y-66055852D01*
X118781615Y-66055848D01*
X118625338Y-65932427D01*
X119637223Y-65932427D01*
X119643968Y-65944758D01*
X120383188Y-66683978D01*
X120397132Y-66691592D01*
X120398965Y-66691461D01*
X120405580Y-66687210D01*
X121149389Y-65943401D01*
X121155382Y-65932427D01*
X122177223Y-65932427D01*
X122183968Y-65944758D01*
X122923188Y-66683978D01*
X122937132Y-66691592D01*
X122938965Y-66691461D01*
X122945580Y-66687210D01*
X123689389Y-65943401D01*
X123695382Y-65932427D01*
X124717223Y-65932427D01*
X124723968Y-65944758D01*
X125463188Y-66683978D01*
X125477132Y-66691592D01*
X125478965Y-66691461D01*
X125485580Y-66687210D01*
X126229389Y-65943401D01*
X126236410Y-65930544D01*
X126229611Y-65921213D01*
X126225554Y-65918518D01*
X126039117Y-65815599D01*
X126029705Y-65811369D01*
X125828959Y-65740280D01*
X125818989Y-65737646D01*
X125609327Y-65700301D01*
X125599073Y-65699331D01*
X125386116Y-65696728D01*
X125375832Y-65697448D01*
X125165321Y-65729661D01*
X125155293Y-65732050D01*
X124952868Y-65798212D01*
X124943359Y-65802209D01*
X124754466Y-65900540D01*
X124745734Y-65906039D01*
X124725677Y-65921099D01*
X124717223Y-65932427D01*
X123695382Y-65932427D01*
X123696410Y-65930544D01*
X123689611Y-65921213D01*
X123685554Y-65918518D01*
X123499117Y-65815599D01*
X123489705Y-65811369D01*
X123288959Y-65740280D01*
X123278989Y-65737646D01*
X123069327Y-65700301D01*
X123059073Y-65699331D01*
X122846116Y-65696728D01*
X122835832Y-65697448D01*
X122625321Y-65729661D01*
X122615293Y-65732050D01*
X122412868Y-65798212D01*
X122403359Y-65802209D01*
X122214466Y-65900540D01*
X122205734Y-65906039D01*
X122185677Y-65921099D01*
X122177223Y-65932427D01*
X121155382Y-65932427D01*
X121156410Y-65930544D01*
X121149611Y-65921213D01*
X121145554Y-65918518D01*
X120959117Y-65815599D01*
X120949705Y-65811369D01*
X120748959Y-65740280D01*
X120738989Y-65737646D01*
X120529327Y-65700301D01*
X120519073Y-65699331D01*
X120306116Y-65696728D01*
X120295832Y-65697448D01*
X120085321Y-65729661D01*
X120075293Y-65732050D01*
X119872868Y-65798212D01*
X119863359Y-65802209D01*
X119674466Y-65900540D01*
X119665734Y-65906039D01*
X119645677Y-65921099D01*
X119637223Y-65932427D01*
X118625338Y-65932427D01*
X118614414Y-65923800D01*
X118614410Y-65923798D01*
X118610359Y-65920598D01*
X118414789Y-65812638D01*
X118409920Y-65810914D01*
X118409916Y-65810912D01*
X118209087Y-65739795D01*
X118209083Y-65739794D01*
X118204212Y-65738069D01*
X118199119Y-65737162D01*
X118199116Y-65737161D01*
X117989373Y-65699800D01*
X117989367Y-65699799D01*
X117984284Y-65698894D01*
X117910452Y-65697992D01*
X117766081Y-65696228D01*
X117766079Y-65696228D01*
X117760911Y-65696165D01*
X117540091Y-65729955D01*
X117327756Y-65799357D01*
X117249455Y-65840118D01*
X117207678Y-65861866D01*
X117129607Y-65902507D01*
X117125474Y-65905610D01*
X117125471Y-65905612D01*
X116955100Y-66033530D01*
X116950965Y-66036635D01*
X116947393Y-66040373D01*
X116864580Y-66127032D01*
X116796629Y-66198138D01*
X116689201Y-66355621D01*
X116634293Y-66400621D01*
X116563768Y-66408792D01*
X116500021Y-66377538D01*
X116479324Y-66353054D01*
X116398822Y-66228617D01*
X116398820Y-66228614D01*
X116396014Y-66224277D01*
X116245670Y-66059051D01*
X116241619Y-66055852D01*
X116241615Y-66055848D01*
X116074414Y-65923800D01*
X116074410Y-65923798D01*
X116070359Y-65920598D01*
X115874789Y-65812638D01*
X115869920Y-65810914D01*
X115869916Y-65810912D01*
X115669087Y-65739795D01*
X115669083Y-65739794D01*
X115664212Y-65738069D01*
X115659119Y-65737162D01*
X115659116Y-65737161D01*
X115449373Y-65699800D01*
X115449367Y-65699799D01*
X115444284Y-65698894D01*
X115370452Y-65697992D01*
X115226081Y-65696228D01*
X115226079Y-65696228D01*
X115220911Y-65696165D01*
X115000091Y-65729955D01*
X114787756Y-65799357D01*
X114709455Y-65840118D01*
X114667678Y-65861866D01*
X114589607Y-65902507D01*
X114585474Y-65905610D01*
X114585471Y-65905612D01*
X114415100Y-66033530D01*
X114410965Y-66036635D01*
X114407393Y-66040373D01*
X114324580Y-66127032D01*
X114256629Y-66198138D01*
X114149201Y-66355621D01*
X114094293Y-66400621D01*
X114023768Y-66408792D01*
X113960021Y-66377538D01*
X113939324Y-66353054D01*
X113858822Y-66228617D01*
X113858820Y-66228614D01*
X113856014Y-66224277D01*
X113705670Y-66059051D01*
X113701619Y-66055852D01*
X113701615Y-66055848D01*
X113534414Y-65923800D01*
X113534410Y-65923798D01*
X113530359Y-65920598D01*
X113334789Y-65812638D01*
X113329920Y-65810914D01*
X113329916Y-65810912D01*
X113129087Y-65739795D01*
X113129083Y-65739794D01*
X113124212Y-65738069D01*
X113119119Y-65737162D01*
X113119116Y-65737161D01*
X112909373Y-65699800D01*
X112909367Y-65699799D01*
X112904284Y-65698894D01*
X112830452Y-65697992D01*
X112686081Y-65696228D01*
X112686079Y-65696228D01*
X112680911Y-65696165D01*
X112460091Y-65729955D01*
X112247756Y-65799357D01*
X112169455Y-65840118D01*
X112127678Y-65861866D01*
X112049607Y-65902507D01*
X112045474Y-65905610D01*
X112045471Y-65905612D01*
X111875100Y-66033530D01*
X111870965Y-66036635D01*
X111867393Y-66040373D01*
X111784580Y-66127032D01*
X111716629Y-66198138D01*
X111609201Y-66355621D01*
X111554293Y-66400621D01*
X111483768Y-66408792D01*
X111420021Y-66377538D01*
X111399324Y-66353054D01*
X111318822Y-66228617D01*
X111318820Y-66228614D01*
X111316014Y-66224277D01*
X111165670Y-66059051D01*
X111161619Y-66055852D01*
X111161615Y-66055848D01*
X110994414Y-65923800D01*
X110994410Y-65923798D01*
X110990359Y-65920598D01*
X110794789Y-65812638D01*
X110789920Y-65810914D01*
X110789916Y-65810912D01*
X110589087Y-65739795D01*
X110589083Y-65739794D01*
X110584212Y-65738069D01*
X110579119Y-65737162D01*
X110579116Y-65737161D01*
X110369373Y-65699800D01*
X110369367Y-65699799D01*
X110364284Y-65698894D01*
X110290452Y-65697992D01*
X110146081Y-65696228D01*
X110146079Y-65696228D01*
X110140911Y-65696165D01*
X109920091Y-65729955D01*
X109707756Y-65799357D01*
X109629455Y-65840118D01*
X109587678Y-65861866D01*
X109509607Y-65902507D01*
X109505474Y-65905610D01*
X109505471Y-65905612D01*
X109335100Y-66033530D01*
X109330965Y-66036635D01*
X109327393Y-66040373D01*
X109244580Y-66127032D01*
X109176629Y-66198138D01*
X109050743Y-66382680D01*
X109003715Y-66483993D01*
X108992833Y-66507438D01*
X108956688Y-66585305D01*
X108896989Y-66800570D01*
X108873251Y-67022695D01*
X108873548Y-67027848D01*
X108873548Y-67027851D01*
X108875910Y-67068812D01*
X108886110Y-67245715D01*
X108887247Y-67250761D01*
X108887248Y-67250767D01*
X108908275Y-67344069D01*
X108935222Y-67463639D01*
X109019266Y-67670616D01*
X109070942Y-67754944D01*
X109133291Y-67856688D01*
X109135987Y-67861088D01*
X109282250Y-68029938D01*
X109454126Y-68172632D01*
X109465063Y-68179023D01*
X109527445Y-68215476D01*
X109576169Y-68267114D01*
X109589240Y-68336897D01*
X109562509Y-68402669D01*
X109522055Y-68436027D01*
X109509607Y-68442507D01*
X109505474Y-68445610D01*
X109505471Y-68445612D01*
X109343134Y-68567498D01*
X109330965Y-68576635D01*
X109176629Y-68738138D01*
X109173720Y-68742403D01*
X109173714Y-68742411D01*
X109108511Y-68837995D01*
X109050743Y-68922680D01*
X109035003Y-68956590D01*
X108976244Y-69083176D01*
X108956688Y-69125305D01*
X108896989Y-69340570D01*
X108873251Y-69562695D01*
X102230929Y-69562695D01*
X101594855Y-68926621D01*
X101585753Y-68916478D01*
X101565897Y-68891782D01*
X101562032Y-68886975D01*
X101523578Y-68854708D01*
X101519931Y-68851528D01*
X101518119Y-68849885D01*
X101515925Y-68847691D01*
X101482651Y-68820358D01*
X101481853Y-68819696D01*
X101410526Y-68759846D01*
X101405856Y-68757278D01*
X101401739Y-68753897D01*
X101319914Y-68710023D01*
X101318755Y-68709394D01*
X101242619Y-68667538D01*
X101242611Y-68667535D01*
X101237213Y-68664567D01*
X101232131Y-68662955D01*
X101227437Y-68660438D01*
X101138469Y-68633238D01*
X101137441Y-68632918D01*
X101048694Y-68604765D01*
X101043398Y-68604171D01*
X101038302Y-68602613D01*
X100945743Y-68593210D01*
X100944607Y-68593089D01*
X100910992Y-68589319D01*
X100898270Y-68587892D01*
X100898266Y-68587892D01*
X100894773Y-68587500D01*
X100891246Y-68587500D01*
X100890261Y-68587445D01*
X100884581Y-68586998D01*
X100855175Y-68584011D01*
X100847663Y-68583248D01*
X100847661Y-68583248D01*
X100841538Y-68582626D01*
X100799259Y-68586623D01*
X100795891Y-68586941D01*
X100784033Y-68587500D01*
X98511721Y-68587500D01*
X98443600Y-68567498D01*
X98397107Y-68513842D01*
X98387003Y-68443568D01*
X98416497Y-68378988D01*
X98456588Y-68348670D01*
X98459946Y-68347550D01*
X98610348Y-68254478D01*
X98735305Y-68129303D01*
X98775607Y-68063921D01*
X98824275Y-67984968D01*
X98824276Y-67984966D01*
X98828115Y-67978738D01*
X98868597Y-67856688D01*
X98881632Y-67817389D01*
X98881632Y-67817387D01*
X98883797Y-67810861D01*
X98894500Y-67706400D01*
X98894500Y-66405600D01*
X98894077Y-66401523D01*
X98884238Y-66306692D01*
X98884237Y-66306688D01*
X98883526Y-66299834D01*
X98849598Y-66198138D01*
X98829868Y-66139002D01*
X98827550Y-66132054D01*
X98734478Y-65981652D01*
X98609303Y-65856695D01*
X98603072Y-65852854D01*
X98464968Y-65767725D01*
X98464966Y-65767724D01*
X98458738Y-65763885D01*
X98298254Y-65710655D01*
X98297389Y-65710368D01*
X98297387Y-65710368D01*
X98290861Y-65708203D01*
X98284025Y-65707503D01*
X98284022Y-65707502D01*
X98240969Y-65703091D01*
X98186400Y-65697500D01*
X96885600Y-65697500D01*
X96882354Y-65697837D01*
X96882350Y-65697837D01*
X96786692Y-65707762D01*
X96786688Y-65707763D01*
X96779834Y-65708474D01*
X96773298Y-65710655D01*
X96773296Y-65710655D01*
X96710631Y-65731562D01*
X96612054Y-65764450D01*
X96461652Y-65857522D01*
X96456479Y-65862704D01*
X96400762Y-65918518D01*
X96336695Y-65982697D01*
X96332855Y-65988927D01*
X96332854Y-65988928D01*
X96250934Y-66121827D01*
X96243885Y-66133262D01*
X96241581Y-66140209D01*
X96219236Y-66207577D01*
X96178806Y-66265937D01*
X96152330Y-66282366D01*
X96108811Y-66302399D01*
X95368022Y-67043188D01*
X95360408Y-67057132D01*
X95360539Y-67058965D01*
X95364790Y-67065580D01*
X96106474Y-67807264D01*
X96146998Y-67829393D01*
X96159589Y-67832132D01*
X96209791Y-67882335D01*
X96218726Y-67902842D01*
X96244450Y-67979946D01*
X96337522Y-68130348D01*
X96462697Y-68255305D01*
X96468927Y-68259145D01*
X96468928Y-68259146D01*
X96606095Y-68343697D01*
X96613262Y-68348115D01*
X96620209Y-68350419D01*
X96622276Y-68351383D01*
X96675561Y-68398299D01*
X96695023Y-68466576D01*
X96674482Y-68534536D01*
X96644681Y-68566337D01*
X96630965Y-68576635D01*
X96476629Y-68738138D01*
X96473720Y-68742403D01*
X96473714Y-68742411D01*
X96463268Y-68757725D01*
X96369204Y-68895618D01*
X96368898Y-68896066D01*
X96313987Y-68941069D01*
X96243462Y-68949240D01*
X96179715Y-68917986D01*
X96159017Y-68893501D01*
X96129062Y-68847197D01*
X96118377Y-68837995D01*
X96108812Y-68842398D01*
X95368022Y-69583188D01*
X95360408Y-69597132D01*
X95360539Y-69598965D01*
X95364790Y-69605580D01*
X96106474Y-70347264D01*
X96118484Y-70353823D01*
X96130223Y-70344855D01*
X96164022Y-70297819D01*
X96165277Y-70298721D01*
X96212391Y-70255355D01*
X96282330Y-70243148D01*
X96347767Y-70270691D01*
X96375580Y-70302513D01*
X96433287Y-70396683D01*
X96433291Y-70396688D01*
X96435987Y-70401088D01*
X96439367Y-70404990D01*
X96496737Y-70471219D01*
X96526220Y-70535804D01*
X96527500Y-70553717D01*
X96527500Y-76238076D01*
X96507498Y-76306197D01*
X96490595Y-76327171D01*
X91024621Y-81793145D01*
X91014478Y-81802247D01*
X90984975Y-81825968D01*
X90981008Y-81830696D01*
X90952709Y-81864421D01*
X90949528Y-81868069D01*
X90947885Y-81869881D01*
X90945691Y-81872075D01*
X90918358Y-81905349D01*
X90917696Y-81906147D01*
X90857846Y-81977474D01*
X90855278Y-81982144D01*
X90851897Y-81986261D01*
X90820860Y-82044145D01*
X90808023Y-82068086D01*
X90807394Y-82069245D01*
X90765538Y-82145381D01*
X90765535Y-82145389D01*
X90762567Y-82150787D01*
X90760955Y-82155869D01*
X90758438Y-82160563D01*
X90731238Y-82249531D01*
X90730918Y-82250559D01*
X90702765Y-82339306D01*
X90702171Y-82344602D01*
X90700613Y-82349698D01*
X90699990Y-82355834D01*
X90691218Y-82442187D01*
X90691089Y-82443393D01*
X90685500Y-82493227D01*
X90685500Y-82496754D01*
X90685445Y-82497739D01*
X90684998Y-82503419D01*
X90680626Y-82546462D01*
X90683724Y-82579233D01*
X90684941Y-82592109D01*
X90685500Y-82603967D01*
X90685500Y-93477507D01*
X90665498Y-93545628D01*
X90628586Y-93582878D01*
X90589968Y-93608197D01*
X90549249Y-93644540D01*
X90446567Y-93736188D01*
X90389426Y-93787188D01*
X90218197Y-93993069D01*
X90159260Y-94032653D01*
X90121323Y-94038500D01*
X88183076Y-94038500D01*
X88114955Y-94018498D01*
X88084126Y-93990506D01*
X88043727Y-93939260D01*
X87951105Y-93821769D01*
X87755317Y-93637591D01*
X87553632Y-93497676D01*
X87538299Y-93487039D01*
X87538296Y-93487037D01*
X87534457Y-93484374D01*
X87524596Y-93479511D01*
X87297564Y-93367551D01*
X87297561Y-93367550D01*
X87293376Y-93365486D01*
X87245745Y-93350239D01*
X87140503Y-93316551D01*
X87037370Y-93283538D01*
X87032763Y-93282788D01*
X87032760Y-93282787D01*
X86803102Y-93245385D01*
X86772063Y-93240330D01*
X86641719Y-93238624D01*
X86507961Y-93236873D01*
X86507958Y-93236873D01*
X86503284Y-93236812D01*
X86236937Y-93273060D01*
X85978874Y-93348278D01*
X85734763Y-93460815D01*
X85706247Y-93479511D01*
X85513881Y-93605631D01*
X85513877Y-93605634D01*
X85509968Y-93608197D01*
X85469249Y-93644540D01*
X85366567Y-93736188D01*
X85309426Y-93787188D01*
X85138197Y-93993069D01*
X85079260Y-94032653D01*
X85041323Y-94038500D01*
X83468500Y-94038500D01*
X83400379Y-94018498D01*
X83353886Y-93964842D01*
X83342500Y-93912500D01*
X83342500Y-93698866D01*
X83335745Y-93636684D01*
X83284615Y-93500295D01*
X83197261Y-93383739D01*
X83080705Y-93296385D01*
X82944316Y-93245255D01*
X82882134Y-93238500D01*
X80185866Y-93238500D01*
X80123684Y-93245255D01*
X79987295Y-93296385D01*
X79870739Y-93383739D01*
X79783385Y-93500295D01*
X79732255Y-93636684D01*
X79725500Y-93698866D01*
X79725500Y-96395134D01*
X75974924Y-96395134D01*
X74947812Y-95368022D01*
X74933868Y-95360408D01*
X74932035Y-95360539D01*
X74925420Y-95364790D01*
X73861497Y-96428713D01*
X73854839Y-96440906D01*
X70937065Y-96440906D01*
X70931935Y-96432145D01*
X69867812Y-95368022D01*
X69853868Y-95360408D01*
X69852035Y-95360539D01*
X69845420Y-95364790D01*
X68781497Y-96428713D01*
X68774839Y-96440906D01*
X66563244Y-96440906D01*
X66573478Y-96413606D01*
X66577105Y-96398351D01*
X66582631Y-96347486D01*
X66583000Y-96340672D01*
X66583000Y-95268115D01*
X66578525Y-95252876D01*
X66577135Y-95251671D01*
X66569452Y-95250000D01*
X65047115Y-95250000D01*
X65031876Y-95254475D01*
X65030671Y-95255865D01*
X65029000Y-95263548D01*
X65029000Y-96785884D01*
X64521000Y-96785884D01*
X64521000Y-95268115D01*
X64516525Y-95252876D01*
X64515135Y-95251671D01*
X64507452Y-95250000D01*
X62985116Y-95250000D01*
X62969877Y-95254475D01*
X62968672Y-95255865D01*
X62967001Y-95263548D01*
X62967001Y-96340669D01*
X60846515Y-96340669D01*
X60832901Y-96248473D01*
X60830813Y-96240096D01*
X60775267Y-96017316D01*
X60738043Y-95868019D01*
X60691592Y-95737568D01*
X60646738Y-95611605D01*
X60606512Y-95498637D01*
X60439564Y-95143854D01*
X60437997Y-95141225D01*
X60437992Y-95141216D01*
X60325918Y-94953211D01*
X68042775Y-94953211D01*
X68055220Y-95212288D01*
X68056356Y-95221543D01*
X68106961Y-95475945D01*
X68109449Y-95484917D01*
X68197095Y-95729033D01*
X68200895Y-95737568D01*
X68323658Y-95966042D01*
X68328666Y-95973904D01*
X68398720Y-96067716D01*
X68409979Y-96076165D01*
X68422397Y-96069393D01*
X69482978Y-95008812D01*
X69489356Y-94997132D01*
X70219408Y-94997132D01*
X70219539Y-94998965D01*
X70223790Y-95005580D01*
X71291094Y-96072884D01*
X71303474Y-96079644D01*
X71311815Y-96073400D01*
X71445832Y-95865048D01*
X71450275Y-95856864D01*
X71556807Y-95620370D01*
X71559997Y-95611605D01*
X71630402Y-95361972D01*
X71632262Y-95352830D01*
X71665187Y-95094019D01*
X71665668Y-95087733D01*
X71667987Y-94999160D01*
X71667836Y-94992851D01*
X71664890Y-94953211D01*
X73122775Y-94953211D01*
X73135220Y-95212288D01*
X73136356Y-95221543D01*
X73186961Y-95475945D01*
X73189449Y-95484917D01*
X73277095Y-95729033D01*
X73280895Y-95737568D01*
X73403658Y-95966042D01*
X73408666Y-95973904D01*
X73478720Y-96067716D01*
X73489979Y-96076165D01*
X73502397Y-96069393D01*
X74562978Y-95008812D01*
X74569356Y-94997132D01*
X75299408Y-94997132D01*
X75299539Y-94998965D01*
X75303790Y-95005580D01*
X76371094Y-96072884D01*
X76383474Y-96079644D01*
X76391815Y-96073400D01*
X76525832Y-95865048D01*
X76530275Y-95856864D01*
X76636807Y-95620370D01*
X76639997Y-95611605D01*
X76710402Y-95361972D01*
X76712262Y-95352830D01*
X76745187Y-95094019D01*
X76745668Y-95087733D01*
X76747987Y-94999160D01*
X76747836Y-94992851D01*
X76728501Y-94732663D01*
X76727125Y-94723457D01*
X76669878Y-94470467D01*
X76667154Y-94461556D01*
X76573143Y-94219806D01*
X76569132Y-94211397D01*
X76440422Y-93986202D01*
X76435211Y-93978476D01*
X76391996Y-93923658D01*
X76380071Y-93915187D01*
X76368537Y-93921673D01*
X75307022Y-94983188D01*
X75299408Y-94997132D01*
X74569356Y-94997132D01*
X74570592Y-94994868D01*
X74570461Y-94993035D01*
X74566210Y-94986420D01*
X73500816Y-93921026D01*
X73487507Y-93913758D01*
X73477472Y-93920878D01*
X73461937Y-93939556D01*
X73456531Y-93947135D01*
X73321965Y-94168891D01*
X73317736Y-94177192D01*
X73217432Y-94416389D01*
X73214471Y-94425239D01*
X73150628Y-94676625D01*
X73149006Y-94685822D01*
X73123020Y-94943885D01*
X73122775Y-94953211D01*
X71664890Y-94953211D01*
X71648501Y-94732663D01*
X71647125Y-94723457D01*
X71589878Y-94470467D01*
X71587154Y-94461556D01*
X71493143Y-94219806D01*
X71489132Y-94211397D01*
X71360422Y-93986202D01*
X71355211Y-93978476D01*
X71311996Y-93923658D01*
X71300071Y-93915187D01*
X71288537Y-93921673D01*
X70227022Y-94983188D01*
X70219408Y-94997132D01*
X69489356Y-94997132D01*
X69490592Y-94994868D01*
X69490461Y-94993035D01*
X69486210Y-94986420D01*
X68420816Y-93921026D01*
X68407507Y-93913758D01*
X68397472Y-93920878D01*
X68381937Y-93939556D01*
X68376531Y-93947135D01*
X68241965Y-94168891D01*
X68237736Y-94177192D01*
X68137432Y-94416389D01*
X68134471Y-94425239D01*
X68070628Y-94676625D01*
X68069006Y-94685822D01*
X68043020Y-94943885D01*
X68042775Y-94953211D01*
X60325918Y-94953211D01*
X60240361Y-94809689D01*
X60238791Y-94807055D01*
X60236977Y-94804595D01*
X60236972Y-94804587D01*
X60177473Y-94723885D01*
X62967000Y-94723885D01*
X62971475Y-94739124D01*
X62972865Y-94740329D01*
X62980548Y-94742000D01*
X64502885Y-94742000D01*
X64518124Y-94737525D01*
X64519329Y-94736135D01*
X64521000Y-94728452D01*
X64521000Y-94723885D01*
X65029000Y-94723885D01*
X65033475Y-94739124D01*
X65034865Y-94740329D01*
X65042548Y-94742000D01*
X66564884Y-94742000D01*
X66580123Y-94737525D01*
X66581328Y-94736135D01*
X66582999Y-94728452D01*
X66582999Y-93651331D01*
X66582629Y-93644510D01*
X66577105Y-93593648D01*
X66573479Y-93578396D01*
X66562342Y-93548689D01*
X68772102Y-93548689D01*
X68776675Y-93558465D01*
X69842188Y-94623978D01*
X69856132Y-94631592D01*
X69857965Y-94631461D01*
X69864580Y-94627210D01*
X70929349Y-93562441D01*
X70935733Y-93550751D01*
X70934130Y-93548689D01*
X73852102Y-93548689D01*
X73856675Y-93558465D01*
X74922188Y-94623978D01*
X74936132Y-94631592D01*
X74937965Y-94631461D01*
X74944580Y-94627210D01*
X76009349Y-93562441D01*
X76015733Y-93550751D01*
X76006321Y-93538641D01*
X75859045Y-93436471D01*
X75851010Y-93431738D01*
X75618376Y-93317016D01*
X75609743Y-93313528D01*
X75362703Y-93234450D01*
X75353643Y-93232274D01*
X75097630Y-93190580D01*
X75088343Y-93189768D01*
X74828992Y-93186373D01*
X74819681Y-93186943D01*
X74562682Y-93221919D01*
X74553546Y-93223860D01*
X74304543Y-93296439D01*
X74295800Y-93299707D01*
X74060252Y-93408296D01*
X74052097Y-93412816D01*
X73861240Y-93537947D01*
X73852102Y-93548689D01*
X70934130Y-93548689D01*
X70926321Y-93538641D01*
X70779045Y-93436471D01*
X70771010Y-93431738D01*
X70538376Y-93317016D01*
X70529743Y-93313528D01*
X70282703Y-93234450D01*
X70273643Y-93232274D01*
X70017630Y-93190580D01*
X70008343Y-93189768D01*
X69748992Y-93186373D01*
X69739681Y-93186943D01*
X69482682Y-93221919D01*
X69473546Y-93223860D01*
X69224543Y-93296439D01*
X69215800Y-93299707D01*
X68980252Y-93408296D01*
X68972097Y-93412816D01*
X68781240Y-93537947D01*
X68772102Y-93548689D01*
X66562342Y-93548689D01*
X66528324Y-93457946D01*
X66519786Y-93442351D01*
X66443285Y-93340276D01*
X66430724Y-93327715D01*
X66328649Y-93251214D01*
X66313054Y-93242676D01*
X66192606Y-93197522D01*
X66177351Y-93193895D01*
X66126486Y-93188369D01*
X66119672Y-93188000D01*
X65047115Y-93188000D01*
X65031876Y-93192475D01*
X65030671Y-93193865D01*
X65029000Y-93201548D01*
X65029000Y-94723885D01*
X64521000Y-94723885D01*
X64521000Y-93206116D01*
X64516525Y-93190877D01*
X64515135Y-93189672D01*
X64507452Y-93188001D01*
X63430331Y-93188001D01*
X63423510Y-93188371D01*
X63372648Y-93193895D01*
X63357396Y-93197521D01*
X63236946Y-93242676D01*
X63221351Y-93251214D01*
X63119276Y-93327715D01*
X63106715Y-93340276D01*
X63030214Y-93442351D01*
X63021676Y-93457946D01*
X62976522Y-93578394D01*
X62972895Y-93593649D01*
X62967369Y-93644514D01*
X62967000Y-93651328D01*
X62967000Y-94723885D01*
X60177473Y-94723885D01*
X60007933Y-94493926D01*
X60007931Y-94493923D01*
X60006111Y-94491455D01*
X59743744Y-94200068D01*
X59454195Y-93935673D01*
X59140228Y-93700795D01*
X59092015Y-93671596D01*
X58807467Y-93499267D01*
X58807458Y-93499262D01*
X58804839Y-93497676D01*
X58497113Y-93350239D01*
X58454001Y-93329583D01*
X58453999Y-93329582D01*
X58451229Y-93328255D01*
X58448339Y-93327203D01*
X58448334Y-93327201D01*
X58085674Y-93195204D01*
X58085671Y-93195203D01*
X58082775Y-93194149D01*
X57806563Y-93123229D01*
X57705977Y-93097403D01*
X57705974Y-93097402D01*
X57702993Y-93096637D01*
X57315508Y-93036651D01*
X56924018Y-93014764D01*
X56920939Y-93014893D01*
X56920936Y-93014893D01*
X56665188Y-93025612D01*
X56532261Y-93031183D01*
X56529217Y-93031611D01*
X56529215Y-93031611D01*
X56318778Y-93061186D01*
X56143976Y-93085753D01*
X55762869Y-93177953D01*
X55392579Y-93306902D01*
X55036638Y-93471369D01*
X54698446Y-93669785D01*
X54554405Y-93774437D01*
X54383711Y-93898453D01*
X54383705Y-93898458D01*
X54381230Y-93900256D01*
X54378944Y-93902285D01*
X54378941Y-93902288D01*
X54337299Y-93939260D01*
X54088017Y-94160583D01*
X54085938Y-94162828D01*
X54085931Y-94162835D01*
X53823694Y-94446026D01*
X53821608Y-94448279D01*
X53819754Y-94450722D01*
X53817765Y-94453092D01*
X53816971Y-94452425D01*
X53763237Y-94492088D01*
X53692389Y-94496676D01*
X53630307Y-94462233D01*
X53596702Y-94399693D01*
X53594000Y-94373739D01*
X53594000Y-78964469D01*
X59801095Y-78964469D01*
X59801392Y-78969622D01*
X59801392Y-78969625D01*
X59807067Y-79068041D01*
X59814427Y-79195697D01*
X59815564Y-79200743D01*
X59815565Y-79200749D01*
X59847741Y-79343523D01*
X59865346Y-79421642D01*
X59867288Y-79426424D01*
X59867289Y-79426428D01*
X59907362Y-79525115D01*
X59952484Y-79636237D01*
X60073501Y-79833719D01*
X60107768Y-79873278D01*
X60185304Y-79962788D01*
X60214786Y-80027373D01*
X60204671Y-80097646D01*
X60158170Y-80151294D01*
X60134296Y-80163267D01*
X60078515Y-80184179D01*
X60067295Y-80188385D01*
X59950739Y-80275739D01*
X59863385Y-80392295D01*
X59812255Y-80528684D01*
X59805500Y-80590866D01*
X59805500Y-82487134D01*
X59812255Y-82549316D01*
X59863385Y-82685705D01*
X59950739Y-82802261D01*
X60067295Y-82889615D01*
X60203684Y-82940745D01*
X60265866Y-82947500D01*
X62162134Y-82947500D01*
X62224316Y-82940745D01*
X62360705Y-82889615D01*
X62477261Y-82802261D01*
X62564615Y-82685705D01*
X62615745Y-82549316D01*
X62622500Y-82487134D01*
X62622500Y-80590866D01*
X62615745Y-80528684D01*
X62564615Y-80392295D01*
X62477261Y-80275739D01*
X62360705Y-80188385D01*
X62352296Y-80185233D01*
X62352295Y-80185232D01*
X62293804Y-80163305D01*
X62237039Y-80120664D01*
X62212339Y-80054103D01*
X62227546Y-79984754D01*
X62249093Y-79956073D01*
X62286636Y-79918660D01*
X62286640Y-79918655D01*
X62290303Y-79915005D01*
X62425458Y-79726917D01*
X62472641Y-79631450D01*
X62525784Y-79523922D01*
X62525785Y-79523920D01*
X62528078Y-79519280D01*
X62595408Y-79297671D01*
X62625640Y-79068041D01*
X62627327Y-78999000D01*
X62621032Y-78922434D01*
X62608773Y-78773318D01*
X62608772Y-78773312D01*
X62608349Y-78768167D01*
X62551925Y-78543533D01*
X62549866Y-78538797D01*
X62461630Y-78335868D01*
X62461628Y-78335865D01*
X62459570Y-78331131D01*
X62333764Y-78136665D01*
X62177887Y-77965358D01*
X62173836Y-77962159D01*
X62173832Y-77962155D01*
X62000177Y-77825011D01*
X62000172Y-77825008D01*
X61996123Y-77821810D01*
X61991607Y-77819317D01*
X61991604Y-77819315D01*
X61797879Y-77712373D01*
X61797875Y-77712371D01*
X61793355Y-77709876D01*
X61788486Y-77708152D01*
X61788482Y-77708150D01*
X61579903Y-77634288D01*
X61579899Y-77634287D01*
X61575028Y-77632562D01*
X61569935Y-77631655D01*
X61569932Y-77631654D01*
X61352095Y-77592851D01*
X61352089Y-77592850D01*
X61347006Y-77591945D01*
X61274096Y-77591054D01*
X61120581Y-77589179D01*
X61120579Y-77589179D01*
X61115411Y-77589116D01*
X60886464Y-77624150D01*
X60666314Y-77696106D01*
X60661726Y-77698494D01*
X60661722Y-77698496D01*
X60468377Y-77799145D01*
X60460872Y-77803052D01*
X60456739Y-77806155D01*
X60456736Y-77806157D01*
X60282940Y-77936647D01*
X60275655Y-77942117D01*
X60115639Y-78109564D01*
X60112725Y-78113836D01*
X60112724Y-78113837D01*
X60097152Y-78136665D01*
X59985119Y-78300899D01*
X59887602Y-78510981D01*
X59825707Y-78734169D01*
X59801095Y-78964469D01*
X53594000Y-78964469D01*
X53594000Y-68513162D01*
X53614002Y-68445041D01*
X53667658Y-68398548D01*
X53737932Y-68388444D01*
X53802512Y-68417938D01*
X53814801Y-68430164D01*
X53935028Y-68567498D01*
X53992621Y-68633285D01*
X54009049Y-68652051D01*
X54294878Y-68920463D01*
X54432837Y-69026705D01*
X54601642Y-69156702D01*
X54605536Y-69159701D01*
X54608139Y-69161328D01*
X54608144Y-69161331D01*
X54629331Y-69174570D01*
X54938056Y-69367483D01*
X55289266Y-69541825D01*
X55655812Y-69681062D01*
X56034195Y-69783867D01*
X56332419Y-69834308D01*
X56417783Y-69848746D01*
X56417786Y-69848746D01*
X56420805Y-69849257D01*
X56575444Y-69860071D01*
X56808885Y-69876395D01*
X56808893Y-69876395D01*
X56811951Y-69876609D01*
X57064037Y-69869568D01*
X57200825Y-69865747D01*
X57200828Y-69865747D01*
X57203899Y-69865661D01*
X57206952Y-69865275D01*
X57206956Y-69865275D01*
X57348576Y-69847384D01*
X57592908Y-69816517D01*
X57595912Y-69815835D01*
X57595915Y-69815834D01*
X57972269Y-69730329D01*
X57972275Y-69730327D01*
X57975265Y-69729648D01*
X57978184Y-69728677D01*
X58344396Y-69606855D01*
X58344402Y-69606853D01*
X58347320Y-69605882D01*
X58356468Y-69601809D01*
X58444320Y-69562695D01*
X78393251Y-69562695D01*
X78393548Y-69567848D01*
X78393548Y-69567851D01*
X78403340Y-69737679D01*
X78406110Y-69785715D01*
X78407247Y-69790761D01*
X78407248Y-69790767D01*
X78420315Y-69848746D01*
X78455222Y-70003639D01*
X78539266Y-70210616D01*
X78590019Y-70293438D01*
X78653291Y-70396688D01*
X78655987Y-70401088D01*
X78802250Y-70569938D01*
X78974126Y-70712632D01*
X79167000Y-70825338D01*
X79375692Y-70905030D01*
X79380760Y-70906061D01*
X79380763Y-70906062D01*
X79485604Y-70927392D01*
X79594597Y-70949567D01*
X79599772Y-70949757D01*
X79599774Y-70949757D01*
X79812673Y-70957564D01*
X79812677Y-70957564D01*
X79817837Y-70957753D01*
X79822957Y-70957097D01*
X79822959Y-70957097D01*
X80034288Y-70930025D01*
X80034289Y-70930025D01*
X80039416Y-70929368D01*
X80044366Y-70927883D01*
X80248429Y-70866661D01*
X80248434Y-70866659D01*
X80253384Y-70865174D01*
X80453994Y-70766896D01*
X80635860Y-70637173D01*
X80648576Y-70624502D01*
X80737584Y-70535804D01*
X80794096Y-70479489D01*
X80853594Y-70396689D01*
X80924453Y-70298077D01*
X80925776Y-70299028D01*
X80972645Y-70255857D01*
X81042580Y-70243625D01*
X81108026Y-70271144D01*
X81135875Y-70302994D01*
X81195987Y-70401088D01*
X81342250Y-70569938D01*
X81514126Y-70712632D01*
X81707000Y-70825338D01*
X81915692Y-70905030D01*
X81920760Y-70906061D01*
X81920763Y-70906062D01*
X82025604Y-70927392D01*
X82134597Y-70949567D01*
X82139772Y-70949757D01*
X82139774Y-70949757D01*
X82352673Y-70957564D01*
X82352677Y-70957564D01*
X82357837Y-70957753D01*
X82362957Y-70957097D01*
X82362959Y-70957097D01*
X82574288Y-70930025D01*
X82574289Y-70930025D01*
X82579416Y-70929368D01*
X82584366Y-70927883D01*
X82788429Y-70866661D01*
X82788434Y-70866659D01*
X82793384Y-70865174D01*
X82993994Y-70766896D01*
X83175860Y-70637173D01*
X83188576Y-70624502D01*
X83277584Y-70535804D01*
X83334096Y-70479489D01*
X83393594Y-70396689D01*
X83464453Y-70298077D01*
X83465776Y-70299028D01*
X83512645Y-70255857D01*
X83582580Y-70243625D01*
X83648026Y-70271144D01*
X83675875Y-70302994D01*
X83735987Y-70401088D01*
X83882250Y-70569938D01*
X84054126Y-70712632D01*
X84247000Y-70825338D01*
X84455692Y-70905030D01*
X84460760Y-70906061D01*
X84460763Y-70906062D01*
X84565604Y-70927392D01*
X84674597Y-70949567D01*
X84679772Y-70949757D01*
X84679774Y-70949757D01*
X84892673Y-70957564D01*
X84892677Y-70957564D01*
X84897837Y-70957753D01*
X84902957Y-70957097D01*
X84902959Y-70957097D01*
X85114288Y-70930025D01*
X85114289Y-70930025D01*
X85119416Y-70929368D01*
X85124366Y-70927883D01*
X85328429Y-70866661D01*
X85328434Y-70866659D01*
X85333384Y-70865174D01*
X85533994Y-70766896D01*
X85715860Y-70637173D01*
X85728576Y-70624502D01*
X85817584Y-70535804D01*
X85874096Y-70479489D01*
X85933594Y-70396689D01*
X86004453Y-70298077D01*
X86005776Y-70299028D01*
X86052645Y-70255857D01*
X86122580Y-70243625D01*
X86188026Y-70271144D01*
X86215875Y-70302994D01*
X86275987Y-70401088D01*
X86422250Y-70569938D01*
X86594126Y-70712632D01*
X86787000Y-70825338D01*
X86995692Y-70905030D01*
X87000760Y-70906061D01*
X87000763Y-70906062D01*
X87105604Y-70927392D01*
X87214597Y-70949567D01*
X87219772Y-70949757D01*
X87219774Y-70949757D01*
X87432673Y-70957564D01*
X87432677Y-70957564D01*
X87437837Y-70957753D01*
X87442957Y-70957097D01*
X87442959Y-70957097D01*
X87654288Y-70930025D01*
X87654289Y-70930025D01*
X87659416Y-70929368D01*
X87664366Y-70927883D01*
X87868429Y-70866661D01*
X87868434Y-70866659D01*
X87873384Y-70865174D01*
X88073994Y-70766896D01*
X88138544Y-70720853D01*
X89155977Y-70720853D01*
X89161258Y-70727907D01*
X89322756Y-70822279D01*
X89332042Y-70826729D01*
X89531001Y-70902703D01*
X89540899Y-70905579D01*
X89749595Y-70948038D01*
X89759823Y-70949257D01*
X89972650Y-70957062D01*
X89982936Y-70956595D01*
X90194185Y-70929534D01*
X90204262Y-70927392D01*
X90408255Y-70866191D01*
X90417842Y-70862433D01*
X90609098Y-70768738D01*
X90617944Y-70763465D01*
X90665247Y-70729723D01*
X90672211Y-70720853D01*
X91695977Y-70720853D01*
X91701258Y-70727907D01*
X91862756Y-70822279D01*
X91872042Y-70826729D01*
X92071001Y-70902703D01*
X92080899Y-70905579D01*
X92289595Y-70948038D01*
X92299823Y-70949257D01*
X92512650Y-70957062D01*
X92522936Y-70956595D01*
X92734185Y-70929534D01*
X92744262Y-70927392D01*
X92948255Y-70866191D01*
X92957842Y-70862433D01*
X93149098Y-70768738D01*
X93157944Y-70763465D01*
X93205247Y-70729723D01*
X93212211Y-70720853D01*
X94235977Y-70720853D01*
X94241258Y-70727907D01*
X94402756Y-70822279D01*
X94412042Y-70826729D01*
X94611001Y-70902703D01*
X94620899Y-70905579D01*
X94829595Y-70948038D01*
X94839823Y-70949257D01*
X95052650Y-70957062D01*
X95062936Y-70956595D01*
X95274185Y-70929534D01*
X95284262Y-70927392D01*
X95488255Y-70866191D01*
X95497842Y-70862433D01*
X95689098Y-70768738D01*
X95697944Y-70763465D01*
X95745247Y-70729723D01*
X95753648Y-70719023D01*
X95746660Y-70705870D01*
X95008812Y-69968022D01*
X94994868Y-69960408D01*
X94993035Y-69960539D01*
X94986420Y-69964790D01*
X94242737Y-70708473D01*
X94235977Y-70720853D01*
X93212211Y-70720853D01*
X93213648Y-70719023D01*
X93206660Y-70705870D01*
X92468812Y-69968022D01*
X92454868Y-69960408D01*
X92453035Y-69960539D01*
X92446420Y-69964790D01*
X91702737Y-70708473D01*
X91695977Y-70720853D01*
X90672211Y-70720853D01*
X90673648Y-70719023D01*
X90666660Y-70705870D01*
X89928812Y-69968022D01*
X89914868Y-69960408D01*
X89913035Y-69960539D01*
X89906420Y-69964790D01*
X89162737Y-70708473D01*
X89155977Y-70720853D01*
X88138544Y-70720853D01*
X88255860Y-70637173D01*
X88268576Y-70624502D01*
X88357584Y-70535804D01*
X88414096Y-70479489D01*
X88473594Y-70396689D01*
X88544453Y-70298077D01*
X88545640Y-70298930D01*
X88592960Y-70255362D01*
X88662897Y-70243145D01*
X88728338Y-70270678D01*
X88756166Y-70302512D01*
X88782459Y-70345419D01*
X88792916Y-70354880D01*
X88801694Y-70351096D01*
X89543978Y-69608812D01*
X89550356Y-69597132D01*
X90280408Y-69597132D01*
X90280539Y-69598965D01*
X90284790Y-69605580D01*
X91026474Y-70347264D01*
X91038484Y-70353823D01*
X91050223Y-70344855D01*
X91084022Y-70297819D01*
X91085149Y-70298629D01*
X91132659Y-70254881D01*
X91202596Y-70242661D01*
X91268038Y-70270191D01*
X91295870Y-70302029D01*
X91322459Y-70345419D01*
X91332916Y-70354880D01*
X91341694Y-70351096D01*
X92083978Y-69608812D01*
X92090356Y-69597132D01*
X92820408Y-69597132D01*
X92820539Y-69598965D01*
X92824790Y-69605580D01*
X93566474Y-70347264D01*
X93578484Y-70353823D01*
X93590223Y-70344855D01*
X93624022Y-70297819D01*
X93625149Y-70298629D01*
X93672659Y-70254881D01*
X93742596Y-70242661D01*
X93808038Y-70270191D01*
X93835870Y-70302029D01*
X93862459Y-70345419D01*
X93872916Y-70354880D01*
X93881694Y-70351096D01*
X94623978Y-69608812D01*
X94631592Y-69594868D01*
X94631461Y-69593035D01*
X94627210Y-69586420D01*
X93885849Y-68845059D01*
X93874313Y-68838759D01*
X93862028Y-68848384D01*
X93829192Y-68896520D01*
X93774281Y-68941523D01*
X93703756Y-68949694D01*
X93640009Y-68918440D01*
X93619311Y-68893955D01*
X93589062Y-68847197D01*
X93578377Y-68837995D01*
X93568812Y-68842398D01*
X92828022Y-69583188D01*
X92820408Y-69597132D01*
X92090356Y-69597132D01*
X92091592Y-69594868D01*
X92091461Y-69593035D01*
X92087210Y-69586420D01*
X91345849Y-68845059D01*
X91334313Y-68838759D01*
X91322028Y-68848384D01*
X91289192Y-68896520D01*
X91234281Y-68941523D01*
X91163756Y-68949694D01*
X91100009Y-68918440D01*
X91079311Y-68893955D01*
X91049062Y-68847197D01*
X91038377Y-68837995D01*
X91028812Y-68842398D01*
X90288022Y-69583188D01*
X90280408Y-69597132D01*
X89550356Y-69597132D01*
X89551592Y-69594868D01*
X89551461Y-69593035D01*
X89547210Y-69586420D01*
X88805849Y-68845059D01*
X88794313Y-68838759D01*
X88782031Y-68848382D01*
X88749499Y-68896072D01*
X88694587Y-68941075D01*
X88624063Y-68949246D01*
X88560316Y-68917992D01*
X88539618Y-68893508D01*
X88458822Y-68768617D01*
X88458820Y-68768614D01*
X88456014Y-68764277D01*
X88305670Y-68599051D01*
X88301616Y-68595849D01*
X88301615Y-68595848D01*
X88134414Y-68463800D01*
X88134410Y-68463798D01*
X88130359Y-68460598D01*
X88089053Y-68437796D01*
X88039084Y-68387364D01*
X88024312Y-68317921D01*
X88049428Y-68251516D01*
X88076780Y-68224909D01*
X88138544Y-68180853D01*
X89155977Y-68180853D01*
X89161258Y-68187907D01*
X89208479Y-68215501D01*
X89257203Y-68267139D01*
X89270274Y-68336922D01*
X89243543Y-68402694D01*
X89203087Y-68436053D01*
X89194466Y-68440541D01*
X89185734Y-68446039D01*
X89165677Y-68461099D01*
X89157223Y-68472427D01*
X89163968Y-68484758D01*
X89903188Y-69223978D01*
X89917132Y-69231592D01*
X89918965Y-69231461D01*
X89925580Y-69227210D01*
X90669389Y-68483401D01*
X90676410Y-68470544D01*
X90669611Y-68461213D01*
X90665559Y-68458521D01*
X90628116Y-68437852D01*
X90578145Y-68387420D01*
X90563373Y-68317977D01*
X90588489Y-68251572D01*
X90615840Y-68224965D01*
X90665247Y-68189723D01*
X90672211Y-68180853D01*
X91695977Y-68180853D01*
X91701258Y-68187907D01*
X91748479Y-68215501D01*
X91797203Y-68267139D01*
X91810274Y-68336922D01*
X91783543Y-68402694D01*
X91743087Y-68436053D01*
X91734466Y-68440541D01*
X91725734Y-68446039D01*
X91705677Y-68461099D01*
X91697223Y-68472427D01*
X91703968Y-68484758D01*
X92443188Y-69223978D01*
X92457132Y-69231592D01*
X92458965Y-69231461D01*
X92465580Y-69227210D01*
X93209389Y-68483401D01*
X93216410Y-68470544D01*
X93209611Y-68461213D01*
X93205559Y-68458521D01*
X93168116Y-68437852D01*
X93118145Y-68387420D01*
X93103373Y-68317977D01*
X93128489Y-68251572D01*
X93155840Y-68224965D01*
X93205247Y-68189723D01*
X93212211Y-68180853D01*
X94235977Y-68180853D01*
X94241258Y-68187907D01*
X94288479Y-68215501D01*
X94337203Y-68267139D01*
X94350274Y-68336922D01*
X94323543Y-68402694D01*
X94283087Y-68436053D01*
X94274466Y-68440541D01*
X94265734Y-68446039D01*
X94245677Y-68461099D01*
X94237223Y-68472427D01*
X94243968Y-68484758D01*
X94983188Y-69223978D01*
X94997132Y-69231592D01*
X94998965Y-69231461D01*
X95005580Y-69227210D01*
X95749389Y-68483401D01*
X95756410Y-68470544D01*
X95749611Y-68461213D01*
X95745559Y-68458521D01*
X95708116Y-68437852D01*
X95658145Y-68387420D01*
X95643373Y-68317977D01*
X95668489Y-68251572D01*
X95695840Y-68224965D01*
X95745247Y-68189723D01*
X95753648Y-68179023D01*
X95746660Y-68165870D01*
X95008812Y-67428022D01*
X94994868Y-67420408D01*
X94993035Y-67420539D01*
X94986420Y-67424790D01*
X94242737Y-68168473D01*
X94235977Y-68180853D01*
X93212211Y-68180853D01*
X93213648Y-68179023D01*
X93206660Y-68165870D01*
X92468812Y-67428022D01*
X92454868Y-67420408D01*
X92453035Y-67420539D01*
X92446420Y-67424790D01*
X91702737Y-68168473D01*
X91695977Y-68180853D01*
X90672211Y-68180853D01*
X90673648Y-68179023D01*
X90666660Y-68165870D01*
X89928812Y-67428022D01*
X89914868Y-67420408D01*
X89913035Y-67420539D01*
X89906420Y-67424790D01*
X89162737Y-68168473D01*
X89155977Y-68180853D01*
X88138544Y-68180853D01*
X88143147Y-68177570D01*
X88255860Y-68097173D01*
X88289229Y-68063921D01*
X88337209Y-68016107D01*
X88414096Y-67939489D01*
X88440430Y-67902842D01*
X88544453Y-67758077D01*
X88545640Y-67758930D01*
X88592960Y-67715362D01*
X88662897Y-67703145D01*
X88728338Y-67730678D01*
X88756166Y-67762512D01*
X88782459Y-67805419D01*
X88792916Y-67814880D01*
X88801694Y-67811096D01*
X89543978Y-67068812D01*
X89550356Y-67057132D01*
X90280408Y-67057132D01*
X90280539Y-67058965D01*
X90284790Y-67065580D01*
X91026474Y-67807264D01*
X91038484Y-67813823D01*
X91050223Y-67804855D01*
X91084022Y-67757819D01*
X91085149Y-67758629D01*
X91132659Y-67714881D01*
X91202596Y-67702661D01*
X91268038Y-67730191D01*
X91295870Y-67762029D01*
X91322459Y-67805419D01*
X91332916Y-67814880D01*
X91341694Y-67811096D01*
X92083978Y-67068812D01*
X92090356Y-67057132D01*
X92820408Y-67057132D01*
X92820539Y-67058965D01*
X92824790Y-67065580D01*
X93566474Y-67807264D01*
X93578484Y-67813823D01*
X93590223Y-67804855D01*
X93624022Y-67757819D01*
X93625149Y-67758629D01*
X93672659Y-67714881D01*
X93742596Y-67702661D01*
X93808038Y-67730191D01*
X93835870Y-67762029D01*
X93862459Y-67805419D01*
X93872916Y-67814880D01*
X93881694Y-67811096D01*
X94623978Y-67068812D01*
X94631592Y-67054868D01*
X94631461Y-67053035D01*
X94627210Y-67046420D01*
X93885849Y-66305059D01*
X93874313Y-66298759D01*
X93862028Y-66308384D01*
X93829192Y-66356520D01*
X93774281Y-66401523D01*
X93703756Y-66409694D01*
X93640009Y-66378440D01*
X93619311Y-66353955D01*
X93589062Y-66307197D01*
X93578377Y-66297995D01*
X93568812Y-66302398D01*
X92828022Y-67043188D01*
X92820408Y-67057132D01*
X92090356Y-67057132D01*
X92091592Y-67054868D01*
X92091461Y-67053035D01*
X92087210Y-67046420D01*
X91345849Y-66305059D01*
X91334313Y-66298759D01*
X91322028Y-66308384D01*
X91289192Y-66356520D01*
X91234281Y-66401523D01*
X91163756Y-66409694D01*
X91100009Y-66378440D01*
X91079311Y-66353955D01*
X91049062Y-66307197D01*
X91038377Y-66297995D01*
X91028812Y-66302398D01*
X90288022Y-67043188D01*
X90280408Y-67057132D01*
X89550356Y-67057132D01*
X89551592Y-67054868D01*
X89551461Y-67053035D01*
X89547210Y-67046420D01*
X88805849Y-66305059D01*
X88794313Y-66298759D01*
X88782031Y-66308382D01*
X88749499Y-66356072D01*
X88694587Y-66401075D01*
X88624063Y-66409246D01*
X88560316Y-66377992D01*
X88539618Y-66353508D01*
X88458822Y-66228617D01*
X88458820Y-66228614D01*
X88456014Y-66224277D01*
X88305670Y-66059051D01*
X88301619Y-66055852D01*
X88301615Y-66055848D01*
X88145338Y-65932427D01*
X89157223Y-65932427D01*
X89163968Y-65944758D01*
X89903188Y-66683978D01*
X89917132Y-66691592D01*
X89918965Y-66691461D01*
X89925580Y-66687210D01*
X90669389Y-65943401D01*
X90675382Y-65932427D01*
X91697223Y-65932427D01*
X91703968Y-65944758D01*
X92443188Y-66683978D01*
X92457132Y-66691592D01*
X92458965Y-66691461D01*
X92465580Y-66687210D01*
X93209389Y-65943401D01*
X93215382Y-65932427D01*
X94237223Y-65932427D01*
X94243968Y-65944758D01*
X94983188Y-66683978D01*
X94997132Y-66691592D01*
X94998965Y-66691461D01*
X95005580Y-66687210D01*
X95749389Y-65943401D01*
X95756410Y-65930544D01*
X95749611Y-65921213D01*
X95745554Y-65918518D01*
X95559117Y-65815599D01*
X95549705Y-65811369D01*
X95348959Y-65740280D01*
X95338989Y-65737646D01*
X95129327Y-65700301D01*
X95119073Y-65699331D01*
X94906116Y-65696728D01*
X94895832Y-65697448D01*
X94685321Y-65729661D01*
X94675293Y-65732050D01*
X94472868Y-65798212D01*
X94463359Y-65802209D01*
X94274466Y-65900540D01*
X94265734Y-65906039D01*
X94245677Y-65921099D01*
X94237223Y-65932427D01*
X93215382Y-65932427D01*
X93216410Y-65930544D01*
X93209611Y-65921213D01*
X93205554Y-65918518D01*
X93019117Y-65815599D01*
X93009705Y-65811369D01*
X92808959Y-65740280D01*
X92798989Y-65737646D01*
X92589327Y-65700301D01*
X92579073Y-65699331D01*
X92366116Y-65696728D01*
X92355832Y-65697448D01*
X92145321Y-65729661D01*
X92135293Y-65732050D01*
X91932868Y-65798212D01*
X91923359Y-65802209D01*
X91734466Y-65900540D01*
X91725734Y-65906039D01*
X91705677Y-65921099D01*
X91697223Y-65932427D01*
X90675382Y-65932427D01*
X90676410Y-65930544D01*
X90669611Y-65921213D01*
X90665554Y-65918518D01*
X90479117Y-65815599D01*
X90469705Y-65811369D01*
X90268959Y-65740280D01*
X90258989Y-65737646D01*
X90049327Y-65700301D01*
X90039073Y-65699331D01*
X89826116Y-65696728D01*
X89815832Y-65697448D01*
X89605321Y-65729661D01*
X89595293Y-65732050D01*
X89392868Y-65798212D01*
X89383359Y-65802209D01*
X89194466Y-65900540D01*
X89185734Y-65906039D01*
X89165677Y-65921099D01*
X89157223Y-65932427D01*
X88145338Y-65932427D01*
X88134414Y-65923800D01*
X88134410Y-65923798D01*
X88130359Y-65920598D01*
X87934789Y-65812638D01*
X87929920Y-65810914D01*
X87929916Y-65810912D01*
X87729087Y-65739795D01*
X87729083Y-65739794D01*
X87724212Y-65738069D01*
X87719119Y-65737162D01*
X87719116Y-65737161D01*
X87509373Y-65699800D01*
X87509367Y-65699799D01*
X87504284Y-65698894D01*
X87430452Y-65697992D01*
X87286081Y-65696228D01*
X87286079Y-65696228D01*
X87280911Y-65696165D01*
X87060091Y-65729955D01*
X86847756Y-65799357D01*
X86769455Y-65840118D01*
X86727678Y-65861866D01*
X86649607Y-65902507D01*
X86645474Y-65905610D01*
X86645471Y-65905612D01*
X86475100Y-66033530D01*
X86470965Y-66036635D01*
X86467393Y-66040373D01*
X86384580Y-66127032D01*
X86316629Y-66198138D01*
X86209201Y-66355621D01*
X86154293Y-66400621D01*
X86083768Y-66408792D01*
X86020021Y-66377538D01*
X85999324Y-66353054D01*
X85918822Y-66228617D01*
X85918820Y-66228614D01*
X85916014Y-66224277D01*
X85765670Y-66059051D01*
X85761619Y-66055852D01*
X85761615Y-66055848D01*
X85594414Y-65923800D01*
X85594410Y-65923798D01*
X85590359Y-65920598D01*
X85394789Y-65812638D01*
X85389920Y-65810914D01*
X85389916Y-65810912D01*
X85189087Y-65739795D01*
X85189083Y-65739794D01*
X85184212Y-65738069D01*
X85179119Y-65737162D01*
X85179116Y-65737161D01*
X84969373Y-65699800D01*
X84969367Y-65699799D01*
X84964284Y-65698894D01*
X84890452Y-65697992D01*
X84746081Y-65696228D01*
X84746079Y-65696228D01*
X84740911Y-65696165D01*
X84520091Y-65729955D01*
X84307756Y-65799357D01*
X84229455Y-65840118D01*
X84187678Y-65861866D01*
X84109607Y-65902507D01*
X84105474Y-65905610D01*
X84105471Y-65905612D01*
X83935100Y-66033530D01*
X83930965Y-66036635D01*
X83927393Y-66040373D01*
X83844580Y-66127032D01*
X83776629Y-66198138D01*
X83669201Y-66355621D01*
X83614293Y-66400621D01*
X83543768Y-66408792D01*
X83480021Y-66377538D01*
X83459324Y-66353054D01*
X83378822Y-66228617D01*
X83378820Y-66228614D01*
X83376014Y-66224277D01*
X83225670Y-66059051D01*
X83221619Y-66055852D01*
X83221615Y-66055848D01*
X83054414Y-65923800D01*
X83054410Y-65923798D01*
X83050359Y-65920598D01*
X82854789Y-65812638D01*
X82849920Y-65810914D01*
X82849916Y-65810912D01*
X82649087Y-65739795D01*
X82649083Y-65739794D01*
X82644212Y-65738069D01*
X82639119Y-65737162D01*
X82639116Y-65737161D01*
X82429373Y-65699800D01*
X82429367Y-65699799D01*
X82424284Y-65698894D01*
X82350452Y-65697992D01*
X82206081Y-65696228D01*
X82206079Y-65696228D01*
X82200911Y-65696165D01*
X81980091Y-65729955D01*
X81767756Y-65799357D01*
X81689455Y-65840118D01*
X81647678Y-65861866D01*
X81569607Y-65902507D01*
X81565474Y-65905610D01*
X81565471Y-65905612D01*
X81395100Y-66033530D01*
X81390965Y-66036635D01*
X81387393Y-66040373D01*
X81304580Y-66127032D01*
X81236629Y-66198138D01*
X81129201Y-66355621D01*
X81074293Y-66400621D01*
X81003768Y-66408792D01*
X80940021Y-66377538D01*
X80919324Y-66353054D01*
X80838822Y-66228617D01*
X80838820Y-66228614D01*
X80836014Y-66224277D01*
X80685670Y-66059051D01*
X80681619Y-66055852D01*
X80681615Y-66055848D01*
X80514414Y-65923800D01*
X80514410Y-65923798D01*
X80510359Y-65920598D01*
X80314789Y-65812638D01*
X80309920Y-65810914D01*
X80309916Y-65810912D01*
X80109087Y-65739795D01*
X80109083Y-65739794D01*
X80104212Y-65738069D01*
X80099119Y-65737162D01*
X80099116Y-65737161D01*
X79889373Y-65699800D01*
X79889367Y-65699799D01*
X79884284Y-65698894D01*
X79810452Y-65697992D01*
X79666081Y-65696228D01*
X79666079Y-65696228D01*
X79660911Y-65696165D01*
X79440091Y-65729955D01*
X79227756Y-65799357D01*
X79149455Y-65840118D01*
X79107678Y-65861866D01*
X79029607Y-65902507D01*
X79025474Y-65905610D01*
X79025471Y-65905612D01*
X78855100Y-66033530D01*
X78850965Y-66036635D01*
X78847393Y-66040373D01*
X78764580Y-66127032D01*
X78696629Y-66198138D01*
X78570743Y-66382680D01*
X78523715Y-66483993D01*
X78512833Y-66507438D01*
X78476688Y-66585305D01*
X78416989Y-66800570D01*
X78393251Y-67022695D01*
X78393548Y-67027848D01*
X78393548Y-67027851D01*
X78395910Y-67068812D01*
X78406110Y-67245715D01*
X78407247Y-67250761D01*
X78407248Y-67250767D01*
X78428275Y-67344069D01*
X78455222Y-67463639D01*
X78539266Y-67670616D01*
X78590942Y-67754944D01*
X78653291Y-67856688D01*
X78655987Y-67861088D01*
X78802250Y-68029938D01*
X78974126Y-68172632D01*
X78985063Y-68179023D01*
X79047445Y-68215476D01*
X79096169Y-68267114D01*
X79109240Y-68336897D01*
X79082509Y-68402669D01*
X79042055Y-68436027D01*
X79029607Y-68442507D01*
X79025474Y-68445610D01*
X79025471Y-68445612D01*
X78863134Y-68567498D01*
X78850965Y-68576635D01*
X78696629Y-68738138D01*
X78693720Y-68742403D01*
X78693714Y-68742411D01*
X78628511Y-68837995D01*
X78570743Y-68922680D01*
X78555003Y-68956590D01*
X78496244Y-69083176D01*
X78476688Y-69125305D01*
X78416989Y-69340570D01*
X78393251Y-69562695D01*
X58444320Y-69562695D01*
X58702722Y-69447647D01*
X58702728Y-69447644D01*
X58705522Y-69446400D01*
X58840905Y-69369492D01*
X59043784Y-69254241D01*
X59043790Y-69254238D01*
X59046452Y-69252725D01*
X59227081Y-69125305D01*
X59364342Y-69028478D01*
X59364346Y-69028475D01*
X59366855Y-69026705D01*
X59466585Y-68940621D01*
X59661347Y-68772508D01*
X59661351Y-68772504D01*
X59663674Y-68770499D01*
X59672747Y-68760972D01*
X59931957Y-68488773D01*
X59934074Y-68486550D01*
X59936535Y-68483401D01*
X60173565Y-68180015D01*
X60173567Y-68180012D01*
X60175475Y-68177570D01*
X60385574Y-67846509D01*
X60392837Y-67832132D01*
X60498394Y-67623163D01*
X60562363Y-67496525D01*
X60563473Y-67493664D01*
X60703041Y-67133836D01*
X60703044Y-67133827D01*
X60704156Y-67130960D01*
X60809600Y-66753303D01*
X60862587Y-66452801D01*
X60877156Y-66370177D01*
X60877156Y-66370174D01*
X60877688Y-66367159D01*
X60895151Y-66140209D01*
X60907619Y-65978168D01*
X60907619Y-65978157D01*
X60907769Y-65976214D01*
X60909334Y-65864155D01*
X60908782Y-65852854D01*
X60890330Y-65475595D01*
X60890180Y-65472522D01*
X60832901Y-65084628D01*
X60738043Y-64704174D01*
X60606512Y-64334792D01*
X60439564Y-63980009D01*
X60437997Y-63977380D01*
X60437992Y-63977371D01*
X60240361Y-63645844D01*
X60238791Y-63643210D01*
X60236977Y-63640750D01*
X60236972Y-63640742D01*
X60007933Y-63330081D01*
X60007931Y-63330078D01*
X60006111Y-63327610D01*
X59743744Y-63036223D01*
X59454195Y-62771828D01*
X59372739Y-62710891D01*
X59330175Y-62654070D01*
X59325088Y-62583256D01*
X59359093Y-62520933D01*
X59421395Y-62486888D01*
X59448217Y-62484000D01*
X146701801Y-62484000D01*
X146769922Y-62504002D01*
G37*
%TD.AperFunction*%
%TD*%
M02*
