%TF.GenerationSoftware,KiCad,Pcbnew,(6.0.0-0)*%
%TF.CreationDate,2022-12-13T21:11:07-05:00*%
%TF.ProjectId,power-module,706f7765-722d-46d6-9f64-756c652e6b69,rev?*%
%TF.SameCoordinates,Original*%
%TF.FileFunction,Soldermask,Top*%
%TF.FilePolarity,Negative*%
%FSLAX46Y46*%
G04 Gerber Fmt 4.6, Leading zero omitted, Abs format (unit mm)*
G04 Created by KiCad (PCBNEW (6.0.0-0)) date 2022-12-13 21:11:07*
%MOMM*%
%LPD*%
G01*
G04 APERTURE LIST*
G04 Aperture macros list*
%AMRoundRect*
0 Rectangle with rounded corners*
0 $1 Rounding radius*
0 $2 $3 $4 $5 $6 $7 $8 $9 X,Y pos of 4 corners*
0 Add a 4 corners polygon primitive as box body*
4,1,4,$2,$3,$4,$5,$6,$7,$8,$9,$2,$3,0*
0 Add four circle primitives for the rounded corners*
1,1,$1+$1,$2,$3*
1,1,$1+$1,$4,$5*
1,1,$1+$1,$6,$7*
1,1,$1+$1,$8,$9*
0 Add four rect primitives between the rounded corners*
20,1,$1+$1,$2,$3,$4,$5,0*
20,1,$1+$1,$4,$5,$6,$7,0*
20,1,$1+$1,$6,$7,$8,$9,0*
20,1,$1+$1,$8,$9,$2,$3,0*%
G04 Aperture macros list end*
%ADD10C,1.700000*%
%ADD11RoundRect,0.250000X-0.600000X0.600000X-0.600000X-0.600000X0.600000X-0.600000X0.600000X0.600000X0*%
%ADD12C,0.800000*%
%ADD13C,7.000000*%
%ADD14R,2.600000X2.600000*%
%ADD15C,2.600000*%
%ADD16RoundRect,0.250000X0.450000X-0.262500X0.450000X0.262500X-0.450000X0.262500X-0.450000X-0.262500X0*%
%ADD17R,1.800000X1.800000*%
%ADD18C,1.800000*%
%ADD19O,1.905000X2.000000*%
%ADD20R,1.905000X2.000000*%
%ADD21R,1.700000X1.700000*%
%ADD22O,1.700000X1.700000*%
%ADD23RoundRect,0.243750X0.456250X-0.243750X0.456250X0.243750X-0.456250X0.243750X-0.456250X-0.243750X0*%
%ADD24RoundRect,0.250000X-1.500000X-0.550000X1.500000X-0.550000X1.500000X0.550000X-1.500000X0.550000X0*%
%ADD25RoundRect,0.250000X-0.250000X-0.475000X0.250000X-0.475000X0.250000X0.475000X-0.250000X0.475000X0*%
%ADD26RoundRect,0.250000X0.250000X0.475000X-0.250000X0.475000X-0.250000X-0.475000X0.250000X-0.475000X0*%
G04 APERTURE END LIST*
D10*
%TO.C,J8*%
X79756000Y-69596000D03*
X82296000Y-69596000D03*
X84836000Y-69596000D03*
X87376000Y-69596000D03*
X89916000Y-69596000D03*
X92456000Y-69596000D03*
X94996000Y-69596000D03*
X97536000Y-69596000D03*
X79756000Y-67056000D03*
X82296000Y-67056000D03*
X84836000Y-67056000D03*
X87376000Y-67056000D03*
X89916000Y-67056000D03*
X92456000Y-67056000D03*
X94996000Y-67056000D03*
D11*
X97536000Y-67056000D03*
%TD*%
D12*
%TO.C,REF\u002A\u002A*%
X149352000Y-63161000D03*
X149352000Y-68411000D03*
X146727000Y-65786000D03*
X147495845Y-67642155D03*
X147495845Y-63929845D03*
X151977000Y-65786000D03*
X151208155Y-67642155D03*
X151208155Y-63929845D03*
D13*
X149352000Y-65786000D03*
%TD*%
%TO.C,REF\u002A\u002A*%
X149352000Y-97028000D03*
D12*
X151208155Y-95171845D03*
X151208155Y-98884155D03*
X151977000Y-97028000D03*
X147495845Y-95171845D03*
X147495845Y-98884155D03*
X146727000Y-97028000D03*
X149352000Y-99653000D03*
X149352000Y-94403000D03*
%TD*%
D13*
%TO.C,REF\u002A\u002A*%
X56896000Y-97028000D03*
D12*
X58752155Y-95171845D03*
X58752155Y-98884155D03*
X59521000Y-97028000D03*
X55039845Y-95171845D03*
X55039845Y-98884155D03*
X54271000Y-97028000D03*
X56896000Y-99653000D03*
X56896000Y-94403000D03*
%TD*%
%TO.C,REF\u002A\u002A*%
X58752155Y-64008000D03*
X56896000Y-63239155D03*
X55039845Y-64008000D03*
X54271000Y-65864155D03*
X55039845Y-67720310D03*
X56896000Y-68489155D03*
X58752155Y-67720310D03*
X59521000Y-65864155D03*
D13*
X56896000Y-65864155D03*
%TD*%
D14*
%TO.C,J7*%
X64775000Y-94996000D03*
D15*
X69855000Y-94996000D03*
X74935000Y-94996000D03*
%TD*%
D16*
%TO.C,R2*%
X64770000Y-81181500D03*
X64770000Y-79356500D03*
%TD*%
D17*
%TO.C,D2*%
X61214000Y-81539000D03*
D18*
X61214000Y-78999000D03*
%TD*%
D14*
%TO.C,J6*%
X81534000Y-95047000D03*
D15*
X86614000Y-95047000D03*
X91694000Y-95047000D03*
%TD*%
D14*
%TO.C,J5*%
X98298000Y-95047000D03*
D15*
X103378000Y-95047000D03*
X108458000Y-95047000D03*
%TD*%
D14*
%TO.C,J4*%
X131831000Y-95047000D03*
D15*
X136911000Y-95047000D03*
X141991000Y-95047000D03*
%TD*%
D14*
%TO.C,J3*%
X115067000Y-94996000D03*
D15*
X120147000Y-94996000D03*
X125227000Y-94996000D03*
%TD*%
D14*
%TO.C,J1*%
X148133000Y-84333000D03*
D15*
X148133000Y-79253000D03*
X148133000Y-74173000D03*
%TD*%
D19*
%TO.C,U2*%
X125222000Y-76454000D03*
X127762000Y-76454000D03*
D20*
X130302000Y-76454000D03*
%TD*%
D19*
%TO.C,U1*%
X108712000Y-76454000D03*
X111252000Y-76454000D03*
D20*
X113792000Y-76454000D03*
%TD*%
D21*
%TO.C,SW1*%
X136652000Y-79253000D03*
D22*
X136652000Y-76713000D03*
%TD*%
D16*
%TO.C,R1*%
X68326000Y-81176500D03*
X68326000Y-79351500D03*
%TD*%
D10*
%TO.C,J2*%
X110236000Y-69596000D03*
X112776000Y-69596000D03*
X115316000Y-69596000D03*
X117856000Y-69596000D03*
X120396000Y-69596000D03*
X122936000Y-69596000D03*
X125476000Y-69596000D03*
X128016000Y-69596000D03*
X110236000Y-67056000D03*
X112776000Y-67056000D03*
X115316000Y-67056000D03*
X117856000Y-67056000D03*
X120396000Y-67056000D03*
X122936000Y-67056000D03*
X125476000Y-67056000D03*
D11*
X128016000Y-67056000D03*
%TD*%
D23*
%TO.C,D1*%
X70612000Y-81201500D03*
X70612000Y-79326500D03*
%TD*%
D24*
%TO.C,C5*%
X82484000Y-80264000D03*
X87884000Y-80264000D03*
%TD*%
%TO.C,C4*%
X93566000Y-80264000D03*
X98966000Y-80264000D03*
%TD*%
D25*
%TO.C,C3*%
X74234000Y-80264000D03*
X76134000Y-80264000D03*
%TD*%
D26*
%TO.C,C2*%
X139700000Y-72390000D03*
X141600000Y-72390000D03*
%TD*%
%TO.C,C1*%
X141600000Y-81788000D03*
X139700000Y-81788000D03*
%TD*%
M02*
