<svg xmlns="http://www.w3.org/2000/svg" viewBox="0 0 565.93 274.17"><defs><style>.cls-1{fill:none;stroke:#231f20;stroke-miterlimit:10;stroke-width:4px;}</style></defs><g id="Layer_2" data-name="Layer 2"><g id="Layer_2-2" data-name="Layer 2"><path class="cls-1" d="M565.93,120.46h-20.3a14.09,14.09,0,0,0-3.73-.48c-2.78,0-3.48.87-5.87,1.1-3.52.34-3.77-1.33-7.39-1.1-3.12.19-3.16,1.45-5.94,1.45-3.55,0-4.13-2.08-7-1.73-3.06.37-3.34,2.88-5.94,2.9-3.06,0-3.83-3.44-6.7-3.31s-3.49,3.57-6,3.45c-2.69-.13-3.15-4.13-5.87-4.35s-4,4.1-6.9,3.94-3.5-4.56-6.22-4.63c-3-.08-4.11,5.23-7,5.11-2.71-.11-3.42-4.7-6-4.7s-3.61,5-6.15,5c-2.72-.06-3.56-5.88-6.11-5.9s-3.71,6.51-6.38,6.52-3.72-6.67-6.5-6.7-3.88,6.55-6.56,6.49-3.71-7.11-6.28-7.11c-2.74,0-3.92,8-6.49,7.94s-3.45-8.09-6-8.16-4,8.6-6.81,8.57-4-8.86-6.63-8.84-3.91,9.25-6.35,9.19-3.3-9.6-5.73-9.67-4,10.48-6.56,10.43-3.58-11-6.15-11-3.92,11.14-6.54,11.11-3.78-11.72-6.37-11.73-3.91,12.16-6.56,12.15-3.85-12.24-6.35-12.22-3.72,13.1-6.15,13.1-3.66-14.3-6.35-14.35-4.27,14.56-7,14.51-3.57-14.56-6.49-14.68-5,15-7.79,14.83-3.59-15.9-5.93-15.94c-2.51,0-4.13,18.23-6.3,18.16s-2.66-19.17-5-19.27-4.33,20.26-7.05,20.2S288.67,109,286.33,109s-3.69,23.71-6.12,23.72-3.6-24.43-6.3-24.46-4.35,25.05-7,25-3.86-25.4-6.12-25.39-3.21,27.38-5.74,27.43S250.51,106,248,106s-3.29,31.09-5.74,31.14-4.4-33.59-6.86-33.55-3.12,34.61-5.56,34.66-4.36-36.55-6.85-36.51-3.29,40-5.86,40.08-4.51-42-7.36-42-4.11,42.33-6.44,42.31-3.22-45-5.83-45.07-4.81,49.1-7.36,49.06S187,94.34,184.58,94.31s-4.28,53.42-6.9,53.4-3.78-57.39-6-57.39-3.16,60.33-5.73,60.36-4.59-63.47-7.15-63.43c-.63,0-1.17,3.92-3.07,29.44-2.23,30-2.59,39.55-3.37,39.56-2.15,0-3.91-73.6-6.44-73.6s-3.81,78.82-6.13,78.81-3.59-82.8-5.83-82.79c-.81,0-1.11,10.86-3.37,41.7-.86,11.68-3.42,46.66-4.29,46.61-.37,0-.32-6.14-.31-8.28.17-33.26-3.19-85.56-4.91-85.55-.35,0-.81,2.19-2.45,36.49-1.9,39.52-2.52,62.26-3.37,62.25-.21,0-.39-1.3-.92-8.89-.9-12.67-1.35-19-1.54-26.68-.48-19.37-2.62-68.7-4.29-68.69-.47,0-.82,3.81-1.23,9.2-2.09,28-1.35,45.17-2.14,63.78-.75,17.5-2.84,36.23-4,36.19s-1.07-15.19-1.84-43.55c-.27-9.89-2-72.07-3.37-72.06-.77,0-1.06,17.79-2.76,58-1.67,39.27-2.76,64.41-4,64.4-.42,0-1.19-2.84-2.76-42.32C84.22,85,84.35,54.46,83.38,54.44c-1.2,0-3,47.44-3.68,64.7-1.81,47.29-2,72.68-2.76,72.68s-1.23-18.91-3.06-71.45c-2.19-62.83-2.72-73.29-3.38-73.29-1.21,0-2.26,35.07-3.37,72.06-1.57,52.33-1.82,82.5-2.45,82.5-.8,0-1.33-47.6-4.3-123.28-1.13-28.83-1.8-41.1-2.45-41.09-.89,0-1.22,23.24-2.15,65-1,43-2.59,116.54-3.68,116.53-.54,0-.78-18.79-1.22-44.16-.58-32.86-2.56-145-4.41-145-1.15,0-2.17,43.77-3.26,90.41C41.44,196,41.39,236,40.67,236c-1.69,0-3.57-218-6.05-218-1.13,0-2,45.49-3.06,101.5-1.77,92.44-1.71,141.37-2.46,141.37C27.39,260.84,24.71,2,22.66,2c-.57,0-.82,20.56-2.14,116.84-1.46,106.46-2.14,153.33-2.46,153.33s0-20.66-.3-49.07c-.44-42.84-1.7-77.94-2.76-102H0"/></g></g></svg>