<?xml version="1.0" encoding="utf-8"?>
<!-- Generator: Adobe Illustrator 25.4.8, SVG Export Plug-In . SVG Version: 6.00 Build 0)  -->
<svg version="1.1" xmlns="http://www.w3.org/2000/svg" xmlns:xlink="http://www.w3.org/1999/xlink" x="0px" y="0px"
	 viewBox="0 0 57 364.5" style="enable-background:new 0 0 57 364.5;" xml:space="preserve">
<style type="text/css">
	.st0{fill-opacity:0;stroke:#000000;stroke-width:9.0709;stroke-linecap:round;stroke-linejoin:round;stroke-miterlimit:10;}
	
		.st1{fill:#C2C2C2;fill-opacity:0;stroke:#C2C2C2;stroke-width:0.4252;stroke-linecap:round;stroke-linejoin:round;stroke-miterlimit:10;}
	
		.st2{fill-rule:evenodd;clip-rule:evenodd;fill:#C2C2C2;stroke:#C2C2C2;stroke-width:0.4252;stroke-linecap:round;stroke-linejoin:round;stroke-miterlimit:10;}
	
		.st3{fill:#C2C2C2;fill-opacity:0;stroke:#C2C2C2;stroke-width:2.2677;stroke-linecap:round;stroke-linejoin:round;stroke-miterlimit:10;}
	.st4{fill:none;}
	
		.st5{fill-rule:evenodd;clip-rule:evenodd;fill:#C2C2C2;stroke:#C2C2C2;stroke-width:2.834646e-06;stroke-linecap:round;stroke-linejoin:round;stroke-miterlimit:10;}
	
		.st6{fill:#D0D2CD;fill-opacity:0;stroke:#D0D2CD;stroke-width:0.2835;stroke-linecap:round;stroke-linejoin:round;stroke-miterlimit:10;}
</style>
<g id="Layer_2">
</g>
<g id="Layer_1" xmlns:svg="http://www.w3.org/2000/svg">
	<desc>Picture generated by PCBNEW</desc>
	<g transform="translate(0 0) scale(1 1)">
	</g>
	<g>
		<g>
			<path class="st0" d="M16.9,8.6H26"/>
		</g>
		<g>
			<path class="st0" d="M16.9,355.9H26"/>
		</g>
	</g>
	
		<image style="overflow:visible;" width="77" height="1486" xlink:href="2EB69C127CD2326E.jpg"  transform="matrix(0.24 0 0 0.24 12.24 4.056)">
	</image>
	<g>
		<path class="st1" d="M41.9,159.2h2.9"/>
		<path class="st1" d="M39.1,160.7h-2.2"/>
		<path class="st1" d="M36.9,160.7v-2.2"/>
		<path class="st1" d="M36.9,158.5l2.2,2.2"/>
	</g>
	<g>
		<path class="st2" d="M39.1,160.7h-2.2v-2.2L39.1,160.7z"/>
	</g>
	<g>
		<path class="st1" d="M41.9,119.6h2.9"/>
		<path class="st1" d="M39.1,121.1h-2.2"/>
		<path class="st1" d="M36.9,121.1v-2.2"/>
		<path class="st1" d="M36.9,118.9l2.2,2.2"/>
	</g>
	<g>
		<path class="st2" d="M39.1,121.1h-2.2v-2.2L39.1,121.1z"/>
	</g>
	<g>
		<path class="st3" d="M15.1,341.5l2.9-2.9"/>
		<path class="st3" d="M15.1,341.5l-2.9-2.9"/>
	</g>
	<g>
		<path class="st1" d="M36.9,160.7c4.8-4.8,4.8-12.6,0-17.3c-4.8-4.8-12.6-4.8-17.3,0c-2.3,2.3-3.6,5.4-3.6,8.7"/>
	</g>
	<g>
		<path class="st3" d="M15.1,333.6v7.9"/>
	</g>
	<g>
		<path class="st1" d="M11.7,119.6h2.9"/>
		<path class="st1" d="M43.4,160.7v-2.9"/>
		<path class="st1" d="M11.7,159.2h2.9"/>
		<path class="st1" d="M43.4,121.1v-2.9"/>
	</g>
	<g>
		<path class="st3" d="M15.3,75l-2.9,2.9"/>
		<path class="st3" d="M15.3,75l-2.9-2.9"/>
		<path class="st3" d="M7.4,75h7.9"/>
	</g>
	<g transform="rotate(-90.000000 18350000.000000 122974000.000000)">
		<path class="st1" d="M36.9,121.1c4.8-4.8,4.8-12.6,0-17.3c-4.8-4.8-12.6-4.8-17.3,0c-2.3,2.3-3.6,5.4-3.6,8.7"/>
		<g>
			<path class="st4" d=""/>
		</g>
		<g>
			<desc>Trilobyte</desc>
			<path class="st1" d="M49.7,361.7v-2.4"/>
			<path class="st1" d="M53.9,360.5h-4.3"/>
			<path class="st1" d="M53.9,357.9h-2.8"/>
			<path class="st1" d="M51.9,357.9l-0.4-0.2l-0.2-0.2l-0.2-0.4v-0.4"/>
			<path class="st1" d="M53.9,355.3h-2.8"/>
			<path class="st1" d="M49.7,355.3l0.2,0.2l0.2-0.2l-0.2-0.2L49.7,355.3h0.4"/>
			<path class="st1" d="M53.9,352.6l-0.2,0.4l-0.4,0.2h-3.6"/>
			<path class="st1" d="M53.9,350.4l-0.2,0.4l-0.2,0.2l-0.4,0.2h-1.2l-0.4-0.2l-0.2-0.2l-0.2-0.4v-0.6l0.2-0.4l0.2-0.2l0.4-0.2h1.2
				l0.4,0.2l0.2,0.2l0.2,0.4V350.4"/>
			<path class="st1" d="M53.9,347.2h-4.3"/>
			<path class="st1" d="M51.3,347.2l-0.2-0.4V346l0.2-0.4l0.2-0.2l0.4-0.2h1.2l0.4,0.2l0.2,0.2l0.2,0.4v0.8l-0.2,0.4"/>
			<path class="st1" d="M51.1,343.7l2.8-1"/>
			<path class="st1" d="M51.1,341.7l2.8,1l1,0.4l0.2,0.2l0.2,0.4"/>
			<path class="st1" d="M51.1,340.7v-1.6"/>
			<path class="st1" d="M49.7,340.1h3.6l0.4-0.2l0.2-0.4v-0.4"/>
			<path class="st1" d="M53.7,336l0.2,0.4v0.8l-0.2,0.4l-0.4,0.2h-1.6l-0.4-0.2l-0.2-0.4v-0.8l0.2-0.4l0.4-0.2h0.4l0.4,2"/>
		</g>
	</g>
	<g>
		<path class="st5" d="M37,29.2l0.3-0.8l0.1-0.1l0.3-0.4l-0.4-0.7l-0.4-0.9l-0.1-0.9H39l0.1,0.4l0.2,0.3l0.2,0.2l0.4,0.4h6.5
			l0.4-0.4l0.3-0.5l0.1-0.5L47,24.9l-0.3-0.3l-0.4-0.4h-6.5l-0.4,0.4l-0.3,0.3L39,25.3l0,0.2h-2.2l0,0l0.1-0.9l0.3-0.8l0.5-0.7
			l0.7-0.6l0.1-0.1l0.7-0.4l3.7,0l1.2,0l1,0l0.8,0l0.6,0l0.5,0.1l0.4,0.1l0.3,0.1l0.3,0.2l0.3,0.2l0.2,0.2l0.5,0.7l0.3,0.8l0.1,0.9
			l-0.1,0.9l-0.4,0.8l-0.1,0.2l-0.1,0.2l0,0.2l0.1,0.2l0.1,0.2l0.4,0.8l0.2,0.9l-0.1,0.9L49,31.7l-0.5,0.8l-0.3,0.3L47.9,33
			l-0.3,0.2l-0.4,0.2l-0.4,0.1l-0.5,0.1l-0.7,0l-0.9,0l-1.1,0l-0.6,0l-1,0l-0.8,0l-0.6,0l-0.5,0l-0.4,0l-0.3-0.1l-0.3-0.1l0,0
			l-0.8-0.4l-0.6-0.6l-0.5-0.7l-0.3-0.8l-0.1-0.5H39l0.1,0.3l0.2,0.3l0.2,0.2l0,0l0.2,0l0.5,0l0.7,0l0.9,0l1.1,0l0.1,0l1,0l0.8,0
			l0.6,0l0.4,0l0.3,0l0.2,0l0.1-0.1l0.1-0.1l0.3-0.4l0.1-0.5l-0.1-0.5l-0.3-0.4L46.4,29L46.1,29l-0.5-0.1l-0.7,0l-0.8,0l-0.9,0
			l-0.9,0l-0.8,0l-0.7,0l-0.6,0.1L39.8,29l-0.1,0l-0.5,0.3l-0.3,0.4l0,0.5h-2.2l0-0.3L37,29.2z"/>
		<path class="st5" d="M22,25.8l0.1-0.7l0.1-0.6l0.1-0.4l0.2-0.4l0.2-0.3L23,23l0,0l0.3-0.3l0.3-0.2l0.3-0.2l0.4-0.1l0.5-0.1
			l0.6-0.1l0.8,0l1,0l1.2,0l0.2,0l1.1,0l0.9,0l0.7,0l0.5,0.1l0.4,0.1l0.3,0.1l0.3,0.2l0.3,0.2l0.3,0.3l0.1,0.1l0.3,0.3l0.2,0.3
			l0.2,0.3l0.1,0.4l0.1,0.5l0,0.7l0,0.8l0,1.1l0,0.3l0,1.1l0,0.9l0,0.7L34.2,31l-0.1,0.4l-0.1,0.3l-0.2,0.3l-0.3,0.3l-0.1,0.1
			l-0.3,0.3L32.9,33l-0.3,0.2l-0.3,0.1l-0.4,0.1l-0.5,0.1l-0.7,0l-0.8,0l-1.1,0l-0.4,0l-1.1,0l-0.9,0l-0.7,0l-0.5,0l-0.4,0l-0.3-0.1
			l-0.2-0.1L23.5,33L23,32.5l-0.3-0.3l-0.2-0.3l-0.2-0.4l-0.1-0.4L22,30.5L22,29.8l0-0.9l0-1.1l0,0l0-0.4H24l0,0.8l0,0.8l0,0.7
			l0,0.5l0,0.3l0.1,0.3l0.1,0.2l0.2,0.2l0.2,0.1l0.3,0.1l0.5,0l0.7,0l0.9,0l1.1,0l1,0l0.8,0l0.6,0l0.4,0l0.3,0l0.2,0l0.1-0.1
			l0.1-0.1l0.1-0.1l0.4-0.3v-5.8l-0.4-0.3l-0.1-0.1l-0.1-0.1l-0.2-0.1l-0.2,0l-0.3,0l-0.5,0l-0.7,0l-0.9,0l-0.6,0l-1.1,0l-0.9,0
			l-0.7,0l-0.5,0.1l-0.3,0.1l-0.2,0.1l-0.2,0.2l-0.1,0.2l-0.1,0.2l-0.1,0.3l0,0.5l0,0.7l0,0.8h-2.1l0-0.8L22,25.8z"/>
		<path class="st5" d="M22.5,41.4l0.4,0.2l0.1,0.1l0.1,0.1l0,0.2l0,0.3l0,0.4l0,0.5l0,0.6l0,0.8l0,1l0,1.3l0,0.1l0,1.3l0,1.1l0,0.8
			l0,0.7l0,0.5l0,0.4l0,0.3l0,0.2l-0.1,0.1l0,0.1l-0.4,0.3L22,52.7l-0.5-0.1l0,0l-0.3-0.2l-0.1-0.2l0-0.2l0-0.5l0-0.7l0-1l0-1.2
			l0-1.5l0-0.2l0-1.3l0-1l0-0.8l0-0.7l0-0.5l0-0.4l0-0.3l0-0.2l0.1-0.1l0.1-0.1l0,0l0.4-0.2l0.5-0.1L22.5,41.4z"/>
		<path class="st5" d="M7,29.2l0.3-0.8l0.1-0.1l0.3-0.4l-0.4-0.7L7,26.4l-0.1-0.8h2.2L9.2,26l0.3,0.3l0.4,0.4h6.5l0.4-0.4l0.3-0.5
			l0.1-0.5l-0.2-0.5l-0.3-0.3l-0.4-0.4H9.9l-0.4,0.4l-0.4,0.5l-0.1,0.5H6.9l0-0.1L7,24.6l0.3-0.8l0.5-0.7l0.7-0.6l0.1-0.1l0.7-0.4
			l3.7,0l1.2,0l1,0l0.8,0l0.6,0l0.5,0.1l0.4,0.1l0.3,0.1l0.3,0.2l0.3,0.2l0.2,0.2l0.5,0.7l0.3,0.8l0.1,0.9l-0.1,0.9l-0.4,0.8
			l-0.1,0.2l-0.1,0.2l0,0.2l0.1,0.2l0.1,0.2l0.4,0.8l0.2,0.9l-0.1,0.9L19,31.7l-0.5,0.8l-0.3,0.3L17.9,33l-0.3,0.2l-0.4,0.2
			l-0.4,0.1l-0.5,0.1l-0.7,0l-0.9,0l-1.1,0l-0.6,0l-1,0l-0.8,0l-0.6,0l-0.5,0l-0.4,0l-0.3-0.1l-0.3-0.1l0,0l-0.8-0.4l-0.6-0.6
			l-0.5-0.7L7,30.9l-0.1-0.5h2.2l0.1,0.3L9.4,31l0.2,0.2l0,0l0.2,0l0.5,0l0.7,0l0.9,0l1.1,0l0.1,0l1,0l0.8,0l0.6,0l0.4,0l0.3,0
			l0.2,0l0.1-0.1l0.1-0.1l0.3-0.4l0.1-0.5l-0.1-0.5l-0.3-0.4L16.5,29L16.1,29l-0.5-0.1l-0.7,0l-0.8,0l-0.9,0l-0.9,0l-0.8,0l-0.7,0
			l-0.6,0.1L9.9,29l-0.1,0l-0.5,0.3l-0.3,0.4l0,0.5H6.9l0-0.3L7,29.2z"/>
		<path class="st5" d="M8.2,41.2l0.3,0.2l0.1,0.1l0.1,0.1l0.1,0.1l0,0.2l0,0.3l0,0.4l0,0.6l0,0.8l0,1l0,0.3l0,0.9l0,0.8l0,0.7l0,0.6
			l0,0.4l0,0.1l0,0l0.1-0.1l0.3-0.3l0.4-0.4l0.5-0.5L11,47l0.7-0.7l0.8-0.8l0.3-0.3l0.9-0.9l0.8-0.8l0.6-0.6l0.5-0.5l0.4-0.4
			l0.3-0.3l0.2-0.2l0.2-0.1l0.1,0l0.1,0l0.5,0.1l0.4,0.3l0.2,0.4l0,0.2l0,0.2L18,42.8L17.9,43l-0.2,0.3l-0.4,0.4l-0.5,0.5l-0.7,0.7
			l0,0L14,47l2.1,2.1l0.7,0.7l0.5,0.5l0.4,0.4l0.2,0.3l0.2,0.2l0.1,0.2l0,0.2l0,0.2l0,0.4l-0.2,0.3l-0.1,0.1l-0.2,0.2l-0.2,0.1
			l-0.2,0l-0.3-0.1l-0.3-0.2l-0.4-0.4l-0.5-0.5L14.9,51l-0.3-0.3l-2.2-2.1l-2,2l-0.7,0.7l-0.5,0.5l-0.4,0.4l-0.3,0.2l-0.2,0.1
			l-0.2,0.1l-0.2,0l-0.2,0l-0.4-0.1l-0.3-0.2L7,52.3l-0.1-0.1l-0.1-0.1l0-0.2l0-0.2l0-0.4l0-0.5l0-0.6l0-0.8l0-1l0-1.3l0-0.2l0-1.3
			l0-1.1l0-0.9l0-0.7l0-0.5l0-0.4l0-0.3l0-0.2l0.1-0.1L7,41.5l0,0l0.3-0.2l0.4-0.1l0.2,0L8.2,41.2z"/>
		<path class="st5" d="M32.9,41.1l0.8,0l0.6,0l0.4,0l0.3,0l0.2,0.1l0.1,0.1l0.1,0.1l0,0l0.2,0.5l0,0.5l-0.2,0.5l0,0.1l-0.1,0.1
			l-0.1,0.1l-0.2,0.1l-0.3,0l-0.4,0l-0.5,0l-0.7,0l-0.7,0l-2.7,0.1L29,43.8l-0.7,0.5l-0.6,0.7l-0.4,0.8l0,0.1l-0.1,0.9l0.1,0.9
			l0.3,0.8l0.5,0.7l0.7,0.6l0.5,0.3l0.2,0l0.5,0l0.6,0l0.8,0l0.9,0l0.1,0l0.9,0l0.7,0l0.5,0l0.3,0l0.2,0l0.1,0.1l0.1,0.1l0.1,0.1
			l0.2,0.5l0,0.5l-0.2,0.5l0,0.1l-0.1,0.1l-0.1,0.1l-0.2,0.1l-0.3,0l-0.4,0l-0.6,0l-0.8,0l-0.5,0l-0.8,0l-0.8,0l-0.7,0l-0.5,0
			l-0.3,0l-1-0.3l-1-0.5L26.8,51L26,50.2L25.9,50l-0.5-1l-0.3-1.1l-0.1-1.1l0.1-1.1l0.3-1.1l0.5-0.9l0.8-0.9l1-0.7l1.1-0.5l0.9-0.2
			l0.4,0l0.6,0l0.7,0l0.8,0L32.9,41.1z"/>
		<path class="st5" d="M39.6,41.2l0.3,0.2l0.1,0.1l0.1,0.1l0.1,0.1l0,0.2l0,0.3l0,0.4l0,0.6l0,0.8l0,1l0,0.3l0,0.9l0,0.8l0,0.7
			l0,0.6l0,0.4l0,0.1l0,0l0.1-0.1l0.3-0.3l0.4-0.4l0.5-0.5l0.7-0.6l0.7-0.7l0.8-0.8l0.3-0.3l0.9-0.9l0.8-0.8l0.6-0.6l0.5-0.5
			l0.4-0.4l0.3-0.3l0.2-0.2l0.2-0.1l0.1,0l0.1,0l0.5,0.1l0.4,0.3l0.2,0.4l0,0.2l0,0.2l-0.1,0.2L49.2,43L49,43.3l-0.4,0.4l-0.5,0.5
			l-0.7,0.7l0,0L45.3,47l2.1,2.1l0.7,0.7l0.5,0.5l0.4,0.4l0.2,0.3l0.2,0.2l0.1,0.2l0,0.2l0,0.2l0,0.4l-0.2,0.3l-0.1,0.1l-0.2,0.2
			l-0.2,0.1l-0.2,0l-0.3-0.1l-0.3-0.2l-0.4-0.4l-0.5-0.5L46.3,51L46,50.7l-2.2-2.1l-2,2l-0.7,0.7l-0.5,0.5l-0.4,0.4l-0.3,0.2
			l-0.2,0.1l-0.2,0.1l-0.2,0l-0.2,0l-0.4-0.1l-0.3-0.2l-0.1-0.1l-0.1-0.1l-0.1-0.1l0-0.2l0-0.2l0-0.4l0-0.5l0-0.6l0-0.8l0-1l0-1.3
			l0-0.2l0-1.3l0-1.1l0-0.9l0-0.7l0-0.5l0-0.4l0-0.3l0-0.2l0.1-0.1l0.1-0.1l0,0l0.3-0.2l0.4-0.1l0.2,0L39.6,41.2z"/>
		<path class="st5" d="M28,89.5l0.2,0l0.2,0l0.1,0l0,0l0.1,0.1l0.1,0.2l0,0.1l0,0.1l0,0.1l-0.1,0.1l-0.1,0l-0.1,0l-0.1,0l-0.2,0
			l-0.3,0l-0.3,0l-0.3,0l-0.2,0l-0.2,0l-0.1,0l-0.1,0l-0.1,0l-0.1,0l-0.3,0.2L26,90.8l-0.1,0.3l-0.1,0.3l0,0.2l0.1,0.3l0.1,0.3
			l0.2,0.2l0.3,0.2l0.2,0.1l0.2,0l0.3,0l0.3,0H28v-0.5l0-0.2l0-0.2l0-0.1l0-0.1l0-0.1l0,0l0.1-0.1l0.2,0l0.2,0.1l0.1,0l0,0l0,0.1
			l0,0.1l0,0.1l0,0.2l0,0.2l0,0.2l0,0.3l0,0.2l0,0.2l0,0.1l-0.1,0.1l-0.1,0l-0.2,0l-0.3,0l-0.3,0l-0.1,0l-0.3,0l-0.3,0l-0.2,0
			l-0.1,0l-0.1,0l-0.1,0l-0.1,0L26,93.2L25.6,93l-0.3-0.3l-0.2-0.4L25,91.9l0-0.1l0-0.4L25,91l0.1-0.4l0.2-0.3l0.3-0.3l0.3-0.2
			l0.4-0.2l0.2-0.1l0.1,0l0.2,0l0.2,0l0.3,0l0.3,0L28,89.5z"/>
		<path class="st5" d="M42,89.6l0.1,0.1l0,0.1l0,0.1L42,90.1l-0.1,0.1h-2.2l-0.2,0.2v1.4l0,0.4l0,0.3l0,0.3l0,0.2l0,0.1l0,0.1l0,0.1
			l0,0.1l-0.1,0l0,0l-0.1,0.1l-0.2,0l-0.1-0.1l0,0l-0.1-0.1l0-0.1l0-0.1l0-0.2l0-0.2l0-0.3l0-0.3l0-0.3l0-0.1l0-1.4l0.1-0.3l0.1-0.2
			l0.1-0.1l0.1-0.1l0.1-0.1l0.1-0.1l0.1,0l0.2,0l0.2,0l0.3,0l0.3,0l0.3,0h1.1L42,89.6z"/>
		<path class="st5" d="M33.8,90.7l0-0.3l0-0.2l0,0l0.1-0.2l0.2-0.2l0.2-0.2l0.2-0.1l0.1,0l0.2,0l0.2,0l0.3,0l0.3,0l0.3,0l0.3,0
			l0.3,0l0.2,0l0.2,0l0.1,0l0.2,0.1l0.2,0.2l0.1,0.2l0,0l0.1,0.3l0,0.3L37.7,91l-0.1,0.3l-0.2,0.2l-0.3,0.2l-0.1,0l-0.1,0l-0.1,0
			l-0.1,0l-0.1,0l-0.2,0l-0.2,0l-0.3,0l-0.3,0l-1.1,0v0.3l0,0.3l0.1,0.2l0.1,0.1l0,0l0.1,0l0.2,0l0.2,0l0.3,0l0.4,0l0.2,0l0.4,0
			l0.3,0l0.2,0l0.2,0l0.1,0l0.1,0l0.1,0l0,0l0,0.1l0,0l0,0.2l0,0.2l-0.1,0.1l0,0l0,0l-0.1,0l-0.1,0l-0.1,0l-0.2,0l-0.2,0l-0.3,0
			l-0.4,0l0,0h-1.4l-0.2-0.1l-0.3-0.2L34,93l-0.1-0.2l0-0.1l0-0.1l0-0.1l0-0.1l0-0.2l0-0.3l0-0.3l0,0l0-0.4h0.7l1.1,0l1.1,0l0.1-0.1
			l0.1-0.2l0-0.2l-0.1-0.2l-0.1-0.1l-0.1-0.1h-0.9l-0.3,0l-0.2,0l-0.2,0l-0.1,0l-0.1,0l-0.1,0l0,0l0,0l-0.1,0.1l0,0.1l0,0.1l0,0.2
			l0,0.3h-0.7l0,0L33.8,90.7z"/>
		<path class="st5" d="M16.5,89.5l0.1,0l0.4,0l0.4,0l0.3,0l0.2,0l0.2,0l0.1,0l0.1,0l0.1,0l0,0l0,0l0,0l0.1,0.1l0,0.2l-0.1,0.2l0,0.1
			l0,0l-0.1,0l-0.1,0l-0.1,0l-0.2,0l-0.2,0l-0.1,0l-0.7,0v3l-0.1,0.1l-0.1,0.1l-0.1,0l-0.2,0l-0.1-0.1l-0.1-0.1v-3l-0.7,0l-0.3,0
			l-0.2,0l-0.2,0l-0.1,0l-0.1-0.1L14.5,90l0,0l0-0.2l0-0.2l0.1-0.1l0.1,0l0.1,0l0.2,0l0.3,0l0.3,0l0.4,0L16.5,89.5z"/>
		<path class="st5" d="M32.4,89.5l0.2,0l0.2,0l0.1,0l0,0l0.1,0.1l0.1,0.2l0,0.1l0,0.1l0,0.1L33,90.1l-0.1,0l-0.1,0l-0.1,0l-0.2,0
			l-0.3,0l-0.3,0l-0.3,0l-0.2,0l-0.2,0l-0.1,0l-0.1,0l-0.1,0l-0.1,0l-0.3,0.2l-0.2,0.2l-0.1,0.3l-0.1,0.3l0,0.2l0.1,0.3l0.1,0.3
			l0.2,0.2l0.3,0.2l0.2,0.1l0.2,0l0.3,0l0.3,0h0.6v-0.5l0-0.2l0-0.2l0-0.1l0-0.1l0-0.1l0,0l0.1-0.1l0.2,0l0.2,0.1l0.1,0l0,0l0,0.1
			l0,0.1l0,0.1l0,0.2l0,0.2l0,0.2l0,0.3l0,0.2l0,0.2l0,0.1L33,93.4l-0.1,0l-0.2,0l-0.3,0l-0.3,0l-0.1,0l-0.3,0l-0.3,0l-0.2,0l-0.1,0
			l-0.1,0l-0.1,0l-0.1,0l-0.4-0.2L30,93l-0.3-0.3l-0.2-0.4l-0.1-0.4l0-0.1l0-0.4l0.1-0.4l0.1-0.4l0.2-0.3L30,90l0.3-0.2l0.4-0.2
			l0.2-0.1l0.1,0l0.2,0l0.2,0l0.3,0l0.3,0L32.4,89.5z"/>
		<path class="st5" d="M24.1,89.5L24.1,89.5L24.1,89.5l0.1,0.1l0,0l0,0.1l0,0.1l0,0.1l0,0.2l0,0.3l0,0.3l0,0.4l0,0.2l0,0.4l0,0.4
			l0,0.3l0,0.3l0,0.2l0,0.2l0,0.1l-0.1,0.1L24,93.5l-0.2,0l-0.1,0l-0.1-0.1l-0.1-0.1l0-0.1l0-0.1l0-0.2l0-0.2l0-0.3l0-0.3l0-0.4
			l0-0.4l0-0.4l0-0.4l0-0.3l0-0.2l0-0.2l0-0.1l0-0.1l0-0.1l0,0l0,0l0,0l0.1-0.1l0.2,0L24.1,89.5z"/>
		<path class="st5" d="M21.8,89.5l0.3,0l0.2,0l0.2,0l0.1,0l0.1,0.1l0,0.1l0,0.1l0,0.1l0,0.1l0,0.1l-0.1,0.1l-0.1,0.1l-0.1,0l-0.2,0
			l-0.3,0l-0.3,0l-0.3,0l-0.3,0l-0.3,0l-0.2,0l-0.1,0l-0.1,0l-0.1,0l0,0l0,0l0,0l-0.1,0.1l0,2.9l-0.1,0.1l-0.2,0.1l-0.2,0l-0.2-0.1
			l0,0l-0.1-0.1l0-1.4l0-0.4l0-0.3l0-0.3l0-0.2l0-0.1l0-0.1l0-0.1l0-0.1l0-0.1l0,0l0.1-0.2l0.1-0.2l0.1-0.1l0.1-0.1l0.1-0.1l0.1-0.1
			l0.2,0l0.2,0l0.3,0l0.3,0l0.4,0h0L21.8,89.5z"/>
		<path class="st5" d="M47.1,319.1l0.4,0l0.3,0l0.2,0l0.2,0l0.1,0l0.1,0l0.1,0l0,0l0,0l0,0l0.1,0.1l0,0.1l0,0l0,0.1l0,0.1l-0.1,0.1
			l-0.1,0l-0.2,0l-0.2,0l-0.3,0l0,0l-0.7,0l0,1.5l0,0.4l0,0.3l0,0.3l0,0.2l0,0.2l0,0.1l0,0.1l0,0l-0.1,0l-0.1,0l0,0l-0.1,0l-0.1,0
			l-0.1-0.1l0,0l0-0.1l0-0.1l0-0.2l0-0.3l0-0.3l0-0.3l0-0.2l0-1.5l-0.6,0l-0.3,0l-0.2,0l-0.2,0l-0.1,0l-0.1,0l0-0.1l0-0.1l0,0l0-0.2
			l0-0.2l0.1-0.1l0,0l0.1,0l0.2,0l0.2,0l0.3,0l0.4,0l0.4,0l0.3,0L47.1,319.1z"/>
		<path class="st5" d="M43.9,319.1L43.9,319.1l0.1,0.1l0,1.7l0,0.5l0,0.4l0,0.3l0,0.2l0,0.2l0,0.1l0,0.1l0,0.1l0,0l0,0l0,0l-0.2,0
			l-0.1,0l-0.1-0.1l-0.1-0.1l0-1.8l0-1.8l0.1-0.1l0.2-0.1l0.2,0L43.9,319.1z"/>
		<path class="st5" d="M39.2,319.1L39.2,319.1L39.2,319.1L39.2,319.1l0.1,0.2l0,0.1l0,0.2l0,0.2l0,0.2l0,0.7h2.3l0-0.7l0-0.3l0-0.2
			l0-0.1l0-0.1l0-0.1l0,0l0,0l0.2-0.1l0.2,0l0.2,0.1l0,0l0.1,0.1l0,1.7l0,0.5l0,0.4l0,0.3l0,0.2l0,0.2l0,0.1l0,0.1l0,0.1l0,0l0,0
			l0,0l-0.1,0l-0.1,0l-0.1,0l-0.1,0l-0.1-0.1l0-0.1l0-0.2l0-0.2l0-0.3v-0.6h-2.3v0.6l0,0.3l0,0.2l0,0.2l0,0.1l0,0l-0.1,0.1l-0.2,0.1
			l-0.2,0l-0.1,0l0,0l0,0l0-0.1l0-0.1l0-0.1l0-0.2l0-0.2l0-0.3l0-0.3l0-0.4l0-0.3l0-1.7l0.1-0.1l0.2-0.1l0.2,0L39.2,319.1z"/>
		<path class="st5" d="M36.1,167.3L36.1,167.3l0.1,0.1l0,0.1l0,0.1l0,0.1l0,0.2l0,0.2l0,0.2l0,0.2l0,0.1l0,0.1l0,0.1l0,0l0.1,0.1
			l0.9,0l0.4,0l0.3,0l0.2,0l0.2,0l0.1-0.1l0.1-0.1l0-0.1l0-0.2l0-0.3l0-0.1l0-0.2l0-0.2l0-0.1l0-0.1l0.1-0.1l0.2-0.1l0.2,0l0,0
			l0.1,0.1l0.1,0.1l0,0.1l0,0.1l0,0.2l0,0.3l0,0.3l0,0.3l0,0.3l0,0.3l0,0.3l0,0.3l0,0.2l0,0.2l0,0.1l-0.1,0.2l-0.2,0.2l-0.2,0.2
			l-0.1,0l-0.2,0.1h-2.8l-0.1-0.1l-0.1-0.1l0-0.2l0.1-0.2l0-0.1l0,0l0,0l0.1,0l0.1,0l0.1,0l0.2,0l0.2,0l0.3,0l0.3,0l0.4,0l0.3,0
			l0.3,0l0.2,0l0.1,0l0.1,0l0.1,0l0-0.1l0-0.1l0,0l0-0.1l0-0.2l0-0.1l0-0.2l-1.1,0l-0.4,0l-0.3,0l-0.2,0l-0.2,0l-0.1,0l-0.1,0
			l-0.1,0l-0.1,0l0,0l-0.2-0.1l-0.2-0.1l-0.1-0.1l-0.1-0.2l-0.1-0.2l-0.1-0.2l0-0.3l0-0.3l0-0.1l0-0.2l0-0.2l0-0.1l0-0.1l0-0.1l0,0
			l0.1-0.1l0.2,0L36.1,167.3z"/>
		<path class="st5" d="M30,167.4l0.1,0.1l0,0.1l0,0.1l-0.1,0.1l-0.1,0.1l-0.9,0l-0.3,0l-0.2,0l-0.2,0l-0.1,0l-0.1,0l-0.1,0l-0.1,0
			l-0.3,0.2l-0.2,0.2l-0.1,0.3l-0.1,0.3l0,0.1l0,0.3l0.1,0.3l0.2,0.3l0.3,0.2l0,0l0.2,0.1l1,0l0.3,0l0.2,0l0.2,0l0.1,0l0.1,0l0.1,0
			l0,0l0,0l0.1,0.2l0,0.2l-0.1,0.2l0,0l0,0l0,0l-0.1,0l-0.1,0l-0.1,0l-0.2,0l-0.3,0l-0.3,0l-0.3,0l-0.3,0l-0.2,0l-0.1,0l-0.1,0
			l-0.1,0l-0.1,0l-0.3-0.1l-0.3-0.2l-0.2-0.2l-0.1-0.1l-0.2-0.4l-0.2-0.4l-0.1-0.4l0-0.4l0.1-0.4l0.2-0.4l0.3-0.3l0,0l0.3-0.3
			l0.4-0.2l0.4-0.1l0.1,0l0.2,0l0.2,0l0.3,0l0.2,0h0.8L30,167.4z"/>
		<path class="st5" d="M30.8,169.6l0.2-0.3l0.2-0.2l0.1-0.1l0.1-0.1l0.1-0.1l0.2,0l0.2,0l0.2,0l0.3,0l0.4,0l0,0h1.1l0-0.3l0-0.2
			l0-0.1l-0.1-0.1l-0.1,0l0,0l0,0l-0.1,0l-0.1,0l-0.1,0l-0.2,0l-0.2,0l-0.3,0l-0.4,0h-1.3l-0.1-0.1l-0.1-0.1l0-0.1l0,0l0-0.1
			l0.1-0.1l0,0l0.1-0.1h1.2l0.4,0l0.3,0l0.3,0l0.2,0l0.2,0l0.1,0l0.1,0.1l0.1,0.1l0.1,0.1l0.1,0.1l0.1,0.2l0,0.1l0,0.1l0,0.1l0,0.1
			l0,0.1l0,0.1l0,0.2l0,0.3l0,0.3l0,0l0,1.1l-0.1,0.2l-0.2,0.2l-0.2,0.2l-0.2,0.1l-0.1,0l-0.1,0l-0.2,0l-0.2,0l-0.3,0l-0.3,0l-0.1,0
			l-0.3,0l-0.3,0l-0.2,0l-0.1,0l-0.1,0l-0.1,0l-0.1,0l-0.1,0l-0.3-0.2l-0.2-0.2l-0.1-0.3l-0.1-0.3l0-0.1h0.7l0,0.2l0,0.1l0.1,0.1
			l0.1,0l0.1,0l0.2,0l0.2,0l0.3,0l0.2,0l0.3,0l0.2,0l0.2,0l0.1,0l0.1,0l0.1,0l0,0l0.1-0.1l0.1-0.1l0-0.2l0-0.1v-0.2h-1.1l-0.3,0
			l-0.3,0l-0.2,0l-0.1,0l-0.1,0l-0.1,0l0,0l0,0l-0.1,0.1l0,0.2h-0.7l0-0.2L30.8,169.6z"/>
		<path class="st5" d="M17.1,167.4l0.1-0.1h1l0.3,0l0.3,0l0.3,0l0.2,0l0.1,0l0,0l0.4,0.1l0.4,0.2l0.3,0.3l0.2,0.3l0.2,0.3l0.1,0.4
			l0,0.4l0,0.2l-0.1,0.4l-0.2,0.4l-0.3,0.3l-0.3,0.3l-0.4,0.2l-0.1,0l-0.1,0l-0.1,0l-0.1,0l-0.2,0l-0.2,0l-0.3,0l-0.3,0l-0.1,0h-1.2
			l-0.1-0.1L17,171v-0.5h0.7l0.9,0l0.9,0l0.3-0.1l0.3-0.2l0.2-0.2l0.1-0.3l0.1-0.3l0-0.3l-0.1-0.3l-0.1-0.3l-0.2-0.2l-0.2-0.2
			l-0.1,0l-0.1,0l-0.1,0l-0.1,0l-0.2,0l-0.2,0l-0.3,0l-0.1,0l-0.9,0v2.5H17v-3L17.1,167.4z"/>
		<path class="st5" d="M22.1,167.9l0.1-0.2l0.2-0.2l0.2-0.1l0,0l0.1,0l0.1,0l0.1,0l0.2,0l0.2,0l0.3,0l0.2,0l0.4,0l0.3,0l0.2,0l0.2,0
			l0.2,0l0.1,0.1l0.1,0.1l0.1,0.1l0.2,0.2l0.1,0.3l0.1,0.3l0,0.3l-0.1,0.3l-0.2,0.3l-0.2,0.2l-0.1,0.1l-0.2,0.1l-2.3,0v0.3l0,0.2
			l0,0.1l0.1,0.1l0,0l0.1,0.1l1.4,0l1.4,0l0.1,0.1l0.1,0.2l0,0.2l-0.1,0.2l0,0l-0.1,0.1l-1.4,0l-0.4,0l-0.4,0l-0.3,0l-0.2,0l-0.1,0
			l0,0l-0.1-0.1l-0.1-0.1l-0.1-0.1l-0.1-0.1l-0.1-0.1l-0.1-0.1l0-0.1l0-0.2l0-0.2l0-0.3l0-0.4l0-0.2l0-0.2h0.8h1l0.4,0l0.3,0l0.2,0
			l0.1,0l0.1,0l0.1,0l0,0l0.1-0.1l0.1-0.2l0-0.2l-0.1-0.2l-0.1-0.1l0,0l-0.1,0l-0.1,0l-0.1,0l-0.2,0l-0.2,0l-0.3,0l-0.1,0H23
			l-0.1,0.1l-0.1,0.1l0,0.1l0,0.1l0,0.2v0.3H22l0-0.8L22.1,167.9z"/>
		<path class="st5" d="M22.2,325.1l0.1,0.1l0,0.1l0,0.1l-0.1,0.1l-0.1,0.1h-1.4v1.5l0,0.4l0,0.3l0,0.3l0,0.2l0,0.1l0,0.1l0,0.1l0,0
			l0,0l0,0l-0.1,0.1l-0.2,0l-0.2,0l-0.1-0.1l0,0l0,0l0,0l0-0.1l0-0.1l0-0.2l0-0.2l0-0.3l0-0.3l0-0.3v-1.5h-0.7l-0.3,0l-0.2,0l-0.1,0
			l-0.1,0l-0.1,0l-0.1,0l0,0l-0.1-0.1l0-0.2l0.1-0.2l0.1-0.1l0.1-0.1H22L22.2,325.1z"/>
		<path class="st5" d="M17.4,325.1l0.1,0.1l0.1,0.1l0,0.1l0,0.2l0,0.2l0,0.3l0,0.4l0,0.5l0,0.1v1.7l-0.1,0.1l-0.1,0.1l-1.1,0l-0.3,0
			l-0.3,0l-0.3,0l-0.2,0l-0.1,0l0,0l-0.3-0.1l-0.3-0.2l-0.3-0.2l-0.2-0.3l-0.1-0.2l-0.1-0.2l-0.1-0.2l0-0.2l0-0.2l0-0.3l0-0.4l0-0.3
			l0-0.3l0-0.3l0-0.2l0-0.1l0-0.1l0-0.1l0.1,0l0,0l0.1,0l0.1,0l0.1,0l0.1,0l0.1,0.1l0,0.1l0,0.1l0,0.2l0,0.2l0,0.3l0,0.3l0,0.3
			l0,0.2l0,0.2l0,0.1l0,0.1l0,0.1l0,0.1l0,0l0.1,0.2l0.1,0.2l0.1,0.1l0.1,0.1l0.1,0.1l0.1,0.1l0.2,0l0.2,0l0.3,0l0.3,0l0.8,0v-1.5
			l0-0.5l0-0.4l0-0.3l0-0.2l0-0.1l0,0l0.1-0.1l0.1-0.1l0.1,0L17.4,325.1z"/>
		<path class="st5" d="M8.4,326.3l0.2-0.4l0.3-0.3l0.3-0.3l0.4-0.2l0.4-0.1l0.2,0l0.3,0l0.3,0l0.3,0l0.3,0l0.2,0l0,0l0.4,0.1
			l0.4,0.2l0.3,0.3l0.2,0.3l0.1,0.1l0.1,0.2l0.1,0.2l0,0.2l0,0.2l0,0l0,0.4l-0.1,0.4l-0.2,0.4l-0.3,0.3l-0.2,0.2l-0.2,0.1l-0.2,0.1
			l-0.2,0.1l-0.2,0l-0.3,0l-0.4,0l-0.1,0l-0.3,0l-0.2,0l-0.2,0l-0.1,0l-0.1,0l-0.4-0.2l-0.3-0.2l-0.3-0.3l-0.2-0.3l-0.1-0.4l0-0.4
			l0-0.2H9l0,0.3l0.1,0.3l0.1,0.2l0.2,0.2l0.2,0.2l0.2,0.1l0.2,0l0.2,0l0.3,0l0.3,0l0.3,0l0.2,0l0,0l0.3-0.1l0.2-0.2l0.2-0.2
			l0.1-0.3l0-0.3l0-0.3l0,0l-0.1-0.3l-0.2-0.2l-0.2-0.2l-0.2-0.1l-0.1,0l-0.1,0l-0.1,0l-0.2,0l-0.2,0l-0.1,0l-0.3,0l-0.3,0l-0.2,0
			l-0.2,0.1L9.5,326l-0.1,0.1l-0.2,0.2l-0.1,0.3L9,326.9H8.2l0-0.2L8.4,326.3z"/>
		<path class="st5" d="M31.8,129.9l0.1-0.4l0.2-0.4l0.1-0.1l0.3-0.3l0.4-0.2l0.4-0.1l0.4,0l0.3,0l0.4,0.1l0.4,0.2l0.3,0.3l0.3,0.3
			l0.2,0.4l0.1,0.4l0,0.4l-0.1,0.4l-0.1,0.4l0,0l-0.1,0.3l0.2,0.2l0.1,0.2l0,0.2l0,0.2l-0.1,0.1l-0.1,0.1l-0.2,0l-0.2-0.1l-0.1-0.1
			l-0.2-0.2l-0.3,0.1l-0.2,0.1l-0.3,0.1l-0.3,0l-0.1,0l-0.1,0l-0.2,0l-0.1,0l-0.4-0.1l-0.3-0.2l-0.3-0.2l-0.3-0.3l-0.2-0.4l-0.1-0.4
			l0-0.2h0.8l0.1,0.3l0.1,0.3l0.2,0.2l0.2,0.2l0.3,0.1l0.3,0.1l0.3,0l0.1,0l0.1,0l0,0l0,0l0,0l-0.1-0.1l-0.1-0.1l-0.2-0.2l-0.1-0.1
			l0-0.1l0-0.1l0,0l0.1-0.1l0.1-0.1l0.1,0l0.1,0l0.1,0.1l0.1,0.1l0,0l0.1,0.1l0.1,0.1l0,0l0,0l0,0l0-0.1l0-0.2l0-0.2l0-0.1l0-0.3
			l-0.1-0.3l-0.2-0.2l-0.2-0.2l-0.2-0.1l-0.3-0.1l-0.3,0l-0.3,0l-0.3,0.1l-0.2,0.2l-0.2,0.2l-0.1,0.2l-0.1,0.3l0,0.3h-0.8l0-0.2
			L31.8,129.9z"/>
		<path class="st5" d="M37,131.4l0.1,0.1l0.1,0.2l0,0.1l0,0.2l-0.1,0.2l-0.1,0.1l-0.1,0l-0.1,0l-0.1-0.1l-0.1-0.2l0-0.2l0-0.2
			l0.1-0.2l0.1-0.1l0.2,0h0L37,131.4z"/>
		<path class="st5" d="M25.8,128.4l0.3,0l0.2,0l0.2,0l0.1,0l0.1,0.1l0,0.1l0,0.1l0,0.1l0,0.1l0,0.1l-0.1,0.1l-0.1,0l-0.1,0l-0.2,0
			l-0.3,0l-0.3,0l-0.3,0l-0.3,0l-0.3,0l-0.2,0l-0.1,0l-0.1,0l-0.1,0l0,0l0,0l0,0l-0.1,0.1l0,1.4l0,1.4l-0.1,0.1l-0.2,0.1l-0.2,0
			l-0.2-0.1l0,0l-0.1-0.1l0-1.4l0-0.4l0-0.3l0-0.2l0-0.2l0-0.1l0-0.1l0-0.1l0-0.1l0-0.1l0,0l0.1-0.2l0.1-0.2l0.1-0.1l0.1-0.1
			l0.1-0.1l0.1-0.1l0.2,0l0.2,0l0.2,0l0.3,0l0.4,0h0L25.8,128.4z"/>
		<path class="st5" d="M27.3,129.6l0-0.3l0-0.2l0,0l0.1-0.2l0.2-0.2l0.2-0.2l0.2-0.1l0.1,0l0.2,0l0.2,0l0.3,0l0.3,0l0.3,0l0.3,0
			l0.3,0l0.2,0l0.2,0l0.1,0l0.2,0.1l0.2,0.2L31,129l0,0l0.1,0.3l0,0.3l-0.1,0.3l-0.1,0.3l-0.2,0.2l-0.3,0.2l-0.1,0l-0.1,0l-0.1,0
			l-0.1,0l-0.1,0l-0.2,0l-0.2,0l-0.3,0l-0.3,0l-1.1,0v0.3l0,0.3l0.1,0.2l0.1,0.1l0,0l0.1,0l0.2,0l0.2,0l0.3,0l0.4,0l0.2,0l0.4,0
			l0.3,0l0.2,0l0.2,0l0.1,0l0.1,0l0.1,0l0,0l0,0.1l0,0l0,0.2l0,0.2l-0.1,0.1l0,0l0,0l-0.1,0l-0.1,0l-0.1,0l-0.2,0l-0.2,0l-0.3,0
			l-0.4,0h-1.4l-0.2-0.1l-0.3-0.2l-0.2-0.2l-0.1-0.2l0-0.1l0-0.1l0-0.1l0-0.1l0-0.2l0-0.3l0-0.3l0,0l0-0.4H28l1.1,0l1.1,0l0.1-0.1
			l0.1-0.2l0-0.2l-0.1-0.2l-0.1-0.1l-0.1-0.1h-0.9l-0.3,0l-0.2,0l-0.2,0l-0.1,0l-0.1,0l-0.1,0l0,0l0,0l-0.1,0.1l0,0.1l0,0.1l0,0.2
			l0,0.3h-0.7l0,0L27.3,129.6z"/>
		<path class="st5" d="M21,128.4l0.4,0l0.3,0l0.2,0l0.2,0l0.1,0l0.1,0l0.1,0l0,0l0,0l0,0l0.1,0.1l0,0.2l-0.1,0.2l0,0.1l0,0l0,0
			l-0.1,0l-0.1,0l-0.1,0l-0.2,0l-0.2,0l-0.3,0l-0.2,0l-1.2,0v0.9h2.1l0.1,0.1l0.1,0.2l0,0.2l-0.1,0.2l0,0l-0.1,0.1H20v0.7l0,0.3
			l0,0.2l0,0.1l0,0.1l0,0.1l0,0l0,0l-0.1,0.1l-0.1,0l-0.2,0l-0.1-0.1l-0.1-0.1v-3.5l0.3-0.2L21,128.4z"/>
		<path class="st5" d="M5.7,209.2L5.7,209.2l0.1,0.1l0,0l0,0.1l0,0.1l0,0.1l0,0.2l0,0.2l0,0.3l0,0.3l0,0.4l0,0.4l0,0.5l0,0.6l0,0.6
			l0,0.7l0,0.8l0,0.8l0,0.9l0,1l0,1.1l0,1.1l0,1.2l0,1.3l0,0.9l0,0.6l0,0.6l0,0.6l0,0.6l0,0.5l0,0.5l0,0.4l0,0.4l0,0.3l0,0.1l0,0.3
			l0,0.3l0,0.2l0,0.2l0,0.1l0,0l0,0l0-0.1l0-0.2l0-0.3l0-0.3l0-0.4l0-0.5l0-0.5l0-0.5l0-0.6l0-0.2l0-1.4l0-1.3l0-1.2l0-1.1l0-1l0-1
			l0-0.9l0-0.8l0-0.7l0-0.7l0-0.6l0-0.5l0-0.5l0-0.4l0-0.4l0-0.3l0-0.2l0-0.2l0-0.1l0-0.1l0-0.1l0-0.1l0.1,0l0.1,0l0.1,0l0.1,0
			l0,0.1l0,0.1l0,0.2l0,0.3l0,0.4l0,0.4l0,0.5l0,0.6l0,0.6l0,0.7l0,0.7l0,0.8l0,0.8l0,0.9l0,0.9l0,1l0,1l0,1l0,1l0,0l0,0.5l0,0.5
			l0,0.4l0,0.4l0,0.4l0,0.3l0,0.2l0,0.1l0,0.1l0,0l0-0.1l0-0.1l0-0.2l0-0.3l0-0.4l0-0.4l0-0.5l0-0.5l0-0.5l0-0.6l0-0.3l0-1.3l0-1.2
			l0-1.1l0-1l0-0.9l0-0.8l0-0.7l0-0.6l0-0.6l0-0.5l0-0.4l0-0.3l0-0.2l0-0.1l0,0l0.1-0.1l0.1,0l0.1,0l0.1,0.1l0,0.1l0,0.1l0,0.2
			l0,0.3l0,0.4l0,0.4l0,0.5l0,0.6l0,0.7l0,0.7l0,0.8l0,0.9l0,1l0,1.1l0,1.2l0,0.4l0,0.5l0,0.5l0,0.5l0,0.5l0,0.5l0,0.4l0,0.4l0,0.3
			l0,0.1l0,1.1l0-0.8l0-0.1l0-0.2l0-0.3l0-0.4l0-0.5l0-0.5l0-0.6l0-0.6l0-0.6l0-0.7l0-0.7l0-0.7l0-0.1l0-0.9l0-0.8l0-0.7l0-0.7
			l0-0.6l0-0.5l0-0.5l0-0.4l0-0.3l0-0.3l0-0.2l0-0.2l0-0.2l0-0.1l0-0.1l0-0.1l0,0l0,0l0,0l0,0l0.1-0.1l0.1,0l0.1,0l0,0l0,0.1l0,0.1
			l0,0.2l0,0.2l0,0.3l0,0.3l0,0.4l0,0.5l0,0.6l0,0.7l0,0.8l0,0.9l0,1l0,0.9l0,0.8l0,0.8l0,0.7l0,0.6l0,0.5l0,0.4l0,0.3l0,0.3l0,0.2
			l0,0.1l0,0l0,0l0-0.1l0-0.2l0-0.3l0-0.3l0-0.4l0-0.4l0-0.5l0-0.5l0-0.5l0-0.5l0-1l0-0.9l0-0.8l0-0.8l0-0.7l0-0.6l0-0.5l0-0.4
			l0-0.3l0-0.2l0-0.3l0.1-0.2l0.1-0.1l0.1,0l0.1,0l0,0l0,0l0,0.1l0,0.1l0,0.1l0,0.2l0,0.2l0,0.3l0,0.4l0,0.4l0,0.5l0,0.6l0,0.6
			l0,0.7l0,0.3l0,0.6l0,0.6l0,0.6l0,0.6l0,0.6l0,0.6l0,0.5l0,0.5l0,0.1l0,0.4l0,0.4l0,0.3l0,0.3l0,0.2l0,0.2l0,0.1l0,0l0,0l0,0
			l0-0.1l0-0.1l0-0.2l0-0.2l0-0.3l0-0.3l0-0.4l0-0.5l0-0.6l0-0.6l0-0.4l0-0.9l0-0.8l0-0.8l0-0.7l0-0.7l0-0.6l0-0.5l0-0.5l0-0.4
			l0-0.3l0-0.2l0-0.1l0,0l0.1-0.1l0.1-0.1l0.1,0l0,0l0.1,0.1l0,0.2l0,0l0,0.1l0,0.2l0,0.2l0,0.3l0,0.4l0,0.4l0,0.5l0,0.5l0,0.3
			l0,0.8l0,0.8l0,0.8l0,0.8l0,0.8l0,0.7l0,0.7l0,0.7l0,0.6l0,0.6l0,0.5l0,0.5l0,0.4l0,0.4l0,0.3l0,0.2l0,0.1l0,0l0,0l0-0.1l0-0.2
			l0-0.3l0-0.4l0-0.4l0-0.5l0-0.5l0-0.6l0-0.6l0-0.7l0-0.7l0-0.7l0-0.8l0-0.8l0-0.6l0-0.7l0-0.6l0-0.5l0-0.5l0-0.4l0-0.3l0-0.3
			l0-0.2l0-0.2l0-0.1l0-0.1l0,0l0,0l0.1-0.1l0.1,0l0.1,0l0,0l0,0.1l0,0.1l0,0.2l0,0.3l0,0.3l0,0.4l0,0.5l0,0.6l0,0.6l0,0.7l0,0.8
			l0,0.9l0,1l0,0.4l0,0.8l0,0.7l0,0.6l0,0.5l0,0.5l0,0.4l0,0.3l0,0.3l0,0.2l0,0.2l0,0.1l0,0.1l0,0l0,0l0-0.1l0-0.1l0,0l0-0.1l0-0.2
			l0-0.3l0-0.4l0-0.4l0-0.5l0-0.5l0-0.5l0-0.5l0-0.3l0-0.9l0-0.9l0-0.8l0-0.8l0-0.7l0-0.6l0-0.5l0-0.5l0-0.4l0-0.3l0-0.2l0-0.1l0,0
			l0.1-0.1l0.1,0l0.1,0l0.1,0.1l0,0l0,0.1l0,0.2l0,0.3l0,0.3l0,0.4l0,0.5l0,0.5l0,0.6l0,0.6l0,0.7l0,0.7l0,0.7l0,0.7l0,0.7l0,0.1
			l0,0.4l0,0.3l0,0.3l0,0.2l0,0.1l0,0l0-0.1l0-0.2l0-0.2l0-0.3l0-0.4l0-0.5l0-0.6l0-0.4l0-0.9l0-0.8l0-0.7l0-0.6l0-0.5l0-0.5l0-0.4
			l0-0.3l0-0.2l0-0.1l0-0.1l0.1,0l0.1,0l0.1,0l0.1,0.1l0,0.1l0,0.2l0,0.3l0,0.3l0,0.4l0,0.5l0,0.5l0,0.6l0,0.6l0,0.7l0,0.7l0,0.7
			l0,0.3l0,0.3l0,0.2l0,0.2l0,0.1l0,0.1l0,0l0-0.1l0-0.1l0-0.2l0-0.3l0-0.4l0-0.5l0-0.5l0-0.6l0-0.3l0-0.6l0-0.5l0-0.4l0-0.4l0-0.3
			l0-0.2l0-0.2l0-0.1l0-0.1l0-0.1l0-0.1l0,0l0,0l0.1-0.1l0.1,0l0.1,0.1l0,0l0,0l0,0.1l0,0.1l0,0.1l0,0.2l0,0.2l0,0.3l0,0.3l0,0.4
			l0,0.5l0,0.5l0,0.6l0,0.7l0,0.8l0,0.7l0,0.4l0,0.3l0,0.3l0,0.2l0,0.2l0,0.1l0,0l0,0l0,0l0-0.1l0-0.1l0-0.2l0-0.3l0-0.3l0-0.4
			l0-0.4l0-0.3l0-0.8l0-0.7l0-0.6l0-0.5l0-0.4l0-0.4l0-0.3l0-0.3l0-0.2l0-0.1l0-0.1l0,0l0.1,0l0.1,0l0.1,0l0.1,0l0,0.1l0,0.2l0,0.3
			l0,0.4l0,0.5l0,0.6l0,0.7l0,0.8l0,0.8l0,0.2l0,0.4l0,0.4l0,0.3l0,0.3l0,0.2l0,0.1l0,0l0,0l0-0.1l0-0.2l0-0.2l0-0.3l0-0.4l0-0.4
			l0-0.6l0-0.6l0-0.5l0-0.5l0-0.5l0-0.4l0-0.3l0-0.3l0-0.2l0-0.1l0.1-0.1l0.1-0.1l0.1,0l0.1,0.1l0.1,0.1l0,0.2l0,0.2l0,0.3l0,0.4
			l0,0.5l0,0.6l0,0.5l0,0.4l0,0.4l0,0.4l0,0.4l0,0.3l0,0.2l0,0.3l0,0.3l0,0.2l0,0.2l0,0.1l0,0.1l0,0l0,0l0-0.1l0-0.1l0-0.2l0-0.3
			l0-0.3l0-0.3l0-0.7l0-0.7l0-0.6l0-0.5l0-0.4l0-0.4l0-0.3l0-0.2l0-0.2l0-0.2l0-0.1l0-0.1l0-0.1l0,0l0,0l0.1,0l0.1,0l0.1,0l0.1,0.1
			l0,0.1l0,0.1l0,0.2l0,0.2l0,0.3l0,0.4l0,0.5l0,0.5l0,0.6l0,0.5l0,0.6l0,0.5l0,0.4l0,0.3l0,0.2l0,0.1l0,0.1l0,0l0-0.1l0-0.2l0-0.2
			l0-0.3l0,0l0-0.7l0-0.6l0-0.6l0-0.5l0-0.4l0-0.3l0-0.3l0-0.2l0-0.2l0-0.1l0-0.1l0,0l0.1-0.1l0.1,0l0.1,0L20,221l0,0.1l0,0.2l0,0.3
			l0,0.4l0,0.5l0,0.6l0,0.6l0,0.7l0,0.7l0,0.3l0,0.2l0,0.2l0,0.1l0,0l0,0l0,0l0-0.1l0-0.2l0-0.3l0-0.3l0-0.4l0-0.3l0-0.6l0-0.5
			l0-0.4l0-0.4l0-0.3l0-0.2l0-0.2l0-0.1l0-0.1l0-0.1l0,0l0.1,0l0.1,0l0,0l0.1,0l0,0l0,0.1l0,0.1l0,0.1l0,0.2l0,0.2l0,0.3l0,0.4
			l0,0.5l0,0.5l0,0.1l0,0.3l0,0.3l0,0.3l0,0.2l0,0.1l0,0.1l0,0l0,0l0,0l0-0.1l0-0.1l0-0.2l0-0.3l0-0.3l0-0.2l0-0.6l0-0.5l0-0.4
			l0-0.3l0-0.2l0-0.2l0-0.1l0-0.1l0,0l0.1,0l0.1,0l0.1,0.1l0,0.1l0,0.1l0,0.2l0,0.3l0,0.3l0,0.4l0,0.5l0,0.6l0,0l0,0.3l0,0.3l0,0.3
			l0,0.2l0,0.2l0,0.1l0,0l0,0l0-0.1l0-0.2l0-0.3l0-0.3l0-0.3l0-0.1l0-0.5l0-0.4l0-0.4l0-0.3l0-0.2l0-0.2l0-0.1l0-0.1l0,0l0.1-0.1
			l0.1,0l0.1,0l0,0l0,0.1l0,0.1l0,0.2l0,0.3l0,0.4l0,0.5l0,0.5l0,0.3l0,0.3l0,0.2l0,0.2l0,0.1l0,0l0,0l0-0.1l0-0.1l0-0.2l0-0.2
			l0-0.3l0-0.1l0-0.5l0-0.4l0-0.3l0-0.3l0-0.2l0-0.2l0-0.1l0-0.1l0.1,0l0,0l0.1,0l0.1,0l0.1,0.1l0.1,0.1l0,0.2l0,0.2l0,0.3l0,0.4
			l0,0.4l0,0.2l0,0.4l0,0.3l0,0.2l0,0.2l0,0.1l0,0l0,0l0,0l0-0.1l0-0.2l0-0.2l0-0.3l0-0.1l0-0.5l0-0.4l0-0.3l0-0.2l0-0.2l0-0.1
			l0.1-0.1l0.1,0l0.1,0l0.1,0l0.1,0l0.1,0.1l0,0.1l0,0.1l0,0.2l0,0.3l0,0.4l0.1,0.4l0.1,0.5l0,0.3l0,0.2l0,0.1l0,0.1l0,0l0-0.1l0,0
			l0-0.1l0-0.2l0-0.2l0-0.3l0-0.3l0-0.4l0-0.3l0-0.2l0-0.2l0-0.1l0-0.1l0.1-0.1l0.1,0l0.1,0l0,0l0,0.1l0,0.2l0,0.2l0,0.3l0,0.4
			l0,0.4l0,0.3l0,0.2l0,0.2l0,0.1l0,0.1l0,0l0,0l0,0l0-0.1l0-0.2l0-0.2l0-0.3l0-0.3l0-0.3l0-0.3l0-0.2l0-0.2l0-0.1l0,0l0.1-0.2
			l0.1-0.1l0.1-0.1l0,0l0.1,0l0.1,0l0.1,0.1l0,0.1l0,0.2l0,0.2l0,0.3l0,0.4l0,0.1l0,0.3l0,0.2l0,0.2l0,0.1l0,0l0,0l0,0l0-0.1l0-0.2
			l0-0.2l0-0.2l0-0.3l0-0.3l0-0.2l0-0.2l0-0.1l0,0l0-0.1l0-0.1l0,0l0.1,0l0.1,0l0.1,0.1l0,0l0,0.1l0,0.2l0,0.3l0,0.3l0,0.4l0,0.4
			l0,0.2l0,0.2l0,0.1l0,0l0-0.1l0-0.1l0-0.2l0-0.2l0.1-0.4l0.1-0.3l0.1-0.2l0.1-0.2l0.1-0.1l0.1-0.1l0.1,0l0.1,0l0.1,0l0.1,0.1
			l0,0.1l0.1,0.2l0,0.2l0,0.3l0,0.4l0,0.1l0,0.2l0,0.1l0,0.1l0,0l0,0l0-0.1l0-0.2l0-0.2l0,0l0.1-0.3l0.1-0.3l0.1-0.2l0.1-0.1
			l0.1-0.1l0.1,0l0.1,0l0.1,0l0.1,0l0.1,0.1l0,0.1l0,0.2l0,0.3l0.1,0.3l0,0.1l0,0.2l0,0.2l0,0.1l0,0l0-0.1l0-0.1l0-0.2l0.1-0.2
			l0-0.1l0.1-0.2l0.1-0.2l0.1-0.2l0-0.1l0,0l0.1-0.1l0.1,0l0.1,0l0,0l0.1,0.1l0.1,0.2l0.1,0.2l0.1,0.3l0,0.1l0,0.2l0,0.2l0,0.1l0,0
			l0,0l0,0l0-0.1l0-0.2l0-0.2l0,0l0.1-0.2l0.1-0.2l0-0.2l0-0.1l0.1-0.2l0.1-0.1l0.1,0l0.1,0.1l0.1,0.1l0,0.1l0,0.2l0,0.2l0,0.2
			l0,0.2l0,0.2l0,0.1l0,0l0,0l0-0.1l0-0.1L34,224l0.1-0.3l0.1-0.2l0.1-0.1l0.1-0.1l0.1,0l0,0l0.1,0l0.1,0.1l0.1,0.1l0.1,0.2l0.1,0.2
			l0,0.1l0.1,0.2l0,0.2l0,0.1l0,0l0,0l0-0.1l0-0.2l0-0.1l0.1-0.3l0.1-0.2l0.1-0.1l0.1-0.1l0.1,0l0.1,0l0.1,0l0.1,0.1l0.1,0.2
			l0.1,0.3l0,0.1l0.1,0.2l0,0.2l0,0.1l0,0l0-0.1l0-0.2l0-0.1l0.1-0.3l0.1-0.2l0.1-0.1l0,0l0.1,0l0.1,0l0.1,0l0.1,0.1l0.1,0.2L37,224
			l0.1,0.2l0,0.2l0,0.1l0,0l0,0l0-0.1l0.1-0.2l0.1-0.2l0.1-0.3l0.1-0.2l0.1-0.1l0.1,0l0.1,0l0.1,0l0.1,0.1l0.1,0.1l0.1,0.1l0.1,0.2
			l0.1,0.3l0,0.1l0,0l0,0l0-0.1l0.1-0.2l0,0l0.1-0.3l0.1-0.2l0.1-0.1l0.1,0l0.1,0l0.1,0.1l0.1,0.1l0.1,0.2l0.1,0.2l0.1,0.2l0.1,0.1
			l0,0.1l0,0l0,0l0-0.1l0-0.1l0.1-0.3l0.1-0.2l0.1-0.1l0.1,0l0.1,0l0,0l0.1,0.1l0.1,0.1l0.1,0.1l0.1,0.2l0.1,0.2l0,0.1l0,0l0,0l0,0
			l0-0.1l0.1-0.2l0,0l0.1-0.2l0.1-0.1l0.1-0.1l0.2,0l0.1,0l0.1,0.1l0.1,0.1l0.1,0.2l0,0l0.1,0.2l0.1,0.1l0,0.1l0,0l0,0l0.1-0.1
			l0.1-0.1l0.1-0.2l0.1-0.1l0.1-0.1l0.1,0l0,0l0.1,0l0.1,0l0.1,0.1l0.1,0.2l0.1,0.1l0.1,0.3l0.1-0.2l0.1-0.3l0.1-0.2l0.1-0.1l0,0
			l0.1,0l0.1,0l0.1,0.1l0.1,0.2l0,0l0.1,0.3l0.1-0.2l0.1-0.2l0.1-0.1l0.1,0l0.1,0l0.2,0l0.1,0.1l0.1,0.2l0.1,0.1l0.1,0.1l0,0l0,0
			l0.1-0.1l0-0.1l0.1-0.2l0.1-0.1l0.1-0.1l0.1,0l0.2,0l0.1,0.1l0.1,0.2l0,0.1l0.1,0.1l0,0.1l0,0l0,0l0.1-0.1l0.1-0.1l0.1-0.1
			l0.1-0.1l0.1,0l0,0l0.2,0l0.1,0.1l0.1,0.2l0,0l0.1,0.1l0,0.1l0,0l0,0l0.1-0.1l0.1-0.1l0.1-0.1l0.1-0.1l0.1,0l0,0l0.1,0l0.1,0
			l0.1,0.1l0.1,0.1l0.2,0.2l0.2-0.2l0.2-0.1l0.2-0.1l0.2,0l0.2,0.1l0.2,0.1l0.2-0.1l0.2-0.1l0.3,0l0.2,0.1l0.1,0l0.1,0l0.1,0l0,0
			l0.1,0l0.1,0l0.1,0l0.2,0l0.2,0l0.3,0l0.3,0l1.2,0v0.4l-1.1,0l-0.4,0l-0.3,0l-0.2,0l-0.2,0l-0.1,0l0,0l-0.3,0l-0.3,0l-0.1,0
			l-0.1,0l-0.1,0l-0.1,0l-0.1,0l-0.2,0.1l-0.2,0l-0.2-0.1l-0.1,0l-0.2-0.1l-0.2,0.2l-0.1,0.1l-0.1,0.1l-0.1,0l-0.1,0l-0.1,0
			l-0.1-0.1l-0.1-0.1l-0.2-0.2l-0.1,0.2l-0.1,0.1l-0.1,0.1l-0.1,0l-0.1,0l-0.1,0l-0.1-0.1l-0.1-0.1l-0.1-0.2l0,0l-0.1-0.2l-0.1,0.2
			l-0.1,0.1l-0.1,0.1l-0.1,0l-0.1,0l-0.2,0l-0.1-0.1l-0.1-0.2l-0.1-0.1l0,0l0,0l0,0l-0.1,0.1l-0.1,0.1l-0.1,0.2l-0.2,0.1l-0.2,0
			l-0.2-0.1l-0.1-0.2l-0.1-0.1l-0.1-0.2l-0.1,0.2l-0.1,0.2l-0.1,0.1l-0.1,0.1l-0.1,0l0,0l-0.1,0l-0.1-0.1l-0.1-0.2l-0.1-0.1
			l-0.1-0.1l0-0.1l0,0l0,0l0,0.1l0,0.1l-0.1,0.2l-0.1,0.2l-0.1,0.1l-0.1,0l-0.1,0l-0.1-0.1l-0.1-0.1l-0.1-0.2l0-0.1l-0.1-0.3
			l-0.2,0.3l-0.1,0.2l-0.1,0.1l-0.1,0.1l-0.1,0l-0.1,0l-0.1-0.1l-0.1-0.1l-0.1-0.2l-0.1-0.2l0-0.1l0,0l0,0.1l-0.1,0.1l-0.1,0.3
			l-0.1,0.2l-0.1,0.1l-0.1,0l-0.1,0l0,0l-0.1-0.1l-0.1-0.2l-0.1-0.2l0-0.2l0-0.1l0-0.1l0,0l0,0l0,0.1l0,0.1l-0.1,0.3l-0.1,0.2
			l-0.1,0.1l-0.1,0l-0.2,0l-0.1,0l-0.1-0.1l-0.1-0.2l-0.1-0.2l-0.1-0.4l-0.1,0.5l-0.1,0.2l-0.1,0.2l-0.1,0.1l-0.1,0.1l-0.1,0l-0.1,0
			L38,225l-0.1-0.2l0-0.1l-0.1-0.2l0-0.1l0-0.1l0,0l0,0l-0.1,0.3l-0.1,0.2l-0.1,0.2l-0.1,0.1l-0.1,0.1l-0.1,0l-0.1,0h0l-0.1,0
			l-0.1-0.1l-0.1-0.2l0-0.1l-0.1-0.2l0-0.2l0-0.1l-0.1-0.2l-0.1,0.4l-0.1,0.3l-0.1,0.2l-0.1,0.1l-0.1,0.1l-0.1,0l-0.1,0l0,0l-0.1,0
			l-0.1-0.1l-0.1-0.1l-0.1-0.2l-0.1-0.3l0-0.1l0-0.2l0-0.1l0,0l0,0l0,0.1l0,0.1l0,0.2l0,0.1l-0.1,0.3l-0.1,0.2l-0.1,0.1l-0.1,0.1
			l-0.1,0l-0.1,0l-0.1-0.1l-0.1-0.1l-0.1-0.2l-0.1-0.2l0-0.1l-0.1-0.2l0-0.2l0-0.1l0,0l0,0l0,0.1l0,0.1l0,0.2l0,0.2l0,0.2l0,0.2
			l0,0.1l0,0.1l-0.1,0.1l-0.1,0l-0.1,0l-0.1-0.1l-0.1-0.1l0-0.1l0-0.2l0-0.2l0-0.2l0-0.2l0-0.2l0-0.1l0,0l0,0l0,0.1l0,0.2l-0.1,0.2
			l0,0.1l-0.1,0.3l-0.1,0.2l-0.1,0.2l-0.1,0.1l-0.1,0.1l-0.1,0l-0.1,0l-0.1,0l-0.1-0.1l-0.1-0.1l-0.1-0.2l-0.1-0.2l-0.1-0.3l0-0.2
			l0-0.2l0-0.2l0-0.1l0,0l0,0l0,0l0,0.1l-0.1,0.2l-0.1,0.2l-0.1,0.3l-0.1,0.2l-0.1,0.2l0,0.1l-0.1,0.1l-0.1,0l-0.1,0l-0.1,0
			l-0.1-0.1l-0.1-0.1l0,0l0-0.1l0-0.2l0-0.2l0-0.2l0-0.2l0-0.1l0,0l0-0.1l0,0l0,0l0,0.1l0,0.2l0,0.2l0,0.1l0,0.3l0,0.2l0,0.2l0,0.1
			l0,0l-0.1,0.2l-0.1,0.1l-0.1,0l-0.1-0.1l-0.1-0.1l0-0.1l0-0.2l0-0.2l0-0.2l0-0.2l0-0.2l0-0.2l0-0.1l0,0l0-0.1l0,0l0,0.1l0,0.2
			l-0.1,0.3l0,0.1l-0.1,0.3l0,0.3l0,0.2l0,0.1l0,0.1l0,0.1l0,0l-0.1,0.1l-0.1,0l-0.1,0l-0.1-0.1l-0.1-0.2l-0.1-0.3l-0.1-0.3l0-0.3
			l0-0.2l0-0.2l0-0.2l0-0.1l0,0l0,0l0,0.1l0,0.2l0,0.2l0,0.2l0,0.3l0,0.3l0,0.2l0,0.2l0,0.1l-0.1,0.2l-0.1,0.1l-0.1,0l-0.1,0L28,226
			l-0.1-0.2l0-0.1l0-0.1l0-0.2l0-0.3l0-0.3l0-0.2l0-0.3l0-0.2l0-0.2l0-0.1l0,0l0,0l0,0l0,0.1l0,0.1l0,0.2l0,0.3l0,0.4l-0.1,0.4
			l0,0.3l0,0.2l0,0.2l0,0.1l-0.1,0.1l-0.1,0l-0.1,0l0,0l-0.1,0l-0.1,0l0-0.1l0-0.1l0-0.1l0-0.2l0-0.2l0-0.3l0-0.2l0-0.3l0-0.3l0-0.2
			l0-0.1l0,0l0,0.1l0,0.2l0,0.1l0,0.3l0,0.3l0,0.3l0,0.3l0,0.2l0,0.2l0,0.1l-0.1,0.1l-0.1,0.1l-0.1,0l-0.1-0.1l0-0.1l0-0.1l0-0.2
			l0-0.3l-0.1-0.4l-0.1-0.5l0-0.2l0-0.3l0-0.2l0-0.2l0-0.1l0,0l0,0l0,0.1l0,0.2l0,0.2l0,0.3l0,0.2l0,0.5l0,0.4l0,0.3l0,0.2l0,0.2
			l0,0.1l0,0.1l0,0l-0.1,0.1l-0.1,0l-0.1,0l0,0l0-0.1l0-0.2l0-0.2l0-0.3l0-0.4l0-0.5l0-0.3l0-0.3l0-0.3l0-0.2l0-0.2l0-0.1l0,0l0,0
			l0,0.1l0,0.2l0,0.3l0,0.3l0,0.3l0,0.1l0,0.5l0,0.4l0,0.3l0,0.2l0,0.2l0,0.1l0,0.1l0,0.1l-0.1,0l-0.1,0l0,0l-0.1,0l-0.1,0l0,0
			l0-0.1l0-0.1l0-0.1l0-0.2l0-0.2l0-0.3l0-0.4l0-0.5l0-0.5l0-0.1l0-0.3l0-0.2l0-0.2l0-0.1l0,0l0,0.1l0,0.1l0,0.1l0,0.2l0,0.3l0,0.3
			l0,0.3l0,0.4l0,0.3l0,0.3l0,0.3l0,0.2l0,0.2l0,0.3l0,0.2l0,0.1l-0.1,0.1l-0.1,0l0,0l-0.1,0l-0.1-0.1l-0.1-0.2l0-0.1l0-0.2l0-0.3
			l0-0.4l0-0.4l0-0.5l0-0.5l0-0.2l0-0.4l0-0.3l0-0.3l0-0.2l0-0.1l0-0.1l0,0l0,0l0,0.1l0,0.2l0,0.3l0,0.3l0,0.3l0,0.2l0,0.6l0,0.5
			l0,0.4l0,0.4l0,0.3l0,0.2l0,0.2l0,0.1l0,0l-0.1,0.1l-0.1,0.1l-0.1,0l-0.1-0.1l0-0.1l0-0.1l0-0.2l0-0.3l0-0.4l0-0.4l0-0.5l0-0.5
			l0-0.4l0-0.3l0-0.3l0-0.3l0-0.2l0-0.1l0,0l0,0l0,0.1l0,0.2l0,0.3l0,0.3l0,0.3l0,0.3l0,0.7l0,0.6l0,0.5l0,0.4l0,0.3l0,0.2l0,0.2
			l0,0l0,0.1l-0.1,0l-0.1,0l-0.1,0l-0.1-0.1l0,0l0-0.1l0-0.2l0-0.3l0-0.4l0-0.5l0-0.5l0-0.6l0-0.2l0-0.4l0-0.4l0-0.3l0-0.3l0-0.2
			l0-0.1l0,0l0,0l0,0.1l0,0.1l0,0.2l0,0.2l0,0.3l0,0.3l0,0.4l0,0.4l0,0.4l0,0.4l0,0.3l0,0.3l0,0.2l0,0.2l0,0.1l0,0.3l0,0.2l0,0.2
			l0,0.1l-0.1,0.1l-0.1,0l-0.1,0l-0.1-0.1l0,0l0-0.1l0-0.2l0-0.3l0-0.4l0-0.4l0-0.5l0-0.6l0-0.7l0-0.4l0-0.3l0-0.3l0-0.2l0-0.2
			l0-0.1l0,0l0,0l0,0.1l0,0.2l0,0.2l0,0.3l0,0.1l0,0.8l0,0.7l0,0.6l0,0.6l0,0.5l0,0.4l0,0.3l0,0.2l0,0.1l-0.1,0.1l-0.1,0l-0.1-0.1
			l-0.1-0.1l0-0.1l0-0.2l0-0.2l0-0.3l0-0.3l0-0.4l0-0.5l0-0.6l0-0.6l0-0.6l0-0.5l0-0.4l0-0.4l0-0.3l0-0.2l0-0.1l0-0.1l0,0l0,0.1
			l0,0.1l0,0.2l0,0.3l0,0.4l0,0.4l0,0.4l0,0.5l0,0.5l0,0l0,0.7l0,0.6l0,0.5l0,0.4l0,0.4l0,0.3l0,0.2l0,0.2l0,0.1l0,0.1l0,0.1l0,0
			l0,0l0,0l0,0l0,0l0,0l-0.1,0l-0.1-0.1l0-0.1l0-0.1l0-0.2l0-0.3l0-0.4l0-0.5l0-0.6l0-0.7l0-0.7l0-0.8l0-0.9l0-0.8l0-0.3l0-0.2
			l0-0.2l0-0.1l0-0.1l0,0l0,0l0,0.1l0,0.2l0,0.3l0,0.3l0,0.4l0,0.4l0,0.2l0,0.8l0,0.8l0,0.7l0,0.6l0,0.5l0,0.5l0,0.4l0,0.3l0,0.3
			l0,0.2l0,0.2l0,0.1l0,0.1l0,0.1l0,0l-0.1,0.1l-0.1,0l-0.1,0l-0.1,0l0-0.1l0,0l0-0.1l0-0.2l0-0.3l0-0.4l0-0.4l0-0.5l0-0.6l0-0.6
			l0-0.3l0-0.7l0-0.6l0-0.5l0-0.4l0-0.3l0-0.3l0-0.2l0-0.2l0-0.1l0-0.1l0,0l0,0l0,0l0,0.1l0,0.1l0,0.1l0,0.1l0,0.2l0,0.3l0,0.3
			l0,0.4l0,0.4l0,0.5l0,0.5l0,0l0,0.7l0,0.7l0,0.6l0,0.6l0,0.5l0,0.4l0,0.4l0,0.3l0,0.2l0,0.1l-0.1,0.1l-0.1,0.1l-0.1,0l0,0l0,0l0,0
			l0-0.1l0-0.1l0-0.2l0-0.2l0-0.3l0-0.3l0-0.4l0-0.5l0-0.4l0-0.5l0-0.5l0-0.5l0-0.5l0-0.5l0-0.5l0-0.5l0-0.5l0-0.5l0-0.4l0-0.4
			l0-0.3l0-0.3l0-0.2l0-0.1l0-0.1l0,0l0,0.1l0,0.2l0,0.2l0,0.3l0,0.4l0,0.4l0,0.5l0,0.5l0,0.5l0,0.4l0,0.9l0,0.8l0,0.7l0,0.6l0,0.6
			l0,0.5l0,0.4l0,0.4l0,0.3l0,0.2l0,0.2l0,0.1l0,0.1l0,0l-0.1,0.1l-0.1,0l-0.1,0l-0.1-0.1l0-0.1l0-0.2l0-0.2l0-0.2l0-0.3l0-0.4
			l0-0.4l0-0.5l0-0.5l0-0.5l0-0.5l0-0.6l0-0.5l0-0.5l0-0.2l0-0.6l0-0.6l0-0.6l0-0.5l0-0.5l0-0.4l0-0.4l0-0.3l0-0.3l0-0.2l0-0.1l0,0
			l0,0l0,0.1l0,0.1l0,0.3l0,0.4l0,0.4l0,0.5l0,0.5l0,0.5l0,0.6l0,0.6l0,0.6l0,0.5l0,0.5l0,0.5l0,0.4l0,0.4l0,0.3l0,0.2l0,0.1l0,0.7
			l0,0.6l0,0.5l0,0.5l0,0.4l0,0.3l0,0.2l0,0.1l0,0.1l-0.1,0l-0.1,0l-0.1,0l-0.1-0.1l0-0.1l0-0.2l0-0.3l0-0.3l0-0.4l0-0.5l0-0.6
			l0-0.7l0-0.8l0-0.9l0-0.8l0-0.6l0-0.5l0-0.5l0-0.4l0-0.4l0-0.3l0-0.3l0-0.2l0-0.1l0,0l0,0l0,0l0,0.1l0,0.1l0,0.1l0,0.2l0,0.2
			l0,0.3l0,0.4l0,0.4l0,0.5l0,0.6l0,0.7l0,0.2l0,0.9l0,0.8l0,0.7l0,0.6l0,0.6l0,0.5l0,0.4l0,0.4l0,0.3l0,0.3l0,0.2l0,0.2l0,0.1
			l0,0.1l0,0.1l0,0l0,0l-0.1,0.1l-0.1,0l-0.1-0.1l0-0.1l0-0.1l0-0.2l0-0.3l0-0.4l0-0.4l0-0.5l0-0.6l0-0.6l0-0.7l0-0.7l0-0.8l0-0.8
			l0-0.8l0-0.2l0-0.5l0-0.5l0-0.5l0-0.4l0-0.4l0-0.3l0-0.3l0-0.2l0-0.7l0,0.6l0,0.2l0,0.3l0,0.3l0,0.4l0,0.4l0,0.4l0,0.2l0,0.3
			l0,0.4l0,0.5l0,0.5l0,0.6l0,0.6l0,0.6l0,0.6l0,0.6l0,0.3l0,0.7l0,0.6l0,0.6l0,0.5l0,0.4l0,0.3l0,0.3l0,0.2l0,0.2l0,0.1l0,0.1
			l0,0.1l0,0.1l0,0l0,0l0,0l-0.1,0l-0.1-0.1l-0.1-0.1l0-0.1l0-0.1l0-0.2l0-0.3l0-0.3l0-0.4l0-0.5l0-0.6l0-0.7l0-0.7l0-0.8l0-0.9l0-1
			l0-1.1l0-0.3l0-0.7l0-0.6l0-0.6l0-0.6l0-0.5l0-0.5l0-0.4l0-0.3l0-0.3l0-0.2l0-0.1l0,0l0,0l0,0.1l0,0.2l0,0.3l0,0.4l0,0.4l0,0.5
			l0,0.6l0,0.6l0,0.7l0,0.8l0,0.8l0,0.9l0,0.9l0,0.9l0,1l0,0.4l0,0.8l0,0.8l0,0.7l0,0.6l0,0.5l0,0.4l0,0.3l0,0.3l0,0.2l0,0.1l0,0
			l-0.1,0.1l-0.1,0l-0.1,0l-0.1-0.1l0,0l0-0.1l0-0.1l0-0.1l0-0.2l0-0.2l0-0.3l0-0.3l0-0.4l0-0.4l0-0.5l0-0.6l0-0.6l0-0.7l0-0.8
			l0-0.9l0-0.9l0-1l0-0.9l0-0.8l0-0.7l0-0.6l0-0.6l0-0.5l0-0.4l0-0.4l0-0.3l0-0.3l0-0.2l0-0.2l0-0.2l0-0.1l0-0.1l0-0.1l0-0.1l0,0
			l0,0l0,0.1l0,0.2l0,0.3l0,0.2l0,0.2l0,0.3l0,0.4l0,0.4l0,0.5l0,0.5l0,0.6l0,0.6l0,0.6l0,0.6l0,0.4l0,1.2l0,1.1l0,1.1l0,1l0,0.9
			l0,0.8l0,0.7l0,0.7l0,0.6l0,0.5l0,0.5l0,0.4l0,0.3l0,0.3l0,0.2l0,0.2l0,0.1l0,0.1l0,0l0,0l-0.1,0l-0.1,0l-0.1,0l-0.1-0.1l0-0.1
			l0-0.1l0-0.2l0-0.2l0-0.3l0-0.4l0-0.4l0-0.5l0-0.5l0-0.6l0-0.6l0-0.4l0-1.5l0-1.4l0-1.3l0-1.2l0-1.1l0-1.1l0-1l0-0.9l0-0.8l0-0.7
			l0-0.6l0-0.5l0-0.4l0-0.4l0-0.3l0-0.2l0-0.1l0,0l0,0l0,0.1l0,0.2l0,0.3l0,0.4l0,0.4l0,0.5l0,0.5l0,0.6l0,0.6l0,0.7l0,0.7l0,0.7
			l0,0.7l0,0.7l0,0.8l0,0.8l0,0.7l0,0.7l0,0.7l0,0.7l0,0.6l0,1l0,0.9l0,0.8l0,0.8l0,0.7l0,0.6l0,0.5l0,0.5l0,0.4l0,0.3l0,0.3l0,0.2
			l0,0.2l0,0.1l0,0.1l0,0.1l0,0l0,0l-0.1,0.1l-0.1,0l-0.1,0l0,0l0-0.1l0-0.1l0-0.2l0-0.2l0-0.1l0-0.1l0-0.2l0-0.3l0-0.4l0-0.4l0-0.5
			l0-0.6l0-0.6l0-0.7l0-0.7l0-0.7l0-0.8l0-0.8l0-0.8l0-0.8l0-0.8l0-0.8l0-0.8l0-0.8l0-0.8l0-0.8l0-0.8l0-0.7l0-0.7l0-0.6l0-0.6
			l0-0.5l0-0.5l0-0.4l0-0.2l0-0.3l0-0.2l0-0.1l0-0.1l0,0l0,0l0,0.1l0,0.2l0,0.3l0,0.3l0,0.4l0,0.4l0,0.5l0,0.5l0,0.3l0,0.5l0,0.5
			l0,0.6l0,0.7l0,0.7l0,0.7l0,0.7l0,0.7l0,0.7l0,0.7l0,0.1l0,0.7l0,0.8l0,0.8l0,0.9l0,0.9l0,0.9l0,0.9l0,0.9l0,0.8l0,0.8l0,0.2
			l0,0.6l0,0.6l0,0.6l0,0.5l0,0.5l0,0.5l0,0.4l0,0.3l0,0.3l0,0.2l0,0.1l0,0l-0.1,0.1l-0.1,0l-0.1,0L6,242.3l0,0l0-0.1l0-0.2l0-0.3
			l0-0.4l0-0.4l0-0.5l0-0.6l0-0.7l0-0.8l0-0.9l0-1l0-1.1l0-1.1l0-1.2l0-1.3l0-1.4l0-1.5l0-1.6l0-0.9l0-0.7l0-0.6l0-0.6l0-0.6l0-0.5
			l0-0.5l0-0.4l0-0.4l0-0.3l0-0.2l0-0.1l0,0h0l0,0l0,0.1l0,0.2l0,0.2l0,0.3l0,0.4l0,0.5l0,0.6l0,0.6l0,0.7l0,0.8l0,0.9l0,1l0,1
			l0,1.1l0,1.2l0,1.3l0,1.4l0,1.5l0,0.1l0,0.7l0,0.7l0,0.7l0,0.7l0,0.7l0,0.6l0,0.6l0,0.6l0,0.5l0,0.4l0,0.3l0,0.1l0,0.5l0,0.4
			l0,0.3l0,0.3l0,0.2l0,0.1l0,0.1l0,0.1l0,0l0,0l-0.1,0l0,0l0,0l0,0l0-0.1l0-0.1l0-0.1l0-0.2l0-0.2l0-0.3l0-0.3l0-0.4l0-0.5l0-0.5
			l0-0.6l0-0.7l0-0.6l0-0.8l0-0.9l0-0.9l0-0.9l0-1l0-1l0-1l0-1l0-0.9l0-0.9l0-0.9l0-0.8l0-0.8l0-0.7l0-0.6l0-0.6l0-0.2l0-0.7H3.7
			v-0.4h1.5l0,0.5l0,0.3l0,0.3l0,0.3l0,0.1l0,0.1l0,0l0-0.1l0-0.2l0-0.2l0-0.3l0-0.4l0-0.5l0-0.5l0-0.6l0-0.7l0-0.8l0-0.9l0-1l0-1
			l0-1.1l0-1.2l0-0.3l0-0.9l0-0.9l0-0.8l0-0.7l0-0.6l0-0.5l0-0.5l0-0.4l0-0.3l0-0.3l0-0.2l0-0.2l0-0.1l0-0.1l0-0.1l0,0l0.1-0.1
			L5.7,209.2z"/>
	</g>
	<g>
		<path class="st6" d="M0.1,269.2v11.3"/>
		<path class="st6" d="M0.1,75v11.3"/>
		<circle class="st6" cx="28.2" cy="74.1" r="10.1"/>
		<path class="st6" d="M56.8,364.4H0.1"/>
		<circle class="st6" cx="43.4" cy="308.9" r="7.1"/>
		<circle class="st6" cx="28.2" cy="112.4" r="10.1"/>
		<path class="st6" d="M56.8,0.1v364.3"/>
		<path class="st6" d="M0.1,0.1h56.7"/>
		<circle class="st6" cx="28.2" cy="152.1" r="10.1"/>
		<path class="st6" d="M0.1,269.2V86.3"/>
		<path class="st6" d="M0.1,364.4v-83.9"/>
		<circle class="st6" cx="15.3" cy="310.9" r="10.1"/>
		<path class="st6" d="M0.1,75V0.1"/>
	</g>
</g>
</svg>
