%TF.GenerationSoftware,KiCad,Pcbnew,(6.0.0-0)*%
%TF.CreationDate,2022-11-10T22:32:44-05:00*%
%TF.ProjectId,ADSR-Generator,41445352-2d47-4656-9e65-7261746f722e,rev?*%
%TF.SameCoordinates,Original*%
%TF.FileFunction,Legend,Top*%
%TF.FilePolarity,Positive*%
%FSLAX46Y46*%
G04 Gerber Fmt 4.6, Leading zero omitted, Abs format (unit mm)*
G04 Created by KiCad (PCBNEW (6.0.0-0)) date 2022-11-10 22:32:44*
%MOMM*%
%LPD*%
G01*
G04 APERTURE LIST*
%ADD10C,0.300000*%
%ADD11C,0.600000*%
%ADD12C,0.200000*%
%ADD13C,0.100000*%
%ADD14C,0.052916*%
%ADD15C,0.120000*%
G04 APERTURE END LIST*
D10*
X227838857Y-60102666D02*
X229743619Y-60102666D01*
X227457904Y-61245523D02*
X228791238Y-57245523D01*
X230124571Y-61245523D01*
X231457904Y-61245523D02*
X231457904Y-57245523D01*
X232410285Y-57245523D01*
X232981714Y-57436000D01*
X233362666Y-57816952D01*
X233553142Y-58197904D01*
X233743619Y-58959809D01*
X233743619Y-59531238D01*
X233553142Y-60293142D01*
X233362666Y-60674095D01*
X232981714Y-61055047D01*
X232410285Y-61245523D01*
X231457904Y-61245523D01*
X235267428Y-61055047D02*
X235838857Y-61245523D01*
X236791238Y-61245523D01*
X237172190Y-61055047D01*
X237362666Y-60864571D01*
X237553142Y-60483619D01*
X237553142Y-60102666D01*
X237362666Y-59721714D01*
X237172190Y-59531238D01*
X236791238Y-59340761D01*
X236029333Y-59150285D01*
X235648380Y-58959809D01*
X235457904Y-58769333D01*
X235267428Y-58388380D01*
X235267428Y-58007428D01*
X235457904Y-57626476D01*
X235648380Y-57436000D01*
X236029333Y-57245523D01*
X236981714Y-57245523D01*
X237553142Y-57436000D01*
X241553142Y-61245523D02*
X240219809Y-59340761D01*
X239267428Y-61245523D02*
X239267428Y-57245523D01*
X240791238Y-57245523D01*
X241172190Y-57436000D01*
X241362666Y-57626476D01*
X241553142Y-58007428D01*
X241553142Y-58578857D01*
X241362666Y-58959809D01*
X241172190Y-59150285D01*
X240791238Y-59340761D01*
X239267428Y-59340761D01*
D11*
X226314000Y-54610000D02*
X224028000Y-54610000D01*
X242824000Y-54610000D02*
X245618000Y-54610000D01*
X238506000Y-52070000D02*
X242824000Y-54610000D01*
X234696000Y-52070000D02*
X238506000Y-52070000D01*
X232918000Y-48260000D02*
X234696000Y-52070000D01*
X229108000Y-54610000D02*
X232918000Y-48260000D01*
X226314000Y-54610000D02*
X229108000Y-54610000D01*
D12*
X220299142Y-63611142D02*
X220965809Y-63611142D01*
X221251523Y-64658761D02*
X220299142Y-64658761D01*
X220299142Y-62658761D01*
X221251523Y-62658761D01*
X222108666Y-63325428D02*
X222108666Y-64658761D01*
X222108666Y-63515904D02*
X222203904Y-63420666D01*
X222394380Y-63325428D01*
X222680095Y-63325428D01*
X222870571Y-63420666D01*
X222965809Y-63611142D01*
X222965809Y-64658761D01*
X223727714Y-63325428D02*
X224203904Y-64658761D01*
X224680095Y-63325428D01*
X226203904Y-64563523D02*
X226013428Y-64658761D01*
X225632476Y-64658761D01*
X225442000Y-64563523D01*
X225346761Y-64373047D01*
X225346761Y-63611142D01*
X225442000Y-63420666D01*
X225632476Y-63325428D01*
X226013428Y-63325428D01*
X226203904Y-63420666D01*
X226299142Y-63611142D01*
X226299142Y-63801619D01*
X225346761Y-63992095D01*
X227442000Y-64658761D02*
X227251523Y-64563523D01*
X227156285Y-64373047D01*
X227156285Y-62658761D01*
X228489619Y-64658761D02*
X228299142Y-64563523D01*
X228203904Y-64468285D01*
X228108666Y-64277809D01*
X228108666Y-63706380D01*
X228203904Y-63515904D01*
X228299142Y-63420666D01*
X228489619Y-63325428D01*
X228775333Y-63325428D01*
X228965809Y-63420666D01*
X229061047Y-63515904D01*
X229156285Y-63706380D01*
X229156285Y-64277809D01*
X229061047Y-64468285D01*
X228965809Y-64563523D01*
X228775333Y-64658761D01*
X228489619Y-64658761D01*
X230013428Y-63325428D02*
X230013428Y-65325428D01*
X230013428Y-63420666D02*
X230203904Y-63325428D01*
X230584857Y-63325428D01*
X230775333Y-63420666D01*
X230870571Y-63515904D01*
X230965809Y-63706380D01*
X230965809Y-64277809D01*
X230870571Y-64468285D01*
X230775333Y-64563523D01*
X230584857Y-64658761D01*
X230203904Y-64658761D01*
X230013428Y-64563523D01*
X232584857Y-64563523D02*
X232394380Y-64658761D01*
X232013428Y-64658761D01*
X231822952Y-64563523D01*
X231727714Y-64373047D01*
X231727714Y-63611142D01*
X231822952Y-63420666D01*
X232013428Y-63325428D01*
X232394380Y-63325428D01*
X232584857Y-63420666D01*
X232680095Y-63611142D01*
X232680095Y-63801619D01*
X231727714Y-63992095D01*
X236108666Y-62754000D02*
X235918190Y-62658761D01*
X235632476Y-62658761D01*
X235346761Y-62754000D01*
X235156285Y-62944476D01*
X235061047Y-63134952D01*
X234965809Y-63515904D01*
X234965809Y-63801619D01*
X235061047Y-64182571D01*
X235156285Y-64373047D01*
X235346761Y-64563523D01*
X235632476Y-64658761D01*
X235822952Y-64658761D01*
X236108666Y-64563523D01*
X236203904Y-64468285D01*
X236203904Y-63801619D01*
X235822952Y-63801619D01*
X237822952Y-64563523D02*
X237632476Y-64658761D01*
X237251523Y-64658761D01*
X237061047Y-64563523D01*
X236965809Y-64373047D01*
X236965809Y-63611142D01*
X237061047Y-63420666D01*
X237251523Y-63325428D01*
X237632476Y-63325428D01*
X237822952Y-63420666D01*
X237918190Y-63611142D01*
X237918190Y-63801619D01*
X236965809Y-63992095D01*
X238775333Y-63325428D02*
X238775333Y-64658761D01*
X238775333Y-63515904D02*
X238870571Y-63420666D01*
X239061047Y-63325428D01*
X239346761Y-63325428D01*
X239537238Y-63420666D01*
X239632476Y-63611142D01*
X239632476Y-64658761D01*
X241346761Y-64563523D02*
X241156285Y-64658761D01*
X240775333Y-64658761D01*
X240584857Y-64563523D01*
X240489619Y-64373047D01*
X240489619Y-63611142D01*
X240584857Y-63420666D01*
X240775333Y-63325428D01*
X241156285Y-63325428D01*
X241346761Y-63420666D01*
X241442000Y-63611142D01*
X241442000Y-63801619D01*
X240489619Y-63992095D01*
X242299142Y-64658761D02*
X242299142Y-63325428D01*
X242299142Y-63706380D02*
X242394380Y-63515904D01*
X242489619Y-63420666D01*
X242680095Y-63325428D01*
X242870571Y-63325428D01*
X244394380Y-64658761D02*
X244394380Y-63611142D01*
X244299142Y-63420666D01*
X244108666Y-63325428D01*
X243727714Y-63325428D01*
X243537238Y-63420666D01*
X244394380Y-64563523D02*
X244203904Y-64658761D01*
X243727714Y-64658761D01*
X243537238Y-64563523D01*
X243442000Y-64373047D01*
X243442000Y-64182571D01*
X243537238Y-63992095D01*
X243727714Y-63896857D01*
X244203904Y-63896857D01*
X244394380Y-63801619D01*
X245061047Y-63325428D02*
X245822952Y-63325428D01*
X245346761Y-62658761D02*
X245346761Y-64373047D01*
X245442000Y-64563523D01*
X245632476Y-64658761D01*
X245822952Y-64658761D01*
X246775333Y-64658761D02*
X246584857Y-64563523D01*
X246489619Y-64468285D01*
X246394380Y-64277809D01*
X246394380Y-63706380D01*
X246489619Y-63515904D01*
X246584857Y-63420666D01*
X246775333Y-63325428D01*
X247061047Y-63325428D01*
X247251523Y-63420666D01*
X247346761Y-63515904D01*
X247442000Y-63706380D01*
X247442000Y-64277809D01*
X247346761Y-64468285D01*
X247251523Y-64563523D01*
X247061047Y-64658761D01*
X246775333Y-64658761D01*
X248299142Y-64658761D02*
X248299142Y-63325428D01*
X248299142Y-63706380D02*
X248394380Y-63515904D01*
X248489619Y-63420666D01*
X248680095Y-63325428D01*
X248870571Y-63325428D01*
D13*
X232302095Y-40398761D02*
X232302095Y-39941619D01*
X232302095Y-40170190D02*
X233102095Y-40170190D01*
X232987809Y-40094000D01*
X232911619Y-40017809D01*
X232873523Y-39941619D01*
X233025904Y-40703523D02*
X233064000Y-40741619D01*
X233102095Y-40817809D01*
X233102095Y-41008285D01*
X233064000Y-41084476D01*
X233025904Y-41122571D01*
X232949714Y-41160666D01*
X232873523Y-41160666D01*
X232759238Y-41122571D01*
X232302095Y-40665428D01*
X232302095Y-41160666D01*
X233102095Y-41389238D02*
X232302095Y-41655904D01*
X233102095Y-41922571D01*
X235604000Y-40379714D02*
X235642095Y-40303523D01*
X235642095Y-40189238D01*
X235604000Y-40074952D01*
X235527809Y-39998761D01*
X235451619Y-39960666D01*
X235299238Y-39922571D01*
X235184952Y-39922571D01*
X235032571Y-39960666D01*
X234956380Y-39998761D01*
X234880190Y-40074952D01*
X234842095Y-40189238D01*
X234842095Y-40265428D01*
X234880190Y-40379714D01*
X234918285Y-40417809D01*
X235184952Y-40417809D01*
X235184952Y-40265428D01*
X235375428Y-40760666D02*
X234842095Y-40760666D01*
X235299238Y-40760666D02*
X235337333Y-40798761D01*
X235375428Y-40874952D01*
X235375428Y-40989238D01*
X235337333Y-41065428D01*
X235261142Y-41103523D01*
X234842095Y-41103523D01*
X234842095Y-41827333D02*
X235642095Y-41827333D01*
X234880190Y-41827333D02*
X234842095Y-41751142D01*
X234842095Y-41598761D01*
X234880190Y-41522571D01*
X234918285Y-41484476D01*
X234994476Y-41446380D01*
X235223047Y-41446380D01*
X235299238Y-41484476D01*
X235337333Y-41522571D01*
X235375428Y-41598761D01*
X235375428Y-41751142D01*
X235337333Y-41827333D01*
X242766857Y-38976476D02*
X242766857Y-39586000D01*
X242462095Y-40386000D02*
X242462095Y-39928857D01*
X242462095Y-40157428D02*
X243262095Y-40157428D01*
X243147809Y-40081238D01*
X243071619Y-40005047D01*
X243033523Y-39928857D01*
X243185904Y-40690761D02*
X243224000Y-40728857D01*
X243262095Y-40805047D01*
X243262095Y-40995523D01*
X243224000Y-41071714D01*
X243185904Y-41109809D01*
X243109714Y-41147904D01*
X243033523Y-41147904D01*
X242919238Y-41109809D01*
X242462095Y-40652666D01*
X242462095Y-41147904D01*
X243262095Y-41376476D02*
X242462095Y-41643142D01*
X243262095Y-41909809D01*
X238144000Y-40379714D02*
X238182095Y-40303523D01*
X238182095Y-40189238D01*
X238144000Y-40074952D01*
X238067809Y-39998761D01*
X237991619Y-39960666D01*
X237839238Y-39922571D01*
X237724952Y-39922571D01*
X237572571Y-39960666D01*
X237496380Y-39998761D01*
X237420190Y-40074952D01*
X237382095Y-40189238D01*
X237382095Y-40265428D01*
X237420190Y-40379714D01*
X237458285Y-40417809D01*
X237724952Y-40417809D01*
X237724952Y-40265428D01*
X237915428Y-40760666D02*
X237382095Y-40760666D01*
X237839238Y-40760666D02*
X237877333Y-40798761D01*
X237915428Y-40874952D01*
X237915428Y-40989238D01*
X237877333Y-41065428D01*
X237801142Y-41103523D01*
X237382095Y-41103523D01*
X237382095Y-41827333D02*
X238182095Y-41827333D01*
X237420190Y-41827333D02*
X237382095Y-41751142D01*
X237382095Y-41598761D01*
X237420190Y-41522571D01*
X237458285Y-41484476D01*
X237534476Y-41446380D01*
X237763047Y-41446380D01*
X237839238Y-41484476D01*
X237877333Y-41522571D01*
X237915428Y-41598761D01*
X237915428Y-41751142D01*
X237877333Y-41827333D01*
X240684000Y-40379714D02*
X240722095Y-40303523D01*
X240722095Y-40189238D01*
X240684000Y-40074952D01*
X240607809Y-39998761D01*
X240531619Y-39960666D01*
X240379238Y-39922571D01*
X240264952Y-39922571D01*
X240112571Y-39960666D01*
X240036380Y-39998761D01*
X239960190Y-40074952D01*
X239922095Y-40189238D01*
X239922095Y-40265428D01*
X239960190Y-40379714D01*
X239998285Y-40417809D01*
X240264952Y-40417809D01*
X240264952Y-40265428D01*
X240455428Y-40760666D02*
X239922095Y-40760666D01*
X240379238Y-40760666D02*
X240417333Y-40798761D01*
X240455428Y-40874952D01*
X240455428Y-40989238D01*
X240417333Y-41065428D01*
X240341142Y-41103523D01*
X239922095Y-41103523D01*
X239922095Y-41827333D02*
X240722095Y-41827333D01*
X239960190Y-41827333D02*
X239922095Y-41751142D01*
X239922095Y-41598761D01*
X239960190Y-41522571D01*
X239998285Y-41484476D01*
X240074476Y-41446380D01*
X240303047Y-41446380D01*
X240379238Y-41484476D01*
X240417333Y-41522571D01*
X240455428Y-41598761D01*
X240455428Y-41751142D01*
X240417333Y-41827333D01*
D10*
%TO.C,RV4*%
X211923142Y-136921142D02*
X208923142Y-136921142D01*
X208923142Y-136206857D01*
X209066000Y-135778285D01*
X209351714Y-135492571D01*
X209637428Y-135349714D01*
X210208857Y-135206857D01*
X210637428Y-135206857D01*
X211208857Y-135349714D01*
X211494571Y-135492571D01*
X211780285Y-135778285D01*
X211923142Y-136206857D01*
X211923142Y-136921142D01*
X211780285Y-132778285D02*
X211923142Y-133064000D01*
X211923142Y-133635428D01*
X211780285Y-133921142D01*
X211494571Y-134064000D01*
X210351714Y-134064000D01*
X210066000Y-133921142D01*
X209923142Y-133635428D01*
X209923142Y-133064000D01*
X210066000Y-132778285D01*
X210351714Y-132635428D01*
X210637428Y-132635428D01*
X210923142Y-134064000D01*
X211780285Y-130064000D02*
X211923142Y-130349714D01*
X211923142Y-130921142D01*
X211780285Y-131206857D01*
X211637428Y-131349714D01*
X211351714Y-131492571D01*
X210494571Y-131492571D01*
X210208857Y-131349714D01*
X210066000Y-131206857D01*
X209923142Y-130921142D01*
X209923142Y-130349714D01*
X210066000Y-130064000D01*
X211923142Y-127492571D02*
X210351714Y-127492571D01*
X210066000Y-127635428D01*
X209923142Y-127921142D01*
X209923142Y-128492571D01*
X210066000Y-128778285D01*
X211780285Y-127492571D02*
X211923142Y-127778285D01*
X211923142Y-128492571D01*
X211780285Y-128778285D01*
X211494571Y-128921142D01*
X211208857Y-128921142D01*
X210923142Y-128778285D01*
X210780285Y-128492571D01*
X210780285Y-127778285D01*
X210637428Y-127492571D01*
X209923142Y-126349714D02*
X211923142Y-125635428D01*
X209923142Y-124921142D02*
X211923142Y-125635428D01*
X212637428Y-125921142D01*
X212780285Y-126064000D01*
X212923142Y-126349714D01*
%TO.C,RV3*%
X259024285Y-109568285D02*
X259167142Y-109139714D01*
X259167142Y-108425428D01*
X259024285Y-108139714D01*
X258881428Y-107996857D01*
X258595714Y-107854000D01*
X258310000Y-107854000D01*
X258024285Y-107996857D01*
X257881428Y-108139714D01*
X257738571Y-108425428D01*
X257595714Y-108996857D01*
X257452857Y-109282571D01*
X257310000Y-109425428D01*
X257024285Y-109568285D01*
X256738571Y-109568285D01*
X256452857Y-109425428D01*
X256310000Y-109282571D01*
X256167142Y-108996857D01*
X256167142Y-108282571D01*
X256310000Y-107854000D01*
X257167142Y-105282571D02*
X259167142Y-105282571D01*
X257167142Y-106568285D02*
X258738571Y-106568285D01*
X259024285Y-106425428D01*
X259167142Y-106139714D01*
X259167142Y-105711142D01*
X259024285Y-105425428D01*
X258881428Y-105282571D01*
X259024285Y-103996857D02*
X259167142Y-103711142D01*
X259167142Y-103139714D01*
X259024285Y-102854000D01*
X258738571Y-102711142D01*
X258595714Y-102711142D01*
X258310000Y-102854000D01*
X258167142Y-103139714D01*
X258167142Y-103568285D01*
X258024285Y-103854000D01*
X257738571Y-103996857D01*
X257595714Y-103996857D01*
X257310000Y-103854000D01*
X257167142Y-103568285D01*
X257167142Y-103139714D01*
X257310000Y-102854000D01*
X257167142Y-101854000D02*
X257167142Y-100711142D01*
X256167142Y-101425428D02*
X258738571Y-101425428D01*
X259024285Y-101282571D01*
X259167142Y-100996857D01*
X259167142Y-100711142D01*
X259167142Y-98425428D02*
X257595714Y-98425428D01*
X257310000Y-98568285D01*
X257167142Y-98854000D01*
X257167142Y-99425428D01*
X257310000Y-99711142D01*
X259024285Y-98425428D02*
X259167142Y-98711142D01*
X259167142Y-99425428D01*
X259024285Y-99711142D01*
X258738571Y-99854000D01*
X258452857Y-99854000D01*
X258167142Y-99711142D01*
X258024285Y-99425428D01*
X258024285Y-98711142D01*
X257881428Y-98425428D01*
X259167142Y-96996857D02*
X257167142Y-96996857D01*
X256167142Y-96996857D02*
X256310000Y-97139714D01*
X256452857Y-96996857D01*
X256310000Y-96854000D01*
X256167142Y-96996857D01*
X256452857Y-96996857D01*
X257167142Y-95568285D02*
X259167142Y-95568285D01*
X257452857Y-95568285D02*
X257310000Y-95425428D01*
X257167142Y-95139714D01*
X257167142Y-94711142D01*
X257310000Y-94425428D01*
X257595714Y-94282571D01*
X259167142Y-94282571D01*
%TO.C,RV2*%
X211066000Y-108393714D02*
X211066000Y-106965142D01*
X211923142Y-108679428D02*
X208923142Y-107679428D01*
X211923142Y-106679428D01*
X209923142Y-106108000D02*
X209923142Y-104965142D01*
X208923142Y-105679428D02*
X211494571Y-105679428D01*
X211780285Y-105536571D01*
X211923142Y-105250857D01*
X211923142Y-104965142D01*
X209923142Y-104393714D02*
X209923142Y-103250857D01*
X208923142Y-103965142D02*
X211494571Y-103965142D01*
X211780285Y-103822285D01*
X211923142Y-103536571D01*
X211923142Y-103250857D01*
X211923142Y-100965142D02*
X210351714Y-100965142D01*
X210066000Y-101108000D01*
X209923142Y-101393714D01*
X209923142Y-101965142D01*
X210066000Y-102250857D01*
X211780285Y-100965142D02*
X211923142Y-101250857D01*
X211923142Y-101965142D01*
X211780285Y-102250857D01*
X211494571Y-102393714D01*
X211208857Y-102393714D01*
X210923142Y-102250857D01*
X210780285Y-101965142D01*
X210780285Y-101250857D01*
X210637428Y-100965142D01*
X211780285Y-98250857D02*
X211923142Y-98536571D01*
X211923142Y-99108000D01*
X211780285Y-99393714D01*
X211637428Y-99536571D01*
X211351714Y-99679428D01*
X210494571Y-99679428D01*
X210208857Y-99536571D01*
X210066000Y-99393714D01*
X209923142Y-99108000D01*
X209923142Y-98536571D01*
X210066000Y-98250857D01*
X211923142Y-96965142D02*
X208923142Y-96965142D01*
X210780285Y-96679428D02*
X211923142Y-95822285D01*
X209923142Y-95822285D02*
X211066000Y-96965142D01*
%TO.C,RV1*%
X259167142Y-137095714D02*
X257738571Y-138095714D01*
X259167142Y-138810000D02*
X256167142Y-138810000D01*
X256167142Y-137667142D01*
X256310000Y-137381428D01*
X256452857Y-137238571D01*
X256738571Y-137095714D01*
X257167142Y-137095714D01*
X257452857Y-137238571D01*
X257595714Y-137381428D01*
X257738571Y-137667142D01*
X257738571Y-138810000D01*
X259024285Y-134667142D02*
X259167142Y-134952857D01*
X259167142Y-135524285D01*
X259024285Y-135810000D01*
X258738571Y-135952857D01*
X257595714Y-135952857D01*
X257310000Y-135810000D01*
X257167142Y-135524285D01*
X257167142Y-134952857D01*
X257310000Y-134667142D01*
X257595714Y-134524285D01*
X257881428Y-134524285D01*
X258167142Y-135952857D01*
X259167142Y-132810000D02*
X259024285Y-133095714D01*
X258738571Y-133238571D01*
X256167142Y-133238571D01*
X259024285Y-130524285D02*
X259167142Y-130810000D01*
X259167142Y-131381428D01*
X259024285Y-131667142D01*
X258738571Y-131810000D01*
X257595714Y-131810000D01*
X257310000Y-131667142D01*
X257167142Y-131381428D01*
X257167142Y-130810000D01*
X257310000Y-130524285D01*
X257595714Y-130381428D01*
X257881428Y-130381428D01*
X258167142Y-131810000D01*
X259167142Y-127810000D02*
X257595714Y-127810000D01*
X257310000Y-127952857D01*
X257167142Y-128238571D01*
X257167142Y-128810000D01*
X257310000Y-129095714D01*
X259024285Y-127810000D02*
X259167142Y-128095714D01*
X259167142Y-128810000D01*
X259024285Y-129095714D01*
X258738571Y-129238571D01*
X258452857Y-129238571D01*
X258167142Y-129095714D01*
X258024285Y-128810000D01*
X258024285Y-128095714D01*
X257881428Y-127810000D01*
X259024285Y-126524285D02*
X259167142Y-126238571D01*
X259167142Y-125667142D01*
X259024285Y-125381428D01*
X258738571Y-125238571D01*
X258595714Y-125238571D01*
X258310000Y-125381428D01*
X258167142Y-125667142D01*
X258167142Y-126095714D01*
X258024285Y-126381428D01*
X257738571Y-126524285D01*
X257595714Y-126524285D01*
X257310000Y-126381428D01*
X257167142Y-126095714D01*
X257167142Y-125667142D01*
X257310000Y-125381428D01*
X259024285Y-122810000D02*
X259167142Y-123095714D01*
X259167142Y-123667142D01*
X259024285Y-123952857D01*
X258738571Y-124095714D01*
X257595714Y-124095714D01*
X257310000Y-123952857D01*
X257167142Y-123667142D01*
X257167142Y-123095714D01*
X257310000Y-122810000D01*
X257595714Y-122667142D01*
X257881428Y-122667142D01*
X258167142Y-124095714D01*
%TO.C,J3*%
X236403714Y-87161714D02*
X237403714Y-87161714D01*
X237832285Y-88733142D02*
X236403714Y-88733142D01*
X236403714Y-85733142D01*
X237832285Y-85733142D01*
X239118000Y-86733142D02*
X239118000Y-88733142D01*
X239118000Y-87018857D02*
X239260857Y-86876000D01*
X239546571Y-86733142D01*
X239975142Y-86733142D01*
X240260857Y-86876000D01*
X240403714Y-87161714D01*
X240403714Y-88733142D01*
X241546571Y-86733142D02*
X242260857Y-88733142D01*
X242975142Y-86733142D01*
X245260857Y-88590285D02*
X244975142Y-88733142D01*
X244403714Y-88733142D01*
X244118000Y-88590285D01*
X243975142Y-88304571D01*
X243975142Y-87161714D01*
X244118000Y-86876000D01*
X244403714Y-86733142D01*
X244975142Y-86733142D01*
X245260857Y-86876000D01*
X245403714Y-87161714D01*
X245403714Y-87447428D01*
X243975142Y-87733142D01*
X247118000Y-88733142D02*
X246832285Y-88590285D01*
X246689428Y-88304571D01*
X246689428Y-85733142D01*
X248689428Y-88733142D02*
X248403714Y-88590285D01*
X248260857Y-88447428D01*
X248118000Y-88161714D01*
X248118000Y-87304571D01*
X248260857Y-87018857D01*
X248403714Y-86876000D01*
X248689428Y-86733142D01*
X249118000Y-86733142D01*
X249403714Y-86876000D01*
X249546571Y-87018857D01*
X249689428Y-87304571D01*
X249689428Y-88161714D01*
X249546571Y-88447428D01*
X249403714Y-88590285D01*
X249118000Y-88733142D01*
X248689428Y-88733142D01*
X250975142Y-86733142D02*
X250975142Y-89733142D01*
X250975142Y-86876000D02*
X251260857Y-86733142D01*
X251832285Y-86733142D01*
X252118000Y-86876000D01*
X252260857Y-87018857D01*
X252403714Y-87304571D01*
X252403714Y-88161714D01*
X252260857Y-88447428D01*
X252118000Y-88590285D01*
X251832285Y-88733142D01*
X251260857Y-88733142D01*
X250975142Y-88590285D01*
X254832285Y-88590285D02*
X254546571Y-88733142D01*
X253975142Y-88733142D01*
X253689428Y-88590285D01*
X253546571Y-88304571D01*
X253546571Y-87161714D01*
X253689428Y-86876000D01*
X253975142Y-86733142D01*
X254546571Y-86733142D01*
X254832285Y-86876000D01*
X254975142Y-87161714D01*
X254975142Y-87447428D01*
X253546571Y-87733142D01*
%TO.C,J2*%
X218773714Y-85876000D02*
X218488000Y-85733142D01*
X218059428Y-85733142D01*
X217630857Y-85876000D01*
X217345142Y-86161714D01*
X217202285Y-86447428D01*
X217059428Y-87018857D01*
X217059428Y-87447428D01*
X217202285Y-88018857D01*
X217345142Y-88304571D01*
X217630857Y-88590285D01*
X218059428Y-88733142D01*
X218345142Y-88733142D01*
X218773714Y-88590285D01*
X218916571Y-88447428D01*
X218916571Y-87447428D01*
X218345142Y-87447428D01*
X221488000Y-88733142D02*
X221488000Y-87161714D01*
X221345142Y-86876000D01*
X221059428Y-86733142D01*
X220488000Y-86733142D01*
X220202285Y-86876000D01*
X221488000Y-88590285D02*
X221202285Y-88733142D01*
X220488000Y-88733142D01*
X220202285Y-88590285D01*
X220059428Y-88304571D01*
X220059428Y-88018857D01*
X220202285Y-87733142D01*
X220488000Y-87590285D01*
X221202285Y-87590285D01*
X221488000Y-87447428D01*
X222488000Y-86733142D02*
X223630857Y-86733142D01*
X222916571Y-85733142D02*
X222916571Y-88304571D01*
X223059428Y-88590285D01*
X223345142Y-88733142D01*
X223630857Y-88733142D01*
X225773714Y-88590285D02*
X225488000Y-88733142D01*
X224916571Y-88733142D01*
X224630857Y-88590285D01*
X224488000Y-88304571D01*
X224488000Y-87161714D01*
X224630857Y-86876000D01*
X224916571Y-86733142D01*
X225488000Y-86733142D01*
X225773714Y-86876000D01*
X225916571Y-87161714D01*
X225916571Y-87447428D01*
X224488000Y-87733142D01*
D14*
%TO.C,REF\u002A\u002A*%
X231974075Y-121826985D02*
X236382034Y-121826985D01*
X236382034Y-121826985D02*
X236123271Y-123570060D01*
X236123271Y-123570060D02*
X232277817Y-123570060D01*
X232277817Y-123570060D02*
X231974075Y-121826985D01*
X231974075Y-121826985D02*
X231974075Y-121826985D01*
G36*
X236123271Y-123570060D02*
G01*
X232277817Y-123570060D01*
X231974075Y-121826985D01*
X236382034Y-121826985D01*
X236123271Y-123570060D01*
G37*
X236123271Y-123570060D02*
X232277817Y-123570060D01*
X231974075Y-121826985D01*
X236382034Y-121826985D01*
X236123271Y-123570060D01*
X232333909Y-123997097D02*
X232783700Y-126785805D01*
X232783700Y-126785805D02*
X235583521Y-126785805D01*
X235583521Y-126785805D02*
X236033313Y-123997097D01*
X236033313Y-123997097D02*
X232333909Y-123997097D01*
X232333909Y-123997097D02*
X232333909Y-123997097D01*
G36*
X235583521Y-126785805D02*
G01*
X232783700Y-126785805D01*
X232333909Y-123997097D01*
X236033313Y-123997097D01*
X235583521Y-126785805D01*
G37*
X235583521Y-126785805D02*
X232783700Y-126785805D01*
X232333909Y-123997097D01*
X236033313Y-123997097D01*
X235583521Y-126785805D01*
X231620063Y-118784806D02*
X233496488Y-118784806D01*
X233496488Y-118784806D02*
X233499605Y-118808659D01*
X233499605Y-118808659D02*
X233503406Y-118832398D01*
X233503406Y-118832398D02*
X233507889Y-118856007D01*
X233507889Y-118856007D02*
X233513051Y-118879472D01*
X233513051Y-118879472D02*
X233518887Y-118902779D01*
X233518887Y-118902779D02*
X233525394Y-118925912D01*
X233525394Y-118925912D02*
X233532569Y-118948858D01*
X233532569Y-118948858D02*
X233540408Y-118971601D01*
X233540408Y-118971601D02*
X233544734Y-118981251D01*
X233544734Y-118981251D02*
X233549244Y-118990807D01*
X233549244Y-118990807D02*
X233553938Y-119000268D01*
X233553938Y-119000268D02*
X233558813Y-119009632D01*
X233558813Y-119009632D02*
X233563869Y-119018894D01*
X233563869Y-119018894D02*
X233569103Y-119028054D01*
X233569103Y-119028054D02*
X233574513Y-119037108D01*
X233574513Y-119037108D02*
X233580099Y-119046053D01*
X233580099Y-119046053D02*
X233585858Y-119054888D01*
X233585858Y-119054888D02*
X233591790Y-119063610D01*
X233591790Y-119063610D02*
X233597891Y-119072216D01*
X233597891Y-119072216D02*
X233604161Y-119080703D01*
X233604161Y-119080703D02*
X233610599Y-119089070D01*
X233610599Y-119089070D02*
X233617201Y-119097313D01*
X233617201Y-119097313D02*
X233623968Y-119105430D01*
X233623968Y-119105430D02*
X233630896Y-119113418D01*
X233630896Y-119113418D02*
X233640024Y-119124965D01*
X233640024Y-119124965D02*
X233649358Y-119136334D01*
X233649358Y-119136334D02*
X233658897Y-119147523D01*
X233658897Y-119147523D02*
X233668637Y-119158528D01*
X233668637Y-119158528D02*
X233678575Y-119169347D01*
X233678575Y-119169347D02*
X233688710Y-119179978D01*
X233688710Y-119179978D02*
X233699037Y-119190417D01*
X233699037Y-119190417D02*
X233709556Y-119200663D01*
X233709556Y-119200663D02*
X233720261Y-119210713D01*
X233720261Y-119210713D02*
X233731152Y-119220563D01*
X233731152Y-119220563D02*
X233742225Y-119230212D01*
X233742225Y-119230212D02*
X233753478Y-119239657D01*
X233753478Y-119239657D02*
X233764908Y-119248896D01*
X233764908Y-119248896D02*
X233776511Y-119257924D01*
X233776511Y-119257924D02*
X233788286Y-119266741D01*
X233788286Y-119266741D02*
X233800230Y-119275343D01*
X233800230Y-119275343D02*
X233815723Y-119285902D01*
X233815723Y-119285902D02*
X233831446Y-119296082D01*
X233831446Y-119296082D02*
X233847392Y-119305880D01*
X233847392Y-119305880D02*
X233863553Y-119315292D01*
X233863553Y-119315292D02*
X233879922Y-119324317D01*
X233879922Y-119324317D02*
X233896492Y-119332950D01*
X233896492Y-119332950D02*
X233913257Y-119341189D01*
X233913257Y-119341189D02*
X233930208Y-119349029D01*
X233930208Y-119349029D02*
X233947339Y-119356469D01*
X233947339Y-119356469D02*
X233964642Y-119363505D01*
X233964642Y-119363505D02*
X233982111Y-119370133D01*
X233982111Y-119370133D02*
X233999739Y-119376351D01*
X233999739Y-119376351D02*
X234017518Y-119382154D01*
X234017518Y-119382154D02*
X234035441Y-119387541D01*
X234035441Y-119387541D02*
X234053501Y-119392508D01*
X234053501Y-119392508D02*
X234071692Y-119397052D01*
X234071692Y-119397052D02*
X234089072Y-119401451D01*
X234089072Y-119401451D02*
X234106549Y-119405409D01*
X234106549Y-119405409D02*
X234124115Y-119408924D01*
X234124115Y-119408924D02*
X234141761Y-119411994D01*
X234141761Y-119411994D02*
X234159479Y-119414619D01*
X234159479Y-119414619D02*
X234177261Y-119416797D01*
X234177261Y-119416797D02*
X234195097Y-119418526D01*
X234195097Y-119418526D02*
X234212979Y-119419806D01*
X234212979Y-119419806D02*
X234229822Y-119420414D01*
X234229822Y-119420414D02*
X234246666Y-119420620D01*
X234246666Y-119420620D02*
X234263507Y-119420426D01*
X234263507Y-119420426D02*
X234280335Y-119419831D01*
X234280335Y-119419831D02*
X234297144Y-119418837D01*
X234297144Y-119418837D02*
X234313928Y-119417442D01*
X234313928Y-119417442D02*
X234330678Y-119415649D01*
X234330678Y-119415649D02*
X234347388Y-119413456D01*
X234347388Y-119413456D02*
X234363602Y-119410692D01*
X234363602Y-119410692D02*
X234379733Y-119407559D01*
X234379733Y-119407559D02*
X234395776Y-119404059D01*
X234395776Y-119404059D02*
X234411723Y-119400194D01*
X234411723Y-119400194D02*
X234427569Y-119395966D01*
X234427569Y-119395966D02*
X234443308Y-119391378D01*
X234443308Y-119391378D02*
X234458933Y-119386431D01*
X234458933Y-119386431D02*
X234474439Y-119381128D01*
X234474439Y-119381128D02*
X234489819Y-119375471D01*
X234489819Y-119375471D02*
X234505068Y-119369463D01*
X234505068Y-119369463D02*
X234520178Y-119363104D01*
X234520178Y-119363104D02*
X234535145Y-119356399D01*
X234535145Y-119356399D02*
X234549962Y-119349347D01*
X234549962Y-119349347D02*
X234564622Y-119341953D01*
X234564622Y-119341953D02*
X234579121Y-119334218D01*
X234579121Y-119334218D02*
X234593451Y-119326144D01*
X234593451Y-119326144D02*
X234608321Y-119317698D01*
X234608321Y-119317698D02*
X234622993Y-119308941D01*
X234622993Y-119308941D02*
X234637464Y-119299876D01*
X234637464Y-119299876D02*
X234651729Y-119290508D01*
X234651729Y-119290508D02*
X234665782Y-119280840D01*
X234665782Y-119280840D02*
X234679620Y-119270876D01*
X234679620Y-119270876D02*
X234693237Y-119260619D01*
X234693237Y-119260619D02*
X234706629Y-119250073D01*
X234706629Y-119250073D02*
X234719792Y-119239242D01*
X234719792Y-119239242D02*
X234732721Y-119228129D01*
X234732721Y-119228129D02*
X234745411Y-119216739D01*
X234745411Y-119216739D02*
X234757857Y-119205075D01*
X234757857Y-119205075D02*
X234770056Y-119193140D01*
X234770056Y-119193140D02*
X234782002Y-119180939D01*
X234782002Y-119180939D02*
X234793690Y-119168475D01*
X234793690Y-119168475D02*
X234805117Y-119155752D01*
X234805117Y-119155752D02*
X234815274Y-119144702D01*
X234815274Y-119144702D02*
X234825140Y-119133413D01*
X234825140Y-119133413D02*
X234834710Y-119121891D01*
X234834710Y-119121891D02*
X234843980Y-119110142D01*
X234843980Y-119110142D02*
X234852948Y-119098171D01*
X234852948Y-119098171D02*
X234861609Y-119085985D01*
X234861609Y-119085985D02*
X234869959Y-119073590D01*
X234869959Y-119073590D02*
X234877995Y-119060992D01*
X234877995Y-119060992D02*
X234885714Y-119048197D01*
X234885714Y-119048197D02*
X234893111Y-119035210D01*
X234893111Y-119035210D02*
X234900182Y-119022038D01*
X234900182Y-119022038D02*
X234906925Y-119008687D01*
X234906925Y-119008687D02*
X234913334Y-118995163D01*
X234913334Y-118995163D02*
X234919407Y-118981471D01*
X234919407Y-118981471D02*
X234925140Y-118967618D01*
X234925140Y-118967618D02*
X234930529Y-118953610D01*
X234930529Y-118953610D02*
X234937048Y-118932774D01*
X234937048Y-118932774D02*
X234943294Y-118911856D01*
X234943294Y-118911856D02*
X234949265Y-118890860D01*
X234949265Y-118890860D02*
X234954961Y-118869789D01*
X234954961Y-118869789D02*
X234960381Y-118848646D01*
X234960381Y-118848646D02*
X234965525Y-118827432D01*
X234965525Y-118827432D02*
X234970391Y-118806152D01*
X234970391Y-118806152D02*
X234974979Y-118784807D01*
X234974979Y-118784807D02*
X236736046Y-118784806D01*
X236736046Y-118784806D02*
X236435479Y-121399947D01*
X236435479Y-121399947D02*
X231972488Y-121399947D01*
X231972488Y-121399947D02*
X231620063Y-118784806D01*
X231620063Y-118784806D02*
X231620063Y-118784806D01*
G36*
X233499605Y-118808659D02*
G01*
X233503406Y-118832398D01*
X233507889Y-118856007D01*
X233513051Y-118879472D01*
X233518887Y-118902779D01*
X233525394Y-118925912D01*
X233532569Y-118948858D01*
X233540408Y-118971601D01*
X233544734Y-118981251D01*
X233549244Y-118990807D01*
X233553938Y-119000268D01*
X233558813Y-119009632D01*
X233563869Y-119018894D01*
X233569103Y-119028054D01*
X233574513Y-119037108D01*
X233580099Y-119046053D01*
X233585858Y-119054888D01*
X233591790Y-119063610D01*
X233597891Y-119072216D01*
X233604161Y-119080703D01*
X233610599Y-119089070D01*
X233617201Y-119097313D01*
X233623968Y-119105430D01*
X233630896Y-119113418D01*
X233640024Y-119124965D01*
X233649358Y-119136334D01*
X233658897Y-119147523D01*
X233668637Y-119158528D01*
X233678575Y-119169347D01*
X233688710Y-119179978D01*
X233699037Y-119190417D01*
X233709556Y-119200663D01*
X233720261Y-119210713D01*
X233731152Y-119220563D01*
X233742225Y-119230212D01*
X233753478Y-119239657D01*
X233764908Y-119248896D01*
X233776511Y-119257924D01*
X233788286Y-119266741D01*
X233800230Y-119275343D01*
X233815723Y-119285902D01*
X233831446Y-119296082D01*
X233847392Y-119305880D01*
X233863553Y-119315292D01*
X233879922Y-119324317D01*
X233896492Y-119332950D01*
X233913257Y-119341189D01*
X233930208Y-119349029D01*
X233947339Y-119356469D01*
X233964642Y-119363505D01*
X233982111Y-119370133D01*
X233999739Y-119376351D01*
X234017518Y-119382154D01*
X234035441Y-119387541D01*
X234053501Y-119392508D01*
X234071692Y-119397052D01*
X234089072Y-119401451D01*
X234106549Y-119405409D01*
X234124115Y-119408924D01*
X234141761Y-119411994D01*
X234159479Y-119414619D01*
X234177261Y-119416797D01*
X234195097Y-119418526D01*
X234212979Y-119419806D01*
X234229822Y-119420414D01*
X234246666Y-119420620D01*
X234263507Y-119420426D01*
X234280335Y-119419831D01*
X234297144Y-119418837D01*
X234313928Y-119417442D01*
X234330678Y-119415649D01*
X234347388Y-119413456D01*
X234363602Y-119410692D01*
X234379733Y-119407559D01*
X234395776Y-119404059D01*
X234411723Y-119400194D01*
X234427569Y-119395966D01*
X234443308Y-119391378D01*
X234458933Y-119386431D01*
X234474439Y-119381128D01*
X234489819Y-119375471D01*
X234505068Y-119369463D01*
X234520178Y-119363104D01*
X234535145Y-119356399D01*
X234549962Y-119349347D01*
X234564622Y-119341953D01*
X234579121Y-119334218D01*
X234593451Y-119326144D01*
X234608321Y-119317698D01*
X234622993Y-119308941D01*
X234637464Y-119299876D01*
X234651729Y-119290508D01*
X234665782Y-119280840D01*
X234679620Y-119270876D01*
X234693237Y-119260619D01*
X234706629Y-119250073D01*
X234719792Y-119239242D01*
X234732721Y-119228129D01*
X234745411Y-119216739D01*
X234757857Y-119205075D01*
X234770056Y-119193140D01*
X234782002Y-119180939D01*
X234793690Y-119168475D01*
X234805117Y-119155752D01*
X234815274Y-119144702D01*
X234825140Y-119133413D01*
X234834710Y-119121891D01*
X234843980Y-119110142D01*
X234852948Y-119098171D01*
X234861609Y-119085985D01*
X234869959Y-119073590D01*
X234877995Y-119060992D01*
X234885714Y-119048197D01*
X234893111Y-119035210D01*
X234900182Y-119022038D01*
X234906925Y-119008687D01*
X234913334Y-118995163D01*
X234919407Y-118981471D01*
X234925140Y-118967618D01*
X234930529Y-118953610D01*
X234937048Y-118932774D01*
X234943294Y-118911856D01*
X234949265Y-118890860D01*
X234954961Y-118869789D01*
X234960381Y-118848646D01*
X234965525Y-118827432D01*
X234970391Y-118806152D01*
X234974979Y-118784807D01*
X236736046Y-118784806D01*
X236435479Y-121399947D01*
X231972488Y-121399947D01*
X231620063Y-118784806D01*
X233496488Y-118784806D01*
X233499605Y-118808659D01*
G37*
X233499605Y-118808659D02*
X233503406Y-118832398D01*
X233507889Y-118856007D01*
X233513051Y-118879472D01*
X233518887Y-118902779D01*
X233525394Y-118925912D01*
X233532569Y-118948858D01*
X233540408Y-118971601D01*
X233544734Y-118981251D01*
X233549244Y-118990807D01*
X233553938Y-119000268D01*
X233558813Y-119009632D01*
X233563869Y-119018894D01*
X233569103Y-119028054D01*
X233574513Y-119037108D01*
X233580099Y-119046053D01*
X233585858Y-119054888D01*
X233591790Y-119063610D01*
X233597891Y-119072216D01*
X233604161Y-119080703D01*
X233610599Y-119089070D01*
X233617201Y-119097313D01*
X233623968Y-119105430D01*
X233630896Y-119113418D01*
X233640024Y-119124965D01*
X233649358Y-119136334D01*
X233658897Y-119147523D01*
X233668637Y-119158528D01*
X233678575Y-119169347D01*
X233688710Y-119179978D01*
X233699037Y-119190417D01*
X233709556Y-119200663D01*
X233720261Y-119210713D01*
X233731152Y-119220563D01*
X233742225Y-119230212D01*
X233753478Y-119239657D01*
X233764908Y-119248896D01*
X233776511Y-119257924D01*
X233788286Y-119266741D01*
X233800230Y-119275343D01*
X233815723Y-119285902D01*
X233831446Y-119296082D01*
X233847392Y-119305880D01*
X233863553Y-119315292D01*
X233879922Y-119324317D01*
X233896492Y-119332950D01*
X233913257Y-119341189D01*
X233930208Y-119349029D01*
X233947339Y-119356469D01*
X233964642Y-119363505D01*
X233982111Y-119370133D01*
X233999739Y-119376351D01*
X234017518Y-119382154D01*
X234035441Y-119387541D01*
X234053501Y-119392508D01*
X234071692Y-119397052D01*
X234089072Y-119401451D01*
X234106549Y-119405409D01*
X234124115Y-119408924D01*
X234141761Y-119411994D01*
X234159479Y-119414619D01*
X234177261Y-119416797D01*
X234195097Y-119418526D01*
X234212979Y-119419806D01*
X234229822Y-119420414D01*
X234246666Y-119420620D01*
X234263507Y-119420426D01*
X234280335Y-119419831D01*
X234297144Y-119418837D01*
X234313928Y-119417442D01*
X234330678Y-119415649D01*
X234347388Y-119413456D01*
X234363602Y-119410692D01*
X234379733Y-119407559D01*
X234395776Y-119404059D01*
X234411723Y-119400194D01*
X234427569Y-119395966D01*
X234443308Y-119391378D01*
X234458933Y-119386431D01*
X234474439Y-119381128D01*
X234489819Y-119375471D01*
X234505068Y-119369463D01*
X234520178Y-119363104D01*
X234535145Y-119356399D01*
X234549962Y-119349347D01*
X234564622Y-119341953D01*
X234579121Y-119334218D01*
X234593451Y-119326144D01*
X234608321Y-119317698D01*
X234622993Y-119308941D01*
X234637464Y-119299876D01*
X234651729Y-119290508D01*
X234665782Y-119280840D01*
X234679620Y-119270876D01*
X234693237Y-119260619D01*
X234706629Y-119250073D01*
X234719792Y-119239242D01*
X234732721Y-119228129D01*
X234745411Y-119216739D01*
X234757857Y-119205075D01*
X234770056Y-119193140D01*
X234782002Y-119180939D01*
X234793690Y-119168475D01*
X234805117Y-119155752D01*
X234815274Y-119144702D01*
X234825140Y-119133413D01*
X234834710Y-119121891D01*
X234843980Y-119110142D01*
X234852948Y-119098171D01*
X234861609Y-119085985D01*
X234869959Y-119073590D01*
X234877995Y-119060992D01*
X234885714Y-119048197D01*
X234893111Y-119035210D01*
X234900182Y-119022038D01*
X234906925Y-119008687D01*
X234913334Y-118995163D01*
X234919407Y-118981471D01*
X234925140Y-118967618D01*
X234930529Y-118953610D01*
X234937048Y-118932774D01*
X234943294Y-118911856D01*
X234949265Y-118890860D01*
X234954961Y-118869789D01*
X234960381Y-118848646D01*
X234965525Y-118827432D01*
X234970391Y-118806152D01*
X234974979Y-118784807D01*
X236736046Y-118784806D01*
X236435479Y-121399947D01*
X231972488Y-121399947D01*
X231620063Y-118784806D01*
X233496488Y-118784806D01*
X233499605Y-118808659D01*
D15*
%TO.C,RV4*%
X230820000Y-130954000D02*
G75*
G03*
X230820000Y-130954000I-8570000J0D01*
G01*
X213680000Y-141874000D02*
X230820000Y-141874000D01*
X213680000Y-141874000D02*
X213680000Y-130954000D01*
X230820000Y-141874000D02*
X230820000Y-130954000D01*
%TO.C,RV3*%
X254696000Y-101750000D02*
G75*
G03*
X254696000Y-101750000I-8570000J0D01*
G01*
X237556000Y-112670000D02*
X254696000Y-112670000D01*
X237556000Y-112670000D02*
X237556000Y-101750000D01*
X254696000Y-112670000D02*
X254696000Y-101750000D01*
%TO.C,RV2*%
X230820000Y-112664000D02*
X230820000Y-101744000D01*
X213680000Y-112664000D02*
X213680000Y-101744000D01*
X213680000Y-112664000D02*
X230820000Y-112664000D01*
X230820000Y-101744000D02*
G75*
G03*
X230820000Y-101744000I-8570000J0D01*
G01*
%TO.C,RV1*%
X254696000Y-130960000D02*
G75*
G03*
X254696000Y-130960000I-8570000J0D01*
G01*
X237556000Y-141880000D02*
X254696000Y-141880000D01*
X237556000Y-141880000D02*
X237556000Y-130960000D01*
X254696000Y-141880000D02*
X254696000Y-130960000D01*
%TO.C,J3*%
X237236000Y-67818000D02*
X237236000Y-83839000D01*
X254589000Y-80449000D02*
X254589000Y-67818000D01*
X254589000Y-67818000D02*
X237236000Y-67818000D01*
X251189000Y-83839000D02*
X254589000Y-80439000D01*
X237236000Y-83839000D02*
X251189000Y-83839000D01*
%TO.C,J2*%
X213335000Y-67848000D02*
X213335000Y-83869000D01*
X230688000Y-80479000D02*
X230688000Y-67848000D01*
X230688000Y-67848000D02*
X213335000Y-67848000D01*
X227288000Y-83869000D02*
X230688000Y-80469000D01*
X213335000Y-83869000D02*
X227288000Y-83869000D01*
%TD*%
M02*
