M48
; DRILL file {KiCad (6.0.0-0)} date Thursday, November 10, 2022 at 10:32:47 PM
; FORMAT={-:-/ absolute / inch / decimal}
; #@! TF.CreationDate,2022-11-10T22:32:47-05:00
; #@! TF.GenerationSoftware,Kicad,Pcbnew,(6.0.0-0)
; #@! TF.FileFunction,Plated,1,2,PTH
FMAT,2
INCH
; #@! TA.AperFunction,Plated,PTH,ViaDrill
T1C0.0157
; #@! TA.AperFunction,Plated,PTH,ComponentDrill
T2C0.0197
; #@! TA.AperFunction,Plated,PTH,ComponentDrill
T3C0.0394
; #@! TA.AperFunction,Plated,PTH,ComponentDrill
T4C0.0512
; #@! TA.AperFunction,Plated,PTH,ComponentDrill
T5C0.1181
%
G90
G05
T1
X8.78Y-2.32
X8.78Y-2.52
X8.8Y-2.09
X8.86Y-5.5
X9.01Y-2.03
X9.01Y-2.2
X9.21Y-2.71
X9.28Y-2.29
X9.31Y-4.06
X9.59Y-5.34
X9.71Y-5.15
X9.82Y-2.33
T2
X8.1914Y-1.64
X8.1914Y-5.87
X8.2174Y-1.5774
X8.2174Y-1.7026
X8.2174Y-5.8074
X8.2174Y-5.9326
X8.28Y-1.5514
X8.28Y-1.7286
X8.28Y-5.7814
X8.28Y-5.9586
X8.3426Y-1.5774
X8.3426Y-1.7026
X8.3426Y-5.8074
X8.3426Y-5.9326
X8.3686Y-1.64
X8.3686Y-5.87
X10.0614Y-1.64
X10.0614Y-5.87
X10.0874Y-1.5774
X10.0874Y-1.7026
X10.0874Y-5.8074
X10.0874Y-5.9326
X10.15Y-1.5514
X10.15Y-1.7286
X10.15Y-5.7814
X10.15Y-5.9586
X10.2126Y-1.5774
X10.2126Y-1.7026
X10.2126Y-5.8074
X10.2126Y-5.9326
X10.2386Y-1.64
X10.2386Y-5.87
T3
X8.86Y-1.71
X8.86Y-1.81
X8.96Y-1.71
X8.96Y-1.81
X9.06Y-1.71
X9.06Y-1.81
X9.16Y-1.71
X9.16Y-1.81
X9.26Y-1.71
X9.26Y-1.81
X9.36Y-1.71
X9.36Y-1.81
X9.46Y-1.71
X9.46Y-1.81
X9.56Y-1.71
X9.56Y-1.81
T4
X8.5531Y-4.4998
X8.5531Y-5.6498
X8.75Y-4.4998
X8.75Y-5.6498
X8.9469Y-4.4998
X8.9469Y-5.6498
X9.4931Y-4.5
X9.4931Y-5.65
X9.69Y-4.5
X9.69Y-5.65
X9.8869Y-4.5
X9.8869Y-5.65
T5
X8.28Y-1.64
X8.28Y-5.87
X10.15Y-1.64
X10.15Y-5.87
T3
G00X8.4976Y-2.8719
M15
G01X8.4976Y-3.1081
M16
G05
G00X8.9946Y-3.0911
M15
G01X8.8832Y-3.2025
M16
G05
G00X9.4385Y-2.8707
M15
G01X9.4385Y-3.107
M16
G05
G00X9.9356Y-3.09
M15
G01X9.8242Y-3.2013
M16
G05
T0
M30
