%TF.GenerationSoftware,KiCad,Pcbnew,(6.0.0-0)*%
%TF.CreationDate,2022-11-10T22:32:44-05:00*%
%TF.ProjectId,ADSR-Generator,41445352-2d47-4656-9e65-7261746f722e,rev?*%
%TF.SameCoordinates,Original*%
%TF.FileFunction,Paste,Top*%
%TF.FilePolarity,Positive*%
%FSLAX46Y46*%
G04 Gerber Fmt 4.6, Leading zero omitted, Abs format (unit mm)*
G04 Created by KiCad (PCBNEW (6.0.0-0)) date 2022-11-10 22:32:44*
%MOMM*%
%LPD*%
G01*
G04 APERTURE LIST*
%ADD10C,0.052916*%
G04 APERTURE END LIST*
D10*
%TO.C,REF\u002A\u002A*%
X236556345Y-116507801D02*
X236545072Y-116516737D01*
X236545072Y-116516737D02*
X236533568Y-116525358D01*
X236533568Y-116525358D02*
X236521838Y-116533661D01*
X236521838Y-116533661D02*
X236509888Y-116541641D01*
X236509888Y-116541641D02*
X236497727Y-116549293D01*
X236497727Y-116549293D02*
X236485360Y-116556614D01*
X236485360Y-116556614D02*
X236472794Y-116563598D01*
X236472794Y-116563598D02*
X236460036Y-116570243D01*
X236460036Y-116570243D02*
X236453760Y-116565025D01*
X236453760Y-116565025D02*
X236446669Y-116559220D01*
X236446669Y-116559220D02*
X236437613Y-116551920D01*
X236437613Y-116551920D02*
X236427093Y-116543604D01*
X236427093Y-116543604D02*
X236415611Y-116534747D01*
X236415611Y-116534747D02*
X236403671Y-116525829D01*
X236403671Y-116525829D02*
X236397686Y-116521496D01*
X236397686Y-116521496D02*
X236391774Y-116517326D01*
X236391774Y-116517326D02*
X236381208Y-116510120D01*
X236381208Y-116510120D02*
X236372435Y-116504428D01*
X236372435Y-116504428D02*
X236364715Y-116499727D01*
X236364715Y-116499727D02*
X236357312Y-116495498D01*
X236357312Y-116495498D02*
X236340503Y-116486370D01*
X236340503Y-116486370D02*
X236329621Y-116480429D01*
X236329621Y-116480429D02*
X236316104Y-116472876D01*
X236316104Y-116472876D02*
X236296409Y-116461764D01*
X236296409Y-116461764D02*
X236273241Y-116448270D01*
X236273241Y-116448270D02*
X236260448Y-116440630D01*
X236260448Y-116440630D02*
X236246899Y-116432395D01*
X236246899Y-116432395D02*
X236232630Y-116423564D01*
X236232630Y-116423564D02*
X236217678Y-116414139D01*
X236217678Y-116414139D02*
X236121900Y-116371276D01*
X236121900Y-116371276D02*
X236103825Y-116363570D01*
X236103825Y-116363570D02*
X236093418Y-116359333D01*
X236093418Y-116359333D02*
X236082080Y-116354872D01*
X236082080Y-116354872D02*
X236069799Y-116350213D01*
X236069799Y-116350213D02*
X236056564Y-116345380D01*
X236056564Y-116345380D02*
X236042361Y-116340398D01*
X236042361Y-116340398D02*
X236027178Y-116335293D01*
X236027178Y-116335293D02*
X236006376Y-116328554D01*
X236006376Y-116328554D02*
X235982199Y-116321071D01*
X235982199Y-116321071D02*
X235954848Y-116312894D01*
X235954848Y-116312894D02*
X235924520Y-116304072D01*
X235924520Y-116304072D02*
X235872951Y-116289363D01*
X235872951Y-116289363D02*
X235841781Y-116280808D01*
X235841781Y-116280808D02*
X235807244Y-116271727D01*
X235807244Y-116271727D02*
X235769506Y-116262323D01*
X235769506Y-116262323D02*
X235728737Y-116252801D01*
X235728737Y-116252801D02*
X235685102Y-116243366D01*
X235685102Y-116243366D02*
X235638770Y-116234222D01*
X235638770Y-116234222D02*
X235598057Y-116226980D01*
X235598057Y-116226980D02*
X235557245Y-116220369D01*
X235557245Y-116220369D02*
X235516340Y-116214391D01*
X235516340Y-116214391D02*
X235475350Y-116209044D01*
X235475350Y-116209044D02*
X235434283Y-116204332D01*
X235434283Y-116204332D02*
X235393145Y-116200254D01*
X235393145Y-116200254D02*
X235351944Y-116196812D01*
X235351944Y-116196812D02*
X235310688Y-116194006D01*
X235310688Y-116194006D02*
X235310687Y-116194005D01*
X235310687Y-116194005D02*
X235306321Y-116159213D01*
X235306321Y-116159213D02*
X235302650Y-116127479D01*
X235302650Y-116127479D02*
X235300964Y-116111457D01*
X235300964Y-116111457D02*
X235299575Y-116096639D01*
X235299575Y-116096639D02*
X235297253Y-116077649D01*
X235297253Y-116077649D02*
X235295595Y-116058608D01*
X235295595Y-116058608D02*
X235294600Y-116039532D01*
X235294600Y-116039532D02*
X235294268Y-116020439D01*
X235294268Y-116020439D02*
X235294600Y-116001345D01*
X235294600Y-116001345D02*
X235295595Y-115982269D01*
X235295595Y-115982269D02*
X235297253Y-115963228D01*
X235297253Y-115963228D02*
X235299575Y-115944239D01*
X235299575Y-115944239D02*
X235302857Y-115928277D01*
X235302857Y-115928277D02*
X235306451Y-115912388D01*
X235306451Y-115912388D02*
X235310356Y-115896576D01*
X235310356Y-115896576D02*
X235314571Y-115880845D01*
X235314571Y-115880845D02*
X235319094Y-115865201D01*
X235319094Y-115865201D02*
X235323924Y-115849646D01*
X235323924Y-115849646D02*
X235329060Y-115834186D01*
X235329060Y-115834186D02*
X235334500Y-115818826D01*
X235334500Y-115818826D02*
X235426641Y-115828351D01*
X235426641Y-115828351D02*
X235469815Y-115833244D01*
X235469815Y-115833244D02*
X235516889Y-115838918D01*
X235516889Y-115838918D02*
X235565786Y-115845262D01*
X235565786Y-115845262D02*
X235614429Y-115852164D01*
X235614429Y-115852164D02*
X235652940Y-115858194D01*
X235652940Y-115858194D02*
X235691361Y-115864734D01*
X235691361Y-115864734D02*
X235729690Y-115871782D01*
X235729690Y-115871782D02*
X235767919Y-115879336D01*
X235767919Y-115879336D02*
X235806045Y-115887397D01*
X235806045Y-115887397D02*
X235844063Y-115895962D01*
X235844063Y-115895962D02*
X235881968Y-115905032D01*
X235881968Y-115905032D02*
X235919754Y-115914604D01*
X235919754Y-115914604D02*
X235954772Y-115924160D01*
X235954772Y-115924160D02*
X235989642Y-115934221D01*
X235989642Y-115934221D02*
X236024359Y-115944785D01*
X236024359Y-115944785D02*
X236058916Y-115955850D01*
X236058916Y-115955850D02*
X236093310Y-115967416D01*
X236093310Y-115967416D02*
X236127534Y-115979479D01*
X236127534Y-115979479D02*
X236161582Y-115992038D01*
X236161582Y-115992038D02*
X236195451Y-116005092D01*
X236195451Y-116005092D02*
X236211385Y-116011236D01*
X236211385Y-116011236D02*
X236225681Y-116016933D01*
X236225681Y-116016933D02*
X236238092Y-116022134D01*
X236238092Y-116022134D02*
X236243513Y-116024532D01*
X236243513Y-116024532D02*
X236248370Y-116026789D01*
X236248370Y-116026789D02*
X236253517Y-116029113D01*
X236253517Y-116029113D02*
X236259681Y-116031692D01*
X236259681Y-116031692D02*
X236274167Y-116037438D01*
X236274167Y-116037438D02*
X236290042Y-116043681D01*
X236290042Y-116043681D02*
X236297942Y-116046879D01*
X236297942Y-116046879D02*
X236305519Y-116050072D01*
X236305519Y-116050072D02*
X236322453Y-116057637D01*
X236322453Y-116057637D02*
X236342561Y-116066939D01*
X236342561Y-116066939D02*
X236384366Y-116086584D01*
X236384366Y-116086584D02*
X236508190Y-116156964D01*
X236508190Y-116156964D02*
X236521014Y-116164064D01*
X236521014Y-116164064D02*
X236533731Y-116171349D01*
X236533731Y-116171349D02*
X236546338Y-116178818D01*
X236546338Y-116178818D02*
X236558835Y-116186469D01*
X236558835Y-116186469D02*
X236571219Y-116194302D01*
X236571219Y-116194302D02*
X236583488Y-116202315D01*
X236583488Y-116202315D02*
X236595640Y-116210507D01*
X236595640Y-116210507D02*
X236607674Y-116218876D01*
X236607674Y-116218876D02*
X236618794Y-116226996D01*
X236618794Y-116226996D02*
X236629731Y-116235353D01*
X236629731Y-116235353D02*
X236640480Y-116243946D01*
X236640480Y-116243946D02*
X236651038Y-116252769D01*
X236651038Y-116252769D02*
X236661401Y-116261821D01*
X236661401Y-116261821D02*
X236671565Y-116271098D01*
X236671565Y-116271098D02*
X236681527Y-116280596D01*
X236681527Y-116280596D02*
X236691283Y-116290313D01*
X236691283Y-116290313D02*
X236691283Y-116290314D01*
X236691283Y-116290314D02*
X236620903Y-116415726D01*
X236620903Y-116415726D02*
X236618136Y-116422279D01*
X236618136Y-116422279D02*
X236615188Y-116428741D01*
X236615188Y-116428741D02*
X236612063Y-116435110D01*
X236612063Y-116435110D02*
X236608762Y-116441382D01*
X236608762Y-116441382D02*
X236605287Y-116447553D01*
X236605287Y-116447553D02*
X236601643Y-116453620D01*
X236601643Y-116453620D02*
X236597829Y-116459580D01*
X236597829Y-116459580D02*
X236593851Y-116465428D01*
X236593851Y-116465428D02*
X236589708Y-116471162D01*
X236589708Y-116471162D02*
X236585405Y-116476778D01*
X236585405Y-116476778D02*
X236580944Y-116482273D01*
X236580944Y-116482273D02*
X236576326Y-116487642D01*
X236576326Y-116487642D02*
X236571555Y-116492883D01*
X236571555Y-116492883D02*
X236566633Y-116497992D01*
X236566633Y-116497992D02*
X236561562Y-116502966D01*
X236561562Y-116502966D02*
X236556345Y-116507801D01*
X236556345Y-116507801D02*
X236556345Y-116507801D01*
G36*
X235426641Y-115828351D02*
G01*
X235469815Y-115833244D01*
X235516889Y-115838918D01*
X235565786Y-115845262D01*
X235614429Y-115852164D01*
X235652940Y-115858194D01*
X235691361Y-115864734D01*
X235729690Y-115871782D01*
X235767919Y-115879336D01*
X235806045Y-115887397D01*
X235844063Y-115895962D01*
X235881968Y-115905032D01*
X235919754Y-115914604D01*
X235954772Y-115924160D01*
X235989642Y-115934221D01*
X236024359Y-115944785D01*
X236058916Y-115955850D01*
X236093310Y-115967416D01*
X236127534Y-115979479D01*
X236161582Y-115992038D01*
X236195451Y-116005092D01*
X236211385Y-116011236D01*
X236225681Y-116016933D01*
X236238092Y-116022134D01*
X236243513Y-116024532D01*
X236248370Y-116026789D01*
X236253517Y-116029113D01*
X236259681Y-116031692D01*
X236274167Y-116037438D01*
X236290042Y-116043681D01*
X236297942Y-116046879D01*
X236305519Y-116050072D01*
X236322453Y-116057637D01*
X236342561Y-116066939D01*
X236384366Y-116086584D01*
X236508190Y-116156964D01*
X236521014Y-116164064D01*
X236533731Y-116171349D01*
X236546338Y-116178818D01*
X236558835Y-116186469D01*
X236571219Y-116194302D01*
X236583488Y-116202315D01*
X236595640Y-116210507D01*
X236607674Y-116218876D01*
X236618794Y-116226996D01*
X236629731Y-116235353D01*
X236640480Y-116243946D01*
X236651038Y-116252769D01*
X236661401Y-116261821D01*
X236671565Y-116271098D01*
X236681527Y-116280596D01*
X236691283Y-116290313D01*
X236691283Y-116290314D01*
X236620903Y-116415726D01*
X236618136Y-116422279D01*
X236615188Y-116428741D01*
X236612063Y-116435110D01*
X236608762Y-116441382D01*
X236605287Y-116447553D01*
X236601643Y-116453620D01*
X236597829Y-116459580D01*
X236593851Y-116465428D01*
X236589708Y-116471162D01*
X236585405Y-116476778D01*
X236580944Y-116482273D01*
X236576326Y-116487642D01*
X236571555Y-116492883D01*
X236566633Y-116497992D01*
X236561562Y-116502966D01*
X236556345Y-116507801D01*
X236545072Y-116516737D01*
X236533568Y-116525358D01*
X236521838Y-116533661D01*
X236509888Y-116541641D01*
X236497727Y-116549293D01*
X236485360Y-116556614D01*
X236472794Y-116563598D01*
X236460036Y-116570243D01*
X236453760Y-116565025D01*
X236446669Y-116559220D01*
X236437613Y-116551920D01*
X236427093Y-116543604D01*
X236415611Y-116534747D01*
X236403671Y-116525829D01*
X236397686Y-116521496D01*
X236391774Y-116517326D01*
X236381208Y-116510120D01*
X236372435Y-116504428D01*
X236364715Y-116499727D01*
X236357312Y-116495498D01*
X236340503Y-116486370D01*
X236329621Y-116480429D01*
X236316104Y-116472876D01*
X236296409Y-116461764D01*
X236273241Y-116448270D01*
X236260448Y-116440630D01*
X236246899Y-116432395D01*
X236232630Y-116423564D01*
X236217678Y-116414139D01*
X236121900Y-116371276D01*
X236103825Y-116363570D01*
X236093418Y-116359333D01*
X236082080Y-116354872D01*
X236069799Y-116350213D01*
X236056564Y-116345380D01*
X236042361Y-116340398D01*
X236027178Y-116335293D01*
X236006376Y-116328554D01*
X235982199Y-116321071D01*
X235954848Y-116312894D01*
X235924520Y-116304072D01*
X235872951Y-116289363D01*
X235841781Y-116280808D01*
X235807244Y-116271727D01*
X235769506Y-116262323D01*
X235728737Y-116252801D01*
X235685102Y-116243366D01*
X235638770Y-116234222D01*
X235598057Y-116226980D01*
X235557245Y-116220369D01*
X235516340Y-116214391D01*
X235475350Y-116209044D01*
X235434283Y-116204332D01*
X235393145Y-116200254D01*
X235351944Y-116196812D01*
X235310688Y-116194006D01*
X235310687Y-116194005D01*
X235306321Y-116159213D01*
X235302650Y-116127479D01*
X235300964Y-116111457D01*
X235299575Y-116096639D01*
X235297253Y-116077649D01*
X235295595Y-116058608D01*
X235294600Y-116039532D01*
X235294268Y-116020439D01*
X235294600Y-116001345D01*
X235295595Y-115982269D01*
X235297253Y-115963228D01*
X235299575Y-115944239D01*
X235302857Y-115928277D01*
X235306451Y-115912388D01*
X235310356Y-115896576D01*
X235314571Y-115880845D01*
X235319094Y-115865201D01*
X235323924Y-115849646D01*
X235329060Y-115834186D01*
X235334500Y-115818826D01*
X235426641Y-115828351D01*
G37*
X235426641Y-115828351D02*
X235469815Y-115833244D01*
X235516889Y-115838918D01*
X235565786Y-115845262D01*
X235614429Y-115852164D01*
X235652940Y-115858194D01*
X235691361Y-115864734D01*
X235729690Y-115871782D01*
X235767919Y-115879336D01*
X235806045Y-115887397D01*
X235844063Y-115895962D01*
X235881968Y-115905032D01*
X235919754Y-115914604D01*
X235954772Y-115924160D01*
X235989642Y-115934221D01*
X236024359Y-115944785D01*
X236058916Y-115955850D01*
X236093310Y-115967416D01*
X236127534Y-115979479D01*
X236161582Y-115992038D01*
X236195451Y-116005092D01*
X236211385Y-116011236D01*
X236225681Y-116016933D01*
X236238092Y-116022134D01*
X236243513Y-116024532D01*
X236248370Y-116026789D01*
X236253517Y-116029113D01*
X236259681Y-116031692D01*
X236274167Y-116037438D01*
X236290042Y-116043681D01*
X236297942Y-116046879D01*
X236305519Y-116050072D01*
X236322453Y-116057637D01*
X236342561Y-116066939D01*
X236384366Y-116086584D01*
X236508190Y-116156964D01*
X236521014Y-116164064D01*
X236533731Y-116171349D01*
X236546338Y-116178818D01*
X236558835Y-116186469D01*
X236571219Y-116194302D01*
X236583488Y-116202315D01*
X236595640Y-116210507D01*
X236607674Y-116218876D01*
X236618794Y-116226996D01*
X236629731Y-116235353D01*
X236640480Y-116243946D01*
X236651038Y-116252769D01*
X236661401Y-116261821D01*
X236671565Y-116271098D01*
X236681527Y-116280596D01*
X236691283Y-116290313D01*
X236691283Y-116290314D01*
X236620903Y-116415726D01*
X236618136Y-116422279D01*
X236615188Y-116428741D01*
X236612063Y-116435110D01*
X236608762Y-116441382D01*
X236605287Y-116447553D01*
X236601643Y-116453620D01*
X236597829Y-116459580D01*
X236593851Y-116465428D01*
X236589708Y-116471162D01*
X236585405Y-116476778D01*
X236580944Y-116482273D01*
X236576326Y-116487642D01*
X236571555Y-116492883D01*
X236566633Y-116497992D01*
X236561562Y-116502966D01*
X236556345Y-116507801D01*
X236545072Y-116516737D01*
X236533568Y-116525358D01*
X236521838Y-116533661D01*
X236509888Y-116541641D01*
X236497727Y-116549293D01*
X236485360Y-116556614D01*
X236472794Y-116563598D01*
X236460036Y-116570243D01*
X236453760Y-116565025D01*
X236446669Y-116559220D01*
X236437613Y-116551920D01*
X236427093Y-116543604D01*
X236415611Y-116534747D01*
X236403671Y-116525829D01*
X236397686Y-116521496D01*
X236391774Y-116517326D01*
X236381208Y-116510120D01*
X236372435Y-116504428D01*
X236364715Y-116499727D01*
X236357312Y-116495498D01*
X236340503Y-116486370D01*
X236329621Y-116480429D01*
X236316104Y-116472876D01*
X236296409Y-116461764D01*
X236273241Y-116448270D01*
X236260448Y-116440630D01*
X236246899Y-116432395D01*
X236232630Y-116423564D01*
X236217678Y-116414139D01*
X236121900Y-116371276D01*
X236103825Y-116363570D01*
X236093418Y-116359333D01*
X236082080Y-116354872D01*
X236069799Y-116350213D01*
X236056564Y-116345380D01*
X236042361Y-116340398D01*
X236027178Y-116335293D01*
X236006376Y-116328554D01*
X235982199Y-116321071D01*
X235954848Y-116312894D01*
X235924520Y-116304072D01*
X235872951Y-116289363D01*
X235841781Y-116280808D01*
X235807244Y-116271727D01*
X235769506Y-116262323D01*
X235728737Y-116252801D01*
X235685102Y-116243366D01*
X235638770Y-116234222D01*
X235598057Y-116226980D01*
X235557245Y-116220369D01*
X235516340Y-116214391D01*
X235475350Y-116209044D01*
X235434283Y-116204332D01*
X235393145Y-116200254D01*
X235351944Y-116196812D01*
X235310688Y-116194006D01*
X235310687Y-116194005D01*
X235306321Y-116159213D01*
X235302650Y-116127479D01*
X235300964Y-116111457D01*
X235299575Y-116096639D01*
X235297253Y-116077649D01*
X235295595Y-116058608D01*
X235294600Y-116039532D01*
X235294268Y-116020439D01*
X235294600Y-116001345D01*
X235295595Y-115982269D01*
X235297253Y-115963228D01*
X235299575Y-115944239D01*
X235302857Y-115928277D01*
X235306451Y-115912388D01*
X235310356Y-115896576D01*
X235314571Y-115880845D01*
X235319094Y-115865201D01*
X235323924Y-115849646D01*
X235329060Y-115834186D01*
X235334500Y-115818826D01*
X235426641Y-115828351D01*
X232984999Y-116055893D02*
X232984612Y-116059686D01*
X232984612Y-116059686D02*
X232983593Y-116066393D01*
X232983593Y-116066393D02*
X232980501Y-116084335D01*
X232980501Y-116084335D02*
X232976004Y-116108809D01*
X232976004Y-116108809D02*
X232931472Y-116113181D01*
X232931472Y-116113181D02*
X232887051Y-116118444D01*
X232887051Y-116118444D02*
X232842752Y-116124596D01*
X232842752Y-116124596D02*
X232798591Y-116131634D01*
X232798591Y-116131634D02*
X232754580Y-116139556D01*
X232754580Y-116139556D02*
X232710732Y-116148360D01*
X232710732Y-116148360D02*
X232667060Y-116158044D01*
X232667060Y-116158044D02*
X232623579Y-116168605D01*
X232623579Y-116168605D02*
X232588220Y-116179538D01*
X232588220Y-116179538D02*
X232554919Y-116190582D01*
X232554919Y-116190582D02*
X232524496Y-116201254D01*
X232524496Y-116201254D02*
X232497769Y-116211071D01*
X232497769Y-116211071D02*
X232458677Y-116226202D01*
X232458677Y-116226202D02*
X232444191Y-116232105D01*
X232444191Y-116232105D02*
X232353174Y-116271264D01*
X232353174Y-116271264D02*
X232261628Y-116310422D01*
X232261628Y-116310422D02*
X232242084Y-116319606D01*
X232242084Y-116319606D02*
X232222692Y-116329098D01*
X232222692Y-116329098D02*
X232203457Y-116338899D01*
X232203457Y-116338899D02*
X232184382Y-116349005D01*
X232184382Y-116349005D02*
X232165471Y-116359414D01*
X232165471Y-116359414D02*
X232146727Y-116370125D01*
X232146727Y-116370125D02*
X232128155Y-116381135D01*
X232128155Y-116381135D02*
X232109758Y-116392443D01*
X232109758Y-116392443D02*
X232090066Y-116407118D01*
X232090066Y-116407118D02*
X232070591Y-116422432D01*
X232070591Y-116422432D02*
X232031772Y-116454157D01*
X232031772Y-116454157D02*
X232012167Y-116470159D01*
X232012167Y-116470159D02*
X231992258Y-116485981D01*
X231992258Y-116485981D02*
X231971915Y-116501419D01*
X231971915Y-116501419D02*
X231961540Y-116508930D01*
X231961540Y-116508930D02*
X231951008Y-116516268D01*
X231951008Y-116516268D02*
X231949341Y-116518541D01*
X231949341Y-116518541D02*
X231947620Y-116520771D01*
X231947620Y-116520771D02*
X231945845Y-116522958D01*
X231945845Y-116522958D02*
X231944017Y-116525100D01*
X231944017Y-116525100D02*
X231942137Y-116527196D01*
X231942137Y-116527196D02*
X231940205Y-116529246D01*
X231940205Y-116529246D02*
X231938223Y-116531247D01*
X231938223Y-116531247D02*
X231936191Y-116533201D01*
X231936191Y-116533201D02*
X231934639Y-116534822D01*
X231934639Y-116534822D02*
X231933149Y-116536324D01*
X231933149Y-116536324D02*
X231931711Y-116537724D01*
X231931711Y-116537724D02*
X231930312Y-116539038D01*
X231930312Y-116539038D02*
X231927587Y-116541480D01*
X231927587Y-116541480D02*
X231924880Y-116543784D01*
X231924880Y-116543784D02*
X231919150Y-116548530D01*
X231919150Y-116548530D02*
X231915941Y-116551244D01*
X231915941Y-116551244D02*
X231912379Y-116554368D01*
X231912379Y-116554368D02*
X231909661Y-116556736D01*
X231909661Y-116556736D02*
X231906982Y-116559147D01*
X231906982Y-116559147D02*
X231904341Y-116561600D01*
X231904341Y-116561600D02*
X231901741Y-116564094D01*
X231901741Y-116564094D02*
X231899180Y-116566630D01*
X231899180Y-116566630D02*
X231896659Y-116569205D01*
X231896659Y-116569205D02*
X231894179Y-116571821D01*
X231894179Y-116571821D02*
X231891741Y-116574476D01*
X231891741Y-116574476D02*
X231887517Y-116578945D01*
X231887517Y-116578945D02*
X231883547Y-116583241D01*
X231883547Y-116583241D02*
X231876197Y-116591410D01*
X231876197Y-116591410D02*
X231862637Y-116606755D01*
X231862637Y-116606755D02*
X231843058Y-116629510D01*
X231843058Y-116629510D02*
X231825795Y-116623261D01*
X231825795Y-116623261D02*
X231808704Y-116616579D01*
X231808704Y-116616579D02*
X231791794Y-116609468D01*
X231791794Y-116609468D02*
X231775073Y-116601930D01*
X231775073Y-116601930D02*
X231758549Y-116593971D01*
X231758549Y-116593971D02*
X231742230Y-116585593D01*
X231742230Y-116585593D02*
X231726123Y-116576801D01*
X231726123Y-116576801D02*
X231710237Y-116567597D01*
X231710237Y-116567597D02*
X231702045Y-116563037D01*
X231702045Y-116563037D02*
X231694007Y-116558240D01*
X231694007Y-116558240D02*
X231686126Y-116553212D01*
X231686126Y-116553212D02*
X231678408Y-116547955D01*
X231678408Y-116547955D02*
X231670857Y-116542475D01*
X231670857Y-116542475D02*
X231663478Y-116536776D01*
X231663478Y-116536776D02*
X231656276Y-116530862D01*
X231656276Y-116530862D02*
X231649255Y-116524737D01*
X231649255Y-116524737D02*
X231642420Y-116518405D01*
X231642420Y-116518405D02*
X231635775Y-116511870D01*
X231635775Y-116511870D02*
X231629326Y-116505137D01*
X231629326Y-116505137D02*
X231623076Y-116498210D01*
X231623076Y-116498210D02*
X231617031Y-116491093D01*
X231617031Y-116491093D02*
X231611196Y-116483790D01*
X231611196Y-116483790D02*
X231605574Y-116476305D01*
X231605574Y-116476305D02*
X231600170Y-116468643D01*
X231600170Y-116468643D02*
X231559954Y-116394031D01*
X231559954Y-116394031D02*
X231618692Y-116324710D01*
X231618692Y-116324710D02*
X231676371Y-116266501D01*
X231676371Y-116266501D02*
X231691451Y-116252096D01*
X231691451Y-116252096D02*
X231706765Y-116237946D01*
X231706765Y-116237946D02*
X231722309Y-116224053D01*
X231722309Y-116224053D02*
X231738080Y-116210420D01*
X231738080Y-116210420D02*
X231754075Y-116197051D01*
X231754075Y-116197051D02*
X231770291Y-116183948D01*
X231770291Y-116183948D02*
X231786723Y-116171114D01*
X231786723Y-116171114D02*
X231803370Y-116158551D01*
X231803370Y-116158551D02*
X231817504Y-116147131D01*
X231817504Y-116147131D02*
X231831820Y-116135945D01*
X231831820Y-116135945D02*
X231846316Y-116124997D01*
X231846316Y-116124997D02*
X231860987Y-116114288D01*
X231860987Y-116114288D02*
X231875831Y-116103820D01*
X231875831Y-116103820D02*
X231890846Y-116093595D01*
X231890846Y-116093595D02*
X231906028Y-116083616D01*
X231906028Y-116083616D02*
X231921374Y-116073884D01*
X231921374Y-116073884D02*
X231939010Y-116063227D01*
X231939010Y-116063227D02*
X231957291Y-116052519D01*
X231957291Y-116052519D02*
X231976664Y-116041514D01*
X231976664Y-116041514D02*
X231997574Y-116029964D01*
X231997574Y-116029964D02*
X232024264Y-116015048D01*
X232024264Y-116015048D02*
X232045596Y-116003505D01*
X232045596Y-116003505D02*
X232061570Y-115995138D01*
X232061570Y-115995138D02*
X232072186Y-115989747D01*
X232072186Y-115989747D02*
X232086606Y-115982206D01*
X232086606Y-115982206D02*
X232093684Y-115978585D01*
X232093684Y-115978585D02*
X232101654Y-115974566D01*
X232101654Y-115974566D02*
X232110270Y-115970300D01*
X232110270Y-115970300D02*
X232119282Y-115965934D01*
X232119282Y-115965934D02*
X232179099Y-115938461D01*
X232179099Y-115938461D02*
X232239577Y-115912560D01*
X232239577Y-115912560D02*
X232300685Y-115888242D01*
X232300685Y-115888242D02*
X232362391Y-115865517D01*
X232362391Y-115865517D02*
X232424665Y-115844398D01*
X232424665Y-115844398D02*
X232487476Y-115824895D01*
X232487476Y-115824895D02*
X232550792Y-115807019D01*
X232550792Y-115807019D02*
X232614582Y-115790780D01*
X232614582Y-115790780D02*
X232670916Y-115779087D01*
X232670916Y-115779087D02*
X232726922Y-115768671D01*
X232726922Y-115768671D02*
X232780386Y-115759619D01*
X232780386Y-115759619D02*
X232829093Y-115752019D01*
X232829093Y-115752019D02*
X232932082Y-115737864D01*
X232932082Y-115737864D02*
X232945245Y-115770143D01*
X232945245Y-115770143D02*
X232950970Y-115784631D01*
X232950970Y-115784631D02*
X232956862Y-115799925D01*
X232956862Y-115799925D02*
X232962519Y-115815145D01*
X232962519Y-115815145D02*
X232967536Y-115829409D01*
X232967536Y-115829409D02*
X232971499Y-115843206D01*
X232971499Y-115843206D02*
X232975082Y-115857086D01*
X232975082Y-115857086D02*
X232978284Y-115871043D01*
X232978284Y-115871043D02*
X232981105Y-115885069D01*
X232981105Y-115885069D02*
X232983544Y-115899156D01*
X232983544Y-115899156D02*
X232985600Y-115913295D01*
X232985600Y-115913295D02*
X232987274Y-115927480D01*
X232987274Y-115927480D02*
X232988564Y-115941703D01*
X232988564Y-115941703D02*
X232989469Y-115955955D01*
X232989469Y-115955955D02*
X232989990Y-115970229D01*
X232989990Y-115970229D02*
X232990125Y-115984517D01*
X232990125Y-115984517D02*
X232989875Y-115998811D01*
X232989875Y-115998811D02*
X232989237Y-116013104D01*
X232989237Y-116013104D02*
X232988213Y-116027387D01*
X232988213Y-116027387D02*
X232986800Y-116041652D01*
X232986800Y-116041652D02*
X232984999Y-116055893D01*
X232984999Y-116055893D02*
X232984999Y-116055893D01*
G36*
X232945245Y-115770143D02*
G01*
X232950970Y-115784631D01*
X232956862Y-115799925D01*
X232962519Y-115815145D01*
X232967536Y-115829409D01*
X232971499Y-115843206D01*
X232975082Y-115857086D01*
X232978284Y-115871043D01*
X232981105Y-115885069D01*
X232983544Y-115899156D01*
X232985600Y-115913295D01*
X232987274Y-115927480D01*
X232988564Y-115941703D01*
X232989469Y-115955955D01*
X232989990Y-115970229D01*
X232990125Y-115984517D01*
X232989875Y-115998811D01*
X232989237Y-116013104D01*
X232988213Y-116027387D01*
X232986800Y-116041652D01*
X232984999Y-116055893D01*
X232984612Y-116059686D01*
X232983593Y-116066393D01*
X232980501Y-116084335D01*
X232976004Y-116108809D01*
X232931472Y-116113181D01*
X232887051Y-116118444D01*
X232842752Y-116124596D01*
X232798591Y-116131634D01*
X232754580Y-116139556D01*
X232710732Y-116148360D01*
X232667060Y-116158044D01*
X232623579Y-116168605D01*
X232588220Y-116179538D01*
X232554919Y-116190582D01*
X232524496Y-116201254D01*
X232497769Y-116211071D01*
X232458677Y-116226202D01*
X232444191Y-116232105D01*
X232353174Y-116271264D01*
X232261628Y-116310422D01*
X232242084Y-116319606D01*
X232222692Y-116329098D01*
X232203457Y-116338899D01*
X232184382Y-116349005D01*
X232165471Y-116359414D01*
X232146727Y-116370125D01*
X232128155Y-116381135D01*
X232109758Y-116392443D01*
X232090066Y-116407118D01*
X232070591Y-116422432D01*
X232031772Y-116454157D01*
X232012167Y-116470159D01*
X231992258Y-116485981D01*
X231971915Y-116501419D01*
X231961540Y-116508930D01*
X231951008Y-116516268D01*
X231949341Y-116518541D01*
X231947620Y-116520771D01*
X231945845Y-116522958D01*
X231944017Y-116525100D01*
X231942137Y-116527196D01*
X231940205Y-116529246D01*
X231938223Y-116531247D01*
X231936191Y-116533201D01*
X231934639Y-116534822D01*
X231933149Y-116536324D01*
X231931711Y-116537724D01*
X231930312Y-116539038D01*
X231927587Y-116541480D01*
X231924880Y-116543784D01*
X231919150Y-116548530D01*
X231915941Y-116551244D01*
X231912379Y-116554368D01*
X231909661Y-116556736D01*
X231906982Y-116559147D01*
X231904341Y-116561600D01*
X231901741Y-116564094D01*
X231899180Y-116566630D01*
X231896659Y-116569205D01*
X231894179Y-116571821D01*
X231891741Y-116574476D01*
X231887517Y-116578945D01*
X231883547Y-116583241D01*
X231876197Y-116591410D01*
X231862637Y-116606755D01*
X231843058Y-116629510D01*
X231825795Y-116623261D01*
X231808704Y-116616579D01*
X231791794Y-116609468D01*
X231775073Y-116601930D01*
X231758549Y-116593971D01*
X231742230Y-116585593D01*
X231726123Y-116576801D01*
X231710237Y-116567597D01*
X231702045Y-116563037D01*
X231694007Y-116558240D01*
X231686126Y-116553212D01*
X231678408Y-116547955D01*
X231670857Y-116542475D01*
X231663478Y-116536776D01*
X231656276Y-116530862D01*
X231649255Y-116524737D01*
X231642420Y-116518405D01*
X231635775Y-116511870D01*
X231629326Y-116505137D01*
X231623076Y-116498210D01*
X231617031Y-116491093D01*
X231611196Y-116483790D01*
X231605574Y-116476305D01*
X231600170Y-116468643D01*
X231559954Y-116394031D01*
X231618692Y-116324710D01*
X231676371Y-116266501D01*
X231691451Y-116252096D01*
X231706765Y-116237946D01*
X231722309Y-116224053D01*
X231738080Y-116210420D01*
X231754075Y-116197051D01*
X231770291Y-116183948D01*
X231786723Y-116171114D01*
X231803370Y-116158551D01*
X231817504Y-116147131D01*
X231831820Y-116135945D01*
X231846316Y-116124997D01*
X231860987Y-116114288D01*
X231875831Y-116103820D01*
X231890846Y-116093595D01*
X231906028Y-116083616D01*
X231921374Y-116073884D01*
X231939010Y-116063227D01*
X231957291Y-116052519D01*
X231976664Y-116041514D01*
X231997574Y-116029964D01*
X232024264Y-116015048D01*
X232045596Y-116003505D01*
X232061570Y-115995138D01*
X232072186Y-115989747D01*
X232086606Y-115982206D01*
X232093684Y-115978585D01*
X232101654Y-115974566D01*
X232110270Y-115970300D01*
X232119282Y-115965934D01*
X232179099Y-115938461D01*
X232239577Y-115912560D01*
X232300685Y-115888242D01*
X232362391Y-115865517D01*
X232424665Y-115844398D01*
X232487476Y-115824895D01*
X232550792Y-115807019D01*
X232614582Y-115790780D01*
X232670916Y-115779087D01*
X232726922Y-115768671D01*
X232780386Y-115759619D01*
X232829093Y-115752019D01*
X232932082Y-115737864D01*
X232945245Y-115770143D01*
G37*
X232945245Y-115770143D02*
X232950970Y-115784631D01*
X232956862Y-115799925D01*
X232962519Y-115815145D01*
X232967536Y-115829409D01*
X232971499Y-115843206D01*
X232975082Y-115857086D01*
X232978284Y-115871043D01*
X232981105Y-115885069D01*
X232983544Y-115899156D01*
X232985600Y-115913295D01*
X232987274Y-115927480D01*
X232988564Y-115941703D01*
X232989469Y-115955955D01*
X232989990Y-115970229D01*
X232990125Y-115984517D01*
X232989875Y-115998811D01*
X232989237Y-116013104D01*
X232988213Y-116027387D01*
X232986800Y-116041652D01*
X232984999Y-116055893D01*
X232984612Y-116059686D01*
X232983593Y-116066393D01*
X232980501Y-116084335D01*
X232976004Y-116108809D01*
X232931472Y-116113181D01*
X232887051Y-116118444D01*
X232842752Y-116124596D01*
X232798591Y-116131634D01*
X232754580Y-116139556D01*
X232710732Y-116148360D01*
X232667060Y-116158044D01*
X232623579Y-116168605D01*
X232588220Y-116179538D01*
X232554919Y-116190582D01*
X232524496Y-116201254D01*
X232497769Y-116211071D01*
X232458677Y-116226202D01*
X232444191Y-116232105D01*
X232353174Y-116271264D01*
X232261628Y-116310422D01*
X232242084Y-116319606D01*
X232222692Y-116329098D01*
X232203457Y-116338899D01*
X232184382Y-116349005D01*
X232165471Y-116359414D01*
X232146727Y-116370125D01*
X232128155Y-116381135D01*
X232109758Y-116392443D01*
X232090066Y-116407118D01*
X232070591Y-116422432D01*
X232031772Y-116454157D01*
X232012167Y-116470159D01*
X231992258Y-116485981D01*
X231971915Y-116501419D01*
X231961540Y-116508930D01*
X231951008Y-116516268D01*
X231949341Y-116518541D01*
X231947620Y-116520771D01*
X231945845Y-116522958D01*
X231944017Y-116525100D01*
X231942137Y-116527196D01*
X231940205Y-116529246D01*
X231938223Y-116531247D01*
X231936191Y-116533201D01*
X231934639Y-116534822D01*
X231933149Y-116536324D01*
X231931711Y-116537724D01*
X231930312Y-116539038D01*
X231927587Y-116541480D01*
X231924880Y-116543784D01*
X231919150Y-116548530D01*
X231915941Y-116551244D01*
X231912379Y-116554368D01*
X231909661Y-116556736D01*
X231906982Y-116559147D01*
X231904341Y-116561600D01*
X231901741Y-116564094D01*
X231899180Y-116566630D01*
X231896659Y-116569205D01*
X231894179Y-116571821D01*
X231891741Y-116574476D01*
X231887517Y-116578945D01*
X231883547Y-116583241D01*
X231876197Y-116591410D01*
X231862637Y-116606755D01*
X231843058Y-116629510D01*
X231825795Y-116623261D01*
X231808704Y-116616579D01*
X231791794Y-116609468D01*
X231775073Y-116601930D01*
X231758549Y-116593971D01*
X231742230Y-116585593D01*
X231726123Y-116576801D01*
X231710237Y-116567597D01*
X231702045Y-116563037D01*
X231694007Y-116558240D01*
X231686126Y-116553212D01*
X231678408Y-116547955D01*
X231670857Y-116542475D01*
X231663478Y-116536776D01*
X231656276Y-116530862D01*
X231649255Y-116524737D01*
X231642420Y-116518405D01*
X231635775Y-116511870D01*
X231629326Y-116505137D01*
X231623076Y-116498210D01*
X231617031Y-116491093D01*
X231611196Y-116483790D01*
X231605574Y-116476305D01*
X231600170Y-116468643D01*
X231559954Y-116394031D01*
X231618692Y-116324710D01*
X231676371Y-116266501D01*
X231691451Y-116252096D01*
X231706765Y-116237946D01*
X231722309Y-116224053D01*
X231738080Y-116210420D01*
X231754075Y-116197051D01*
X231770291Y-116183948D01*
X231786723Y-116171114D01*
X231803370Y-116158551D01*
X231817504Y-116147131D01*
X231831820Y-116135945D01*
X231846316Y-116124997D01*
X231860987Y-116114288D01*
X231875831Y-116103820D01*
X231890846Y-116093595D01*
X231906028Y-116083616D01*
X231921374Y-116073884D01*
X231939010Y-116063227D01*
X231957291Y-116052519D01*
X231976664Y-116041514D01*
X231997574Y-116029964D01*
X232024264Y-116015048D01*
X232045596Y-116003505D01*
X232061570Y-115995138D01*
X232072186Y-115989747D01*
X232086606Y-115982206D01*
X232093684Y-115978585D01*
X232101654Y-115974566D01*
X232110270Y-115970300D01*
X232119282Y-115965934D01*
X232179099Y-115938461D01*
X232239577Y-115912560D01*
X232300685Y-115888242D01*
X232362391Y-115865517D01*
X232424665Y-115844398D01*
X232487476Y-115824895D01*
X232550792Y-115807019D01*
X232614582Y-115790780D01*
X232670916Y-115779087D01*
X232726922Y-115768671D01*
X232780386Y-115759619D01*
X232829093Y-115752019D01*
X232932082Y-115737864D01*
X232945245Y-115770143D01*
X234178269Y-114694347D02*
X233913936Y-114701595D01*
X233913936Y-114701595D02*
X233652910Y-114722808D01*
X233652910Y-114722808D02*
X233395578Y-114757188D01*
X233395578Y-114757188D02*
X233142329Y-114803939D01*
X233142329Y-114803939D02*
X232893552Y-114862264D01*
X232893552Y-114862264D02*
X232649635Y-114931364D01*
X232649635Y-114931364D02*
X232410967Y-115010443D01*
X232410967Y-115010443D02*
X232177937Y-115098705D01*
X232177937Y-115098705D02*
X231730343Y-115299585D01*
X231730343Y-115299585D02*
X231309961Y-115527626D01*
X231309961Y-115527626D02*
X230919900Y-115776453D01*
X230919900Y-115776453D02*
X230563268Y-116039687D01*
X230563268Y-116039687D02*
X230243173Y-116310952D01*
X230243173Y-116310952D02*
X229962724Y-116583870D01*
X229962724Y-116583870D02*
X229725028Y-116852064D01*
X229725028Y-116852064D02*
X229533195Y-117109158D01*
X229533195Y-117109158D02*
X229390333Y-117348773D01*
X229390333Y-117348773D02*
X229299550Y-117564534D01*
X229299550Y-117564534D02*
X229274659Y-117661475D01*
X229274659Y-117661475D02*
X229263954Y-117750062D01*
X229263954Y-117750062D02*
X229267822Y-117829496D01*
X229267822Y-117829496D02*
X229286653Y-117898980D01*
X229286653Y-117898980D02*
X229313182Y-117947906D01*
X229313182Y-117947906D02*
X229349828Y-117991338D01*
X229349828Y-117991338D02*
X229396183Y-118029630D01*
X229396183Y-118029630D02*
X229451833Y-118063139D01*
X229451833Y-118063139D02*
X229516368Y-118092220D01*
X229516368Y-118092220D02*
X229589378Y-118117231D01*
X229589378Y-118117231D02*
X229670450Y-118138526D01*
X229670450Y-118138526D02*
X229759174Y-118156461D01*
X229759174Y-118156461D02*
X229957933Y-118183677D01*
X229957933Y-118183677D02*
X230182366Y-118201724D01*
X230182366Y-118201724D02*
X230695096Y-118221706D01*
X230695096Y-118221706D02*
X231271054Y-118239182D01*
X231271054Y-118239182D02*
X231574521Y-118254098D01*
X231574521Y-118254098D02*
X231883927Y-118276929D01*
X231883927Y-118276929D02*
X232195985Y-118310523D01*
X232195985Y-118310523D02*
X232507404Y-118357725D01*
X232507404Y-118357725D02*
X232661847Y-118387320D01*
X232661847Y-118387320D02*
X232814897Y-118421384D01*
X232814897Y-118421384D02*
X232966143Y-118460275D01*
X232966143Y-118460275D02*
X233115174Y-118504347D01*
X233115174Y-118504347D02*
X233244727Y-118545204D01*
X233244727Y-118545204D02*
X233375641Y-118580866D01*
X233375641Y-118580866D02*
X233507758Y-118611307D01*
X233507758Y-118611307D02*
X233640922Y-118636500D01*
X233640922Y-118636500D02*
X233774976Y-118656418D01*
X233774976Y-118656418D02*
X233909764Y-118671036D01*
X233909764Y-118671036D02*
X234045130Y-118680326D01*
X234045130Y-118680326D02*
X234180916Y-118684263D01*
X234180916Y-118684263D02*
X234308561Y-118682316D01*
X234308561Y-118682316D02*
X234435909Y-118675594D01*
X234435909Y-118675594D02*
X234562827Y-118664117D01*
X234562827Y-118664117D02*
X234689183Y-118647905D01*
X234689183Y-118647905D02*
X234814844Y-118626978D01*
X234814844Y-118626978D02*
X234939678Y-118601354D01*
X234939678Y-118601354D02*
X235063551Y-118571054D01*
X235063551Y-118571054D02*
X235186332Y-118536097D01*
X235186332Y-118536097D02*
X235496110Y-118457196D01*
X235496110Y-118457196D02*
X235811919Y-118396102D01*
X235811919Y-118396102D02*
X236130549Y-118350118D01*
X236130549Y-118350118D02*
X236448791Y-118316550D01*
X236448791Y-118316550D02*
X237071277Y-118275880D01*
X237071277Y-118275880D02*
X237653704Y-118252530D01*
X237653704Y-118252530D02*
X238170398Y-118224937D01*
X238170398Y-118224937D02*
X238396072Y-118202813D01*
X238396072Y-118202813D02*
X238595687Y-118171542D01*
X238595687Y-118171542D02*
X238766031Y-118128430D01*
X238766031Y-118128430D02*
X238903897Y-118070782D01*
X238903897Y-118070782D02*
X238959648Y-118035665D01*
X238959648Y-118035665D02*
X239006075Y-117995903D01*
X239006075Y-117995903D02*
X239042779Y-117951159D01*
X239042779Y-117951159D02*
X239069357Y-117901097D01*
X239069357Y-117901097D02*
X239088261Y-117830023D01*
X239088261Y-117830023D02*
X239092155Y-117749189D01*
X239092155Y-117749189D02*
X239081432Y-117659383D01*
X239081432Y-117659383D02*
X239056483Y-117561393D01*
X239056483Y-117561393D02*
X239017703Y-117456007D01*
X239017703Y-117456007D02*
X238965484Y-117344013D01*
X238965484Y-117344013D02*
X238900220Y-117226199D01*
X238900220Y-117226199D02*
X238822302Y-117103353D01*
X238822302Y-117103353D02*
X238732125Y-116976263D01*
X238732125Y-116976263D02*
X238630082Y-116845717D01*
X238630082Y-116845717D02*
X238516564Y-116712504D01*
X238516564Y-116712504D02*
X238391966Y-116577410D01*
X238391966Y-116577410D02*
X238256680Y-116441225D01*
X238256680Y-116441225D02*
X238111099Y-116304736D01*
X238111099Y-116304736D02*
X237955617Y-116168731D01*
X237955617Y-116168731D02*
X237790626Y-116033998D01*
X237790626Y-116033998D02*
X237616519Y-115901326D01*
X237616519Y-115901326D02*
X237433689Y-115771503D01*
X237433689Y-115771503D02*
X237242530Y-115645315D01*
X237242530Y-115645315D02*
X237043434Y-115523552D01*
X237043434Y-115523552D02*
X236836794Y-115407002D01*
X236836794Y-115407002D02*
X236623004Y-115296452D01*
X236623004Y-115296452D02*
X236402456Y-115192690D01*
X236402456Y-115192690D02*
X236175543Y-115096505D01*
X236175543Y-115096505D02*
X235942658Y-115008685D01*
X235942658Y-115008685D02*
X235704195Y-114930017D01*
X235704195Y-114930017D02*
X235460546Y-114861291D01*
X235460546Y-114861291D02*
X235212104Y-114803292D01*
X235212104Y-114803292D02*
X234959262Y-114756811D01*
X234959262Y-114756811D02*
X234702414Y-114722634D01*
X234702414Y-114722634D02*
X234441952Y-114701550D01*
X234441952Y-114701550D02*
X234178269Y-114694347D01*
X234178269Y-114694347D02*
X234178269Y-114694347D01*
G36*
X234441952Y-114701550D02*
G01*
X234702414Y-114722634D01*
X234959262Y-114756811D01*
X235212104Y-114803292D01*
X235460546Y-114861291D01*
X235704195Y-114930017D01*
X235942658Y-115008685D01*
X236175543Y-115096505D01*
X236402456Y-115192690D01*
X236623004Y-115296452D01*
X236836794Y-115407002D01*
X237043434Y-115523552D01*
X237242530Y-115645315D01*
X237433689Y-115771503D01*
X237616519Y-115901326D01*
X237790626Y-116033998D01*
X237955617Y-116168731D01*
X238111099Y-116304736D01*
X238256680Y-116441225D01*
X238391966Y-116577410D01*
X238516564Y-116712504D01*
X238630082Y-116845717D01*
X238732125Y-116976263D01*
X238822302Y-117103353D01*
X238900220Y-117226199D01*
X238965484Y-117344013D01*
X239017703Y-117456007D01*
X239056483Y-117561393D01*
X239081432Y-117659383D01*
X239092155Y-117749189D01*
X239088261Y-117830023D01*
X239069357Y-117901097D01*
X239042779Y-117951159D01*
X239006075Y-117995903D01*
X238959648Y-118035665D01*
X238903897Y-118070782D01*
X238766031Y-118128430D01*
X238595687Y-118171542D01*
X238396072Y-118202813D01*
X238170398Y-118224937D01*
X237653704Y-118252530D01*
X237071277Y-118275880D01*
X236448791Y-118316550D01*
X236130549Y-118350118D01*
X235811919Y-118396102D01*
X235496110Y-118457196D01*
X235186332Y-118536097D01*
X235063551Y-118571054D01*
X234939678Y-118601354D01*
X234814844Y-118626978D01*
X234689183Y-118647905D01*
X234562827Y-118664117D01*
X234435909Y-118675594D01*
X234308561Y-118682316D01*
X234180916Y-118684263D01*
X234045130Y-118680326D01*
X233909764Y-118671036D01*
X233774976Y-118656418D01*
X233640922Y-118636500D01*
X233507758Y-118611307D01*
X233375641Y-118580866D01*
X233244727Y-118545204D01*
X233115174Y-118504347D01*
X232966143Y-118460275D01*
X232814897Y-118421384D01*
X232661847Y-118387320D01*
X232507404Y-118357725D01*
X232195985Y-118310523D01*
X231883927Y-118276929D01*
X231574521Y-118254098D01*
X231271054Y-118239182D01*
X230695096Y-118221706D01*
X230182366Y-118201724D01*
X229957933Y-118183677D01*
X229759174Y-118156461D01*
X229670450Y-118138526D01*
X229589378Y-118117231D01*
X229516368Y-118092220D01*
X229451833Y-118063139D01*
X229396183Y-118029630D01*
X229349828Y-117991338D01*
X229313182Y-117947906D01*
X229286653Y-117898980D01*
X229267822Y-117829496D01*
X229263954Y-117750062D01*
X229274659Y-117661475D01*
X229299550Y-117564534D01*
X229390333Y-117348773D01*
X229533195Y-117109158D01*
X229725028Y-116852064D01*
X229962724Y-116583870D01*
X230243173Y-116310952D01*
X230563268Y-116039687D01*
X230919900Y-115776453D01*
X231309961Y-115527626D01*
X231730343Y-115299585D01*
X232177937Y-115098705D01*
X232410967Y-115010443D01*
X232649635Y-114931364D01*
X232893552Y-114862264D01*
X233142329Y-114803939D01*
X233395578Y-114757188D01*
X233652910Y-114722808D01*
X233913936Y-114701595D01*
X234178269Y-114694347D01*
X234441952Y-114701550D01*
G37*
X234441952Y-114701550D02*
X234702414Y-114722634D01*
X234959262Y-114756811D01*
X235212104Y-114803292D01*
X235460546Y-114861291D01*
X235704195Y-114930017D01*
X235942658Y-115008685D01*
X236175543Y-115096505D01*
X236402456Y-115192690D01*
X236623004Y-115296452D01*
X236836794Y-115407002D01*
X237043434Y-115523552D01*
X237242530Y-115645315D01*
X237433689Y-115771503D01*
X237616519Y-115901326D01*
X237790626Y-116033998D01*
X237955617Y-116168731D01*
X238111099Y-116304736D01*
X238256680Y-116441225D01*
X238391966Y-116577410D01*
X238516564Y-116712504D01*
X238630082Y-116845717D01*
X238732125Y-116976263D01*
X238822302Y-117103353D01*
X238900220Y-117226199D01*
X238965484Y-117344013D01*
X239017703Y-117456007D01*
X239056483Y-117561393D01*
X239081432Y-117659383D01*
X239092155Y-117749189D01*
X239088261Y-117830023D01*
X239069357Y-117901097D01*
X239042779Y-117951159D01*
X239006075Y-117995903D01*
X238959648Y-118035665D01*
X238903897Y-118070782D01*
X238766031Y-118128430D01*
X238595687Y-118171542D01*
X238396072Y-118202813D01*
X238170398Y-118224937D01*
X237653704Y-118252530D01*
X237071277Y-118275880D01*
X236448791Y-118316550D01*
X236130549Y-118350118D01*
X235811919Y-118396102D01*
X235496110Y-118457196D01*
X235186332Y-118536097D01*
X235063551Y-118571054D01*
X234939678Y-118601354D01*
X234814844Y-118626978D01*
X234689183Y-118647905D01*
X234562827Y-118664117D01*
X234435909Y-118675594D01*
X234308561Y-118682316D01*
X234180916Y-118684263D01*
X234045130Y-118680326D01*
X233909764Y-118671036D01*
X233774976Y-118656418D01*
X233640922Y-118636500D01*
X233507758Y-118611307D01*
X233375641Y-118580866D01*
X233244727Y-118545204D01*
X233115174Y-118504347D01*
X232966143Y-118460275D01*
X232814897Y-118421384D01*
X232661847Y-118387320D01*
X232507404Y-118357725D01*
X232195985Y-118310523D01*
X231883927Y-118276929D01*
X231574521Y-118254098D01*
X231271054Y-118239182D01*
X230695096Y-118221706D01*
X230182366Y-118201724D01*
X229957933Y-118183677D01*
X229759174Y-118156461D01*
X229670450Y-118138526D01*
X229589378Y-118117231D01*
X229516368Y-118092220D01*
X229451833Y-118063139D01*
X229396183Y-118029630D01*
X229349828Y-117991338D01*
X229313182Y-117947906D01*
X229286653Y-117898980D01*
X229267822Y-117829496D01*
X229263954Y-117750062D01*
X229274659Y-117661475D01*
X229299550Y-117564534D01*
X229390333Y-117348773D01*
X229533195Y-117109158D01*
X229725028Y-116852064D01*
X229962724Y-116583870D01*
X230243173Y-116310952D01*
X230563268Y-116039687D01*
X230919900Y-115776453D01*
X231309961Y-115527626D01*
X231730343Y-115299585D01*
X232177937Y-115098705D01*
X232410967Y-115010443D01*
X232649635Y-114931364D01*
X232893552Y-114862264D01*
X233142329Y-114803939D01*
X233395578Y-114757188D01*
X233652910Y-114722808D01*
X233913936Y-114701595D01*
X234178269Y-114694347D01*
X234441952Y-114701550D01*
%TD*%
M02*
