%TF.GenerationSoftware,KiCad,Pcbnew,(6.0.0-0)*%
%TF.CreationDate,2022-11-10T22:32:45-05:00*%
%TF.ProjectId,ADSR-Generator,41445352-2d47-4656-9e65-7261746f722e,rev?*%
%TF.SameCoordinates,Original*%
%TF.FileFunction,Soldermask,Bot*%
%TF.FilePolarity,Negative*%
%FSLAX46Y46*%
G04 Gerber Fmt 4.6, Leading zero omitted, Abs format (unit mm)*
G04 Created by KiCad (PCBNEW (6.0.0-0)) date 2022-11-10 22:32:45*
%MOMM*%
%LPD*%
G01*
G04 APERTURE LIST*
G04 Aperture macros list*
%AMRoundRect*
0 Rectangle with rounded corners*
0 $1 Rounding radius*
0 $2 $3 $4 $5 $6 $7 $8 $9 X,Y pos of 4 corners*
0 Add a 4 corners polygon primitive as box body*
4,1,4,$2,$3,$4,$5,$6,$7,$8,$9,$2,$3,0*
0 Add four circle primitives for the rounded corners*
1,1,$1+$1,$2,$3*
1,1,$1+$1,$4,$5*
1,1,$1+$1,$6,$7*
1,1,$1+$1,$8,$9*
0 Add four rect primitives between the rounded corners*
20,1,$1+$1,$2,$3,$4,$5,0*
20,1,$1+$1,$4,$5,$6,$7,0*
20,1,$1+$1,$6,$7,$8,$9,0*
20,1,$1+$1,$8,$9,$2,$3,0*%
%AMRotRect*
0 Rectangle, with rotation*
0 The origin of the aperture is its center*
0 $1 length*
0 $2 width*
0 $3 Rotation angle, in degrees counterclockwise*
0 Add horizontal line*
21,1,$1,$2,0,0,$3*%
G04 Aperture macros list end*
%ADD10RoundRect,0.250000X1.250000X0.550000X-1.250000X0.550000X-1.250000X-0.550000X1.250000X-0.550000X0*%
%ADD11RoundRect,0.250000X0.262500X0.450000X-0.262500X0.450000X-0.262500X-0.450000X0.262500X-0.450000X0*%
%ADD12RoundRect,0.250000X-0.262500X-0.450000X0.262500X-0.450000X0.262500X0.450000X-0.262500X0.450000X0*%
%ADD13R,0.500000X0.500000*%
%ADD14RoundRect,0.250000X0.450000X-0.262500X0.450000X0.262500X-0.450000X0.262500X-0.450000X-0.262500X0*%
%ADD15C,0.800000*%
%ADD16C,6.000000*%
%ADD17RoundRect,0.150000X-0.150000X0.825000X-0.150000X-0.825000X0.150000X-0.825000X0.150000X0.825000X0*%
%ADD18C,2.340000*%
%ADD19RoundRect,0.250000X-0.450000X0.262500X-0.450000X-0.262500X0.450000X-0.262500X0.450000X0.262500X0*%
%ADD20R,1.000000X1.400000*%
%ADD21RotRect,3.000000X6.500000X315.000000*%
%ADD22R,3.000000X8.500000*%
%ADD23C,1.700000*%
%ADD24RoundRect,0.250000X0.600000X-0.600000X0.600000X0.600000X-0.600000X0.600000X-0.600000X-0.600000X0*%
%ADD25RoundRect,0.250000X-0.250000X-0.475000X0.250000X-0.475000X0.250000X0.475000X-0.250000X0.475000X0*%
G04 APERTURE END LIST*
D10*
%TO.C,C2*%
X251120000Y-132842000D03*
X246720000Y-132842000D03*
%TD*%
D11*
%TO.C,R9*%
X234846500Y-61722000D03*
X233021500Y-61722000D03*
%TD*%
D12*
%TO.C,R12*%
X246229500Y-59182000D03*
X248054500Y-59182000D03*
%TD*%
D13*
%TO.C,D1*%
X236982000Y-59352000D03*
X236982000Y-61552000D03*
%TD*%
D14*
%TO.C,R6*%
X228854000Y-52935500D03*
X228854000Y-54760500D03*
%TD*%
D15*
%TO.C,REF\u002A\u002A*%
X260060000Y-149098000D03*
X259400990Y-147507010D03*
X257810000Y-146848000D03*
X259400990Y-150688990D03*
X257810000Y-151348000D03*
X255560000Y-149098000D03*
D16*
X257810000Y-149098000D03*
D15*
X256219010Y-147507010D03*
X256219010Y-150688990D03*
%TD*%
%TO.C,REF\u002A\u002A*%
X212562000Y-149098000D03*
X211902990Y-147507010D03*
X210312000Y-146848000D03*
X211902990Y-150688990D03*
X210312000Y-151348000D03*
X208062000Y-149098000D03*
D16*
X210312000Y-149098000D03*
D15*
X208721010Y-147507010D03*
X208721010Y-150688990D03*
%TD*%
%TO.C,REF\u002A\u002A*%
X260060000Y-41656000D03*
X259400990Y-40065010D03*
X257810000Y-39406000D03*
X259400990Y-43246990D03*
X257810000Y-43906000D03*
X255560000Y-41656000D03*
D16*
X257810000Y-41656000D03*
D15*
X256219010Y-40065010D03*
X256219010Y-43246990D03*
%TD*%
%TO.C,REF\u002A\u002A*%
X212562000Y-41656000D03*
X211902990Y-40065010D03*
X210312000Y-39406000D03*
X211902990Y-43246990D03*
X210312000Y-43906000D03*
X208062000Y-41656000D03*
D16*
X210312000Y-41656000D03*
D15*
X208721010Y-40065010D03*
X208721010Y-43246990D03*
%TD*%
D17*
%TO.C,U2*%
X240157000Y-57977000D03*
X241427000Y-57977000D03*
X242697000Y-57977000D03*
X243967000Y-57977000D03*
X243967000Y-62927000D03*
X242697000Y-62927000D03*
X241427000Y-62927000D03*
X240157000Y-62927000D03*
%TD*%
%TO.C,U1*%
X224409000Y-62927000D03*
X225679000Y-62927000D03*
X226949000Y-62927000D03*
X228219000Y-62927000D03*
X228219000Y-57977000D03*
X226949000Y-57977000D03*
X225679000Y-57977000D03*
X224409000Y-57977000D03*
%TD*%
D18*
%TO.C,RV4*%
X217250000Y-143504000D03*
X222250000Y-143504000D03*
X227250000Y-143504000D03*
%TD*%
%TO.C,RV3*%
X241126000Y-114300000D03*
X246126000Y-114300000D03*
X251126000Y-114300000D03*
%TD*%
%TO.C,RV2*%
X227250000Y-114294000D03*
X222250000Y-114294000D03*
X217250000Y-114294000D03*
%TD*%
%TO.C,RV1*%
X241126000Y-143510000D03*
X246126000Y-143510000D03*
X251126000Y-143510000D03*
%TD*%
D11*
%TO.C,R13*%
X248054500Y-61468000D03*
X246229500Y-61468000D03*
%TD*%
D12*
%TO.C,R11*%
X250293500Y-110490000D03*
X252118500Y-110490000D03*
%TD*%
D14*
%TO.C,R10*%
X230886000Y-61618500D03*
X230886000Y-59793500D03*
%TD*%
D19*
%TO.C,R8*%
X239522000Y-131929500D03*
X239522000Y-133754500D03*
%TD*%
D12*
%TO.C,R7*%
X233021500Y-59436000D03*
X234846500Y-59436000D03*
%TD*%
D11*
%TO.C,R5*%
X224893500Y-55372000D03*
X226718500Y-55372000D03*
%TD*%
D12*
%TO.C,R4*%
X221892500Y-61976000D03*
X220067500Y-61976000D03*
%TD*%
D11*
%TO.C,R3*%
X220067500Y-64008000D03*
X221892500Y-64008000D03*
%TD*%
%TO.C,R2*%
X220067500Y-56896000D03*
X221892500Y-56896000D03*
%TD*%
D12*
%TO.C,R1*%
X221892500Y-58928000D03*
X220067500Y-58928000D03*
%TD*%
D20*
%TO.C,Q1*%
X243520000Y-133942000D03*
X242570000Y-131742000D03*
X241620000Y-133942000D03*
%TD*%
D21*
%TO.C,J3*%
X250949000Y-79899000D03*
D22*
X239739000Y-75917000D03*
%TD*%
D21*
%TO.C,J2*%
X227048000Y-79929000D03*
D22*
X215838000Y-75947000D03*
%TD*%
D23*
%TO.C,J1*%
X225044000Y-43434000D03*
X227584000Y-43434000D03*
X230124000Y-43434000D03*
X232664000Y-43434000D03*
X235204000Y-43434000D03*
X237744000Y-43434000D03*
X240284000Y-43434000D03*
X242824000Y-43434000D03*
X225044000Y-45974000D03*
X227584000Y-45974000D03*
X230124000Y-45974000D03*
X232664000Y-45974000D03*
X235204000Y-45974000D03*
X237744000Y-45974000D03*
X240284000Y-45974000D03*
D24*
X242824000Y-45974000D03*
%TD*%
D13*
%TO.C,D2*%
X218270000Y-139700000D03*
X216070000Y-139700000D03*
%TD*%
D25*
%TO.C,C1*%
X226756000Y-53086000D03*
X224856000Y-53086000D03*
%TD*%
M02*
