%TF.GenerationSoftware,KiCad,Pcbnew,(6.0.0-0)*%
%TF.CreationDate,2022-11-10T22:32:45-05:00*%
%TF.ProjectId,ADSR-Generator,41445352-2d47-4656-9e65-7261746f722e,rev?*%
%TF.SameCoordinates,Original*%
%TF.FileFunction,Soldermask,Top*%
%TF.FilePolarity,Negative*%
%FSLAX46Y46*%
G04 Gerber Fmt 4.6, Leading zero omitted, Abs format (unit mm)*
G04 Created by KiCad (PCBNEW (6.0.0-0)) date 2022-11-10 22:32:45*
%MOMM*%
%LPD*%
G01*
G04 APERTURE LIST*
G04 Aperture macros list*
%AMRoundRect*
0 Rectangle with rounded corners*
0 $1 Rounding radius*
0 $2 $3 $4 $5 $6 $7 $8 $9 X,Y pos of 4 corners*
0 Add a 4 corners polygon primitive as box body*
4,1,4,$2,$3,$4,$5,$6,$7,$8,$9,$2,$3,0*
0 Add four circle primitives for the rounded corners*
1,1,$1+$1,$2,$3*
1,1,$1+$1,$4,$5*
1,1,$1+$1,$6,$7*
1,1,$1+$1,$8,$9*
0 Add four rect primitives between the rounded corners*
20,1,$1+$1,$2,$3,$4,$5,0*
20,1,$1+$1,$4,$5,$6,$7,0*
20,1,$1+$1,$6,$7,$8,$9,0*
20,1,$1+$1,$8,$9,$2,$3,0*%
%AMRotRect*
0 Rectangle, with rotation*
0 The origin of the aperture is its center*
0 $1 length*
0 $2 width*
0 $3 Rotation angle, in degrees counterclockwise*
0 Add horizontal line*
21,1,$1,$2,0,0,$3*%
G04 Aperture macros list end*
%ADD10C,0.800000*%
%ADD11C,6.000000*%
%ADD12C,2.340000*%
%ADD13RotRect,3.000000X6.500000X315.000000*%
%ADD14R,3.000000X8.500000*%
%ADD15C,1.700000*%
%ADD16RoundRect,0.250000X0.600000X-0.600000X0.600000X0.600000X-0.600000X0.600000X-0.600000X-0.600000X0*%
G04 APERTURE END LIST*
D10*
%TO.C,REF\u002A\u002A*%
X260060000Y-149098000D03*
X259400990Y-147507010D03*
X257810000Y-146848000D03*
X259400990Y-150688990D03*
X257810000Y-151348000D03*
X255560000Y-149098000D03*
D11*
X257810000Y-149098000D03*
D10*
X256219010Y-147507010D03*
X256219010Y-150688990D03*
%TD*%
%TO.C,REF\u002A\u002A*%
X212562000Y-149098000D03*
X211902990Y-147507010D03*
X210312000Y-146848000D03*
X211902990Y-150688990D03*
X210312000Y-151348000D03*
X208062000Y-149098000D03*
D11*
X210312000Y-149098000D03*
D10*
X208721010Y-147507010D03*
X208721010Y-150688990D03*
%TD*%
%TO.C,REF\u002A\u002A*%
X260060000Y-41656000D03*
X259400990Y-40065010D03*
X257810000Y-39406000D03*
X259400990Y-43246990D03*
X257810000Y-43906000D03*
X255560000Y-41656000D03*
D11*
X257810000Y-41656000D03*
D10*
X256219010Y-40065010D03*
X256219010Y-43246990D03*
%TD*%
%TO.C,REF\u002A\u002A*%
X212562000Y-41656000D03*
X211902990Y-40065010D03*
X210312000Y-39406000D03*
X211902990Y-43246990D03*
X210312000Y-43906000D03*
X208062000Y-41656000D03*
D11*
X210312000Y-41656000D03*
D10*
X208721010Y-40065010D03*
X208721010Y-43246990D03*
%TD*%
D12*
%TO.C,RV4*%
X217250000Y-143504000D03*
X222250000Y-143504000D03*
X227250000Y-143504000D03*
%TD*%
%TO.C,RV3*%
X241126000Y-114300000D03*
X246126000Y-114300000D03*
X251126000Y-114300000D03*
%TD*%
%TO.C,RV2*%
X227250000Y-114294000D03*
X222250000Y-114294000D03*
X217250000Y-114294000D03*
%TD*%
%TO.C,RV1*%
X241126000Y-143510000D03*
X246126000Y-143510000D03*
X251126000Y-143510000D03*
%TD*%
D13*
%TO.C,J3*%
X250949000Y-79899000D03*
D14*
X239739000Y-75917000D03*
%TD*%
D13*
%TO.C,J2*%
X227048000Y-79929000D03*
D14*
X215838000Y-75947000D03*
%TD*%
D15*
%TO.C,J1*%
X225044000Y-43434000D03*
X227584000Y-43434000D03*
X230124000Y-43434000D03*
X232664000Y-43434000D03*
X235204000Y-43434000D03*
X237744000Y-43434000D03*
X240284000Y-43434000D03*
X242824000Y-43434000D03*
X225044000Y-45974000D03*
X227584000Y-45974000D03*
X230124000Y-45974000D03*
X232664000Y-45974000D03*
X235204000Y-45974000D03*
X237744000Y-45974000D03*
X240284000Y-45974000D03*
D16*
X242824000Y-45974000D03*
%TD*%
M02*
