%TF.GenerationSoftware,KiCad,Pcbnew,(6.0.0-0)*%
%TF.CreationDate,2022-11-10T22:32:44-05:00*%
%TF.ProjectId,ADSR-Generator,41445352-2d47-4656-9e65-7261746f722e,rev?*%
%TF.SameCoordinates,Original*%
%TF.FileFunction,Copper,L2,Bot*%
%TF.FilePolarity,Positive*%
%FSLAX46Y46*%
G04 Gerber Fmt 4.6, Leading zero omitted, Abs format (unit mm)*
G04 Created by KiCad (PCBNEW (6.0.0-0)) date 2022-11-10 22:32:44*
%MOMM*%
%LPD*%
G01*
G04 APERTURE LIST*
G04 Aperture macros list*
%AMRoundRect*
0 Rectangle with rounded corners*
0 $1 Rounding radius*
0 $2 $3 $4 $5 $6 $7 $8 $9 X,Y pos of 4 corners*
0 Add a 4 corners polygon primitive as box body*
4,1,4,$2,$3,$4,$5,$6,$7,$8,$9,$2,$3,0*
0 Add four circle primitives for the rounded corners*
1,1,$1+$1,$2,$3*
1,1,$1+$1,$4,$5*
1,1,$1+$1,$6,$7*
1,1,$1+$1,$8,$9*
0 Add four rect primitives between the rounded corners*
20,1,$1+$1,$2,$3,$4,$5,0*
20,1,$1+$1,$4,$5,$6,$7,0*
20,1,$1+$1,$6,$7,$8,$9,0*
20,1,$1+$1,$8,$9,$2,$3,0*%
%AMRotRect*
0 Rectangle, with rotation*
0 The origin of the aperture is its center*
0 $1 length*
0 $2 width*
0 $3 Rotation angle, in degrees counterclockwise*
0 Add horizontal line*
21,1,$1,$2,0,0,$3*%
G04 Aperture macros list end*
%TA.AperFunction,SMDPad,CuDef*%
%ADD10RoundRect,0.250000X1.250000X0.550000X-1.250000X0.550000X-1.250000X-0.550000X1.250000X-0.550000X0*%
%TD*%
%TA.AperFunction,SMDPad,CuDef*%
%ADD11RoundRect,0.250000X0.262500X0.450000X-0.262500X0.450000X-0.262500X-0.450000X0.262500X-0.450000X0*%
%TD*%
%TA.AperFunction,SMDPad,CuDef*%
%ADD12RoundRect,0.250000X-0.262500X-0.450000X0.262500X-0.450000X0.262500X0.450000X-0.262500X0.450000X0*%
%TD*%
%TA.AperFunction,SMDPad,CuDef*%
%ADD13R,0.500000X0.500000*%
%TD*%
%TA.AperFunction,SMDPad,CuDef*%
%ADD14RoundRect,0.250000X0.450000X-0.262500X0.450000X0.262500X-0.450000X0.262500X-0.450000X-0.262500X0*%
%TD*%
%TA.AperFunction,ComponentPad*%
%ADD15C,0.800000*%
%TD*%
%TA.AperFunction,ComponentPad*%
%ADD16C,6.000000*%
%TD*%
%TA.AperFunction,SMDPad,CuDef*%
%ADD17RoundRect,0.150000X-0.150000X0.825000X-0.150000X-0.825000X0.150000X-0.825000X0.150000X0.825000X0*%
%TD*%
%TA.AperFunction,ComponentPad*%
%ADD18C,2.340000*%
%TD*%
%TA.AperFunction,SMDPad,CuDef*%
%ADD19RoundRect,0.250000X-0.450000X0.262500X-0.450000X-0.262500X0.450000X-0.262500X0.450000X0.262500X0*%
%TD*%
%TA.AperFunction,SMDPad,CuDef*%
%ADD20R,1.000000X1.400000*%
%TD*%
%TA.AperFunction,ComponentPad*%
%ADD21RotRect,3.000000X6.500000X315.000000*%
%TD*%
%TA.AperFunction,ComponentPad*%
%ADD22R,3.000000X8.500000*%
%TD*%
%TA.AperFunction,ComponentPad*%
%ADD23C,1.700000*%
%TD*%
%TA.AperFunction,ComponentPad*%
%ADD24RoundRect,0.250000X0.600000X-0.600000X0.600000X0.600000X-0.600000X0.600000X-0.600000X-0.600000X0*%
%TD*%
%TA.AperFunction,SMDPad,CuDef*%
%ADD25RoundRect,0.250000X-0.250000X-0.475000X0.250000X-0.475000X0.250000X0.475000X-0.250000X0.475000X0*%
%TD*%
%TA.AperFunction,ViaPad*%
%ADD26C,0.800000*%
%TD*%
%TA.AperFunction,Conductor*%
%ADD27C,0.250000*%
%TD*%
G04 APERTURE END LIST*
D10*
%TO.P,C2,1*%
%TO.N,Net-(C2-Pad1)*%
X251120000Y-132842000D03*
%TO.P,C2,2*%
%TO.N,GND*%
X246720000Y-132842000D03*
%TD*%
D11*
%TO.P,R9,1*%
%TO.N,Net-(D1-Pad2)*%
X234846500Y-61722000D03*
%TO.P,R9,2*%
%TO.N,Net-(R10-Pad2)*%
X233021500Y-61722000D03*
%TD*%
D12*
%TO.P,R12,1*%
%TO.N,Net-(R12-Pad1)*%
X246229500Y-59182000D03*
%TO.P,R12,2*%
%TO.N,GND*%
X248054500Y-59182000D03*
%TD*%
D13*
%TO.P,D1,1,K*%
%TO.N,Net-(D1-Pad1)*%
X236982000Y-59352000D03*
%TO.P,D1,2,A*%
%TO.N,Net-(D1-Pad2)*%
X236982000Y-61552000D03*
%TD*%
D14*
%TO.P,R6,2*%
%TO.N,Net-(C1-Pad2)*%
X228854000Y-52935500D03*
%TO.P,R6,1*%
%TO.N,GND*%
X228854000Y-54760500D03*
%TD*%
D15*
%TO.P,REF\u002A\u002A,1*%
%TO.N,N/C*%
X260060000Y-149098000D03*
X259400990Y-147507010D03*
X257810000Y-146848000D03*
X259400990Y-150688990D03*
X257810000Y-151348000D03*
X255560000Y-149098000D03*
D16*
X257810000Y-149098000D03*
D15*
X256219010Y-147507010D03*
X256219010Y-150688990D03*
%TD*%
%TO.P,REF\u002A\u002A,1*%
%TO.N,N/C*%
X212562000Y-149098000D03*
X211902990Y-147507010D03*
X210312000Y-146848000D03*
X211902990Y-150688990D03*
X210312000Y-151348000D03*
X208062000Y-149098000D03*
D16*
X210312000Y-149098000D03*
D15*
X208721010Y-147507010D03*
X208721010Y-150688990D03*
%TD*%
%TO.P,REF\u002A\u002A,1*%
%TO.N,N/C*%
X260060000Y-41656000D03*
X259400990Y-40065010D03*
X257810000Y-39406000D03*
X259400990Y-43246990D03*
X257810000Y-43906000D03*
X255560000Y-41656000D03*
D16*
X257810000Y-41656000D03*
D15*
X256219010Y-40065010D03*
X256219010Y-43246990D03*
%TD*%
%TO.P,REF\u002A\u002A,1*%
%TO.N,N/C*%
X212562000Y-41656000D03*
X211902990Y-40065010D03*
X210312000Y-39406000D03*
X211902990Y-43246990D03*
X210312000Y-43906000D03*
X208062000Y-41656000D03*
D16*
X210312000Y-41656000D03*
D15*
X208721010Y-40065010D03*
X208721010Y-43246990D03*
%TD*%
D17*
%TO.P,U2,1*%
%TO.N,Net-(U1-Pad6)*%
X240157000Y-57977000D03*
%TO.P,U2,2,-*%
X241427000Y-57977000D03*
%TO.P,U2,3,+*%
%TO.N,Net-(C2-Pad1)*%
X242697000Y-57977000D03*
%TO.P,U2,4,V-*%
%TO.N,-12V*%
X243967000Y-57977000D03*
%TO.P,U2,5,+*%
%TO.N,Net-(U1-Pad6)*%
X243967000Y-62927000D03*
%TO.P,U2,6,-*%
%TO.N,Net-(R12-Pad1)*%
X242697000Y-62927000D03*
%TO.P,U2,7*%
%TO.N,ENVELOPE_OUT*%
X241427000Y-62927000D03*
%TO.P,U2,8,V+*%
%TO.N,+12V*%
X240157000Y-62927000D03*
%TD*%
%TO.P,U1,8,V+*%
%TO.N,+12V*%
X224409000Y-62927000D03*
%TO.P,U1,7*%
%TO.N,Net-(R10-Pad2)*%
X225679000Y-62927000D03*
%TO.P,U1,6,-*%
%TO.N,Net-(U1-Pad6)*%
X226949000Y-62927000D03*
%TO.P,U1,5,+*%
%TO.N,Net-(C1-Pad2)*%
X228219000Y-62927000D03*
%TO.P,U1,4,V-*%
%TO.N,-12V*%
X228219000Y-57977000D03*
%TO.P,U1,3,+*%
%TO.N,Net-(R2-Pad2)*%
X226949000Y-57977000D03*
%TO.P,U1,2,-*%
%TO.N,Net-(R3-Pad2)*%
X225679000Y-57977000D03*
%TO.P,U1,1*%
%TO.N,Net-(C1-Pad1)*%
X224409000Y-57977000D03*
%TD*%
D18*
%TO.P,RV4,3,3*%
%TO.N,Net-(D2-Pad2)*%
X217250000Y-143504000D03*
%TO.P,RV4,2,2*%
X222250000Y-143504000D03*
%TO.P,RV4,1,1*%
%TO.N,Net-(C2-Pad1)*%
X227250000Y-143504000D03*
%TD*%
%TO.P,RV3,3,3*%
%TO.N,Net-(R10-Pad1)*%
X241126000Y-114300000D03*
%TO.P,RV3,2,2*%
%TO.N,Net-(D2-Pad1)*%
X246126000Y-114300000D03*
%TO.P,RV3,1,1*%
%TO.N,Net-(R11-Pad2)*%
X251126000Y-114300000D03*
%TD*%
%TO.P,RV2,1,1*%
%TO.N,Net-(C2-Pad1)*%
X227250000Y-114294000D03*
%TO.P,RV2,2,2*%
%TO.N,Net-(D1-Pad1)*%
X222250000Y-114294000D03*
%TO.P,RV2,3,3*%
X217250000Y-114294000D03*
%TD*%
%TO.P,RV1,3,3*%
%TO.N,Net-(Q1-Pad3)*%
X241126000Y-143510000D03*
%TO.P,RV1,2,2*%
X246126000Y-143510000D03*
%TO.P,RV1,1,1*%
%TO.N,Net-(C2-Pad1)*%
X251126000Y-143510000D03*
%TD*%
D11*
%TO.P,R13,1*%
%TO.N,ENVELOPE_OUT*%
X248054500Y-61468000D03*
%TO.P,R13,2*%
%TO.N,Net-(R12-Pad1)*%
X246229500Y-61468000D03*
%TD*%
D12*
%TO.P,R11,1*%
%TO.N,+12V*%
X250293500Y-110490000D03*
%TO.P,R11,2*%
%TO.N,Net-(R11-Pad2)*%
X252118500Y-110490000D03*
%TD*%
D14*
%TO.P,R10,1*%
%TO.N,Net-(R10-Pad1)*%
X230886000Y-61618500D03*
%TO.P,R10,2*%
%TO.N,Net-(R10-Pad2)*%
X230886000Y-59793500D03*
%TD*%
D19*
%TO.P,R8,1*%
%TO.N,Net-(Q1-Pad2)*%
X239522000Y-131929500D03*
%TO.P,R8,2*%
%TO.N,Net-(C1-Pad1)*%
X239522000Y-133754500D03*
%TD*%
D12*
%TO.P,R7,1*%
%TO.N,Net-(R10-Pad2)*%
X233021500Y-59436000D03*
%TO.P,R7,2*%
%TO.N,Net-(C1-Pad2)*%
X234846500Y-59436000D03*
%TD*%
D11*
%TO.P,R5,2*%
%TO.N,Net-(C1-Pad1)*%
X224893500Y-55372000D03*
%TO.P,R5,1*%
%TO.N,Net-(R2-Pad2)*%
X226718500Y-55372000D03*
%TD*%
D12*
%TO.P,R4,2*%
%TO.N,+12V*%
X221892500Y-61976000D03*
%TO.P,R4,1*%
%TO.N,Net-(R3-Pad2)*%
X220067500Y-61976000D03*
%TD*%
D11*
%TO.P,R3,2*%
%TO.N,Net-(R3-Pad2)*%
X220067500Y-64008000D03*
%TO.P,R3,1*%
%TO.N,GND*%
X221892500Y-64008000D03*
%TD*%
%TO.P,R2,2*%
%TO.N,Net-(R2-Pad2)*%
X220067500Y-56896000D03*
%TO.P,R2,1*%
%TO.N,GATE*%
X221892500Y-56896000D03*
%TD*%
D12*
%TO.P,R1,2*%
%TO.N,GND*%
X221892500Y-58928000D03*
%TO.P,R1,1*%
%TO.N,GATE*%
X220067500Y-58928000D03*
%TD*%
D20*
%TO.P,Q1,1,C*%
%TO.N,GND*%
X243520000Y-133942000D03*
%TO.P,Q1,2,B*%
%TO.N,Net-(Q1-Pad2)*%
X242570000Y-131742000D03*
%TO.P,Q1,3,E*%
%TO.N,Net-(Q1-Pad3)*%
X241620000Y-133942000D03*
%TD*%
D21*
%TO.P,J3,1,Pin_1*%
%TO.N,ENVELOPE_OUT*%
X250949000Y-79899000D03*
D22*
%TO.P,J3,*%
%TO.N,*%
X239739000Y-75917000D03*
%TD*%
D21*
%TO.P,J2,1,Pin_1*%
%TO.N,GATE*%
X227048000Y-79929000D03*
D22*
%TO.P,J2,*%
%TO.N,*%
X215838000Y-75947000D03*
%TD*%
D23*
%TO.P,J1,16,Pin_16*%
%TO.N,unconnected-(J1-Pad16)*%
X225044000Y-43434000D03*
%TO.P,J1,14,Pin_14*%
%TO.N,unconnected-(J1-Pad14)*%
X227584000Y-43434000D03*
%TO.P,J1,12,Pin_12*%
%TO.N,unconnected-(J1-Pad12)*%
X230124000Y-43434000D03*
%TO.P,J1,10,Pin_10*%
%TO.N,+12V*%
X232664000Y-43434000D03*
%TO.P,J1,8,Pin_8*%
%TO.N,GND*%
X235204000Y-43434000D03*
%TO.P,J1,6,Pin_6*%
X237744000Y-43434000D03*
%TO.P,J1,4,Pin_4*%
X240284000Y-43434000D03*
%TO.P,J1,2,Pin_2*%
%TO.N,-12V*%
X242824000Y-43434000D03*
%TO.P,J1,15,Pin_15*%
%TO.N,unconnected-(J1-Pad15)*%
X225044000Y-45974000D03*
%TO.P,J1,13,Pin_13*%
%TO.N,unconnected-(J1-Pad13)*%
X227584000Y-45974000D03*
%TO.P,J1,11,Pin_11*%
%TO.N,unconnected-(J1-Pad11)*%
X230124000Y-45974000D03*
%TO.P,J1,9,Pin_9*%
%TO.N,+12V*%
X232664000Y-45974000D03*
%TO.P,J1,7,Pin_7*%
%TO.N,GND*%
X235204000Y-45974000D03*
%TO.P,J1,5,Pin_5*%
X237744000Y-45974000D03*
%TO.P,J1,3,Pin_3*%
X240284000Y-45974000D03*
D24*
%TO.P,J1,1,Pin_1*%
%TO.N,-12V*%
X242824000Y-45974000D03*
%TD*%
D13*
%TO.P,D2,1,K*%
%TO.N,Net-(D2-Pad1)*%
X218270000Y-139700000D03*
%TO.P,D2,2,A*%
%TO.N,Net-(D2-Pad2)*%
X216070000Y-139700000D03*
%TD*%
D25*
%TO.P,C1,2*%
%TO.N,Net-(C1-Pad2)*%
X226756000Y-53086000D03*
%TO.P,C1,1*%
%TO.N,Net-(C1-Pad1)*%
X224856000Y-53086000D03*
%TD*%
D26*
%TO.N,Net-(D1-Pad1)*%
X236474000Y-103124000D03*
%TO.N,Net-(C1-Pad1)*%
X223520000Y-53086000D03*
X233934000Y-68834000D03*
%TO.N,GND*%
X246634000Y-130810000D03*
X243586000Y-135636000D03*
%TO.N,Net-(D2-Pad1)*%
X225044000Y-139700000D03*
%TO.N,GND*%
X249428000Y-59182000D03*
%TO.N,Net-(C1-Pad2)*%
X235712000Y-58166000D03*
X228854000Y-51562000D03*
%TO.N,GND*%
X223012000Y-64008000D03*
X223012000Y-58928000D03*
X228854000Y-55880000D03*
%TD*%
D27*
%TO.N,ENVELOPE_OUT*%
X250949000Y-79899000D02*
X250949000Y-64362500D01*
X250949000Y-64362500D02*
X248054500Y-61468000D01*
%TO.N,GATE*%
X220067500Y-58928000D02*
X219202000Y-58928000D01*
X219202000Y-58928000D02*
X218186000Y-59944000D01*
X218186000Y-59944000D02*
X218186000Y-65786000D01*
X218186000Y-65786000D02*
X227048000Y-74648000D01*
X227048000Y-74648000D02*
X227048000Y-79929000D01*
%TO.N,Net-(D1-Pad1)*%
X236982000Y-59352000D02*
X237406000Y-59352000D01*
X238506000Y-68072000D02*
X236728000Y-69850000D01*
X236728000Y-69850000D02*
X236474000Y-70104000D01*
X237406000Y-59352000D02*
X237744000Y-59690000D01*
X237744000Y-59690000D02*
X238506000Y-60452000D01*
X238506000Y-62230000D02*
X238506000Y-68072000D01*
X238506000Y-60452000D02*
X238506000Y-62230000D01*
X236474000Y-70104000D02*
X236474000Y-103124000D01*
%TO.N,Net-(R10-Pad1)*%
X241126000Y-114300000D02*
X235458000Y-108632000D01*
X235458000Y-108632000D02*
X235458000Y-67564000D01*
X230886000Y-62992000D02*
X230886000Y-61618500D01*
X235458000Y-67564000D02*
X230886000Y-62992000D01*
%TO.N,Net-(C1-Pad1)*%
X239522000Y-133754500D02*
X233934000Y-128166500D01*
X233934000Y-128166500D02*
X233934000Y-68834000D01*
%TO.N,Net-(R11-Pad2)*%
X251126000Y-114300000D02*
X251126000Y-112856000D01*
X252118500Y-111863500D02*
X252118500Y-110490000D01*
X251126000Y-112856000D02*
X252118500Y-111863500D01*
%TO.N,-12V*%
X228219000Y-57977000D02*
X229808000Y-56388000D01*
X229808000Y-56388000D02*
X232410000Y-56388000D01*
X232410000Y-56388000D02*
X242824000Y-45974000D01*
%TO.N,Net-(C1-Pad1)*%
X223520000Y-53086000D02*
X224856000Y-53086000D01*
%TO.N,GND*%
X246720000Y-132842000D02*
X246720000Y-130896000D01*
X246720000Y-130896000D02*
X246634000Y-130810000D01*
X243520000Y-133942000D02*
X243520000Y-135570000D01*
X243520000Y-135570000D02*
X243586000Y-135636000D01*
X243520000Y-133942000D02*
X245620000Y-133942000D01*
X245620000Y-133942000D02*
X246720000Y-132842000D01*
%TO.N,Net-(Q1-Pad2)*%
X239522000Y-131929500D02*
X239709500Y-131742000D01*
X239709500Y-131742000D02*
X242570000Y-131742000D01*
%TO.N,Net-(Q1-Pad3)*%
X241620000Y-133942000D02*
X241620000Y-138618000D01*
X241620000Y-138618000D02*
X241046000Y-139192000D01*
X241046000Y-139192000D02*
X241126000Y-139272000D01*
X241126000Y-139272000D02*
X241126000Y-143510000D01*
%TO.N,Net-(D2-Pad1)*%
X218270000Y-139700000D02*
X225044000Y-139700000D01*
%TO.N,Net-(D2-Pad2)*%
X217250000Y-143504000D02*
X217250000Y-142574000D01*
X217250000Y-142574000D02*
X216070000Y-141394000D01*
X216070000Y-141394000D02*
X216070000Y-139700000D01*
X222250000Y-143504000D02*
X217250000Y-143504000D01*
%TO.N,Net-(Q1-Pad3)*%
X246126000Y-143510000D02*
X241126000Y-143510000D01*
%TO.N,Net-(C2-Pad1)*%
X227250000Y-143504000D02*
X227250000Y-114294000D01*
X251126000Y-143510000D02*
X247570000Y-147066000D01*
X230124000Y-147066000D02*
X227250000Y-144192000D01*
X247570000Y-147066000D02*
X230124000Y-147066000D01*
X227250000Y-144192000D02*
X227250000Y-143504000D01*
X251120000Y-132842000D02*
X251126000Y-132848000D01*
X251126000Y-132848000D02*
X251126000Y-143510000D01*
X242697000Y-57977000D02*
X242697000Y-59055000D01*
X242697000Y-59055000D02*
X243586000Y-59944000D01*
X243586000Y-59944000D02*
X244348000Y-59944000D01*
X244348000Y-59944000D02*
X244856000Y-59436000D01*
X244856000Y-59436000D02*
X244856000Y-58166000D01*
X257810000Y-126152000D02*
X251120000Y-132842000D01*
X244856000Y-58166000D02*
X245618000Y-57404000D01*
X245618000Y-57404000D02*
X249682000Y-57404000D01*
X249682000Y-57404000D02*
X250444000Y-58166000D01*
X257810000Y-69088000D02*
X257810000Y-126152000D01*
X250444000Y-58166000D02*
X250444000Y-61722000D01*
X250444000Y-61722000D02*
X257810000Y-69088000D01*
%TO.N,-12V*%
X243967000Y-57977000D02*
X243967000Y-54229000D01*
X243967000Y-54229000D02*
X242824000Y-53086000D01*
X242824000Y-53086000D02*
X242824000Y-45974000D01*
%TO.N,GND*%
X248054500Y-59182000D02*
X249428000Y-59182000D01*
%TO.N,ENVELOPE_OUT*%
X248054500Y-61468000D02*
X248054500Y-62587500D01*
X248054500Y-62587500D02*
X245110000Y-65532000D01*
X245110000Y-65532000D02*
X242824000Y-65532000D01*
X242824000Y-65532000D02*
X241427000Y-64135000D01*
X241427000Y-64135000D02*
X241427000Y-62927000D01*
%TO.N,Net-(R12-Pad1)*%
X246229500Y-61468000D02*
X246229500Y-63396500D01*
X246229500Y-63396500D02*
X244856000Y-64770000D01*
X243332000Y-64770000D02*
X242697000Y-64135000D01*
X244856000Y-64770000D02*
X243332000Y-64770000D01*
X242697000Y-64135000D02*
X242697000Y-62927000D01*
X246229500Y-61468000D02*
X246229500Y-59182000D01*
%TO.N,Net-(U1-Pad6)*%
X241427000Y-57977000D02*
X241427000Y-59309000D01*
X243967000Y-61849000D02*
X243967000Y-62927000D01*
X241427000Y-59309000D02*
X243967000Y-61849000D01*
%TO.N,Net-(D1-Pad2)*%
X234846500Y-61722000D02*
X235016500Y-61552000D01*
X235016500Y-61552000D02*
X236982000Y-61552000D01*
%TO.N,Net-(U1-Pad6)*%
X226949000Y-61341000D02*
X230848501Y-57441499D01*
%TO.N,Net-(C1-Pad2)*%
X234846500Y-59436000D02*
X234950000Y-59436000D01*
%TO.N,Net-(U1-Pad6)*%
X239621499Y-57441499D02*
X240157000Y-57977000D01*
%TO.N,Net-(C1-Pad2)*%
X234950000Y-59436000D02*
X235458000Y-58928000D01*
X235458000Y-58928000D02*
X235712000Y-58674000D01*
%TO.N,Net-(U1-Pad6)*%
X226949000Y-62927000D02*
X226949000Y-61341000D01*
%TO.N,Net-(C1-Pad2)*%
X228854000Y-51562000D02*
X228854000Y-52935500D01*
%TO.N,Net-(U1-Pad6)*%
X230848501Y-57441499D02*
X239621499Y-57441499D01*
%TO.N,Net-(C1-Pad2)*%
X235712000Y-58674000D02*
X235712000Y-58166000D01*
X234846500Y-59436000D02*
X234846500Y-58570500D01*
X234846500Y-58570500D02*
X234188000Y-57912000D01*
X234188000Y-57912000D02*
X231242507Y-57912000D01*
X231242507Y-57912000D02*
X228219000Y-60935507D01*
X228219000Y-60935507D02*
X228219000Y-62927000D01*
%TO.N,Net-(U1-Pad6)*%
X241427000Y-57977000D02*
X240157000Y-57977000D01*
%TO.N,Net-(R10-Pad2)*%
X233021500Y-59436000D02*
X232410000Y-59436000D01*
X232410000Y-59436000D02*
X232052500Y-59793500D01*
X232052500Y-59793500D02*
X230886000Y-59793500D01*
X225679000Y-62927000D02*
X225679000Y-63881000D01*
X226568000Y-64770000D02*
X228854000Y-64770000D01*
X230274500Y-59793500D02*
X230886000Y-59793500D01*
X225679000Y-63881000D02*
X226568000Y-64770000D01*
X228854000Y-64770000D02*
X229616000Y-64008000D01*
X229616000Y-64008000D02*
X229616000Y-60452000D01*
X229616000Y-60452000D02*
X230274500Y-59793500D01*
X233021500Y-61722000D02*
X233021500Y-59436000D01*
%TO.N,GATE*%
X220067500Y-58928000D02*
X220067500Y-58721000D01*
X220067500Y-58721000D02*
X221892500Y-56896000D01*
%TO.N,Net-(R3-Pad2)*%
X220067500Y-61976000D02*
X220067500Y-61110500D01*
X220067500Y-61110500D02*
X220726000Y-60452000D01*
X220726000Y-60452000D02*
X224282000Y-60452000D01*
X224282000Y-60452000D02*
X225679000Y-59055000D01*
X225679000Y-59055000D02*
X225679000Y-57977000D01*
%TO.N,Net-(R2-Pad2)*%
X220067500Y-56896000D02*
X220067500Y-55268500D01*
%TO.N,Net-(R3-Pad2)*%
X220067500Y-64008000D02*
X220067500Y-61976000D01*
%TO.N,GND*%
X221892500Y-64008000D02*
X223012000Y-64008000D01*
X221892500Y-58928000D02*
X223012000Y-58928000D01*
%TO.N,Net-(R2-Pad2)*%
X226718500Y-55372000D02*
X225806000Y-54459500D01*
X225806000Y-54459500D02*
X225806000Y-52324000D01*
X225298000Y-51816000D02*
X223520000Y-51816000D01*
X225806000Y-52324000D02*
X225298000Y-51816000D01*
X223520000Y-51816000D02*
X220067500Y-55268500D01*
X226718500Y-55372000D02*
X226822000Y-55372000D01*
X226822000Y-55372000D02*
X227076000Y-55626000D01*
X227076000Y-57850000D02*
X226949000Y-57977000D01*
X227076000Y-55626000D02*
X227076000Y-57850000D01*
%TO.N,GND*%
X228854000Y-54760500D02*
X228854000Y-55880000D01*
%TO.N,Net-(C1-Pad2)*%
X226756000Y-53086000D02*
X228703500Y-53086000D01*
X228703500Y-53086000D02*
X228854000Y-52935500D01*
%TO.N,Net-(C1-Pad1)*%
X224856000Y-53086000D02*
X224856000Y-55334500D01*
X224856000Y-55334500D02*
X224893500Y-55372000D01*
X224409000Y-57977000D02*
X224409000Y-57023000D01*
X224409000Y-57023000D02*
X224893500Y-56538500D01*
X224893500Y-56538500D02*
X224893500Y-55372000D01*
%TD*%
%TA.AperFunction,Conductor*%
%TO.N,+12V*%
G36*
X255406162Y-38882002D02*
G01*
X255452655Y-38935658D01*
X255462759Y-39005932D01*
X255433265Y-39070512D01*
X255427136Y-39077095D01*
X255199098Y-39305133D01*
X254967668Y-39590925D01*
X254767380Y-39899343D01*
X254600427Y-40227006D01*
X254468639Y-40570326D01*
X254373459Y-40925541D01*
X254315931Y-41288759D01*
X254296685Y-41656000D01*
X254315931Y-42023241D01*
X254316444Y-42026481D01*
X254316445Y-42026489D01*
X254340086Y-42175750D01*
X254373459Y-42386459D01*
X254468639Y-42741674D01*
X254469824Y-42744762D01*
X254469825Y-42744764D01*
X254519902Y-42875218D01*
X254600427Y-43084994D01*
X254601925Y-43087934D01*
X254758670Y-43395562D01*
X254767380Y-43412657D01*
X254769176Y-43415423D01*
X254769178Y-43415426D01*
X254824484Y-43500590D01*
X254967668Y-43721075D01*
X255199098Y-44006867D01*
X255459133Y-44266902D01*
X255744925Y-44498332D01*
X255819056Y-44546473D01*
X256020320Y-44677175D01*
X256053342Y-44698620D01*
X256056276Y-44700115D01*
X256056283Y-44700119D01*
X256334349Y-44841800D01*
X256381006Y-44865573D01*
X256488740Y-44906928D01*
X256671417Y-44977051D01*
X256724326Y-44997361D01*
X257079541Y-45092541D01*
X257272558Y-45123112D01*
X257439511Y-45149555D01*
X257439519Y-45149556D01*
X257442759Y-45150069D01*
X257810000Y-45169315D01*
X258177241Y-45150069D01*
X258180481Y-45149556D01*
X258180489Y-45149555D01*
X258347442Y-45123112D01*
X258540459Y-45092541D01*
X258895674Y-44997361D01*
X258948584Y-44977051D01*
X259131260Y-44906928D01*
X259238994Y-44865573D01*
X259285651Y-44841800D01*
X259563717Y-44700119D01*
X259563724Y-44700115D01*
X259566658Y-44698620D01*
X259599681Y-44677175D01*
X259800944Y-44546473D01*
X259875075Y-44498332D01*
X260160867Y-44266902D01*
X260388905Y-44038864D01*
X260451217Y-44004838D01*
X260522032Y-44009903D01*
X260578868Y-44052450D01*
X260603679Y-44118970D01*
X260604000Y-44127959D01*
X260604000Y-146626041D01*
X260583998Y-146694162D01*
X260530342Y-146740655D01*
X260460068Y-146750759D01*
X260395488Y-146721265D01*
X260388905Y-146715136D01*
X260160867Y-146487098D01*
X259875075Y-146255668D01*
X259566658Y-146055380D01*
X259563724Y-146053885D01*
X259563717Y-146053881D01*
X259241934Y-145889925D01*
X259238994Y-145888427D01*
X258895674Y-145756639D01*
X258540459Y-145661459D01*
X258347442Y-145630888D01*
X258180489Y-145604445D01*
X258180481Y-145604444D01*
X258177241Y-145603931D01*
X257810000Y-145584685D01*
X257442759Y-145603931D01*
X257439519Y-145604444D01*
X257439511Y-145604445D01*
X257272558Y-145630888D01*
X257079541Y-145661459D01*
X256724326Y-145756639D01*
X256381006Y-145888427D01*
X256378066Y-145889925D01*
X256056284Y-146053881D01*
X256056277Y-146053885D01*
X256053343Y-146055380D01*
X255744925Y-146255668D01*
X255459133Y-146487098D01*
X255199098Y-146747133D01*
X254967668Y-147032925D01*
X254767380Y-147341343D01*
X254765885Y-147344277D01*
X254765881Y-147344284D01*
X254633957Y-147603199D01*
X254600427Y-147669006D01*
X254468639Y-148012326D01*
X254373459Y-148367541D01*
X254315931Y-148730759D01*
X254296685Y-149098000D01*
X254315931Y-149465241D01*
X254373459Y-149828459D01*
X254468639Y-150183674D01*
X254600427Y-150526994D01*
X254767380Y-150854657D01*
X254967668Y-151163075D01*
X255199098Y-151448867D01*
X255427136Y-151676905D01*
X255461162Y-151739217D01*
X255456097Y-151810032D01*
X255413550Y-151866868D01*
X255347030Y-151891679D01*
X255338041Y-151892000D01*
X212783959Y-151892000D01*
X212715838Y-151871998D01*
X212669345Y-151818342D01*
X212659241Y-151748068D01*
X212688735Y-151683488D01*
X212694864Y-151676905D01*
X212922902Y-151448867D01*
X213154332Y-151163075D01*
X213354620Y-150854657D01*
X213521573Y-150526994D01*
X213653361Y-150183674D01*
X213748541Y-149828459D01*
X213806069Y-149465241D01*
X213825315Y-149098000D01*
X213806069Y-148730759D01*
X213748541Y-148367541D01*
X213653361Y-148012326D01*
X213521573Y-147669006D01*
X213488043Y-147603199D01*
X213356119Y-147344284D01*
X213356115Y-147344277D01*
X213354620Y-147341343D01*
X213154332Y-147032925D01*
X212922902Y-146747133D01*
X212662867Y-146487098D01*
X212377075Y-146255668D01*
X212068658Y-146055380D01*
X212065724Y-146053885D01*
X212065717Y-146053881D01*
X211743934Y-145889925D01*
X211740994Y-145888427D01*
X211397674Y-145756639D01*
X211042459Y-145661459D01*
X210849442Y-145630888D01*
X210682489Y-145604445D01*
X210682481Y-145604444D01*
X210679241Y-145603931D01*
X210312000Y-145584685D01*
X209944759Y-145603931D01*
X209941519Y-145604444D01*
X209941511Y-145604445D01*
X209774558Y-145630888D01*
X209581541Y-145661459D01*
X209226326Y-145756639D01*
X208883006Y-145888427D01*
X208880066Y-145889925D01*
X208558284Y-146053881D01*
X208558277Y-146053885D01*
X208555343Y-146055380D01*
X208246925Y-146255668D01*
X207961133Y-146487098D01*
X207733095Y-146715136D01*
X207670783Y-146749162D01*
X207599968Y-146744097D01*
X207543132Y-146701550D01*
X207518321Y-146635030D01*
X207518000Y-146626041D01*
X207518000Y-139998134D01*
X215311500Y-139998134D01*
X215318255Y-140060316D01*
X215369385Y-140196705D01*
X215374770Y-140203890D01*
X215374771Y-140203892D01*
X215411326Y-140252667D01*
X215436174Y-140319174D01*
X215436500Y-140328232D01*
X215436500Y-141315233D01*
X215435973Y-141326416D01*
X215434298Y-141333909D01*
X215434547Y-141341835D01*
X215434547Y-141341836D01*
X215436438Y-141401986D01*
X215436500Y-141405945D01*
X215436500Y-141433856D01*
X215436997Y-141437790D01*
X215436997Y-141437791D01*
X215437005Y-141437856D01*
X215437938Y-141449693D01*
X215439327Y-141493889D01*
X215444978Y-141513339D01*
X215448987Y-141532700D01*
X215451526Y-141552797D01*
X215454445Y-141560168D01*
X215454445Y-141560170D01*
X215467804Y-141593912D01*
X215471649Y-141605142D01*
X215483982Y-141647593D01*
X215488015Y-141654412D01*
X215488017Y-141654417D01*
X215494293Y-141665028D01*
X215502988Y-141682776D01*
X215510448Y-141701617D01*
X215515110Y-141708033D01*
X215515110Y-141708034D01*
X215536436Y-141737387D01*
X215542952Y-141747307D01*
X215565458Y-141785362D01*
X215579779Y-141799683D01*
X215592619Y-141814716D01*
X215604528Y-141831107D01*
X215610632Y-141836157D01*
X215610637Y-141836162D01*
X215638598Y-141859293D01*
X215647379Y-141867283D01*
X215992263Y-142212168D01*
X216026288Y-142274480D01*
X216021223Y-142345296D01*
X216000041Y-142381832D01*
X215879675Y-142526557D01*
X215750252Y-142739840D01*
X215748443Y-142744154D01*
X215748442Y-142744156D01*
X215692946Y-142876500D01*
X215653775Y-142969911D01*
X215652624Y-142974443D01*
X215652623Y-142974446D01*
X215622138Y-143094483D01*
X215592365Y-143211714D01*
X215567370Y-143459939D01*
X215567594Y-143464606D01*
X215567594Y-143464611D01*
X215569335Y-143500851D01*
X215579339Y-143709131D01*
X215628010Y-143953818D01*
X215712314Y-144188622D01*
X215830398Y-144408386D01*
X215833193Y-144412130D01*
X215833195Y-144412132D01*
X215901694Y-144503863D01*
X215979668Y-144608283D01*
X216156844Y-144783921D01*
X216160606Y-144786679D01*
X216160609Y-144786682D01*
X216350265Y-144925742D01*
X216358036Y-144931440D01*
X216362171Y-144933616D01*
X216362175Y-144933618D01*
X216478009Y-144994561D01*
X216578823Y-145047602D01*
X216814354Y-145129853D01*
X216818947Y-145130725D01*
X217054867Y-145175516D01*
X217054870Y-145175516D01*
X217059456Y-145176387D01*
X217184099Y-145181284D01*
X217304075Y-145185999D01*
X217304081Y-145185999D01*
X217308743Y-145186182D01*
X217406134Y-145175516D01*
X217552087Y-145159532D01*
X217552092Y-145159531D01*
X217556740Y-145159022D01*
X217650598Y-145134311D01*
X217793476Y-145096694D01*
X217793478Y-145096693D01*
X217797999Y-145095503D01*
X217891935Y-145055145D01*
X218022924Y-144998868D01*
X218022926Y-144998867D01*
X218027218Y-144997023D01*
X218137667Y-144928675D01*
X218235391Y-144868202D01*
X218235395Y-144868199D01*
X218239364Y-144865743D01*
X218325667Y-144792682D01*
X218426209Y-144707567D01*
X218426210Y-144707566D01*
X218429775Y-144704548D01*
X218506054Y-144617569D01*
X218591187Y-144520494D01*
X218591191Y-144520489D01*
X218594269Y-144516979D01*
X218600923Y-144506635D01*
X218726703Y-144311087D01*
X218729231Y-144307157D01*
X218768679Y-144219587D01*
X218772209Y-144211750D01*
X218818424Y-144157855D01*
X218887091Y-144137500D01*
X220609511Y-144137500D01*
X220677632Y-144157502D01*
X220720502Y-144203861D01*
X220830398Y-144408386D01*
X220833193Y-144412130D01*
X220833195Y-144412132D01*
X220901694Y-144503863D01*
X220979668Y-144608283D01*
X221156844Y-144783921D01*
X221160606Y-144786679D01*
X221160609Y-144786682D01*
X221350265Y-144925742D01*
X221358036Y-144931440D01*
X221362171Y-144933616D01*
X221362175Y-144933618D01*
X221478009Y-144994561D01*
X221578823Y-145047602D01*
X221814354Y-145129853D01*
X221818947Y-145130725D01*
X222054867Y-145175516D01*
X222054870Y-145175516D01*
X222059456Y-145176387D01*
X222184099Y-145181284D01*
X222304075Y-145185999D01*
X222304081Y-145185999D01*
X222308743Y-145186182D01*
X222406134Y-145175516D01*
X222552087Y-145159532D01*
X222552092Y-145159531D01*
X222556740Y-145159022D01*
X222650598Y-145134311D01*
X222793476Y-145096694D01*
X222793478Y-145096693D01*
X222797999Y-145095503D01*
X222891935Y-145055145D01*
X223022924Y-144998868D01*
X223022926Y-144998867D01*
X223027218Y-144997023D01*
X223137667Y-144928675D01*
X223235391Y-144868202D01*
X223235395Y-144868199D01*
X223239364Y-144865743D01*
X223325667Y-144792682D01*
X223426209Y-144707567D01*
X223426210Y-144707566D01*
X223429775Y-144704548D01*
X223506054Y-144617569D01*
X223591187Y-144520494D01*
X223591191Y-144520489D01*
X223594269Y-144516979D01*
X223600923Y-144506635D01*
X223726703Y-144311087D01*
X223729231Y-144307157D01*
X223831697Y-144079691D01*
X223865505Y-143959818D01*
X223898146Y-143844082D01*
X223898147Y-143844079D01*
X223899416Y-143839578D01*
X223930900Y-143592092D01*
X223933207Y-143504000D01*
X223914718Y-143255206D01*
X223859659Y-143011878D01*
X223845672Y-142975911D01*
X223770931Y-142783714D01*
X223770930Y-142783711D01*
X223769238Y-142779361D01*
X223747793Y-142741839D01*
X223723285Y-142698959D01*
X223645442Y-142562763D01*
X223490990Y-142366842D01*
X223309276Y-142195902D01*
X223193160Y-142115350D01*
X223108130Y-142056362D01*
X223108125Y-142056359D01*
X223104292Y-142053700D01*
X223100110Y-142051637D01*
X223100102Y-142051633D01*
X222884728Y-141945423D01*
X222884725Y-141945422D01*
X222880540Y-141943358D01*
X222642937Y-141867300D01*
X222638330Y-141866550D01*
X222638327Y-141866549D01*
X222413869Y-141829994D01*
X222396701Y-141827198D01*
X222275753Y-141825615D01*
X222151920Y-141823994D01*
X222151917Y-141823994D01*
X222147243Y-141823933D01*
X221900042Y-141857575D01*
X221895556Y-141858883D01*
X221895554Y-141858883D01*
X221847032Y-141873026D01*
X221660528Y-141927387D01*
X221433965Y-142031834D01*
X221420904Y-142040397D01*
X221229242Y-142166056D01*
X221229237Y-142166060D01*
X221225329Y-142168622D01*
X221039202Y-142334746D01*
X220879675Y-142526557D01*
X220814963Y-142633199D01*
X220752680Y-142735839D01*
X220750252Y-142739840D01*
X220729340Y-142789711D01*
X220727866Y-142793225D01*
X220683078Y-142848311D01*
X220611669Y-142870500D01*
X218890873Y-142870500D01*
X218822752Y-142850498D01*
X218776259Y-142796842D01*
X218773439Y-142790165D01*
X218773264Y-142789714D01*
X218769238Y-142779361D01*
X218747793Y-142741839D01*
X218723285Y-142698959D01*
X218645442Y-142562763D01*
X218490990Y-142366842D01*
X218309276Y-142195902D01*
X218193160Y-142115350D01*
X218108130Y-142056362D01*
X218108125Y-142056359D01*
X218104292Y-142053700D01*
X218100110Y-142051637D01*
X218100102Y-142051633D01*
X217884728Y-141945423D01*
X217884725Y-141945422D01*
X217880540Y-141943358D01*
X217642937Y-141867300D01*
X217439677Y-141834197D01*
X217370834Y-141798930D01*
X216740404Y-141168499D01*
X216706379Y-141106187D01*
X216703500Y-141079404D01*
X216703500Y-140328232D01*
X216723502Y-140260111D01*
X216728674Y-140252667D01*
X216765229Y-140203892D01*
X216765230Y-140203890D01*
X216770615Y-140196705D01*
X216821745Y-140060316D01*
X216828500Y-139998134D01*
X217511500Y-139998134D01*
X217518255Y-140060316D01*
X217569385Y-140196705D01*
X217656739Y-140313261D01*
X217773295Y-140400615D01*
X217909684Y-140451745D01*
X217971866Y-140458500D01*
X218568134Y-140458500D01*
X218630316Y-140451745D01*
X218766705Y-140400615D01*
X218773890Y-140395230D01*
X218773892Y-140395229D01*
X218822667Y-140358674D01*
X218889174Y-140333826D01*
X218898232Y-140333500D01*
X224335800Y-140333500D01*
X224403921Y-140353502D01*
X224423147Y-140369843D01*
X224423420Y-140369540D01*
X224428332Y-140373963D01*
X224432747Y-140378866D01*
X224587248Y-140491118D01*
X224593276Y-140493802D01*
X224593278Y-140493803D01*
X224755681Y-140566109D01*
X224761712Y-140568794D01*
X224855113Y-140588647D01*
X224942056Y-140607128D01*
X224942061Y-140607128D01*
X224948513Y-140608500D01*
X225139487Y-140608500D01*
X225145939Y-140607128D01*
X225145944Y-140607128D01*
X225232887Y-140588647D01*
X225326288Y-140568794D01*
X225332319Y-140566109D01*
X225494722Y-140493803D01*
X225494724Y-140493802D01*
X225500752Y-140491118D01*
X225655253Y-140378866D01*
X225738639Y-140286256D01*
X225778621Y-140241852D01*
X225778622Y-140241851D01*
X225783040Y-140236944D01*
X225878527Y-140071556D01*
X225937542Y-139889928D01*
X225957504Y-139700000D01*
X225937542Y-139510072D01*
X225878527Y-139328444D01*
X225783040Y-139163056D01*
X225773129Y-139152048D01*
X225659675Y-139026045D01*
X225659674Y-139026044D01*
X225655253Y-139021134D01*
X225500752Y-138908882D01*
X225494724Y-138906198D01*
X225494722Y-138906197D01*
X225332319Y-138833891D01*
X225332318Y-138833891D01*
X225326288Y-138831206D01*
X225232888Y-138811353D01*
X225145944Y-138792872D01*
X225145939Y-138792872D01*
X225139487Y-138791500D01*
X224948513Y-138791500D01*
X224942061Y-138792872D01*
X224942056Y-138792872D01*
X224855112Y-138811353D01*
X224761712Y-138831206D01*
X224755682Y-138833891D01*
X224755681Y-138833891D01*
X224593278Y-138906197D01*
X224593276Y-138906198D01*
X224587248Y-138908882D01*
X224432747Y-139021134D01*
X224428332Y-139026037D01*
X224423420Y-139030460D01*
X224422295Y-139029211D01*
X224368986Y-139062051D01*
X224335800Y-139066500D01*
X218898232Y-139066500D01*
X218830111Y-139046498D01*
X218822667Y-139041326D01*
X218773892Y-139004771D01*
X218773890Y-139004770D01*
X218766705Y-138999385D01*
X218630316Y-138948255D01*
X218568134Y-138941500D01*
X217971866Y-138941500D01*
X217909684Y-138948255D01*
X217773295Y-138999385D01*
X217656739Y-139086739D01*
X217569385Y-139203295D01*
X217518255Y-139339684D01*
X217511500Y-139401866D01*
X217511500Y-139998134D01*
X216828500Y-139998134D01*
X216828500Y-139401866D01*
X216821745Y-139339684D01*
X216770615Y-139203295D01*
X216683261Y-139086739D01*
X216566705Y-138999385D01*
X216430316Y-138948255D01*
X216368134Y-138941500D01*
X215771866Y-138941500D01*
X215709684Y-138948255D01*
X215573295Y-138999385D01*
X215456739Y-139086739D01*
X215369385Y-139203295D01*
X215318255Y-139339684D01*
X215311500Y-139401866D01*
X215311500Y-139998134D01*
X207518000Y-139998134D01*
X207518000Y-114249939D01*
X215567370Y-114249939D01*
X215567594Y-114254606D01*
X215567594Y-114254611D01*
X215569335Y-114290851D01*
X215579339Y-114499131D01*
X215628010Y-114743818D01*
X215712314Y-114978622D01*
X215830398Y-115198386D01*
X215833193Y-115202130D01*
X215833195Y-115202132D01*
X215901694Y-115293863D01*
X215979668Y-115398283D01*
X216156844Y-115573921D01*
X216160606Y-115576679D01*
X216160609Y-115576682D01*
X216350265Y-115715742D01*
X216358036Y-115721440D01*
X216362171Y-115723616D01*
X216362175Y-115723618D01*
X216478009Y-115784561D01*
X216578823Y-115837602D01*
X216814354Y-115919853D01*
X216818947Y-115920725D01*
X217054867Y-115965516D01*
X217054870Y-115965516D01*
X217059456Y-115966387D01*
X217184100Y-115971285D01*
X217304075Y-115975999D01*
X217304081Y-115975999D01*
X217308743Y-115976182D01*
X217406134Y-115965516D01*
X217552087Y-115949532D01*
X217552092Y-115949531D01*
X217556740Y-115949022D01*
X217615666Y-115933508D01*
X217793476Y-115886694D01*
X217793478Y-115886693D01*
X217797999Y-115885503D01*
X217802296Y-115883657D01*
X218022924Y-115788868D01*
X218022926Y-115788867D01*
X218027218Y-115787023D01*
X218137667Y-115718675D01*
X218235391Y-115658202D01*
X218235395Y-115658199D01*
X218239364Y-115655743D01*
X218325667Y-115582682D01*
X218426209Y-115497567D01*
X218426210Y-115497566D01*
X218429775Y-115494548D01*
X218506054Y-115407569D01*
X218591187Y-115310494D01*
X218591191Y-115310489D01*
X218594269Y-115306979D01*
X218729231Y-115097157D01*
X218831697Y-114869691D01*
X218865505Y-114749818D01*
X218898146Y-114634082D01*
X218898147Y-114634079D01*
X218899416Y-114629578D01*
X218930900Y-114382092D01*
X218933207Y-114294000D01*
X218929933Y-114249939D01*
X220567370Y-114249939D01*
X220567594Y-114254606D01*
X220567594Y-114254611D01*
X220569335Y-114290851D01*
X220579339Y-114499131D01*
X220628010Y-114743818D01*
X220712314Y-114978622D01*
X220830398Y-115198386D01*
X220833193Y-115202130D01*
X220833195Y-115202132D01*
X220901694Y-115293863D01*
X220979668Y-115398283D01*
X221156844Y-115573921D01*
X221160606Y-115576679D01*
X221160609Y-115576682D01*
X221350265Y-115715742D01*
X221358036Y-115721440D01*
X221362171Y-115723616D01*
X221362175Y-115723618D01*
X221478009Y-115784561D01*
X221578823Y-115837602D01*
X221814354Y-115919853D01*
X221818947Y-115920725D01*
X222054867Y-115965516D01*
X222054870Y-115965516D01*
X222059456Y-115966387D01*
X222184100Y-115971285D01*
X222304075Y-115975999D01*
X222304081Y-115975999D01*
X222308743Y-115976182D01*
X222406134Y-115965516D01*
X222552087Y-115949532D01*
X222552092Y-115949531D01*
X222556740Y-115949022D01*
X222615666Y-115933508D01*
X222793476Y-115886694D01*
X222793478Y-115886693D01*
X222797999Y-115885503D01*
X222802296Y-115883657D01*
X223022924Y-115788868D01*
X223022926Y-115788867D01*
X223027218Y-115787023D01*
X223137667Y-115718675D01*
X223235391Y-115658202D01*
X223235395Y-115658199D01*
X223239364Y-115655743D01*
X223325667Y-115582682D01*
X223426209Y-115497567D01*
X223426210Y-115497566D01*
X223429775Y-115494548D01*
X223506054Y-115407569D01*
X223591187Y-115310494D01*
X223591191Y-115310489D01*
X223594269Y-115306979D01*
X223729231Y-115097157D01*
X223831697Y-114869691D01*
X223865505Y-114749818D01*
X223898146Y-114634082D01*
X223898147Y-114634079D01*
X223899416Y-114629578D01*
X223930900Y-114382092D01*
X223933207Y-114294000D01*
X223914718Y-114045206D01*
X223859659Y-113801878D01*
X223845672Y-113765911D01*
X223770931Y-113573714D01*
X223770930Y-113573712D01*
X223769238Y-113569361D01*
X223747793Y-113531839D01*
X223723285Y-113488959D01*
X223645442Y-113352763D01*
X223490990Y-113156842D01*
X223309276Y-112985902D01*
X223141229Y-112869324D01*
X223108130Y-112846362D01*
X223108125Y-112846359D01*
X223104292Y-112843700D01*
X223100110Y-112841637D01*
X223100102Y-112841633D01*
X222884728Y-112735423D01*
X222884725Y-112735422D01*
X222880540Y-112733358D01*
X222642937Y-112657300D01*
X222638330Y-112656550D01*
X222638327Y-112656549D01*
X222413869Y-112619994D01*
X222396701Y-112617198D01*
X222275753Y-112615615D01*
X222151920Y-112613994D01*
X222151917Y-112613994D01*
X222147243Y-112613933D01*
X221900042Y-112647575D01*
X221895556Y-112648883D01*
X221895554Y-112648883D01*
X221846092Y-112663300D01*
X221660528Y-112717387D01*
X221656275Y-112719347D01*
X221656274Y-112719348D01*
X221647513Y-112723387D01*
X221433965Y-112821834D01*
X221422355Y-112829446D01*
X221229242Y-112956056D01*
X221229237Y-112956060D01*
X221225329Y-112958622D01*
X221039202Y-113124746D01*
X220879675Y-113316557D01*
X220750252Y-113529840D01*
X220748443Y-113534154D01*
X220748442Y-113534156D01*
X220667661Y-113726797D01*
X220653775Y-113759911D01*
X220652624Y-113764443D01*
X220652623Y-113764446D01*
X220622138Y-113884483D01*
X220592365Y-114001714D01*
X220567370Y-114249939D01*
X218929933Y-114249939D01*
X218914718Y-114045206D01*
X218859659Y-113801878D01*
X218845672Y-113765911D01*
X218770931Y-113573714D01*
X218770930Y-113573712D01*
X218769238Y-113569361D01*
X218747793Y-113531839D01*
X218723285Y-113488959D01*
X218645442Y-113352763D01*
X218490990Y-113156842D01*
X218309276Y-112985902D01*
X218141229Y-112869324D01*
X218108130Y-112846362D01*
X218108125Y-112846359D01*
X218104292Y-112843700D01*
X218100110Y-112841637D01*
X218100102Y-112841633D01*
X217884728Y-112735423D01*
X217884725Y-112735422D01*
X217880540Y-112733358D01*
X217642937Y-112657300D01*
X217638330Y-112656550D01*
X217638327Y-112656549D01*
X217413869Y-112619994D01*
X217396701Y-112617198D01*
X217275753Y-112615615D01*
X217151920Y-112613994D01*
X217151917Y-112613994D01*
X217147243Y-112613933D01*
X216900042Y-112647575D01*
X216895556Y-112648883D01*
X216895554Y-112648883D01*
X216846092Y-112663300D01*
X216660528Y-112717387D01*
X216656275Y-112719347D01*
X216656274Y-112719348D01*
X216647513Y-112723387D01*
X216433965Y-112821834D01*
X216422355Y-112829446D01*
X216229242Y-112956056D01*
X216229237Y-112956060D01*
X216225329Y-112958622D01*
X216039202Y-113124746D01*
X215879675Y-113316557D01*
X215750252Y-113529840D01*
X215748443Y-113534154D01*
X215748442Y-113534156D01*
X215667661Y-113726797D01*
X215653775Y-113759911D01*
X215652624Y-113764443D01*
X215652623Y-113764446D01*
X215622138Y-113884483D01*
X215592365Y-114001714D01*
X215567370Y-114249939D01*
X207518000Y-114249939D01*
X207518000Y-80245134D01*
X213829500Y-80245134D01*
X213836255Y-80307316D01*
X213887385Y-80443705D01*
X213974739Y-80560261D01*
X214091295Y-80647615D01*
X214227684Y-80698745D01*
X214289866Y-80705500D01*
X217386134Y-80705500D01*
X217448316Y-80698745D01*
X217584705Y-80647615D01*
X217701261Y-80560261D01*
X217788615Y-80443705D01*
X217839745Y-80307316D01*
X217846500Y-80245134D01*
X217846500Y-71648866D01*
X217839745Y-71586684D01*
X217788615Y-71450295D01*
X217701261Y-71333739D01*
X217584705Y-71246385D01*
X217448316Y-71195255D01*
X217386134Y-71188500D01*
X214289866Y-71188500D01*
X214227684Y-71195255D01*
X214091295Y-71246385D01*
X213974739Y-71333739D01*
X213887385Y-71450295D01*
X213836255Y-71586684D01*
X213829500Y-71648866D01*
X213829500Y-80245134D01*
X207518000Y-80245134D01*
X207518000Y-59923943D01*
X217547780Y-59923943D01*
X217548526Y-59931835D01*
X217551941Y-59967961D01*
X217552500Y-59979819D01*
X217552500Y-65707233D01*
X217551973Y-65718416D01*
X217550298Y-65725909D01*
X217550547Y-65733835D01*
X217550547Y-65733836D01*
X217552438Y-65793986D01*
X217552500Y-65797945D01*
X217552500Y-65825856D01*
X217552997Y-65829790D01*
X217552997Y-65829791D01*
X217553005Y-65829856D01*
X217553938Y-65841693D01*
X217555327Y-65885889D01*
X217560978Y-65905339D01*
X217564987Y-65924700D01*
X217567526Y-65944797D01*
X217570445Y-65952168D01*
X217570445Y-65952170D01*
X217583804Y-65985912D01*
X217587649Y-65997142D01*
X217597771Y-66031983D01*
X217599982Y-66039593D01*
X217604015Y-66046412D01*
X217604017Y-66046417D01*
X217610293Y-66057028D01*
X217618988Y-66074776D01*
X217626448Y-66093617D01*
X217631110Y-66100033D01*
X217631110Y-66100034D01*
X217652436Y-66129387D01*
X217658952Y-66139307D01*
X217677234Y-66170219D01*
X217681458Y-66177362D01*
X217695779Y-66191683D01*
X217708619Y-66206716D01*
X217720528Y-66223107D01*
X217726634Y-66228158D01*
X217754605Y-66251298D01*
X217763384Y-66259288D01*
X226377595Y-74873499D01*
X226411621Y-74935811D01*
X226414500Y-74962594D01*
X226414500Y-77669862D01*
X226394498Y-77737983D01*
X226377595Y-77758957D01*
X223295643Y-80840909D01*
X223293503Y-80843571D01*
X223261399Y-80883499D01*
X223261397Y-80883502D01*
X223256450Y-80889655D01*
X223196163Y-81022251D01*
X223175514Y-81166437D01*
X223176787Y-81175326D01*
X223193037Y-81288792D01*
X223196163Y-81310623D01*
X223256450Y-81443219D01*
X223261397Y-81449372D01*
X223261399Y-81449375D01*
X223269382Y-81459303D01*
X223295643Y-81491965D01*
X225485035Y-83681357D01*
X225496469Y-83690550D01*
X225527625Y-83715601D01*
X225527628Y-83715603D01*
X225533781Y-83720550D01*
X225666377Y-83780837D01*
X225675260Y-83782109D01*
X225675263Y-83782110D01*
X225801674Y-83800213D01*
X225810563Y-83801486D01*
X225819452Y-83800213D01*
X225945863Y-83782110D01*
X225945866Y-83782109D01*
X225954749Y-83780837D01*
X226087345Y-83720550D01*
X226093498Y-83715603D01*
X226093501Y-83715601D01*
X226124657Y-83690550D01*
X226136091Y-83681357D01*
X230800357Y-79017091D01*
X230826618Y-78984429D01*
X230834601Y-78974501D01*
X230834603Y-78974498D01*
X230839550Y-78968345D01*
X230899837Y-78835749D01*
X230902964Y-78813918D01*
X230919213Y-78700452D01*
X230920486Y-78691563D01*
X230899837Y-78547377D01*
X230839550Y-78414781D01*
X230834603Y-78408628D01*
X230834601Y-78408625D01*
X230802497Y-78368697D01*
X230800357Y-78366035D01*
X228610965Y-76176643D01*
X228590080Y-76159851D01*
X228568375Y-76142399D01*
X228568372Y-76142397D01*
X228562219Y-76137450D01*
X228429623Y-76077163D01*
X228420740Y-76075891D01*
X228420737Y-76075890D01*
X228294326Y-76057787D01*
X228285437Y-76056514D01*
X228276548Y-76057787D01*
X228150137Y-76075890D01*
X228150134Y-76075891D01*
X228141251Y-76077163D01*
X228008655Y-76137450D01*
X228002502Y-76142397D01*
X228002499Y-76142399D01*
X227980794Y-76159851D01*
X227959909Y-76176643D01*
X227896595Y-76239957D01*
X227834283Y-76273983D01*
X227763468Y-76268918D01*
X227706632Y-76226371D01*
X227681821Y-76159851D01*
X227681500Y-76150862D01*
X227681500Y-74726768D01*
X227682027Y-74715585D01*
X227683702Y-74708092D01*
X227681562Y-74640001D01*
X227681500Y-74636044D01*
X227681500Y-74608144D01*
X227680996Y-74604153D01*
X227680063Y-74592311D01*
X227678923Y-74556036D01*
X227678674Y-74548111D01*
X227673021Y-74528652D01*
X227669012Y-74509293D01*
X227668846Y-74507983D01*
X227666474Y-74489203D01*
X227663558Y-74481837D01*
X227663556Y-74481831D01*
X227650200Y-74448098D01*
X227646355Y-74436868D01*
X227636230Y-74402017D01*
X227636230Y-74402016D01*
X227634019Y-74394407D01*
X227623705Y-74376966D01*
X227615008Y-74359213D01*
X227610472Y-74347758D01*
X227607552Y-74340383D01*
X227581563Y-74304612D01*
X227575047Y-74294692D01*
X227556578Y-74263463D01*
X227552542Y-74256638D01*
X227538221Y-74242317D01*
X227525380Y-74227283D01*
X227518131Y-74217306D01*
X227513472Y-74210893D01*
X227479395Y-74182702D01*
X227470616Y-74174712D01*
X218856405Y-65560500D01*
X218822379Y-65498188D01*
X218819500Y-65471405D01*
X218819500Y-64676672D01*
X218839502Y-64608551D01*
X218893158Y-64562058D01*
X218963432Y-64551954D01*
X219028012Y-64581448D01*
X219065024Y-64636796D01*
X219113450Y-64781946D01*
X219206522Y-64932348D01*
X219331697Y-65057305D01*
X219337927Y-65061145D01*
X219337928Y-65061146D01*
X219475090Y-65145694D01*
X219482262Y-65150115D01*
X219545337Y-65171036D01*
X219643611Y-65203632D01*
X219643613Y-65203632D01*
X219650139Y-65205797D01*
X219656975Y-65206497D01*
X219656978Y-65206498D01*
X219700031Y-65210909D01*
X219754600Y-65216500D01*
X220380400Y-65216500D01*
X220383646Y-65216163D01*
X220383650Y-65216163D01*
X220479308Y-65206238D01*
X220479312Y-65206237D01*
X220486166Y-65205526D01*
X220492702Y-65203345D01*
X220492704Y-65203345D01*
X220624806Y-65159272D01*
X220653946Y-65149550D01*
X220804348Y-65056478D01*
X220890784Y-64969891D01*
X220953066Y-64935812D01*
X221023886Y-64940815D01*
X221068976Y-64969736D01*
X221156697Y-65057305D01*
X221162927Y-65061145D01*
X221162928Y-65061146D01*
X221300090Y-65145694D01*
X221307262Y-65150115D01*
X221370337Y-65171036D01*
X221468611Y-65203632D01*
X221468613Y-65203632D01*
X221475139Y-65205797D01*
X221481975Y-65206497D01*
X221481978Y-65206498D01*
X221525031Y-65210909D01*
X221579600Y-65216500D01*
X222205400Y-65216500D01*
X222208646Y-65216163D01*
X222208650Y-65216163D01*
X222304308Y-65206238D01*
X222304312Y-65206237D01*
X222311166Y-65205526D01*
X222317702Y-65203345D01*
X222317704Y-65203345D01*
X222449806Y-65159272D01*
X222478946Y-65149550D01*
X222629348Y-65056478D01*
X222746506Y-64939115D01*
X222808790Y-64905036D01*
X222861875Y-64904886D01*
X222916513Y-64916500D01*
X223107487Y-64916500D01*
X223113939Y-64915128D01*
X223113944Y-64915128D01*
X223200887Y-64896647D01*
X223294288Y-64876794D01*
X223300319Y-64874109D01*
X223462722Y-64801803D01*
X223462724Y-64801802D01*
X223468752Y-64799118D01*
X223483813Y-64788176D01*
X223524157Y-64758864D01*
X223623253Y-64686866D01*
X223694005Y-64608288D01*
X223746621Y-64549852D01*
X223746622Y-64549851D01*
X223751040Y-64544944D01*
X223829415Y-64409195D01*
X223880796Y-64360203D01*
X223950510Y-64346767D01*
X223988575Y-64356560D01*
X224003207Y-64362892D01*
X224137605Y-64401939D01*
X224151706Y-64401899D01*
X224155000Y-64394630D01*
X224155000Y-63199115D01*
X224150525Y-63183876D01*
X224149135Y-63182671D01*
X224141452Y-63181000D01*
X223619116Y-63181000D01*
X223598159Y-63187154D01*
X223548051Y-63219355D01*
X223477055Y-63219355D01*
X223461306Y-63213566D01*
X223300323Y-63141892D01*
X223300315Y-63141889D01*
X223294288Y-63139206D01*
X223200887Y-63119353D01*
X223113944Y-63100872D01*
X223113939Y-63100872D01*
X223107487Y-63099500D01*
X222916513Y-63099500D01*
X222910057Y-63100872D01*
X222910050Y-63100873D01*
X222870910Y-63109193D01*
X222800119Y-63103792D01*
X222743486Y-63060976D01*
X222718992Y-62994339D01*
X222734412Y-62925037D01*
X222745829Y-62907856D01*
X222757751Y-62892760D01*
X222842816Y-62754757D01*
X222848963Y-62741576D01*
X222877717Y-62654885D01*
X223601000Y-62654885D01*
X223605475Y-62670124D01*
X223606865Y-62671329D01*
X223614548Y-62673000D01*
X224136885Y-62673000D01*
X224152124Y-62668525D01*
X224153329Y-62667135D01*
X224155000Y-62659452D01*
X224155000Y-61465122D01*
X224151027Y-61451591D01*
X224143129Y-61450456D01*
X224003210Y-61491107D01*
X223988779Y-61497352D01*
X223859322Y-61573911D01*
X223846896Y-61583551D01*
X223740551Y-61689896D01*
X223730911Y-61702322D01*
X223654352Y-61831779D01*
X223648107Y-61846210D01*
X223605731Y-61992065D01*
X223603430Y-62004667D01*
X223601193Y-62033084D01*
X223601000Y-62038014D01*
X223601000Y-62654885D01*
X222877717Y-62654885D01*
X222900138Y-62587290D01*
X222903005Y-62573914D01*
X222912672Y-62479562D01*
X222913000Y-62473146D01*
X222913000Y-62248115D01*
X222908525Y-62232876D01*
X222907135Y-62231671D01*
X222899452Y-62230000D01*
X221764500Y-62230000D01*
X221696379Y-62209998D01*
X221649886Y-62156342D01*
X221638500Y-62104000D01*
X221638500Y-61848000D01*
X221658502Y-61779879D01*
X221712158Y-61733386D01*
X221764500Y-61722000D01*
X222894884Y-61722000D01*
X222910123Y-61717525D01*
X222911328Y-61716135D01*
X222912999Y-61708452D01*
X222912999Y-61478905D01*
X222912662Y-61472386D01*
X222902743Y-61376794D01*
X222899851Y-61363400D01*
X222862477Y-61251376D01*
X222859893Y-61180427D01*
X222896076Y-61119343D01*
X222959541Y-61087518D01*
X222982001Y-61085500D01*
X224203233Y-61085500D01*
X224214416Y-61086027D01*
X224221909Y-61087702D01*
X224229835Y-61087453D01*
X224229836Y-61087453D01*
X224289986Y-61085562D01*
X224293945Y-61085500D01*
X224321856Y-61085500D01*
X224325791Y-61085003D01*
X224325856Y-61084995D01*
X224337693Y-61084062D01*
X224369951Y-61083048D01*
X224373970Y-61082922D01*
X224381889Y-61082673D01*
X224401343Y-61077021D01*
X224420700Y-61073013D01*
X224432930Y-61071468D01*
X224432931Y-61071468D01*
X224440797Y-61070474D01*
X224448168Y-61067555D01*
X224448170Y-61067555D01*
X224481912Y-61054196D01*
X224493142Y-61050351D01*
X224527983Y-61040229D01*
X224527984Y-61040229D01*
X224535593Y-61038018D01*
X224542412Y-61033985D01*
X224542417Y-61033983D01*
X224553028Y-61027707D01*
X224570776Y-61019012D01*
X224589617Y-61011552D01*
X224625387Y-60985564D01*
X224635307Y-60979048D01*
X224666535Y-60960580D01*
X224666538Y-60960578D01*
X224673362Y-60956542D01*
X224687683Y-60942221D01*
X224702717Y-60929380D01*
X224712694Y-60922131D01*
X224719107Y-60917472D01*
X224747298Y-60883395D01*
X224755288Y-60874616D01*
X226071247Y-59558657D01*
X226079537Y-59551113D01*
X226086018Y-59547000D01*
X226132659Y-59497332D01*
X226135413Y-59494491D01*
X226155134Y-59474770D01*
X226157612Y-59471575D01*
X226165318Y-59462553D01*
X226180305Y-59446593D01*
X226195586Y-59430321D01*
X226201732Y-59419142D01*
X226205346Y-59412568D01*
X226216199Y-59396045D01*
X226217445Y-59394438D01*
X226228613Y-59380041D01*
X226230510Y-59375657D01*
X226281376Y-59328162D01*
X226351226Y-59315455D01*
X226402078Y-59332299D01*
X226535399Y-59411145D01*
X226543010Y-59413356D01*
X226543012Y-59413357D01*
X226577485Y-59423372D01*
X226695169Y-59457562D01*
X226701574Y-59458066D01*
X226701579Y-59458067D01*
X226730042Y-59460307D01*
X226730050Y-59460307D01*
X226732498Y-59460500D01*
X227165502Y-59460500D01*
X227167950Y-59460307D01*
X227167958Y-59460307D01*
X227196421Y-59458067D01*
X227196426Y-59458066D01*
X227202831Y-59457562D01*
X227320515Y-59423372D01*
X227354988Y-59413357D01*
X227354990Y-59413356D01*
X227362601Y-59411145D01*
X227505807Y-59326453D01*
X227508489Y-59323771D01*
X227572861Y-59298498D01*
X227642484Y-59312400D01*
X227658312Y-59322572D01*
X227662193Y-59326453D01*
X227777156Y-59394442D01*
X227825605Y-59446331D01*
X227838310Y-59516181D01*
X227811235Y-59581813D01*
X227802108Y-59591987D01*
X226556747Y-60837348D01*
X226548461Y-60844888D01*
X226541982Y-60849000D01*
X226536557Y-60854777D01*
X226495357Y-60898651D01*
X226492602Y-60901493D01*
X226472865Y-60921230D01*
X226470385Y-60924427D01*
X226462682Y-60933447D01*
X226432414Y-60965679D01*
X226428595Y-60972625D01*
X226428593Y-60972628D01*
X226422652Y-60983434D01*
X226411801Y-60999953D01*
X226399386Y-61015959D01*
X226396241Y-61023228D01*
X226396238Y-61023232D01*
X226381826Y-61056537D01*
X226376609Y-61067187D01*
X226355305Y-61105940D01*
X226353334Y-61113615D01*
X226353334Y-61113616D01*
X226350267Y-61125562D01*
X226343863Y-61144266D01*
X226335819Y-61162855D01*
X226334580Y-61170678D01*
X226334577Y-61170688D01*
X226328901Y-61206524D01*
X226326495Y-61218144D01*
X226315500Y-61260970D01*
X226315500Y-61281224D01*
X226313949Y-61300934D01*
X226310780Y-61320943D01*
X226311526Y-61328835D01*
X226314941Y-61364961D01*
X226315500Y-61376819D01*
X226315500Y-61403776D01*
X226295498Y-61471897D01*
X226241842Y-61518390D01*
X226171568Y-61528494D01*
X226125364Y-61512231D01*
X226092601Y-61492855D01*
X226084990Y-61490644D01*
X226084988Y-61490643D01*
X226032769Y-61475472D01*
X225932831Y-61446438D01*
X225926426Y-61445934D01*
X225926421Y-61445933D01*
X225897958Y-61443693D01*
X225897950Y-61443693D01*
X225895502Y-61443500D01*
X225462498Y-61443500D01*
X225460050Y-61443693D01*
X225460042Y-61443693D01*
X225431579Y-61445933D01*
X225431574Y-61445934D01*
X225425169Y-61446438D01*
X225325231Y-61475472D01*
X225273012Y-61490643D01*
X225273010Y-61490644D01*
X225265399Y-61492855D01*
X225122193Y-61577547D01*
X225119253Y-61580487D01*
X225054729Y-61605821D01*
X224985106Y-61591920D01*
X224966360Y-61579871D01*
X224958677Y-61573911D01*
X224829221Y-61497352D01*
X224814790Y-61491107D01*
X224680395Y-61452061D01*
X224666294Y-61452101D01*
X224663000Y-61459370D01*
X224663000Y-64388878D01*
X224666973Y-64402409D01*
X224674871Y-64403544D01*
X224814790Y-64362893D01*
X224829221Y-64356648D01*
X224958677Y-64280089D01*
X224966360Y-64274129D01*
X225032444Y-64248180D01*
X225102067Y-64262078D01*
X225118161Y-64272421D01*
X225122193Y-64276453D01*
X225129018Y-64280489D01*
X225129024Y-64280494D01*
X225246417Y-64349920D01*
X225271374Y-64369278D01*
X226064353Y-65162258D01*
X226071887Y-65170537D01*
X226076000Y-65177018D01*
X226125651Y-65223643D01*
X226128493Y-65226398D01*
X226148230Y-65246135D01*
X226151427Y-65248615D01*
X226160447Y-65256318D01*
X226192679Y-65286586D01*
X226199625Y-65290405D01*
X226199628Y-65290407D01*
X226210434Y-65296348D01*
X226226953Y-65307199D01*
X226242959Y-65319614D01*
X226250228Y-65322759D01*
X226250232Y-65322762D01*
X226283537Y-65337174D01*
X226294187Y-65342391D01*
X226332940Y-65363695D01*
X226340615Y-65365666D01*
X226340616Y-65365666D01*
X226352562Y-65368733D01*
X226371267Y-65375137D01*
X226389855Y-65383181D01*
X226397678Y-65384420D01*
X226397688Y-65384423D01*
X226433524Y-65390099D01*
X226445144Y-65392505D01*
X226476959Y-65400673D01*
X226487970Y-65403500D01*
X226508224Y-65403500D01*
X226527934Y-65405051D01*
X226547943Y-65408220D01*
X226555835Y-65407474D01*
X226574580Y-65405702D01*
X226591962Y-65404059D01*
X226603819Y-65403500D01*
X228775233Y-65403500D01*
X228786416Y-65404027D01*
X228793909Y-65405702D01*
X228801835Y-65405453D01*
X228801836Y-65405453D01*
X228861986Y-65403562D01*
X228865945Y-65403500D01*
X228893856Y-65403500D01*
X228897791Y-65403003D01*
X228897856Y-65402995D01*
X228909693Y-65402062D01*
X228941951Y-65401048D01*
X228945970Y-65400922D01*
X228953889Y-65400673D01*
X228973343Y-65395021D01*
X228992700Y-65391013D01*
X229004930Y-65389468D01*
X229004931Y-65389468D01*
X229012797Y-65388474D01*
X229020168Y-65385555D01*
X229020170Y-65385555D01*
X229053912Y-65372196D01*
X229065142Y-65368351D01*
X229099983Y-65358229D01*
X229099984Y-65358229D01*
X229107593Y-65356018D01*
X229114412Y-65351985D01*
X229114417Y-65351983D01*
X229125028Y-65345707D01*
X229142776Y-65337012D01*
X229161617Y-65329552D01*
X229197387Y-65303564D01*
X229207307Y-65297048D01*
X229238535Y-65278580D01*
X229238538Y-65278578D01*
X229245362Y-65274542D01*
X229259683Y-65260221D01*
X229274717Y-65247380D01*
X229284693Y-65240132D01*
X229291107Y-65235472D01*
X229319288Y-65201407D01*
X229327278Y-65192626D01*
X230008258Y-64511647D01*
X230016537Y-64504113D01*
X230023018Y-64500000D01*
X230069644Y-64450348D01*
X230072398Y-64447507D01*
X230092135Y-64427770D01*
X230094615Y-64424573D01*
X230102320Y-64415551D01*
X230114661Y-64402409D01*
X230132586Y-64383321D01*
X230136405Y-64376375D01*
X230136407Y-64376372D01*
X230142348Y-64365566D01*
X230153199Y-64349047D01*
X230160758Y-64339301D01*
X230165614Y-64333041D01*
X230168759Y-64325772D01*
X230168762Y-64325768D01*
X230183174Y-64292463D01*
X230188391Y-64281813D01*
X230209695Y-64243060D01*
X230212115Y-64233637D01*
X230214733Y-64223438D01*
X230221137Y-64204734D01*
X230226033Y-64193420D01*
X230226033Y-64193419D01*
X230229181Y-64186145D01*
X230230420Y-64178322D01*
X230230423Y-64178312D01*
X230236099Y-64142476D01*
X230238505Y-64130856D01*
X230247528Y-64095711D01*
X230247528Y-64095710D01*
X230249500Y-64088030D01*
X230249500Y-64067776D01*
X230251051Y-64048065D01*
X230252980Y-64035886D01*
X230254220Y-64028057D01*
X230250059Y-63984038D01*
X230249500Y-63972181D01*
X230249500Y-63555594D01*
X230269502Y-63487473D01*
X230323158Y-63440980D01*
X230393432Y-63430876D01*
X230458012Y-63460370D01*
X230464595Y-63466499D01*
X234787595Y-67789499D01*
X234821621Y-67851811D01*
X234824500Y-67878594D01*
X234824500Y-68137029D01*
X234804498Y-68205150D01*
X234750842Y-68251643D01*
X234680568Y-68261747D01*
X234615988Y-68232253D01*
X234604864Y-68221339D01*
X234590288Y-68205150D01*
X234545253Y-68155134D01*
X234390752Y-68042882D01*
X234384724Y-68040198D01*
X234384722Y-68040197D01*
X234222319Y-67967891D01*
X234222318Y-67967891D01*
X234216288Y-67965206D01*
X234122888Y-67945353D01*
X234035944Y-67926872D01*
X234035939Y-67926872D01*
X234029487Y-67925500D01*
X233838513Y-67925500D01*
X233832061Y-67926872D01*
X233832056Y-67926872D01*
X233745112Y-67945353D01*
X233651712Y-67965206D01*
X233645682Y-67967891D01*
X233645681Y-67967891D01*
X233483278Y-68040197D01*
X233483276Y-68040198D01*
X233477248Y-68042882D01*
X233322747Y-68155134D01*
X233318326Y-68160044D01*
X233318325Y-68160045D01*
X233212268Y-68277834D01*
X233194960Y-68297056D01*
X233099473Y-68462444D01*
X233040458Y-68644072D01*
X233039768Y-68650633D01*
X233039768Y-68650635D01*
X233030933Y-68734693D01*
X233020496Y-68834000D01*
X233021186Y-68840565D01*
X233035894Y-68980500D01*
X233040458Y-69023928D01*
X233099473Y-69205556D01*
X233194960Y-69370944D01*
X233268137Y-69452215D01*
X233298853Y-69516221D01*
X233300500Y-69536524D01*
X233300500Y-128087733D01*
X233299973Y-128098916D01*
X233298298Y-128106409D01*
X233298547Y-128114335D01*
X233298547Y-128114336D01*
X233300438Y-128174486D01*
X233300500Y-128178445D01*
X233300500Y-128206356D01*
X233300997Y-128210290D01*
X233300997Y-128210291D01*
X233301005Y-128210356D01*
X233301938Y-128222193D01*
X233303327Y-128266389D01*
X233308978Y-128285839D01*
X233312987Y-128305200D01*
X233315526Y-128325297D01*
X233318445Y-128332668D01*
X233318445Y-128332670D01*
X233331804Y-128366412D01*
X233335649Y-128377642D01*
X233347982Y-128420093D01*
X233352015Y-128426912D01*
X233352017Y-128426917D01*
X233358293Y-128437528D01*
X233366988Y-128455276D01*
X233374448Y-128474117D01*
X233379110Y-128480533D01*
X233379110Y-128480534D01*
X233400436Y-128509887D01*
X233406952Y-128519807D01*
X233429458Y-128557862D01*
X233443779Y-128572183D01*
X233456619Y-128587216D01*
X233468528Y-128603607D01*
X233474634Y-128608658D01*
X233502605Y-128631798D01*
X233511384Y-128639788D01*
X238276595Y-133404999D01*
X238310621Y-133467311D01*
X238313500Y-133494094D01*
X238313500Y-134067400D01*
X238313837Y-134070646D01*
X238313837Y-134070650D01*
X238323304Y-134161886D01*
X238324474Y-134173166D01*
X238326655Y-134179702D01*
X238326655Y-134179704D01*
X238336222Y-134208379D01*
X238380450Y-134340946D01*
X238473522Y-134491348D01*
X238598697Y-134616305D01*
X238604927Y-134620145D01*
X238604928Y-134620146D01*
X238742090Y-134704694D01*
X238749262Y-134709115D01*
X238829005Y-134735564D01*
X238910611Y-134762632D01*
X238910613Y-134762632D01*
X238917139Y-134764797D01*
X238923975Y-134765497D01*
X238923978Y-134765498D01*
X238967031Y-134769909D01*
X239021600Y-134775500D01*
X240022400Y-134775500D01*
X240025646Y-134775163D01*
X240025650Y-134775163D01*
X240121308Y-134765238D01*
X240121312Y-134765237D01*
X240128166Y-134764526D01*
X240134702Y-134762345D01*
X240134704Y-134762345D01*
X240266806Y-134718272D01*
X240295946Y-134708550D01*
X240331790Y-134686369D01*
X240423520Y-134629605D01*
X240491972Y-134610767D01*
X240559742Y-134631928D01*
X240605313Y-134686369D01*
X240615086Y-134723143D01*
X240617401Y-134744459D01*
X240617402Y-134744463D01*
X240618255Y-134752316D01*
X240669385Y-134888705D01*
X240756739Y-135005261D01*
X240873295Y-135092615D01*
X240881704Y-135095768D01*
X240881707Y-135095769D01*
X240904731Y-135104401D01*
X240961495Y-135147043D01*
X240986194Y-135213605D01*
X240986500Y-135222382D01*
X240986500Y-138303405D01*
X240966498Y-138371526D01*
X240949595Y-138392501D01*
X240648812Y-138693283D01*
X240630542Y-138708397D01*
X240630292Y-138708567D01*
X240630288Y-138708570D01*
X240623729Y-138713028D01*
X240618485Y-138718976D01*
X240618484Y-138718977D01*
X240586589Y-138755155D01*
X240581170Y-138760925D01*
X240569865Y-138772230D01*
X240567435Y-138775363D01*
X240560057Y-138784874D01*
X240555012Y-138790972D01*
X240544038Y-138803420D01*
X240517880Y-138833090D01*
X240514281Y-138840154D01*
X240514280Y-138840155D01*
X240514140Y-138840429D01*
X240501434Y-138860450D01*
X240501248Y-138860690D01*
X240501246Y-138860694D01*
X240496386Y-138866959D01*
X240493236Y-138874238D01*
X240474079Y-138918507D01*
X240470722Y-138925642D01*
X240445215Y-138975704D01*
X240443417Y-138983749D01*
X240436091Y-139006294D01*
X240432819Y-139013855D01*
X240431579Y-139021685D01*
X240424033Y-139069326D01*
X240422549Y-139077101D01*
X240420395Y-139086739D01*
X240410298Y-139131909D01*
X240410547Y-139139832D01*
X240410547Y-139139833D01*
X240410557Y-139140141D01*
X240409067Y-139163815D01*
X240407780Y-139171943D01*
X240408526Y-139179835D01*
X240408526Y-139179836D01*
X240413065Y-139227858D01*
X240413562Y-139235755D01*
X240415327Y-139291889D01*
X240417539Y-139299501D01*
X240417624Y-139299794D01*
X240422068Y-139323094D01*
X240422843Y-139331292D01*
X240428693Y-139347540D01*
X240441871Y-139384144D01*
X240444317Y-139391673D01*
X240457770Y-139437981D01*
X240457772Y-139437985D01*
X240459982Y-139445593D01*
X240464017Y-139452416D01*
X240464019Y-139452420D01*
X240464177Y-139452688D01*
X240474267Y-139474132D01*
X240474373Y-139474426D01*
X240474377Y-139474435D01*
X240477061Y-139481889D01*
X240479267Y-139485135D01*
X240492500Y-139540251D01*
X240492500Y-141873026D01*
X240472498Y-141941147D01*
X240419252Y-141987452D01*
X240309965Y-142037834D01*
X240306056Y-142040397D01*
X240105242Y-142172056D01*
X240105237Y-142172060D01*
X240101329Y-142174622D01*
X240059262Y-142212168D01*
X239925417Y-142331629D01*
X239915202Y-142340746D01*
X239755675Y-142532557D01*
X239626252Y-142745840D01*
X239624443Y-142750154D01*
X239624442Y-142750156D01*
X239571462Y-142876500D01*
X239529775Y-142975911D01*
X239528624Y-142980443D01*
X239528623Y-142980446D01*
X239519483Y-143016435D01*
X239468365Y-143217714D01*
X239443370Y-143465939D01*
X239455339Y-143715131D01*
X239504010Y-143959818D01*
X239588314Y-144194622D01*
X239706398Y-144414386D01*
X239855668Y-144614283D01*
X240032844Y-144789921D01*
X240036606Y-144792679D01*
X240036609Y-144792682D01*
X240222082Y-144928675D01*
X240234036Y-144937440D01*
X240238171Y-144939616D01*
X240238175Y-144939618D01*
X240342605Y-144994561D01*
X240454823Y-145053602D01*
X240546918Y-145085763D01*
X240675670Y-145130725D01*
X240690354Y-145135853D01*
X240694947Y-145136725D01*
X240930867Y-145181516D01*
X240930870Y-145181516D01*
X240935456Y-145182387D01*
X241060099Y-145187284D01*
X241180075Y-145191999D01*
X241180081Y-145191999D01*
X241184743Y-145192182D01*
X241282134Y-145181516D01*
X241428087Y-145165532D01*
X241428092Y-145165531D01*
X241432740Y-145165022D01*
X241437264Y-145163831D01*
X241669476Y-145102694D01*
X241669478Y-145102693D01*
X241673999Y-145101503D01*
X241678296Y-145099657D01*
X241898924Y-145004868D01*
X241898926Y-145004867D01*
X241903218Y-145003023D01*
X242023363Y-144928675D01*
X242111391Y-144874202D01*
X242111395Y-144874199D01*
X242115364Y-144871743D01*
X242215900Y-144786633D01*
X242302209Y-144713567D01*
X242302210Y-144713566D01*
X242305775Y-144710548D01*
X242326319Y-144687122D01*
X242467187Y-144526494D01*
X242467191Y-144526489D01*
X242470269Y-144522979D01*
X242474129Y-144516979D01*
X242602703Y-144317087D01*
X242605231Y-144313157D01*
X242609854Y-144302896D01*
X242648209Y-144217750D01*
X242694424Y-144163855D01*
X242763091Y-144143500D01*
X244485511Y-144143500D01*
X244553632Y-144163502D01*
X244596502Y-144209861D01*
X244706398Y-144414386D01*
X244855668Y-144614283D01*
X245032844Y-144789921D01*
X245036606Y-144792679D01*
X245036609Y-144792682D01*
X245222082Y-144928675D01*
X245234036Y-144937440D01*
X245238171Y-144939616D01*
X245238175Y-144939618D01*
X245342605Y-144994561D01*
X245454823Y-145053602D01*
X245546918Y-145085763D01*
X245675670Y-145130725D01*
X245690354Y-145135853D01*
X245694947Y-145136725D01*
X245930867Y-145181516D01*
X245930870Y-145181516D01*
X245935456Y-145182387D01*
X246060099Y-145187284D01*
X246180075Y-145191999D01*
X246180081Y-145191999D01*
X246184743Y-145192182D01*
X246282134Y-145181516D01*
X246428087Y-145165532D01*
X246428092Y-145165531D01*
X246432740Y-145165022D01*
X246437264Y-145163831D01*
X246669476Y-145102694D01*
X246669478Y-145102693D01*
X246673999Y-145101503D01*
X246678296Y-145099657D01*
X246898924Y-145004868D01*
X246898926Y-145004867D01*
X246903218Y-145003023D01*
X247023363Y-144928675D01*
X247111391Y-144874202D01*
X247111395Y-144874199D01*
X247115364Y-144871743D01*
X247215900Y-144786633D01*
X247302209Y-144713567D01*
X247302210Y-144713566D01*
X247305775Y-144710548D01*
X247326319Y-144687122D01*
X247467187Y-144526494D01*
X247467191Y-144526489D01*
X247470269Y-144522979D01*
X247474129Y-144516979D01*
X247602703Y-144317087D01*
X247605231Y-144313157D01*
X247707697Y-144085691D01*
X247741956Y-143964218D01*
X247774146Y-143850082D01*
X247774147Y-143850079D01*
X247775416Y-143845578D01*
X247792011Y-143715131D01*
X247806502Y-143601222D01*
X247806502Y-143601218D01*
X247806900Y-143598092D01*
X247809207Y-143510000D01*
X247790718Y-143261206D01*
X247735659Y-143017878D01*
X247731633Y-143007524D01*
X247646931Y-142789714D01*
X247646930Y-142789711D01*
X247645238Y-142785361D01*
X247521442Y-142568763D01*
X247366990Y-142372842D01*
X247185276Y-142201902D01*
X247069160Y-142121350D01*
X246984130Y-142062362D01*
X246984125Y-142062359D01*
X246980292Y-142059700D01*
X246976110Y-142057637D01*
X246976102Y-142057633D01*
X246760728Y-141951423D01*
X246760725Y-141951422D01*
X246756540Y-141949358D01*
X246751311Y-141947684D01*
X246706647Y-141933387D01*
X246518937Y-141873300D01*
X246514330Y-141872550D01*
X246514327Y-141872549D01*
X246323737Y-141841510D01*
X246272701Y-141833198D01*
X246151753Y-141831615D01*
X246027920Y-141829994D01*
X246027917Y-141829994D01*
X246023243Y-141829933D01*
X245776042Y-141863575D01*
X245771556Y-141864883D01*
X245771554Y-141864883D01*
X245743617Y-141873026D01*
X245536528Y-141933387D01*
X245309965Y-142037834D01*
X245306056Y-142040397D01*
X245105242Y-142172056D01*
X245105237Y-142172060D01*
X245101329Y-142174622D01*
X245059262Y-142212168D01*
X244925417Y-142331629D01*
X244915202Y-142340746D01*
X244755675Y-142532557D01*
X244690963Y-142639199D01*
X244628680Y-142741839D01*
X244626252Y-142745840D01*
X244607856Y-142789711D01*
X244603866Y-142799225D01*
X244559078Y-142854311D01*
X244487669Y-142876500D01*
X242766873Y-142876500D01*
X242698752Y-142856498D01*
X242652259Y-142802842D01*
X242649439Y-142796165D01*
X242647106Y-142790165D01*
X242645238Y-142785361D01*
X242521442Y-142568763D01*
X242366990Y-142372842D01*
X242185276Y-142201902D01*
X242069160Y-142121350D01*
X241984130Y-142062362D01*
X241984125Y-142062359D01*
X241980292Y-142059700D01*
X241829772Y-141985472D01*
X241777523Y-141937404D01*
X241759500Y-141872466D01*
X241759500Y-139426594D01*
X241779502Y-139358473D01*
X241796405Y-139337499D01*
X242012247Y-139121657D01*
X242020537Y-139114113D01*
X242027018Y-139110000D01*
X242073659Y-139060332D01*
X242076413Y-139057491D01*
X242096135Y-139037769D01*
X242098612Y-139034576D01*
X242106317Y-139025555D01*
X242109951Y-139021685D01*
X242136586Y-138993321D01*
X242141854Y-138983739D01*
X242146346Y-138975568D01*
X242157202Y-138959041D01*
X242164757Y-138949302D01*
X242164758Y-138949300D01*
X242169614Y-138943040D01*
X242187174Y-138902460D01*
X242192391Y-138891812D01*
X242209875Y-138860009D01*
X242209876Y-138860007D01*
X242213695Y-138853060D01*
X242217009Y-138840155D01*
X242218733Y-138833438D01*
X242225137Y-138814734D01*
X242230033Y-138803420D01*
X242230033Y-138803419D01*
X242233181Y-138796145D01*
X242234420Y-138788322D01*
X242234423Y-138788312D01*
X242240099Y-138752476D01*
X242242505Y-138740856D01*
X242251528Y-138705711D01*
X242251528Y-138705710D01*
X242253500Y-138698030D01*
X242253500Y-138677776D01*
X242255051Y-138658065D01*
X242256980Y-138645886D01*
X242258220Y-138638057D01*
X242254059Y-138594038D01*
X242253500Y-138582181D01*
X242253500Y-135222382D01*
X242273502Y-135154261D01*
X242327158Y-135107768D01*
X242335269Y-135104401D01*
X242358293Y-135095769D01*
X242358296Y-135095768D01*
X242366705Y-135092615D01*
X242483261Y-135005261D01*
X242484187Y-135004026D01*
X242543217Y-134971792D01*
X242614032Y-134976857D01*
X242655355Y-135003414D01*
X242656739Y-135005261D01*
X242737872Y-135066067D01*
X242780384Y-135122923D01*
X242785410Y-135193741D01*
X242771425Y-135229887D01*
X242751473Y-135264444D01*
X242692458Y-135446072D01*
X242672496Y-135636000D01*
X242692458Y-135825928D01*
X242751473Y-136007556D01*
X242846960Y-136172944D01*
X242974747Y-136314866D01*
X243129248Y-136427118D01*
X243135276Y-136429802D01*
X243135278Y-136429803D01*
X243297681Y-136502109D01*
X243303712Y-136504794D01*
X243397112Y-136524647D01*
X243484056Y-136543128D01*
X243484061Y-136543128D01*
X243490513Y-136544500D01*
X243681487Y-136544500D01*
X243687939Y-136543128D01*
X243687944Y-136543128D01*
X243774888Y-136524647D01*
X243868288Y-136504794D01*
X243874319Y-136502109D01*
X244036722Y-136429803D01*
X244036724Y-136429802D01*
X244042752Y-136427118D01*
X244197253Y-136314866D01*
X244325040Y-136172944D01*
X244420527Y-136007556D01*
X244479542Y-135825928D01*
X244499504Y-135636000D01*
X244479542Y-135446072D01*
X244420527Y-135264444D01*
X244396243Y-135222382D01*
X244359702Y-135159092D01*
X244342964Y-135090097D01*
X244366184Y-135023005D01*
X244377615Y-135009493D01*
X244383261Y-135005261D01*
X244470615Y-134888705D01*
X244521745Y-134752316D01*
X244528500Y-134690134D01*
X244529639Y-134690258D01*
X244551711Y-134627766D01*
X244607794Y-134584232D01*
X244653884Y-134575500D01*
X245541233Y-134575500D01*
X245552416Y-134576027D01*
X245559909Y-134577702D01*
X245567835Y-134577453D01*
X245567836Y-134577453D01*
X245627986Y-134575562D01*
X245631945Y-134575500D01*
X245659856Y-134575500D01*
X245663791Y-134575003D01*
X245663856Y-134574995D01*
X245675693Y-134574062D01*
X245707951Y-134573048D01*
X245711970Y-134572922D01*
X245719889Y-134572673D01*
X245739343Y-134567021D01*
X245758700Y-134563013D01*
X245770930Y-134561468D01*
X245770931Y-134561468D01*
X245778797Y-134560474D01*
X245786168Y-134557555D01*
X245786170Y-134557555D01*
X245819912Y-134544196D01*
X245831142Y-134540351D01*
X245865983Y-134530229D01*
X245865984Y-134530229D01*
X245873593Y-134528018D01*
X245880412Y-134523985D01*
X245880417Y-134523983D01*
X245891028Y-134517707D01*
X245908776Y-134509012D01*
X245927617Y-134501552D01*
X245963387Y-134475564D01*
X245973307Y-134469048D01*
X246004535Y-134450580D01*
X246004538Y-134450578D01*
X246011362Y-134446542D01*
X246025683Y-134432221D01*
X246040717Y-134419380D01*
X246050694Y-134412131D01*
X246057107Y-134407472D01*
X246085298Y-134373395D01*
X246093288Y-134364616D01*
X246270499Y-134187405D01*
X246332811Y-134153379D01*
X246359594Y-134150500D01*
X248020400Y-134150500D01*
X248023646Y-134150163D01*
X248023650Y-134150163D01*
X248119308Y-134140238D01*
X248119312Y-134140237D01*
X248126166Y-134139526D01*
X248132702Y-134137345D01*
X248132704Y-134137345D01*
X248264806Y-134093272D01*
X248293946Y-134083550D01*
X248444348Y-133990478D01*
X248569305Y-133865303D01*
X248662115Y-133714738D01*
X248717797Y-133546861D01*
X248728500Y-133442400D01*
X248728500Y-132241600D01*
X248717526Y-132135834D01*
X248661550Y-131968054D01*
X248568478Y-131817652D01*
X248443303Y-131692695D01*
X248437072Y-131688854D01*
X248298968Y-131603725D01*
X248298966Y-131603724D01*
X248292738Y-131599885D01*
X248132254Y-131546655D01*
X248131389Y-131546368D01*
X248131387Y-131546368D01*
X248124861Y-131544203D01*
X248118025Y-131543503D01*
X248118022Y-131543502D01*
X248074969Y-131539091D01*
X248020400Y-131533500D01*
X247483570Y-131533500D01*
X247415449Y-131513498D01*
X247368956Y-131459842D01*
X247358852Y-131389568D01*
X247374451Y-131344500D01*
X247465223Y-131187279D01*
X247465224Y-131187278D01*
X247468527Y-131181556D01*
X247527542Y-130999928D01*
X247529710Y-130979306D01*
X247546814Y-130816565D01*
X247547504Y-130810000D01*
X247527542Y-130620072D01*
X247468527Y-130438444D01*
X247373040Y-130273056D01*
X247245253Y-130131134D01*
X247090752Y-130018882D01*
X247084724Y-130016198D01*
X247084722Y-130016197D01*
X246922319Y-129943891D01*
X246922318Y-129943891D01*
X246916288Y-129941206D01*
X246822888Y-129921353D01*
X246735944Y-129902872D01*
X246735939Y-129902872D01*
X246729487Y-129901500D01*
X246538513Y-129901500D01*
X246532061Y-129902872D01*
X246532056Y-129902872D01*
X246445112Y-129921353D01*
X246351712Y-129941206D01*
X246345682Y-129943891D01*
X246345681Y-129943891D01*
X246183278Y-130016197D01*
X246183276Y-130016198D01*
X246177248Y-130018882D01*
X246022747Y-130131134D01*
X245894960Y-130273056D01*
X245799473Y-130438444D01*
X245740458Y-130620072D01*
X245720496Y-130810000D01*
X245721186Y-130816565D01*
X245738291Y-130979306D01*
X245740458Y-130999928D01*
X245799473Y-131181556D01*
X245802776Y-131187278D01*
X245802777Y-131187279D01*
X245893549Y-131344500D01*
X245910287Y-131413495D01*
X245887067Y-131480587D01*
X245831260Y-131524474D01*
X245784430Y-131533500D01*
X245419600Y-131533500D01*
X245416354Y-131533837D01*
X245416350Y-131533837D01*
X245320692Y-131543762D01*
X245320688Y-131543763D01*
X245313834Y-131544474D01*
X245307298Y-131546655D01*
X245307296Y-131546655D01*
X245175194Y-131590728D01*
X245146054Y-131600450D01*
X244995652Y-131693522D01*
X244870695Y-131818697D01*
X244777885Y-131969262D01*
X244722203Y-132137139D01*
X244711500Y-132241600D01*
X244711500Y-132945408D01*
X244691498Y-133013529D01*
X244637842Y-133060022D01*
X244567568Y-133070126D01*
X244502988Y-133040632D01*
X244474981Y-133005918D01*
X244473764Y-133003696D01*
X244470615Y-132995295D01*
X244383261Y-132878739D01*
X244266705Y-132791385D01*
X244130316Y-132740255D01*
X244068134Y-132733500D01*
X243685621Y-132733500D01*
X243617500Y-132713498D01*
X243571007Y-132659842D01*
X243560903Y-132589568D01*
X243567637Y-132563275D01*
X243568971Y-132559716D01*
X243568971Y-132559715D01*
X243571745Y-132552316D01*
X243578500Y-132490134D01*
X243578500Y-130993866D01*
X243571745Y-130931684D01*
X243520615Y-130795295D01*
X243433261Y-130678739D01*
X243316705Y-130591385D01*
X243180316Y-130540255D01*
X243118134Y-130533500D01*
X242021866Y-130533500D01*
X241959684Y-130540255D01*
X241823295Y-130591385D01*
X241706739Y-130678739D01*
X241619385Y-130795295D01*
X241568255Y-130931684D01*
X241561500Y-130993866D01*
X241560361Y-130993742D01*
X241538289Y-131056234D01*
X241482206Y-131099768D01*
X241436116Y-131108500D01*
X240538306Y-131108500D01*
X240470185Y-131088498D01*
X240456298Y-131077317D01*
X240456229Y-131077404D01*
X240450483Y-131072866D01*
X240445303Y-131067695D01*
X240320020Y-130990469D01*
X240300968Y-130978725D01*
X240300966Y-130978724D01*
X240294738Y-130974885D01*
X240188176Y-130939540D01*
X240133389Y-130921368D01*
X240133387Y-130921368D01*
X240126861Y-130919203D01*
X240120025Y-130918503D01*
X240120022Y-130918502D01*
X240076969Y-130914091D01*
X240022400Y-130908500D01*
X239021600Y-130908500D01*
X239018354Y-130908837D01*
X239018350Y-130908837D01*
X238922692Y-130918762D01*
X238922688Y-130918763D01*
X238915834Y-130919474D01*
X238909298Y-130921655D01*
X238909296Y-130921655D01*
X238879236Y-130931684D01*
X238748054Y-130975450D01*
X238597652Y-131068522D01*
X238472695Y-131193697D01*
X238379885Y-131344262D01*
X238377580Y-131351212D01*
X238351466Y-131429944D01*
X238311036Y-131488304D01*
X238245472Y-131515542D01*
X238175591Y-131503009D01*
X238142778Y-131479373D01*
X234604405Y-127941000D01*
X234570379Y-127878688D01*
X234567500Y-127851905D01*
X234567500Y-69536524D01*
X234587502Y-69468403D01*
X234599858Y-69452221D01*
X234604866Y-69446659D01*
X234665311Y-69409421D01*
X234736294Y-69410773D01*
X234795279Y-69450287D01*
X234823536Y-69515418D01*
X234824500Y-69530971D01*
X234824500Y-108553233D01*
X234823973Y-108564416D01*
X234822298Y-108571909D01*
X234822547Y-108579835D01*
X234822547Y-108579836D01*
X234824438Y-108639986D01*
X234824500Y-108643945D01*
X234824500Y-108671856D01*
X234824997Y-108675790D01*
X234824997Y-108675791D01*
X234825005Y-108675856D01*
X234825938Y-108687693D01*
X234827327Y-108731889D01*
X234832978Y-108751339D01*
X234836987Y-108770700D01*
X234839526Y-108790797D01*
X234842445Y-108798168D01*
X234842445Y-108798170D01*
X234855804Y-108831912D01*
X234859649Y-108843142D01*
X234871982Y-108885593D01*
X234876015Y-108892412D01*
X234876017Y-108892417D01*
X234882293Y-108903028D01*
X234890988Y-108920776D01*
X234898448Y-108939617D01*
X234903110Y-108946033D01*
X234903110Y-108946034D01*
X234924436Y-108975387D01*
X234930952Y-108985307D01*
X234953458Y-109023362D01*
X234967779Y-109037683D01*
X234980619Y-109052716D01*
X234992528Y-109069107D01*
X234998634Y-109074158D01*
X235026605Y-109097298D01*
X235035384Y-109105288D01*
X239519074Y-113588978D01*
X239553100Y-113651290D01*
X239546177Y-113726796D01*
X239529775Y-113765911D01*
X239468365Y-114007714D01*
X239443370Y-114255939D01*
X239455339Y-114505131D01*
X239504010Y-114749818D01*
X239588314Y-114984622D01*
X239706398Y-115204386D01*
X239855668Y-115404283D01*
X240032844Y-115579921D01*
X240036606Y-115582679D01*
X240036609Y-115582682D01*
X240222082Y-115718675D01*
X240234036Y-115727440D01*
X240238171Y-115729616D01*
X240238175Y-115729618D01*
X240342605Y-115784561D01*
X240454823Y-115843602D01*
X240475318Y-115850759D01*
X240675670Y-115920725D01*
X240690354Y-115925853D01*
X240694947Y-115926725D01*
X240930867Y-115971516D01*
X240930870Y-115971516D01*
X240935456Y-115972387D01*
X241060100Y-115977285D01*
X241180075Y-115981999D01*
X241180081Y-115981999D01*
X241184743Y-115982182D01*
X241282134Y-115971516D01*
X241428087Y-115955532D01*
X241428092Y-115955531D01*
X241432740Y-115955022D01*
X241437264Y-115953831D01*
X241669476Y-115892694D01*
X241669478Y-115892693D01*
X241673999Y-115891503D01*
X241678296Y-115889657D01*
X241898924Y-115794868D01*
X241898926Y-115794867D01*
X241903218Y-115793023D01*
X242023363Y-115718675D01*
X242111391Y-115664202D01*
X242111395Y-115664199D01*
X242115364Y-115661743D01*
X242215900Y-115576633D01*
X242302209Y-115503567D01*
X242302210Y-115503566D01*
X242305775Y-115500548D01*
X242387316Y-115407569D01*
X242467187Y-115316494D01*
X242467191Y-115316489D01*
X242470269Y-115312979D01*
X242474129Y-115306979D01*
X242602703Y-115107087D01*
X242605231Y-115103157D01*
X242707697Y-114875691D01*
X242710659Y-114865188D01*
X242774146Y-114640082D01*
X242774147Y-114640079D01*
X242775416Y-114635578D01*
X242792011Y-114505131D01*
X242806502Y-114391222D01*
X242806502Y-114391218D01*
X242806900Y-114388092D01*
X242809207Y-114300000D01*
X242805933Y-114255939D01*
X244443370Y-114255939D01*
X244455339Y-114505131D01*
X244504010Y-114749818D01*
X244588314Y-114984622D01*
X244706398Y-115204386D01*
X244855668Y-115404283D01*
X245032844Y-115579921D01*
X245036606Y-115582679D01*
X245036609Y-115582682D01*
X245222082Y-115718675D01*
X245234036Y-115727440D01*
X245238171Y-115729616D01*
X245238175Y-115729618D01*
X245342605Y-115784561D01*
X245454823Y-115843602D01*
X245475318Y-115850759D01*
X245675670Y-115920725D01*
X245690354Y-115925853D01*
X245694947Y-115926725D01*
X245930867Y-115971516D01*
X245930870Y-115971516D01*
X245935456Y-115972387D01*
X246060100Y-115977285D01*
X246180075Y-115981999D01*
X246180081Y-115981999D01*
X246184743Y-115982182D01*
X246282134Y-115971516D01*
X246428087Y-115955532D01*
X246428092Y-115955531D01*
X246432740Y-115955022D01*
X246437264Y-115953831D01*
X246669476Y-115892694D01*
X246669478Y-115892693D01*
X246673999Y-115891503D01*
X246678296Y-115889657D01*
X246898924Y-115794868D01*
X246898926Y-115794867D01*
X246903218Y-115793023D01*
X247023363Y-115718675D01*
X247111391Y-115664202D01*
X247111395Y-115664199D01*
X247115364Y-115661743D01*
X247215900Y-115576633D01*
X247302209Y-115503567D01*
X247302210Y-115503566D01*
X247305775Y-115500548D01*
X247387316Y-115407569D01*
X247467187Y-115316494D01*
X247467191Y-115316489D01*
X247470269Y-115312979D01*
X247474129Y-115306979D01*
X247602703Y-115107087D01*
X247605231Y-115103157D01*
X247707697Y-114875691D01*
X247710659Y-114865188D01*
X247774146Y-114640082D01*
X247774147Y-114640079D01*
X247775416Y-114635578D01*
X247792011Y-114505131D01*
X247806502Y-114391222D01*
X247806502Y-114391218D01*
X247806900Y-114388092D01*
X247809207Y-114300000D01*
X247805933Y-114255939D01*
X249443370Y-114255939D01*
X249455339Y-114505131D01*
X249504010Y-114749818D01*
X249588314Y-114984622D01*
X249706398Y-115204386D01*
X249855668Y-115404283D01*
X250032844Y-115579921D01*
X250036606Y-115582679D01*
X250036609Y-115582682D01*
X250222082Y-115718675D01*
X250234036Y-115727440D01*
X250238171Y-115729616D01*
X250238175Y-115729618D01*
X250342605Y-115784561D01*
X250454823Y-115843602D01*
X250475318Y-115850759D01*
X250675670Y-115920725D01*
X250690354Y-115925853D01*
X250694947Y-115926725D01*
X250930867Y-115971516D01*
X250930870Y-115971516D01*
X250935456Y-115972387D01*
X251060100Y-115977285D01*
X251180075Y-115981999D01*
X251180081Y-115981999D01*
X251184743Y-115982182D01*
X251282134Y-115971516D01*
X251428087Y-115955532D01*
X251428092Y-115955531D01*
X251432740Y-115955022D01*
X251437264Y-115953831D01*
X251669476Y-115892694D01*
X251669478Y-115892693D01*
X251673999Y-115891503D01*
X251678296Y-115889657D01*
X251898924Y-115794868D01*
X251898926Y-115794867D01*
X251903218Y-115793023D01*
X252023363Y-115718675D01*
X252111391Y-115664202D01*
X252111395Y-115664199D01*
X252115364Y-115661743D01*
X252215900Y-115576633D01*
X252302209Y-115503567D01*
X252302210Y-115503566D01*
X252305775Y-115500548D01*
X252387316Y-115407569D01*
X252467187Y-115316494D01*
X252467191Y-115316489D01*
X252470269Y-115312979D01*
X252474129Y-115306979D01*
X252602703Y-115107087D01*
X252605231Y-115103157D01*
X252707697Y-114875691D01*
X252710659Y-114865188D01*
X252774146Y-114640082D01*
X252774147Y-114640079D01*
X252775416Y-114635578D01*
X252792011Y-114505131D01*
X252806502Y-114391222D01*
X252806502Y-114391218D01*
X252806900Y-114388092D01*
X252809207Y-114300000D01*
X252790718Y-114051206D01*
X252735659Y-113807878D01*
X252731633Y-113797524D01*
X252646931Y-113579714D01*
X252646930Y-113579712D01*
X252645238Y-113575361D01*
X252521442Y-113358763D01*
X252366990Y-113162842D01*
X252185276Y-112991902D01*
X252132507Y-112955295D01*
X252087938Y-112900033D01*
X252080320Y-112829446D01*
X252115232Y-112762672D01*
X252263341Y-112614564D01*
X252510758Y-112367147D01*
X252519037Y-112359613D01*
X252525518Y-112355500D01*
X252572144Y-112305848D01*
X252574898Y-112303007D01*
X252594635Y-112283270D01*
X252597115Y-112280073D01*
X252604820Y-112271051D01*
X252629659Y-112244600D01*
X252635086Y-112238821D01*
X252638905Y-112231875D01*
X252638907Y-112231872D01*
X252644848Y-112221066D01*
X252655699Y-112204547D01*
X252663258Y-112194801D01*
X252668114Y-112188541D01*
X252671259Y-112181272D01*
X252671262Y-112181268D01*
X252685674Y-112147963D01*
X252690891Y-112137313D01*
X252712195Y-112098560D01*
X252717233Y-112078937D01*
X252723637Y-112060234D01*
X252728533Y-112048920D01*
X252728533Y-112048919D01*
X252731681Y-112041645D01*
X252732920Y-112033822D01*
X252732923Y-112033812D01*
X252738599Y-111997976D01*
X252741005Y-111986356D01*
X252750028Y-111951211D01*
X252750028Y-111951210D01*
X252752000Y-111943530D01*
X252752000Y-111923276D01*
X252753551Y-111903565D01*
X252755480Y-111891386D01*
X252756720Y-111883557D01*
X252752559Y-111839538D01*
X252752000Y-111827681D01*
X252752000Y-111672634D01*
X252772002Y-111604513D01*
X252811697Y-111565490D01*
X252849120Y-111542332D01*
X252855348Y-111538478D01*
X252980305Y-111413303D01*
X253073115Y-111262738D01*
X253128797Y-111094861D01*
X253139500Y-110990400D01*
X253139500Y-109989600D01*
X253139163Y-109986350D01*
X253129238Y-109890692D01*
X253129237Y-109890688D01*
X253128526Y-109883834D01*
X253072550Y-109716054D01*
X252979478Y-109565652D01*
X252854303Y-109440695D01*
X252848072Y-109436854D01*
X252709968Y-109351725D01*
X252709966Y-109351724D01*
X252703738Y-109347885D01*
X252623995Y-109321436D01*
X252542389Y-109294368D01*
X252542387Y-109294368D01*
X252535861Y-109292203D01*
X252529025Y-109291503D01*
X252529022Y-109291502D01*
X252485969Y-109287091D01*
X252431400Y-109281500D01*
X251805600Y-109281500D01*
X251802354Y-109281837D01*
X251802350Y-109281837D01*
X251706692Y-109291762D01*
X251706688Y-109291763D01*
X251699834Y-109292474D01*
X251693298Y-109294655D01*
X251693296Y-109294655D01*
X251676928Y-109300116D01*
X251532054Y-109348450D01*
X251381652Y-109441522D01*
X251376479Y-109446704D01*
X251294862Y-109528463D01*
X251232579Y-109562542D01*
X251161759Y-109557539D01*
X251116671Y-109528618D01*
X251034171Y-109446261D01*
X251022760Y-109437249D01*
X250884757Y-109352184D01*
X250871576Y-109346037D01*
X250717290Y-109294862D01*
X250703914Y-109291995D01*
X250609562Y-109282328D01*
X250603145Y-109282000D01*
X250565615Y-109282000D01*
X250550376Y-109286475D01*
X250549171Y-109287865D01*
X250547500Y-109295548D01*
X250547500Y-111679884D01*
X250551975Y-111695123D01*
X250553365Y-111696328D01*
X250561048Y-111697999D01*
X250603095Y-111697999D01*
X250609614Y-111697662D01*
X250705206Y-111687743D01*
X250718600Y-111684851D01*
X250872784Y-111633412D01*
X250885962Y-111627239D01*
X251023807Y-111541937D01*
X251035208Y-111532901D01*
X251116430Y-111451538D01*
X251178713Y-111417459D01*
X251249533Y-111422462D01*
X251294620Y-111451382D01*
X251375564Y-111532184D01*
X251409644Y-111594467D01*
X251404641Y-111665287D01*
X251375642Y-111710453D01*
X250733747Y-112352348D01*
X250725461Y-112359888D01*
X250718982Y-112364000D01*
X250713557Y-112369777D01*
X250672357Y-112413651D01*
X250669602Y-112416493D01*
X250649865Y-112436230D01*
X250647385Y-112439427D01*
X250639682Y-112448447D01*
X250609414Y-112480679D01*
X250605595Y-112487625D01*
X250605593Y-112487628D01*
X250599652Y-112498434D01*
X250588801Y-112514953D01*
X250576386Y-112530959D01*
X250573241Y-112538228D01*
X250573238Y-112538232D01*
X250558826Y-112571537D01*
X250553609Y-112582187D01*
X250532305Y-112620940D01*
X250530334Y-112628615D01*
X250530334Y-112628616D01*
X250527267Y-112640562D01*
X250520863Y-112659266D01*
X250515967Y-112670579D01*
X250515966Y-112670583D01*
X250512819Y-112677855D01*
X250511579Y-112685682D01*
X250511110Y-112687297D01*
X250472896Y-112747131D01*
X250442867Y-112766566D01*
X250309965Y-112827834D01*
X250306056Y-112830397D01*
X250105242Y-112962056D01*
X250105237Y-112962060D01*
X250101329Y-112964622D01*
X250008265Y-113047684D01*
X249925417Y-113121629D01*
X249915202Y-113130746D01*
X249755675Y-113322557D01*
X249626252Y-113535840D01*
X249624443Y-113540154D01*
X249624442Y-113540156D01*
X249577840Y-113651290D01*
X249529775Y-113765911D01*
X249528624Y-113770443D01*
X249528623Y-113770446D01*
X249519483Y-113806435D01*
X249468365Y-114007714D01*
X249443370Y-114255939D01*
X247805933Y-114255939D01*
X247790718Y-114051206D01*
X247735659Y-113807878D01*
X247731633Y-113797524D01*
X247646931Y-113579714D01*
X247646930Y-113579712D01*
X247645238Y-113575361D01*
X247521442Y-113358763D01*
X247366990Y-113162842D01*
X247185276Y-112991902D01*
X247008580Y-112869324D01*
X246984130Y-112852362D01*
X246984125Y-112852359D01*
X246980292Y-112849700D01*
X246976110Y-112847637D01*
X246976102Y-112847633D01*
X246760728Y-112741423D01*
X246760725Y-112741422D01*
X246756540Y-112739358D01*
X246744248Y-112735423D01*
X246705332Y-112722966D01*
X246518937Y-112663300D01*
X246514330Y-112662550D01*
X246514327Y-112662549D01*
X246277312Y-112623949D01*
X246277313Y-112623949D01*
X246272701Y-112623198D01*
X246151753Y-112621615D01*
X246027920Y-112619994D01*
X246027917Y-112619994D01*
X246023243Y-112619933D01*
X245776042Y-112653575D01*
X245771556Y-112654883D01*
X245771554Y-112654883D01*
X245742677Y-112663300D01*
X245536528Y-112723387D01*
X245532275Y-112725347D01*
X245532274Y-112725348D01*
X245501884Y-112739358D01*
X245309965Y-112827834D01*
X245306056Y-112830397D01*
X245105242Y-112962056D01*
X245105237Y-112962060D01*
X245101329Y-112964622D01*
X245008265Y-113047684D01*
X244925417Y-113121629D01*
X244915202Y-113130746D01*
X244755675Y-113322557D01*
X244626252Y-113535840D01*
X244624443Y-113540154D01*
X244624442Y-113540156D01*
X244577840Y-113651290D01*
X244529775Y-113765911D01*
X244528624Y-113770443D01*
X244528623Y-113770446D01*
X244519483Y-113806435D01*
X244468365Y-114007714D01*
X244443370Y-114255939D01*
X242805933Y-114255939D01*
X242790718Y-114051206D01*
X242735659Y-113807878D01*
X242731633Y-113797524D01*
X242646931Y-113579714D01*
X242646930Y-113579712D01*
X242645238Y-113575361D01*
X242521442Y-113358763D01*
X242366990Y-113162842D01*
X242185276Y-112991902D01*
X242008580Y-112869324D01*
X241984130Y-112852362D01*
X241984125Y-112852359D01*
X241980292Y-112849700D01*
X241976110Y-112847637D01*
X241976102Y-112847633D01*
X241760728Y-112741423D01*
X241760725Y-112741422D01*
X241756540Y-112739358D01*
X241744248Y-112735423D01*
X241705332Y-112722966D01*
X241518937Y-112663300D01*
X241514330Y-112662550D01*
X241514327Y-112662549D01*
X241277312Y-112623949D01*
X241277313Y-112623949D01*
X241272701Y-112623198D01*
X241151753Y-112621615D01*
X241027920Y-112619994D01*
X241027917Y-112619994D01*
X241023243Y-112619933D01*
X240776042Y-112653575D01*
X240537492Y-112723106D01*
X240466497Y-112722966D01*
X240413140Y-112691235D01*
X238709000Y-110987095D01*
X249273001Y-110987095D01*
X249273338Y-110993614D01*
X249283257Y-111089206D01*
X249286149Y-111102600D01*
X249337588Y-111256784D01*
X249343761Y-111269962D01*
X249429063Y-111407807D01*
X249438099Y-111419208D01*
X249552829Y-111533739D01*
X249564240Y-111542751D01*
X249702243Y-111627816D01*
X249715424Y-111633963D01*
X249869710Y-111685138D01*
X249883086Y-111688005D01*
X249977438Y-111697672D01*
X249983854Y-111698000D01*
X250021385Y-111698000D01*
X250036624Y-111693525D01*
X250037829Y-111692135D01*
X250039500Y-111684452D01*
X250039500Y-110762115D01*
X250035025Y-110746876D01*
X250033635Y-110745671D01*
X250025952Y-110744000D01*
X249291116Y-110744000D01*
X249275877Y-110748475D01*
X249274672Y-110749865D01*
X249273001Y-110757548D01*
X249273001Y-110987095D01*
X238709000Y-110987095D01*
X237939790Y-110217885D01*
X249273000Y-110217885D01*
X249277475Y-110233124D01*
X249278865Y-110234329D01*
X249286548Y-110236000D01*
X250021385Y-110236000D01*
X250036624Y-110231525D01*
X250037829Y-110230135D01*
X250039500Y-110222452D01*
X250039500Y-109300116D01*
X250035025Y-109284877D01*
X250033635Y-109283672D01*
X250025952Y-109282001D01*
X249983905Y-109282001D01*
X249977386Y-109282338D01*
X249881794Y-109292257D01*
X249868400Y-109295149D01*
X249714216Y-109346588D01*
X249701038Y-109352761D01*
X249563193Y-109438063D01*
X249551792Y-109447099D01*
X249437261Y-109561829D01*
X249428249Y-109573240D01*
X249343184Y-109711243D01*
X249337037Y-109724424D01*
X249285862Y-109878710D01*
X249282995Y-109892086D01*
X249273328Y-109986438D01*
X249273000Y-109992855D01*
X249273000Y-110217885D01*
X237939790Y-110217885D01*
X236128405Y-108406500D01*
X236094379Y-108344188D01*
X236091500Y-108317405D01*
X236091500Y-104127091D01*
X236111502Y-104058970D01*
X236165158Y-104012477D01*
X236235432Y-104002373D01*
X236243697Y-104003844D01*
X236372056Y-104031128D01*
X236372061Y-104031128D01*
X236378513Y-104032500D01*
X236569487Y-104032500D01*
X236575939Y-104031128D01*
X236575944Y-104031128D01*
X236663687Y-104012477D01*
X236756288Y-103992794D01*
X236856500Y-103948177D01*
X236924722Y-103917803D01*
X236924724Y-103917802D01*
X236930752Y-103915118D01*
X237085253Y-103802866D01*
X237213040Y-103660944D01*
X237308527Y-103495556D01*
X237367542Y-103313928D01*
X237387504Y-103124000D01*
X237367542Y-102934072D01*
X237308527Y-102752444D01*
X237213040Y-102587056D01*
X237139863Y-102505785D01*
X237109147Y-102441779D01*
X237107500Y-102421476D01*
X237107500Y-80215134D01*
X237730500Y-80215134D01*
X237737255Y-80277316D01*
X237788385Y-80413705D01*
X237875739Y-80530261D01*
X237992295Y-80617615D01*
X238128684Y-80668745D01*
X238190866Y-80675500D01*
X241287134Y-80675500D01*
X241349316Y-80668745D01*
X241485705Y-80617615D01*
X241602261Y-80530261D01*
X241689615Y-80413705D01*
X241740745Y-80277316D01*
X241747500Y-80215134D01*
X241747500Y-71618866D01*
X241740745Y-71556684D01*
X241689615Y-71420295D01*
X241602261Y-71303739D01*
X241485705Y-71216385D01*
X241349316Y-71165255D01*
X241287134Y-71158500D01*
X238190866Y-71158500D01*
X238128684Y-71165255D01*
X237992295Y-71216385D01*
X237875739Y-71303739D01*
X237788385Y-71420295D01*
X237737255Y-71556684D01*
X237730500Y-71618866D01*
X237730500Y-80215134D01*
X237107500Y-80215134D01*
X237107500Y-70418594D01*
X237127502Y-70350473D01*
X237144405Y-70329499D01*
X238898247Y-68575657D01*
X238906537Y-68568113D01*
X238913018Y-68564000D01*
X238959659Y-68514332D01*
X238962413Y-68511491D01*
X238982135Y-68491769D01*
X238984619Y-68488567D01*
X238992317Y-68479555D01*
X239017161Y-68453098D01*
X239022586Y-68447321D01*
X239032347Y-68429566D01*
X239043198Y-68413047D01*
X239055614Y-68397041D01*
X239073174Y-68356463D01*
X239078391Y-68345813D01*
X239099695Y-68307060D01*
X239104733Y-68287437D01*
X239111137Y-68268734D01*
X239116033Y-68257420D01*
X239116033Y-68257419D01*
X239119181Y-68250145D01*
X239120420Y-68242322D01*
X239120423Y-68242312D01*
X239126099Y-68206476D01*
X239128505Y-68194856D01*
X239137528Y-68159711D01*
X239137528Y-68159710D01*
X239139500Y-68152030D01*
X239139500Y-68131776D01*
X239141051Y-68112065D01*
X239142980Y-68099886D01*
X239144220Y-68092057D01*
X239140059Y-68048038D01*
X239139500Y-68036181D01*
X239139500Y-64009867D01*
X239159502Y-63941746D01*
X239213158Y-63895253D01*
X239283432Y-63885149D01*
X239348012Y-63914643D01*
X239386497Y-63974713D01*
X239396107Y-64007790D01*
X239402352Y-64022221D01*
X239478911Y-64151678D01*
X239488551Y-64164104D01*
X239594896Y-64270449D01*
X239607322Y-64280089D01*
X239736779Y-64356648D01*
X239751210Y-64362893D01*
X239885605Y-64401939D01*
X239899706Y-64401899D01*
X239903000Y-64394630D01*
X239903000Y-61465122D01*
X239899027Y-61451591D01*
X239891129Y-61450456D01*
X239751210Y-61491107D01*
X239736779Y-61497352D01*
X239607322Y-61573911D01*
X239594896Y-61583551D01*
X239488551Y-61689896D01*
X239478911Y-61702322D01*
X239402352Y-61831779D01*
X239396107Y-61846210D01*
X239386497Y-61879287D01*
X239348283Y-61939122D01*
X239283787Y-61968799D01*
X239213484Y-61958895D01*
X239159697Y-61912555D01*
X239139500Y-61844133D01*
X239139500Y-60530768D01*
X239140027Y-60519585D01*
X239141702Y-60512092D01*
X239139562Y-60444001D01*
X239139500Y-60440044D01*
X239139500Y-60412144D01*
X239138996Y-60408153D01*
X239138063Y-60396311D01*
X239136923Y-60360036D01*
X239136674Y-60352111D01*
X239134462Y-60344497D01*
X239134461Y-60344492D01*
X239131023Y-60332659D01*
X239127012Y-60313295D01*
X239125467Y-60301064D01*
X239124474Y-60293203D01*
X239121557Y-60285836D01*
X239121556Y-60285831D01*
X239108198Y-60252092D01*
X239104354Y-60240865D01*
X239101336Y-60230478D01*
X239092018Y-60198407D01*
X239081707Y-60180972D01*
X239073012Y-60163224D01*
X239065552Y-60144383D01*
X239059587Y-60136172D01*
X239039564Y-60108613D01*
X239033048Y-60098693D01*
X239014580Y-60067465D01*
X239014578Y-60067462D01*
X239010542Y-60060638D01*
X238996221Y-60046317D01*
X238983380Y-60031283D01*
X238976132Y-60021307D01*
X238971472Y-60014893D01*
X238937407Y-59986712D01*
X238928626Y-59978722D01*
X238547692Y-59597787D01*
X237909646Y-58959741D01*
X237902111Y-58951460D01*
X237898000Y-58944982D01*
X237848348Y-58898356D01*
X237845507Y-58895602D01*
X237825770Y-58875865D01*
X237822573Y-58873385D01*
X237813551Y-58865680D01*
X237787100Y-58840841D01*
X237781321Y-58835414D01*
X237774375Y-58831595D01*
X237774372Y-58831593D01*
X237763566Y-58825652D01*
X237747047Y-58814801D01*
X237746583Y-58814441D01*
X237731041Y-58802386D01*
X237723772Y-58799241D01*
X237723768Y-58799238D01*
X237690463Y-58784826D01*
X237679813Y-58779609D01*
X237641060Y-58758305D01*
X237633384Y-58756334D01*
X237626013Y-58753416D01*
X237626363Y-58752533D01*
X237591097Y-58735618D01*
X237494552Y-58663262D01*
X237478705Y-58651385D01*
X237342316Y-58600255D01*
X237280134Y-58593500D01*
X236701774Y-58593500D01*
X236633653Y-58573498D01*
X236587160Y-58519842D01*
X236577056Y-58449568D01*
X236581941Y-58428564D01*
X236603502Y-58362206D01*
X236605542Y-58355928D01*
X236606559Y-58346259D01*
X236623210Y-58187828D01*
X236650223Y-58122172D01*
X236708445Y-58081542D01*
X236748520Y-58074999D01*
X239222500Y-58074999D01*
X239290621Y-58095001D01*
X239337114Y-58148657D01*
X239348500Y-58200999D01*
X239348500Y-58868502D01*
X239348693Y-58870950D01*
X239348693Y-58870958D01*
X239350850Y-58898357D01*
X239351438Y-58905831D01*
X239397855Y-59065601D01*
X239401892Y-59072427D01*
X239478509Y-59201980D01*
X239478511Y-59201983D01*
X239482547Y-59208807D01*
X239600193Y-59326453D01*
X239607017Y-59330489D01*
X239607020Y-59330491D01*
X239714589Y-59394107D01*
X239743399Y-59411145D01*
X239751010Y-59413356D01*
X239751012Y-59413357D01*
X239785485Y-59423372D01*
X239903169Y-59457562D01*
X239909574Y-59458066D01*
X239909579Y-59458067D01*
X239938042Y-59460307D01*
X239938050Y-59460307D01*
X239940498Y-59460500D01*
X240373502Y-59460500D01*
X240375950Y-59460307D01*
X240375958Y-59460307D01*
X240404421Y-59458067D01*
X240404426Y-59458066D01*
X240410831Y-59457562D01*
X240528515Y-59423372D01*
X240562988Y-59413357D01*
X240562990Y-59413356D01*
X240570601Y-59411145D01*
X240620979Y-59381352D01*
X240689794Y-59363893D01*
X240757125Y-59386410D01*
X240801594Y-59441755D01*
X240807158Y-59458473D01*
X240807532Y-59459930D01*
X240808526Y-59467797D01*
X240811445Y-59475168D01*
X240811445Y-59475170D01*
X240824804Y-59508912D01*
X240828649Y-59520142D01*
X240837778Y-59551566D01*
X240840982Y-59562593D01*
X240845015Y-59569412D01*
X240845017Y-59569417D01*
X240851293Y-59580028D01*
X240859988Y-59597776D01*
X240867448Y-59616617D01*
X240872110Y-59623033D01*
X240872110Y-59623034D01*
X240893436Y-59652387D01*
X240899952Y-59662307D01*
X240922458Y-59700362D01*
X240936779Y-59714683D01*
X240949619Y-59729716D01*
X240961528Y-59746107D01*
X240994868Y-59773688D01*
X240995605Y-59774298D01*
X241004384Y-59782288D01*
X242467147Y-61245051D01*
X242501173Y-61307363D01*
X242496108Y-61378178D01*
X242453561Y-61435014D01*
X242413205Y-61455143D01*
X242291012Y-61490643D01*
X242291010Y-61490644D01*
X242283399Y-61492855D01*
X242140193Y-61577547D01*
X242137511Y-61580229D01*
X242073139Y-61605502D01*
X242003516Y-61591600D01*
X241987688Y-61581428D01*
X241983807Y-61577547D01*
X241840601Y-61492855D01*
X241832990Y-61490644D01*
X241832988Y-61490643D01*
X241780769Y-61475472D01*
X241680831Y-61446438D01*
X241674426Y-61445934D01*
X241674421Y-61445933D01*
X241645958Y-61443693D01*
X241645950Y-61443693D01*
X241643502Y-61443500D01*
X241210498Y-61443500D01*
X241208050Y-61443693D01*
X241208042Y-61443693D01*
X241179579Y-61445933D01*
X241179574Y-61445934D01*
X241173169Y-61446438D01*
X241073231Y-61475472D01*
X241021012Y-61490643D01*
X241021010Y-61490644D01*
X241013399Y-61492855D01*
X240870193Y-61577547D01*
X240867253Y-61580487D01*
X240802729Y-61605821D01*
X240733106Y-61591920D01*
X240714360Y-61579871D01*
X240706677Y-61573911D01*
X240577221Y-61497352D01*
X240562790Y-61491107D01*
X240428395Y-61452061D01*
X240414294Y-61452101D01*
X240411000Y-61459370D01*
X240411000Y-64388878D01*
X240414973Y-64402409D01*
X240422871Y-64403544D01*
X240562790Y-64362893D01*
X240577221Y-64356648D01*
X240654571Y-64310904D01*
X240723388Y-64293445D01*
X240790719Y-64315962D01*
X240835188Y-64371307D01*
X240837760Y-64378645D01*
X240838770Y-64380980D01*
X240840982Y-64388593D01*
X240845015Y-64395412D01*
X240845017Y-64395417D01*
X240851293Y-64406028D01*
X240859988Y-64423776D01*
X240867448Y-64442617D01*
X240872110Y-64449033D01*
X240872110Y-64449034D01*
X240893436Y-64478387D01*
X240899952Y-64488307D01*
X240922458Y-64526362D01*
X240936779Y-64540683D01*
X240949619Y-64555716D01*
X240961528Y-64572107D01*
X240980738Y-64587999D01*
X240995605Y-64600298D01*
X241004384Y-64608288D01*
X242320343Y-65924247D01*
X242327887Y-65932537D01*
X242332000Y-65939018D01*
X242337777Y-65944443D01*
X242381667Y-65985658D01*
X242384509Y-65988413D01*
X242404230Y-66008134D01*
X242407425Y-66010612D01*
X242416447Y-66018318D01*
X242448679Y-66048586D01*
X242455628Y-66052406D01*
X242466432Y-66058346D01*
X242482956Y-66069199D01*
X242498959Y-66081613D01*
X242539543Y-66099176D01*
X242550173Y-66104383D01*
X242588940Y-66125695D01*
X242596617Y-66127666D01*
X242596622Y-66127668D01*
X242608558Y-66130732D01*
X242627266Y-66137137D01*
X242645855Y-66145181D01*
X242653680Y-66146420D01*
X242653682Y-66146421D01*
X242689519Y-66152097D01*
X242701140Y-66154504D01*
X242732959Y-66162673D01*
X242743970Y-66165500D01*
X242764231Y-66165500D01*
X242783940Y-66167051D01*
X242803943Y-66170219D01*
X242811835Y-66169473D01*
X242817062Y-66168979D01*
X242847954Y-66166059D01*
X242859811Y-66165500D01*
X245031233Y-66165500D01*
X245042416Y-66166027D01*
X245049909Y-66167702D01*
X245057835Y-66167453D01*
X245057836Y-66167453D01*
X245117986Y-66165562D01*
X245121945Y-66165500D01*
X245149856Y-66165500D01*
X245153791Y-66165003D01*
X245153856Y-66164995D01*
X245165693Y-66164062D01*
X245197951Y-66163048D01*
X245201970Y-66162922D01*
X245209889Y-66162673D01*
X245229343Y-66157021D01*
X245248700Y-66153013D01*
X245260930Y-66151468D01*
X245260931Y-66151468D01*
X245268797Y-66150474D01*
X245276168Y-66147555D01*
X245276170Y-66147555D01*
X245309912Y-66134196D01*
X245321142Y-66130351D01*
X245355983Y-66120229D01*
X245355984Y-66120229D01*
X245363593Y-66118018D01*
X245370412Y-66113985D01*
X245370417Y-66113983D01*
X245381028Y-66107707D01*
X245398776Y-66099012D01*
X245417617Y-66091552D01*
X245437987Y-66076753D01*
X245453387Y-66065564D01*
X245463307Y-66059048D01*
X245494535Y-66040580D01*
X245494538Y-66040578D01*
X245501362Y-66036542D01*
X245515683Y-66022221D01*
X245530717Y-66009380D01*
X245532432Y-66008134D01*
X245547107Y-65997472D01*
X245575298Y-65963395D01*
X245583288Y-65954616D01*
X248446753Y-63091152D01*
X248455039Y-63083612D01*
X248461518Y-63079500D01*
X248508144Y-63029848D01*
X248510870Y-63027035D01*
X248525159Y-63012746D01*
X248587472Y-62978724D01*
X248658288Y-62983791D01*
X248703346Y-63012750D01*
X250278595Y-64587999D01*
X250312621Y-64650311D01*
X250315500Y-64677094D01*
X250315500Y-77639862D01*
X250295498Y-77707983D01*
X250278595Y-77728957D01*
X247196643Y-80810909D01*
X247194503Y-80813571D01*
X247162399Y-80853499D01*
X247162397Y-80853502D01*
X247157450Y-80859655D01*
X247097163Y-80992251D01*
X247095891Y-81001134D01*
X247095890Y-81001137D01*
X247091594Y-81031137D01*
X247076514Y-81136437D01*
X247097163Y-81280623D01*
X247157450Y-81413219D01*
X247162397Y-81419372D01*
X247162399Y-81419375D01*
X247175791Y-81436031D01*
X247196643Y-81461965D01*
X249386035Y-83651357D01*
X249388697Y-83653497D01*
X249428625Y-83685601D01*
X249428628Y-83685603D01*
X249434781Y-83690550D01*
X249567377Y-83750837D01*
X249576260Y-83752109D01*
X249576263Y-83752110D01*
X249702674Y-83770213D01*
X249711563Y-83771486D01*
X249720452Y-83770213D01*
X249846863Y-83752110D01*
X249846866Y-83752109D01*
X249855749Y-83750837D01*
X249988345Y-83690550D01*
X249994498Y-83685603D01*
X249994501Y-83685601D01*
X250034429Y-83653497D01*
X250037091Y-83651357D01*
X254701357Y-78987091D01*
X254722209Y-78961157D01*
X254735601Y-78944501D01*
X254735603Y-78944498D01*
X254740550Y-78938345D01*
X254800837Y-78805749D01*
X254821486Y-78661563D01*
X254806406Y-78556263D01*
X254802110Y-78526263D01*
X254802109Y-78526260D01*
X254800837Y-78517377D01*
X254740550Y-78384781D01*
X254735603Y-78378628D01*
X254735601Y-78378625D01*
X254703497Y-78338697D01*
X254701357Y-78336035D01*
X252511965Y-76146643D01*
X252491080Y-76129851D01*
X252469375Y-76112399D01*
X252469372Y-76112397D01*
X252463219Y-76107450D01*
X252330623Y-76047163D01*
X252321740Y-76045891D01*
X252321737Y-76045890D01*
X252195326Y-76027787D01*
X252186437Y-76026514D01*
X252177548Y-76027787D01*
X252051137Y-76045890D01*
X252051134Y-76045891D01*
X252042251Y-76047163D01*
X251909655Y-76107450D01*
X251903502Y-76112397D01*
X251903499Y-76112399D01*
X251881794Y-76129851D01*
X251860909Y-76146643D01*
X251797595Y-76209957D01*
X251735283Y-76243983D01*
X251664468Y-76238918D01*
X251607632Y-76196371D01*
X251582821Y-76129851D01*
X251582500Y-76120862D01*
X251582500Y-64441267D01*
X251583027Y-64430084D01*
X251584702Y-64422591D01*
X251584182Y-64406028D01*
X251582562Y-64354514D01*
X251582500Y-64350555D01*
X251582500Y-64322644D01*
X251581995Y-64318644D01*
X251581062Y-64306801D01*
X251580612Y-64292463D01*
X251579673Y-64262610D01*
X251574022Y-64243158D01*
X251570014Y-64223806D01*
X251568467Y-64211563D01*
X251567474Y-64203703D01*
X251563403Y-64193420D01*
X251551200Y-64162597D01*
X251547355Y-64151370D01*
X251541395Y-64130856D01*
X251535018Y-64108907D01*
X251530984Y-64102085D01*
X251530981Y-64102079D01*
X251524706Y-64091468D01*
X251516010Y-64073718D01*
X251511472Y-64062256D01*
X251511469Y-64062251D01*
X251508552Y-64054883D01*
X251484822Y-64022221D01*
X251482573Y-64019125D01*
X251476058Y-64009207D01*
X251463809Y-63988496D01*
X251446348Y-63919680D01*
X251468863Y-63852349D01*
X251524207Y-63807878D01*
X251594807Y-63800389D01*
X251661356Y-63835260D01*
X254916817Y-67090722D01*
X257139595Y-69313500D01*
X257173621Y-69375812D01*
X257176500Y-69402595D01*
X257176500Y-125837406D01*
X257156498Y-125905527D01*
X257139595Y-125926501D01*
X251569500Y-131496595D01*
X251507188Y-131530621D01*
X251480405Y-131533500D01*
X249819600Y-131533500D01*
X249816354Y-131533837D01*
X249816350Y-131533837D01*
X249720692Y-131543762D01*
X249720688Y-131543763D01*
X249713834Y-131544474D01*
X249707298Y-131546655D01*
X249707296Y-131546655D01*
X249575194Y-131590728D01*
X249546054Y-131600450D01*
X249395652Y-131693522D01*
X249270695Y-131818697D01*
X249177885Y-131969262D01*
X249122203Y-132137139D01*
X249111500Y-132241600D01*
X249111500Y-133442400D01*
X249111837Y-133445646D01*
X249111837Y-133445650D01*
X249116864Y-133494094D01*
X249122474Y-133548166D01*
X249178450Y-133715946D01*
X249271522Y-133866348D01*
X249396697Y-133991305D01*
X249402927Y-133995145D01*
X249402928Y-133995146D01*
X249540090Y-134079694D01*
X249547262Y-134084115D01*
X249627005Y-134110564D01*
X249708611Y-134137632D01*
X249708613Y-134137632D01*
X249715139Y-134139797D01*
X249721975Y-134140497D01*
X249721978Y-134140498D01*
X249765031Y-134144909D01*
X249819600Y-134150500D01*
X250366500Y-134150500D01*
X250434621Y-134170502D01*
X250481114Y-134224158D01*
X250492500Y-134276500D01*
X250492500Y-141873026D01*
X250472498Y-141941147D01*
X250419252Y-141987452D01*
X250309965Y-142037834D01*
X250306056Y-142040397D01*
X250105242Y-142172056D01*
X250105237Y-142172060D01*
X250101329Y-142174622D01*
X250059262Y-142212168D01*
X249925417Y-142331629D01*
X249915202Y-142340746D01*
X249755675Y-142532557D01*
X249626252Y-142745840D01*
X249624443Y-142750154D01*
X249624442Y-142750156D01*
X249571462Y-142876500D01*
X249529775Y-142975911D01*
X249528624Y-142980443D01*
X249528623Y-142980446D01*
X249519483Y-143016435D01*
X249468365Y-143217714D01*
X249443370Y-143465939D01*
X249455339Y-143715131D01*
X249504010Y-143959818D01*
X249505586Y-143964209D01*
X249505589Y-143964218D01*
X249550001Y-144087915D01*
X249554195Y-144158787D01*
X249520508Y-144219587D01*
X247344500Y-146395595D01*
X247282188Y-146429621D01*
X247255405Y-146432500D01*
X230438594Y-146432500D01*
X230370473Y-146412498D01*
X230349499Y-146395595D01*
X228617798Y-144663893D01*
X228583772Y-144601581D01*
X228588837Y-144530765D01*
X228600922Y-144506635D01*
X228657850Y-144418132D01*
X228729231Y-144307157D01*
X228831697Y-144079691D01*
X228865505Y-143959818D01*
X228898146Y-143844082D01*
X228898147Y-143844079D01*
X228899416Y-143839578D01*
X228930900Y-143592092D01*
X228933207Y-143504000D01*
X228914718Y-143255206D01*
X228859659Y-143011878D01*
X228845672Y-142975911D01*
X228770931Y-142783714D01*
X228770930Y-142783711D01*
X228769238Y-142779361D01*
X228747793Y-142741839D01*
X228723285Y-142698959D01*
X228645442Y-142562763D01*
X228490990Y-142366842D01*
X228309276Y-142195902D01*
X228193160Y-142115350D01*
X228108130Y-142056362D01*
X228108125Y-142056359D01*
X228104292Y-142053700D01*
X227953772Y-141979472D01*
X227901523Y-141931404D01*
X227883500Y-141866466D01*
X227883500Y-115931772D01*
X227903502Y-115863651D01*
X227959763Y-115816004D01*
X228022920Y-115788870D01*
X228022925Y-115788867D01*
X228027218Y-115787023D01*
X228137667Y-115718675D01*
X228235391Y-115658202D01*
X228235395Y-115658199D01*
X228239364Y-115655743D01*
X228325667Y-115582682D01*
X228426209Y-115497567D01*
X228426210Y-115497566D01*
X228429775Y-115494548D01*
X228506054Y-115407569D01*
X228591187Y-115310494D01*
X228591191Y-115310489D01*
X228594269Y-115306979D01*
X228729231Y-115097157D01*
X228831697Y-114869691D01*
X228865505Y-114749818D01*
X228898146Y-114634082D01*
X228898147Y-114634079D01*
X228899416Y-114629578D01*
X228930900Y-114382092D01*
X228933207Y-114294000D01*
X228914718Y-114045206D01*
X228859659Y-113801878D01*
X228845672Y-113765911D01*
X228770931Y-113573714D01*
X228770930Y-113573712D01*
X228769238Y-113569361D01*
X228747793Y-113531839D01*
X228723285Y-113488959D01*
X228645442Y-113352763D01*
X228490990Y-113156842D01*
X228309276Y-112985902D01*
X228141229Y-112869324D01*
X228108130Y-112846362D01*
X228108125Y-112846359D01*
X228104292Y-112843700D01*
X228100110Y-112841637D01*
X228100102Y-112841633D01*
X227884728Y-112735423D01*
X227884725Y-112735422D01*
X227880540Y-112733358D01*
X227642937Y-112657300D01*
X227638330Y-112656550D01*
X227638327Y-112656549D01*
X227413869Y-112619994D01*
X227396701Y-112617198D01*
X227275753Y-112615615D01*
X227151920Y-112613994D01*
X227151917Y-112613994D01*
X227147243Y-112613933D01*
X226900042Y-112647575D01*
X226895556Y-112648883D01*
X226895554Y-112648883D01*
X226846092Y-112663300D01*
X226660528Y-112717387D01*
X226656275Y-112719347D01*
X226656274Y-112719348D01*
X226647513Y-112723387D01*
X226433965Y-112821834D01*
X226422355Y-112829446D01*
X226229242Y-112956056D01*
X226229237Y-112956060D01*
X226225329Y-112958622D01*
X226039202Y-113124746D01*
X225879675Y-113316557D01*
X225750252Y-113529840D01*
X225748443Y-113534154D01*
X225748442Y-113534156D01*
X225667661Y-113726797D01*
X225653775Y-113759911D01*
X225652624Y-113764443D01*
X225652623Y-113764446D01*
X225622138Y-113884483D01*
X225592365Y-114001714D01*
X225567370Y-114249939D01*
X225567594Y-114254606D01*
X225567594Y-114254611D01*
X225569335Y-114290851D01*
X225579339Y-114499131D01*
X225628010Y-114743818D01*
X225712314Y-114978622D01*
X225830398Y-115198386D01*
X225833193Y-115202130D01*
X225833195Y-115202132D01*
X225901694Y-115293863D01*
X225979668Y-115398283D01*
X226156844Y-115573921D01*
X226160606Y-115576679D01*
X226160609Y-115576682D01*
X226350265Y-115715742D01*
X226358036Y-115721440D01*
X226362171Y-115723616D01*
X226362175Y-115723618D01*
X226549168Y-115822000D01*
X226600140Y-115871419D01*
X226616500Y-115933508D01*
X226616500Y-141867026D01*
X226596498Y-141935147D01*
X226543252Y-141981452D01*
X226433965Y-142031834D01*
X226420904Y-142040397D01*
X226229242Y-142166056D01*
X226229237Y-142166060D01*
X226225329Y-142168622D01*
X226039202Y-142334746D01*
X225879675Y-142526557D01*
X225750252Y-142739840D01*
X225748443Y-142744154D01*
X225748442Y-142744156D01*
X225692946Y-142876500D01*
X225653775Y-142969911D01*
X225652624Y-142974443D01*
X225652623Y-142974446D01*
X225622138Y-143094483D01*
X225592365Y-143211714D01*
X225567370Y-143459939D01*
X225567594Y-143464606D01*
X225567594Y-143464611D01*
X225569335Y-143500851D01*
X225579339Y-143709131D01*
X225628010Y-143953818D01*
X225712314Y-144188622D01*
X225830398Y-144408386D01*
X225833193Y-144412130D01*
X225833195Y-144412132D01*
X225901694Y-144503863D01*
X225979668Y-144608283D01*
X226156844Y-144783921D01*
X226160606Y-144786679D01*
X226160609Y-144786682D01*
X226350265Y-144925742D01*
X226358036Y-144931440D01*
X226362171Y-144933616D01*
X226362175Y-144933618D01*
X226478009Y-144994561D01*
X226578823Y-145047602D01*
X226814354Y-145129853D01*
X226818947Y-145130725D01*
X227054867Y-145175516D01*
X227054870Y-145175516D01*
X227059456Y-145176387D01*
X227212159Y-145182387D01*
X227300618Y-145185863D01*
X227367901Y-145208524D01*
X227384766Y-145222671D01*
X229620348Y-147458253D01*
X229627888Y-147466539D01*
X229632000Y-147473018D01*
X229637777Y-147478443D01*
X229681651Y-147519643D01*
X229684493Y-147522398D01*
X229704230Y-147542135D01*
X229707427Y-147544615D01*
X229716447Y-147552318D01*
X229748679Y-147582586D01*
X229755625Y-147586405D01*
X229755628Y-147586407D01*
X229766434Y-147592348D01*
X229782953Y-147603199D01*
X229798959Y-147615614D01*
X229806228Y-147618759D01*
X229806232Y-147618762D01*
X229839537Y-147633174D01*
X229850187Y-147638391D01*
X229888940Y-147659695D01*
X229896615Y-147661666D01*
X229896616Y-147661666D01*
X229908562Y-147664733D01*
X229927267Y-147671137D01*
X229945855Y-147679181D01*
X229953678Y-147680420D01*
X229953688Y-147680423D01*
X229989524Y-147686099D01*
X230001144Y-147688505D01*
X230032959Y-147696673D01*
X230043970Y-147699500D01*
X230064224Y-147699500D01*
X230083934Y-147701051D01*
X230103943Y-147704220D01*
X230111835Y-147703474D01*
X230130580Y-147701702D01*
X230147962Y-147700059D01*
X230159819Y-147699500D01*
X247491233Y-147699500D01*
X247502416Y-147700027D01*
X247509909Y-147701702D01*
X247517835Y-147701453D01*
X247517836Y-147701453D01*
X247577986Y-147699562D01*
X247581945Y-147699500D01*
X247609856Y-147699500D01*
X247613791Y-147699003D01*
X247613856Y-147698995D01*
X247625693Y-147698062D01*
X247657951Y-147697048D01*
X247661970Y-147696922D01*
X247669889Y-147696673D01*
X247689343Y-147691021D01*
X247708700Y-147687013D01*
X247720930Y-147685468D01*
X247720931Y-147685468D01*
X247728797Y-147684474D01*
X247736168Y-147681555D01*
X247736170Y-147681555D01*
X247769912Y-147668196D01*
X247781142Y-147664351D01*
X247815983Y-147654229D01*
X247815984Y-147654229D01*
X247823593Y-147652018D01*
X247830412Y-147647985D01*
X247830417Y-147647983D01*
X247841028Y-147641707D01*
X247858776Y-147633012D01*
X247877617Y-147625552D01*
X247913387Y-147599564D01*
X247923307Y-147593048D01*
X247954535Y-147574580D01*
X247954538Y-147574578D01*
X247961362Y-147570542D01*
X247975683Y-147556221D01*
X247990717Y-147543380D01*
X248000694Y-147536131D01*
X248007107Y-147531472D01*
X248035298Y-147497395D01*
X248043288Y-147488616D01*
X250416281Y-145115623D01*
X250478593Y-145081597D01*
X250546917Y-145085763D01*
X250685937Y-145134311D01*
X250685943Y-145134313D01*
X250690354Y-145135853D01*
X250694947Y-145136725D01*
X250930867Y-145181516D01*
X250930870Y-145181516D01*
X250935456Y-145182387D01*
X251060099Y-145187284D01*
X251180075Y-145191999D01*
X251180081Y-145191999D01*
X251184743Y-145192182D01*
X251282134Y-145181516D01*
X251428087Y-145165532D01*
X251428092Y-145165531D01*
X251432740Y-145165022D01*
X251437264Y-145163831D01*
X251669476Y-145102694D01*
X251669478Y-145102693D01*
X251673999Y-145101503D01*
X251678296Y-145099657D01*
X251898924Y-145004868D01*
X251898926Y-145004867D01*
X251903218Y-145003023D01*
X252023363Y-144928675D01*
X252111391Y-144874202D01*
X252111395Y-144874199D01*
X252115364Y-144871743D01*
X252215900Y-144786633D01*
X252302209Y-144713567D01*
X252302210Y-144713566D01*
X252305775Y-144710548D01*
X252326319Y-144687122D01*
X252467187Y-144526494D01*
X252467191Y-144526489D01*
X252470269Y-144522979D01*
X252474129Y-144516979D01*
X252602703Y-144317087D01*
X252605231Y-144313157D01*
X252707697Y-144085691D01*
X252741956Y-143964218D01*
X252774146Y-143850082D01*
X252774147Y-143850079D01*
X252775416Y-143845578D01*
X252792011Y-143715131D01*
X252806502Y-143601222D01*
X252806502Y-143601218D01*
X252806900Y-143598092D01*
X252809207Y-143510000D01*
X252790718Y-143261206D01*
X252735659Y-143017878D01*
X252731633Y-143007524D01*
X252646931Y-142789714D01*
X252646930Y-142789711D01*
X252645238Y-142785361D01*
X252521442Y-142568763D01*
X252366990Y-142372842D01*
X252185276Y-142201902D01*
X252069160Y-142121350D01*
X251984130Y-142062362D01*
X251984125Y-142062359D01*
X251980292Y-142059700D01*
X251829772Y-141985472D01*
X251777523Y-141937404D01*
X251759500Y-141872466D01*
X251759500Y-134276500D01*
X251779502Y-134208379D01*
X251833158Y-134161886D01*
X251885500Y-134150500D01*
X252420400Y-134150500D01*
X252423646Y-134150163D01*
X252423650Y-134150163D01*
X252519308Y-134140238D01*
X252519312Y-134140237D01*
X252526166Y-134139526D01*
X252532702Y-134137345D01*
X252532704Y-134137345D01*
X252664806Y-134093272D01*
X252693946Y-134083550D01*
X252844348Y-133990478D01*
X252969305Y-133865303D01*
X253062115Y-133714738D01*
X253117797Y-133546861D01*
X253128500Y-133442400D01*
X253128500Y-132241600D01*
X253117526Y-132135834D01*
X253061550Y-131968054D01*
X253048418Y-131946833D01*
X253029581Y-131878381D01*
X253050743Y-131810611D01*
X253066468Y-131791436D01*
X258202253Y-126655652D01*
X258210539Y-126648112D01*
X258217018Y-126644000D01*
X258263644Y-126594348D01*
X258266398Y-126591507D01*
X258286135Y-126571770D01*
X258288615Y-126568573D01*
X258296320Y-126559551D01*
X258321159Y-126533100D01*
X258326586Y-126527321D01*
X258330405Y-126520375D01*
X258330407Y-126520372D01*
X258336348Y-126509566D01*
X258347199Y-126493047D01*
X258354758Y-126483301D01*
X258359614Y-126477041D01*
X258362759Y-126469772D01*
X258362762Y-126469768D01*
X258377174Y-126436463D01*
X258382391Y-126425813D01*
X258403695Y-126387060D01*
X258408733Y-126367437D01*
X258415137Y-126348734D01*
X258420033Y-126337420D01*
X258420033Y-126337419D01*
X258423181Y-126330145D01*
X258424420Y-126322322D01*
X258424423Y-126322312D01*
X258430099Y-126286476D01*
X258432505Y-126274856D01*
X258441528Y-126239711D01*
X258441528Y-126239710D01*
X258443500Y-126232030D01*
X258443500Y-126211776D01*
X258445051Y-126192065D01*
X258446980Y-126179886D01*
X258448220Y-126172057D01*
X258444059Y-126128038D01*
X258443500Y-126116181D01*
X258443500Y-69166767D01*
X258444027Y-69155584D01*
X258445702Y-69148091D01*
X258443562Y-69080014D01*
X258443500Y-69076055D01*
X258443500Y-69048144D01*
X258442995Y-69044144D01*
X258442062Y-69032301D01*
X258440922Y-68996029D01*
X258440673Y-68988110D01*
X258435022Y-68968658D01*
X258431014Y-68949306D01*
X258429467Y-68937063D01*
X258428474Y-68929203D01*
X258425556Y-68921832D01*
X258412200Y-68888097D01*
X258408355Y-68876870D01*
X258407721Y-68874687D01*
X258396018Y-68834407D01*
X258385707Y-68816972D01*
X258377012Y-68799224D01*
X258369552Y-68780383D01*
X258343564Y-68744613D01*
X258337048Y-68734693D01*
X258318580Y-68703465D01*
X258318578Y-68703462D01*
X258314542Y-68696638D01*
X258300221Y-68682317D01*
X258287380Y-68667283D01*
X258280131Y-68657306D01*
X258275472Y-68650893D01*
X258241395Y-68622702D01*
X258232616Y-68614712D01*
X251114405Y-61496500D01*
X251080379Y-61434188D01*
X251077500Y-61407405D01*
X251077500Y-58244768D01*
X251078027Y-58233585D01*
X251079702Y-58226092D01*
X251077562Y-58158001D01*
X251077500Y-58154044D01*
X251077500Y-58126144D01*
X251076996Y-58122153D01*
X251076063Y-58110311D01*
X251074923Y-58074036D01*
X251074674Y-58066111D01*
X251072462Y-58058497D01*
X251072461Y-58058492D01*
X251069023Y-58046659D01*
X251065012Y-58027295D01*
X251063467Y-58015064D01*
X251062474Y-58007203D01*
X251059557Y-57999836D01*
X251059556Y-57999831D01*
X251046198Y-57966092D01*
X251042354Y-57954865D01*
X251032230Y-57920022D01*
X251030018Y-57912407D01*
X251019707Y-57894972D01*
X251011012Y-57877224D01*
X251003552Y-57858383D01*
X250977564Y-57822613D01*
X250971048Y-57812693D01*
X250952580Y-57781465D01*
X250952578Y-57781462D01*
X250948542Y-57774638D01*
X250934221Y-57760317D01*
X250921380Y-57745283D01*
X250914132Y-57735307D01*
X250909472Y-57728893D01*
X250875407Y-57700712D01*
X250866626Y-57692722D01*
X250185647Y-57011742D01*
X250178113Y-57003463D01*
X250174000Y-56996982D01*
X250124348Y-56950356D01*
X250121507Y-56947602D01*
X250101770Y-56927865D01*
X250098573Y-56925385D01*
X250089551Y-56917680D01*
X250076122Y-56905069D01*
X250057321Y-56887414D01*
X250050375Y-56883595D01*
X250050372Y-56883593D01*
X250039566Y-56877652D01*
X250023047Y-56866801D01*
X250022583Y-56866441D01*
X250007041Y-56854386D01*
X249999772Y-56851241D01*
X249999768Y-56851238D01*
X249966463Y-56836826D01*
X249955813Y-56831609D01*
X249917060Y-56810305D01*
X249897437Y-56805267D01*
X249878734Y-56798863D01*
X249867420Y-56793967D01*
X249867419Y-56793967D01*
X249860145Y-56790819D01*
X249852322Y-56789580D01*
X249852312Y-56789577D01*
X249816476Y-56783901D01*
X249804856Y-56781495D01*
X249769711Y-56772472D01*
X249769710Y-56772472D01*
X249762030Y-56770500D01*
X249741776Y-56770500D01*
X249722065Y-56768949D01*
X249709886Y-56767020D01*
X249702057Y-56765780D01*
X249672786Y-56768547D01*
X249658039Y-56769941D01*
X249646181Y-56770500D01*
X245696768Y-56770500D01*
X245685585Y-56769973D01*
X245678092Y-56768298D01*
X245670166Y-56768547D01*
X245670165Y-56768547D01*
X245610002Y-56770438D01*
X245606044Y-56770500D01*
X245578144Y-56770500D01*
X245574154Y-56771004D01*
X245562320Y-56771936D01*
X245518111Y-56773326D01*
X245510497Y-56775538D01*
X245510492Y-56775539D01*
X245498659Y-56778977D01*
X245479296Y-56782988D01*
X245459203Y-56785526D01*
X245451836Y-56788443D01*
X245451831Y-56788444D01*
X245418092Y-56801802D01*
X245406865Y-56805646D01*
X245364407Y-56817982D01*
X245357581Y-56822019D01*
X245346972Y-56828293D01*
X245329224Y-56836988D01*
X245310383Y-56844448D01*
X245303967Y-56849110D01*
X245303966Y-56849110D01*
X245274613Y-56870436D01*
X245264693Y-56876952D01*
X245233465Y-56895420D01*
X245233462Y-56895422D01*
X245226638Y-56899458D01*
X245212317Y-56913779D01*
X245197284Y-56926619D01*
X245180893Y-56938528D01*
X245154516Y-56970413D01*
X245152712Y-56972593D01*
X245144722Y-56981374D01*
X244988104Y-57137991D01*
X244925792Y-57172016D01*
X244854976Y-57166951D01*
X244798141Y-57124404D01*
X244773397Y-57058779D01*
X244773067Y-57054580D01*
X244773066Y-57054576D01*
X244772562Y-57048169D01*
X244739355Y-56933868D01*
X244728357Y-56896012D01*
X244728356Y-56896010D01*
X244726145Y-56888399D01*
X244704168Y-56851238D01*
X244645491Y-56752020D01*
X244645489Y-56752017D01*
X244641453Y-56745193D01*
X244635844Y-56739584D01*
X244630989Y-56733325D01*
X244632496Y-56732156D01*
X244603379Y-56678833D01*
X244600500Y-56652050D01*
X244600500Y-54307767D01*
X244601027Y-54296584D01*
X244602702Y-54289091D01*
X244600562Y-54221014D01*
X244600500Y-54217055D01*
X244600500Y-54189144D01*
X244599995Y-54185144D01*
X244599062Y-54173301D01*
X244597922Y-54137029D01*
X244597673Y-54129110D01*
X244592022Y-54109658D01*
X244588014Y-54090306D01*
X244586467Y-54078063D01*
X244585474Y-54070203D01*
X244582556Y-54062832D01*
X244569200Y-54029097D01*
X244565355Y-54017870D01*
X244558450Y-53994105D01*
X244553018Y-53975407D01*
X244542707Y-53957972D01*
X244534012Y-53940224D01*
X244526552Y-53921383D01*
X244510069Y-53898695D01*
X244500564Y-53885613D01*
X244494048Y-53875693D01*
X244475580Y-53844465D01*
X244475578Y-53844462D01*
X244471542Y-53837638D01*
X244457221Y-53823317D01*
X244444380Y-53808283D01*
X244437131Y-53798306D01*
X244432472Y-53791893D01*
X244426368Y-53786843D01*
X244426363Y-53786838D01*
X244398402Y-53763707D01*
X244389621Y-53755717D01*
X243494404Y-52860499D01*
X243460379Y-52798187D01*
X243457500Y-52771404D01*
X243457500Y-47447856D01*
X243477502Y-47379735D01*
X243531158Y-47333242D01*
X243570496Y-47322529D01*
X243580166Y-47321526D01*
X243586702Y-47319345D01*
X243586704Y-47319345D01*
X243740998Y-47267868D01*
X243747946Y-47265550D01*
X243898348Y-47172478D01*
X244023305Y-47047303D01*
X244045357Y-47011529D01*
X244112275Y-46902968D01*
X244112276Y-46902966D01*
X244116115Y-46896738D01*
X244171797Y-46728861D01*
X244182500Y-46624400D01*
X244182500Y-45323600D01*
X244182163Y-45320350D01*
X244172238Y-45224692D01*
X244172237Y-45224688D01*
X244171526Y-45217834D01*
X244137598Y-45116138D01*
X244117868Y-45057002D01*
X244115550Y-45050054D01*
X244022478Y-44899652D01*
X243897303Y-44774695D01*
X243882166Y-44765364D01*
X243804284Y-44717357D01*
X243746738Y-44681885D01*
X243739785Y-44679579D01*
X243738904Y-44679168D01*
X243685618Y-44632252D01*
X243666156Y-44563975D01*
X243686696Y-44496015D01*
X243704529Y-44475844D01*
X243703860Y-44475173D01*
X243858435Y-44321137D01*
X243862096Y-44317489D01*
X243921594Y-44234689D01*
X243989435Y-44140277D01*
X243992453Y-44136077D01*
X244005995Y-44108678D01*
X244089136Y-43940453D01*
X244089137Y-43940451D01*
X244091430Y-43935811D01*
X244156370Y-43722069D01*
X244185529Y-43500590D01*
X244187156Y-43434000D01*
X244168852Y-43211361D01*
X244114431Y-42994702D01*
X244025354Y-42789840D01*
X243904014Y-42602277D01*
X243753670Y-42437051D01*
X243749619Y-42433852D01*
X243749615Y-42433848D01*
X243582414Y-42301800D01*
X243582410Y-42301798D01*
X243578359Y-42298598D01*
X243382789Y-42190638D01*
X243377920Y-42188914D01*
X243377916Y-42188912D01*
X243177087Y-42117795D01*
X243177083Y-42117794D01*
X243172212Y-42116069D01*
X243167119Y-42115162D01*
X243167116Y-42115161D01*
X242957373Y-42077800D01*
X242957367Y-42077799D01*
X242952284Y-42076894D01*
X242878452Y-42075992D01*
X242734081Y-42074228D01*
X242734079Y-42074228D01*
X242728911Y-42074165D01*
X242508091Y-42107955D01*
X242295756Y-42177357D01*
X242097607Y-42280507D01*
X242093474Y-42283610D01*
X242093471Y-42283612D01*
X241923100Y-42411530D01*
X241918965Y-42414635D01*
X241764629Y-42576138D01*
X241657201Y-42733621D01*
X241602293Y-42778621D01*
X241531768Y-42786792D01*
X241468021Y-42755538D01*
X241447324Y-42731054D01*
X241366822Y-42606617D01*
X241366820Y-42606614D01*
X241364014Y-42602277D01*
X241213670Y-42437051D01*
X241209619Y-42433852D01*
X241209615Y-42433848D01*
X241042414Y-42301800D01*
X241042410Y-42301798D01*
X241038359Y-42298598D01*
X240842789Y-42190638D01*
X240837920Y-42188914D01*
X240837916Y-42188912D01*
X240637087Y-42117795D01*
X240637083Y-42117794D01*
X240632212Y-42116069D01*
X240627119Y-42115162D01*
X240627116Y-42115161D01*
X240417373Y-42077800D01*
X240417367Y-42077799D01*
X240412284Y-42076894D01*
X240338452Y-42075992D01*
X240194081Y-42074228D01*
X240194079Y-42074228D01*
X240188911Y-42074165D01*
X239968091Y-42107955D01*
X239755756Y-42177357D01*
X239557607Y-42280507D01*
X239553474Y-42283610D01*
X239553471Y-42283612D01*
X239383100Y-42411530D01*
X239378965Y-42414635D01*
X239224629Y-42576138D01*
X239117201Y-42733621D01*
X239062293Y-42778621D01*
X238991768Y-42786792D01*
X238928021Y-42755538D01*
X238907324Y-42731054D01*
X238826822Y-42606617D01*
X238826820Y-42606614D01*
X238824014Y-42602277D01*
X238673670Y-42437051D01*
X238669619Y-42433852D01*
X238669615Y-42433848D01*
X238502414Y-42301800D01*
X238502410Y-42301798D01*
X238498359Y-42298598D01*
X238302789Y-42190638D01*
X238297920Y-42188914D01*
X238297916Y-42188912D01*
X238097087Y-42117795D01*
X238097083Y-42117794D01*
X238092212Y-42116069D01*
X238087119Y-42115162D01*
X238087116Y-42115161D01*
X237877373Y-42077800D01*
X237877367Y-42077799D01*
X237872284Y-42076894D01*
X237798452Y-42075992D01*
X237654081Y-42074228D01*
X237654079Y-42074228D01*
X237648911Y-42074165D01*
X237428091Y-42107955D01*
X237215756Y-42177357D01*
X237017607Y-42280507D01*
X237013474Y-42283610D01*
X237013471Y-42283612D01*
X236843100Y-42411530D01*
X236838965Y-42414635D01*
X236684629Y-42576138D01*
X236577201Y-42733621D01*
X236522293Y-42778621D01*
X236451768Y-42786792D01*
X236388021Y-42755538D01*
X236367324Y-42731054D01*
X236286822Y-42606617D01*
X236286820Y-42606614D01*
X236284014Y-42602277D01*
X236133670Y-42437051D01*
X236129619Y-42433852D01*
X236129615Y-42433848D01*
X235962414Y-42301800D01*
X235962410Y-42301798D01*
X235958359Y-42298598D01*
X235762789Y-42190638D01*
X235757920Y-42188914D01*
X235757916Y-42188912D01*
X235557087Y-42117795D01*
X235557083Y-42117794D01*
X235552212Y-42116069D01*
X235547119Y-42115162D01*
X235547116Y-42115161D01*
X235337373Y-42077800D01*
X235337367Y-42077799D01*
X235332284Y-42076894D01*
X235258452Y-42075992D01*
X235114081Y-42074228D01*
X235114079Y-42074228D01*
X235108911Y-42074165D01*
X234888091Y-42107955D01*
X234675756Y-42177357D01*
X234477607Y-42280507D01*
X234473474Y-42283610D01*
X234473471Y-42283612D01*
X234303100Y-42411530D01*
X234298965Y-42414635D01*
X234144629Y-42576138D01*
X234037204Y-42733618D01*
X234036898Y-42734066D01*
X233981987Y-42779069D01*
X233911462Y-42787240D01*
X233847715Y-42755986D01*
X233827017Y-42731501D01*
X233797062Y-42685197D01*
X233786377Y-42675995D01*
X233776812Y-42680398D01*
X233036022Y-43421188D01*
X233028408Y-43435132D01*
X233028539Y-43436965D01*
X233032790Y-43443580D01*
X233774474Y-44185264D01*
X233786484Y-44191823D01*
X233798223Y-44182855D01*
X233832022Y-44135819D01*
X233833277Y-44136721D01*
X233880391Y-44093355D01*
X233950330Y-44081148D01*
X234015767Y-44108691D01*
X234043580Y-44140513D01*
X234101287Y-44234683D01*
X234101291Y-44234688D01*
X234103987Y-44239088D01*
X234250250Y-44407938D01*
X234422126Y-44550632D01*
X234433063Y-44557023D01*
X234495445Y-44593476D01*
X234544169Y-44645114D01*
X234557240Y-44714897D01*
X234530509Y-44780669D01*
X234490055Y-44814027D01*
X234477607Y-44820507D01*
X234473474Y-44823610D01*
X234473471Y-44823612D01*
X234303100Y-44951530D01*
X234298965Y-44954635D01*
X234144629Y-45116138D01*
X234141720Y-45120403D01*
X234141714Y-45120411D01*
X234108472Y-45169142D01*
X234037204Y-45273618D01*
X234036898Y-45274066D01*
X233981987Y-45319069D01*
X233911462Y-45327240D01*
X233847715Y-45295986D01*
X233827017Y-45271501D01*
X233797062Y-45225197D01*
X233786377Y-45215995D01*
X233776812Y-45220398D01*
X233036022Y-45961188D01*
X233028408Y-45975132D01*
X233028539Y-45976965D01*
X233032790Y-45983580D01*
X233774474Y-46725264D01*
X233786484Y-46731823D01*
X233798223Y-46722855D01*
X233832022Y-46675819D01*
X233833277Y-46676721D01*
X233880391Y-46633355D01*
X233950330Y-46621148D01*
X234015767Y-46648691D01*
X234043580Y-46680513D01*
X234101287Y-46774683D01*
X234101291Y-46774688D01*
X234103987Y-46779088D01*
X234250250Y-46947938D01*
X234422126Y-47090632D01*
X234615000Y-47203338D01*
X234823692Y-47283030D01*
X234828760Y-47284061D01*
X234828763Y-47284062D01*
X234933604Y-47305392D01*
X235042597Y-47327567D01*
X235047772Y-47327757D01*
X235047774Y-47327757D01*
X235260673Y-47335564D01*
X235260677Y-47335564D01*
X235265837Y-47335753D01*
X235270957Y-47335097D01*
X235270959Y-47335097D01*
X235482288Y-47308025D01*
X235482289Y-47308025D01*
X235487416Y-47307368D01*
X235492366Y-47305883D01*
X235696429Y-47244661D01*
X235696434Y-47244659D01*
X235701384Y-47243174D01*
X235901994Y-47144896D01*
X236083860Y-47015173D01*
X236242096Y-46857489D01*
X236301594Y-46774689D01*
X236372453Y-46676077D01*
X236373776Y-46677028D01*
X236420645Y-46633857D01*
X236490580Y-46621625D01*
X236556026Y-46649144D01*
X236583875Y-46680994D01*
X236643987Y-46779088D01*
X236790250Y-46947938D01*
X236962126Y-47090632D01*
X237155000Y-47203338D01*
X237363692Y-47283030D01*
X237368760Y-47284061D01*
X237368763Y-47284062D01*
X237473604Y-47305392D01*
X237582597Y-47327567D01*
X237587772Y-47327757D01*
X237587774Y-47327757D01*
X237800673Y-47335564D01*
X237800677Y-47335564D01*
X237805837Y-47335753D01*
X237810957Y-47335097D01*
X237810959Y-47335097D01*
X238022288Y-47308025D01*
X238022289Y-47308025D01*
X238027416Y-47307368D01*
X238032366Y-47305883D01*
X238236429Y-47244661D01*
X238236434Y-47244659D01*
X238241384Y-47243174D01*
X238441994Y-47144896D01*
X238623860Y-47015173D01*
X238782096Y-46857489D01*
X238841594Y-46774689D01*
X238912453Y-46676077D01*
X238913776Y-46677028D01*
X238960645Y-46633857D01*
X239030580Y-46621625D01*
X239096026Y-46649144D01*
X239123875Y-46680994D01*
X239183987Y-46779088D01*
X239330250Y-46947938D01*
X239502126Y-47090632D01*
X239695000Y-47203338D01*
X239903692Y-47283030D01*
X239908760Y-47284061D01*
X239908763Y-47284062D01*
X240013604Y-47305392D01*
X240122597Y-47327567D01*
X240127771Y-47327757D01*
X240127773Y-47327757D01*
X240189898Y-47330035D01*
X240269650Y-47332959D01*
X240336991Y-47355443D01*
X240381487Y-47410767D01*
X240389009Y-47481364D01*
X240354127Y-47547969D01*
X236156730Y-51745365D01*
X232184500Y-55717595D01*
X232122188Y-55751621D01*
X232095405Y-55754500D01*
X229949374Y-55754500D01*
X229881253Y-55734498D01*
X229834760Y-55680842D01*
X229824656Y-55610568D01*
X229854150Y-55545988D01*
X229860201Y-55539482D01*
X229884668Y-55514973D01*
X229903305Y-55496303D01*
X229996115Y-55345738D01*
X230022564Y-55265995D01*
X230049632Y-55184389D01*
X230049632Y-55184387D01*
X230051797Y-55177861D01*
X230062500Y-55073400D01*
X230062500Y-54447600D01*
X230062163Y-54444350D01*
X230052238Y-54348692D01*
X230052237Y-54348688D01*
X230051526Y-54341834D01*
X230040161Y-54307767D01*
X229997868Y-54181002D01*
X229995550Y-54174054D01*
X229902478Y-54023652D01*
X229815891Y-53937216D01*
X229781812Y-53874934D01*
X229786815Y-53804114D01*
X229815736Y-53759025D01*
X229898134Y-53676483D01*
X229903305Y-53671303D01*
X229933114Y-53622944D01*
X229992275Y-53526968D01*
X229992276Y-53526966D01*
X229996115Y-53520738D01*
X230051797Y-53352861D01*
X230053157Y-53339593D01*
X230058091Y-53291431D01*
X230062500Y-53248400D01*
X230062500Y-52622600D01*
X230051526Y-52516834D01*
X229995550Y-52349054D01*
X229902478Y-52198652D01*
X229777303Y-52073695D01*
X229771075Y-52069856D01*
X229771070Y-52069852D01*
X229749733Y-52056700D01*
X229702240Y-52003928D01*
X229690818Y-51933856D01*
X229696017Y-51910505D01*
X229745502Y-51758206D01*
X229747542Y-51751928D01*
X229767504Y-51562000D01*
X229752317Y-51417502D01*
X229748232Y-51378635D01*
X229748232Y-51378633D01*
X229747542Y-51372072D01*
X229688527Y-51190444D01*
X229684772Y-51183939D01*
X229596341Y-51030774D01*
X229593040Y-51025056D01*
X229465253Y-50883134D01*
X229310752Y-50770882D01*
X229304724Y-50768198D01*
X229304722Y-50768197D01*
X229142319Y-50695891D01*
X229142318Y-50695891D01*
X229136288Y-50693206D01*
X229042888Y-50673353D01*
X228955944Y-50654872D01*
X228955939Y-50654872D01*
X228949487Y-50653500D01*
X228758513Y-50653500D01*
X228752061Y-50654872D01*
X228752056Y-50654872D01*
X228665113Y-50673353D01*
X228571712Y-50693206D01*
X228565682Y-50695891D01*
X228565681Y-50695891D01*
X228403278Y-50768197D01*
X228403276Y-50768198D01*
X228397248Y-50770882D01*
X228242747Y-50883134D01*
X228114960Y-51025056D01*
X228111659Y-51030774D01*
X228023229Y-51183939D01*
X228019473Y-51190444D01*
X227960458Y-51372072D01*
X227959768Y-51378633D01*
X227959768Y-51378635D01*
X227955683Y-51417502D01*
X227940496Y-51562000D01*
X227960458Y-51751928D01*
X227962498Y-51758206D01*
X228012014Y-51910600D01*
X228014042Y-51981567D01*
X227977379Y-52042365D01*
X227958489Y-52056677D01*
X227929652Y-52074522D01*
X227924479Y-52079704D01*
X227817694Y-52186675D01*
X227755411Y-52220754D01*
X227684591Y-52215751D01*
X227627719Y-52173254D01*
X227621377Y-52163961D01*
X227604478Y-52136652D01*
X227479303Y-52011695D01*
X227430427Y-51981567D01*
X227334968Y-51922725D01*
X227334966Y-51922724D01*
X227328738Y-51918885D01*
X227176949Y-51868539D01*
X227167389Y-51865368D01*
X227167387Y-51865368D01*
X227160861Y-51863203D01*
X227154025Y-51862503D01*
X227154022Y-51862502D01*
X227110969Y-51858091D01*
X227056400Y-51852500D01*
X226455600Y-51852500D01*
X226452354Y-51852837D01*
X226452350Y-51852837D01*
X226356692Y-51862762D01*
X226356688Y-51862763D01*
X226349834Y-51863474D01*
X226343293Y-51865656D01*
X226343294Y-51865656D01*
X226342403Y-51865953D01*
X226341819Y-51865974D01*
X226336555Y-51867111D01*
X226336353Y-51866174D01*
X226271454Y-51868539D01*
X226213430Y-51835525D01*
X225801652Y-51423747D01*
X225794112Y-51415461D01*
X225790000Y-51408982D01*
X225740348Y-51362356D01*
X225737507Y-51359602D01*
X225717770Y-51339865D01*
X225714573Y-51337385D01*
X225705551Y-51329680D01*
X225692116Y-51317064D01*
X225673321Y-51299414D01*
X225666375Y-51295595D01*
X225666372Y-51295593D01*
X225655566Y-51289652D01*
X225639047Y-51278801D01*
X225638583Y-51278441D01*
X225623041Y-51266386D01*
X225615772Y-51263241D01*
X225615768Y-51263238D01*
X225582463Y-51248826D01*
X225571813Y-51243609D01*
X225533060Y-51222305D01*
X225513437Y-51217267D01*
X225494734Y-51210863D01*
X225483420Y-51205967D01*
X225483419Y-51205967D01*
X225476145Y-51202819D01*
X225468322Y-51201580D01*
X225468312Y-51201577D01*
X225432476Y-51195901D01*
X225420856Y-51193495D01*
X225385711Y-51184472D01*
X225385710Y-51184472D01*
X225378030Y-51182500D01*
X225357776Y-51182500D01*
X225338065Y-51180949D01*
X225335534Y-51180548D01*
X225318057Y-51177780D01*
X225310165Y-51178526D01*
X225274039Y-51181941D01*
X225262181Y-51182500D01*
X223598763Y-51182500D01*
X223587579Y-51181973D01*
X223580091Y-51180299D01*
X223572168Y-51180548D01*
X223512033Y-51182438D01*
X223508075Y-51182500D01*
X223480144Y-51182500D01*
X223476229Y-51182995D01*
X223476225Y-51182995D01*
X223476167Y-51183003D01*
X223476138Y-51183006D01*
X223464296Y-51183939D01*
X223420110Y-51185327D01*
X223402744Y-51190372D01*
X223400658Y-51190978D01*
X223381306Y-51194986D01*
X223374235Y-51195880D01*
X223361203Y-51197526D01*
X223353834Y-51200443D01*
X223353832Y-51200444D01*
X223320097Y-51213800D01*
X223308869Y-51217645D01*
X223266407Y-51229982D01*
X223259585Y-51234016D01*
X223259579Y-51234019D01*
X223248968Y-51240294D01*
X223231218Y-51248990D01*
X223219756Y-51253528D01*
X223219751Y-51253531D01*
X223212383Y-51256448D01*
X223194970Y-51269099D01*
X223176625Y-51282427D01*
X223166707Y-51288943D01*
X223155463Y-51295593D01*
X223128637Y-51311458D01*
X223114313Y-51325782D01*
X223099281Y-51338621D01*
X223082893Y-51350528D01*
X223059641Y-51378635D01*
X223054712Y-51384593D01*
X223046722Y-51393373D01*
X219675247Y-54764848D01*
X219666961Y-54772388D01*
X219660482Y-54776500D01*
X219655057Y-54782277D01*
X219613857Y-54826151D01*
X219611102Y-54828993D01*
X219591365Y-54848730D01*
X219588885Y-54851927D01*
X219581182Y-54860947D01*
X219550914Y-54893179D01*
X219547095Y-54900125D01*
X219547093Y-54900128D01*
X219541152Y-54910934D01*
X219530301Y-54927453D01*
X219517886Y-54943459D01*
X219514741Y-54950728D01*
X219514738Y-54950732D01*
X219500326Y-54984037D01*
X219495109Y-54994687D01*
X219473805Y-55033440D01*
X219471834Y-55041115D01*
X219471834Y-55041116D01*
X219468767Y-55053062D01*
X219462363Y-55071766D01*
X219454319Y-55090355D01*
X219453080Y-55098178D01*
X219453077Y-55098188D01*
X219447401Y-55134024D01*
X219444995Y-55145644D01*
X219434000Y-55188470D01*
X219434000Y-55208724D01*
X219432449Y-55228434D01*
X219429280Y-55248443D01*
X219430026Y-55256335D01*
X219433441Y-55292461D01*
X219434000Y-55304319D01*
X219434000Y-55713366D01*
X219413998Y-55781487D01*
X219374304Y-55820509D01*
X219330652Y-55847522D01*
X219205695Y-55972697D01*
X219201855Y-55978927D01*
X219201854Y-55978928D01*
X219145761Y-56069928D01*
X219112885Y-56123262D01*
X219110581Y-56130209D01*
X219083096Y-56213075D01*
X219057203Y-56291139D01*
X219056503Y-56297975D01*
X219056502Y-56297978D01*
X219055191Y-56310772D01*
X219046500Y-56395600D01*
X219046500Y-57396400D01*
X219057474Y-57502166D01*
X219113450Y-57669946D01*
X219206522Y-57820348D01*
X219211704Y-57825521D01*
X219216251Y-57831258D01*
X219214449Y-57832686D01*
X219243191Y-57885226D01*
X219238181Y-57956045D01*
X219214458Y-57993024D01*
X219215404Y-57993771D01*
X219210866Y-57999517D01*
X219205695Y-58004697D01*
X219201855Y-58010927D01*
X219201854Y-58010928D01*
X219124215Y-58136882D01*
X219112885Y-58155262D01*
X219083036Y-58245255D01*
X219042606Y-58303616D01*
X219009822Y-58322742D01*
X219002079Y-58325808D01*
X218990865Y-58329646D01*
X218948407Y-58341982D01*
X218941581Y-58346019D01*
X218930972Y-58352293D01*
X218913224Y-58360988D01*
X218894383Y-58368448D01*
X218887967Y-58373110D01*
X218887966Y-58373110D01*
X218858613Y-58394436D01*
X218848693Y-58400952D01*
X218817465Y-58419420D01*
X218817462Y-58419422D01*
X218810638Y-58423458D01*
X218796317Y-58437779D01*
X218781284Y-58450619D01*
X218764893Y-58462528D01*
X218759843Y-58468632D01*
X218759838Y-58468637D01*
X218736707Y-58496598D01*
X218728717Y-58505379D01*
X217793742Y-59440353D01*
X217785463Y-59447887D01*
X217778982Y-59452000D01*
X217739081Y-59494491D01*
X217732357Y-59501651D01*
X217729602Y-59504493D01*
X217709865Y-59524230D01*
X217707385Y-59527427D01*
X217699682Y-59536447D01*
X217669414Y-59568679D01*
X217665595Y-59575625D01*
X217665593Y-59575628D01*
X217659652Y-59586434D01*
X217648801Y-59602953D01*
X217636386Y-59618959D01*
X217633241Y-59626228D01*
X217633238Y-59626232D01*
X217618826Y-59659537D01*
X217613609Y-59670187D01*
X217592305Y-59708940D01*
X217590334Y-59716615D01*
X217590334Y-59716616D01*
X217587267Y-59728562D01*
X217580863Y-59747266D01*
X217572819Y-59765855D01*
X217571580Y-59773678D01*
X217571577Y-59773688D01*
X217565901Y-59809524D01*
X217563495Y-59821144D01*
X217552500Y-59863970D01*
X217552500Y-59884224D01*
X217550949Y-59903934D01*
X217547780Y-59923943D01*
X207518000Y-59923943D01*
X207518000Y-45940695D01*
X223681251Y-45940695D01*
X223681548Y-45945848D01*
X223681548Y-45945851D01*
X223683910Y-45986812D01*
X223694110Y-46163715D01*
X223695247Y-46168761D01*
X223695248Y-46168767D01*
X223716275Y-46262069D01*
X223743222Y-46381639D01*
X223827266Y-46588616D01*
X223878942Y-46672944D01*
X223941291Y-46774688D01*
X223943987Y-46779088D01*
X224090250Y-46947938D01*
X224262126Y-47090632D01*
X224455000Y-47203338D01*
X224663692Y-47283030D01*
X224668760Y-47284061D01*
X224668763Y-47284062D01*
X224773604Y-47305392D01*
X224882597Y-47327567D01*
X224887772Y-47327757D01*
X224887774Y-47327757D01*
X225100673Y-47335564D01*
X225100677Y-47335564D01*
X225105837Y-47335753D01*
X225110957Y-47335097D01*
X225110959Y-47335097D01*
X225322288Y-47308025D01*
X225322289Y-47308025D01*
X225327416Y-47307368D01*
X225332366Y-47305883D01*
X225536429Y-47244661D01*
X225536434Y-47244659D01*
X225541384Y-47243174D01*
X225741994Y-47144896D01*
X225923860Y-47015173D01*
X226082096Y-46857489D01*
X226141594Y-46774689D01*
X226212453Y-46676077D01*
X226213776Y-46677028D01*
X226260645Y-46633857D01*
X226330580Y-46621625D01*
X226396026Y-46649144D01*
X226423875Y-46680994D01*
X226483987Y-46779088D01*
X226630250Y-46947938D01*
X226802126Y-47090632D01*
X226995000Y-47203338D01*
X227203692Y-47283030D01*
X227208760Y-47284061D01*
X227208763Y-47284062D01*
X227313604Y-47305392D01*
X227422597Y-47327567D01*
X227427772Y-47327757D01*
X227427774Y-47327757D01*
X227640673Y-47335564D01*
X227640677Y-47335564D01*
X227645837Y-47335753D01*
X227650957Y-47335097D01*
X227650959Y-47335097D01*
X227862288Y-47308025D01*
X227862289Y-47308025D01*
X227867416Y-47307368D01*
X227872366Y-47305883D01*
X228076429Y-47244661D01*
X228076434Y-47244659D01*
X228081384Y-47243174D01*
X228281994Y-47144896D01*
X228463860Y-47015173D01*
X228622096Y-46857489D01*
X228681594Y-46774689D01*
X228752453Y-46676077D01*
X228753776Y-46677028D01*
X228800645Y-46633857D01*
X228870580Y-46621625D01*
X228936026Y-46649144D01*
X228963875Y-46680994D01*
X229023987Y-46779088D01*
X229170250Y-46947938D01*
X229342126Y-47090632D01*
X229535000Y-47203338D01*
X229743692Y-47283030D01*
X229748760Y-47284061D01*
X229748763Y-47284062D01*
X229853604Y-47305392D01*
X229962597Y-47327567D01*
X229967772Y-47327757D01*
X229967774Y-47327757D01*
X230180673Y-47335564D01*
X230180677Y-47335564D01*
X230185837Y-47335753D01*
X230190957Y-47335097D01*
X230190959Y-47335097D01*
X230402288Y-47308025D01*
X230402289Y-47308025D01*
X230407416Y-47307368D01*
X230412366Y-47305883D01*
X230616429Y-47244661D01*
X230616434Y-47244659D01*
X230621384Y-47243174D01*
X230821994Y-47144896D01*
X230886544Y-47098853D01*
X231903977Y-47098853D01*
X231909258Y-47105907D01*
X232070756Y-47200279D01*
X232080042Y-47204729D01*
X232279001Y-47280703D01*
X232288899Y-47283579D01*
X232497595Y-47326038D01*
X232507823Y-47327257D01*
X232720650Y-47335062D01*
X232730936Y-47334595D01*
X232942185Y-47307534D01*
X232952262Y-47305392D01*
X233156255Y-47244191D01*
X233165842Y-47240433D01*
X233357098Y-47146738D01*
X233365944Y-47141465D01*
X233413247Y-47107723D01*
X233421648Y-47097023D01*
X233414660Y-47083870D01*
X232676812Y-46346022D01*
X232662868Y-46338408D01*
X232661035Y-46338539D01*
X232654420Y-46342790D01*
X231910737Y-47086473D01*
X231903977Y-47098853D01*
X230886544Y-47098853D01*
X231003860Y-47015173D01*
X231162096Y-46857489D01*
X231221594Y-46774689D01*
X231292453Y-46676077D01*
X231293640Y-46676930D01*
X231340960Y-46633362D01*
X231410897Y-46621145D01*
X231476338Y-46648678D01*
X231504166Y-46680512D01*
X231530459Y-46723419D01*
X231540916Y-46732880D01*
X231549694Y-46729096D01*
X232291978Y-45986812D01*
X232299592Y-45972868D01*
X232299461Y-45971035D01*
X232295210Y-45964420D01*
X231553849Y-45223059D01*
X231542313Y-45216759D01*
X231530031Y-45226382D01*
X231497499Y-45274072D01*
X231442587Y-45319075D01*
X231372063Y-45327246D01*
X231308316Y-45295992D01*
X231287618Y-45271508D01*
X231206822Y-45146617D01*
X231206820Y-45146614D01*
X231204014Y-45142277D01*
X231053670Y-44977051D01*
X231049619Y-44973852D01*
X231049615Y-44973848D01*
X230882414Y-44841800D01*
X230882410Y-44841798D01*
X230878359Y-44838598D01*
X230837053Y-44815796D01*
X230787084Y-44765364D01*
X230772312Y-44695921D01*
X230797428Y-44629516D01*
X230824780Y-44602909D01*
X230886544Y-44558853D01*
X231903977Y-44558853D01*
X231909258Y-44565907D01*
X231956479Y-44593501D01*
X232005203Y-44645139D01*
X232018274Y-44714922D01*
X231991543Y-44780694D01*
X231951087Y-44814053D01*
X231942466Y-44818541D01*
X231933734Y-44824039D01*
X231913677Y-44839099D01*
X231905223Y-44850427D01*
X231911968Y-44862758D01*
X232651188Y-45601978D01*
X232665132Y-45609592D01*
X232666965Y-45609461D01*
X232673580Y-45605210D01*
X233417389Y-44861401D01*
X233424410Y-44848544D01*
X233417611Y-44839213D01*
X233413559Y-44836521D01*
X233376116Y-44815852D01*
X233326145Y-44765420D01*
X233311373Y-44695977D01*
X233336489Y-44629572D01*
X233363840Y-44602965D01*
X233413247Y-44567723D01*
X233421648Y-44557023D01*
X233414660Y-44543870D01*
X232676812Y-43806022D01*
X232662868Y-43798408D01*
X232661035Y-43798539D01*
X232654420Y-43802790D01*
X231910737Y-44546473D01*
X231903977Y-44558853D01*
X230886544Y-44558853D01*
X230889110Y-44557023D01*
X231003860Y-44475173D01*
X231162096Y-44317489D01*
X231221594Y-44234689D01*
X231292453Y-44136077D01*
X231293640Y-44136930D01*
X231340960Y-44093362D01*
X231410897Y-44081145D01*
X231476338Y-44108678D01*
X231504166Y-44140512D01*
X231530459Y-44183419D01*
X231540916Y-44192880D01*
X231549694Y-44189096D01*
X232291978Y-43446812D01*
X232299592Y-43432868D01*
X232299461Y-43431035D01*
X232295210Y-43424420D01*
X231553849Y-42683059D01*
X231542313Y-42676759D01*
X231530031Y-42686382D01*
X231497499Y-42734072D01*
X231442587Y-42779075D01*
X231372063Y-42787246D01*
X231308316Y-42755992D01*
X231287618Y-42731508D01*
X231206822Y-42606617D01*
X231206820Y-42606614D01*
X231204014Y-42602277D01*
X231053670Y-42437051D01*
X231049619Y-42433852D01*
X231049615Y-42433848D01*
X230893338Y-42310427D01*
X231905223Y-42310427D01*
X231911968Y-42322758D01*
X232651188Y-43061978D01*
X232665132Y-43069592D01*
X232666965Y-43069461D01*
X232673580Y-43065210D01*
X233417389Y-42321401D01*
X233424410Y-42308544D01*
X233417611Y-42299213D01*
X233413554Y-42296518D01*
X233227117Y-42193599D01*
X233217705Y-42189369D01*
X233016959Y-42118280D01*
X233006989Y-42115646D01*
X232797327Y-42078301D01*
X232787073Y-42077331D01*
X232574116Y-42074728D01*
X232563832Y-42075448D01*
X232353321Y-42107661D01*
X232343293Y-42110050D01*
X232140868Y-42176212D01*
X232131359Y-42180209D01*
X231942466Y-42278540D01*
X231933734Y-42284039D01*
X231913677Y-42299099D01*
X231905223Y-42310427D01*
X230893338Y-42310427D01*
X230882414Y-42301800D01*
X230882410Y-42301798D01*
X230878359Y-42298598D01*
X230682789Y-42190638D01*
X230677920Y-42188914D01*
X230677916Y-42188912D01*
X230477087Y-42117795D01*
X230477083Y-42117794D01*
X230472212Y-42116069D01*
X230467119Y-42115162D01*
X230467116Y-42115161D01*
X230257373Y-42077800D01*
X230257367Y-42077799D01*
X230252284Y-42076894D01*
X230178452Y-42075992D01*
X230034081Y-42074228D01*
X230034079Y-42074228D01*
X230028911Y-42074165D01*
X229808091Y-42107955D01*
X229595756Y-42177357D01*
X229397607Y-42280507D01*
X229393474Y-42283610D01*
X229393471Y-42283612D01*
X229223100Y-42411530D01*
X229218965Y-42414635D01*
X229064629Y-42576138D01*
X228957201Y-42733621D01*
X228902293Y-42778621D01*
X228831768Y-42786792D01*
X228768021Y-42755538D01*
X228747324Y-42731054D01*
X228666822Y-42606617D01*
X228666820Y-42606614D01*
X228664014Y-42602277D01*
X228513670Y-42437051D01*
X228509619Y-42433852D01*
X228509615Y-42433848D01*
X228342414Y-42301800D01*
X228342410Y-42301798D01*
X228338359Y-42298598D01*
X228142789Y-42190638D01*
X228137920Y-42188914D01*
X228137916Y-42188912D01*
X227937087Y-42117795D01*
X227937083Y-42117794D01*
X227932212Y-42116069D01*
X227927119Y-42115162D01*
X227927116Y-42115161D01*
X227717373Y-42077800D01*
X227717367Y-42077799D01*
X227712284Y-42076894D01*
X227638452Y-42075992D01*
X227494081Y-42074228D01*
X227494079Y-42074228D01*
X227488911Y-42074165D01*
X227268091Y-42107955D01*
X227055756Y-42177357D01*
X226857607Y-42280507D01*
X226853474Y-42283610D01*
X226853471Y-42283612D01*
X226683100Y-42411530D01*
X226678965Y-42414635D01*
X226524629Y-42576138D01*
X226417201Y-42733621D01*
X226362293Y-42778621D01*
X226291768Y-42786792D01*
X226228021Y-42755538D01*
X226207324Y-42731054D01*
X226126822Y-42606617D01*
X226126820Y-42606614D01*
X226124014Y-42602277D01*
X225973670Y-42437051D01*
X225969619Y-42433852D01*
X225969615Y-42433848D01*
X225802414Y-42301800D01*
X225802410Y-42301798D01*
X225798359Y-42298598D01*
X225602789Y-42190638D01*
X225597920Y-42188914D01*
X225597916Y-42188912D01*
X225397087Y-42117795D01*
X225397083Y-42117794D01*
X225392212Y-42116069D01*
X225387119Y-42115162D01*
X225387116Y-42115161D01*
X225177373Y-42077800D01*
X225177367Y-42077799D01*
X225172284Y-42076894D01*
X225098452Y-42075992D01*
X224954081Y-42074228D01*
X224954079Y-42074228D01*
X224948911Y-42074165D01*
X224728091Y-42107955D01*
X224515756Y-42177357D01*
X224317607Y-42280507D01*
X224313474Y-42283610D01*
X224313471Y-42283612D01*
X224143100Y-42411530D01*
X224138965Y-42414635D01*
X223984629Y-42576138D01*
X223858743Y-42760680D01*
X223764688Y-42963305D01*
X223704989Y-43178570D01*
X223681251Y-43400695D01*
X223681548Y-43405848D01*
X223681548Y-43405851D01*
X223687011Y-43500590D01*
X223694110Y-43623715D01*
X223695247Y-43628761D01*
X223695248Y-43628767D01*
X223715119Y-43716939D01*
X223743222Y-43841639D01*
X223827266Y-44048616D01*
X223870379Y-44118970D01*
X223941291Y-44234688D01*
X223943987Y-44239088D01*
X224090250Y-44407938D01*
X224262126Y-44550632D01*
X224273063Y-44557023D01*
X224335445Y-44593476D01*
X224384169Y-44645114D01*
X224397240Y-44714897D01*
X224370509Y-44780669D01*
X224330055Y-44814027D01*
X224317607Y-44820507D01*
X224313474Y-44823610D01*
X224313471Y-44823612D01*
X224143100Y-44951530D01*
X224138965Y-44954635D01*
X223984629Y-45116138D01*
X223981720Y-45120403D01*
X223981714Y-45120411D01*
X223948472Y-45169142D01*
X223858743Y-45300680D01*
X223764688Y-45503305D01*
X223704989Y-45718570D01*
X223681251Y-45940695D01*
X207518000Y-45940695D01*
X207518000Y-44127959D01*
X207538002Y-44059838D01*
X207591658Y-44013345D01*
X207661932Y-44003241D01*
X207726512Y-44032735D01*
X207733095Y-44038864D01*
X207961133Y-44266902D01*
X208246925Y-44498332D01*
X208321056Y-44546473D01*
X208522320Y-44677175D01*
X208555342Y-44698620D01*
X208558276Y-44700115D01*
X208558283Y-44700119D01*
X208836349Y-44841800D01*
X208883006Y-44865573D01*
X208990740Y-44906928D01*
X209173417Y-44977051D01*
X209226326Y-44997361D01*
X209581541Y-45092541D01*
X209774558Y-45123112D01*
X209941511Y-45149555D01*
X209941519Y-45149556D01*
X209944759Y-45150069D01*
X210312000Y-45169315D01*
X210679241Y-45150069D01*
X210682481Y-45149556D01*
X210682489Y-45149555D01*
X210849442Y-45123112D01*
X211042459Y-45092541D01*
X211397674Y-44997361D01*
X211450584Y-44977051D01*
X211633260Y-44906928D01*
X211740994Y-44865573D01*
X211787651Y-44841800D01*
X212065717Y-44700119D01*
X212065724Y-44700115D01*
X212068658Y-44698620D01*
X212101681Y-44677175D01*
X212302944Y-44546473D01*
X212377075Y-44498332D01*
X212662867Y-44266902D01*
X212922902Y-44006867D01*
X213154332Y-43721075D01*
X213297516Y-43500590D01*
X213352822Y-43415426D01*
X213352824Y-43415423D01*
X213354620Y-43412657D01*
X213363331Y-43395562D01*
X213520075Y-43087934D01*
X213521573Y-43084994D01*
X213602098Y-42875218D01*
X213652175Y-42744764D01*
X213652176Y-42744762D01*
X213653361Y-42741674D01*
X213748541Y-42386459D01*
X213781914Y-42175750D01*
X213805555Y-42026489D01*
X213805556Y-42026481D01*
X213806069Y-42023241D01*
X213825315Y-41656000D01*
X213806069Y-41288759D01*
X213748541Y-40925541D01*
X213653361Y-40570326D01*
X213521573Y-40227006D01*
X213354620Y-39899343D01*
X213154332Y-39590925D01*
X212922902Y-39305133D01*
X212694864Y-39077095D01*
X212660838Y-39014783D01*
X212665903Y-38943968D01*
X212708450Y-38887132D01*
X212774970Y-38862321D01*
X212783959Y-38862000D01*
X255338041Y-38862000D01*
X255406162Y-38882002D01*
G37*
%TD.AperFunction*%
%TD*%
M02*
