M48
; DRILL file {KiCad (6.0.0-0)} date Wednesday, November 16, 2022 at 12:40:40 AM
; FORMAT={-:-/ absolute / inch / decimal}
; #@! TF.CreationDate,2022-11-16T00:40:40-05:00
; #@! TF.GenerationSoftware,Kicad,Pcbnew,(6.0.0-0)
; #@! TF.FileFunction,Plated,1,2,PTH
FMAT,2
INCH
; #@! TA.AperFunction,Plated,PTH,ViaDrill
T1C0.0157
; #@! TA.AperFunction,Plated,PTH,ComponentDrill
T2C0.0197
; #@! TA.AperFunction,Plated,PTH,ComponentDrill
T3C0.0315
; #@! TA.AperFunction,Plated,PTH,ComponentDrill
T4C0.0394
; #@! TA.AperFunction,Plated,PTH,ComponentDrill
T5C0.0512
; #@! TA.AperFunction,Plated,PTH,ComponentDrill
T6C0.0591
; #@! TA.AperFunction,Plated,PTH,ComponentDrill
T7C0.1181
%
G90
G05
T1
X5.74Y-4.92
T2
X2.7406Y-4.78
X2.7406Y-6.31
X2.7665Y-4.7174
X2.7665Y-4.8426
X2.7665Y-6.2474
X2.7665Y-6.3726
X2.8292Y-4.6914
X2.8292Y-4.8686
X2.8292Y-6.2214
X2.8292Y-6.3986
X2.8918Y-4.7174
X2.8918Y-4.8426
X2.8918Y-6.2474
X2.8918Y-6.3726
X2.9178Y-4.78
X2.9178Y-6.31
X6.4124Y-4.78
X6.4124Y-6.31
X6.4383Y-4.7174
X6.4383Y-4.8426
X6.4383Y-6.2474
X6.4383Y-6.3726
X6.501Y-4.6914
X6.501Y-4.8686
X6.501Y-6.2214
X6.501Y-6.3986
X6.5636Y-4.7174
X6.5636Y-4.8426
X6.5636Y-6.2474
X6.5636Y-6.3726
X6.5896Y-4.78
X6.5896Y-6.31
T3
X5.3204Y-4.8596
X5.3204Y-5.1596
X5.4204Y-4.8596
X5.4204Y-5.1596
X5.5204Y-4.8596
X5.5204Y-5.1596
X5.6204Y-4.8596
X5.6204Y-5.1596
T5
X3.6763Y-6.1898
X3.8731Y-6.1898
X4.07Y-6.1898
X4.4663Y-6.1898
X4.6631Y-6.1898
X4.86Y-6.1898
X5.2692Y-6.19
X5.466Y-6.19
X5.6629Y-6.19
T6
X2.8592Y-5.0926
X2.8592Y-5.2426
T7
X2.8292Y-4.78
X2.8292Y-6.31
X6.501Y-4.78
X6.501Y-6.31
T4
G00X2.8567Y-5.6419
M15
G01X2.8567Y-5.8781
M16
G05
G00X3.3537Y-5.8611
M15
G01X3.2424Y-5.9725
M16
G05
G00X5.9885Y-5.6419
M15
G01X5.9885Y-5.8781
M16
G05
G00X6.4856Y-5.8611
M15
G01X6.3742Y-5.9724
M16
G05
T0
M30
