%TF.GenerationSoftware,KiCad,Pcbnew,(6.0.0-0)*%
%TF.CreationDate,2022-11-16T00:40:35-05:00*%
%TF.ProjectId,amplifier,616d706c-6966-4696-9572-2e6b69636164,rev?*%
%TF.SameCoordinates,Original*%
%TF.FileFunction,Copper,L2,Bot*%
%TF.FilePolarity,Positive*%
%FSLAX46Y46*%
G04 Gerber Fmt 4.6, Leading zero omitted, Abs format (unit mm)*
G04 Created by KiCad (PCBNEW (6.0.0-0)) date 2022-11-16 00:40:35*
%MOMM*%
%LPD*%
G01*
G04 APERTURE LIST*
G04 Aperture macros list*
%AMRotRect*
0 Rectangle, with rotation*
0 The origin of the aperture is its center*
0 $1 length*
0 $2 width*
0 $3 Rotation angle, in degrees counterclockwise*
0 Add horizontal line*
21,1,$1,$2,0,0,$3*%
G04 Aperture macros list end*
%TA.AperFunction,ComponentPad*%
%ADD10C,6.000000*%
%TD*%
%TA.AperFunction,ComponentPad*%
%ADD11C,0.800000*%
%TD*%
%TA.AperFunction,ComponentPad*%
%ADD12R,1.600000X1.600000*%
%TD*%
%TA.AperFunction,ComponentPad*%
%ADD13O,1.600000X1.600000*%
%TD*%
%TA.AperFunction,ComponentPad*%
%ADD14C,2.340000*%
%TD*%
%TA.AperFunction,ComponentPad*%
%ADD15R,3.000000X8.500000*%
%TD*%
%TA.AperFunction,ComponentPad*%
%ADD16RotRect,3.000000X6.500000X315.000000*%
%TD*%
%TA.AperFunction,ComponentPad*%
%ADD17C,2.500000*%
%TD*%
%TA.AperFunction,ViaPad*%
%ADD18C,0.800000*%
%TD*%
G04 APERTURE END LIST*
D10*
%TO.P,H4,1,1*%
%TO.N,GND*%
X165125000Y-121412000D03*
D11*
X167375000Y-121412000D03*
X166715990Y-123002990D03*
X165125000Y-123662000D03*
X163534010Y-123002990D03*
X162875000Y-121412000D03*
X163534010Y-119821010D03*
X165125000Y-119162000D03*
X166715990Y-119821010D03*
%TD*%
D10*
%TO.P,H3,1,1*%
%TO.N,GND*%
X71861000Y-121412000D03*
D11*
X74111000Y-121412000D03*
X73451990Y-123002990D03*
X71861000Y-123662000D03*
X70270010Y-123002990D03*
X69611000Y-121412000D03*
X70270010Y-119821010D03*
X71861000Y-119162000D03*
X73451990Y-119821010D03*
%TD*%
D10*
%TO.P,H2,1,1*%
%TO.N,GND*%
X71861000Y-160274000D03*
D11*
X74111000Y-160274000D03*
X73451990Y-161864990D03*
X71861000Y-162524000D03*
X70270010Y-161864990D03*
X69611000Y-160274000D03*
X70270010Y-158683010D03*
X71861000Y-158024000D03*
X73451990Y-158683010D03*
%TD*%
D10*
%TO.P,H1,1,1*%
%TO.N,GND*%
X165125000Y-160274000D03*
D11*
X167375000Y-160274000D03*
X166715990Y-161864990D03*
X165125000Y-162524000D03*
X163534010Y-161864990D03*
X162875000Y-160274000D03*
X163534010Y-158683010D03*
X165125000Y-158024000D03*
X166715990Y-158683010D03*
%TD*%
D12*
%TO.P,U1,1,GAIN*%
%TO.N,Net-(RV2-Pad2)*%
X135138000Y-131054000D03*
D13*
%TO.P,U1,5*%
%TO.N,Net-(C7-Pad1)*%
X142758000Y-123434000D03*
%TO.P,U1,2,-*%
%TO.N,GND*%
X137678000Y-131054000D03*
%TO.P,U1,6,V+*%
%TO.N,+12V*%
X140218000Y-123434000D03*
%TO.P,U1,3,+*%
%TO.N,Net-(C3-Pad2)*%
X140218000Y-131054000D03*
%TO.P,U1,7,BYPASS*%
%TO.N,Net-(R1-Pad1)*%
X137678000Y-123434000D03*
%TO.P,U1,4,GND*%
%TO.N,GND*%
X142758000Y-131054000D03*
%TO.P,U1,8,GAIN*%
%TO.N,Net-(C6-Pad1)*%
X135138000Y-123434000D03*
%TD*%
D14*
%TO.P,RV3,1,1*%
%TO.N,unconnected-(RV3-Pad1)*%
X103378000Y-157220000D03*
%TO.P,RV3,2,2*%
%TO.N,Net-(RV2-Pad2)*%
X98378000Y-157220000D03*
%TO.P,RV3,3,3*%
%TO.N,Net-(C7-Pad2)*%
X93378000Y-157220000D03*
%TD*%
%TO.P,RV2,1,1*%
%TO.N,unconnected-(RV2-Pad1)*%
X123444000Y-157220000D03*
%TO.P,RV2,2,2*%
%TO.N,Net-(RV2-Pad2)*%
X118444000Y-157220000D03*
%TO.P,RV2,3,3*%
%TO.N,Net-(C6-Pad2)*%
X113444000Y-157220000D03*
%TD*%
%TO.P,RV1,1,1*%
%TO.N,/AUDIO_IN*%
X143837000Y-157226000D03*
%TO.P,RV1,2,2*%
%TO.N,Net-(C3-Pad2)*%
X138837000Y-157226000D03*
%TO.P,RV1,3,3*%
%TO.N,GND*%
X133837000Y-157226000D03*
%TD*%
D15*
%TO.P,J3,S*%
%TO.N,GND*%
X152109000Y-146304000D03*
D16*
%TO.P,J3,T*%
%TO.N,/AUDIO_OUT*%
X163319000Y-150286000D03*
%TD*%
D17*
%TO.P,J2,1,Pin_1*%
%TO.N,GND*%
X72623000Y-129352000D03*
%TO.P,J2,2,Pin_2*%
%TO.N,+12V*%
X72623000Y-133162000D03*
%TD*%
D15*
%TO.P,J1,S*%
%TO.N,GND*%
X72561000Y-146305000D03*
D16*
%TO.P,J1,T*%
%TO.N,/AUDIO_IN*%
X83771000Y-150287000D03*
%TD*%
D18*
%TO.N,+12V*%
X145796000Y-124968000D03*
%TD*%
%TA.AperFunction,Conductor*%
%TO.N,+12V*%
G36*
X162721162Y-118638002D02*
G01*
X162767655Y-118691658D01*
X162777759Y-118761932D01*
X162748265Y-118826512D01*
X162742136Y-118833095D01*
X162514098Y-119061133D01*
X162512013Y-119063708D01*
X162287328Y-119341171D01*
X162282668Y-119346925D01*
X162082380Y-119655343D01*
X161915427Y-119983006D01*
X161783639Y-120326326D01*
X161688459Y-120681541D01*
X161630931Y-121044759D01*
X161611685Y-121412000D01*
X161630931Y-121779241D01*
X161688459Y-122142459D01*
X161783639Y-122497674D01*
X161784824Y-122500762D01*
X161784825Y-122500764D01*
X161817592Y-122586125D01*
X161915427Y-122840994D01*
X161916925Y-122843934D01*
X161991384Y-122990067D01*
X162082380Y-123168657D01*
X162084176Y-123171423D01*
X162084178Y-123171426D01*
X162106574Y-123205913D01*
X162282668Y-123477075D01*
X162514098Y-123762867D01*
X162774133Y-124022902D01*
X163059925Y-124254332D01*
X163163474Y-124321577D01*
X163350406Y-124442972D01*
X163368342Y-124454620D01*
X163371276Y-124456115D01*
X163371283Y-124456119D01*
X163602342Y-124573849D01*
X163696006Y-124621573D01*
X163810414Y-124665490D01*
X164022805Y-124747019D01*
X164039326Y-124753361D01*
X164394541Y-124848541D01*
X164587558Y-124879112D01*
X164754511Y-124905555D01*
X164754519Y-124905556D01*
X164757759Y-124906069D01*
X165125000Y-124925315D01*
X165492241Y-124906069D01*
X165495481Y-124905556D01*
X165495489Y-124905555D01*
X165662442Y-124879112D01*
X165855459Y-124848541D01*
X166210674Y-124753361D01*
X166227196Y-124747019D01*
X166439586Y-124665490D01*
X166553994Y-124621573D01*
X166647658Y-124573849D01*
X166878717Y-124456119D01*
X166878724Y-124456115D01*
X166881658Y-124454620D01*
X166899595Y-124442972D01*
X167086526Y-124321577D01*
X167190075Y-124254332D01*
X167475867Y-124022902D01*
X167678905Y-123819864D01*
X167741217Y-123785838D01*
X167812032Y-123790903D01*
X167868868Y-123833450D01*
X167893679Y-123899970D01*
X167894000Y-123908959D01*
X167894000Y-157777041D01*
X167873998Y-157845162D01*
X167820342Y-157891655D01*
X167750068Y-157901759D01*
X167685488Y-157872265D01*
X167678905Y-157866136D01*
X167475867Y-157663098D01*
X167190075Y-157431668D01*
X166881658Y-157231380D01*
X166878724Y-157229885D01*
X166878717Y-157229881D01*
X166556934Y-157065925D01*
X166553994Y-157064427D01*
X166210674Y-156932639D01*
X165855459Y-156837459D01*
X165662442Y-156806888D01*
X165495489Y-156780445D01*
X165495481Y-156780444D01*
X165492241Y-156779931D01*
X165125000Y-156760685D01*
X164757759Y-156779931D01*
X164754519Y-156780444D01*
X164754511Y-156780445D01*
X164587558Y-156806888D01*
X164394541Y-156837459D01*
X164039326Y-156932639D01*
X163696006Y-157064427D01*
X163693066Y-157065925D01*
X163371284Y-157229881D01*
X163371277Y-157229885D01*
X163368343Y-157231380D01*
X163059925Y-157431668D01*
X162774133Y-157663098D01*
X162514098Y-157923133D01*
X162425059Y-158033087D01*
X162287328Y-158203171D01*
X162282668Y-158208925D01*
X162280866Y-158211700D01*
X162143279Y-158423567D01*
X162082380Y-158517343D01*
X162080885Y-158520277D01*
X162080881Y-158520284D01*
X161928834Y-158818694D01*
X161915427Y-158845006D01*
X161783639Y-159188326D01*
X161688459Y-159543541D01*
X161630931Y-159906759D01*
X161611685Y-160274000D01*
X161630931Y-160641241D01*
X161688459Y-161004459D01*
X161783639Y-161359674D01*
X161915427Y-161702994D01*
X162082380Y-162030657D01*
X162282668Y-162339075D01*
X162514098Y-162624867D01*
X162742136Y-162852905D01*
X162776162Y-162915217D01*
X162771097Y-162986032D01*
X162728550Y-163042868D01*
X162662030Y-163067679D01*
X162653041Y-163068000D01*
X74332959Y-163068000D01*
X74264838Y-163047998D01*
X74218345Y-162994342D01*
X74208241Y-162924068D01*
X74237735Y-162859488D01*
X74243864Y-162852905D01*
X74471902Y-162624867D01*
X74703332Y-162339075D01*
X74903620Y-162030657D01*
X75070573Y-161702994D01*
X75202361Y-161359674D01*
X75297541Y-161004459D01*
X75355069Y-160641241D01*
X75374315Y-160274000D01*
X75355069Y-159906759D01*
X75297541Y-159543541D01*
X75202361Y-159188326D01*
X75070573Y-158845006D01*
X75057166Y-158818694D01*
X74905119Y-158520284D01*
X74905115Y-158520277D01*
X74903620Y-158517343D01*
X74842722Y-158423567D01*
X74705134Y-158211700D01*
X74703332Y-158208925D01*
X74698673Y-158203171D01*
X74560941Y-158033087D01*
X74471902Y-157923133D01*
X74211867Y-157663098D01*
X73926075Y-157431668D01*
X73617658Y-157231380D01*
X73614724Y-157229885D01*
X73614717Y-157229881D01*
X73508849Y-157175939D01*
X91695370Y-157175939D01*
X91695594Y-157180606D01*
X91695594Y-157180611D01*
X91697335Y-157216851D01*
X91707339Y-157425131D01*
X91756010Y-157669818D01*
X91840314Y-157904622D01*
X91958398Y-158124386D01*
X91961193Y-158128130D01*
X91961195Y-158128132D01*
X92015463Y-158200805D01*
X92107668Y-158324283D01*
X92284844Y-158499921D01*
X92288606Y-158502679D01*
X92288609Y-158502682D01*
X92478265Y-158641742D01*
X92486036Y-158647440D01*
X92490171Y-158649616D01*
X92490175Y-158649618D01*
X92606009Y-158710561D01*
X92706823Y-158763602D01*
X92728423Y-158771145D01*
X92931510Y-158842066D01*
X92942354Y-158845853D01*
X92946947Y-158846725D01*
X93182867Y-158891516D01*
X93182870Y-158891516D01*
X93187456Y-158892387D01*
X93312099Y-158897284D01*
X93432075Y-158901999D01*
X93432081Y-158901999D01*
X93436743Y-158902182D01*
X93534134Y-158891516D01*
X93680087Y-158875532D01*
X93680092Y-158875531D01*
X93684740Y-158875022D01*
X93787030Y-158848091D01*
X93921476Y-158812694D01*
X93921478Y-158812693D01*
X93925999Y-158811503D01*
X94019935Y-158771145D01*
X94150924Y-158714868D01*
X94150926Y-158714867D01*
X94155218Y-158713023D01*
X94265667Y-158644675D01*
X94363391Y-158584202D01*
X94363395Y-158584199D01*
X94367364Y-158581743D01*
X94453667Y-158508682D01*
X94554209Y-158423567D01*
X94554210Y-158423566D01*
X94557775Y-158420548D01*
X94634054Y-158333569D01*
X94719187Y-158236494D01*
X94719191Y-158236489D01*
X94722269Y-158232979D01*
X94857231Y-158023157D01*
X94959697Y-157795691D01*
X94993505Y-157675818D01*
X95026146Y-157560082D01*
X95026147Y-157560079D01*
X95027416Y-157555578D01*
X95043248Y-157431131D01*
X95058502Y-157311222D01*
X95058502Y-157311218D01*
X95058900Y-157308092D01*
X95061207Y-157220000D01*
X95057933Y-157175939D01*
X96695370Y-157175939D01*
X96695594Y-157180606D01*
X96695594Y-157180611D01*
X96697335Y-157216851D01*
X96707339Y-157425131D01*
X96756010Y-157669818D01*
X96840314Y-157904622D01*
X96958398Y-158124386D01*
X96961193Y-158128130D01*
X96961195Y-158128132D01*
X97015463Y-158200805D01*
X97107668Y-158324283D01*
X97284844Y-158499921D01*
X97288606Y-158502679D01*
X97288609Y-158502682D01*
X97478265Y-158641742D01*
X97486036Y-158647440D01*
X97490171Y-158649616D01*
X97490175Y-158649618D01*
X97606009Y-158710561D01*
X97706823Y-158763602D01*
X97728423Y-158771145D01*
X97931510Y-158842066D01*
X97942354Y-158845853D01*
X97946947Y-158846725D01*
X98182867Y-158891516D01*
X98182870Y-158891516D01*
X98187456Y-158892387D01*
X98312099Y-158897284D01*
X98432075Y-158901999D01*
X98432081Y-158901999D01*
X98436743Y-158902182D01*
X98534134Y-158891516D01*
X98680087Y-158875532D01*
X98680092Y-158875531D01*
X98684740Y-158875022D01*
X98787030Y-158848091D01*
X98921476Y-158812694D01*
X98921478Y-158812693D01*
X98925999Y-158811503D01*
X99019935Y-158771145D01*
X99150924Y-158714868D01*
X99150926Y-158714867D01*
X99155218Y-158713023D01*
X99265667Y-158644675D01*
X99363391Y-158584202D01*
X99363395Y-158584199D01*
X99367364Y-158581743D01*
X99453667Y-158508682D01*
X99554209Y-158423567D01*
X99554210Y-158423566D01*
X99557775Y-158420548D01*
X99634054Y-158333569D01*
X99719187Y-158236494D01*
X99719191Y-158236489D01*
X99722269Y-158232979D01*
X99857231Y-158023157D01*
X99959697Y-157795691D01*
X99993505Y-157675818D01*
X100026146Y-157560082D01*
X100026147Y-157560079D01*
X100027416Y-157555578D01*
X100043248Y-157431131D01*
X100058502Y-157311222D01*
X100058502Y-157311218D01*
X100058900Y-157308092D01*
X100061207Y-157220000D01*
X100057933Y-157175939D01*
X101695370Y-157175939D01*
X101695594Y-157180606D01*
X101695594Y-157180611D01*
X101697335Y-157216851D01*
X101707339Y-157425131D01*
X101756010Y-157669818D01*
X101840314Y-157904622D01*
X101958398Y-158124386D01*
X101961193Y-158128130D01*
X101961195Y-158128132D01*
X102015463Y-158200805D01*
X102107668Y-158324283D01*
X102284844Y-158499921D01*
X102288606Y-158502679D01*
X102288609Y-158502682D01*
X102478265Y-158641742D01*
X102486036Y-158647440D01*
X102490171Y-158649616D01*
X102490175Y-158649618D01*
X102606009Y-158710561D01*
X102706823Y-158763602D01*
X102728423Y-158771145D01*
X102931510Y-158842066D01*
X102942354Y-158845853D01*
X102946947Y-158846725D01*
X103182867Y-158891516D01*
X103182870Y-158891516D01*
X103187456Y-158892387D01*
X103312099Y-158897284D01*
X103432075Y-158901999D01*
X103432081Y-158901999D01*
X103436743Y-158902182D01*
X103534134Y-158891516D01*
X103680087Y-158875532D01*
X103680092Y-158875531D01*
X103684740Y-158875022D01*
X103787030Y-158848091D01*
X103921476Y-158812694D01*
X103921478Y-158812693D01*
X103925999Y-158811503D01*
X104019935Y-158771145D01*
X104150924Y-158714868D01*
X104150926Y-158714867D01*
X104155218Y-158713023D01*
X104265667Y-158644675D01*
X104363391Y-158584202D01*
X104363395Y-158584199D01*
X104367364Y-158581743D01*
X104453667Y-158508682D01*
X104554209Y-158423567D01*
X104554210Y-158423566D01*
X104557775Y-158420548D01*
X104634054Y-158333569D01*
X104719187Y-158236494D01*
X104719191Y-158236489D01*
X104722269Y-158232979D01*
X104857231Y-158023157D01*
X104959697Y-157795691D01*
X104993505Y-157675818D01*
X105026146Y-157560082D01*
X105026147Y-157560079D01*
X105027416Y-157555578D01*
X105043248Y-157431131D01*
X105058502Y-157311222D01*
X105058502Y-157311218D01*
X105058900Y-157308092D01*
X105061207Y-157220000D01*
X105057933Y-157175939D01*
X111761370Y-157175939D01*
X111761594Y-157180606D01*
X111761594Y-157180611D01*
X111763335Y-157216851D01*
X111773339Y-157425131D01*
X111822010Y-157669818D01*
X111906314Y-157904622D01*
X112024398Y-158124386D01*
X112027193Y-158128130D01*
X112027195Y-158128132D01*
X112081463Y-158200805D01*
X112173668Y-158324283D01*
X112350844Y-158499921D01*
X112354606Y-158502679D01*
X112354609Y-158502682D01*
X112544265Y-158641742D01*
X112552036Y-158647440D01*
X112556171Y-158649616D01*
X112556175Y-158649618D01*
X112672009Y-158710561D01*
X112772823Y-158763602D01*
X112794423Y-158771145D01*
X112997510Y-158842066D01*
X113008354Y-158845853D01*
X113012947Y-158846725D01*
X113248867Y-158891516D01*
X113248870Y-158891516D01*
X113253456Y-158892387D01*
X113378099Y-158897284D01*
X113498075Y-158901999D01*
X113498081Y-158901999D01*
X113502743Y-158902182D01*
X113600134Y-158891516D01*
X113746087Y-158875532D01*
X113746092Y-158875531D01*
X113750740Y-158875022D01*
X113853030Y-158848091D01*
X113987476Y-158812694D01*
X113987478Y-158812693D01*
X113991999Y-158811503D01*
X114085935Y-158771145D01*
X114216924Y-158714868D01*
X114216926Y-158714867D01*
X114221218Y-158713023D01*
X114331667Y-158644675D01*
X114429391Y-158584202D01*
X114429395Y-158584199D01*
X114433364Y-158581743D01*
X114519667Y-158508682D01*
X114620209Y-158423567D01*
X114620210Y-158423566D01*
X114623775Y-158420548D01*
X114700054Y-158333569D01*
X114785187Y-158236494D01*
X114785191Y-158236489D01*
X114788269Y-158232979D01*
X114923231Y-158023157D01*
X115025697Y-157795691D01*
X115059505Y-157675818D01*
X115092146Y-157560082D01*
X115092147Y-157560079D01*
X115093416Y-157555578D01*
X115109248Y-157431131D01*
X115124502Y-157311222D01*
X115124502Y-157311218D01*
X115124900Y-157308092D01*
X115127207Y-157220000D01*
X115123933Y-157175939D01*
X116761370Y-157175939D01*
X116761594Y-157180606D01*
X116761594Y-157180611D01*
X116763335Y-157216851D01*
X116773339Y-157425131D01*
X116822010Y-157669818D01*
X116906314Y-157904622D01*
X117024398Y-158124386D01*
X117027193Y-158128130D01*
X117027195Y-158128132D01*
X117081463Y-158200805D01*
X117173668Y-158324283D01*
X117350844Y-158499921D01*
X117354606Y-158502679D01*
X117354609Y-158502682D01*
X117544265Y-158641742D01*
X117552036Y-158647440D01*
X117556171Y-158649616D01*
X117556175Y-158649618D01*
X117672009Y-158710561D01*
X117772823Y-158763602D01*
X117794423Y-158771145D01*
X117997510Y-158842066D01*
X118008354Y-158845853D01*
X118012947Y-158846725D01*
X118248867Y-158891516D01*
X118248870Y-158891516D01*
X118253456Y-158892387D01*
X118378099Y-158897284D01*
X118498075Y-158901999D01*
X118498081Y-158901999D01*
X118502743Y-158902182D01*
X118600134Y-158891516D01*
X118746087Y-158875532D01*
X118746092Y-158875531D01*
X118750740Y-158875022D01*
X118853030Y-158848091D01*
X118987476Y-158812694D01*
X118987478Y-158812693D01*
X118991999Y-158811503D01*
X119085935Y-158771145D01*
X119216924Y-158714868D01*
X119216926Y-158714867D01*
X119221218Y-158713023D01*
X119331667Y-158644675D01*
X119429391Y-158584202D01*
X119429395Y-158584199D01*
X119433364Y-158581743D01*
X119519667Y-158508682D01*
X119620209Y-158423567D01*
X119620210Y-158423566D01*
X119623775Y-158420548D01*
X119700054Y-158333569D01*
X119785187Y-158236494D01*
X119785191Y-158236489D01*
X119788269Y-158232979D01*
X119923231Y-158023157D01*
X120025697Y-157795691D01*
X120059505Y-157675818D01*
X120092146Y-157560082D01*
X120092147Y-157560079D01*
X120093416Y-157555578D01*
X120109248Y-157431131D01*
X120124502Y-157311222D01*
X120124502Y-157311218D01*
X120124900Y-157308092D01*
X120127207Y-157220000D01*
X120123933Y-157175939D01*
X121761370Y-157175939D01*
X121761594Y-157180606D01*
X121761594Y-157180611D01*
X121763335Y-157216851D01*
X121773339Y-157425131D01*
X121822010Y-157669818D01*
X121906314Y-157904622D01*
X122024398Y-158124386D01*
X122027193Y-158128130D01*
X122027195Y-158128132D01*
X122081463Y-158200805D01*
X122173668Y-158324283D01*
X122350844Y-158499921D01*
X122354606Y-158502679D01*
X122354609Y-158502682D01*
X122544265Y-158641742D01*
X122552036Y-158647440D01*
X122556171Y-158649616D01*
X122556175Y-158649618D01*
X122672009Y-158710561D01*
X122772823Y-158763602D01*
X122794423Y-158771145D01*
X122997510Y-158842066D01*
X123008354Y-158845853D01*
X123012947Y-158846725D01*
X123248867Y-158891516D01*
X123248870Y-158891516D01*
X123253456Y-158892387D01*
X123378099Y-158897284D01*
X123498075Y-158901999D01*
X123498081Y-158901999D01*
X123502743Y-158902182D01*
X123600134Y-158891516D01*
X123746087Y-158875532D01*
X123746092Y-158875531D01*
X123750740Y-158875022D01*
X123853030Y-158848091D01*
X123987476Y-158812694D01*
X123987478Y-158812693D01*
X123991999Y-158811503D01*
X124085935Y-158771145D01*
X124216924Y-158714868D01*
X124216926Y-158714867D01*
X124221218Y-158713023D01*
X124331667Y-158644675D01*
X124429391Y-158584202D01*
X124429395Y-158584199D01*
X124433364Y-158581743D01*
X124519667Y-158508682D01*
X124620209Y-158423567D01*
X124620210Y-158423566D01*
X124623775Y-158420548D01*
X124700054Y-158333569D01*
X124785187Y-158236494D01*
X124785191Y-158236489D01*
X124788269Y-158232979D01*
X124923231Y-158023157D01*
X125025697Y-157795691D01*
X125059505Y-157675818D01*
X125092146Y-157560082D01*
X125092147Y-157560079D01*
X125093416Y-157555578D01*
X125109248Y-157431131D01*
X125124502Y-157311222D01*
X125124502Y-157311218D01*
X125124900Y-157308092D01*
X125127207Y-157220000D01*
X125124379Y-157181939D01*
X132154370Y-157181939D01*
X132154594Y-157186606D01*
X132154594Y-157186611D01*
X132156831Y-157233178D01*
X132166339Y-157431131D01*
X132215010Y-157675818D01*
X132299314Y-157910622D01*
X132417398Y-158130386D01*
X132566668Y-158330283D01*
X132743844Y-158505921D01*
X132747606Y-158508679D01*
X132747609Y-158508682D01*
X132933082Y-158644675D01*
X132945036Y-158653440D01*
X132949171Y-158655616D01*
X132949175Y-158655618D01*
X133053605Y-158710561D01*
X133165823Y-158769602D01*
X133280523Y-158809657D01*
X133386670Y-158846725D01*
X133401354Y-158851853D01*
X133405947Y-158852725D01*
X133641867Y-158897516D01*
X133641870Y-158897516D01*
X133646456Y-158898387D01*
X133771100Y-158903285D01*
X133891075Y-158907999D01*
X133891081Y-158907999D01*
X133895743Y-158908182D01*
X133993134Y-158897516D01*
X134139087Y-158881532D01*
X134139092Y-158881531D01*
X134143740Y-158881022D01*
X134148264Y-158879831D01*
X134380476Y-158818694D01*
X134380478Y-158818693D01*
X134384999Y-158817503D01*
X134389296Y-158815657D01*
X134609924Y-158720868D01*
X134609926Y-158720867D01*
X134614218Y-158719023D01*
X134734363Y-158644675D01*
X134822391Y-158590202D01*
X134822395Y-158590199D01*
X134826364Y-158587743D01*
X134926900Y-158502633D01*
X135013209Y-158429567D01*
X135013210Y-158429566D01*
X135016775Y-158426548D01*
X135098316Y-158333569D01*
X135178187Y-158242494D01*
X135178191Y-158242489D01*
X135181269Y-158238979D01*
X135185129Y-158232979D01*
X135313703Y-158033087D01*
X135316231Y-158029157D01*
X135418697Y-157801691D01*
X135425649Y-157777041D01*
X135485146Y-157566082D01*
X135485147Y-157566079D01*
X135486416Y-157561578D01*
X135503172Y-157429866D01*
X135517502Y-157317222D01*
X135517502Y-157317218D01*
X135517900Y-157314092D01*
X135520207Y-157226000D01*
X135516933Y-157181939D01*
X137154370Y-157181939D01*
X137154594Y-157186606D01*
X137154594Y-157186611D01*
X137156831Y-157233178D01*
X137166339Y-157431131D01*
X137215010Y-157675818D01*
X137299314Y-157910622D01*
X137417398Y-158130386D01*
X137566668Y-158330283D01*
X137743844Y-158505921D01*
X137747606Y-158508679D01*
X137747609Y-158508682D01*
X137933082Y-158644675D01*
X137945036Y-158653440D01*
X137949171Y-158655616D01*
X137949175Y-158655618D01*
X138053605Y-158710561D01*
X138165823Y-158769602D01*
X138280523Y-158809657D01*
X138386670Y-158846725D01*
X138401354Y-158851853D01*
X138405947Y-158852725D01*
X138641867Y-158897516D01*
X138641870Y-158897516D01*
X138646456Y-158898387D01*
X138771100Y-158903285D01*
X138891075Y-158907999D01*
X138891081Y-158907999D01*
X138895743Y-158908182D01*
X138993134Y-158897516D01*
X139139087Y-158881532D01*
X139139092Y-158881531D01*
X139143740Y-158881022D01*
X139148264Y-158879831D01*
X139380476Y-158818694D01*
X139380478Y-158818693D01*
X139384999Y-158817503D01*
X139389296Y-158815657D01*
X139609924Y-158720868D01*
X139609926Y-158720867D01*
X139614218Y-158719023D01*
X139734363Y-158644675D01*
X139822391Y-158590202D01*
X139822395Y-158590199D01*
X139826364Y-158587743D01*
X139926900Y-158502633D01*
X140013209Y-158429567D01*
X140013210Y-158429566D01*
X140016775Y-158426548D01*
X140098316Y-158333569D01*
X140178187Y-158242494D01*
X140178191Y-158242489D01*
X140181269Y-158238979D01*
X140185129Y-158232979D01*
X140313703Y-158033087D01*
X140316231Y-158029157D01*
X140418697Y-157801691D01*
X140425649Y-157777041D01*
X140485146Y-157566082D01*
X140485147Y-157566079D01*
X140486416Y-157561578D01*
X140503172Y-157429866D01*
X140517502Y-157317222D01*
X140517502Y-157317218D01*
X140517900Y-157314092D01*
X140520207Y-157226000D01*
X140516933Y-157181939D01*
X142154370Y-157181939D01*
X142154594Y-157186606D01*
X142154594Y-157186611D01*
X142156831Y-157233178D01*
X142166339Y-157431131D01*
X142215010Y-157675818D01*
X142299314Y-157910622D01*
X142417398Y-158130386D01*
X142566668Y-158330283D01*
X142743844Y-158505921D01*
X142747606Y-158508679D01*
X142747609Y-158508682D01*
X142933082Y-158644675D01*
X142945036Y-158653440D01*
X142949171Y-158655616D01*
X142949175Y-158655618D01*
X143053605Y-158710561D01*
X143165823Y-158769602D01*
X143280523Y-158809657D01*
X143386670Y-158846725D01*
X143401354Y-158851853D01*
X143405947Y-158852725D01*
X143641867Y-158897516D01*
X143641870Y-158897516D01*
X143646456Y-158898387D01*
X143771100Y-158903285D01*
X143891075Y-158907999D01*
X143891081Y-158907999D01*
X143895743Y-158908182D01*
X143993134Y-158897516D01*
X144139087Y-158881532D01*
X144139092Y-158881531D01*
X144143740Y-158881022D01*
X144148264Y-158879831D01*
X144380476Y-158818694D01*
X144380478Y-158818693D01*
X144384999Y-158817503D01*
X144389296Y-158815657D01*
X144609924Y-158720868D01*
X144609926Y-158720867D01*
X144614218Y-158719023D01*
X144734363Y-158644675D01*
X144822391Y-158590202D01*
X144822395Y-158590199D01*
X144826364Y-158587743D01*
X144926900Y-158502633D01*
X145013209Y-158429567D01*
X145013210Y-158429566D01*
X145016775Y-158426548D01*
X145098316Y-158333569D01*
X145178187Y-158242494D01*
X145178191Y-158242489D01*
X145181269Y-158238979D01*
X145185129Y-158232979D01*
X145313703Y-158033087D01*
X145316231Y-158029157D01*
X145418697Y-157801691D01*
X145425649Y-157777041D01*
X145485146Y-157566082D01*
X145485147Y-157566079D01*
X145486416Y-157561578D01*
X145503172Y-157429866D01*
X145517502Y-157317222D01*
X145517502Y-157317218D01*
X145517900Y-157314092D01*
X145520207Y-157226000D01*
X145501718Y-156977206D01*
X145446659Y-156733878D01*
X145442633Y-156723524D01*
X145357931Y-156505714D01*
X145357930Y-156505712D01*
X145356238Y-156501361D01*
X145232442Y-156284763D01*
X145077990Y-156088842D01*
X144896276Y-155917902D01*
X144780160Y-155837350D01*
X144695130Y-155778362D01*
X144695125Y-155778359D01*
X144691292Y-155775700D01*
X144687110Y-155773637D01*
X144687102Y-155773633D01*
X144471728Y-155667423D01*
X144471725Y-155667422D01*
X144467540Y-155665358D01*
X144455248Y-155661423D01*
X144417647Y-155649387D01*
X144229937Y-155589300D01*
X144225330Y-155588550D01*
X144225327Y-155588549D01*
X143988312Y-155549949D01*
X143988313Y-155549949D01*
X143983701Y-155549198D01*
X143862753Y-155547615D01*
X143738920Y-155545994D01*
X143738917Y-155545994D01*
X143734243Y-155545933D01*
X143487042Y-155579575D01*
X143482556Y-155580883D01*
X143482554Y-155580883D01*
X143453677Y-155589300D01*
X143247528Y-155649387D01*
X143020965Y-155753834D01*
X143017056Y-155756397D01*
X142816242Y-155888056D01*
X142816237Y-155888060D01*
X142812329Y-155890622D01*
X142719265Y-155973684D01*
X142636417Y-156047629D01*
X142626202Y-156056746D01*
X142466675Y-156248557D01*
X142337252Y-156461840D01*
X142240775Y-156691911D01*
X142239624Y-156696443D01*
X142239623Y-156696446D01*
X142218421Y-156779931D01*
X142179365Y-156933714D01*
X142154370Y-157181939D01*
X140516933Y-157181939D01*
X140501718Y-156977206D01*
X140446659Y-156733878D01*
X140442633Y-156723524D01*
X140357931Y-156505714D01*
X140357930Y-156505712D01*
X140356238Y-156501361D01*
X140232442Y-156284763D01*
X140077990Y-156088842D01*
X139896276Y-155917902D01*
X139780160Y-155837350D01*
X139695130Y-155778362D01*
X139695125Y-155778359D01*
X139691292Y-155775700D01*
X139687110Y-155773637D01*
X139687102Y-155773633D01*
X139471728Y-155667423D01*
X139471725Y-155667422D01*
X139467540Y-155665358D01*
X139455248Y-155661423D01*
X139417647Y-155649387D01*
X139229937Y-155589300D01*
X139225330Y-155588550D01*
X139225327Y-155588549D01*
X138988312Y-155549949D01*
X138988313Y-155549949D01*
X138983701Y-155549198D01*
X138862753Y-155547615D01*
X138738920Y-155545994D01*
X138738917Y-155545994D01*
X138734243Y-155545933D01*
X138487042Y-155579575D01*
X138482556Y-155580883D01*
X138482554Y-155580883D01*
X138453677Y-155589300D01*
X138247528Y-155649387D01*
X138020965Y-155753834D01*
X138017056Y-155756397D01*
X137816242Y-155888056D01*
X137816237Y-155888060D01*
X137812329Y-155890622D01*
X137719265Y-155973684D01*
X137636417Y-156047629D01*
X137626202Y-156056746D01*
X137466675Y-156248557D01*
X137337252Y-156461840D01*
X137240775Y-156691911D01*
X137239624Y-156696443D01*
X137239623Y-156696446D01*
X137218421Y-156779931D01*
X137179365Y-156933714D01*
X137154370Y-157181939D01*
X135516933Y-157181939D01*
X135501718Y-156977206D01*
X135446659Y-156733878D01*
X135442633Y-156723524D01*
X135357931Y-156505714D01*
X135357930Y-156505712D01*
X135356238Y-156501361D01*
X135232442Y-156284763D01*
X135077990Y-156088842D01*
X134896276Y-155917902D01*
X134780160Y-155837350D01*
X134695130Y-155778362D01*
X134695125Y-155778359D01*
X134691292Y-155775700D01*
X134687110Y-155773637D01*
X134687102Y-155773633D01*
X134471728Y-155667423D01*
X134471725Y-155667422D01*
X134467540Y-155665358D01*
X134455248Y-155661423D01*
X134417647Y-155649387D01*
X134229937Y-155589300D01*
X134225330Y-155588550D01*
X134225327Y-155588549D01*
X133988312Y-155549949D01*
X133988313Y-155549949D01*
X133983701Y-155549198D01*
X133862753Y-155547615D01*
X133738920Y-155545994D01*
X133738917Y-155545994D01*
X133734243Y-155545933D01*
X133487042Y-155579575D01*
X133482556Y-155580883D01*
X133482554Y-155580883D01*
X133453677Y-155589300D01*
X133247528Y-155649387D01*
X133020965Y-155753834D01*
X133017056Y-155756397D01*
X132816242Y-155888056D01*
X132816237Y-155888060D01*
X132812329Y-155890622D01*
X132719265Y-155973684D01*
X132636417Y-156047629D01*
X132626202Y-156056746D01*
X132466675Y-156248557D01*
X132337252Y-156461840D01*
X132240775Y-156691911D01*
X132239624Y-156696443D01*
X132239623Y-156696446D01*
X132218421Y-156779931D01*
X132179365Y-156933714D01*
X132154370Y-157181939D01*
X125124379Y-157181939D01*
X125108718Y-156971206D01*
X125053659Y-156727878D01*
X125039672Y-156691911D01*
X124964931Y-156499714D01*
X124964930Y-156499712D01*
X124963238Y-156495361D01*
X124941793Y-156457839D01*
X124917285Y-156414959D01*
X124839442Y-156278763D01*
X124684990Y-156082842D01*
X124503276Y-155911902D01*
X124387160Y-155831350D01*
X124302130Y-155772362D01*
X124302125Y-155772359D01*
X124298292Y-155769700D01*
X124294110Y-155767637D01*
X124294102Y-155767633D01*
X124078728Y-155661423D01*
X124078725Y-155661422D01*
X124074540Y-155659358D01*
X123836937Y-155583300D01*
X123832330Y-155582550D01*
X123832327Y-155582549D01*
X123607869Y-155545994D01*
X123590701Y-155543198D01*
X123469753Y-155541615D01*
X123345920Y-155539994D01*
X123345917Y-155539994D01*
X123341243Y-155539933D01*
X123094042Y-155573575D01*
X123089556Y-155574883D01*
X123089554Y-155574883D01*
X123040092Y-155589300D01*
X122854528Y-155643387D01*
X122627965Y-155747834D01*
X122614904Y-155756397D01*
X122423242Y-155882056D01*
X122423237Y-155882060D01*
X122419329Y-155884622D01*
X122233202Y-156050746D01*
X122073675Y-156242557D01*
X121944252Y-156455840D01*
X121847775Y-156685911D01*
X121846624Y-156690443D01*
X121846623Y-156690446D01*
X121828785Y-156760685D01*
X121786365Y-156927714D01*
X121761370Y-157175939D01*
X120123933Y-157175939D01*
X120108718Y-156971206D01*
X120053659Y-156727878D01*
X120039672Y-156691911D01*
X119964931Y-156499714D01*
X119964930Y-156499712D01*
X119963238Y-156495361D01*
X119941793Y-156457839D01*
X119917285Y-156414959D01*
X119839442Y-156278763D01*
X119684990Y-156082842D01*
X119503276Y-155911902D01*
X119387160Y-155831350D01*
X119302130Y-155772362D01*
X119302125Y-155772359D01*
X119298292Y-155769700D01*
X119294110Y-155767637D01*
X119294102Y-155767633D01*
X119078728Y-155661423D01*
X119078725Y-155661422D01*
X119074540Y-155659358D01*
X118836937Y-155583300D01*
X118832330Y-155582550D01*
X118832327Y-155582549D01*
X118607869Y-155545994D01*
X118590701Y-155543198D01*
X118469753Y-155541615D01*
X118345920Y-155539994D01*
X118345917Y-155539994D01*
X118341243Y-155539933D01*
X118094042Y-155573575D01*
X118089556Y-155574883D01*
X118089554Y-155574883D01*
X118040092Y-155589300D01*
X117854528Y-155643387D01*
X117627965Y-155747834D01*
X117614904Y-155756397D01*
X117423242Y-155882056D01*
X117423237Y-155882060D01*
X117419329Y-155884622D01*
X117233202Y-156050746D01*
X117073675Y-156242557D01*
X116944252Y-156455840D01*
X116847775Y-156685911D01*
X116846624Y-156690443D01*
X116846623Y-156690446D01*
X116828785Y-156760685D01*
X116786365Y-156927714D01*
X116761370Y-157175939D01*
X115123933Y-157175939D01*
X115108718Y-156971206D01*
X115053659Y-156727878D01*
X115039672Y-156691911D01*
X114964931Y-156499714D01*
X114964930Y-156499712D01*
X114963238Y-156495361D01*
X114941793Y-156457839D01*
X114917285Y-156414959D01*
X114839442Y-156278763D01*
X114684990Y-156082842D01*
X114503276Y-155911902D01*
X114387160Y-155831350D01*
X114302130Y-155772362D01*
X114302125Y-155772359D01*
X114298292Y-155769700D01*
X114294110Y-155767637D01*
X114294102Y-155767633D01*
X114078728Y-155661423D01*
X114078725Y-155661422D01*
X114074540Y-155659358D01*
X113836937Y-155583300D01*
X113832330Y-155582550D01*
X113832327Y-155582549D01*
X113607869Y-155545994D01*
X113590701Y-155543198D01*
X113469753Y-155541615D01*
X113345920Y-155539994D01*
X113345917Y-155539994D01*
X113341243Y-155539933D01*
X113094042Y-155573575D01*
X113089556Y-155574883D01*
X113089554Y-155574883D01*
X113040092Y-155589300D01*
X112854528Y-155643387D01*
X112627965Y-155747834D01*
X112614904Y-155756397D01*
X112423242Y-155882056D01*
X112423237Y-155882060D01*
X112419329Y-155884622D01*
X112233202Y-156050746D01*
X112073675Y-156242557D01*
X111944252Y-156455840D01*
X111847775Y-156685911D01*
X111846624Y-156690443D01*
X111846623Y-156690446D01*
X111828785Y-156760685D01*
X111786365Y-156927714D01*
X111761370Y-157175939D01*
X105057933Y-157175939D01*
X105042718Y-156971206D01*
X104987659Y-156727878D01*
X104973672Y-156691911D01*
X104898931Y-156499714D01*
X104898930Y-156499712D01*
X104897238Y-156495361D01*
X104875793Y-156457839D01*
X104851285Y-156414959D01*
X104773442Y-156278763D01*
X104618990Y-156082842D01*
X104437276Y-155911902D01*
X104321160Y-155831350D01*
X104236130Y-155772362D01*
X104236125Y-155772359D01*
X104232292Y-155769700D01*
X104228110Y-155767637D01*
X104228102Y-155767633D01*
X104012728Y-155661423D01*
X104012725Y-155661422D01*
X104008540Y-155659358D01*
X103770937Y-155583300D01*
X103766330Y-155582550D01*
X103766327Y-155582549D01*
X103541869Y-155545994D01*
X103524701Y-155543198D01*
X103403753Y-155541615D01*
X103279920Y-155539994D01*
X103279917Y-155539994D01*
X103275243Y-155539933D01*
X103028042Y-155573575D01*
X103023556Y-155574883D01*
X103023554Y-155574883D01*
X102974092Y-155589300D01*
X102788528Y-155643387D01*
X102561965Y-155747834D01*
X102548904Y-155756397D01*
X102357242Y-155882056D01*
X102357237Y-155882060D01*
X102353329Y-155884622D01*
X102167202Y-156050746D01*
X102007675Y-156242557D01*
X101878252Y-156455840D01*
X101781775Y-156685911D01*
X101780624Y-156690443D01*
X101780623Y-156690446D01*
X101762785Y-156760685D01*
X101720365Y-156927714D01*
X101695370Y-157175939D01*
X100057933Y-157175939D01*
X100042718Y-156971206D01*
X99987659Y-156727878D01*
X99973672Y-156691911D01*
X99898931Y-156499714D01*
X99898930Y-156499712D01*
X99897238Y-156495361D01*
X99875793Y-156457839D01*
X99851285Y-156414959D01*
X99773442Y-156278763D01*
X99618990Y-156082842D01*
X99437276Y-155911902D01*
X99321160Y-155831350D01*
X99236130Y-155772362D01*
X99236125Y-155772359D01*
X99232292Y-155769700D01*
X99228110Y-155767637D01*
X99228102Y-155767633D01*
X99012728Y-155661423D01*
X99012725Y-155661422D01*
X99008540Y-155659358D01*
X98770937Y-155583300D01*
X98766330Y-155582550D01*
X98766327Y-155582549D01*
X98541869Y-155545994D01*
X98524701Y-155543198D01*
X98403753Y-155541615D01*
X98279920Y-155539994D01*
X98279917Y-155539994D01*
X98275243Y-155539933D01*
X98028042Y-155573575D01*
X98023556Y-155574883D01*
X98023554Y-155574883D01*
X97974092Y-155589300D01*
X97788528Y-155643387D01*
X97561965Y-155747834D01*
X97548904Y-155756397D01*
X97357242Y-155882056D01*
X97357237Y-155882060D01*
X97353329Y-155884622D01*
X97167202Y-156050746D01*
X97007675Y-156242557D01*
X96878252Y-156455840D01*
X96781775Y-156685911D01*
X96780624Y-156690443D01*
X96780623Y-156690446D01*
X96762785Y-156760685D01*
X96720365Y-156927714D01*
X96695370Y-157175939D01*
X95057933Y-157175939D01*
X95042718Y-156971206D01*
X94987659Y-156727878D01*
X94973672Y-156691911D01*
X94898931Y-156499714D01*
X94898930Y-156499712D01*
X94897238Y-156495361D01*
X94875793Y-156457839D01*
X94851285Y-156414959D01*
X94773442Y-156278763D01*
X94618990Y-156082842D01*
X94437276Y-155911902D01*
X94321160Y-155831350D01*
X94236130Y-155772362D01*
X94236125Y-155772359D01*
X94232292Y-155769700D01*
X94228110Y-155767637D01*
X94228102Y-155767633D01*
X94012728Y-155661423D01*
X94012725Y-155661422D01*
X94008540Y-155659358D01*
X93770937Y-155583300D01*
X93766330Y-155582550D01*
X93766327Y-155582549D01*
X93541869Y-155545994D01*
X93524701Y-155543198D01*
X93403753Y-155541615D01*
X93279920Y-155539994D01*
X93279917Y-155539994D01*
X93275243Y-155539933D01*
X93028042Y-155573575D01*
X93023556Y-155574883D01*
X93023554Y-155574883D01*
X92974092Y-155589300D01*
X92788528Y-155643387D01*
X92561965Y-155747834D01*
X92548904Y-155756397D01*
X92357242Y-155882056D01*
X92357237Y-155882060D01*
X92353329Y-155884622D01*
X92167202Y-156050746D01*
X92007675Y-156242557D01*
X91878252Y-156455840D01*
X91781775Y-156685911D01*
X91780624Y-156690443D01*
X91780623Y-156690446D01*
X91762785Y-156760685D01*
X91720365Y-156927714D01*
X91695370Y-157175939D01*
X73508849Y-157175939D01*
X73292934Y-157065925D01*
X73289994Y-157064427D01*
X72946674Y-156932639D01*
X72591459Y-156837459D01*
X72398442Y-156806888D01*
X72231489Y-156780445D01*
X72231481Y-156780444D01*
X72228241Y-156779931D01*
X71861000Y-156760685D01*
X71493759Y-156779931D01*
X71490519Y-156780444D01*
X71490511Y-156780445D01*
X71323558Y-156806888D01*
X71130541Y-156837459D01*
X70775326Y-156932639D01*
X70432006Y-157064427D01*
X70429066Y-157065925D01*
X70107284Y-157229881D01*
X70107277Y-157229885D01*
X70104343Y-157231380D01*
X69795925Y-157431668D01*
X69510133Y-157663098D01*
X69250098Y-157923133D01*
X69085605Y-158126265D01*
X69057920Y-158160453D01*
X68999506Y-158200805D01*
X68928549Y-158203171D01*
X68867577Y-158166798D01*
X68835949Y-158103236D01*
X68834000Y-158081159D01*
X68834000Y-151524437D01*
X79898514Y-151524437D01*
X79919163Y-151668623D01*
X79979450Y-151801219D01*
X79984397Y-151807372D01*
X79984399Y-151807375D01*
X80005187Y-151833229D01*
X80018643Y-151849965D01*
X82208035Y-154039357D01*
X82210697Y-154041497D01*
X82250625Y-154073601D01*
X82250628Y-154073603D01*
X82256781Y-154078550D01*
X82389377Y-154138837D01*
X82398260Y-154140109D01*
X82398263Y-154140110D01*
X82524674Y-154158213D01*
X82533563Y-154159486D01*
X82542452Y-154158213D01*
X82668863Y-154140110D01*
X82668866Y-154140109D01*
X82677749Y-154138837D01*
X82810345Y-154078550D01*
X82816498Y-154073603D01*
X82816501Y-154073601D01*
X82856429Y-154041497D01*
X82859091Y-154039357D01*
X85375011Y-151523437D01*
X159446514Y-151523437D01*
X159467163Y-151667623D01*
X159527450Y-151800219D01*
X159532397Y-151806372D01*
X159532399Y-151806375D01*
X159553187Y-151832229D01*
X159566643Y-151848965D01*
X161756035Y-154038357D01*
X161772771Y-154051813D01*
X161798625Y-154072601D01*
X161798628Y-154072603D01*
X161804781Y-154077550D01*
X161937377Y-154137837D01*
X161946260Y-154139109D01*
X161946263Y-154139110D01*
X162072674Y-154157213D01*
X162081563Y-154158486D01*
X162090452Y-154157213D01*
X162216863Y-154139110D01*
X162216866Y-154139109D01*
X162225749Y-154137837D01*
X162358345Y-154077550D01*
X162364498Y-154072603D01*
X162364501Y-154072601D01*
X162390355Y-154051813D01*
X162407091Y-154038357D01*
X167071357Y-149374091D01*
X167084813Y-149357355D01*
X167105601Y-149331501D01*
X167105603Y-149331498D01*
X167110550Y-149325345D01*
X167170837Y-149192749D01*
X167191486Y-149048563D01*
X167170837Y-148904377D01*
X167110550Y-148771781D01*
X167105603Y-148765628D01*
X167105601Y-148765625D01*
X167073497Y-148725697D01*
X167071357Y-148723035D01*
X164881965Y-146533643D01*
X164865229Y-146520187D01*
X164839375Y-146499399D01*
X164839372Y-146499397D01*
X164833219Y-146494450D01*
X164700623Y-146434163D01*
X164691740Y-146432891D01*
X164691737Y-146432890D01*
X164565326Y-146414787D01*
X164556437Y-146413514D01*
X164547548Y-146414787D01*
X164421137Y-146432890D01*
X164421134Y-146432891D01*
X164412251Y-146434163D01*
X164279655Y-146494450D01*
X164273502Y-146499397D01*
X164273499Y-146499399D01*
X164247645Y-146520187D01*
X164230909Y-146533643D01*
X159566643Y-151197909D01*
X159564503Y-151200571D01*
X159532399Y-151240499D01*
X159532397Y-151240502D01*
X159527450Y-151246655D01*
X159467163Y-151379251D01*
X159446514Y-151523437D01*
X85375011Y-151523437D01*
X86296314Y-150602134D01*
X150100500Y-150602134D01*
X150107255Y-150664316D01*
X150158385Y-150800705D01*
X150245739Y-150917261D01*
X150362295Y-151004615D01*
X150498684Y-151055745D01*
X150560866Y-151062500D01*
X153657134Y-151062500D01*
X153719316Y-151055745D01*
X153855705Y-151004615D01*
X153972261Y-150917261D01*
X154059615Y-150800705D01*
X154110745Y-150664316D01*
X154117500Y-150602134D01*
X154117500Y-142005866D01*
X154110745Y-141943684D01*
X154059615Y-141807295D01*
X153972261Y-141690739D01*
X153855705Y-141603385D01*
X153719316Y-141552255D01*
X153657134Y-141545500D01*
X150560866Y-141545500D01*
X150498684Y-141552255D01*
X150362295Y-141603385D01*
X150245739Y-141690739D01*
X150158385Y-141807295D01*
X150107255Y-141943684D01*
X150100500Y-142005866D01*
X150100500Y-150602134D01*
X86296314Y-150602134D01*
X87523357Y-149375091D01*
X87536813Y-149358355D01*
X87557601Y-149332501D01*
X87557603Y-149332498D01*
X87562550Y-149326345D01*
X87622837Y-149193749D01*
X87643486Y-149049563D01*
X87622837Y-148905377D01*
X87562550Y-148772781D01*
X87557603Y-148766628D01*
X87557601Y-148766625D01*
X87525497Y-148726697D01*
X87523357Y-148724035D01*
X85333965Y-146534643D01*
X85317229Y-146521187D01*
X85291375Y-146500399D01*
X85291372Y-146500397D01*
X85285219Y-146495450D01*
X85152623Y-146435163D01*
X85143740Y-146433891D01*
X85143737Y-146433890D01*
X85017326Y-146415787D01*
X85008437Y-146414514D01*
X84999548Y-146415787D01*
X84873137Y-146433890D01*
X84873134Y-146433891D01*
X84864251Y-146435163D01*
X84731655Y-146495450D01*
X84725502Y-146500397D01*
X84725499Y-146500399D01*
X84699645Y-146521187D01*
X84682909Y-146534643D01*
X80018643Y-151198909D01*
X80016503Y-151201571D01*
X79984399Y-151241499D01*
X79984397Y-151241502D01*
X79979450Y-151247655D01*
X79919163Y-151380251D01*
X79898514Y-151524437D01*
X68834000Y-151524437D01*
X68834000Y-150603134D01*
X70552500Y-150603134D01*
X70559255Y-150665316D01*
X70610385Y-150801705D01*
X70697739Y-150918261D01*
X70814295Y-151005615D01*
X70950684Y-151056745D01*
X71012866Y-151063500D01*
X74109134Y-151063500D01*
X74171316Y-151056745D01*
X74307705Y-151005615D01*
X74424261Y-150918261D01*
X74511615Y-150801705D01*
X74562745Y-150665316D01*
X74569500Y-150603134D01*
X74569500Y-142006866D01*
X74562745Y-141944684D01*
X74511615Y-141808295D01*
X74424261Y-141691739D01*
X74307705Y-141604385D01*
X74171316Y-141553255D01*
X74109134Y-141546500D01*
X71012866Y-141546500D01*
X70950684Y-141553255D01*
X70814295Y-141604385D01*
X70697739Y-141691739D01*
X70610385Y-141808295D01*
X70559255Y-141944684D01*
X70552500Y-142006866D01*
X70552500Y-150603134D01*
X68834000Y-150603134D01*
X68834000Y-134571133D01*
X71578612Y-134571133D01*
X71587325Y-134582653D01*
X71685018Y-134654284D01*
X71692928Y-134659227D01*
X71915890Y-134776533D01*
X71924453Y-134780256D01*
X72162304Y-134863318D01*
X72171313Y-134865732D01*
X72418842Y-134912727D01*
X72428098Y-134913781D01*
X72679857Y-134923673D01*
X72689171Y-134923347D01*
X72939615Y-134895920D01*
X72948792Y-134894219D01*
X73192431Y-134830074D01*
X73201251Y-134827037D01*
X73432736Y-134727583D01*
X73441008Y-134723276D01*
X73655249Y-134590700D01*
X73662188Y-134585658D01*
X73670518Y-134573019D01*
X73664456Y-134562666D01*
X72635812Y-133534022D01*
X72621868Y-133526408D01*
X72620035Y-133526539D01*
X72613420Y-133530790D01*
X71585270Y-134558940D01*
X71578612Y-134571133D01*
X68834000Y-134571133D01*
X68834000Y-133120523D01*
X70860898Y-133120523D01*
X70872987Y-133372175D01*
X70874124Y-133381435D01*
X70923274Y-133628535D01*
X70925768Y-133637528D01*
X71010900Y-133874639D01*
X71014700Y-133883174D01*
X71133946Y-134105101D01*
X71138957Y-134112968D01*
X71202446Y-134197990D01*
X71213704Y-134206439D01*
X71226123Y-134199667D01*
X72250978Y-133174812D01*
X72257356Y-133163132D01*
X72987408Y-133163132D01*
X72987539Y-133164965D01*
X72991790Y-133171580D01*
X74022913Y-134202703D01*
X74035293Y-134209463D01*
X74043634Y-134203219D01*
X74169765Y-134007127D01*
X74174212Y-133998936D01*
X74277691Y-133769222D01*
X74280882Y-133760455D01*
X74349269Y-133517976D01*
X74351129Y-133508834D01*
X74383116Y-133257396D01*
X74383597Y-133251108D01*
X74385847Y-133165160D01*
X74385696Y-133158851D01*
X74366912Y-132906074D01*
X74365536Y-132896868D01*
X74309929Y-132651126D01*
X74307205Y-132642215D01*
X74215888Y-132407392D01*
X74211877Y-132398983D01*
X74086854Y-132180240D01*
X74081643Y-132172514D01*
X74044391Y-132125261D01*
X74032466Y-132116790D01*
X74020934Y-132123276D01*
X72995022Y-133149188D01*
X72987408Y-133163132D01*
X72257356Y-133163132D01*
X72258592Y-133160868D01*
X72258461Y-133159035D01*
X72254210Y-133152420D01*
X71224321Y-132122531D01*
X71211013Y-132115264D01*
X71200974Y-132122386D01*
X71190761Y-132134666D01*
X71185346Y-132142258D01*
X71054646Y-132357646D01*
X71050408Y-132365963D01*
X70952981Y-132598299D01*
X70950020Y-132607149D01*
X70888006Y-132851331D01*
X70886384Y-132860528D01*
X70861143Y-133111198D01*
X70860898Y-133120523D01*
X68834000Y-133120523D01*
X68834000Y-131750803D01*
X71576216Y-131750803D01*
X71580789Y-131760579D01*
X72610188Y-132789978D01*
X72624132Y-132797592D01*
X72625965Y-132797461D01*
X72632580Y-132793210D01*
X73523656Y-131902134D01*
X133829500Y-131902134D01*
X133836255Y-131964316D01*
X133887385Y-132100705D01*
X133974739Y-132217261D01*
X134091295Y-132304615D01*
X134227684Y-132355745D01*
X134289866Y-132362500D01*
X135986134Y-132362500D01*
X136048316Y-132355745D01*
X136184705Y-132304615D01*
X136301261Y-132217261D01*
X136388615Y-132100705D01*
X136439745Y-131964316D01*
X136440917Y-131953526D01*
X136441803Y-131951394D01*
X136442425Y-131948778D01*
X136442848Y-131948879D01*
X136468155Y-131887965D01*
X136526517Y-131847537D01*
X136597471Y-131845078D01*
X136658490Y-131881371D01*
X136665489Y-131890031D01*
X136668643Y-131893789D01*
X136671802Y-131898300D01*
X136833700Y-132060198D01*
X136838208Y-132063355D01*
X136838211Y-132063357D01*
X136879542Y-132092297D01*
X137021251Y-132191523D01*
X137026233Y-132193846D01*
X137026238Y-132193849D01*
X137223775Y-132285961D01*
X137228757Y-132288284D01*
X137234065Y-132289706D01*
X137234067Y-132289707D01*
X137444598Y-132346119D01*
X137444600Y-132346119D01*
X137449913Y-132347543D01*
X137678000Y-132367498D01*
X137906087Y-132347543D01*
X137911400Y-132346119D01*
X137911402Y-132346119D01*
X138121933Y-132289707D01*
X138121935Y-132289706D01*
X138127243Y-132288284D01*
X138132225Y-132285961D01*
X138329762Y-132193849D01*
X138329767Y-132193846D01*
X138334749Y-132191523D01*
X138476458Y-132092297D01*
X138517789Y-132063357D01*
X138517792Y-132063355D01*
X138522300Y-132060198D01*
X138684198Y-131898300D01*
X138815523Y-131710749D01*
X138817846Y-131705767D01*
X138817849Y-131705762D01*
X138833805Y-131671543D01*
X138880722Y-131618258D01*
X138948999Y-131598797D01*
X139016959Y-131619339D01*
X139062195Y-131671543D01*
X139078151Y-131705762D01*
X139078154Y-131705767D01*
X139080477Y-131710749D01*
X139211802Y-131898300D01*
X139373700Y-132060198D01*
X139378208Y-132063355D01*
X139378211Y-132063357D01*
X139419542Y-132092297D01*
X139561251Y-132191523D01*
X139566233Y-132193846D01*
X139566238Y-132193849D01*
X139763775Y-132285961D01*
X139768757Y-132288284D01*
X139774065Y-132289706D01*
X139774067Y-132289707D01*
X139984598Y-132346119D01*
X139984600Y-132346119D01*
X139989913Y-132347543D01*
X140218000Y-132367498D01*
X140446087Y-132347543D01*
X140451400Y-132346119D01*
X140451402Y-132346119D01*
X140661933Y-132289707D01*
X140661935Y-132289706D01*
X140667243Y-132288284D01*
X140672225Y-132285961D01*
X140869762Y-132193849D01*
X140869767Y-132193846D01*
X140874749Y-132191523D01*
X141016458Y-132092297D01*
X141057789Y-132063357D01*
X141057792Y-132063355D01*
X141062300Y-132060198D01*
X141224198Y-131898300D01*
X141355523Y-131710749D01*
X141357846Y-131705767D01*
X141357849Y-131705762D01*
X141373805Y-131671543D01*
X141420722Y-131618258D01*
X141488999Y-131598797D01*
X141556959Y-131619339D01*
X141602195Y-131671543D01*
X141618151Y-131705762D01*
X141618154Y-131705767D01*
X141620477Y-131710749D01*
X141751802Y-131898300D01*
X141913700Y-132060198D01*
X141918208Y-132063355D01*
X141918211Y-132063357D01*
X141959542Y-132092297D01*
X142101251Y-132191523D01*
X142106233Y-132193846D01*
X142106238Y-132193849D01*
X142303775Y-132285961D01*
X142308757Y-132288284D01*
X142314065Y-132289706D01*
X142314067Y-132289707D01*
X142524598Y-132346119D01*
X142524600Y-132346119D01*
X142529913Y-132347543D01*
X142758000Y-132367498D01*
X142986087Y-132347543D01*
X142991400Y-132346119D01*
X142991402Y-132346119D01*
X143201933Y-132289707D01*
X143201935Y-132289706D01*
X143207243Y-132288284D01*
X143212225Y-132285961D01*
X143409762Y-132193849D01*
X143409767Y-132193846D01*
X143414749Y-132191523D01*
X143556458Y-132092297D01*
X143597789Y-132063357D01*
X143597792Y-132063355D01*
X143602300Y-132060198D01*
X143764198Y-131898300D01*
X143895523Y-131710749D01*
X143897846Y-131705767D01*
X143897849Y-131705762D01*
X143989961Y-131508225D01*
X143989961Y-131508224D01*
X143992284Y-131503243D01*
X144051543Y-131282087D01*
X144071498Y-131054000D01*
X144051543Y-130825913D01*
X144050119Y-130820598D01*
X143993707Y-130610067D01*
X143993706Y-130610065D01*
X143992284Y-130604757D01*
X143947727Y-130509203D01*
X143897849Y-130402238D01*
X143897846Y-130402233D01*
X143895523Y-130397251D01*
X143764198Y-130209700D01*
X143602300Y-130047802D01*
X143597792Y-130044645D01*
X143597789Y-130044643D01*
X143476039Y-129959393D01*
X143414749Y-129916477D01*
X143409767Y-129914154D01*
X143409762Y-129914151D01*
X143212225Y-129822039D01*
X143212224Y-129822039D01*
X143207243Y-129819716D01*
X143201935Y-129818294D01*
X143201933Y-129818293D01*
X142991402Y-129761881D01*
X142991400Y-129761881D01*
X142986087Y-129760457D01*
X142758000Y-129740502D01*
X142529913Y-129760457D01*
X142524600Y-129761881D01*
X142524598Y-129761881D01*
X142314067Y-129818293D01*
X142314065Y-129818294D01*
X142308757Y-129819716D01*
X142303776Y-129822039D01*
X142303775Y-129822039D01*
X142106238Y-129914151D01*
X142106233Y-129914154D01*
X142101251Y-129916477D01*
X142039961Y-129959393D01*
X141918211Y-130044643D01*
X141918208Y-130044645D01*
X141913700Y-130047802D01*
X141751802Y-130209700D01*
X141620477Y-130397251D01*
X141618154Y-130402233D01*
X141618151Y-130402238D01*
X141602195Y-130436457D01*
X141555278Y-130489742D01*
X141487001Y-130509203D01*
X141419041Y-130488661D01*
X141373805Y-130436457D01*
X141357849Y-130402238D01*
X141357846Y-130402233D01*
X141355523Y-130397251D01*
X141224198Y-130209700D01*
X141062300Y-130047802D01*
X141057792Y-130044645D01*
X141057789Y-130044643D01*
X140936039Y-129959393D01*
X140874749Y-129916477D01*
X140869767Y-129914154D01*
X140869762Y-129914151D01*
X140672225Y-129822039D01*
X140672224Y-129822039D01*
X140667243Y-129819716D01*
X140661935Y-129818294D01*
X140661933Y-129818293D01*
X140451402Y-129761881D01*
X140451400Y-129761881D01*
X140446087Y-129760457D01*
X140218000Y-129740502D01*
X139989913Y-129760457D01*
X139984600Y-129761881D01*
X139984598Y-129761881D01*
X139774067Y-129818293D01*
X139774065Y-129818294D01*
X139768757Y-129819716D01*
X139763776Y-129822039D01*
X139763775Y-129822039D01*
X139566238Y-129914151D01*
X139566233Y-129914154D01*
X139561251Y-129916477D01*
X139499961Y-129959393D01*
X139378211Y-130044643D01*
X139378208Y-130044645D01*
X139373700Y-130047802D01*
X139211802Y-130209700D01*
X139080477Y-130397251D01*
X139078154Y-130402233D01*
X139078151Y-130402238D01*
X139062195Y-130436457D01*
X139015278Y-130489742D01*
X138947001Y-130509203D01*
X138879041Y-130488661D01*
X138833805Y-130436457D01*
X138817849Y-130402238D01*
X138817846Y-130402233D01*
X138815523Y-130397251D01*
X138684198Y-130209700D01*
X138522300Y-130047802D01*
X138517792Y-130044645D01*
X138517789Y-130044643D01*
X138396039Y-129959393D01*
X138334749Y-129916477D01*
X138329767Y-129914154D01*
X138329762Y-129914151D01*
X138132225Y-129822039D01*
X138132224Y-129822039D01*
X138127243Y-129819716D01*
X138121935Y-129818294D01*
X138121933Y-129818293D01*
X137911402Y-129761881D01*
X137911400Y-129761881D01*
X137906087Y-129760457D01*
X137678000Y-129740502D01*
X137449913Y-129760457D01*
X137444600Y-129761881D01*
X137444598Y-129761881D01*
X137234067Y-129818293D01*
X137234065Y-129818294D01*
X137228757Y-129819716D01*
X137223776Y-129822039D01*
X137223775Y-129822039D01*
X137026238Y-129914151D01*
X137026233Y-129914154D01*
X137021251Y-129916477D01*
X136959961Y-129959393D01*
X136838211Y-130044643D01*
X136838208Y-130044645D01*
X136833700Y-130047802D01*
X136671802Y-130209700D01*
X136668643Y-130214211D01*
X136665108Y-130218424D01*
X136663974Y-130217473D01*
X136613929Y-130257471D01*
X136543310Y-130264776D01*
X136479951Y-130232742D01*
X136443970Y-130171538D01*
X136440918Y-130154483D01*
X136439745Y-130143684D01*
X136388615Y-130007295D01*
X136301261Y-129890739D01*
X136184705Y-129803385D01*
X136048316Y-129752255D01*
X135986134Y-129745500D01*
X134289866Y-129745500D01*
X134227684Y-129752255D01*
X134091295Y-129803385D01*
X133974739Y-129890739D01*
X133887385Y-130007295D01*
X133836255Y-130143684D01*
X133829500Y-130205866D01*
X133829500Y-131902134D01*
X73523656Y-131902134D01*
X73661419Y-131764371D01*
X73667803Y-131752681D01*
X73658391Y-131740570D01*
X73521593Y-131645670D01*
X73513565Y-131640942D01*
X73287593Y-131529505D01*
X73278960Y-131526017D01*
X73038998Y-131449205D01*
X73029938Y-131447029D01*
X72781260Y-131406529D01*
X72771973Y-131405717D01*
X72520053Y-131402419D01*
X72510742Y-131402989D01*
X72261097Y-131436964D01*
X72251978Y-131438902D01*
X72010098Y-131509404D01*
X72001367Y-131512667D01*
X71772558Y-131618151D01*
X71764406Y-131622670D01*
X71585353Y-131740062D01*
X71576216Y-131750803D01*
X68834000Y-131750803D01*
X68834000Y-129305839D01*
X70860173Y-129305839D01*
X70872713Y-129566908D01*
X70923704Y-129823256D01*
X71012026Y-130069252D01*
X71014242Y-130073376D01*
X71083606Y-130202469D01*
X71135737Y-130299491D01*
X71138532Y-130303234D01*
X71138534Y-130303237D01*
X71289330Y-130505177D01*
X71289335Y-130505183D01*
X71292122Y-130508915D01*
X71295431Y-130512195D01*
X71295436Y-130512201D01*
X71474426Y-130689635D01*
X71477743Y-130692923D01*
X71481505Y-130695681D01*
X71481508Y-130695684D01*
X71666592Y-130831393D01*
X71688524Y-130847474D01*
X71692667Y-130849654D01*
X71692669Y-130849655D01*
X71915684Y-130966989D01*
X71915689Y-130966991D01*
X71919834Y-130969172D01*
X72058254Y-131017511D01*
X72147064Y-131048525D01*
X72166590Y-131055344D01*
X72171183Y-131056216D01*
X72418785Y-131103224D01*
X72418788Y-131103224D01*
X72423374Y-131104095D01*
X72553958Y-131109226D01*
X72679875Y-131114174D01*
X72679881Y-131114174D01*
X72684543Y-131114357D01*
X72763977Y-131105657D01*
X72939707Y-131086412D01*
X72939712Y-131086411D01*
X72944360Y-131085902D01*
X72948884Y-131084711D01*
X73192594Y-131020548D01*
X73192596Y-131020547D01*
X73197117Y-131019357D01*
X73437262Y-130916182D01*
X73659519Y-130778646D01*
X73663082Y-130775629D01*
X73663087Y-130775626D01*
X73855439Y-130612787D01*
X73855440Y-130612786D01*
X73859005Y-130609768D01*
X73944569Y-130512201D01*
X74028257Y-130416774D01*
X74028261Y-130416769D01*
X74031339Y-130413259D01*
X74172733Y-130193437D01*
X74280083Y-129955129D01*
X74337300Y-129752255D01*
X74349760Y-129708076D01*
X74349761Y-129708073D01*
X74351030Y-129703572D01*
X74367832Y-129571496D01*
X74383616Y-129447421D01*
X74383616Y-129447417D01*
X74384014Y-129444291D01*
X74386431Y-129352000D01*
X74367061Y-129091348D01*
X74355725Y-129041248D01*
X74310408Y-128840980D01*
X74309377Y-128836423D01*
X74214647Y-128592823D01*
X74084951Y-128365902D01*
X73923138Y-128160643D01*
X73732763Y-127981557D01*
X73518009Y-127832576D01*
X73513816Y-127830508D01*
X73287781Y-127719040D01*
X73287778Y-127719039D01*
X73283593Y-127716975D01*
X73237449Y-127702204D01*
X73039123Y-127638720D01*
X73034665Y-127637293D01*
X72776693Y-127595279D01*
X72662942Y-127593790D01*
X72520022Y-127591919D01*
X72520019Y-127591919D01*
X72515345Y-127591858D01*
X72256362Y-127627104D01*
X72005433Y-127700243D01*
X72001180Y-127702203D01*
X72001179Y-127702204D01*
X71964659Y-127719040D01*
X71768072Y-127809668D01*
X71729067Y-127835241D01*
X71553404Y-127950410D01*
X71553399Y-127950414D01*
X71549491Y-127952976D01*
X71354494Y-128127018D01*
X71187363Y-128327970D01*
X71051771Y-128551419D01*
X70950697Y-128792455D01*
X70886359Y-129045783D01*
X70860173Y-129305839D01*
X68834000Y-129305839D01*
X68834000Y-123604841D01*
X68854002Y-123536720D01*
X68907658Y-123490227D01*
X68977932Y-123480123D01*
X69042512Y-123509617D01*
X69057919Y-123525546D01*
X69250098Y-123762867D01*
X69510133Y-124022902D01*
X69795925Y-124254332D01*
X69899474Y-124321577D01*
X70086406Y-124442972D01*
X70104342Y-124454620D01*
X70107276Y-124456115D01*
X70107283Y-124456119D01*
X70338342Y-124573849D01*
X70432006Y-124621573D01*
X70546414Y-124665490D01*
X70758805Y-124747019D01*
X70775326Y-124753361D01*
X71130541Y-124848541D01*
X71323558Y-124879112D01*
X71490511Y-124905555D01*
X71490519Y-124905556D01*
X71493759Y-124906069D01*
X71861000Y-124925315D01*
X72228241Y-124906069D01*
X72231481Y-124905556D01*
X72231489Y-124905555D01*
X72398442Y-124879112D01*
X72591459Y-124848541D01*
X72946674Y-124753361D01*
X72963196Y-124747019D01*
X73175586Y-124665490D01*
X73289994Y-124621573D01*
X73383658Y-124573849D01*
X73614717Y-124456119D01*
X73614724Y-124456115D01*
X73617658Y-124454620D01*
X73635595Y-124442972D01*
X73822526Y-124321577D01*
X73926075Y-124254332D01*
X74211867Y-124022902D01*
X74471902Y-123762867D01*
X74703332Y-123477075D01*
X74731305Y-123434000D01*
X133824502Y-123434000D01*
X133844457Y-123662087D01*
X133845881Y-123667400D01*
X133845881Y-123667402D01*
X133886734Y-123819864D01*
X133903716Y-123883243D01*
X133906039Y-123888224D01*
X133906039Y-123888225D01*
X133998151Y-124085762D01*
X133998154Y-124085767D01*
X134000477Y-124090749D01*
X134003634Y-124095257D01*
X134113559Y-124252246D01*
X134131802Y-124278300D01*
X134293700Y-124440198D01*
X134298208Y-124443355D01*
X134298211Y-124443357D01*
X134316437Y-124456119D01*
X134481251Y-124571523D01*
X134486233Y-124573846D01*
X134486238Y-124573849D01*
X134588584Y-124621573D01*
X134688757Y-124668284D01*
X134694065Y-124669706D01*
X134694067Y-124669707D01*
X134904598Y-124726119D01*
X134904600Y-124726119D01*
X134909913Y-124727543D01*
X135138000Y-124747498D01*
X135366087Y-124727543D01*
X135371400Y-124726119D01*
X135371402Y-124726119D01*
X135581933Y-124669707D01*
X135581935Y-124669706D01*
X135587243Y-124668284D01*
X135687416Y-124621573D01*
X135789762Y-124573849D01*
X135789767Y-124573846D01*
X135794749Y-124571523D01*
X135959563Y-124456119D01*
X135977789Y-124443357D01*
X135977792Y-124443355D01*
X135982300Y-124440198D01*
X136144198Y-124278300D01*
X136162442Y-124252246D01*
X136272366Y-124095257D01*
X136275523Y-124090749D01*
X136277846Y-124085767D01*
X136277849Y-124085762D01*
X136293805Y-124051543D01*
X136340722Y-123998258D01*
X136408999Y-123978797D01*
X136476959Y-123999339D01*
X136522195Y-124051543D01*
X136538151Y-124085762D01*
X136538154Y-124085767D01*
X136540477Y-124090749D01*
X136543634Y-124095257D01*
X136653559Y-124252246D01*
X136671802Y-124278300D01*
X136833700Y-124440198D01*
X136838208Y-124443355D01*
X136838211Y-124443357D01*
X136856437Y-124456119D01*
X137021251Y-124571523D01*
X137026233Y-124573846D01*
X137026238Y-124573849D01*
X137128584Y-124621573D01*
X137228757Y-124668284D01*
X137234065Y-124669706D01*
X137234067Y-124669707D01*
X137444598Y-124726119D01*
X137444600Y-124726119D01*
X137449913Y-124727543D01*
X137678000Y-124747498D01*
X137906087Y-124727543D01*
X137911400Y-124726119D01*
X137911402Y-124726119D01*
X138121933Y-124669707D01*
X138121935Y-124669706D01*
X138127243Y-124668284D01*
X138227416Y-124621573D01*
X138329762Y-124573849D01*
X138329767Y-124573846D01*
X138334749Y-124571523D01*
X138499563Y-124456119D01*
X138517789Y-124443357D01*
X138517792Y-124443355D01*
X138522300Y-124440198D01*
X138684198Y-124278300D01*
X138702442Y-124252246D01*
X138812366Y-124095257D01*
X138815523Y-124090749D01*
X138817846Y-124085767D01*
X138817849Y-124085762D01*
X138834081Y-124050951D01*
X138880998Y-123997666D01*
X138949275Y-123978205D01*
X139017235Y-123998747D01*
X139062471Y-124050951D01*
X139078586Y-124085511D01*
X139084069Y-124095007D01*
X139209028Y-124273467D01*
X139216084Y-124281875D01*
X139370125Y-124435916D01*
X139378533Y-124442972D01*
X139556993Y-124567931D01*
X139566489Y-124573414D01*
X139763947Y-124665490D01*
X139774239Y-124669236D01*
X139946503Y-124715394D01*
X139960599Y-124715058D01*
X139964000Y-124707116D01*
X139964000Y-124701967D01*
X140472000Y-124701967D01*
X140475973Y-124715498D01*
X140484522Y-124716727D01*
X140661761Y-124669236D01*
X140672053Y-124665490D01*
X140869511Y-124573414D01*
X140879007Y-124567931D01*
X141057467Y-124442972D01*
X141065875Y-124435916D01*
X141219916Y-124281875D01*
X141226972Y-124273467D01*
X141351931Y-124095007D01*
X141357414Y-124085511D01*
X141373529Y-124050951D01*
X141420446Y-123997666D01*
X141488723Y-123978205D01*
X141556683Y-123998747D01*
X141601919Y-124050951D01*
X141618151Y-124085762D01*
X141618154Y-124085767D01*
X141620477Y-124090749D01*
X141623634Y-124095257D01*
X141733559Y-124252246D01*
X141751802Y-124278300D01*
X141913700Y-124440198D01*
X141918208Y-124443355D01*
X141918211Y-124443357D01*
X141936437Y-124456119D01*
X142101251Y-124571523D01*
X142106233Y-124573846D01*
X142106238Y-124573849D01*
X142208584Y-124621573D01*
X142308757Y-124668284D01*
X142314065Y-124669706D01*
X142314067Y-124669707D01*
X142524598Y-124726119D01*
X142524600Y-124726119D01*
X142529913Y-124727543D01*
X142758000Y-124747498D01*
X142986087Y-124727543D01*
X142991400Y-124726119D01*
X142991402Y-124726119D01*
X143201933Y-124669707D01*
X143201935Y-124669706D01*
X143207243Y-124668284D01*
X143307416Y-124621573D01*
X143409762Y-124573849D01*
X143409767Y-124573846D01*
X143414749Y-124571523D01*
X143579563Y-124456119D01*
X143597789Y-124443357D01*
X143597792Y-124443355D01*
X143602300Y-124440198D01*
X143764198Y-124278300D01*
X143782442Y-124252246D01*
X143892366Y-124095257D01*
X143895523Y-124090749D01*
X143897846Y-124085767D01*
X143897849Y-124085762D01*
X143989961Y-123888225D01*
X143989961Y-123888224D01*
X143992284Y-123883243D01*
X144009267Y-123819864D01*
X144050119Y-123667402D01*
X144050119Y-123667400D01*
X144051543Y-123662087D01*
X144071498Y-123434000D01*
X144051543Y-123205913D01*
X143992284Y-122984757D01*
X143925247Y-122840994D01*
X143897849Y-122782238D01*
X143897846Y-122782233D01*
X143895523Y-122777251D01*
X143764198Y-122589700D01*
X143602300Y-122427802D01*
X143597792Y-122424645D01*
X143597789Y-122424643D01*
X143519611Y-122369902D01*
X143414749Y-122296477D01*
X143409767Y-122294154D01*
X143409762Y-122294151D01*
X143212225Y-122202039D01*
X143212224Y-122202039D01*
X143207243Y-122199716D01*
X143201935Y-122198294D01*
X143201933Y-122198293D01*
X142991402Y-122141881D01*
X142991400Y-122141881D01*
X142986087Y-122140457D01*
X142758000Y-122120502D01*
X142529913Y-122140457D01*
X142524600Y-122141881D01*
X142524598Y-122141881D01*
X142314067Y-122198293D01*
X142314065Y-122198294D01*
X142308757Y-122199716D01*
X142303776Y-122202039D01*
X142303775Y-122202039D01*
X142106238Y-122294151D01*
X142106233Y-122294154D01*
X142101251Y-122296477D01*
X141996389Y-122369902D01*
X141918211Y-122424643D01*
X141918208Y-122424645D01*
X141913700Y-122427802D01*
X141751802Y-122589700D01*
X141620477Y-122777251D01*
X141618154Y-122782233D01*
X141618151Y-122782238D01*
X141601919Y-122817049D01*
X141555002Y-122870334D01*
X141486725Y-122889795D01*
X141418765Y-122869253D01*
X141373529Y-122817049D01*
X141357414Y-122782489D01*
X141351931Y-122772993D01*
X141226972Y-122594533D01*
X141219916Y-122586125D01*
X141065875Y-122432084D01*
X141057467Y-122425028D01*
X140879007Y-122300069D01*
X140869511Y-122294586D01*
X140672053Y-122202510D01*
X140661761Y-122198764D01*
X140489497Y-122152606D01*
X140475401Y-122152942D01*
X140472000Y-122160884D01*
X140472000Y-124701967D01*
X139964000Y-124701967D01*
X139964000Y-122166033D01*
X139960027Y-122152502D01*
X139951478Y-122151273D01*
X139774239Y-122198764D01*
X139763947Y-122202510D01*
X139566489Y-122294586D01*
X139556993Y-122300069D01*
X139378533Y-122425028D01*
X139370125Y-122432084D01*
X139216084Y-122586125D01*
X139209028Y-122594533D01*
X139084069Y-122772993D01*
X139078586Y-122782489D01*
X139062471Y-122817049D01*
X139015554Y-122870334D01*
X138947277Y-122889795D01*
X138879317Y-122869253D01*
X138834081Y-122817049D01*
X138817849Y-122782238D01*
X138817846Y-122782233D01*
X138815523Y-122777251D01*
X138684198Y-122589700D01*
X138522300Y-122427802D01*
X138517792Y-122424645D01*
X138517789Y-122424643D01*
X138439611Y-122369902D01*
X138334749Y-122296477D01*
X138329767Y-122294154D01*
X138329762Y-122294151D01*
X138132225Y-122202039D01*
X138132224Y-122202039D01*
X138127243Y-122199716D01*
X138121935Y-122198294D01*
X138121933Y-122198293D01*
X137911402Y-122141881D01*
X137911400Y-122141881D01*
X137906087Y-122140457D01*
X137678000Y-122120502D01*
X137449913Y-122140457D01*
X137444600Y-122141881D01*
X137444598Y-122141881D01*
X137234067Y-122198293D01*
X137234065Y-122198294D01*
X137228757Y-122199716D01*
X137223776Y-122202039D01*
X137223775Y-122202039D01*
X137026238Y-122294151D01*
X137026233Y-122294154D01*
X137021251Y-122296477D01*
X136916389Y-122369902D01*
X136838211Y-122424643D01*
X136838208Y-122424645D01*
X136833700Y-122427802D01*
X136671802Y-122589700D01*
X136540477Y-122777251D01*
X136538154Y-122782233D01*
X136538151Y-122782238D01*
X136522195Y-122816457D01*
X136475278Y-122869742D01*
X136407001Y-122889203D01*
X136339041Y-122868661D01*
X136293805Y-122816457D01*
X136277849Y-122782238D01*
X136277846Y-122782233D01*
X136275523Y-122777251D01*
X136144198Y-122589700D01*
X135982300Y-122427802D01*
X135977792Y-122424645D01*
X135977789Y-122424643D01*
X135899611Y-122369902D01*
X135794749Y-122296477D01*
X135789767Y-122294154D01*
X135789762Y-122294151D01*
X135592225Y-122202039D01*
X135592224Y-122202039D01*
X135587243Y-122199716D01*
X135581935Y-122198294D01*
X135581933Y-122198293D01*
X135371402Y-122141881D01*
X135371400Y-122141881D01*
X135366087Y-122140457D01*
X135138000Y-122120502D01*
X134909913Y-122140457D01*
X134904600Y-122141881D01*
X134904598Y-122141881D01*
X134694067Y-122198293D01*
X134694065Y-122198294D01*
X134688757Y-122199716D01*
X134683776Y-122202039D01*
X134683775Y-122202039D01*
X134486238Y-122294151D01*
X134486233Y-122294154D01*
X134481251Y-122296477D01*
X134376389Y-122369902D01*
X134298211Y-122424643D01*
X134298208Y-122424645D01*
X134293700Y-122427802D01*
X134131802Y-122589700D01*
X134000477Y-122777251D01*
X133998154Y-122782233D01*
X133998151Y-122782238D01*
X133970753Y-122840994D01*
X133903716Y-122984757D01*
X133844457Y-123205913D01*
X133824502Y-123434000D01*
X74731305Y-123434000D01*
X74879426Y-123205913D01*
X74901822Y-123171426D01*
X74901824Y-123171423D01*
X74903620Y-123168657D01*
X74994617Y-122990067D01*
X75069075Y-122843934D01*
X75070573Y-122840994D01*
X75168408Y-122586125D01*
X75201175Y-122500764D01*
X75201176Y-122500762D01*
X75202361Y-122497674D01*
X75297541Y-122142459D01*
X75355069Y-121779241D01*
X75374315Y-121412000D01*
X75355069Y-121044759D01*
X75297541Y-120681541D01*
X75202361Y-120326326D01*
X75070573Y-119983006D01*
X74903620Y-119655343D01*
X74703332Y-119346925D01*
X74698673Y-119341171D01*
X74473987Y-119063708D01*
X74471902Y-119061133D01*
X74243864Y-118833095D01*
X74209838Y-118770783D01*
X74214903Y-118699968D01*
X74257450Y-118643132D01*
X74323970Y-118618321D01*
X74332959Y-118618000D01*
X162653041Y-118618000D01*
X162721162Y-118638002D01*
G37*
%TD.AperFunction*%
%TD*%
M02*
