%TF.GenerationSoftware,KiCad,Pcbnew,(6.0.0-0)*%
%TF.CreationDate,2022-11-16T00:40:36-05:00*%
%TF.ProjectId,amplifier,616d706c-6966-4696-9572-2e6b69636164,rev?*%
%TF.SameCoordinates,Original*%
%TF.FileFunction,Soldermask,Top*%
%TF.FilePolarity,Negative*%
%FSLAX46Y46*%
G04 Gerber Fmt 4.6, Leading zero omitted, Abs format (unit mm)*
G04 Created by KiCad (PCBNEW (6.0.0-0)) date 2022-11-16 00:40:36*
%MOMM*%
%LPD*%
G01*
G04 APERTURE LIST*
G04 Aperture macros list*
%AMRoundRect*
0 Rectangle with rounded corners*
0 $1 Rounding radius*
0 $2 $3 $4 $5 $6 $7 $8 $9 X,Y pos of 4 corners*
0 Add a 4 corners polygon primitive as box body*
4,1,4,$2,$3,$4,$5,$6,$7,$8,$9,$2,$3,0*
0 Add four circle primitives for the rounded corners*
1,1,$1+$1,$2,$3*
1,1,$1+$1,$4,$5*
1,1,$1+$1,$6,$7*
1,1,$1+$1,$8,$9*
0 Add four rect primitives between the rounded corners*
20,1,$1+$1,$2,$3,$4,$5,0*
20,1,$1+$1,$4,$5,$6,$7,0*
20,1,$1+$1,$6,$7,$8,$9,0*
20,1,$1+$1,$8,$9,$2,$3,0*%
%AMRotRect*
0 Rectangle, with rotation*
0 The origin of the aperture is its center*
0 $1 length*
0 $2 width*
0 $3 Rotation angle, in degrees counterclockwise*
0 Add horizontal line*
21,1,$1,$2,0,0,$3*%
G04 Aperture macros list end*
%ADD10C,6.000000*%
%ADD11C,0.800000*%
%ADD12R,1.600000X1.600000*%
%ADD13O,1.600000X1.600000*%
%ADD14C,2.340000*%
%ADD15RoundRect,0.250000X0.262500X0.450000X-0.262500X0.450000X-0.262500X-0.450000X0.262500X-0.450000X0*%
%ADD16RoundRect,0.250000X-0.450000X0.262500X-0.450000X-0.262500X0.450000X-0.262500X0.450000X0.262500X0*%
%ADD17R,3.000000X8.500000*%
%ADD18RotRect,3.000000X6.500000X315.000000*%
%ADD19C,2.500000*%
%ADD20RoundRect,0.250000X-1.950000X-1.000000X1.950000X-1.000000X1.950000X1.000000X-1.950000X1.000000X0*%
%ADD21RoundRect,0.250000X0.250000X0.475000X-0.250000X0.475000X-0.250000X-0.475000X0.250000X-0.475000X0*%
%ADD22RoundRect,0.250000X-0.475000X0.250000X-0.475000X-0.250000X0.475000X-0.250000X0.475000X0.250000X0*%
%ADD23RoundRect,0.250000X0.475000X-0.250000X0.475000X0.250000X-0.475000X0.250000X-0.475000X-0.250000X0*%
%ADD24RoundRect,0.250000X-0.250000X-0.475000X0.250000X-0.475000X0.250000X0.475000X-0.250000X0.475000X0*%
G04 APERTURE END LIST*
D10*
%TO.C,H4*%
X165125000Y-121412000D03*
D11*
X167375000Y-121412000D03*
X166715990Y-123002990D03*
X165125000Y-123662000D03*
X163534010Y-123002990D03*
X162875000Y-121412000D03*
X163534010Y-119821010D03*
X165125000Y-119162000D03*
X166715990Y-119821010D03*
%TD*%
D10*
%TO.C,H3*%
X71861000Y-121412000D03*
D11*
X74111000Y-121412000D03*
X73451990Y-123002990D03*
X71861000Y-123662000D03*
X70270010Y-123002990D03*
X69611000Y-121412000D03*
X70270010Y-119821010D03*
X71861000Y-119162000D03*
X73451990Y-119821010D03*
%TD*%
D10*
%TO.C,H2*%
X71861000Y-160274000D03*
D11*
X74111000Y-160274000D03*
X73451990Y-161864990D03*
X71861000Y-162524000D03*
X70270010Y-161864990D03*
X69611000Y-160274000D03*
X70270010Y-158683010D03*
X71861000Y-158024000D03*
X73451990Y-158683010D03*
%TD*%
D10*
%TO.C,H1*%
X165125000Y-160274000D03*
D11*
X167375000Y-160274000D03*
X166715990Y-161864990D03*
X165125000Y-162524000D03*
X163534010Y-161864990D03*
X162875000Y-160274000D03*
X163534010Y-158683010D03*
X165125000Y-158024000D03*
X166715990Y-158683010D03*
%TD*%
D12*
%TO.C,U1*%
X135138000Y-131054000D03*
D13*
X142758000Y-123434000D03*
X137678000Y-131054000D03*
X140218000Y-123434000D03*
X140218000Y-131054000D03*
X137678000Y-123434000D03*
X142758000Y-131054000D03*
X135138000Y-123434000D03*
%TD*%
D14*
%TO.C,RV3*%
X103378000Y-157220000D03*
X98378000Y-157220000D03*
X93378000Y-157220000D03*
%TD*%
%TO.C,RV2*%
X123444000Y-157220000D03*
X118444000Y-157220000D03*
X113444000Y-157220000D03*
%TD*%
%TO.C,RV1*%
X143837000Y-157226000D03*
X138837000Y-157226000D03*
X133837000Y-157226000D03*
%TD*%
D15*
%TO.C,R2*%
X147470500Y-122936000D03*
X145645500Y-122936000D03*
%TD*%
D16*
%TO.C,R1*%
X128270000Y-126153500D03*
X128270000Y-127978500D03*
%TD*%
D17*
%TO.C,J3*%
X152109000Y-146304000D03*
D18*
X163319000Y-150286000D03*
%TD*%
D19*
%TO.C,J2*%
X72623000Y-129352000D03*
X72623000Y-133162000D03*
%TD*%
D17*
%TO.C,J1*%
X72561000Y-146305000D03*
D18*
X83771000Y-150287000D03*
%TD*%
D20*
%TO.C,C9*%
X153788000Y-130556000D03*
X162188000Y-130556000D03*
%TD*%
D21*
%TO.C,C8*%
X147508000Y-120650000D03*
X145608000Y-120650000D03*
%TD*%
D22*
%TO.C,C7*%
X93298000Y-131892000D03*
X93298000Y-133792000D03*
%TD*%
%TO.C,C6*%
X130556000Y-126050000D03*
X130556000Y-127950000D03*
%TD*%
D23*
%TO.C,C5*%
X125984000Y-128016000D03*
X125984000Y-126116000D03*
%TD*%
%TO.C,C4*%
X145796000Y-128204000D03*
X145796000Y-126304000D03*
%TD*%
D24*
%TO.C,C3*%
X137988000Y-134112000D03*
X139888000Y-134112000D03*
%TD*%
D22*
%TO.C,C2*%
X84053000Y-130114000D03*
X84053000Y-132014000D03*
%TD*%
%TO.C,C1*%
X81513000Y-130114000D03*
X81513000Y-132014000D03*
%TD*%
M02*
