%TF.GenerationSoftware,KiCad,Pcbnew,(6.0.0-0)*%
%TF.CreationDate,2022-11-10T22:51:00-05:00*%
%TF.ProjectId,VCA,5643412e-6b69-4636-9164-5f7063625858,rev?*%
%TF.SameCoordinates,Original*%
%TF.FileFunction,Legend,Bot*%
%TF.FilePolarity,Positive*%
%FSLAX46Y46*%
G04 Gerber Fmt 4.6, Leading zero omitted, Abs format (unit mm)*
G04 Created by KiCad (PCBNEW (6.0.0-0)) date 2022-11-10 22:51:00*
%MOMM*%
%LPD*%
G01*
G04 APERTURE LIST*
%ADD10C,0.150000*%
%ADD11C,0.120000*%
G04 APERTURE END LIST*
D10*
X106469143Y-131125571D02*
X106326286Y-131173190D01*
X106278667Y-131220809D01*
X106231048Y-131316047D01*
X106231048Y-131458904D01*
X106278667Y-131554142D01*
X106326286Y-131601761D01*
X106421524Y-131649380D01*
X106802476Y-131649380D01*
X106802476Y-130649380D01*
X106469143Y-130649380D01*
X106373905Y-130697000D01*
X106326286Y-130744619D01*
X106278667Y-130839857D01*
X106278667Y-130935095D01*
X106326286Y-131030333D01*
X106373905Y-131077952D01*
X106469143Y-131125571D01*
X106802476Y-131125571D01*
X106802476Y-127839380D02*
X106802476Y-126839380D01*
X106564381Y-126839380D01*
X106421524Y-126887000D01*
X106326286Y-126982238D01*
X106278667Y-127077476D01*
X106231048Y-127267952D01*
X106231048Y-127410809D01*
X106278667Y-127601285D01*
X106326286Y-127696523D01*
X106421524Y-127791761D01*
X106564381Y-127839380D01*
X106802476Y-127839380D01*
X106778667Y-119933666D02*
X106302476Y-119933666D01*
X106873905Y-120219380D02*
X106540572Y-119219380D01*
X106207238Y-120219380D01*
X109977333Y-116679380D02*
X109405905Y-116679380D01*
X109691619Y-117679380D02*
X109691619Y-116679380D01*
X108691619Y-117631761D02*
X108786857Y-117679380D01*
X108977333Y-117679380D01*
X109072572Y-117631761D01*
X109120191Y-117536523D01*
X109120191Y-117155571D01*
X109072572Y-117060333D01*
X108977333Y-117012714D01*
X108786857Y-117012714D01*
X108691619Y-117060333D01*
X108644000Y-117155571D01*
X108644000Y-117250809D01*
X109120191Y-117346047D01*
X108263048Y-117631761D02*
X108167810Y-117679380D01*
X107977333Y-117679380D01*
X107882095Y-117631761D01*
X107834476Y-117536523D01*
X107834476Y-117488904D01*
X107882095Y-117393666D01*
X107977333Y-117346047D01*
X108120191Y-117346047D01*
X108215429Y-117298428D01*
X108263048Y-117203190D01*
X108263048Y-117155571D01*
X108215429Y-117060333D01*
X108120191Y-117012714D01*
X107977333Y-117012714D01*
X107882095Y-117060333D01*
X107548762Y-117012714D02*
X107167810Y-117012714D01*
X107405905Y-116679380D02*
X107405905Y-117536523D01*
X107358286Y-117631761D01*
X107263048Y-117679380D01*
X107167810Y-117679380D01*
X106231048Y-123934142D02*
X106278667Y-123981761D01*
X106421524Y-124029380D01*
X106516762Y-124029380D01*
X106659619Y-123981761D01*
X106754857Y-123886523D01*
X106802476Y-123791285D01*
X106850095Y-123600809D01*
X106850095Y-123457952D01*
X106802476Y-123267476D01*
X106754857Y-123172238D01*
X106659619Y-123077000D01*
X106516762Y-123029380D01*
X106421524Y-123029380D01*
X106278667Y-123077000D01*
X106231048Y-123124619D01*
D11*
%TO.C,R1*%
X120029508Y-117708000D02*
X120483636Y-117708000D01*
X120029508Y-116238000D02*
X120483636Y-116238000D01*
%TO.C,R10*%
X113679572Y-127614064D02*
X113679572Y-127159936D01*
X115149572Y-127614064D02*
X115149572Y-127159936D01*
%TO.C,R7*%
X118454772Y-127159936D02*
X118454772Y-127614064D01*
X119924772Y-127159936D02*
X119924772Y-127614064D01*
%TO.C,TP2*%
X110534572Y-132397000D02*
X110534572Y-129997000D01*
X110534572Y-129997000D02*
X108134572Y-129997000D01*
X108134572Y-129997000D02*
X108134572Y-132397000D01*
X108134572Y-132397000D02*
X110534572Y-132397000D01*
%TO.C,J1*%
X124351000Y-54334500D02*
X124351000Y-53024500D01*
X135101000Y-46524500D02*
X109501000Y-46524500D01*
X136401000Y-45214500D02*
X108201000Y-45214500D01*
X108201000Y-45214500D02*
X108201000Y-54334500D01*
X109501000Y-46524500D02*
X109501000Y-53024500D01*
X135101000Y-53024500D02*
X135101000Y-46524500D01*
X131191000Y-54724500D02*
X131691000Y-55724500D01*
X109501000Y-53024500D02*
X120251000Y-53024500D01*
X124351000Y-53024500D02*
X135101000Y-53024500D01*
X120251000Y-53024500D02*
X120251000Y-54334500D01*
X130691000Y-55724500D02*
X131191000Y-54724500D01*
X108201000Y-54334500D02*
X136401000Y-54334500D01*
X136401000Y-54334500D02*
X136401000Y-45214500D01*
X131691000Y-55724500D02*
X130691000Y-55724500D01*
X120251000Y-53024500D02*
X120251000Y-53024500D01*
%TO.C,Q2*%
X119530572Y-131451000D02*
X119530572Y-130801000D01*
X116410572Y-131451000D02*
X116410572Y-130801000D01*
X119530572Y-131451000D02*
X119530572Y-133126000D01*
X116410572Y-131451000D02*
X116410572Y-132101000D01*
%TO.C,TP3*%
X108134572Y-122377000D02*
X108134572Y-124777000D01*
X108134572Y-124777000D02*
X110534572Y-124777000D01*
X110534572Y-124777000D02*
X110534572Y-122377000D01*
X110534572Y-122377000D02*
X108134572Y-122377000D01*
%TO.C,R6*%
X120842372Y-127159936D02*
X120842372Y-127614064D01*
X122312372Y-127159936D02*
X122312372Y-127614064D01*
%TO.C,R14*%
X114284136Y-129700000D02*
X113830008Y-129700000D01*
X114284136Y-131170000D02*
X113830008Y-131170000D01*
%TO.C,R11*%
X117743508Y-121318000D02*
X118197636Y-121318000D01*
X117743508Y-122788000D02*
X118197636Y-122788000D01*
%TO.C,R9*%
X117537172Y-127614064D02*
X117537172Y-127159936D01*
X116067172Y-127614064D02*
X116067172Y-127159936D01*
%TO.C,R3*%
X127087572Y-127614064D02*
X127087572Y-127159936D01*
X125617572Y-127614064D02*
X125617572Y-127159936D01*
%TO.C,R5*%
X124699972Y-127159936D02*
X124699972Y-127614064D01*
X123229972Y-127159936D02*
X123229972Y-127614064D01*
%TO.C,R8*%
X117743508Y-125074000D02*
X118197636Y-125074000D01*
X117743508Y-123604000D02*
X118197636Y-123604000D01*
%TO.C,R4*%
X124293636Y-123604000D02*
X123839508Y-123604000D01*
X124293636Y-125074000D02*
X123839508Y-125074000D01*
%TO.C,Q1*%
X122506572Y-131451000D02*
X122506572Y-132101000D01*
X125626572Y-131451000D02*
X125626572Y-133126000D01*
X125626572Y-131451000D02*
X125626572Y-130801000D01*
X122506572Y-131451000D02*
X122506572Y-130801000D01*
%TO.C,U1*%
X128267572Y-127387000D02*
X128267572Y-125437000D01*
X137137572Y-127387000D02*
X137137572Y-130837000D01*
X128267572Y-127387000D02*
X128267572Y-129337000D01*
X137137572Y-127387000D02*
X137137572Y-125437000D01*
%TO.C,R13*%
X113830008Y-131732000D02*
X114284136Y-131732000D01*
X113830008Y-133202000D02*
X114284136Y-133202000D01*
%TO.C,R2*%
X123839508Y-121318000D02*
X124293636Y-121318000D01*
X123839508Y-122788000D02*
X124293636Y-122788000D01*
%TO.C,TP4*%
X108134572Y-128587000D02*
X110534572Y-128587000D01*
X108134572Y-126187000D02*
X108134572Y-128587000D01*
X110534572Y-128587000D02*
X110534572Y-126187000D01*
X110534572Y-126187000D02*
X108134572Y-126187000D01*
%TO.C,R12*%
X112409508Y-117708000D02*
X112863636Y-117708000D01*
X112409508Y-116238000D02*
X112863636Y-116238000D01*
%TO.C,TP1*%
X108134572Y-118567000D02*
X108134572Y-120967000D01*
X108134572Y-120967000D02*
X110534572Y-120967000D01*
X110534572Y-118567000D02*
X108134572Y-118567000D01*
X110534572Y-120967000D02*
X110534572Y-118567000D01*
%TD*%
M02*
