M48
; DRILL file {KiCad (6.0.0-0)} date Thursday, November 10, 2022 at 10:51:03 PM
; FORMAT={-:-/ absolute / inch / decimal}
; #@! TF.CreationDate,2022-11-10T22:51:03-05:00
; #@! TF.GenerationSoftware,Kicad,Pcbnew,(6.0.0-0)
; #@! TF.FileFunction,Plated,1,2,PTH
FMAT,2
INCH
; #@! TA.AperFunction,Plated,PTH,ViaDrill
T1C0.0157
; #@! TA.AperFunction,Plated,PTH,ComponentDrill
T2C0.0197
; #@! TA.AperFunction,Plated,PTH,ComponentDrill
T3C0.0394
; #@! TA.AperFunction,Plated,PTH,ComponentDrill
T4C0.0512
; #@! TA.AperFunction,Plated,PTH,ComponentDrill
T5C0.1181
%
G90
G05
T1
X4.31Y-5.45
X4.35Y-5.29
X4.4Y-5.13
X4.5045Y-4.9152
X4.5845Y-5.1352
X4.6086Y-4.7412
X4.7345Y-5.2152
X4.74Y-4.92
X4.7445Y-4.7957
X4.7968Y-4.891
X4.7995Y-5.2802
X4.9245Y-4.7352
X4.93Y-5.01
X5.0745Y-5.0252
X5.1245Y-5.0252
X5.13Y-4.72
X5.1745Y-5.1852
X5.2245Y-5.3545
X5.27Y-5.2
X5.4145Y-5.0352
T2
X4.2114Y-1.61
X4.2114Y-5.65
X4.2374Y-1.5474
X4.2374Y-1.6726
X4.2374Y-5.5874
X4.2374Y-5.7126
X4.3Y-1.5214
X4.3Y-1.6986
X4.3Y-5.5614
X4.3Y-5.7386
X4.3626Y-1.5474
X4.3626Y-1.6726
X4.3626Y-5.5874
X4.3626Y-5.7126
X4.3886Y-1.61
X4.3886Y-5.65
X5.2514Y-1.61
X5.2514Y-5.65
X5.2774Y-1.5474
X5.2774Y-1.6726
X5.2774Y-5.5874
X5.2774Y-5.7126
X5.34Y-1.5214
X5.34Y-1.6986
X5.34Y-5.5614
X5.34Y-5.7386
X5.4026Y-1.5474
X5.4026Y-1.6726
X5.4026Y-5.5874
X5.4026Y-5.7126
X5.4286Y-1.61
X5.4286Y-5.65
T3
X4.465Y-1.9096
X4.465Y-2.0096
X4.565Y-1.9096
X4.565Y-2.0096
X4.665Y-1.9096
X4.665Y-2.0096
X4.765Y-1.9096
X4.765Y-2.0096
X4.865Y-1.9096
X4.865Y-2.0096
X4.965Y-1.9096
X4.965Y-2.0096
X5.065Y-1.9096
X5.065Y-2.0096
X5.165Y-1.9096
X5.165Y-2.0096
T4
X4.6131Y-5.64
X4.81Y-5.64
X5.0069Y-5.64
T5
X4.3Y-1.61
X4.3Y-5.65
X5.34Y-1.61
X5.34Y-5.65
T3
G00X4.5935Y-2.5407
M15
G01X4.5935Y-2.777
M16
G05
G00X4.5935Y-3.2907
M15
G01X4.5935Y-3.527
M16
G05
G00X4.5935Y-4.0507
M15
G01X4.5935Y-4.287
M16
G05
G00X5.0906Y-2.76
M15
G01X4.9792Y-2.8713
M16
G05
G00X5.0906Y-3.51
M15
G01X4.9792Y-3.6213
M16
G05
G00X5.0906Y-4.27
M15
G01X4.9792Y-4.3813
M16
G05
T0
M30
