%TF.GenerationSoftware,KiCad,Pcbnew,(6.0.0-0)*%
%TF.CreationDate,2022-11-10T22:51:00-05:00*%
%TF.ProjectId,VCA,5643412e-6b69-4636-9164-5f7063625858,rev?*%
%TF.SameCoordinates,Original*%
%TF.FileFunction,Soldermask,Bot*%
%TF.FilePolarity,Negative*%
%FSLAX46Y46*%
G04 Gerber Fmt 4.6, Leading zero omitted, Abs format (unit mm)*
G04 Created by KiCad (PCBNEW (6.0.0-0)) date 2022-11-10 22:51:00*
%MOMM*%
%LPD*%
G01*
G04 APERTURE LIST*
G04 Aperture macros list*
%AMRoundRect*
0 Rectangle with rounded corners*
0 $1 Rounding radius*
0 $2 $3 $4 $5 $6 $7 $8 $9 X,Y pos of 4 corners*
0 Add a 4 corners polygon primitive as box body*
4,1,4,$2,$3,$4,$5,$6,$7,$8,$9,$2,$3,0*
0 Add four circle primitives for the rounded corners*
1,1,$1+$1,$2,$3*
1,1,$1+$1,$4,$5*
1,1,$1+$1,$6,$7*
1,1,$1+$1,$8,$9*
0 Add four rect primitives between the rounded corners*
20,1,$1+$1,$2,$3,$4,$5,0*
20,1,$1+$1,$4,$5,$6,$7,0*
20,1,$1+$1,$6,$7,$8,$9,0*
20,1,$1+$1,$8,$9,$2,$3,0*%
%AMRotRect*
0 Rectangle, with rotation*
0 The origin of the aperture is its center*
0 $1 length*
0 $2 width*
0 $3 Rotation angle, in degrees counterclockwise*
0 Add horizontal line*
21,1,$1,$2,0,0,$3*%
G04 Aperture macros list end*
%ADD10C,2.340000*%
%ADD11C,0.800000*%
%ADD12C,6.000000*%
%ADD13R,3.000000X8.500000*%
%ADD14RotRect,3.000000X6.500000X315.000000*%
%ADD15RoundRect,0.250000X-0.262500X-0.450000X0.262500X-0.450000X0.262500X0.450000X-0.262500X0.450000X0*%
%ADD16RoundRect,0.250000X0.450000X-0.262500X0.450000X0.262500X-0.450000X0.262500X-0.450000X-0.262500X0*%
%ADD17RoundRect,0.250000X-0.450000X0.262500X-0.450000X-0.262500X0.450000X-0.262500X0.450000X0.262500X0*%
%ADD18R,2.000000X2.000000*%
%ADD19RoundRect,0.250000X0.600000X-0.600000X0.600000X0.600000X-0.600000X0.600000X-0.600000X-0.600000X0*%
%ADD20C,1.700000*%
%ADD21RoundRect,0.150000X0.150000X-0.587500X0.150000X0.587500X-0.150000X0.587500X-0.150000X-0.587500X0*%
%ADD22RoundRect,0.250000X0.262500X0.450000X-0.262500X0.450000X-0.262500X-0.450000X0.262500X-0.450000X0*%
%ADD23RoundRect,0.150000X0.150000X-0.825000X0.150000X0.825000X-0.150000X0.825000X-0.150000X-0.825000X0*%
G04 APERTURE END LIST*
D10*
%TO.C,RV1*%
X127174000Y-143256000D03*
X122174000Y-143256000D03*
X117174000Y-143256000D03*
%TD*%
D11*
%TO.C,REF\u002A\u002A*%
X135636000Y-38644000D03*
X133386000Y-40894000D03*
X134045010Y-42484990D03*
X137226990Y-42484990D03*
X134045010Y-39303010D03*
X137226990Y-39303010D03*
X135636000Y-43144000D03*
X137886000Y-40894000D03*
D12*
X135636000Y-40894000D03*
%TD*%
D11*
%TO.C,REF\u002A\u002A*%
X135636000Y-145760000D03*
X137226990Y-145100990D03*
X137886000Y-143510000D03*
X134045010Y-141919010D03*
X137226990Y-141919010D03*
X133386000Y-143510000D03*
X134045010Y-145100990D03*
X135636000Y-141260000D03*
D12*
X135636000Y-143510000D03*
%TD*%
D11*
%TO.C,REF\u002A\u002A*%
X106970000Y-143510000D03*
X109220000Y-145760000D03*
D12*
X109220000Y-143510000D03*
D11*
X109220000Y-141260000D03*
X110810990Y-141919010D03*
X107629010Y-145100990D03*
X107629010Y-141919010D03*
X110810990Y-145100990D03*
X111470000Y-143510000D03*
%TD*%
D13*
%TO.C,J4*%
X116676000Y-105889000D03*
D14*
X127886000Y-109871000D03*
%TD*%
D11*
%TO.C,REF\u002A\u002A*%
X106970000Y-40894000D03*
X109220000Y-43144000D03*
D12*
X109220000Y-40894000D03*
D11*
X111470000Y-40894000D03*
X107629010Y-39303010D03*
X110810990Y-42484990D03*
X110810990Y-39303010D03*
X107629010Y-42484990D03*
X109220000Y-38644000D03*
%TD*%
D13*
%TO.C,J3*%
X116676000Y-67535000D03*
D14*
X127886000Y-71517000D03*
%TD*%
D13*
%TO.C,J2*%
X116676000Y-86585000D03*
D14*
X127886000Y-90567000D03*
%TD*%
D15*
%TO.C,R1*%
X119344072Y-116973000D03*
X121169072Y-116973000D03*
%TD*%
D16*
%TO.C,R10*%
X114414572Y-128299500D03*
X114414572Y-126474500D03*
%TD*%
D17*
%TO.C,R7*%
X119189772Y-126474500D03*
X119189772Y-128299500D03*
%TD*%
D18*
%TO.C,TP2*%
X109334572Y-131197000D03*
%TD*%
D19*
%TO.C,J1*%
X131191000Y-51044500D03*
D20*
X131191000Y-48504500D03*
X128651000Y-51044500D03*
X128651000Y-48504500D03*
X126111000Y-51044500D03*
X126111000Y-48504500D03*
X123571000Y-51044500D03*
X123571000Y-48504500D03*
X121031000Y-51044500D03*
X121031000Y-48504500D03*
X118491000Y-51044500D03*
X118491000Y-48504500D03*
X115951000Y-51044500D03*
X115951000Y-48504500D03*
X113411000Y-51044500D03*
X113411000Y-48504500D03*
%TD*%
D21*
%TO.C,Q2*%
X118920572Y-132388500D03*
X117020572Y-132388500D03*
X117970572Y-130513500D03*
%TD*%
D18*
%TO.C,TP3*%
X109334572Y-123577000D03*
%TD*%
D17*
%TO.C,R6*%
X121577372Y-126474500D03*
X121577372Y-128299500D03*
%TD*%
D22*
%TO.C,R14*%
X114969572Y-130435000D03*
X113144572Y-130435000D03*
%TD*%
D15*
%TO.C,R11*%
X117058072Y-122053000D03*
X118883072Y-122053000D03*
%TD*%
D16*
%TO.C,R9*%
X116802172Y-128299500D03*
X116802172Y-126474500D03*
%TD*%
%TO.C,R3*%
X126352572Y-128299500D03*
X126352572Y-126474500D03*
%TD*%
D17*
%TO.C,R5*%
X123964972Y-126474500D03*
X123964972Y-128299500D03*
%TD*%
D15*
%TO.C,R8*%
X117058072Y-124339000D03*
X118883072Y-124339000D03*
%TD*%
D22*
%TO.C,R4*%
X124979072Y-124339000D03*
X123154072Y-124339000D03*
%TD*%
D21*
%TO.C,Q1*%
X125016572Y-132388500D03*
X123116572Y-132388500D03*
X124066572Y-130513500D03*
%TD*%
D23*
%TO.C,U1*%
X136512572Y-129862000D03*
X135242572Y-129862000D03*
X133972572Y-129862000D03*
X132702572Y-129862000D03*
X131432572Y-129862000D03*
X130162572Y-129862000D03*
X128892572Y-129862000D03*
X128892572Y-124912000D03*
X130162572Y-124912000D03*
X131432572Y-124912000D03*
X132702572Y-124912000D03*
X133972572Y-124912000D03*
X135242572Y-124912000D03*
X136512572Y-124912000D03*
%TD*%
D15*
%TO.C,R13*%
X113144572Y-132467000D03*
X114969572Y-132467000D03*
%TD*%
%TO.C,R2*%
X123154072Y-122053000D03*
X124979072Y-122053000D03*
%TD*%
D18*
%TO.C,TP4*%
X109334572Y-127387000D03*
%TD*%
D15*
%TO.C,R12*%
X111724072Y-116973000D03*
X113549072Y-116973000D03*
%TD*%
D18*
%TO.C,TP1*%
X109334572Y-119767000D03*
%TD*%
M02*
