%TF.GenerationSoftware,KiCad,Pcbnew,(6.0.0-0)*%
%TF.CreationDate,2022-11-10T22:50:59-05:00*%
%TF.ProjectId,VCA,5643412e-6b69-4636-9164-5f7063625858,rev?*%
%TF.SameCoordinates,Original*%
%TF.FileFunction,Copper,L1,Top*%
%TF.FilePolarity,Positive*%
%FSLAX46Y46*%
G04 Gerber Fmt 4.6, Leading zero omitted, Abs format (unit mm)*
G04 Created by KiCad (PCBNEW (6.0.0-0)) date 2022-11-10 22:50:59*
%MOMM*%
%LPD*%
G01*
G04 APERTURE LIST*
G04 Aperture macros list*
%AMRoundRect*
0 Rectangle with rounded corners*
0 $1 Rounding radius*
0 $2 $3 $4 $5 $6 $7 $8 $9 X,Y pos of 4 corners*
0 Add a 4 corners polygon primitive as box body*
4,1,4,$2,$3,$4,$5,$6,$7,$8,$9,$2,$3,0*
0 Add four circle primitives for the rounded corners*
1,1,$1+$1,$2,$3*
1,1,$1+$1,$4,$5*
1,1,$1+$1,$6,$7*
1,1,$1+$1,$8,$9*
0 Add four rect primitives between the rounded corners*
20,1,$1+$1,$2,$3,$4,$5,0*
20,1,$1+$1,$4,$5,$6,$7,0*
20,1,$1+$1,$6,$7,$8,$9,0*
20,1,$1+$1,$8,$9,$2,$3,0*%
%AMRotRect*
0 Rectangle, with rotation*
0 The origin of the aperture is its center*
0 $1 length*
0 $2 width*
0 $3 Rotation angle, in degrees counterclockwise*
0 Add horizontal line*
21,1,$1,$2,0,0,$3*%
G04 Aperture macros list end*
%TA.AperFunction,ComponentPad*%
%ADD10C,2.340000*%
%TD*%
%TA.AperFunction,ComponentPad*%
%ADD11C,0.800000*%
%TD*%
%TA.AperFunction,ComponentPad*%
%ADD12C,6.000000*%
%TD*%
%TA.AperFunction,ComponentPad*%
%ADD13R,3.000000X8.500000*%
%TD*%
%TA.AperFunction,ComponentPad*%
%ADD14RotRect,3.000000X6.500000X315.000000*%
%TD*%
%TA.AperFunction,ComponentPad*%
%ADD15RoundRect,0.250000X0.600000X-0.600000X0.600000X0.600000X-0.600000X0.600000X-0.600000X-0.600000X0*%
%TD*%
%TA.AperFunction,ComponentPad*%
%ADD16C,1.700000*%
%TD*%
%TA.AperFunction,ViaPad*%
%ADD17C,0.800000*%
%TD*%
%TA.AperFunction,Conductor*%
%ADD18C,1.000000*%
%TD*%
%TA.AperFunction,Conductor*%
%ADD19C,0.250000*%
%TD*%
%TA.AperFunction,Conductor*%
%ADD20C,0.300000*%
%TD*%
G04 APERTURE END LIST*
D10*
%TO.P,RV1,1,1*%
%TO.N,+12V*%
X127174000Y-143256000D03*
%TO.P,RV1,2,2*%
%TO.N,Net-(R14-Pad2)*%
X122174000Y-143256000D03*
%TO.P,RV1,3,3*%
%TO.N,-12V*%
X117174000Y-143256000D03*
%TD*%
D11*
%TO.P,REF\u002A\u002A,1*%
%TO.N,N/C*%
X135636000Y-38644000D03*
X133386000Y-40894000D03*
X134045010Y-42484990D03*
X137226990Y-42484990D03*
X134045010Y-39303010D03*
X137226990Y-39303010D03*
X135636000Y-43144000D03*
X137886000Y-40894000D03*
D12*
X135636000Y-40894000D03*
%TD*%
D11*
%TO.P,REF\u002A\u002A,1*%
%TO.N,N/C*%
X135636000Y-145760000D03*
X137226990Y-145100990D03*
X137886000Y-143510000D03*
X134045010Y-141919010D03*
X137226990Y-141919010D03*
X133386000Y-143510000D03*
X134045010Y-145100990D03*
X135636000Y-141260000D03*
D12*
X135636000Y-143510000D03*
%TD*%
D11*
%TO.P,REF\u002A\u002A,1*%
%TO.N,N/C*%
X106970000Y-143510000D03*
X109220000Y-145760000D03*
D12*
X109220000Y-143510000D03*
D11*
X109220000Y-141260000D03*
X110810990Y-141919010D03*
X107629010Y-145100990D03*
X107629010Y-141919010D03*
X110810990Y-145100990D03*
X111470000Y-143510000D03*
%TD*%
D13*
%TO.P,J4,*%
%TO.N,*%
X116676000Y-105889000D03*
D14*
%TO.P,J4,1,Pin_1*%
%TO.N,CV*%
X127886000Y-109871000D03*
%TD*%
D11*
%TO.P,REF\u002A\u002A,1*%
%TO.N,N/C*%
X106970000Y-40894000D03*
X109220000Y-43144000D03*
D12*
X109220000Y-40894000D03*
D11*
X111470000Y-40894000D03*
X107629010Y-39303010D03*
X110810990Y-42484990D03*
X110810990Y-39303010D03*
X107629010Y-42484990D03*
X109220000Y-38644000D03*
%TD*%
D13*
%TO.P,J3,*%
%TO.N,*%
X116676000Y-67535000D03*
D14*
%TO.P,J3,1,Pin_1*%
%TO.N,SIGNAL*%
X127886000Y-71517000D03*
%TD*%
D13*
%TO.P,J2,*%
%TO.N,*%
X116676000Y-86585000D03*
D14*
%TO.P,J2,1,Pin_1*%
%TO.N,OUT*%
X127886000Y-90567000D03*
%TD*%
D15*
%TO.P,J1,1,Pin_1*%
%TO.N,-12V*%
X131191000Y-51044500D03*
D16*
%TO.P,J1,2,Pin_2*%
X131191000Y-48504500D03*
%TO.P,J1,3,Pin_3*%
%TO.N,GND*%
X128651000Y-51044500D03*
%TO.P,J1,4,Pin_4*%
X128651000Y-48504500D03*
%TO.P,J1,5,Pin_5*%
X126111000Y-51044500D03*
%TO.P,J1,6,Pin_6*%
X126111000Y-48504500D03*
%TO.P,J1,7,Pin_7*%
X123571000Y-51044500D03*
%TO.P,J1,8,Pin_8*%
X123571000Y-48504500D03*
%TO.P,J1,9,Pin_9*%
%TO.N,+12V*%
X121031000Y-51044500D03*
%TO.P,J1,10,Pin_10*%
X121031000Y-48504500D03*
%TO.P,J1,11,Pin_11*%
%TO.N,+5V*%
X118491000Y-51044500D03*
%TO.P,J1,12,Pin_12*%
X118491000Y-48504500D03*
%TO.P,J1,13,Pin_13*%
%TO.N,unconnected-(J1-Pad13)*%
X115951000Y-51044500D03*
%TO.P,J1,14,Pin_14*%
X115951000Y-48504500D03*
%TO.P,J1,15,Pin_15*%
%TO.N,unconnected-(J1-Pad15)*%
X113411000Y-51044500D03*
%TO.P,J1,16,Pin_16*%
X113411000Y-48504500D03*
%TD*%
D17*
%TO.N,+12V*%
X132702572Y-136004572D03*
X120396000Y-124968000D03*
%TO.N,GND*%
X125222000Y-127254000D03*
X133858000Y-132080000D03*
X110490000Y-134366000D03*
X109474000Y-138430000D03*
%TO.N,SIGNAL*%
X130302000Y-119888000D03*
%TO.N,Net-(Q1-Pad2)*%
X121839521Y-124231373D03*
X121907572Y-134118000D03*
%TO.N,Net-(R2-Pad2)*%
X125082572Y-120275000D03*
X137528572Y-127895000D03*
%TO.N,Net-(R11-Pad2)*%
X130162572Y-127641000D03*
X120510572Y-121811500D03*
%TO.N,Net-(R10-Pad2)*%
X114414572Y-124847000D03*
X131432572Y-131705000D03*
%TO.N,Net-(R11-Pad1)*%
X117058072Y-120425500D03*
X128892572Y-127641000D03*
%TO.N,Net-(Q2-Pad1)*%
X116446572Y-130435000D03*
X120256572Y-132467000D03*
%TO.N,Net-(R14-Pad2)*%
X111760000Y-130302000D03*
%TD*%
D18*
%TO.N,+12V*%
X132702572Y-139077428D02*
X132702572Y-136004572D01*
X128524000Y-143256000D02*
X132702572Y-139077428D01*
X121031000Y-51044500D02*
X121031000Y-48504500D01*
X127174000Y-143256000D02*
X128524000Y-143256000D01*
%TO.N,-12V*%
X131191000Y-51044500D02*
X131191000Y-48504500D01*
X131191000Y-52705000D02*
X129032000Y-54864000D01*
X113792000Y-54864000D02*
X108966000Y-59690000D01*
X131191000Y-51044500D02*
X131191000Y-52705000D01*
X108966000Y-59690000D02*
X108966000Y-131064000D01*
X117174000Y-139272000D02*
X117174000Y-143256000D01*
X129032000Y-54864000D02*
X113792000Y-54864000D01*
X108966000Y-131064000D02*
X117174000Y-139272000D01*
D19*
%TO.N,GND*%
X130810000Y-132842000D02*
X132080000Y-132842000D01*
D18*
X123571000Y-48504500D02*
X123571000Y-51044500D01*
X128651000Y-48504500D02*
X128651000Y-51044500D01*
D19*
X110490000Y-134366000D02*
X109474000Y-135382000D01*
D18*
X126111000Y-51044500D02*
X126111000Y-48504500D01*
D19*
X132080000Y-132842000D02*
X133096000Y-132842000D01*
D18*
X128651000Y-51044500D02*
X123571000Y-51044500D01*
D19*
X133096000Y-132842000D02*
X133858000Y-132080000D01*
X125222000Y-127254000D02*
X130810000Y-132842000D01*
D18*
X123571000Y-48504500D02*
X128651000Y-48504500D01*
D19*
X109474000Y-135382000D02*
X109474000Y-138430000D01*
D20*
%TO.N,SIGNAL*%
X132588000Y-76219000D02*
X127886000Y-71517000D01*
X130302000Y-119888000D02*
X132588000Y-117602000D01*
X132588000Y-117602000D02*
X132588000Y-76219000D01*
%TO.N,Net-(Q1-Pad2)*%
X121907572Y-134118000D02*
X123050572Y-132975000D01*
X123050572Y-125442424D02*
X121839521Y-124231373D01*
X123050572Y-132975000D02*
X123050572Y-125442424D01*
%TO.N,Net-(R2-Pad2)*%
X125082572Y-120275000D02*
X132702572Y-127895000D01*
X137528572Y-127895000D02*
X132702572Y-127895000D01*
%TO.N,Net-(R11-Pad2)*%
X124333072Y-121811500D02*
X120510572Y-121811500D01*
X130162572Y-127641000D02*
X124333072Y-121811500D01*
%TO.N,Net-(R10-Pad2)*%
X115938572Y-123323000D02*
X114414572Y-124847000D01*
X131432572Y-131705000D02*
X123050572Y-123323000D01*
X115938572Y-123323000D02*
X123050572Y-123323000D01*
%TO.N,Net-(R11-Pad1)*%
X119193572Y-122561000D02*
X117058072Y-120425500D01*
X128892572Y-127641000D02*
X123812572Y-122561000D01*
X123812572Y-122561000D02*
X119193572Y-122561000D01*
%TO.N,Net-(Q2-Pad1)*%
X118478572Y-132467000D02*
X116446572Y-130435000D01*
X120256572Y-132467000D02*
X118478572Y-132467000D01*
D18*
%TO.N,Net-(R14-Pad2)*%
X122174000Y-140716000D02*
X111760000Y-130302000D01*
X122174000Y-143256000D02*
X122174000Y-140716000D01*
%TO.N,+5V*%
X118491000Y-48504500D02*
X118491000Y-51044500D01*
D19*
%TO.N,unconnected-(J1-Pad13)*%
X115951000Y-51044500D02*
X115951000Y-48504500D01*
%TO.N,unconnected-(J1-Pad15)*%
X113411000Y-48504500D02*
X113411000Y-51044500D01*
%TD*%
%TA.AperFunction,Conductor*%
%TO.N,+12V*%
G36*
X134497766Y-37358002D02*
G01*
X134544259Y-37411658D01*
X134554363Y-37481932D01*
X134524869Y-37546512D01*
X134474799Y-37581631D01*
X134207006Y-37684427D01*
X134204066Y-37685925D01*
X133882284Y-37849881D01*
X133882277Y-37849885D01*
X133879343Y-37851380D01*
X133570925Y-38051668D01*
X133285133Y-38283098D01*
X133025098Y-38543133D01*
X132793668Y-38828925D01*
X132593380Y-39137343D01*
X132426427Y-39465006D01*
X132294639Y-39808326D01*
X132199459Y-40163541D01*
X132141931Y-40526759D01*
X132122685Y-40894000D01*
X132141931Y-41261241D01*
X132199459Y-41624459D01*
X132294639Y-41979674D01*
X132426427Y-42322994D01*
X132593380Y-42650657D01*
X132793668Y-42959075D01*
X133025098Y-43244867D01*
X133285133Y-43504902D01*
X133570925Y-43736332D01*
X133879342Y-43936620D01*
X133882276Y-43938115D01*
X133882283Y-43938119D01*
X134204066Y-44102075D01*
X134207006Y-44103573D01*
X134550326Y-44235361D01*
X134905541Y-44330541D01*
X135098558Y-44361112D01*
X135265511Y-44387555D01*
X135265519Y-44387556D01*
X135268759Y-44388069D01*
X135636000Y-44407315D01*
X136003241Y-44388069D01*
X136006481Y-44387556D01*
X136006489Y-44387555D01*
X136173442Y-44361112D01*
X136366459Y-44330541D01*
X136721674Y-44235361D01*
X137064994Y-44103573D01*
X137067934Y-44102075D01*
X137389717Y-43938119D01*
X137389724Y-43938115D01*
X137392658Y-43936620D01*
X137701075Y-43736332D01*
X137986867Y-43504902D01*
X138246902Y-43244867D01*
X138478332Y-42959075D01*
X138678620Y-42650657D01*
X138797587Y-42417173D01*
X138826733Y-42359970D01*
X138875481Y-42308355D01*
X138944396Y-42291289D01*
X139011598Y-42314190D01*
X139055750Y-42369787D01*
X139065000Y-42417173D01*
X139065000Y-141986827D01*
X139044998Y-142054948D01*
X138991342Y-142101441D01*
X138921068Y-142111545D01*
X138856488Y-142082051D01*
X138826733Y-142044030D01*
X138680119Y-141756284D01*
X138680115Y-141756277D01*
X138678620Y-141753343D01*
X138478332Y-141444925D01*
X138246902Y-141159133D01*
X137986867Y-140899098D01*
X137701075Y-140667668D01*
X137597526Y-140600423D01*
X137395427Y-140469178D01*
X137395424Y-140469176D01*
X137392658Y-140467380D01*
X137389724Y-140465885D01*
X137389717Y-140465881D01*
X137067934Y-140301925D01*
X137064994Y-140300427D01*
X136721674Y-140168639D01*
X136366459Y-140073459D01*
X136153976Y-140039805D01*
X136006489Y-140016445D01*
X136006481Y-140016444D01*
X136003241Y-140015931D01*
X135636000Y-139996685D01*
X135268759Y-140015931D01*
X135265519Y-140016444D01*
X135265511Y-140016445D01*
X135118024Y-140039805D01*
X134905541Y-140073459D01*
X134550326Y-140168639D01*
X134207006Y-140300427D01*
X134204066Y-140301925D01*
X133882284Y-140465881D01*
X133882277Y-140465885D01*
X133879343Y-140467380D01*
X133876577Y-140469176D01*
X133876574Y-140469178D01*
X133792362Y-140523866D01*
X133570925Y-140667668D01*
X133285133Y-140899098D01*
X133025098Y-141159133D01*
X132793668Y-141444925D01*
X132593380Y-141753343D01*
X132591885Y-141756277D01*
X132591881Y-141756284D01*
X132474414Y-141986827D01*
X132426427Y-142081006D01*
X132422842Y-142090345D01*
X132335139Y-142318821D01*
X132294639Y-142424326D01*
X132199459Y-142779541D01*
X132141931Y-143142759D01*
X132122685Y-143510000D01*
X132141931Y-143877241D01*
X132142444Y-143880481D01*
X132142445Y-143880489D01*
X132168888Y-144047442D01*
X132199459Y-144240459D01*
X132294639Y-144595674D01*
X132426427Y-144938994D01*
X132593380Y-145266657D01*
X132793668Y-145575075D01*
X133025098Y-145860867D01*
X133285133Y-146120902D01*
X133570925Y-146352332D01*
X133879342Y-146552620D01*
X133882285Y-146554120D01*
X133882291Y-146554123D01*
X133920778Y-146573733D01*
X133972394Y-146622481D01*
X133989460Y-146691396D01*
X133966560Y-146758597D01*
X133910962Y-146802750D01*
X133863576Y-146812000D01*
X110992424Y-146812000D01*
X110924303Y-146791998D01*
X110877810Y-146738342D01*
X110867706Y-146668068D01*
X110897200Y-146603488D01*
X110935222Y-146573733D01*
X110973709Y-146554123D01*
X110973715Y-146554120D01*
X110976658Y-146552620D01*
X111285075Y-146352332D01*
X111570867Y-146120902D01*
X111830902Y-145860867D01*
X112062332Y-145575075D01*
X112262620Y-145266657D01*
X112429573Y-144938994D01*
X112561361Y-144595674D01*
X112656541Y-144240459D01*
X112687112Y-144047442D01*
X112713555Y-143880489D01*
X112713556Y-143880481D01*
X112714069Y-143877241D01*
X112733315Y-143510000D01*
X112714069Y-143142759D01*
X112656541Y-142779541D01*
X112561361Y-142424326D01*
X112520862Y-142318821D01*
X112433158Y-142090345D01*
X112429573Y-142081006D01*
X112381586Y-141986827D01*
X112264119Y-141756284D01*
X112264115Y-141756277D01*
X112262620Y-141753343D01*
X112062332Y-141444925D01*
X111830902Y-141159133D01*
X111570867Y-140899098D01*
X111285075Y-140667668D01*
X111181526Y-140600423D01*
X110979427Y-140469178D01*
X110979424Y-140469176D01*
X110976658Y-140467380D01*
X110973724Y-140465885D01*
X110973717Y-140465881D01*
X110651934Y-140301925D01*
X110648994Y-140300427D01*
X110305674Y-140168639D01*
X109950459Y-140073459D01*
X109737976Y-140039805D01*
X109590489Y-140016445D01*
X109590481Y-140016444D01*
X109587241Y-140015931D01*
X109220000Y-139996685D01*
X108852759Y-140015931D01*
X108849519Y-140016444D01*
X108849511Y-140016445D01*
X108702024Y-140039805D01*
X108489541Y-140073459D01*
X108134326Y-140168639D01*
X107791006Y-140300427D01*
X107788066Y-140301925D01*
X107466284Y-140465881D01*
X107466277Y-140465885D01*
X107463343Y-140467380D01*
X107460577Y-140469176D01*
X107460574Y-140469178D01*
X107376362Y-140523866D01*
X107154925Y-140667668D01*
X106869133Y-140899098D01*
X106609098Y-141159133D01*
X106377668Y-141444925D01*
X106177380Y-141753343D01*
X106175885Y-141756277D01*
X106175881Y-141756284D01*
X106029267Y-142044030D01*
X105980519Y-142095645D01*
X105911604Y-142112711D01*
X105844402Y-142089810D01*
X105800250Y-142034213D01*
X105791000Y-141986827D01*
X105791000Y-59686462D01*
X107952626Y-59686462D01*
X107953206Y-59692593D01*
X107956941Y-59732109D01*
X107957500Y-59743967D01*
X107957500Y-131002157D01*
X107956763Y-131015764D01*
X107955637Y-131026134D01*
X107952676Y-131053388D01*
X107953213Y-131059523D01*
X107957050Y-131103388D01*
X107957379Y-131108214D01*
X107957500Y-131110686D01*
X107957500Y-131113769D01*
X107957801Y-131116837D01*
X107961690Y-131156506D01*
X107961812Y-131157819D01*
X107962708Y-131168056D01*
X107969913Y-131250413D01*
X107971400Y-131255532D01*
X107971920Y-131260833D01*
X107998791Y-131349834D01*
X107999126Y-131350967D01*
X108025091Y-131440336D01*
X108027544Y-131445068D01*
X108029084Y-131450169D01*
X108031978Y-131455612D01*
X108072731Y-131532260D01*
X108073343Y-131533426D01*
X108106923Y-131598206D01*
X108116108Y-131615926D01*
X108119431Y-131620089D01*
X108121934Y-131624796D01*
X108180755Y-131696918D01*
X108181446Y-131697774D01*
X108212738Y-131736973D01*
X108215242Y-131739477D01*
X108215884Y-131740195D01*
X108219585Y-131744528D01*
X108246935Y-131778062D01*
X108251682Y-131781989D01*
X108251684Y-131781991D01*
X108282262Y-131807287D01*
X108291042Y-131815277D01*
X109939008Y-133463243D01*
X109973034Y-133525555D01*
X109967969Y-133596370D01*
X109923975Y-133654273D01*
X109884093Y-133683249D01*
X109884088Y-133683254D01*
X109878747Y-133687134D01*
X109750960Y-133829056D01*
X109655473Y-133994444D01*
X109596458Y-134176072D01*
X109595768Y-134182633D01*
X109595768Y-134182635D01*
X109579093Y-134341292D01*
X109552080Y-134406949D01*
X109542878Y-134417218D01*
X109081742Y-134878353D01*
X109073463Y-134885887D01*
X109066982Y-134890000D01*
X109046508Y-134911803D01*
X109020357Y-134939651D01*
X109017602Y-134942493D01*
X108997865Y-134962230D01*
X108995385Y-134965427D01*
X108987682Y-134974447D01*
X108957414Y-135006679D01*
X108953595Y-135013625D01*
X108953593Y-135013628D01*
X108947652Y-135024434D01*
X108936801Y-135040953D01*
X108924386Y-135056959D01*
X108921241Y-135064228D01*
X108921238Y-135064232D01*
X108906826Y-135097537D01*
X108901609Y-135108187D01*
X108880305Y-135146940D01*
X108878334Y-135154615D01*
X108878334Y-135154616D01*
X108875267Y-135166562D01*
X108868863Y-135185266D01*
X108860819Y-135203855D01*
X108859580Y-135211678D01*
X108859577Y-135211688D01*
X108853901Y-135247524D01*
X108851495Y-135259144D01*
X108842472Y-135294289D01*
X108840500Y-135301970D01*
X108840500Y-135322224D01*
X108838949Y-135341934D01*
X108835780Y-135361943D01*
X108836526Y-135369835D01*
X108839941Y-135405961D01*
X108840500Y-135417819D01*
X108840500Y-137727476D01*
X108820498Y-137795597D01*
X108808142Y-137811779D01*
X108734960Y-137893056D01*
X108639473Y-138058444D01*
X108580458Y-138240072D01*
X108560496Y-138430000D01*
X108561186Y-138436565D01*
X108577923Y-138595805D01*
X108580458Y-138619928D01*
X108639473Y-138801556D01*
X108734960Y-138966944D01*
X108739378Y-138971851D01*
X108739379Y-138971852D01*
X108847307Y-139091718D01*
X108862747Y-139108866D01*
X109017248Y-139221118D01*
X109023276Y-139223802D01*
X109023278Y-139223803D01*
X109185681Y-139296109D01*
X109191712Y-139298794D01*
X109285112Y-139318647D01*
X109372056Y-139337128D01*
X109372061Y-139337128D01*
X109378513Y-139338500D01*
X109569487Y-139338500D01*
X109575939Y-139337128D01*
X109575944Y-139337128D01*
X109662888Y-139318647D01*
X109756288Y-139298794D01*
X109762319Y-139296109D01*
X109924722Y-139223803D01*
X109924724Y-139223802D01*
X109930752Y-139221118D01*
X110085253Y-139108866D01*
X110100693Y-139091718D01*
X110208621Y-138971852D01*
X110208622Y-138971851D01*
X110213040Y-138966944D01*
X110308527Y-138801556D01*
X110367542Y-138619928D01*
X110370078Y-138595805D01*
X110386814Y-138436565D01*
X110387504Y-138430000D01*
X110367542Y-138240072D01*
X110308527Y-138058444D01*
X110213040Y-137893056D01*
X110139863Y-137811785D01*
X110109147Y-137747779D01*
X110107500Y-137727476D01*
X110107500Y-135696595D01*
X110127502Y-135628474D01*
X110144405Y-135607499D01*
X110440501Y-135311404D01*
X110502813Y-135277379D01*
X110529596Y-135274500D01*
X110585487Y-135274500D01*
X110591939Y-135273128D01*
X110591944Y-135273128D01*
X110712398Y-135247524D01*
X110772288Y-135234794D01*
X110778319Y-135232109D01*
X110940722Y-135159803D01*
X110940724Y-135159802D01*
X110946752Y-135157118D01*
X111101253Y-135044866D01*
X111211110Y-134922857D01*
X111271555Y-134885619D01*
X111342539Y-134886971D01*
X111393840Y-134918074D01*
X116128595Y-139652829D01*
X116162621Y-139715141D01*
X116165500Y-139741924D01*
X116165500Y-141849761D01*
X116145498Y-141917882D01*
X116123406Y-141943759D01*
X115963202Y-142086746D01*
X115803675Y-142278557D01*
X115674252Y-142491840D01*
X115672443Y-142496154D01*
X115672442Y-142496156D01*
X115659290Y-142527521D01*
X115577775Y-142721911D01*
X115576624Y-142726443D01*
X115576623Y-142726446D01*
X115568185Y-142759671D01*
X115516365Y-142963714D01*
X115491370Y-143211939D01*
X115491594Y-143216606D01*
X115491594Y-143216611D01*
X115497354Y-143336535D01*
X115503339Y-143461131D01*
X115552010Y-143705818D01*
X115636314Y-143940622D01*
X115754398Y-144160386D01*
X115903668Y-144360283D01*
X116080844Y-144535921D01*
X116084606Y-144538679D01*
X116084609Y-144538682D01*
X116196139Y-144620458D01*
X116282036Y-144683440D01*
X116286171Y-144685616D01*
X116286175Y-144685618D01*
X116401163Y-144746116D01*
X116502823Y-144799602D01*
X116633347Y-144845183D01*
X116732550Y-144879826D01*
X116738354Y-144881853D01*
X116742947Y-144882725D01*
X116978867Y-144927516D01*
X116978870Y-144927516D01*
X116983456Y-144928387D01*
X117108099Y-144933284D01*
X117228075Y-144937999D01*
X117228081Y-144937999D01*
X117232743Y-144938182D01*
X117322181Y-144928387D01*
X117476087Y-144911532D01*
X117476092Y-144911531D01*
X117480740Y-144911022D01*
X117494919Y-144907289D01*
X117717476Y-144848694D01*
X117717478Y-144848693D01*
X117721999Y-144847503D01*
X117727399Y-144845183D01*
X117946924Y-144750868D01*
X117946926Y-144750867D01*
X117951218Y-144749023D01*
X118053679Y-144685618D01*
X118159391Y-144620202D01*
X118159395Y-144620199D01*
X118163364Y-144617743D01*
X118353775Y-144456548D01*
X118435316Y-144363569D01*
X118515187Y-144272494D01*
X118515191Y-144272489D01*
X118518269Y-144268979D01*
X118534563Y-144243648D01*
X118650703Y-144063087D01*
X118653231Y-144059157D01*
X118755697Y-143831691D01*
X118757015Y-143827018D01*
X118822146Y-143596082D01*
X118822147Y-143596079D01*
X118823416Y-143591578D01*
X118854900Y-143344092D01*
X118854984Y-143340909D01*
X118856243Y-143292828D01*
X118857207Y-143256000D01*
X118838718Y-143007206D01*
X118783659Y-142763878D01*
X118769164Y-142726605D01*
X118694931Y-142535714D01*
X118694930Y-142535712D01*
X118693238Y-142531361D01*
X118668494Y-142488067D01*
X118630296Y-142421236D01*
X118569442Y-142314763D01*
X118414990Y-142118842D01*
X118233276Y-141947902D01*
X118229437Y-141945239D01*
X118229205Y-141945051D01*
X118188853Y-141886636D01*
X118182500Y-141847131D01*
X118182500Y-139333843D01*
X118183237Y-139320236D01*
X118186659Y-139288738D01*
X118186659Y-139288733D01*
X118187324Y-139282612D01*
X118182950Y-139232612D01*
X118182621Y-139227786D01*
X118182500Y-139225314D01*
X118182500Y-139222231D01*
X118181326Y-139210262D01*
X118178310Y-139179494D01*
X118178188Y-139178181D01*
X118172463Y-139112749D01*
X118170087Y-139085587D01*
X118168600Y-139080468D01*
X118168080Y-139075167D01*
X118141209Y-138986166D01*
X118140874Y-138985033D01*
X118116630Y-138901586D01*
X118116628Y-138901582D01*
X118114909Y-138895664D01*
X118112456Y-138890932D01*
X118110916Y-138885831D01*
X118108022Y-138880388D01*
X118067269Y-138803740D01*
X118066657Y-138802574D01*
X118026729Y-138725547D01*
X118023892Y-138720074D01*
X118020569Y-138715911D01*
X118018066Y-138711204D01*
X117959245Y-138639082D01*
X117958554Y-138638226D01*
X117927262Y-138599027D01*
X117924758Y-138596523D01*
X117924116Y-138595805D01*
X117920415Y-138591472D01*
X117893065Y-138557938D01*
X117857737Y-138528712D01*
X117848958Y-138520723D01*
X110011405Y-130683171D01*
X109977379Y-130620859D01*
X109974500Y-130594076D01*
X109974500Y-130291388D01*
X110746676Y-130291388D01*
X110763913Y-130488413D01*
X110765632Y-130494330D01*
X110765633Y-130494335D01*
X110794611Y-130594076D01*
X110819091Y-130678336D01*
X110910108Y-130853926D01*
X110913948Y-130858736D01*
X111004542Y-130972223D01*
X111004549Y-130972230D01*
X111006738Y-130974973D01*
X111009233Y-130977468D01*
X121128595Y-141096829D01*
X121162621Y-141159141D01*
X121165500Y-141185924D01*
X121165500Y-141849761D01*
X121145498Y-141917882D01*
X121123406Y-141943759D01*
X120963202Y-142086746D01*
X120803675Y-142278557D01*
X120674252Y-142491840D01*
X120672443Y-142496154D01*
X120672442Y-142496156D01*
X120659290Y-142527521D01*
X120577775Y-142721911D01*
X120576624Y-142726443D01*
X120576623Y-142726446D01*
X120568185Y-142759671D01*
X120516365Y-142963714D01*
X120491370Y-143211939D01*
X120491594Y-143216606D01*
X120491594Y-143216611D01*
X120497354Y-143336535D01*
X120503339Y-143461131D01*
X120552010Y-143705818D01*
X120636314Y-143940622D01*
X120754398Y-144160386D01*
X120903668Y-144360283D01*
X121080844Y-144535921D01*
X121084606Y-144538679D01*
X121084609Y-144538682D01*
X121196139Y-144620458D01*
X121282036Y-144683440D01*
X121286171Y-144685616D01*
X121286175Y-144685618D01*
X121401163Y-144746116D01*
X121502823Y-144799602D01*
X121633347Y-144845183D01*
X121732550Y-144879826D01*
X121738354Y-144881853D01*
X121742947Y-144882725D01*
X121978867Y-144927516D01*
X121978870Y-144927516D01*
X121983456Y-144928387D01*
X122108099Y-144933284D01*
X122228075Y-144937999D01*
X122228081Y-144937999D01*
X122232743Y-144938182D01*
X122322181Y-144928387D01*
X122476087Y-144911532D01*
X122476092Y-144911531D01*
X122480740Y-144911022D01*
X122494919Y-144907289D01*
X122717476Y-144848694D01*
X122717478Y-144848693D01*
X122721999Y-144847503D01*
X122727399Y-144845183D01*
X122946924Y-144750868D01*
X122946926Y-144750867D01*
X122951218Y-144749023D01*
X123053679Y-144685618D01*
X123159391Y-144620202D01*
X123159395Y-144620199D01*
X123163364Y-144617743D01*
X123174997Y-144607895D01*
X126186851Y-144607895D01*
X126195563Y-144619415D01*
X126278529Y-144680249D01*
X126286444Y-144685194D01*
X126498873Y-144796959D01*
X126507447Y-144800687D01*
X126734067Y-144879826D01*
X126743077Y-144882240D01*
X126978923Y-144927017D01*
X126988180Y-144928071D01*
X127228058Y-144937497D01*
X127237372Y-144937171D01*
X127475996Y-144911038D01*
X127485173Y-144909337D01*
X127717312Y-144848220D01*
X127726132Y-144845183D01*
X127946693Y-144750423D01*
X127954965Y-144746116D01*
X128158026Y-144620458D01*
X128164751Y-144610253D01*
X128158688Y-144599899D01*
X127186810Y-143628020D01*
X127172869Y-143620408D01*
X127171034Y-143620539D01*
X127164420Y-143624790D01*
X126193509Y-144595702D01*
X126186851Y-144607895D01*
X123174997Y-144607895D01*
X123353775Y-144456548D01*
X123435316Y-144363569D01*
X123515187Y-144272494D01*
X123515191Y-144272489D01*
X123518269Y-144268979D01*
X123534563Y-144243648D01*
X123650703Y-144063087D01*
X123653231Y-144059157D01*
X123755697Y-143831691D01*
X123757015Y-143827018D01*
X123822146Y-143596082D01*
X123822147Y-143596079D01*
X123823416Y-143591578D01*
X123854900Y-143344092D01*
X123854984Y-143340909D01*
X123856243Y-143292828D01*
X123857207Y-143256000D01*
X123854281Y-143216624D01*
X125492096Y-143216624D01*
X125503614Y-143456398D01*
X125504751Y-143465658D01*
X125551581Y-143701095D01*
X125554075Y-143710088D01*
X125635189Y-143936009D01*
X125638989Y-143944544D01*
X125752607Y-144155996D01*
X125757618Y-144163863D01*
X125810609Y-144234826D01*
X125821867Y-144243275D01*
X125834286Y-144236503D01*
X126801980Y-143268810D01*
X126808357Y-143257131D01*
X127538408Y-143257131D01*
X127538539Y-143258966D01*
X127542790Y-143265580D01*
X128516024Y-144238813D01*
X128528404Y-144245573D01*
X128536745Y-144239330D01*
X128650265Y-144062843D01*
X128654708Y-144054659D01*
X128753304Y-143835783D01*
X128756494Y-143827018D01*
X128821654Y-143595981D01*
X128823514Y-143586839D01*
X128854001Y-143347196D01*
X128854482Y-143340909D01*
X128856622Y-143259160D01*
X128856471Y-143252851D01*
X128838568Y-143011932D01*
X128837191Y-143002726D01*
X128784210Y-142768582D01*
X128781486Y-142759671D01*
X128694478Y-142535930D01*
X128690467Y-142527521D01*
X128571347Y-142319105D01*
X128566130Y-142311370D01*
X128538425Y-142276227D01*
X128526501Y-142267758D01*
X128514965Y-142274246D01*
X127546020Y-143243190D01*
X127538408Y-143257131D01*
X126808357Y-143257131D01*
X126809592Y-143254869D01*
X126809461Y-143253034D01*
X126805210Y-143246420D01*
X125832131Y-142273342D01*
X125818823Y-142266075D01*
X125808786Y-142273195D01*
X125807076Y-142275251D01*
X125801655Y-142282851D01*
X125677127Y-142488067D01*
X125672889Y-142496384D01*
X125580060Y-142717755D01*
X125577099Y-142726605D01*
X125518011Y-142959264D01*
X125516390Y-142968458D01*
X125492341Y-143207297D01*
X125492096Y-143216624D01*
X123854281Y-143216624D01*
X123838718Y-143007206D01*
X123783659Y-142763878D01*
X123769164Y-142726605D01*
X123694931Y-142535714D01*
X123694930Y-142535712D01*
X123693238Y-142531361D01*
X123668494Y-142488067D01*
X123630296Y-142421236D01*
X123569442Y-142314763D01*
X123414990Y-142118842D01*
X123233276Y-141947902D01*
X123229437Y-141945239D01*
X123229205Y-141945051D01*
X123199870Y-141902585D01*
X126184999Y-141902585D01*
X126189572Y-141912361D01*
X127161190Y-142883980D01*
X127175131Y-142891592D01*
X127176966Y-142891461D01*
X127183580Y-142887210D01*
X128154929Y-141915860D01*
X128161313Y-141904169D01*
X128151903Y-141892061D01*
X128031873Y-141808793D01*
X128023846Y-141804065D01*
X127808540Y-141697888D01*
X127799907Y-141694400D01*
X127571265Y-141621211D01*
X127562214Y-141619038D01*
X127325269Y-141580449D01*
X127315980Y-141579637D01*
X127075950Y-141576495D01*
X127066638Y-141577065D01*
X126828776Y-141609436D01*
X126819658Y-141611374D01*
X126589203Y-141678546D01*
X126580450Y-141681818D01*
X126362454Y-141782316D01*
X126354299Y-141786836D01*
X126194136Y-141891844D01*
X126184999Y-141902585D01*
X123199870Y-141902585D01*
X123188853Y-141886636D01*
X123182500Y-141847131D01*
X123182500Y-140777843D01*
X123183237Y-140764236D01*
X123186659Y-140732738D01*
X123186659Y-140732733D01*
X123187324Y-140726612D01*
X123182950Y-140676612D01*
X123182621Y-140671786D01*
X123182500Y-140669314D01*
X123182500Y-140666231D01*
X123181326Y-140654262D01*
X123178310Y-140623494D01*
X123178188Y-140622181D01*
X123170623Y-140535718D01*
X123170087Y-140529587D01*
X123168600Y-140524468D01*
X123168080Y-140519167D01*
X123141209Y-140430166D01*
X123140874Y-140429033D01*
X123116630Y-140345586D01*
X123116628Y-140345582D01*
X123114909Y-140339664D01*
X123112456Y-140334932D01*
X123110916Y-140329831D01*
X123108022Y-140324388D01*
X123067269Y-140247740D01*
X123066657Y-140246574D01*
X123026729Y-140169547D01*
X123023892Y-140164074D01*
X123020569Y-140159911D01*
X123018066Y-140155204D01*
X122959245Y-140083082D01*
X122958554Y-140082226D01*
X122927262Y-140043027D01*
X122924758Y-140040523D01*
X122924116Y-140039805D01*
X122920415Y-140035472D01*
X122893065Y-140001938D01*
X122886925Y-139996858D01*
X122857738Y-139972713D01*
X122848958Y-139964723D01*
X113319234Y-130435000D01*
X115533068Y-130435000D01*
X115553030Y-130624928D01*
X115612045Y-130806556D01*
X115707532Y-130971944D01*
X115711950Y-130976851D01*
X115711951Y-130976852D01*
X115830230Y-131108214D01*
X115835319Y-131113866D01*
X115989820Y-131226118D01*
X115995848Y-131228802D01*
X115995850Y-131228803D01*
X116158253Y-131301109D01*
X116164284Y-131303794D01*
X116257684Y-131323647D01*
X116344628Y-131342128D01*
X116344633Y-131342128D01*
X116351085Y-131343500D01*
X116371622Y-131343500D01*
X116439743Y-131363502D01*
X116460717Y-131380405D01*
X117954917Y-132874605D01*
X117962907Y-132883385D01*
X117967156Y-132890080D01*
X117972934Y-132895506D01*
X117972935Y-132895507D01*
X118018829Y-132938604D01*
X118021671Y-132941359D01*
X118042239Y-132961927D01*
X118045742Y-132964644D01*
X118054767Y-132972352D01*
X118088439Y-133003972D01*
X118095390Y-133007793D01*
X118095391Y-133007794D01*
X118107230Y-133014303D01*
X118123754Y-133025157D01*
X118133843Y-133032982D01*
X118140704Y-133038304D01*
X118147976Y-133041451D01*
X118147978Y-133041452D01*
X118183107Y-133056654D01*
X118193768Y-133061876D01*
X118234235Y-133084124D01*
X118255013Y-133089459D01*
X118273703Y-133095858D01*
X118293396Y-133104380D01*
X118337168Y-133111313D01*
X118339020Y-133111606D01*
X118350643Y-133114013D01*
X118378644Y-133121202D01*
X118395384Y-133125500D01*
X118416831Y-133125500D01*
X118436541Y-133127051D01*
X118457724Y-133130406D01*
X118503713Y-133126059D01*
X118515568Y-133125500D01*
X119576348Y-133125500D01*
X119644469Y-133145502D01*
X119650406Y-133149562D01*
X119682108Y-133172595D01*
X119787554Y-133249206D01*
X119799820Y-133258118D01*
X119805848Y-133260802D01*
X119805850Y-133260803D01*
X119962984Y-133330763D01*
X119974284Y-133335794D01*
X120055975Y-133353158D01*
X120154628Y-133374128D01*
X120154633Y-133374128D01*
X120161085Y-133375500D01*
X120352059Y-133375500D01*
X120358511Y-133374128D01*
X120358516Y-133374128D01*
X120457169Y-133353158D01*
X120538860Y-133335794D01*
X120550160Y-133330763D01*
X120707294Y-133260803D01*
X120707296Y-133260802D01*
X120713324Y-133258118D01*
X120725591Y-133249206D01*
X120821035Y-133179861D01*
X120867825Y-133145866D01*
X120896506Y-133114013D01*
X120991193Y-133008852D01*
X120991194Y-133008851D01*
X120995612Y-133003944D01*
X121091099Y-132838556D01*
X121150114Y-132656928D01*
X121154317Y-132616944D01*
X121169386Y-132473565D01*
X121170076Y-132467000D01*
X121150114Y-132277072D01*
X121091099Y-132095444D01*
X121082183Y-132080000D01*
X120998913Y-131935774D01*
X120995612Y-131930056D01*
X120969636Y-131901206D01*
X120872247Y-131793045D01*
X120872246Y-131793044D01*
X120867825Y-131788134D01*
X120750265Y-131702721D01*
X120718666Y-131679763D01*
X120718665Y-131679762D01*
X120713324Y-131675882D01*
X120707296Y-131673198D01*
X120707294Y-131673197D01*
X120544891Y-131600891D01*
X120544890Y-131600891D01*
X120538860Y-131598206D01*
X120445459Y-131578353D01*
X120358516Y-131559872D01*
X120358511Y-131559872D01*
X120352059Y-131558500D01*
X120161085Y-131558500D01*
X120154633Y-131559872D01*
X120154628Y-131559872D01*
X120067685Y-131578353D01*
X119974284Y-131598206D01*
X119968254Y-131600891D01*
X119968253Y-131600891D01*
X119805850Y-131673197D01*
X119805848Y-131673198D01*
X119799820Y-131675882D01*
X119794479Y-131679762D01*
X119794478Y-131679763D01*
X119755002Y-131708444D01*
X119650664Y-131784251D01*
X119650409Y-131784436D01*
X119583541Y-131808294D01*
X119576348Y-131808500D01*
X118803522Y-131808500D01*
X118735401Y-131788498D01*
X118714427Y-131771595D01*
X117389542Y-130446710D01*
X117355516Y-130384398D01*
X117353327Y-130370786D01*
X117340804Y-130251636D01*
X117340804Y-130251635D01*
X117340114Y-130245072D01*
X117281099Y-130063444D01*
X117185612Y-129898056D01*
X117057825Y-129756134D01*
X116903324Y-129643882D01*
X116897296Y-129641198D01*
X116897294Y-129641197D01*
X116734891Y-129568891D01*
X116734890Y-129568891D01*
X116728860Y-129566206D01*
X116635459Y-129546353D01*
X116548516Y-129527872D01*
X116548511Y-129527872D01*
X116542059Y-129526500D01*
X116351085Y-129526500D01*
X116344633Y-129527872D01*
X116344628Y-129527872D01*
X116257685Y-129546353D01*
X116164284Y-129566206D01*
X116158254Y-129568891D01*
X116158253Y-129568891D01*
X115995850Y-129641197D01*
X115995848Y-129641198D01*
X115989820Y-129643882D01*
X115835319Y-129756134D01*
X115707532Y-129898056D01*
X115612045Y-130063444D01*
X115553030Y-130245072D01*
X115533068Y-130435000D01*
X113319234Y-130435000D01*
X112440107Y-129555873D01*
X112437925Y-129553691D01*
X112323739Y-129459897D01*
X112149437Y-129366438D01*
X112040781Y-129333218D01*
X111966200Y-129310416D01*
X111966198Y-129310416D01*
X111960302Y-129308613D01*
X111902449Y-129302736D01*
X111769666Y-129289248D01*
X111769661Y-129289248D01*
X111763538Y-129288626D01*
X111639475Y-129300354D01*
X111572771Y-129306659D01*
X111572769Y-129306659D01*
X111566638Y-129307239D01*
X111471871Y-129335490D01*
X111383007Y-129361981D01*
X111383005Y-129361982D01*
X111377104Y-129363741D01*
X111202154Y-129455982D01*
X111197368Y-129459858D01*
X111197366Y-129459859D01*
X111083910Y-129551734D01*
X111048453Y-129580447D01*
X110921854Y-129732396D01*
X110827178Y-129906041D01*
X110825335Y-129911923D01*
X110775882Y-130069729D01*
X110768035Y-130094768D01*
X110746676Y-130291388D01*
X109974500Y-130291388D01*
X109974500Y-124847000D01*
X113501068Y-124847000D01*
X113501758Y-124853565D01*
X113519513Y-125022491D01*
X113521030Y-125036928D01*
X113580045Y-125218556D01*
X113675532Y-125383944D01*
X113679950Y-125388851D01*
X113679951Y-125388852D01*
X113798897Y-125520955D01*
X113803319Y-125525866D01*
X113957820Y-125638118D01*
X113963848Y-125640802D01*
X113963850Y-125640803D01*
X114126253Y-125713109D01*
X114132284Y-125715794D01*
X114225684Y-125735647D01*
X114312628Y-125754128D01*
X114312633Y-125754128D01*
X114319085Y-125755500D01*
X114510059Y-125755500D01*
X114516511Y-125754128D01*
X114516516Y-125754128D01*
X114603460Y-125735647D01*
X114696860Y-125715794D01*
X114702891Y-125713109D01*
X114865294Y-125640803D01*
X114865296Y-125640802D01*
X114871324Y-125638118D01*
X115025825Y-125525866D01*
X115030247Y-125520955D01*
X115149193Y-125388852D01*
X115149194Y-125388851D01*
X115153612Y-125383944D01*
X115249099Y-125218556D01*
X115280255Y-125122668D01*
X115306074Y-125043207D01*
X115306074Y-125043205D01*
X115308114Y-125036928D01*
X115321327Y-124911215D01*
X115348340Y-124845559D01*
X115357541Y-124835291D01*
X116174426Y-124018405D01*
X116236739Y-123984380D01*
X116263522Y-123981500D01*
X120812342Y-123981500D01*
X120880463Y-124001502D01*
X120926956Y-124055158D01*
X120937652Y-124120670D01*
X120932147Y-124173045D01*
X120926017Y-124231373D01*
X120945979Y-124421301D01*
X121004994Y-124602929D01*
X121100481Y-124768317D01*
X121104899Y-124773224D01*
X121104900Y-124773225D01*
X121189192Y-124866841D01*
X121228268Y-124910239D01*
X121382769Y-125022491D01*
X121388797Y-125025175D01*
X121388799Y-125025176D01*
X121514733Y-125081245D01*
X121557233Y-125100167D01*
X121650633Y-125120020D01*
X121737577Y-125138501D01*
X121737582Y-125138501D01*
X121744034Y-125139873D01*
X121764571Y-125139873D01*
X121832692Y-125159875D01*
X121853666Y-125176778D01*
X122355167Y-125678279D01*
X122389193Y-125740591D01*
X122392072Y-125767374D01*
X122392072Y-132650050D01*
X122372070Y-132718171D01*
X122355167Y-132739145D01*
X121921717Y-133172595D01*
X121859405Y-133206621D01*
X121832622Y-133209500D01*
X121812085Y-133209500D01*
X121805633Y-133210872D01*
X121805628Y-133210872D01*
X121733123Y-133226284D01*
X121625284Y-133249206D01*
X121619254Y-133251891D01*
X121619253Y-133251891D01*
X121456850Y-133324197D01*
X121456848Y-133324198D01*
X121450820Y-133326882D01*
X121445479Y-133330762D01*
X121445478Y-133330763D01*
X121436665Y-133337166D01*
X121296319Y-133439134D01*
X121291898Y-133444044D01*
X121291897Y-133444045D01*
X121258950Y-133480637D01*
X121168532Y-133581056D01*
X121073045Y-133746444D01*
X121014030Y-133928072D01*
X121013340Y-133934633D01*
X121013340Y-133934635D01*
X120995299Y-134106290D01*
X120994068Y-134118000D01*
X120994758Y-134124565D01*
X121000172Y-134176072D01*
X121014030Y-134307928D01*
X121073045Y-134489556D01*
X121168532Y-134654944D01*
X121296319Y-134796866D01*
X121395415Y-134868864D01*
X121418477Y-134885619D01*
X121450820Y-134909118D01*
X121456848Y-134911802D01*
X121456850Y-134911803D01*
X121619253Y-134984109D01*
X121625284Y-134986794D01*
X121718684Y-135006647D01*
X121805628Y-135025128D01*
X121805633Y-135025128D01*
X121812085Y-135026500D01*
X122003059Y-135026500D01*
X122009511Y-135025128D01*
X122009516Y-135025128D01*
X122096460Y-135006647D01*
X122189860Y-134986794D01*
X122195891Y-134984109D01*
X122358294Y-134911803D01*
X122358296Y-134911802D01*
X122364324Y-134909118D01*
X122396668Y-134885619D01*
X122419729Y-134868864D01*
X122518825Y-134796866D01*
X122646612Y-134654944D01*
X122742099Y-134489556D01*
X122801114Y-134307928D01*
X122814327Y-134182213D01*
X122841340Y-134116558D01*
X122850542Y-134106290D01*
X123458177Y-133498655D01*
X123466957Y-133490665D01*
X123466959Y-133490663D01*
X123473652Y-133486416D01*
X123479472Y-133480219D01*
X123522176Y-133434743D01*
X123524931Y-133431901D01*
X123545499Y-133411333D01*
X123548219Y-133407826D01*
X123555925Y-133398804D01*
X123562678Y-133391613D01*
X123587544Y-133365133D01*
X123591366Y-133358181D01*
X123597875Y-133346342D01*
X123608729Y-133329818D01*
X123617017Y-133319132D01*
X123621876Y-133312868D01*
X123625024Y-133305594D01*
X123640226Y-133270465D01*
X123645448Y-133259805D01*
X123663877Y-133226284D01*
X123663878Y-133226282D01*
X123667696Y-133219337D01*
X123673031Y-133198559D01*
X123679430Y-133179869D01*
X123687952Y-133160176D01*
X123695178Y-133114552D01*
X123697585Y-133102929D01*
X123707100Y-133065868D01*
X123709072Y-133058188D01*
X123709072Y-133036741D01*
X123710623Y-133017031D01*
X123712738Y-133003677D01*
X123713978Y-132995848D01*
X123709631Y-132949859D01*
X123709072Y-132938004D01*
X123709072Y-125524483D01*
X123709631Y-125512627D01*
X123711361Y-125504887D01*
X123709134Y-125434035D01*
X123709072Y-125430077D01*
X123709072Y-125400992D01*
X123708518Y-125396603D01*
X123707585Y-125384761D01*
X123707560Y-125383944D01*
X123706134Y-125338593D01*
X123700152Y-125318003D01*
X123696142Y-125298640D01*
X123694447Y-125285220D01*
X123694447Y-125285219D01*
X123693454Y-125277360D01*
X123690538Y-125269995D01*
X123690537Y-125269991D01*
X123676446Y-125234403D01*
X123672605Y-125223186D01*
X123667463Y-125205486D01*
X123667670Y-125134491D01*
X123706226Y-125074876D01*
X123770893Y-125045571D01*
X123841137Y-125055879D01*
X123877557Y-125081245D01*
X124977391Y-126181079D01*
X125011417Y-126243391D01*
X125006352Y-126314206D01*
X124963805Y-126371042D01*
X124939544Y-126385281D01*
X124771281Y-126460195D01*
X124771274Y-126460199D01*
X124765248Y-126462882D01*
X124610747Y-126575134D01*
X124606326Y-126580044D01*
X124606325Y-126580045D01*
X124502284Y-126695595D01*
X124482960Y-126717056D01*
X124387473Y-126882444D01*
X124328458Y-127064072D01*
X124327768Y-127070633D01*
X124327768Y-127070635D01*
X124312476Y-127216134D01*
X124308496Y-127254000D01*
X124309186Y-127260565D01*
X124327201Y-127431965D01*
X124328458Y-127443928D01*
X124387473Y-127625556D01*
X124390776Y-127631278D01*
X124390777Y-127631279D01*
X124400180Y-127647565D01*
X124482960Y-127790944D01*
X124610747Y-127932866D01*
X124765248Y-128045118D01*
X124771276Y-128047802D01*
X124771278Y-128047803D01*
X124933681Y-128120109D01*
X124939712Y-128122794D01*
X125033113Y-128142647D01*
X125120056Y-128161128D01*
X125120061Y-128161128D01*
X125126513Y-128162500D01*
X125182406Y-128162500D01*
X125250527Y-128182502D01*
X125271501Y-128199405D01*
X130306343Y-133234247D01*
X130313887Y-133242537D01*
X130318000Y-133249018D01*
X130323777Y-133254443D01*
X130367667Y-133295658D01*
X130370509Y-133298413D01*
X130390230Y-133318134D01*
X130393425Y-133320612D01*
X130402447Y-133328318D01*
X130434679Y-133358586D01*
X130441628Y-133362406D01*
X130452432Y-133368346D01*
X130468956Y-133379199D01*
X130484959Y-133391613D01*
X130525543Y-133409176D01*
X130536173Y-133414383D01*
X130574940Y-133435695D01*
X130582617Y-133437666D01*
X130582622Y-133437668D01*
X130594558Y-133440732D01*
X130613266Y-133447137D01*
X130631855Y-133455181D01*
X130639680Y-133456420D01*
X130639682Y-133456421D01*
X130675519Y-133462097D01*
X130687140Y-133464504D01*
X130718959Y-133472673D01*
X130729970Y-133475500D01*
X130750231Y-133475500D01*
X130769940Y-133477051D01*
X130789943Y-133480219D01*
X130797835Y-133479473D01*
X130803062Y-133478979D01*
X130833954Y-133476059D01*
X130845811Y-133475500D01*
X133017233Y-133475500D01*
X133028416Y-133476027D01*
X133035909Y-133477702D01*
X133043835Y-133477453D01*
X133043836Y-133477453D01*
X133103986Y-133475562D01*
X133107945Y-133475500D01*
X133135856Y-133475500D01*
X133139791Y-133475003D01*
X133139856Y-133474995D01*
X133151693Y-133474062D01*
X133183951Y-133473048D01*
X133187970Y-133472922D01*
X133195889Y-133472673D01*
X133215343Y-133467021D01*
X133234700Y-133463013D01*
X133246930Y-133461468D01*
X133246931Y-133461468D01*
X133254797Y-133460474D01*
X133262168Y-133457555D01*
X133262170Y-133457555D01*
X133295912Y-133444196D01*
X133307142Y-133440351D01*
X133341983Y-133430229D01*
X133341984Y-133430229D01*
X133349593Y-133428018D01*
X133356412Y-133423985D01*
X133356417Y-133423983D01*
X133367028Y-133417707D01*
X133384776Y-133409012D01*
X133403617Y-133401552D01*
X133423987Y-133386753D01*
X133439387Y-133375564D01*
X133449307Y-133369048D01*
X133480535Y-133350580D01*
X133480538Y-133350578D01*
X133487362Y-133346542D01*
X133501683Y-133332221D01*
X133516717Y-133319380D01*
X133526693Y-133312132D01*
X133533107Y-133307472D01*
X133561293Y-133273401D01*
X133569282Y-133264622D01*
X133808499Y-133025405D01*
X133870811Y-132991379D01*
X133897594Y-132988500D01*
X133953487Y-132988500D01*
X133959939Y-132987128D01*
X133959944Y-132987128D01*
X134065720Y-132964644D01*
X134140288Y-132948794D01*
X134151175Y-132943947D01*
X134308722Y-132873803D01*
X134308724Y-132873802D01*
X134314752Y-132871118D01*
X134469253Y-132758866D01*
X134597040Y-132616944D01*
X134679820Y-132473565D01*
X134689223Y-132457279D01*
X134689224Y-132457278D01*
X134692527Y-132451556D01*
X134751542Y-132269928D01*
X134771504Y-132080000D01*
X134768907Y-132055292D01*
X134752232Y-131896635D01*
X134752232Y-131896633D01*
X134751542Y-131890072D01*
X134692527Y-131708444D01*
X134685836Y-131696854D01*
X134628089Y-131596834D01*
X134597040Y-131543056D01*
X134577753Y-131521635D01*
X134473675Y-131406045D01*
X134473674Y-131406044D01*
X134469253Y-131401134D01*
X134314752Y-131288882D01*
X134308724Y-131286198D01*
X134308722Y-131286197D01*
X134146319Y-131213891D01*
X134146318Y-131213891D01*
X134140288Y-131211206D01*
X134046887Y-131191353D01*
X133959944Y-131172872D01*
X133959939Y-131172872D01*
X133953487Y-131171500D01*
X133762513Y-131171500D01*
X133756061Y-131172872D01*
X133756056Y-131172872D01*
X133669113Y-131191353D01*
X133575712Y-131211206D01*
X133569682Y-131213891D01*
X133569681Y-131213891D01*
X133407278Y-131286197D01*
X133407276Y-131286198D01*
X133401248Y-131288882D01*
X133246747Y-131401134D01*
X133242326Y-131406044D01*
X133242325Y-131406045D01*
X133138248Y-131521635D01*
X133118960Y-131543056D01*
X133087911Y-131596834D01*
X133030165Y-131696854D01*
X133023473Y-131708444D01*
X132964458Y-131890072D01*
X132963768Y-131896633D01*
X132963768Y-131896635D01*
X132947093Y-132055292D01*
X132920080Y-132120949D01*
X132910877Y-132131219D01*
X132870498Y-132171597D01*
X132808186Y-132205621D01*
X132781404Y-132208500D01*
X132397652Y-132208500D01*
X132329531Y-132188498D01*
X132283038Y-132134842D01*
X132272934Y-132064568D01*
X132277819Y-132043564D01*
X132324074Y-131901206D01*
X132326114Y-131894928D01*
X132335220Y-131808294D01*
X132345386Y-131711565D01*
X132346076Y-131705000D01*
X132334852Y-131598206D01*
X132326804Y-131521635D01*
X132326804Y-131521633D01*
X132326114Y-131515072D01*
X132267099Y-131333444D01*
X132171612Y-131168056D01*
X132161213Y-131156506D01*
X132048247Y-131031045D01*
X132048246Y-131031044D01*
X132043825Y-131026134D01*
X131889324Y-130913882D01*
X131883296Y-130911198D01*
X131883294Y-130911197D01*
X131720891Y-130838891D01*
X131720890Y-130838891D01*
X131714860Y-130836206D01*
X131602293Y-130812279D01*
X131534516Y-130797872D01*
X131534511Y-130797872D01*
X131528059Y-130796500D01*
X131507522Y-130796500D01*
X131439401Y-130776498D01*
X131418427Y-130759595D01*
X129300182Y-128641350D01*
X129266156Y-128579038D01*
X129271221Y-128508223D01*
X129313768Y-128451387D01*
X129338022Y-128437151D01*
X129343288Y-128434806D01*
X129343293Y-128434803D01*
X129349324Y-128432118D01*
X129453512Y-128356421D01*
X129520378Y-128332563D01*
X129589530Y-128348643D01*
X129601628Y-128356418D01*
X129705820Y-128432118D01*
X129711848Y-128434802D01*
X129711850Y-128434803D01*
X129829112Y-128487011D01*
X129880284Y-128509794D01*
X129971732Y-128529232D01*
X130060628Y-128548128D01*
X130060633Y-128548128D01*
X130067085Y-128549500D01*
X130258059Y-128549500D01*
X130264511Y-128548128D01*
X130264516Y-128548128D01*
X130353412Y-128529232D01*
X130444860Y-128509794D01*
X130496032Y-128487011D01*
X130613294Y-128434803D01*
X130613296Y-128434802D01*
X130619324Y-128432118D01*
X130773825Y-128319866D01*
X130797572Y-128293492D01*
X130897193Y-128182852D01*
X130897194Y-128182851D01*
X130901612Y-128177944D01*
X130997099Y-128012556D01*
X131056114Y-127830928D01*
X131060317Y-127790944D01*
X131075386Y-127647565D01*
X131076076Y-127641000D01*
X131061446Y-127501803D01*
X131074218Y-127431965D01*
X131122720Y-127380118D01*
X131191553Y-127362724D01*
X131258863Y-127385305D01*
X131275851Y-127399538D01*
X132178913Y-128302600D01*
X132186903Y-128311381D01*
X132186911Y-128311390D01*
X132191156Y-128318080D01*
X132196931Y-128323503D01*
X132242846Y-128366620D01*
X132245688Y-128369375D01*
X132266239Y-128389926D01*
X132269373Y-128392357D01*
X132269735Y-128392638D01*
X132278763Y-128400348D01*
X132312439Y-128431972D01*
X132319390Y-128435793D01*
X132319391Y-128435794D01*
X132331227Y-128442301D01*
X132347756Y-128453158D01*
X132358441Y-128461447D01*
X132358443Y-128461448D01*
X132364703Y-128466304D01*
X132407116Y-128484657D01*
X132417753Y-128489868D01*
X132458235Y-128512124D01*
X132465914Y-128514096D01*
X132465915Y-128514096D01*
X132479006Y-128517457D01*
X132497708Y-128523859D01*
X132517395Y-128532379D01*
X132525224Y-128533619D01*
X132563020Y-128539605D01*
X132574646Y-128542013D01*
X132611707Y-128551529D01*
X132611708Y-128551529D01*
X132619384Y-128553500D01*
X132640830Y-128553500D01*
X132660540Y-128555051D01*
X132681723Y-128558406D01*
X132727707Y-128554059D01*
X132739566Y-128553500D01*
X136848348Y-128553500D01*
X136916469Y-128573502D01*
X136922406Y-128577562D01*
X137071820Y-128686118D01*
X137077848Y-128688802D01*
X137077850Y-128688803D01*
X137240253Y-128761109D01*
X137246284Y-128763794D01*
X137339685Y-128783647D01*
X137426628Y-128802128D01*
X137426633Y-128802128D01*
X137433085Y-128803500D01*
X137624059Y-128803500D01*
X137630511Y-128802128D01*
X137630516Y-128802128D01*
X137717459Y-128783647D01*
X137810860Y-128763794D01*
X137816891Y-128761109D01*
X137979294Y-128688803D01*
X137979296Y-128688802D01*
X137985324Y-128686118D01*
X138139825Y-128573866D01*
X138184849Y-128523862D01*
X138263193Y-128436852D01*
X138263194Y-128436851D01*
X138267612Y-128431944D01*
X138342289Y-128302600D01*
X138359795Y-128272279D01*
X138359796Y-128272278D01*
X138363099Y-128266556D01*
X138422114Y-128084928D01*
X138442076Y-127895000D01*
X138431655Y-127795852D01*
X138422804Y-127711635D01*
X138422804Y-127711633D01*
X138422114Y-127705072D01*
X138363099Y-127523444D01*
X138267612Y-127358056D01*
X138187826Y-127269444D01*
X138144247Y-127221045D01*
X138144246Y-127221044D01*
X138139825Y-127216134D01*
X137985324Y-127103882D01*
X137979296Y-127101198D01*
X137979294Y-127101197D01*
X137816891Y-127028891D01*
X137816890Y-127028891D01*
X137810860Y-127026206D01*
X137717459Y-127006353D01*
X137630516Y-126987872D01*
X137630511Y-126987872D01*
X137624059Y-126986500D01*
X137433085Y-126986500D01*
X137426633Y-126987872D01*
X137426628Y-126987872D01*
X137339685Y-127006353D01*
X137246284Y-127026206D01*
X137240254Y-127028891D01*
X137240253Y-127028891D01*
X137077850Y-127101197D01*
X137077848Y-127101198D01*
X137071820Y-127103882D01*
X136922664Y-127212251D01*
X136922409Y-127212436D01*
X136855541Y-127236294D01*
X136848348Y-127236500D01*
X133027521Y-127236500D01*
X132959400Y-127216498D01*
X132938426Y-127199595D01*
X126025542Y-120286710D01*
X125991516Y-120224398D01*
X125989327Y-120210786D01*
X125976804Y-120091636D01*
X125976804Y-120091635D01*
X125976114Y-120085072D01*
X125917099Y-119903444D01*
X125908504Y-119888556D01*
X125829400Y-119751545D01*
X125821612Y-119738056D01*
X125693825Y-119596134D01*
X125539324Y-119483882D01*
X125533296Y-119481198D01*
X125533294Y-119481197D01*
X125370891Y-119408891D01*
X125370890Y-119408891D01*
X125364860Y-119406206D01*
X125271459Y-119386353D01*
X125184516Y-119367872D01*
X125184511Y-119367872D01*
X125178059Y-119366500D01*
X124987085Y-119366500D01*
X124980633Y-119367872D01*
X124980628Y-119367872D01*
X124893685Y-119386353D01*
X124800284Y-119406206D01*
X124794254Y-119408891D01*
X124794253Y-119408891D01*
X124631850Y-119481197D01*
X124631848Y-119481198D01*
X124625820Y-119483882D01*
X124471319Y-119596134D01*
X124343532Y-119738056D01*
X124335744Y-119751545D01*
X124256641Y-119888556D01*
X124248045Y-119903444D01*
X124189030Y-120085072D01*
X124169068Y-120275000D01*
X124169758Y-120281565D01*
X124184828Y-120424944D01*
X124189030Y-120464928D01*
X124248045Y-120646556D01*
X124343532Y-120811944D01*
X124347950Y-120816851D01*
X124347951Y-120816852D01*
X124457972Y-120939043D01*
X124488690Y-121003050D01*
X124479925Y-121073504D01*
X124434462Y-121128035D01*
X124360769Y-121149179D01*
X124353920Y-121148094D01*
X124307931Y-121152441D01*
X124296076Y-121153000D01*
X121190796Y-121153000D01*
X121122675Y-121132998D01*
X121116735Y-121128936D01*
X121116481Y-121128751D01*
X120967324Y-121020382D01*
X120961296Y-121017698D01*
X120961294Y-121017697D01*
X120798891Y-120945391D01*
X120798890Y-120945391D01*
X120792860Y-120942706D01*
X120699460Y-120922853D01*
X120612516Y-120904372D01*
X120612511Y-120904372D01*
X120606059Y-120903000D01*
X120415085Y-120903000D01*
X120408633Y-120904372D01*
X120408628Y-120904372D01*
X120321684Y-120922853D01*
X120228284Y-120942706D01*
X120222254Y-120945391D01*
X120222253Y-120945391D01*
X120059850Y-121017697D01*
X120059848Y-121017698D01*
X120053820Y-121020382D01*
X119899319Y-121132634D01*
X119894898Y-121137544D01*
X119894897Y-121137545D01*
X119785161Y-121259420D01*
X119771532Y-121274556D01*
X119676045Y-121439944D01*
X119617030Y-121621572D01*
X119616340Y-121628133D01*
X119616340Y-121628135D01*
X119603592Y-121749430D01*
X119576579Y-121815087D01*
X119518358Y-121855717D01*
X119447412Y-121858420D01*
X119389187Y-121825355D01*
X118001042Y-120437210D01*
X117967016Y-120374898D01*
X117964827Y-120361286D01*
X117952304Y-120242136D01*
X117952304Y-120242135D01*
X117951614Y-120235572D01*
X117943561Y-120210786D01*
X117894641Y-120060229D01*
X117892599Y-120053944D01*
X117797112Y-119888556D01*
X117669325Y-119746634D01*
X117514824Y-119634382D01*
X117508796Y-119631698D01*
X117508794Y-119631697D01*
X117346391Y-119559391D01*
X117346390Y-119559391D01*
X117340360Y-119556706D01*
X117246959Y-119536853D01*
X117160016Y-119518372D01*
X117160011Y-119518372D01*
X117153559Y-119517000D01*
X116962585Y-119517000D01*
X116956133Y-119518372D01*
X116956128Y-119518372D01*
X116869185Y-119536853D01*
X116775784Y-119556706D01*
X116769754Y-119559391D01*
X116769753Y-119559391D01*
X116607350Y-119631697D01*
X116607348Y-119631698D01*
X116601320Y-119634382D01*
X116446819Y-119746634D01*
X116319032Y-119888556D01*
X116223545Y-120053944D01*
X116164530Y-120235572D01*
X116144568Y-120425500D01*
X116164530Y-120615428D01*
X116223545Y-120797056D01*
X116226848Y-120802778D01*
X116226849Y-120802779D01*
X116234974Y-120816852D01*
X116319032Y-120962444D01*
X116323450Y-120967351D01*
X116323451Y-120967352D01*
X116374694Y-121024263D01*
X116446819Y-121104366D01*
X116492486Y-121137545D01*
X116570707Y-121194376D01*
X116601320Y-121216618D01*
X116607348Y-121219302D01*
X116607350Y-121219303D01*
X116744294Y-121280274D01*
X116775784Y-121294294D01*
X116850677Y-121310213D01*
X116956128Y-121332628D01*
X116956133Y-121332628D01*
X116962585Y-121334000D01*
X116983122Y-121334000D01*
X117051243Y-121354002D01*
X117072217Y-121370905D01*
X118150717Y-122449405D01*
X118184743Y-122511717D01*
X118179678Y-122582532D01*
X118137131Y-122639368D01*
X118070611Y-122664179D01*
X118061622Y-122664500D01*
X116020628Y-122664500D01*
X116008772Y-122663941D01*
X116008769Y-122663941D01*
X116001035Y-122662212D01*
X115930203Y-122664438D01*
X115926245Y-122664500D01*
X115897140Y-122664500D01*
X115892740Y-122665056D01*
X115880908Y-122665988D01*
X115834741Y-122667438D01*
X115814151Y-122673420D01*
X115794790Y-122677430D01*
X115787802Y-122678312D01*
X115781368Y-122679125D01*
X115781367Y-122679125D01*
X115773508Y-122680118D01*
X115766143Y-122683034D01*
X115766139Y-122683035D01*
X115730554Y-122697124D01*
X115719324Y-122700969D01*
X115674971Y-122713855D01*
X115668147Y-122717891D01*
X115656515Y-122724770D01*
X115638759Y-122733469D01*
X115618816Y-122741365D01*
X115592796Y-122760270D01*
X115581440Y-122768520D01*
X115571521Y-122775035D01*
X115538595Y-122794508D01*
X115538591Y-122794511D01*
X115531765Y-122798548D01*
X115516604Y-122813709D01*
X115501572Y-122826548D01*
X115484215Y-122839159D01*
X115479165Y-122845263D01*
X115479163Y-122845265D01*
X115454760Y-122874763D01*
X115446771Y-122883541D01*
X114428717Y-123901595D01*
X114366405Y-123935621D01*
X114339622Y-123938500D01*
X114319085Y-123938500D01*
X114312633Y-123939872D01*
X114312628Y-123939872D01*
X114225684Y-123958353D01*
X114132284Y-123978206D01*
X114126254Y-123980891D01*
X114126253Y-123980891D01*
X113963850Y-124053197D01*
X113963848Y-124053198D01*
X113957820Y-124055882D01*
X113803319Y-124168134D01*
X113798898Y-124173044D01*
X113798897Y-124173045D01*
X113752290Y-124224808D01*
X113675532Y-124310056D01*
X113580045Y-124475444D01*
X113521030Y-124657072D01*
X113501068Y-124847000D01*
X109974500Y-124847000D01*
X109974500Y-111108437D01*
X124013514Y-111108437D01*
X124034163Y-111252623D01*
X124094450Y-111385219D01*
X124099397Y-111391372D01*
X124099399Y-111391375D01*
X124120187Y-111417229D01*
X124133643Y-111433965D01*
X126323035Y-113623357D01*
X126325697Y-113625497D01*
X126365625Y-113657601D01*
X126365628Y-113657603D01*
X126371781Y-113662550D01*
X126504377Y-113722837D01*
X126513260Y-113724109D01*
X126513263Y-113724110D01*
X126639674Y-113742213D01*
X126648563Y-113743486D01*
X126657452Y-113742213D01*
X126783863Y-113724110D01*
X126783866Y-113724109D01*
X126792749Y-113722837D01*
X126925345Y-113662550D01*
X126931498Y-113657603D01*
X126931501Y-113657601D01*
X126971429Y-113625497D01*
X126974091Y-113623357D01*
X131638357Y-108959091D01*
X131655512Y-108937755D01*
X131672601Y-108916501D01*
X131672603Y-108916498D01*
X131677550Y-108910345D01*
X131688799Y-108885604D01*
X131735203Y-108831871D01*
X131803290Y-108811755D01*
X131871444Y-108831644D01*
X131918026Y-108885222D01*
X131929500Y-108937755D01*
X131929500Y-117277051D01*
X131909498Y-117345172D01*
X131892595Y-117366146D01*
X130316145Y-118942595D01*
X130253833Y-118976621D01*
X130227050Y-118979500D01*
X130206513Y-118979500D01*
X130200061Y-118980872D01*
X130200056Y-118980872D01*
X130113112Y-118999353D01*
X130019712Y-119019206D01*
X130013682Y-119021891D01*
X130013681Y-119021891D01*
X129851278Y-119094197D01*
X129851276Y-119094198D01*
X129845248Y-119096882D01*
X129690747Y-119209134D01*
X129562960Y-119351056D01*
X129467473Y-119516444D01*
X129408458Y-119698072D01*
X129407768Y-119704633D01*
X129407768Y-119704635D01*
X129403354Y-119746634D01*
X129388496Y-119888000D01*
X129408458Y-120077928D01*
X129467473Y-120259556D01*
X129470776Y-120265278D01*
X129470777Y-120265279D01*
X129480180Y-120281565D01*
X129562960Y-120424944D01*
X129690747Y-120566866D01*
X129845248Y-120679118D01*
X129851276Y-120681802D01*
X129851278Y-120681803D01*
X130013681Y-120754109D01*
X130019712Y-120756794D01*
X130113113Y-120776647D01*
X130200056Y-120795128D01*
X130200061Y-120795128D01*
X130206513Y-120796500D01*
X130397487Y-120796500D01*
X130403939Y-120795128D01*
X130403944Y-120795128D01*
X130490887Y-120776647D01*
X130584288Y-120756794D01*
X130590319Y-120754109D01*
X130752722Y-120681803D01*
X130752724Y-120681802D01*
X130758752Y-120679118D01*
X130913253Y-120566866D01*
X131041040Y-120424944D01*
X131123820Y-120281565D01*
X131133223Y-120265279D01*
X131133224Y-120265278D01*
X131136527Y-120259556D01*
X131195542Y-120077928D01*
X131208755Y-119952213D01*
X131235768Y-119886558D01*
X131244970Y-119876290D01*
X132995605Y-118125655D01*
X133004385Y-118117665D01*
X133004387Y-118117663D01*
X133011080Y-118113416D01*
X133059605Y-118061742D01*
X133062359Y-118058901D01*
X133082927Y-118038333D01*
X133085647Y-118034826D01*
X133093353Y-118025804D01*
X133119544Y-117997913D01*
X133124972Y-117992133D01*
X133128794Y-117985181D01*
X133135303Y-117973342D01*
X133146157Y-117956818D01*
X133154443Y-117946135D01*
X133154444Y-117946134D01*
X133159304Y-117939868D01*
X133177654Y-117897464D01*
X133182869Y-117886819D01*
X133205124Y-117846337D01*
X133207094Y-117838663D01*
X133207097Y-117838656D01*
X133210455Y-117825574D01*
X133216861Y-117806862D01*
X133222233Y-117794448D01*
X133225380Y-117787177D01*
X133232608Y-117741541D01*
X133235012Y-117729930D01*
X133246500Y-117685188D01*
X133246500Y-117663742D01*
X133248051Y-117644032D01*
X133250166Y-117630678D01*
X133250166Y-117630677D01*
X133251406Y-117622848D01*
X133247059Y-117576859D01*
X133246500Y-117565004D01*
X133246500Y-76301056D01*
X133247059Y-76289200D01*
X133247059Y-76289197D01*
X133248788Y-76281463D01*
X133246562Y-76210631D01*
X133246500Y-76206673D01*
X133246500Y-76177568D01*
X133245944Y-76173168D01*
X133245012Y-76161330D01*
X133243811Y-76123094D01*
X133243562Y-76115169D01*
X133237580Y-76094579D01*
X133233570Y-76075216D01*
X133231875Y-76061796D01*
X133231875Y-76061795D01*
X133230882Y-76053936D01*
X133227966Y-76046571D01*
X133227965Y-76046567D01*
X133213874Y-76010979D01*
X133210035Y-75999769D01*
X133197145Y-75955400D01*
X133186229Y-75936943D01*
X133177534Y-75919193D01*
X133169635Y-75899244D01*
X133142477Y-75861864D01*
X133135960Y-75851943D01*
X133112452Y-75812193D01*
X133097291Y-75797032D01*
X133084449Y-75781997D01*
X133071841Y-75764643D01*
X133036241Y-75735192D01*
X133027462Y-75727203D01*
X129860949Y-72560689D01*
X129826923Y-72498377D01*
X129831988Y-72427561D01*
X129860949Y-72382499D01*
X131638357Y-70605091D01*
X131651813Y-70588355D01*
X131672601Y-70562501D01*
X131672603Y-70562498D01*
X131677550Y-70556345D01*
X131737837Y-70423749D01*
X131758486Y-70279563D01*
X131737837Y-70135377D01*
X131677550Y-70002781D01*
X131672603Y-69996628D01*
X131672601Y-69996625D01*
X131640497Y-69956697D01*
X131638357Y-69954035D01*
X129448965Y-67764643D01*
X129432229Y-67751187D01*
X129406375Y-67730399D01*
X129406372Y-67730397D01*
X129400219Y-67725450D01*
X129267623Y-67665163D01*
X129258740Y-67663891D01*
X129258737Y-67663890D01*
X129132326Y-67645787D01*
X129123437Y-67644514D01*
X129114548Y-67645787D01*
X128988137Y-67663890D01*
X128988134Y-67663891D01*
X128979251Y-67665163D01*
X128846655Y-67725450D01*
X128840502Y-67730397D01*
X128840499Y-67730399D01*
X128814645Y-67751187D01*
X128797909Y-67764643D01*
X124133643Y-72428909D01*
X124131503Y-72431571D01*
X124099399Y-72471499D01*
X124099397Y-72471502D01*
X124094450Y-72477655D01*
X124034163Y-72610251D01*
X124013514Y-72754437D01*
X124034163Y-72898623D01*
X124094450Y-73031219D01*
X124099397Y-73037372D01*
X124099399Y-73037375D01*
X124120187Y-73063229D01*
X124133643Y-73079965D01*
X126323035Y-75269357D01*
X126325697Y-75271497D01*
X126365625Y-75303601D01*
X126365628Y-75303603D01*
X126371781Y-75308550D01*
X126504377Y-75368837D01*
X126513260Y-75370109D01*
X126513263Y-75370110D01*
X126639674Y-75388213D01*
X126648563Y-75389486D01*
X126657452Y-75388213D01*
X126783863Y-75370110D01*
X126783866Y-75370109D01*
X126792749Y-75368837D01*
X126925345Y-75308550D01*
X126931498Y-75303603D01*
X126931501Y-75303601D01*
X126971429Y-75271497D01*
X126974091Y-75269357D01*
X128751499Y-73491949D01*
X128813811Y-73457923D01*
X128884626Y-73462988D01*
X128929689Y-73491949D01*
X131892595Y-76454855D01*
X131926621Y-76517167D01*
X131929500Y-76543950D01*
X131929500Y-89025371D01*
X131909498Y-89093492D01*
X131855842Y-89139985D01*
X131785568Y-89150089D01*
X131720988Y-89120595D01*
X131688799Y-89077522D01*
X131680818Y-89059969D01*
X131677550Y-89052781D01*
X131672603Y-89046628D01*
X131672601Y-89046625D01*
X131640497Y-89006697D01*
X131638357Y-89004035D01*
X129448965Y-86814643D01*
X129432229Y-86801187D01*
X129406375Y-86780399D01*
X129406372Y-86780397D01*
X129400219Y-86775450D01*
X129267623Y-86715163D01*
X129258740Y-86713891D01*
X129258737Y-86713890D01*
X129132326Y-86695787D01*
X129123437Y-86694514D01*
X129114548Y-86695787D01*
X128988137Y-86713890D01*
X128988134Y-86713891D01*
X128979251Y-86715163D01*
X128846655Y-86775450D01*
X128840502Y-86780397D01*
X128840499Y-86780399D01*
X128814645Y-86801187D01*
X128797909Y-86814643D01*
X124133643Y-91478909D01*
X124131503Y-91481571D01*
X124099399Y-91521499D01*
X124099397Y-91521502D01*
X124094450Y-91527655D01*
X124034163Y-91660251D01*
X124013514Y-91804437D01*
X124034163Y-91948623D01*
X124094450Y-92081219D01*
X124099397Y-92087372D01*
X124099399Y-92087375D01*
X124120187Y-92113229D01*
X124133643Y-92129965D01*
X126323035Y-94319357D01*
X126325697Y-94321497D01*
X126365625Y-94353601D01*
X126365628Y-94353603D01*
X126371781Y-94358550D01*
X126504377Y-94418837D01*
X126513260Y-94420109D01*
X126513263Y-94420110D01*
X126639674Y-94438213D01*
X126648563Y-94439486D01*
X126657452Y-94438213D01*
X126783863Y-94420110D01*
X126783866Y-94420109D01*
X126792749Y-94418837D01*
X126925345Y-94358550D01*
X126931498Y-94353603D01*
X126931501Y-94353601D01*
X126971429Y-94321497D01*
X126974091Y-94319357D01*
X131638357Y-89655091D01*
X131655512Y-89633755D01*
X131672601Y-89612501D01*
X131672603Y-89612498D01*
X131677550Y-89606345D01*
X131688799Y-89581604D01*
X131735203Y-89527871D01*
X131803290Y-89507755D01*
X131871444Y-89527644D01*
X131918026Y-89581222D01*
X131929500Y-89633755D01*
X131929500Y-108329371D01*
X131909498Y-108397492D01*
X131855842Y-108443985D01*
X131785568Y-108454089D01*
X131720988Y-108424595D01*
X131688799Y-108381522D01*
X131680818Y-108363969D01*
X131677550Y-108356781D01*
X131672603Y-108350628D01*
X131672601Y-108350625D01*
X131640497Y-108310697D01*
X131638357Y-108308035D01*
X129448965Y-106118643D01*
X129432229Y-106105187D01*
X129406375Y-106084399D01*
X129406372Y-106084397D01*
X129400219Y-106079450D01*
X129267623Y-106019163D01*
X129258740Y-106017891D01*
X129258737Y-106017890D01*
X129132326Y-105999787D01*
X129123437Y-105998514D01*
X129114548Y-105999787D01*
X128988137Y-106017890D01*
X128988134Y-106017891D01*
X128979251Y-106019163D01*
X128846655Y-106079450D01*
X128840502Y-106084397D01*
X128840499Y-106084399D01*
X128814645Y-106105187D01*
X128797909Y-106118643D01*
X124133643Y-110782909D01*
X124131503Y-110785571D01*
X124099399Y-110825499D01*
X124099397Y-110825502D01*
X124094450Y-110831655D01*
X124034163Y-110964251D01*
X124013514Y-111108437D01*
X109974500Y-111108437D01*
X109974500Y-110187134D01*
X114667500Y-110187134D01*
X114674255Y-110249316D01*
X114725385Y-110385705D01*
X114812739Y-110502261D01*
X114929295Y-110589615D01*
X115065684Y-110640745D01*
X115127866Y-110647500D01*
X118224134Y-110647500D01*
X118286316Y-110640745D01*
X118422705Y-110589615D01*
X118539261Y-110502261D01*
X118626615Y-110385705D01*
X118677745Y-110249316D01*
X118684500Y-110187134D01*
X118684500Y-101590866D01*
X118677745Y-101528684D01*
X118626615Y-101392295D01*
X118539261Y-101275739D01*
X118422705Y-101188385D01*
X118286316Y-101137255D01*
X118224134Y-101130500D01*
X115127866Y-101130500D01*
X115065684Y-101137255D01*
X114929295Y-101188385D01*
X114812739Y-101275739D01*
X114725385Y-101392295D01*
X114674255Y-101528684D01*
X114667500Y-101590866D01*
X114667500Y-110187134D01*
X109974500Y-110187134D01*
X109974500Y-90883134D01*
X114667500Y-90883134D01*
X114674255Y-90945316D01*
X114725385Y-91081705D01*
X114812739Y-91198261D01*
X114929295Y-91285615D01*
X115065684Y-91336745D01*
X115127866Y-91343500D01*
X118224134Y-91343500D01*
X118286316Y-91336745D01*
X118422705Y-91285615D01*
X118539261Y-91198261D01*
X118626615Y-91081705D01*
X118677745Y-90945316D01*
X118684500Y-90883134D01*
X118684500Y-82286866D01*
X118677745Y-82224684D01*
X118626615Y-82088295D01*
X118539261Y-81971739D01*
X118422705Y-81884385D01*
X118286316Y-81833255D01*
X118224134Y-81826500D01*
X115127866Y-81826500D01*
X115065684Y-81833255D01*
X114929295Y-81884385D01*
X114812739Y-81971739D01*
X114725385Y-82088295D01*
X114674255Y-82224684D01*
X114667500Y-82286866D01*
X114667500Y-90883134D01*
X109974500Y-90883134D01*
X109974500Y-71833134D01*
X114667500Y-71833134D01*
X114674255Y-71895316D01*
X114725385Y-72031705D01*
X114812739Y-72148261D01*
X114929295Y-72235615D01*
X115065684Y-72286745D01*
X115127866Y-72293500D01*
X118224134Y-72293500D01*
X118286316Y-72286745D01*
X118422705Y-72235615D01*
X118539261Y-72148261D01*
X118626615Y-72031705D01*
X118677745Y-71895316D01*
X118684500Y-71833134D01*
X118684500Y-63236866D01*
X118677745Y-63174684D01*
X118626615Y-63038295D01*
X118539261Y-62921739D01*
X118422705Y-62834385D01*
X118286316Y-62783255D01*
X118224134Y-62776500D01*
X115127866Y-62776500D01*
X115065684Y-62783255D01*
X114929295Y-62834385D01*
X114812739Y-62921739D01*
X114725385Y-63038295D01*
X114674255Y-63174684D01*
X114667500Y-63236866D01*
X114667500Y-71833134D01*
X109974500Y-71833134D01*
X109974500Y-60159925D01*
X109994502Y-60091804D01*
X110011405Y-60070830D01*
X114172829Y-55909405D01*
X114235141Y-55875379D01*
X114261924Y-55872500D01*
X128970157Y-55872500D01*
X128983764Y-55873237D01*
X129015262Y-55876659D01*
X129015267Y-55876659D01*
X129021388Y-55877324D01*
X129047638Y-55875027D01*
X129071388Y-55872950D01*
X129076214Y-55872621D01*
X129078686Y-55872500D01*
X129081769Y-55872500D01*
X129093738Y-55871326D01*
X129124506Y-55868310D01*
X129125819Y-55868188D01*
X129170084Y-55864315D01*
X129218413Y-55860087D01*
X129223532Y-55858600D01*
X129228833Y-55858080D01*
X129317834Y-55831209D01*
X129318967Y-55830874D01*
X129402414Y-55806630D01*
X129402418Y-55806628D01*
X129408336Y-55804909D01*
X129413068Y-55802456D01*
X129418169Y-55800916D01*
X129423612Y-55798022D01*
X129500260Y-55757269D01*
X129501426Y-55756657D01*
X129578453Y-55716729D01*
X129583926Y-55713892D01*
X129588089Y-55710569D01*
X129592796Y-55708066D01*
X129664918Y-55649245D01*
X129665774Y-55648554D01*
X129704973Y-55617262D01*
X129707477Y-55614758D01*
X129708195Y-55614116D01*
X129712528Y-55610415D01*
X129746062Y-55583065D01*
X129775288Y-55547737D01*
X129783277Y-55538958D01*
X131860379Y-53461855D01*
X131870522Y-53452753D01*
X131895218Y-53432897D01*
X131900025Y-53429032D01*
X131932292Y-53390578D01*
X131935472Y-53386931D01*
X131937115Y-53385119D01*
X131939309Y-53382925D01*
X131966642Y-53349651D01*
X131967348Y-53348800D01*
X132023195Y-53282244D01*
X132027154Y-53277526D01*
X132029722Y-53272856D01*
X132033103Y-53268739D01*
X132076977Y-53186914D01*
X132077606Y-53185755D01*
X132119462Y-53109619D01*
X132119465Y-53109611D01*
X132122433Y-53104213D01*
X132124045Y-53099131D01*
X132126562Y-53094437D01*
X132153762Y-53005469D01*
X132154108Y-53004358D01*
X132180373Y-52921563D01*
X132182235Y-52915694D01*
X132182829Y-52910398D01*
X132184387Y-52905302D01*
X132193790Y-52812743D01*
X132193911Y-52811607D01*
X132199500Y-52761773D01*
X132199500Y-52758246D01*
X132199555Y-52757261D01*
X132200002Y-52751581D01*
X132204374Y-52708538D01*
X132200059Y-52662891D01*
X132199500Y-52651033D01*
X132199500Y-52353928D01*
X132219502Y-52285807D01*
X132253888Y-52252005D01*
X132253388Y-52251375D01*
X132259120Y-52246832D01*
X132265348Y-52242978D01*
X132390305Y-52117803D01*
X132411904Y-52082763D01*
X132479275Y-51973468D01*
X132479276Y-51973466D01*
X132483115Y-51967238D01*
X132538797Y-51799361D01*
X132549500Y-51694900D01*
X132549500Y-50394100D01*
X132549163Y-50390850D01*
X132539238Y-50295192D01*
X132539237Y-50295188D01*
X132538526Y-50288334D01*
X132514768Y-50217121D01*
X132484868Y-50127502D01*
X132482550Y-50120554D01*
X132389478Y-49970152D01*
X132264303Y-49845195D01*
X132258072Y-49841354D01*
X132252327Y-49836817D01*
X132253377Y-49835487D01*
X132211892Y-49789393D01*
X132199500Y-49734903D01*
X132199500Y-49468470D01*
X132219502Y-49400349D01*
X132227460Y-49389620D01*
X132229096Y-49387989D01*
X132359453Y-49206577D01*
X132372995Y-49179178D01*
X132456136Y-49010953D01*
X132456137Y-49010951D01*
X132458430Y-49006311D01*
X132523370Y-48792569D01*
X132552529Y-48571090D01*
X132554156Y-48504500D01*
X132535852Y-48281861D01*
X132481431Y-48065202D01*
X132392354Y-47860340D01*
X132271014Y-47672777D01*
X132120670Y-47507551D01*
X132116619Y-47504352D01*
X132116615Y-47504348D01*
X131949414Y-47372300D01*
X131949410Y-47372298D01*
X131945359Y-47369098D01*
X131749789Y-47261138D01*
X131744920Y-47259414D01*
X131744916Y-47259412D01*
X131544087Y-47188295D01*
X131544083Y-47188294D01*
X131539212Y-47186569D01*
X131534119Y-47185662D01*
X131534116Y-47185661D01*
X131324373Y-47148300D01*
X131324367Y-47148299D01*
X131319284Y-47147394D01*
X131245452Y-47146492D01*
X131101081Y-47144728D01*
X131101079Y-47144728D01*
X131095911Y-47144665D01*
X130875091Y-47178455D01*
X130662756Y-47247857D01*
X130464607Y-47351007D01*
X130460474Y-47354110D01*
X130460471Y-47354112D01*
X130298134Y-47475998D01*
X130285965Y-47485135D01*
X130131629Y-47646638D01*
X130024201Y-47804121D01*
X129969293Y-47849121D01*
X129898768Y-47857292D01*
X129835021Y-47826038D01*
X129814324Y-47801554D01*
X129733822Y-47677117D01*
X129733820Y-47677114D01*
X129731014Y-47672777D01*
X129580670Y-47507551D01*
X129576619Y-47504352D01*
X129576615Y-47504348D01*
X129409414Y-47372300D01*
X129409410Y-47372298D01*
X129405359Y-47369098D01*
X129209789Y-47261138D01*
X129204920Y-47259414D01*
X129204916Y-47259412D01*
X129004087Y-47188295D01*
X129004083Y-47188294D01*
X128999212Y-47186569D01*
X128994119Y-47185662D01*
X128994116Y-47185661D01*
X128784373Y-47148300D01*
X128784367Y-47148299D01*
X128779284Y-47147394D01*
X128705452Y-47146492D01*
X128561081Y-47144728D01*
X128561079Y-47144728D01*
X128555911Y-47144665D01*
X128335091Y-47178455D01*
X128122756Y-47247857D01*
X127924607Y-47351007D01*
X127920474Y-47354110D01*
X127920471Y-47354112D01*
X127765111Y-47470760D01*
X127698626Y-47495666D01*
X127689458Y-47496000D01*
X127069799Y-47496000D01*
X127001678Y-47475998D01*
X126991707Y-47468882D01*
X126869414Y-47372300D01*
X126869410Y-47372298D01*
X126865359Y-47369098D01*
X126669789Y-47261138D01*
X126664920Y-47259414D01*
X126664916Y-47259412D01*
X126464087Y-47188295D01*
X126464083Y-47188294D01*
X126459212Y-47186569D01*
X126454119Y-47185662D01*
X126454116Y-47185661D01*
X126244373Y-47148300D01*
X126244367Y-47148299D01*
X126239284Y-47147394D01*
X126165452Y-47146492D01*
X126021081Y-47144728D01*
X126021079Y-47144728D01*
X126015911Y-47144665D01*
X125795091Y-47178455D01*
X125582756Y-47247857D01*
X125384607Y-47351007D01*
X125380474Y-47354110D01*
X125380471Y-47354112D01*
X125225111Y-47470760D01*
X125158626Y-47495666D01*
X125149458Y-47496000D01*
X124529799Y-47496000D01*
X124461678Y-47475998D01*
X124451707Y-47468882D01*
X124329414Y-47372300D01*
X124329410Y-47372298D01*
X124325359Y-47369098D01*
X124129789Y-47261138D01*
X124124920Y-47259414D01*
X124124916Y-47259412D01*
X123924087Y-47188295D01*
X123924083Y-47188294D01*
X123919212Y-47186569D01*
X123914119Y-47185662D01*
X123914116Y-47185661D01*
X123704373Y-47148300D01*
X123704367Y-47148299D01*
X123699284Y-47147394D01*
X123625452Y-47146492D01*
X123481081Y-47144728D01*
X123481079Y-47144728D01*
X123475911Y-47144665D01*
X123255091Y-47178455D01*
X123042756Y-47247857D01*
X122844607Y-47351007D01*
X122840474Y-47354110D01*
X122840471Y-47354112D01*
X122678134Y-47475998D01*
X122665965Y-47485135D01*
X122511629Y-47646638D01*
X122404204Y-47804118D01*
X122403898Y-47804566D01*
X122348987Y-47849569D01*
X122278462Y-47857740D01*
X122214715Y-47826486D01*
X122194017Y-47802001D01*
X122164062Y-47755697D01*
X122153377Y-47746495D01*
X122143812Y-47750898D01*
X121403022Y-48491688D01*
X121395408Y-48505632D01*
X121395539Y-48507465D01*
X121399790Y-48514080D01*
X122141474Y-49255764D01*
X122153484Y-49262323D01*
X122165223Y-49253355D01*
X122199022Y-49206319D01*
X122200277Y-49207221D01*
X122247391Y-49163855D01*
X122317330Y-49151648D01*
X122382767Y-49179191D01*
X122410580Y-49211013D01*
X122468287Y-49305183D01*
X122468291Y-49305188D01*
X122470987Y-49309588D01*
X122474367Y-49313490D01*
X122531737Y-49379719D01*
X122561220Y-49444304D01*
X122562500Y-49462217D01*
X122562500Y-50082881D01*
X122542498Y-50151002D01*
X122527594Y-50169932D01*
X122511629Y-50186638D01*
X122404204Y-50344118D01*
X122403898Y-50344566D01*
X122348987Y-50389569D01*
X122278462Y-50397740D01*
X122214715Y-50366486D01*
X122194017Y-50342001D01*
X122164062Y-50295697D01*
X122153377Y-50286495D01*
X122143812Y-50290898D01*
X121403022Y-51031688D01*
X121395408Y-51045632D01*
X121395539Y-51047465D01*
X121399790Y-51054080D01*
X122141474Y-51795764D01*
X122153484Y-51802323D01*
X122165223Y-51793355D01*
X122199022Y-51746319D01*
X122200277Y-51747221D01*
X122247391Y-51703855D01*
X122317330Y-51691648D01*
X122382767Y-51719191D01*
X122410580Y-51751013D01*
X122468287Y-51845183D01*
X122468291Y-51845188D01*
X122470987Y-51849588D01*
X122617250Y-52018438D01*
X122789126Y-52161132D01*
X122982000Y-52273838D01*
X122986825Y-52275680D01*
X122986826Y-52275681D01*
X123017162Y-52287265D01*
X123190692Y-52353530D01*
X123195760Y-52354561D01*
X123195763Y-52354562D01*
X123300604Y-52375892D01*
X123409597Y-52398067D01*
X123414772Y-52398257D01*
X123414774Y-52398257D01*
X123627673Y-52406064D01*
X123627677Y-52406064D01*
X123632837Y-52406253D01*
X123637957Y-52405597D01*
X123637959Y-52405597D01*
X123849288Y-52378525D01*
X123849289Y-52378525D01*
X123854416Y-52377868D01*
X123859366Y-52376383D01*
X124063429Y-52315161D01*
X124063434Y-52315159D01*
X124068384Y-52313674D01*
X124268994Y-52215396D01*
X124450860Y-52085673D01*
X124453886Y-52082657D01*
X124518588Y-52054070D01*
X124534976Y-52053000D01*
X125153393Y-52053000D01*
X125221514Y-52073002D01*
X125233877Y-52082055D01*
X125329126Y-52161132D01*
X125522000Y-52273838D01*
X125526825Y-52275680D01*
X125526826Y-52275681D01*
X125557162Y-52287265D01*
X125730692Y-52353530D01*
X125735760Y-52354561D01*
X125735763Y-52354562D01*
X125840604Y-52375892D01*
X125949597Y-52398067D01*
X125954772Y-52398257D01*
X125954774Y-52398257D01*
X126167673Y-52406064D01*
X126167677Y-52406064D01*
X126172837Y-52406253D01*
X126177957Y-52405597D01*
X126177959Y-52405597D01*
X126389288Y-52378525D01*
X126389289Y-52378525D01*
X126394416Y-52377868D01*
X126399366Y-52376383D01*
X126603429Y-52315161D01*
X126603434Y-52315159D01*
X126608384Y-52313674D01*
X126808994Y-52215396D01*
X126990860Y-52085673D01*
X126993886Y-52082657D01*
X127058588Y-52054070D01*
X127074976Y-52053000D01*
X127693393Y-52053000D01*
X127761514Y-52073002D01*
X127773877Y-52082055D01*
X127869126Y-52161132D01*
X128062000Y-52273838D01*
X128066825Y-52275680D01*
X128066826Y-52275681D01*
X128097162Y-52287265D01*
X128270692Y-52353530D01*
X128275760Y-52354561D01*
X128275763Y-52354562D01*
X128380604Y-52375892D01*
X128489597Y-52398067D01*
X128494772Y-52398257D01*
X128494774Y-52398257D01*
X128707673Y-52406064D01*
X128707677Y-52406064D01*
X128712837Y-52406253D01*
X128717957Y-52405597D01*
X128717959Y-52405597D01*
X128929288Y-52378525D01*
X128929289Y-52378525D01*
X128934416Y-52377868D01*
X128939366Y-52376383D01*
X129143429Y-52315161D01*
X129143434Y-52315159D01*
X129148384Y-52313674D01*
X129348994Y-52215396D01*
X129530860Y-52085673D01*
X129543576Y-52073002D01*
X129611639Y-52005176D01*
X129689096Y-51927989D01*
X129689671Y-51928566D01*
X129745391Y-51892062D01*
X129816385Y-51891439D01*
X129876446Y-51929296D01*
X129896051Y-51959191D01*
X129897133Y-51961500D01*
X129899450Y-51968446D01*
X129992522Y-52118848D01*
X129997704Y-52124021D01*
X130082625Y-52208795D01*
X130116704Y-52271078D01*
X130111701Y-52341898D01*
X130082702Y-52387063D01*
X128651171Y-53818595D01*
X128588859Y-53852620D01*
X128562076Y-53855500D01*
X113853850Y-53855500D01*
X113840242Y-53854763D01*
X113839662Y-53854700D01*
X113802612Y-53850675D01*
X113752570Y-53855053D01*
X113747788Y-53855379D01*
X113745310Y-53855500D01*
X113742231Y-53855500D01*
X113739177Y-53855799D01*
X113739166Y-53855800D01*
X113699529Y-53859687D01*
X113698215Y-53859809D01*
X113662688Y-53862917D01*
X113605587Y-53867913D01*
X113600468Y-53869400D01*
X113595167Y-53869920D01*
X113506166Y-53896791D01*
X113505033Y-53897126D01*
X113421586Y-53921370D01*
X113421582Y-53921372D01*
X113415664Y-53923091D01*
X113410932Y-53925544D01*
X113405831Y-53927084D01*
X113400388Y-53929978D01*
X113323740Y-53970731D01*
X113322574Y-53971343D01*
X113245547Y-54011271D01*
X113240074Y-54014108D01*
X113235911Y-54017431D01*
X113231204Y-54019934D01*
X113226429Y-54023828D01*
X113226428Y-54023829D01*
X113159102Y-54078739D01*
X113158075Y-54079567D01*
X113121792Y-54108531D01*
X113121787Y-54108536D01*
X113119028Y-54110738D01*
X113116527Y-54113239D01*
X113115809Y-54113881D01*
X113111461Y-54117594D01*
X113077938Y-54144935D01*
X113074015Y-54149677D01*
X113074013Y-54149679D01*
X113048703Y-54180273D01*
X113040713Y-54189053D01*
X108296621Y-58933145D01*
X108286478Y-58942247D01*
X108256975Y-58965968D01*
X108253008Y-58970696D01*
X108224709Y-59004421D01*
X108221528Y-59008069D01*
X108219885Y-59009881D01*
X108217691Y-59012075D01*
X108190358Y-59045349D01*
X108189696Y-59046147D01*
X108129846Y-59117474D01*
X108127278Y-59122144D01*
X108123897Y-59126261D01*
X108092860Y-59184145D01*
X108080023Y-59208086D01*
X108079394Y-59209245D01*
X108037538Y-59285381D01*
X108037535Y-59285389D01*
X108034567Y-59290787D01*
X108032955Y-59295869D01*
X108030438Y-59300563D01*
X108003238Y-59389531D01*
X108002918Y-59390559D01*
X107974765Y-59479306D01*
X107974171Y-59484602D01*
X107972613Y-59489698D01*
X107971990Y-59495834D01*
X107963218Y-59582187D01*
X107963089Y-59583393D01*
X107957500Y-59633227D01*
X107957500Y-59636754D01*
X107957445Y-59637739D01*
X107956998Y-59643419D01*
X107952626Y-59686462D01*
X105791000Y-59686462D01*
X105791000Y-51011195D01*
X112048251Y-51011195D01*
X112048548Y-51016348D01*
X112048548Y-51016351D01*
X112050910Y-51057312D01*
X112061110Y-51234215D01*
X112062247Y-51239261D01*
X112062248Y-51239267D01*
X112083275Y-51332569D01*
X112110222Y-51452139D01*
X112194266Y-51659116D01*
X112245942Y-51743444D01*
X112308291Y-51845188D01*
X112310987Y-51849588D01*
X112457250Y-52018438D01*
X112629126Y-52161132D01*
X112822000Y-52273838D01*
X112826825Y-52275680D01*
X112826826Y-52275681D01*
X112857162Y-52287265D01*
X113030692Y-52353530D01*
X113035760Y-52354561D01*
X113035763Y-52354562D01*
X113140604Y-52375892D01*
X113249597Y-52398067D01*
X113254772Y-52398257D01*
X113254774Y-52398257D01*
X113467673Y-52406064D01*
X113467677Y-52406064D01*
X113472837Y-52406253D01*
X113477957Y-52405597D01*
X113477959Y-52405597D01*
X113689288Y-52378525D01*
X113689289Y-52378525D01*
X113694416Y-52377868D01*
X113699366Y-52376383D01*
X113903429Y-52315161D01*
X113903434Y-52315159D01*
X113908384Y-52313674D01*
X114108994Y-52215396D01*
X114290860Y-52085673D01*
X114303576Y-52073002D01*
X114372209Y-52004607D01*
X114449096Y-51927989D01*
X114508594Y-51845189D01*
X114579453Y-51746577D01*
X114580776Y-51747528D01*
X114627645Y-51704357D01*
X114697580Y-51692125D01*
X114763026Y-51719644D01*
X114790875Y-51751494D01*
X114850987Y-51849588D01*
X114997250Y-52018438D01*
X115169126Y-52161132D01*
X115362000Y-52273838D01*
X115366825Y-52275680D01*
X115366826Y-52275681D01*
X115397162Y-52287265D01*
X115570692Y-52353530D01*
X115575760Y-52354561D01*
X115575763Y-52354562D01*
X115680604Y-52375892D01*
X115789597Y-52398067D01*
X115794772Y-52398257D01*
X115794774Y-52398257D01*
X116007673Y-52406064D01*
X116007677Y-52406064D01*
X116012837Y-52406253D01*
X116017957Y-52405597D01*
X116017959Y-52405597D01*
X116229288Y-52378525D01*
X116229289Y-52378525D01*
X116234416Y-52377868D01*
X116239366Y-52376383D01*
X116443429Y-52315161D01*
X116443434Y-52315159D01*
X116448384Y-52313674D01*
X116648994Y-52215396D01*
X116830860Y-52085673D01*
X116843576Y-52073002D01*
X116912209Y-52004607D01*
X116989096Y-51927989D01*
X117048594Y-51845189D01*
X117119453Y-51746577D01*
X117120776Y-51747528D01*
X117167645Y-51704357D01*
X117237580Y-51692125D01*
X117303026Y-51719644D01*
X117330875Y-51751494D01*
X117390987Y-51849588D01*
X117537250Y-52018438D01*
X117709126Y-52161132D01*
X117902000Y-52273838D01*
X117906825Y-52275680D01*
X117906826Y-52275681D01*
X117937162Y-52287265D01*
X118110692Y-52353530D01*
X118115760Y-52354561D01*
X118115763Y-52354562D01*
X118220604Y-52375892D01*
X118329597Y-52398067D01*
X118334772Y-52398257D01*
X118334774Y-52398257D01*
X118547673Y-52406064D01*
X118547677Y-52406064D01*
X118552837Y-52406253D01*
X118557957Y-52405597D01*
X118557959Y-52405597D01*
X118769288Y-52378525D01*
X118769289Y-52378525D01*
X118774416Y-52377868D01*
X118779366Y-52376383D01*
X118983429Y-52315161D01*
X118983434Y-52315159D01*
X118988384Y-52313674D01*
X119188994Y-52215396D01*
X119253544Y-52169353D01*
X120270977Y-52169353D01*
X120276258Y-52176407D01*
X120437756Y-52270779D01*
X120447042Y-52275229D01*
X120646001Y-52351203D01*
X120655899Y-52354079D01*
X120864595Y-52396538D01*
X120874823Y-52397757D01*
X121087650Y-52405562D01*
X121097936Y-52405095D01*
X121309185Y-52378034D01*
X121319262Y-52375892D01*
X121523255Y-52314691D01*
X121532842Y-52310933D01*
X121724098Y-52217238D01*
X121732944Y-52211965D01*
X121780247Y-52178223D01*
X121788648Y-52167523D01*
X121781660Y-52154370D01*
X121043812Y-51416522D01*
X121029868Y-51408908D01*
X121028035Y-51409039D01*
X121021420Y-51413290D01*
X120277737Y-52156973D01*
X120270977Y-52169353D01*
X119253544Y-52169353D01*
X119370860Y-52085673D01*
X119383576Y-52073002D01*
X119452209Y-52004607D01*
X119529096Y-51927989D01*
X119588594Y-51845189D01*
X119659453Y-51746577D01*
X119660640Y-51747430D01*
X119707960Y-51703862D01*
X119777897Y-51691645D01*
X119843338Y-51719178D01*
X119871166Y-51751012D01*
X119897459Y-51793919D01*
X119907916Y-51803380D01*
X119916694Y-51799596D01*
X120658978Y-51057312D01*
X120666592Y-51043368D01*
X120666461Y-51041535D01*
X120662210Y-51034920D01*
X119920849Y-50293559D01*
X119909313Y-50287259D01*
X119897031Y-50296882D01*
X119864499Y-50344572D01*
X119809587Y-50389575D01*
X119739063Y-50397746D01*
X119675316Y-50366492D01*
X119654618Y-50342008D01*
X119573825Y-50217121D01*
X119573820Y-50217115D01*
X119571014Y-50212777D01*
X119567532Y-50208950D01*
X119532306Y-50170237D01*
X119501254Y-50106391D01*
X119499500Y-50085438D01*
X119499500Y-49629353D01*
X120270977Y-49629353D01*
X120276258Y-49636407D01*
X120323479Y-49664001D01*
X120372203Y-49715639D01*
X120385274Y-49785422D01*
X120358543Y-49851194D01*
X120318087Y-49884553D01*
X120309466Y-49889041D01*
X120300734Y-49894539D01*
X120280677Y-49909599D01*
X120272223Y-49920927D01*
X120278968Y-49933258D01*
X121018188Y-50672478D01*
X121032132Y-50680092D01*
X121033965Y-50679961D01*
X121040580Y-50675710D01*
X121784389Y-49931901D01*
X121791410Y-49919044D01*
X121784611Y-49909713D01*
X121780559Y-49907021D01*
X121743116Y-49886352D01*
X121693145Y-49835920D01*
X121678373Y-49766477D01*
X121703489Y-49700072D01*
X121730840Y-49673465D01*
X121780247Y-49638223D01*
X121788648Y-49627523D01*
X121781660Y-49614370D01*
X121043812Y-48876522D01*
X121029868Y-48868908D01*
X121028035Y-48869039D01*
X121021420Y-48873290D01*
X120277737Y-49616973D01*
X120270977Y-49629353D01*
X119499500Y-49629353D01*
X119499500Y-49468470D01*
X119519502Y-49400349D01*
X119527460Y-49389620D01*
X119529096Y-49387989D01*
X119659453Y-49206577D01*
X119660640Y-49207430D01*
X119707960Y-49163862D01*
X119777897Y-49151645D01*
X119843338Y-49179178D01*
X119871166Y-49211012D01*
X119897459Y-49253919D01*
X119907916Y-49263380D01*
X119916694Y-49259596D01*
X120658978Y-48517312D01*
X120666592Y-48503368D01*
X120666461Y-48501535D01*
X120662210Y-48494920D01*
X119920849Y-47753559D01*
X119909313Y-47747259D01*
X119897031Y-47756882D01*
X119864499Y-47804572D01*
X119809587Y-47849575D01*
X119739063Y-47857746D01*
X119675316Y-47826492D01*
X119654618Y-47802008D01*
X119573822Y-47677117D01*
X119573820Y-47677114D01*
X119571014Y-47672777D01*
X119420670Y-47507551D01*
X119416619Y-47504352D01*
X119416615Y-47504348D01*
X119260338Y-47380927D01*
X120272223Y-47380927D01*
X120278968Y-47393258D01*
X121018188Y-48132478D01*
X121032132Y-48140092D01*
X121033965Y-48139961D01*
X121040580Y-48135710D01*
X121784389Y-47391901D01*
X121791410Y-47379044D01*
X121784611Y-47369713D01*
X121780554Y-47367018D01*
X121594117Y-47264099D01*
X121584705Y-47259869D01*
X121383959Y-47188780D01*
X121373989Y-47186146D01*
X121164327Y-47148801D01*
X121154073Y-47147831D01*
X120941116Y-47145228D01*
X120930832Y-47145948D01*
X120720321Y-47178161D01*
X120710293Y-47180550D01*
X120507868Y-47246712D01*
X120498359Y-47250709D01*
X120309466Y-47349040D01*
X120300734Y-47354539D01*
X120280677Y-47369599D01*
X120272223Y-47380927D01*
X119260338Y-47380927D01*
X119249414Y-47372300D01*
X119249410Y-47372298D01*
X119245359Y-47369098D01*
X119049789Y-47261138D01*
X119044920Y-47259414D01*
X119044916Y-47259412D01*
X118844087Y-47188295D01*
X118844083Y-47188294D01*
X118839212Y-47186569D01*
X118834119Y-47185662D01*
X118834116Y-47185661D01*
X118624373Y-47148300D01*
X118624367Y-47148299D01*
X118619284Y-47147394D01*
X118545452Y-47146492D01*
X118401081Y-47144728D01*
X118401079Y-47144728D01*
X118395911Y-47144665D01*
X118175091Y-47178455D01*
X117962756Y-47247857D01*
X117764607Y-47351007D01*
X117760474Y-47354110D01*
X117760471Y-47354112D01*
X117598134Y-47475998D01*
X117585965Y-47485135D01*
X117431629Y-47646638D01*
X117324201Y-47804121D01*
X117269293Y-47849121D01*
X117198768Y-47857292D01*
X117135021Y-47826038D01*
X117114324Y-47801554D01*
X117033822Y-47677117D01*
X117033820Y-47677114D01*
X117031014Y-47672777D01*
X116880670Y-47507551D01*
X116876619Y-47504352D01*
X116876615Y-47504348D01*
X116709414Y-47372300D01*
X116709410Y-47372298D01*
X116705359Y-47369098D01*
X116509789Y-47261138D01*
X116504920Y-47259414D01*
X116504916Y-47259412D01*
X116304087Y-47188295D01*
X116304083Y-47188294D01*
X116299212Y-47186569D01*
X116294119Y-47185662D01*
X116294116Y-47185661D01*
X116084373Y-47148300D01*
X116084367Y-47148299D01*
X116079284Y-47147394D01*
X116005452Y-47146492D01*
X115861081Y-47144728D01*
X115861079Y-47144728D01*
X115855911Y-47144665D01*
X115635091Y-47178455D01*
X115422756Y-47247857D01*
X115224607Y-47351007D01*
X115220474Y-47354110D01*
X115220471Y-47354112D01*
X115058134Y-47475998D01*
X115045965Y-47485135D01*
X114891629Y-47646638D01*
X114784201Y-47804121D01*
X114729293Y-47849121D01*
X114658768Y-47857292D01*
X114595021Y-47826038D01*
X114574324Y-47801554D01*
X114493822Y-47677117D01*
X114493820Y-47677114D01*
X114491014Y-47672777D01*
X114340670Y-47507551D01*
X114336619Y-47504352D01*
X114336615Y-47504348D01*
X114169414Y-47372300D01*
X114169410Y-47372298D01*
X114165359Y-47369098D01*
X113969789Y-47261138D01*
X113964920Y-47259414D01*
X113964916Y-47259412D01*
X113764087Y-47188295D01*
X113764083Y-47188294D01*
X113759212Y-47186569D01*
X113754119Y-47185662D01*
X113754116Y-47185661D01*
X113544373Y-47148300D01*
X113544367Y-47148299D01*
X113539284Y-47147394D01*
X113465452Y-47146492D01*
X113321081Y-47144728D01*
X113321079Y-47144728D01*
X113315911Y-47144665D01*
X113095091Y-47178455D01*
X112882756Y-47247857D01*
X112684607Y-47351007D01*
X112680474Y-47354110D01*
X112680471Y-47354112D01*
X112518134Y-47475998D01*
X112505965Y-47485135D01*
X112351629Y-47646638D01*
X112225743Y-47831180D01*
X112131688Y-48033805D01*
X112071989Y-48249070D01*
X112048251Y-48471195D01*
X112048548Y-48476348D01*
X112048548Y-48476351D01*
X112054011Y-48571090D01*
X112061110Y-48694215D01*
X112062247Y-48699261D01*
X112062248Y-48699267D01*
X112082119Y-48787439D01*
X112110222Y-48912139D01*
X112194266Y-49119116D01*
X112245019Y-49201938D01*
X112308291Y-49305188D01*
X112310987Y-49309588D01*
X112457250Y-49478438D01*
X112629126Y-49621132D01*
X112633593Y-49623742D01*
X112702445Y-49663976D01*
X112751169Y-49715614D01*
X112764240Y-49785397D01*
X112737509Y-49851169D01*
X112697055Y-49884527D01*
X112684607Y-49891007D01*
X112680474Y-49894110D01*
X112680471Y-49894112D01*
X112518134Y-50015998D01*
X112505965Y-50025135D01*
X112502393Y-50028873D01*
X112362450Y-50175315D01*
X112351629Y-50186638D01*
X112225743Y-50371180D01*
X112131688Y-50573805D01*
X112071989Y-50789070D01*
X112048251Y-51011195D01*
X105791000Y-51011195D01*
X105791000Y-42417173D01*
X105811002Y-42349052D01*
X105864658Y-42302559D01*
X105934932Y-42292455D01*
X105999512Y-42321949D01*
X106029267Y-42359970D01*
X106058414Y-42417173D01*
X106177380Y-42650657D01*
X106377668Y-42959075D01*
X106609098Y-43244867D01*
X106869133Y-43504902D01*
X107154925Y-43736332D01*
X107463342Y-43936620D01*
X107466276Y-43938115D01*
X107466283Y-43938119D01*
X107788066Y-44102075D01*
X107791006Y-44103573D01*
X108134326Y-44235361D01*
X108489541Y-44330541D01*
X108682558Y-44361112D01*
X108849511Y-44387555D01*
X108849519Y-44387556D01*
X108852759Y-44388069D01*
X109220000Y-44407315D01*
X109587241Y-44388069D01*
X109590481Y-44387556D01*
X109590489Y-44387555D01*
X109757442Y-44361112D01*
X109950459Y-44330541D01*
X110305674Y-44235361D01*
X110648994Y-44103573D01*
X110651934Y-44102075D01*
X110973717Y-43938119D01*
X110973724Y-43938115D01*
X110976658Y-43936620D01*
X111285075Y-43736332D01*
X111570867Y-43504902D01*
X111830902Y-43244867D01*
X112062332Y-42959075D01*
X112262620Y-42650657D01*
X112429573Y-42322994D01*
X112561361Y-41979674D01*
X112656541Y-41624459D01*
X112714069Y-41261241D01*
X112733315Y-40894000D01*
X112714069Y-40526759D01*
X112656541Y-40163541D01*
X112561361Y-39808326D01*
X112429573Y-39465006D01*
X112262620Y-39137343D01*
X112062332Y-38828925D01*
X111830902Y-38543133D01*
X111570867Y-38283098D01*
X111285075Y-38051668D01*
X110976658Y-37851380D01*
X110973724Y-37849885D01*
X110973717Y-37849881D01*
X110651934Y-37685925D01*
X110648994Y-37684427D01*
X110381201Y-37581631D01*
X110324773Y-37538545D01*
X110300596Y-37471792D01*
X110316347Y-37402565D01*
X110367025Y-37352843D01*
X110426355Y-37338000D01*
X134429645Y-37338000D01*
X134497766Y-37358002D01*
G37*
%TD.AperFunction*%
%TD*%
M02*
