%TF.GenerationSoftware,KiCad,Pcbnew,(6.0.0-0)*%
%TF.CreationDate,2022-11-10T22:51:00-05:00*%
%TF.ProjectId,VCA,5643412e-6b69-4636-9164-5f7063625858,rev?*%
%TF.SameCoordinates,Original*%
%TF.FileFunction,Copper,L2,Bot*%
%TF.FilePolarity,Positive*%
%FSLAX46Y46*%
G04 Gerber Fmt 4.6, Leading zero omitted, Abs format (unit mm)*
G04 Created by KiCad (PCBNEW (6.0.0-0)) date 2022-11-10 22:51:00*
%MOMM*%
%LPD*%
G01*
G04 APERTURE LIST*
G04 Aperture macros list*
%AMRoundRect*
0 Rectangle with rounded corners*
0 $1 Rounding radius*
0 $2 $3 $4 $5 $6 $7 $8 $9 X,Y pos of 4 corners*
0 Add a 4 corners polygon primitive as box body*
4,1,4,$2,$3,$4,$5,$6,$7,$8,$9,$2,$3,0*
0 Add four circle primitives for the rounded corners*
1,1,$1+$1,$2,$3*
1,1,$1+$1,$4,$5*
1,1,$1+$1,$6,$7*
1,1,$1+$1,$8,$9*
0 Add four rect primitives between the rounded corners*
20,1,$1+$1,$2,$3,$4,$5,0*
20,1,$1+$1,$4,$5,$6,$7,0*
20,1,$1+$1,$6,$7,$8,$9,0*
20,1,$1+$1,$8,$9,$2,$3,0*%
%AMRotRect*
0 Rectangle, with rotation*
0 The origin of the aperture is its center*
0 $1 length*
0 $2 width*
0 $3 Rotation angle, in degrees counterclockwise*
0 Add horizontal line*
21,1,$1,$2,0,0,$3*%
G04 Aperture macros list end*
%TA.AperFunction,ComponentPad*%
%ADD10C,2.340000*%
%TD*%
%TA.AperFunction,ComponentPad*%
%ADD11C,0.800000*%
%TD*%
%TA.AperFunction,ComponentPad*%
%ADD12C,6.000000*%
%TD*%
%TA.AperFunction,ComponentPad*%
%ADD13R,3.000000X8.500000*%
%TD*%
%TA.AperFunction,ComponentPad*%
%ADD14RotRect,3.000000X6.500000X315.000000*%
%TD*%
%TA.AperFunction,SMDPad,CuDef*%
%ADD15RoundRect,0.250000X-0.262500X-0.450000X0.262500X-0.450000X0.262500X0.450000X-0.262500X0.450000X0*%
%TD*%
%TA.AperFunction,SMDPad,CuDef*%
%ADD16RoundRect,0.250000X0.450000X-0.262500X0.450000X0.262500X-0.450000X0.262500X-0.450000X-0.262500X0*%
%TD*%
%TA.AperFunction,SMDPad,CuDef*%
%ADD17RoundRect,0.250000X-0.450000X0.262500X-0.450000X-0.262500X0.450000X-0.262500X0.450000X0.262500X0*%
%TD*%
%TA.AperFunction,SMDPad,CuDef*%
%ADD18R,2.000000X2.000000*%
%TD*%
%TA.AperFunction,ComponentPad*%
%ADD19RoundRect,0.250000X0.600000X-0.600000X0.600000X0.600000X-0.600000X0.600000X-0.600000X-0.600000X0*%
%TD*%
%TA.AperFunction,ComponentPad*%
%ADD20C,1.700000*%
%TD*%
%TA.AperFunction,SMDPad,CuDef*%
%ADD21RoundRect,0.150000X0.150000X-0.587500X0.150000X0.587500X-0.150000X0.587500X-0.150000X-0.587500X0*%
%TD*%
%TA.AperFunction,SMDPad,CuDef*%
%ADD22RoundRect,0.250000X0.262500X0.450000X-0.262500X0.450000X-0.262500X-0.450000X0.262500X-0.450000X0*%
%TD*%
%TA.AperFunction,SMDPad,CuDef*%
%ADD23RoundRect,0.150000X0.150000X-0.825000X0.150000X0.825000X-0.150000X0.825000X-0.150000X-0.825000X0*%
%TD*%
%TA.AperFunction,ViaPad*%
%ADD24C,0.800000*%
%TD*%
%TA.AperFunction,Conductor*%
%ADD25C,0.300000*%
%TD*%
%TA.AperFunction,Conductor*%
%ADD26C,0.250000*%
%TD*%
G04 APERTURE END LIST*
D10*
%TO.P,RV1,1,1*%
%TO.N,+12V*%
X127174000Y-143256000D03*
%TO.P,RV1,2,2*%
%TO.N,Net-(R14-Pad2)*%
X122174000Y-143256000D03*
%TO.P,RV1,3,3*%
%TO.N,-12V*%
X117174000Y-143256000D03*
%TD*%
D11*
%TO.P,REF\u002A\u002A,1*%
%TO.N,N/C*%
X135636000Y-38644000D03*
X133386000Y-40894000D03*
X134045010Y-42484990D03*
X137226990Y-42484990D03*
X134045010Y-39303010D03*
X137226990Y-39303010D03*
X135636000Y-43144000D03*
X137886000Y-40894000D03*
D12*
X135636000Y-40894000D03*
%TD*%
D11*
%TO.P,REF\u002A\u002A,1*%
%TO.N,N/C*%
X135636000Y-145760000D03*
X137226990Y-145100990D03*
X137886000Y-143510000D03*
X134045010Y-141919010D03*
X137226990Y-141919010D03*
X133386000Y-143510000D03*
X134045010Y-145100990D03*
X135636000Y-141260000D03*
D12*
X135636000Y-143510000D03*
%TD*%
D11*
%TO.P,REF\u002A\u002A,1*%
%TO.N,N/C*%
X106970000Y-143510000D03*
X109220000Y-145760000D03*
D12*
X109220000Y-143510000D03*
D11*
X109220000Y-141260000D03*
X110810990Y-141919010D03*
X107629010Y-145100990D03*
X107629010Y-141919010D03*
X110810990Y-145100990D03*
X111470000Y-143510000D03*
%TD*%
D13*
%TO.P,J4,*%
%TO.N,*%
X116676000Y-105889000D03*
D14*
%TO.P,J4,1,Pin_1*%
%TO.N,CV*%
X127886000Y-109871000D03*
%TD*%
D11*
%TO.P,REF\u002A\u002A,1*%
%TO.N,N/C*%
X106970000Y-40894000D03*
X109220000Y-43144000D03*
D12*
X109220000Y-40894000D03*
D11*
X111470000Y-40894000D03*
X107629010Y-39303010D03*
X110810990Y-42484990D03*
X110810990Y-39303010D03*
X107629010Y-42484990D03*
X109220000Y-38644000D03*
%TD*%
D13*
%TO.P,J3,*%
%TO.N,*%
X116676000Y-67535000D03*
D14*
%TO.P,J3,1,Pin_1*%
%TO.N,SIGNAL*%
X127886000Y-71517000D03*
%TD*%
D13*
%TO.P,J2,*%
%TO.N,*%
X116676000Y-86585000D03*
D14*
%TO.P,J2,1,Pin_1*%
%TO.N,OUT*%
X127886000Y-90567000D03*
%TD*%
D15*
%TO.P,R1,1*%
%TO.N,CV*%
X119344072Y-116973000D03*
%TO.P,R1,2*%
%TO.N,Net-(R1-Pad2)*%
X121169072Y-116973000D03*
%TD*%
D16*
%TO.P,R10,1*%
%TO.N,GND*%
X114414572Y-128299500D03*
%TO.P,R10,2*%
%TO.N,Net-(R10-Pad2)*%
X114414572Y-126474500D03*
%TD*%
D17*
%TO.P,R7,1*%
%TO.N,+12V*%
X119189772Y-126474500D03*
%TO.P,R7,2*%
%TO.N,Net-(Q2-Pad3)*%
X119189772Y-128299500D03*
%TD*%
D18*
%TO.P,TP2,1,1*%
%TO.N,Net-(Q1-Pad2)*%
X109334572Y-131197000D03*
%TD*%
D19*
%TO.P,J1,1,Pin_1*%
%TO.N,-12V*%
X131191000Y-51044500D03*
D20*
%TO.P,J1,2,Pin_2*%
X131191000Y-48504500D03*
%TO.P,J1,3,Pin_3*%
%TO.N,GND*%
X128651000Y-51044500D03*
%TO.P,J1,4,Pin_4*%
X128651000Y-48504500D03*
%TO.P,J1,5,Pin_5*%
X126111000Y-51044500D03*
%TO.P,J1,6,Pin_6*%
X126111000Y-48504500D03*
%TO.P,J1,7,Pin_7*%
X123571000Y-51044500D03*
%TO.P,J1,8,Pin_8*%
X123571000Y-48504500D03*
%TO.P,J1,9,Pin_9*%
%TO.N,+12V*%
X121031000Y-51044500D03*
%TO.P,J1,10,Pin_10*%
X121031000Y-48504500D03*
%TO.P,J1,11,Pin_11*%
%TO.N,+5V*%
X118491000Y-51044500D03*
%TO.P,J1,12,Pin_12*%
X118491000Y-48504500D03*
%TO.P,J1,13,Pin_13*%
%TO.N,unconnected-(J1-Pad13)*%
X115951000Y-51044500D03*
%TO.P,J1,14,Pin_14*%
X115951000Y-48504500D03*
%TO.P,J1,15,Pin_15*%
%TO.N,unconnected-(J1-Pad15)*%
X113411000Y-51044500D03*
%TO.P,J1,16,Pin_16*%
X113411000Y-48504500D03*
%TD*%
D21*
%TO.P,Q2,1,B*%
%TO.N,Net-(Q2-Pad1)*%
X118920572Y-132388500D03*
%TO.P,Q2,2,E*%
%TO.N,Net-(Q1-Pad2)*%
X117020572Y-132388500D03*
%TO.P,Q2,3,C*%
%TO.N,Net-(Q2-Pad3)*%
X117970572Y-130513500D03*
%TD*%
D18*
%TO.P,TP3,1,1*%
%TO.N,Net-(Q1-Pad3)*%
X109334572Y-123577000D03*
%TD*%
D17*
%TO.P,R6,1*%
%TO.N,+12V*%
X121577372Y-126474500D03*
%TO.P,R6,2*%
%TO.N,Net-(Q1-Pad3)*%
X121577372Y-128299500D03*
%TD*%
D22*
%TO.P,R14,1*%
%TO.N,Net-(Q2-Pad1)*%
X114969572Y-130435000D03*
%TO.P,R14,2*%
%TO.N,Net-(R14-Pad2)*%
X113144572Y-130435000D03*
%TD*%
D15*
%TO.P,R11,1*%
%TO.N,Net-(R11-Pad1)*%
X117058072Y-122053000D03*
%TO.P,R11,2*%
%TO.N,Net-(R11-Pad2)*%
X118883072Y-122053000D03*
%TD*%
D16*
%TO.P,R9,1*%
%TO.N,Net-(Q2-Pad3)*%
X116802172Y-128299500D03*
%TO.P,R9,2*%
%TO.N,Net-(R10-Pad2)*%
X116802172Y-126474500D03*
%TD*%
%TO.P,R3,1*%
%TO.N,Net-(Q1-Pad1)*%
X126352572Y-128299500D03*
%TO.P,R3,2*%
%TO.N,SIGNAL*%
X126352572Y-126474500D03*
%TD*%
D17*
%TO.P,R5,1*%
%TO.N,GND*%
X123964972Y-126474500D03*
%TO.P,R5,2*%
%TO.N,Net-(Q1-Pad1)*%
X123964972Y-128299500D03*
%TD*%
D15*
%TO.P,R8,1*%
%TO.N,Net-(Q1-Pad3)*%
X117058072Y-124339000D03*
%TO.P,R8,2*%
%TO.N,Net-(R11-Pad2)*%
X118883072Y-124339000D03*
%TD*%
D22*
%TO.P,R4,1*%
%TO.N,Net-(R2-Pad2)*%
X124979072Y-124339000D03*
%TO.P,R4,2*%
%TO.N,Net-(Q1-Pad2)*%
X123154072Y-124339000D03*
%TD*%
D21*
%TO.P,Q1,1,B*%
%TO.N,Net-(Q1-Pad1)*%
X125016572Y-132388500D03*
%TO.P,Q1,2,E*%
%TO.N,Net-(Q1-Pad2)*%
X123116572Y-132388500D03*
%TO.P,Q1,3,C*%
%TO.N,Net-(Q1-Pad3)*%
X124066572Y-130513500D03*
%TD*%
D23*
%TO.P,U1,1*%
%TO.N,Net-(R2-Pad2)*%
X136512572Y-129862000D03*
%TO.P,U1,2,-*%
%TO.N,Net-(R1-Pad2)*%
X135242572Y-129862000D03*
%TO.P,U1,3,+*%
%TO.N,GND*%
X133972572Y-129862000D03*
%TO.P,U1,4,V+*%
%TO.N,+12V*%
X132702572Y-129862000D03*
%TO.P,U1,5,+*%
%TO.N,Net-(R10-Pad2)*%
X131432572Y-129862000D03*
%TO.P,U1,6,-*%
%TO.N,Net-(R11-Pad2)*%
X130162572Y-129862000D03*
%TO.P,U1,7*%
%TO.N,Net-(R11-Pad1)*%
X128892572Y-129862000D03*
%TO.P,U1,8*%
%TO.N,unconnected-(U1-Pad8)*%
X128892572Y-124912000D03*
%TO.P,U1,9,-*%
%TO.N,unconnected-(U1-Pad9)*%
X130162572Y-124912000D03*
%TO.P,U1,10,+*%
%TO.N,unconnected-(U1-Pad10)*%
X131432572Y-124912000D03*
%TO.P,U1,11,V-*%
%TO.N,GND*%
X132702572Y-124912000D03*
%TO.P,U1,12,+*%
%TO.N,unconnected-(U1-Pad12)*%
X133972572Y-124912000D03*
%TO.P,U1,13,-*%
%TO.N,unconnected-(U1-Pad13)*%
X135242572Y-124912000D03*
%TO.P,U1,14*%
%TO.N,unconnected-(U1-Pad14)*%
X136512572Y-124912000D03*
%TD*%
D15*
%TO.P,R13,1*%
%TO.N,GND*%
X113144572Y-132467000D03*
%TO.P,R13,2*%
%TO.N,Net-(Q2-Pad1)*%
X114969572Y-132467000D03*
%TD*%
%TO.P,R2,1*%
%TO.N,Net-(R1-Pad2)*%
X123154072Y-122053000D03*
%TO.P,R2,2*%
%TO.N,Net-(R2-Pad2)*%
X124979072Y-122053000D03*
%TD*%
D18*
%TO.P,TP4,1,1*%
%TO.N,Net-(Q2-Pad3)*%
X109334572Y-127387000D03*
%TD*%
D15*
%TO.P,R12,1*%
%TO.N,OUT*%
X111724072Y-116973000D03*
%TO.P,R12,2*%
%TO.N,Net-(R11-Pad1)*%
X113549072Y-116973000D03*
%TD*%
D18*
%TO.P,TP1,1,1*%
%TO.N,Net-(Q1-Pad1)*%
X109334572Y-119767000D03*
%TD*%
D24*
%TO.N,+12V*%
X132702572Y-136004572D03*
X120396000Y-124968000D03*
%TO.N,GND*%
X125222000Y-127254000D03*
X133858000Y-132080000D03*
X110490000Y-134366000D03*
X109474000Y-138430000D03*
%TO.N,SIGNAL*%
X130302000Y-119888000D03*
%TO.N,Net-(Q1-Pad2)*%
X121839521Y-124231373D03*
X121907572Y-134118000D03*
%TO.N,Net-(R2-Pad2)*%
X125082572Y-120275000D03*
X137528572Y-127895000D03*
%TO.N,Net-(R11-Pad2)*%
X130162572Y-127641000D03*
X120510572Y-121811500D03*
%TO.N,Net-(R10-Pad2)*%
X114414572Y-124847000D03*
X131432572Y-131705000D03*
%TO.N,Net-(R11-Pad1)*%
X117058072Y-120425500D03*
X128892572Y-127641000D03*
%TO.N,Net-(Q2-Pad1)*%
X116446572Y-130435000D03*
X120256572Y-132467000D03*
%TO.N,Net-(R14-Pad2)*%
X111760000Y-130302000D03*
%TD*%
D25*
%TO.N,+12V*%
X121577372Y-126474500D02*
X121577372Y-126149372D01*
X119189772Y-126474500D02*
X121577372Y-126474500D01*
X121577372Y-126149372D02*
X120396000Y-124968000D01*
X132702572Y-129862000D02*
X132702572Y-136004572D01*
D26*
%TO.N,GND*%
X111245572Y-134366000D02*
X110490000Y-134366000D01*
X133858000Y-132080000D02*
X133858000Y-129976572D01*
X124442500Y-126474500D02*
X125222000Y-127254000D01*
X113144572Y-132467000D02*
X111245572Y-134366000D01*
X123964972Y-126474500D02*
X124442500Y-126474500D01*
X133858000Y-129976572D02*
X133972572Y-129862000D01*
D25*
%TO.N,CV*%
X127886000Y-109871000D02*
X124063000Y-109871000D01*
X119344072Y-114589928D02*
X119344072Y-116973000D01*
X124063000Y-109871000D02*
X119344072Y-114589928D01*
%TO.N,SIGNAL*%
X128016000Y-122174000D02*
X130302000Y-119888000D01*
X126352572Y-126474500D02*
X126352572Y-123837428D01*
X126352572Y-123837428D02*
X128016000Y-122174000D01*
%TO.N,OUT*%
X127886000Y-90567000D02*
X122793000Y-90567000D01*
X111724072Y-101635928D02*
X111724072Y-116973000D01*
X122793000Y-90567000D02*
X111724072Y-101635928D01*
%TO.N,Net-(Q1-Pad1)*%
X126352572Y-128299500D02*
X123964972Y-128299500D01*
X125016572Y-132388500D02*
X125016572Y-133803000D01*
X106794572Y-121037000D02*
X108064572Y-119767000D01*
X125016572Y-131517000D02*
X125016572Y-132388500D01*
X109334572Y-136023000D02*
X106794572Y-133483000D01*
X108064572Y-119767000D02*
X109334572Y-119767000D01*
X126352572Y-128299500D02*
X126352572Y-130181000D01*
X122796572Y-136023000D02*
X109334572Y-136023000D01*
X125016572Y-133803000D02*
X122796572Y-136023000D01*
X106794572Y-133483000D02*
X106794572Y-121037000D01*
X126352572Y-130181000D02*
X125016572Y-131517000D01*
%TO.N,Net-(Q1-Pad2)*%
X121907572Y-134118000D02*
X121780572Y-134245000D01*
X121947148Y-124339000D02*
X121839521Y-124231373D01*
X109334572Y-134270528D02*
X110179545Y-135115501D01*
X123116572Y-132909000D02*
X121907572Y-134118000D01*
X121780572Y-134245000D02*
X118224572Y-134245000D01*
X114814071Y-135115501D02*
X117020572Y-132909000D01*
X118224572Y-134245000D02*
X117020572Y-133041000D01*
X123154072Y-124339000D02*
X121947148Y-124339000D01*
X117020572Y-133041000D02*
X117020572Y-132388500D01*
X110179545Y-135115501D02*
X114814071Y-135115501D01*
X109334572Y-131197000D02*
X109334572Y-134270528D01*
%TO.N,Net-(Q1-Pad3)*%
X120614392Y-127336520D02*
X118491443Y-127336520D01*
X122875072Y-130513500D02*
X121577372Y-129215800D01*
X115176572Y-123577000D02*
X109334572Y-123577000D01*
X117058072Y-124339000D02*
X115938572Y-124339000D01*
X121577372Y-129215800D02*
X121577372Y-128299500D01*
X117970572Y-125251500D02*
X117058072Y-124339000D01*
X118491443Y-127336520D02*
X117970572Y-126815649D01*
X124066572Y-130513500D02*
X122875072Y-130513500D01*
X121577372Y-128299500D02*
X120614392Y-127336520D01*
X115938572Y-124339000D02*
X115176572Y-123577000D01*
X117970572Y-126815649D02*
X117970572Y-125251500D01*
%TO.N,Net-(Q2-Pad3)*%
X109334572Y-127387000D02*
X111112572Y-127387000D01*
X117970572Y-129518700D02*
X119189772Y-128299500D01*
X115938572Y-129165000D02*
X116802172Y-128301400D01*
X112890572Y-129165000D02*
X115938572Y-129165000D01*
X117970572Y-129467900D02*
X116802172Y-128299500D01*
X111112572Y-127387000D02*
X112890572Y-129165000D01*
X117970572Y-130513500D02*
X117970572Y-129467900D01*
%TO.N,Net-(R1-Pad2)*%
X123154072Y-121140500D02*
X121169072Y-119155500D01*
X137782572Y-121799000D02*
X137782572Y-125863000D01*
X123154072Y-122053000D02*
X123154072Y-121140500D01*
X132956572Y-116973000D02*
X137782572Y-121799000D01*
X121169072Y-119155500D02*
X121169072Y-116973000D01*
X121169072Y-116973000D02*
X132956572Y-116973000D01*
X137782572Y-125863000D02*
X135242572Y-128403000D01*
X135242572Y-128403000D02*
X135242572Y-129862000D01*
%TO.N,Net-(R2-Pad2)*%
X136512572Y-129862000D02*
X136831572Y-129862000D01*
X136831572Y-129862000D02*
X137528572Y-129165000D01*
X124979072Y-122053000D02*
X124979072Y-124339000D01*
X125082572Y-120275000D02*
X125082572Y-121949500D01*
X137528572Y-129165000D02*
X137528572Y-127895000D01*
%TO.N,Net-(R11-Pad2)*%
X119124572Y-121811500D02*
X120510572Y-121811500D01*
X130162572Y-127641000D02*
X130162572Y-129862000D01*
X118883072Y-122053000D02*
X118883072Y-124339000D01*
%TO.N,Net-(R10-Pad2)*%
X131432572Y-129862000D02*
X131432572Y-131705000D01*
X114414572Y-124847000D02*
X114414572Y-126474500D01*
X116802172Y-126474500D02*
X114414572Y-126474500D01*
%TO.N,Net-(R11-Pad1)*%
X117058072Y-120425500D02*
X117058072Y-122053000D01*
X128892572Y-129862000D02*
X128892572Y-127641000D01*
X117058072Y-119362500D02*
X117058072Y-120425500D01*
X113549072Y-116973000D02*
X114668572Y-116973000D01*
X114668572Y-116973000D02*
X117058072Y-119362500D01*
%TO.N,Net-(Q2-Pad1)*%
X116446572Y-130435000D02*
X114969572Y-130435000D01*
X114969572Y-130435000D02*
X114969572Y-132467000D01*
X120178072Y-132388500D02*
X120256572Y-132467000D01*
X118920572Y-132388500D02*
X120178072Y-132388500D01*
%TO.N,Net-(R14-Pad2)*%
X111760000Y-130302000D02*
X113011572Y-130302000D01*
X113011572Y-130302000D02*
X113144572Y-130435000D01*
%TD*%
%TA.AperFunction,Conductor*%
%TO.N,GND*%
G36*
X134497766Y-37358002D02*
G01*
X134544259Y-37411658D01*
X134554363Y-37481932D01*
X134524869Y-37546512D01*
X134474799Y-37581631D01*
X134207006Y-37684427D01*
X134204066Y-37685925D01*
X133882284Y-37849881D01*
X133882277Y-37849885D01*
X133879343Y-37851380D01*
X133570925Y-38051668D01*
X133285133Y-38283098D01*
X133025098Y-38543133D01*
X132793668Y-38828925D01*
X132593380Y-39137343D01*
X132426427Y-39465006D01*
X132294639Y-39808326D01*
X132199459Y-40163541D01*
X132141931Y-40526759D01*
X132122685Y-40894000D01*
X132141931Y-41261241D01*
X132199459Y-41624459D01*
X132294639Y-41979674D01*
X132426427Y-42322994D01*
X132593380Y-42650657D01*
X132793668Y-42959075D01*
X133025098Y-43244867D01*
X133285133Y-43504902D01*
X133570925Y-43736332D01*
X133879342Y-43936620D01*
X133882276Y-43938115D01*
X133882283Y-43938119D01*
X134204066Y-44102075D01*
X134207006Y-44103573D01*
X134550326Y-44235361D01*
X134905541Y-44330541D01*
X135098558Y-44361112D01*
X135265511Y-44387555D01*
X135265519Y-44387556D01*
X135268759Y-44388069D01*
X135636000Y-44407315D01*
X136003241Y-44388069D01*
X136006481Y-44387556D01*
X136006489Y-44387555D01*
X136173442Y-44361112D01*
X136366459Y-44330541D01*
X136721674Y-44235361D01*
X137064994Y-44103573D01*
X137067934Y-44102075D01*
X137389717Y-43938119D01*
X137389724Y-43938115D01*
X137392658Y-43936620D01*
X137701075Y-43736332D01*
X137986867Y-43504902D01*
X138246902Y-43244867D01*
X138478332Y-42959075D01*
X138678620Y-42650657D01*
X138797587Y-42417173D01*
X138826733Y-42359970D01*
X138875481Y-42308355D01*
X138944396Y-42291289D01*
X139011598Y-42314190D01*
X139055750Y-42369787D01*
X139065000Y-42417173D01*
X139065000Y-141986827D01*
X139044998Y-142054948D01*
X138991342Y-142101441D01*
X138921068Y-142111545D01*
X138856488Y-142082051D01*
X138826733Y-142044030D01*
X138680119Y-141756284D01*
X138680115Y-141756277D01*
X138678620Y-141753343D01*
X138565530Y-141579198D01*
X138480134Y-141447700D01*
X138478332Y-141444925D01*
X138246902Y-141159133D01*
X137986867Y-140899098D01*
X137701075Y-140667668D01*
X137392658Y-140467380D01*
X137389724Y-140465885D01*
X137389717Y-140465881D01*
X137067934Y-140301925D01*
X137064994Y-140300427D01*
X136721674Y-140168639D01*
X136366459Y-140073459D01*
X136173442Y-140042888D01*
X136006489Y-140016445D01*
X136006481Y-140016444D01*
X136003241Y-140015931D01*
X135636000Y-139996685D01*
X135268759Y-140015931D01*
X135265519Y-140016444D01*
X135265511Y-140016445D01*
X135098558Y-140042888D01*
X134905541Y-140073459D01*
X134550326Y-140168639D01*
X134207006Y-140300427D01*
X134204066Y-140301925D01*
X133882284Y-140465881D01*
X133882277Y-140465885D01*
X133879343Y-140467380D01*
X133570925Y-140667668D01*
X133285133Y-140899098D01*
X133025098Y-141159133D01*
X132793668Y-141444925D01*
X132791866Y-141447700D01*
X132706471Y-141579198D01*
X132593380Y-141753343D01*
X132591885Y-141756277D01*
X132591881Y-141756284D01*
X132495605Y-141945236D01*
X132426427Y-142081006D01*
X132422842Y-142090345D01*
X132335139Y-142318821D01*
X132294639Y-142424326D01*
X132199459Y-142779541D01*
X132141931Y-143142759D01*
X132122685Y-143510000D01*
X132141931Y-143877241D01*
X132142444Y-143880481D01*
X132142445Y-143880489D01*
X132168888Y-144047442D01*
X132199459Y-144240459D01*
X132294639Y-144595674D01*
X132426427Y-144938994D01*
X132593380Y-145266657D01*
X132793668Y-145575075D01*
X133025098Y-145860867D01*
X133285133Y-146120902D01*
X133570925Y-146352332D01*
X133879342Y-146552620D01*
X133882285Y-146554120D01*
X133882291Y-146554123D01*
X133920778Y-146573733D01*
X133972394Y-146622481D01*
X133989460Y-146691396D01*
X133966560Y-146758597D01*
X133910962Y-146802750D01*
X133863576Y-146812000D01*
X110992424Y-146812000D01*
X110924303Y-146791998D01*
X110877810Y-146738342D01*
X110867706Y-146668068D01*
X110897200Y-146603488D01*
X110935222Y-146573733D01*
X110973709Y-146554123D01*
X110973715Y-146554120D01*
X110976658Y-146552620D01*
X111285075Y-146352332D01*
X111570867Y-146120902D01*
X111830902Y-145860867D01*
X112062332Y-145575075D01*
X112262620Y-145266657D01*
X112429573Y-144938994D01*
X112561361Y-144595674D01*
X112656541Y-144240459D01*
X112687112Y-144047442D01*
X112713555Y-143880489D01*
X112713556Y-143880481D01*
X112714069Y-143877241D01*
X112733315Y-143510000D01*
X112717695Y-143211939D01*
X115491370Y-143211939D01*
X115503339Y-143461131D01*
X115552010Y-143705818D01*
X115636314Y-143940622D01*
X115754398Y-144160386D01*
X115903668Y-144360283D01*
X116080844Y-144535921D01*
X116084606Y-144538679D01*
X116084609Y-144538682D01*
X116274265Y-144677742D01*
X116282036Y-144683440D01*
X116286171Y-144685616D01*
X116286175Y-144685618D01*
X116402009Y-144746561D01*
X116502823Y-144799602D01*
X116738354Y-144881853D01*
X116742947Y-144882725D01*
X116978867Y-144927516D01*
X116978870Y-144927516D01*
X116983456Y-144928387D01*
X117108099Y-144933284D01*
X117228075Y-144937999D01*
X117228081Y-144937999D01*
X117232743Y-144938182D01*
X117330134Y-144927516D01*
X117476087Y-144911532D01*
X117476092Y-144911531D01*
X117480740Y-144911022D01*
X117494919Y-144907289D01*
X117717476Y-144848694D01*
X117717478Y-144848693D01*
X117721999Y-144847503D01*
X117726296Y-144845657D01*
X117946924Y-144750868D01*
X117946926Y-144750867D01*
X117951218Y-144749023D01*
X118061667Y-144680675D01*
X118159391Y-144620202D01*
X118159395Y-144620199D01*
X118163364Y-144617743D01*
X118353775Y-144456548D01*
X118435316Y-144363569D01*
X118515187Y-144272494D01*
X118515191Y-144272489D01*
X118518269Y-144268979D01*
X118534563Y-144243648D01*
X118650703Y-144063087D01*
X118653231Y-144059157D01*
X118755697Y-143831691D01*
X118756967Y-143827188D01*
X118822146Y-143596082D01*
X118822147Y-143596079D01*
X118823416Y-143591578D01*
X118854900Y-143344092D01*
X118857207Y-143256000D01*
X118853933Y-143211939D01*
X120491370Y-143211939D01*
X120503339Y-143461131D01*
X120552010Y-143705818D01*
X120636314Y-143940622D01*
X120754398Y-144160386D01*
X120903668Y-144360283D01*
X121080844Y-144535921D01*
X121084606Y-144538679D01*
X121084609Y-144538682D01*
X121274265Y-144677742D01*
X121282036Y-144683440D01*
X121286171Y-144685616D01*
X121286175Y-144685618D01*
X121402009Y-144746561D01*
X121502823Y-144799602D01*
X121738354Y-144881853D01*
X121742947Y-144882725D01*
X121978867Y-144927516D01*
X121978870Y-144927516D01*
X121983456Y-144928387D01*
X122108099Y-144933284D01*
X122228075Y-144937999D01*
X122228081Y-144937999D01*
X122232743Y-144938182D01*
X122330134Y-144927516D01*
X122476087Y-144911532D01*
X122476092Y-144911531D01*
X122480740Y-144911022D01*
X122494919Y-144907289D01*
X122717476Y-144848694D01*
X122717478Y-144848693D01*
X122721999Y-144847503D01*
X122726296Y-144845657D01*
X122946924Y-144750868D01*
X122946926Y-144750867D01*
X122951218Y-144749023D01*
X123061667Y-144680675D01*
X123159391Y-144620202D01*
X123159395Y-144620199D01*
X123163364Y-144617743D01*
X123353775Y-144456548D01*
X123435316Y-144363569D01*
X123515187Y-144272494D01*
X123515191Y-144272489D01*
X123518269Y-144268979D01*
X123534563Y-144243648D01*
X123650703Y-144063087D01*
X123653231Y-144059157D01*
X123755697Y-143831691D01*
X123756967Y-143827188D01*
X123822146Y-143596082D01*
X123822147Y-143596079D01*
X123823416Y-143591578D01*
X123854900Y-143344092D01*
X123857207Y-143256000D01*
X123853933Y-143211939D01*
X125491370Y-143211939D01*
X125503339Y-143461131D01*
X125552010Y-143705818D01*
X125636314Y-143940622D01*
X125754398Y-144160386D01*
X125903668Y-144360283D01*
X126080844Y-144535921D01*
X126084606Y-144538679D01*
X126084609Y-144538682D01*
X126274265Y-144677742D01*
X126282036Y-144683440D01*
X126286171Y-144685616D01*
X126286175Y-144685618D01*
X126402009Y-144746561D01*
X126502823Y-144799602D01*
X126738354Y-144881853D01*
X126742947Y-144882725D01*
X126978867Y-144927516D01*
X126978870Y-144927516D01*
X126983456Y-144928387D01*
X127108099Y-144933284D01*
X127228075Y-144937999D01*
X127228081Y-144937999D01*
X127232743Y-144938182D01*
X127330134Y-144927516D01*
X127476087Y-144911532D01*
X127476092Y-144911531D01*
X127480740Y-144911022D01*
X127494919Y-144907289D01*
X127717476Y-144848694D01*
X127717478Y-144848693D01*
X127721999Y-144847503D01*
X127726296Y-144845657D01*
X127946924Y-144750868D01*
X127946926Y-144750867D01*
X127951218Y-144749023D01*
X128061667Y-144680675D01*
X128159391Y-144620202D01*
X128159395Y-144620199D01*
X128163364Y-144617743D01*
X128353775Y-144456548D01*
X128435316Y-144363569D01*
X128515187Y-144272494D01*
X128515191Y-144272489D01*
X128518269Y-144268979D01*
X128534563Y-144243648D01*
X128650703Y-144063087D01*
X128653231Y-144059157D01*
X128755697Y-143831691D01*
X128756967Y-143827188D01*
X128822146Y-143596082D01*
X128822147Y-143596079D01*
X128823416Y-143591578D01*
X128854900Y-143344092D01*
X128857207Y-143256000D01*
X128838718Y-143007206D01*
X128783659Y-142763878D01*
X128778806Y-142751398D01*
X128694931Y-142535714D01*
X128694930Y-142535712D01*
X128693238Y-142531361D01*
X128569442Y-142314763D01*
X128414990Y-142118842D01*
X128233276Y-141947902D01*
X128117160Y-141867350D01*
X128032130Y-141808362D01*
X128032125Y-141808359D01*
X128028292Y-141805700D01*
X128024110Y-141803637D01*
X128024102Y-141803633D01*
X127808728Y-141697423D01*
X127808725Y-141697422D01*
X127804540Y-141695358D01*
X127566937Y-141619300D01*
X127562330Y-141618550D01*
X127562327Y-141618549D01*
X127325312Y-141579949D01*
X127325313Y-141579949D01*
X127320701Y-141579198D01*
X127199753Y-141577615D01*
X127075920Y-141575994D01*
X127075917Y-141575994D01*
X127071243Y-141575933D01*
X126824042Y-141609575D01*
X126819556Y-141610883D01*
X126819554Y-141610883D01*
X126790677Y-141619300D01*
X126584528Y-141679387D01*
X126357965Y-141783834D01*
X126354056Y-141786397D01*
X126153242Y-141918056D01*
X126153237Y-141918060D01*
X126149329Y-141920622D01*
X126075152Y-141986827D01*
X126022061Y-142034213D01*
X125963202Y-142086746D01*
X125803675Y-142278557D01*
X125674252Y-142491840D01*
X125577775Y-142721911D01*
X125576624Y-142726443D01*
X125576623Y-142726446D01*
X125567117Y-142763878D01*
X125516365Y-142963714D01*
X125491370Y-143211939D01*
X123853933Y-143211939D01*
X123838718Y-143007206D01*
X123783659Y-142763878D01*
X123778806Y-142751398D01*
X123694931Y-142535714D01*
X123694930Y-142535712D01*
X123693238Y-142531361D01*
X123569442Y-142314763D01*
X123414990Y-142118842D01*
X123233276Y-141947902D01*
X123117160Y-141867350D01*
X123032130Y-141808362D01*
X123032125Y-141808359D01*
X123028292Y-141805700D01*
X123024110Y-141803637D01*
X123024102Y-141803633D01*
X122808728Y-141697423D01*
X122808725Y-141697422D01*
X122804540Y-141695358D01*
X122566937Y-141619300D01*
X122562330Y-141618550D01*
X122562327Y-141618549D01*
X122325312Y-141579949D01*
X122325313Y-141579949D01*
X122320701Y-141579198D01*
X122199753Y-141577615D01*
X122075920Y-141575994D01*
X122075917Y-141575994D01*
X122071243Y-141575933D01*
X121824042Y-141609575D01*
X121819556Y-141610883D01*
X121819554Y-141610883D01*
X121790677Y-141619300D01*
X121584528Y-141679387D01*
X121357965Y-141783834D01*
X121354056Y-141786397D01*
X121153242Y-141918056D01*
X121153237Y-141918060D01*
X121149329Y-141920622D01*
X121075152Y-141986827D01*
X121022061Y-142034213D01*
X120963202Y-142086746D01*
X120803675Y-142278557D01*
X120674252Y-142491840D01*
X120577775Y-142721911D01*
X120576624Y-142726443D01*
X120576623Y-142726446D01*
X120567117Y-142763878D01*
X120516365Y-142963714D01*
X120491370Y-143211939D01*
X118853933Y-143211939D01*
X118838718Y-143007206D01*
X118783659Y-142763878D01*
X118778806Y-142751398D01*
X118694931Y-142535714D01*
X118694930Y-142535712D01*
X118693238Y-142531361D01*
X118569442Y-142314763D01*
X118414990Y-142118842D01*
X118233276Y-141947902D01*
X118117160Y-141867350D01*
X118032130Y-141808362D01*
X118032125Y-141808359D01*
X118028292Y-141805700D01*
X118024110Y-141803637D01*
X118024102Y-141803633D01*
X117808728Y-141697423D01*
X117808725Y-141697422D01*
X117804540Y-141695358D01*
X117566937Y-141619300D01*
X117562330Y-141618550D01*
X117562327Y-141618549D01*
X117325312Y-141579949D01*
X117325313Y-141579949D01*
X117320701Y-141579198D01*
X117199753Y-141577615D01*
X117075920Y-141575994D01*
X117075917Y-141575994D01*
X117071243Y-141575933D01*
X116824042Y-141609575D01*
X116819556Y-141610883D01*
X116819554Y-141610883D01*
X116790677Y-141619300D01*
X116584528Y-141679387D01*
X116357965Y-141783834D01*
X116354056Y-141786397D01*
X116153242Y-141918056D01*
X116153237Y-141918060D01*
X116149329Y-141920622D01*
X116075152Y-141986827D01*
X116022061Y-142034213D01*
X115963202Y-142086746D01*
X115803675Y-142278557D01*
X115674252Y-142491840D01*
X115577775Y-142721911D01*
X115576624Y-142726443D01*
X115576623Y-142726446D01*
X115567117Y-142763878D01*
X115516365Y-142963714D01*
X115491370Y-143211939D01*
X112717695Y-143211939D01*
X112714069Y-143142759D01*
X112656541Y-142779541D01*
X112561361Y-142424326D01*
X112520862Y-142318821D01*
X112433158Y-142090345D01*
X112429573Y-142081006D01*
X112360395Y-141945236D01*
X112264119Y-141756284D01*
X112264115Y-141756277D01*
X112262620Y-141753343D01*
X112149530Y-141579198D01*
X112064134Y-141447700D01*
X112062332Y-141444925D01*
X111830902Y-141159133D01*
X111570867Y-140899098D01*
X111285075Y-140667668D01*
X110976658Y-140467380D01*
X110973724Y-140465885D01*
X110973717Y-140465881D01*
X110651934Y-140301925D01*
X110648994Y-140300427D01*
X110305674Y-140168639D01*
X109950459Y-140073459D01*
X109757442Y-140042888D01*
X109590489Y-140016445D01*
X109590481Y-140016444D01*
X109587241Y-140015931D01*
X109220000Y-139996685D01*
X108852759Y-140015931D01*
X108849519Y-140016444D01*
X108849511Y-140016445D01*
X108682558Y-140042888D01*
X108489541Y-140073459D01*
X108134326Y-140168639D01*
X107791006Y-140300427D01*
X107788066Y-140301925D01*
X107466284Y-140465881D01*
X107466277Y-140465885D01*
X107463343Y-140467380D01*
X107154925Y-140667668D01*
X106869133Y-140899098D01*
X106609098Y-141159133D01*
X106377668Y-141444925D01*
X106375866Y-141447700D01*
X106290471Y-141579198D01*
X106177380Y-141753343D01*
X106175885Y-141756277D01*
X106175881Y-141756284D01*
X106029267Y-142044030D01*
X105980519Y-142095645D01*
X105911604Y-142112711D01*
X105844402Y-142089810D01*
X105800250Y-142034213D01*
X105791000Y-141986827D01*
X105791000Y-121016152D01*
X106131166Y-121016152D01*
X106134643Y-121052929D01*
X106135513Y-121062138D01*
X106136072Y-121073996D01*
X106136072Y-133400944D01*
X106135513Y-133412800D01*
X106133784Y-133420537D01*
X106134033Y-133428459D01*
X106136010Y-133491369D01*
X106136072Y-133495327D01*
X106136072Y-133524432D01*
X106136628Y-133528832D01*
X106137560Y-133540664D01*
X106139010Y-133586831D01*
X106144236Y-133604816D01*
X106144991Y-133607416D01*
X106149002Y-133626782D01*
X106151690Y-133648064D01*
X106154606Y-133655429D01*
X106154607Y-133655433D01*
X106168698Y-133691021D01*
X106172537Y-133702231D01*
X106185427Y-133746600D01*
X106196347Y-133765065D01*
X106205038Y-133782805D01*
X106212937Y-133802756D01*
X106240088Y-133840126D01*
X106246605Y-133850048D01*
X106266079Y-133882977D01*
X106266082Y-133882981D01*
X106270119Y-133889807D01*
X106285283Y-133904971D01*
X106298123Y-133920004D01*
X106310731Y-133937357D01*
X106339708Y-133961329D01*
X106346324Y-133966802D01*
X106355104Y-133974792D01*
X108810913Y-136430600D01*
X108818903Y-136439381D01*
X108818911Y-136439390D01*
X108823156Y-136446080D01*
X108845086Y-136466674D01*
X108874846Y-136494620D01*
X108877688Y-136497375D01*
X108898239Y-136517926D01*
X108901373Y-136520357D01*
X108901735Y-136520638D01*
X108910763Y-136528348D01*
X108944439Y-136559972D01*
X108951390Y-136563793D01*
X108951391Y-136563794D01*
X108963227Y-136570301D01*
X108979756Y-136581158D01*
X108990441Y-136589447D01*
X108990443Y-136589448D01*
X108996703Y-136594304D01*
X109039116Y-136612657D01*
X109049753Y-136617868D01*
X109090235Y-136640124D01*
X109097914Y-136642096D01*
X109097915Y-136642096D01*
X109111006Y-136645457D01*
X109129708Y-136651859D01*
X109149395Y-136660379D01*
X109157224Y-136661619D01*
X109195020Y-136667605D01*
X109206646Y-136670013D01*
X109243707Y-136679529D01*
X109243708Y-136679529D01*
X109251384Y-136681500D01*
X109272830Y-136681500D01*
X109292540Y-136683051D01*
X109313723Y-136686406D01*
X109359707Y-136682059D01*
X109371566Y-136681500D01*
X122714516Y-136681500D01*
X122726372Y-136682059D01*
X122726375Y-136682059D01*
X122734109Y-136683788D01*
X122804941Y-136681562D01*
X122808899Y-136681500D01*
X122838004Y-136681500D01*
X122842404Y-136680944D01*
X122854236Y-136680012D01*
X122900403Y-136678562D01*
X122920993Y-136672580D01*
X122940354Y-136668570D01*
X122947996Y-136667605D01*
X122953776Y-136666875D01*
X122953777Y-136666875D01*
X122961636Y-136665882D01*
X122969001Y-136662966D01*
X122969005Y-136662965D01*
X123004593Y-136648874D01*
X123015803Y-136645035D01*
X123060172Y-136632145D01*
X123078637Y-136621225D01*
X123096377Y-136612534D01*
X123116328Y-136604635D01*
X123153701Y-136577482D01*
X123163620Y-136570967D01*
X123196549Y-136551493D01*
X123196553Y-136551490D01*
X123203379Y-136547453D01*
X123218543Y-136532289D01*
X123233577Y-136519448D01*
X123244515Y-136511501D01*
X123250929Y-136506841D01*
X123280375Y-136471247D01*
X123288364Y-136462468D01*
X125424177Y-134326655D01*
X125432957Y-134318665D01*
X125432959Y-134318663D01*
X125439652Y-134314416D01*
X125488177Y-134262742D01*
X125490931Y-134259901D01*
X125511499Y-134239333D01*
X125514219Y-134235826D01*
X125521925Y-134226804D01*
X125548116Y-134198913D01*
X125553544Y-134193133D01*
X125559547Y-134182214D01*
X125563875Y-134174342D01*
X125574729Y-134157818D01*
X125583017Y-134147132D01*
X125587876Y-134140868D01*
X125598396Y-134116558D01*
X125606226Y-134098465D01*
X125611448Y-134087805D01*
X125629877Y-134054284D01*
X125629878Y-134054282D01*
X125633696Y-134047337D01*
X125639031Y-134026559D01*
X125645430Y-134007869D01*
X125653952Y-133988176D01*
X125661178Y-133942552D01*
X125663585Y-133930929D01*
X125673100Y-133893868D01*
X125675072Y-133886188D01*
X125675072Y-133864741D01*
X125676623Y-133845031D01*
X125678738Y-133831677D01*
X125679978Y-133823848D01*
X125675631Y-133777859D01*
X125675072Y-133766004D01*
X125675072Y-133444251D01*
X125692619Y-133380112D01*
X125771680Y-133246427D01*
X125775717Y-133239601D01*
X125784064Y-133210872D01*
X125795184Y-133172596D01*
X125822134Y-133079831D01*
X125823207Y-133066206D01*
X125824879Y-133044958D01*
X125824879Y-133044950D01*
X125825072Y-133042502D01*
X125825072Y-131734498D01*
X125822717Y-131704578D01*
X125837313Y-131635099D01*
X125859234Y-131605597D01*
X126760172Y-130704659D01*
X126768953Y-130696669D01*
X126768962Y-130696661D01*
X126775652Y-130692416D01*
X126824192Y-130640726D01*
X126826946Y-130637885D01*
X126847498Y-130617333D01*
X126850210Y-130613837D01*
X126857921Y-130604808D01*
X126884116Y-130576913D01*
X126889544Y-130571133D01*
X126899873Y-130552345D01*
X126910730Y-130535816D01*
X126919019Y-130525131D01*
X126919020Y-130525129D01*
X126923876Y-130518869D01*
X126942229Y-130476456D01*
X126947440Y-130465819D01*
X126969696Y-130425337D01*
X126975029Y-130404566D01*
X126981431Y-130385864D01*
X126989951Y-130366177D01*
X126997177Y-130320552D01*
X126999585Y-130308926D01*
X127009101Y-130271865D01*
X127009101Y-130271864D01*
X127011072Y-130264188D01*
X127011072Y-130242742D01*
X127012623Y-130223031D01*
X127014738Y-130209678D01*
X127015978Y-130201849D01*
X127011631Y-130155864D01*
X127011072Y-130144006D01*
X127011072Y-129382857D01*
X127031074Y-129314736D01*
X127084730Y-129268243D01*
X127097194Y-129263334D01*
X127119567Y-129255870D01*
X127119574Y-129255867D01*
X127126518Y-129253550D01*
X127276920Y-129160478D01*
X127401877Y-129035303D01*
X127441890Y-128970391D01*
X127490847Y-128890968D01*
X127490848Y-128890966D01*
X127494687Y-128884738D01*
X127550369Y-128716861D01*
X127561072Y-128612400D01*
X127561072Y-127986600D01*
X127559855Y-127974866D01*
X127550810Y-127887692D01*
X127550809Y-127887688D01*
X127550098Y-127880834D01*
X127531259Y-127824365D01*
X127496440Y-127720002D01*
X127494122Y-127713054D01*
X127449533Y-127641000D01*
X127979068Y-127641000D01*
X127979758Y-127647565D01*
X127983538Y-127683525D01*
X127999030Y-127830928D01*
X128058045Y-128012556D01*
X128061348Y-128018278D01*
X128061349Y-128018279D01*
X128077065Y-128045500D01*
X128153532Y-128177944D01*
X128157950Y-128182851D01*
X128157951Y-128182852D01*
X128201708Y-128231449D01*
X128232426Y-128295456D01*
X128234072Y-128315759D01*
X128234072Y-128568749D01*
X128216525Y-128632888D01*
X128133427Y-128773399D01*
X128087010Y-128933169D01*
X128086506Y-128939574D01*
X128086505Y-128939579D01*
X128084265Y-128968042D01*
X128084072Y-128970498D01*
X128084072Y-130753502D01*
X128087010Y-130790831D01*
X128111288Y-130874396D01*
X128129354Y-130936580D01*
X128133427Y-130950601D01*
X128137464Y-130957427D01*
X128214081Y-131086980D01*
X128214083Y-131086983D01*
X128218119Y-131093807D01*
X128335765Y-131211453D01*
X128342589Y-131215489D01*
X128342592Y-131215491D01*
X128432074Y-131268410D01*
X128478971Y-131296145D01*
X128486582Y-131298356D01*
X128486584Y-131298357D01*
X128496057Y-131301109D01*
X128638741Y-131342562D01*
X128645146Y-131343066D01*
X128645151Y-131343067D01*
X128673614Y-131345307D01*
X128673622Y-131345307D01*
X128676070Y-131345500D01*
X129109074Y-131345500D01*
X129111522Y-131345307D01*
X129111530Y-131345307D01*
X129139993Y-131343067D01*
X129139998Y-131343066D01*
X129146403Y-131342562D01*
X129289087Y-131301109D01*
X129298560Y-131298357D01*
X129298562Y-131298356D01*
X129306173Y-131296145D01*
X129449379Y-131211453D01*
X129452061Y-131208771D01*
X129516433Y-131183498D01*
X129586056Y-131197400D01*
X129601884Y-131207572D01*
X129605765Y-131211453D01*
X129748971Y-131296145D01*
X129756582Y-131298356D01*
X129756584Y-131298357D01*
X129766057Y-131301109D01*
X129908741Y-131342562D01*
X129915146Y-131343066D01*
X129915151Y-131343067D01*
X129943614Y-131345307D01*
X129943622Y-131345307D01*
X129946070Y-131345500D01*
X130379074Y-131345500D01*
X130381521Y-131345307D01*
X130381531Y-131345307D01*
X130411780Y-131342926D01*
X130481260Y-131357522D01*
X130531820Y-131407365D01*
X130547406Y-131476629D01*
X130541499Y-131507474D01*
X130539030Y-131515072D01*
X130538340Y-131521633D01*
X130538340Y-131521635D01*
X130527166Y-131627949D01*
X130519068Y-131705000D01*
X130519758Y-131711565D01*
X130535447Y-131860834D01*
X130539030Y-131894928D01*
X130598045Y-132076556D01*
X130693532Y-132241944D01*
X130697950Y-132246851D01*
X130697951Y-132246852D01*
X130816897Y-132378955D01*
X130821319Y-132383866D01*
X130903680Y-132443705D01*
X130944779Y-132473565D01*
X130975820Y-132496118D01*
X130981848Y-132498802D01*
X130981850Y-132498803D01*
X131119888Y-132560261D01*
X131150284Y-132573794D01*
X131243684Y-132593647D01*
X131330628Y-132612128D01*
X131330633Y-132612128D01*
X131337085Y-132613500D01*
X131528059Y-132613500D01*
X131534511Y-132612128D01*
X131534516Y-132612128D01*
X131621460Y-132593647D01*
X131714860Y-132573794D01*
X131761383Y-132553081D01*
X131866823Y-132506136D01*
X131937190Y-132496702D01*
X132001487Y-132526809D01*
X132039301Y-132586897D01*
X132044072Y-132621243D01*
X132044072Y-135329813D01*
X132024070Y-135397934D01*
X132011708Y-135414123D01*
X131963532Y-135467628D01*
X131868045Y-135633016D01*
X131809030Y-135814644D01*
X131789068Y-136004572D01*
X131809030Y-136194500D01*
X131868045Y-136376128D01*
X131963532Y-136541516D01*
X131967950Y-136546423D01*
X131967951Y-136546424D01*
X132077063Y-136667605D01*
X132091319Y-136683438D01*
X132245820Y-136795690D01*
X132251848Y-136798374D01*
X132251850Y-136798375D01*
X132414253Y-136870681D01*
X132420284Y-136873366D01*
X132513684Y-136893219D01*
X132600628Y-136911700D01*
X132600633Y-136911700D01*
X132607085Y-136913072D01*
X132798059Y-136913072D01*
X132804511Y-136911700D01*
X132804516Y-136911700D01*
X132891460Y-136893219D01*
X132984860Y-136873366D01*
X132990891Y-136870681D01*
X133153294Y-136798375D01*
X133153296Y-136798374D01*
X133159324Y-136795690D01*
X133313825Y-136683438D01*
X133328081Y-136667605D01*
X133437193Y-136546424D01*
X133437194Y-136546423D01*
X133441612Y-136541516D01*
X133537099Y-136376128D01*
X133596114Y-136194500D01*
X133616076Y-136004572D01*
X133596114Y-135814644D01*
X133537099Y-135633016D01*
X133441612Y-135467628D01*
X133393436Y-135414123D01*
X133362718Y-135350116D01*
X133361072Y-135329813D01*
X133361072Y-131399428D01*
X133381074Y-131331307D01*
X133434730Y-131284814D01*
X133505004Y-131274710D01*
X133544956Y-131288773D01*
X133545074Y-131288499D01*
X133548977Y-131290188D01*
X133551210Y-131290974D01*
X133552347Y-131291646D01*
X133566782Y-131297893D01*
X133701177Y-131336939D01*
X133715278Y-131336899D01*
X133718572Y-131329630D01*
X133718572Y-128400122D01*
X133714599Y-128386591D01*
X133706701Y-128385456D01*
X133566782Y-128426107D01*
X133552351Y-128432352D01*
X133422896Y-128508910D01*
X133415208Y-128514874D01*
X133349123Y-128540821D01*
X133279500Y-128526920D01*
X133263414Y-128516582D01*
X133259379Y-128512547D01*
X133229902Y-128495114D01*
X133153456Y-128449904D01*
X133116173Y-128427855D01*
X133108562Y-128425644D01*
X133108560Y-128425643D01*
X133020714Y-128400122D01*
X132956403Y-128381438D01*
X132949998Y-128380934D01*
X132949993Y-128380933D01*
X132921530Y-128378693D01*
X132921522Y-128378693D01*
X132919074Y-128378500D01*
X132486070Y-128378500D01*
X132483622Y-128378693D01*
X132483614Y-128378693D01*
X132455151Y-128380933D01*
X132455146Y-128380934D01*
X132448741Y-128381438D01*
X132384430Y-128400122D01*
X132296584Y-128425643D01*
X132296582Y-128425644D01*
X132288971Y-128427855D01*
X132145765Y-128512547D01*
X132143083Y-128515229D01*
X132078711Y-128540502D01*
X132009088Y-128526600D01*
X131993260Y-128516428D01*
X131989379Y-128512547D01*
X131846173Y-128427855D01*
X131838562Y-128425644D01*
X131838560Y-128425643D01*
X131750714Y-128400122D01*
X131686403Y-128381438D01*
X131679998Y-128380934D01*
X131679993Y-128380933D01*
X131651530Y-128378693D01*
X131651522Y-128378693D01*
X131649074Y-128378500D01*
X131216070Y-128378500D01*
X131213622Y-128378693D01*
X131213614Y-128378693D01*
X131185151Y-128380933D01*
X131185146Y-128380934D01*
X131178741Y-128381438D01*
X131114430Y-128400122D01*
X131026584Y-128425643D01*
X131026582Y-128425644D01*
X131018971Y-128427855D01*
X131011207Y-128432446D01*
X131010376Y-128432657D01*
X131004875Y-128435038D01*
X131004491Y-128434150D01*
X130942392Y-128449904D01*
X130875061Y-128427386D01*
X130830593Y-128372040D01*
X130821072Y-128323991D01*
X130821072Y-128315759D01*
X130841074Y-128247638D01*
X130853436Y-128231449D01*
X130897193Y-128182852D01*
X130897194Y-128182851D01*
X130901612Y-128177944D01*
X130978079Y-128045500D01*
X130993795Y-128018279D01*
X130993796Y-128018278D01*
X130997099Y-128012556D01*
X131056114Y-127830928D01*
X131071607Y-127683525D01*
X131075386Y-127647565D01*
X131076076Y-127641000D01*
X131058757Y-127476216D01*
X131056804Y-127457635D01*
X131056804Y-127457633D01*
X131056114Y-127451072D01*
X130997099Y-127269444D01*
X130901612Y-127104056D01*
X130867318Y-127065968D01*
X130778247Y-126967045D01*
X130778246Y-126967044D01*
X130773825Y-126962134D01*
X130619324Y-126849882D01*
X130613296Y-126847198D01*
X130613294Y-126847197D01*
X130450891Y-126774891D01*
X130450890Y-126774891D01*
X130444860Y-126772206D01*
X130338602Y-126749620D01*
X130264516Y-126733872D01*
X130264511Y-126733872D01*
X130258059Y-126732500D01*
X130067085Y-126732500D01*
X130060633Y-126733872D01*
X130060628Y-126733872D01*
X129986542Y-126749620D01*
X129880284Y-126772206D01*
X129874254Y-126774891D01*
X129874253Y-126774891D01*
X129711850Y-126847197D01*
X129711848Y-126847198D01*
X129705820Y-126849882D01*
X129601632Y-126925579D01*
X129534766Y-126949437D01*
X129465614Y-126933357D01*
X129453516Y-126925582D01*
X129349324Y-126849882D01*
X129343296Y-126847198D01*
X129343294Y-126847197D01*
X129180891Y-126774891D01*
X129180890Y-126774891D01*
X129174860Y-126772206D01*
X129068602Y-126749620D01*
X128994516Y-126733872D01*
X128994511Y-126733872D01*
X128988059Y-126732500D01*
X128797085Y-126732500D01*
X128790633Y-126733872D01*
X128790628Y-126733872D01*
X128716542Y-126749620D01*
X128610284Y-126772206D01*
X128604254Y-126774891D01*
X128604253Y-126774891D01*
X128441850Y-126847197D01*
X128441848Y-126847198D01*
X128435820Y-126849882D01*
X128281319Y-126962134D01*
X128276898Y-126967044D01*
X128276897Y-126967045D01*
X128187827Y-127065968D01*
X128153532Y-127104056D01*
X128058045Y-127269444D01*
X127999030Y-127451072D01*
X127998340Y-127457633D01*
X127998340Y-127457635D01*
X127996387Y-127476216D01*
X127979068Y-127641000D01*
X127449533Y-127641000D01*
X127401050Y-127562652D01*
X127314463Y-127476216D01*
X127280384Y-127413934D01*
X127285387Y-127343114D01*
X127314308Y-127298025D01*
X127396706Y-127215483D01*
X127401877Y-127210303D01*
X127441890Y-127145391D01*
X127490847Y-127065968D01*
X127490848Y-127065966D01*
X127494687Y-127059738D01*
X127531272Y-126949437D01*
X127548204Y-126898389D01*
X127548204Y-126898387D01*
X127550369Y-126891861D01*
X127554273Y-126853763D01*
X127560744Y-126790598D01*
X127561072Y-126787400D01*
X127561072Y-126161600D01*
X127560735Y-126158350D01*
X127550810Y-126062692D01*
X127550809Y-126062688D01*
X127550098Y-126055834D01*
X127547544Y-126048177D01*
X127496440Y-125895002D01*
X127494122Y-125888054D01*
X127441799Y-125803502D01*
X128084072Y-125803502D01*
X128084265Y-125805950D01*
X128084265Y-125805958D01*
X128085056Y-125816000D01*
X128087010Y-125840831D01*
X128133427Y-126000601D01*
X128147111Y-126023739D01*
X128214081Y-126136980D01*
X128214083Y-126136983D01*
X128218119Y-126143807D01*
X128335765Y-126261453D01*
X128342588Y-126265488D01*
X128342592Y-126265491D01*
X128385961Y-126291139D01*
X128478971Y-126346145D01*
X128486582Y-126348356D01*
X128486584Y-126348357D01*
X128504862Y-126353667D01*
X128638741Y-126392562D01*
X128645146Y-126393066D01*
X128645151Y-126393067D01*
X128673614Y-126395307D01*
X128673622Y-126395307D01*
X128676070Y-126395500D01*
X129109074Y-126395500D01*
X129111522Y-126395307D01*
X129111530Y-126395307D01*
X129139993Y-126393067D01*
X129139998Y-126393066D01*
X129146403Y-126392562D01*
X129280282Y-126353667D01*
X129298560Y-126348357D01*
X129298562Y-126348356D01*
X129306173Y-126346145D01*
X129449379Y-126261453D01*
X129452061Y-126258771D01*
X129516433Y-126233498D01*
X129586056Y-126247400D01*
X129601884Y-126257572D01*
X129605765Y-126261453D01*
X129748971Y-126346145D01*
X129756582Y-126348356D01*
X129756584Y-126348357D01*
X129774862Y-126353667D01*
X129908741Y-126392562D01*
X129915146Y-126393066D01*
X129915151Y-126393067D01*
X129943614Y-126395307D01*
X129943622Y-126395307D01*
X129946070Y-126395500D01*
X130379074Y-126395500D01*
X130381522Y-126395307D01*
X130381530Y-126395307D01*
X130409993Y-126393067D01*
X130409998Y-126393066D01*
X130416403Y-126392562D01*
X130550282Y-126353667D01*
X130568560Y-126348357D01*
X130568562Y-126348356D01*
X130576173Y-126346145D01*
X130719379Y-126261453D01*
X130722061Y-126258771D01*
X130786433Y-126233498D01*
X130856056Y-126247400D01*
X130871884Y-126257572D01*
X130875765Y-126261453D01*
X131018971Y-126346145D01*
X131026582Y-126348356D01*
X131026584Y-126348357D01*
X131044862Y-126353667D01*
X131178741Y-126392562D01*
X131185146Y-126393066D01*
X131185151Y-126393067D01*
X131213614Y-126395307D01*
X131213622Y-126395307D01*
X131216070Y-126395500D01*
X131649074Y-126395500D01*
X131651522Y-126395307D01*
X131651530Y-126395307D01*
X131679993Y-126393067D01*
X131679998Y-126393066D01*
X131686403Y-126392562D01*
X131820282Y-126353667D01*
X131838560Y-126348357D01*
X131838562Y-126348356D01*
X131846173Y-126346145D01*
X131989379Y-126261453D01*
X131992319Y-126258513D01*
X132056843Y-126233179D01*
X132126466Y-126247080D01*
X132145212Y-126259129D01*
X132152895Y-126265089D01*
X132282351Y-126341648D01*
X132296782Y-126347893D01*
X132431177Y-126386939D01*
X132445278Y-126386899D01*
X132448572Y-126379630D01*
X132448572Y-123450122D01*
X132444599Y-123436591D01*
X132436701Y-123435456D01*
X132296782Y-123476107D01*
X132282351Y-123482352D01*
X132152896Y-123558910D01*
X132145208Y-123564874D01*
X132079123Y-123590821D01*
X132009500Y-123576920D01*
X131993414Y-123566582D01*
X131989379Y-123562547D01*
X131980707Y-123557418D01*
X131852999Y-123481892D01*
X131853000Y-123481892D01*
X131846173Y-123477855D01*
X131838562Y-123475644D01*
X131838560Y-123475643D01*
X131750714Y-123450122D01*
X131686403Y-123431438D01*
X131679998Y-123430934D01*
X131679993Y-123430933D01*
X131651530Y-123428693D01*
X131651522Y-123428693D01*
X131649074Y-123428500D01*
X131216070Y-123428500D01*
X131213622Y-123428693D01*
X131213614Y-123428693D01*
X131185151Y-123430933D01*
X131185146Y-123430934D01*
X131178741Y-123431438D01*
X131114430Y-123450122D01*
X131026584Y-123475643D01*
X131026582Y-123475644D01*
X131018971Y-123477855D01*
X130875765Y-123562547D01*
X130873083Y-123565229D01*
X130808711Y-123590502D01*
X130739088Y-123576600D01*
X130723260Y-123566428D01*
X130719379Y-123562547D01*
X130576173Y-123477855D01*
X130568562Y-123475644D01*
X130568560Y-123475643D01*
X130480714Y-123450122D01*
X130416403Y-123431438D01*
X130409998Y-123430934D01*
X130409993Y-123430933D01*
X130381530Y-123428693D01*
X130381522Y-123428693D01*
X130379074Y-123428500D01*
X129946070Y-123428500D01*
X129943622Y-123428693D01*
X129943614Y-123428693D01*
X129915151Y-123430933D01*
X129915146Y-123430934D01*
X129908741Y-123431438D01*
X129844430Y-123450122D01*
X129756584Y-123475643D01*
X129756582Y-123475644D01*
X129748971Y-123477855D01*
X129605765Y-123562547D01*
X129603083Y-123565229D01*
X129538711Y-123590502D01*
X129469088Y-123576600D01*
X129453260Y-123566428D01*
X129449379Y-123562547D01*
X129306173Y-123477855D01*
X129298562Y-123475644D01*
X129298560Y-123475643D01*
X129210714Y-123450122D01*
X129146403Y-123431438D01*
X129139998Y-123430934D01*
X129139993Y-123430933D01*
X129111530Y-123428693D01*
X129111522Y-123428693D01*
X129109074Y-123428500D01*
X128676070Y-123428500D01*
X128673622Y-123428693D01*
X128673614Y-123428693D01*
X128645151Y-123430933D01*
X128645146Y-123430934D01*
X128638741Y-123431438D01*
X128574430Y-123450122D01*
X128486584Y-123475643D01*
X128486582Y-123475644D01*
X128478971Y-123477855D01*
X128472144Y-123481892D01*
X128472145Y-123481892D01*
X128342592Y-123558509D01*
X128342589Y-123558511D01*
X128335765Y-123562547D01*
X128218119Y-123680193D01*
X128214083Y-123687017D01*
X128214081Y-123687020D01*
X128186987Y-123732834D01*
X128133427Y-123823399D01*
X128087010Y-123983169D01*
X128086506Y-123989574D01*
X128086505Y-123989579D01*
X128084265Y-124018042D01*
X128084072Y-124020498D01*
X128084072Y-125803502D01*
X127441799Y-125803502D01*
X127401050Y-125737652D01*
X127275875Y-125612695D01*
X127269644Y-125608854D01*
X127131540Y-125523725D01*
X127131538Y-125523724D01*
X127125310Y-125519885D01*
X127097402Y-125510628D01*
X127039044Y-125470197D01*
X127011808Y-125404633D01*
X127011072Y-125391036D01*
X127011072Y-124162378D01*
X127031074Y-124094257D01*
X127047977Y-124073283D01*
X128422803Y-122698456D01*
X128422806Y-122698454D01*
X130287855Y-120833405D01*
X130350167Y-120799379D01*
X130376950Y-120796500D01*
X130397487Y-120796500D01*
X130403939Y-120795128D01*
X130403944Y-120795128D01*
X130490887Y-120776647D01*
X130584288Y-120756794D01*
X130594618Y-120752195D01*
X130752722Y-120681803D01*
X130752724Y-120681802D01*
X130758752Y-120679118D01*
X130913253Y-120566866D01*
X130945221Y-120531362D01*
X131036621Y-120429852D01*
X131036622Y-120429851D01*
X131041040Y-120424944D01*
X131123820Y-120281565D01*
X131133223Y-120265279D01*
X131133224Y-120265278D01*
X131136527Y-120259556D01*
X131195542Y-120077928D01*
X131215504Y-119888000D01*
X131201078Y-119750741D01*
X131196232Y-119704635D01*
X131196232Y-119704633D01*
X131195542Y-119698072D01*
X131136527Y-119516444D01*
X131041040Y-119351056D01*
X131019864Y-119327537D01*
X130917675Y-119214045D01*
X130917674Y-119214044D01*
X130913253Y-119209134D01*
X130771998Y-119106506D01*
X130764094Y-119100763D01*
X130764093Y-119100762D01*
X130758752Y-119096882D01*
X130752724Y-119094198D01*
X130752722Y-119094197D01*
X130590319Y-119021891D01*
X130590318Y-119021891D01*
X130584288Y-119019206D01*
X130490888Y-118999353D01*
X130403944Y-118980872D01*
X130403939Y-118980872D01*
X130397487Y-118979500D01*
X130206513Y-118979500D01*
X130200061Y-118980872D01*
X130200056Y-118980872D01*
X130113112Y-118999353D01*
X130019712Y-119019206D01*
X130013682Y-119021891D01*
X130013681Y-119021891D01*
X129851278Y-119094197D01*
X129851276Y-119094198D01*
X129845248Y-119096882D01*
X129839907Y-119100762D01*
X129839906Y-119100763D01*
X129832002Y-119106506D01*
X129690747Y-119209134D01*
X129686326Y-119214044D01*
X129686325Y-119214045D01*
X129584137Y-119327537D01*
X129562960Y-119351056D01*
X129467473Y-119516444D01*
X129465431Y-119522729D01*
X129411910Y-119687449D01*
X129408458Y-119698072D01*
X129395763Y-119818862D01*
X129395245Y-119823786D01*
X129368232Y-119889442D01*
X129359030Y-119899710D01*
X127521073Y-121737667D01*
X127521070Y-121737671D01*
X125944968Y-123313773D01*
X125936188Y-123321763D01*
X125929492Y-123326012D01*
X125924062Y-123331794D01*
X125920993Y-123334333D01*
X125855754Y-123362340D01*
X125785730Y-123350631D01*
X125751664Y-123326419D01*
X125714876Y-123289696D01*
X125715764Y-123288807D01*
X125679004Y-123236961D01*
X125675771Y-123166038D01*
X125711394Y-123104626D01*
X125712787Y-123103417D01*
X125715920Y-123101478D01*
X125840877Y-122976303D01*
X125852218Y-122957905D01*
X125929847Y-122831968D01*
X125929848Y-122831966D01*
X125933687Y-122825738D01*
X125981473Y-122681666D01*
X125987204Y-122664389D01*
X125987204Y-122664387D01*
X125989369Y-122657861D01*
X125993133Y-122621130D01*
X125999744Y-122556598D01*
X126000072Y-122553400D01*
X126000072Y-121552600D01*
X125999077Y-121543006D01*
X125989810Y-121453692D01*
X125989809Y-121453688D01*
X125989098Y-121446834D01*
X125986800Y-121439944D01*
X125935440Y-121286002D01*
X125933122Y-121279054D01*
X125840050Y-121128652D01*
X125778054Y-121066763D01*
X125743975Y-121004482D01*
X125741072Y-120977591D01*
X125741072Y-120949759D01*
X125761074Y-120881638D01*
X125773436Y-120865449D01*
X125817193Y-120816852D01*
X125817194Y-120816851D01*
X125821612Y-120811944D01*
X125901053Y-120674349D01*
X125913795Y-120652279D01*
X125913796Y-120652278D01*
X125917099Y-120646556D01*
X125976114Y-120464928D01*
X125980317Y-120424944D01*
X125995386Y-120281565D01*
X125996076Y-120275000D01*
X125976114Y-120085072D01*
X125917099Y-119903444D01*
X125908504Y-119888556D01*
X125856860Y-119799107D01*
X125821612Y-119738056D01*
X125693825Y-119596134D01*
X125539324Y-119483882D01*
X125533296Y-119481198D01*
X125533294Y-119481197D01*
X125370891Y-119408891D01*
X125370890Y-119408891D01*
X125364860Y-119406206D01*
X125271459Y-119386353D01*
X125184516Y-119367872D01*
X125184511Y-119367872D01*
X125178059Y-119366500D01*
X124987085Y-119366500D01*
X124980633Y-119367872D01*
X124980628Y-119367872D01*
X124893685Y-119386353D01*
X124800284Y-119406206D01*
X124794254Y-119408891D01*
X124794253Y-119408891D01*
X124631850Y-119481197D01*
X124631848Y-119481198D01*
X124625820Y-119483882D01*
X124471319Y-119596134D01*
X124343532Y-119738056D01*
X124308284Y-119799107D01*
X124256641Y-119888556D01*
X124248045Y-119903444D01*
X124189030Y-120085072D01*
X124169068Y-120275000D01*
X124169758Y-120281565D01*
X124184828Y-120424944D01*
X124189030Y-120464928D01*
X124248045Y-120646556D01*
X124251348Y-120652278D01*
X124251349Y-120652279D01*
X124337678Y-120801805D01*
X124354416Y-120870800D01*
X124331196Y-120937892D01*
X124294864Y-120971947D01*
X124242224Y-121004522D01*
X124180091Y-121066764D01*
X124155788Y-121091109D01*
X124093506Y-121125188D01*
X124022686Y-121120185D01*
X123977597Y-121091264D01*
X123895055Y-121008866D01*
X123889875Y-121003695D01*
X123883644Y-120999854D01*
X123821794Y-120961729D01*
X123774301Y-120908956D01*
X123766914Y-120889624D01*
X123765429Y-120884514D01*
X123763217Y-120876900D01*
X123752297Y-120858435D01*
X123743606Y-120840695D01*
X123735707Y-120820744D01*
X123708554Y-120783371D01*
X123702039Y-120773452D01*
X123682565Y-120740523D01*
X123682562Y-120740519D01*
X123678525Y-120733693D01*
X123663361Y-120718529D01*
X123650520Y-120703495D01*
X123642573Y-120692557D01*
X123637913Y-120686143D01*
X123602319Y-120656697D01*
X123593540Y-120648708D01*
X121864477Y-118919645D01*
X121830451Y-118857333D01*
X121827572Y-118830550D01*
X121827572Y-118140165D01*
X121847574Y-118072044D01*
X121887267Y-118033022D01*
X121899695Y-118025331D01*
X121899700Y-118025327D01*
X121905920Y-118021478D01*
X122030877Y-117896303D01*
X122061362Y-117846848D01*
X122119847Y-117751968D01*
X122119848Y-117751966D01*
X122123687Y-117745738D01*
X122132944Y-117717830D01*
X122173375Y-117659472D01*
X122238939Y-117632236D01*
X122252536Y-117631500D01*
X132631622Y-117631500D01*
X132699743Y-117651502D01*
X132720717Y-117668405D01*
X137087167Y-122034855D01*
X137121193Y-122097167D01*
X137124072Y-122123950D01*
X137124072Y-123373991D01*
X137104070Y-123442112D01*
X137050414Y-123488605D01*
X136980140Y-123498709D01*
X136940405Y-123484723D01*
X136940269Y-123485038D01*
X136935781Y-123483096D01*
X136933937Y-123482447D01*
X136926173Y-123477855D01*
X136918562Y-123475644D01*
X136918560Y-123475643D01*
X136830714Y-123450122D01*
X136766403Y-123431438D01*
X136759998Y-123430934D01*
X136759993Y-123430933D01*
X136731530Y-123428693D01*
X136731522Y-123428693D01*
X136729074Y-123428500D01*
X136296070Y-123428500D01*
X136293622Y-123428693D01*
X136293614Y-123428693D01*
X136265151Y-123430933D01*
X136265146Y-123430934D01*
X136258741Y-123431438D01*
X136194430Y-123450122D01*
X136106584Y-123475643D01*
X136106582Y-123475644D01*
X136098971Y-123477855D01*
X135955765Y-123562547D01*
X135953083Y-123565229D01*
X135888711Y-123590502D01*
X135819088Y-123576600D01*
X135803260Y-123566428D01*
X135799379Y-123562547D01*
X135656173Y-123477855D01*
X135648562Y-123475644D01*
X135648560Y-123475643D01*
X135560714Y-123450122D01*
X135496403Y-123431438D01*
X135489998Y-123430934D01*
X135489993Y-123430933D01*
X135461530Y-123428693D01*
X135461522Y-123428693D01*
X135459074Y-123428500D01*
X135026070Y-123428500D01*
X135023622Y-123428693D01*
X135023614Y-123428693D01*
X134995151Y-123430933D01*
X134995146Y-123430934D01*
X134988741Y-123431438D01*
X134924430Y-123450122D01*
X134836584Y-123475643D01*
X134836582Y-123475644D01*
X134828971Y-123477855D01*
X134685765Y-123562547D01*
X134683083Y-123565229D01*
X134618711Y-123590502D01*
X134549088Y-123576600D01*
X134533260Y-123566428D01*
X134529379Y-123562547D01*
X134386173Y-123477855D01*
X134378562Y-123475644D01*
X134378560Y-123475643D01*
X134290714Y-123450122D01*
X134226403Y-123431438D01*
X134219998Y-123430934D01*
X134219993Y-123430933D01*
X134191530Y-123428693D01*
X134191522Y-123428693D01*
X134189074Y-123428500D01*
X133756070Y-123428500D01*
X133753622Y-123428693D01*
X133753614Y-123428693D01*
X133725151Y-123430933D01*
X133725146Y-123430934D01*
X133718741Y-123431438D01*
X133654430Y-123450122D01*
X133566584Y-123475643D01*
X133566582Y-123475644D01*
X133558971Y-123477855D01*
X133415765Y-123562547D01*
X133412825Y-123565487D01*
X133348301Y-123590821D01*
X133278678Y-123576920D01*
X133259932Y-123564871D01*
X133252249Y-123558911D01*
X133122793Y-123482352D01*
X133108362Y-123476107D01*
X132973967Y-123437061D01*
X132959866Y-123437101D01*
X132956572Y-123444370D01*
X132956572Y-126373878D01*
X132960545Y-126387409D01*
X132968443Y-126388544D01*
X133108362Y-126347893D01*
X133122793Y-126341648D01*
X133252248Y-126265090D01*
X133259936Y-126259126D01*
X133326021Y-126233179D01*
X133395644Y-126247080D01*
X133411730Y-126257418D01*
X133415765Y-126261453D01*
X133558971Y-126346145D01*
X133566582Y-126348356D01*
X133566584Y-126348357D01*
X133584862Y-126353667D01*
X133718741Y-126392562D01*
X133725146Y-126393066D01*
X133725151Y-126393067D01*
X133753614Y-126395307D01*
X133753622Y-126395307D01*
X133756070Y-126395500D01*
X134189074Y-126395500D01*
X134191522Y-126395307D01*
X134191530Y-126395307D01*
X134219993Y-126393067D01*
X134219998Y-126393066D01*
X134226403Y-126392562D01*
X134360282Y-126353667D01*
X134378560Y-126348357D01*
X134378562Y-126348356D01*
X134386173Y-126346145D01*
X134529379Y-126261453D01*
X134532061Y-126258771D01*
X134596433Y-126233498D01*
X134666056Y-126247400D01*
X134681884Y-126257572D01*
X134685765Y-126261453D01*
X134828971Y-126346145D01*
X134836582Y-126348356D01*
X134836584Y-126348357D01*
X134854862Y-126353667D01*
X134988741Y-126392562D01*
X134995146Y-126393066D01*
X134995151Y-126393067D01*
X135023614Y-126395307D01*
X135023622Y-126395307D01*
X135026070Y-126395500D01*
X135459074Y-126395500D01*
X135461522Y-126395307D01*
X135461530Y-126395307D01*
X135489993Y-126393067D01*
X135489998Y-126393066D01*
X135496403Y-126392562D01*
X135630282Y-126353667D01*
X135648560Y-126348357D01*
X135648562Y-126348356D01*
X135656173Y-126346145D01*
X135799379Y-126261453D01*
X135802061Y-126258771D01*
X135866433Y-126233498D01*
X135936056Y-126247400D01*
X135951884Y-126257572D01*
X135955765Y-126261453D01*
X136098971Y-126346145D01*
X136106584Y-126348357D01*
X136113861Y-126351506D01*
X136112926Y-126353667D01*
X136162800Y-126385511D01*
X136192483Y-126450005D01*
X136182586Y-126520308D01*
X136156914Y-126557399D01*
X135493267Y-127221045D01*
X134834967Y-127879345D01*
X134826187Y-127887335D01*
X134826185Y-127887337D01*
X134819492Y-127891584D01*
X134814066Y-127897362D01*
X134814065Y-127897363D01*
X134770968Y-127943257D01*
X134768213Y-127946099D01*
X134747645Y-127966667D01*
X134744928Y-127970170D01*
X134737220Y-127979195D01*
X134705600Y-128012867D01*
X134701779Y-128019818D01*
X134701778Y-128019819D01*
X134695269Y-128031658D01*
X134684415Y-128048182D01*
X134676590Y-128058271D01*
X134671268Y-128065132D01*
X134668121Y-128072404D01*
X134668120Y-128072406D01*
X134652918Y-128107535D01*
X134647696Y-128118195D01*
X134625448Y-128158663D01*
X134620113Y-128179441D01*
X134613714Y-128198131D01*
X134605192Y-128217824D01*
X134603952Y-128225655D01*
X134597966Y-128263448D01*
X134595559Y-128275071D01*
X134584072Y-128319812D01*
X134584072Y-128327742D01*
X134583079Y-128335602D01*
X134580914Y-128335328D01*
X134564070Y-128392693D01*
X134510414Y-128439186D01*
X134440140Y-128449290D01*
X134400188Y-128435227D01*
X134400070Y-128435501D01*
X134396167Y-128433812D01*
X134393934Y-128433026D01*
X134392797Y-128432354D01*
X134378362Y-128426107D01*
X134243967Y-128387061D01*
X134229866Y-128387101D01*
X134226572Y-128394370D01*
X134226572Y-131323878D01*
X134230545Y-131337409D01*
X134238443Y-131338544D01*
X134378362Y-131297893D01*
X134392793Y-131291648D01*
X134522248Y-131215090D01*
X134529936Y-131209126D01*
X134596021Y-131183179D01*
X134665644Y-131197080D01*
X134681730Y-131207418D01*
X134685765Y-131211453D01*
X134692593Y-131215491D01*
X134692596Y-131215493D01*
X134763060Y-131257165D01*
X134828971Y-131296145D01*
X134836582Y-131298356D01*
X134836584Y-131298357D01*
X134846057Y-131301109D01*
X134988741Y-131342562D01*
X134995146Y-131343066D01*
X134995151Y-131343067D01*
X135023614Y-131345307D01*
X135023622Y-131345307D01*
X135026070Y-131345500D01*
X135459074Y-131345500D01*
X135461522Y-131345307D01*
X135461530Y-131345307D01*
X135489993Y-131343067D01*
X135489998Y-131343066D01*
X135496403Y-131342562D01*
X135639087Y-131301109D01*
X135648560Y-131298357D01*
X135648562Y-131298356D01*
X135656173Y-131296145D01*
X135799379Y-131211453D01*
X135802061Y-131208771D01*
X135866433Y-131183498D01*
X135936056Y-131197400D01*
X135951884Y-131207572D01*
X135955765Y-131211453D01*
X136098971Y-131296145D01*
X136106582Y-131298356D01*
X136106584Y-131298357D01*
X136116057Y-131301109D01*
X136258741Y-131342562D01*
X136265146Y-131343066D01*
X136265151Y-131343067D01*
X136293614Y-131345307D01*
X136293622Y-131345307D01*
X136296070Y-131345500D01*
X136729074Y-131345500D01*
X136731522Y-131345307D01*
X136731530Y-131345307D01*
X136759993Y-131343067D01*
X136759998Y-131343066D01*
X136766403Y-131342562D01*
X136909087Y-131301109D01*
X136918560Y-131298357D01*
X136918562Y-131298356D01*
X136926173Y-131296145D01*
X136973070Y-131268410D01*
X137062552Y-131215491D01*
X137062555Y-131215489D01*
X137069379Y-131211453D01*
X137187025Y-131093807D01*
X137191061Y-131086983D01*
X137191063Y-131086980D01*
X137267680Y-130957427D01*
X137271717Y-130950601D01*
X137275791Y-130936580D01*
X137293856Y-130874396D01*
X137318134Y-130790831D01*
X137321072Y-130753502D01*
X137321072Y-130355950D01*
X137341074Y-130287829D01*
X137357977Y-130266855D01*
X137936177Y-129688655D01*
X137944957Y-129680665D01*
X137944959Y-129680663D01*
X137951652Y-129676416D01*
X138000177Y-129624742D01*
X138002931Y-129621901D01*
X138023499Y-129601333D01*
X138026219Y-129597826D01*
X138033925Y-129588804D01*
X138060116Y-129560913D01*
X138065544Y-129555133D01*
X138071521Y-129544261D01*
X138075875Y-129536342D01*
X138086729Y-129519818D01*
X138095017Y-129509132D01*
X138099876Y-129502868D01*
X138107081Y-129486218D01*
X138118226Y-129460465D01*
X138123448Y-129449805D01*
X138141877Y-129416284D01*
X138141878Y-129416282D01*
X138145696Y-129409337D01*
X138151031Y-129388559D01*
X138157430Y-129369869D01*
X138165952Y-129350176D01*
X138173178Y-129304552D01*
X138175585Y-129292929D01*
X138184959Y-129256417D01*
X138187072Y-129248188D01*
X138187072Y-129226741D01*
X138188623Y-129207031D01*
X138190738Y-129193677D01*
X138191978Y-129185848D01*
X138187631Y-129139859D01*
X138187072Y-129128004D01*
X138187072Y-128569759D01*
X138207074Y-128501638D01*
X138219436Y-128485449D01*
X138263193Y-128436852D01*
X138263194Y-128436851D01*
X138267612Y-128431944D01*
X138363099Y-128266556D01*
X138422114Y-128084928D01*
X138425916Y-128048760D01*
X138441386Y-127901565D01*
X138442076Y-127895000D01*
X138422114Y-127705072D01*
X138363099Y-127523444D01*
X138346966Y-127495500D01*
X138309865Y-127431241D01*
X138267612Y-127358056D01*
X138248028Y-127336305D01*
X138144247Y-127221045D01*
X138144246Y-127221044D01*
X138139825Y-127216134D01*
X137985324Y-127103882D01*
X137979296Y-127101198D01*
X137979294Y-127101197D01*
X137816895Y-127028893D01*
X137810860Y-127026206D01*
X137808243Y-127025650D01*
X137750841Y-126986400D01*
X137723203Y-126921003D01*
X137735309Y-126851046D01*
X137759287Y-126817544D01*
X138190172Y-126386659D01*
X138198953Y-126378669D01*
X138198962Y-126378661D01*
X138205652Y-126374416D01*
X138254193Y-126322725D01*
X138256947Y-126319884D01*
X138277498Y-126299333D01*
X138280210Y-126295837D01*
X138287921Y-126286808D01*
X138307942Y-126265488D01*
X138319544Y-126253133D01*
X138329873Y-126234345D01*
X138340730Y-126217816D01*
X138349019Y-126207131D01*
X138349020Y-126207129D01*
X138353876Y-126200869D01*
X138372229Y-126158456D01*
X138377440Y-126147819D01*
X138399696Y-126107337D01*
X138405029Y-126086566D01*
X138411431Y-126067864D01*
X138419951Y-126048177D01*
X138427177Y-126002552D01*
X138429585Y-125990926D01*
X138439101Y-125953865D01*
X138439101Y-125953864D01*
X138441072Y-125946188D01*
X138441072Y-125924742D01*
X138442623Y-125905031D01*
X138444738Y-125891678D01*
X138445978Y-125883849D01*
X138441631Y-125837864D01*
X138441072Y-125826006D01*
X138441072Y-121881059D01*
X138441631Y-121869203D01*
X138443361Y-121861463D01*
X138441134Y-121790611D01*
X138441072Y-121786653D01*
X138441072Y-121757568D01*
X138440518Y-121753179D01*
X138439585Y-121741337D01*
X138438383Y-121703094D01*
X138438134Y-121695169D01*
X138432152Y-121674579D01*
X138428142Y-121655216D01*
X138426447Y-121641796D01*
X138426447Y-121641795D01*
X138425454Y-121633936D01*
X138422538Y-121626571D01*
X138422537Y-121626567D01*
X138408446Y-121590979D01*
X138404607Y-121579769D01*
X138391717Y-121535400D01*
X138380797Y-121516935D01*
X138372106Y-121499195D01*
X138364207Y-121479244D01*
X138337054Y-121441871D01*
X138330539Y-121431952D01*
X138311065Y-121399023D01*
X138311062Y-121399019D01*
X138307025Y-121392193D01*
X138291861Y-121377029D01*
X138279020Y-121361995D01*
X138271073Y-121351057D01*
X138266413Y-121344643D01*
X138230819Y-121315197D01*
X138222040Y-121307208D01*
X133480227Y-116565395D01*
X133472237Y-116556615D01*
X133472235Y-116556613D01*
X133467988Y-116549920D01*
X133416314Y-116501395D01*
X133413473Y-116498641D01*
X133392905Y-116478073D01*
X133389398Y-116475353D01*
X133380376Y-116467647D01*
X133352485Y-116441456D01*
X133346705Y-116436028D01*
X133339753Y-116432206D01*
X133327914Y-116425697D01*
X133311390Y-116414843D01*
X133300704Y-116406555D01*
X133294440Y-116401696D01*
X133287168Y-116398549D01*
X133287166Y-116398548D01*
X133252037Y-116383346D01*
X133241377Y-116378124D01*
X133207856Y-116359695D01*
X133207854Y-116359694D01*
X133200909Y-116355876D01*
X133180131Y-116350541D01*
X133161441Y-116344142D01*
X133141748Y-116335620D01*
X133096124Y-116328394D01*
X133084501Y-116325987D01*
X133056500Y-116318798D01*
X133039760Y-116314500D01*
X133018313Y-116314500D01*
X132998603Y-116312949D01*
X132985249Y-116310834D01*
X132977420Y-116309594D01*
X132931431Y-116313941D01*
X132919576Y-116314500D01*
X122252429Y-116314500D01*
X122184308Y-116294498D01*
X122137815Y-116240842D01*
X122132906Y-116228378D01*
X122125442Y-116206005D01*
X122125439Y-116205998D01*
X122123122Y-116199054D01*
X122030050Y-116048652D01*
X121904875Y-115923695D01*
X121824184Y-115873956D01*
X121760540Y-115834725D01*
X121760538Y-115834724D01*
X121754310Y-115830885D01*
X121593826Y-115777655D01*
X121592961Y-115777368D01*
X121592959Y-115777368D01*
X121586433Y-115775203D01*
X121579597Y-115774503D01*
X121579594Y-115774502D01*
X121536541Y-115770091D01*
X121481972Y-115764500D01*
X120856172Y-115764500D01*
X120852926Y-115764837D01*
X120852922Y-115764837D01*
X120757264Y-115774762D01*
X120757260Y-115774763D01*
X120750406Y-115775474D01*
X120743870Y-115777655D01*
X120743868Y-115777655D01*
X120659814Y-115805698D01*
X120582626Y-115831450D01*
X120432224Y-115924522D01*
X120427051Y-115929704D01*
X120345788Y-116011109D01*
X120283506Y-116045188D01*
X120212686Y-116040185D01*
X120167597Y-116011264D01*
X120085055Y-115928866D01*
X120079875Y-115923695D01*
X120062456Y-115912958D01*
X120014963Y-115860187D01*
X120002572Y-115805698D01*
X120002572Y-114914878D01*
X120022574Y-114846757D01*
X120039477Y-114825783D01*
X123803245Y-111062015D01*
X123865557Y-111027989D01*
X123936372Y-111033054D01*
X123993208Y-111075601D01*
X124017067Y-111133247D01*
X124034163Y-111252623D01*
X124094450Y-111385219D01*
X124099397Y-111391372D01*
X124099399Y-111391375D01*
X124120187Y-111417229D01*
X124133643Y-111433965D01*
X126323035Y-113623357D01*
X126325697Y-113625497D01*
X126365625Y-113657601D01*
X126365628Y-113657603D01*
X126371781Y-113662550D01*
X126504377Y-113722837D01*
X126513260Y-113724109D01*
X126513263Y-113724110D01*
X126639674Y-113742213D01*
X126648563Y-113743486D01*
X126657452Y-113742213D01*
X126783863Y-113724110D01*
X126783866Y-113724109D01*
X126792749Y-113722837D01*
X126925345Y-113662550D01*
X126931498Y-113657603D01*
X126931501Y-113657601D01*
X126971429Y-113625497D01*
X126974091Y-113623357D01*
X131638357Y-108959091D01*
X131651813Y-108942355D01*
X131672601Y-108916501D01*
X131672603Y-108916498D01*
X131677550Y-108910345D01*
X131737837Y-108777749D01*
X131758486Y-108633563D01*
X131737837Y-108489377D01*
X131677550Y-108356781D01*
X131672603Y-108350628D01*
X131672601Y-108350625D01*
X131640497Y-108310697D01*
X131638357Y-108308035D01*
X129448965Y-106118643D01*
X129432229Y-106105187D01*
X129406375Y-106084399D01*
X129406372Y-106084397D01*
X129400219Y-106079450D01*
X129267623Y-106019163D01*
X129258740Y-106017891D01*
X129258737Y-106017890D01*
X129132326Y-105999787D01*
X129123437Y-105998514D01*
X129114548Y-105999787D01*
X128988137Y-106017890D01*
X128988134Y-106017891D01*
X128979251Y-106019163D01*
X128846655Y-106079450D01*
X128840502Y-106084397D01*
X128840499Y-106084399D01*
X128814645Y-106105187D01*
X128797909Y-106118643D01*
X125740957Y-109175595D01*
X125678645Y-109209621D01*
X125651862Y-109212500D01*
X124145056Y-109212500D01*
X124133200Y-109211941D01*
X124133197Y-109211941D01*
X124125463Y-109210212D01*
X124070446Y-109211941D01*
X124054631Y-109212438D01*
X124050673Y-109212500D01*
X124021568Y-109212500D01*
X124017168Y-109213056D01*
X124005336Y-109213988D01*
X123959169Y-109215438D01*
X123938579Y-109221420D01*
X123919218Y-109225430D01*
X123912230Y-109226312D01*
X123905796Y-109227125D01*
X123905795Y-109227125D01*
X123897936Y-109228118D01*
X123890571Y-109231034D01*
X123890567Y-109231035D01*
X123854979Y-109245126D01*
X123843769Y-109248965D01*
X123799400Y-109261855D01*
X123780935Y-109272775D01*
X123763195Y-109281466D01*
X123743244Y-109289365D01*
X123705874Y-109316516D01*
X123695952Y-109323033D01*
X123663023Y-109342507D01*
X123663019Y-109342510D01*
X123656193Y-109346547D01*
X123641029Y-109361711D01*
X123625996Y-109374551D01*
X123608643Y-109387159D01*
X123579198Y-109422752D01*
X123571208Y-109431532D01*
X118936467Y-114066273D01*
X118927687Y-114074263D01*
X118927685Y-114074265D01*
X118920992Y-114078512D01*
X118915566Y-114084290D01*
X118915565Y-114084291D01*
X118872468Y-114130185D01*
X118869713Y-114133027D01*
X118849145Y-114153595D01*
X118846428Y-114157098D01*
X118838720Y-114166123D01*
X118807100Y-114199795D01*
X118803279Y-114206746D01*
X118803278Y-114206747D01*
X118796769Y-114218586D01*
X118785915Y-114235110D01*
X118778090Y-114245199D01*
X118772768Y-114252060D01*
X118769621Y-114259332D01*
X118769620Y-114259334D01*
X118754418Y-114294463D01*
X118749196Y-114305123D01*
X118726948Y-114345591D01*
X118721613Y-114366369D01*
X118715214Y-114385059D01*
X118706692Y-114404752D01*
X118705452Y-114412583D01*
X118699466Y-114450376D01*
X118697059Y-114461999D01*
X118685572Y-114506740D01*
X118685572Y-114528187D01*
X118684021Y-114547897D01*
X118680666Y-114569080D01*
X118681412Y-114576971D01*
X118685013Y-114615066D01*
X118685572Y-114626924D01*
X118685572Y-115805835D01*
X118665570Y-115873956D01*
X118625877Y-115912978D01*
X118613449Y-115920669D01*
X118613444Y-115920673D01*
X118607224Y-115924522D01*
X118482267Y-116049697D01*
X118389457Y-116200262D01*
X118375997Y-116240842D01*
X118343517Y-116338769D01*
X118333775Y-116368139D01*
X118323072Y-116472600D01*
X118323072Y-117473400D01*
X118334046Y-117579166D01*
X118336227Y-117585702D01*
X118336227Y-117585704D01*
X118380300Y-117717806D01*
X118390022Y-117746946D01*
X118483094Y-117897348D01*
X118608269Y-118022305D01*
X118614497Y-118026144D01*
X118614500Y-118026146D01*
X118751662Y-118110694D01*
X118758834Y-118115115D01*
X118834358Y-118140165D01*
X118920183Y-118168632D01*
X118920185Y-118168632D01*
X118926711Y-118170797D01*
X118933547Y-118171497D01*
X118933550Y-118171498D01*
X118976603Y-118175909D01*
X119031172Y-118181500D01*
X119656972Y-118181500D01*
X119660218Y-118181163D01*
X119660222Y-118181163D01*
X119755880Y-118171238D01*
X119755884Y-118171237D01*
X119762738Y-118170526D01*
X119769274Y-118168345D01*
X119769276Y-118168345D01*
X119901378Y-118124272D01*
X119930518Y-118114550D01*
X120080920Y-118021478D01*
X120167356Y-117934891D01*
X120229638Y-117900812D01*
X120300458Y-117905815D01*
X120345548Y-117934736D01*
X120433269Y-118022305D01*
X120450688Y-118033042D01*
X120498181Y-118085813D01*
X120510572Y-118140302D01*
X120510572Y-119073444D01*
X120510013Y-119085300D01*
X120508284Y-119093037D01*
X120508533Y-119100959D01*
X120510510Y-119163869D01*
X120510572Y-119167827D01*
X120510572Y-119196932D01*
X120511128Y-119201332D01*
X120512060Y-119213164D01*
X120513510Y-119259331D01*
X120519080Y-119278501D01*
X120519491Y-119279916D01*
X120523502Y-119299282D01*
X120526190Y-119320564D01*
X120529106Y-119327929D01*
X120529107Y-119327933D01*
X120543198Y-119363521D01*
X120547037Y-119374731D01*
X120559927Y-119419100D01*
X120570847Y-119437565D01*
X120579538Y-119455305D01*
X120587437Y-119475256D01*
X120596524Y-119487763D01*
X120614588Y-119512626D01*
X120621105Y-119522548D01*
X120640579Y-119555477D01*
X120640582Y-119555481D01*
X120644619Y-119562307D01*
X120659783Y-119577471D01*
X120672623Y-119592504D01*
X120685231Y-119609857D01*
X120715937Y-119635259D01*
X120720824Y-119639302D01*
X120729604Y-119647292D01*
X122191234Y-121108922D01*
X122225260Y-121171234D01*
X122220195Y-121242049D01*
X122209399Y-121264133D01*
X122206000Y-121269648D01*
X122199457Y-121280262D01*
X122143775Y-121448139D01*
X122133072Y-121552600D01*
X122133072Y-122553400D01*
X122133409Y-122556646D01*
X122133409Y-122556650D01*
X122138179Y-122602618D01*
X122144046Y-122659166D01*
X122146227Y-122665702D01*
X122146227Y-122665704D01*
X122157154Y-122698456D01*
X122200022Y-122826946D01*
X122293094Y-122977348D01*
X122298276Y-122982521D01*
X122418269Y-123102305D01*
X122417381Y-123103195D01*
X122454140Y-123155039D01*
X122457373Y-123225962D01*
X122421750Y-123287374D01*
X122420358Y-123288583D01*
X122417224Y-123290522D01*
X122342611Y-123365266D01*
X122337765Y-123370120D01*
X122275483Y-123404199D01*
X122204663Y-123399196D01*
X122197344Y-123396209D01*
X122127845Y-123365266D01*
X122127842Y-123365265D01*
X122121809Y-123362579D01*
X122080181Y-123353731D01*
X121941465Y-123324245D01*
X121941460Y-123324245D01*
X121935008Y-123322873D01*
X121744034Y-123322873D01*
X121737582Y-123324245D01*
X121737577Y-123324245D01*
X121650634Y-123342726D01*
X121557233Y-123362579D01*
X121551203Y-123365264D01*
X121551202Y-123365264D01*
X121388799Y-123437570D01*
X121388797Y-123437571D01*
X121382769Y-123440255D01*
X121377428Y-123444135D01*
X121377427Y-123444136D01*
X121348501Y-123465152D01*
X121228268Y-123552507D01*
X121223847Y-123557417D01*
X121223846Y-123557418D01*
X121206575Y-123576600D01*
X121100481Y-123694429D01*
X121042207Y-123795363D01*
X121021625Y-123831012D01*
X121004994Y-123859817D01*
X120945979Y-124041445D01*
X120945289Y-124048010D01*
X120944614Y-124051185D01*
X120910884Y-124113658D01*
X120848734Y-124147977D01*
X120777895Y-124143248D01*
X120770129Y-124140096D01*
X120678288Y-124099206D01*
X120556331Y-124073283D01*
X120497944Y-124060872D01*
X120497939Y-124060872D01*
X120491487Y-124059500D01*
X120300513Y-124059500D01*
X120294061Y-124060872D01*
X120294056Y-124060872D01*
X120235669Y-124073283D01*
X120113712Y-124099206D01*
X120107685Y-124101889D01*
X120107677Y-124101892D01*
X120081320Y-124113627D01*
X120010953Y-124123061D01*
X119946656Y-124092954D01*
X119908843Y-124032865D01*
X119904072Y-123998520D01*
X119904072Y-123838600D01*
X119893098Y-123732834D01*
X119837122Y-123565054D01*
X119744050Y-123414652D01*
X119618875Y-123289695D01*
X119619763Y-123288805D01*
X119583004Y-123236961D01*
X119579771Y-123166038D01*
X119615394Y-123104626D01*
X119616787Y-123103417D01*
X119619920Y-123101478D01*
X119744877Y-122976303D01*
X119756218Y-122957905D01*
X119833847Y-122831968D01*
X119833848Y-122831966D01*
X119837687Y-122825738D01*
X119886195Y-122679490D01*
X119926625Y-122621130D01*
X119992190Y-122593893D01*
X120057036Y-122604050D01*
X120059851Y-122605303D01*
X120192561Y-122664389D01*
X120228284Y-122680294D01*
X120313696Y-122698449D01*
X120408628Y-122718628D01*
X120408633Y-122718628D01*
X120415085Y-122720000D01*
X120606059Y-122720000D01*
X120612511Y-122718628D01*
X120612516Y-122718628D01*
X120707448Y-122698449D01*
X120792860Y-122680294D01*
X120825630Y-122665704D01*
X120961294Y-122605303D01*
X120961296Y-122605302D01*
X120967324Y-122602618D01*
X121121825Y-122490366D01*
X121143148Y-122466684D01*
X121245193Y-122353352D01*
X121245194Y-122353351D01*
X121249612Y-122348444D01*
X121345099Y-122183056D01*
X121404114Y-122001428D01*
X121417749Y-121871703D01*
X121423386Y-121818065D01*
X121424076Y-121811500D01*
X121406240Y-121641796D01*
X121404804Y-121628135D01*
X121404804Y-121628133D01*
X121404114Y-121621572D01*
X121345099Y-121439944D01*
X121249612Y-121274556D01*
X121121825Y-121132634D01*
X121012121Y-121052929D01*
X120972666Y-121024263D01*
X120972665Y-121024262D01*
X120967324Y-121020382D01*
X120961296Y-121017698D01*
X120961294Y-121017697D01*
X120798891Y-120945391D01*
X120798890Y-120945391D01*
X120792860Y-120942706D01*
X120699460Y-120922853D01*
X120612516Y-120904372D01*
X120612511Y-120904372D01*
X120606059Y-120903000D01*
X120415085Y-120903000D01*
X120408633Y-120904372D01*
X120408628Y-120904372D01*
X120321684Y-120922853D01*
X120228284Y-120942706D01*
X120222254Y-120945391D01*
X120222253Y-120945391D01*
X120059850Y-121017697D01*
X120059848Y-121017698D01*
X120053820Y-121020382D01*
X120048479Y-121024262D01*
X120048478Y-121024263D01*
X120000624Y-121059031D01*
X119904664Y-121128751D01*
X119904409Y-121128936D01*
X119837541Y-121152794D01*
X119830348Y-121153000D01*
X119820567Y-121153000D01*
X119752446Y-121132998D01*
X119731549Y-121116173D01*
X119724286Y-121108922D01*
X119618875Y-121003695D01*
X119604719Y-120994969D01*
X119474540Y-120914725D01*
X119474538Y-120914724D01*
X119468310Y-120910885D01*
X119331324Y-120865449D01*
X119306961Y-120857368D01*
X119306959Y-120857368D01*
X119300433Y-120855203D01*
X119293597Y-120854503D01*
X119293594Y-120854502D01*
X119248744Y-120849907D01*
X119195972Y-120844500D01*
X118570172Y-120844500D01*
X118566926Y-120844837D01*
X118566922Y-120844837D01*
X118471264Y-120854762D01*
X118471260Y-120854763D01*
X118464406Y-120855474D01*
X118457870Y-120857655D01*
X118457868Y-120857655D01*
X118376760Y-120884715D01*
X118296626Y-120911450D01*
X118146224Y-121004522D01*
X118084091Y-121066764D01*
X118059788Y-121091109D01*
X117997506Y-121125188D01*
X117926686Y-121120185D01*
X117881598Y-121091265D01*
X117872080Y-121081764D01*
X117849306Y-121059030D01*
X117815227Y-120996749D01*
X117820229Y-120925929D01*
X117829205Y-120906857D01*
X117834638Y-120897448D01*
X117883144Y-120813432D01*
X117889295Y-120802779D01*
X117889296Y-120802778D01*
X117892599Y-120797056D01*
X117951614Y-120615428D01*
X117953166Y-120600667D01*
X117970886Y-120432065D01*
X117971576Y-120425500D01*
X117951614Y-120235572D01*
X117892599Y-120053944D01*
X117797112Y-119888556D01*
X117748936Y-119835051D01*
X117718218Y-119771044D01*
X117716572Y-119750741D01*
X117716572Y-119444556D01*
X117717131Y-119432700D01*
X117717131Y-119432697D01*
X117718860Y-119424963D01*
X117716634Y-119354131D01*
X117716572Y-119350173D01*
X117716572Y-119321068D01*
X117716016Y-119316668D01*
X117715084Y-119304830D01*
X117714302Y-119279916D01*
X117713634Y-119258669D01*
X117707652Y-119238079D01*
X117703642Y-119218716D01*
X117701947Y-119205296D01*
X117701947Y-119205295D01*
X117700954Y-119197436D01*
X117698038Y-119190071D01*
X117698037Y-119190067D01*
X117683946Y-119154479D01*
X117680107Y-119143269D01*
X117667217Y-119098900D01*
X117656301Y-119080443D01*
X117647606Y-119062693D01*
X117639707Y-119042744D01*
X117635048Y-119036331D01*
X117612549Y-119005364D01*
X117606032Y-118995443D01*
X117582524Y-118955693D01*
X117567363Y-118940532D01*
X117554521Y-118925497D01*
X117541913Y-118908143D01*
X117506313Y-118878692D01*
X117497534Y-118870703D01*
X115192227Y-116565395D01*
X115184237Y-116556615D01*
X115184235Y-116556613D01*
X115179988Y-116549920D01*
X115128314Y-116501395D01*
X115125473Y-116498641D01*
X115104905Y-116478073D01*
X115101398Y-116475353D01*
X115092376Y-116467647D01*
X115064485Y-116441456D01*
X115058705Y-116436028D01*
X115051753Y-116432206D01*
X115039914Y-116425697D01*
X115023390Y-116414843D01*
X115012704Y-116406555D01*
X115006440Y-116401696D01*
X114999168Y-116398549D01*
X114999166Y-116398548D01*
X114964037Y-116383346D01*
X114953377Y-116378124D01*
X114919856Y-116359695D01*
X114919854Y-116359694D01*
X114912909Y-116355876D01*
X114892131Y-116350541D01*
X114873441Y-116344142D01*
X114853748Y-116335620D01*
X114808124Y-116328394D01*
X114796501Y-116325987D01*
X114768500Y-116318798D01*
X114751760Y-116314500D01*
X114730313Y-116314500D01*
X114710603Y-116312949D01*
X114697249Y-116310834D01*
X114689420Y-116309594D01*
X114644260Y-116313863D01*
X114574560Y-116300360D01*
X114523224Y-116251318D01*
X114512880Y-116228300D01*
X114505442Y-116206005D01*
X114505439Y-116205998D01*
X114503122Y-116199054D01*
X114410050Y-116048652D01*
X114284875Y-115923695D01*
X114204184Y-115873956D01*
X114140540Y-115834725D01*
X114140538Y-115834724D01*
X114134310Y-115830885D01*
X113973826Y-115777655D01*
X113972961Y-115777368D01*
X113972959Y-115777368D01*
X113966433Y-115775203D01*
X113959597Y-115774503D01*
X113959594Y-115774502D01*
X113916541Y-115770091D01*
X113861972Y-115764500D01*
X113236172Y-115764500D01*
X113232926Y-115764837D01*
X113232922Y-115764837D01*
X113137264Y-115774762D01*
X113137260Y-115774763D01*
X113130406Y-115775474D01*
X113123870Y-115777655D01*
X113123868Y-115777655D01*
X113039814Y-115805698D01*
X112962626Y-115831450D01*
X112812224Y-115924522D01*
X112807051Y-115929704D01*
X112725788Y-116011109D01*
X112663506Y-116045188D01*
X112592686Y-116040185D01*
X112547597Y-116011264D01*
X112465055Y-115928866D01*
X112459875Y-115923695D01*
X112442456Y-115912958D01*
X112394963Y-115860187D01*
X112382572Y-115805698D01*
X112382572Y-110187134D01*
X114667500Y-110187134D01*
X114674255Y-110249316D01*
X114725385Y-110385705D01*
X114812739Y-110502261D01*
X114929295Y-110589615D01*
X115065684Y-110640745D01*
X115127866Y-110647500D01*
X118224134Y-110647500D01*
X118286316Y-110640745D01*
X118422705Y-110589615D01*
X118539261Y-110502261D01*
X118626615Y-110385705D01*
X118677745Y-110249316D01*
X118684500Y-110187134D01*
X118684500Y-101590866D01*
X118677745Y-101528684D01*
X118626615Y-101392295D01*
X118539261Y-101275739D01*
X118422705Y-101188385D01*
X118286316Y-101137255D01*
X118224134Y-101130500D01*
X115127866Y-101130500D01*
X115065684Y-101137255D01*
X114929295Y-101188385D01*
X114812739Y-101275739D01*
X114725385Y-101392295D01*
X114674255Y-101528684D01*
X114667500Y-101590866D01*
X114667500Y-110187134D01*
X112382572Y-110187134D01*
X112382572Y-101960878D01*
X112402574Y-101892757D01*
X112419477Y-101871783D01*
X123028855Y-91262405D01*
X123091167Y-91228379D01*
X123117950Y-91225500D01*
X124082862Y-91225500D01*
X124150983Y-91245502D01*
X124197476Y-91299158D01*
X124207580Y-91369432D01*
X124178086Y-91434012D01*
X124171957Y-91440595D01*
X124133643Y-91478909D01*
X124131503Y-91481571D01*
X124099399Y-91521499D01*
X124099397Y-91521502D01*
X124094450Y-91527655D01*
X124034163Y-91660251D01*
X124013514Y-91804437D01*
X124034163Y-91948623D01*
X124094450Y-92081219D01*
X124099397Y-92087372D01*
X124099399Y-92087375D01*
X124120187Y-92113229D01*
X124133643Y-92129965D01*
X126323035Y-94319357D01*
X126325697Y-94321497D01*
X126365625Y-94353601D01*
X126365628Y-94353603D01*
X126371781Y-94358550D01*
X126504377Y-94418837D01*
X126513260Y-94420109D01*
X126513263Y-94420110D01*
X126639674Y-94438213D01*
X126648563Y-94439486D01*
X126657452Y-94438213D01*
X126783863Y-94420110D01*
X126783866Y-94420109D01*
X126792749Y-94418837D01*
X126925345Y-94358550D01*
X126931498Y-94353603D01*
X126931501Y-94353601D01*
X126971429Y-94321497D01*
X126974091Y-94319357D01*
X131638357Y-89655091D01*
X131651813Y-89638355D01*
X131672601Y-89612501D01*
X131672603Y-89612498D01*
X131677550Y-89606345D01*
X131737837Y-89473749D01*
X131758486Y-89329563D01*
X131737837Y-89185377D01*
X131677550Y-89052781D01*
X131672603Y-89046628D01*
X131672601Y-89046625D01*
X131640497Y-89006697D01*
X131638357Y-89004035D01*
X129448965Y-86814643D01*
X129432229Y-86801187D01*
X129406375Y-86780399D01*
X129406372Y-86780397D01*
X129400219Y-86775450D01*
X129267623Y-86715163D01*
X129258740Y-86713891D01*
X129258737Y-86713890D01*
X129132326Y-86695787D01*
X129123437Y-86694514D01*
X129114548Y-86695787D01*
X128988137Y-86713890D01*
X128988134Y-86713891D01*
X128979251Y-86715163D01*
X128846655Y-86775450D01*
X128840502Y-86780397D01*
X128840499Y-86780399D01*
X128814645Y-86801187D01*
X128797909Y-86814643D01*
X125740957Y-89871595D01*
X125678645Y-89905621D01*
X125651862Y-89908500D01*
X122875056Y-89908500D01*
X122863200Y-89907941D01*
X122863197Y-89907941D01*
X122855463Y-89906212D01*
X122800446Y-89907941D01*
X122784631Y-89908438D01*
X122780673Y-89908500D01*
X122751568Y-89908500D01*
X122747168Y-89909056D01*
X122735336Y-89909988D01*
X122689169Y-89911438D01*
X122668579Y-89917420D01*
X122649218Y-89921430D01*
X122642230Y-89922312D01*
X122635796Y-89923125D01*
X122635795Y-89923125D01*
X122627936Y-89924118D01*
X122620571Y-89927034D01*
X122620567Y-89927035D01*
X122584979Y-89941126D01*
X122573769Y-89944965D01*
X122529400Y-89957855D01*
X122510935Y-89968775D01*
X122493195Y-89977466D01*
X122473244Y-89985365D01*
X122435874Y-90012516D01*
X122425952Y-90019033D01*
X122393023Y-90038507D01*
X122393019Y-90038510D01*
X122386193Y-90042547D01*
X122371029Y-90057711D01*
X122355996Y-90070551D01*
X122338643Y-90083159D01*
X122309198Y-90118752D01*
X122301208Y-90127532D01*
X111316467Y-101112273D01*
X111307687Y-101120263D01*
X111307685Y-101120265D01*
X111300992Y-101124512D01*
X111295566Y-101130290D01*
X111295565Y-101130291D01*
X111252468Y-101176185D01*
X111249713Y-101179027D01*
X111229145Y-101199595D01*
X111226428Y-101203098D01*
X111218720Y-101212123D01*
X111187100Y-101245795D01*
X111183279Y-101252746D01*
X111183278Y-101252747D01*
X111176769Y-101264586D01*
X111165915Y-101281110D01*
X111158090Y-101291199D01*
X111152768Y-101298060D01*
X111149621Y-101305332D01*
X111149620Y-101305334D01*
X111134418Y-101340463D01*
X111129196Y-101351123D01*
X111106948Y-101391591D01*
X111101613Y-101412369D01*
X111095214Y-101431059D01*
X111086692Y-101450752D01*
X111085452Y-101458583D01*
X111079466Y-101496376D01*
X111077059Y-101507999D01*
X111065572Y-101552740D01*
X111065572Y-101574187D01*
X111064021Y-101593897D01*
X111060666Y-101615080D01*
X111061412Y-101622971D01*
X111065013Y-101661066D01*
X111065572Y-101672924D01*
X111065572Y-115805835D01*
X111045570Y-115873956D01*
X111005877Y-115912978D01*
X110993449Y-115920669D01*
X110993444Y-115920673D01*
X110987224Y-115924522D01*
X110862267Y-116049697D01*
X110769457Y-116200262D01*
X110755997Y-116240842D01*
X110723517Y-116338769D01*
X110713775Y-116368139D01*
X110703072Y-116472600D01*
X110703072Y-117473400D01*
X110714046Y-117579166D01*
X110716227Y-117585702D01*
X110716227Y-117585704D01*
X110760300Y-117717806D01*
X110770022Y-117746946D01*
X110863094Y-117897348D01*
X110988269Y-118022305D01*
X110994497Y-118026144D01*
X110994500Y-118026146D01*
X111131662Y-118110694D01*
X111138834Y-118115115D01*
X111214358Y-118140165D01*
X111300183Y-118168632D01*
X111300185Y-118168632D01*
X111306711Y-118170797D01*
X111313547Y-118171497D01*
X111313550Y-118171498D01*
X111356603Y-118175909D01*
X111411172Y-118181500D01*
X112036972Y-118181500D01*
X112040218Y-118181163D01*
X112040222Y-118181163D01*
X112135880Y-118171238D01*
X112135884Y-118171237D01*
X112142738Y-118170526D01*
X112149274Y-118168345D01*
X112149276Y-118168345D01*
X112281378Y-118124272D01*
X112310518Y-118114550D01*
X112460920Y-118021478D01*
X112547356Y-117934891D01*
X112609638Y-117900812D01*
X112680458Y-117905815D01*
X112725548Y-117934736D01*
X112813269Y-118022305D01*
X112819497Y-118026144D01*
X112819500Y-118026146D01*
X112956662Y-118110694D01*
X112963834Y-118115115D01*
X113039358Y-118140165D01*
X113125183Y-118168632D01*
X113125185Y-118168632D01*
X113131711Y-118170797D01*
X113138547Y-118171497D01*
X113138550Y-118171498D01*
X113181603Y-118175909D01*
X113236172Y-118181500D01*
X113861972Y-118181500D01*
X113865218Y-118181163D01*
X113865222Y-118181163D01*
X113960880Y-118171238D01*
X113960884Y-118171237D01*
X113967738Y-118170526D01*
X113974274Y-118168345D01*
X113974276Y-118168345D01*
X114106378Y-118124272D01*
X114135518Y-118114550D01*
X114285920Y-118021478D01*
X114410877Y-117896303D01*
X114422471Y-117877494D01*
X114475240Y-117830001D01*
X114545312Y-117818576D01*
X114610436Y-117846848D01*
X114618826Y-117854514D01*
X116362667Y-119598354D01*
X116396692Y-119660666D01*
X116399572Y-119687449D01*
X116399572Y-119750741D01*
X116379570Y-119818862D01*
X116367208Y-119835051D01*
X116319032Y-119888556D01*
X116223545Y-120053944D01*
X116164530Y-120235572D01*
X116144568Y-120425500D01*
X116145258Y-120432065D01*
X116162979Y-120600667D01*
X116164530Y-120615428D01*
X116223545Y-120797056D01*
X116226848Y-120802778D01*
X116226849Y-120802779D01*
X116286929Y-120906840D01*
X116303667Y-120975835D01*
X116280447Y-121042927D01*
X116266985Y-121058856D01*
X116196267Y-121129697D01*
X116192427Y-121135927D01*
X116192426Y-121135928D01*
X116110000Y-121269648D01*
X116103457Y-121280262D01*
X116047775Y-121448139D01*
X116037072Y-121552600D01*
X116037072Y-122553400D01*
X116037409Y-122556646D01*
X116037409Y-122556650D01*
X116042179Y-122602618D01*
X116048046Y-122659166D01*
X116050227Y-122665702D01*
X116050227Y-122665704D01*
X116061154Y-122698456D01*
X116104022Y-122826946D01*
X116197094Y-122977348D01*
X116202276Y-122982521D01*
X116322269Y-123102305D01*
X116321381Y-123103195D01*
X116358140Y-123155039D01*
X116361373Y-123225962D01*
X116325750Y-123287374D01*
X116324358Y-123288583D01*
X116321224Y-123290522D01*
X116196267Y-123415697D01*
X116184673Y-123434506D01*
X116131904Y-123481999D01*
X116061832Y-123493424D01*
X115996708Y-123465152D01*
X115988318Y-123457486D01*
X115700227Y-123169395D01*
X115692237Y-123160615D01*
X115692235Y-123160613D01*
X115687988Y-123153920D01*
X115636314Y-123105395D01*
X115633473Y-123102641D01*
X115612905Y-123082073D01*
X115609398Y-123079353D01*
X115600376Y-123071647D01*
X115572485Y-123045456D01*
X115566705Y-123040028D01*
X115559753Y-123036206D01*
X115547914Y-123029697D01*
X115531390Y-123018843D01*
X115520704Y-123010555D01*
X115514440Y-123005696D01*
X115507168Y-123002549D01*
X115507166Y-123002548D01*
X115472037Y-122987346D01*
X115461377Y-122982124D01*
X115427856Y-122963695D01*
X115427854Y-122963694D01*
X115420909Y-122959876D01*
X115400131Y-122954541D01*
X115381441Y-122948142D01*
X115361748Y-122939620D01*
X115316124Y-122932394D01*
X115304501Y-122929987D01*
X115276500Y-122922798D01*
X115259760Y-122918500D01*
X115238313Y-122918500D01*
X115218603Y-122916949D01*
X115205249Y-122914834D01*
X115197420Y-122913594D01*
X115151431Y-122917941D01*
X115139576Y-122918500D01*
X110969072Y-122918500D01*
X110900951Y-122898498D01*
X110854458Y-122844842D01*
X110843072Y-122792500D01*
X110843072Y-122528866D01*
X110836317Y-122466684D01*
X110785187Y-122330295D01*
X110697833Y-122213739D01*
X110581277Y-122126385D01*
X110444888Y-122075255D01*
X110382706Y-122068500D01*
X108286438Y-122068500D01*
X108224256Y-122075255D01*
X108087867Y-122126385D01*
X107971311Y-122213739D01*
X107883957Y-122330295D01*
X107832827Y-122466684D01*
X107826072Y-122528866D01*
X107826072Y-124625134D01*
X107832827Y-124687316D01*
X107883957Y-124823705D01*
X107971311Y-124940261D01*
X108087867Y-125027615D01*
X108224256Y-125078745D01*
X108286438Y-125085500D01*
X110382706Y-125085500D01*
X110444888Y-125078745D01*
X110581277Y-125027615D01*
X110697833Y-124940261D01*
X110785187Y-124823705D01*
X110836317Y-124687316D01*
X110843072Y-124625134D01*
X110843072Y-124361500D01*
X110863074Y-124293379D01*
X110916730Y-124246886D01*
X110969072Y-124235500D01*
X113500339Y-124235500D01*
X113568460Y-124255502D01*
X113614953Y-124309158D01*
X113625057Y-124379432D01*
X113609459Y-124424497D01*
X113580045Y-124475444D01*
X113521030Y-124657072D01*
X113520340Y-124663633D01*
X113520340Y-124663635D01*
X113510924Y-124753224D01*
X113501068Y-124847000D01*
X113501758Y-124853565D01*
X113519513Y-125022491D01*
X113521030Y-125036928D01*
X113580045Y-125218556D01*
X113583348Y-125224278D01*
X113583349Y-125224279D01*
X113663305Y-125362767D01*
X113680043Y-125431762D01*
X113656822Y-125498854D01*
X113620489Y-125532911D01*
X113596914Y-125547500D01*
X113490224Y-125613522D01*
X113365267Y-125738697D01*
X113361428Y-125744925D01*
X113361426Y-125744928D01*
X113306262Y-125834421D01*
X113272457Y-125889262D01*
X113270153Y-125896209D01*
X113219748Y-126048177D01*
X113216775Y-126057139D01*
X113206072Y-126161600D01*
X113206072Y-126787400D01*
X113206409Y-126790646D01*
X113206409Y-126790650D01*
X113216273Y-126885713D01*
X113217046Y-126893166D01*
X113219227Y-126899702D01*
X113219227Y-126899704D01*
X113240651Y-126963920D01*
X113273022Y-127060946D01*
X113366094Y-127211348D01*
X113371276Y-127216521D01*
X113453035Y-127298138D01*
X113487114Y-127360421D01*
X113482111Y-127431241D01*
X113453190Y-127476329D01*
X113370833Y-127558829D01*
X113361821Y-127570240D01*
X113276756Y-127708243D01*
X113270609Y-127721424D01*
X113219434Y-127875710D01*
X113216567Y-127889086D01*
X113206900Y-127983438D01*
X113206572Y-127989855D01*
X113206572Y-128027385D01*
X113211047Y-128042624D01*
X113212437Y-128043829D01*
X113220120Y-128045500D01*
X114542572Y-128045500D01*
X114610693Y-128065502D01*
X114657186Y-128119158D01*
X114668572Y-128171500D01*
X114668572Y-128380500D01*
X114648570Y-128448621D01*
X114594914Y-128495114D01*
X114542572Y-128506500D01*
X113215522Y-128506500D01*
X113147401Y-128486498D01*
X113126427Y-128469595D01*
X111636227Y-126979395D01*
X111628237Y-126970615D01*
X111628235Y-126970613D01*
X111623988Y-126963920D01*
X111572314Y-126915395D01*
X111569473Y-126912641D01*
X111548905Y-126892073D01*
X111545398Y-126889353D01*
X111536376Y-126881647D01*
X111508485Y-126855456D01*
X111502705Y-126850028D01*
X111495753Y-126846206D01*
X111483914Y-126839697D01*
X111467390Y-126828843D01*
X111456704Y-126820555D01*
X111450440Y-126815696D01*
X111443168Y-126812549D01*
X111443166Y-126812548D01*
X111408037Y-126797346D01*
X111397377Y-126792124D01*
X111363856Y-126773695D01*
X111363854Y-126773694D01*
X111356909Y-126769876D01*
X111336131Y-126764541D01*
X111317441Y-126758142D01*
X111297748Y-126749620D01*
X111252124Y-126742394D01*
X111240501Y-126739987D01*
X111211339Y-126732500D01*
X111195760Y-126728500D01*
X111174313Y-126728500D01*
X111154603Y-126726949D01*
X111141249Y-126724834D01*
X111133420Y-126723594D01*
X111087431Y-126727941D01*
X111075576Y-126728500D01*
X110969072Y-126728500D01*
X110900951Y-126708498D01*
X110854458Y-126654842D01*
X110843072Y-126602500D01*
X110843072Y-126338866D01*
X110836317Y-126276684D01*
X110785187Y-126140295D01*
X110697833Y-126023739D01*
X110581277Y-125936385D01*
X110444888Y-125885255D01*
X110382706Y-125878500D01*
X108286438Y-125878500D01*
X108224256Y-125885255D01*
X108087867Y-125936385D01*
X107971311Y-126023739D01*
X107883957Y-126140295D01*
X107832827Y-126276684D01*
X107826072Y-126338866D01*
X107826072Y-128435134D01*
X107832827Y-128497316D01*
X107883957Y-128633705D01*
X107971311Y-128750261D01*
X108087867Y-128837615D01*
X108224256Y-128888745D01*
X108286438Y-128895500D01*
X110382706Y-128895500D01*
X110444888Y-128888745D01*
X110581277Y-128837615D01*
X110697833Y-128750261D01*
X110785187Y-128633705D01*
X110836317Y-128497316D01*
X110843072Y-128435134D01*
X110843072Y-128352950D01*
X110863074Y-128284829D01*
X110916730Y-128238336D01*
X110987004Y-128228232D01*
X111051584Y-128257726D01*
X111058167Y-128263855D01*
X111976736Y-129182424D01*
X112010762Y-129244736D01*
X112005697Y-129315551D01*
X111963150Y-129372387D01*
X111896630Y-129397198D01*
X111868547Y-129395257D01*
X111868515Y-129395563D01*
X111861944Y-129394872D01*
X111855487Y-129393500D01*
X111664513Y-129393500D01*
X111658061Y-129394872D01*
X111658056Y-129394872D01*
X111571112Y-129413353D01*
X111477712Y-129433206D01*
X111471682Y-129435891D01*
X111471681Y-129435891D01*
X111309278Y-129508197D01*
X111309276Y-129508198D01*
X111303248Y-129510882D01*
X111297907Y-129514762D01*
X111297906Y-129514763D01*
X111251911Y-129548181D01*
X111148747Y-129623134D01*
X111144326Y-129628044D01*
X111144325Y-129628045D01*
X111029137Y-129755975D01*
X111020960Y-129765056D01*
X110967852Y-129857042D01*
X110953408Y-129882059D01*
X110902025Y-129931052D01*
X110832311Y-129944487D01*
X110766400Y-129918100D01*
X110743463Y-129894623D01*
X110703214Y-129840919D01*
X110697833Y-129833739D01*
X110581277Y-129746385D01*
X110444888Y-129695255D01*
X110382706Y-129688500D01*
X108286438Y-129688500D01*
X108224256Y-129695255D01*
X108087867Y-129746385D01*
X107971311Y-129833739D01*
X107883957Y-129950295D01*
X107832827Y-130086684D01*
X107826072Y-130148866D01*
X107826072Y-132245134D01*
X107832827Y-132307316D01*
X107883957Y-132443705D01*
X107971311Y-132560261D01*
X108087867Y-132647615D01*
X108224256Y-132698745D01*
X108286438Y-132705500D01*
X108550072Y-132705500D01*
X108618193Y-132725502D01*
X108664686Y-132779158D01*
X108676072Y-132831500D01*
X108676072Y-134129051D01*
X108656070Y-134197172D01*
X108602414Y-134243665D01*
X108532140Y-134253769D01*
X108467560Y-134224275D01*
X108460993Y-134218162D01*
X107489975Y-133247143D01*
X107455951Y-133184833D01*
X107453072Y-133158050D01*
X107453072Y-121361950D01*
X107473074Y-121293829D01*
X107489977Y-121272855D01*
X107723433Y-121039399D01*
X107785745Y-121005373D01*
X107856560Y-121010438D01*
X107913354Y-121052929D01*
X107971311Y-121130261D01*
X108087867Y-121217615D01*
X108224256Y-121268745D01*
X108286438Y-121275500D01*
X110382706Y-121275500D01*
X110444888Y-121268745D01*
X110581277Y-121217615D01*
X110697833Y-121130261D01*
X110785187Y-121013705D01*
X110836317Y-120877316D01*
X110843072Y-120815134D01*
X110843072Y-118718866D01*
X110836317Y-118656684D01*
X110785187Y-118520295D01*
X110697833Y-118403739D01*
X110581277Y-118316385D01*
X110444888Y-118265255D01*
X110382706Y-118258500D01*
X108286438Y-118258500D01*
X108224256Y-118265255D01*
X108087867Y-118316385D01*
X107971311Y-118403739D01*
X107883957Y-118520295D01*
X107832827Y-118656684D01*
X107826072Y-118718866D01*
X107826072Y-119067564D01*
X107806070Y-119135685D01*
X107757489Y-119175635D01*
X107759134Y-119178627D01*
X107752184Y-119182448D01*
X107744816Y-119185365D01*
X107738405Y-119190023D01*
X107738403Y-119190024D01*
X107707436Y-119212523D01*
X107697518Y-119219038D01*
X107657765Y-119242548D01*
X107642604Y-119257709D01*
X107627572Y-119270548D01*
X107610215Y-119283159D01*
X107605162Y-119289267D01*
X107580766Y-119318757D01*
X107572776Y-119327537D01*
X106386968Y-120513345D01*
X106378185Y-120521337D01*
X106371492Y-120525584D01*
X106366066Y-120531362D01*
X106322967Y-120577258D01*
X106320212Y-120580100D01*
X106299645Y-120600667D01*
X106296928Y-120604170D01*
X106289220Y-120613195D01*
X106257600Y-120646867D01*
X106253779Y-120653818D01*
X106253778Y-120653819D01*
X106247269Y-120665658D01*
X106236415Y-120682182D01*
X106233343Y-120686143D01*
X106223268Y-120699132D01*
X106220121Y-120706404D01*
X106220120Y-120706406D01*
X106204918Y-120741535D01*
X106199696Y-120752195D01*
X106188010Y-120773452D01*
X106177448Y-120792663D01*
X106172113Y-120813441D01*
X106165714Y-120832131D01*
X106157192Y-120851824D01*
X106153155Y-120877316D01*
X106149966Y-120897448D01*
X106147559Y-120909071D01*
X106145873Y-120915639D01*
X106136072Y-120953812D01*
X106136072Y-120975259D01*
X106134521Y-120994969D01*
X106131166Y-121016152D01*
X105791000Y-121016152D01*
X105791000Y-90883134D01*
X114667500Y-90883134D01*
X114674255Y-90945316D01*
X114725385Y-91081705D01*
X114812739Y-91198261D01*
X114929295Y-91285615D01*
X115065684Y-91336745D01*
X115127866Y-91343500D01*
X118224134Y-91343500D01*
X118286316Y-91336745D01*
X118422705Y-91285615D01*
X118539261Y-91198261D01*
X118626615Y-91081705D01*
X118677745Y-90945316D01*
X118684500Y-90883134D01*
X118684500Y-82286866D01*
X118677745Y-82224684D01*
X118626615Y-82088295D01*
X118539261Y-81971739D01*
X118422705Y-81884385D01*
X118286316Y-81833255D01*
X118224134Y-81826500D01*
X115127866Y-81826500D01*
X115065684Y-81833255D01*
X114929295Y-81884385D01*
X114812739Y-81971739D01*
X114725385Y-82088295D01*
X114674255Y-82224684D01*
X114667500Y-82286866D01*
X114667500Y-90883134D01*
X105791000Y-90883134D01*
X105791000Y-72754437D01*
X124013514Y-72754437D01*
X124034163Y-72898623D01*
X124094450Y-73031219D01*
X124099397Y-73037372D01*
X124099399Y-73037375D01*
X124120187Y-73063229D01*
X124133643Y-73079965D01*
X126323035Y-75269357D01*
X126325697Y-75271497D01*
X126365625Y-75303601D01*
X126365628Y-75303603D01*
X126371781Y-75308550D01*
X126504377Y-75368837D01*
X126513260Y-75370109D01*
X126513263Y-75370110D01*
X126639674Y-75388213D01*
X126648563Y-75389486D01*
X126657452Y-75388213D01*
X126783863Y-75370110D01*
X126783866Y-75370109D01*
X126792749Y-75368837D01*
X126925345Y-75308550D01*
X126931498Y-75303603D01*
X126931501Y-75303601D01*
X126971429Y-75271497D01*
X126974091Y-75269357D01*
X131638357Y-70605091D01*
X131651813Y-70588355D01*
X131672601Y-70562501D01*
X131672603Y-70562498D01*
X131677550Y-70556345D01*
X131737837Y-70423749D01*
X131758486Y-70279563D01*
X131737837Y-70135377D01*
X131677550Y-70002781D01*
X131672603Y-69996628D01*
X131672601Y-69996625D01*
X131640497Y-69956697D01*
X131638357Y-69954035D01*
X129448965Y-67764643D01*
X129432229Y-67751187D01*
X129406375Y-67730399D01*
X129406372Y-67730397D01*
X129400219Y-67725450D01*
X129267623Y-67665163D01*
X129258740Y-67663891D01*
X129258737Y-67663890D01*
X129132326Y-67645787D01*
X129123437Y-67644514D01*
X129114548Y-67645787D01*
X128988137Y-67663890D01*
X128988134Y-67663891D01*
X128979251Y-67665163D01*
X128846655Y-67725450D01*
X128840502Y-67730397D01*
X128840499Y-67730399D01*
X128814645Y-67751187D01*
X128797909Y-67764643D01*
X124133643Y-72428909D01*
X124131503Y-72431571D01*
X124099399Y-72471499D01*
X124099397Y-72471502D01*
X124094450Y-72477655D01*
X124034163Y-72610251D01*
X124013514Y-72754437D01*
X105791000Y-72754437D01*
X105791000Y-71833134D01*
X114667500Y-71833134D01*
X114674255Y-71895316D01*
X114725385Y-72031705D01*
X114812739Y-72148261D01*
X114929295Y-72235615D01*
X115065684Y-72286745D01*
X115127866Y-72293500D01*
X118224134Y-72293500D01*
X118286316Y-72286745D01*
X118422705Y-72235615D01*
X118539261Y-72148261D01*
X118626615Y-72031705D01*
X118677745Y-71895316D01*
X118684500Y-71833134D01*
X118684500Y-63236866D01*
X118677745Y-63174684D01*
X118626615Y-63038295D01*
X118539261Y-62921739D01*
X118422705Y-62834385D01*
X118286316Y-62783255D01*
X118224134Y-62776500D01*
X115127866Y-62776500D01*
X115065684Y-62783255D01*
X114929295Y-62834385D01*
X114812739Y-62921739D01*
X114725385Y-63038295D01*
X114674255Y-63174684D01*
X114667500Y-63236866D01*
X114667500Y-71833134D01*
X105791000Y-71833134D01*
X105791000Y-51011195D01*
X112048251Y-51011195D01*
X112048548Y-51016348D01*
X112048548Y-51016351D01*
X112050910Y-51057312D01*
X112061110Y-51234215D01*
X112062247Y-51239261D01*
X112062248Y-51239267D01*
X112083275Y-51332569D01*
X112110222Y-51452139D01*
X112194266Y-51659116D01*
X112245942Y-51743444D01*
X112308291Y-51845188D01*
X112310987Y-51849588D01*
X112457250Y-52018438D01*
X112629126Y-52161132D01*
X112822000Y-52273838D01*
X113030692Y-52353530D01*
X113035760Y-52354561D01*
X113035763Y-52354562D01*
X113140604Y-52375892D01*
X113249597Y-52398067D01*
X113254772Y-52398257D01*
X113254774Y-52398257D01*
X113467673Y-52406064D01*
X113467677Y-52406064D01*
X113472837Y-52406253D01*
X113477957Y-52405597D01*
X113477959Y-52405597D01*
X113689288Y-52378525D01*
X113689289Y-52378525D01*
X113694416Y-52377868D01*
X113699366Y-52376383D01*
X113903429Y-52315161D01*
X113903434Y-52315159D01*
X113908384Y-52313674D01*
X114108994Y-52215396D01*
X114290860Y-52085673D01*
X114449096Y-51927989D01*
X114475430Y-51891342D01*
X114579453Y-51746577D01*
X114580776Y-51747528D01*
X114627645Y-51704357D01*
X114697580Y-51692125D01*
X114763026Y-51719644D01*
X114790875Y-51751494D01*
X114850987Y-51849588D01*
X114997250Y-52018438D01*
X115169126Y-52161132D01*
X115362000Y-52273838D01*
X115570692Y-52353530D01*
X115575760Y-52354561D01*
X115575763Y-52354562D01*
X115680604Y-52375892D01*
X115789597Y-52398067D01*
X115794772Y-52398257D01*
X115794774Y-52398257D01*
X116007673Y-52406064D01*
X116007677Y-52406064D01*
X116012837Y-52406253D01*
X116017957Y-52405597D01*
X116017959Y-52405597D01*
X116229288Y-52378525D01*
X116229289Y-52378525D01*
X116234416Y-52377868D01*
X116239366Y-52376383D01*
X116443429Y-52315161D01*
X116443434Y-52315159D01*
X116448384Y-52313674D01*
X116648994Y-52215396D01*
X116830860Y-52085673D01*
X116989096Y-51927989D01*
X117015430Y-51891342D01*
X117119453Y-51746577D01*
X117120776Y-51747528D01*
X117167645Y-51704357D01*
X117237580Y-51692125D01*
X117303026Y-51719644D01*
X117330875Y-51751494D01*
X117390987Y-51849588D01*
X117537250Y-52018438D01*
X117709126Y-52161132D01*
X117902000Y-52273838D01*
X118110692Y-52353530D01*
X118115760Y-52354561D01*
X118115763Y-52354562D01*
X118220604Y-52375892D01*
X118329597Y-52398067D01*
X118334772Y-52398257D01*
X118334774Y-52398257D01*
X118547673Y-52406064D01*
X118547677Y-52406064D01*
X118552837Y-52406253D01*
X118557957Y-52405597D01*
X118557959Y-52405597D01*
X118769288Y-52378525D01*
X118769289Y-52378525D01*
X118774416Y-52377868D01*
X118779366Y-52376383D01*
X118983429Y-52315161D01*
X118983434Y-52315159D01*
X118988384Y-52313674D01*
X119188994Y-52215396D01*
X119370860Y-52085673D01*
X119529096Y-51927989D01*
X119555430Y-51891342D01*
X119659453Y-51746577D01*
X119660776Y-51747528D01*
X119707645Y-51704357D01*
X119777580Y-51692125D01*
X119843026Y-51719644D01*
X119870875Y-51751494D01*
X119930987Y-51849588D01*
X120077250Y-52018438D01*
X120249126Y-52161132D01*
X120442000Y-52273838D01*
X120650692Y-52353530D01*
X120655760Y-52354561D01*
X120655763Y-52354562D01*
X120760604Y-52375892D01*
X120869597Y-52398067D01*
X120874772Y-52398257D01*
X120874774Y-52398257D01*
X121087673Y-52406064D01*
X121087677Y-52406064D01*
X121092837Y-52406253D01*
X121097957Y-52405597D01*
X121097959Y-52405597D01*
X121309288Y-52378525D01*
X121309289Y-52378525D01*
X121314416Y-52377868D01*
X121319366Y-52376383D01*
X121523429Y-52315161D01*
X121523434Y-52315159D01*
X121528384Y-52313674D01*
X121728994Y-52215396D01*
X121793544Y-52169353D01*
X122810977Y-52169353D01*
X122816258Y-52176407D01*
X122977756Y-52270779D01*
X122987042Y-52275229D01*
X123186001Y-52351203D01*
X123195899Y-52354079D01*
X123404595Y-52396538D01*
X123414823Y-52397757D01*
X123627650Y-52405562D01*
X123637936Y-52405095D01*
X123849185Y-52378034D01*
X123859262Y-52375892D01*
X124063255Y-52314691D01*
X124072842Y-52310933D01*
X124264098Y-52217238D01*
X124272944Y-52211965D01*
X124320247Y-52178223D01*
X124327211Y-52169353D01*
X125350977Y-52169353D01*
X125356258Y-52176407D01*
X125517756Y-52270779D01*
X125527042Y-52275229D01*
X125726001Y-52351203D01*
X125735899Y-52354079D01*
X125944595Y-52396538D01*
X125954823Y-52397757D01*
X126167650Y-52405562D01*
X126177936Y-52405095D01*
X126389185Y-52378034D01*
X126399262Y-52375892D01*
X126603255Y-52314691D01*
X126612842Y-52310933D01*
X126804098Y-52217238D01*
X126812944Y-52211965D01*
X126860247Y-52178223D01*
X126867211Y-52169353D01*
X127890977Y-52169353D01*
X127896258Y-52176407D01*
X128057756Y-52270779D01*
X128067042Y-52275229D01*
X128266001Y-52351203D01*
X128275899Y-52354079D01*
X128484595Y-52396538D01*
X128494823Y-52397757D01*
X128707650Y-52405562D01*
X128717936Y-52405095D01*
X128929185Y-52378034D01*
X128939262Y-52375892D01*
X129143255Y-52314691D01*
X129152842Y-52310933D01*
X129344098Y-52217238D01*
X129352944Y-52211965D01*
X129400247Y-52178223D01*
X129408648Y-52167523D01*
X129401660Y-52154370D01*
X128663812Y-51416522D01*
X128649868Y-51408908D01*
X128648035Y-51409039D01*
X128641420Y-51413290D01*
X127897737Y-52156973D01*
X127890977Y-52169353D01*
X126867211Y-52169353D01*
X126868648Y-52167523D01*
X126861660Y-52154370D01*
X126123812Y-51416522D01*
X126109868Y-51408908D01*
X126108035Y-51409039D01*
X126101420Y-51413290D01*
X125357737Y-52156973D01*
X125350977Y-52169353D01*
X124327211Y-52169353D01*
X124328648Y-52167523D01*
X124321660Y-52154370D01*
X123583812Y-51416522D01*
X123569868Y-51408908D01*
X123568035Y-51409039D01*
X123561420Y-51413290D01*
X122817737Y-52156973D01*
X122810977Y-52169353D01*
X121793544Y-52169353D01*
X121910860Y-52085673D01*
X122069096Y-51927989D01*
X122095430Y-51891342D01*
X122199453Y-51746577D01*
X122200640Y-51747430D01*
X122247960Y-51703862D01*
X122317897Y-51691645D01*
X122383338Y-51719178D01*
X122411166Y-51751012D01*
X122437459Y-51793919D01*
X122447916Y-51803380D01*
X122456694Y-51799596D01*
X123198978Y-51057312D01*
X123205356Y-51045632D01*
X123935408Y-51045632D01*
X123935539Y-51047465D01*
X123939790Y-51054080D01*
X124681474Y-51795764D01*
X124693484Y-51802323D01*
X124705223Y-51793355D01*
X124739022Y-51746319D01*
X124740149Y-51747129D01*
X124787659Y-51703381D01*
X124857596Y-51691161D01*
X124923038Y-51718691D01*
X124950870Y-51750529D01*
X124977459Y-51793919D01*
X124987916Y-51803380D01*
X124996694Y-51799596D01*
X125738978Y-51057312D01*
X125745356Y-51045632D01*
X126475408Y-51045632D01*
X126475539Y-51047465D01*
X126479790Y-51054080D01*
X127221474Y-51795764D01*
X127233484Y-51802323D01*
X127245223Y-51793355D01*
X127279022Y-51746319D01*
X127280149Y-51747129D01*
X127327659Y-51703381D01*
X127397596Y-51691161D01*
X127463038Y-51718691D01*
X127490870Y-51750529D01*
X127517459Y-51793919D01*
X127527916Y-51803380D01*
X127536694Y-51799596D01*
X128278978Y-51057312D01*
X128285356Y-51045632D01*
X129015408Y-51045632D01*
X129015539Y-51047465D01*
X129019790Y-51054080D01*
X129761474Y-51795764D01*
X129801998Y-51817893D01*
X129814589Y-51820632D01*
X129864791Y-51870835D01*
X129873726Y-51891342D01*
X129899450Y-51968446D01*
X129992522Y-52118848D01*
X130117697Y-52243805D01*
X130123927Y-52247645D01*
X130123928Y-52247646D01*
X130261090Y-52332194D01*
X130268262Y-52336615D01*
X130320915Y-52354079D01*
X130429611Y-52390132D01*
X130429613Y-52390132D01*
X130436139Y-52392297D01*
X130442975Y-52392997D01*
X130442978Y-52392998D01*
X130477531Y-52396538D01*
X130540600Y-52403000D01*
X131841400Y-52403000D01*
X131844646Y-52402663D01*
X131844650Y-52402663D01*
X131940308Y-52392738D01*
X131940312Y-52392737D01*
X131947166Y-52392026D01*
X131953702Y-52389845D01*
X131953704Y-52389845D01*
X132085806Y-52345772D01*
X132114946Y-52336050D01*
X132265348Y-52242978D01*
X132390305Y-52117803D01*
X132412357Y-52082029D01*
X132479275Y-51973468D01*
X132479276Y-51973466D01*
X132483115Y-51967238D01*
X132538797Y-51799361D01*
X132549500Y-51694900D01*
X132549500Y-50394100D01*
X132549077Y-50390023D01*
X132539238Y-50295192D01*
X132539237Y-50295188D01*
X132538526Y-50288334D01*
X132504598Y-50186638D01*
X132484868Y-50127502D01*
X132482550Y-50120554D01*
X132389478Y-49970152D01*
X132264303Y-49845195D01*
X132249166Y-49835864D01*
X132171284Y-49787857D01*
X132113738Y-49752385D01*
X132106785Y-49750079D01*
X132105904Y-49749668D01*
X132052618Y-49702752D01*
X132033156Y-49634475D01*
X132053696Y-49566515D01*
X132071529Y-49546344D01*
X132070860Y-49545673D01*
X132225435Y-49391637D01*
X132229096Y-49387989D01*
X132288594Y-49305189D01*
X132356435Y-49210777D01*
X132359453Y-49206577D01*
X132372995Y-49179178D01*
X132456136Y-49010953D01*
X132456137Y-49010951D01*
X132458430Y-49006311D01*
X132523370Y-48792569D01*
X132552529Y-48571090D01*
X132554156Y-48504500D01*
X132535852Y-48281861D01*
X132481431Y-48065202D01*
X132392354Y-47860340D01*
X132271014Y-47672777D01*
X132120670Y-47507551D01*
X132116619Y-47504352D01*
X132116615Y-47504348D01*
X131949414Y-47372300D01*
X131949410Y-47372298D01*
X131945359Y-47369098D01*
X131749789Y-47261138D01*
X131744920Y-47259414D01*
X131744916Y-47259412D01*
X131544087Y-47188295D01*
X131544083Y-47188294D01*
X131539212Y-47186569D01*
X131534119Y-47185662D01*
X131534116Y-47185661D01*
X131324373Y-47148300D01*
X131324367Y-47148299D01*
X131319284Y-47147394D01*
X131245452Y-47146492D01*
X131101081Y-47144728D01*
X131101079Y-47144728D01*
X131095911Y-47144665D01*
X130875091Y-47178455D01*
X130662756Y-47247857D01*
X130464607Y-47351007D01*
X130460474Y-47354110D01*
X130460471Y-47354112D01*
X130290100Y-47482030D01*
X130285965Y-47485135D01*
X130131629Y-47646638D01*
X130024204Y-47804118D01*
X130023898Y-47804566D01*
X129968987Y-47849569D01*
X129898462Y-47857740D01*
X129834715Y-47826486D01*
X129814017Y-47802001D01*
X129784062Y-47755697D01*
X129773377Y-47746495D01*
X129763812Y-47750898D01*
X129023022Y-48491688D01*
X129015408Y-48505632D01*
X129015539Y-48507465D01*
X129019790Y-48514080D01*
X129761474Y-49255764D01*
X129773484Y-49262323D01*
X129785223Y-49253355D01*
X129819022Y-49206319D01*
X129820277Y-49207221D01*
X129867391Y-49163855D01*
X129937330Y-49151648D01*
X130002767Y-49179191D01*
X130030580Y-49211013D01*
X130088287Y-49305183D01*
X130088291Y-49305188D01*
X130090987Y-49309588D01*
X130237250Y-49478438D01*
X130307344Y-49536631D01*
X130346979Y-49595533D01*
X130348477Y-49666514D01*
X130311363Y-49727037D01*
X130280312Y-49747675D01*
X130273996Y-49750634D01*
X130267054Y-49752950D01*
X130116652Y-49846022D01*
X129991695Y-49971197D01*
X129987855Y-49977427D01*
X129987854Y-49977428D01*
X129944630Y-50047551D01*
X129898885Y-50121762D01*
X129896581Y-50128709D01*
X129874236Y-50196077D01*
X129833806Y-50254437D01*
X129807330Y-50270866D01*
X129763811Y-50290899D01*
X129023022Y-51031688D01*
X129015408Y-51045632D01*
X128285356Y-51045632D01*
X128286592Y-51043368D01*
X128286461Y-51041535D01*
X128282210Y-51034920D01*
X127540849Y-50293559D01*
X127529313Y-50287259D01*
X127517028Y-50296884D01*
X127484192Y-50345020D01*
X127429281Y-50390023D01*
X127358756Y-50398194D01*
X127295009Y-50366940D01*
X127274311Y-50342455D01*
X127244062Y-50295697D01*
X127233377Y-50286495D01*
X127223812Y-50290898D01*
X126483022Y-51031688D01*
X126475408Y-51045632D01*
X125745356Y-51045632D01*
X125746592Y-51043368D01*
X125746461Y-51041535D01*
X125742210Y-51034920D01*
X125000849Y-50293559D01*
X124989313Y-50287259D01*
X124977028Y-50296884D01*
X124944192Y-50345020D01*
X124889281Y-50390023D01*
X124818756Y-50398194D01*
X124755009Y-50366940D01*
X124734311Y-50342455D01*
X124704062Y-50295697D01*
X124693377Y-50286495D01*
X124683812Y-50290898D01*
X123943022Y-51031688D01*
X123935408Y-51045632D01*
X123205356Y-51045632D01*
X123206592Y-51043368D01*
X123206461Y-51041535D01*
X123202210Y-51034920D01*
X122460849Y-50293559D01*
X122449313Y-50287259D01*
X122437031Y-50296882D01*
X122404499Y-50344572D01*
X122349587Y-50389575D01*
X122279063Y-50397746D01*
X122215316Y-50366492D01*
X122194618Y-50342008D01*
X122113822Y-50217117D01*
X122113820Y-50217114D01*
X122111014Y-50212777D01*
X121960670Y-50047551D01*
X121956619Y-50044352D01*
X121956615Y-50044348D01*
X121789414Y-49912300D01*
X121789410Y-49912298D01*
X121785359Y-49909098D01*
X121744053Y-49886296D01*
X121694084Y-49835864D01*
X121679312Y-49766421D01*
X121704428Y-49700016D01*
X121731780Y-49673409D01*
X121793544Y-49629353D01*
X122810977Y-49629353D01*
X122816258Y-49636407D01*
X122863479Y-49664001D01*
X122912203Y-49715639D01*
X122925274Y-49785422D01*
X122898543Y-49851194D01*
X122858087Y-49884553D01*
X122849466Y-49889041D01*
X122840734Y-49894539D01*
X122820677Y-49909599D01*
X122812223Y-49920927D01*
X122818968Y-49933258D01*
X123558188Y-50672478D01*
X123572132Y-50680092D01*
X123573965Y-50679961D01*
X123580580Y-50675710D01*
X124324389Y-49931901D01*
X124331410Y-49919044D01*
X124324611Y-49909713D01*
X124320559Y-49907021D01*
X124283116Y-49886352D01*
X124233145Y-49835920D01*
X124218373Y-49766477D01*
X124243489Y-49700072D01*
X124270840Y-49673465D01*
X124320247Y-49638223D01*
X124327211Y-49629353D01*
X125350977Y-49629353D01*
X125356258Y-49636407D01*
X125403479Y-49664001D01*
X125452203Y-49715639D01*
X125465274Y-49785422D01*
X125438543Y-49851194D01*
X125398087Y-49884553D01*
X125389466Y-49889041D01*
X125380734Y-49894539D01*
X125360677Y-49909599D01*
X125352223Y-49920927D01*
X125358968Y-49933258D01*
X126098188Y-50672478D01*
X126112132Y-50680092D01*
X126113965Y-50679961D01*
X126120580Y-50675710D01*
X126864389Y-49931901D01*
X126871410Y-49919044D01*
X126864611Y-49909713D01*
X126860559Y-49907021D01*
X126823116Y-49886352D01*
X126773145Y-49835920D01*
X126758373Y-49766477D01*
X126783489Y-49700072D01*
X126810840Y-49673465D01*
X126860247Y-49638223D01*
X126867211Y-49629353D01*
X127890977Y-49629353D01*
X127896258Y-49636407D01*
X127943479Y-49664001D01*
X127992203Y-49715639D01*
X128005274Y-49785422D01*
X127978543Y-49851194D01*
X127938087Y-49884553D01*
X127929466Y-49889041D01*
X127920734Y-49894539D01*
X127900677Y-49909599D01*
X127892223Y-49920927D01*
X127898968Y-49933258D01*
X128638188Y-50672478D01*
X128652132Y-50680092D01*
X128653965Y-50679961D01*
X128660580Y-50675710D01*
X129404389Y-49931901D01*
X129411410Y-49919044D01*
X129404611Y-49909713D01*
X129400559Y-49907021D01*
X129363116Y-49886352D01*
X129313145Y-49835920D01*
X129298373Y-49766477D01*
X129323489Y-49700072D01*
X129350840Y-49673465D01*
X129400247Y-49638223D01*
X129408648Y-49627523D01*
X129401660Y-49614370D01*
X128663812Y-48876522D01*
X128649868Y-48868908D01*
X128648035Y-48869039D01*
X128641420Y-48873290D01*
X127897737Y-49616973D01*
X127890977Y-49629353D01*
X126867211Y-49629353D01*
X126868648Y-49627523D01*
X126861660Y-49614370D01*
X126123812Y-48876522D01*
X126109868Y-48868908D01*
X126108035Y-48869039D01*
X126101420Y-48873290D01*
X125357737Y-49616973D01*
X125350977Y-49629353D01*
X124327211Y-49629353D01*
X124328648Y-49627523D01*
X124321660Y-49614370D01*
X123583812Y-48876522D01*
X123569868Y-48868908D01*
X123568035Y-48869039D01*
X123561420Y-48873290D01*
X122817737Y-49616973D01*
X122810977Y-49629353D01*
X121793544Y-49629353D01*
X121796110Y-49627523D01*
X121910860Y-49545673D01*
X122069096Y-49387989D01*
X122128594Y-49305189D01*
X122199453Y-49206577D01*
X122200640Y-49207430D01*
X122247960Y-49163862D01*
X122317897Y-49151645D01*
X122383338Y-49179178D01*
X122411166Y-49211012D01*
X122437459Y-49253919D01*
X122447916Y-49263380D01*
X122456694Y-49259596D01*
X123198978Y-48517312D01*
X123205356Y-48505632D01*
X123935408Y-48505632D01*
X123935539Y-48507465D01*
X123939790Y-48514080D01*
X124681474Y-49255764D01*
X124693484Y-49262323D01*
X124705223Y-49253355D01*
X124739022Y-49206319D01*
X124740149Y-49207129D01*
X124787659Y-49163381D01*
X124857596Y-49151161D01*
X124923038Y-49178691D01*
X124950870Y-49210529D01*
X124977459Y-49253919D01*
X124987916Y-49263380D01*
X124996694Y-49259596D01*
X125738978Y-48517312D01*
X125745356Y-48505632D01*
X126475408Y-48505632D01*
X126475539Y-48507465D01*
X126479790Y-48514080D01*
X127221474Y-49255764D01*
X127233484Y-49262323D01*
X127245223Y-49253355D01*
X127279022Y-49206319D01*
X127280149Y-49207129D01*
X127327659Y-49163381D01*
X127397596Y-49151161D01*
X127463038Y-49178691D01*
X127490870Y-49210529D01*
X127517459Y-49253919D01*
X127527916Y-49263380D01*
X127536694Y-49259596D01*
X128278978Y-48517312D01*
X128286592Y-48503368D01*
X128286461Y-48501535D01*
X128282210Y-48494920D01*
X127540849Y-47753559D01*
X127529313Y-47747259D01*
X127517028Y-47756884D01*
X127484192Y-47805020D01*
X127429281Y-47850023D01*
X127358756Y-47858194D01*
X127295009Y-47826940D01*
X127274311Y-47802455D01*
X127244062Y-47755697D01*
X127233377Y-47746495D01*
X127223812Y-47750898D01*
X126483022Y-48491688D01*
X126475408Y-48505632D01*
X125745356Y-48505632D01*
X125746592Y-48503368D01*
X125746461Y-48501535D01*
X125742210Y-48494920D01*
X125000849Y-47753559D01*
X124989313Y-47747259D01*
X124977028Y-47756884D01*
X124944192Y-47805020D01*
X124889281Y-47850023D01*
X124818756Y-47858194D01*
X124755009Y-47826940D01*
X124734311Y-47802455D01*
X124704062Y-47755697D01*
X124693377Y-47746495D01*
X124683812Y-47750898D01*
X123943022Y-48491688D01*
X123935408Y-48505632D01*
X123205356Y-48505632D01*
X123206592Y-48503368D01*
X123206461Y-48501535D01*
X123202210Y-48494920D01*
X122460849Y-47753559D01*
X122449313Y-47747259D01*
X122437031Y-47756882D01*
X122404499Y-47804572D01*
X122349587Y-47849575D01*
X122279063Y-47857746D01*
X122215316Y-47826492D01*
X122194618Y-47802008D01*
X122113822Y-47677117D01*
X122113820Y-47677114D01*
X122111014Y-47672777D01*
X121960670Y-47507551D01*
X121956619Y-47504352D01*
X121956615Y-47504348D01*
X121800338Y-47380927D01*
X122812223Y-47380927D01*
X122818968Y-47393258D01*
X123558188Y-48132478D01*
X123572132Y-48140092D01*
X123573965Y-48139961D01*
X123580580Y-48135710D01*
X124324389Y-47391901D01*
X124330382Y-47380927D01*
X125352223Y-47380927D01*
X125358968Y-47393258D01*
X126098188Y-48132478D01*
X126112132Y-48140092D01*
X126113965Y-48139961D01*
X126120580Y-48135710D01*
X126864389Y-47391901D01*
X126870382Y-47380927D01*
X127892223Y-47380927D01*
X127898968Y-47393258D01*
X128638188Y-48132478D01*
X128652132Y-48140092D01*
X128653965Y-48139961D01*
X128660580Y-48135710D01*
X129404389Y-47391901D01*
X129411410Y-47379044D01*
X129404611Y-47369713D01*
X129400554Y-47367018D01*
X129214117Y-47264099D01*
X129204705Y-47259869D01*
X129003959Y-47188780D01*
X128993989Y-47186146D01*
X128784327Y-47148801D01*
X128774073Y-47147831D01*
X128561116Y-47145228D01*
X128550832Y-47145948D01*
X128340321Y-47178161D01*
X128330293Y-47180550D01*
X128127868Y-47246712D01*
X128118359Y-47250709D01*
X127929466Y-47349040D01*
X127920734Y-47354539D01*
X127900677Y-47369599D01*
X127892223Y-47380927D01*
X126870382Y-47380927D01*
X126871410Y-47379044D01*
X126864611Y-47369713D01*
X126860554Y-47367018D01*
X126674117Y-47264099D01*
X126664705Y-47259869D01*
X126463959Y-47188780D01*
X126453989Y-47186146D01*
X126244327Y-47148801D01*
X126234073Y-47147831D01*
X126021116Y-47145228D01*
X126010832Y-47145948D01*
X125800321Y-47178161D01*
X125790293Y-47180550D01*
X125587868Y-47246712D01*
X125578359Y-47250709D01*
X125389466Y-47349040D01*
X125380734Y-47354539D01*
X125360677Y-47369599D01*
X125352223Y-47380927D01*
X124330382Y-47380927D01*
X124331410Y-47379044D01*
X124324611Y-47369713D01*
X124320554Y-47367018D01*
X124134117Y-47264099D01*
X124124705Y-47259869D01*
X123923959Y-47188780D01*
X123913989Y-47186146D01*
X123704327Y-47148801D01*
X123694073Y-47147831D01*
X123481116Y-47145228D01*
X123470832Y-47145948D01*
X123260321Y-47178161D01*
X123250293Y-47180550D01*
X123047868Y-47246712D01*
X123038359Y-47250709D01*
X122849466Y-47349040D01*
X122840734Y-47354539D01*
X122820677Y-47369599D01*
X122812223Y-47380927D01*
X121800338Y-47380927D01*
X121789414Y-47372300D01*
X121789410Y-47372298D01*
X121785359Y-47369098D01*
X121589789Y-47261138D01*
X121584920Y-47259414D01*
X121584916Y-47259412D01*
X121384087Y-47188295D01*
X121384083Y-47188294D01*
X121379212Y-47186569D01*
X121374119Y-47185662D01*
X121374116Y-47185661D01*
X121164373Y-47148300D01*
X121164367Y-47148299D01*
X121159284Y-47147394D01*
X121085452Y-47146492D01*
X120941081Y-47144728D01*
X120941079Y-47144728D01*
X120935911Y-47144665D01*
X120715091Y-47178455D01*
X120502756Y-47247857D01*
X120304607Y-47351007D01*
X120300474Y-47354110D01*
X120300471Y-47354112D01*
X120130100Y-47482030D01*
X120125965Y-47485135D01*
X119971629Y-47646638D01*
X119864201Y-47804121D01*
X119809293Y-47849121D01*
X119738768Y-47857292D01*
X119675021Y-47826038D01*
X119654324Y-47801554D01*
X119573822Y-47677117D01*
X119573820Y-47677114D01*
X119571014Y-47672777D01*
X119420670Y-47507551D01*
X119416619Y-47504352D01*
X119416615Y-47504348D01*
X119249414Y-47372300D01*
X119249410Y-47372298D01*
X119245359Y-47369098D01*
X119049789Y-47261138D01*
X119044920Y-47259414D01*
X119044916Y-47259412D01*
X118844087Y-47188295D01*
X118844083Y-47188294D01*
X118839212Y-47186569D01*
X118834119Y-47185662D01*
X118834116Y-47185661D01*
X118624373Y-47148300D01*
X118624367Y-47148299D01*
X118619284Y-47147394D01*
X118545452Y-47146492D01*
X118401081Y-47144728D01*
X118401079Y-47144728D01*
X118395911Y-47144665D01*
X118175091Y-47178455D01*
X117962756Y-47247857D01*
X117764607Y-47351007D01*
X117760474Y-47354110D01*
X117760471Y-47354112D01*
X117590100Y-47482030D01*
X117585965Y-47485135D01*
X117431629Y-47646638D01*
X117324201Y-47804121D01*
X117269293Y-47849121D01*
X117198768Y-47857292D01*
X117135021Y-47826038D01*
X117114324Y-47801554D01*
X117033822Y-47677117D01*
X117033820Y-47677114D01*
X117031014Y-47672777D01*
X116880670Y-47507551D01*
X116876619Y-47504352D01*
X116876615Y-47504348D01*
X116709414Y-47372300D01*
X116709410Y-47372298D01*
X116705359Y-47369098D01*
X116509789Y-47261138D01*
X116504920Y-47259414D01*
X116504916Y-47259412D01*
X116304087Y-47188295D01*
X116304083Y-47188294D01*
X116299212Y-47186569D01*
X116294119Y-47185662D01*
X116294116Y-47185661D01*
X116084373Y-47148300D01*
X116084367Y-47148299D01*
X116079284Y-47147394D01*
X116005452Y-47146492D01*
X115861081Y-47144728D01*
X115861079Y-47144728D01*
X115855911Y-47144665D01*
X115635091Y-47178455D01*
X115422756Y-47247857D01*
X115224607Y-47351007D01*
X115220474Y-47354110D01*
X115220471Y-47354112D01*
X115050100Y-47482030D01*
X115045965Y-47485135D01*
X114891629Y-47646638D01*
X114784201Y-47804121D01*
X114729293Y-47849121D01*
X114658768Y-47857292D01*
X114595021Y-47826038D01*
X114574324Y-47801554D01*
X114493822Y-47677117D01*
X114493820Y-47677114D01*
X114491014Y-47672777D01*
X114340670Y-47507551D01*
X114336619Y-47504352D01*
X114336615Y-47504348D01*
X114169414Y-47372300D01*
X114169410Y-47372298D01*
X114165359Y-47369098D01*
X113969789Y-47261138D01*
X113964920Y-47259414D01*
X113964916Y-47259412D01*
X113764087Y-47188295D01*
X113764083Y-47188294D01*
X113759212Y-47186569D01*
X113754119Y-47185662D01*
X113754116Y-47185661D01*
X113544373Y-47148300D01*
X113544367Y-47148299D01*
X113539284Y-47147394D01*
X113465452Y-47146492D01*
X113321081Y-47144728D01*
X113321079Y-47144728D01*
X113315911Y-47144665D01*
X113095091Y-47178455D01*
X112882756Y-47247857D01*
X112684607Y-47351007D01*
X112680474Y-47354110D01*
X112680471Y-47354112D01*
X112510100Y-47482030D01*
X112505965Y-47485135D01*
X112351629Y-47646638D01*
X112225743Y-47831180D01*
X112131688Y-48033805D01*
X112071989Y-48249070D01*
X112048251Y-48471195D01*
X112048548Y-48476348D01*
X112048548Y-48476351D01*
X112054011Y-48571090D01*
X112061110Y-48694215D01*
X112062247Y-48699261D01*
X112062248Y-48699267D01*
X112082119Y-48787439D01*
X112110222Y-48912139D01*
X112194266Y-49119116D01*
X112245019Y-49201938D01*
X112308291Y-49305188D01*
X112310987Y-49309588D01*
X112457250Y-49478438D01*
X112629126Y-49621132D01*
X112640063Y-49627523D01*
X112702445Y-49663976D01*
X112751169Y-49715614D01*
X112764240Y-49785397D01*
X112737509Y-49851169D01*
X112697055Y-49884527D01*
X112684607Y-49891007D01*
X112680474Y-49894110D01*
X112680471Y-49894112D01*
X112510100Y-50022030D01*
X112505965Y-50025135D01*
X112502393Y-50028873D01*
X112419580Y-50115532D01*
X112351629Y-50186638D01*
X112225743Y-50371180D01*
X112131688Y-50573805D01*
X112071989Y-50789070D01*
X112048251Y-51011195D01*
X105791000Y-51011195D01*
X105791000Y-42417173D01*
X105811002Y-42349052D01*
X105864658Y-42302559D01*
X105934932Y-42292455D01*
X105999512Y-42321949D01*
X106029267Y-42359970D01*
X106058414Y-42417173D01*
X106177380Y-42650657D01*
X106377668Y-42959075D01*
X106609098Y-43244867D01*
X106869133Y-43504902D01*
X107154925Y-43736332D01*
X107463342Y-43936620D01*
X107466276Y-43938115D01*
X107466283Y-43938119D01*
X107788066Y-44102075D01*
X107791006Y-44103573D01*
X108134326Y-44235361D01*
X108489541Y-44330541D01*
X108682558Y-44361112D01*
X108849511Y-44387555D01*
X108849519Y-44387556D01*
X108852759Y-44388069D01*
X109220000Y-44407315D01*
X109587241Y-44388069D01*
X109590481Y-44387556D01*
X109590489Y-44387555D01*
X109757442Y-44361112D01*
X109950459Y-44330541D01*
X110305674Y-44235361D01*
X110648994Y-44103573D01*
X110651934Y-44102075D01*
X110973717Y-43938119D01*
X110973724Y-43938115D01*
X110976658Y-43936620D01*
X111285075Y-43736332D01*
X111570867Y-43504902D01*
X111830902Y-43244867D01*
X112062332Y-42959075D01*
X112262620Y-42650657D01*
X112429573Y-42322994D01*
X112561361Y-41979674D01*
X112656541Y-41624459D01*
X112714069Y-41261241D01*
X112733315Y-40894000D01*
X112714069Y-40526759D01*
X112656541Y-40163541D01*
X112561361Y-39808326D01*
X112429573Y-39465006D01*
X112262620Y-39137343D01*
X112062332Y-38828925D01*
X111830902Y-38543133D01*
X111570867Y-38283098D01*
X111285075Y-38051668D01*
X110976658Y-37851380D01*
X110973724Y-37849885D01*
X110973717Y-37849881D01*
X110651934Y-37685925D01*
X110648994Y-37684427D01*
X110381201Y-37581631D01*
X110324773Y-37538545D01*
X110300596Y-37471792D01*
X110316347Y-37402565D01*
X110367025Y-37352843D01*
X110426355Y-37338000D01*
X134429645Y-37338000D01*
X134497766Y-37358002D01*
G37*
%TD.AperFunction*%
%TA.AperFunction,Conductor*%
G36*
X111051584Y-130874396D02*
G01*
X111062708Y-130885310D01*
X111114642Y-130942988D01*
X111148747Y-130980866D01*
X111237080Y-131045044D01*
X111288312Y-131082266D01*
X111303248Y-131093118D01*
X111309276Y-131095802D01*
X111309278Y-131095803D01*
X111471681Y-131168109D01*
X111477712Y-131170794D01*
X111540420Y-131184123D01*
X111658056Y-131209128D01*
X111658061Y-131209128D01*
X111664513Y-131210500D01*
X111855487Y-131210500D01*
X111861939Y-131209128D01*
X111861944Y-131209128D01*
X111979580Y-131184123D01*
X112042288Y-131170794D01*
X112048320Y-131168108D01*
X112051630Y-131167033D01*
X112122598Y-131165005D01*
X112183396Y-131201667D01*
X112197710Y-131220562D01*
X112283594Y-131359348D01*
X112288776Y-131364521D01*
X112293323Y-131370258D01*
X112291632Y-131371598D01*
X112320615Y-131424569D01*
X112315610Y-131495389D01*
X112291915Y-131532328D01*
X112292871Y-131533083D01*
X112279321Y-131550240D01*
X112194256Y-131688243D01*
X112188109Y-131701424D01*
X112136934Y-131855710D01*
X112134067Y-131869086D01*
X112124400Y-131963438D01*
X112124072Y-131969855D01*
X112124072Y-132194885D01*
X112128547Y-132210124D01*
X112129937Y-132211329D01*
X112137620Y-132213000D01*
X113272572Y-132213000D01*
X113340693Y-132233002D01*
X113387186Y-132286658D01*
X113398572Y-132339000D01*
X113398572Y-133656884D01*
X113403047Y-133672123D01*
X113404437Y-133673328D01*
X113412120Y-133674999D01*
X113454167Y-133674999D01*
X113460686Y-133674662D01*
X113556278Y-133664743D01*
X113569672Y-133661851D01*
X113723856Y-133610412D01*
X113737034Y-133604239D01*
X113874879Y-133518937D01*
X113886280Y-133509901D01*
X113967502Y-133428538D01*
X114029785Y-133394459D01*
X114100605Y-133399462D01*
X114145692Y-133428383D01*
X114228584Y-133511130D01*
X114228589Y-133511134D01*
X114233769Y-133516305D01*
X114239999Y-133520145D01*
X114240000Y-133520146D01*
X114377360Y-133604816D01*
X114384334Y-133609115D01*
X114407941Y-133616945D01*
X114545683Y-133662632D01*
X114545685Y-133662632D01*
X114552211Y-133664797D01*
X114559047Y-133665497D01*
X114559050Y-133665498D01*
X114602103Y-133669909D01*
X114656672Y-133675500D01*
X115018622Y-133675500D01*
X115086743Y-133695502D01*
X115133236Y-133749158D01*
X115143340Y-133819432D01*
X115113846Y-133884012D01*
X115107717Y-133890595D01*
X114578216Y-134420096D01*
X114515904Y-134454122D01*
X114489121Y-134457001D01*
X110504495Y-134457001D01*
X110436374Y-134436999D01*
X110415399Y-134420096D01*
X110029976Y-134034672D01*
X109995951Y-133972360D01*
X109993072Y-133945577D01*
X109993072Y-132964095D01*
X112124073Y-132964095D01*
X112124410Y-132970614D01*
X112134329Y-133066206D01*
X112137221Y-133079600D01*
X112188660Y-133233784D01*
X112194833Y-133246962D01*
X112280135Y-133384807D01*
X112289171Y-133396208D01*
X112403901Y-133510739D01*
X112415312Y-133519751D01*
X112553315Y-133604816D01*
X112566496Y-133610963D01*
X112720782Y-133662138D01*
X112734158Y-133665005D01*
X112828510Y-133674672D01*
X112834926Y-133675000D01*
X112872457Y-133675000D01*
X112887696Y-133670525D01*
X112888901Y-133669135D01*
X112890572Y-133661452D01*
X112890572Y-132739115D01*
X112886097Y-132723876D01*
X112884707Y-132722671D01*
X112877024Y-132721000D01*
X112142188Y-132721000D01*
X112126949Y-132725475D01*
X112125744Y-132726865D01*
X112124073Y-132734548D01*
X112124073Y-132964095D01*
X109993072Y-132964095D01*
X109993072Y-132831500D01*
X110013074Y-132763379D01*
X110066730Y-132716886D01*
X110119072Y-132705500D01*
X110382706Y-132705500D01*
X110444888Y-132698745D01*
X110581277Y-132647615D01*
X110697833Y-132560261D01*
X110785187Y-132443705D01*
X110836317Y-132307316D01*
X110843072Y-132245134D01*
X110843072Y-130969620D01*
X110863074Y-130901499D01*
X110916730Y-130855006D01*
X110987004Y-130844902D01*
X111051584Y-130874396D01*
G37*
%TD.AperFunction*%
%TA.AperFunction,Conductor*%
G36*
X125239202Y-127118750D02*
G01*
X125265639Y-127149206D01*
X125304094Y-127211348D01*
X125309276Y-127216521D01*
X125390681Y-127297784D01*
X125424760Y-127360066D01*
X125419757Y-127430886D01*
X125390836Y-127475975D01*
X125371345Y-127495500D01*
X125303267Y-127563697D01*
X125292530Y-127581116D01*
X125239759Y-127628609D01*
X125185270Y-127641000D01*
X125132137Y-127641000D01*
X125064016Y-127620998D01*
X125024994Y-127581305D01*
X125017303Y-127568877D01*
X125017299Y-127568872D01*
X125013450Y-127562652D01*
X124946181Y-127495500D01*
X124926509Y-127475862D01*
X124892430Y-127413579D01*
X124897433Y-127342759D01*
X124926354Y-127297671D01*
X125008711Y-127215171D01*
X125017723Y-127203760D01*
X125051235Y-127149393D01*
X125104007Y-127101900D01*
X125174079Y-127090476D01*
X125239202Y-127118750D01*
G37*
%TD.AperFunction*%
%TD*%
M02*
