M48
; DRILL file {KiCad (6.0.0-0)} date Tuesday, November 22, 2022 at 11:37:54 AM
; FORMAT={-:-/ absolute / inch / decimal}
; #@! TF.CreationDate,2022-11-22T11:37:54-05:00
; #@! TF.GenerationSoftware,Kicad,Pcbnew,(6.0.0-0)
; #@! TF.FileFunction,NonPlated,1,2,NPTH
FMAT,2
INCH
; #@! TA.AperFunction,NonPlated,NPTH,ComponentDrill
T1C0.0197
%
G90
G05
T1
X3.886Y-3.0807
X3.886Y-3.1398
X3.886Y-4.0256
X3.886Y-4.0846
X3.9155Y-3.0807
X3.9155Y-3.1398
X3.9155Y-4.0256
X3.9155Y-4.0846
X3.945Y-3.0807
X3.945Y-3.1398
X3.945Y-4.0256
X3.945Y-4.0846
X4.1831Y-2.5689
X4.1831Y-2.5984
X4.1831Y-2.628
X4.1831Y-3.5138
X4.1831Y-3.5433
X4.1831Y-3.5728
X4.1831Y-4.4587
X4.1831Y-4.4882
X4.1831Y-4.5177
X4.2421Y-2.5689
X4.2421Y-2.5984
X4.2421Y-2.628
X4.2421Y-3.5138
X4.2421Y-3.5433
X4.2421Y-3.5728
X4.2421Y-4.4587
X4.2421Y-4.4882
X4.2421Y-4.5177
X4.4765Y-3.0807
X4.4765Y-3.1398
X4.4765Y-4.0256
X4.4765Y-4.0846
X4.5061Y-3.0807
X4.5061Y-3.1398
X4.5061Y-4.0256
X4.5061Y-4.0846
X4.5356Y-3.0807
X4.5356Y-3.1398
X4.5356Y-4.0256
X4.5356Y-4.0846
X4.7736Y-2.5689
X4.7736Y-2.5984
X4.7736Y-2.628
X4.7736Y-3.5138
X4.7736Y-3.5433
X4.7736Y-3.5728
X4.7736Y-4.4587
X4.7736Y-4.4882
X4.7736Y-4.5177
X4.8327Y-2.5689
X4.8327Y-2.5984
X4.8327Y-2.628
X4.8327Y-3.5138
X4.8327Y-3.5433
X4.8327Y-3.5728
X4.8327Y-4.4587
X4.8327Y-4.4882
X4.8327Y-4.5177
X5.0671Y-3.0807
X5.0671Y-3.1398
X5.0671Y-4.0256
X5.0671Y-4.0846
X5.0966Y-3.0807
X5.0966Y-3.1398
X5.0966Y-4.0256
X5.0966Y-4.0846
X5.1261Y-3.0807
X5.1261Y-3.1398
X5.1261Y-4.0256
X5.1261Y-4.0846
X5.3642Y-2.5689
X5.3642Y-2.5984
X5.3642Y-2.628
X5.3642Y-3.5138
X5.3642Y-3.5433
X5.3642Y-3.5728
X5.3642Y-4.4587
X5.3642Y-4.4882
X5.3642Y-4.5177
X5.4232Y-2.5689
X5.4232Y-2.5984
X5.4232Y-2.628
X5.4232Y-3.5138
X5.4232Y-3.5433
X5.4232Y-3.5728
X5.4232Y-4.4587
X5.4232Y-4.4882
X5.4232Y-4.5177
X5.6576Y-3.0807
X5.6576Y-3.1398
X5.6576Y-4.0256
X5.6576Y-4.0846
X5.6872Y-3.0807
X5.6872Y-3.1398
X5.6872Y-4.0256
X5.6872Y-4.0846
X5.7167Y-3.0807
X5.7167Y-3.1398
X5.7167Y-4.0256
X5.7167Y-4.0846
X5.9547Y-2.5689
X5.9547Y-2.5984
X5.9547Y-2.628
X5.9547Y-3.5138
X5.9547Y-3.5433
X5.9547Y-3.5728
X5.9547Y-4.4587
X5.9547Y-4.4882
X5.9547Y-4.5177
X6.0138Y-2.5689
X6.0138Y-2.5984
X6.0138Y-2.628
X6.0138Y-3.5138
X6.0138Y-3.5433
X6.0138Y-3.5728
X6.0138Y-4.4587
X6.0138Y-4.4882
X6.0138Y-4.5177
X6.2482Y-3.0807
X6.2482Y-3.1398
X6.2482Y-4.0256
X6.2482Y-4.0846
X6.2777Y-3.0807
X6.2777Y-3.1398
X6.2777Y-4.0256
X6.2777Y-4.0846
X6.3072Y-3.0807
X6.3072Y-3.1398
X6.3072Y-4.0256
X6.3072Y-4.0846
X6.5453Y-2.5689
X6.5453Y-2.5984
X6.5453Y-2.628
X6.5453Y-3.5138
X6.5453Y-3.5433
X6.5453Y-3.5728
X6.5453Y-4.4587
X6.5453Y-4.4882
X6.5453Y-4.5177
X6.6043Y-2.5689
X6.6043Y-2.5984
X6.6043Y-2.628
X6.6043Y-3.5138
X6.6043Y-3.5433
X6.6043Y-3.5728
X6.6043Y-4.4587
X6.6043Y-4.4882
X6.6043Y-4.5177
X6.8387Y-3.0807
X6.8387Y-3.1398
X6.8387Y-4.0256
X6.8387Y-4.0846
X6.8683Y-3.0807
X6.8683Y-3.1398
X6.8683Y-4.0256
X6.8683Y-4.0846
X6.8978Y-3.0807
X6.8978Y-3.1398
X6.8978Y-4.0256
X6.8978Y-4.0846
T0
M30
