%TF.GenerationSoftware,KiCad,Pcbnew,(6.0.0-0)*%
%TF.CreationDate,2022-11-22T11:37:50-05:00*%
%TF.ProjectId,Breakout-Potentiometer-Panel,42726561-6b6f-4757-942d-506f74656e74,rev?*%
%TF.SameCoordinates,Original*%
%TF.FileFunction,Profile,NP*%
%FSLAX46Y46*%
G04 Gerber Fmt 4.6, Leading zero omitted, Abs format (unit mm)*
G04 Created by KiCad (PCBNEW (6.0.0-0)) date 2022-11-22 11:37:50*
%MOMM*%
%LPD*%
G01*
G04 APERTURE LIST*
%TA.AperFunction,Profile*%
%ADD10C,0.050000*%
%TD*%
%TA.AperFunction,Profile*%
%ADD11C,0.100000*%
%TD*%
G04 APERTURE END LIST*
D10*
X176454000Y-102000000D02*
X181000000Y-102000000D01*
X123000000Y-68000000D02*
X123000000Y-78000000D01*
X123000000Y-56000000D02*
X123000000Y-64000000D01*
X166000000Y-112000000D02*
X166000000Y-104000000D01*
X93000000Y-68000000D02*
X93000000Y-78000000D01*
X121000000Y-78000000D02*
X121000000Y-68000000D01*
X166000000Y-56000000D02*
X161454000Y-56000000D01*
X97454000Y-56000000D02*
X101454000Y-56000000D01*
X93000000Y-102000000D02*
X97454000Y-102000000D01*
X168000000Y-68000000D02*
X168000000Y-78000000D01*
X181000000Y-78000000D02*
X181000000Y-68000000D01*
X153000000Y-78000000D02*
X157454000Y-78000000D01*
X153000000Y-102000000D02*
X157454000Y-102000000D01*
X176454000Y-78000000D02*
X181000000Y-78000000D01*
X151000000Y-80000000D02*
X146454000Y-80000000D01*
X181000000Y-112000000D02*
X181000000Y-116000000D01*
X106000000Y-112000000D02*
X106000000Y-104000000D01*
X142454000Y-56000000D02*
X138000000Y-56000000D01*
X97454000Y-80000000D02*
X93000000Y-80000000D01*
X138000000Y-92000000D02*
X138000000Y-102000000D01*
X106000000Y-56000000D02*
X101454000Y-56000000D01*
X168000000Y-116000000D02*
X168000000Y-126000000D01*
X93000000Y-80000000D02*
X93000000Y-88000000D01*
X153000000Y-68000000D02*
X153000000Y-78000000D01*
X181000000Y-64000000D02*
X181000000Y-68000000D01*
X138000000Y-116000000D02*
X138000000Y-126000000D01*
X172454000Y-104000000D02*
X168000000Y-104000000D01*
X142454000Y-80000000D02*
X138000000Y-80000000D01*
X131454000Y-78000000D02*
X136000000Y-78000000D01*
X108000000Y-104000000D02*
X108000000Y-112000000D01*
X138000000Y-80000000D02*
X138000000Y-88000000D01*
X108000000Y-102000000D02*
X112454000Y-102000000D01*
X138000000Y-78000000D02*
X142454000Y-78000000D01*
X142454000Y-56000000D02*
X146454000Y-56000000D01*
X138000000Y-56000000D02*
X138000000Y-64000000D01*
X108000000Y-92000000D02*
X108000000Y-102000000D01*
X116454000Y-102000000D02*
X121000000Y-102000000D01*
X138000000Y-68000000D02*
X138000000Y-78000000D01*
X106000000Y-78000000D02*
X106000000Y-68000000D01*
X127454000Y-56000000D02*
X131454000Y-56000000D01*
X168000000Y-102000000D02*
X172454000Y-102000000D01*
X106000000Y-88000000D02*
X106000000Y-80000000D01*
X142454000Y-104000000D02*
X138000000Y-104000000D01*
X168000000Y-126000000D02*
X172454000Y-126000000D01*
X138000000Y-102000000D02*
X142454000Y-102000000D01*
X123000000Y-80000000D02*
X123000000Y-88000000D01*
X151000000Y-104000000D02*
X146454000Y-104000000D01*
X123000000Y-92000000D02*
X123000000Y-102000000D01*
X168000000Y-92000000D02*
X168000000Y-102000000D01*
X138000000Y-104000000D02*
X138000000Y-112000000D01*
X146454000Y-78000000D02*
X151000000Y-78000000D01*
X151000000Y-88000000D02*
X151000000Y-80000000D01*
X123000000Y-126000000D02*
X127454000Y-126000000D01*
X168000000Y-56000000D02*
X168000000Y-64000000D01*
X153000000Y-104000000D02*
X153000000Y-112000000D01*
X116454000Y-78000000D02*
X121000000Y-78000000D01*
X166000000Y-64000000D02*
X166000000Y-56000000D01*
X112454000Y-80000000D02*
X108000000Y-80000000D01*
X106000000Y-102000000D02*
X106000000Y-92000000D01*
X172454000Y-126000000D02*
X176454000Y-126000000D01*
X161454000Y-78000000D02*
X166000000Y-78000000D01*
X151000000Y-78000000D02*
X151000000Y-68000000D01*
X93000000Y-126000000D02*
X97454000Y-126000000D01*
X153000000Y-116000000D02*
X153000000Y-126000000D01*
X136000000Y-126000000D02*
X136000000Y-116000000D01*
X146454000Y-102000000D02*
X151000000Y-102000000D01*
X181000000Y-104000000D02*
X176454000Y-104000000D01*
X121000000Y-80000000D02*
X116454000Y-80000000D01*
X93000000Y-92000000D02*
X93000000Y-102000000D01*
X153000000Y-92000000D02*
X153000000Y-102000000D01*
X172454000Y-56000000D02*
X176454000Y-56000000D01*
X116454000Y-126000000D02*
X121000000Y-126000000D01*
X127454000Y-126000000D02*
X131454000Y-126000000D01*
X151000000Y-126000000D02*
X151000000Y-116000000D01*
X166000000Y-78000000D02*
X166000000Y-68000000D01*
X97454000Y-56000000D02*
X93000000Y-56000000D01*
X138000000Y-126000000D02*
X142454000Y-126000000D01*
X166000000Y-104000000D02*
X161454000Y-104000000D01*
X106000000Y-104000000D02*
X101454000Y-104000000D01*
X101454000Y-102000000D02*
X106000000Y-102000000D01*
X168000000Y-104000000D02*
X168000000Y-112000000D01*
X166000000Y-80000000D02*
X161454000Y-80000000D01*
X101454000Y-126000000D02*
X106000000Y-126000000D01*
X108000000Y-126000000D02*
X112454000Y-126000000D01*
X123000000Y-116000000D02*
X123000000Y-126000000D01*
X157454000Y-80000000D02*
X153000000Y-80000000D01*
X131454000Y-126000000D02*
X136000000Y-126000000D01*
X112454000Y-126000000D02*
X116454000Y-126000000D01*
X136000000Y-80000000D02*
X131454000Y-80000000D01*
X157454000Y-56000000D02*
X161454000Y-56000000D01*
X131454000Y-102000000D02*
X136000000Y-102000000D01*
X93000000Y-78000000D02*
X97454000Y-78000000D01*
X97454000Y-104000000D02*
X93000000Y-104000000D01*
X106000000Y-80000000D02*
X101454000Y-80000000D01*
X166000000Y-102000000D02*
X166000000Y-92000000D01*
X151000000Y-112000000D02*
X151000000Y-104000000D01*
X123000000Y-78000000D02*
X127454000Y-78000000D01*
X106000000Y-126000000D02*
X106000000Y-116000000D01*
X106000000Y-64000000D02*
X106000000Y-56000000D01*
X181000000Y-88000000D02*
X181000000Y-80000000D01*
X121000000Y-64000000D02*
X121000000Y-56000000D01*
X121000000Y-88000000D02*
X121000000Y-80000000D01*
X181000000Y-126000000D02*
X181000000Y-116000000D01*
X157454000Y-56000000D02*
X153000000Y-56000000D01*
X136000000Y-88000000D02*
X136000000Y-80000000D01*
X146454000Y-126000000D02*
X151000000Y-126000000D01*
X112454000Y-56000000D02*
X108000000Y-56000000D01*
X127454000Y-104000000D02*
X123000000Y-104000000D01*
X181000000Y-80000000D02*
X176454000Y-80000000D01*
X121000000Y-56000000D02*
X116454000Y-56000000D01*
X101454000Y-78000000D02*
X106000000Y-78000000D01*
X93000000Y-112000000D02*
X93000000Y-116000000D01*
X108000000Y-68000000D02*
X108000000Y-78000000D01*
X93000000Y-88000000D02*
X93000000Y-92000000D01*
X136000000Y-64000000D02*
X136000000Y-56000000D01*
X157454000Y-104000000D02*
X153000000Y-104000000D01*
X181000000Y-112000000D02*
X181000000Y-104000000D01*
X151000000Y-102000000D02*
X151000000Y-92000000D01*
X127454000Y-56000000D02*
X123000000Y-56000000D01*
X127454000Y-80000000D02*
X123000000Y-80000000D01*
X176454000Y-126000000D02*
X181000000Y-126000000D01*
X108000000Y-78000000D02*
X112454000Y-78000000D01*
X153000000Y-126000000D02*
X157454000Y-126000000D01*
X93000000Y-56000000D02*
X93000000Y-64000000D01*
X121000000Y-104000000D02*
X116454000Y-104000000D01*
X123000000Y-102000000D02*
X127454000Y-102000000D01*
X142454000Y-126000000D02*
X146454000Y-126000000D01*
X166000000Y-88000000D02*
X166000000Y-80000000D01*
X181000000Y-56000000D02*
X176454000Y-56000000D01*
X161454000Y-102000000D02*
X166000000Y-102000000D01*
X168000000Y-80000000D02*
X168000000Y-88000000D01*
X93000000Y-116000000D02*
X93000000Y-126000000D01*
X121000000Y-112000000D02*
X121000000Y-104000000D01*
X108000000Y-80000000D02*
X108000000Y-88000000D01*
X181000000Y-102000000D02*
X181000000Y-92000000D01*
X97454000Y-126000000D02*
X101454000Y-126000000D01*
X157454000Y-126000000D02*
X161454000Y-126000000D01*
X108000000Y-116000000D02*
X108000000Y-126000000D01*
X93000000Y-104000000D02*
X93000000Y-112000000D01*
X172454000Y-56000000D02*
X168000000Y-56000000D01*
X153000000Y-80000000D02*
X153000000Y-88000000D01*
X136000000Y-104000000D02*
X131454000Y-104000000D01*
X136000000Y-112000000D02*
X136000000Y-104000000D01*
X166000000Y-126000000D02*
X166000000Y-116000000D01*
X136000000Y-78000000D02*
X136000000Y-68000000D01*
X172454000Y-80000000D02*
X168000000Y-80000000D01*
X112454000Y-56000000D02*
X116454000Y-56000000D01*
X153000000Y-56000000D02*
X153000000Y-64000000D01*
X136000000Y-56000000D02*
X131454000Y-56000000D01*
X181000000Y-64000000D02*
X181000000Y-56000000D01*
X151000000Y-56000000D02*
X146454000Y-56000000D01*
X181000000Y-88000000D02*
X181000000Y-92000000D01*
X121000000Y-102000000D02*
X121000000Y-92000000D01*
X161454000Y-126000000D02*
X166000000Y-126000000D01*
X93000000Y-64000000D02*
X93000000Y-68000000D01*
X121000000Y-126000000D02*
X121000000Y-116000000D01*
X123000000Y-104000000D02*
X123000000Y-112000000D01*
X168000000Y-78000000D02*
X172454000Y-78000000D01*
X112454000Y-104000000D02*
X108000000Y-104000000D01*
X151000000Y-64000000D02*
X151000000Y-56000000D01*
X136000000Y-102000000D02*
X136000000Y-92000000D01*
X108000000Y-56000000D02*
X108000000Y-64000000D01*
D11*
%TO.C,mouse-bite-2mm-slot15*%
X121000000Y-88000000D02*
G75*
G03*
X123000000Y-88000000I1000000J0D01*
G01*
X123000000Y-92000000D02*
G75*
G03*
X121000000Y-92000000I-1000000J0D01*
G01*
%TO.C,mouse-bite-2mm-slot3*%
X123000000Y-68000000D02*
G75*
G03*
X121000000Y-68000000I-1000000J0D01*
G01*
X121000000Y-64000000D02*
G75*
G03*
X123000000Y-64000000I1000000J0D01*
G01*
%TO.C,mouse-bite-2mm-slot31*%
X151000000Y-112000000D02*
G75*
G03*
X153000000Y-112000000I1000000J0D01*
G01*
X153000000Y-116000000D02*
G75*
G03*
X151000000Y-116000000I-1000000J0D01*
G01*
%TO.C,mouse-bite-2mm-slot18*%
X142454000Y-80000000D02*
G75*
G03*
X142454000Y-78000000I0J1000000D01*
G01*
X146454000Y-78000000D02*
G75*
G03*
X146454000Y-80000000I0J-1000000D01*
G01*
%TO.C,mouse-bite-2mm-slot17*%
X136000000Y-88000000D02*
G75*
G03*
X138000000Y-88000000I1000000J0D01*
G01*
X138000000Y-92000000D02*
G75*
G03*
X136000000Y-92000000I-1000000J0D01*
G01*
%TO.C,mouse-bite-2mm-slot5*%
X138000000Y-68000000D02*
G75*
G03*
X136000000Y-68000000I-1000000J0D01*
G01*
X136000000Y-64000000D02*
G75*
G03*
X138000000Y-64000000I1000000J0D01*
G01*
%TO.C,mouse-bite-2mm-slot13*%
X106000000Y-88000000D02*
G75*
G03*
X108000000Y-88000000I1000000J0D01*
G01*
X108000000Y-92000000D02*
G75*
G03*
X106000000Y-92000000I-1000000J0D01*
G01*
%TO.C,mouse-bite-2mm-slot19*%
X153000000Y-92000000D02*
G75*
G03*
X151000000Y-92000000I-1000000J0D01*
G01*
X151000000Y-88000000D02*
G75*
G03*
X153000000Y-88000000I1000000J0D01*
G01*
%TO.C,mouse-bite-2mm-slot28*%
X127454000Y-104000000D02*
G75*
G03*
X127454000Y-102000000I0J1000000D01*
G01*
X131454000Y-102000000D02*
G75*
G03*
X131454000Y-104000000I0J-1000000D01*
G01*
%TO.C,mouse-bite-2mm-slot1*%
X108000000Y-68000000D02*
G75*
G03*
X106000000Y-68000000I-1000000J0D01*
G01*
X106000000Y-64000000D02*
G75*
G03*
X108000000Y-64000000I1000000J0D01*
G01*
%TO.C,mouse-bite-2mm-slot20*%
X157454000Y-80000000D02*
G75*
G03*
X157454000Y-78000000I0J1000000D01*
G01*
X161454000Y-78000000D02*
G75*
G03*
X161454000Y-80000000I0J-1000000D01*
G01*
%TO.C,mouse-bite-2mm-slot7*%
X151000000Y-64000000D02*
G75*
G03*
X153000000Y-64000000I1000000J0D01*
G01*
X153000000Y-68000000D02*
G75*
G03*
X151000000Y-68000000I-1000000J0D01*
G01*
%TO.C,mouse-bite-2mm-slot14*%
X112454000Y-80000000D02*
G75*
G03*
X112454000Y-78000000I0J1000000D01*
G01*
X116454000Y-78000000D02*
G75*
G03*
X116454000Y-80000000I0J-1000000D01*
G01*
%TO.C,mouse-bite-2mm-slot21*%
X168000000Y-92000000D02*
G75*
G03*
X166000000Y-92000000I-1000000J0D01*
G01*
X166000000Y-88000000D02*
G75*
G03*
X168000000Y-88000000I1000000J0D01*
G01*
%TO.C,mouse-bite-2mm-slot12*%
X97454000Y-80000000D02*
G75*
G03*
X97454000Y-78000000I0J1000000D01*
G01*
X101454000Y-78000000D02*
G75*
G03*
X101454000Y-80000000I0J-1000000D01*
G01*
%TO.C,mouse-bite-2mm-slot25*%
X108000000Y-116000000D02*
G75*
G03*
X106000000Y-116000000I-1000000J0D01*
G01*
X106000000Y-112000000D02*
G75*
G03*
X108000000Y-112000000I1000000J0D01*
G01*
%TO.C,mouse-bite-2mm-slot22*%
X172454000Y-80000000D02*
G75*
G03*
X172454000Y-78000000I0J1000000D01*
G01*
X176454000Y-78000000D02*
G75*
G03*
X176454000Y-80000000I0J-1000000D01*
G01*
%TO.C,mouse-bite-2mm-slot16*%
X131454000Y-78000000D02*
G75*
G03*
X131454000Y-80000000I0J-1000000D01*
G01*
X127454000Y-80000000D02*
G75*
G03*
X127454000Y-78000000I0J1000000D01*
G01*
%TO.C,mouse-bite-2mm-slot29*%
X136000000Y-112000000D02*
G75*
G03*
X138000000Y-112000000I1000000J0D01*
G01*
X138000000Y-116000000D02*
G75*
G03*
X136000000Y-116000000I-1000000J0D01*
G01*
%TO.C,mouse-bite-2mm-slot32*%
X157454000Y-104000000D02*
G75*
G03*
X157454000Y-102000000I0J1000000D01*
G01*
X161454000Y-102000000D02*
G75*
G03*
X161454000Y-104000000I0J-1000000D01*
G01*
%TO.C,mouse-bite-2mm-slot33*%
X166000000Y-112000000D02*
G75*
G03*
X168000000Y-112000000I1000000J0D01*
G01*
X168000000Y-116000000D02*
G75*
G03*
X166000000Y-116000000I-1000000J0D01*
G01*
%TO.C,mouse-bite-2mm-slot24*%
X97454000Y-104000000D02*
G75*
G03*
X97454000Y-102000000I0J1000000D01*
G01*
X101454000Y-102000000D02*
G75*
G03*
X101454000Y-104000000I0J-1000000D01*
G01*
%TO.C,mouse-bite-2mm-slot27*%
X121000000Y-112000000D02*
G75*
G03*
X123000000Y-112000000I1000000J0D01*
G01*
X123000000Y-116000000D02*
G75*
G03*
X121000000Y-116000000I-1000000J0D01*
G01*
%TO.C,mouse-bite-2mm-slot30*%
X142454000Y-104000000D02*
G75*
G03*
X142454000Y-102000000I0J1000000D01*
G01*
X146454000Y-102000000D02*
G75*
G03*
X146454000Y-104000000I0J-1000000D01*
G01*
%TO.C,mouse-bite-2mm-slot34*%
X172454000Y-104000000D02*
G75*
G03*
X172454000Y-102000000I0J1000000D01*
G01*
X176454000Y-102000000D02*
G75*
G03*
X176454000Y-104000000I0J-1000000D01*
G01*
%TO.C,mouse-bite-2mm-slot26*%
X116454000Y-102000000D02*
G75*
G03*
X116454000Y-104000000I0J-1000000D01*
G01*
X112454000Y-104000000D02*
G75*
G03*
X112454000Y-102000000I0J1000000D01*
G01*
%TO.C,mouse-bite-2mm-slot9*%
X166000000Y-64000000D02*
G75*
G03*
X168000000Y-64000000I1000000J0D01*
G01*
X168000000Y-68000000D02*
G75*
G03*
X166000000Y-68000000I-1000000J0D01*
G01*
%TD*%
M02*
