%TF.GenerationSoftware,KiCad,Pcbnew,(6.0.0-0)*%
%TF.CreationDate,2022-11-22T11:37:46-05:00*%
%TF.ProjectId,Breakout-Potentiometer-Panel,42726561-6b6f-4757-942d-506f74656e74,rev?*%
%TF.SameCoordinates,Original*%
%TF.FileFunction,Copper,L2,Bot*%
%TF.FilePolarity,Positive*%
%FSLAX46Y46*%
G04 Gerber Fmt 4.6, Leading zero omitted, Abs format (unit mm)*
G04 Created by KiCad (PCBNEW (6.0.0-0)) date 2022-11-22 11:37:46*
%MOMM*%
%LPD*%
G01*
G04 APERTURE LIST*
%TA.AperFunction,ComponentPad*%
%ADD10O,2.720000X3.240000*%
%TD*%
%TA.AperFunction,ComponentPad*%
%ADD11C,2.000000*%
%TD*%
%TA.AperFunction,ComponentPad*%
%ADD12O,1.700000X1.700000*%
%TD*%
%TA.AperFunction,ComponentPad*%
%ADD13R,1.700000X1.700000*%
%TD*%
G04 APERTURE END LIST*
D10*
%TO.P,RV14,*%
%TO.N,*%
X109700000Y-113674000D03*
X119300000Y-113674000D03*
D11*
%TO.P,RV14,1,1*%
%TO.N,Net-(J2-Pad1)*%
X112000000Y-121174000D03*
%TO.P,RV14,2,2*%
%TO.N,Net-(J2-Pad2)*%
X114500000Y-121174000D03*
%TO.P,RV14,3,3*%
%TO.N,Net-(J2-Pad3)*%
X117000000Y-121174000D03*
%TD*%
D10*
%TO.P,RV3,*%
%TO.N,*%
X134300000Y-65674000D03*
X124700000Y-65674000D03*
D11*
%TO.P,RV3,1,1*%
%TO.N,Net-(J2-Pad1)*%
X127000000Y-73174000D03*
%TO.P,RV3,2,2*%
%TO.N,Net-(J2-Pad2)*%
X129500000Y-73174000D03*
%TO.P,RV3,3,3*%
%TO.N,Net-(J2-Pad3)*%
X132000000Y-73174000D03*
%TD*%
D10*
%TO.P,RV15,*%
%TO.N,*%
X134300000Y-113674000D03*
X124700000Y-113674000D03*
D11*
%TO.P,RV15,1,1*%
%TO.N,Net-(J2-Pad1)*%
X127000000Y-121174000D03*
%TO.P,RV15,2,2*%
%TO.N,Net-(J2-Pad2)*%
X129500000Y-121174000D03*
%TO.P,RV15,3,3*%
%TO.N,Net-(J2-Pad3)*%
X132000000Y-121174000D03*
%TD*%
D10*
%TO.P,RV1,*%
%TO.N,*%
X94700000Y-65674000D03*
X104300000Y-65674000D03*
D11*
%TO.P,RV1,1,1*%
%TO.N,Net-(J2-Pad1)*%
X97000000Y-73174000D03*
%TO.P,RV1,2,2*%
%TO.N,Net-(J2-Pad2)*%
X99500000Y-73174000D03*
%TO.P,RV1,3,3*%
%TO.N,Net-(J2-Pad3)*%
X102000000Y-73174000D03*
%TD*%
D10*
%TO.P,RV11,*%
%TO.N,*%
X154700000Y-89674000D03*
X164300000Y-89674000D03*
D11*
%TO.P,RV11,1,1*%
%TO.N,Net-(J2-Pad1)*%
X157000000Y-97174000D03*
%TO.P,RV11,2,2*%
%TO.N,Net-(J2-Pad2)*%
X159500000Y-97174000D03*
%TO.P,RV11,3,3*%
%TO.N,Net-(J2-Pad3)*%
X162000000Y-97174000D03*
%TD*%
D10*
%TO.P,RV17,*%
%TO.N,*%
X154700000Y-113674000D03*
X164300000Y-113674000D03*
D11*
%TO.P,RV17,1,1*%
%TO.N,Net-(J2-Pad1)*%
X157000000Y-121174000D03*
%TO.P,RV17,2,2*%
%TO.N,Net-(J2-Pad2)*%
X159500000Y-121174000D03*
%TO.P,RV17,3,3*%
%TO.N,Net-(J2-Pad3)*%
X162000000Y-121174000D03*
%TD*%
D10*
%TO.P,RV7,*%
%TO.N,*%
X94700000Y-89674000D03*
X104300000Y-89674000D03*
D11*
%TO.P,RV7,1,1*%
%TO.N,Net-(J2-Pad1)*%
X97000000Y-97174000D03*
%TO.P,RV7,2,2*%
%TO.N,Net-(J2-Pad2)*%
X99500000Y-97174000D03*
%TO.P,RV7,3,3*%
%TO.N,Net-(J2-Pad3)*%
X102000000Y-97174000D03*
%TD*%
D10*
%TO.P,RV12,*%
%TO.N,*%
X169700000Y-89674000D03*
X179300000Y-89674000D03*
D11*
%TO.P,RV12,1,1*%
%TO.N,Net-(J2-Pad1)*%
X172000000Y-97174000D03*
%TO.P,RV12,2,2*%
%TO.N,Net-(J2-Pad2)*%
X174500000Y-97174000D03*
%TO.P,RV12,3,3*%
%TO.N,Net-(J2-Pad3)*%
X177000000Y-97174000D03*
%TD*%
D10*
%TO.P,RV6,*%
%TO.N,*%
X169700000Y-65674000D03*
X179300000Y-65674000D03*
D11*
%TO.P,RV6,1,1*%
%TO.N,Net-(J2-Pad1)*%
X172000000Y-73174000D03*
%TO.P,RV6,2,2*%
%TO.N,Net-(J2-Pad2)*%
X174500000Y-73174000D03*
%TO.P,RV6,3,3*%
%TO.N,Net-(J2-Pad3)*%
X177000000Y-73174000D03*
%TD*%
D10*
%TO.P,RV9,*%
%TO.N,*%
X134300000Y-89674000D03*
X124700000Y-89674000D03*
D11*
%TO.P,RV9,1,1*%
%TO.N,Net-(J2-Pad1)*%
X127000000Y-97174000D03*
%TO.P,RV9,2,2*%
%TO.N,Net-(J2-Pad2)*%
X129500000Y-97174000D03*
%TO.P,RV9,3,3*%
%TO.N,Net-(J2-Pad3)*%
X132000000Y-97174000D03*
%TD*%
D10*
%TO.P,RV18,*%
%TO.N,*%
X179300000Y-113674000D03*
X169700000Y-113674000D03*
D11*
%TO.P,RV18,1,1*%
%TO.N,Net-(J2-Pad1)*%
X172000000Y-121174000D03*
%TO.P,RV18,2,2*%
%TO.N,Net-(J2-Pad2)*%
X174500000Y-121174000D03*
%TO.P,RV18,3,3*%
%TO.N,Net-(J2-Pad3)*%
X177000000Y-121174000D03*
%TD*%
D10*
%TO.P,RV2,*%
%TO.N,*%
X109700000Y-65674000D03*
X119300000Y-65674000D03*
D11*
%TO.P,RV2,1,1*%
%TO.N,Net-(J2-Pad1)*%
X112000000Y-73174000D03*
%TO.P,RV2,2,2*%
%TO.N,Net-(J2-Pad2)*%
X114500000Y-73174000D03*
%TO.P,RV2,3,3*%
%TO.N,Net-(J2-Pad3)*%
X117000000Y-73174000D03*
%TD*%
D10*
%TO.P,RV5,*%
%TO.N,*%
X164300000Y-65674000D03*
X154700000Y-65674000D03*
D11*
%TO.P,RV5,1,1*%
%TO.N,Net-(J2-Pad1)*%
X157000000Y-73174000D03*
%TO.P,RV5,2,2*%
%TO.N,Net-(J2-Pad2)*%
X159500000Y-73174000D03*
%TO.P,RV5,3,3*%
%TO.N,Net-(J2-Pad3)*%
X162000000Y-73174000D03*
%TD*%
D10*
%TO.P,RV10,*%
%TO.N,*%
X149300000Y-89674000D03*
X139700000Y-89674000D03*
D11*
%TO.P,RV10,1,1*%
%TO.N,Net-(J2-Pad1)*%
X142000000Y-97174000D03*
%TO.P,RV10,2,2*%
%TO.N,Net-(J2-Pad2)*%
X144500000Y-97174000D03*
%TO.P,RV10,3,3*%
%TO.N,Net-(J2-Pad3)*%
X147000000Y-97174000D03*
%TD*%
D10*
%TO.P,RV4,*%
%TO.N,*%
X139700000Y-65674000D03*
X149300000Y-65674000D03*
D11*
%TO.P,RV4,1,1*%
%TO.N,Net-(J2-Pad1)*%
X142000000Y-73174000D03*
%TO.P,RV4,2,2*%
%TO.N,Net-(J2-Pad2)*%
X144500000Y-73174000D03*
%TO.P,RV4,3,3*%
%TO.N,Net-(J2-Pad3)*%
X147000000Y-73174000D03*
%TD*%
D10*
%TO.P,RV13,*%
%TO.N,*%
X94700000Y-113674000D03*
X104300000Y-113674000D03*
D11*
%TO.P,RV13,1,1*%
%TO.N,Net-(J2-Pad1)*%
X97000000Y-121174000D03*
%TO.P,RV13,2,2*%
%TO.N,Net-(J2-Pad2)*%
X99500000Y-121174000D03*
%TO.P,RV13,3,3*%
%TO.N,Net-(J2-Pad3)*%
X102000000Y-121174000D03*
%TD*%
D10*
%TO.P,RV16,*%
%TO.N,*%
X139700000Y-113674000D03*
X149300000Y-113674000D03*
D11*
%TO.P,RV16,1,1*%
%TO.N,Net-(J2-Pad1)*%
X142000000Y-121174000D03*
%TO.P,RV16,2,2*%
%TO.N,Net-(J2-Pad2)*%
X144500000Y-121174000D03*
%TO.P,RV16,3,3*%
%TO.N,Net-(J2-Pad3)*%
X147000000Y-121174000D03*
%TD*%
D10*
%TO.P,RV8,*%
%TO.N,*%
X109700000Y-89674000D03*
X119300000Y-89674000D03*
D11*
%TO.P,RV8,1,1*%
%TO.N,Net-(J2-Pad1)*%
X112000000Y-97174000D03*
%TO.P,RV8,2,2*%
%TO.N,Net-(J2-Pad2)*%
X114500000Y-97174000D03*
%TO.P,RV8,3,3*%
%TO.N,Net-(J2-Pad3)*%
X117000000Y-97174000D03*
%TD*%
D12*
%TO.P,J7,*%
%TO.N,*%
X147055000Y-57934000D03*
X144515000Y-57934000D03*
D13*
X141975000Y-57934000D03*
%TD*%
%TO.P,J16,1,Pin_1*%
%TO.N,Net-(J2-Pad1)*%
X111975000Y-99714000D03*
D12*
%TO.P,J16,2,Pin_2*%
%TO.N,Net-(J2-Pad2)*%
X114515000Y-99714000D03*
%TO.P,J16,3,Pin_3*%
%TO.N,Net-(J2-Pad3)*%
X117055000Y-99714000D03*
%TD*%
%TO.P,J25,*%
%TO.N,*%
X102055000Y-105934000D03*
D13*
X96975000Y-105934000D03*
D12*
X99515000Y-105934000D03*
%TD*%
D13*
%TO.P,J8,1,Pin_1*%
%TO.N,Net-(J2-Pad1)*%
X141975000Y-75714000D03*
D12*
%TO.P,J8,2,Pin_2*%
%TO.N,Net-(J2-Pad2)*%
X144515000Y-75714000D03*
%TO.P,J8,3,Pin_3*%
%TO.N,Net-(J2-Pad3)*%
X147055000Y-75714000D03*
%TD*%
D13*
%TO.P,J35,*%
%TO.N,*%
X171975000Y-105934000D03*
D12*
X177055000Y-105934000D03*
X174515000Y-105934000D03*
%TD*%
D13*
%TO.P,J30,1,Pin_1*%
%TO.N,Net-(J2-Pad1)*%
X126975000Y-123714000D03*
D12*
%TO.P,J30,2,Pin_2*%
%TO.N,Net-(J2-Pad2)*%
X129515000Y-123714000D03*
%TO.P,J30,3,Pin_3*%
%TO.N,Net-(J2-Pad3)*%
X132055000Y-123714000D03*
%TD*%
D13*
%TO.P,J32,1,Pin_1*%
%TO.N,Net-(J2-Pad1)*%
X141975000Y-123714000D03*
D12*
%TO.P,J32,2,Pin_2*%
%TO.N,Net-(J2-Pad2)*%
X144515000Y-123714000D03*
%TO.P,J32,3,Pin_3*%
%TO.N,Net-(J2-Pad3)*%
X147055000Y-123714000D03*
%TD*%
D13*
%TO.P,J6,1,Pin_1*%
%TO.N,Net-(J2-Pad1)*%
X126975000Y-75714000D03*
D12*
%TO.P,J6,2,Pin_2*%
%TO.N,Net-(J2-Pad2)*%
X129515000Y-75714000D03*
%TO.P,J6,3,Pin_3*%
%TO.N,Net-(J2-Pad3)*%
X132055000Y-75714000D03*
%TD*%
D13*
%TO.P,J12,1,Pin_1*%
%TO.N,Net-(J2-Pad1)*%
X171975000Y-75714000D03*
D12*
%TO.P,J12,2,Pin_2*%
%TO.N,Net-(J2-Pad2)*%
X174515000Y-75714000D03*
%TO.P,J12,3,Pin_3*%
%TO.N,Net-(J2-Pad3)*%
X177055000Y-75714000D03*
%TD*%
D13*
%TO.P,J4,1,Pin_1*%
%TO.N,Net-(J2-Pad1)*%
X111975000Y-75714000D03*
D12*
%TO.P,J4,2,Pin_2*%
%TO.N,Net-(J2-Pad2)*%
X114515000Y-75714000D03*
%TO.P,J4,3,Pin_3*%
%TO.N,Net-(J2-Pad3)*%
X117055000Y-75714000D03*
%TD*%
%TO.P,J3,*%
%TO.N,*%
X117055000Y-57934000D03*
X114515000Y-57934000D03*
D13*
X111975000Y-57934000D03*
%TD*%
%TO.P,J28,1,Pin_1*%
%TO.N,Net-(J2-Pad1)*%
X111975000Y-123714000D03*
D12*
%TO.P,J28,2,Pin_2*%
%TO.N,Net-(J2-Pad2)*%
X114515000Y-123714000D03*
%TO.P,J28,3,Pin_3*%
%TO.N,Net-(J2-Pad3)*%
X117055000Y-123714000D03*
%TD*%
%TO.P,J11,*%
%TO.N,*%
X174515000Y-57934000D03*
D13*
X171975000Y-57934000D03*
D12*
X177055000Y-57934000D03*
%TD*%
D13*
%TO.P,J14,1,Pin_1*%
%TO.N,Net-(J2-Pad1)*%
X96975000Y-99714000D03*
D12*
%TO.P,J14,2,Pin_2*%
%TO.N,Net-(J2-Pad2)*%
X99515000Y-99714000D03*
%TO.P,J14,3,Pin_3*%
%TO.N,Net-(J2-Pad3)*%
X102055000Y-99714000D03*
%TD*%
D13*
%TO.P,J18,1,Pin_1*%
%TO.N,Net-(J2-Pad1)*%
X126975000Y-99714000D03*
D12*
%TO.P,J18,2,Pin_2*%
%TO.N,Net-(J2-Pad2)*%
X129515000Y-99714000D03*
%TO.P,J18,3,Pin_3*%
%TO.N,Net-(J2-Pad3)*%
X132055000Y-99714000D03*
%TD*%
D13*
%TO.P,J17,*%
%TO.N,*%
X126975000Y-81934000D03*
D12*
X132055000Y-81934000D03*
X129515000Y-81934000D03*
%TD*%
D13*
%TO.P,J22,1,Pin_1*%
%TO.N,Net-(J2-Pad1)*%
X156975000Y-99714000D03*
D12*
%TO.P,J22,2,Pin_2*%
%TO.N,Net-(J2-Pad2)*%
X159515000Y-99714000D03*
%TO.P,J22,3,Pin_3*%
%TO.N,Net-(J2-Pad3)*%
X162055000Y-99714000D03*
%TD*%
%TO.P,J23,*%
%TO.N,*%
X174515000Y-81934000D03*
D13*
X171975000Y-81934000D03*
D12*
X177055000Y-81934000D03*
%TD*%
D13*
%TO.P,J34,1,Pin_1*%
%TO.N,Net-(J2-Pad1)*%
X156975000Y-123714000D03*
D12*
%TO.P,J34,2,Pin_2*%
%TO.N,Net-(J2-Pad2)*%
X159515000Y-123714000D03*
%TO.P,J34,3,Pin_3*%
%TO.N,Net-(J2-Pad3)*%
X162055000Y-123714000D03*
%TD*%
D13*
%TO.P,J1,*%
%TO.N,*%
X96975000Y-57934000D03*
D12*
X102055000Y-57934000D03*
X99515000Y-57934000D03*
%TD*%
D13*
%TO.P,J36,1,Pin_1*%
%TO.N,Net-(J2-Pad1)*%
X171975000Y-123714000D03*
D12*
%TO.P,J36,2,Pin_2*%
%TO.N,Net-(J2-Pad2)*%
X174515000Y-123714000D03*
%TO.P,J36,3,Pin_3*%
%TO.N,Net-(J2-Pad3)*%
X177055000Y-123714000D03*
%TD*%
%TO.P,J15,*%
%TO.N,*%
X114515000Y-81934000D03*
D13*
X111975000Y-81934000D03*
D12*
X117055000Y-81934000D03*
%TD*%
D13*
%TO.P,J2,1,Pin_1*%
%TO.N,Net-(J2-Pad1)*%
X96975000Y-75714000D03*
D12*
%TO.P,J2,2,Pin_2*%
%TO.N,Net-(J2-Pad2)*%
X99515000Y-75714000D03*
%TO.P,J2,3,Pin_3*%
%TO.N,Net-(J2-Pad3)*%
X102055000Y-75714000D03*
%TD*%
%TO.P,J13,*%
%TO.N,*%
X102055000Y-81934000D03*
X99515000Y-81934000D03*
D13*
X96975000Y-81934000D03*
%TD*%
%TO.P,J24,1,Pin_1*%
%TO.N,Net-(J2-Pad1)*%
X171975000Y-99714000D03*
D12*
%TO.P,J24,2,Pin_2*%
%TO.N,Net-(J2-Pad2)*%
X174515000Y-99714000D03*
%TO.P,J24,3,Pin_3*%
%TO.N,Net-(J2-Pad3)*%
X177055000Y-99714000D03*
%TD*%
%TO.P,J29,*%
%TO.N,*%
X129515000Y-105934000D03*
D13*
X126975000Y-105934000D03*
D12*
X132055000Y-105934000D03*
%TD*%
%TO.P,J19,*%
%TO.N,*%
X147055000Y-81934000D03*
X144515000Y-81934000D03*
D13*
X141975000Y-81934000D03*
%TD*%
%TO.P,J20,1,Pin_1*%
%TO.N,Net-(J2-Pad1)*%
X141975000Y-99714000D03*
D12*
%TO.P,J20,2,Pin_2*%
%TO.N,Net-(J2-Pad2)*%
X144515000Y-99714000D03*
%TO.P,J20,3,Pin_3*%
%TO.N,Net-(J2-Pad3)*%
X147055000Y-99714000D03*
%TD*%
%TO.P,J27,*%
%TO.N,*%
X114515000Y-105934000D03*
D13*
X111975000Y-105934000D03*
D12*
X117055000Y-105934000D03*
%TD*%
D13*
%TO.P,J5,*%
%TO.N,*%
X126975000Y-57934000D03*
D12*
X129515000Y-57934000D03*
X132055000Y-57934000D03*
%TD*%
D13*
%TO.P,J10,1,Pin_1*%
%TO.N,Net-(J2-Pad1)*%
X156975000Y-75714000D03*
D12*
%TO.P,J10,2,Pin_2*%
%TO.N,Net-(J2-Pad2)*%
X159515000Y-75714000D03*
%TO.P,J10,3,Pin_3*%
%TO.N,Net-(J2-Pad3)*%
X162055000Y-75714000D03*
%TD*%
D13*
%TO.P,J33,*%
%TO.N,*%
X156975000Y-105934000D03*
D12*
X162055000Y-105934000D03*
X159515000Y-105934000D03*
%TD*%
%TO.P,J9,*%
%TO.N,*%
X159515000Y-57934000D03*
D13*
X156975000Y-57934000D03*
D12*
X162055000Y-57934000D03*
%TD*%
D13*
%TO.P,J26,1,Pin_1*%
%TO.N,Net-(J2-Pad1)*%
X96975000Y-123714000D03*
D12*
%TO.P,J26,2,Pin_2*%
%TO.N,Net-(J2-Pad2)*%
X99515000Y-123714000D03*
%TO.P,J26,3,Pin_3*%
%TO.N,Net-(J2-Pad3)*%
X102055000Y-123714000D03*
%TD*%
%TO.P,J31,*%
%TO.N,*%
X147055000Y-105934000D03*
D13*
X141975000Y-105934000D03*
D12*
X144515000Y-105934000D03*
%TD*%
%TO.P,J21,*%
%TO.N,*%
X159515000Y-81934000D03*
D13*
X156975000Y-81934000D03*
D12*
X162055000Y-81934000D03*
%TD*%
M02*
