M48
; DRILL file {KiCad (6.0.0-0)} date Wednesday, December 14, 2022 at 12:02:18 AM
; FORMAT={-:-/ absolute / inch / decimal}
; #@! TF.CreationDate,2022-12-14T00:02:18-05:00
; #@! TF.GenerationSoftware,Kicad,Pcbnew,(6.0.0-0)
; #@! TF.FileFunction,Plated,1,2,PTH
FMAT,2
INCH
; #@! TA.AperFunction,Plated,PTH,ViaDrill
T1C0.0157
; #@! TA.AperFunction,Plated,PTH,ComponentDrill
T2C0.0394
; #@! TA.AperFunction,Plated,PTH,ComponentDrill
T3C0.0433
; #@! TA.AperFunction,Plated,PTH,ComponentDrill
T4C0.0472
; #@! TA.AperFunction,Plated,PTH,ComponentDrill
T5C0.0480
; #@! TA.AperFunction,Plated,PTH,ComponentDrill
T6C0.0559
; #@! TA.AperFunction,Plated,PTH,ComponentDrill
T7C0.0563
%
G90
G05
T1
X2.38Y-3.87
X2.43Y-3.36
X2.43Y-4.5
X2.4385Y-2.41
X2.44Y-5.06
X2.64Y-2.34
X2.64Y-2.5
X2.72Y-3.28
X2.72Y-3.73
X2.77Y-4.52
X2.78Y-3.0
X2.78Y-3.46
X2.83Y-3.46
X2.88Y-3.65
X2.93Y-3.0
X2.93Y-3.46
X2.98Y-3.46
X2.99Y-2.02
X3.03Y-3.0
X3.03Y-3.19
X3.03Y-3.45
T2
X2.2861Y-1.71
X2.2866Y-1.61
X2.3861Y-1.71
X2.3866Y-1.61
X2.4861Y-1.71
X2.4866Y-1.61
X2.5861Y-1.71
X2.5866Y-1.61
X2.6861Y-1.71
X2.6866Y-1.61
X2.7861Y-1.71
X2.7866Y-1.61
X2.8861Y-1.71
X2.8866Y-1.61
X2.9861Y-1.61
X2.9861Y-1.71
T3
X2.782Y-4.8014
X2.782Y-4.9786
X3.038Y-4.8014
X3.038Y-4.9786
T4
X2.2412Y-2.9147
X2.2412Y-3.4681
X2.2416Y-4.0354
X2.2416Y-4.6054
X2.2439Y-5.1747
X2.3396Y-2.9147
X2.3396Y-3.4681
X2.34Y-4.0354
X2.34Y-4.6054
X2.3424Y-5.1747
X2.438Y-2.9147
X2.438Y-3.4681
X2.4384Y-4.0354
X2.4384Y-4.6054
X2.4408Y-5.1747
X2.8317Y-2.9147
X2.9302Y-2.9147
X3.0286Y-2.9147
T5
X2.3372Y-2.3488
X2.9278Y-2.3488
T6
X2.3372Y-2.2268
X2.9278Y-2.2268
T7
X2.3372Y-1.9
X2.9278Y-1.9
T3
G00X2.1506Y-2.6411
M15
G01X2.1506Y-2.5978
M16
G05
G00X2.1506Y-3.1945
M15
G01X2.1506Y-3.1512
M16
G05
G00X2.151Y-3.7618
M15
G01X2.151Y-3.7185
M16
G05
G00X2.151Y-4.3318
M15
G01X2.151Y-4.2885
M16
G05
G00X2.1534Y-4.9011
M15
G01X2.1534Y-4.8578
M16
G05
G00X2.5286Y-2.5978
M15
G01X2.5286Y-2.6411
M16
G05
G00X2.5286Y-3.1512
M15
G01X2.5286Y-3.1945
M16
G05
G00X2.529Y-3.7185
M15
G01X2.529Y-3.7618
M16
G05
G00X2.529Y-4.2885
M15
G01X2.529Y-4.3318
M16
G05
G00X2.5313Y-4.8578
M15
G01X2.5313Y-4.9011
M16
G05
G00X2.7412Y-2.6411
M15
G01X2.7412Y-2.5978
M16
G05
G00X3.1191Y-2.5978
M15
G01X3.1191Y-2.6411
M16
G05
T0
M30
