%TF.GenerationSoftware,KiCad,Pcbnew,(6.0.0-0)*%
%TF.CreationDate,2022-12-14T00:02:15-05:00*%
%TF.ProjectId,ht-hat-cymbal-cowbell,68742d68-6174-42d6-9379-6d62616c2d63,rev?*%
%TF.SameCoordinates,Original*%
%TF.FileFunction,Soldermask,Bot*%
%TF.FilePolarity,Negative*%
%FSLAX46Y46*%
G04 Gerber Fmt 4.6, Leading zero omitted, Abs format (unit mm)*
G04 Created by KiCad (PCBNEW (6.0.0-0)) date 2022-12-14 00:02:15*
%MOMM*%
%LPD*%
G01*
G04 APERTURE LIST*
G04 Aperture macros list*
%AMRoundRect*
0 Rectangle with rounded corners*
0 $1 Rounding radius*
0 $2 $3 $4 $5 $6 $7 $8 $9 X,Y pos of 4 corners*
0 Add a 4 corners polygon primitive as box body*
4,1,4,$2,$3,$4,$5,$6,$7,$8,$9,$2,$3,0*
0 Add four circle primitives for the rounded corners*
1,1,$1+$1,$2,$3*
1,1,$1+$1,$4,$5*
1,1,$1+$1,$6,$7*
1,1,$1+$1,$8,$9*
0 Add four rect primitives between the rounded corners*
20,1,$1+$1,$2,$3,$4,$5,0*
20,1,$1+$1,$4,$5,$6,$7,0*
20,1,$1+$1,$6,$7,$8,$9,0*
20,1,$1+$1,$8,$9,$2,$3,0*%
G04 Aperture macros list end*
%ADD10RoundRect,0.250000X-0.262500X-0.450000X0.262500X-0.450000X0.262500X0.450000X-0.262500X0.450000X0*%
%ADD11RoundRect,0.250000X-0.450000X0.262500X-0.450000X-0.262500X0.450000X-0.262500X0.450000X0.262500X0*%
%ADD12O,2.720000X3.240000*%
%ADD13C,2.000000*%
%ADD14RoundRect,0.250000X0.262500X0.450000X-0.262500X0.450000X-0.262500X-0.450000X0.262500X-0.450000X0*%
%ADD15R,0.900000X1.200000*%
%ADD16R,1.930000X1.830000*%
%ADD17C,2.130000*%
%ADD18RoundRect,0.250000X-0.250000X-0.475000X0.250000X-0.475000X0.250000X0.475000X-0.250000X0.475000X0*%
%ADD19RoundRect,0.250000X0.250000X0.475000X-0.250000X0.475000X-0.250000X-0.475000X0.250000X-0.475000X0*%
%ADD20RoundRect,0.150000X-0.150000X0.587500X-0.150000X-0.587500X0.150000X-0.587500X0.150000X0.587500X0*%
%ADD21RoundRect,0.250000X0.475000X-0.250000X0.475000X0.250000X-0.475000X0.250000X-0.475000X-0.250000X0*%
%ADD22RoundRect,0.150000X-0.150000X0.825000X-0.150000X-0.825000X0.150000X-0.825000X0.150000X0.825000X0*%
%ADD23RoundRect,0.250000X0.600000X-0.600000X0.600000X0.600000X-0.600000X0.600000X-0.600000X-0.600000X0*%
%ADD24C,1.700000*%
G04 APERTURE END LIST*
D10*
%TO.C,R8*%
X63246000Y-61468000D03*
X65071000Y-61468000D03*
%TD*%
D11*
%TO.C,R9*%
X73660000Y-112879500D03*
X73660000Y-114704500D03*
%TD*%
D12*
%TO.C,RV3*%
X64226000Y-80589250D03*
X54626000Y-80589250D03*
D13*
X56926000Y-88089250D03*
X59426000Y-88089250D03*
X61926000Y-88089250D03*
%TD*%
%TO.C,RV6*%
X61996000Y-131438000D03*
X59496000Y-131438000D03*
X56996000Y-131438000D03*
D12*
X64296000Y-123938000D03*
X54696000Y-123938000D03*
%TD*%
D14*
%TO.C,R7*%
X65071000Y-59436000D03*
X63246000Y-59436000D03*
%TD*%
D15*
%TO.C,D1*%
X78358000Y-107950000D03*
X75058000Y-107950000D03*
%TD*%
D12*
%TO.C,RV1*%
X79226000Y-66534000D03*
X69626000Y-66534000D03*
D13*
X71926000Y-74034000D03*
X74426000Y-74034000D03*
X76926000Y-74034000D03*
%TD*%
D16*
%TO.C,J1*%
X59366000Y-59660000D03*
D17*
X59366000Y-56560000D03*
X59366000Y-48260000D03*
%TD*%
D12*
%TO.C,RV2*%
X64226000Y-66534000D03*
X54626000Y-66534000D03*
D13*
X56926000Y-74034000D03*
X59426000Y-74034000D03*
X61926000Y-74034000D03*
%TD*%
D14*
%TO.C,R2*%
X69746500Y-54102000D03*
X67921500Y-54102000D03*
%TD*%
D18*
%TO.C,C7*%
X77658000Y-110490000D03*
X75758000Y-110490000D03*
%TD*%
D10*
%TO.C,R4*%
X63246000Y-57404000D03*
X65071000Y-57404000D03*
%TD*%
D14*
%TO.C,R5*%
X73302500Y-105410000D03*
X71477500Y-105410000D03*
%TD*%
D13*
%TO.C,SW1*%
X77164000Y-121956000D03*
X70664000Y-121956000D03*
X70664000Y-126456000D03*
X77164000Y-126456000D03*
%TD*%
D15*
%TO.C,D3*%
X74040000Y-100076000D03*
X70740000Y-100076000D03*
%TD*%
D11*
%TO.C,R6*%
X78994000Y-100687500D03*
X78994000Y-102512500D03*
%TD*%
D19*
%TO.C,C5*%
X60386000Y-128524000D03*
X58486000Y-128524000D03*
%TD*%
%TO.C,C1*%
X60386000Y-70612000D03*
X58486000Y-70612000D03*
%TD*%
%TO.C,C2*%
X60386000Y-85344000D03*
X58486000Y-85344000D03*
%TD*%
D12*
%TO.C,RV4*%
X64236000Y-94999000D03*
X54636000Y-94999000D03*
D13*
X56936000Y-102499000D03*
X59436000Y-102499000D03*
X61936000Y-102499000D03*
%TD*%
D19*
%TO.C,C3*%
X60386000Y-99822000D03*
X58486000Y-99822000D03*
%TD*%
D12*
%TO.C,RV5*%
X54636000Y-109477000D03*
X64236000Y-109477000D03*
D13*
X56936000Y-116977000D03*
X59436000Y-116977000D03*
X61936000Y-116977000D03*
%TD*%
D16*
%TO.C,J2*%
X74366000Y-59660000D03*
D17*
X74366000Y-56560000D03*
X74366000Y-48260000D03*
%TD*%
D15*
%TO.C,D2*%
X75058000Y-105410000D03*
X78358000Y-105410000D03*
%TD*%
D19*
%TO.C,C4*%
X60386000Y-114300000D03*
X58486000Y-114300000D03*
%TD*%
D15*
%TO.C,D4*%
X74040000Y-102870000D03*
X70740000Y-102870000D03*
%TD*%
D20*
%TO.C,Q1*%
X75758000Y-112854500D03*
X77658000Y-112854500D03*
X76708000Y-114729500D03*
%TD*%
D14*
%TO.C,R3*%
X69746500Y-52070000D03*
X67921500Y-52070000D03*
%TD*%
D21*
%TO.C,C8*%
X76708000Y-102550000D03*
X76708000Y-100650000D03*
%TD*%
D22*
%TO.C,U2*%
X66905500Y-61592000D03*
X68175500Y-61592000D03*
X69445500Y-61592000D03*
X70715500Y-61592000D03*
X70715500Y-56642000D03*
X69445500Y-56642000D03*
X68175500Y-56642000D03*
X66905500Y-56642000D03*
%TD*%
%TO.C,U5*%
X70612000Y-89727000D03*
X71882000Y-89727000D03*
X73152000Y-89727000D03*
X74422000Y-89727000D03*
X75692000Y-89727000D03*
X76962000Y-89727000D03*
X78232000Y-89727000D03*
X78232000Y-94677000D03*
X76962000Y-94677000D03*
X75692000Y-94677000D03*
X74422000Y-94677000D03*
X73152000Y-94677000D03*
X71882000Y-94677000D03*
X70612000Y-94677000D03*
%TD*%
D23*
%TO.C,U1*%
X75848000Y-43434000D03*
D24*
X75848000Y-40894000D03*
X73320000Y-40894000D03*
X73308000Y-43434000D03*
X70780000Y-40894000D03*
X70768000Y-43434000D03*
X68240000Y-40894000D03*
X68228000Y-43434000D03*
X65700000Y-40894000D03*
X65688000Y-43434000D03*
X63148000Y-43434000D03*
X63160000Y-40894000D03*
X60620000Y-40894000D03*
X60608000Y-43434000D03*
X58080000Y-40894000D03*
X58068000Y-43434000D03*
%TD*%
D22*
%TO.C,U4*%
X70612000Y-78043000D03*
X71882000Y-78043000D03*
X73152000Y-78043000D03*
X74422000Y-78043000D03*
X75692000Y-78043000D03*
X76962000Y-78043000D03*
X78232000Y-78043000D03*
X78232000Y-82993000D03*
X76962000Y-82993000D03*
X75692000Y-82993000D03*
X74422000Y-82993000D03*
X73152000Y-82993000D03*
X71882000Y-82993000D03*
X70612000Y-82993000D03*
%TD*%
D14*
%TO.C,R1*%
X74826500Y-129286000D03*
X73001500Y-129286000D03*
%TD*%
M02*
