%TF.GenerationSoftware,KiCad,Pcbnew,(6.0.0-0)*%
%TF.CreationDate,2022-12-14T00:02:15-05:00*%
%TF.ProjectId,ht-hat-cymbal-cowbell,68742d68-6174-42d6-9379-6d62616c2d63,rev?*%
%TF.SameCoordinates,Original*%
%TF.FileFunction,Legend,Top*%
%TF.FilePolarity,Positive*%
%FSLAX46Y46*%
G04 Gerber Fmt 4.6, Leading zero omitted, Abs format (unit mm)*
G04 Created by KiCad (PCBNEW (6.0.0-0)) date 2022-12-14 00:02:15*
%MOMM*%
%LPD*%
G01*
G04 APERTURE LIST*
%ADD10C,0.150000*%
%ADD11C,0.120000*%
G04 APERTURE END LIST*
D10*
X53567142Y-135208095D02*
X53567142Y-133908095D01*
X53567142Y-134527142D02*
X54310000Y-134527142D01*
X54310000Y-135208095D02*
X54310000Y-133908095D01*
X54929047Y-135208095D02*
X54929047Y-134341428D01*
X54929047Y-133908095D02*
X54867142Y-133970000D01*
X54929047Y-134031904D01*
X54990952Y-133970000D01*
X54929047Y-133908095D01*
X54929047Y-134031904D01*
X55548095Y-134712857D02*
X56538571Y-134712857D01*
X57157619Y-135208095D02*
X57157619Y-133908095D01*
X57157619Y-134527142D02*
X57900476Y-134527142D01*
X57900476Y-135208095D02*
X57900476Y-133908095D01*
X59076666Y-135208095D02*
X59076666Y-134527142D01*
X59014761Y-134403333D01*
X58890952Y-134341428D01*
X58643333Y-134341428D01*
X58519523Y-134403333D01*
X59076666Y-135146190D02*
X58952857Y-135208095D01*
X58643333Y-135208095D01*
X58519523Y-135146190D01*
X58457619Y-135022380D01*
X58457619Y-134898571D01*
X58519523Y-134774761D01*
X58643333Y-134712857D01*
X58952857Y-134712857D01*
X59076666Y-134650952D01*
X59510000Y-134341428D02*
X60005238Y-134341428D01*
X59695714Y-133908095D02*
X59695714Y-135022380D01*
X59757619Y-135146190D01*
X59881428Y-135208095D01*
X60005238Y-135208095D01*
X62357619Y-133846190D02*
X61243333Y-135517619D01*
X64524285Y-135084285D02*
X64462380Y-135146190D01*
X64276666Y-135208095D01*
X64152857Y-135208095D01*
X63967142Y-135146190D01*
X63843333Y-135022380D01*
X63781428Y-134898571D01*
X63719523Y-134650952D01*
X63719523Y-134465238D01*
X63781428Y-134217619D01*
X63843333Y-134093809D01*
X63967142Y-133970000D01*
X64152857Y-133908095D01*
X64276666Y-133908095D01*
X64462380Y-133970000D01*
X64524285Y-134031904D01*
X64957619Y-134341428D02*
X65267142Y-135208095D01*
X65576666Y-134341428D02*
X65267142Y-135208095D01*
X65143333Y-135517619D01*
X65081428Y-135579523D01*
X64957619Y-135641428D01*
X66071904Y-135208095D02*
X66071904Y-134341428D01*
X66071904Y-134465238D02*
X66133809Y-134403333D01*
X66257619Y-134341428D01*
X66443333Y-134341428D01*
X66567142Y-134403333D01*
X66629047Y-134527142D01*
X66629047Y-135208095D01*
X66629047Y-134527142D02*
X66690952Y-134403333D01*
X66814761Y-134341428D01*
X67000476Y-134341428D01*
X67124285Y-134403333D01*
X67186190Y-134527142D01*
X67186190Y-135208095D01*
X67805238Y-135208095D02*
X67805238Y-133908095D01*
X67805238Y-134403333D02*
X67929047Y-134341428D01*
X68176666Y-134341428D01*
X68300476Y-134403333D01*
X68362380Y-134465238D01*
X68424285Y-134589047D01*
X68424285Y-134960476D01*
X68362380Y-135084285D01*
X68300476Y-135146190D01*
X68176666Y-135208095D01*
X67929047Y-135208095D01*
X67805238Y-135146190D01*
X69538571Y-135208095D02*
X69538571Y-134527142D01*
X69476666Y-134403333D01*
X69352857Y-134341428D01*
X69105238Y-134341428D01*
X68981428Y-134403333D01*
X69538571Y-135146190D02*
X69414761Y-135208095D01*
X69105238Y-135208095D01*
X68981428Y-135146190D01*
X68919523Y-135022380D01*
X68919523Y-134898571D01*
X68981428Y-134774761D01*
X69105238Y-134712857D01*
X69414761Y-134712857D01*
X69538571Y-134650952D01*
X70343333Y-135208095D02*
X70219523Y-135146190D01*
X70157619Y-135022380D01*
X70157619Y-133908095D01*
X72757619Y-133846190D02*
X71643333Y-135517619D01*
X74924285Y-135084285D02*
X74862380Y-135146190D01*
X74676666Y-135208095D01*
X74552857Y-135208095D01*
X74367142Y-135146190D01*
X74243333Y-135022380D01*
X74181428Y-134898571D01*
X74119523Y-134650952D01*
X74119523Y-134465238D01*
X74181428Y-134217619D01*
X74243333Y-134093809D01*
X74367142Y-133970000D01*
X74552857Y-133908095D01*
X74676666Y-133908095D01*
X74862380Y-133970000D01*
X74924285Y-134031904D01*
X75667142Y-135208095D02*
X75543333Y-135146190D01*
X75481428Y-135084285D01*
X75419523Y-134960476D01*
X75419523Y-134589047D01*
X75481428Y-134465238D01*
X75543333Y-134403333D01*
X75667142Y-134341428D01*
X75852857Y-134341428D01*
X75976666Y-134403333D01*
X76038571Y-134465238D01*
X76100476Y-134589047D01*
X76100476Y-134960476D01*
X76038571Y-135084285D01*
X75976666Y-135146190D01*
X75852857Y-135208095D01*
X75667142Y-135208095D01*
X76533809Y-134341428D02*
X76781428Y-135208095D01*
X77029047Y-134589047D01*
X77276666Y-135208095D01*
X77524285Y-134341428D01*
X78019523Y-135208095D02*
X78019523Y-133908095D01*
X78019523Y-134403333D02*
X78143333Y-134341428D01*
X78390952Y-134341428D01*
X78514761Y-134403333D01*
X78576666Y-134465238D01*
X78638571Y-134589047D01*
X78638571Y-134960476D01*
X78576666Y-135084285D01*
X78514761Y-135146190D01*
X78390952Y-135208095D01*
X78143333Y-135208095D01*
X78019523Y-135146190D01*
X79690952Y-135146190D02*
X79567142Y-135208095D01*
X79319523Y-135208095D01*
X79195714Y-135146190D01*
X79133809Y-135022380D01*
X79133809Y-134527142D01*
X79195714Y-134403333D01*
X79319523Y-134341428D01*
X79567142Y-134341428D01*
X79690952Y-134403333D01*
X79752857Y-134527142D01*
X79752857Y-134650952D01*
X79133809Y-134774761D01*
X80495714Y-135208095D02*
X80371904Y-135146190D01*
X80310000Y-135022380D01*
X80310000Y-133908095D01*
X81176666Y-135208095D02*
X81052857Y-135146190D01*
X80990952Y-135022380D01*
X80990952Y-133908095D01*
D11*
%TO.C,RV3*%
X64296000Y-87209250D02*
X62806000Y-87209250D01*
X58636000Y-87209250D02*
X58106000Y-87209250D01*
X64296000Y-78679250D02*
X64296000Y-75619250D01*
X64296000Y-75619250D02*
X54556000Y-75619250D01*
X54556000Y-78679250D02*
X54556000Y-75619250D01*
X54546000Y-87209250D02*
X54546000Y-82489250D01*
X61086000Y-87209250D02*
X60256000Y-87209250D01*
X55736000Y-87209250D02*
X54556000Y-87209250D01*
X64296000Y-87209250D02*
X64296000Y-82489250D01*
%TO.C,RV6*%
X58706000Y-130558000D02*
X58176000Y-130558000D01*
X64366000Y-130558000D02*
X62876000Y-130558000D01*
X64366000Y-122028000D02*
X64366000Y-118968000D01*
X54626000Y-122028000D02*
X54626000Y-118968000D01*
X61156000Y-130558000D02*
X60326000Y-130558000D01*
X64366000Y-130558000D02*
X64366000Y-125838000D01*
X55806000Y-130558000D02*
X54626000Y-130558000D01*
X54616000Y-130558000D02*
X54616000Y-125838000D01*
X64366000Y-118968000D02*
X54626000Y-118968000D01*
%TO.C,RV1*%
X79296000Y-61564000D02*
X69556000Y-61564000D01*
X79296000Y-73154000D02*
X77806000Y-73154000D01*
X70736000Y-73154000D02*
X69556000Y-73154000D01*
X73636000Y-73154000D02*
X73106000Y-73154000D01*
X69556000Y-64624000D02*
X69556000Y-61564000D01*
X69546000Y-73154000D02*
X69546000Y-68434000D01*
X79296000Y-73154000D02*
X79296000Y-68434000D01*
X76086000Y-73154000D02*
X75256000Y-73154000D01*
X79296000Y-64624000D02*
X79296000Y-61564000D01*
%TO.C,J1*%
X60426000Y-60660000D02*
X60426000Y-59860000D01*
X54866000Y-47180000D02*
X58866000Y-47180000D01*
X54866000Y-57680000D02*
X59016000Y-57680000D01*
X63866000Y-57680000D02*
X63866000Y-47180000D01*
X54866000Y-57680000D02*
X54866000Y-47180000D01*
X60426000Y-60660000D02*
X59566000Y-60660000D01*
X59716000Y-57680000D02*
X63866000Y-57680000D01*
X59866000Y-47180000D02*
X63866000Y-47180000D01*
X61166000Y-53180000D02*
G75*
G03*
X61166000Y-53180000I-1800000J0D01*
G01*
%TO.C,RV2*%
X61086000Y-73154000D02*
X60256000Y-73154000D01*
X54546000Y-73154000D02*
X54546000Y-68434000D01*
X58636000Y-73154000D02*
X58106000Y-73154000D01*
X64296000Y-73154000D02*
X62806000Y-73154000D01*
X64296000Y-64624000D02*
X64296000Y-61564000D01*
X55736000Y-73154000D02*
X54556000Y-73154000D01*
X54556000Y-64624000D02*
X54556000Y-61564000D01*
X64296000Y-61564000D02*
X54556000Y-61564000D01*
X64296000Y-73154000D02*
X64296000Y-68434000D01*
%TO.C,SW1*%
X77414000Y-124956000D02*
X77414000Y-123456000D01*
X76164000Y-120956000D02*
X71664000Y-120956000D01*
X71664000Y-127456000D02*
X76164000Y-127456000D01*
X70414000Y-123456000D02*
X70414000Y-124956000D01*
%TO.C,RV4*%
X55746000Y-101619000D02*
X54566000Y-101619000D01*
X64306000Y-101619000D02*
X62816000Y-101619000D01*
X61096000Y-101619000D02*
X60266000Y-101619000D01*
X54556000Y-101619000D02*
X54556000Y-96899000D01*
X64306000Y-101619000D02*
X64306000Y-96899000D01*
X64306000Y-93089000D02*
X64306000Y-90029000D01*
X54566000Y-93089000D02*
X54566000Y-90029000D01*
X64306000Y-90029000D02*
X54566000Y-90029000D01*
X58646000Y-101619000D02*
X58116000Y-101619000D01*
%TO.C,RV5*%
X54566000Y-107567000D02*
X54566000Y-104507000D01*
X64306000Y-107567000D02*
X64306000Y-104507000D01*
X64306000Y-104507000D02*
X54566000Y-104507000D01*
X58646000Y-116097000D02*
X58116000Y-116097000D01*
X61096000Y-116097000D02*
X60266000Y-116097000D01*
X54556000Y-116097000D02*
X54556000Y-111377000D01*
X55746000Y-116097000D02*
X54566000Y-116097000D01*
X64306000Y-116097000D02*
X64306000Y-111377000D01*
X64306000Y-116097000D02*
X62816000Y-116097000D01*
%TO.C,J2*%
X74866000Y-47180000D02*
X78866000Y-47180000D01*
X69866000Y-57680000D02*
X69866000Y-47180000D01*
X69866000Y-57680000D02*
X74016000Y-57680000D01*
X75426000Y-60660000D02*
X75426000Y-59860000D01*
X75426000Y-60660000D02*
X74566000Y-60660000D01*
X78866000Y-57680000D02*
X78866000Y-47180000D01*
X69866000Y-47180000D02*
X73866000Y-47180000D01*
X74716000Y-57680000D02*
X78866000Y-57680000D01*
X76166000Y-53180000D02*
G75*
G03*
X76166000Y-53180000I-1800000J0D01*
G01*
%TD*%
M02*
