%TF.GenerationSoftware,KiCad,Pcbnew,(6.0.0-0)*%
%TF.CreationDate,2022-12-14T00:02:15-05:00*%
%TF.ProjectId,ht-hat-cymbal-cowbell,68742d68-6174-42d6-9379-6d62616c2d63,rev?*%
%TF.SameCoordinates,Original*%
%TF.FileFunction,Soldermask,Top*%
%TF.FilePolarity,Negative*%
%FSLAX46Y46*%
G04 Gerber Fmt 4.6, Leading zero omitted, Abs format (unit mm)*
G04 Created by KiCad (PCBNEW (6.0.0-0)) date 2022-12-14 00:02:15*
%MOMM*%
%LPD*%
G01*
G04 APERTURE LIST*
G04 Aperture macros list*
%AMRoundRect*
0 Rectangle with rounded corners*
0 $1 Rounding radius*
0 $2 $3 $4 $5 $6 $7 $8 $9 X,Y pos of 4 corners*
0 Add a 4 corners polygon primitive as box body*
4,1,4,$2,$3,$4,$5,$6,$7,$8,$9,$2,$3,0*
0 Add four circle primitives for the rounded corners*
1,1,$1+$1,$2,$3*
1,1,$1+$1,$4,$5*
1,1,$1+$1,$6,$7*
1,1,$1+$1,$8,$9*
0 Add four rect primitives between the rounded corners*
20,1,$1+$1,$2,$3,$4,$5,0*
20,1,$1+$1,$4,$5,$6,$7,0*
20,1,$1+$1,$6,$7,$8,$9,0*
20,1,$1+$1,$8,$9,$2,$3,0*%
G04 Aperture macros list end*
%ADD10O,2.720000X3.240000*%
%ADD11C,2.000000*%
%ADD12R,1.930000X1.830000*%
%ADD13C,2.130000*%
%ADD14RoundRect,0.250000X0.600000X-0.600000X0.600000X0.600000X-0.600000X0.600000X-0.600000X-0.600000X0*%
%ADD15C,1.700000*%
G04 APERTURE END LIST*
D10*
%TO.C,RV3*%
X64226000Y-80589250D03*
X54626000Y-80589250D03*
D11*
X56926000Y-88089250D03*
X59426000Y-88089250D03*
X61926000Y-88089250D03*
%TD*%
%TO.C,RV6*%
X61996000Y-131438000D03*
X59496000Y-131438000D03*
X56996000Y-131438000D03*
D10*
X64296000Y-123938000D03*
X54696000Y-123938000D03*
%TD*%
%TO.C,RV1*%
X79226000Y-66534000D03*
X69626000Y-66534000D03*
D11*
X71926000Y-74034000D03*
X74426000Y-74034000D03*
X76926000Y-74034000D03*
%TD*%
D12*
%TO.C,J1*%
X59366000Y-59660000D03*
D13*
X59366000Y-56560000D03*
X59366000Y-48260000D03*
%TD*%
D10*
%TO.C,RV2*%
X64226000Y-66534000D03*
X54626000Y-66534000D03*
D11*
X56926000Y-74034000D03*
X59426000Y-74034000D03*
X61926000Y-74034000D03*
%TD*%
%TO.C,SW1*%
X77164000Y-121956000D03*
X70664000Y-121956000D03*
X70664000Y-126456000D03*
X77164000Y-126456000D03*
%TD*%
D10*
%TO.C,RV4*%
X64236000Y-94999000D03*
X54636000Y-94999000D03*
D11*
X56936000Y-102499000D03*
X59436000Y-102499000D03*
X61936000Y-102499000D03*
%TD*%
D10*
%TO.C,RV5*%
X54636000Y-109477000D03*
X64236000Y-109477000D03*
D11*
X56936000Y-116977000D03*
X59436000Y-116977000D03*
X61936000Y-116977000D03*
%TD*%
D12*
%TO.C,J2*%
X74366000Y-59660000D03*
D13*
X74366000Y-56560000D03*
X74366000Y-48260000D03*
%TD*%
D14*
%TO.C,U1*%
X75848000Y-43434000D03*
D15*
X75848000Y-40894000D03*
X73320000Y-40894000D03*
X73308000Y-43434000D03*
X70780000Y-40894000D03*
X70768000Y-43434000D03*
X68240000Y-40894000D03*
X68228000Y-43434000D03*
X65700000Y-40894000D03*
X65688000Y-43434000D03*
X63148000Y-43434000D03*
X63160000Y-40894000D03*
X60620000Y-40894000D03*
X60608000Y-43434000D03*
X58080000Y-40894000D03*
X58068000Y-43434000D03*
%TD*%
M02*
