%TF.GenerationSoftware,KiCad,Pcbnew,(6.0.0-0)*%
%TF.CreationDate,2022-12-14T00:02:15-05:00*%
%TF.ProjectId,ht-hat-cymbal-cowbell,68742d68-6174-42d6-9379-6d62616c2d63,rev?*%
%TF.SameCoordinates,Original*%
%TF.FileFunction,Legend,Bot*%
%TF.FilePolarity,Positive*%
%FSLAX46Y46*%
G04 Gerber Fmt 4.6, Leading zero omitted, Abs format (unit mm)*
G04 Created by KiCad (PCBNEW (6.0.0-0)) date 2022-12-14 00:02:15*
%MOMM*%
%LPD*%
G01*
G04 APERTURE LIST*
%ADD10C,0.150000*%
%ADD11C,0.120000*%
G04 APERTURE END LIST*
D10*
X79716380Y-49244666D02*
X80430666Y-49244666D01*
X80573523Y-49197047D01*
X80668761Y-49101809D01*
X80716380Y-48958952D01*
X80716380Y-48863714D01*
X80716380Y-50197047D02*
X80716380Y-49720857D01*
X79716380Y-49720857D01*
X80621142Y-51101809D02*
X80668761Y-51054190D01*
X80716380Y-50911333D01*
X80716380Y-50816095D01*
X80668761Y-50673238D01*
X80573523Y-50578000D01*
X80478285Y-50530380D01*
X80287809Y-50482761D01*
X80144952Y-50482761D01*
X79954476Y-50530380D01*
X79859238Y-50578000D01*
X79764000Y-50673238D01*
X79716380Y-50816095D01*
X79716380Y-50911333D01*
X79764000Y-51054190D01*
X79811619Y-51101809D01*
X79716380Y-51816095D02*
X80430666Y-51816095D01*
X80573523Y-51768476D01*
X80668761Y-51673238D01*
X80716380Y-51530380D01*
X80716380Y-51435142D01*
X80716380Y-52768476D02*
X80716380Y-52292285D01*
X79716380Y-52292285D01*
X80621142Y-53673238D02*
X80668761Y-53625619D01*
X80716380Y-53482761D01*
X80716380Y-53387523D01*
X80668761Y-53244666D01*
X80573523Y-53149428D01*
X80478285Y-53101809D01*
X80287809Y-53054190D01*
X80144952Y-53054190D01*
X79954476Y-53101809D01*
X79859238Y-53149428D01*
X79764000Y-53244666D01*
X79716380Y-53387523D01*
X79716380Y-53482761D01*
X79764000Y-53625619D01*
X79811619Y-53673238D01*
X79716380Y-54387523D02*
X80430666Y-54387523D01*
X80573523Y-54339904D01*
X80668761Y-54244666D01*
X80716380Y-54101809D01*
X80716380Y-54006571D01*
X80716380Y-55339904D02*
X80716380Y-54863714D01*
X79716380Y-54863714D01*
X80621142Y-56244666D02*
X80668761Y-56197047D01*
X80716380Y-56054190D01*
X80716380Y-55958952D01*
X80668761Y-55816095D01*
X80573523Y-55720857D01*
X80478285Y-55673238D01*
X80287809Y-55625619D01*
X80144952Y-55625619D01*
X79954476Y-55673238D01*
X79859238Y-55720857D01*
X79764000Y-55816095D01*
X79716380Y-55958952D01*
X79716380Y-56054190D01*
X79764000Y-56197047D01*
X79811619Y-56244666D01*
X53032666Y-136467619D02*
X53032666Y-135753333D01*
X52985047Y-135610476D01*
X52889809Y-135515238D01*
X52746952Y-135467619D01*
X52651714Y-135467619D01*
X53985047Y-135467619D02*
X53508857Y-135467619D01*
X53508857Y-136467619D01*
X54889809Y-135562857D02*
X54842190Y-135515238D01*
X54699333Y-135467619D01*
X54604095Y-135467619D01*
X54461238Y-135515238D01*
X54366000Y-135610476D01*
X54318380Y-135705714D01*
X54270761Y-135896190D01*
X54270761Y-136039047D01*
X54318380Y-136229523D01*
X54366000Y-136324761D01*
X54461238Y-136420000D01*
X54604095Y-136467619D01*
X54699333Y-136467619D01*
X54842190Y-136420000D01*
X54889809Y-136372380D01*
X55604095Y-136467619D02*
X55604095Y-135753333D01*
X55556476Y-135610476D01*
X55461238Y-135515238D01*
X55318380Y-135467619D01*
X55223142Y-135467619D01*
X56556476Y-135467619D02*
X56080285Y-135467619D01*
X56080285Y-136467619D01*
X57461238Y-135562857D02*
X57413619Y-135515238D01*
X57270761Y-135467619D01*
X57175523Y-135467619D01*
X57032666Y-135515238D01*
X56937428Y-135610476D01*
X56889809Y-135705714D01*
X56842190Y-135896190D01*
X56842190Y-136039047D01*
X56889809Y-136229523D01*
X56937428Y-136324761D01*
X57032666Y-136420000D01*
X57175523Y-136467619D01*
X57270761Y-136467619D01*
X57413619Y-136420000D01*
X57461238Y-136372380D01*
X58175523Y-136467619D02*
X58175523Y-135753333D01*
X58127904Y-135610476D01*
X58032666Y-135515238D01*
X57889809Y-135467619D01*
X57794571Y-135467619D01*
X59127904Y-135467619D02*
X58651714Y-135467619D01*
X58651714Y-136467619D01*
X60032666Y-135562857D02*
X59985047Y-135515238D01*
X59842190Y-135467619D01*
X59746952Y-135467619D01*
X59604095Y-135515238D01*
X59508857Y-135610476D01*
X59461238Y-135705714D01*
X59413619Y-135896190D01*
X59413619Y-136039047D01*
X59461238Y-136229523D01*
X59508857Y-136324761D01*
X59604095Y-136420000D01*
X59746952Y-136467619D01*
X59842190Y-136467619D01*
X59985047Y-136420000D01*
X60032666Y-136372380D01*
D11*
%TO.C,R8*%
X63931436Y-60733000D02*
X64385564Y-60733000D01*
X63931436Y-62203000D02*
X64385564Y-62203000D01*
%TO.C,R9*%
X72925000Y-113564936D02*
X72925000Y-114019064D01*
X74395000Y-113564936D02*
X74395000Y-114019064D01*
%TO.C,R7*%
X64385564Y-60171000D02*
X63931436Y-60171000D01*
X64385564Y-58701000D02*
X63931436Y-58701000D01*
%TO.C,D1*%
X78958000Y-108950000D02*
X75058000Y-108950000D01*
X78958000Y-106950000D02*
X78958000Y-108950000D01*
X78958000Y-106950000D02*
X75058000Y-106950000D01*
%TO.C,R2*%
X69061064Y-53367000D02*
X68606936Y-53367000D01*
X69061064Y-54837000D02*
X68606936Y-54837000D01*
%TO.C,C7*%
X76446748Y-111225000D02*
X76969252Y-111225000D01*
X76446748Y-109755000D02*
X76969252Y-109755000D01*
%TO.C,R4*%
X63931436Y-56669000D02*
X64385564Y-56669000D01*
X63931436Y-58139000D02*
X64385564Y-58139000D01*
%TO.C,R5*%
X72617064Y-104675000D02*
X72162936Y-104675000D01*
X72617064Y-106145000D02*
X72162936Y-106145000D01*
%TO.C,D3*%
X74640000Y-99076000D02*
X70740000Y-99076000D01*
X74640000Y-99076000D02*
X74640000Y-101076000D01*
X74640000Y-101076000D02*
X70740000Y-101076000D01*
%TO.C,R6*%
X78259000Y-101372936D02*
X78259000Y-101827064D01*
X79729000Y-101372936D02*
X79729000Y-101827064D01*
%TO.C,C5*%
X59697252Y-129259000D02*
X59174748Y-129259000D01*
X59697252Y-127789000D02*
X59174748Y-127789000D01*
%TO.C,C1*%
X59697252Y-69877000D02*
X59174748Y-69877000D01*
X59697252Y-71347000D02*
X59174748Y-71347000D01*
%TO.C,C2*%
X59697252Y-86079000D02*
X59174748Y-86079000D01*
X59697252Y-84609000D02*
X59174748Y-84609000D01*
%TO.C,C3*%
X59697252Y-100557000D02*
X59174748Y-100557000D01*
X59697252Y-99087000D02*
X59174748Y-99087000D01*
%TO.C,D2*%
X74458000Y-104410000D02*
X78358000Y-104410000D01*
X74458000Y-106410000D02*
X78358000Y-106410000D01*
X74458000Y-106410000D02*
X74458000Y-104410000D01*
%TO.C,C4*%
X59697252Y-115035000D02*
X59174748Y-115035000D01*
X59697252Y-113565000D02*
X59174748Y-113565000D01*
%TO.C,D4*%
X74640000Y-103870000D02*
X70740000Y-103870000D01*
X74640000Y-101870000D02*
X70740000Y-101870000D01*
X74640000Y-101870000D02*
X74640000Y-103870000D01*
%TO.C,Q1*%
X75148000Y-113792000D02*
X75148000Y-112117000D01*
X75148000Y-113792000D02*
X75148000Y-114442000D01*
X78268000Y-113792000D02*
X78268000Y-114442000D01*
X78268000Y-113792000D02*
X78268000Y-113142000D01*
%TO.C,R3*%
X69061064Y-51335000D02*
X68606936Y-51335000D01*
X69061064Y-52805000D02*
X68606936Y-52805000D01*
%TO.C,C8*%
X77443000Y-101861252D02*
X77443000Y-101338748D01*
X75973000Y-101861252D02*
X75973000Y-101338748D01*
%TO.C,U2*%
X66250500Y-59117000D02*
X66250500Y-55667000D01*
X66250500Y-59117000D02*
X66250500Y-61067000D01*
X71370500Y-59117000D02*
X71370500Y-61067000D01*
X71370500Y-59117000D02*
X71370500Y-57167000D01*
%TO.C,U5*%
X78857000Y-92202000D02*
X78857000Y-94152000D01*
X78857000Y-92202000D02*
X78857000Y-90252000D01*
X69987000Y-92202000D02*
X69987000Y-88752000D01*
X69987000Y-92202000D02*
X69987000Y-94152000D01*
%TO.C,U1*%
X69008000Y-45414000D02*
X79758000Y-45414000D01*
X79758000Y-45414000D02*
X79758000Y-38914000D01*
X54158000Y-45414000D02*
X64908000Y-45414000D01*
X64908000Y-45414000D02*
X64908000Y-46724000D01*
X52858000Y-37604000D02*
X52858000Y-46724000D01*
X52858000Y-46724000D02*
X81058000Y-46724000D01*
X81058000Y-37604000D02*
X52858000Y-37604000D01*
X75348000Y-48114000D02*
X75848000Y-47114000D01*
X76348000Y-48114000D02*
X75348000Y-48114000D01*
X79758000Y-38914000D02*
X54158000Y-38914000D01*
X64908000Y-45414000D02*
X64908000Y-45414000D01*
X81058000Y-46724000D02*
X81058000Y-37604000D01*
X75848000Y-47114000D02*
X76348000Y-48114000D01*
X54158000Y-38914000D02*
X54158000Y-45414000D01*
X69008000Y-46724000D02*
X69008000Y-45414000D01*
%TO.C,U4*%
X78857000Y-80518000D02*
X78857000Y-82468000D01*
X78857000Y-80518000D02*
X78857000Y-78568000D01*
X69987000Y-80518000D02*
X69987000Y-77068000D01*
X69987000Y-80518000D02*
X69987000Y-82468000D01*
%TO.C,R1*%
X74141064Y-128551000D02*
X73686936Y-128551000D01*
X74141064Y-130021000D02*
X73686936Y-130021000D01*
%TD*%
M02*
