%FSLAX45Y45*%
G04 Gerber Fmt 4.5, Leading zero omitted, Abs format (unit mm)*
G04 Created by KiCad (PCBNEW (6.0.0-0)) date 2022-12-14 00:02:19*
%MOMM*%
%LPD*%
G01*
G04 APERTURE LIST*
%TA.AperFunction,Profile*%
%ADD10C,0.100000*%
%TD*%
%ADD11C,0.200000*%
G04 APERTURE END LIST*
D10*
X5200000Y-13700000D02*
X5200000Y-3700000D01*
X8200000Y-12200000D02*
X8200000Y-13700000D01*
X8200000Y-3700000D02*
X5200000Y-3700000D01*
X8200000Y-13700000D02*
X5200000Y-13700000D01*
X8200000Y-5800000D02*
X8200000Y-12200000D01*
X8200000Y-5800000D02*
X8200000Y-3700000D01*
D11*
X5452619Y-14015476D02*
X5452619Y-13815476D01*
X5500238Y-13815476D01*
X5528810Y-13825000D01*
X5547857Y-13844048D01*
X5557381Y-13863095D01*
X5566905Y-13901190D01*
X5566905Y-13929762D01*
X5557381Y-13967857D01*
X5547857Y-13986905D01*
X5528810Y-14005952D01*
X5500238Y-14015476D01*
X5452619Y-14015476D01*
X5652619Y-14015476D02*
X5652619Y-13882143D01*
X5652619Y-13920238D02*
X5662143Y-13901190D01*
X5671667Y-13891667D01*
X5690714Y-13882143D01*
X5709762Y-13882143D01*
X5776428Y-14015476D02*
X5776428Y-13882143D01*
X5776428Y-13815476D02*
X5766905Y-13825000D01*
X5776428Y-13834524D01*
X5785952Y-13825000D01*
X5776428Y-13815476D01*
X5776428Y-13834524D01*
X5900238Y-14015476D02*
X5881190Y-14005952D01*
X5871667Y-13986905D01*
X5871667Y-13815476D01*
X6005000Y-14015476D02*
X5985952Y-14005952D01*
X5976428Y-13986905D01*
X5976428Y-13815476D01*
X6233571Y-14015476D02*
X6233571Y-13815476D01*
X6300238Y-13958333D01*
X6366905Y-13815476D01*
X6366905Y-14015476D01*
X6547857Y-14015476D02*
X6547857Y-13910714D01*
X6538333Y-13891667D01*
X6519286Y-13882143D01*
X6481190Y-13882143D01*
X6462143Y-13891667D01*
X6547857Y-14005952D02*
X6528809Y-14015476D01*
X6481190Y-14015476D01*
X6462143Y-14005952D01*
X6452619Y-13986905D01*
X6452619Y-13967857D01*
X6462143Y-13948809D01*
X6481190Y-13939286D01*
X6528809Y-13939286D01*
X6547857Y-13929762D01*
X6643095Y-13882143D02*
X6643095Y-14082143D01*
X6643095Y-13891667D02*
X6662143Y-13882143D01*
X6700238Y-13882143D01*
X6719286Y-13891667D01*
X6728809Y-13901190D01*
X6738333Y-13920238D01*
X6738333Y-13977381D01*
X6728809Y-13996428D01*
X6719286Y-14005952D01*
X6700238Y-14015476D01*
X6662143Y-14015476D01*
X6643095Y-14005952D01*
X6824048Y-13996428D02*
X6833571Y-14005952D01*
X6824048Y-14015476D01*
X6814524Y-14005952D01*
X6824048Y-13996428D01*
X6824048Y-14015476D01*
X6824048Y-13891667D02*
X6833571Y-13901190D01*
X6824048Y-13910714D01*
X6814524Y-13901190D01*
X6824048Y-13891667D01*
X6824048Y-13910714D01*
M02*
