M48
; DRILL file {KiCad (6.0.0-0)} date Tuesday, December 13, 2022 at 11:32:24 PM
; FORMAT={-:-/ absolute / inch / decimal}
; #@! TF.CreationDate,2022-12-13T23:32:24-05:00
; #@! TF.GenerationSoftware,Kicad,Pcbnew,(6.0.0-0)
; #@! TF.FileFunction,Plated,1,2,PTH
FMAT,2
INCH
; #@! TA.AperFunction,Plated,PTH,ViaDrill
T1C0.0157
; #@! TA.AperFunction,Plated,PTH,ComponentDrill
T2C0.0394
; #@! TA.AperFunction,Plated,PTH,ComponentDrill
T3C0.0433
; #@! TA.AperFunction,Plated,PTH,ComponentDrill
T4C0.0472
; #@! TA.AperFunction,Plated,PTH,ComponentDrill
T5C0.0480
; #@! TA.AperFunction,Plated,PTH,ComponentDrill
T6C0.0559
; #@! TA.AperFunction,Plated,PTH,ComponentDrill
T7C0.0563
%
G90
G05
T1
X1.94Y-3.84
X2.0346Y-3.8094
X2.07Y-3.86
X2.1209Y-3.7732
X2.13Y-3.51
X2.3339Y-4.5665
X2.3448Y-3.9052
X2.36Y-3.69
X2.37Y-5.05
X2.41Y-3.81
X2.43Y-4.09
X2.43Y-4.18
X2.44Y-3.91
X2.61Y-4.09
T2
X2.05Y-4.2605
X2.05Y-4.36
X2.05Y-4.46
X2.05Y-4.56
X2.05Y-4.66
X2.05Y-4.76
X2.05Y-4.86
X2.05Y-4.96
X2.15Y-4.2605
X2.15Y-4.3605
X2.15Y-4.4605
X2.15Y-4.5605
X2.15Y-4.6605
X2.15Y-4.7605
X2.15Y-4.8605
X2.15Y-4.9605
T3
X2.4114Y-5.4141
X2.4114Y-5.67
X2.5886Y-5.4141
X2.5886Y-5.67
T4
X2.1857Y-3.0763
X2.1857Y-3.6263
X2.2841Y-3.0763
X2.2841Y-3.6263
X2.3826Y-3.0763
X2.3826Y-3.6263
T5
X2.11Y-5.2524
X2.2841Y-1.9621
T6
X2.11Y-5.3745
X2.2841Y-2.0842
T7
X2.11Y-5.7013
X2.2841Y-2.4109
T3
G00X2.0952Y-2.8026
M15
G01X2.0952Y-2.7593
M16
G05
G00X2.0952Y-3.3526
M15
G01X2.0952Y-3.3093
M16
G05
G00X2.4731Y-2.7593
M15
G01X2.4731Y-2.8026
M16
G05
G00X2.4731Y-3.3093
M15
G01X2.4731Y-3.3526
M16
G05
T0
M30
