%FSLAX45Y45*%
G04 Gerber Fmt 4.5, Leading zero omitted, Abs format (unit mm)*
G04 Created by KiCad (PCBNEW (6.0.0-0)) date 2022-12-13 23:32:24*
%MOMM*%
%LPD*%
G01*
G04 APERTURE LIST*
%TA.AperFunction,Profile*%
%ADD10C,0.100000*%
%TD*%
%ADD11C,0.200000*%
G04 APERTURE END LIST*
D10*
X4809200Y-14741200D02*
X6809200Y-14741200D01*
X6809200Y-4741200D02*
X4809200Y-4741200D01*
X6809200Y-12591200D02*
X6809200Y-6141200D01*
X6809200Y-12591200D02*
X6809200Y-14741200D01*
X6809200Y-6141200D02*
X6809200Y-4741200D01*
X4809200Y-4741200D02*
X4809200Y-14741200D01*
D11*
X5061819Y-15056676D02*
X5061819Y-14856676D01*
X5109438Y-14856676D01*
X5138010Y-14866200D01*
X5157057Y-14885248D01*
X5166581Y-14904295D01*
X5176105Y-14942390D01*
X5176105Y-14970962D01*
X5166581Y-15009057D01*
X5157057Y-15028105D01*
X5138010Y-15047152D01*
X5109438Y-15056676D01*
X5061819Y-15056676D01*
X5261819Y-15056676D02*
X5261819Y-14923343D01*
X5261819Y-14961438D02*
X5271343Y-14942390D01*
X5280867Y-14932867D01*
X5299914Y-14923343D01*
X5318962Y-14923343D01*
X5385629Y-15056676D02*
X5385629Y-14923343D01*
X5385629Y-14856676D02*
X5376105Y-14866200D01*
X5385629Y-14875724D01*
X5395152Y-14866200D01*
X5385629Y-14856676D01*
X5385629Y-14875724D01*
X5509438Y-15056676D02*
X5490390Y-15047152D01*
X5480867Y-15028105D01*
X5480867Y-14856676D01*
X5614200Y-15056676D02*
X5595152Y-15047152D01*
X5585629Y-15028105D01*
X5585629Y-14856676D01*
X5842771Y-15056676D02*
X5842771Y-14856676D01*
X5909438Y-14999533D01*
X5976105Y-14856676D01*
X5976105Y-15056676D01*
X6157057Y-15056676D02*
X6157057Y-14951914D01*
X6147533Y-14932867D01*
X6128486Y-14923343D01*
X6090390Y-14923343D01*
X6071343Y-14932867D01*
X6157057Y-15047152D02*
X6138009Y-15056676D01*
X6090390Y-15056676D01*
X6071343Y-15047152D01*
X6061819Y-15028105D01*
X6061819Y-15009057D01*
X6071343Y-14990009D01*
X6090390Y-14980486D01*
X6138009Y-14980486D01*
X6157057Y-14970962D01*
X6252295Y-14923343D02*
X6252295Y-15123343D01*
X6252295Y-14932867D02*
X6271343Y-14923343D01*
X6309438Y-14923343D01*
X6328486Y-14932867D01*
X6338009Y-14942390D01*
X6347533Y-14961438D01*
X6347533Y-15018581D01*
X6338009Y-15037628D01*
X6328486Y-15047152D01*
X6309438Y-15056676D01*
X6271343Y-15056676D01*
X6252295Y-15047152D01*
X6433248Y-15037628D02*
X6442771Y-15047152D01*
X6433248Y-15056676D01*
X6423724Y-15047152D01*
X6433248Y-15037628D01*
X6433248Y-15056676D01*
X6433248Y-14932867D02*
X6442771Y-14942390D01*
X6433248Y-14951914D01*
X6423724Y-14942390D01*
X6433248Y-14932867D01*
X6433248Y-14951914D01*
M02*
