%TF.GenerationSoftware,KiCad,Pcbnew,(6.0.0-0)*%
%TF.CreationDate,2022-12-13T23:32:20-05:00*%
%TF.ProjectId,synth-808,73796e74-682d-4383-9038-2e6b69636164,rev?*%
%TF.SameCoordinates,Original*%
%TF.FileFunction,Soldermask,Bot*%
%TF.FilePolarity,Negative*%
%FSLAX46Y46*%
G04 Gerber Fmt 4.6, Leading zero omitted, Abs format (unit mm)*
G04 Created by KiCad (PCBNEW (6.0.0-0)) date 2022-12-13 23:32:20*
%MOMM*%
%LPD*%
G01*
G04 APERTURE LIST*
G04 Aperture macros list*
%AMRoundRect*
0 Rectangle with rounded corners*
0 $1 Rounding radius*
0 $2 $3 $4 $5 $6 $7 $8 $9 X,Y pos of 4 corners*
0 Add a 4 corners polygon primitive as box body*
4,1,4,$2,$3,$4,$5,$6,$7,$8,$9,$2,$3,0*
0 Add four circle primitives for the rounded corners*
1,1,$1+$1,$2,$3*
1,1,$1+$1,$4,$5*
1,1,$1+$1,$6,$7*
1,1,$1+$1,$8,$9*
0 Add four rect primitives between the rounded corners*
20,1,$1+$1,$2,$3,$4,$5,0*
20,1,$1+$1,$4,$5,$6,$7,0*
20,1,$1+$1,$6,$7,$8,$9,0*
20,1,$1+$1,$8,$9,$2,$3,0*%
G04 Aperture macros list end*
%ADD10R,1.300000X1.300000*%
%ADD11R,2.000000X1.300000*%
%ADD12R,1.930000X1.830000*%
%ADD13C,2.130000*%
%ADD14C,2.000000*%
%ADD15O,2.720000X3.240000*%
%ADD16RoundRect,0.250000X0.450000X-0.262500X0.450000X0.262500X-0.450000X0.262500X-0.450000X-0.262500X0*%
%ADD17RoundRect,0.250000X-0.550000X1.250000X-0.550000X-1.250000X0.550000X-1.250000X0.550000X1.250000X0*%
%ADD18RoundRect,0.250000X0.250000X0.475000X-0.250000X0.475000X-0.250000X-0.475000X0.250000X-0.475000X0*%
%ADD19RoundRect,0.250000X0.600000X0.600000X-0.600000X0.600000X-0.600000X-0.600000X0.600000X-0.600000X0*%
%ADD20C,1.700000*%
%ADD21RoundRect,0.250000X-0.262500X-0.450000X0.262500X-0.450000X0.262500X0.450000X-0.262500X0.450000X0*%
%ADD22RoundRect,0.250000X0.262500X0.450000X-0.262500X0.450000X-0.262500X-0.450000X0.262500X-0.450000X0*%
%ADD23RoundRect,0.150000X0.150000X-0.725000X0.150000X0.725000X-0.150000X0.725000X-0.150000X-0.725000X0*%
%ADD24RoundRect,0.250000X-0.250000X-0.475000X0.250000X-0.475000X0.250000X0.475000X-0.250000X0.475000X0*%
%ADD25R,0.900000X1.200000*%
G04 APERTURE END LIST*
D10*
%TO.C,RV3*%
X58554000Y-138624000D03*
D11*
X57404000Y-143824000D03*
D10*
X56254000Y-138624000D03*
%TD*%
D12*
%TO.C,J2*%
X53594000Y-133412000D03*
D13*
X53594000Y-136512000D03*
X53594000Y-144812000D03*
%TD*%
D12*
%TO.C,J1*%
X58017000Y-49838000D03*
D13*
X58017000Y-52938000D03*
X58017000Y-61238000D03*
%TD*%
D14*
%TO.C,SW1*%
X61250000Y-137518000D03*
X61250000Y-144018000D03*
X65750000Y-144018000D03*
X65750000Y-137518000D03*
%TD*%
%TO.C,RV2*%
X60517000Y-92107000D03*
X58017000Y-92107000D03*
X55517000Y-92107000D03*
D15*
X62817000Y-84607000D03*
X53217000Y-84607000D03*
%TD*%
D14*
%TO.C,RV1*%
X60517000Y-78137000D03*
X58017000Y-78137000D03*
X55517000Y-78137000D03*
D15*
X62817000Y-70637000D03*
X53217000Y-70637000D03*
%TD*%
D16*
%TO.C,R9*%
X60198000Y-131468500D03*
X60198000Y-129643500D03*
%TD*%
D17*
%TO.C,C4*%
X64416000Y-128484000D03*
X64416000Y-132884000D03*
%TD*%
D18*
%TO.C,C3*%
X65042000Y-119842000D03*
X63142000Y-119842000D03*
%TD*%
D19*
%TO.C,U2*%
X54610000Y-108216000D03*
D20*
X52070000Y-108216000D03*
X54610000Y-110756000D03*
X52070000Y-110744000D03*
X52070000Y-113284000D03*
X54610000Y-113296000D03*
X54610000Y-115836000D03*
X52070000Y-115824000D03*
X54610000Y-118376000D03*
X52070000Y-118364000D03*
X52070000Y-120904000D03*
X54610000Y-120916000D03*
X54610000Y-123456000D03*
X52070000Y-123444000D03*
X52070000Y-125984000D03*
X54610000Y-125996000D03*
%TD*%
D21*
%TO.C,R8*%
X63179500Y-117556000D03*
X65004500Y-117556000D03*
%TD*%
D18*
%TO.C,C1*%
X65042000Y-101616000D03*
X63142000Y-101616000D03*
%TD*%
D22*
%TO.C,R1*%
X65004500Y-103902000D03*
X63179500Y-103902000D03*
%TD*%
%TO.C,R11*%
X65004500Y-106176000D03*
X63179500Y-106176000D03*
%TD*%
D21*
%TO.C,R5*%
X63179500Y-124414000D03*
X65004500Y-124414000D03*
%TD*%
D23*
%TO.C,U1*%
X58997000Y-100987000D03*
X57727000Y-100987000D03*
X56457000Y-100987000D03*
X55187000Y-100987000D03*
X55187000Y-95837000D03*
X56457000Y-95837000D03*
X57727000Y-95837000D03*
X58997000Y-95837000D03*
%TD*%
D22*
%TO.C,R3*%
X65004500Y-94250000D03*
X63179500Y-94250000D03*
%TD*%
D21*
%TO.C,R4*%
X50649500Y-93628000D03*
X52474500Y-93628000D03*
%TD*%
D24*
%TO.C,C2*%
X63142000Y-122128000D03*
X65042000Y-122128000D03*
%TD*%
D25*
%TO.C,D1*%
X62442000Y-96790000D03*
X65742000Y-96790000D03*
%TD*%
D22*
%TO.C,R7*%
X52474500Y-91342000D03*
X50649500Y-91342000D03*
%TD*%
D21*
%TO.C,R2*%
X63179500Y-99330000D03*
X65004500Y-99330000D03*
%TD*%
%TO.C,R10*%
X63179500Y-110698000D03*
X65004500Y-110698000D03*
%TD*%
D22*
%TO.C,R12*%
X65004500Y-112984000D03*
X63179500Y-112984000D03*
%TD*%
D24*
%TO.C,C5*%
X63142000Y-108412000D03*
X65042000Y-108412000D03*
%TD*%
D21*
%TO.C,R13*%
X50649500Y-89154000D03*
X52474500Y-89154000D03*
%TD*%
D22*
%TO.C,R6*%
X65004500Y-115270000D03*
X63179500Y-115270000D03*
%TD*%
M02*
