%TF.GenerationSoftware,KiCad,Pcbnew,(6.0.0-0)*%
%TF.CreationDate,2022-11-09T20:37:38-05:00*%
%TF.ProjectId,VCO,56434f2e-6b69-4636-9164-5f7063625858,rev?*%
%TF.SameCoordinates,Original*%
%TF.FileFunction,Copper,L2,Bot*%
%TF.FilePolarity,Positive*%
%FSLAX46Y46*%
G04 Gerber Fmt 4.6, Leading zero omitted, Abs format (unit mm)*
G04 Created by KiCad (PCBNEW (6.0.0-0)) date 2022-11-09 20:37:38*
%MOMM*%
%LPD*%
G01*
G04 APERTURE LIST*
G04 Aperture macros list*
%AMRoundRect*
0 Rectangle with rounded corners*
0 $1 Rounding radius*
0 $2 $3 $4 $5 $6 $7 $8 $9 X,Y pos of 4 corners*
0 Add a 4 corners polygon primitive as box body*
4,1,4,$2,$3,$4,$5,$6,$7,$8,$9,$2,$3,0*
0 Add four circle primitives for the rounded corners*
1,1,$1+$1,$2,$3*
1,1,$1+$1,$4,$5*
1,1,$1+$1,$6,$7*
1,1,$1+$1,$8,$9*
0 Add four rect primitives between the rounded corners*
20,1,$1+$1,$2,$3,$4,$5,0*
20,1,$1+$1,$4,$5,$6,$7,0*
20,1,$1+$1,$6,$7,$8,$9,0*
20,1,$1+$1,$8,$9,$2,$3,0*%
%AMRotRect*
0 Rectangle, with rotation*
0 The origin of the aperture is its center*
0 $1 length*
0 $2 width*
0 $3 Rotation angle, in degrees counterclockwise*
0 Add horizontal line*
21,1,$1,$2,0,0,$3*%
G04 Aperture macros list end*
%TA.AperFunction,ComponentPad*%
%ADD10C,2.340000*%
%TD*%
%TA.AperFunction,ComponentPad*%
%ADD11C,0.800000*%
%TD*%
%TA.AperFunction,ComponentPad*%
%ADD12C,6.000000*%
%TD*%
%TA.AperFunction,ComponentPad*%
%ADD13R,3.000000X8.500000*%
%TD*%
%TA.AperFunction,ComponentPad*%
%ADD14RotRect,3.000000X6.500000X315.000000*%
%TD*%
%TA.AperFunction,SMDPad,CuDef*%
%ADD15RoundRect,0.250000X0.450000X-0.262500X0.450000X0.262500X-0.450000X0.262500X-0.450000X-0.262500X0*%
%TD*%
%TA.AperFunction,SMDPad,CuDef*%
%ADD16RoundRect,0.250000X-0.450000X0.262500X-0.450000X-0.262500X0.450000X-0.262500X0.450000X0.262500X0*%
%TD*%
%TA.AperFunction,SMDPad,CuDef*%
%ADD17RoundRect,0.250000X-0.262500X-0.450000X0.262500X-0.450000X0.262500X0.450000X-0.262500X0.450000X0*%
%TD*%
%TA.AperFunction,SMDPad,CuDef*%
%ADD18RoundRect,0.150000X0.150000X-0.825000X0.150000X0.825000X-0.150000X0.825000X-0.150000X-0.825000X0*%
%TD*%
%TA.AperFunction,SMDPad,CuDef*%
%ADD19RoundRect,0.250000X-0.475000X0.250000X-0.475000X-0.250000X0.475000X-0.250000X0.475000X0.250000X0*%
%TD*%
%TA.AperFunction,ComponentPad*%
%ADD20RoundRect,0.250000X0.600000X-0.600000X0.600000X0.600000X-0.600000X0.600000X-0.600000X-0.600000X0*%
%TD*%
%TA.AperFunction,ComponentPad*%
%ADD21C,1.700000*%
%TD*%
%TA.AperFunction,SMDPad,CuDef*%
%ADD22RoundRect,0.150000X-0.150000X0.587500X-0.150000X-0.587500X0.150000X-0.587500X0.150000X0.587500X0*%
%TD*%
%TA.AperFunction,ViaPad*%
%ADD23C,0.800000*%
%TD*%
%TA.AperFunction,Conductor*%
%ADD24C,0.700000*%
%TD*%
%TA.AperFunction,Conductor*%
%ADD25C,0.250000*%
%TD*%
%TA.AperFunction,Conductor*%
%ADD26C,0.500000*%
%TD*%
G04 APERTURE END LIST*
D10*
%TO.P,RV1,1,1*%
%TO.N,GND*%
X54276000Y-68574000D03*
%TO.P,RV1,2,2*%
%TO.N,Net-(R2-Pad1)*%
X49276000Y-68574000D03*
%TO.P,RV1,3,3*%
%TO.N,+12V*%
X44276000Y-68574000D03*
%TD*%
D11*
%TO.P,REF\u002A\u002A,1*%
%TO.N,N/C*%
X64480000Y-48514000D03*
X63820990Y-46923010D03*
X62230000Y-46264000D03*
X63820990Y-50104990D03*
X62230000Y-50764000D03*
X59980000Y-48514000D03*
D12*
X62230000Y-48514000D03*
D11*
X60639010Y-46923010D03*
X60639010Y-50104990D03*
%TD*%
D10*
%TO.P,RV2,1,1*%
%TO.N,GND*%
X54276000Y-93212000D03*
%TO.P,RV2,2,2*%
%TO.N,Net-(R3-Pad1)*%
X49276000Y-93212000D03*
%TO.P,RV2,3,3*%
%TO.N,+12V*%
X44276000Y-93212000D03*
%TD*%
D13*
%TO.P,J2,*%
%TO.N,*%
X43651000Y-123415000D03*
D14*
%TO.P,J2,1,Pin_1*%
%TO.N,SQUARE*%
X54861000Y-127397000D03*
%TD*%
D11*
%TO.P,REF\u002A\u002A,1*%
%TO.N,N/C*%
X45907010Y-116688990D03*
X49748000Y-115098000D03*
X47498000Y-112848000D03*
X45248000Y-115098000D03*
X47498000Y-117348000D03*
X49088990Y-116688990D03*
X49088990Y-113507010D03*
X45907010Y-113507010D03*
D12*
X47498000Y-115098000D03*
%TD*%
D13*
%TO.P,J3,*%
%TO.N,*%
X43651000Y-106397000D03*
D14*
%TO.P,J3,1,Pin_1*%
%TO.N,TRIANGLE*%
X54861000Y-110379000D03*
%TD*%
D15*
%TO.P,R11,1*%
%TO.N,Net-(R11-Pad1)*%
X50770000Y-47902500D03*
%TO.P,R11,2*%
%TO.N,Net-(R10-Pad2)*%
X50770000Y-46077500D03*
%TD*%
%TO.P,R12,2*%
%TO.N,Net-(R12-Pad2)*%
X55880000Y-119229500D03*
%TO.P,R12,1*%
%TO.N,SQUARE*%
X55880000Y-121054500D03*
%TD*%
D16*
%TO.P,R8,1*%
%TO.N,Net-(R10-Pad2)*%
X53056000Y-46077500D03*
%TO.P,R8,2*%
%TO.N,+12V*%
X53056000Y-47902500D03*
%TD*%
D15*
%TO.P,R4,1*%
%TO.N,Net-(R1-Pad1)*%
X50770000Y-60790500D03*
%TO.P,R4,2*%
%TO.N,Net-(C1-Pad1)*%
X50770000Y-58965500D03*
%TD*%
D17*
%TO.P,R3,2*%
%TO.N,Net-(R1-Pad1)*%
X61364500Y-85344000D03*
%TO.P,R3,1*%
%TO.N,Net-(R3-Pad1)*%
X59539500Y-85344000D03*
%TD*%
D15*
%TO.P,R13,2*%
%TO.N,GND*%
X53594000Y-119229500D03*
%TO.P,R13,1*%
%TO.N,SQUARE*%
X53594000Y-121054500D03*
%TD*%
D18*
%TO.P,U1,1*%
%TO.N,Net-(R12-Pad2)*%
X45563000Y-55815000D03*
%TO.P,U1,2,-*%
X44293000Y-55815000D03*
%TO.P,U1,3,+*%
%TO.N,Net-(R11-Pad1)*%
X43023000Y-55815000D03*
%TO.P,U1,4,V-*%
%TO.N,-12V*%
X41753000Y-55815000D03*
%TO.P,U1,5,+*%
%TO.N,Net-(C1-Pad2)*%
X41753000Y-50865000D03*
%TO.P,U1,6,-*%
%TO.N,TRIANGLE*%
X43023000Y-50865000D03*
%TO.P,U1,7*%
X44293000Y-50865000D03*
%TO.P,U1,8,V+*%
%TO.N,+12V*%
X45563000Y-50865000D03*
%TD*%
D19*
%TO.P,C1,1*%
%TO.N,Net-(C1-Pad1)*%
X55342000Y-58928000D03*
%TO.P,C1,2*%
%TO.N,Net-(C1-Pad2)*%
X55342000Y-60828000D03*
%TD*%
D20*
%TO.P,J1,1,Pin_1*%
%TO.N,-12V*%
X58166000Y-40376500D03*
D21*
%TO.P,J1,2,Pin_2*%
X58166000Y-37836500D03*
%TO.P,J1,3,Pin_3*%
%TO.N,GND*%
X55626000Y-40376500D03*
%TO.P,J1,4,Pin_4*%
X55626000Y-37836500D03*
%TO.P,J1,5,Pin_5*%
X53086000Y-40376500D03*
%TO.P,J1,6,Pin_6*%
X53086000Y-37836500D03*
%TO.P,J1,7,Pin_7*%
X50546000Y-40376500D03*
%TO.P,J1,8,Pin_8*%
X50546000Y-37836500D03*
%TO.P,J1,9,Pin_9*%
%TO.N,+12V*%
X48006000Y-40376500D03*
%TO.P,J1,10,Pin_10*%
X48006000Y-37836500D03*
%TO.P,J1,11,Pin_11*%
%TO.N,unconnected-(J1-Pad11)*%
X45466000Y-40376500D03*
%TO.P,J1,12,Pin_12*%
%TO.N,unconnected-(J1-Pad12)*%
X45466000Y-37836500D03*
%TO.P,J1,13,Pin_13*%
%TO.N,unconnected-(J1-Pad13)*%
X42926000Y-40376500D03*
%TO.P,J1,14,Pin_14*%
%TO.N,unconnected-(J1-Pad14)*%
X42926000Y-37836500D03*
%TO.P,J1,15,Pin_15*%
%TO.N,unconnected-(J1-Pad15)*%
X40386000Y-40376500D03*
%TO.P,J1,16,Pin_16*%
%TO.N,unconnected-(J1-Pad16)*%
X40386000Y-37836500D03*
%TD*%
D15*
%TO.P,R5,1*%
%TO.N,GND*%
X46198000Y-60790500D03*
%TO.P,R5,2*%
%TO.N,Net-(R1-Pad2)*%
X46198000Y-58965500D03*
%TD*%
D16*
%TO.P,R7,1*%
%TO.N,Net-(R11-Pad1)*%
X40102000Y-58965500D03*
%TO.P,R7,2*%
%TO.N,Net-(Q1-Pad1)*%
X40102000Y-60790500D03*
%TD*%
D15*
%TO.P,R1,1*%
%TO.N,Net-(R1-Pad1)*%
X48484000Y-60790500D03*
%TO.P,R1,2*%
%TO.N,Net-(R1-Pad2)*%
X48484000Y-58965500D03*
%TD*%
%TO.P,R9,1*%
%TO.N,-12V*%
X55342000Y-47902500D03*
%TO.P,R9,2*%
%TO.N,Net-(R10-Pad2)*%
X55342000Y-46077500D03*
%TD*%
D22*
%TO.P,Q1,1,B*%
%TO.N,Net-(Q1-Pad1)*%
X42230000Y-59260500D03*
%TO.P,Q1,2,E*%
%TO.N,GND*%
X44130000Y-59260500D03*
%TO.P,Q1,3,C*%
%TO.N,Net-(Q1-Pad3)*%
X43180000Y-61135500D03*
%TD*%
D17*
%TO.P,R2,2*%
%TO.N,Net-(R1-Pad1)*%
X52728500Y-75184000D03*
%TO.P,R2,1*%
%TO.N,Net-(R2-Pad1)*%
X50903500Y-75184000D03*
%TD*%
D15*
%TO.P,R10,1*%
%TO.N,Net-(R10-Pad1)*%
X48484000Y-47902500D03*
%TO.P,R10,2*%
%TO.N,Net-(R10-Pad2)*%
X48484000Y-46077500D03*
%TD*%
%TO.P,R6,1*%
%TO.N,Net-(Q1-Pad3)*%
X53056000Y-60790500D03*
%TO.P,R6,2*%
%TO.N,Net-(C1-Pad1)*%
X53056000Y-58965500D03*
%TD*%
D18*
%TO.P,U2,1*%
%TO.N,Net-(C1-Pad2)*%
X53083000Y-55815000D03*
%TO.P,U2,2,-*%
%TO.N,Net-(C1-Pad1)*%
X51813000Y-55815000D03*
%TO.P,U2,3,+*%
%TO.N,Net-(R1-Pad2)*%
X50543000Y-55815000D03*
%TO.P,U2,4,V-*%
%TO.N,-12V*%
X49273000Y-55815000D03*
%TO.P,U2,5,+*%
%TO.N,Net-(R10-Pad1)*%
X49273000Y-50865000D03*
%TO.P,U2,6,-*%
%TO.N,Net-(C1-Pad2)*%
X50543000Y-50865000D03*
%TO.P,U2,7*%
%TO.N,Net-(R11-Pad1)*%
X51813000Y-50865000D03*
%TO.P,U2,8,V+*%
%TO.N,+12V*%
X53083000Y-50865000D03*
%TD*%
D23*
%TO.N,GND*%
X45466000Y-62484000D03*
%TO.N,+12V*%
X46990000Y-50800000D03*
X54356000Y-50800000D03*
%TO.N,Net-(C1-Pad2)*%
X53086000Y-54102000D03*
X48260000Y-50800000D03*
%TO.N,TRIANGLE*%
X38100000Y-47752000D03*
X42926000Y-47752000D03*
%TO.N,Net-(R12-Pad2)*%
X47244000Y-57658000D03*
X47244000Y-61976000D03*
%TD*%
D24*
%TO.N,-12V*%
X55342000Y-47902500D02*
X56745500Y-47902500D01*
X56745500Y-47902500D02*
X58166000Y-46482000D01*
X58166000Y-46482000D02*
X58166000Y-40376500D01*
D25*
%TO.N,Net-(R11-Pad1)*%
X43023000Y-55815000D02*
X43023000Y-54513000D01*
X43023000Y-54513000D02*
X43434000Y-54102000D01*
X43434000Y-54102000D02*
X49022000Y-54102000D01*
X49022000Y-54102000D02*
X51813000Y-51311000D01*
X51813000Y-51311000D02*
X51813000Y-50865000D01*
D24*
%TO.N,TRIANGLE*%
X38100000Y-93618000D02*
X38100000Y-47752000D01*
X54861000Y-110379000D02*
X38100000Y-93618000D01*
X43023000Y-47849000D02*
X42926000Y-47752000D01*
X43023000Y-50865000D02*
X43023000Y-47849000D01*
%TO.N,Net-(R12-Pad2)*%
X47244000Y-57658000D02*
X47244000Y-56642000D01*
X47244000Y-56642000D02*
X46417000Y-55815000D01*
X46417000Y-55815000D02*
X45563000Y-55815000D01*
X55880000Y-119229500D02*
X56284500Y-119229500D01*
X56284500Y-119229500D02*
X59182000Y-116332000D01*
X59182000Y-116332000D02*
X59182000Y-115927500D01*
D25*
%TO.N,GND*%
X46198000Y-60790500D02*
X46198000Y-61752000D01*
X45296500Y-60790500D02*
X46198000Y-60790500D01*
X44130000Y-59624000D02*
X45296500Y-60790500D01*
X44130000Y-59260500D02*
X44130000Y-59624000D01*
X46198000Y-61752000D02*
X45466000Y-62484000D01*
%TO.N,+12V*%
X46925000Y-50865000D02*
X46990000Y-50800000D01*
X45563000Y-50865000D02*
X46925000Y-50865000D01*
X53056000Y-50838000D02*
X53083000Y-50865000D01*
X54291000Y-50865000D02*
X54356000Y-50800000D01*
X53083000Y-50865000D02*
X54291000Y-50865000D01*
X53056000Y-47902500D02*
X53056000Y-50838000D01*
%TO.N,Net-(C1-Pad1)*%
X55342000Y-58928000D02*
X50807500Y-58928000D01*
X53056000Y-58390000D02*
X53056000Y-58965500D01*
X51813000Y-55815000D02*
X51813000Y-57147000D01*
X51813000Y-57147000D02*
X53056000Y-58390000D01*
X50807500Y-58928000D02*
X50770000Y-58965500D01*
%TO.N,Net-(C1-Pad2)*%
X41753000Y-52167000D02*
X42248261Y-52662261D01*
X42248261Y-52662261D02*
X47498000Y-52662261D01*
X54291000Y-55815000D02*
X53083000Y-55815000D01*
X53083000Y-54105000D02*
X53086000Y-54102000D01*
X56642000Y-60198000D02*
X56642000Y-58166000D01*
X50543000Y-50865000D02*
X50543000Y-51629981D01*
X47498000Y-51562000D02*
X48260000Y-50800000D01*
X41753000Y-50865000D02*
X41753000Y-52167000D01*
X56012000Y-60828000D02*
X56642000Y-60198000D01*
X49510720Y-52662261D02*
X47498000Y-52662261D01*
X55342000Y-60828000D02*
X56012000Y-60828000D01*
X50543000Y-51629981D02*
X49510720Y-52662261D01*
X47498000Y-52578000D02*
X47498000Y-51562000D01*
X56642000Y-58166000D02*
X54291000Y-55815000D01*
X53083000Y-55815000D02*
X53083000Y-54105000D01*
%TO.N,Net-(Q1-Pad1)*%
X41063500Y-60790500D02*
X40102000Y-60790500D01*
X42200000Y-58940500D02*
X42200000Y-59654000D01*
X42200000Y-59654000D02*
X41063500Y-60790500D01*
%TO.N,Net-(Q1-Pad3)*%
X43688000Y-57404000D02*
X44450000Y-57404000D01*
X43150000Y-57942000D02*
X43688000Y-57404000D01*
X53056000Y-60422000D02*
X53056000Y-60790500D01*
X45651507Y-59944000D02*
X52578000Y-59944000D01*
X44450000Y-57404000D02*
X44958000Y-57912000D01*
X52578000Y-59944000D02*
X53056000Y-60422000D01*
X43150000Y-60815500D02*
X43150000Y-57942000D01*
X44958000Y-57912000D02*
X44958000Y-59250493D01*
X44958000Y-59250493D02*
X45651507Y-59944000D01*
D24*
%TO.N,Net-(R1-Pad1)*%
X48514000Y-63754000D02*
X48514000Y-60820500D01*
X61364500Y-85344000D02*
X61364500Y-83820000D01*
X61364500Y-83820000D02*
X52728500Y-75184000D01*
D25*
X48514000Y-60820500D02*
X48484000Y-60790500D01*
D24*
X51308000Y-69088000D02*
X51308000Y-66548000D01*
X52728500Y-70508500D02*
X51308000Y-69088000D01*
X50770000Y-60790500D02*
X48484000Y-60790500D01*
X52728500Y-75184000D02*
X52728500Y-70508500D01*
X51308000Y-66548000D02*
X48514000Y-63754000D01*
%TO.N,-12V*%
X55342000Y-47902500D02*
X55342000Y-51338000D01*
X54600500Y-43942000D02*
X58166000Y-40376500D01*
X41753000Y-55815000D02*
X41337000Y-55815000D01*
X51112489Y-53027511D02*
X49273000Y-54867000D01*
X43942000Y-43942000D02*
X54600500Y-43942000D01*
X40386000Y-47498000D02*
X43942000Y-43942000D01*
X41337000Y-55815000D02*
X40386000Y-54864000D01*
X53652489Y-53027511D02*
X51112489Y-53027511D01*
X49273000Y-54867000D02*
X49273000Y-55815000D01*
X40386000Y-54864000D02*
X40386000Y-47498000D01*
X55342000Y-51338000D02*
X53652489Y-53027511D01*
D25*
%TO.N,Net-(R1-Pad2)*%
X50543000Y-55815000D02*
X50543000Y-56645000D01*
X50543000Y-56645000D02*
X48484000Y-58704000D01*
X48484000Y-58965500D02*
X46198000Y-58965500D01*
X48484000Y-58704000D02*
X48484000Y-58965500D01*
D24*
%TO.N,Net-(R2-Pad1)*%
X49276000Y-70612000D02*
X50903500Y-72239500D01*
X50903500Y-72239500D02*
X50903500Y-75184000D01*
X49276000Y-68574000D02*
X49276000Y-70612000D01*
%TO.N,Net-(R3-Pad1)*%
X49276000Y-93212000D02*
X49276000Y-89154000D01*
X53086000Y-85344000D02*
X59539500Y-85344000D01*
X49276000Y-89154000D02*
X53086000Y-85344000D01*
D25*
%TO.N,Net-(R11-Pad1)*%
X51813000Y-49527000D02*
X51813000Y-50865000D01*
X42164000Y-57404000D02*
X40640000Y-57404000D01*
X40102000Y-57942000D02*
X40102000Y-58965500D01*
X40640000Y-57404000D02*
X40102000Y-57942000D01*
X43023000Y-56545000D02*
X42164000Y-57404000D01*
X43023000Y-55815000D02*
X43023000Y-56545000D01*
X50770000Y-48484000D02*
X51813000Y-49527000D01*
X50770000Y-47902500D02*
X50770000Y-48484000D01*
%TO.N,Net-(R10-Pad2)*%
X55342000Y-46077500D02*
X48484000Y-46077500D01*
%TO.N,Net-(R10-Pad1)*%
X48514000Y-47932500D02*
X48514000Y-48768000D01*
X49273000Y-49527000D02*
X49273000Y-50865000D01*
X48514000Y-48768000D02*
X49273000Y-49527000D01*
X48484000Y-47902500D02*
X48514000Y-47932500D01*
D26*
%TO.N,SQUARE*%
X54861000Y-125219000D02*
X54861000Y-127397000D01*
D24*
X53594000Y-121054500D02*
X55880000Y-121054500D01*
X53594000Y-121054500D02*
X53594000Y-123952000D01*
X53594000Y-123952000D02*
X54861000Y-125219000D01*
%TO.N,TRIANGLE*%
X43023000Y-50865000D02*
X44293000Y-50865000D01*
%TO.N,Net-(R12-Pad2)*%
X44293000Y-55815000D02*
X45563000Y-55815000D01*
X59182000Y-107442000D02*
X47244000Y-95504000D01*
X59182000Y-116078000D02*
X59182000Y-107442000D01*
X47244000Y-95504000D02*
X47244000Y-63754000D01*
X47244000Y-63754000D02*
X47244000Y-61976000D01*
%TD*%
%TA.AperFunction,Conductor*%
%TO.N,GND*%
G36*
X65982121Y-33294002D02*
G01*
X66028614Y-33347658D01*
X66040000Y-33400000D01*
X66040000Y-132208000D01*
X66019998Y-132276121D01*
X65966342Y-132322614D01*
X65914000Y-132334000D01*
X32130000Y-132334000D01*
X32061879Y-132313998D01*
X32015386Y-132260342D01*
X32004000Y-132208000D01*
X32004000Y-127713134D01*
X41642500Y-127713134D01*
X41649255Y-127775316D01*
X41700385Y-127911705D01*
X41787739Y-128028261D01*
X41904295Y-128115615D01*
X42040684Y-128166745D01*
X42102866Y-128173500D01*
X45199134Y-128173500D01*
X45261316Y-128166745D01*
X45397705Y-128115615D01*
X45514261Y-128028261D01*
X45601615Y-127911705D01*
X45652745Y-127775316D01*
X45659500Y-127713134D01*
X45659500Y-119116866D01*
X45652745Y-119054684D01*
X45616269Y-118957385D01*
X52386000Y-118957385D01*
X52390475Y-118972624D01*
X52391865Y-118973829D01*
X52399548Y-118975500D01*
X53321885Y-118975500D01*
X53337124Y-118971025D01*
X53338329Y-118969635D01*
X53340000Y-118961952D01*
X53340000Y-118227116D01*
X53335525Y-118211877D01*
X53334135Y-118210672D01*
X53326452Y-118209001D01*
X53096905Y-118209001D01*
X53090386Y-118209338D01*
X52994794Y-118219257D01*
X52981400Y-118222149D01*
X52827216Y-118273588D01*
X52814038Y-118279761D01*
X52676193Y-118365063D01*
X52664792Y-118374099D01*
X52550261Y-118488829D01*
X52541249Y-118500240D01*
X52456184Y-118638243D01*
X52450037Y-118651424D01*
X52398862Y-118805710D01*
X52395995Y-118819086D01*
X52386328Y-118913438D01*
X52386000Y-118919855D01*
X52386000Y-118957385D01*
X45616269Y-118957385D01*
X45601615Y-118918295D01*
X45514261Y-118801739D01*
X45397705Y-118714385D01*
X45261316Y-118663255D01*
X45199134Y-118656500D01*
X42102866Y-118656500D01*
X42040684Y-118663255D01*
X41904295Y-118714385D01*
X41787739Y-118801739D01*
X41700385Y-118918295D01*
X41649255Y-119054684D01*
X41642500Y-119116866D01*
X41642500Y-127713134D01*
X32004000Y-127713134D01*
X32004000Y-115098000D01*
X43984685Y-115098000D01*
X44003931Y-115465241D01*
X44061459Y-115828459D01*
X44156639Y-116183674D01*
X44157824Y-116186762D01*
X44157825Y-116186764D01*
X44181807Y-116249238D01*
X44288427Y-116526994D01*
X44289925Y-116529934D01*
X44426136Y-116797262D01*
X44455380Y-116854657D01*
X44457176Y-116857423D01*
X44457178Y-116857426D01*
X44526765Y-116964581D01*
X44655668Y-117163075D01*
X44887098Y-117448867D01*
X45147133Y-117708902D01*
X45432925Y-117940332D01*
X45741342Y-118140620D01*
X45744276Y-118142115D01*
X45744283Y-118142119D01*
X46005961Y-118275450D01*
X46069006Y-118307573D01*
X46412326Y-118439361D01*
X46767541Y-118534541D01*
X46960558Y-118565112D01*
X47127511Y-118591555D01*
X47127519Y-118591556D01*
X47130759Y-118592069D01*
X47498000Y-118611315D01*
X47865241Y-118592069D01*
X47868481Y-118591556D01*
X47868489Y-118591555D01*
X48035442Y-118565112D01*
X48228459Y-118534541D01*
X48583674Y-118439361D01*
X48926994Y-118307573D01*
X48990039Y-118275450D01*
X49251717Y-118142119D01*
X49251724Y-118142115D01*
X49254658Y-118140620D01*
X49563075Y-117940332D01*
X49848867Y-117708902D01*
X50108902Y-117448867D01*
X50340332Y-117163075D01*
X50469235Y-116964581D01*
X50538822Y-116857426D01*
X50538824Y-116857423D01*
X50540620Y-116854657D01*
X50569865Y-116797262D01*
X50706075Y-116529934D01*
X50707573Y-116526994D01*
X50814193Y-116249238D01*
X50838175Y-116186764D01*
X50838176Y-116186762D01*
X50839361Y-116183674D01*
X50934541Y-115828459D01*
X50992069Y-115465241D01*
X51011315Y-115098000D01*
X50992069Y-114730759D01*
X50934541Y-114367541D01*
X50839361Y-114012326D01*
X50707573Y-113669006D01*
X50540620Y-113341343D01*
X50340332Y-113032925D01*
X50108902Y-112747133D01*
X49848867Y-112487098D01*
X49563075Y-112255668D01*
X49254658Y-112055380D01*
X49251724Y-112053885D01*
X49251717Y-112053881D01*
X48929934Y-111889925D01*
X48926994Y-111888427D01*
X48583674Y-111756639D01*
X48228459Y-111661459D01*
X48000324Y-111625326D01*
X47868489Y-111604445D01*
X47868481Y-111604444D01*
X47865241Y-111603931D01*
X47498000Y-111584685D01*
X47130759Y-111603931D01*
X47127519Y-111604444D01*
X47127511Y-111604445D01*
X46995676Y-111625326D01*
X46767541Y-111661459D01*
X46412326Y-111756639D01*
X46069006Y-111888427D01*
X46066066Y-111889925D01*
X45744284Y-112053881D01*
X45744277Y-112053885D01*
X45741343Y-112055380D01*
X45432925Y-112255668D01*
X45147133Y-112487098D01*
X44887098Y-112747133D01*
X44655668Y-113032925D01*
X44455380Y-113341343D01*
X44288427Y-113669006D01*
X44156639Y-114012326D01*
X44061459Y-114367541D01*
X44003931Y-114730759D01*
X43984685Y-115098000D01*
X32004000Y-115098000D01*
X32004000Y-47752000D01*
X37186496Y-47752000D01*
X37187186Y-47758565D01*
X37197175Y-47853602D01*
X37206458Y-47941928D01*
X37235333Y-48030795D01*
X37241500Y-48069732D01*
X37241500Y-93576610D01*
X37241058Y-93587152D01*
X37236696Y-93639099D01*
X37237598Y-93645859D01*
X37237598Y-93645861D01*
X37247437Y-93719602D01*
X37247807Y-93722657D01*
X37256583Y-93803437D01*
X37258758Y-93809901D01*
X37259478Y-93813176D01*
X37259548Y-93813572D01*
X37259671Y-93813996D01*
X37260462Y-93817216D01*
X37261366Y-93823989D01*
X37289139Y-93900294D01*
X37290156Y-93903198D01*
X37316078Y-93980223D01*
X37319596Y-93986077D01*
X37320985Y-93989084D01*
X37321152Y-93989489D01*
X37321357Y-93989865D01*
X37322827Y-93992852D01*
X37325162Y-93999268D01*
X37368730Y-94067920D01*
X37370255Y-94070389D01*
X37412147Y-94140109D01*
X37416834Y-94145066D01*
X37418851Y-94147723D01*
X37419369Y-94148469D01*
X37422344Y-94152402D01*
X37425109Y-94156759D01*
X37428930Y-94161032D01*
X37482908Y-94215010D01*
X37485362Y-94217532D01*
X37540308Y-94275636D01*
X37545950Y-94279471D01*
X37551148Y-94283894D01*
X37550811Y-94284290D01*
X37558802Y-94290904D01*
X44691303Y-101423405D01*
X44725329Y-101485717D01*
X44720264Y-101556532D01*
X44677717Y-101613368D01*
X44611197Y-101638179D01*
X44602208Y-101638500D01*
X42102866Y-101638500D01*
X42040684Y-101645255D01*
X41904295Y-101696385D01*
X41787739Y-101783739D01*
X41700385Y-101900295D01*
X41649255Y-102036684D01*
X41642500Y-102098866D01*
X41642500Y-110695134D01*
X41649255Y-110757316D01*
X41700385Y-110893705D01*
X41787739Y-111010261D01*
X41904295Y-111097615D01*
X42040684Y-111148745D01*
X42102866Y-111155500D01*
X45199134Y-111155500D01*
X45261316Y-111148745D01*
X45397705Y-111097615D01*
X45514261Y-111010261D01*
X45601615Y-110893705D01*
X45652745Y-110757316D01*
X45659500Y-110695134D01*
X45659500Y-102695792D01*
X45679502Y-102627671D01*
X45733158Y-102581178D01*
X45803432Y-102571074D01*
X45868012Y-102600568D01*
X45874595Y-102606697D01*
X52744630Y-109476732D01*
X52778656Y-109539044D01*
X52773591Y-109609859D01*
X52744630Y-109654922D01*
X51108643Y-111290909D01*
X51106503Y-111293571D01*
X51074399Y-111333499D01*
X51074397Y-111333502D01*
X51069450Y-111339655D01*
X51009163Y-111472251D01*
X50988514Y-111616437D01*
X51009163Y-111760623D01*
X51069450Y-111893219D01*
X51074397Y-111899372D01*
X51074399Y-111899375D01*
X51095187Y-111925229D01*
X51108643Y-111941965D01*
X53298035Y-114131357D01*
X53300697Y-114133497D01*
X53340625Y-114165601D01*
X53340628Y-114165603D01*
X53346781Y-114170550D01*
X53479377Y-114230837D01*
X53488260Y-114232109D01*
X53488263Y-114232110D01*
X53614674Y-114250213D01*
X53623563Y-114251486D01*
X53632452Y-114250213D01*
X53758863Y-114232110D01*
X53758866Y-114232109D01*
X53767749Y-114230837D01*
X53900345Y-114170550D01*
X53906498Y-114165603D01*
X53906501Y-114165601D01*
X53946429Y-114133497D01*
X53949091Y-114131357D01*
X58108405Y-109972043D01*
X58170717Y-109938017D01*
X58241532Y-109943082D01*
X58298368Y-109985629D01*
X58323179Y-110052149D01*
X58323500Y-110061138D01*
X58323500Y-115924207D01*
X58303498Y-115992328D01*
X58286595Y-116013302D01*
X56128302Y-118171595D01*
X56065990Y-118205621D01*
X56039207Y-118208500D01*
X55379600Y-118208500D01*
X55376354Y-118208837D01*
X55376350Y-118208837D01*
X55280692Y-118218762D01*
X55280688Y-118218763D01*
X55273834Y-118219474D01*
X55267298Y-118221655D01*
X55267296Y-118221655D01*
X55250928Y-118227116D01*
X55106054Y-118275450D01*
X54955652Y-118368522D01*
X54830695Y-118493697D01*
X54829910Y-118492913D01*
X54777645Y-118529973D01*
X54706722Y-118533210D01*
X54645308Y-118497589D01*
X54637926Y-118489085D01*
X54636902Y-118487793D01*
X54522171Y-118373261D01*
X54510760Y-118364249D01*
X54372757Y-118279184D01*
X54359576Y-118273037D01*
X54205290Y-118221862D01*
X54191914Y-118218995D01*
X54097562Y-118209328D01*
X54091145Y-118209000D01*
X53866115Y-118209000D01*
X53850876Y-118213475D01*
X53849671Y-118214865D01*
X53848000Y-118222548D01*
X53848000Y-119357500D01*
X53827998Y-119425621D01*
X53774342Y-119472114D01*
X53722000Y-119483500D01*
X52404116Y-119483500D01*
X52388877Y-119487975D01*
X52387672Y-119489365D01*
X52386001Y-119497048D01*
X52386001Y-119539095D01*
X52386338Y-119545614D01*
X52396257Y-119641206D01*
X52399149Y-119654600D01*
X52450588Y-119808784D01*
X52456761Y-119821962D01*
X52542063Y-119959807D01*
X52551099Y-119971208D01*
X52632462Y-120052430D01*
X52666541Y-120114713D01*
X52661538Y-120185533D01*
X52632617Y-120230620D01*
X52549870Y-120313512D01*
X52549866Y-120313517D01*
X52544695Y-120318697D01*
X52451885Y-120469262D01*
X52396203Y-120637139D01*
X52385500Y-120741600D01*
X52385500Y-121367400D01*
X52396474Y-121473166D01*
X52452450Y-121640946D01*
X52545522Y-121791348D01*
X52670697Y-121916305D01*
X52676928Y-121920146D01*
X52682673Y-121924683D01*
X52681623Y-121926013D01*
X52723108Y-121972107D01*
X52735500Y-122026597D01*
X52735500Y-123910610D01*
X52735058Y-123921152D01*
X52730696Y-123973099D01*
X52731598Y-123979859D01*
X52731598Y-123979861D01*
X52741437Y-124053602D01*
X52741807Y-124056657D01*
X52750583Y-124137437D01*
X52752758Y-124143901D01*
X52753478Y-124147176D01*
X52753548Y-124147572D01*
X52753671Y-124147996D01*
X52754462Y-124151216D01*
X52755366Y-124157989D01*
X52783139Y-124234294D01*
X52784156Y-124237198D01*
X52810078Y-124314223D01*
X52813596Y-124320077D01*
X52814985Y-124323084D01*
X52815152Y-124323489D01*
X52815357Y-124323865D01*
X52816827Y-124326852D01*
X52819162Y-124333268D01*
X52862730Y-124401920D01*
X52864255Y-124404389D01*
X52906147Y-124474109D01*
X52910834Y-124479066D01*
X52912851Y-124481723D01*
X52913369Y-124482469D01*
X52916344Y-124486402D01*
X52919109Y-124490759D01*
X52922930Y-124495032D01*
X52976909Y-124549011D01*
X52979363Y-124551533D01*
X53034308Y-124609636D01*
X53039956Y-124613474D01*
X53045148Y-124617893D01*
X53044808Y-124618293D01*
X53052800Y-124624902D01*
X53833630Y-125405732D01*
X53867656Y-125468044D01*
X53862591Y-125538859D01*
X53833630Y-125583922D01*
X51108643Y-128308909D01*
X51106503Y-128311571D01*
X51074399Y-128351499D01*
X51074397Y-128351502D01*
X51069450Y-128357655D01*
X51009163Y-128490251D01*
X50988514Y-128634437D01*
X51009163Y-128778623D01*
X51069450Y-128911219D01*
X51074397Y-128917372D01*
X51074399Y-128917375D01*
X51095187Y-128943229D01*
X51108643Y-128959965D01*
X53298035Y-131149357D01*
X53300697Y-131151497D01*
X53340625Y-131183601D01*
X53340628Y-131183603D01*
X53346781Y-131188550D01*
X53479377Y-131248837D01*
X53488260Y-131250109D01*
X53488263Y-131250110D01*
X53614674Y-131268213D01*
X53623563Y-131269486D01*
X53632452Y-131268213D01*
X53758863Y-131250110D01*
X53758866Y-131250109D01*
X53767749Y-131248837D01*
X53900345Y-131188550D01*
X53906498Y-131183603D01*
X53906501Y-131183601D01*
X53946429Y-131151497D01*
X53949091Y-131149357D01*
X58613357Y-126485091D01*
X58626813Y-126468355D01*
X58647601Y-126442501D01*
X58647603Y-126442498D01*
X58652550Y-126436345D01*
X58712837Y-126303749D01*
X58733486Y-126159563D01*
X58712837Y-126015377D01*
X58652550Y-125882781D01*
X58647603Y-125876628D01*
X58647601Y-125876625D01*
X58615497Y-125836697D01*
X58613357Y-125834035D01*
X56423965Y-123644643D01*
X56407229Y-123631187D01*
X56381375Y-123610399D01*
X56381372Y-123610397D01*
X56375219Y-123605450D01*
X56242623Y-123545163D01*
X56233740Y-123543891D01*
X56233737Y-123543890D01*
X56107326Y-123525787D01*
X56098437Y-123524514D01*
X56089548Y-123525787D01*
X55963137Y-123543890D01*
X55963134Y-123543891D01*
X55954251Y-123545163D01*
X55821655Y-123605450D01*
X55815502Y-123610397D01*
X55815499Y-123610399D01*
X55775563Y-123642509D01*
X55772909Y-123644643D01*
X55770504Y-123647048D01*
X55770494Y-123647057D01*
X55225922Y-124191629D01*
X55163610Y-124225655D01*
X55092795Y-124220590D01*
X55047732Y-124191629D01*
X54489405Y-123633302D01*
X54455379Y-123570990D01*
X54452500Y-123544207D01*
X54452500Y-122039000D01*
X54472502Y-121970879D01*
X54526158Y-121924386D01*
X54578500Y-121913000D01*
X54915621Y-121913000D01*
X54981737Y-121931740D01*
X55100090Y-122004694D01*
X55107262Y-122009115D01*
X55159969Y-122026597D01*
X55268611Y-122062632D01*
X55268613Y-122062632D01*
X55275139Y-122064797D01*
X55281975Y-122065497D01*
X55281978Y-122065498D01*
X55325031Y-122069909D01*
X55379600Y-122075500D01*
X56380400Y-122075500D01*
X56383646Y-122075163D01*
X56383650Y-122075163D01*
X56479308Y-122065238D01*
X56479312Y-122065237D01*
X56486166Y-122064526D01*
X56492702Y-122062345D01*
X56492704Y-122062345D01*
X56624806Y-122018272D01*
X56653946Y-122008550D01*
X56804348Y-121915478D01*
X56929305Y-121790303D01*
X57022115Y-121639738D01*
X57077797Y-121471861D01*
X57088500Y-121367400D01*
X57088500Y-120741600D01*
X57077526Y-120635834D01*
X57021550Y-120468054D01*
X56928478Y-120317652D01*
X56841891Y-120231216D01*
X56807812Y-120168934D01*
X56812815Y-120098114D01*
X56841736Y-120053025D01*
X56924134Y-119970483D01*
X56929305Y-119965303D01*
X57022115Y-119814738D01*
X57066693Y-119680339D01*
X57097191Y-119630911D01*
X58420530Y-118307573D01*
X59759783Y-116968320D01*
X59767550Y-116961177D01*
X59802154Y-116931934D01*
X59807367Y-116927529D01*
X59856723Y-116862975D01*
X59858602Y-116860579D01*
X59909510Y-116797262D01*
X59912546Y-116791147D01*
X59914337Y-116788346D01*
X59914587Y-116787989D01*
X59914790Y-116787620D01*
X59916521Y-116784762D01*
X59920660Y-116779348D01*
X59954986Y-116705736D01*
X59956320Y-116702964D01*
X59989414Y-116636296D01*
X59992447Y-116630186D01*
X59994098Y-116623565D01*
X59995249Y-116620437D01*
X59995413Y-116620044D01*
X59995532Y-116619639D01*
X59996609Y-116616475D01*
X59999490Y-116610296D01*
X60017215Y-116530998D01*
X60017924Y-116528002D01*
X60035921Y-116455821D01*
X60035921Y-116455820D01*
X60037572Y-116449199D01*
X60037763Y-116442378D01*
X60038215Y-116439075D01*
X60038374Y-116438191D01*
X60039052Y-116433308D01*
X60040180Y-116428260D01*
X60040500Y-116422537D01*
X60040500Y-116346156D01*
X60040549Y-116342637D01*
X60042590Y-116269563D01*
X60042781Y-116262743D01*
X60041502Y-116256039D01*
X60040955Y-116249238D01*
X60041475Y-116249196D01*
X60040500Y-116238875D01*
X60040500Y-107483391D01*
X60040942Y-107472848D01*
X60044733Y-107427700D01*
X60045304Y-107420902D01*
X60034563Y-107340395D01*
X60034193Y-107337341D01*
X60026154Y-107263349D01*
X60025417Y-107256563D01*
X60023239Y-107250092D01*
X60022527Y-107246852D01*
X60022450Y-107246417D01*
X60022334Y-107246017D01*
X60021537Y-107242774D01*
X60020635Y-107236012D01*
X59992839Y-107159644D01*
X59991841Y-107156794D01*
X59968098Y-107086243D01*
X59965922Y-107079777D01*
X59962409Y-107073930D01*
X59961007Y-107070896D01*
X59960847Y-107070508D01*
X59960636Y-107070121D01*
X59959172Y-107067146D01*
X59956838Y-107060733D01*
X59913333Y-106992180D01*
X59911715Y-106989561D01*
X59873369Y-106925743D01*
X59869853Y-106919891D01*
X59865160Y-106914928D01*
X59863150Y-106912280D01*
X59862631Y-106911532D01*
X59859656Y-106907599D01*
X59856891Y-106903242D01*
X59853071Y-106898969D01*
X59799092Y-106844990D01*
X59796638Y-106842468D01*
X59746379Y-106789320D01*
X59746377Y-106789318D01*
X59741692Y-106784364D01*
X59736050Y-106780529D01*
X59730852Y-106776106D01*
X59731189Y-106775710D01*
X59723198Y-106769096D01*
X48139405Y-95185302D01*
X48105379Y-95122990D01*
X48102500Y-95096207D01*
X48102500Y-94681638D01*
X48122502Y-94613517D01*
X48176158Y-94567024D01*
X48246432Y-94556920D01*
X48303005Y-94580026D01*
X48384036Y-94639440D01*
X48388171Y-94641616D01*
X48388175Y-94641618D01*
X48464241Y-94681638D01*
X48604823Y-94755602D01*
X48735347Y-94801183D01*
X48834550Y-94835826D01*
X48840354Y-94837853D01*
X48844947Y-94838725D01*
X49080867Y-94883516D01*
X49080870Y-94883516D01*
X49085456Y-94884387D01*
X49210099Y-94889284D01*
X49330075Y-94893999D01*
X49330081Y-94893999D01*
X49334743Y-94894182D01*
X49424181Y-94884387D01*
X49578087Y-94867532D01*
X49578092Y-94867531D01*
X49582740Y-94867022D01*
X49589140Y-94865337D01*
X49819476Y-94804694D01*
X49819478Y-94804693D01*
X49823999Y-94803503D01*
X49829399Y-94801183D01*
X50048924Y-94706868D01*
X50048926Y-94706867D01*
X50053218Y-94705023D01*
X50155679Y-94641618D01*
X50261391Y-94576202D01*
X50261395Y-94576199D01*
X50265364Y-94573743D01*
X50276997Y-94563895D01*
X53288851Y-94563895D01*
X53297563Y-94575415D01*
X53380529Y-94636249D01*
X53388444Y-94641194D01*
X53600873Y-94752959D01*
X53609447Y-94756687D01*
X53836067Y-94835826D01*
X53845077Y-94838240D01*
X54080923Y-94883017D01*
X54090180Y-94884071D01*
X54330058Y-94893497D01*
X54339372Y-94893171D01*
X54577996Y-94867038D01*
X54587173Y-94865337D01*
X54819312Y-94804220D01*
X54828132Y-94801183D01*
X55048693Y-94706423D01*
X55056965Y-94702116D01*
X55260026Y-94576458D01*
X55266751Y-94566253D01*
X55260688Y-94555899D01*
X54288810Y-93584020D01*
X54274869Y-93576408D01*
X54273034Y-93576539D01*
X54266420Y-93580790D01*
X53295509Y-94551702D01*
X53288851Y-94563895D01*
X50276997Y-94563895D01*
X50455775Y-94412548D01*
X50537316Y-94319569D01*
X50617187Y-94228494D01*
X50617191Y-94228489D01*
X50620269Y-94224979D01*
X50636803Y-94199275D01*
X50720500Y-94069152D01*
X50755231Y-94015157D01*
X50857697Y-93787691D01*
X50876900Y-93719602D01*
X50924146Y-93552082D01*
X50924147Y-93552079D01*
X50925416Y-93547578D01*
X50956900Y-93300092D01*
X50956984Y-93296909D01*
X50958243Y-93248828D01*
X50959207Y-93212000D01*
X50956281Y-93172624D01*
X52594096Y-93172624D01*
X52605614Y-93412398D01*
X52606751Y-93421658D01*
X52653581Y-93657095D01*
X52656075Y-93666088D01*
X52737189Y-93892009D01*
X52740989Y-93900544D01*
X52854607Y-94111996D01*
X52859618Y-94119863D01*
X52912609Y-94190826D01*
X52923867Y-94199275D01*
X52936286Y-94192503D01*
X53903980Y-93224810D01*
X53910357Y-93213131D01*
X54640408Y-93213131D01*
X54640539Y-93214966D01*
X54644790Y-93221580D01*
X55618024Y-94194813D01*
X55630404Y-94201573D01*
X55638745Y-94195330D01*
X55752265Y-94018843D01*
X55756708Y-94010659D01*
X55855304Y-93791783D01*
X55858494Y-93783018D01*
X55923654Y-93551981D01*
X55925514Y-93542839D01*
X55956001Y-93303196D01*
X55956482Y-93296909D01*
X55958622Y-93215160D01*
X55958471Y-93208851D01*
X55940568Y-92967932D01*
X55939191Y-92958726D01*
X55886210Y-92724582D01*
X55883486Y-92715671D01*
X55796478Y-92491930D01*
X55792467Y-92483521D01*
X55673347Y-92275105D01*
X55668130Y-92267370D01*
X55640425Y-92232227D01*
X55628501Y-92223758D01*
X55616965Y-92230246D01*
X54648020Y-93199190D01*
X54640408Y-93213131D01*
X53910357Y-93213131D01*
X53911592Y-93210869D01*
X53911461Y-93209034D01*
X53907210Y-93202420D01*
X52934131Y-92229342D01*
X52920823Y-92222075D01*
X52910786Y-92229195D01*
X52909076Y-92231251D01*
X52903655Y-92238851D01*
X52779127Y-92444067D01*
X52774889Y-92452384D01*
X52682060Y-92673755D01*
X52679099Y-92682605D01*
X52620011Y-92915264D01*
X52618390Y-92924458D01*
X52594341Y-93163297D01*
X52594096Y-93172624D01*
X50956281Y-93172624D01*
X50940718Y-92963206D01*
X50885659Y-92719878D01*
X50871164Y-92682605D01*
X50796931Y-92491714D01*
X50796930Y-92491712D01*
X50795238Y-92487361D01*
X50770494Y-92444067D01*
X50749285Y-92406959D01*
X50671442Y-92270763D01*
X50516990Y-92074842D01*
X50335276Y-91903902D01*
X50269952Y-91858585D01*
X53286999Y-91858585D01*
X53291572Y-91868361D01*
X54263190Y-92839980D01*
X54277131Y-92847592D01*
X54278966Y-92847461D01*
X54285580Y-92843210D01*
X55256929Y-91871860D01*
X55263313Y-91860169D01*
X55253903Y-91848061D01*
X55133873Y-91764793D01*
X55125846Y-91760065D01*
X54910540Y-91653888D01*
X54901907Y-91650400D01*
X54673265Y-91577211D01*
X54664214Y-91575038D01*
X54427269Y-91536449D01*
X54417980Y-91535637D01*
X54177950Y-91532495D01*
X54168638Y-91533065D01*
X53930776Y-91565436D01*
X53921658Y-91567374D01*
X53691203Y-91634546D01*
X53682450Y-91637818D01*
X53464454Y-91738316D01*
X53456299Y-91742836D01*
X53296136Y-91847844D01*
X53286999Y-91858585D01*
X50269952Y-91858585D01*
X50188680Y-91802205D01*
X50144110Y-91746943D01*
X50134500Y-91698678D01*
X50134500Y-89561792D01*
X50154502Y-89493671D01*
X50171405Y-89472697D01*
X53404698Y-86239405D01*
X53467010Y-86205379D01*
X53493793Y-86202500D01*
X58567572Y-86202500D01*
X58635693Y-86222502D01*
X58669495Y-86256888D01*
X58670125Y-86256388D01*
X58674668Y-86262120D01*
X58678522Y-86268348D01*
X58803697Y-86393305D01*
X58809927Y-86397145D01*
X58809928Y-86397146D01*
X58947090Y-86481694D01*
X58954262Y-86486115D01*
X59034005Y-86512564D01*
X59115611Y-86539632D01*
X59115613Y-86539632D01*
X59122139Y-86541797D01*
X59128975Y-86542497D01*
X59128978Y-86542498D01*
X59172031Y-86546909D01*
X59226600Y-86552500D01*
X59852400Y-86552500D01*
X59855646Y-86552163D01*
X59855650Y-86552163D01*
X59951308Y-86542238D01*
X59951312Y-86542237D01*
X59958166Y-86541526D01*
X59964702Y-86539345D01*
X59964704Y-86539345D01*
X60096806Y-86495272D01*
X60125946Y-86485550D01*
X60276348Y-86392478D01*
X60362784Y-86305891D01*
X60425066Y-86271812D01*
X60495886Y-86276815D01*
X60540976Y-86305736D01*
X60628697Y-86393305D01*
X60634927Y-86397145D01*
X60634928Y-86397146D01*
X60772090Y-86481694D01*
X60779262Y-86486115D01*
X60859005Y-86512564D01*
X60940611Y-86539632D01*
X60940613Y-86539632D01*
X60947139Y-86541797D01*
X60953975Y-86542497D01*
X60953978Y-86542498D01*
X60997031Y-86546909D01*
X61051600Y-86552500D01*
X61677400Y-86552500D01*
X61680646Y-86552163D01*
X61680650Y-86552163D01*
X61776308Y-86542238D01*
X61776312Y-86542237D01*
X61783166Y-86541526D01*
X61789702Y-86539345D01*
X61789704Y-86539345D01*
X61921806Y-86495272D01*
X61950946Y-86485550D01*
X62101348Y-86392478D01*
X62226305Y-86267303D01*
X62319115Y-86116738D01*
X62374797Y-85948861D01*
X62385500Y-85844400D01*
X62385500Y-84843600D01*
X62385163Y-84840350D01*
X62375238Y-84744692D01*
X62375237Y-84744688D01*
X62374526Y-84737834D01*
X62371311Y-84728196D01*
X62320868Y-84577002D01*
X62318550Y-84570054D01*
X62278519Y-84505365D01*
X62241856Y-84446118D01*
X62223000Y-84379815D01*
X62223000Y-83861390D01*
X62223442Y-83850847D01*
X62227233Y-83805699D01*
X62227804Y-83798901D01*
X62217063Y-83718398D01*
X62216693Y-83715343D01*
X62208653Y-83641342D01*
X62207917Y-83634563D01*
X62205742Y-83628099D01*
X62205022Y-83624824D01*
X62204952Y-83624428D01*
X62204829Y-83624004D01*
X62204038Y-83620785D01*
X62203134Y-83614011D01*
X62175352Y-83537680D01*
X62174355Y-83534830D01*
X62150600Y-83464245D01*
X62150595Y-83464235D01*
X62148422Y-83457777D01*
X62144910Y-83451931D01*
X62143508Y-83448898D01*
X62143350Y-83448514D01*
X62143137Y-83448124D01*
X62141672Y-83445145D01*
X62139337Y-83438732D01*
X62135683Y-83432974D01*
X62135680Y-83432968D01*
X62095813Y-83370147D01*
X62094196Y-83367529D01*
X62055869Y-83303742D01*
X62055867Y-83303740D01*
X62052353Y-83297891D01*
X62047663Y-83292932D01*
X62045650Y-83290280D01*
X62045146Y-83289555D01*
X62042166Y-83285615D01*
X62039391Y-83281241D01*
X62035570Y-83276968D01*
X61981592Y-83222990D01*
X61979138Y-83220468D01*
X61928879Y-83167320D01*
X61928877Y-83167318D01*
X61924192Y-83162364D01*
X61918549Y-83158528D01*
X61913357Y-83154110D01*
X61913694Y-83153714D01*
X61905703Y-83147100D01*
X53786405Y-75027802D01*
X53752379Y-74965490D01*
X53749500Y-74938707D01*
X53749500Y-74683600D01*
X53738526Y-74577834D01*
X53682550Y-74410054D01*
X53605856Y-74286118D01*
X53587000Y-74219815D01*
X53587000Y-70549890D01*
X53587442Y-70539347D01*
X53591233Y-70494199D01*
X53591804Y-70487401D01*
X53581063Y-70406898D01*
X53580693Y-70403843D01*
X53572653Y-70329842D01*
X53571917Y-70323063D01*
X53569742Y-70316599D01*
X53569022Y-70313324D01*
X53568949Y-70312908D01*
X53568820Y-70312465D01*
X53568350Y-70310549D01*
X53568360Y-70310317D01*
X53568272Y-70309914D01*
X53568380Y-70309890D01*
X53568387Y-70309719D01*
X53567181Y-70302865D01*
X53567124Y-70302436D01*
X53568725Y-70302223D01*
X53571547Y-70239625D01*
X53612581Y-70181688D01*
X53678425Y-70155133D01*
X53732263Y-70161576D01*
X53836067Y-70197826D01*
X53845077Y-70200240D01*
X54080923Y-70245017D01*
X54090180Y-70246071D01*
X54330058Y-70255497D01*
X54339372Y-70255171D01*
X54577996Y-70229038D01*
X54587173Y-70227337D01*
X54819312Y-70166220D01*
X54828132Y-70163183D01*
X55048693Y-70068423D01*
X55056965Y-70064116D01*
X55260026Y-69938458D01*
X55266751Y-69928253D01*
X55260688Y-69917899D01*
X53917921Y-68575131D01*
X54640408Y-68575131D01*
X54640539Y-68576966D01*
X54644790Y-68583580D01*
X55618024Y-69556813D01*
X55630404Y-69563573D01*
X55638745Y-69557330D01*
X55752265Y-69380843D01*
X55756708Y-69372659D01*
X55855304Y-69153783D01*
X55858494Y-69145018D01*
X55923654Y-68913981D01*
X55925514Y-68904839D01*
X55956001Y-68665196D01*
X55956482Y-68658909D01*
X55958622Y-68577160D01*
X55958471Y-68570851D01*
X55940568Y-68329932D01*
X55939191Y-68320726D01*
X55886210Y-68086582D01*
X55883486Y-68077671D01*
X55796478Y-67853930D01*
X55792467Y-67845521D01*
X55673347Y-67637105D01*
X55668130Y-67629370D01*
X55640425Y-67594227D01*
X55628501Y-67585758D01*
X55616965Y-67592246D01*
X54648020Y-68561190D01*
X54640408Y-68575131D01*
X53917921Y-68575131D01*
X53916790Y-68574000D01*
X52934129Y-67591340D01*
X52920823Y-67584074D01*
X52910787Y-67591194D01*
X52909076Y-67593251D01*
X52903655Y-67600851D01*
X52779127Y-67806067D01*
X52774889Y-67814384D01*
X52682060Y-68035755D01*
X52679099Y-68044605D01*
X52620011Y-68277264D01*
X52618390Y-68286458D01*
X52594341Y-68525297D01*
X52594096Y-68534624D01*
X52605614Y-68774398D01*
X52606751Y-68783658D01*
X52622304Y-68861850D01*
X52615976Y-68932564D01*
X52572422Y-68988631D01*
X52505469Y-69012250D01*
X52436375Y-68995923D01*
X52409630Y-68975526D01*
X52203405Y-68769301D01*
X52169379Y-68706989D01*
X52166500Y-68680206D01*
X52166500Y-67220585D01*
X53286999Y-67220585D01*
X53291572Y-67230361D01*
X54263190Y-68201980D01*
X54277131Y-68209592D01*
X54278966Y-68209461D01*
X54285580Y-68205210D01*
X55256929Y-67233860D01*
X55263313Y-67222169D01*
X55253903Y-67210061D01*
X55133873Y-67126793D01*
X55125846Y-67122065D01*
X54910540Y-67015888D01*
X54901907Y-67012400D01*
X54673265Y-66939211D01*
X54664214Y-66937038D01*
X54427269Y-66898449D01*
X54417980Y-66897637D01*
X54177950Y-66894495D01*
X54168638Y-66895065D01*
X53930776Y-66927436D01*
X53921658Y-66929374D01*
X53691203Y-66996546D01*
X53682450Y-66999818D01*
X53464454Y-67100316D01*
X53456299Y-67104836D01*
X53296136Y-67209844D01*
X53286999Y-67220585D01*
X52166500Y-67220585D01*
X52166500Y-66589391D01*
X52166942Y-66578848D01*
X52170733Y-66533700D01*
X52171304Y-66526902D01*
X52160563Y-66446395D01*
X52160193Y-66443341D01*
X52152154Y-66369349D01*
X52151417Y-66362563D01*
X52149239Y-66356092D01*
X52148527Y-66352852D01*
X52148450Y-66352417D01*
X52148334Y-66352017D01*
X52147537Y-66348774D01*
X52146635Y-66342012D01*
X52118838Y-66265638D01*
X52117839Y-66262788D01*
X52094100Y-66192247D01*
X52094098Y-66192242D01*
X52091922Y-66185777D01*
X52088405Y-66179924D01*
X52087015Y-66176916D01*
X52086848Y-66176511D01*
X52086643Y-66176135D01*
X52085173Y-66173148D01*
X52082838Y-66166732D01*
X52039270Y-66098080D01*
X52037745Y-66095611D01*
X51995853Y-66025891D01*
X51991166Y-66020934D01*
X51989149Y-66018277D01*
X51988639Y-66017543D01*
X51985661Y-66013605D01*
X51982891Y-66009241D01*
X51979071Y-66004968D01*
X51925075Y-65950972D01*
X51922621Y-65948450D01*
X51872381Y-65895323D01*
X51867692Y-65890364D01*
X51862044Y-65886526D01*
X51856852Y-65882107D01*
X51857192Y-65881707D01*
X51849203Y-65875100D01*
X49409405Y-63435302D01*
X49375379Y-63372990D01*
X49372500Y-63346207D01*
X49372500Y-61775000D01*
X49392502Y-61706879D01*
X49446158Y-61660386D01*
X49498500Y-61649000D01*
X49805621Y-61649000D01*
X49871737Y-61667740D01*
X49990288Y-61740816D01*
X49997262Y-61745115D01*
X50059306Y-61765694D01*
X50158611Y-61798632D01*
X50158613Y-61798632D01*
X50165139Y-61800797D01*
X50171975Y-61801497D01*
X50171978Y-61801498D01*
X50215031Y-61805909D01*
X50269600Y-61811500D01*
X51270400Y-61811500D01*
X51273646Y-61811163D01*
X51273650Y-61811163D01*
X51369308Y-61801238D01*
X51369312Y-61801237D01*
X51376166Y-61800526D01*
X51382702Y-61798345D01*
X51382704Y-61798345D01*
X51514806Y-61754272D01*
X51543946Y-61744550D01*
X51694348Y-61651478D01*
X51819305Y-61526303D01*
X51820195Y-61527191D01*
X51872039Y-61490432D01*
X51942962Y-61487199D01*
X52004374Y-61522822D01*
X52005583Y-61524214D01*
X52007522Y-61527348D01*
X52132697Y-61652305D01*
X52138927Y-61656145D01*
X52138928Y-61656146D01*
X52276288Y-61740816D01*
X52283262Y-61745115D01*
X52345306Y-61765694D01*
X52444611Y-61798632D01*
X52444613Y-61798632D01*
X52451139Y-61800797D01*
X52457975Y-61801497D01*
X52457978Y-61801498D01*
X52501031Y-61805909D01*
X52555600Y-61811500D01*
X53556400Y-61811500D01*
X53559646Y-61811163D01*
X53559650Y-61811163D01*
X53655308Y-61801238D01*
X53655312Y-61801237D01*
X53662166Y-61800526D01*
X53668702Y-61798345D01*
X53668704Y-61798345D01*
X53800806Y-61754272D01*
X53829946Y-61744550D01*
X53980348Y-61651478D01*
X54071643Y-61560024D01*
X54085383Y-61546260D01*
X54147666Y-61512181D01*
X54218486Y-61517184D01*
X54267831Y-61553040D01*
X54268522Y-61552348D01*
X54393697Y-61677305D01*
X54399927Y-61681145D01*
X54399928Y-61681146D01*
X54537090Y-61765694D01*
X54544262Y-61770115D01*
X54610117Y-61791958D01*
X54705611Y-61823632D01*
X54705613Y-61823632D01*
X54712139Y-61825797D01*
X54718975Y-61826497D01*
X54718978Y-61826498D01*
X54762031Y-61830909D01*
X54816600Y-61836500D01*
X55867400Y-61836500D01*
X55870646Y-61836163D01*
X55870650Y-61836163D01*
X55966308Y-61826238D01*
X55966312Y-61826237D01*
X55973166Y-61825526D01*
X55979702Y-61823345D01*
X55979704Y-61823345D01*
X56124610Y-61775000D01*
X56140946Y-61769550D01*
X56291348Y-61676478D01*
X56416305Y-61551303D01*
X56427884Y-61532519D01*
X56505275Y-61406968D01*
X56505276Y-61406966D01*
X56509115Y-61400738D01*
X56555586Y-61260631D01*
X56562632Y-61239389D01*
X56562632Y-61239387D01*
X56564797Y-61232861D01*
X56567280Y-61208627D01*
X56594121Y-61142900D01*
X56603529Y-61132375D01*
X57034247Y-60701657D01*
X57042537Y-60694113D01*
X57049018Y-60690000D01*
X57095659Y-60640332D01*
X57098413Y-60637491D01*
X57118135Y-60617769D01*
X57120612Y-60614576D01*
X57128317Y-60605555D01*
X57153159Y-60579100D01*
X57158586Y-60573321D01*
X57162407Y-60566371D01*
X57168346Y-60555568D01*
X57179202Y-60539041D01*
X57186757Y-60529302D01*
X57186758Y-60529300D01*
X57191614Y-60523040D01*
X57209174Y-60482460D01*
X57214391Y-60471812D01*
X57231875Y-60440009D01*
X57231876Y-60440007D01*
X57235695Y-60433060D01*
X57240733Y-60413437D01*
X57247137Y-60394734D01*
X57252033Y-60383420D01*
X57252033Y-60383419D01*
X57255181Y-60376145D01*
X57256420Y-60368322D01*
X57256423Y-60368312D01*
X57262099Y-60332476D01*
X57264505Y-60320856D01*
X57273528Y-60285711D01*
X57273528Y-60285710D01*
X57275500Y-60278030D01*
X57275500Y-60257776D01*
X57277051Y-60238065D01*
X57278980Y-60225886D01*
X57280220Y-60218057D01*
X57276059Y-60174038D01*
X57275500Y-60162181D01*
X57275500Y-58244767D01*
X57276027Y-58233584D01*
X57277702Y-58226091D01*
X57277030Y-58204697D01*
X57275562Y-58158014D01*
X57275500Y-58154055D01*
X57275500Y-58126144D01*
X57274995Y-58122144D01*
X57274062Y-58110301D01*
X57273881Y-58104522D01*
X57272673Y-58066111D01*
X57267021Y-58046657D01*
X57263013Y-58027300D01*
X57261468Y-58015070D01*
X57261468Y-58015069D01*
X57260474Y-58007203D01*
X57253036Y-57988417D01*
X57244196Y-57966088D01*
X57240351Y-57954858D01*
X57230229Y-57920017D01*
X57230229Y-57920016D01*
X57228018Y-57912407D01*
X57223985Y-57905588D01*
X57223983Y-57905583D01*
X57217707Y-57894972D01*
X57209012Y-57877224D01*
X57201552Y-57858383D01*
X57175564Y-57822613D01*
X57169048Y-57812693D01*
X57150580Y-57781465D01*
X57150578Y-57781462D01*
X57146542Y-57774638D01*
X57132221Y-57760317D01*
X57119380Y-57745283D01*
X57112131Y-57735306D01*
X57107472Y-57728893D01*
X57073395Y-57700702D01*
X57064616Y-57692712D01*
X54794652Y-55422747D01*
X54787112Y-55414461D01*
X54783000Y-55407982D01*
X54733348Y-55361356D01*
X54730507Y-55358602D01*
X54710770Y-55338865D01*
X54707573Y-55336385D01*
X54698551Y-55328680D01*
X54672100Y-55303841D01*
X54666321Y-55298414D01*
X54659375Y-55294595D01*
X54659372Y-55294593D01*
X54648566Y-55288652D01*
X54632047Y-55277801D01*
X54631583Y-55277441D01*
X54616041Y-55265386D01*
X54608772Y-55262241D01*
X54608768Y-55262238D01*
X54575463Y-55247826D01*
X54564813Y-55242609D01*
X54526060Y-55221305D01*
X54506437Y-55216267D01*
X54487734Y-55209863D01*
X54476420Y-55204967D01*
X54476419Y-55204967D01*
X54469145Y-55201819D01*
X54461322Y-55200580D01*
X54461312Y-55200577D01*
X54425476Y-55194901D01*
X54413856Y-55192495D01*
X54378711Y-55183472D01*
X54378710Y-55183472D01*
X54371030Y-55181500D01*
X54350776Y-55181500D01*
X54331065Y-55179949D01*
X54318886Y-55178020D01*
X54311057Y-55176780D01*
X54303165Y-55177526D01*
X54267039Y-55180941D01*
X54255181Y-55181500D01*
X54017500Y-55181500D01*
X53949379Y-55161498D01*
X53902886Y-55107842D01*
X53891500Y-55055500D01*
X53891500Y-54923498D01*
X53888562Y-54886169D01*
X53842145Y-54726399D01*
X53838108Y-54719573D01*
X53837735Y-54718711D01*
X53829036Y-54648250D01*
X53844252Y-54605668D01*
X53917223Y-54479279D01*
X53917224Y-54479278D01*
X53920527Y-54473556D01*
X53979542Y-54291928D01*
X53981541Y-54272914D01*
X53998814Y-54108565D01*
X53999504Y-54102000D01*
X53980287Y-53919159D01*
X53993059Y-53849321D01*
X54038082Y-53799605D01*
X54102344Y-53758822D01*
X54104880Y-53757255D01*
X54174598Y-53715364D01*
X54179555Y-53710677D01*
X54182212Y-53708660D01*
X54182958Y-53708142D01*
X54186891Y-53705167D01*
X54191248Y-53702402D01*
X54195521Y-53698581D01*
X54249499Y-53644603D01*
X54252021Y-53642149D01*
X54305169Y-53591890D01*
X54305171Y-53591888D01*
X54310125Y-53587203D01*
X54313960Y-53581561D01*
X54318383Y-53576363D01*
X54318779Y-53576700D01*
X54325393Y-53568709D01*
X55919776Y-51974326D01*
X55927543Y-51967183D01*
X55943615Y-51953601D01*
X55967367Y-51933529D01*
X55990891Y-51902761D01*
X56016710Y-51868992D01*
X56018609Y-51866571D01*
X56065232Y-51808582D01*
X56065233Y-51808580D01*
X56069509Y-51803262D01*
X56072543Y-51797150D01*
X56074330Y-51794356D01*
X56074582Y-51793996D01*
X56074785Y-51793627D01*
X56076517Y-51790766D01*
X56080660Y-51785348D01*
X56114993Y-51711721D01*
X56116327Y-51708949D01*
X56119717Y-51702121D01*
X56152447Y-51636186D01*
X56154098Y-51629565D01*
X56155249Y-51626437D01*
X56155413Y-51626044D01*
X56155532Y-51625639D01*
X56156609Y-51622475D01*
X56159490Y-51616296D01*
X56177215Y-51536998D01*
X56177924Y-51534002D01*
X56195921Y-51461821D01*
X56195921Y-51461820D01*
X56197572Y-51455199D01*
X56197763Y-51448378D01*
X56198215Y-51445075D01*
X56198374Y-51444191D01*
X56199052Y-51439308D01*
X56200180Y-51434260D01*
X56200500Y-51428537D01*
X56200500Y-51352156D01*
X56200549Y-51348637D01*
X56202590Y-51275563D01*
X56202781Y-51268743D01*
X56201502Y-51262039D01*
X56200955Y-51255238D01*
X56201475Y-51255196D01*
X56200500Y-51244875D01*
X56200500Y-48887000D01*
X56220502Y-48818879D01*
X56274158Y-48772386D01*
X56326500Y-48761000D01*
X56704110Y-48761000D01*
X56714652Y-48761442D01*
X56766599Y-48765804D01*
X56773359Y-48764902D01*
X56773361Y-48764902D01*
X56847102Y-48755063D01*
X56850157Y-48754693D01*
X56882389Y-48751191D01*
X56930937Y-48745917D01*
X56937401Y-48743742D01*
X56940676Y-48743022D01*
X56941072Y-48742952D01*
X56941496Y-48742829D01*
X56944716Y-48742038D01*
X56951489Y-48741134D01*
X57027823Y-48713351D01*
X57030698Y-48712344D01*
X57049273Y-48706093D01*
X57107723Y-48686422D01*
X57113577Y-48682904D01*
X57116584Y-48681515D01*
X57116989Y-48681348D01*
X57117365Y-48681143D01*
X57120352Y-48679673D01*
X57126768Y-48677338D01*
X57195420Y-48633770D01*
X57197889Y-48632245D01*
X57267609Y-48590353D01*
X57272566Y-48585666D01*
X57275223Y-48583649D01*
X57275969Y-48583131D01*
X57279902Y-48580156D01*
X57284259Y-48577391D01*
X57288532Y-48573570D01*
X57342510Y-48519592D01*
X57345032Y-48517138D01*
X57398180Y-48466879D01*
X57398182Y-48466877D01*
X57403136Y-48462192D01*
X57406971Y-48456550D01*
X57411394Y-48451352D01*
X57411790Y-48451689D01*
X57418404Y-48443698D01*
X58743776Y-47118326D01*
X58751539Y-47111186D01*
X58759837Y-47104174D01*
X58824779Y-47075485D01*
X58894922Y-47086460D01*
X58947997Y-47133615D01*
X58967152Y-47201978D01*
X58958793Y-47245568D01*
X58930158Y-47320166D01*
X58896648Y-47407463D01*
X58888639Y-47428326D01*
X58793459Y-47783541D01*
X58768373Y-47941928D01*
X58738700Y-48129279D01*
X58735931Y-48146759D01*
X58716685Y-48514000D01*
X58735931Y-48881241D01*
X58736444Y-48884481D01*
X58736445Y-48884489D01*
X58759241Y-49028417D01*
X58793459Y-49244459D01*
X58888639Y-49599674D01*
X59020427Y-49942994D01*
X59021925Y-49945934D01*
X59104725Y-50108437D01*
X59187380Y-50270657D01*
X59387668Y-50579075D01*
X59619098Y-50864867D01*
X59879133Y-51124902D01*
X60164925Y-51356332D01*
X60167700Y-51358134D01*
X60443127Y-51536998D01*
X60473342Y-51556620D01*
X60476276Y-51558115D01*
X60476283Y-51558119D01*
X60772305Y-51708949D01*
X60801006Y-51723573D01*
X61144326Y-51855361D01*
X61499541Y-51950541D01*
X61649714Y-51974326D01*
X61859511Y-52007555D01*
X61859519Y-52007556D01*
X61862759Y-52008069D01*
X62230000Y-52027315D01*
X62597241Y-52008069D01*
X62600481Y-52007556D01*
X62600489Y-52007555D01*
X62810286Y-51974326D01*
X62960459Y-51950541D01*
X63315674Y-51855361D01*
X63658994Y-51723573D01*
X63687695Y-51708949D01*
X63983717Y-51558119D01*
X63983724Y-51558115D01*
X63986658Y-51556620D01*
X64016874Y-51536998D01*
X64292300Y-51358134D01*
X64295075Y-51356332D01*
X64580867Y-51124902D01*
X64840902Y-50864867D01*
X65072332Y-50579075D01*
X65272620Y-50270657D01*
X65355276Y-50108437D01*
X65438075Y-49945934D01*
X65439573Y-49942994D01*
X65571361Y-49599674D01*
X65666541Y-49244459D01*
X65700759Y-49028417D01*
X65723555Y-48884489D01*
X65723556Y-48884481D01*
X65724069Y-48881241D01*
X65743315Y-48514000D01*
X65724069Y-48146759D01*
X65721301Y-48129279D01*
X65691627Y-47941928D01*
X65666541Y-47783541D01*
X65571361Y-47428326D01*
X65563353Y-47407463D01*
X65484474Y-47201978D01*
X65439573Y-47085006D01*
X65380061Y-46968207D01*
X65274119Y-46760284D01*
X65274115Y-46760277D01*
X65272620Y-46757343D01*
X65267919Y-46750103D01*
X65106402Y-46501389D01*
X65072332Y-46448925D01*
X64840902Y-46163133D01*
X64580867Y-45903098D01*
X64295075Y-45671668D01*
X64029511Y-45499209D01*
X63989427Y-45473178D01*
X63989424Y-45473176D01*
X63986658Y-45471380D01*
X63983724Y-45469885D01*
X63983717Y-45469881D01*
X63661934Y-45305925D01*
X63658994Y-45304427D01*
X63315674Y-45172639D01*
X62960459Y-45077459D01*
X62767442Y-45046888D01*
X62600489Y-45020445D01*
X62600481Y-45020444D01*
X62597241Y-45019931D01*
X62230000Y-45000685D01*
X61862759Y-45019931D01*
X61859519Y-45020444D01*
X61859511Y-45020445D01*
X61692558Y-45046888D01*
X61499541Y-45077459D01*
X61144326Y-45172639D01*
X60801006Y-45304427D01*
X60798066Y-45305925D01*
X60476284Y-45469881D01*
X60476277Y-45469885D01*
X60473343Y-45471380D01*
X60470577Y-45473176D01*
X60470574Y-45473178D01*
X60430490Y-45499209D01*
X60164925Y-45671668D01*
X59879133Y-45903098D01*
X59619098Y-46163133D01*
X59387668Y-46448925D01*
X59290079Y-46599199D01*
X59255761Y-46652045D01*
X59201884Y-46698282D01*
X59131563Y-46708052D01*
X59067123Y-46678252D01*
X59029024Y-46618344D01*
X59024284Y-46576396D01*
X59024401Y-46574307D01*
X59024500Y-46572537D01*
X59024500Y-46496156D01*
X59024549Y-46492637D01*
X59024678Y-46488022D01*
X59026781Y-46412743D01*
X59025502Y-46406039D01*
X59024955Y-46399238D01*
X59025475Y-46399196D01*
X59024500Y-46388875D01*
X59024500Y-41777887D01*
X59044502Y-41709766D01*
X59090730Y-41669316D01*
X59089946Y-41668050D01*
X59234120Y-41578832D01*
X59240348Y-41574978D01*
X59365305Y-41449803D01*
X59387357Y-41414029D01*
X59454275Y-41305468D01*
X59454276Y-41305466D01*
X59458115Y-41299238D01*
X59513797Y-41131361D01*
X59524500Y-41026900D01*
X59524500Y-39726100D01*
X59524077Y-39722023D01*
X59514238Y-39627192D01*
X59514237Y-39627188D01*
X59513526Y-39620334D01*
X59479598Y-39518638D01*
X59459868Y-39459502D01*
X59457550Y-39452554D01*
X59364478Y-39302152D01*
X59239303Y-39177195D01*
X59224166Y-39167864D01*
X59146284Y-39119857D01*
X59088738Y-39084385D01*
X59081785Y-39082079D01*
X59080904Y-39081668D01*
X59027618Y-39034752D01*
X59008156Y-38966475D01*
X59028696Y-38898515D01*
X59046529Y-38878344D01*
X59045860Y-38877673D01*
X59200435Y-38723637D01*
X59204096Y-38719989D01*
X59263594Y-38637189D01*
X59331435Y-38542777D01*
X59334453Y-38538577D01*
X59347995Y-38511178D01*
X59431136Y-38342953D01*
X59431137Y-38342951D01*
X59433430Y-38338311D01*
X59498370Y-38124569D01*
X59527529Y-37903090D01*
X59529156Y-37836500D01*
X59510852Y-37613861D01*
X59456431Y-37397202D01*
X59367354Y-37192340D01*
X59246014Y-37004777D01*
X59095670Y-36839551D01*
X59091619Y-36836352D01*
X59091615Y-36836348D01*
X58924414Y-36704300D01*
X58924410Y-36704298D01*
X58920359Y-36701098D01*
X58724789Y-36593138D01*
X58719920Y-36591414D01*
X58719916Y-36591412D01*
X58519087Y-36520295D01*
X58519083Y-36520294D01*
X58514212Y-36518569D01*
X58509119Y-36517662D01*
X58509116Y-36517661D01*
X58299373Y-36480300D01*
X58299367Y-36480299D01*
X58294284Y-36479394D01*
X58220452Y-36478492D01*
X58076081Y-36476728D01*
X58076079Y-36476728D01*
X58070911Y-36476665D01*
X57850091Y-36510455D01*
X57637756Y-36579857D01*
X57439607Y-36683007D01*
X57435474Y-36686110D01*
X57435471Y-36686112D01*
X57265100Y-36814030D01*
X57260965Y-36817135D01*
X57106629Y-36978638D01*
X56999204Y-37136118D01*
X56998898Y-37136566D01*
X56943987Y-37181569D01*
X56873462Y-37189740D01*
X56809715Y-37158486D01*
X56789017Y-37134001D01*
X56759062Y-37087697D01*
X56748377Y-37078495D01*
X56738812Y-37082898D01*
X55998022Y-37823688D01*
X55990408Y-37837632D01*
X55990539Y-37839465D01*
X55994790Y-37846080D01*
X56736474Y-38587764D01*
X56748484Y-38594323D01*
X56760223Y-38585355D01*
X56794022Y-38538319D01*
X56795277Y-38539221D01*
X56842391Y-38495855D01*
X56912330Y-38483648D01*
X56977767Y-38511191D01*
X57005580Y-38543013D01*
X57063287Y-38637183D01*
X57063291Y-38637188D01*
X57065987Y-38641588D01*
X57212250Y-38810438D01*
X57282344Y-38868631D01*
X57321979Y-38927533D01*
X57323477Y-38998514D01*
X57286363Y-39059037D01*
X57255312Y-39079675D01*
X57248996Y-39082634D01*
X57242054Y-39084950D01*
X57091652Y-39178022D01*
X56966695Y-39303197D01*
X56962855Y-39309427D01*
X56962854Y-39309428D01*
X56919630Y-39379551D01*
X56873885Y-39453762D01*
X56871581Y-39460709D01*
X56849236Y-39528077D01*
X56808806Y-39586437D01*
X56782330Y-39602866D01*
X56738811Y-39622899D01*
X54872737Y-41488973D01*
X54865977Y-41501353D01*
X54871258Y-41508407D01*
X55032756Y-41602779D01*
X55042042Y-41607229D01*
X55241001Y-41683203D01*
X55250899Y-41686079D01*
X55346357Y-41705500D01*
X55409123Y-41738682D01*
X55443985Y-41800530D01*
X55439876Y-41871407D01*
X55410333Y-41918065D01*
X54698226Y-42630171D01*
X54281802Y-43046595D01*
X54219490Y-43080621D01*
X54192707Y-43083500D01*
X43983390Y-43083500D01*
X43972847Y-43083058D01*
X43920901Y-43078696D01*
X43914141Y-43079598D01*
X43914139Y-43079598D01*
X43840398Y-43089437D01*
X43837343Y-43089807D01*
X43805111Y-43093309D01*
X43756563Y-43098583D01*
X43750099Y-43100758D01*
X43746824Y-43101478D01*
X43746428Y-43101548D01*
X43746004Y-43101671D01*
X43742785Y-43102462D01*
X43736011Y-43103366D01*
X43659680Y-43131148D01*
X43656830Y-43132145D01*
X43586245Y-43155900D01*
X43586235Y-43155905D01*
X43579777Y-43158078D01*
X43573931Y-43161590D01*
X43570898Y-43162992D01*
X43570514Y-43163150D01*
X43570124Y-43163363D01*
X43567145Y-43164828D01*
X43560732Y-43167163D01*
X43554974Y-43170817D01*
X43554968Y-43170820D01*
X43492147Y-43210687D01*
X43489529Y-43212304D01*
X43425742Y-43250631D01*
X43425740Y-43250633D01*
X43419891Y-43254147D01*
X43414932Y-43258837D01*
X43412280Y-43260850D01*
X43411555Y-43261354D01*
X43407615Y-43264334D01*
X43403241Y-43267109D01*
X43398968Y-43270930D01*
X43344990Y-43324908D01*
X43342468Y-43327362D01*
X43284364Y-43382308D01*
X43280526Y-43387956D01*
X43276107Y-43393148D01*
X43275707Y-43392808D01*
X43269098Y-43400800D01*
X39808217Y-46861680D01*
X39800451Y-46868822D01*
X39760633Y-46902471D01*
X39756486Y-46907895D01*
X39756485Y-46907896D01*
X39711326Y-46966962D01*
X39709432Y-46969379D01*
X39658490Y-47032738D01*
X39655453Y-47038857D01*
X39653665Y-47041652D01*
X39653412Y-47042013D01*
X39653210Y-47042380D01*
X39651479Y-47045238D01*
X39647340Y-47050652D01*
X39629882Y-47088091D01*
X39613015Y-47124262D01*
X39611681Y-47127033D01*
X39575553Y-47199814D01*
X39573902Y-47206435D01*
X39572751Y-47209563D01*
X39572587Y-47209956D01*
X39572468Y-47210361D01*
X39571391Y-47213525D01*
X39568510Y-47219704D01*
X39567023Y-47226358D01*
X39550785Y-47299002D01*
X39550076Y-47301998D01*
X39530428Y-47380801D01*
X39530237Y-47387622D01*
X39529785Y-47390925D01*
X39529626Y-47391809D01*
X39528948Y-47396692D01*
X39527820Y-47401740D01*
X39527500Y-47407463D01*
X39527500Y-47483844D01*
X39527451Y-47487363D01*
X39525219Y-47567257D01*
X39526498Y-47573961D01*
X39527045Y-47580762D01*
X39526525Y-47580804D01*
X39527500Y-47591125D01*
X39527500Y-54822610D01*
X39527058Y-54833152D01*
X39522696Y-54885099D01*
X39523598Y-54891859D01*
X39523598Y-54891861D01*
X39533437Y-54965602D01*
X39533807Y-54968657D01*
X39535525Y-54984466D01*
X39542583Y-55049437D01*
X39544758Y-55055901D01*
X39545478Y-55059176D01*
X39545548Y-55059572D01*
X39545671Y-55059996D01*
X39546462Y-55063216D01*
X39547366Y-55069989D01*
X39575139Y-55146294D01*
X39576156Y-55149198D01*
X39602078Y-55226223D01*
X39605596Y-55232077D01*
X39606985Y-55235084D01*
X39607152Y-55235489D01*
X39607357Y-55235865D01*
X39608827Y-55238852D01*
X39611162Y-55245268D01*
X39654730Y-55313920D01*
X39656255Y-55316389D01*
X39698147Y-55386109D01*
X39702834Y-55391066D01*
X39704851Y-55393723D01*
X39705369Y-55394469D01*
X39708344Y-55398402D01*
X39711109Y-55402759D01*
X39714930Y-55407032D01*
X39768908Y-55461010D01*
X39771362Y-55463532D01*
X39826308Y-55521636D01*
X39831950Y-55525471D01*
X39837148Y-55529894D01*
X39836811Y-55530290D01*
X39844802Y-55536904D01*
X40700674Y-56392776D01*
X40707816Y-56400542D01*
X40741471Y-56440367D01*
X40746890Y-56444511D01*
X40746892Y-56444512D01*
X40749384Y-56446417D01*
X40806017Y-56489717D01*
X40808419Y-56491601D01*
X40866416Y-56538232D01*
X40866422Y-56538236D01*
X40866688Y-56538450D01*
X40866691Y-56538453D01*
X40871738Y-56542511D01*
X40871010Y-56543416D01*
X40913214Y-56591903D01*
X40923474Y-56662154D01*
X40894125Y-56726800D01*
X40834484Y-56765317D01*
X40798717Y-56770500D01*
X40718767Y-56770500D01*
X40707584Y-56769973D01*
X40700091Y-56768298D01*
X40692165Y-56768547D01*
X40692164Y-56768547D01*
X40632001Y-56770438D01*
X40628043Y-56770500D01*
X40600144Y-56770500D01*
X40596154Y-56771004D01*
X40584320Y-56771936D01*
X40540111Y-56773326D01*
X40532497Y-56775538D01*
X40532492Y-56775539D01*
X40520659Y-56778977D01*
X40501296Y-56782988D01*
X40481203Y-56785526D01*
X40473836Y-56788443D01*
X40473831Y-56788444D01*
X40440092Y-56801802D01*
X40428865Y-56805646D01*
X40386407Y-56817982D01*
X40379581Y-56822019D01*
X40368972Y-56828293D01*
X40351224Y-56836988D01*
X40332383Y-56844448D01*
X40325967Y-56849110D01*
X40325966Y-56849110D01*
X40296613Y-56870436D01*
X40286693Y-56876952D01*
X40255465Y-56895420D01*
X40255462Y-56895422D01*
X40248638Y-56899458D01*
X40234317Y-56913779D01*
X40219284Y-56926619D01*
X40202893Y-56938528D01*
X40176516Y-56970413D01*
X40174712Y-56972593D01*
X40166722Y-56981374D01*
X39709742Y-57438353D01*
X39701463Y-57445887D01*
X39694982Y-57450000D01*
X39652544Y-57495192D01*
X39648357Y-57499651D01*
X39645602Y-57502493D01*
X39625865Y-57522230D01*
X39623385Y-57525427D01*
X39615682Y-57534447D01*
X39585414Y-57566679D01*
X39581595Y-57573625D01*
X39581593Y-57573628D01*
X39575652Y-57584434D01*
X39564801Y-57600953D01*
X39552386Y-57616959D01*
X39549241Y-57624228D01*
X39549238Y-57624232D01*
X39534826Y-57657537D01*
X39529609Y-57668187D01*
X39508305Y-57706940D01*
X39506334Y-57714615D01*
X39506334Y-57714616D01*
X39503267Y-57726562D01*
X39496863Y-57745266D01*
X39488819Y-57763855D01*
X39487580Y-57771678D01*
X39487577Y-57771688D01*
X39481901Y-57807524D01*
X39479495Y-57819144D01*
X39477602Y-57826518D01*
X39468500Y-57861970D01*
X39468500Y-57873803D01*
X39467634Y-57876751D01*
X39467507Y-57877760D01*
X39467344Y-57877739D01*
X39448498Y-57941924D01*
X39394842Y-57988417D01*
X39382380Y-57993325D01*
X39328054Y-58011450D01*
X39177652Y-58104522D01*
X39172479Y-58109704D01*
X39166742Y-58114251D01*
X39165663Y-58112890D01*
X39111391Y-58142587D01*
X39040571Y-58137584D01*
X38983698Y-58095088D01*
X38958829Y-58028589D01*
X38958500Y-58019490D01*
X38958500Y-48069732D01*
X38964667Y-48030795D01*
X38993542Y-47941928D01*
X39002826Y-47853602D01*
X39012814Y-47758565D01*
X39013504Y-47752000D01*
X39001376Y-47636604D01*
X38994232Y-47568635D01*
X38994232Y-47568633D01*
X38993542Y-47562072D01*
X38934527Y-47380444D01*
X38839040Y-47215056D01*
X38795498Y-47166697D01*
X38715675Y-47078045D01*
X38715674Y-47078044D01*
X38711253Y-47073134D01*
X38596817Y-46989991D01*
X38562094Y-46964763D01*
X38562093Y-46964762D01*
X38556752Y-46960882D01*
X38550724Y-46958198D01*
X38550722Y-46958197D01*
X38388319Y-46885891D01*
X38388318Y-46885891D01*
X38382288Y-46883206D01*
X38281017Y-46861680D01*
X38201944Y-46844872D01*
X38201939Y-46844872D01*
X38195487Y-46843500D01*
X38004513Y-46843500D01*
X37998061Y-46844872D01*
X37998056Y-46844872D01*
X37918983Y-46861680D01*
X37817712Y-46883206D01*
X37811682Y-46885891D01*
X37811681Y-46885891D01*
X37649278Y-46958197D01*
X37649276Y-46958198D01*
X37643248Y-46960882D01*
X37637907Y-46964762D01*
X37637906Y-46964763D01*
X37603183Y-46989991D01*
X37488747Y-47073134D01*
X37484326Y-47078044D01*
X37484325Y-47078045D01*
X37404503Y-47166697D01*
X37360960Y-47215056D01*
X37265473Y-47380444D01*
X37206458Y-47562072D01*
X37205768Y-47568633D01*
X37205768Y-47568635D01*
X37198624Y-47636604D01*
X37186496Y-47752000D01*
X32004000Y-47752000D01*
X32004000Y-40343195D01*
X39023251Y-40343195D01*
X39023548Y-40348348D01*
X39023548Y-40348351D01*
X39025910Y-40389312D01*
X39036110Y-40566215D01*
X39037247Y-40571261D01*
X39037248Y-40571267D01*
X39058275Y-40664569D01*
X39085222Y-40784139D01*
X39169266Y-40991116D01*
X39220942Y-41075444D01*
X39283291Y-41177188D01*
X39285987Y-41181588D01*
X39432250Y-41350438D01*
X39604126Y-41493132D01*
X39797000Y-41605838D01*
X40005692Y-41685530D01*
X40010760Y-41686561D01*
X40010763Y-41686562D01*
X40103847Y-41705500D01*
X40224597Y-41730067D01*
X40229772Y-41730257D01*
X40229774Y-41730257D01*
X40442673Y-41738064D01*
X40442677Y-41738064D01*
X40447837Y-41738253D01*
X40452957Y-41737597D01*
X40452959Y-41737597D01*
X40664288Y-41710525D01*
X40664289Y-41710525D01*
X40669416Y-41709868D01*
X40674366Y-41708383D01*
X40878429Y-41647161D01*
X40878434Y-41647159D01*
X40883384Y-41645674D01*
X41083994Y-41547396D01*
X41265860Y-41417673D01*
X41424096Y-41259989D01*
X41483594Y-41177189D01*
X41554453Y-41078577D01*
X41555776Y-41079528D01*
X41602645Y-41036357D01*
X41672580Y-41024125D01*
X41738026Y-41051644D01*
X41765875Y-41083494D01*
X41825987Y-41181588D01*
X41972250Y-41350438D01*
X42144126Y-41493132D01*
X42337000Y-41605838D01*
X42545692Y-41685530D01*
X42550760Y-41686561D01*
X42550763Y-41686562D01*
X42643847Y-41705500D01*
X42764597Y-41730067D01*
X42769772Y-41730257D01*
X42769774Y-41730257D01*
X42982673Y-41738064D01*
X42982677Y-41738064D01*
X42987837Y-41738253D01*
X42992957Y-41737597D01*
X42992959Y-41737597D01*
X43204288Y-41710525D01*
X43204289Y-41710525D01*
X43209416Y-41709868D01*
X43214366Y-41708383D01*
X43418429Y-41647161D01*
X43418434Y-41647159D01*
X43423384Y-41645674D01*
X43623994Y-41547396D01*
X43805860Y-41417673D01*
X43964096Y-41259989D01*
X44023594Y-41177189D01*
X44094453Y-41078577D01*
X44095776Y-41079528D01*
X44142645Y-41036357D01*
X44212580Y-41024125D01*
X44278026Y-41051644D01*
X44305875Y-41083494D01*
X44365987Y-41181588D01*
X44512250Y-41350438D01*
X44684126Y-41493132D01*
X44877000Y-41605838D01*
X45085692Y-41685530D01*
X45090760Y-41686561D01*
X45090763Y-41686562D01*
X45183847Y-41705500D01*
X45304597Y-41730067D01*
X45309772Y-41730257D01*
X45309774Y-41730257D01*
X45522673Y-41738064D01*
X45522677Y-41738064D01*
X45527837Y-41738253D01*
X45532957Y-41737597D01*
X45532959Y-41737597D01*
X45744288Y-41710525D01*
X45744289Y-41710525D01*
X45749416Y-41709868D01*
X45754366Y-41708383D01*
X45958429Y-41647161D01*
X45958434Y-41647159D01*
X45963384Y-41645674D01*
X46163994Y-41547396D01*
X46345860Y-41417673D01*
X46504096Y-41259989D01*
X46563594Y-41177189D01*
X46634453Y-41078577D01*
X46635776Y-41079528D01*
X46682645Y-41036357D01*
X46752580Y-41024125D01*
X46818026Y-41051644D01*
X46845875Y-41083494D01*
X46905987Y-41181588D01*
X47052250Y-41350438D01*
X47224126Y-41493132D01*
X47417000Y-41605838D01*
X47625692Y-41685530D01*
X47630760Y-41686561D01*
X47630763Y-41686562D01*
X47723847Y-41705500D01*
X47844597Y-41730067D01*
X47849772Y-41730257D01*
X47849774Y-41730257D01*
X48062673Y-41738064D01*
X48062677Y-41738064D01*
X48067837Y-41738253D01*
X48072957Y-41737597D01*
X48072959Y-41737597D01*
X48284288Y-41710525D01*
X48284289Y-41710525D01*
X48289416Y-41709868D01*
X48294366Y-41708383D01*
X48498429Y-41647161D01*
X48498434Y-41647159D01*
X48503384Y-41645674D01*
X48703994Y-41547396D01*
X48768544Y-41501353D01*
X49785977Y-41501353D01*
X49791258Y-41508407D01*
X49952756Y-41602779D01*
X49962042Y-41607229D01*
X50161001Y-41683203D01*
X50170899Y-41686079D01*
X50379595Y-41728538D01*
X50389823Y-41729757D01*
X50602650Y-41737562D01*
X50612936Y-41737095D01*
X50824185Y-41710034D01*
X50834262Y-41707892D01*
X51038255Y-41646691D01*
X51047842Y-41642933D01*
X51239098Y-41549238D01*
X51247944Y-41543965D01*
X51295247Y-41510223D01*
X51302211Y-41501353D01*
X52325977Y-41501353D01*
X52331258Y-41508407D01*
X52492756Y-41602779D01*
X52502042Y-41607229D01*
X52701001Y-41683203D01*
X52710899Y-41686079D01*
X52919595Y-41728538D01*
X52929823Y-41729757D01*
X53142650Y-41737562D01*
X53152936Y-41737095D01*
X53364185Y-41710034D01*
X53374262Y-41707892D01*
X53578255Y-41646691D01*
X53587842Y-41642933D01*
X53779098Y-41549238D01*
X53787944Y-41543965D01*
X53835247Y-41510223D01*
X53843648Y-41499523D01*
X53836660Y-41486370D01*
X53098812Y-40748522D01*
X53084868Y-40740908D01*
X53083035Y-40741039D01*
X53076420Y-40745290D01*
X52332737Y-41488973D01*
X52325977Y-41501353D01*
X51302211Y-41501353D01*
X51303648Y-41499523D01*
X51296660Y-41486370D01*
X50558812Y-40748522D01*
X50544868Y-40740908D01*
X50543035Y-40741039D01*
X50536420Y-40745290D01*
X49792737Y-41488973D01*
X49785977Y-41501353D01*
X48768544Y-41501353D01*
X48885860Y-41417673D01*
X49044096Y-41259989D01*
X49103594Y-41177189D01*
X49174453Y-41078577D01*
X49175640Y-41079430D01*
X49222960Y-41035862D01*
X49292897Y-41023645D01*
X49358338Y-41051178D01*
X49386166Y-41083012D01*
X49412459Y-41125919D01*
X49422916Y-41135380D01*
X49431694Y-41131596D01*
X50173978Y-40389312D01*
X50180356Y-40377632D01*
X50910408Y-40377632D01*
X50910539Y-40379465D01*
X50914790Y-40386080D01*
X51656474Y-41127764D01*
X51668484Y-41134323D01*
X51680223Y-41125355D01*
X51714022Y-41078319D01*
X51715149Y-41079129D01*
X51762659Y-41035381D01*
X51832596Y-41023161D01*
X51898038Y-41050691D01*
X51925870Y-41082529D01*
X51952459Y-41125919D01*
X51962916Y-41135380D01*
X51971694Y-41131596D01*
X52713978Y-40389312D01*
X52720356Y-40377632D01*
X53450408Y-40377632D01*
X53450539Y-40379465D01*
X53454790Y-40386080D01*
X54196474Y-41127764D01*
X54208484Y-41134323D01*
X54220223Y-41125355D01*
X54254022Y-41078319D01*
X54255149Y-41079129D01*
X54302659Y-41035381D01*
X54372596Y-41023161D01*
X54438038Y-41050691D01*
X54465870Y-41082529D01*
X54492459Y-41125919D01*
X54502916Y-41135380D01*
X54511694Y-41131596D01*
X55253978Y-40389312D01*
X55261592Y-40375368D01*
X55261461Y-40373535D01*
X55257210Y-40366920D01*
X54515849Y-39625559D01*
X54504313Y-39619259D01*
X54492028Y-39628884D01*
X54459192Y-39677020D01*
X54404281Y-39722023D01*
X54333756Y-39730194D01*
X54270009Y-39698940D01*
X54249311Y-39674455D01*
X54219062Y-39627697D01*
X54208377Y-39618495D01*
X54198812Y-39622898D01*
X53458022Y-40363688D01*
X53450408Y-40377632D01*
X52720356Y-40377632D01*
X52721592Y-40375368D01*
X52721461Y-40373535D01*
X52717210Y-40366920D01*
X51975849Y-39625559D01*
X51964313Y-39619259D01*
X51952028Y-39628884D01*
X51919192Y-39677020D01*
X51864281Y-39722023D01*
X51793756Y-39730194D01*
X51730009Y-39698940D01*
X51709311Y-39674455D01*
X51679062Y-39627697D01*
X51668377Y-39618495D01*
X51658812Y-39622898D01*
X50918022Y-40363688D01*
X50910408Y-40377632D01*
X50180356Y-40377632D01*
X50181592Y-40375368D01*
X50181461Y-40373535D01*
X50177210Y-40366920D01*
X49435849Y-39625559D01*
X49424313Y-39619259D01*
X49412031Y-39628882D01*
X49379499Y-39676572D01*
X49324587Y-39721575D01*
X49254063Y-39729746D01*
X49190316Y-39698492D01*
X49169618Y-39674008D01*
X49088822Y-39549117D01*
X49088820Y-39549114D01*
X49086014Y-39544777D01*
X48935670Y-39379551D01*
X48931619Y-39376352D01*
X48931615Y-39376348D01*
X48764414Y-39244300D01*
X48764410Y-39244298D01*
X48760359Y-39241098D01*
X48719053Y-39218296D01*
X48669084Y-39167864D01*
X48654312Y-39098421D01*
X48679428Y-39032016D01*
X48706780Y-39005409D01*
X48768544Y-38961353D01*
X49785977Y-38961353D01*
X49791258Y-38968407D01*
X49838479Y-38996001D01*
X49887203Y-39047639D01*
X49900274Y-39117422D01*
X49873543Y-39183194D01*
X49833087Y-39216553D01*
X49824466Y-39221041D01*
X49815734Y-39226539D01*
X49795677Y-39241599D01*
X49787223Y-39252927D01*
X49793968Y-39265258D01*
X50533188Y-40004478D01*
X50547132Y-40012092D01*
X50548965Y-40011961D01*
X50555580Y-40007710D01*
X51299389Y-39263901D01*
X51306410Y-39251044D01*
X51299611Y-39241713D01*
X51295559Y-39239021D01*
X51258116Y-39218352D01*
X51208145Y-39167920D01*
X51193373Y-39098477D01*
X51218489Y-39032072D01*
X51245840Y-39005465D01*
X51295247Y-38970223D01*
X51302211Y-38961353D01*
X52325977Y-38961353D01*
X52331258Y-38968407D01*
X52378479Y-38996001D01*
X52427203Y-39047639D01*
X52440274Y-39117422D01*
X52413543Y-39183194D01*
X52373087Y-39216553D01*
X52364466Y-39221041D01*
X52355734Y-39226539D01*
X52335677Y-39241599D01*
X52327223Y-39252927D01*
X52333968Y-39265258D01*
X53073188Y-40004478D01*
X53087132Y-40012092D01*
X53088965Y-40011961D01*
X53095580Y-40007710D01*
X53839389Y-39263901D01*
X53846410Y-39251044D01*
X53839611Y-39241713D01*
X53835559Y-39239021D01*
X53798116Y-39218352D01*
X53748145Y-39167920D01*
X53733373Y-39098477D01*
X53758489Y-39032072D01*
X53785840Y-39005465D01*
X53835247Y-38970223D01*
X53842211Y-38961353D01*
X54865977Y-38961353D01*
X54871258Y-38968407D01*
X54918479Y-38996001D01*
X54967203Y-39047639D01*
X54980274Y-39117422D01*
X54953543Y-39183194D01*
X54913087Y-39216553D01*
X54904466Y-39221041D01*
X54895734Y-39226539D01*
X54875677Y-39241599D01*
X54867223Y-39252927D01*
X54873968Y-39265258D01*
X55613188Y-40004478D01*
X55627132Y-40012092D01*
X55628965Y-40011961D01*
X55635580Y-40007710D01*
X56379389Y-39263901D01*
X56386410Y-39251044D01*
X56379611Y-39241713D01*
X56375559Y-39239021D01*
X56338116Y-39218352D01*
X56288145Y-39167920D01*
X56273373Y-39098477D01*
X56298489Y-39032072D01*
X56325840Y-39005465D01*
X56375247Y-38970223D01*
X56383648Y-38959523D01*
X56376660Y-38946370D01*
X55638812Y-38208522D01*
X55624868Y-38200908D01*
X55623035Y-38201039D01*
X55616420Y-38205290D01*
X54872737Y-38948973D01*
X54865977Y-38961353D01*
X53842211Y-38961353D01*
X53843648Y-38959523D01*
X53836660Y-38946370D01*
X53098812Y-38208522D01*
X53084868Y-38200908D01*
X53083035Y-38201039D01*
X53076420Y-38205290D01*
X52332737Y-38948973D01*
X52325977Y-38961353D01*
X51302211Y-38961353D01*
X51303648Y-38959523D01*
X51296660Y-38946370D01*
X50558812Y-38208522D01*
X50544868Y-38200908D01*
X50543035Y-38201039D01*
X50536420Y-38205290D01*
X49792737Y-38948973D01*
X49785977Y-38961353D01*
X48768544Y-38961353D01*
X48771110Y-38959523D01*
X48885860Y-38877673D01*
X49044096Y-38719989D01*
X49103594Y-38637189D01*
X49174453Y-38538577D01*
X49175640Y-38539430D01*
X49222960Y-38495862D01*
X49292897Y-38483645D01*
X49358338Y-38511178D01*
X49386166Y-38543012D01*
X49412459Y-38585919D01*
X49422916Y-38595380D01*
X49431694Y-38591596D01*
X50173978Y-37849312D01*
X50180356Y-37837632D01*
X50910408Y-37837632D01*
X50910539Y-37839465D01*
X50914790Y-37846080D01*
X51656474Y-38587764D01*
X51668484Y-38594323D01*
X51680223Y-38585355D01*
X51714022Y-38538319D01*
X51715149Y-38539129D01*
X51762659Y-38495381D01*
X51832596Y-38483161D01*
X51898038Y-38510691D01*
X51925870Y-38542529D01*
X51952459Y-38585919D01*
X51962916Y-38595380D01*
X51971694Y-38591596D01*
X52713978Y-37849312D01*
X52720356Y-37837632D01*
X53450408Y-37837632D01*
X53450539Y-37839465D01*
X53454790Y-37846080D01*
X54196474Y-38587764D01*
X54208484Y-38594323D01*
X54220223Y-38585355D01*
X54254022Y-38538319D01*
X54255149Y-38539129D01*
X54302659Y-38495381D01*
X54372596Y-38483161D01*
X54438038Y-38510691D01*
X54465870Y-38542529D01*
X54492459Y-38585919D01*
X54502916Y-38595380D01*
X54511694Y-38591596D01*
X55253978Y-37849312D01*
X55261592Y-37835368D01*
X55261461Y-37833535D01*
X55257210Y-37826920D01*
X54515849Y-37085559D01*
X54504313Y-37079259D01*
X54492028Y-37088884D01*
X54459192Y-37137020D01*
X54404281Y-37182023D01*
X54333756Y-37190194D01*
X54270009Y-37158940D01*
X54249311Y-37134455D01*
X54219062Y-37087697D01*
X54208377Y-37078495D01*
X54198812Y-37082898D01*
X53458022Y-37823688D01*
X53450408Y-37837632D01*
X52720356Y-37837632D01*
X52721592Y-37835368D01*
X52721461Y-37833535D01*
X52717210Y-37826920D01*
X51975849Y-37085559D01*
X51964313Y-37079259D01*
X51952028Y-37088884D01*
X51919192Y-37137020D01*
X51864281Y-37182023D01*
X51793756Y-37190194D01*
X51730009Y-37158940D01*
X51709311Y-37134455D01*
X51679062Y-37087697D01*
X51668377Y-37078495D01*
X51658812Y-37082898D01*
X50918022Y-37823688D01*
X50910408Y-37837632D01*
X50180356Y-37837632D01*
X50181592Y-37835368D01*
X50181461Y-37833535D01*
X50177210Y-37826920D01*
X49435849Y-37085559D01*
X49424313Y-37079259D01*
X49412031Y-37088882D01*
X49379499Y-37136572D01*
X49324587Y-37181575D01*
X49254063Y-37189746D01*
X49190316Y-37158492D01*
X49169618Y-37134008D01*
X49088822Y-37009117D01*
X49088820Y-37009114D01*
X49086014Y-37004777D01*
X48935670Y-36839551D01*
X48931619Y-36836352D01*
X48931615Y-36836348D01*
X48775338Y-36712927D01*
X49787223Y-36712927D01*
X49793968Y-36725258D01*
X50533188Y-37464478D01*
X50547132Y-37472092D01*
X50548965Y-37471961D01*
X50555580Y-37467710D01*
X51299389Y-36723901D01*
X51305382Y-36712927D01*
X52327223Y-36712927D01*
X52333968Y-36725258D01*
X53073188Y-37464478D01*
X53087132Y-37472092D01*
X53088965Y-37471961D01*
X53095580Y-37467710D01*
X53839389Y-36723901D01*
X53845382Y-36712927D01*
X54867223Y-36712927D01*
X54873968Y-36725258D01*
X55613188Y-37464478D01*
X55627132Y-37472092D01*
X55628965Y-37471961D01*
X55635580Y-37467710D01*
X56379389Y-36723901D01*
X56386410Y-36711044D01*
X56379611Y-36701713D01*
X56375554Y-36699018D01*
X56189117Y-36596099D01*
X56179705Y-36591869D01*
X55978959Y-36520780D01*
X55968989Y-36518146D01*
X55759327Y-36480801D01*
X55749073Y-36479831D01*
X55536116Y-36477228D01*
X55525832Y-36477948D01*
X55315321Y-36510161D01*
X55305293Y-36512550D01*
X55102868Y-36578712D01*
X55093359Y-36582709D01*
X54904466Y-36681040D01*
X54895734Y-36686539D01*
X54875677Y-36701599D01*
X54867223Y-36712927D01*
X53845382Y-36712927D01*
X53846410Y-36711044D01*
X53839611Y-36701713D01*
X53835554Y-36699018D01*
X53649117Y-36596099D01*
X53639705Y-36591869D01*
X53438959Y-36520780D01*
X53428989Y-36518146D01*
X53219327Y-36480801D01*
X53209073Y-36479831D01*
X52996116Y-36477228D01*
X52985832Y-36477948D01*
X52775321Y-36510161D01*
X52765293Y-36512550D01*
X52562868Y-36578712D01*
X52553359Y-36582709D01*
X52364466Y-36681040D01*
X52355734Y-36686539D01*
X52335677Y-36701599D01*
X52327223Y-36712927D01*
X51305382Y-36712927D01*
X51306410Y-36711044D01*
X51299611Y-36701713D01*
X51295554Y-36699018D01*
X51109117Y-36596099D01*
X51099705Y-36591869D01*
X50898959Y-36520780D01*
X50888989Y-36518146D01*
X50679327Y-36480801D01*
X50669073Y-36479831D01*
X50456116Y-36477228D01*
X50445832Y-36477948D01*
X50235321Y-36510161D01*
X50225293Y-36512550D01*
X50022868Y-36578712D01*
X50013359Y-36582709D01*
X49824466Y-36681040D01*
X49815734Y-36686539D01*
X49795677Y-36701599D01*
X49787223Y-36712927D01*
X48775338Y-36712927D01*
X48764414Y-36704300D01*
X48764410Y-36704298D01*
X48760359Y-36701098D01*
X48564789Y-36593138D01*
X48559920Y-36591414D01*
X48559916Y-36591412D01*
X48359087Y-36520295D01*
X48359083Y-36520294D01*
X48354212Y-36518569D01*
X48349119Y-36517662D01*
X48349116Y-36517661D01*
X48139373Y-36480300D01*
X48139367Y-36480299D01*
X48134284Y-36479394D01*
X48060452Y-36478492D01*
X47916081Y-36476728D01*
X47916079Y-36476728D01*
X47910911Y-36476665D01*
X47690091Y-36510455D01*
X47477756Y-36579857D01*
X47279607Y-36683007D01*
X47275474Y-36686110D01*
X47275471Y-36686112D01*
X47105100Y-36814030D01*
X47100965Y-36817135D01*
X46946629Y-36978638D01*
X46839201Y-37136121D01*
X46784293Y-37181121D01*
X46713768Y-37189292D01*
X46650021Y-37158038D01*
X46629324Y-37133554D01*
X46548822Y-37009117D01*
X46548820Y-37009114D01*
X46546014Y-37004777D01*
X46395670Y-36839551D01*
X46391619Y-36836352D01*
X46391615Y-36836348D01*
X46224414Y-36704300D01*
X46224410Y-36704298D01*
X46220359Y-36701098D01*
X46024789Y-36593138D01*
X46019920Y-36591414D01*
X46019916Y-36591412D01*
X45819087Y-36520295D01*
X45819083Y-36520294D01*
X45814212Y-36518569D01*
X45809119Y-36517662D01*
X45809116Y-36517661D01*
X45599373Y-36480300D01*
X45599367Y-36480299D01*
X45594284Y-36479394D01*
X45520452Y-36478492D01*
X45376081Y-36476728D01*
X45376079Y-36476728D01*
X45370911Y-36476665D01*
X45150091Y-36510455D01*
X44937756Y-36579857D01*
X44739607Y-36683007D01*
X44735474Y-36686110D01*
X44735471Y-36686112D01*
X44565100Y-36814030D01*
X44560965Y-36817135D01*
X44406629Y-36978638D01*
X44299201Y-37136121D01*
X44244293Y-37181121D01*
X44173768Y-37189292D01*
X44110021Y-37158038D01*
X44089324Y-37133554D01*
X44008822Y-37009117D01*
X44008820Y-37009114D01*
X44006014Y-37004777D01*
X43855670Y-36839551D01*
X43851619Y-36836352D01*
X43851615Y-36836348D01*
X43684414Y-36704300D01*
X43684410Y-36704298D01*
X43680359Y-36701098D01*
X43484789Y-36593138D01*
X43479920Y-36591414D01*
X43479916Y-36591412D01*
X43279087Y-36520295D01*
X43279083Y-36520294D01*
X43274212Y-36518569D01*
X43269119Y-36517662D01*
X43269116Y-36517661D01*
X43059373Y-36480300D01*
X43059367Y-36480299D01*
X43054284Y-36479394D01*
X42980452Y-36478492D01*
X42836081Y-36476728D01*
X42836079Y-36476728D01*
X42830911Y-36476665D01*
X42610091Y-36510455D01*
X42397756Y-36579857D01*
X42199607Y-36683007D01*
X42195474Y-36686110D01*
X42195471Y-36686112D01*
X42025100Y-36814030D01*
X42020965Y-36817135D01*
X41866629Y-36978638D01*
X41759201Y-37136121D01*
X41704293Y-37181121D01*
X41633768Y-37189292D01*
X41570021Y-37158038D01*
X41549324Y-37133554D01*
X41468822Y-37009117D01*
X41468820Y-37009114D01*
X41466014Y-37004777D01*
X41315670Y-36839551D01*
X41311619Y-36836352D01*
X41311615Y-36836348D01*
X41144414Y-36704300D01*
X41144410Y-36704298D01*
X41140359Y-36701098D01*
X40944789Y-36593138D01*
X40939920Y-36591414D01*
X40939916Y-36591412D01*
X40739087Y-36520295D01*
X40739083Y-36520294D01*
X40734212Y-36518569D01*
X40729119Y-36517662D01*
X40729116Y-36517661D01*
X40519373Y-36480300D01*
X40519367Y-36480299D01*
X40514284Y-36479394D01*
X40440452Y-36478492D01*
X40296081Y-36476728D01*
X40296079Y-36476728D01*
X40290911Y-36476665D01*
X40070091Y-36510455D01*
X39857756Y-36579857D01*
X39659607Y-36683007D01*
X39655474Y-36686110D01*
X39655471Y-36686112D01*
X39485100Y-36814030D01*
X39480965Y-36817135D01*
X39326629Y-36978638D01*
X39200743Y-37163180D01*
X39106688Y-37365805D01*
X39046989Y-37581070D01*
X39023251Y-37803195D01*
X39023548Y-37808348D01*
X39023548Y-37808351D01*
X39029011Y-37903090D01*
X39036110Y-38026215D01*
X39037247Y-38031261D01*
X39037248Y-38031267D01*
X39057119Y-38119439D01*
X39085222Y-38244139D01*
X39169266Y-38451116D01*
X39220019Y-38533938D01*
X39283291Y-38637188D01*
X39285987Y-38641588D01*
X39432250Y-38810438D01*
X39604126Y-38953132D01*
X39615063Y-38959523D01*
X39677445Y-38995976D01*
X39726169Y-39047614D01*
X39739240Y-39117397D01*
X39712509Y-39183169D01*
X39672055Y-39216527D01*
X39659607Y-39223007D01*
X39655474Y-39226110D01*
X39655471Y-39226112D01*
X39485100Y-39354030D01*
X39480965Y-39357135D01*
X39477393Y-39360873D01*
X39394580Y-39447532D01*
X39326629Y-39518638D01*
X39200743Y-39703180D01*
X39106688Y-39905805D01*
X39046989Y-40121070D01*
X39023251Y-40343195D01*
X32004000Y-40343195D01*
X32004000Y-33400000D01*
X32024002Y-33331879D01*
X32077658Y-33285386D01*
X32130000Y-33274000D01*
X65914000Y-33274000D01*
X65982121Y-33294002D01*
G37*
%TD.AperFunction*%
%TA.AperFunction,Conductor*%
G36*
X44266621Y-59026502D02*
G01*
X44313114Y-59080158D01*
X44324500Y-59132500D01*
X44324500Y-59171726D01*
X44323973Y-59182909D01*
X44322298Y-59190402D01*
X44322547Y-59198328D01*
X44322547Y-59198329D01*
X44324438Y-59258479D01*
X44324500Y-59262438D01*
X44324500Y-59290349D01*
X44324997Y-59294283D01*
X44324997Y-59294284D01*
X44325005Y-59294349D01*
X44325938Y-59306186D01*
X44327327Y-59350382D01*
X44332978Y-59369832D01*
X44336987Y-59389193D01*
X44339526Y-59409290D01*
X44342445Y-59416661D01*
X44342445Y-59416663D01*
X44355804Y-59450405D01*
X44359649Y-59461635D01*
X44371982Y-59504086D01*
X44374107Y-59507679D01*
X44384000Y-59555449D01*
X44384000Y-60484878D01*
X44387973Y-60498409D01*
X44395871Y-60499544D01*
X44535790Y-60458893D01*
X44550221Y-60452648D01*
X44679678Y-60376089D01*
X44692104Y-60366449D01*
X44786144Y-60272409D01*
X44848456Y-60238383D01*
X44919271Y-60243448D01*
X44976107Y-60285995D01*
X45000918Y-60352515D01*
X45000583Y-60374346D01*
X44990328Y-60474438D01*
X44990000Y-60480855D01*
X44990000Y-60518385D01*
X44994475Y-60533624D01*
X44995865Y-60534829D01*
X45003548Y-60536500D01*
X45395877Y-60536500D01*
X45427210Y-60540459D01*
X45436074Y-60542734D01*
X45454774Y-60549137D01*
X45473362Y-60557181D01*
X45481185Y-60558420D01*
X45481195Y-60558423D01*
X45517031Y-60564099D01*
X45528651Y-60566505D01*
X45555200Y-60573321D01*
X45571477Y-60577500D01*
X45591731Y-60577500D01*
X45611441Y-60579051D01*
X45631450Y-60582220D01*
X45639342Y-60581474D01*
X45675468Y-60578059D01*
X45687326Y-60577500D01*
X46326000Y-60577500D01*
X46394121Y-60597502D01*
X46440614Y-60651158D01*
X46452000Y-60703500D01*
X46452000Y-61497024D01*
X46435119Y-61560024D01*
X46409473Y-61604444D01*
X46350458Y-61786072D01*
X46349768Y-61792633D01*
X46349768Y-61792635D01*
X46348454Y-61805135D01*
X46330496Y-61976000D01*
X46331186Y-61982565D01*
X46346662Y-62129807D01*
X46350458Y-62165928D01*
X46375125Y-62241844D01*
X46379333Y-62254795D01*
X46385500Y-62293732D01*
X46385500Y-95462610D01*
X46385058Y-95473152D01*
X46380696Y-95525099D01*
X46381598Y-95531859D01*
X46381598Y-95531861D01*
X46391437Y-95605602D01*
X46391807Y-95608657D01*
X46400583Y-95689437D01*
X46402758Y-95695901D01*
X46403478Y-95699176D01*
X46403548Y-95699572D01*
X46403671Y-95699996D01*
X46404462Y-95703216D01*
X46405366Y-95709989D01*
X46433139Y-95786294D01*
X46434156Y-95789198D01*
X46460078Y-95866223D01*
X46463596Y-95872077D01*
X46464985Y-95875084D01*
X46465152Y-95875489D01*
X46465357Y-95875865D01*
X46466827Y-95878852D01*
X46469162Y-95885268D01*
X46512730Y-95953920D01*
X46514255Y-95956389D01*
X46556147Y-96026109D01*
X46560834Y-96031066D01*
X46562851Y-96033723D01*
X46563369Y-96034469D01*
X46566344Y-96038402D01*
X46569109Y-96042759D01*
X46572930Y-96047032D01*
X46626908Y-96101010D01*
X46629362Y-96103532D01*
X46684308Y-96161636D01*
X46689950Y-96165471D01*
X46695148Y-96169894D01*
X46694811Y-96170290D01*
X46702802Y-96176904D01*
X58286595Y-107760697D01*
X58320621Y-107823009D01*
X58323500Y-107849792D01*
X58323500Y-108221988D01*
X58303498Y-108290109D01*
X58249842Y-108336602D01*
X58179568Y-108346706D01*
X58114988Y-108317212D01*
X58108405Y-108311083D01*
X56423965Y-106626643D01*
X56407229Y-106613187D01*
X56381375Y-106592399D01*
X56381372Y-106592397D01*
X56375219Y-106587450D01*
X56242623Y-106527163D01*
X56233740Y-106525891D01*
X56233737Y-106525890D01*
X56107326Y-106507787D01*
X56098437Y-106506514D01*
X56089548Y-106507787D01*
X55963137Y-106525890D01*
X55963134Y-106525891D01*
X55954251Y-106527163D01*
X55821655Y-106587450D01*
X55815502Y-106592397D01*
X55815499Y-106592399D01*
X55789645Y-106613187D01*
X55772909Y-106626643D01*
X54916162Y-107483391D01*
X54136923Y-108262630D01*
X54074611Y-108296655D01*
X54003796Y-108291591D01*
X53958733Y-108262630D01*
X38995405Y-93299302D01*
X38961379Y-93236990D01*
X38958500Y-93210207D01*
X38958500Y-93167939D01*
X42593370Y-93167939D01*
X42593594Y-93172606D01*
X42593594Y-93172611D01*
X42597907Y-93262397D01*
X42605339Y-93417131D01*
X42654010Y-93661818D01*
X42738314Y-93896622D01*
X42856398Y-94116386D01*
X43005668Y-94316283D01*
X43182844Y-94491921D01*
X43186606Y-94494679D01*
X43186609Y-94494682D01*
X43298139Y-94576458D01*
X43384036Y-94639440D01*
X43388171Y-94641616D01*
X43388175Y-94641618D01*
X43464241Y-94681638D01*
X43604823Y-94755602D01*
X43735347Y-94801183D01*
X43834550Y-94835826D01*
X43840354Y-94837853D01*
X43844947Y-94838725D01*
X44080867Y-94883516D01*
X44080870Y-94883516D01*
X44085456Y-94884387D01*
X44210099Y-94889284D01*
X44330075Y-94893999D01*
X44330081Y-94893999D01*
X44334743Y-94894182D01*
X44424181Y-94884387D01*
X44578087Y-94867532D01*
X44578092Y-94867531D01*
X44582740Y-94867022D01*
X44589140Y-94865337D01*
X44819476Y-94804694D01*
X44819478Y-94804693D01*
X44823999Y-94803503D01*
X44829399Y-94801183D01*
X45048924Y-94706868D01*
X45048926Y-94706867D01*
X45053218Y-94705023D01*
X45155679Y-94641618D01*
X45261391Y-94576202D01*
X45261395Y-94576199D01*
X45265364Y-94573743D01*
X45455775Y-94412548D01*
X45537316Y-94319569D01*
X45617187Y-94228494D01*
X45617191Y-94228489D01*
X45620269Y-94224979D01*
X45636803Y-94199275D01*
X45720500Y-94069152D01*
X45755231Y-94015157D01*
X45857697Y-93787691D01*
X45876900Y-93719602D01*
X45924146Y-93552082D01*
X45924147Y-93552079D01*
X45925416Y-93547578D01*
X45956900Y-93300092D01*
X45956984Y-93296909D01*
X45958243Y-93248828D01*
X45959207Y-93212000D01*
X45940718Y-92963206D01*
X45885659Y-92719878D01*
X45871164Y-92682605D01*
X45796931Y-92491714D01*
X45796930Y-92491712D01*
X45795238Y-92487361D01*
X45770494Y-92444067D01*
X45749285Y-92406959D01*
X45671442Y-92270763D01*
X45516990Y-92074842D01*
X45335276Y-91903902D01*
X45219160Y-91823350D01*
X45134130Y-91764362D01*
X45134125Y-91764359D01*
X45130292Y-91761700D01*
X45126110Y-91759637D01*
X45126102Y-91759633D01*
X44910728Y-91653423D01*
X44910725Y-91653422D01*
X44906540Y-91651358D01*
X44668937Y-91575300D01*
X44664330Y-91574550D01*
X44664327Y-91574549D01*
X44427312Y-91535949D01*
X44427313Y-91535949D01*
X44422701Y-91535198D01*
X44301753Y-91533615D01*
X44177920Y-91531994D01*
X44177917Y-91531994D01*
X44173243Y-91531933D01*
X43926042Y-91565575D01*
X43921556Y-91566883D01*
X43921554Y-91566883D01*
X43893576Y-91575038D01*
X43686528Y-91635387D01*
X43682275Y-91637347D01*
X43682274Y-91637348D01*
X43654971Y-91649935D01*
X43459965Y-91739834D01*
X43417403Y-91767739D01*
X43255242Y-91874056D01*
X43255237Y-91874060D01*
X43251329Y-91876622D01*
X43065202Y-92042746D01*
X42905675Y-92234557D01*
X42776252Y-92447840D01*
X42774443Y-92452154D01*
X42774442Y-92452156D01*
X42761290Y-92483521D01*
X42679775Y-92677911D01*
X42678624Y-92682443D01*
X42678623Y-92682446D01*
X42670185Y-92715671D01*
X42618365Y-92919714D01*
X42593370Y-93167939D01*
X38958500Y-93167939D01*
X38958500Y-68529939D01*
X42593370Y-68529939D01*
X42593594Y-68534606D01*
X42593594Y-68534611D01*
X42595629Y-68576966D01*
X42605339Y-68779131D01*
X42654010Y-69023818D01*
X42738314Y-69258622D01*
X42856398Y-69478386D01*
X43005668Y-69678283D01*
X43182844Y-69853921D01*
X43186606Y-69856679D01*
X43186609Y-69856682D01*
X43298139Y-69938458D01*
X43384036Y-70001440D01*
X43388171Y-70003616D01*
X43388175Y-70003618D01*
X43490330Y-70057364D01*
X43604823Y-70117602D01*
X43730745Y-70161576D01*
X43834550Y-70197826D01*
X43840354Y-70199853D01*
X43844947Y-70200725D01*
X44080867Y-70245516D01*
X44080870Y-70245516D01*
X44085456Y-70246387D01*
X44210099Y-70251284D01*
X44330075Y-70255999D01*
X44330081Y-70255999D01*
X44334743Y-70256182D01*
X44424181Y-70246387D01*
X44578087Y-70229532D01*
X44578092Y-70229531D01*
X44582740Y-70229022D01*
X44589140Y-70227337D01*
X44819476Y-70166694D01*
X44819478Y-70166693D01*
X44823999Y-70165503D01*
X44829399Y-70163183D01*
X45048924Y-70068868D01*
X45048926Y-70068867D01*
X45053218Y-70067023D01*
X45183518Y-69986391D01*
X45261391Y-69938202D01*
X45261395Y-69938199D01*
X45265364Y-69935743D01*
X45455775Y-69774548D01*
X45521530Y-69699569D01*
X45617187Y-69590494D01*
X45617191Y-69590489D01*
X45620269Y-69586979D01*
X45639673Y-69556813D01*
X45752703Y-69381087D01*
X45755231Y-69377157D01*
X45857697Y-69149691D01*
X45859015Y-69145018D01*
X45924146Y-68914082D01*
X45924147Y-68914079D01*
X45925416Y-68909578D01*
X45947956Y-68732397D01*
X45956502Y-68665222D01*
X45956502Y-68665218D01*
X45956900Y-68662092D01*
X45956984Y-68658909D01*
X45959124Y-68577160D01*
X45959207Y-68574000D01*
X45940718Y-68325206D01*
X45885659Y-68081878D01*
X45871164Y-68044605D01*
X45796931Y-67853714D01*
X45796930Y-67853712D01*
X45795238Y-67849361D01*
X45770494Y-67806067D01*
X45749285Y-67768959D01*
X45671442Y-67632763D01*
X45516990Y-67436842D01*
X45335276Y-67265902D01*
X45219160Y-67185350D01*
X45134130Y-67126362D01*
X45134125Y-67126359D01*
X45130292Y-67123700D01*
X45126110Y-67121637D01*
X45126102Y-67121633D01*
X44910728Y-67015423D01*
X44910725Y-67015422D01*
X44906540Y-67013358D01*
X44668937Y-66937300D01*
X44664330Y-66936550D01*
X44664327Y-66936549D01*
X44427312Y-66897949D01*
X44427313Y-66897949D01*
X44422701Y-66897198D01*
X44301753Y-66895615D01*
X44177920Y-66893994D01*
X44177917Y-66893994D01*
X44173243Y-66893933D01*
X43926042Y-66927575D01*
X43921556Y-66928883D01*
X43921554Y-66928883D01*
X43893576Y-66937038D01*
X43686528Y-66997387D01*
X43682275Y-66999347D01*
X43682274Y-66999348D01*
X43654971Y-67011935D01*
X43459965Y-67101834D01*
X43456056Y-67104397D01*
X43255242Y-67236056D01*
X43255237Y-67236060D01*
X43251329Y-67238622D01*
X43065202Y-67404746D01*
X42905675Y-67596557D01*
X42776252Y-67809840D01*
X42774443Y-67814154D01*
X42774442Y-67814156D01*
X42761290Y-67845521D01*
X42679775Y-68039911D01*
X42678624Y-68044443D01*
X42678623Y-68044446D01*
X42670185Y-68077671D01*
X42618365Y-68281714D01*
X42593370Y-68529939D01*
X38958500Y-68529939D01*
X38958500Y-61736308D01*
X38978502Y-61668187D01*
X39032158Y-61621694D01*
X39102432Y-61611590D01*
X39167012Y-61641084D01*
X39173516Y-61647133D01*
X39178697Y-61652305D01*
X39184927Y-61656145D01*
X39184928Y-61656146D01*
X39322288Y-61740816D01*
X39329262Y-61745115D01*
X39391306Y-61765694D01*
X39490611Y-61798632D01*
X39490613Y-61798632D01*
X39497139Y-61800797D01*
X39503975Y-61801497D01*
X39503978Y-61801498D01*
X39547031Y-61805909D01*
X39601600Y-61811500D01*
X40602400Y-61811500D01*
X40605646Y-61811163D01*
X40605650Y-61811163D01*
X40701308Y-61801238D01*
X40701312Y-61801237D01*
X40708166Y-61800526D01*
X40714702Y-61798345D01*
X40714704Y-61798345D01*
X40846806Y-61754272D01*
X40875946Y-61744550D01*
X41026348Y-61651478D01*
X41151305Y-61526303D01*
X41160010Y-61512181D01*
X41202098Y-61443904D01*
X41254870Y-61396411D01*
X41262842Y-61392921D01*
X41262938Y-61392883D01*
X41263283Y-61392746D01*
X41274638Y-61388852D01*
X41317093Y-61376518D01*
X41323912Y-61372485D01*
X41323917Y-61372483D01*
X41334528Y-61366207D01*
X41352276Y-61357512D01*
X41371117Y-61350052D01*
X41406887Y-61324064D01*
X41416807Y-61317548D01*
X41448035Y-61299080D01*
X41448038Y-61299078D01*
X41454862Y-61295042D01*
X41469183Y-61280721D01*
X41484217Y-61267880D01*
X41494194Y-61260631D01*
X41500607Y-61255972D01*
X41528798Y-61221895D01*
X41536788Y-61213116D01*
X42156405Y-60593499D01*
X42218717Y-60559473D01*
X42289532Y-60564538D01*
X42346368Y-60607085D01*
X42371179Y-60673605D01*
X42371500Y-60682594D01*
X42371500Y-61789502D01*
X42371693Y-61791950D01*
X42371693Y-61791958D01*
X42373206Y-61811172D01*
X42374438Y-61826831D01*
X42420855Y-61986601D01*
X42424892Y-61993427D01*
X42501509Y-62122980D01*
X42501511Y-62122983D01*
X42505547Y-62129807D01*
X42623193Y-62247453D01*
X42630017Y-62251489D01*
X42630020Y-62251491D01*
X42701446Y-62293732D01*
X42766399Y-62332145D01*
X42774010Y-62334356D01*
X42774012Y-62334357D01*
X42826231Y-62349528D01*
X42926169Y-62378562D01*
X42932574Y-62379066D01*
X42932579Y-62379067D01*
X42961042Y-62381307D01*
X42961050Y-62381307D01*
X42963498Y-62381500D01*
X43396502Y-62381500D01*
X43398950Y-62381307D01*
X43398958Y-62381307D01*
X43427421Y-62379067D01*
X43427426Y-62379066D01*
X43433831Y-62378562D01*
X43533769Y-62349528D01*
X43585988Y-62334357D01*
X43585990Y-62334356D01*
X43593601Y-62332145D01*
X43658554Y-62293732D01*
X43729980Y-62251491D01*
X43729983Y-62251489D01*
X43736807Y-62247453D01*
X43854453Y-62129807D01*
X43858489Y-62122983D01*
X43858491Y-62122980D01*
X43935108Y-61993427D01*
X43939145Y-61986601D01*
X43985562Y-61826831D01*
X43986795Y-61811172D01*
X43988307Y-61791958D01*
X43988307Y-61791950D01*
X43988500Y-61789502D01*
X43988500Y-61100095D01*
X44990001Y-61100095D01*
X44990338Y-61106614D01*
X45000257Y-61202206D01*
X45003149Y-61215600D01*
X45054588Y-61369784D01*
X45060761Y-61382962D01*
X45146063Y-61520807D01*
X45155099Y-61532208D01*
X45269829Y-61646739D01*
X45281240Y-61655751D01*
X45419243Y-61740816D01*
X45432424Y-61746963D01*
X45586710Y-61798138D01*
X45600086Y-61801005D01*
X45694438Y-61810672D01*
X45700854Y-61811000D01*
X45925885Y-61811000D01*
X45941124Y-61806525D01*
X45942329Y-61805135D01*
X45944000Y-61797452D01*
X45944000Y-61062615D01*
X45939525Y-61047376D01*
X45938135Y-61046171D01*
X45930452Y-61044500D01*
X45008116Y-61044500D01*
X44992877Y-61048975D01*
X44991672Y-61050365D01*
X44990001Y-61058048D01*
X44990001Y-61100095D01*
X43988500Y-61100095D01*
X43988500Y-60481498D01*
X43987998Y-60475121D01*
X43986067Y-60450579D01*
X43986066Y-60450574D01*
X43985562Y-60444169D01*
X43939145Y-60284399D01*
X43893547Y-60207297D01*
X43876000Y-60143158D01*
X43876000Y-59132500D01*
X43896002Y-59064379D01*
X43949658Y-59017886D01*
X44002000Y-59006500D01*
X44198500Y-59006500D01*
X44266621Y-59026502D01*
G37*
%TD.AperFunction*%
%TD*%
M02*
