M48
; DRILL file {KiCad (6.0.0-0)} date Wednesday, November 09, 2022 at 08:37:42 PM
; FORMAT={-:-/ absolute / inch / decimal}
; #@! TF.CreationDate,2022-11-09T20:37:42-05:00
; #@! TF.GenerationSoftware,Kicad,Pcbnew,(6.0.0-0)
; #@! TF.FileFunction,Plated,1,2,PTH
FMAT,2
INCH
; #@! TA.AperFunction,Plated,PTH,ViaDrill
T1C0.0157
; #@! TA.AperFunction,Plated,PTH,ComponentDrill
T2C0.0197
; #@! TA.AperFunction,Plated,PTH,ComponentDrill
T3C0.0394
; #@! TA.AperFunction,Plated,PTH,ComponentDrill
T4C0.0512
; #@! TA.AperFunction,Plated,PTH,ComponentDrill
T5C0.1181
%
G90
G05
T1
X1.5Y-1.88
X1.69Y-1.88
X1.79Y-2.46
X1.85Y-2.0
X1.86Y-2.27
X1.86Y-2.44
X1.9Y-2.0
X2.09Y-2.13
X2.14Y-2.0
T2
X1.7814Y-4.5314
X1.8074Y-4.4688
X1.8074Y-4.5941
X1.87Y-4.4428
X1.87Y-4.62
X1.9326Y-4.4688
X1.9326Y-4.5941
X1.9586Y-4.5314
X2.3614Y-1.91
X2.3874Y-1.8474
X2.3874Y-1.9726
X2.45Y-1.8214
X2.45Y-1.9986
X2.5126Y-1.8474
X2.5126Y-1.9726
X2.5386Y-1.91
T3
X1.59Y-1.4896
X1.59Y-1.5896
X1.69Y-1.4896
X1.69Y-1.5896
X1.79Y-1.4896
X1.79Y-1.5896
X1.89Y-1.4896
X1.89Y-1.5896
X1.99Y-1.4896
X1.99Y-1.5896
X2.09Y-1.4896
X2.09Y-1.5896
X2.19Y-1.4896
X2.19Y-1.5896
X2.29Y-1.4896
X2.29Y-1.5896
T4
X1.7431Y-2.6998
X1.7431Y-3.6698
X1.94Y-2.6998
X1.94Y-3.6698
X2.1369Y-2.6998
X2.1369Y-3.6698
T5
X1.87Y-4.5314
X2.45Y-1.91
T3
G00X1.7185Y-4.0707
M15
G01X1.7185Y-4.307
M16
G05
G00X1.7185Y-4.7407
M15
G01X1.7185Y-4.977
M16
G05
G00X2.2156Y-4.29
M15
G01X2.1042Y-4.4013
M16
G05
G00X2.2156Y-4.96
M15
G01X2.1042Y-5.0713
M16
G05
T0
M30
