M48
; DRILL file {KiCad (6.0.0-0)} date Tuesday, December 13, 2022 at 03:44:48 PM
; FORMAT={-:-/ absolute / inch / decimal}
; #@! TF.CreationDate,2022-12-13T15:44:48-05:00
; #@! TF.GenerationSoftware,Kicad,Pcbnew,(6.0.0-0)
; #@! TF.FileFunction,NonPlated,1,2,NPTH
FMAT,2
INCH
; #@! TA.AperFunction,NonPlated,NPTH,ComponentDrill
T1C0.0866
; #@! TA.AperFunction,NonPlated,NPTH,ComponentDrill
T2C0.1260
%
G90
G05
T1
X6.5323Y-3.5379
X6.5323Y-5.1356
X7.0766Y-3.5379
X7.0766Y-5.1356
X7.6223Y-3.5379
X7.6223Y-5.1356
X8.1722Y-3.5379
X8.1722Y-5.1356
X8.7335Y-3.5379
X8.7335Y-5.1356
X9.2922Y-3.5379
X9.2922Y-5.1356
X9.8422Y-3.5379
X9.8422Y-5.1356
T2
G00X6.4514Y-1.0223
M15
G01X6.5774Y-1.0223
M16
G05
G00X6.4514Y-5.8452
M15
G01X6.5774Y-5.8452
M16
G05
G00X9.8544Y-1.0213
M15
G01X9.9804Y-1.0213
M16
G05
G00X9.8544Y-5.8452
M15
G01X9.9804Y-5.8452
M16
G05
T0
M30
