%FSLAX45Y45*%
G04 Gerber Fmt 4.5, Leading zero omitted, Abs format (unit mm)*
G04 Created by KiCad (PCBNEW (6.0.0-0)) date 2022-12-13 15:44:48*
%MOMM*%
%LPD*%
G01*
G04 APERTURE LIST*
%TA.AperFunction,Profile*%
%ADD10C,0.100000*%
%TD*%
%ADD11C,0.200000*%
G04 APERTURE END LIST*
D10*
X19505200Y-5577700D02*
G75*
G03*
X19505200Y-5577700I-155000J0D01*
G01*
X16735200Y-5577700D02*
G75*
G03*
X16735200Y-5577700I-155000J0D01*
G01*
X18115200Y-5577700D02*
G75*
G03*
X18115200Y-5577700I-155000J0D01*
G01*
X15796600Y-2296700D02*
X25796600Y-2296700D01*
X25796600Y-2296700D02*
X25796600Y-15146700D01*
X25796600Y-15146700D02*
X15796600Y-15146700D01*
X15796600Y-15146700D02*
X15796600Y-2296700D01*
X20901200Y-5578700D02*
G75*
G03*
X20901200Y-5578700I-155000J0D01*
G01*
D11*
X16049219Y-15462176D02*
X16049219Y-15262176D01*
X16096838Y-15262176D01*
X16125409Y-15271700D01*
X16144457Y-15290748D01*
X16153981Y-15309795D01*
X16163505Y-15347890D01*
X16163505Y-15376462D01*
X16153981Y-15414557D01*
X16144457Y-15433605D01*
X16125409Y-15452652D01*
X16096838Y-15462176D01*
X16049219Y-15462176D01*
X16249219Y-15462176D02*
X16249219Y-15328843D01*
X16249219Y-15366938D02*
X16258743Y-15347890D01*
X16268267Y-15338367D01*
X16287314Y-15328843D01*
X16306362Y-15328843D01*
X16373028Y-15462176D02*
X16373028Y-15328843D01*
X16373028Y-15262176D02*
X16363505Y-15271700D01*
X16373028Y-15281224D01*
X16382552Y-15271700D01*
X16373028Y-15262176D01*
X16373028Y-15281224D01*
X16496838Y-15462176D02*
X16477790Y-15452652D01*
X16468267Y-15433605D01*
X16468267Y-15262176D01*
X16601600Y-15462176D02*
X16582552Y-15452652D01*
X16573028Y-15433605D01*
X16573028Y-15262176D01*
X16830171Y-15462176D02*
X16830171Y-15262176D01*
X16896838Y-15405033D01*
X16963505Y-15262176D01*
X16963505Y-15462176D01*
X17144457Y-15462176D02*
X17144457Y-15357414D01*
X17134933Y-15338367D01*
X17115886Y-15328843D01*
X17077790Y-15328843D01*
X17058743Y-15338367D01*
X17144457Y-15452652D02*
X17125410Y-15462176D01*
X17077790Y-15462176D01*
X17058743Y-15452652D01*
X17049219Y-15433605D01*
X17049219Y-15414557D01*
X17058743Y-15395509D01*
X17077790Y-15385986D01*
X17125410Y-15385986D01*
X17144457Y-15376462D01*
X17239695Y-15328843D02*
X17239695Y-15528843D01*
X17239695Y-15338367D02*
X17258743Y-15328843D01*
X17296838Y-15328843D01*
X17315886Y-15338367D01*
X17325410Y-15347890D01*
X17334933Y-15366938D01*
X17334933Y-15424081D01*
X17325410Y-15443128D01*
X17315886Y-15452652D01*
X17296838Y-15462176D01*
X17258743Y-15462176D01*
X17239695Y-15452652D01*
X17420648Y-15443128D02*
X17430171Y-15452652D01*
X17420648Y-15462176D01*
X17411124Y-15452652D01*
X17420648Y-15443128D01*
X17420648Y-15462176D01*
X17420648Y-15338367D02*
X17430171Y-15347890D01*
X17420648Y-15357414D01*
X17411124Y-15347890D01*
X17420648Y-15338367D01*
X17420648Y-15357414D01*
M02*
