%TF.GenerationSoftware,KiCad,Pcbnew,(6.0.0-0)*%
%TF.CreationDate,2022-12-13T15:44:45-05:00*%
%TF.ProjectId,mixer,6d697865-722e-46b6-9963-61645f706362,rev?*%
%TF.SameCoordinates,Original*%
%TF.FileFunction,Profile,NP*%
%FSLAX46Y46*%
G04 Gerber Fmt 4.6, Leading zero omitted, Abs format (unit mm)*
G04 Created by KiCad (PCBNEW (6.0.0-0)) date 2022-12-13 15:44:45*
%MOMM*%
%LPD*%
G01*
G04 APERTURE LIST*
%TA.AperFunction,Profile*%
%ADD10C,0.100000*%
%TD*%
%TA.AperFunction,Profile*%
%ADD11C,0.120000*%
%TD*%
G04 APERTURE END LIST*
D10*
X195052000Y-55777000D02*
G75*
G03*
X195052000Y-55777000I-1550000J0D01*
G01*
X167352000Y-55777000D02*
G75*
G03*
X167352000Y-55777000I-1550000J0D01*
G01*
X181152000Y-55777000D02*
G75*
G03*
X181152000Y-55777000I-1550000J0D01*
G01*
X157966000Y-22967000D02*
X257966000Y-22967000D01*
X257966000Y-22967000D02*
X257966000Y-151467000D01*
X257966000Y-151467000D02*
X157966000Y-151467000D01*
X157966000Y-151467000D02*
X157966000Y-22967000D01*
X209012000Y-55787000D02*
G75*
G03*
X209012000Y-55787000I-1550000J0D01*
G01*
D11*
%TO.C,REF\u002A\u002A*%
X254906000Y-47037000D02*
G75*
G03*
X254906000Y-47037000I-3200000J0D01*
G01*
X248491000Y-92637000D02*
X251491000Y-92637000D01*
X251491000Y-92637000D02*
X251491000Y-128491000D01*
X251491000Y-128491000D02*
X248491000Y-128491000D01*
X248491000Y-128491000D02*
X248491000Y-92637000D01*
X196666000Y-47077000D02*
G75*
G03*
X196666000Y-47077000I-3200000J0D01*
G01*
X210636000Y-63277000D02*
G75*
G03*
X210636000Y-63277000I-3200000J0D01*
G01*
X254876000Y-61827000D02*
G75*
G03*
X254876000Y-61827000I-3200000J0D01*
G01*
X234521000Y-92637000D02*
X237521000Y-92637000D01*
X237521000Y-92637000D02*
X237521000Y-128491000D01*
X237521000Y-128491000D02*
X234521000Y-128491000D01*
X234521000Y-128491000D02*
X234521000Y-92637000D01*
X178246000Y-92637000D02*
X181246000Y-92637000D01*
X181246000Y-92637000D02*
X181246000Y-128491000D01*
X181246000Y-128491000D02*
X178246000Y-128491000D01*
X178246000Y-128491000D02*
X178246000Y-92637000D01*
X182736000Y-47087000D02*
G75*
G03*
X182736000Y-47087000I-3200000J0D01*
G01*
X206073000Y-92637000D02*
X209073000Y-92637000D01*
X209073000Y-92637000D02*
X209073000Y-128491000D01*
X209073000Y-128491000D02*
X206073000Y-128491000D01*
X206073000Y-128491000D02*
X206073000Y-92637000D01*
X210666000Y-47047000D02*
G75*
G03*
X210666000Y-47047000I-3200000J0D01*
G01*
X182786000Y-63287000D02*
G75*
G03*
X182786000Y-63287000I-3200000J0D01*
G01*
X220332000Y-92637000D02*
X223332000Y-92637000D01*
X223332000Y-92637000D02*
X223332000Y-128491000D01*
X223332000Y-128491000D02*
X220332000Y-128491000D01*
X220332000Y-128491000D02*
X220332000Y-92637000D01*
X183266000Y-73693000D02*
G75*
G03*
X183266000Y-73693000I-3500000J0D01*
G01*
X192107000Y-92637000D02*
X195107000Y-92637000D01*
X195107000Y-92637000D02*
X195107000Y-128491000D01*
X195107000Y-128491000D02*
X192107000Y-128491000D01*
X192107000Y-128491000D02*
X192107000Y-92637000D01*
X244436000Y-61847000D02*
G75*
G03*
X244436000Y-61847000I-3200000J0D01*
G01*
X168976000Y-47057000D02*
G75*
G03*
X168976000Y-47057000I-3200000J0D01*
G01*
X244456000Y-76557000D02*
G75*
G03*
X244456000Y-76557000I-3200000J0D01*
G01*
X244446000Y-47107000D02*
G75*
G03*
X244446000Y-47107000I-3200000J0D01*
G01*
X196696000Y-63257000D02*
G75*
G03*
X196696000Y-63257000I-3200000J0D01*
G01*
X196982000Y-73693000D02*
G75*
G03*
X196982000Y-73693000I-3500000J0D01*
G01*
X254886000Y-76547000D02*
G75*
G03*
X254886000Y-76547000I-3200000J0D01*
G01*
X164421000Y-92637000D02*
X167421000Y-92637000D01*
X167421000Y-92637000D02*
X167421000Y-128491000D01*
X167421000Y-128491000D02*
X164421000Y-128491000D01*
X164421000Y-128491000D02*
X164421000Y-92637000D01*
X169306000Y-73693000D02*
G75*
G03*
X169306000Y-73693000I-3500000J0D01*
G01*
X168742000Y-63237000D02*
G75*
G03*
X168742000Y-63237000I-3200000J0D01*
G01*
X210952000Y-73697000D02*
G75*
G03*
X210952000Y-73697000I-3500000J0D01*
G01*
%TD*%
M02*
