M48
; DRILL file {KiCad (6.0.0-0)} date Wednesday, November 09, 2022 at 09:30:43 PM
; FORMAT={-:-/ absolute / inch / decimal}
; #@! TF.CreationDate,2022-11-09T21:30:43-05:00
; #@! TF.GenerationSoftware,Kicad,Pcbnew,(6.0.0-0)
; #@! TF.FileFunction,Plated,1,2,PTH
FMAT,2
INCH
; #@! TA.AperFunction,Plated,PTH,ViaDrill
T1C0.0157
; #@! TA.AperFunction,Plated,PTH,ComponentDrill
T2C0.0197
; #@! TA.AperFunction,Plated,PTH,ComponentDrill
T3C0.0315
; #@! TA.AperFunction,Plated,PTH,ComponentDrill
T4C0.0354
; #@! TA.AperFunction,Plated,PTH,ComponentDrill
T5C0.0394
; #@! TA.AperFunction,Plated,PTH,ComponentDrill
T6C0.0472
; #@! TA.AperFunction,Plated,PTH,ComponentDrill
T7C0.0512
; #@! TA.AperFunction,Plated,PTH,ComponentDrill
T8C0.1181
%
G90
G05
T1
X4.02Y-5.28
X4.2Y-6.48
X4.37Y-4.97
X4.56Y-5.21
X4.56Y-5.27
X5.27Y-3.27
X5.32Y-4.03
X6.13Y-3.28
X6.18Y-4.03
X6.279Y-4.321
X7.01Y-3.28
X7.05Y-4.03
X7.1485Y-4.5515
X7.85Y-3.28
X7.9Y-4.03
X8.0Y-4.65
X8.72Y-3.28
X8.77Y-4.03
X8.8673Y-4.6027
X9.6Y-3.28
X9.64Y-4.03
X9.7385Y-4.1585
X10.47Y-3.28
X10.51Y-4.03
X10.6057Y-4.4657
X11.33Y-3.28
X11.37Y-4.03
X11.4685Y-4.5185
X11.51Y-4.03
X11.69Y-4.11
X11.74Y-4.1885
X11.77Y-4.11
X11.7991Y-4.37
X11.8068Y-4.5485
X11.81Y-3.88
X11.81Y-4.6
X11.9Y-4.21
X11.94Y-3.64
X11.96Y-4.28
X11.98Y-3.99
X11.99Y-4.61
X12.01Y-4.42
X12.01Y-4.47
X12.01Y-4.52
X12.01Y-4.57
X12.02Y-4.37
X12.0294Y-4.313
X12.1Y-4.16
X12.13Y-3.17
X12.13Y-3.42
X12.17Y-4.18
X12.17Y-4.55
X12.17Y-4.62
X12.21Y-3.45
X12.24Y-4.01
X12.24Y-4.62
X12.25Y-4.27
X12.26Y-3.33
X12.31Y-3.99
X12.42Y-3.5
X12.44Y-4.52
T2
X3.8714Y-2.76
X3.8714Y-6.66
X3.8974Y-2.6974
X3.8974Y-2.8226
X3.8974Y-6.5974
X3.8974Y-6.7226
X3.96Y-2.6714
X3.96Y-2.8486
X3.96Y-6.5714
X3.96Y-6.7486
X4.0226Y-2.6974
X4.0226Y-2.8226
X4.0226Y-6.5974
X4.0226Y-6.7226
X4.0486Y-2.76
X4.0486Y-6.66
X8.3114Y-5.37
X8.3374Y-5.3074
X8.3374Y-5.4326
X8.4Y-5.2814
X8.4Y-5.4586
X8.4626Y-5.3074
X8.4626Y-5.4326
X8.4886Y-5.37
X12.4214Y-2.76
X12.4214Y-6.66
X12.4474Y-2.6974
X12.4474Y-2.8226
X12.4474Y-6.5974
X12.4474Y-6.7226
X12.51Y-2.6714
X12.51Y-2.8486
X12.51Y-6.5714
X12.51Y-6.7486
X12.5726Y-2.6974
X12.5726Y-2.8226
X12.5726Y-6.5974
X12.5726Y-6.7226
X12.5986Y-2.76
X12.5986Y-6.66
T3
X11.99Y-2.91
X11.9904Y-3.8
X12.09Y-2.91
X12.0904Y-3.8
X12.19Y-2.91
X12.1904Y-3.8
T4
X5.1713Y-3.0278
X5.2713Y-3.0278
X6.0272Y-3.0237
X6.1272Y-3.0237
X6.9015Y-3.0237
X7.0015Y-3.0237
X7.7481Y-3.0237
X7.8481Y-3.0237
X8.6103Y-3.0237
X8.7103Y-3.0237
X9.4821Y-3.0237
X9.5821Y-3.0237
X10.3488Y-3.0237
X10.4488Y-3.0237
X11.2121Y-3.0237
X11.3121Y-3.0237
T5
X4.16Y-3.38
X4.16Y-3.48
X4.16Y-3.58
X4.16Y-3.68
X4.16Y-3.78
X4.16Y-3.88
X4.16Y-3.98
X4.16Y-4.08
X4.26Y-3.38
X4.26Y-3.48
X4.26Y-3.58
X4.26Y-3.68
X4.26Y-3.78
X4.26Y-3.88
X4.26Y-3.98
X4.26Y-4.08
T6
X4.28Y-6.03
X4.28Y-6.13
X4.28Y-6.23
X10.31Y-6.02
X10.31Y-6.12
X10.31Y-6.22
T7
X4.6831Y-6.6298
X4.88Y-6.6298
X5.0248Y-4.9734
X5.0769Y-6.6298
X5.2217Y-4.9734
X5.4185Y-4.9734
X5.8853Y-4.9737
X6.0821Y-4.9737
X6.279Y-4.9737
X6.7548Y-4.9737
X6.9517Y-4.9737
X7.1485Y-4.9737
X7.6048Y-4.9737
X7.8017Y-4.9737
X7.9985Y-4.9737
X8.4736Y-4.9737
X8.6705Y-4.9737
X8.8673Y-4.9737
X9.3448Y-4.9737
X9.5417Y-4.9737
X9.7385Y-4.9737
X10.212Y-4.9737
X10.4088Y-4.9737
X10.6057Y-4.9737
X11.0748Y-4.9737
X11.2717Y-4.9737
X11.4685Y-4.9737
T8
X3.96Y-2.76
X3.96Y-6.66
X8.4Y-5.37
X12.51Y-2.76
X12.51Y-6.66
T5
G00X5.1217Y-3.7469
M15
G01X5.1217Y-3.6878
M16
G05
G00X5.3117Y-3.7469
M15
G01X5.3117Y-3.6878
M16
G05
G00X5.5821Y-6.0407
M15
G01X5.5821Y-6.277
M16
G05
G00X5.9721Y-3.7432
M15
G01X5.9721Y-3.6842
M16
G05
G00X6.0791Y-6.26
M15
G01X5.9678Y-6.3713
M16
G05
G00X6.1621Y-3.7432
M15
G01X6.1621Y-3.6842
M16
G05
G00X6.5385Y-6.0407
M15
G01X6.5385Y-6.277
M16
G05
G00X6.8517Y-3.7432
M15
G01X6.8517Y-3.6842
M16
G05
G00X7.0356Y-6.26
M15
G01X6.9242Y-6.3713
M16
G05
G00X7.0417Y-3.7432
M15
G01X7.0417Y-3.6842
M16
G05
G00X7.5185Y-6.0407
M15
G01X7.5185Y-6.277
M16
G05
G00X7.7017Y-3.7432
M15
G01X7.7017Y-3.6842
M16
G05
G00X7.8917Y-3.7432
M15
G01X7.8917Y-3.6842
M16
G05
G00X8.0156Y-6.26
M15
G01X7.9042Y-6.3713
M16
G05
G00X8.4985Y-6.0407
M15
G01X8.4985Y-6.277
M16
G05
G00X8.5705Y-3.7432
M15
G01X8.5705Y-3.6842
M16
G05
G00X8.7605Y-3.7432
M15
G01X8.7605Y-3.6842
M16
G05
G00X8.9956Y-6.26
M15
G01X8.8842Y-6.3713
M16
G05
G00X9.4421Y-3.7432
M15
G01X9.4421Y-3.6842
M16
G05
G00X9.4685Y-6.0307
M15
G01X9.4685Y-6.267
M16
G05
G00X9.6321Y-3.7432
M15
G01X9.6321Y-3.6842
M16
G05
G00X9.9656Y-6.25
M15
G01X9.8542Y-6.3613
M16
G05
G00X10.3088Y-3.7432
M15
G01X10.3088Y-3.6842
M16
G05
G00X10.4988Y-3.7432
M15
G01X10.4988Y-3.6842
M16
G05
G00X11.1721Y-3.7432
M15
G01X11.1721Y-3.6842
M16
G05
G00X11.3621Y-3.7432
M15
G01X11.3621Y-3.6842
M16
G05
G00X11.79Y-5.9568
M15
G01X11.79Y-6.0158
M16
G05
G00X11.98Y-5.9568
M15
G01X11.98Y-6.0158
M16
G05
T0
M30
