%TF.GenerationSoftware,KiCad,Pcbnew,(6.0.0-0)*%
%TF.CreationDate,2022-11-09T21:30:40-05:00*%
%TF.ProjectId,SEQUENCER,53455155-454e-4434-9552-2e6b69636164,rev?*%
%TF.SameCoordinates,Original*%
%TF.FileFunction,Legend,Top*%
%TF.FilePolarity,Positive*%
%FSLAX46Y46*%
G04 Gerber Fmt 4.6, Leading zero omitted, Abs format (unit mm)*
G04 Created by KiCad (PCBNEW (6.0.0-0)) date 2022-11-09 21:30:40*
%MOMM*%
%LPD*%
G01*
G04 APERTURE LIST*
%ADD10C,0.250000*%
%ADD11C,0.300000*%
%ADD12C,0.150000*%
%ADD13C,0.200000*%
%ADD14C,0.120000*%
%ADD15C,0.013229*%
%ADD16C,0.230000*%
G04 APERTURE END LIST*
D10*
X153616857Y-133102357D02*
X153759714Y-132959500D01*
X154045428Y-132816642D01*
X154759714Y-132816642D01*
X155045428Y-132959500D01*
X155188285Y-133102357D01*
X155331142Y-133388071D01*
X155331142Y-133673785D01*
X155188285Y-134102357D01*
X153474000Y-135816642D01*
X155331142Y-135816642D01*
D11*
X218465338Y-140486000D02*
X218179623Y-140343142D01*
X217751052Y-140343142D01*
X217322480Y-140486000D01*
X217036766Y-140771714D01*
X216893909Y-141057428D01*
X216751052Y-141628857D01*
X216751052Y-142057428D01*
X216893909Y-142628857D01*
X217036766Y-142914571D01*
X217322480Y-143200285D01*
X217751052Y-143343142D01*
X218036766Y-143343142D01*
X218465338Y-143200285D01*
X218608195Y-143057428D01*
X218608195Y-142057428D01*
X218036766Y-142057428D01*
X219751052Y-142486000D02*
X221179623Y-142486000D01*
X219465338Y-143343142D02*
X220465338Y-140343142D01*
X221465338Y-143343142D01*
X222036766Y-140343142D02*
X223751052Y-140343142D01*
X222893909Y-143343142D02*
X222893909Y-140343142D01*
X224751052Y-141771714D02*
X225751052Y-141771714D01*
X226179623Y-143343142D02*
X224751052Y-143343142D01*
X224751052Y-140343142D01*
X226179623Y-140343142D01*
D10*
X133475142Y-135816642D02*
X131760857Y-135816642D01*
X132618000Y-135816642D02*
X132618000Y-132816642D01*
X132332285Y-133245214D01*
X132046571Y-133530928D01*
X131760857Y-133673785D01*
D11*
X245768857Y-143311428D02*
X245626000Y-143454285D01*
X245197428Y-143597142D01*
X244911714Y-143597142D01*
X244483142Y-143454285D01*
X244197428Y-143168571D01*
X244054571Y-142882857D01*
X243911714Y-142311428D01*
X243911714Y-141882857D01*
X244054571Y-141311428D01*
X244197428Y-141025714D01*
X244483142Y-140740000D01*
X244911714Y-140597142D01*
X245197428Y-140597142D01*
X245626000Y-140740000D01*
X245768857Y-140882857D01*
X246626000Y-140597142D02*
X247626000Y-143597142D01*
X248626000Y-140597142D01*
D10*
X220932285Y-132816642D02*
X219503714Y-132816642D01*
X219360857Y-134245214D01*
X219503714Y-134102357D01*
X219789428Y-133959500D01*
X220503714Y-133959500D01*
X220789428Y-134102357D01*
X220932285Y-134245214D01*
X221075142Y-134530928D01*
X221075142Y-135245214D01*
X220932285Y-135530928D01*
X220789428Y-135673785D01*
X220503714Y-135816642D01*
X219789428Y-135816642D01*
X219503714Y-135673785D01*
X219360857Y-135530928D01*
X286026285Y-134102357D02*
X285740571Y-133959500D01*
X285597714Y-133816642D01*
X285454857Y-133530928D01*
X285454857Y-133388071D01*
X285597714Y-133102357D01*
X285740571Y-132959500D01*
X286026285Y-132816642D01*
X286597714Y-132816642D01*
X286883428Y-132959500D01*
X287026285Y-133102357D01*
X287169142Y-133388071D01*
X287169142Y-133530928D01*
X287026285Y-133816642D01*
X286883428Y-133959500D01*
X286597714Y-134102357D01*
X286026285Y-134102357D01*
X285740571Y-134245214D01*
X285597714Y-134388071D01*
X285454857Y-134673785D01*
X285454857Y-135245214D01*
X285597714Y-135530928D01*
X285740571Y-135673785D01*
X286026285Y-135816642D01*
X286597714Y-135816642D01*
X286883428Y-135673785D01*
X287026285Y-135530928D01*
X287169142Y-135245214D01*
X287169142Y-134673785D01*
X287026285Y-134388071D01*
X286883428Y-134245214D01*
X286597714Y-134102357D01*
D12*
X104747714Y-149776571D02*
X104747714Y-148276571D01*
X105462000Y-148776571D02*
X105462000Y-149776571D01*
X105462000Y-148919428D02*
X105533428Y-148848000D01*
X105676285Y-148776571D01*
X105890571Y-148776571D01*
X106033428Y-148848000D01*
X106104857Y-148990857D01*
X106104857Y-149776571D01*
X106604857Y-148776571D02*
X107176285Y-148776571D01*
X106819142Y-148276571D02*
X106819142Y-149562285D01*
X106890571Y-149705142D01*
X107033428Y-149776571D01*
X107176285Y-149776571D01*
X108247714Y-149705142D02*
X108104857Y-149776571D01*
X107819142Y-149776571D01*
X107676285Y-149705142D01*
X107604857Y-149562285D01*
X107604857Y-148990857D01*
X107676285Y-148848000D01*
X107819142Y-148776571D01*
X108104857Y-148776571D01*
X108247714Y-148848000D01*
X108319142Y-148990857D01*
X108319142Y-149133714D01*
X107604857Y-149276571D01*
X108962000Y-149776571D02*
X108962000Y-148776571D01*
X108962000Y-149062285D02*
X109033428Y-148919428D01*
X109104857Y-148848000D01*
X109247714Y-148776571D01*
X109390571Y-148776571D01*
X109890571Y-148776571D02*
X109890571Y-149776571D01*
X109890571Y-148919428D02*
X109962000Y-148848000D01*
X110104857Y-148776571D01*
X110319142Y-148776571D01*
X110462000Y-148848000D01*
X110533428Y-148990857D01*
X110533428Y-149776571D01*
X111890571Y-149776571D02*
X111890571Y-148990857D01*
X111819142Y-148848000D01*
X111676285Y-148776571D01*
X111390571Y-148776571D01*
X111247714Y-148848000D01*
X111890571Y-149705142D02*
X111747714Y-149776571D01*
X111390571Y-149776571D01*
X111247714Y-149705142D01*
X111176285Y-149562285D01*
X111176285Y-149419428D01*
X111247714Y-149276571D01*
X111390571Y-149205142D01*
X111747714Y-149205142D01*
X111890571Y-149133714D01*
X112819142Y-149776571D02*
X112676285Y-149705142D01*
X112604857Y-149562285D01*
X112604857Y-148276571D01*
D11*
X139034285Y-142803428D02*
X138891428Y-142946285D01*
X138462857Y-143089142D01*
X138177142Y-143089142D01*
X137748571Y-142946285D01*
X137462857Y-142660571D01*
X137320000Y-142374857D01*
X137177142Y-141803428D01*
X137177142Y-141374857D01*
X137320000Y-140803428D01*
X137462857Y-140517714D01*
X137748571Y-140232000D01*
X138177142Y-140089142D01*
X138462857Y-140089142D01*
X138891428Y-140232000D01*
X139034285Y-140374857D01*
X141748571Y-143089142D02*
X140320000Y-143089142D01*
X140320000Y-140089142D01*
X143320000Y-140089142D02*
X143891428Y-140089142D01*
X144177142Y-140232000D01*
X144462857Y-140517714D01*
X144605714Y-141089142D01*
X144605714Y-142089142D01*
X144462857Y-142660571D01*
X144177142Y-142946285D01*
X143891428Y-143089142D01*
X143320000Y-143089142D01*
X143034285Y-142946285D01*
X142748571Y-142660571D01*
X142605714Y-142089142D01*
X142605714Y-141089142D01*
X142748571Y-140517714D01*
X143034285Y-140232000D01*
X143320000Y-140089142D01*
X147605714Y-142803428D02*
X147462857Y-142946285D01*
X147034285Y-143089142D01*
X146748571Y-143089142D01*
X146320000Y-142946285D01*
X146034285Y-142660571D01*
X145891428Y-142374857D01*
X145748571Y-141803428D01*
X145748571Y-141374857D01*
X145891428Y-140803428D01*
X146034285Y-140517714D01*
X146320000Y-140232000D01*
X146748571Y-140089142D01*
X147034285Y-140089142D01*
X147462857Y-140232000D01*
X147605714Y-140374857D01*
X148891428Y-143089142D02*
X148891428Y-140089142D01*
X150605714Y-143089142D02*
X149320000Y-141374857D01*
X150605714Y-140089142D02*
X148891428Y-141803428D01*
X154177142Y-143089142D02*
X154177142Y-140089142D01*
X155605714Y-143089142D02*
X155605714Y-140089142D01*
X157320000Y-143089142D01*
X157320000Y-140089142D01*
X106112904Y-69611904D02*
X105922428Y-69516666D01*
X105827190Y-69421428D01*
X105731952Y-69230952D01*
X105731952Y-69135714D01*
X105827190Y-68945238D01*
X105922428Y-68850000D01*
X106112904Y-68754761D01*
X106493857Y-68754761D01*
X106684333Y-68850000D01*
X106779571Y-68945238D01*
X106874809Y-69135714D01*
X106874809Y-69230952D01*
X106779571Y-69421428D01*
X106684333Y-69516666D01*
X106493857Y-69611904D01*
X106112904Y-69611904D01*
X105922428Y-69707142D01*
X105827190Y-69802380D01*
X105731952Y-69992857D01*
X105731952Y-70373809D01*
X105827190Y-70564285D01*
X105922428Y-70659523D01*
X106112904Y-70754761D01*
X106493857Y-70754761D01*
X106684333Y-70659523D01*
X106779571Y-70564285D01*
X106874809Y-70373809D01*
X106874809Y-69992857D01*
X106779571Y-69802380D01*
X106684333Y-69707142D01*
X106493857Y-69611904D01*
X107731952Y-70754761D02*
X107731952Y-68754761D01*
X107731952Y-69516666D02*
X107922428Y-69421428D01*
X108303380Y-69421428D01*
X108493857Y-69516666D01*
X108589095Y-69611904D01*
X108684333Y-69802380D01*
X108684333Y-70373809D01*
X108589095Y-70564285D01*
X108493857Y-70659523D01*
X108303380Y-70754761D01*
X107922428Y-70754761D01*
X107731952Y-70659523D01*
X109541476Y-70754761D02*
X109541476Y-69421428D01*
X109541476Y-68754761D02*
X109446238Y-68850000D01*
X109541476Y-68945238D01*
X109636714Y-68850000D01*
X109541476Y-68754761D01*
X109541476Y-68945238D01*
X110208142Y-69421428D02*
X110970047Y-69421428D01*
X110493857Y-68754761D02*
X110493857Y-70469047D01*
X110589095Y-70659523D01*
X110779571Y-70754761D01*
X110970047Y-70754761D01*
X113065285Y-70659523D02*
X113351000Y-70754761D01*
X113827190Y-70754761D01*
X114017666Y-70659523D01*
X114112904Y-70564285D01*
X114208142Y-70373809D01*
X114208142Y-70183333D01*
X114112904Y-69992857D01*
X114017666Y-69897619D01*
X113827190Y-69802380D01*
X113446238Y-69707142D01*
X113255761Y-69611904D01*
X113160523Y-69516666D01*
X113065285Y-69326190D01*
X113065285Y-69135714D01*
X113160523Y-68945238D01*
X113255761Y-68850000D01*
X113446238Y-68754761D01*
X113922428Y-68754761D01*
X114208142Y-68850000D01*
X115827190Y-70659523D02*
X115636714Y-70754761D01*
X115255761Y-70754761D01*
X115065285Y-70659523D01*
X114970047Y-70469047D01*
X114970047Y-69707142D01*
X115065285Y-69516666D01*
X115255761Y-69421428D01*
X115636714Y-69421428D01*
X115827190Y-69516666D01*
X115922428Y-69707142D01*
X115922428Y-69897619D01*
X114970047Y-70088095D01*
X117636714Y-69421428D02*
X117636714Y-71421428D01*
X117636714Y-70659523D02*
X117446238Y-70754761D01*
X117065285Y-70754761D01*
X116874809Y-70659523D01*
X116779571Y-70564285D01*
X116684333Y-70373809D01*
X116684333Y-69802380D01*
X116779571Y-69611904D01*
X116874809Y-69516666D01*
X117065285Y-69421428D01*
X117446238Y-69421428D01*
X117636714Y-69516666D01*
X119446238Y-69421428D02*
X119446238Y-70754761D01*
X118589095Y-69421428D02*
X118589095Y-70469047D01*
X118684333Y-70659523D01*
X118874809Y-70754761D01*
X119160523Y-70754761D01*
X119351000Y-70659523D01*
X119446238Y-70564285D01*
X121160523Y-70659523D02*
X120970047Y-70754761D01*
X120589095Y-70754761D01*
X120398619Y-70659523D01*
X120303380Y-70469047D01*
X120303380Y-69707142D01*
X120398619Y-69516666D01*
X120589095Y-69421428D01*
X120970047Y-69421428D01*
X121160523Y-69516666D01*
X121255761Y-69707142D01*
X121255761Y-69897619D01*
X120303380Y-70088095D01*
X122112904Y-69421428D02*
X122112904Y-70754761D01*
X122112904Y-69611904D02*
X122208142Y-69516666D01*
X122398619Y-69421428D01*
X122684333Y-69421428D01*
X122874809Y-69516666D01*
X122970047Y-69707142D01*
X122970047Y-70754761D01*
X124779571Y-70659523D02*
X124589095Y-70754761D01*
X124208142Y-70754761D01*
X124017666Y-70659523D01*
X123922428Y-70564285D01*
X123827190Y-70373809D01*
X123827190Y-69802380D01*
X123922428Y-69611904D01*
X124017666Y-69516666D01*
X124208142Y-69421428D01*
X124589095Y-69421428D01*
X124779571Y-69516666D01*
X126398619Y-70659523D02*
X126208142Y-70754761D01*
X125827190Y-70754761D01*
X125636714Y-70659523D01*
X125541476Y-70469047D01*
X125541476Y-69707142D01*
X125636714Y-69516666D01*
X125827190Y-69421428D01*
X126208142Y-69421428D01*
X126398619Y-69516666D01*
X126493857Y-69707142D01*
X126493857Y-69897619D01*
X125541476Y-70088095D01*
X127351000Y-70754761D02*
X127351000Y-69421428D01*
X127351000Y-69802380D02*
X127446238Y-69611904D01*
X127541476Y-69516666D01*
X127731952Y-69421428D01*
X127922428Y-69421428D01*
X129922428Y-69421428D02*
X130303380Y-70754761D01*
X130684333Y-69802380D01*
X131065285Y-70754761D01*
X131446238Y-69421428D01*
X133636714Y-68659523D02*
X131922428Y-71230952D01*
X136874809Y-68850000D02*
X136684333Y-68754761D01*
X136398619Y-68754761D01*
X136112904Y-68850000D01*
X135922428Y-69040476D01*
X135827190Y-69230952D01*
X135731952Y-69611904D01*
X135731952Y-69897619D01*
X135827190Y-70278571D01*
X135922428Y-70469047D01*
X136112904Y-70659523D01*
X136398619Y-70754761D01*
X136589095Y-70754761D01*
X136874809Y-70659523D01*
X136970047Y-70564285D01*
X136970047Y-69897619D01*
X136589095Y-69897619D01*
X138684333Y-70754761D02*
X138684333Y-69707142D01*
X138589095Y-69516666D01*
X138398619Y-69421428D01*
X138017666Y-69421428D01*
X137827190Y-69516666D01*
X138684333Y-70659523D02*
X138493857Y-70754761D01*
X138017666Y-70754761D01*
X137827190Y-70659523D01*
X137731952Y-70469047D01*
X137731952Y-70278571D01*
X137827190Y-70088095D01*
X138017666Y-69992857D01*
X138493857Y-69992857D01*
X138684333Y-69897619D01*
X139351000Y-69421428D02*
X140112904Y-69421428D01*
X139636714Y-68754761D02*
X139636714Y-70469047D01*
X139731952Y-70659523D01*
X139922428Y-70754761D01*
X140112904Y-70754761D01*
X141541476Y-70659523D02*
X141351000Y-70754761D01*
X140970047Y-70754761D01*
X140779571Y-70659523D01*
X140684333Y-70469047D01*
X140684333Y-69707142D01*
X140779571Y-69516666D01*
X140970047Y-69421428D01*
X141351000Y-69421428D01*
X141541476Y-69516666D01*
X141636714Y-69707142D01*
X141636714Y-69897619D01*
X140684333Y-70088095D01*
X144874809Y-70754761D02*
X144874809Y-69707142D01*
X144779571Y-69516666D01*
X144589095Y-69421428D01*
X144208142Y-69421428D01*
X144017666Y-69516666D01*
X144874809Y-70659523D02*
X144684333Y-70754761D01*
X144208142Y-70754761D01*
X144017666Y-70659523D01*
X143922428Y-70469047D01*
X143922428Y-70278571D01*
X144017666Y-70088095D01*
X144208142Y-69992857D01*
X144684333Y-69992857D01*
X144874809Y-69897619D01*
X145827190Y-69421428D02*
X145827190Y-70754761D01*
X145827190Y-69611904D02*
X145922428Y-69516666D01*
X146112904Y-69421428D01*
X146398619Y-69421428D01*
X146589095Y-69516666D01*
X146684333Y-69707142D01*
X146684333Y-70754761D01*
X148493857Y-70754761D02*
X148493857Y-68754761D01*
X148493857Y-70659523D02*
X148303380Y-70754761D01*
X147922428Y-70754761D01*
X147731952Y-70659523D01*
X147636714Y-70564285D01*
X147541476Y-70373809D01*
X147541476Y-69802380D01*
X147636714Y-69611904D01*
X147731952Y-69516666D01*
X147922428Y-69421428D01*
X148303380Y-69421428D01*
X148493857Y-69516666D01*
X152112904Y-70564285D02*
X152017666Y-70659523D01*
X151731952Y-70754761D01*
X151541476Y-70754761D01*
X151255761Y-70659523D01*
X151065285Y-70469047D01*
X150970047Y-70278571D01*
X150874809Y-69897619D01*
X150874809Y-69611904D01*
X150970047Y-69230952D01*
X151065285Y-69040476D01*
X151255761Y-68850000D01*
X151541476Y-68754761D01*
X151731952Y-68754761D01*
X152017666Y-68850000D01*
X152112904Y-68945238D01*
X152684333Y-68754761D02*
X153350999Y-70754761D01*
X154017666Y-68754761D01*
X156589095Y-68754761D02*
X156970047Y-68754761D01*
X157160523Y-68850000D01*
X157350999Y-69040476D01*
X157446238Y-69421428D01*
X157446238Y-70088095D01*
X157350999Y-70469047D01*
X157160523Y-70659523D01*
X156970047Y-70754761D01*
X156589095Y-70754761D01*
X156398619Y-70659523D01*
X156208142Y-70469047D01*
X156112904Y-70088095D01*
X156112904Y-69421428D01*
X156208142Y-69040476D01*
X156398619Y-68850000D01*
X156589095Y-68754761D01*
X159160523Y-69421428D02*
X159160523Y-70754761D01*
X158303380Y-69421428D02*
X158303380Y-70469047D01*
X158398619Y-70659523D01*
X158589095Y-70754761D01*
X158874809Y-70754761D01*
X159065285Y-70659523D01*
X159160523Y-70564285D01*
X159827190Y-69421428D02*
X160589095Y-69421428D01*
X160112904Y-68754761D02*
X160112904Y-70469047D01*
X160208142Y-70659523D01*
X160398619Y-70754761D01*
X160589095Y-70754761D01*
X161255761Y-69421428D02*
X161255761Y-71421428D01*
X161255761Y-69516666D02*
X161446238Y-69421428D01*
X161827190Y-69421428D01*
X162017666Y-69516666D01*
X162112904Y-69611904D01*
X162208142Y-69802380D01*
X162208142Y-70373809D01*
X162112904Y-70564285D01*
X162017666Y-70659523D01*
X161827190Y-70754761D01*
X161446238Y-70754761D01*
X161255761Y-70659523D01*
X163922428Y-69421428D02*
X163922428Y-70754761D01*
X163065285Y-69421428D02*
X163065285Y-70469047D01*
X163160523Y-70659523D01*
X163350999Y-70754761D01*
X163636714Y-70754761D01*
X163827190Y-70659523D01*
X163922428Y-70564285D01*
X164589095Y-69421428D02*
X165350999Y-69421428D01*
X164874809Y-68754761D02*
X164874809Y-70469047D01*
X164970047Y-70659523D01*
X165160523Y-70754761D01*
X165350999Y-70754761D01*
D10*
X198733428Y-133816642D02*
X198733428Y-135816642D01*
X198019142Y-132673785D02*
X197304857Y-134816642D01*
X199162000Y-134816642D01*
X175560000Y-132816642D02*
X177417142Y-132816642D01*
X176417142Y-133959500D01*
X176845714Y-133959500D01*
X177131428Y-134102357D01*
X177274285Y-134245214D01*
X177417142Y-134530928D01*
X177417142Y-135245214D01*
X177274285Y-135530928D01*
X177131428Y-135673785D01*
X176845714Y-135816642D01*
X175988571Y-135816642D01*
X175702857Y-135673785D01*
X175560000Y-135530928D01*
D11*
X167024859Y-143089142D02*
X166024859Y-141660571D01*
X165310573Y-143089142D02*
X165310573Y-140089142D01*
X166453430Y-140089142D01*
X166739144Y-140232000D01*
X166882002Y-140374857D01*
X167024859Y-140660571D01*
X167024859Y-141089142D01*
X166882002Y-141374857D01*
X166739144Y-141517714D01*
X166453430Y-141660571D01*
X165310573Y-141660571D01*
X168310573Y-141517714D02*
X169310573Y-141517714D01*
X169739144Y-143089142D02*
X168310573Y-143089142D01*
X168310573Y-140089142D01*
X169739144Y-140089142D01*
X170882002Y-142946285D02*
X171310573Y-143089142D01*
X172024859Y-143089142D01*
X172310573Y-142946285D01*
X172453430Y-142803428D01*
X172596287Y-142517714D01*
X172596287Y-142232000D01*
X172453430Y-141946285D01*
X172310573Y-141803428D01*
X172024859Y-141660571D01*
X171453430Y-141517714D01*
X171167716Y-141374857D01*
X171024859Y-141232000D01*
X170882002Y-140946285D01*
X170882002Y-140660571D01*
X171024859Y-140374857D01*
X171167716Y-140232000D01*
X171453430Y-140089142D01*
X172167716Y-140089142D01*
X172596287Y-140232000D01*
X173882002Y-141517714D02*
X174882002Y-141517714D01*
X175310573Y-143089142D02*
X173882002Y-143089142D01*
X173882002Y-140089142D01*
X175310573Y-140089142D01*
X176167716Y-140089142D02*
X177882002Y-140089142D01*
X177024859Y-143089142D02*
X177024859Y-140089142D01*
D12*
X101944214Y-158130571D02*
X102015642Y-158202000D01*
X102087071Y-158416285D01*
X102087071Y-158559142D01*
X102015642Y-158773428D01*
X101872785Y-158916285D01*
X101729928Y-158987714D01*
X101444214Y-159059142D01*
X101229928Y-159059142D01*
X100944214Y-158987714D01*
X100801357Y-158916285D01*
X100658500Y-158773428D01*
X100587071Y-158559142D01*
X100587071Y-158416285D01*
X100658500Y-158202000D01*
X100729928Y-158130571D01*
X102087071Y-156773428D02*
X102087071Y-157487714D01*
X100587071Y-157487714D01*
X100587071Y-155987714D02*
X100587071Y-155702000D01*
X100658500Y-155559142D01*
X100801357Y-155416285D01*
X101087071Y-155344857D01*
X101587071Y-155344857D01*
X101872785Y-155416285D01*
X102015642Y-155559142D01*
X102087071Y-155702000D01*
X102087071Y-155987714D01*
X102015642Y-156130571D01*
X101872785Y-156273428D01*
X101587071Y-156344857D01*
X101087071Y-156344857D01*
X100801357Y-156273428D01*
X100658500Y-156130571D01*
X100587071Y-155987714D01*
X101944214Y-153844857D02*
X102015642Y-153916285D01*
X102087071Y-154130571D01*
X102087071Y-154273428D01*
X102015642Y-154487714D01*
X101872785Y-154630571D01*
X101729928Y-154702000D01*
X101444214Y-154773428D01*
X101229928Y-154773428D01*
X100944214Y-154702000D01*
X100801357Y-154630571D01*
X100658500Y-154487714D01*
X100587071Y-154273428D01*
X100587071Y-154130571D01*
X100658500Y-153916285D01*
X100729928Y-153844857D01*
X102087071Y-153202000D02*
X100587071Y-153202000D01*
X102087071Y-152344857D02*
X101229928Y-152987714D01*
X100587071Y-152344857D02*
X101444214Y-153202000D01*
X104430642Y-159880571D02*
X104502071Y-159666285D01*
X104502071Y-159309142D01*
X104430642Y-159166285D01*
X104359214Y-159094857D01*
X104216357Y-159023428D01*
X104073500Y-159023428D01*
X103930642Y-159094857D01*
X103859214Y-159166285D01*
X103787785Y-159309142D01*
X103716357Y-159594857D01*
X103644928Y-159737714D01*
X103573500Y-159809142D01*
X103430642Y-159880571D01*
X103287785Y-159880571D01*
X103144928Y-159809142D01*
X103073500Y-159737714D01*
X103002071Y-159594857D01*
X103002071Y-159237714D01*
X103073500Y-159023428D01*
X103002071Y-158094857D02*
X103002071Y-157809142D01*
X103073500Y-157666285D01*
X103216357Y-157523428D01*
X103502071Y-157452000D01*
X104002071Y-157452000D01*
X104287785Y-157523428D01*
X104430642Y-157666285D01*
X104502071Y-157809142D01*
X104502071Y-158094857D01*
X104430642Y-158237714D01*
X104287785Y-158380571D01*
X104002071Y-158452000D01*
X103502071Y-158452000D01*
X103216357Y-158380571D01*
X103073500Y-158237714D01*
X103002071Y-158094857D01*
X103002071Y-156809142D02*
X104216357Y-156809142D01*
X104359214Y-156737714D01*
X104430642Y-156666285D01*
X104502071Y-156523428D01*
X104502071Y-156237714D01*
X104430642Y-156094857D01*
X104359214Y-156023428D01*
X104216357Y-155952000D01*
X103002071Y-155952000D01*
X104502071Y-154380571D02*
X103787785Y-154880571D01*
X104502071Y-155237714D02*
X103002071Y-155237714D01*
X103002071Y-154666285D01*
X103073500Y-154523428D01*
X103144928Y-154452000D01*
X103287785Y-154380571D01*
X103502071Y-154380571D01*
X103644928Y-154452000D01*
X103716357Y-154523428D01*
X103787785Y-154666285D01*
X103787785Y-155237714D01*
X104359214Y-152880571D02*
X104430642Y-152952000D01*
X104502071Y-153166285D01*
X104502071Y-153309142D01*
X104430642Y-153523428D01*
X104287785Y-153666285D01*
X104144928Y-153737714D01*
X103859214Y-153809142D01*
X103644928Y-153809142D01*
X103359214Y-153737714D01*
X103216357Y-153666285D01*
X103073500Y-153523428D01*
X103002071Y-153309142D01*
X103002071Y-153166285D01*
X103073500Y-152952000D01*
X103144928Y-152880571D01*
X103716357Y-152237714D02*
X103716357Y-151737714D01*
X104502071Y-151523428D02*
X104502071Y-152237714D01*
X103002071Y-152237714D01*
X103002071Y-151523428D01*
D10*
X263384000Y-132816642D02*
X265384000Y-132816642D01*
X264098285Y-135816642D01*
D13*
X261493047Y-160956761D02*
X260540666Y-160956761D01*
X260445428Y-161909142D01*
X260540666Y-161813904D01*
X260731142Y-161718666D01*
X261207333Y-161718666D01*
X261397809Y-161813904D01*
X261493047Y-161909142D01*
X261588285Y-162099619D01*
X261588285Y-162575809D01*
X261493047Y-162766285D01*
X261397809Y-162861523D01*
X261207333Y-162956761D01*
X260731142Y-162956761D01*
X260540666Y-162861523D01*
X260445428Y-162766285D01*
X262159714Y-160956761D02*
X262826380Y-162956761D01*
X263493047Y-160956761D01*
D11*
X121094857Y-142835142D02*
X120094857Y-141406571D01*
X119380571Y-142835142D02*
X119380571Y-139835142D01*
X120523428Y-139835142D01*
X120809142Y-139978000D01*
X120952000Y-140120857D01*
X121094857Y-140406571D01*
X121094857Y-140835142D01*
X120952000Y-141120857D01*
X120809142Y-141263714D01*
X120523428Y-141406571D01*
X119380571Y-141406571D01*
X122237714Y-141978000D02*
X123666285Y-141978000D01*
X121952000Y-142835142D02*
X122952000Y-139835142D01*
X123952000Y-142835142D01*
X124523428Y-139835142D02*
X126237714Y-139835142D01*
X125380571Y-142835142D02*
X125380571Y-139835142D01*
X127237714Y-141263714D02*
X128237714Y-141263714D01*
X128666285Y-142835142D02*
X127237714Y-142835142D01*
X127237714Y-139835142D01*
X128666285Y-139835142D01*
D12*
X104497714Y-162706857D02*
X104997714Y-162706857D01*
X105212000Y-163492571D02*
X104497714Y-163492571D01*
X104497714Y-161992571D01*
X105212000Y-161992571D01*
X105712000Y-163492571D02*
X106497714Y-162492571D01*
X105712000Y-162492571D02*
X106497714Y-163492571D01*
X106854857Y-162492571D02*
X107426285Y-162492571D01*
X107069142Y-161992571D02*
X107069142Y-163278285D01*
X107140571Y-163421142D01*
X107283428Y-163492571D01*
X107426285Y-163492571D01*
X108497714Y-163421142D02*
X108354857Y-163492571D01*
X108069142Y-163492571D01*
X107926285Y-163421142D01*
X107854857Y-163278285D01*
X107854857Y-162706857D01*
X107926285Y-162564000D01*
X108069142Y-162492571D01*
X108354857Y-162492571D01*
X108497714Y-162564000D01*
X108569142Y-162706857D01*
X108569142Y-162849714D01*
X107854857Y-162992571D01*
X109212000Y-163492571D02*
X109212000Y-162492571D01*
X109212000Y-162778285D02*
X109283428Y-162635428D01*
X109354857Y-162564000D01*
X109497714Y-162492571D01*
X109640571Y-162492571D01*
X110140571Y-162492571D02*
X110140571Y-163492571D01*
X110140571Y-162635428D02*
X110212000Y-162564000D01*
X110354857Y-162492571D01*
X110569142Y-162492571D01*
X110712000Y-162564000D01*
X110783428Y-162706857D01*
X110783428Y-163492571D01*
X112140571Y-163492571D02*
X112140571Y-162706857D01*
X112069142Y-162564000D01*
X111926285Y-162492571D01*
X111640571Y-162492571D01*
X111497714Y-162564000D01*
X112140571Y-163421142D02*
X111997714Y-163492571D01*
X111640571Y-163492571D01*
X111497714Y-163421142D01*
X111426285Y-163278285D01*
X111426285Y-163135428D01*
X111497714Y-162992571D01*
X111640571Y-162921142D01*
X111997714Y-162921142D01*
X112140571Y-162849714D01*
X113069142Y-163492571D02*
X112926285Y-163421142D01*
X112854857Y-163278285D01*
X112854857Y-161992571D01*
D13*
X259016857Y-147939238D02*
X259112095Y-147844000D01*
X259302571Y-147748761D01*
X259778761Y-147748761D01*
X259969238Y-147844000D01*
X260064476Y-147939238D01*
X260159714Y-148129714D01*
X260159714Y-148320190D01*
X260064476Y-148605904D01*
X258921619Y-149748761D01*
X260159714Y-149748761D01*
X261016857Y-149558285D02*
X261112095Y-149653523D01*
X261016857Y-149748761D01*
X260921619Y-149653523D01*
X261016857Y-149558285D01*
X261016857Y-149748761D01*
X261874000Y-147939238D02*
X261969238Y-147844000D01*
X262159714Y-147748761D01*
X262635904Y-147748761D01*
X262826380Y-147844000D01*
X262921619Y-147939238D01*
X263016857Y-148129714D01*
X263016857Y-148320190D01*
X262921619Y-148605904D01*
X261778761Y-149748761D01*
X263016857Y-149748761D01*
X263588285Y-147748761D02*
X264254952Y-149748761D01*
X264921619Y-147748761D01*
D12*
X106522190Y-74596761D02*
X107665047Y-74596761D01*
X107093619Y-76596761D02*
X107093619Y-74596761D01*
X108331714Y-76596761D02*
X108331714Y-75263428D01*
X108331714Y-75644380D02*
X108426952Y-75453904D01*
X108522190Y-75358666D01*
X108712666Y-75263428D01*
X108903142Y-75263428D01*
X109569809Y-76596761D02*
X109569809Y-75263428D01*
X109569809Y-74596761D02*
X109474571Y-74692000D01*
X109569809Y-74787238D01*
X109665047Y-74692000D01*
X109569809Y-74596761D01*
X109569809Y-74787238D01*
X110807904Y-76596761D02*
X110617428Y-76501523D01*
X110522190Y-76311047D01*
X110522190Y-74596761D01*
X111855523Y-76596761D02*
X111665047Y-76501523D01*
X111569809Y-76406285D01*
X111474571Y-76215809D01*
X111474571Y-75644380D01*
X111569809Y-75453904D01*
X111665047Y-75358666D01*
X111855523Y-75263428D01*
X112141238Y-75263428D01*
X112331714Y-75358666D01*
X112426952Y-75453904D01*
X112522190Y-75644380D01*
X112522190Y-76215809D01*
X112426952Y-76406285D01*
X112331714Y-76501523D01*
X112141238Y-76596761D01*
X111855523Y-76596761D01*
X113284095Y-76501523D02*
X113474571Y-76596761D01*
X113855523Y-76596761D01*
X114046000Y-76501523D01*
X114141238Y-76311047D01*
X114141238Y-76215809D01*
X114046000Y-76025333D01*
X113855523Y-75930095D01*
X113569809Y-75930095D01*
X113379333Y-75834857D01*
X113284095Y-75644380D01*
X113284095Y-75549142D01*
X113379333Y-75358666D01*
X113569809Y-75263428D01*
X113855523Y-75263428D01*
X114046000Y-75358666D01*
X115284095Y-76596761D02*
X115093619Y-76501523D01*
X114998380Y-76406285D01*
X114903142Y-76215809D01*
X114903142Y-75644380D01*
X114998380Y-75453904D01*
X115093619Y-75358666D01*
X115284095Y-75263428D01*
X115569809Y-75263428D01*
X115760285Y-75358666D01*
X115855523Y-75453904D01*
X115950761Y-75644380D01*
X115950761Y-76215809D01*
X115855523Y-76406285D01*
X115760285Y-76501523D01*
X115569809Y-76596761D01*
X115284095Y-76596761D01*
X117665047Y-75263428D02*
X117665047Y-76596761D01*
X116807904Y-75263428D02*
X116807904Y-76311047D01*
X116903142Y-76501523D01*
X117093619Y-76596761D01*
X117379333Y-76596761D01*
X117569809Y-76501523D01*
X117665047Y-76406285D01*
X118617428Y-75263428D02*
X118617428Y-76596761D01*
X118617428Y-75453904D02*
X118712666Y-75358666D01*
X118903142Y-75263428D01*
X119188857Y-75263428D01*
X119379333Y-75358666D01*
X119474571Y-75549142D01*
X119474571Y-76596761D01*
X121284095Y-76596761D02*
X121284095Y-74596761D01*
X121284095Y-76501523D02*
X121093619Y-76596761D01*
X120712666Y-76596761D01*
X120522190Y-76501523D01*
X120426952Y-76406285D01*
X120331714Y-76215809D01*
X120331714Y-75644380D01*
X120426952Y-75453904D01*
X120522190Y-75358666D01*
X120712666Y-75263428D01*
X121093619Y-75263428D01*
X121284095Y-75358666D01*
D10*
X242941428Y-132816642D02*
X242370000Y-132816642D01*
X242084285Y-132959500D01*
X241941428Y-133102357D01*
X241655714Y-133530928D01*
X241512857Y-134102357D01*
X241512857Y-135245214D01*
X241655714Y-135530928D01*
X241798571Y-135673785D01*
X242084285Y-135816642D01*
X242655714Y-135816642D01*
X242941428Y-135673785D01*
X243084285Y-135530928D01*
X243227142Y-135245214D01*
X243227142Y-134530928D01*
X243084285Y-134245214D01*
X242941428Y-134102357D01*
X242655714Y-133959500D01*
X242084285Y-133959500D01*
X241798571Y-134102357D01*
X241655714Y-134245214D01*
X241512857Y-134530928D01*
D11*
X186772955Y-142803428D02*
X186630098Y-142946285D01*
X186201527Y-143089142D01*
X185915812Y-143089142D01*
X185487241Y-142946285D01*
X185201527Y-142660571D01*
X185058670Y-142374857D01*
X184915812Y-141803428D01*
X184915812Y-141374857D01*
X185058670Y-140803428D01*
X185201527Y-140517714D01*
X185487241Y-140232000D01*
X185915812Y-140089142D01*
X186201527Y-140089142D01*
X186630098Y-140232000D01*
X186772955Y-140374857D01*
X189487241Y-143089142D02*
X188058670Y-143089142D01*
X188058670Y-140089142D01*
X191058670Y-140089142D02*
X191630098Y-140089142D01*
X191915812Y-140232000D01*
X192201527Y-140517714D01*
X192344384Y-141089142D01*
X192344384Y-142089142D01*
X192201527Y-142660571D01*
X191915812Y-142946285D01*
X191630098Y-143089142D01*
X191058670Y-143089142D01*
X190772955Y-142946285D01*
X190487241Y-142660571D01*
X190344384Y-142089142D01*
X190344384Y-141089142D01*
X190487241Y-140517714D01*
X190772955Y-140232000D01*
X191058670Y-140089142D01*
X195344384Y-142803428D02*
X195201527Y-142946285D01*
X194772955Y-143089142D01*
X194487241Y-143089142D01*
X194058670Y-142946285D01*
X193772955Y-142660571D01*
X193630098Y-142374857D01*
X193487241Y-141803428D01*
X193487241Y-141374857D01*
X193630098Y-140803428D01*
X193772955Y-140517714D01*
X194058670Y-140232000D01*
X194487241Y-140089142D01*
X194772955Y-140089142D01*
X195201527Y-140232000D01*
X195344384Y-140374857D01*
X196630098Y-143089142D02*
X196630098Y-140089142D01*
X198344384Y-143089142D02*
X197058670Y-141374857D01*
X198344384Y-140089142D02*
X196630098Y-141803428D01*
X202487241Y-140089142D02*
X203058670Y-140089142D01*
X203344384Y-140232000D01*
X203630098Y-140517714D01*
X203772955Y-141089142D01*
X203772955Y-142089142D01*
X203630098Y-142660571D01*
X203344384Y-142946285D01*
X203058670Y-143089142D01*
X202487241Y-143089142D01*
X202201527Y-142946285D01*
X201915812Y-142660571D01*
X201772955Y-142089142D01*
X201772955Y-141089142D01*
X201915812Y-140517714D01*
X202201527Y-140232000D01*
X202487241Y-140089142D01*
X205058670Y-140089142D02*
X205058670Y-142517714D01*
X205201527Y-142803428D01*
X205344384Y-142946285D01*
X205630098Y-143089142D01*
X206201527Y-143089142D01*
X206487241Y-142946285D01*
X206630098Y-142803428D01*
X206772955Y-142517714D01*
X206772955Y-140089142D01*
X207772955Y-140089142D02*
X209487241Y-140089142D01*
X208630098Y-143089142D02*
X208630098Y-140089142D01*
D12*
X266995785Y-153568714D02*
X266924357Y-153640142D01*
X266710071Y-153711571D01*
X266567214Y-153711571D01*
X266352928Y-153640142D01*
X266210071Y-153497285D01*
X266138642Y-153354428D01*
X266067214Y-153068714D01*
X266067214Y-152854428D01*
X266138642Y-152568714D01*
X266210071Y-152425857D01*
X266352928Y-152283000D01*
X266567214Y-152211571D01*
X266710071Y-152211571D01*
X266924357Y-152283000D01*
X266995785Y-152354428D01*
X267424357Y-152211571D02*
X267924357Y-153711571D01*
X268424357Y-152211571D01*
X266995785Y-156126571D02*
X266495785Y-155412285D01*
X266138642Y-156126571D02*
X266138642Y-154626571D01*
X266710071Y-154626571D01*
X266852928Y-154698000D01*
X266924357Y-154769428D01*
X266995785Y-154912285D01*
X266995785Y-155126571D01*
X266924357Y-155269428D01*
X266852928Y-155340857D01*
X266710071Y-155412285D01*
X266138642Y-155412285D01*
X267567214Y-155698000D02*
X268281500Y-155698000D01*
X267424357Y-156126571D02*
X267924357Y-154626571D01*
X268424357Y-156126571D01*
X268924357Y-156126571D02*
X268924357Y-154626571D01*
X269781500Y-156126571D01*
X269781500Y-154626571D01*
X271281500Y-154698000D02*
X271138642Y-154626571D01*
X270924357Y-154626571D01*
X270710071Y-154698000D01*
X270567214Y-154840857D01*
X270495785Y-154983714D01*
X270424357Y-155269428D01*
X270424357Y-155483714D01*
X270495785Y-155769428D01*
X270567214Y-155912285D01*
X270710071Y-156055142D01*
X270924357Y-156126571D01*
X271067214Y-156126571D01*
X271281500Y-156055142D01*
X271352928Y-155983714D01*
X271352928Y-155483714D01*
X271067214Y-155483714D01*
X271995785Y-155340857D02*
X272495785Y-155340857D01*
X272710071Y-156126571D02*
X271995785Y-156126571D01*
X271995785Y-154626571D01*
X272710071Y-154626571D01*
X266067214Y-158470142D02*
X266281500Y-158541571D01*
X266638642Y-158541571D01*
X266781500Y-158470142D01*
X266852928Y-158398714D01*
X266924357Y-158255857D01*
X266924357Y-158113000D01*
X266852928Y-157970142D01*
X266781500Y-157898714D01*
X266638642Y-157827285D01*
X266352928Y-157755857D01*
X266210071Y-157684428D01*
X266138642Y-157613000D01*
X266067214Y-157470142D01*
X266067214Y-157327285D01*
X266138642Y-157184428D01*
X266210071Y-157113000D01*
X266352928Y-157041571D01*
X266710071Y-157041571D01*
X266924357Y-157113000D01*
X267567214Y-157755857D02*
X268067214Y-157755857D01*
X268281500Y-158541571D02*
X267567214Y-158541571D01*
X267567214Y-157041571D01*
X268281500Y-157041571D01*
X269638642Y-158541571D02*
X268924357Y-158541571D01*
X268924357Y-157041571D01*
X270138642Y-157755857D02*
X270638642Y-157755857D01*
X270852928Y-158541571D02*
X270138642Y-158541571D01*
X270138642Y-157041571D01*
X270852928Y-157041571D01*
X272352928Y-158398714D02*
X272281500Y-158470142D01*
X272067214Y-158541571D01*
X271924357Y-158541571D01*
X271710071Y-158470142D01*
X271567214Y-158327285D01*
X271495785Y-158184428D01*
X271424357Y-157898714D01*
X271424357Y-157684428D01*
X271495785Y-157398714D01*
X271567214Y-157255857D01*
X271710071Y-157113000D01*
X271924357Y-157041571D01*
X272067214Y-157041571D01*
X272281500Y-157113000D01*
X272352928Y-157184428D01*
X272781500Y-157041571D02*
X273638642Y-157041571D01*
X273210071Y-158541571D02*
X273210071Y-157041571D01*
%TO.C,SW11*%
X305252000Y-144994285D02*
X305252000Y-144327619D01*
X305490095Y-145375238D02*
X305728190Y-144660952D01*
X305109142Y-144660952D01*
X304013904Y-145375238D02*
X304871047Y-144089523D01*
X303537714Y-144899047D02*
X303632952Y-144946666D01*
X303680571Y-144994285D01*
X303728190Y-145089523D01*
X303728190Y-145137142D01*
X303680571Y-145232380D01*
X303632952Y-145280000D01*
X303537714Y-145327619D01*
X303347238Y-145327619D01*
X303252000Y-145280000D01*
X303204380Y-145232380D01*
X303156761Y-145137142D01*
X303156761Y-145089523D01*
X303204380Y-144994285D01*
X303252000Y-144946666D01*
X303347238Y-144899047D01*
X303537714Y-144899047D01*
X303632952Y-144851428D01*
X303680571Y-144803809D01*
X303728190Y-144708571D01*
X303728190Y-144518095D01*
X303680571Y-144422857D01*
X303632952Y-144375238D01*
X303537714Y-144327619D01*
X303347238Y-144327619D01*
X303252000Y-144375238D01*
X303204380Y-144422857D01*
X303156761Y-144518095D01*
X303156761Y-144708571D01*
X303204380Y-144803809D01*
X303252000Y-144851428D01*
X303347238Y-144899047D01*
X302013904Y-144375238D02*
X301871047Y-144327619D01*
X301632952Y-144327619D01*
X301537714Y-144375238D01*
X301490095Y-144422857D01*
X301442476Y-144518095D01*
X301442476Y-144613333D01*
X301490095Y-144708571D01*
X301537714Y-144756190D01*
X301632952Y-144803809D01*
X301823428Y-144851428D01*
X301918666Y-144899047D01*
X301966285Y-144946666D01*
X302013904Y-145041904D01*
X302013904Y-145137142D01*
X301966285Y-145232380D01*
X301918666Y-145280000D01*
X301823428Y-145327619D01*
X301585333Y-145327619D01*
X301442476Y-145280000D01*
X300632952Y-144375238D02*
X300728190Y-144327619D01*
X300918666Y-144327619D01*
X301013904Y-144375238D01*
X301061523Y-144470476D01*
X301061523Y-144851428D01*
X301013904Y-144946666D01*
X300918666Y-144994285D01*
X300728190Y-144994285D01*
X300632952Y-144946666D01*
X300585333Y-144851428D01*
X300585333Y-144756190D01*
X301061523Y-144660952D01*
X300013904Y-144327619D02*
X300109142Y-144375238D01*
X300156761Y-144470476D01*
X300156761Y-145327619D01*
X299252000Y-144375238D02*
X299347238Y-144327619D01*
X299537714Y-144327619D01*
X299632952Y-144375238D01*
X299680571Y-144470476D01*
X299680571Y-144851428D01*
X299632952Y-144946666D01*
X299537714Y-144994285D01*
X299347238Y-144994285D01*
X299252000Y-144946666D01*
X299204380Y-144851428D01*
X299204380Y-144756190D01*
X299680571Y-144660952D01*
X298347238Y-144375238D02*
X298442476Y-144327619D01*
X298632952Y-144327619D01*
X298728190Y-144375238D01*
X298775809Y-144422857D01*
X298823428Y-144518095D01*
X298823428Y-144803809D01*
X298775809Y-144899047D01*
X298728190Y-144946666D01*
X298632952Y-144994285D01*
X298442476Y-144994285D01*
X298347238Y-144946666D01*
X298061523Y-144994285D02*
X297680571Y-144994285D01*
X297918666Y-145327619D02*
X297918666Y-144470476D01*
X297871047Y-144375238D01*
X297775809Y-144327619D01*
X297680571Y-144327619D01*
D14*
X307752000Y-153830500D02*
G75*
G03*
X307752000Y-153830500I-6000000J0D01*
G01*
%TO.C,D29*%
X314682000Y-120230000D02*
X312132000Y-120230000D01*
X314682000Y-118530000D02*
X312132000Y-118530000D01*
X314682000Y-120230000D02*
X314682000Y-118530000D01*
%TO.C,SW7*%
X248370000Y-92549500D02*
G75*
G03*
X248370000Y-92549500I-6000000J0D01*
G01*
%TO.C,D8*%
X217411000Y-75256500D02*
X217411000Y-78346500D01*
X222961000Y-76801962D02*
G75*
G03*
X217411000Y-75256670I-2990000J462D01*
G01*
X217411000Y-78346330D02*
G75*
G03*
X222961000Y-76801038I2560000J1544830D01*
G01*
X222471000Y-76801500D02*
G75*
G03*
X222471000Y-76801500I-2500000J0D01*
G01*
%TO.C,D4*%
X130060000Y-75360000D02*
X130060000Y-78450000D01*
X135610000Y-76905462D02*
G75*
G03*
X130060000Y-75360170I-2990000J462D01*
G01*
X130060000Y-78449830D02*
G75*
G03*
X135610000Y-76904538I2560000J1544830D01*
G01*
X135120000Y-76905000D02*
G75*
G03*
X135120000Y-76905000I-2500000J0D01*
G01*
%TO.C,J1*%
X139282666Y-148336000D02*
X139282666Y-164357000D01*
X156635666Y-148336000D02*
X139282666Y-148336000D01*
X156635666Y-160967000D02*
X156635666Y-148336000D01*
X139282666Y-164357000D02*
X153235666Y-164357000D01*
X153235666Y-164357000D02*
X156635666Y-160957000D01*
%TO.C,J2*%
X202421000Y-164357000D02*
X205821000Y-160957000D01*
X188468000Y-148336000D02*
X188468000Y-164357000D01*
X205821000Y-160967000D02*
X205821000Y-148336000D01*
X205821000Y-148336000D02*
X188468000Y-148336000D01*
X188468000Y-164357000D02*
X202421000Y-164357000D01*
%TO.C,RV1*%
X115382000Y-166766000D02*
X115382000Y-155846000D01*
X132522000Y-166766000D02*
X132522000Y-155846000D01*
X115382000Y-166766000D02*
X132522000Y-166766000D01*
X132522000Y-155846000D02*
G75*
G03*
X132522000Y-155846000I-8570000J0D01*
G01*
%TO.C,SW3*%
X160232000Y-92549500D02*
G75*
G03*
X160232000Y-92549500I-6000000J0D01*
G01*
%TO.C,SW4*%
X182572000Y-92549500D02*
G75*
G03*
X182572000Y-92549500I-6000000J0D01*
G01*
%TO.C,D10*%
X261570000Y-75256500D02*
X261570000Y-78346500D01*
X267120000Y-76801962D02*
G75*
G03*
X261570000Y-75256670I-2990000J462D01*
G01*
X261570000Y-78346330D02*
G75*
G03*
X267120000Y-76801038I2560000J1544830D01*
G01*
X266630000Y-76801500D02*
G75*
G03*
X266630000Y-76801500I-2500000J0D01*
G01*
%TO.C,RV9*%
X294870000Y-124701500D02*
X294870000Y-113781500D01*
X277730000Y-124701500D02*
X294870000Y-124701500D01*
X277730000Y-124701500D02*
X277730000Y-113781500D01*
X294870000Y-113781500D02*
G75*
G03*
X294870000Y-113781500I-8570000J0D01*
G01*
%TO.C,RV7*%
X250928000Y-124701500D02*
X250928000Y-113781500D01*
X233788000Y-124701500D02*
X233788000Y-113781500D01*
X233788000Y-124701500D02*
X250928000Y-124701500D01*
X250928000Y-113781500D02*
G75*
G03*
X250928000Y-113781500I-8570000J0D01*
G01*
%TO.C,J6*%
X255350994Y-160713000D02*
X255350994Y-148082000D01*
X255350994Y-148082000D02*
X237997994Y-148082000D01*
X251950994Y-164103000D02*
X255350994Y-160703000D01*
X237997994Y-148082000D02*
X237997994Y-164103000D01*
X237997994Y-164103000D02*
X251950994Y-164103000D01*
%TO.C,RV6*%
X211660000Y-124701500D02*
X228800000Y-124701500D01*
X211660000Y-124701500D02*
X211660000Y-113781500D01*
X228800000Y-124701500D02*
X228800000Y-113781500D01*
X228800000Y-113781500D02*
G75*
G03*
X228800000Y-113781500I-8570000J0D01*
G01*
%TO.C,SW2*%
X138630000Y-92643000D02*
G75*
G03*
X138630000Y-92643000I-6000000J0D01*
G01*
%TO.C,RV8*%
X272954000Y-124701500D02*
X272954000Y-113781500D01*
X255814000Y-124701500D02*
X272954000Y-124701500D01*
X255814000Y-124701500D02*
X255814000Y-113781500D01*
X272954000Y-113781500D02*
G75*
G03*
X272954000Y-113781500I-8570000J0D01*
G01*
D15*
%TO.C,REF\u002A\u002A*%
X105064560Y-73965396D02*
X105086349Y-73995475D01*
X102399440Y-74936974D02*
X102376053Y-75098042D01*
X105086349Y-73995475D02*
X105128942Y-74067176D01*
X104965605Y-73887352D02*
X104984118Y-73893864D01*
X102890244Y-73893999D02*
X102874602Y-73881069D01*
X102567687Y-74221559D02*
X102534794Y-74320609D01*
X102858417Y-73871697D02*
X102841674Y-73866048D01*
X102824355Y-73864289D02*
X102806445Y-73866582D01*
X103051620Y-74310871D02*
X103031150Y-74223923D01*
X102685652Y-73974705D02*
X102685652Y-73974705D01*
X104930383Y-73886818D02*
X104947699Y-73885058D01*
X102806445Y-73866582D02*
X102787927Y-73873094D01*
X103088914Y-74498436D02*
X103051620Y-74310871D01*
X104837979Y-73973262D02*
X104866699Y-73931093D01*
X104683092Y-74519206D02*
X104720399Y-74331641D01*
X104649786Y-74716200D02*
X104683092Y-74519206D01*
X102685652Y-73974705D02*
X102643037Y-74046407D01*
X104897458Y-73901838D02*
X104913641Y-73892467D01*
X102707453Y-73944627D02*
X102685652Y-73974705D01*
X104762745Y-74164062D02*
X104786131Y-74091066D01*
X105043459Y-73940361D02*
X105064560Y-73965396D01*
X104913641Y-73892467D02*
X104930383Y-73886818D01*
X104811166Y-74027027D02*
X104837979Y-73973262D01*
X102643037Y-74046407D02*
X102603741Y-74129425D01*
X102478181Y-74530660D02*
X102433273Y-74741981D01*
X104720399Y-74331641D02*
X104740877Y-74244693D01*
X102603741Y-74129425D02*
X102567687Y-74221559D01*
X103122215Y-74695430D02*
X103088914Y-74498436D01*
X102376053Y-75098042D02*
X102358098Y-75248013D01*
X102768785Y-73883990D02*
X102749003Y-73899434D01*
X104740877Y-74244693D02*
X104762745Y-74164062D01*
X102985913Y-74070296D02*
X102960885Y-74006257D01*
X105395930Y-75118700D02*
X105413903Y-75268650D01*
X104984118Y-73893864D02*
X105003254Y-73904760D01*
X105003254Y-73904760D02*
X105023029Y-73920204D01*
X102749003Y-73899434D02*
X102728564Y-73919591D01*
X103009291Y-74143292D02*
X102985913Y-74070296D01*
X105372527Y-74957653D02*
X105395930Y-75118700D01*
X102905360Y-73910323D02*
X102890244Y-73893999D01*
X102841674Y-73866048D02*
X102824355Y-73864289D01*
X102433273Y-74741981D02*
X102399440Y-74936974D01*
X104866699Y-73931093D02*
X104881816Y-73914769D01*
X105168222Y-74150189D02*
X105204265Y-74242316D01*
X105266957Y-74445115D02*
X105293762Y-74551388D01*
X105128942Y-74067176D02*
X105168222Y-74150189D01*
X102960885Y-74006257D02*
X102934077Y-73952492D01*
X104881816Y-73914769D02*
X104897458Y-73901838D01*
X102787927Y-73873094D02*
X102768785Y-73883990D01*
X105023029Y-73920204D02*
X105043459Y-73940361D01*
X105237151Y-74341358D02*
X105266957Y-74445115D01*
X102874602Y-73881069D02*
X102858417Y-73871697D01*
X105293762Y-74551388D02*
X105338679Y-74762684D01*
X102534794Y-74320609D02*
X102504985Y-74424376D01*
X102728564Y-73919591D02*
X102707453Y-73944627D01*
X105204265Y-74242316D02*
X105237151Y-74341358D01*
X103031150Y-74223923D02*
X103009291Y-74143292D01*
X102504985Y-74424376D02*
X102478181Y-74530660D01*
X102934077Y-73952492D02*
X102905360Y-73910323D01*
X105086349Y-73995475D02*
X105086349Y-73995475D01*
X105338679Y-74762684D02*
X105372527Y-74957653D01*
X104947699Y-73885058D02*
X104965605Y-73887352D01*
X104786131Y-74091066D02*
X104811166Y-74027027D01*
X103410610Y-76400538D02*
X103523058Y-77097714D01*
X103523058Y-77097714D02*
X104223014Y-77097714D01*
X104223014Y-77097714D02*
X104335462Y-76400538D01*
X104335462Y-76400538D02*
X103410610Y-76400538D01*
X103410610Y-76400538D02*
X103410610Y-76400538D01*
G36*
X104223014Y-77097714D02*
G01*
X103523058Y-77097714D01*
X103410610Y-76400538D01*
X104335462Y-76400538D01*
X104223014Y-77097714D01*
G37*
X104223014Y-77097714D02*
X103523058Y-77097714D01*
X103410610Y-76400538D01*
X104335462Y-76400538D01*
X104223014Y-77097714D01*
X103872970Y-73993094D02*
X103806887Y-73994906D01*
X103806887Y-73994906D02*
X103741630Y-74000209D01*
X103741630Y-74000209D02*
X103677297Y-74008804D01*
X103677297Y-74008804D02*
X103613984Y-74020492D01*
X103613984Y-74020492D02*
X103551790Y-74035073D01*
X103551790Y-74035073D02*
X103490810Y-74052348D01*
X103490810Y-74052348D02*
X103431143Y-74072118D01*
X103431143Y-74072118D02*
X103372885Y-74094183D01*
X103372885Y-74094183D02*
X103260984Y-74144403D01*
X103260984Y-74144403D02*
X103155886Y-74201414D01*
X103155886Y-74201414D02*
X103058366Y-74263621D01*
X103058366Y-74263621D02*
X102969203Y-74329429D01*
X102969203Y-74329429D02*
X102889172Y-74397245D01*
X102889172Y-74397245D02*
X102819051Y-74465475D01*
X102819051Y-74465475D02*
X102759617Y-74532523D01*
X102759617Y-74532523D02*
X102711645Y-74596797D01*
X102711645Y-74596797D02*
X102675915Y-74656701D01*
X102675915Y-74656701D02*
X102653201Y-74710641D01*
X102653201Y-74710641D02*
X102646969Y-74734876D01*
X102646969Y-74734876D02*
X102644282Y-74757023D01*
X102644282Y-74757023D02*
X102645238Y-74776881D01*
X102645238Y-74776881D02*
X102649933Y-74794253D01*
X102649933Y-74794253D02*
X102656577Y-74806530D01*
X102656577Y-74806530D02*
X102665749Y-74817428D01*
X102665749Y-74817428D02*
X102677346Y-74827035D01*
X102677346Y-74827035D02*
X102691267Y-74835440D01*
X102691267Y-74835440D02*
X102707407Y-74842734D01*
X102707407Y-74842734D02*
X102725665Y-74849005D01*
X102725665Y-74849005D02*
X102745937Y-74854343D01*
X102745937Y-74854343D02*
X102768122Y-74858838D01*
X102768122Y-74858838D02*
X102817816Y-74865655D01*
X102817816Y-74865655D02*
X102873927Y-74870171D01*
X102873927Y-74870171D02*
X103002110Y-74875165D01*
X103002110Y-74875165D02*
X103146101Y-74879546D01*
X103146101Y-74879546D02*
X103221970Y-74883295D01*
X103221970Y-74883295D02*
X103299326Y-74889037D01*
X103299326Y-74889037D02*
X103377349Y-74897489D01*
X103377349Y-74897489D02*
X103455215Y-74909366D01*
X103455215Y-74909366D02*
X103493833Y-74916812D01*
X103493833Y-74916812D02*
X103532105Y-74925383D01*
X103532105Y-74925383D02*
X103569926Y-74935167D01*
X103569926Y-74935167D02*
X103607196Y-74946256D01*
X103607196Y-74946256D02*
X103638788Y-74956209D01*
X103638788Y-74956209D02*
X103670659Y-74964900D01*
X103670659Y-74964900D02*
X103702770Y-74972328D01*
X103702770Y-74972328D02*
X103735086Y-74978491D01*
X103735086Y-74978491D02*
X103767568Y-74983390D01*
X103767568Y-74983390D02*
X103800180Y-74987024D01*
X103800180Y-74987024D02*
X103832884Y-74989392D01*
X103832884Y-74989392D02*
X103865644Y-74990494D01*
X103865644Y-74990494D02*
X103898421Y-74990329D01*
X103898421Y-74990329D02*
X103931180Y-74988897D01*
X103931180Y-74988897D02*
X103963882Y-74986197D01*
X103963882Y-74986197D02*
X103996491Y-74982229D01*
X103996491Y-74982229D02*
X104028970Y-74976992D01*
X104028970Y-74976992D02*
X104061281Y-74970486D01*
X104061281Y-74970486D02*
X104093387Y-74962710D01*
X104093387Y-74962710D02*
X104125251Y-74953664D01*
X104125251Y-74953664D02*
X104202672Y-74933939D01*
X104202672Y-74933939D02*
X104281603Y-74918664D01*
X104281603Y-74918664D02*
X104361243Y-74907165D01*
X104361243Y-74907165D02*
X104440789Y-74898767D01*
X104440789Y-74898767D02*
X104596386Y-74888575D01*
X104596386Y-74888575D02*
X104741977Y-74882689D01*
X104741977Y-74882689D02*
X104871141Y-74875712D01*
X104871141Y-74875712D02*
X104927557Y-74870128D01*
X104927557Y-74870128D02*
X104977458Y-74862246D01*
X104977458Y-74862246D02*
X105020043Y-74851393D01*
X105020043Y-74851393D02*
X105054509Y-74836892D01*
X105054509Y-74836892D02*
X105068447Y-74828064D01*
X105068447Y-74828064D02*
X105080054Y-74818070D01*
X105080054Y-74818070D02*
X105089229Y-74806828D01*
X105089229Y-74806828D02*
X105095874Y-74794253D01*
X105095874Y-74794253D02*
X105100588Y-74776532D01*
X105100588Y-74776532D02*
X105101549Y-74756367D01*
X105101549Y-74756367D02*
X105098856Y-74733956D01*
X105098856Y-74733956D02*
X105092606Y-74709496D01*
X105092606Y-74709496D02*
X105082899Y-74683183D01*
X105082899Y-74683183D02*
X105069833Y-74655216D01*
X105069833Y-74655216D02*
X105053505Y-74625790D01*
X105053505Y-74625790D02*
X105034015Y-74595104D01*
X105034015Y-74595104D02*
X105011460Y-74563354D01*
X105011460Y-74563354D02*
X104985939Y-74530738D01*
X104985939Y-74530738D02*
X104957550Y-74497453D01*
X104957550Y-74497453D02*
X104926391Y-74463696D01*
X104926391Y-74463696D02*
X104892561Y-74429664D01*
X104892561Y-74429664D02*
X104856158Y-74395554D01*
X104856158Y-74395554D02*
X104817280Y-74361564D01*
X104817280Y-74361564D02*
X104776026Y-74327891D01*
X104776026Y-74327891D02*
X104732493Y-74294732D01*
X104732493Y-74294732D02*
X104686781Y-74262284D01*
X104686781Y-74262284D02*
X104638987Y-74230744D01*
X104638987Y-74230744D02*
X104589210Y-74200309D01*
X104589210Y-74200309D02*
X104537548Y-74171177D01*
X104537548Y-74171177D02*
X104484099Y-74143545D01*
X104484099Y-74143545D02*
X104428962Y-74117610D01*
X104428962Y-74117610D02*
X104372234Y-74093570D01*
X104372234Y-74093570D02*
X104314015Y-74071620D01*
X104314015Y-74071620D02*
X104254403Y-74051959D01*
X104254403Y-74051959D02*
X104193495Y-74034784D01*
X104193495Y-74034784D02*
X104131391Y-74020291D01*
X104131391Y-74020291D02*
X104068188Y-74008679D01*
X104068188Y-74008679D02*
X104003984Y-74000144D01*
X104003984Y-74000144D02*
X103938879Y-73994883D01*
X103938879Y-73994883D02*
X103872970Y-73993094D01*
X103872970Y-73993094D02*
X103872970Y-73993094D01*
G36*
X103938879Y-73994883D02*
G01*
X104003984Y-74000144D01*
X104068188Y-74008679D01*
X104131391Y-74020291D01*
X104193495Y-74034784D01*
X104254403Y-74051959D01*
X104314015Y-74071620D01*
X104372234Y-74093570D01*
X104428962Y-74117610D01*
X104484099Y-74143545D01*
X104537548Y-74171177D01*
X104589210Y-74200309D01*
X104638987Y-74230744D01*
X104686781Y-74262284D01*
X104732493Y-74294732D01*
X104776026Y-74327891D01*
X104817280Y-74361564D01*
X104856158Y-74395554D01*
X104892561Y-74429664D01*
X104926391Y-74463696D01*
X104957550Y-74497453D01*
X104985939Y-74530738D01*
X105011460Y-74563354D01*
X105034015Y-74595104D01*
X105053505Y-74625790D01*
X105069833Y-74655216D01*
X105082899Y-74683183D01*
X105092606Y-74709496D01*
X105098856Y-74733956D01*
X105101549Y-74756367D01*
X105100588Y-74776532D01*
X105095874Y-74794253D01*
X105089229Y-74806828D01*
X105080054Y-74818070D01*
X105068447Y-74828064D01*
X105054509Y-74836892D01*
X105020043Y-74851393D01*
X104977458Y-74862246D01*
X104927557Y-74870128D01*
X104871141Y-74875712D01*
X104741977Y-74882689D01*
X104596386Y-74888575D01*
X104440789Y-74898767D01*
X104361243Y-74907165D01*
X104281603Y-74918664D01*
X104202672Y-74933939D01*
X104125251Y-74953664D01*
X104093387Y-74962710D01*
X104061281Y-74970486D01*
X104028970Y-74976992D01*
X103996491Y-74982229D01*
X103963882Y-74986197D01*
X103931180Y-74988897D01*
X103898421Y-74990329D01*
X103865644Y-74990494D01*
X103832884Y-74989392D01*
X103800180Y-74987024D01*
X103767568Y-74983390D01*
X103735086Y-74978491D01*
X103702770Y-74972328D01*
X103670659Y-74964900D01*
X103638788Y-74956209D01*
X103607196Y-74946256D01*
X103569926Y-74935167D01*
X103532105Y-74925383D01*
X103493833Y-74916812D01*
X103455215Y-74909366D01*
X103377349Y-74897489D01*
X103299326Y-74889037D01*
X103221970Y-74883295D01*
X103146101Y-74879546D01*
X103002110Y-74875165D01*
X102873927Y-74870171D01*
X102817816Y-74865655D01*
X102768122Y-74858838D01*
X102745937Y-74854343D01*
X102725665Y-74849005D01*
X102707407Y-74842734D01*
X102691267Y-74835440D01*
X102677346Y-74827035D01*
X102665749Y-74817428D01*
X102656577Y-74806530D01*
X102649933Y-74794253D01*
X102645238Y-74776881D01*
X102644282Y-74757023D01*
X102646969Y-74734876D01*
X102653201Y-74710641D01*
X102675915Y-74656701D01*
X102711645Y-74596797D01*
X102759617Y-74532523D01*
X102819051Y-74465475D01*
X102889172Y-74397245D01*
X102969203Y-74329429D01*
X103058366Y-74263621D01*
X103155886Y-74201414D01*
X103260984Y-74144403D01*
X103372885Y-74094183D01*
X103431143Y-74072118D01*
X103490810Y-74052348D01*
X103551790Y-74035073D01*
X103613984Y-74020492D01*
X103677297Y-74008804D01*
X103741630Y-74000209D01*
X103806887Y-73994906D01*
X103872970Y-73993094D01*
X103938879Y-73994883D01*
G37*
X103938879Y-73994883D02*
X104003984Y-74000144D01*
X104068188Y-74008679D01*
X104131391Y-74020291D01*
X104193495Y-74034784D01*
X104254403Y-74051959D01*
X104314015Y-74071620D01*
X104372234Y-74093570D01*
X104428962Y-74117610D01*
X104484099Y-74143545D01*
X104537548Y-74171177D01*
X104589210Y-74200309D01*
X104638987Y-74230744D01*
X104686781Y-74262284D01*
X104732493Y-74294732D01*
X104776026Y-74327891D01*
X104817280Y-74361564D01*
X104856158Y-74395554D01*
X104892561Y-74429664D01*
X104926391Y-74463696D01*
X104957550Y-74497453D01*
X104985939Y-74530738D01*
X105011460Y-74563354D01*
X105034015Y-74595104D01*
X105053505Y-74625790D01*
X105069833Y-74655216D01*
X105082899Y-74683183D01*
X105092606Y-74709496D01*
X105098856Y-74733956D01*
X105101549Y-74756367D01*
X105100588Y-74776532D01*
X105095874Y-74794253D01*
X105089229Y-74806828D01*
X105080054Y-74818070D01*
X105068447Y-74828064D01*
X105054509Y-74836892D01*
X105020043Y-74851393D01*
X104977458Y-74862246D01*
X104927557Y-74870128D01*
X104871141Y-74875712D01*
X104741977Y-74882689D01*
X104596386Y-74888575D01*
X104440789Y-74898767D01*
X104361243Y-74907165D01*
X104281603Y-74918664D01*
X104202672Y-74933939D01*
X104125251Y-74953664D01*
X104093387Y-74962710D01*
X104061281Y-74970486D01*
X104028970Y-74976992D01*
X103996491Y-74982229D01*
X103963882Y-74986197D01*
X103931180Y-74988897D01*
X103898421Y-74990329D01*
X103865644Y-74990494D01*
X103832884Y-74989392D01*
X103800180Y-74987024D01*
X103767568Y-74983390D01*
X103735086Y-74978491D01*
X103702770Y-74972328D01*
X103670659Y-74964900D01*
X103638788Y-74956209D01*
X103607196Y-74946256D01*
X103569926Y-74935167D01*
X103532105Y-74925383D01*
X103493833Y-74916812D01*
X103455215Y-74909366D01*
X103377349Y-74897489D01*
X103299326Y-74889037D01*
X103221970Y-74883295D01*
X103146101Y-74879546D01*
X103002110Y-74875165D01*
X102873927Y-74870171D01*
X102817816Y-74865655D01*
X102768122Y-74858838D01*
X102745937Y-74854343D01*
X102725665Y-74849005D01*
X102707407Y-74842734D01*
X102691267Y-74835440D01*
X102677346Y-74827035D01*
X102665749Y-74817428D01*
X102656577Y-74806530D01*
X102649933Y-74794253D01*
X102645238Y-74776881D01*
X102644282Y-74757023D01*
X102646969Y-74734876D01*
X102653201Y-74710641D01*
X102675915Y-74656701D01*
X102711645Y-74596797D01*
X102759617Y-74532523D01*
X102819051Y-74465475D01*
X102889172Y-74397245D01*
X102969203Y-74329429D01*
X103058366Y-74263621D01*
X103155886Y-74201414D01*
X103260984Y-74144403D01*
X103372885Y-74094183D01*
X103431143Y-74072118D01*
X103490810Y-74052348D01*
X103551790Y-74035073D01*
X103613984Y-74020492D01*
X103677297Y-74008804D01*
X103741630Y-74000209D01*
X103806887Y-73994906D01*
X103872970Y-73993094D01*
X103938879Y-73994883D01*
X103232017Y-75097465D02*
X103701123Y-75097465D01*
X103701123Y-75097465D02*
X103701902Y-75103428D01*
X103701902Y-75103428D02*
X103702853Y-75109363D01*
X103702853Y-75109363D02*
X103703974Y-75115265D01*
X103703974Y-75115265D02*
X103705264Y-75121132D01*
X103705264Y-75121132D02*
X103706723Y-75126958D01*
X103706723Y-75126958D02*
X103708350Y-75132742D01*
X103708350Y-75132742D02*
X103710144Y-75138478D01*
X103710144Y-75138478D02*
X103712103Y-75144164D01*
X103712103Y-75144164D02*
X103713154Y-75146570D01*
X103713154Y-75146570D02*
X103714251Y-75148954D01*
X103714251Y-75148954D02*
X103715393Y-75151315D01*
X103715393Y-75151315D02*
X103716580Y-75153652D01*
X103716580Y-75153652D02*
X103717812Y-75155964D01*
X103717812Y-75155964D02*
X103719088Y-75158252D01*
X103719088Y-75158252D02*
X103720408Y-75160514D01*
X103720408Y-75160514D02*
X103721771Y-75162750D01*
X103721771Y-75162750D02*
X103723177Y-75164959D01*
X103723177Y-75164959D02*
X103724627Y-75167141D01*
X103724627Y-75167141D02*
X103726118Y-75169294D01*
X103726118Y-75169294D02*
X103727651Y-75171419D01*
X103727651Y-75171419D02*
X103729226Y-75173514D01*
X103729226Y-75173514D02*
X103730842Y-75175580D01*
X103730842Y-75175580D02*
X103732499Y-75177614D01*
X103732499Y-75177614D02*
X103734196Y-75179618D01*
X103734196Y-75179618D02*
X103736485Y-75182536D01*
X103736485Y-75182536D02*
X103738825Y-75185410D01*
X103738825Y-75185410D02*
X103741216Y-75188239D01*
X103741216Y-75188239D02*
X103743658Y-75191023D01*
X103743658Y-75191023D02*
X103746150Y-75193760D01*
X103746150Y-75193760D02*
X103748691Y-75196450D01*
X103748691Y-75196450D02*
X103751281Y-75199093D01*
X103751281Y-75199093D02*
X103753919Y-75201687D01*
X103753919Y-75201687D02*
X103756603Y-75204233D01*
X103756603Y-75204233D02*
X103759335Y-75206729D01*
X103759335Y-75206729D02*
X103762112Y-75209175D01*
X103762112Y-75209175D02*
X103764934Y-75211570D01*
X103764934Y-75211570D02*
X103767801Y-75213913D01*
X103767801Y-75213913D02*
X103770711Y-75216205D01*
X103770711Y-75216205D02*
X103773665Y-75218443D01*
X103773665Y-75218443D02*
X103776661Y-75220629D01*
X103776661Y-75220629D02*
X103780535Y-75223268D01*
X103780535Y-75223268D02*
X103784466Y-75225813D01*
X103784466Y-75225813D02*
X103788452Y-75228262D01*
X103788452Y-75228262D02*
X103792492Y-75230616D01*
X103792492Y-75230616D02*
X103796585Y-75232872D01*
X103796585Y-75232872D02*
X103800727Y-75235030D01*
X103800727Y-75235030D02*
X103804918Y-75237090D01*
X103804918Y-75237090D02*
X103809156Y-75239050D01*
X103809156Y-75239050D02*
X103813439Y-75240910D01*
X103813439Y-75240910D02*
X103817765Y-75242669D01*
X103817765Y-75242669D02*
X103822132Y-75244326D01*
X103822132Y-75244326D02*
X103826539Y-75245880D01*
X103826539Y-75245880D02*
X103830984Y-75247331D01*
X103830984Y-75247331D02*
X103835465Y-75248678D01*
X103835465Y-75248678D02*
X103839980Y-75249919D01*
X103839980Y-75249919D02*
X103844527Y-75251055D01*
X103844527Y-75251055D02*
X103848944Y-75252110D01*
X103848944Y-75252110D02*
X103853384Y-75253058D01*
X103853384Y-75253058D02*
X103857844Y-75253898D01*
X103857844Y-75253898D02*
X103862322Y-75254631D01*
X103862322Y-75254631D02*
X103866816Y-75255256D01*
X103866816Y-75255256D02*
X103871325Y-75255772D01*
X103871325Y-75255772D02*
X103875846Y-75256180D01*
X103875846Y-75256180D02*
X103880378Y-75256480D01*
X103880378Y-75256480D02*
X103884588Y-75256631D01*
X103884588Y-75256631D02*
X103888799Y-75256683D01*
X103888799Y-75256683D02*
X103893010Y-75256634D01*
X103893010Y-75256634D02*
X103897217Y-75256486D01*
X103897217Y-75256486D02*
X103901419Y-75256237D01*
X103901419Y-75256237D02*
X103905615Y-75255888D01*
X103905615Y-75255888D02*
X103909802Y-75255440D01*
X103909802Y-75255440D02*
X103913980Y-75254892D01*
X103913980Y-75254892D02*
X103918011Y-75254151D01*
X103918011Y-75254151D02*
X103922021Y-75253319D01*
X103922021Y-75253319D02*
X103926008Y-75252399D01*
X103926008Y-75252399D02*
X103929970Y-75251389D01*
X103929970Y-75251389D02*
X103933907Y-75250291D01*
X103933907Y-75250291D02*
X103937817Y-75249106D01*
X103937817Y-75249106D02*
X103941698Y-75247833D01*
X103941698Y-75247833D02*
X103945549Y-75246473D01*
X103945549Y-75246473D02*
X103949369Y-75245027D01*
X103949369Y-75245027D02*
X103953155Y-75243495D01*
X103953155Y-75243495D02*
X103956907Y-75241878D01*
X103956907Y-75241878D02*
X103960623Y-75240176D01*
X103960623Y-75240176D02*
X103964302Y-75238391D01*
X103964302Y-75238391D02*
X103967942Y-75236522D01*
X103967942Y-75236522D02*
X103971541Y-75234569D01*
X103971541Y-75234569D02*
X103975099Y-75232534D01*
X103975099Y-75232534D02*
X103978816Y-75230423D01*
X103978816Y-75230423D02*
X103982485Y-75228234D01*
X103982485Y-75228234D02*
X103986102Y-75225968D01*
X103986102Y-75225968D02*
X103989669Y-75223626D01*
X103989669Y-75223626D02*
X103993182Y-75221209D01*
X103993182Y-75221209D02*
X103996641Y-75218717D01*
X103996641Y-75218717D02*
X104000046Y-75216153D01*
X104000046Y-75216153D02*
X104003394Y-75213517D01*
X104003394Y-75213517D02*
X104006684Y-75210809D01*
X104006684Y-75210809D02*
X104009917Y-75208031D01*
X104009917Y-75208031D02*
X104013089Y-75205183D01*
X104013089Y-75205183D02*
X104016201Y-75202267D01*
X104016201Y-75202267D02*
X104019250Y-75199284D01*
X104019250Y-75199284D02*
X104022237Y-75196233D01*
X104022237Y-75196233D02*
X104025159Y-75193117D01*
X104025159Y-75193117D02*
X104028016Y-75189937D01*
X104028016Y-75189937D02*
X104030560Y-75187168D01*
X104030560Y-75187168D02*
X104033030Y-75184340D01*
X104033030Y-75184340D02*
X104035426Y-75181453D01*
X104035426Y-75181453D02*
X104037747Y-75178508D01*
X104037747Y-75178508D02*
X104039991Y-75175508D01*
X104039991Y-75175508D02*
X104042158Y-75172454D01*
X104042158Y-75172454D02*
X104044247Y-75169347D01*
X104044247Y-75169347D02*
X104046256Y-75166190D01*
X104046256Y-75166190D02*
X104048185Y-75162982D01*
X104048185Y-75162982D02*
X104050034Y-75159727D01*
X104050034Y-75159727D02*
X104051800Y-75156425D01*
X104051800Y-75156425D02*
X104053483Y-75153078D01*
X104053483Y-75153078D02*
X104055083Y-75149687D01*
X104055083Y-75149687D02*
X104056598Y-75146254D01*
X104056598Y-75146254D02*
X104058026Y-75142781D01*
X104058026Y-75142781D02*
X104059369Y-75139269D01*
X104059369Y-75139269D02*
X104060965Y-75134109D01*
X104060965Y-75134109D02*
X104062493Y-75128928D01*
X104062493Y-75128928D02*
X104063952Y-75123728D01*
X104063952Y-75123728D02*
X104065343Y-75118510D01*
X104065343Y-75118510D02*
X104066665Y-75113274D01*
X104066665Y-75113274D02*
X104067918Y-75108021D01*
X104067918Y-75108021D02*
X104069102Y-75102751D01*
X104069102Y-75102751D02*
X104070217Y-75097465D01*
X104070217Y-75097465D02*
X104510483Y-75097465D01*
X104510483Y-75097465D02*
X104435474Y-75751250D01*
X104435474Y-75751250D02*
X103320123Y-75751250D01*
X103320123Y-75751250D02*
X103232017Y-75097465D01*
X103232017Y-75097465D02*
X103232017Y-75097465D01*
G36*
X103701902Y-75103428D02*
G01*
X103702853Y-75109363D01*
X103703974Y-75115265D01*
X103705264Y-75121132D01*
X103706723Y-75126958D01*
X103708350Y-75132742D01*
X103710144Y-75138478D01*
X103712103Y-75144164D01*
X103713154Y-75146570D01*
X103714251Y-75148954D01*
X103715393Y-75151315D01*
X103716580Y-75153652D01*
X103717812Y-75155964D01*
X103719088Y-75158252D01*
X103720408Y-75160514D01*
X103721771Y-75162750D01*
X103723177Y-75164959D01*
X103724627Y-75167141D01*
X103726118Y-75169294D01*
X103727651Y-75171419D01*
X103729226Y-75173514D01*
X103730842Y-75175580D01*
X103732499Y-75177614D01*
X103734196Y-75179618D01*
X103736485Y-75182536D01*
X103738825Y-75185410D01*
X103741216Y-75188239D01*
X103743658Y-75191023D01*
X103746150Y-75193760D01*
X103748691Y-75196450D01*
X103751281Y-75199093D01*
X103753919Y-75201687D01*
X103756603Y-75204233D01*
X103759335Y-75206729D01*
X103762112Y-75209175D01*
X103764934Y-75211570D01*
X103767801Y-75213913D01*
X103770711Y-75216205D01*
X103773665Y-75218443D01*
X103776661Y-75220629D01*
X103780535Y-75223268D01*
X103784466Y-75225813D01*
X103788452Y-75228262D01*
X103792492Y-75230616D01*
X103796585Y-75232872D01*
X103800727Y-75235030D01*
X103804918Y-75237090D01*
X103809156Y-75239050D01*
X103813439Y-75240910D01*
X103817765Y-75242669D01*
X103822132Y-75244326D01*
X103826539Y-75245880D01*
X103830984Y-75247331D01*
X103835465Y-75248678D01*
X103839980Y-75249919D01*
X103844527Y-75251055D01*
X103848944Y-75252110D01*
X103853384Y-75253058D01*
X103857844Y-75253898D01*
X103862322Y-75254631D01*
X103866816Y-75255256D01*
X103871325Y-75255772D01*
X103875846Y-75256180D01*
X103880378Y-75256480D01*
X103884588Y-75256631D01*
X103888799Y-75256683D01*
X103893010Y-75256634D01*
X103897217Y-75256486D01*
X103901419Y-75256237D01*
X103905615Y-75255888D01*
X103909802Y-75255440D01*
X103913980Y-75254892D01*
X103918011Y-75254151D01*
X103922021Y-75253319D01*
X103926008Y-75252399D01*
X103929970Y-75251389D01*
X103933907Y-75250291D01*
X103937817Y-75249106D01*
X103941698Y-75247833D01*
X103945549Y-75246473D01*
X103949369Y-75245027D01*
X103953155Y-75243495D01*
X103956907Y-75241878D01*
X103960623Y-75240176D01*
X103964302Y-75238391D01*
X103967942Y-75236522D01*
X103971541Y-75234569D01*
X103975099Y-75232534D01*
X103978816Y-75230423D01*
X103982485Y-75228234D01*
X103986102Y-75225968D01*
X103989669Y-75223626D01*
X103993182Y-75221209D01*
X103996641Y-75218717D01*
X104000046Y-75216153D01*
X104003394Y-75213517D01*
X104006684Y-75210809D01*
X104009917Y-75208031D01*
X104013089Y-75205183D01*
X104016201Y-75202267D01*
X104019250Y-75199284D01*
X104022237Y-75196233D01*
X104025159Y-75193117D01*
X104028016Y-75189937D01*
X104030560Y-75187168D01*
X104033030Y-75184340D01*
X104035426Y-75181453D01*
X104037747Y-75178508D01*
X104039991Y-75175508D01*
X104042158Y-75172454D01*
X104044247Y-75169347D01*
X104046256Y-75166190D01*
X104048185Y-75162982D01*
X104050034Y-75159727D01*
X104051800Y-75156425D01*
X104053483Y-75153078D01*
X104055083Y-75149687D01*
X104056598Y-75146254D01*
X104058026Y-75142781D01*
X104059369Y-75139269D01*
X104060965Y-75134109D01*
X104062493Y-75128928D01*
X104063952Y-75123728D01*
X104065343Y-75118510D01*
X104066665Y-75113274D01*
X104067918Y-75108021D01*
X104069102Y-75102751D01*
X104070217Y-75097465D01*
X104510483Y-75097465D01*
X104435474Y-75751250D01*
X103320123Y-75751250D01*
X103232017Y-75097465D01*
X103701123Y-75097465D01*
X103701902Y-75103428D01*
G37*
X103701902Y-75103428D02*
X103702853Y-75109363D01*
X103703974Y-75115265D01*
X103705264Y-75121132D01*
X103706723Y-75126958D01*
X103708350Y-75132742D01*
X103710144Y-75138478D01*
X103712103Y-75144164D01*
X103713154Y-75146570D01*
X103714251Y-75148954D01*
X103715393Y-75151315D01*
X103716580Y-75153652D01*
X103717812Y-75155964D01*
X103719088Y-75158252D01*
X103720408Y-75160514D01*
X103721771Y-75162750D01*
X103723177Y-75164959D01*
X103724627Y-75167141D01*
X103726118Y-75169294D01*
X103727651Y-75171419D01*
X103729226Y-75173514D01*
X103730842Y-75175580D01*
X103732499Y-75177614D01*
X103734196Y-75179618D01*
X103736485Y-75182536D01*
X103738825Y-75185410D01*
X103741216Y-75188239D01*
X103743658Y-75191023D01*
X103746150Y-75193760D01*
X103748691Y-75196450D01*
X103751281Y-75199093D01*
X103753919Y-75201687D01*
X103756603Y-75204233D01*
X103759335Y-75206729D01*
X103762112Y-75209175D01*
X103764934Y-75211570D01*
X103767801Y-75213913D01*
X103770711Y-75216205D01*
X103773665Y-75218443D01*
X103776661Y-75220629D01*
X103780535Y-75223268D01*
X103784466Y-75225813D01*
X103788452Y-75228262D01*
X103792492Y-75230616D01*
X103796585Y-75232872D01*
X103800727Y-75235030D01*
X103804918Y-75237090D01*
X103809156Y-75239050D01*
X103813439Y-75240910D01*
X103817765Y-75242669D01*
X103822132Y-75244326D01*
X103826539Y-75245880D01*
X103830984Y-75247331D01*
X103835465Y-75248678D01*
X103839980Y-75249919D01*
X103844527Y-75251055D01*
X103848944Y-75252110D01*
X103853384Y-75253058D01*
X103857844Y-75253898D01*
X103862322Y-75254631D01*
X103866816Y-75255256D01*
X103871325Y-75255772D01*
X103875846Y-75256180D01*
X103880378Y-75256480D01*
X103884588Y-75256631D01*
X103888799Y-75256683D01*
X103893010Y-75256634D01*
X103897217Y-75256486D01*
X103901419Y-75256237D01*
X103905615Y-75255888D01*
X103909802Y-75255440D01*
X103913980Y-75254892D01*
X103918011Y-75254151D01*
X103922021Y-75253319D01*
X103926008Y-75252399D01*
X103929970Y-75251389D01*
X103933907Y-75250291D01*
X103937817Y-75249106D01*
X103941698Y-75247833D01*
X103945549Y-75246473D01*
X103949369Y-75245027D01*
X103953155Y-75243495D01*
X103956907Y-75241878D01*
X103960623Y-75240176D01*
X103964302Y-75238391D01*
X103967942Y-75236522D01*
X103971541Y-75234569D01*
X103975099Y-75232534D01*
X103978816Y-75230423D01*
X103982485Y-75228234D01*
X103986102Y-75225968D01*
X103989669Y-75223626D01*
X103993182Y-75221209D01*
X103996641Y-75218717D01*
X104000046Y-75216153D01*
X104003394Y-75213517D01*
X104006684Y-75210809D01*
X104009917Y-75208031D01*
X104013089Y-75205183D01*
X104016201Y-75202267D01*
X104019250Y-75199284D01*
X104022237Y-75196233D01*
X104025159Y-75193117D01*
X104028016Y-75189937D01*
X104030560Y-75187168D01*
X104033030Y-75184340D01*
X104035426Y-75181453D01*
X104037747Y-75178508D01*
X104039991Y-75175508D01*
X104042158Y-75172454D01*
X104044247Y-75169347D01*
X104046256Y-75166190D01*
X104048185Y-75162982D01*
X104050034Y-75159727D01*
X104051800Y-75156425D01*
X104053483Y-75153078D01*
X104055083Y-75149687D01*
X104056598Y-75146254D01*
X104058026Y-75142781D01*
X104059369Y-75139269D01*
X104060965Y-75134109D01*
X104062493Y-75128928D01*
X104063952Y-75123728D01*
X104065343Y-75118510D01*
X104066665Y-75113274D01*
X104067918Y-75108021D01*
X104069102Y-75102751D01*
X104070217Y-75097465D01*
X104510483Y-75097465D01*
X104435474Y-75751250D01*
X103320123Y-75751250D01*
X103232017Y-75097465D01*
X103701123Y-75097465D01*
X103701902Y-75103428D01*
X104380838Y-76696077D02*
X104315221Y-77056837D01*
X104315221Y-77056837D02*
X104600706Y-77056837D01*
X104600706Y-77056837D02*
X104787767Y-77328828D01*
X104787767Y-77328828D02*
X105005783Y-77328828D01*
X105005783Y-77328828D02*
X105067431Y-76966085D01*
X105067431Y-76966085D02*
X104816739Y-76968069D01*
X104816739Y-76968069D02*
X104621873Y-76696077D01*
X104621873Y-76696077D02*
X104380838Y-76696077D01*
X104380838Y-76696077D02*
X104380838Y-76696077D01*
G36*
X104816739Y-76968069D02*
G01*
X105067431Y-76966085D01*
X105005783Y-77328828D01*
X104787767Y-77328828D01*
X104600706Y-77056837D01*
X104315221Y-77056837D01*
X104380838Y-76696077D01*
X104621873Y-76696077D01*
X104816739Y-76968069D01*
G37*
X104816739Y-76968069D02*
X105067431Y-76966085D01*
X105005783Y-77328828D01*
X104787767Y-77328828D01*
X104600706Y-77056837D01*
X104315221Y-77056837D01*
X104380838Y-76696077D01*
X104621873Y-76696077D01*
X104816739Y-76968069D01*
X104721621Y-75161362D02*
X104656004Y-75521989D01*
X104656004Y-75521989D02*
X104941490Y-75521989D01*
X104941490Y-75521989D02*
X105128550Y-75793980D01*
X105128550Y-75793980D02*
X105346566Y-75793980D01*
X105346566Y-75793980D02*
X105408214Y-75431369D01*
X105408214Y-75431369D02*
X105157522Y-75433353D01*
X105157522Y-75433353D02*
X104962656Y-75161362D01*
X104962656Y-75161362D02*
X104721621Y-75161362D01*
X104721621Y-75161362D02*
X104721621Y-75161362D01*
G36*
X105157522Y-75433353D02*
G01*
X105408214Y-75431369D01*
X105346566Y-75793980D01*
X105128550Y-75793980D01*
X104941490Y-75521989D01*
X104656004Y-75521989D01*
X104721621Y-75161362D01*
X104962656Y-75161362D01*
X105157522Y-75433353D01*
G37*
X105157522Y-75433353D02*
X105408214Y-75431369D01*
X105346566Y-75793980D01*
X105128550Y-75793980D01*
X104941490Y-75521989D01*
X104656004Y-75521989D01*
X104721621Y-75161362D01*
X104962656Y-75161362D01*
X105157522Y-75433353D01*
X103050909Y-75161362D02*
X103116394Y-75521989D01*
X103116394Y-75521989D02*
X102830908Y-75521989D01*
X102830908Y-75521989D02*
X102643848Y-75793980D01*
X102643848Y-75793980D02*
X102425831Y-75793980D01*
X102425831Y-75793980D02*
X102364183Y-75431369D01*
X102364183Y-75431369D02*
X102614876Y-75433353D01*
X102614876Y-75433353D02*
X102809742Y-75161362D01*
X102809742Y-75161362D02*
X103050909Y-75161362D01*
X103050909Y-75161362D02*
X103050909Y-75161362D01*
G36*
X103116394Y-75521989D02*
G01*
X102830908Y-75521989D01*
X102643848Y-75793980D01*
X102425831Y-75793980D01*
X102364183Y-75431369D01*
X102614876Y-75433353D01*
X102809742Y-75161362D01*
X103050909Y-75161362D01*
X103116394Y-75521989D01*
G37*
X103116394Y-75521989D02*
X102830908Y-75521989D01*
X102643848Y-75793980D01*
X102425831Y-75793980D01*
X102364183Y-75431369D01*
X102614876Y-75433353D01*
X102809742Y-75161362D01*
X103050909Y-75161362D01*
X103116394Y-75521989D01*
X104488523Y-76182521D02*
X104423039Y-76543148D01*
X104423039Y-76543148D02*
X104708392Y-76543148D01*
X104708392Y-76543148D02*
X104895584Y-76815140D01*
X104895584Y-76815140D02*
X105113469Y-76815140D01*
X105113469Y-76815140D02*
X105175249Y-76452528D01*
X105175249Y-76452528D02*
X104924556Y-76454513D01*
X104924556Y-76454513D02*
X104729691Y-76182521D01*
X104729691Y-76182521D02*
X104488523Y-76182521D01*
X104488523Y-76182521D02*
X104488523Y-76182521D01*
G36*
X104924556Y-76454513D02*
G01*
X105175249Y-76452528D01*
X105113469Y-76815140D01*
X104895584Y-76815140D01*
X104708392Y-76543148D01*
X104423039Y-76543148D01*
X104488523Y-76182521D01*
X104729691Y-76182521D01*
X104924556Y-76454513D01*
G37*
X104924556Y-76454513D02*
X105175249Y-76452528D01*
X105113469Y-76815140D01*
X104895584Y-76815140D01*
X104708392Y-76543148D01*
X104423039Y-76543148D01*
X104488523Y-76182521D01*
X104729691Y-76182521D01*
X104924556Y-76454513D01*
X103255035Y-76182521D02*
X103320520Y-76543148D01*
X103320520Y-76543148D02*
X103035167Y-76543148D01*
X103035167Y-76543148D02*
X102847974Y-76815140D01*
X102847974Y-76815140D02*
X102630090Y-76815140D01*
X102630090Y-76815140D02*
X102568309Y-76452528D01*
X102568309Y-76452528D02*
X102819134Y-76454513D01*
X102819134Y-76454513D02*
X103013868Y-76182521D01*
X103013868Y-76182521D02*
X103255035Y-76182521D01*
X103255035Y-76182521D02*
X103255035Y-76182521D01*
G36*
X103320520Y-76543148D02*
G01*
X103035167Y-76543148D01*
X102847974Y-76815140D01*
X102630090Y-76815140D01*
X102568309Y-76452528D01*
X102819134Y-76454513D01*
X103013868Y-76182521D01*
X103255035Y-76182521D01*
X103320520Y-76543148D01*
G37*
X103320520Y-76543148D02*
X103035167Y-76543148D01*
X102847974Y-76815140D01*
X102630090Y-76815140D01*
X102568309Y-76452528D01*
X102819134Y-76454513D01*
X103013868Y-76182521D01*
X103255035Y-76182521D01*
X103320520Y-76543148D01*
X103574652Y-74333480D02*
X103574550Y-74334429D01*
X103574550Y-74334429D02*
X103574280Y-74336106D01*
X103574280Y-74336106D02*
X103573462Y-74340591D01*
X103573462Y-74340591D02*
X103572271Y-74346710D01*
X103572271Y-74346710D02*
X103561155Y-74347778D01*
X103561155Y-74347778D02*
X103550066Y-74349072D01*
X103550066Y-74349072D02*
X103539008Y-74350590D01*
X103539008Y-74350590D02*
X103527984Y-74352332D01*
X103527984Y-74352332D02*
X103516997Y-74354297D01*
X103516997Y-74354297D02*
X103506052Y-74356485D01*
X103506052Y-74356485D02*
X103495151Y-74358894D01*
X103495151Y-74358894D02*
X103484298Y-74361526D01*
X103484298Y-74361526D02*
X103478602Y-74363267D01*
X103478602Y-74363267D02*
X103472930Y-74365083D01*
X103472930Y-74365083D02*
X103467284Y-74366974D01*
X103467284Y-74366974D02*
X103461663Y-74368938D01*
X103461663Y-74368938D02*
X103456068Y-74370977D01*
X103456068Y-74370977D02*
X103450501Y-74373089D01*
X103450501Y-74373089D02*
X103444961Y-74375274D01*
X103444961Y-74375274D02*
X103439450Y-74377533D01*
X103439450Y-74377533D02*
X103437838Y-74378176D01*
X103437838Y-74378176D02*
X103436025Y-74378931D01*
X103436025Y-74378931D02*
X103431496Y-74380874D01*
X103431496Y-74380874D02*
X103425256Y-74383561D01*
X103425256Y-74383561D02*
X103416696Y-74387191D01*
X103416696Y-74387191D02*
X103393677Y-74396980D01*
X103393677Y-74396980D02*
X103388810Y-74399300D01*
X103388810Y-74399300D02*
X103383981Y-74401695D01*
X103383981Y-74401695D02*
X103379190Y-74404165D01*
X103379190Y-74404165D02*
X103374438Y-74406709D01*
X103374438Y-74406709D02*
X103369727Y-74409327D01*
X103369727Y-74409327D02*
X103365056Y-74412018D01*
X103365056Y-74412018D02*
X103360428Y-74414781D01*
X103360428Y-74414781D02*
X103355842Y-74417617D01*
X103355842Y-74417617D02*
X103350919Y-74421281D01*
X103350919Y-74421281D02*
X103346050Y-74425096D01*
X103346050Y-74425096D02*
X103336346Y-74432997D01*
X103336346Y-74432997D02*
X103331444Y-74436989D01*
X103331444Y-74436989D02*
X103326467Y-74440947D01*
X103326467Y-74440947D02*
X103321381Y-74444824D01*
X103321381Y-74444824D02*
X103318788Y-74446718D01*
X103318788Y-74446718D02*
X103316154Y-74448574D01*
X103316154Y-74448574D02*
X103315722Y-74449114D01*
X103315722Y-74449114D02*
X103315281Y-74449646D01*
X103315281Y-74449646D02*
X103314831Y-74450170D01*
X103314831Y-74450170D02*
X103314372Y-74450687D01*
X103314372Y-74450687D02*
X103313904Y-74451196D01*
X103313904Y-74451196D02*
X103313428Y-74451697D01*
X103313428Y-74451697D02*
X103312944Y-74452190D01*
X103312944Y-74452190D02*
X103312451Y-74452675D01*
X103312451Y-74452675D02*
X103311652Y-74453456D01*
X103311652Y-74453456D02*
X103310923Y-74454134D01*
X103310923Y-74454134D02*
X103310234Y-74454745D01*
X103310234Y-74454745D02*
X103309556Y-74455321D01*
X103309556Y-74455321D02*
X103308116Y-74456507D01*
X103308116Y-74456507D02*
X103307294Y-74457186D01*
X103307294Y-74457186D02*
X103306365Y-74457967D01*
X103306365Y-74457967D02*
X103301338Y-74462994D01*
X103301338Y-74462994D02*
X103294062Y-74471196D01*
X103294062Y-74471196D02*
X103289167Y-74476884D01*
X103289167Y-74476884D02*
X103284841Y-74475325D01*
X103284841Y-74475325D02*
X103280561Y-74473652D01*
X103280561Y-74473652D02*
X103276329Y-74471866D01*
X103276329Y-74471866D02*
X103272147Y-74469967D01*
X103272147Y-74469967D02*
X103268017Y-74467958D01*
X103268017Y-74467958D02*
X103263941Y-74465839D01*
X103263941Y-74465839D02*
X103259922Y-74463610D01*
X103259922Y-74463610D02*
X103255962Y-74461274D01*
X103255962Y-74461274D02*
X103253914Y-74460134D01*
X103253914Y-74460134D02*
X103251904Y-74458935D01*
X103251904Y-74458935D02*
X103249934Y-74457678D01*
X103249934Y-74457678D02*
X103248004Y-74456364D01*
X103248004Y-74456364D02*
X103246117Y-74454994D01*
X103246117Y-74454994D02*
X103244272Y-74453569D01*
X103244272Y-74453569D02*
X103242471Y-74452090D01*
X103242471Y-74452090D02*
X103240716Y-74450559D01*
X103240716Y-74450559D02*
X103239007Y-74448976D01*
X103239007Y-74448976D02*
X103237346Y-74447342D01*
X103237346Y-74447342D02*
X103235734Y-74445659D01*
X103235734Y-74445659D02*
X103234172Y-74443927D01*
X103234172Y-74443927D02*
X103232660Y-74442148D01*
X103232660Y-74442148D02*
X103231201Y-74440322D01*
X103231201Y-74440322D02*
X103229796Y-74438451D01*
X103229796Y-74438451D02*
X103228445Y-74436535D01*
X103228445Y-74436535D02*
X103218391Y-74418015D01*
X103218391Y-74418015D02*
X103234266Y-74400420D01*
X103234266Y-74400420D02*
X103240087Y-74394483D01*
X103240087Y-74394483D02*
X103244870Y-74389649D01*
X103244870Y-74389649D02*
X103247002Y-74387519D01*
X103247002Y-74387519D02*
X103248685Y-74385868D01*
X103248685Y-74385868D02*
X103252428Y-74382239D01*
X103252428Y-74382239D02*
X103256232Y-74378677D01*
X103256232Y-74378677D02*
X103260097Y-74375183D01*
X103260097Y-74375183D02*
X103264022Y-74371756D01*
X103264022Y-74371756D02*
X103268006Y-74368399D01*
X103268006Y-74368399D02*
X103272048Y-74365111D01*
X103272048Y-74365111D02*
X103276147Y-74361894D01*
X103276147Y-74361894D02*
X103280303Y-74358748D01*
X103280303Y-74358748D02*
X103283832Y-74355871D01*
X103283832Y-74355871D02*
X103287408Y-74353055D01*
X103287408Y-74353055D02*
X103291029Y-74350299D01*
X103291029Y-74350299D02*
X103294697Y-74347604D01*
X103294697Y-74347604D02*
X103298408Y-74344972D01*
X103298408Y-74344972D02*
X103302164Y-74342401D01*
X103302164Y-74342401D02*
X103305963Y-74339894D01*
X103305963Y-74339894D02*
X103309804Y-74337450D01*
X103309804Y-74337450D02*
X103311952Y-74336121D01*
X103311952Y-74336121D02*
X103314137Y-74334804D01*
X103314137Y-74334804D02*
X103318668Y-74332158D01*
X103318668Y-74332158D02*
X103328722Y-74326469D01*
X103328722Y-74326469D02*
X103335471Y-74322740D01*
X103335471Y-74322740D02*
X103340843Y-74319855D01*
X103340843Y-74319855D02*
X103344851Y-74317763D01*
X103344851Y-74317763D02*
X103347507Y-74316415D01*
X103347507Y-74316415D02*
X103359149Y-74310594D01*
X103359149Y-74310594D02*
X103374125Y-74303725D01*
X103374125Y-74303725D02*
X103389264Y-74297245D01*
X103389264Y-74297245D02*
X103404560Y-74291155D01*
X103404560Y-74291155D02*
X103420003Y-74285460D01*
X103420003Y-74285460D02*
X103435587Y-74280162D01*
X103435587Y-74280162D02*
X103451304Y-74275263D01*
X103451304Y-74275263D02*
X103467146Y-74270766D01*
X103467146Y-74270766D02*
X103483106Y-74266674D01*
X103483106Y-74266674D02*
X103497152Y-74263750D01*
X103497152Y-74263750D02*
X103511135Y-74261146D01*
X103511135Y-74261146D02*
X103524499Y-74258883D01*
X103524499Y-74258883D02*
X103536684Y-74256983D01*
X103536684Y-74256983D02*
X103562481Y-74253444D01*
X103562481Y-74253444D02*
X103563457Y-74255755D01*
X103563457Y-74255755D02*
X103565822Y-74261514D01*
X103565822Y-74261514D02*
X103567261Y-74265136D01*
X103567261Y-74265136D02*
X103568732Y-74268959D01*
X103568732Y-74268959D02*
X103570128Y-74272764D01*
X103570128Y-74272764D02*
X103571345Y-74276331D01*
X103571345Y-74276331D02*
X103572288Y-74279824D01*
X103572288Y-74279824D02*
X103573134Y-74283338D01*
X103573134Y-74283338D02*
X103573881Y-74286869D01*
X103573881Y-74286869D02*
X103574531Y-74290416D01*
X103574531Y-74290416D02*
X103575083Y-74293977D01*
X103575083Y-74293977D02*
X103575537Y-74297550D01*
X103575537Y-74297550D02*
X103575892Y-74301133D01*
X103575892Y-74301133D02*
X103576150Y-74304723D01*
X103576150Y-74304723D02*
X103576308Y-74308319D01*
X103576308Y-74308319D02*
X103576368Y-74311919D01*
X103576368Y-74311919D02*
X103576330Y-74315520D01*
X103576330Y-74315520D02*
X103576192Y-74319121D01*
X103576192Y-74319121D02*
X103575956Y-74322720D01*
X103575956Y-74322720D02*
X103575621Y-74326314D01*
X103575621Y-74326314D02*
X103575186Y-74329902D01*
X103575186Y-74329902D02*
X103574652Y-74333480D01*
X103574652Y-74333480D02*
X103574652Y-74333480D01*
G36*
X103563457Y-74255755D02*
G01*
X103565822Y-74261514D01*
X103567261Y-74265136D01*
X103568732Y-74268959D01*
X103570128Y-74272764D01*
X103571345Y-74276331D01*
X103572288Y-74279824D01*
X103573134Y-74283338D01*
X103573881Y-74286869D01*
X103574531Y-74290416D01*
X103575083Y-74293977D01*
X103575537Y-74297550D01*
X103575892Y-74301133D01*
X103576150Y-74304723D01*
X103576308Y-74308319D01*
X103576368Y-74311919D01*
X103576330Y-74315520D01*
X103576192Y-74319121D01*
X103575956Y-74322720D01*
X103575621Y-74326314D01*
X103575186Y-74329902D01*
X103574652Y-74333480D01*
X103574550Y-74334429D01*
X103574280Y-74336106D01*
X103573462Y-74340591D01*
X103572271Y-74346710D01*
X103561155Y-74347778D01*
X103550066Y-74349072D01*
X103539008Y-74350590D01*
X103527984Y-74352332D01*
X103516997Y-74354297D01*
X103506052Y-74356485D01*
X103495151Y-74358894D01*
X103484298Y-74361526D01*
X103478602Y-74363267D01*
X103472930Y-74365083D01*
X103467284Y-74366974D01*
X103461663Y-74368938D01*
X103456068Y-74370977D01*
X103450501Y-74373089D01*
X103444961Y-74375274D01*
X103439450Y-74377533D01*
X103437838Y-74378176D01*
X103436025Y-74378931D01*
X103431496Y-74380874D01*
X103425256Y-74383561D01*
X103416696Y-74387191D01*
X103393677Y-74396980D01*
X103388810Y-74399300D01*
X103383981Y-74401695D01*
X103379190Y-74404165D01*
X103374438Y-74406709D01*
X103369727Y-74409327D01*
X103365056Y-74412018D01*
X103360428Y-74414781D01*
X103355842Y-74417617D01*
X103350919Y-74421281D01*
X103346050Y-74425096D01*
X103336346Y-74432997D01*
X103331444Y-74436989D01*
X103326467Y-74440947D01*
X103321381Y-74444824D01*
X103318788Y-74446718D01*
X103316154Y-74448574D01*
X103315722Y-74449114D01*
X103315281Y-74449646D01*
X103314831Y-74450170D01*
X103314372Y-74450687D01*
X103313904Y-74451196D01*
X103313428Y-74451697D01*
X103312944Y-74452190D01*
X103312451Y-74452675D01*
X103311652Y-74453456D01*
X103310923Y-74454134D01*
X103310234Y-74454745D01*
X103309556Y-74455321D01*
X103308116Y-74456507D01*
X103307294Y-74457186D01*
X103306365Y-74457967D01*
X103301338Y-74462994D01*
X103294062Y-74471196D01*
X103289167Y-74476884D01*
X103284841Y-74475325D01*
X103280561Y-74473652D01*
X103276329Y-74471866D01*
X103272147Y-74469967D01*
X103268017Y-74467958D01*
X103263941Y-74465839D01*
X103259922Y-74463610D01*
X103255962Y-74461274D01*
X103253914Y-74460134D01*
X103251904Y-74458935D01*
X103249934Y-74457678D01*
X103248004Y-74456364D01*
X103246117Y-74454994D01*
X103244272Y-74453569D01*
X103242471Y-74452090D01*
X103240716Y-74450559D01*
X103239007Y-74448976D01*
X103237346Y-74447342D01*
X103235734Y-74445659D01*
X103234172Y-74443927D01*
X103232660Y-74442148D01*
X103231201Y-74440322D01*
X103229796Y-74438451D01*
X103228445Y-74436535D01*
X103218391Y-74418015D01*
X103234266Y-74400420D01*
X103240087Y-74394483D01*
X103244870Y-74389649D01*
X103247002Y-74387519D01*
X103248685Y-74385868D01*
X103252428Y-74382239D01*
X103256232Y-74378677D01*
X103260097Y-74375183D01*
X103264022Y-74371756D01*
X103268006Y-74368399D01*
X103272048Y-74365111D01*
X103276147Y-74361894D01*
X103280303Y-74358748D01*
X103283832Y-74355871D01*
X103287408Y-74353055D01*
X103291029Y-74350299D01*
X103294697Y-74347604D01*
X103298408Y-74344972D01*
X103302164Y-74342401D01*
X103305963Y-74339894D01*
X103309804Y-74337450D01*
X103311952Y-74336121D01*
X103314137Y-74334804D01*
X103318668Y-74332158D01*
X103328722Y-74326469D01*
X103335471Y-74322740D01*
X103340843Y-74319855D01*
X103344851Y-74317763D01*
X103347507Y-74316415D01*
X103359149Y-74310594D01*
X103374125Y-74303725D01*
X103389264Y-74297245D01*
X103404560Y-74291155D01*
X103420003Y-74285460D01*
X103435587Y-74280162D01*
X103451304Y-74275263D01*
X103467146Y-74270766D01*
X103483106Y-74266674D01*
X103497152Y-74263750D01*
X103511135Y-74261146D01*
X103524499Y-74258883D01*
X103536684Y-74256983D01*
X103562481Y-74253444D01*
X103563457Y-74255755D01*
G37*
X103563457Y-74255755D02*
X103565822Y-74261514D01*
X103567261Y-74265136D01*
X103568732Y-74268959D01*
X103570128Y-74272764D01*
X103571345Y-74276331D01*
X103572288Y-74279824D01*
X103573134Y-74283338D01*
X103573881Y-74286869D01*
X103574531Y-74290416D01*
X103575083Y-74293977D01*
X103575537Y-74297550D01*
X103575892Y-74301133D01*
X103576150Y-74304723D01*
X103576308Y-74308319D01*
X103576368Y-74311919D01*
X103576330Y-74315520D01*
X103576192Y-74319121D01*
X103575956Y-74322720D01*
X103575621Y-74326314D01*
X103575186Y-74329902D01*
X103574652Y-74333480D01*
X103574550Y-74334429D01*
X103574280Y-74336106D01*
X103573462Y-74340591D01*
X103572271Y-74346710D01*
X103561155Y-74347778D01*
X103550066Y-74349072D01*
X103539008Y-74350590D01*
X103527984Y-74352332D01*
X103516997Y-74354297D01*
X103506052Y-74356485D01*
X103495151Y-74358894D01*
X103484298Y-74361526D01*
X103478602Y-74363267D01*
X103472930Y-74365083D01*
X103467284Y-74366974D01*
X103461663Y-74368938D01*
X103456068Y-74370977D01*
X103450501Y-74373089D01*
X103444961Y-74375274D01*
X103439450Y-74377533D01*
X103437838Y-74378176D01*
X103436025Y-74378931D01*
X103431496Y-74380874D01*
X103425256Y-74383561D01*
X103416696Y-74387191D01*
X103393677Y-74396980D01*
X103388810Y-74399300D01*
X103383981Y-74401695D01*
X103379190Y-74404165D01*
X103374438Y-74406709D01*
X103369727Y-74409327D01*
X103365056Y-74412018D01*
X103360428Y-74414781D01*
X103355842Y-74417617D01*
X103350919Y-74421281D01*
X103346050Y-74425096D01*
X103336346Y-74432997D01*
X103331444Y-74436989D01*
X103326467Y-74440947D01*
X103321381Y-74444824D01*
X103318788Y-74446718D01*
X103316154Y-74448574D01*
X103315722Y-74449114D01*
X103315281Y-74449646D01*
X103314831Y-74450170D01*
X103314372Y-74450687D01*
X103313904Y-74451196D01*
X103313428Y-74451697D01*
X103312944Y-74452190D01*
X103312451Y-74452675D01*
X103311652Y-74453456D01*
X103310923Y-74454134D01*
X103310234Y-74454745D01*
X103309556Y-74455321D01*
X103308116Y-74456507D01*
X103307294Y-74457186D01*
X103306365Y-74457967D01*
X103301338Y-74462994D01*
X103294062Y-74471196D01*
X103289167Y-74476884D01*
X103284841Y-74475325D01*
X103280561Y-74473652D01*
X103276329Y-74471866D01*
X103272147Y-74469967D01*
X103268017Y-74467958D01*
X103263941Y-74465839D01*
X103259922Y-74463610D01*
X103255962Y-74461274D01*
X103253914Y-74460134D01*
X103251904Y-74458935D01*
X103249934Y-74457678D01*
X103248004Y-74456364D01*
X103246117Y-74454994D01*
X103244272Y-74453569D01*
X103242471Y-74452090D01*
X103240716Y-74450559D01*
X103239007Y-74448976D01*
X103237346Y-74447342D01*
X103235734Y-74445659D01*
X103234172Y-74443927D01*
X103232660Y-74442148D01*
X103231201Y-74440322D01*
X103229796Y-74438451D01*
X103228445Y-74436535D01*
X103218391Y-74418015D01*
X103234266Y-74400420D01*
X103240087Y-74394483D01*
X103244870Y-74389649D01*
X103247002Y-74387519D01*
X103248685Y-74385868D01*
X103252428Y-74382239D01*
X103256232Y-74378677D01*
X103260097Y-74375183D01*
X103264022Y-74371756D01*
X103268006Y-74368399D01*
X103272048Y-74365111D01*
X103276147Y-74361894D01*
X103280303Y-74358748D01*
X103283832Y-74355871D01*
X103287408Y-74353055D01*
X103291029Y-74350299D01*
X103294697Y-74347604D01*
X103298408Y-74344972D01*
X103302164Y-74342401D01*
X103305963Y-74339894D01*
X103309804Y-74337450D01*
X103311952Y-74336121D01*
X103314137Y-74334804D01*
X103318668Y-74332158D01*
X103328722Y-74326469D01*
X103335471Y-74322740D01*
X103340843Y-74319855D01*
X103344851Y-74317763D01*
X103347507Y-74316415D01*
X103359149Y-74310594D01*
X103374125Y-74303725D01*
X103389264Y-74297245D01*
X103404560Y-74291155D01*
X103420003Y-74285460D01*
X103435587Y-74280162D01*
X103451304Y-74275263D01*
X103467146Y-74270766D01*
X103483106Y-74266674D01*
X103497152Y-74263750D01*
X103511135Y-74261146D01*
X103524499Y-74258883D01*
X103536684Y-74256983D01*
X103562481Y-74253444D01*
X103563457Y-74255755D01*
X103362721Y-76696077D02*
X103428338Y-77056837D01*
X103428338Y-77056837D02*
X103142852Y-77056837D01*
X103142852Y-77056837D02*
X102955792Y-77328828D01*
X102955792Y-77328828D02*
X102737775Y-77328828D01*
X102737775Y-77328828D02*
X102676127Y-76966085D01*
X102676127Y-76966085D02*
X102926820Y-76968069D01*
X102926820Y-76968069D02*
X103121686Y-76696077D01*
X103121686Y-76696077D02*
X103362721Y-76696077D01*
X103362721Y-76696077D02*
X103362721Y-76696077D01*
G36*
X103428338Y-77056837D02*
G01*
X103142852Y-77056837D01*
X102955792Y-77328828D01*
X102737775Y-77328828D01*
X102676127Y-76966085D01*
X102926820Y-76968069D01*
X103121686Y-76696077D01*
X103362721Y-76696077D01*
X103428338Y-77056837D01*
G37*
X103428338Y-77056837D02*
X103142852Y-77056837D01*
X102955792Y-77328828D01*
X102737775Y-77328828D01*
X102676127Y-76966085D01*
X102926820Y-76968069D01*
X103121686Y-76696077D01*
X103362721Y-76696077D01*
X103428338Y-77056837D01*
X103320520Y-75858010D02*
X104422509Y-75858010D01*
X104422509Y-75858010D02*
X104357951Y-76293646D01*
X104357951Y-76293646D02*
X103396455Y-76293646D01*
X103396455Y-76293646D02*
X103320520Y-75858010D01*
X103320520Y-75858010D02*
X103320520Y-75858010D01*
G36*
X104357951Y-76293646D02*
G01*
X103396455Y-76293646D01*
X103320520Y-75858010D01*
X104422509Y-75858010D01*
X104357951Y-76293646D01*
G37*
X104357951Y-76293646D02*
X103396455Y-76293646D01*
X103320520Y-75858010D01*
X104422509Y-75858010D01*
X104357951Y-76293646D01*
X103155552Y-75655603D02*
X103221037Y-76016362D01*
X103221037Y-76016362D02*
X102935551Y-76016362D01*
X102935551Y-76016362D02*
X102748491Y-76288354D01*
X102748491Y-76288354D02*
X102530606Y-76288354D01*
X102530606Y-76288354D02*
X102468826Y-75925743D01*
X102468826Y-75925743D02*
X102719519Y-75927595D01*
X102719519Y-75927595D02*
X102914384Y-75655603D01*
X102914384Y-75655603D02*
X103155552Y-75655603D01*
X103155552Y-75655603D02*
X103155552Y-75655603D01*
G36*
X103221037Y-76016362D02*
G01*
X102935551Y-76016362D01*
X102748491Y-76288354D01*
X102530606Y-76288354D01*
X102468826Y-75925743D01*
X102719519Y-75927595D01*
X102914384Y-75655603D01*
X103155552Y-75655603D01*
X103221037Y-76016362D01*
G37*
X103221037Y-76016362D02*
X102935551Y-76016362D01*
X102748491Y-76288354D01*
X102530606Y-76288354D01*
X102468826Y-75925743D01*
X102719519Y-75927595D01*
X102914384Y-75655603D01*
X103155552Y-75655603D01*
X103221037Y-76016362D01*
X104467489Y-74446458D02*
X104464609Y-74448704D01*
X104464609Y-74448704D02*
X104461669Y-74450868D01*
X104461669Y-74450868D02*
X104458672Y-74452950D01*
X104458672Y-74452950D02*
X104455619Y-74454947D01*
X104455619Y-74454947D02*
X104452512Y-74456858D01*
X104452512Y-74456858D02*
X104449352Y-74458683D01*
X104449352Y-74458683D02*
X104446142Y-74460420D01*
X104446142Y-74460420D02*
X104442882Y-74462068D01*
X104442882Y-74462068D02*
X104441314Y-74460782D01*
X104441314Y-74460782D02*
X104437277Y-74457537D01*
X104437277Y-74457537D02*
X104434646Y-74455466D01*
X104434646Y-74455466D02*
X104431776Y-74453250D01*
X104431776Y-74453250D02*
X104428791Y-74451003D01*
X104428791Y-74451003D02*
X104425817Y-74448839D01*
X104425817Y-74448839D02*
X104423521Y-74447351D01*
X104423521Y-74447351D02*
X104421204Y-74445896D01*
X104421204Y-74445896D02*
X104418868Y-74444473D01*
X104418868Y-74444473D02*
X104416512Y-74443083D01*
X104416512Y-74443083D02*
X104414137Y-74441727D01*
X104414137Y-74441727D02*
X104411743Y-74440404D01*
X104411743Y-74440404D02*
X104409330Y-74439114D01*
X104409330Y-74439114D02*
X104406899Y-74437859D01*
X104406899Y-74437859D02*
X104396299Y-74431608D01*
X104396299Y-74431608D02*
X104389728Y-74427664D01*
X104389728Y-74427664D02*
X104382425Y-74423175D01*
X104382425Y-74423175D02*
X104358745Y-74412326D01*
X104358745Y-74412326D02*
X104354228Y-74410455D01*
X104354228Y-74410455D02*
X104348806Y-74408275D01*
X104348806Y-74408275D02*
X104345752Y-74407095D01*
X104345752Y-74407095D02*
X104342467Y-74405871D01*
X104342467Y-74405871D02*
X104338949Y-74404612D01*
X104338949Y-74404612D02*
X104335197Y-74403330D01*
X104335197Y-74403330D02*
X104323902Y-74399825D01*
X104323902Y-74399825D02*
X104317058Y-74397749D01*
X104317058Y-74397749D02*
X104309532Y-74395525D01*
X104309532Y-74395525D02*
X104296640Y-74391869D01*
X104296640Y-74391869D02*
X104288848Y-74389751D01*
X104288848Y-74389751D02*
X104280213Y-74387505D01*
X104280213Y-74387505D02*
X104270779Y-74385178D01*
X104270779Y-74385178D02*
X104260586Y-74382819D01*
X104260586Y-74382819D02*
X104249678Y-74380475D01*
X104249678Y-74380475D02*
X104238095Y-74378195D01*
X104238095Y-74378195D02*
X104227921Y-74376344D01*
X104227921Y-74376344D02*
X104217721Y-74374657D01*
X104217721Y-74374657D02*
X104207496Y-74373135D01*
X104207496Y-74373135D02*
X104197249Y-74371779D01*
X104197249Y-74371779D02*
X104186981Y-74370588D01*
X104186981Y-74370588D02*
X104176695Y-74369562D01*
X104176695Y-74369562D02*
X104166391Y-74368702D01*
X104166391Y-74368702D02*
X104156074Y-74368009D01*
X104156074Y-74368009D02*
X104154916Y-74359360D01*
X104154916Y-74359360D02*
X104153953Y-74351433D01*
X104153953Y-74351433D02*
X104153516Y-74347410D01*
X104153516Y-74347410D02*
X104153163Y-74343667D01*
X104153163Y-74343667D02*
X104152691Y-74338925D01*
X104152691Y-74338925D02*
X104152377Y-74334175D01*
X104152377Y-74334175D02*
X104152222Y-74329419D01*
X104152222Y-74329419D02*
X104152226Y-74324661D01*
X104152226Y-74324661D02*
X104152388Y-74319907D01*
X104152388Y-74319907D02*
X104152709Y-74315159D01*
X104152709Y-74315159D02*
X104153187Y-74310422D01*
X104153187Y-74310422D02*
X104153825Y-74305700D01*
X104153825Y-74305700D02*
X104154632Y-74301711D01*
X104154632Y-74301711D02*
X104155516Y-74297740D01*
X104155516Y-74297740D02*
X104156477Y-74293788D01*
X104156477Y-74293788D02*
X104157515Y-74289856D01*
X104157515Y-74289856D02*
X104158629Y-74285945D01*
X104158629Y-74285945D02*
X104159818Y-74282055D01*
X104159818Y-74282055D02*
X104161083Y-74278189D01*
X104161083Y-74278189D02*
X104162423Y-74274346D01*
X104162423Y-74274346D02*
X104162424Y-74274346D01*
X104162424Y-74274346D02*
X104185525Y-74276728D01*
X104185525Y-74276728D02*
X104196343Y-74277951D01*
X104196343Y-74277951D02*
X104208132Y-74279369D01*
X104208132Y-74279369D02*
X104220372Y-74280955D01*
X104220372Y-74280955D02*
X104232538Y-74282681D01*
X104232538Y-74282681D02*
X104242155Y-74284160D01*
X104242155Y-74284160D02*
X104251748Y-74285774D01*
X104251748Y-74285774D02*
X104261316Y-74287524D01*
X104261316Y-74287524D02*
X104270859Y-74289408D01*
X104270859Y-74289408D02*
X104280373Y-74291428D01*
X104280373Y-74291428D02*
X104289859Y-74293581D01*
X104289859Y-74293581D02*
X104299314Y-74295869D01*
X104299314Y-74295869D02*
X104308738Y-74298291D01*
X104308738Y-74298291D02*
X104317530Y-74300643D01*
X104317530Y-74300643D02*
X104326284Y-74303127D01*
X104326284Y-74303127D02*
X104334999Y-74305743D01*
X104334999Y-74305743D02*
X104343672Y-74308490D01*
X104343672Y-74308490D02*
X104352303Y-74311368D01*
X104352303Y-74311368D02*
X104360890Y-74314376D01*
X104360890Y-74314376D02*
X104369432Y-74317514D01*
X104369432Y-74317514D02*
X104377926Y-74320781D01*
X104377926Y-74320781D02*
X104391156Y-74326205D01*
X104391156Y-74326205D02*
X104398316Y-74329016D01*
X104398316Y-74329016D02*
X104401927Y-74330484D01*
X104401927Y-74330484D02*
X104405576Y-74332026D01*
X104405576Y-74332026D02*
X104409807Y-74333917D01*
X104409807Y-74333917D02*
X104414820Y-74336243D01*
X104414820Y-74336243D02*
X104425155Y-74341154D01*
X104425155Y-74341154D02*
X104429969Y-74343744D01*
X104429969Y-74343744D02*
X104434496Y-74346247D01*
X104434496Y-74346247D02*
X104442733Y-74350944D01*
X104442733Y-74350944D02*
X104449954Y-74355144D01*
X104449954Y-74355144D02*
X104456244Y-74358749D01*
X104456244Y-74358749D02*
X104459443Y-74360535D01*
X104459443Y-74360535D02*
X104462617Y-74362364D01*
X104462617Y-74362364D02*
X104465766Y-74364236D01*
X104465766Y-74364236D02*
X104468889Y-74366151D01*
X104468889Y-74366151D02*
X104471986Y-74368107D01*
X104471986Y-74368107D02*
X104475056Y-74370106D01*
X104475056Y-74370106D02*
X104478099Y-74372146D01*
X104478099Y-74372146D02*
X104481114Y-74374227D01*
X104481114Y-74374227D02*
X104483850Y-74376293D01*
X104483850Y-74376293D02*
X104486547Y-74378407D01*
X104486547Y-74378407D02*
X104489205Y-74380569D01*
X104489205Y-74380569D02*
X104491823Y-74382780D01*
X104491823Y-74382780D02*
X104494401Y-74385037D01*
X104494401Y-74385037D02*
X104496937Y-74387341D01*
X104496937Y-74387341D02*
X104499432Y-74389691D01*
X104499432Y-74389691D02*
X104501884Y-74392086D01*
X104501884Y-74392086D02*
X104484422Y-74423439D01*
X104484422Y-74423439D02*
X104483693Y-74425095D01*
X104483693Y-74425095D02*
X104482917Y-74426727D01*
X104482917Y-74426727D02*
X104482095Y-74428333D01*
X104482095Y-74428333D02*
X104481227Y-74429912D01*
X104481227Y-74429912D02*
X104480313Y-74431464D01*
X104480313Y-74431464D02*
X104479356Y-74432987D01*
X104479356Y-74432987D02*
X104478354Y-74434482D01*
X104478354Y-74434482D02*
X104477310Y-74435946D01*
X104477310Y-74435946D02*
X104476223Y-74437379D01*
X104476223Y-74437379D02*
X104475095Y-74438780D01*
X104475095Y-74438780D02*
X104473926Y-74440147D01*
X104473926Y-74440147D02*
X104472716Y-74441481D01*
X104472716Y-74441481D02*
X104471467Y-74442780D01*
X104471467Y-74442780D02*
X104470178Y-74444043D01*
X104470178Y-74444043D02*
X104468852Y-74445269D01*
X104468852Y-74445269D02*
X104467488Y-74446458D01*
X104467488Y-74446458D02*
X104467489Y-74446458D01*
X104467489Y-74446458D02*
X104467489Y-74446458D01*
G36*
X104185525Y-74276728D02*
G01*
X104196343Y-74277951D01*
X104208132Y-74279369D01*
X104220372Y-74280955D01*
X104232538Y-74282681D01*
X104242155Y-74284160D01*
X104251748Y-74285774D01*
X104261316Y-74287524D01*
X104270859Y-74289408D01*
X104280373Y-74291428D01*
X104289859Y-74293581D01*
X104299314Y-74295869D01*
X104308738Y-74298291D01*
X104317530Y-74300643D01*
X104326284Y-74303127D01*
X104334999Y-74305743D01*
X104343672Y-74308490D01*
X104352303Y-74311368D01*
X104360890Y-74314376D01*
X104369432Y-74317514D01*
X104377926Y-74320781D01*
X104391156Y-74326205D01*
X104398316Y-74329016D01*
X104401927Y-74330484D01*
X104405576Y-74332026D01*
X104409807Y-74333917D01*
X104414820Y-74336243D01*
X104425155Y-74341154D01*
X104429969Y-74343744D01*
X104434496Y-74346247D01*
X104442733Y-74350944D01*
X104449954Y-74355144D01*
X104456244Y-74358749D01*
X104459443Y-74360535D01*
X104462617Y-74362364D01*
X104465766Y-74364236D01*
X104468889Y-74366151D01*
X104471986Y-74368107D01*
X104475056Y-74370106D01*
X104478099Y-74372146D01*
X104481114Y-74374227D01*
X104483850Y-74376293D01*
X104486547Y-74378407D01*
X104489205Y-74380569D01*
X104491823Y-74382780D01*
X104494401Y-74385037D01*
X104496937Y-74387341D01*
X104499432Y-74389691D01*
X104501884Y-74392086D01*
X104484422Y-74423439D01*
X104483693Y-74425095D01*
X104482917Y-74426727D01*
X104482095Y-74428333D01*
X104481227Y-74429912D01*
X104480313Y-74431464D01*
X104479356Y-74432987D01*
X104478354Y-74434482D01*
X104477310Y-74435946D01*
X104476223Y-74437379D01*
X104475095Y-74438780D01*
X104473926Y-74440147D01*
X104472716Y-74441481D01*
X104471467Y-74442780D01*
X104470178Y-74444043D01*
X104468852Y-74445269D01*
X104467488Y-74446458D01*
X104467489Y-74446458D01*
X104464609Y-74448704D01*
X104461669Y-74450868D01*
X104458672Y-74452950D01*
X104455619Y-74454947D01*
X104452512Y-74456858D01*
X104449352Y-74458683D01*
X104446142Y-74460420D01*
X104442882Y-74462068D01*
X104441314Y-74460782D01*
X104437277Y-74457537D01*
X104434646Y-74455466D01*
X104431776Y-74453250D01*
X104428791Y-74451003D01*
X104425817Y-74448839D01*
X104423521Y-74447351D01*
X104421204Y-74445896D01*
X104418868Y-74444473D01*
X104416512Y-74443083D01*
X104414137Y-74441727D01*
X104411743Y-74440404D01*
X104409330Y-74439114D01*
X104406899Y-74437859D01*
X104396299Y-74431608D01*
X104389728Y-74427664D01*
X104382425Y-74423175D01*
X104358745Y-74412326D01*
X104354228Y-74410455D01*
X104348806Y-74408275D01*
X104345752Y-74407095D01*
X104342467Y-74405871D01*
X104338949Y-74404612D01*
X104335197Y-74403330D01*
X104323902Y-74399825D01*
X104317058Y-74397749D01*
X104309532Y-74395525D01*
X104296640Y-74391869D01*
X104288848Y-74389751D01*
X104280213Y-74387505D01*
X104270779Y-74385178D01*
X104260586Y-74382819D01*
X104249678Y-74380475D01*
X104238095Y-74378195D01*
X104227921Y-74376344D01*
X104217721Y-74374657D01*
X104207496Y-74373135D01*
X104197249Y-74371779D01*
X104186981Y-74370588D01*
X104176695Y-74369562D01*
X104166391Y-74368702D01*
X104156074Y-74368009D01*
X104154916Y-74359360D01*
X104153953Y-74351433D01*
X104153516Y-74347410D01*
X104153163Y-74343667D01*
X104152691Y-74338925D01*
X104152377Y-74334175D01*
X104152222Y-74329419D01*
X104152226Y-74324661D01*
X104152388Y-74319907D01*
X104152709Y-74315159D01*
X104153187Y-74310422D01*
X104153825Y-74305700D01*
X104154632Y-74301711D01*
X104155516Y-74297740D01*
X104156477Y-74293788D01*
X104157515Y-74289856D01*
X104158629Y-74285945D01*
X104159818Y-74282055D01*
X104161083Y-74278189D01*
X104162423Y-74274346D01*
X104162424Y-74274346D01*
X104185525Y-74276728D01*
G37*
X104185525Y-74276728D02*
X104196343Y-74277951D01*
X104208132Y-74279369D01*
X104220372Y-74280955D01*
X104232538Y-74282681D01*
X104242155Y-74284160D01*
X104251748Y-74285774D01*
X104261316Y-74287524D01*
X104270859Y-74289408D01*
X104280373Y-74291428D01*
X104289859Y-74293581D01*
X104299314Y-74295869D01*
X104308738Y-74298291D01*
X104317530Y-74300643D01*
X104326284Y-74303127D01*
X104334999Y-74305743D01*
X104343672Y-74308490D01*
X104352303Y-74311368D01*
X104360890Y-74314376D01*
X104369432Y-74317514D01*
X104377926Y-74320781D01*
X104391156Y-74326205D01*
X104398316Y-74329016D01*
X104401927Y-74330484D01*
X104405576Y-74332026D01*
X104409807Y-74333917D01*
X104414820Y-74336243D01*
X104425155Y-74341154D01*
X104429969Y-74343744D01*
X104434496Y-74346247D01*
X104442733Y-74350944D01*
X104449954Y-74355144D01*
X104456244Y-74358749D01*
X104459443Y-74360535D01*
X104462617Y-74362364D01*
X104465766Y-74364236D01*
X104468889Y-74366151D01*
X104471986Y-74368107D01*
X104475056Y-74370106D01*
X104478099Y-74372146D01*
X104481114Y-74374227D01*
X104483850Y-74376293D01*
X104486547Y-74378407D01*
X104489205Y-74380569D01*
X104491823Y-74382780D01*
X104494401Y-74385037D01*
X104496937Y-74387341D01*
X104499432Y-74389691D01*
X104501884Y-74392086D01*
X104484422Y-74423439D01*
X104483693Y-74425095D01*
X104482917Y-74426727D01*
X104482095Y-74428333D01*
X104481227Y-74429912D01*
X104480313Y-74431464D01*
X104479356Y-74432987D01*
X104478354Y-74434482D01*
X104477310Y-74435946D01*
X104476223Y-74437379D01*
X104475095Y-74438780D01*
X104473926Y-74440147D01*
X104472716Y-74441481D01*
X104471467Y-74442780D01*
X104470178Y-74444043D01*
X104468852Y-74445269D01*
X104467488Y-74446458D01*
X104467489Y-74446458D01*
X104464609Y-74448704D01*
X104461669Y-74450868D01*
X104458672Y-74452950D01*
X104455619Y-74454947D01*
X104452512Y-74456858D01*
X104449352Y-74458683D01*
X104446142Y-74460420D01*
X104442882Y-74462068D01*
X104441314Y-74460782D01*
X104437277Y-74457537D01*
X104434646Y-74455466D01*
X104431776Y-74453250D01*
X104428791Y-74451003D01*
X104425817Y-74448839D01*
X104423521Y-74447351D01*
X104421204Y-74445896D01*
X104418868Y-74444473D01*
X104416512Y-74443083D01*
X104414137Y-74441727D01*
X104411743Y-74440404D01*
X104409330Y-74439114D01*
X104406899Y-74437859D01*
X104396299Y-74431608D01*
X104389728Y-74427664D01*
X104382425Y-74423175D01*
X104358745Y-74412326D01*
X104354228Y-74410455D01*
X104348806Y-74408275D01*
X104345752Y-74407095D01*
X104342467Y-74405871D01*
X104338949Y-74404612D01*
X104335197Y-74403330D01*
X104323902Y-74399825D01*
X104317058Y-74397749D01*
X104309532Y-74395525D01*
X104296640Y-74391869D01*
X104288848Y-74389751D01*
X104280213Y-74387505D01*
X104270779Y-74385178D01*
X104260586Y-74382819D01*
X104249678Y-74380475D01*
X104238095Y-74378195D01*
X104227921Y-74376344D01*
X104217721Y-74374657D01*
X104207496Y-74373135D01*
X104197249Y-74371779D01*
X104186981Y-74370588D01*
X104176695Y-74369562D01*
X104166391Y-74368702D01*
X104156074Y-74368009D01*
X104154916Y-74359360D01*
X104153953Y-74351433D01*
X104153516Y-74347410D01*
X104153163Y-74343667D01*
X104152691Y-74338925D01*
X104152377Y-74334175D01*
X104152222Y-74329419D01*
X104152226Y-74324661D01*
X104152388Y-74319907D01*
X104152709Y-74315159D01*
X104153187Y-74310422D01*
X104153825Y-74305700D01*
X104154632Y-74301711D01*
X104155516Y-74297740D01*
X104156477Y-74293788D01*
X104157515Y-74289856D01*
X104158629Y-74285945D01*
X104159818Y-74282055D01*
X104161083Y-74278189D01*
X104162423Y-74274346D01*
X104162424Y-74274346D01*
X104185525Y-74276728D01*
X104588006Y-75655603D02*
X104522522Y-76016362D01*
X104522522Y-76016362D02*
X104808007Y-76016362D01*
X104808007Y-76016362D02*
X104995068Y-76288354D01*
X104995068Y-76288354D02*
X105213084Y-76288354D01*
X105213084Y-76288354D02*
X105274732Y-75925743D01*
X105274732Y-75925743D02*
X105024040Y-75927595D01*
X105024040Y-75927595D02*
X104829174Y-75655603D01*
X104829174Y-75655603D02*
X104588006Y-75655603D01*
X104588006Y-75655603D02*
X104588006Y-75655603D01*
G36*
X105024040Y-75927595D02*
G01*
X105274732Y-75925743D01*
X105213084Y-76288354D01*
X104995068Y-76288354D01*
X104808007Y-76016362D01*
X104522522Y-76016362D01*
X104588006Y-75655603D01*
X104829174Y-75655603D01*
X105024040Y-75927595D01*
G37*
X105024040Y-75927595D02*
X105274732Y-75925743D01*
X105213084Y-76288354D01*
X104995068Y-76288354D01*
X104808007Y-76016362D01*
X104522522Y-76016362D01*
X104588006Y-75655603D01*
X104829174Y-75655603D01*
X105024040Y-75927595D01*
D14*
%TO.C,D5*%
X151800143Y-75256500D02*
X151800143Y-78346500D01*
X157350143Y-76801962D02*
G75*
G03*
X151800143Y-75256670I-2990000J462D01*
G01*
X151800143Y-78346330D02*
G75*
G03*
X157350143Y-76801038I2560000J1544830D01*
G01*
X156860143Y-76801500D02*
G75*
G03*
X156860143Y-76801500I-2500000J0D01*
G01*
%TO.C,RV2*%
X124060000Y-124695500D02*
X141200000Y-124695500D01*
X124060000Y-124695500D02*
X124060000Y-113775500D01*
X141200000Y-124695500D02*
X141200000Y-113775500D01*
X141200000Y-113775500D02*
G75*
G03*
X141200000Y-113775500I-8570000J0D01*
G01*
%TO.C,D7*%
X195512429Y-75256500D02*
X195512429Y-78346500D01*
X195512429Y-78346330D02*
G75*
G03*
X201062429Y-76801038I2560000J1544830D01*
G01*
X201062429Y-76801962D02*
G75*
G03*
X195512429Y-75256670I-2990000J462D01*
G01*
X200572429Y-76801500D02*
G75*
G03*
X200572429Y-76801500I-2500000J0D01*
G01*
%TO.C,SW8*%
X270384000Y-92549500D02*
G75*
G03*
X270384000Y-92549500I-6000000J0D01*
G01*
%TO.C,RV4*%
X185142000Y-124701500D02*
X185142000Y-113781500D01*
X168002000Y-124701500D02*
X168002000Y-113781500D01*
X168002000Y-124701500D02*
X185142000Y-124701500D01*
X185142000Y-113781500D02*
G75*
G03*
X185142000Y-113781500I-8570000J0D01*
G01*
%TO.C,SW5*%
X204162000Y-92549500D02*
G75*
G03*
X204162000Y-92549500I-6000000J0D01*
G01*
%TO.C,RV3*%
X145916000Y-124701500D02*
X163056000Y-124701500D01*
X163056000Y-124701500D02*
X163056000Y-113781500D01*
X145916000Y-124701500D02*
X145916000Y-113781500D01*
X163056000Y-113781500D02*
G75*
G03*
X163056000Y-113781500I-8570000J0D01*
G01*
%TO.C,SW9*%
X292312000Y-92549500D02*
G75*
G03*
X292312000Y-92549500I-6000000J0D01*
G01*
%TO.C,D11*%
X283498000Y-75256500D02*
X283498000Y-78346500D01*
X289048000Y-76801962D02*
G75*
G03*
X283498000Y-75256670I-2990000J462D01*
G01*
X283498000Y-78346330D02*
G75*
G03*
X289048000Y-76801038I2560000J1544830D01*
G01*
X288558000Y-76801500D02*
G75*
G03*
X288558000Y-76801500I-2500000J0D01*
G01*
%TO.C,J3*%
X177529000Y-164357000D02*
X180929000Y-160957000D01*
X163576000Y-164357000D02*
X177529000Y-164357000D01*
X180929000Y-160967000D02*
X180929000Y-148336000D01*
X163576000Y-148336000D02*
X163576000Y-164357000D01*
X180929000Y-148336000D02*
X163576000Y-148336000D01*
%TO.C,SW6*%
X226230000Y-92549500D02*
G75*
G03*
X226230000Y-92549500I-6000000J0D01*
G01*
%TO.C,RV5*%
X189592000Y-124701500D02*
X206732000Y-124701500D01*
X206732000Y-124701500D02*
X206732000Y-113781500D01*
X189592000Y-124701500D02*
X189592000Y-113781500D01*
X206732000Y-113781500D02*
G75*
G03*
X206732000Y-113781500I-8570000J0D01*
G01*
%TO.C,J5*%
X213360000Y-164357000D02*
X227313000Y-164357000D01*
X227313000Y-164357000D02*
X230713000Y-160957000D01*
X213360000Y-148336000D02*
X213360000Y-164357000D01*
X230713000Y-148336000D02*
X213360000Y-148336000D01*
X230713000Y-160967000D02*
X230713000Y-148336000D01*
%TO.C,D9*%
X239556000Y-75256500D02*
X239556000Y-78346500D01*
X245106000Y-76801962D02*
G75*
G03*
X239556000Y-75256670I-2990000J462D01*
G01*
X239556000Y-78346330D02*
G75*
G03*
X245106000Y-76801038I2560000J1544830D01*
G01*
X244616000Y-76801500D02*
G75*
G03*
X244616000Y-76801500I-2500000J0D01*
G01*
%TO.C,SW1*%
X106172000Y-160020000D02*
X111252000Y-160020000D01*
X111252000Y-160020000D02*
X111252000Y-151384000D01*
X111252000Y-151384000D02*
X106172000Y-151384000D01*
X106172000Y-151384000D02*
X106172000Y-160020000D01*
D16*
X107049000Y-155702000D02*
G75*
G03*
X107049000Y-155702000I-115000J0D01*
G01*
D14*
%TO.C,D6*%
X174007000Y-75256500D02*
X174007000Y-78346500D01*
X179557000Y-76801962D02*
G75*
G03*
X174007000Y-75256670I-2990000J462D01*
G01*
X174007000Y-78346330D02*
G75*
G03*
X179557000Y-76801038I2560000J1544830D01*
G01*
X179067000Y-76801500D02*
G75*
G03*
X179067000Y-76801500I-2500000J0D01*
G01*
%TO.C,SW10*%
X264414000Y-151130000D02*
X259334000Y-151130000D01*
X259334000Y-151130000D02*
X259334000Y-159766000D01*
X259334000Y-159766000D02*
X264414000Y-159766000D01*
X264414000Y-159766000D02*
X264414000Y-151130000D01*
D16*
X263767000Y-155448000D02*
G75*
G03*
X263767000Y-155448000I-115000J0D01*
G01*
%TD*%
M02*
