%TF.GenerationSoftware,KiCad,Pcbnew,(6.0.0-0)*%
%TF.CreationDate,2022-11-09T21:30:41-05:00*%
%TF.ProjectId,SEQUENCER,53455155-454e-4434-9552-2e6b69636164,rev?*%
%TF.SameCoordinates,Original*%
%TF.FileFunction,Soldermask,Bot*%
%TF.FilePolarity,Negative*%
%FSLAX46Y46*%
G04 Gerber Fmt 4.6, Leading zero omitted, Abs format (unit mm)*
G04 Created by KiCad (PCBNEW (6.0.0-0)) date 2022-11-09 21:30:41*
%MOMM*%
%LPD*%
G01*
G04 APERTURE LIST*
G04 Aperture macros list*
%AMRoundRect*
0 Rectangle with rounded corners*
0 $1 Rounding radius*
0 $2 $3 $4 $5 $6 $7 $8 $9 X,Y pos of 4 corners*
0 Add a 4 corners polygon primitive as box body*
4,1,4,$2,$3,$4,$5,$6,$7,$8,$9,$2,$3,0*
0 Add four circle primitives for the rounded corners*
1,1,$1+$1,$2,$3*
1,1,$1+$1,$4,$5*
1,1,$1+$1,$6,$7*
1,1,$1+$1,$8,$9*
0 Add four rect primitives between the rounded corners*
20,1,$1+$1,$2,$3,$4,$5,0*
20,1,$1+$1,$4,$5,$6,$7,0*
20,1,$1+$1,$6,$7,$8,$9,0*
20,1,$1+$1,$8,$9,$2,$3,0*%
%AMRotRect*
0 Rectangle, with rotation*
0 The origin of the aperture is its center*
0 $1 length*
0 $2 width*
0 $3 Rotation angle, in degrees counterclockwise*
0 Add horizontal line*
21,1,$1,$2,0,0,$3*%
G04 Aperture macros list end*
%ADD10C,0.800000*%
%ADD11C,6.000000*%
%ADD12R,1.500000X3.000000*%
%ADD13R,1.800000X1.800000*%
%ADD14C,1.800000*%
%ADD15R,3.000000X8.500000*%
%ADD16RotRect,3.000000X6.500000X315.000000*%
%ADD17C,2.340000*%
%ADD18C,2.200000*%
%ADD19RoundRect,0.150000X-0.150000X0.587500X-0.150000X-0.587500X0.150000X-0.587500X0.150000X0.587500X0*%
%ADD20RoundRect,0.250000X-0.250000X-0.475000X0.250000X-0.475000X0.250000X0.475000X-0.250000X0.475000X0*%
%ADD21RoundRect,0.250000X0.450000X-0.262500X0.450000X0.262500X-0.450000X0.262500X-0.450000X-0.262500X0*%
%ADD22RoundRect,0.250000X-0.450000X0.262500X-0.450000X-0.262500X0.450000X-0.262500X0.450000X0.262500X0*%
%ADD23RoundRect,0.250000X-0.262500X-0.450000X0.262500X-0.450000X0.262500X0.450000X-0.262500X0.450000X0*%
%ADD24RoundRect,0.150000X0.725000X0.150000X-0.725000X0.150000X-0.725000X-0.150000X0.725000X-0.150000X0*%
%ADD25R,0.500000X0.500000*%
%ADD26R,2.500000X2.500000*%
%ADD27RoundRect,0.150000X0.825000X0.150000X-0.825000X0.150000X-0.825000X-0.150000X0.825000X-0.150000X0*%
%ADD28RoundRect,0.250000X0.262500X0.450000X-0.262500X0.450000X-0.262500X-0.450000X0.262500X-0.450000X0*%
%ADD29RoundRect,0.150000X0.150000X-0.587500X0.150000X0.587500X-0.150000X0.587500X-0.150000X-0.587500X0*%
%ADD30RoundRect,0.250000X-0.600000X-0.600000X0.600000X-0.600000X0.600000X0.600000X-0.600000X0.600000X0*%
%ADD31C,1.700000*%
%ADD32C,1.440000*%
G04 APERTURE END LIST*
D10*
%TO.C,REF\u002A\u002A*%
X215610000Y-136398000D03*
X214950990Y-134807010D03*
X213360000Y-134148000D03*
X214950990Y-137988990D03*
X213360000Y-138648000D03*
X211110000Y-136398000D03*
D11*
X213360000Y-136398000D03*
D10*
X211769010Y-134807010D03*
X211769010Y-137988990D03*
%TD*%
%TO.C,REF\u002A\u002A*%
X102834000Y-169164000D03*
X102174990Y-167573010D03*
X100584000Y-166914000D03*
X102174990Y-170754990D03*
X100584000Y-171414000D03*
X98334000Y-169164000D03*
D11*
X100584000Y-169164000D03*
D10*
X98993010Y-167573010D03*
X98993010Y-170754990D03*
%TD*%
%TO.C,REF\u002A\u002A*%
X102834000Y-70104000D03*
X102174990Y-68513010D03*
X100584000Y-67854000D03*
X102174990Y-71694990D03*
X100584000Y-72354000D03*
X98334000Y-70104000D03*
D11*
X100584000Y-70104000D03*
D10*
X98993010Y-68513010D03*
X98993010Y-71694990D03*
%TD*%
%TO.C,REF\u002A\u002A*%
X320004000Y-70104000D03*
X319344990Y-68513010D03*
X317754000Y-67854000D03*
X319344990Y-71694990D03*
X317754000Y-72354000D03*
X315504000Y-70104000D03*
D11*
X317754000Y-70104000D03*
D10*
X316163010Y-68513010D03*
X316163010Y-71694990D03*
%TD*%
D11*
%TO.C,REF\u002A\u002A*%
X317754000Y-169164000D03*
D10*
X320004000Y-169164000D03*
X319344990Y-170754990D03*
X317754000Y-171414000D03*
X316163010Y-170754990D03*
X315504000Y-169164000D03*
X316163010Y-167573010D03*
X317754000Y-166914000D03*
X319344990Y-167573010D03*
%TD*%
D12*
%TO.C,SW11*%
X304292000Y-152052500D03*
X299466000Y-152052500D03*
%TD*%
%TO.C,SW7*%
X239830000Y-94327500D03*
X244656000Y-94327500D03*
%TD*%
D13*
%TO.C,D8*%
X218701000Y-76801500D03*
D14*
X221241000Y-76801500D03*
%TD*%
D13*
%TO.C,D4*%
X131350000Y-76905000D03*
D14*
X133890000Y-76905000D03*
%TD*%
D15*
%TO.C,J1*%
X141785666Y-156435000D03*
D16*
X152995666Y-160417000D03*
%TD*%
D15*
%TO.C,J2*%
X190971000Y-156435000D03*
D16*
X202181000Y-160417000D03*
%TD*%
D17*
%TO.C,RV1*%
X128952000Y-168396000D03*
X123952000Y-168396000D03*
X118952000Y-168396000D03*
%TD*%
D12*
%TO.C,SW3*%
X151692000Y-94327500D03*
X156518000Y-94327500D03*
%TD*%
%TO.C,SW4*%
X174032000Y-94327500D03*
X178858000Y-94327500D03*
%TD*%
D13*
%TO.C,D10*%
X262860000Y-76801500D03*
D14*
X265400000Y-76801500D03*
%TD*%
D17*
%TO.C,RV9*%
X291300000Y-126331500D03*
X286300000Y-126331500D03*
X281300000Y-126331500D03*
%TD*%
%TO.C,RV7*%
X247358000Y-126331500D03*
X242358000Y-126331500D03*
X237358000Y-126331500D03*
%TD*%
D15*
%TO.C,J6*%
X240500994Y-156181000D03*
D16*
X251710994Y-160163000D03*
%TD*%
D17*
%TO.C,RV6*%
X225230000Y-126331500D03*
X220230000Y-126331500D03*
X215230000Y-126331500D03*
%TD*%
D12*
%TO.C,SW2*%
X130090000Y-94421000D03*
X134916000Y-94421000D03*
%TD*%
D17*
%TO.C,RV8*%
X269384000Y-126331500D03*
X264384000Y-126331500D03*
X259384000Y-126331500D03*
%TD*%
D13*
%TO.C,D5*%
X153090143Y-76801500D03*
D14*
X155630143Y-76801500D03*
%TD*%
D17*
%TO.C,RV2*%
X137630000Y-126325500D03*
X132630000Y-126325500D03*
X127630000Y-126325500D03*
%TD*%
D13*
%TO.C,D7*%
X196802429Y-76801500D03*
D14*
X199342429Y-76801500D03*
%TD*%
D12*
%TO.C,SW8*%
X261844000Y-94327500D03*
X266670000Y-94327500D03*
%TD*%
D17*
%TO.C,RV4*%
X181572000Y-126331500D03*
X176572000Y-126331500D03*
X171572000Y-126331500D03*
%TD*%
D12*
%TO.C,SW5*%
X195622000Y-94327500D03*
X200448000Y-94327500D03*
%TD*%
D17*
%TO.C,RV3*%
X159486000Y-126331500D03*
X154486000Y-126331500D03*
X149486000Y-126331500D03*
%TD*%
D12*
%TO.C,SW9*%
X283772000Y-94327500D03*
X288598000Y-94327500D03*
%TD*%
D13*
%TO.C,D11*%
X284788000Y-76801500D03*
D14*
X287328000Y-76801500D03*
%TD*%
D15*
%TO.C,J3*%
X166079000Y-156435000D03*
D16*
X177289000Y-160417000D03*
%TD*%
D12*
%TO.C,SW6*%
X217690000Y-94327500D03*
X222516000Y-94327500D03*
%TD*%
D17*
%TO.C,RV5*%
X203162000Y-126331500D03*
X198162000Y-126331500D03*
X193162000Y-126331500D03*
%TD*%
D15*
%TO.C,J5*%
X215863000Y-156435000D03*
D16*
X227073000Y-160417000D03*
%TD*%
D13*
%TO.C,D9*%
X240846000Y-76801500D03*
D14*
X243386000Y-76801500D03*
%TD*%
D18*
%TO.C,SW1*%
X108712000Y-158242000D03*
X108712000Y-155702000D03*
X108712000Y-153162000D03*
%TD*%
D13*
%TO.C,D6*%
X175297000Y-76801500D03*
D14*
X177837000Y-76801500D03*
%TD*%
D18*
%TO.C,SW10*%
X261874000Y-152908000D03*
X261874000Y-155448000D03*
X261874000Y-157988000D03*
%TD*%
D19*
%TO.C,Q8*%
X285362000Y-81452000D03*
X287262000Y-81452000D03*
X286312000Y-83327000D03*
%TD*%
D20*
%TO.C,C2*%
X312382500Y-110772256D03*
X314282500Y-110772256D03*
%TD*%
D21*
%TO.C,R25*%
X312687499Y-104357013D03*
X312687499Y-102532013D03*
%TD*%
D19*
%TO.C,Q7*%
X263434000Y-81452000D03*
X265334000Y-81452000D03*
X264384000Y-83327000D03*
%TD*%
D22*
%TO.C,R1*%
X114300000Y-133961500D03*
X114300000Y-135786500D03*
%TD*%
D23*
%TO.C,R30*%
X313285500Y-86360000D03*
X315110500Y-86360000D03*
%TD*%
D24*
%TO.C,U2*%
X307336743Y-108359256D03*
X307336743Y-109629256D03*
X307336743Y-110899256D03*
X307336743Y-112169256D03*
X307336743Y-113439256D03*
X307336743Y-114709256D03*
X307336743Y-115979256D03*
X307336743Y-117249256D03*
X302186743Y-117249256D03*
X302186743Y-115979256D03*
X302186743Y-114709256D03*
X302186743Y-113439256D03*
X302186743Y-112169256D03*
X302186743Y-110899256D03*
X302186743Y-109629256D03*
X302186743Y-108359256D03*
%TD*%
D22*
%TO.C,R26*%
X304305499Y-102532013D03*
X304305499Y-104357013D03*
%TD*%
D25*
%TO.C,D20*%
X287390501Y-102455500D03*
X285190501Y-102455500D03*
%TD*%
%TO.C,D27*%
X265472000Y-130395500D03*
X263272000Y-130395500D03*
%TD*%
D23*
%TO.C,R6*%
X312420000Y-108486256D03*
X314245000Y-108486256D03*
%TD*%
D25*
%TO.C,D22*%
X155465143Y-130141500D03*
X153265143Y-130141500D03*
%TD*%
%TO.C,D1*%
X109812000Y-161798000D03*
X107612000Y-161798000D03*
%TD*%
%TO.C,D19*%
X265556000Y-102455500D03*
X263356000Y-102455500D03*
%TD*%
D19*
%TO.C,Q4*%
X197127429Y-81452000D03*
X199027429Y-81452000D03*
X198077429Y-83327000D03*
%TD*%
D22*
%TO.C,R22*%
X261336000Y-81477000D03*
X261336000Y-83302000D03*
%TD*%
D26*
%TO.C,TP1*%
X296672000Y-76708000D03*
%TD*%
D22*
%TO.C,R33*%
X308102000Y-88241500D03*
X308102000Y-90066500D03*
%TD*%
%TO.C,R23*%
X283264000Y-81477000D03*
X283264000Y-83302000D03*
%TD*%
D25*
%TO.C,D28*%
X287400000Y-130395500D03*
X285200000Y-130395500D03*
%TD*%
%TO.C,D13*%
X133718000Y-102455500D03*
X131518000Y-102455500D03*
%TD*%
%TO.C,D14*%
X155465143Y-102455500D03*
X153265143Y-102455500D03*
%TD*%
D19*
%TO.C,Q6*%
X241420000Y-81452000D03*
X243320000Y-81452000D03*
X242370000Y-83327000D03*
%TD*%
D25*
%TO.C,D21*%
X133718000Y-130141500D03*
X131518000Y-130141500D03*
%TD*%
D21*
%TO.C,R8*%
X135678000Y-83302000D03*
X135678000Y-81477000D03*
%TD*%
%TO.C,R15*%
X289360000Y-83302000D03*
X289360000Y-81477000D03*
%TD*%
D25*
%TO.C,D15*%
X177696286Y-102455500D03*
X175496286Y-102455500D03*
%TD*%
D22*
%TO.C,R17*%
X151384000Y-81383500D03*
X151384000Y-83208500D03*
%TD*%
D27*
%TO.C,U4*%
X309307000Y-81915000D03*
X309307000Y-83185000D03*
X309307000Y-84455000D03*
X309307000Y-85725000D03*
X304357000Y-85725000D03*
X304357000Y-84455000D03*
X304357000Y-83185000D03*
X304357000Y-81915000D03*
%TD*%
D21*
%TO.C,R13*%
X245418000Y-83302000D03*
X245418000Y-81477000D03*
%TD*%
D28*
%TO.C,R2*%
X116416500Y-127762000D03*
X114591500Y-127762000D03*
%TD*%
D25*
%TO.C,D16*%
X199177429Y-102455500D03*
X196977429Y-102455500D03*
%TD*%
D29*
%TO.C,Q9*%
X310589499Y-104382013D03*
X308689499Y-104382013D03*
X309639499Y-102507013D03*
%TD*%
D25*
%TO.C,D23*%
X177660000Y-130141500D03*
X175460000Y-130141500D03*
%TD*%
D21*
%TO.C,R10*%
X179620000Y-83302000D03*
X179620000Y-81477000D03*
%TD*%
D28*
%TO.C,R4*%
X109624500Y-164592000D03*
X107799500Y-164592000D03*
%TD*%
D22*
%TO.C,R16*%
X129577000Y-81477000D03*
X129577000Y-83302000D03*
%TD*%
D21*
%TO.C,R24*%
X314973499Y-104357013D03*
X314973499Y-102532013D03*
%TD*%
D22*
%TO.C,R20*%
X217182000Y-81477000D03*
X217182000Y-83302000D03*
%TD*%
D19*
%TO.C,Q5*%
X219280000Y-81452000D03*
X221180000Y-81452000D03*
X220230000Y-83327000D03*
%TD*%
%TO.C,Q1*%
X131680000Y-81452000D03*
X133580000Y-81452000D03*
X132630000Y-83327000D03*
%TD*%
D25*
%TO.C,D2*%
X312316500Y-114920256D03*
X312316500Y-112720256D03*
%TD*%
%TO.C,D18*%
X243458000Y-102455500D03*
X241258000Y-102455500D03*
%TD*%
D22*
%TO.C,R3*%
X114300000Y-130405500D03*
X114300000Y-132230500D03*
%TD*%
D21*
%TO.C,R14*%
X267432000Y-83302000D03*
X267432000Y-81477000D03*
%TD*%
D30*
%TO.C,J4*%
X105664000Y-103632000D03*
D31*
X108204000Y-103632000D03*
X105664000Y-101092000D03*
X108204000Y-101092000D03*
X105664000Y-98552000D03*
X108204000Y-98552000D03*
X105664000Y-96012000D03*
X108204000Y-96012000D03*
X105664000Y-93472000D03*
X108204000Y-93472000D03*
X105664000Y-90932000D03*
X108204000Y-90932000D03*
X105664000Y-88392000D03*
X108204000Y-88392000D03*
X105664000Y-85852000D03*
X108204000Y-85852000D03*
%TD*%
D21*
%TO.C,R11*%
X201125429Y-83302000D03*
X201125429Y-81477000D03*
%TD*%
D25*
%TO.C,D25*%
X221318000Y-130141500D03*
X219118000Y-130141500D03*
%TD*%
%TO.C,D17*%
X221318000Y-102455500D03*
X219118000Y-102455500D03*
%TD*%
D20*
%TO.C,C1*%
X110998000Y-127762000D03*
X112898000Y-127762000D03*
%TD*%
D22*
%TO.C,R18*%
X173524000Y-81477000D03*
X173524000Y-83302000D03*
%TD*%
D27*
%TO.C,U1*%
X111690000Y-131191000D03*
X111690000Y-132461000D03*
X111690000Y-133731000D03*
X111690000Y-135001000D03*
X106740000Y-135001000D03*
X106740000Y-133731000D03*
X106740000Y-132461000D03*
X106740000Y-131191000D03*
%TD*%
D28*
%TO.C,R29*%
X315110500Y-83820000D03*
X313285500Y-83820000D03*
%TD*%
D21*
%TO.C,R5*%
X103881000Y-134008500D03*
X103881000Y-132183500D03*
%TD*%
%TO.C,R28*%
X305816000Y-90066500D03*
X305816000Y-88241500D03*
%TD*%
D32*
%TO.C,RV10*%
X309626000Y-73914000D03*
X307086000Y-73914000D03*
X304546000Y-73914000D03*
%TD*%
D22*
%TO.C,R19*%
X195029429Y-81477000D03*
X195029429Y-83302000D03*
%TD*%
D21*
%TO.C,R9*%
X157408143Y-83302000D03*
X157408143Y-81477000D03*
%TD*%
D26*
%TO.C,TP2*%
X296672000Y-82042000D03*
%TD*%
D32*
%TO.C,RV11*%
X309636000Y-96520000D03*
X307096000Y-96520000D03*
X304556000Y-96520000D03*
%TD*%
D25*
%TO.C,D3*%
X314602500Y-114920256D03*
X314602500Y-112720256D03*
%TD*%
%TO.C,D12*%
X306591499Y-104544513D03*
X306591499Y-102344513D03*
%TD*%
D19*
%TO.C,Q2*%
X153410143Y-81452000D03*
X155310143Y-81452000D03*
X154360143Y-83327000D03*
%TD*%
D21*
%TO.C,R12*%
X223278000Y-83302000D03*
X223278000Y-81477000D03*
%TD*%
D22*
%TO.C,R21*%
X239322000Y-81477000D03*
X239322000Y-83302000D03*
%TD*%
D21*
%TO.C,R27*%
X302019499Y-104357013D03*
X302019499Y-102532013D03*
%TD*%
D25*
%TO.C,D24*%
X199177429Y-130141500D03*
X196977429Y-130141500D03*
%TD*%
D19*
%TO.C,Q3*%
X175622000Y-81452000D03*
X177522000Y-81452000D03*
X176572000Y-83327000D03*
%TD*%
D25*
%TO.C,D26*%
X243458000Y-130395500D03*
X241258000Y-130395500D03*
%TD*%
D23*
%TO.C,R7*%
X312420000Y-116868256D03*
X314245000Y-116868256D03*
%TD*%
M02*
