%TF.GenerationSoftware,KiCad,Pcbnew,(6.0.0-0)*%
%TF.CreationDate,2022-11-09T21:30:40-05:00*%
%TF.ProjectId,SEQUENCER,53455155-454e-4434-9552-2e6b69636164,rev?*%
%TF.SameCoordinates,Original*%
%TF.FileFunction,Soldermask,Top*%
%TF.FilePolarity,Negative*%
%FSLAX46Y46*%
G04 Gerber Fmt 4.6, Leading zero omitted, Abs format (unit mm)*
G04 Created by KiCad (PCBNEW (6.0.0-0)) date 2022-11-09 21:30:40*
%MOMM*%
%LPD*%
G01*
G04 APERTURE LIST*
G04 Aperture macros list*
%AMRoundRect*
0 Rectangle with rounded corners*
0 $1 Rounding radius*
0 $2 $3 $4 $5 $6 $7 $8 $9 X,Y pos of 4 corners*
0 Add a 4 corners polygon primitive as box body*
4,1,4,$2,$3,$4,$5,$6,$7,$8,$9,$2,$3,0*
0 Add four circle primitives for the rounded corners*
1,1,$1+$1,$2,$3*
1,1,$1+$1,$4,$5*
1,1,$1+$1,$6,$7*
1,1,$1+$1,$8,$9*
0 Add four rect primitives between the rounded corners*
20,1,$1+$1,$2,$3,$4,$5,0*
20,1,$1+$1,$4,$5,$6,$7,0*
20,1,$1+$1,$6,$7,$8,$9,0*
20,1,$1+$1,$8,$9,$2,$3,0*%
%AMRotRect*
0 Rectangle, with rotation*
0 The origin of the aperture is its center*
0 $1 length*
0 $2 width*
0 $3 Rotation angle, in degrees counterclockwise*
0 Add horizontal line*
21,1,$1,$2,0,0,$3*%
G04 Aperture macros list end*
%ADD10C,0.800000*%
%ADD11C,6.000000*%
%ADD12R,1.500000X3.000000*%
%ADD13R,0.500000X0.500000*%
%ADD14R,1.800000X1.800000*%
%ADD15C,1.800000*%
%ADD16R,3.000000X8.500000*%
%ADD17RotRect,3.000000X6.500000X315.000000*%
%ADD18C,2.340000*%
%ADD19C,2.200000*%
%ADD20RoundRect,0.250000X-0.600000X-0.600000X0.600000X-0.600000X0.600000X0.600000X-0.600000X0.600000X0*%
%ADD21C,1.700000*%
%ADD22C,1.440000*%
G04 APERTURE END LIST*
D10*
%TO.C,REF\u002A\u002A*%
X215610000Y-136398000D03*
X214950990Y-134807010D03*
X213360000Y-134148000D03*
X214950990Y-137988990D03*
X213360000Y-138648000D03*
X211110000Y-136398000D03*
D11*
X213360000Y-136398000D03*
D10*
X211769010Y-134807010D03*
X211769010Y-137988990D03*
%TD*%
%TO.C,REF\u002A\u002A*%
X102834000Y-169164000D03*
X102174990Y-167573010D03*
X100584000Y-166914000D03*
X102174990Y-170754990D03*
X100584000Y-171414000D03*
X98334000Y-169164000D03*
D11*
X100584000Y-169164000D03*
D10*
X98993010Y-167573010D03*
X98993010Y-170754990D03*
%TD*%
%TO.C,REF\u002A\u002A*%
X102834000Y-70104000D03*
X102174990Y-68513010D03*
X100584000Y-67854000D03*
X102174990Y-71694990D03*
X100584000Y-72354000D03*
X98334000Y-70104000D03*
D11*
X100584000Y-70104000D03*
D10*
X98993010Y-68513010D03*
X98993010Y-71694990D03*
%TD*%
%TO.C,REF\u002A\u002A*%
X320004000Y-70104000D03*
X319344990Y-68513010D03*
X317754000Y-67854000D03*
X319344990Y-71694990D03*
X317754000Y-72354000D03*
X315504000Y-70104000D03*
D11*
X317754000Y-70104000D03*
D10*
X316163010Y-68513010D03*
X316163010Y-71694990D03*
%TD*%
D11*
%TO.C,REF\u002A\u002A*%
X317754000Y-169164000D03*
D10*
X320004000Y-169164000D03*
X319344990Y-170754990D03*
X317754000Y-171414000D03*
X316163010Y-170754990D03*
X315504000Y-169164000D03*
X316163010Y-167573010D03*
X317754000Y-166914000D03*
X319344990Y-167573010D03*
%TD*%
D12*
%TO.C,SW11*%
X304292000Y-152052500D03*
X299466000Y-152052500D03*
%TD*%
D13*
%TO.C,D29*%
X312082000Y-119380000D03*
X314282000Y-119380000D03*
%TD*%
D12*
%TO.C,SW7*%
X239830000Y-94327500D03*
X244656000Y-94327500D03*
%TD*%
D14*
%TO.C,D8*%
X218701000Y-76801500D03*
D15*
X221241000Y-76801500D03*
%TD*%
D14*
%TO.C,D4*%
X131350000Y-76905000D03*
D15*
X133890000Y-76905000D03*
%TD*%
D16*
%TO.C,J1*%
X141785666Y-156435000D03*
D17*
X152995666Y-160417000D03*
%TD*%
D16*
%TO.C,J2*%
X190971000Y-156435000D03*
D17*
X202181000Y-160417000D03*
%TD*%
D18*
%TO.C,RV1*%
X128952000Y-168396000D03*
X123952000Y-168396000D03*
X118952000Y-168396000D03*
%TD*%
D12*
%TO.C,SW3*%
X151692000Y-94327500D03*
X156518000Y-94327500D03*
%TD*%
%TO.C,SW4*%
X174032000Y-94327500D03*
X178858000Y-94327500D03*
%TD*%
D14*
%TO.C,D10*%
X262860000Y-76801500D03*
D15*
X265400000Y-76801500D03*
%TD*%
D18*
%TO.C,RV9*%
X291300000Y-126331500D03*
X286300000Y-126331500D03*
X281300000Y-126331500D03*
%TD*%
%TO.C,RV7*%
X247358000Y-126331500D03*
X242358000Y-126331500D03*
X237358000Y-126331500D03*
%TD*%
D16*
%TO.C,J6*%
X240500994Y-156181000D03*
D17*
X251710994Y-160163000D03*
%TD*%
D18*
%TO.C,RV6*%
X225230000Y-126331500D03*
X220230000Y-126331500D03*
X215230000Y-126331500D03*
%TD*%
D12*
%TO.C,SW2*%
X130090000Y-94421000D03*
X134916000Y-94421000D03*
%TD*%
D18*
%TO.C,RV8*%
X269384000Y-126331500D03*
X264384000Y-126331500D03*
X259384000Y-126331500D03*
%TD*%
D14*
%TO.C,D5*%
X153090143Y-76801500D03*
D15*
X155630143Y-76801500D03*
%TD*%
D18*
%TO.C,RV2*%
X137630000Y-126325500D03*
X132630000Y-126325500D03*
X127630000Y-126325500D03*
%TD*%
D14*
%TO.C,D7*%
X196802429Y-76801500D03*
D15*
X199342429Y-76801500D03*
%TD*%
D12*
%TO.C,SW8*%
X261844000Y-94327500D03*
X266670000Y-94327500D03*
%TD*%
D18*
%TO.C,RV4*%
X181572000Y-126331500D03*
X176572000Y-126331500D03*
X171572000Y-126331500D03*
%TD*%
D12*
%TO.C,SW5*%
X195622000Y-94327500D03*
X200448000Y-94327500D03*
%TD*%
D18*
%TO.C,RV3*%
X159486000Y-126331500D03*
X154486000Y-126331500D03*
X149486000Y-126331500D03*
%TD*%
D12*
%TO.C,SW9*%
X283772000Y-94327500D03*
X288598000Y-94327500D03*
%TD*%
D14*
%TO.C,D11*%
X284788000Y-76801500D03*
D15*
X287328000Y-76801500D03*
%TD*%
D16*
%TO.C,J3*%
X166079000Y-156435000D03*
D17*
X177289000Y-160417000D03*
%TD*%
D12*
%TO.C,SW6*%
X217690000Y-94327500D03*
X222516000Y-94327500D03*
%TD*%
D18*
%TO.C,RV5*%
X203162000Y-126331500D03*
X198162000Y-126331500D03*
X193162000Y-126331500D03*
%TD*%
D16*
%TO.C,J5*%
X215863000Y-156435000D03*
D17*
X227073000Y-160417000D03*
%TD*%
D14*
%TO.C,D9*%
X240846000Y-76801500D03*
D15*
X243386000Y-76801500D03*
%TD*%
D19*
%TO.C,SW1*%
X108712000Y-158242000D03*
X108712000Y-155702000D03*
X108712000Y-153162000D03*
%TD*%
D14*
%TO.C,D6*%
X175297000Y-76801500D03*
D15*
X177837000Y-76801500D03*
%TD*%
D19*
%TO.C,SW10*%
X261874000Y-152908000D03*
X261874000Y-155448000D03*
X261874000Y-157988000D03*
%TD*%
D20*
%TO.C,J4*%
X105664000Y-103632000D03*
D21*
X108204000Y-103632000D03*
X105664000Y-101092000D03*
X108204000Y-101092000D03*
X105664000Y-98552000D03*
X108204000Y-98552000D03*
X105664000Y-96012000D03*
X108204000Y-96012000D03*
X105664000Y-93472000D03*
X108204000Y-93472000D03*
X105664000Y-90932000D03*
X108204000Y-90932000D03*
X105664000Y-88392000D03*
X108204000Y-88392000D03*
X105664000Y-85852000D03*
X108204000Y-85852000D03*
%TD*%
D22*
%TO.C,RV10*%
X309626000Y-73914000D03*
X307086000Y-73914000D03*
X304546000Y-73914000D03*
%TD*%
%TO.C,RV11*%
X309636000Y-96520000D03*
X307096000Y-96520000D03*
X304556000Y-96520000D03*
%TD*%
M02*
