%TF.GenerationSoftware,KiCad,Pcbnew,(6.0.0-0)*%
%TF.CreationDate,2022-11-30T22:17:17-05:00*%
%TF.ProjectId,prototype-board,70726f74-6f74-4797-9065-2d626f617264,rev?*%
%TF.SameCoordinates,Original*%
%TF.FileFunction,Paste,Top*%
%TF.FilePolarity,Positive*%
%FSLAX46Y46*%
G04 Gerber Fmt 4.6, Leading zero omitted, Abs format (unit mm)*
G04 Created by KiCad (PCBNEW (6.0.0-0)) date 2022-11-30 22:17:17*
%MOMM*%
%LPD*%
G01*
G04 APERTURE LIST*
G04 Aperture macros list*
%AMRoundRect*
0 Rectangle with rounded corners*
0 $1 Rounding radius*
0 $2 $3 $4 $5 $6 $7 $8 $9 X,Y pos of 4 corners*
0 Add a 4 corners polygon primitive as box body*
4,1,4,$2,$3,$4,$5,$6,$7,$8,$9,$2,$3,0*
0 Add four circle primitives for the rounded corners*
1,1,$1+$1,$2,$3*
1,1,$1+$1,$4,$5*
1,1,$1+$1,$6,$7*
1,1,$1+$1,$8,$9*
0 Add four rect primitives between the rounded corners*
20,1,$1+$1,$2,$3,$4,$5,0*
20,1,$1+$1,$4,$5,$6,$7,0*
20,1,$1+$1,$6,$7,$8,$9,0*
20,1,$1+$1,$8,$9,$2,$3,0*%
G04 Aperture macros list end*
%ADD10RoundRect,0.243750X0.243750X0.456250X-0.243750X0.456250X-0.243750X-0.456250X0.243750X-0.456250X0*%
%ADD11RoundRect,0.250000X0.262500X0.450000X-0.262500X0.450000X-0.262500X-0.450000X0.262500X-0.450000X0*%
%ADD12RoundRect,0.250000X-0.262500X-0.450000X0.262500X-0.450000X0.262500X0.450000X-0.262500X0.450000X0*%
%ADD13R,0.900000X1.200000*%
%ADD14RoundRect,0.250000X0.450000X-0.262500X0.450000X0.262500X-0.450000X0.262500X-0.450000X-0.262500X0*%
%ADD15RoundRect,0.243750X0.456250X-0.243750X0.456250X0.243750X-0.456250X0.243750X-0.456250X-0.243750X0*%
%ADD16RoundRect,0.150000X0.825000X0.150000X-0.825000X0.150000X-0.825000X-0.150000X0.825000X-0.150000X0*%
%ADD17RoundRect,0.250000X-0.250000X-0.475000X0.250000X-0.475000X0.250000X0.475000X-0.250000X0.475000X0*%
%ADD18RoundRect,0.250000X-1.500000X-0.550000X1.500000X-0.550000X1.500000X0.550000X-1.500000X0.550000X0*%
%ADD19RoundRect,0.250000X0.475000X-0.250000X0.475000X0.250000X-0.475000X0.250000X-0.475000X-0.250000X0*%
G04 APERTURE END LIST*
D10*
%TO.C,D6*%
X44867000Y-58486000D03*
X42992000Y-58486000D03*
%TD*%
%TO.C,D5*%
X141575000Y-60706000D03*
X139700000Y-60706000D03*
%TD*%
D11*
%TO.C,R7*%
X134008500Y-62913500D03*
X132183500Y-62913500D03*
%TD*%
D12*
%TO.C,R9*%
X46839500Y-55880000D03*
X48664500Y-55880000D03*
%TD*%
%TO.C,R8*%
X46839500Y-58420000D03*
X48664500Y-58420000D03*
%TD*%
D13*
%TO.C,D9*%
X45086000Y-133858000D03*
X48386000Y-133858000D03*
%TD*%
D10*
%TO.C,D11*%
X137843500Y-60706000D03*
X135968500Y-60706000D03*
%TD*%
D14*
%TO.C,R2*%
X104394000Y-59840500D03*
X104394000Y-58015500D03*
%TD*%
%TO.C,R10*%
X43434000Y-52474500D03*
X43434000Y-50649500D03*
%TD*%
D15*
%TO.C,D4*%
X125989000Y-59865500D03*
X125989000Y-57990500D03*
%TD*%
D16*
%TO.C,U4*%
X46163000Y-130429000D03*
X46163000Y-129159000D03*
X46163000Y-127889000D03*
X46163000Y-126619000D03*
X46163000Y-125349000D03*
X46163000Y-124079000D03*
X46163000Y-122809000D03*
X46163000Y-121539000D03*
X41213000Y-121539000D03*
X41213000Y-122809000D03*
X41213000Y-124079000D03*
X41213000Y-125349000D03*
X41213000Y-126619000D03*
X41213000Y-127889000D03*
X41213000Y-129159000D03*
X41213000Y-130429000D03*
%TD*%
D10*
%TO.C,D7*%
X44867000Y-55946000D03*
X42992000Y-55946000D03*
%TD*%
D13*
%TO.C,D10*%
X43306000Y-133858000D03*
X40006000Y-133858000D03*
%TD*%
D15*
%TO.C,D1*%
X89921000Y-59865500D03*
X89921000Y-57990500D03*
%TD*%
D11*
%TO.C,R6*%
X137818500Y-62913500D03*
X135993500Y-62913500D03*
%TD*%
D10*
%TO.C,D12*%
X134033500Y-60706000D03*
X132158500Y-60706000D03*
%TD*%
D17*
%TO.C,C1*%
X46802000Y-60960000D03*
X48702000Y-60960000D03*
%TD*%
D18*
%TO.C,C4*%
X64114000Y-56390500D03*
X69514000Y-56390500D03*
%TD*%
D19*
%TO.C,C3*%
X48006000Y-52512000D03*
X48006000Y-50612000D03*
%TD*%
D15*
%TO.C,D2*%
X102108000Y-59865500D03*
X102108000Y-57990500D03*
%TD*%
D14*
%TO.C,R4*%
X128275000Y-59840500D03*
X128275000Y-58015500D03*
%TD*%
D10*
%TO.C,D8*%
X44879500Y-60960000D03*
X43004500Y-60960000D03*
%TD*%
D14*
%TO.C,R1*%
X92207000Y-59840500D03*
X92207000Y-58015500D03*
%TD*%
D11*
%TO.C,R5*%
X141628500Y-62913500D03*
X139803500Y-62913500D03*
%TD*%
D18*
%TO.C,C6*%
X53954000Y-56390500D03*
X59354000Y-56390500D03*
%TD*%
D15*
%TO.C,D3*%
X114051000Y-59865500D03*
X114051000Y-57990500D03*
%TD*%
D14*
%TO.C,R3*%
X116337000Y-59840500D03*
X116337000Y-58015500D03*
%TD*%
D19*
%TO.C,C2*%
X45720000Y-52512000D03*
X45720000Y-50612000D03*
%TD*%
D18*
%TO.C,C5*%
X74274000Y-56390500D03*
X79674000Y-56390500D03*
%TD*%
M02*
