%TF.GenerationSoftware,KiCad,Pcbnew,(6.0.0-0)*%
%TF.CreationDate,2022-11-30T22:17:18-05:00*%
%TF.ProjectId,prototype-board,70726f74-6f74-4797-9065-2d626f617264,rev?*%
%TF.SameCoordinates,Original*%
%TF.FileFunction,Soldermask,Bot*%
%TF.FilePolarity,Negative*%
%FSLAX46Y46*%
G04 Gerber Fmt 4.6, Leading zero omitted, Abs format (unit mm)*
G04 Created by KiCad (PCBNEW (6.0.0-0)) date 2022-11-30 22:17:18*
%MOMM*%
%LPD*%
G01*
G04 APERTURE LIST*
G04 Aperture macros list*
%AMRoundRect*
0 Rectangle with rounded corners*
0 $1 Rounding radius*
0 $2 $3 $4 $5 $6 $7 $8 $9 X,Y pos of 4 corners*
0 Add a 4 corners polygon primitive as box body*
4,1,4,$2,$3,$4,$5,$6,$7,$8,$9,$2,$3,0*
0 Add four circle primitives for the rounded corners*
1,1,$1+$1,$2,$3*
1,1,$1+$1,$4,$5*
1,1,$1+$1,$6,$7*
1,1,$1+$1,$8,$9*
0 Add four rect primitives between the rounded corners*
20,1,$1+$1,$2,$3,$4,$5,0*
20,1,$1+$1,$4,$5,$6,$7,0*
20,1,$1+$1,$6,$7,$8,$9,0*
20,1,$1+$1,$8,$9,$2,$3,0*%
G04 Aperture macros list end*
%ADD10C,0.800000*%
%ADD11C,6.000000*%
%ADD12O,2.720000X3.240000*%
%ADD13C,2.000000*%
%ADD14R,1.600000X1.600000*%
%ADD15O,1.600000X1.600000*%
%ADD16R,1.700000X1.700000*%
%ADD17O,1.700000X1.700000*%
%ADD18C,2.499360*%
%ADD19R,1.930000X1.830000*%
%ADD20C,2.130000*%
%ADD21RoundRect,0.250000X-0.600000X0.600000X-0.600000X-0.600000X0.600000X-0.600000X0.600000X0.600000X0*%
%ADD22C,1.700000*%
G04 APERTURE END LIST*
D10*
%TO.C,H4*%
X41656000Y-43216000D03*
X43246990Y-43875010D03*
X43246990Y-47056990D03*
D11*
X41656000Y-45466000D03*
D10*
X40065010Y-47056990D03*
X41656000Y-47716000D03*
X43906000Y-45466000D03*
X39406000Y-45466000D03*
X40065010Y-43875010D03*
%TD*%
D12*
%TO.C,RV2*%
X158433714Y-47501000D03*
X148833714Y-47501000D03*
D13*
X151133714Y-55001000D03*
X153633714Y-55001000D03*
X156133714Y-55001000D03*
%TD*%
D14*
%TO.C,U3*%
X41920000Y-73142000D03*
D15*
X44460000Y-73142000D03*
X47000000Y-73142000D03*
X49540000Y-73142000D03*
X49540000Y-65522000D03*
X47000000Y-65522000D03*
X44460000Y-65522000D03*
X41920000Y-65522000D03*
%TD*%
D12*
%TO.C,RV5*%
X192158856Y-47501000D03*
X201758856Y-47501000D03*
D13*
X194458856Y-55001000D03*
X196958856Y-55001000D03*
X199458856Y-55001000D03*
%TD*%
D16*
%TO.C,J13*%
X52070000Y-126492000D03*
D17*
X52070000Y-123952000D03*
X52070000Y-121412000D03*
X52070000Y-118872000D03*
X52070000Y-116332000D03*
X52070000Y-113792000D03*
X52070000Y-111252000D03*
X52070000Y-108712000D03*
X52070000Y-106172000D03*
X52070000Y-103632000D03*
%TD*%
D18*
%TO.C,J19*%
X246809260Y-139585700D03*
X236806740Y-139585700D03*
X249306080Y-129590800D03*
X241808000Y-129588260D03*
X234309920Y-129590800D03*
X246804180Y-127088900D03*
X236811820Y-127088900D03*
%TD*%
D16*
%TO.C,J9*%
X160792000Y-62205000D03*
D17*
X163332000Y-62205000D03*
X165872000Y-62205000D03*
X168412000Y-62205000D03*
X170952000Y-62205000D03*
X173492000Y-62205000D03*
X176032000Y-62205000D03*
X178572000Y-62205000D03*
X181112000Y-62205000D03*
X183652000Y-62205000D03*
X186192000Y-62205000D03*
X188732000Y-62205000D03*
X191272000Y-62205000D03*
X193812000Y-62205000D03*
X196352000Y-62205000D03*
X198892000Y-62205000D03*
X201432000Y-62205000D03*
X203972000Y-62205000D03*
X206512000Y-62205000D03*
X209052000Y-62205000D03*
X211592000Y-62205000D03*
X214132000Y-62205000D03*
X216672000Y-62205000D03*
X219212000Y-62205000D03*
%TD*%
D12*
%TO.C,RV7*%
X221042284Y-47501000D03*
X230642284Y-47501000D03*
D13*
X223342284Y-55001000D03*
X225842284Y-55001000D03*
X228342284Y-55001000D03*
%TD*%
D19*
%TO.C,J2*%
X100071000Y-43750000D03*
D20*
X100071000Y-46850000D03*
X100071000Y-55150000D03*
%TD*%
D16*
%TO.C,J18*%
X256856000Y-78740000D03*
D17*
X256856000Y-81280000D03*
X256856000Y-83820000D03*
X256856000Y-86360000D03*
X256856000Y-88900000D03*
X256856000Y-91440000D03*
X256856000Y-93980000D03*
X256856000Y-96520000D03*
X256856000Y-99060000D03*
X256856000Y-101600000D03*
X256856000Y-104140000D03*
X256856000Y-106680000D03*
X256856000Y-109220000D03*
X256856000Y-111760000D03*
X256856000Y-114300000D03*
X256856000Y-116840000D03*
%TD*%
D16*
%TO.C,J12*%
X52070000Y-96520000D03*
D17*
X52070000Y-93980000D03*
X52070000Y-91440000D03*
X52070000Y-88900000D03*
X52070000Y-86360000D03*
X52070000Y-83820000D03*
%TD*%
D13*
%TO.C,SW3*%
X242114000Y-103632000D03*
X248614000Y-103632000D03*
X248614000Y-108132000D03*
X242114000Y-108132000D03*
%TD*%
D16*
%TO.C,J10*%
X145542000Y-62230000D03*
D17*
X148082000Y-62230000D03*
X150622000Y-62230000D03*
%TD*%
D12*
%TO.C,RV3*%
X172875428Y-47501000D03*
X163275428Y-47501000D03*
D13*
X165575428Y-55001000D03*
X168075428Y-55001000D03*
X170575428Y-55001000D03*
%TD*%
D16*
%TO.C,J1*%
X84328000Y-58928000D03*
D17*
X86868000Y-58928000D03*
%TD*%
D16*
%TO.C,J4*%
X96515000Y-58928000D03*
D17*
X99055000Y-58928000D03*
%TD*%
D19*
%TO.C,J5*%
X112014000Y-43750000D03*
D20*
X112014000Y-46850000D03*
X112014000Y-55150000D03*
%TD*%
D10*
%TO.C,H2*%
X256860990Y-47056990D03*
X255270000Y-47716000D03*
X255270000Y-43216000D03*
X253679010Y-47056990D03*
X253679010Y-43875010D03*
X256860990Y-43875010D03*
X257520000Y-45466000D03*
X253020000Y-45466000D03*
D11*
X255270000Y-45466000D03*
%TD*%
D10*
%TO.C,H3*%
X42992990Y-137601010D03*
X39152000Y-139192000D03*
X41402000Y-141442000D03*
X39811010Y-140782990D03*
X42992990Y-140782990D03*
X43652000Y-139192000D03*
X39811010Y-137601010D03*
D11*
X41402000Y-139192000D03*
D10*
X41402000Y-136942000D03*
%TD*%
D12*
%TO.C,RV8*%
X235484000Y-47501000D03*
X245084000Y-47501000D03*
D13*
X237784000Y-55001000D03*
X240284000Y-55001000D03*
X242784000Y-55001000D03*
%TD*%
D12*
%TO.C,RV4*%
X187317142Y-47501000D03*
X177717142Y-47501000D03*
D13*
X180017142Y-55001000D03*
X182517142Y-55001000D03*
X185017142Y-55001000D03*
%TD*%
D14*
%TO.C,SW1*%
X231623000Y-72737250D03*
D15*
X234163000Y-72737250D03*
X236703000Y-72737250D03*
X239243000Y-72737250D03*
X241783000Y-72737250D03*
X244323000Y-72737250D03*
X246863000Y-72737250D03*
X249403000Y-72737250D03*
X249403000Y-65117250D03*
X246863000Y-65117250D03*
X244323000Y-65117250D03*
X241783000Y-65117250D03*
X239243000Y-65117250D03*
X236703000Y-65117250D03*
X234163000Y-65117250D03*
X231623000Y-65117250D03*
%TD*%
D16*
%TO.C,J6*%
X108458000Y-58928000D03*
D17*
X110998000Y-58928000D03*
%TD*%
D16*
%TO.C,J20*%
X229362000Y-129543890D03*
D17*
X229362000Y-132083890D03*
%TD*%
D21*
%TO.C,U1*%
X75438000Y-45224000D03*
D22*
X75438000Y-47764000D03*
X72910000Y-47764000D03*
X72898000Y-45224000D03*
X70358000Y-45224000D03*
X70370000Y-47764000D03*
X67830000Y-47764000D03*
X67818000Y-45224000D03*
X65278000Y-45224000D03*
X65290000Y-47764000D03*
X62750000Y-47764000D03*
X62738000Y-45224000D03*
X60198000Y-45224000D03*
X60210000Y-47764000D03*
X57670000Y-47764000D03*
X57658000Y-45224000D03*
%TD*%
D12*
%TO.C,RV1*%
X134392000Y-47501000D03*
X143992000Y-47501000D03*
D13*
X136692000Y-55001000D03*
X139192000Y-55001000D03*
X141692000Y-55001000D03*
%TD*%
%TO.C,SW5*%
X242062000Y-113792000D03*
X248562000Y-113792000D03*
X248562000Y-118292000D03*
X242062000Y-118292000D03*
%TD*%
D16*
%TO.C,J15*%
X43688000Y-116840000D03*
D17*
X43688000Y-114300000D03*
X43688000Y-111760000D03*
X43688000Y-109220000D03*
X43688000Y-106680000D03*
X43688000Y-104140000D03*
X43688000Y-101600000D03*
X43688000Y-99060000D03*
X43688000Y-96520000D03*
X43688000Y-93980000D03*
X43688000Y-91440000D03*
X43688000Y-88900000D03*
X43688000Y-86360000D03*
X43688000Y-83820000D03*
X43688000Y-81280000D03*
X43688000Y-78740000D03*
%TD*%
D16*
%TO.C,J11*%
X225044000Y-80010000D03*
D17*
X227584000Y-80010000D03*
X225044000Y-82550000D03*
X227584000Y-82550000D03*
X225044000Y-85090000D03*
X227584000Y-85090000D03*
X225044000Y-87630000D03*
X227584000Y-87630000D03*
X225044000Y-90170000D03*
X227584000Y-90170000D03*
X225044000Y-92710000D03*
X227584000Y-92710000D03*
X225044000Y-95250000D03*
X227584000Y-95250000D03*
X225044000Y-97790000D03*
X227584000Y-97790000D03*
%TD*%
D16*
%TO.C,J16*%
X40132000Y-116840000D03*
D17*
X40132000Y-114300000D03*
X40132000Y-111760000D03*
X40132000Y-109220000D03*
X40132000Y-106680000D03*
X40132000Y-104140000D03*
X40132000Y-101600000D03*
X40132000Y-99060000D03*
X40132000Y-96520000D03*
X40132000Y-93980000D03*
X40132000Y-91440000D03*
X40132000Y-88900000D03*
X40132000Y-86360000D03*
X40132000Y-83820000D03*
X40132000Y-81280000D03*
X40132000Y-78740000D03*
%TD*%
D16*
%TO.C,J21*%
X225044000Y-106426000D03*
D17*
X225044000Y-108966000D03*
X225044000Y-111506000D03*
X225044000Y-114046000D03*
X225044000Y-116586000D03*
X225044000Y-119126000D03*
X225044000Y-121666000D03*
X225044000Y-124206000D03*
%TD*%
D19*
%TO.C,J3*%
X87884000Y-43750000D03*
D20*
X87884000Y-46850000D03*
X87884000Y-55150000D03*
%TD*%
D10*
%TO.C,H1*%
X257114990Y-137601010D03*
X255524000Y-136942000D03*
X255524000Y-141442000D03*
X253933010Y-137601010D03*
X257114990Y-140782990D03*
X253274000Y-139192000D03*
X257774000Y-139192000D03*
X253933010Y-140782990D03*
D11*
X255524000Y-139192000D03*
%TD*%
D16*
%TO.C,J17*%
X253238000Y-78740000D03*
D17*
X253238000Y-81280000D03*
X253238000Y-83820000D03*
X253238000Y-86360000D03*
X253238000Y-88900000D03*
X253238000Y-91440000D03*
X253238000Y-93980000D03*
X253238000Y-96520000D03*
X253238000Y-99060000D03*
X253238000Y-101600000D03*
X253238000Y-104140000D03*
X253238000Y-106680000D03*
X253238000Y-109220000D03*
X253238000Y-111760000D03*
X253238000Y-114300000D03*
X253238000Y-116840000D03*
%TD*%
%TO.C,REF\u002A\u002A*%
X87122000Y-132334000D03*
X137922000Y-132334000D03*
X150622000Y-65786000D03*
X170942000Y-132334000D03*
X117602000Y-132334000D03*
X216662000Y-65786000D03*
X89662000Y-65786000D03*
X178562000Y-132334000D03*
X140462000Y-65786000D03*
X196342000Y-65786000D03*
X127762000Y-65786000D03*
X198882000Y-65786000D03*
X163322000Y-132334000D03*
X193802000Y-65786000D03*
X66802000Y-132334000D03*
X155702000Y-132334000D03*
X59182000Y-132334000D03*
X97282000Y-132334000D03*
X137922000Y-65786000D03*
X160782000Y-132334000D03*
X122682000Y-132334000D03*
X203962000Y-132334000D03*
X206502000Y-132334000D03*
X125222000Y-132334000D03*
X92202000Y-132334000D03*
X87122000Y-65786000D03*
X143002000Y-65786000D03*
X59182000Y-65786000D03*
X69342000Y-132334000D03*
X155702000Y-65786000D03*
X99822000Y-65786000D03*
X173482000Y-65786000D03*
X107442000Y-65786000D03*
X125222000Y-65786000D03*
X153162000Y-65786000D03*
X165862000Y-132334000D03*
X188722000Y-132334000D03*
X104902000Y-132334000D03*
X94742000Y-65786000D03*
X71882000Y-132334000D03*
X145542000Y-132334000D03*
X71882000Y-65786000D03*
X122682000Y-65786000D03*
X112522000Y-65786000D03*
X181102000Y-65786000D03*
X102362000Y-132334000D03*
X209042000Y-132334000D03*
X163322000Y-65786000D03*
X61722000Y-65786000D03*
X150622000Y-132334000D03*
X206502000Y-65786000D03*
X109982000Y-65786000D03*
X193802000Y-132334000D03*
X94742000Y-132334000D03*
X92202000Y-65786000D03*
X120142000Y-132334000D03*
X97282000Y-65786000D03*
X176022000Y-65786000D03*
X109982000Y-132334000D03*
X173482000Y-132334000D03*
X84582000Y-132334000D03*
X135382000Y-65786000D03*
X143002000Y-132334000D03*
X130302000Y-65786000D03*
X211582000Y-65786000D03*
X153162000Y-132334000D03*
X181102000Y-132334000D03*
X115062000Y-132334000D03*
X117602000Y-65786000D03*
X61722000Y-132334000D03*
X203962000Y-65786000D03*
X66802000Y-65786000D03*
X214122000Y-65786000D03*
X69342000Y-65786000D03*
X186182000Y-132334000D03*
X148082000Y-65786000D03*
X160782000Y-65786000D03*
X209042000Y-65786000D03*
X76962000Y-65786000D03*
X158242000Y-132334000D03*
X135382000Y-132334000D03*
X168402000Y-65786000D03*
X112522000Y-132334000D03*
X104902000Y-65786000D03*
X107442000Y-132334000D03*
X76962000Y-132334000D03*
X201422000Y-65786000D03*
X140462000Y-132334000D03*
X132842000Y-132334000D03*
X120142000Y-65786000D03*
X191262000Y-65786000D03*
X148082000Y-132334000D03*
X183642000Y-132334000D03*
X74422000Y-65786000D03*
X79502000Y-132334000D03*
X216662000Y-132334000D03*
X89662000Y-132334000D03*
X132842000Y-65786000D03*
X201422000Y-132334000D03*
X165862000Y-65786000D03*
X211582000Y-132334000D03*
X82042000Y-132334000D03*
X219202000Y-132334000D03*
X158242000Y-65786000D03*
X64262000Y-65786000D03*
X102362000Y-65786000D03*
X186182000Y-65786000D03*
X170942000Y-65786000D03*
X168402000Y-132334000D03*
X196342000Y-132334000D03*
X191262000Y-132334000D03*
X84582000Y-65786000D03*
X74422000Y-132334000D03*
X115062000Y-65786000D03*
X64262000Y-132334000D03*
X176022000Y-132334000D03*
X188722000Y-65786000D03*
X178562000Y-65786000D03*
X145542000Y-65786000D03*
X183642000Y-65786000D03*
X214122000Y-132334000D03*
X130302000Y-132334000D03*
X198882000Y-132334000D03*
X79502000Y-65786000D03*
X99822000Y-132334000D03*
X219202000Y-65786000D03*
X82042000Y-65786000D03*
X127762000Y-132334000D03*
X59182000Y-93726000D03*
X59182000Y-121666000D03*
X59182000Y-83566000D03*
X59182000Y-98806000D03*
X59182000Y-81026000D03*
X59182000Y-91186000D03*
X59182000Y-88646000D03*
X59182000Y-119126000D03*
X59182000Y-124206000D03*
X59182000Y-108966000D03*
X59182000Y-106426000D03*
X59182000Y-111506000D03*
X59182000Y-114046000D03*
X59182000Y-96266000D03*
X59182000Y-86106000D03*
X59182000Y-116586000D03*
X61722000Y-93726000D03*
X61722000Y-83566000D03*
X61722000Y-88646000D03*
X61722000Y-116586000D03*
X61722000Y-81026000D03*
X61722000Y-86106000D03*
X61722000Y-91186000D03*
X61722000Y-119126000D03*
X61722000Y-106426000D03*
X61722000Y-111506000D03*
X61722000Y-96266000D03*
X61722000Y-114046000D03*
X61722000Y-124206000D03*
X61722000Y-121666000D03*
X61722000Y-108966000D03*
X61722000Y-98806000D03*
X64262000Y-81026000D03*
X64262000Y-86106000D03*
X64262000Y-116586000D03*
X64262000Y-83566000D03*
X64262000Y-114046000D03*
X64262000Y-93726000D03*
X64262000Y-108966000D03*
X64262000Y-119126000D03*
X64262000Y-121666000D03*
X64262000Y-88646000D03*
X64262000Y-96266000D03*
X64262000Y-98806000D03*
X64262000Y-111506000D03*
X64262000Y-124206000D03*
X64262000Y-106426000D03*
X64262000Y-91186000D03*
X66802000Y-124206000D03*
X66802000Y-119126000D03*
X66802000Y-93726000D03*
X66802000Y-111506000D03*
X66802000Y-108966000D03*
X66802000Y-83566000D03*
X66802000Y-114046000D03*
X66802000Y-91186000D03*
X66802000Y-81026000D03*
X66802000Y-106426000D03*
X66802000Y-98806000D03*
X66802000Y-121666000D03*
X66802000Y-86106000D03*
X66802000Y-88646000D03*
X66802000Y-96266000D03*
X66802000Y-116586000D03*
X69342000Y-96266000D03*
X69342000Y-81026000D03*
X69342000Y-124206000D03*
X69342000Y-116586000D03*
X69342000Y-91186000D03*
X69342000Y-93726000D03*
X69342000Y-106426000D03*
X69342000Y-108966000D03*
X69342000Y-121666000D03*
X69342000Y-98806000D03*
X69342000Y-88646000D03*
X69342000Y-111506000D03*
X69342000Y-83566000D03*
X69342000Y-86106000D03*
X69342000Y-114046000D03*
X69342000Y-119126000D03*
X165862000Y-139954000D03*
X74422000Y-73406000D03*
X170942000Y-73406000D03*
X61722000Y-139954000D03*
X66802000Y-73406000D03*
X71882000Y-73406000D03*
X219202000Y-73406000D03*
X112522000Y-73406000D03*
X214122000Y-139954000D03*
X127762000Y-73406000D03*
X59182000Y-73406000D03*
X99822000Y-73406000D03*
X112522000Y-139954000D03*
X107442000Y-139954000D03*
X104902000Y-73406000D03*
X104902000Y-139954000D03*
X66802000Y-139954000D03*
X64262000Y-139954000D03*
X173482000Y-73406000D03*
X99822000Y-139954000D03*
X214122000Y-73406000D03*
X168402000Y-139954000D03*
X196342000Y-139954000D03*
X127762000Y-139954000D03*
X193802000Y-139954000D03*
X132842000Y-139954000D03*
X92202000Y-73406000D03*
X155702000Y-139954000D03*
X74422000Y-139954000D03*
X122682000Y-139954000D03*
X94742000Y-139954000D03*
X188722000Y-139954000D03*
X102362000Y-73406000D03*
X203962000Y-139954000D03*
X173482000Y-139954000D03*
X183642000Y-73406000D03*
X135382000Y-73406000D03*
X158242000Y-139954000D03*
X209042000Y-139954000D03*
X140462000Y-73406000D03*
X143002000Y-73406000D03*
X130302000Y-139954000D03*
X206502000Y-139954000D03*
X107442000Y-73406000D03*
X145542000Y-73406000D03*
X82042000Y-73406000D03*
X163322000Y-139954000D03*
X79502000Y-139954000D03*
X201422000Y-139954000D03*
X120142000Y-73406000D03*
X109982000Y-73406000D03*
X145542000Y-139954000D03*
X125222000Y-73406000D03*
X158242000Y-73406000D03*
X219202000Y-139954000D03*
X115062000Y-73406000D03*
X69342000Y-73406000D03*
X120142000Y-139954000D03*
X211582000Y-139954000D03*
X178562000Y-139954000D03*
X137922000Y-73406000D03*
X211582000Y-73406000D03*
X76962000Y-73406000D03*
X191262000Y-139954000D03*
X183642000Y-139954000D03*
X186182000Y-139954000D03*
X181102000Y-139954000D03*
X117602000Y-139954000D03*
X115062000Y-139954000D03*
X97282000Y-139954000D03*
X122682000Y-73406000D03*
X89662000Y-73406000D03*
X176022000Y-139954000D03*
X69342000Y-139954000D03*
X84582000Y-139954000D03*
X168402000Y-73406000D03*
X150622000Y-139954000D03*
X148082000Y-73406000D03*
X137922000Y-139954000D03*
X155702000Y-73406000D03*
X135382000Y-139954000D03*
X125222000Y-139954000D03*
X150622000Y-73406000D03*
X71882000Y-139954000D03*
X64262000Y-73406000D03*
X163322000Y-73406000D03*
X59182000Y-139954000D03*
X82042000Y-139954000D03*
X130302000Y-73406000D03*
X89662000Y-139954000D03*
X160782000Y-73406000D03*
X109982000Y-139954000D03*
X76962000Y-139954000D03*
X203962000Y-73406000D03*
X148082000Y-139954000D03*
X216662000Y-139954000D03*
X140462000Y-139954000D03*
X153162000Y-139954000D03*
X216662000Y-73406000D03*
X87122000Y-139954000D03*
X170942000Y-139954000D03*
X84582000Y-73406000D03*
X181102000Y-73406000D03*
X153162000Y-73406000D03*
X186182000Y-73406000D03*
X61722000Y-73406000D03*
X79502000Y-73406000D03*
X198882000Y-73406000D03*
X206502000Y-73406000D03*
X92202000Y-139954000D03*
X191262000Y-73406000D03*
X176022000Y-73406000D03*
X102362000Y-139954000D03*
X188722000Y-73406000D03*
X87122000Y-73406000D03*
X178562000Y-73406000D03*
X97282000Y-73406000D03*
X198882000Y-139954000D03*
X143002000Y-139954000D03*
X160782000Y-139954000D03*
X209042000Y-73406000D03*
X193802000Y-73406000D03*
X94742000Y-73406000D03*
X165862000Y-73406000D03*
X196342000Y-73406000D03*
X117602000Y-73406000D03*
X132842000Y-73406000D03*
X201422000Y-73406000D03*
X71882000Y-96266000D03*
X71882000Y-106426000D03*
X71882000Y-111506000D03*
X71882000Y-83566000D03*
X71882000Y-114046000D03*
X71882000Y-93726000D03*
X71882000Y-121666000D03*
X71882000Y-91186000D03*
X71882000Y-119126000D03*
X71882000Y-86106000D03*
X71882000Y-108966000D03*
X71882000Y-88646000D03*
X71882000Y-116586000D03*
X71882000Y-81026000D03*
X71882000Y-124206000D03*
X71882000Y-98806000D03*
X74422000Y-124206000D03*
X74422000Y-108966000D03*
X74422000Y-93726000D03*
X74422000Y-83566000D03*
X74422000Y-98806000D03*
X74422000Y-119126000D03*
X74422000Y-91186000D03*
X74422000Y-81026000D03*
X74422000Y-86106000D03*
X74422000Y-111506000D03*
X74422000Y-88646000D03*
X74422000Y-114046000D03*
X74422000Y-96266000D03*
X74422000Y-116586000D03*
X74422000Y-121666000D03*
X74422000Y-106426000D03*
X76962000Y-93726000D03*
X76962000Y-86106000D03*
X76962000Y-108966000D03*
X76962000Y-106426000D03*
X76962000Y-121666000D03*
X76962000Y-124206000D03*
X76962000Y-114046000D03*
X76962000Y-98806000D03*
X76962000Y-81026000D03*
X76962000Y-96266000D03*
X76962000Y-116586000D03*
X76962000Y-83566000D03*
X76962000Y-111506000D03*
X76962000Y-119126000D03*
X76962000Y-88646000D03*
X76962000Y-91186000D03*
X79502000Y-114046000D03*
X79502000Y-116586000D03*
X79502000Y-91186000D03*
X79502000Y-98806000D03*
X79502000Y-86106000D03*
X79502000Y-111506000D03*
X79502000Y-81026000D03*
X79502000Y-108966000D03*
X79502000Y-83566000D03*
X79502000Y-88646000D03*
X79502000Y-119126000D03*
X79502000Y-121666000D03*
X79502000Y-93726000D03*
X79502000Y-124206000D03*
X79502000Y-106426000D03*
X79502000Y-96266000D03*
X82042000Y-106426000D03*
X82042000Y-88646000D03*
X82042000Y-119126000D03*
X82042000Y-81026000D03*
X82042000Y-124206000D03*
X82042000Y-114046000D03*
X82042000Y-111506000D03*
X82042000Y-98806000D03*
X82042000Y-83566000D03*
X82042000Y-93726000D03*
X82042000Y-108966000D03*
X82042000Y-96266000D03*
X82042000Y-121666000D03*
X82042000Y-91186000D03*
X82042000Y-86106000D03*
X82042000Y-116586000D03*
X84582000Y-111506000D03*
X84582000Y-88646000D03*
X84582000Y-81026000D03*
X84582000Y-98806000D03*
X84582000Y-121666000D03*
X84582000Y-86106000D03*
X84582000Y-106426000D03*
X84582000Y-119126000D03*
X84582000Y-93726000D03*
X84582000Y-83566000D03*
X84582000Y-124206000D03*
X84582000Y-116586000D03*
X84582000Y-114046000D03*
X84582000Y-96266000D03*
X84582000Y-91186000D03*
X84582000Y-108966000D03*
X87122000Y-96266000D03*
X87122000Y-91186000D03*
X87122000Y-83566000D03*
X87122000Y-98806000D03*
X87122000Y-106426000D03*
X87122000Y-116586000D03*
X87122000Y-108966000D03*
X87122000Y-81026000D03*
X87122000Y-111506000D03*
X87122000Y-86106000D03*
X87122000Y-114046000D03*
X87122000Y-119126000D03*
X87122000Y-121666000D03*
X87122000Y-124206000D03*
X87122000Y-88646000D03*
X87122000Y-93726000D03*
X211582000Y-137414000D03*
X64262000Y-137414000D03*
X117602000Y-137414000D03*
X109982000Y-70866000D03*
X104902000Y-70866000D03*
X107442000Y-137414000D03*
X99822000Y-70866000D03*
X214122000Y-70866000D03*
X117602000Y-70866000D03*
X186182000Y-137414000D03*
X170942000Y-70866000D03*
X115062000Y-137414000D03*
X94742000Y-137414000D03*
X143002000Y-70866000D03*
X127762000Y-137414000D03*
X181102000Y-70866000D03*
X137922000Y-70866000D03*
X188722000Y-70866000D03*
X92202000Y-137414000D03*
X150622000Y-137414000D03*
X153162000Y-70866000D03*
X59182000Y-70866000D03*
X168402000Y-70866000D03*
X69342000Y-70866000D03*
X102362000Y-137414000D03*
X181102000Y-137414000D03*
X163322000Y-70866000D03*
X120142000Y-137414000D03*
X79502000Y-70866000D03*
X160782000Y-70866000D03*
X122682000Y-137414000D03*
X191262000Y-70866000D03*
X71882000Y-137414000D03*
X92202000Y-70866000D03*
X193802000Y-137414000D03*
X155702000Y-137414000D03*
X183642000Y-137414000D03*
X153162000Y-137414000D03*
X97282000Y-137414000D03*
X112522000Y-70866000D03*
X66802000Y-137414000D03*
X82042000Y-70866000D03*
X74422000Y-70866000D03*
X61722000Y-137414000D03*
X143002000Y-137414000D03*
X87122000Y-137414000D03*
X87122000Y-70866000D03*
X203962000Y-137414000D03*
X115062000Y-70866000D03*
X112522000Y-137414000D03*
X84582000Y-70866000D03*
X219202000Y-70866000D03*
X206502000Y-70866000D03*
X94742000Y-70866000D03*
X122682000Y-70866000D03*
X188722000Y-137414000D03*
X120142000Y-70866000D03*
X125222000Y-70866000D03*
X173482000Y-70866000D03*
X201422000Y-137414000D03*
X104902000Y-137414000D03*
X201422000Y-70866000D03*
X196342000Y-137414000D03*
X219202000Y-137414000D03*
X216662000Y-137414000D03*
X198882000Y-70866000D03*
X148082000Y-137414000D03*
X135382000Y-70866000D03*
X211582000Y-70866000D03*
X102362000Y-70866000D03*
X214122000Y-137414000D03*
X130302000Y-137414000D03*
X183642000Y-70866000D03*
X209042000Y-70866000D03*
X97282000Y-70866000D03*
X150622000Y-70866000D03*
X163322000Y-137414000D03*
X64262000Y-70866000D03*
X89662000Y-70866000D03*
X176022000Y-70866000D03*
X145542000Y-70866000D03*
X109982000Y-137414000D03*
X203962000Y-70866000D03*
X165862000Y-70866000D03*
X206502000Y-137414000D03*
X155702000Y-70866000D03*
X170942000Y-137414000D03*
X196342000Y-70866000D03*
X193802000Y-70866000D03*
X127762000Y-70866000D03*
X84582000Y-137414000D03*
X216662000Y-70866000D03*
X132842000Y-70866000D03*
X176022000Y-137414000D03*
X82042000Y-137414000D03*
X209042000Y-137414000D03*
X168402000Y-137414000D03*
X186182000Y-70866000D03*
X137922000Y-137414000D03*
X125222000Y-137414000D03*
X59182000Y-137414000D03*
X107442000Y-70866000D03*
X160782000Y-137414000D03*
X178562000Y-137414000D03*
X130302000Y-70866000D03*
X71882000Y-70866000D03*
X69342000Y-137414000D03*
X178562000Y-70866000D03*
X140462000Y-137414000D03*
X61722000Y-70866000D03*
X158242000Y-137414000D03*
X173482000Y-137414000D03*
X89662000Y-137414000D03*
X132842000Y-137414000D03*
X99822000Y-137414000D03*
X165862000Y-137414000D03*
X145542000Y-137414000D03*
X140462000Y-70866000D03*
X74422000Y-137414000D03*
X76962000Y-70866000D03*
X198882000Y-137414000D03*
X79502000Y-137414000D03*
X148082000Y-70866000D03*
X135382000Y-137414000D03*
X66802000Y-70866000D03*
X76962000Y-137414000D03*
X191262000Y-137414000D03*
X158242000Y-70866000D03*
X89662000Y-91186000D03*
X89662000Y-124206000D03*
X89662000Y-81026000D03*
X89662000Y-86106000D03*
X89662000Y-83566000D03*
X89662000Y-93726000D03*
X89662000Y-106426000D03*
X89662000Y-111506000D03*
X89662000Y-108966000D03*
X89662000Y-88646000D03*
X89662000Y-119126000D03*
X89662000Y-96266000D03*
X89662000Y-98806000D03*
X89662000Y-116586000D03*
X89662000Y-114046000D03*
X89662000Y-121666000D03*
X92202000Y-83566000D03*
X92202000Y-124206000D03*
X92202000Y-111506000D03*
X92202000Y-96266000D03*
X92202000Y-116586000D03*
X92202000Y-93726000D03*
X92202000Y-86106000D03*
X92202000Y-81026000D03*
X92202000Y-98806000D03*
X92202000Y-88646000D03*
X92202000Y-119126000D03*
X92202000Y-114046000D03*
X92202000Y-91186000D03*
X92202000Y-106426000D03*
X92202000Y-121666000D03*
X92202000Y-108966000D03*
X94742000Y-91186000D03*
X94742000Y-81026000D03*
X94742000Y-108966000D03*
X94742000Y-106426000D03*
X94742000Y-88646000D03*
X94742000Y-114046000D03*
X94742000Y-124206000D03*
X94742000Y-111506000D03*
X94742000Y-121666000D03*
X94742000Y-116586000D03*
X94742000Y-86106000D03*
X94742000Y-119126000D03*
X94742000Y-98806000D03*
X94742000Y-96266000D03*
X94742000Y-93726000D03*
X94742000Y-83566000D03*
X97282000Y-93726000D03*
X97282000Y-96266000D03*
X97282000Y-88646000D03*
X97282000Y-91186000D03*
X97282000Y-121666000D03*
X97282000Y-111506000D03*
X97282000Y-119126000D03*
X97282000Y-124206000D03*
X97282000Y-83566000D03*
X97282000Y-86106000D03*
X97282000Y-106426000D03*
X97282000Y-108966000D03*
X97282000Y-98806000D03*
X97282000Y-116586000D03*
X97282000Y-81026000D03*
X97282000Y-114046000D03*
X99822000Y-93726000D03*
X99822000Y-98806000D03*
X99822000Y-96266000D03*
X99822000Y-121666000D03*
X99822000Y-86106000D03*
X99822000Y-124206000D03*
X99822000Y-81026000D03*
X99822000Y-83566000D03*
X99822000Y-111506000D03*
X99822000Y-116586000D03*
X99822000Y-114046000D03*
X99822000Y-108966000D03*
X99822000Y-106426000D03*
X99822000Y-119126000D03*
X99822000Y-91186000D03*
X99822000Y-88646000D03*
X102362000Y-111506000D03*
X102362000Y-98806000D03*
X102362000Y-83566000D03*
X102362000Y-119126000D03*
X102362000Y-121666000D03*
X102362000Y-93726000D03*
X102362000Y-91186000D03*
X102362000Y-86106000D03*
X102362000Y-106426000D03*
X102362000Y-88646000D03*
X102362000Y-116586000D03*
X102362000Y-114046000D03*
X102362000Y-108966000D03*
X102362000Y-96266000D03*
X102362000Y-124206000D03*
X102362000Y-81026000D03*
X104902000Y-83566000D03*
X104902000Y-91186000D03*
X104902000Y-111506000D03*
X104902000Y-124206000D03*
X104902000Y-86106000D03*
X104902000Y-96266000D03*
X104902000Y-98806000D03*
X104902000Y-114046000D03*
X104902000Y-108966000D03*
X104902000Y-119126000D03*
X104902000Y-81026000D03*
X104902000Y-116586000D03*
X104902000Y-106426000D03*
X104902000Y-93726000D03*
X104902000Y-121666000D03*
X104902000Y-88646000D03*
X107442000Y-98806000D03*
X107442000Y-81026000D03*
X107442000Y-111506000D03*
X107442000Y-106426000D03*
X107442000Y-86106000D03*
X107442000Y-88646000D03*
X107442000Y-119126000D03*
X107442000Y-108966000D03*
X107442000Y-93726000D03*
X107442000Y-91186000D03*
X107442000Y-121666000D03*
X107442000Y-124206000D03*
X107442000Y-116586000D03*
X107442000Y-114046000D03*
X107442000Y-83566000D03*
X107442000Y-96266000D03*
X109982000Y-106426000D03*
X109982000Y-119126000D03*
X109982000Y-111506000D03*
X109982000Y-121666000D03*
X109982000Y-124206000D03*
X109982000Y-96266000D03*
X109982000Y-108966000D03*
X109982000Y-98806000D03*
X109982000Y-81026000D03*
X109982000Y-88646000D03*
X109982000Y-83566000D03*
X109982000Y-114046000D03*
X109982000Y-91186000D03*
X109982000Y-93726000D03*
X109982000Y-86106000D03*
X109982000Y-116586000D03*
X112522000Y-93726000D03*
X112522000Y-96266000D03*
X112522000Y-98806000D03*
X112522000Y-121666000D03*
X112522000Y-111506000D03*
X112522000Y-124206000D03*
X112522000Y-116586000D03*
X112522000Y-91186000D03*
X112522000Y-86106000D03*
X112522000Y-114046000D03*
X112522000Y-81026000D03*
X112522000Y-108966000D03*
X112522000Y-88646000D03*
X112522000Y-119126000D03*
X112522000Y-83566000D03*
X112522000Y-106426000D03*
X115062000Y-98806000D03*
X115062000Y-83566000D03*
X115062000Y-119126000D03*
X115062000Y-81026000D03*
X115062000Y-111506000D03*
X115062000Y-108966000D03*
X115062000Y-114046000D03*
X115062000Y-96266000D03*
X115062000Y-93726000D03*
X115062000Y-121666000D03*
X115062000Y-116586000D03*
X115062000Y-91186000D03*
X115062000Y-88646000D03*
X115062000Y-106426000D03*
X115062000Y-86106000D03*
X115062000Y-124206000D03*
X117602000Y-121666000D03*
X117602000Y-88646000D03*
X117602000Y-83566000D03*
X117602000Y-96266000D03*
X117602000Y-86106000D03*
X117602000Y-98806000D03*
X117602000Y-124206000D03*
X117602000Y-81026000D03*
X117602000Y-119126000D03*
X117602000Y-111506000D03*
X117602000Y-106426000D03*
X117602000Y-91186000D03*
X117602000Y-116586000D03*
X117602000Y-93726000D03*
X117602000Y-114046000D03*
X117602000Y-108966000D03*
X120142000Y-98806000D03*
X120142000Y-91186000D03*
X120142000Y-121666000D03*
X120142000Y-106426000D03*
X120142000Y-93726000D03*
X120142000Y-111506000D03*
X120142000Y-88646000D03*
X120142000Y-83566000D03*
X120142000Y-81026000D03*
X120142000Y-108966000D03*
X120142000Y-96266000D03*
X120142000Y-116586000D03*
X120142000Y-124206000D03*
X120142000Y-119126000D03*
X120142000Y-86106000D03*
X120142000Y-114046000D03*
X122682000Y-114046000D03*
X122682000Y-116586000D03*
X122682000Y-96266000D03*
X122682000Y-88646000D03*
X122682000Y-119126000D03*
X122682000Y-121666000D03*
X122682000Y-91186000D03*
X122682000Y-93726000D03*
X122682000Y-124206000D03*
X122682000Y-83566000D03*
X122682000Y-98806000D03*
X122682000Y-106426000D03*
X122682000Y-111506000D03*
X122682000Y-108966000D03*
X122682000Y-81026000D03*
X122682000Y-86106000D03*
X125222000Y-108966000D03*
X125222000Y-124206000D03*
X125222000Y-93726000D03*
X125222000Y-106426000D03*
X125222000Y-98806000D03*
X125222000Y-121666000D03*
X125222000Y-91186000D03*
X125222000Y-88646000D03*
X125222000Y-86106000D03*
X125222000Y-116586000D03*
X125222000Y-83566000D03*
X125222000Y-114046000D03*
X125222000Y-111506000D03*
X125222000Y-119126000D03*
X125222000Y-96266000D03*
X125222000Y-81026000D03*
X127762000Y-119126000D03*
X127762000Y-83566000D03*
X127762000Y-93726000D03*
X127762000Y-108966000D03*
X127762000Y-111506000D03*
X127762000Y-124206000D03*
X127762000Y-116586000D03*
X127762000Y-98806000D03*
X127762000Y-88646000D03*
X127762000Y-96266000D03*
X127762000Y-121666000D03*
X127762000Y-114046000D03*
X127762000Y-106426000D03*
X127762000Y-81026000D03*
X127762000Y-86106000D03*
X127762000Y-91186000D03*
X130302000Y-91186000D03*
X130302000Y-119126000D03*
X130302000Y-93726000D03*
X130302000Y-81026000D03*
X130302000Y-98806000D03*
X130302000Y-111506000D03*
X130302000Y-114046000D03*
X130302000Y-121666000D03*
X130302000Y-86106000D03*
X130302000Y-108966000D03*
X130302000Y-116586000D03*
X130302000Y-96266000D03*
X130302000Y-88646000D03*
X130302000Y-124206000D03*
X130302000Y-106426000D03*
X130302000Y-83566000D03*
X132842000Y-114046000D03*
X132842000Y-96266000D03*
X132842000Y-124206000D03*
X132842000Y-88646000D03*
X132842000Y-121666000D03*
X132842000Y-108966000D03*
X132842000Y-91186000D03*
X132842000Y-119126000D03*
X132842000Y-81026000D03*
X132842000Y-83566000D03*
X132842000Y-86106000D03*
X132842000Y-98806000D03*
X132842000Y-111506000D03*
X132842000Y-116586000D03*
X132842000Y-106426000D03*
X132842000Y-93726000D03*
X135382000Y-111506000D03*
X135382000Y-88646000D03*
X135382000Y-83566000D03*
X135382000Y-121666000D03*
X135382000Y-106426000D03*
X135382000Y-91186000D03*
X135382000Y-98806000D03*
X135382000Y-86106000D03*
X135382000Y-116586000D03*
X135382000Y-119126000D03*
X135382000Y-108966000D03*
X135382000Y-114046000D03*
X135382000Y-124206000D03*
X135382000Y-81026000D03*
X135382000Y-93726000D03*
X135382000Y-96266000D03*
X137922000Y-81026000D03*
X137922000Y-93726000D03*
X137922000Y-119126000D03*
X137922000Y-114046000D03*
X137922000Y-88646000D03*
X137922000Y-96266000D03*
X137922000Y-116586000D03*
X137922000Y-98806000D03*
X137922000Y-111506000D03*
X137922000Y-121666000D03*
X137922000Y-91186000D03*
X137922000Y-124206000D03*
X137922000Y-83566000D03*
X137922000Y-108966000D03*
X137922000Y-86106000D03*
X137922000Y-106426000D03*
X140462000Y-81026000D03*
X140462000Y-96266000D03*
X140462000Y-114046000D03*
X140462000Y-121666000D03*
X140462000Y-86106000D03*
X140462000Y-88646000D03*
X140462000Y-108966000D03*
X140462000Y-119126000D03*
X140462000Y-93726000D03*
X140462000Y-98806000D03*
X140462000Y-124206000D03*
X140462000Y-116586000D03*
X140462000Y-91186000D03*
X140462000Y-106426000D03*
X140462000Y-111506000D03*
X140462000Y-83566000D03*
X143002000Y-121666000D03*
X143002000Y-111506000D03*
X143002000Y-86106000D03*
X143002000Y-83566000D03*
X143002000Y-93726000D03*
X143002000Y-119126000D03*
X143002000Y-96266000D03*
X143002000Y-116586000D03*
X143002000Y-114046000D03*
X143002000Y-124206000D03*
X143002000Y-108966000D03*
X143002000Y-91186000D03*
X143002000Y-88646000D03*
X143002000Y-98806000D03*
X143002000Y-106426000D03*
X143002000Y-81026000D03*
X145542000Y-91186000D03*
X145542000Y-88646000D03*
X145542000Y-121666000D03*
X145542000Y-119126000D03*
X145542000Y-106426000D03*
X145542000Y-83566000D03*
X145542000Y-86106000D03*
X145542000Y-96266000D03*
X145542000Y-93726000D03*
X145542000Y-124206000D03*
X145542000Y-116586000D03*
X145542000Y-98806000D03*
X145542000Y-81026000D03*
X145542000Y-111506000D03*
X145542000Y-114046000D03*
X145542000Y-108966000D03*
X148082000Y-86106000D03*
X148082000Y-121666000D03*
X148082000Y-81026000D03*
X148082000Y-91186000D03*
X148082000Y-96266000D03*
X148082000Y-98806000D03*
X148082000Y-116586000D03*
X148082000Y-83566000D03*
X148082000Y-88646000D03*
X148082000Y-106426000D03*
X148082000Y-124206000D03*
X148082000Y-93726000D03*
X148082000Y-114046000D03*
X148082000Y-108966000D03*
X148082000Y-111506000D03*
X148082000Y-119126000D03*
X150622000Y-111506000D03*
X150622000Y-114046000D03*
X150622000Y-83566000D03*
X150622000Y-81026000D03*
X150622000Y-91186000D03*
X150622000Y-88646000D03*
X150622000Y-96266000D03*
X150622000Y-121666000D03*
X150622000Y-106426000D03*
X150622000Y-119126000D03*
X150622000Y-124206000D03*
X150622000Y-93726000D03*
X150622000Y-116586000D03*
X150622000Y-86106000D03*
X150622000Y-108966000D03*
X150622000Y-98806000D03*
X153162000Y-83566000D03*
X153162000Y-91186000D03*
X153162000Y-88646000D03*
X153162000Y-114046000D03*
X153162000Y-98806000D03*
X153162000Y-119126000D03*
X153162000Y-111506000D03*
X153162000Y-108966000D03*
X153162000Y-93726000D03*
X153162000Y-86106000D03*
X153162000Y-81026000D03*
X153162000Y-121666000D03*
X153162000Y-116586000D03*
X153162000Y-96266000D03*
X153162000Y-106426000D03*
X153162000Y-124206000D03*
X155702000Y-124206000D03*
X155702000Y-81026000D03*
X155702000Y-111506000D03*
X155702000Y-88646000D03*
X155702000Y-106426000D03*
X155702000Y-108966000D03*
X155702000Y-96266000D03*
X155702000Y-114046000D03*
X155702000Y-98806000D03*
X155702000Y-93726000D03*
X155702000Y-119126000D03*
X155702000Y-116586000D03*
X155702000Y-91186000D03*
X155702000Y-86106000D03*
X155702000Y-83566000D03*
X155702000Y-121666000D03*
X158242000Y-81026000D03*
X158242000Y-124206000D03*
X158242000Y-114046000D03*
X158242000Y-106426000D03*
X158242000Y-108966000D03*
X158242000Y-98806000D03*
X158242000Y-86106000D03*
X158242000Y-88646000D03*
X158242000Y-96266000D03*
X158242000Y-121666000D03*
X158242000Y-83566000D03*
X158242000Y-91186000D03*
X158242000Y-119126000D03*
X158242000Y-116586000D03*
X158242000Y-111506000D03*
X158242000Y-93726000D03*
X160782000Y-81026000D03*
X160782000Y-88646000D03*
X160782000Y-114046000D03*
X160782000Y-119126000D03*
X160782000Y-86106000D03*
X160782000Y-121666000D03*
X160782000Y-111506000D03*
X160782000Y-83566000D03*
X160782000Y-98806000D03*
X160782000Y-96266000D03*
X160782000Y-124206000D03*
X160782000Y-108966000D03*
X160782000Y-106426000D03*
X160782000Y-93726000D03*
X160782000Y-91186000D03*
X160782000Y-116586000D03*
X163322000Y-91186000D03*
X163322000Y-81026000D03*
X163322000Y-121666000D03*
X163322000Y-124206000D03*
X163322000Y-88646000D03*
X163322000Y-114046000D03*
X163322000Y-98806000D03*
X163322000Y-96266000D03*
X163322000Y-93726000D03*
X163322000Y-83566000D03*
X163322000Y-108966000D03*
X163322000Y-86106000D03*
X163322000Y-119126000D03*
X163322000Y-116586000D03*
X163322000Y-111506000D03*
X163322000Y-106426000D03*
X165862000Y-114046000D03*
X165862000Y-111506000D03*
X165862000Y-116586000D03*
X165862000Y-91186000D03*
X165862000Y-93726000D03*
X165862000Y-108966000D03*
X165862000Y-119126000D03*
X165862000Y-83566000D03*
X165862000Y-88646000D03*
X165862000Y-86106000D03*
X165862000Y-121666000D03*
X165862000Y-106426000D03*
X165862000Y-96266000D03*
X165862000Y-98806000D03*
X165862000Y-124206000D03*
X165862000Y-81026000D03*
X168402000Y-98806000D03*
X168402000Y-86106000D03*
X168402000Y-91186000D03*
X168402000Y-106426000D03*
X168402000Y-114046000D03*
X168402000Y-111506000D03*
X168402000Y-81026000D03*
X168402000Y-96266000D03*
X168402000Y-124206000D03*
X168402000Y-88646000D03*
X168402000Y-108966000D03*
X168402000Y-119126000D03*
X168402000Y-93726000D03*
X168402000Y-83566000D03*
X168402000Y-121666000D03*
X168402000Y-116586000D03*
X170942000Y-106426000D03*
X170942000Y-96266000D03*
X170942000Y-86106000D03*
X170942000Y-124206000D03*
X170942000Y-114046000D03*
X170942000Y-116586000D03*
X170942000Y-119126000D03*
X170942000Y-93726000D03*
X170942000Y-121666000D03*
X170942000Y-88646000D03*
X170942000Y-111506000D03*
X170942000Y-91186000D03*
X170942000Y-83566000D03*
X170942000Y-108966000D03*
X170942000Y-81026000D03*
X170942000Y-98806000D03*
X173482000Y-116586000D03*
X173482000Y-81026000D03*
X173482000Y-106426000D03*
X173482000Y-96266000D03*
X173482000Y-111506000D03*
X173482000Y-83566000D03*
X173482000Y-91186000D03*
X173482000Y-108966000D03*
X173482000Y-119126000D03*
X173482000Y-124206000D03*
X173482000Y-114046000D03*
X173482000Y-86106000D03*
X173482000Y-121666000D03*
X173482000Y-98806000D03*
X173482000Y-88646000D03*
X173482000Y-93726000D03*
X176022000Y-108966000D03*
X176022000Y-96266000D03*
X176022000Y-81026000D03*
X176022000Y-116586000D03*
X176022000Y-86106000D03*
X176022000Y-114046000D03*
X176022000Y-88646000D03*
X176022000Y-121666000D03*
X176022000Y-93726000D03*
X176022000Y-124206000D03*
X176022000Y-119126000D03*
X176022000Y-106426000D03*
X176022000Y-98806000D03*
X176022000Y-111506000D03*
X176022000Y-83566000D03*
X176022000Y-91186000D03*
X178562000Y-108966000D03*
X178562000Y-91186000D03*
X178562000Y-121666000D03*
X178562000Y-96266000D03*
X178562000Y-88646000D03*
X178562000Y-81026000D03*
X178562000Y-83566000D03*
X178562000Y-114046000D03*
X178562000Y-124206000D03*
X178562000Y-106426000D03*
X178562000Y-116586000D03*
X178562000Y-86106000D03*
X178562000Y-119126000D03*
X178562000Y-98806000D03*
X178562000Y-93726000D03*
X178562000Y-111506000D03*
X181102000Y-88646000D03*
X181102000Y-116586000D03*
X181102000Y-93726000D03*
X181102000Y-81026000D03*
X181102000Y-106426000D03*
X181102000Y-124206000D03*
X181102000Y-86106000D03*
X181102000Y-114046000D03*
X181102000Y-108966000D03*
X181102000Y-111506000D03*
X181102000Y-98806000D03*
X181102000Y-121666000D03*
X181102000Y-83566000D03*
X181102000Y-96266000D03*
X181102000Y-91186000D03*
X181102000Y-119126000D03*
X183642000Y-106426000D03*
X183642000Y-81026000D03*
X183642000Y-119126000D03*
X183642000Y-86106000D03*
X183642000Y-88646000D03*
X183642000Y-124206000D03*
X183642000Y-114046000D03*
X183642000Y-111506000D03*
X183642000Y-91186000D03*
X183642000Y-116586000D03*
X183642000Y-108966000D03*
X183642000Y-98806000D03*
X183642000Y-96266000D03*
X183642000Y-121666000D03*
X183642000Y-83566000D03*
X183642000Y-93726000D03*
X186182000Y-86106000D03*
X186182000Y-106426000D03*
X186182000Y-111506000D03*
X186182000Y-91186000D03*
X186182000Y-88646000D03*
X186182000Y-98806000D03*
X186182000Y-108966000D03*
X186182000Y-124206000D03*
X186182000Y-119126000D03*
X186182000Y-121666000D03*
X186182000Y-93726000D03*
X186182000Y-114046000D03*
X186182000Y-81026000D03*
X186182000Y-96266000D03*
X186182000Y-116586000D03*
X186182000Y-83566000D03*
X188722000Y-124206000D03*
X188722000Y-116586000D03*
X188722000Y-106426000D03*
X188722000Y-114046000D03*
X188722000Y-83566000D03*
X188722000Y-93726000D03*
X188722000Y-108966000D03*
X188722000Y-111506000D03*
X188722000Y-121666000D03*
X188722000Y-96266000D03*
X188722000Y-91186000D03*
X188722000Y-81026000D03*
X188722000Y-88646000D03*
X188722000Y-119126000D03*
X188722000Y-98806000D03*
X188722000Y-86106000D03*
X191262000Y-93726000D03*
X191262000Y-121666000D03*
X191262000Y-83566000D03*
X191262000Y-116586000D03*
X191262000Y-91186000D03*
X191262000Y-119126000D03*
X191262000Y-124206000D03*
X191262000Y-98806000D03*
X191262000Y-106426000D03*
X191262000Y-81026000D03*
X191262000Y-96266000D03*
X191262000Y-86106000D03*
X191262000Y-111506000D03*
X191262000Y-88646000D03*
X191262000Y-108966000D03*
X191262000Y-114046000D03*
X193802000Y-86106000D03*
X193802000Y-91186000D03*
X193802000Y-119126000D03*
X193802000Y-108966000D03*
X193802000Y-106426000D03*
X193802000Y-83566000D03*
X193802000Y-98806000D03*
X193802000Y-116586000D03*
X193802000Y-111506000D03*
X193802000Y-96266000D03*
X193802000Y-93726000D03*
X193802000Y-121666000D03*
X193802000Y-114046000D03*
X193802000Y-124206000D03*
X193802000Y-81026000D03*
X193802000Y-88646000D03*
X196342000Y-111506000D03*
X196342000Y-119126000D03*
X196342000Y-93726000D03*
X196342000Y-91186000D03*
X196342000Y-96266000D03*
X196342000Y-106426000D03*
X196342000Y-83566000D03*
X196342000Y-114046000D03*
X196342000Y-116586000D03*
X196342000Y-98806000D03*
X196342000Y-124206000D03*
X196342000Y-121666000D03*
X196342000Y-108966000D03*
X196342000Y-81026000D03*
X196342000Y-86106000D03*
X196342000Y-88646000D03*
X198882000Y-96266000D03*
X198882000Y-86106000D03*
X198882000Y-81026000D03*
X198882000Y-111506000D03*
X198882000Y-114046000D03*
X198882000Y-88646000D03*
X198882000Y-116586000D03*
X198882000Y-106426000D03*
X198882000Y-121666000D03*
X198882000Y-91186000D03*
X198882000Y-124206000D03*
X198882000Y-83566000D03*
X198882000Y-119126000D03*
X198882000Y-108966000D03*
X198882000Y-93726000D03*
X198882000Y-98806000D03*
X201422000Y-88646000D03*
X201422000Y-98806000D03*
X201422000Y-93726000D03*
X201422000Y-124206000D03*
X201422000Y-83566000D03*
X201422000Y-106426000D03*
X201422000Y-91186000D03*
X201422000Y-96266000D03*
X201422000Y-121666000D03*
X201422000Y-119126000D03*
X201422000Y-81026000D03*
X201422000Y-86106000D03*
X201422000Y-114046000D03*
X201422000Y-111506000D03*
X201422000Y-116586000D03*
X201422000Y-108966000D03*
X203962000Y-93726000D03*
X203962000Y-88646000D03*
X203962000Y-98806000D03*
X203962000Y-86106000D03*
X203962000Y-91186000D03*
X203962000Y-116586000D03*
X203962000Y-119126000D03*
X203962000Y-111506000D03*
X203962000Y-114046000D03*
X203962000Y-96266000D03*
X203962000Y-106426000D03*
X203962000Y-108966000D03*
X203962000Y-121666000D03*
X203962000Y-124206000D03*
X203962000Y-81026000D03*
X203962000Y-83566000D03*
X206502000Y-124206000D03*
X206502000Y-116586000D03*
X206502000Y-106426000D03*
X206502000Y-119126000D03*
X206502000Y-81026000D03*
X206502000Y-121666000D03*
X206502000Y-111506000D03*
X206502000Y-83566000D03*
X206502000Y-88646000D03*
X206502000Y-96266000D03*
X206502000Y-86106000D03*
X206502000Y-98806000D03*
X206502000Y-108966000D03*
X206502000Y-114046000D03*
X206502000Y-91186000D03*
X206502000Y-93726000D03*
X209042000Y-98806000D03*
X209042000Y-114046000D03*
X209042000Y-88646000D03*
X209042000Y-108966000D03*
X209042000Y-96266000D03*
X209042000Y-119126000D03*
X209042000Y-121666000D03*
X209042000Y-124206000D03*
X209042000Y-106426000D03*
X209042000Y-91186000D03*
X209042000Y-93726000D03*
X209042000Y-111506000D03*
X209042000Y-86106000D03*
X209042000Y-81026000D03*
X209042000Y-116586000D03*
X209042000Y-83566000D03*
X211582000Y-124206000D03*
X211582000Y-86106000D03*
X211582000Y-98806000D03*
X211582000Y-114046000D03*
X211582000Y-91186000D03*
X211582000Y-116586000D03*
X211582000Y-81026000D03*
X211582000Y-119126000D03*
X211582000Y-88646000D03*
X211582000Y-108966000D03*
X211582000Y-121666000D03*
X211582000Y-93726000D03*
X211582000Y-96266000D03*
X211582000Y-106426000D03*
X211582000Y-111506000D03*
X211582000Y-83566000D03*
X214122000Y-93726000D03*
X214122000Y-114046000D03*
X214122000Y-91186000D03*
X214122000Y-96266000D03*
X214122000Y-119126000D03*
X214122000Y-111506000D03*
X214122000Y-86106000D03*
X214122000Y-81026000D03*
X214122000Y-106426000D03*
X214122000Y-116586000D03*
X214122000Y-98806000D03*
X214122000Y-83566000D03*
X214122000Y-121666000D03*
X214122000Y-88646000D03*
X214122000Y-124206000D03*
X214122000Y-108966000D03*
X216662000Y-98806000D03*
X216662000Y-81026000D03*
X216662000Y-86106000D03*
X216662000Y-111506000D03*
X216662000Y-96266000D03*
X216662000Y-108966000D03*
X216662000Y-93726000D03*
X216662000Y-106426000D03*
X216662000Y-116586000D03*
X216662000Y-88646000D03*
X216662000Y-114046000D03*
X216662000Y-124206000D03*
X216662000Y-121666000D03*
X216662000Y-119126000D03*
X216662000Y-91186000D03*
X216662000Y-83566000D03*
X219202000Y-116586000D03*
X219202000Y-119126000D03*
X219202000Y-93726000D03*
X219202000Y-96266000D03*
X219202000Y-98806000D03*
X219202000Y-124206000D03*
X219202000Y-106426000D03*
X219202000Y-88646000D03*
X219202000Y-121666000D03*
X219202000Y-91186000D03*
X219202000Y-83566000D03*
X219202000Y-108966000D03*
X219202000Y-86106000D03*
X219202000Y-111506000D03*
X219202000Y-114046000D03*
X219202000Y-81026000D03*
D16*
X160782000Y-68326000D03*
X148082000Y-134874000D03*
X127762000Y-68326000D03*
X130302000Y-68326000D03*
X135382000Y-68326000D03*
X176022000Y-134874000D03*
X216662000Y-134874000D03*
X112522000Y-134874000D03*
X74422000Y-68326000D03*
X99822000Y-68326000D03*
X188722000Y-68326000D03*
X191262000Y-134874000D03*
X209042000Y-134874000D03*
X150622000Y-68326000D03*
X150622000Y-134874000D03*
X102362000Y-134874000D03*
X206502000Y-68326000D03*
X216662000Y-68326000D03*
X168402000Y-134874000D03*
X84582000Y-134874000D03*
X59182000Y-68326000D03*
X201422000Y-134874000D03*
X115062000Y-134874000D03*
X87122000Y-68326000D03*
X109982000Y-134874000D03*
X137922000Y-134874000D03*
X209042000Y-68326000D03*
X176022000Y-68326000D03*
X188722000Y-134874000D03*
X214122000Y-68326000D03*
X61722000Y-68326000D03*
X145542000Y-68326000D03*
X71882000Y-68326000D03*
X158242000Y-68326000D03*
X120142000Y-68326000D03*
X89662000Y-68326000D03*
X178562000Y-68326000D03*
X102362000Y-68326000D03*
X183642000Y-68326000D03*
X193802000Y-68326000D03*
X84582000Y-68326000D03*
X148082000Y-68326000D03*
X87122000Y-134874000D03*
X155702000Y-134874000D03*
X140462000Y-68326000D03*
X178562000Y-134874000D03*
X66802000Y-134874000D03*
X198882000Y-134874000D03*
X74422000Y-134874000D03*
X168402000Y-68326000D03*
X64262000Y-68326000D03*
X89662000Y-134874000D03*
X155702000Y-68326000D03*
X117602000Y-134874000D03*
X181102000Y-134874000D03*
X198882000Y-68326000D03*
X145542000Y-134874000D03*
X183642000Y-134874000D03*
X140462000Y-134874000D03*
X132842000Y-68326000D03*
X92202000Y-68326000D03*
X66802000Y-68326000D03*
X214122000Y-134874000D03*
X64262000Y-134874000D03*
X201422000Y-68326000D03*
X163322000Y-134874000D03*
X104902000Y-134874000D03*
X122682000Y-134874000D03*
X135382000Y-134874000D03*
X203962000Y-68326000D03*
X163322000Y-68326000D03*
X158242000Y-134874000D03*
X99822000Y-134874000D03*
X186182000Y-134874000D03*
X196342000Y-134874000D03*
X79502000Y-134874000D03*
X79502000Y-68326000D03*
X127762000Y-134874000D03*
X143002000Y-134874000D03*
X76962000Y-134874000D03*
X130302000Y-134874000D03*
X112522000Y-68326000D03*
X132842000Y-134874000D03*
X160782000Y-134874000D03*
X82042000Y-68326000D03*
X165862000Y-134874000D03*
X170942000Y-68326000D03*
X125222000Y-68326000D03*
X104902000Y-68326000D03*
X170942000Y-134874000D03*
X122682000Y-68326000D03*
X206502000Y-134874000D03*
X94742000Y-134874000D03*
X107442000Y-134874000D03*
X143002000Y-68326000D03*
X115062000Y-68326000D03*
X211582000Y-134874000D03*
X203962000Y-134874000D03*
X92202000Y-134874000D03*
X71882000Y-134874000D03*
X61722000Y-134874000D03*
X137922000Y-68326000D03*
X82042000Y-134874000D03*
X125222000Y-134874000D03*
X165862000Y-68326000D03*
X117602000Y-68326000D03*
X191262000Y-68326000D03*
X153162000Y-68326000D03*
X107442000Y-68326000D03*
X181102000Y-68326000D03*
X59182000Y-134874000D03*
X153162000Y-134874000D03*
X219202000Y-68326000D03*
X120142000Y-134874000D03*
X211582000Y-68326000D03*
X186182000Y-68326000D03*
X94742000Y-68326000D03*
X219202000Y-134874000D03*
X69342000Y-68326000D03*
X109982000Y-68326000D03*
X69342000Y-134874000D03*
X173482000Y-68326000D03*
X196342000Y-68326000D03*
X193802000Y-134874000D03*
X97282000Y-134874000D03*
X76962000Y-68326000D03*
X173482000Y-134874000D03*
X97282000Y-68326000D03*
%TD*%
D19*
%TO.C,J7*%
X123952000Y-43750000D03*
D20*
X123952000Y-46850000D03*
X123952000Y-55150000D03*
%TD*%
D16*
%TO.C,J8*%
X120396000Y-58928000D03*
D17*
X122936000Y-58928000D03*
%TD*%
D13*
%TO.C,SW4*%
X238073000Y-113792000D03*
X231573000Y-113792000D03*
X231573000Y-118292000D03*
X238073000Y-118292000D03*
%TD*%
%TO.C,SW2*%
X231521000Y-103632000D03*
X238021000Y-103632000D03*
X231521000Y-108132000D03*
X238021000Y-108132000D03*
%TD*%
D12*
%TO.C,RV6*%
X206600570Y-47501000D03*
X216200570Y-47501000D03*
D13*
X208900570Y-55001000D03*
X211400570Y-55001000D03*
X213900570Y-55001000D03*
%TD*%
M02*
