M48
; DRILL file {KiCad (6.0.0-0)} date Wednesday, November 30, 2022 at 10:17:23 PM
; FORMAT={-:-/ absolute / inch / decimal}
; #@! TF.CreationDate,2022-11-30T22:17:23-05:00
; #@! TF.GenerationSoftware,Kicad,Pcbnew,(6.0.0-0)
; #@! TF.FileFunction,Plated,1,2,PTH
FMAT,2
INCH
; #@! TA.AperFunction,Plated,PTH,ViaDrill
T1C0.0157
; #@! TA.AperFunction,Plated,PTH,ComponentDrill
T2C0.0197
; #@! TA.AperFunction,Plated,PTH,ComponentDrill
T3C0.0315
; #@! TA.AperFunction,Plated,PTH,ComponentDrill
T4C0.0394
; #@! TA.AperFunction,Plated,PTH,ComponentDrill
T5C0.0433
; #@! TA.AperFunction,Plated,PTH,ComponentDrill
T6C0.0472
; #@! TA.AperFunction,Plated,PTH,ComponentDrill
T7C0.0480
; #@! TA.AperFunction,Plated,PTH,ComponentDrill
T8C0.0550
; #@! TA.AperFunction,Plated,PTH,ComponentDrill
T9C0.0559
; #@! TA.AperFunction,Plated,PTH,ComponentDrill
T10C0.0563
; #@! TA.AperFunction,Plated,PTH,ComponentDrill
T11C0.1181
%
G90
G05
T1
X1.69Y-4.98
X1.8Y-1.94
X1.8002Y-4.7002
X1.81Y-4.54
X1.82Y-4.74
X1.86Y-3.0462
X1.9Y-3.0285
X1.91Y-5.35
X1.94Y-3.0
X1.96Y-2.79
X1.97Y-2.3
X2.11Y-2.35
X2.11Y-2.71
X2.25Y-2.43
X2.4305Y-2.1201
T2
X1.5414Y-5.48
X1.5514Y-1.79
X1.5674Y-5.4174
X1.5674Y-5.5426
X1.5774Y-1.7274
X1.5774Y-1.8526
X1.63Y-5.3914
X1.63Y-5.5686
X1.64Y-1.7014
X1.64Y-1.8786
X1.6926Y-5.4174
X1.6926Y-5.5426
X1.7026Y-1.7274
X1.7026Y-1.8526
X1.7186Y-5.48
X1.7286Y-1.79
X9.9614Y-1.79
X9.9714Y-5.48
X9.9874Y-1.7274
X9.9874Y-1.8526
X9.9974Y-5.4174
X9.9974Y-5.5426
X10.05Y-1.7014
X10.05Y-1.8786
X10.06Y-5.3914
X10.06Y-5.5686
X10.1126Y-1.7274
X10.1126Y-1.8526
X10.1226Y-5.4174
X10.1226Y-5.5426
X10.1386Y-1.79
X10.1486Y-5.48
T3
X1.6504Y-2.5796
X1.6504Y-2.8796
X1.7504Y-2.5796
X1.7504Y-2.8796
X1.8504Y-2.5796
X1.8504Y-2.8796
X1.9504Y-2.5796
X1.9504Y-2.8796
X9.119Y-2.5637
X9.119Y-2.8637
X9.219Y-2.5637
X9.219Y-2.8637
X9.319Y-2.5637
X9.319Y-2.8637
X9.419Y-2.5637
X9.419Y-2.8637
X9.519Y-2.5637
X9.519Y-2.8637
X9.619Y-2.5637
X9.619Y-2.8637
X9.719Y-2.5637
X9.719Y-2.8637
X9.819Y-2.5637
X9.819Y-2.8637
T4
X1.58Y-3.1
X1.58Y-3.2
X1.58Y-3.3
X1.58Y-3.4
X1.58Y-3.5
X1.58Y-3.6
X1.58Y-3.7
X1.58Y-3.8
X1.58Y-3.9
X1.58Y-4.0
X1.58Y-4.1
X1.58Y-4.2
X1.58Y-4.3
X1.58Y-4.4
X1.58Y-4.5
X1.58Y-4.6
X1.72Y-3.1
X1.72Y-3.2
X1.72Y-3.3
X1.72Y-3.4
X1.72Y-3.5
X1.72Y-3.6
X1.72Y-3.7
X1.72Y-3.8
X1.72Y-3.9
X1.72Y-4.0
X1.72Y-4.1
X1.72Y-4.2
X1.72Y-4.3
X1.72Y-4.4
X1.72Y-4.5
X1.72Y-4.6
X2.05Y-3.3
X2.05Y-3.4
X2.05Y-3.5
X2.05Y-3.6
X2.05Y-3.7
X2.05Y-3.8
X2.05Y-4.08
X2.05Y-4.18
X2.05Y-4.28
X2.05Y-4.38
X2.05Y-4.48
X2.05Y-4.58
X2.05Y-4.68
X2.05Y-4.78
X2.05Y-4.88
X2.05Y-4.98
X2.27Y-1.7805
X2.2705Y-1.8805
X2.33Y-2.59
X2.33Y-2.69
X2.33Y-2.79
X2.33Y-2.89
X2.33Y-3.19
X2.33Y-3.29
X2.33Y-3.39
X2.33Y-3.49
X2.33Y-3.59
X2.33Y-3.69
X2.33Y-3.79
X2.33Y-3.89
X2.33Y-4.19
X2.33Y-4.29
X2.33Y-4.39
X2.33Y-4.49
X2.33Y-4.59
X2.33Y-4.69
X2.33Y-4.79
X2.33Y-4.89
X2.33Y-5.21
X2.33Y-5.31
X2.33Y-5.41
X2.33Y-5.51
X2.37Y-1.7805
X2.3705Y-1.8805
X2.43Y-2.59
X2.43Y-2.69
X2.43Y-2.79
X2.43Y-2.89
X2.43Y-3.19
X2.43Y-3.29
X2.43Y-3.39
X2.43Y-3.49
X2.43Y-3.59
X2.43Y-3.69
X2.43Y-3.79
X2.43Y-3.89
X2.43Y-4.19
X2.43Y-4.29
X2.43Y-4.39
X2.43Y-4.49
X2.43Y-4.59
X2.43Y-4.69
X2.43Y-4.79
X2.43Y-4.89
X2.43Y-5.21
X2.43Y-5.31
X2.43Y-5.41
X2.43Y-5.51
X2.47Y-1.7805
X2.4705Y-1.8805
X2.53Y-2.59
X2.53Y-2.69
X2.53Y-2.79
X2.53Y-2.89
X2.53Y-3.19
X2.53Y-3.29
X2.53Y-3.39
X2.53Y-3.49
X2.53Y-3.59
X2.53Y-3.69
X2.53Y-3.79
X2.53Y-3.89
X2.53Y-4.19
X2.53Y-4.29
X2.53Y-4.39
X2.53Y-4.49
X2.53Y-4.59
X2.53Y-4.69
X2.53Y-4.79
X2.53Y-4.89
X2.53Y-5.21
X2.53Y-5.31
X2.53Y-5.41
X2.53Y-5.51
X2.57Y-1.7805
X2.5705Y-1.8805
X2.63Y-2.59
X2.63Y-2.69
X2.63Y-2.79
X2.63Y-2.89
X2.63Y-3.19
X2.63Y-3.29
X2.63Y-3.39
X2.63Y-3.49
X2.63Y-3.59
X2.63Y-3.69
X2.63Y-3.79
X2.63Y-3.89
X2.63Y-4.19
X2.63Y-4.29
X2.63Y-4.39
X2.63Y-4.49
X2.63Y-4.59
X2.63Y-4.69
X2.63Y-4.79
X2.63Y-4.89
X2.63Y-5.21
X2.63Y-5.31
X2.63Y-5.41
X2.63Y-5.51
X2.67Y-1.7805
X2.6705Y-1.8805
X2.73Y-2.59
X2.73Y-2.69
X2.73Y-2.79
X2.73Y-2.89
X2.73Y-3.19
X2.73Y-3.29
X2.73Y-3.39
X2.73Y-3.49
X2.73Y-3.59
X2.73Y-3.69
X2.73Y-3.79
X2.73Y-3.89
X2.73Y-4.19
X2.73Y-4.29
X2.73Y-4.39
X2.73Y-4.49
X2.73Y-4.59
X2.73Y-4.69
X2.73Y-4.79
X2.73Y-4.89
X2.73Y-5.21
X2.73Y-5.31
X2.73Y-5.41
X2.73Y-5.51
X2.77Y-1.7805
X2.7705Y-1.8805
X2.83Y-2.59
X2.83Y-2.69
X2.83Y-2.79
X2.83Y-2.89
X2.83Y-3.19
X2.83Y-3.29
X2.83Y-3.39
X2.83Y-3.49
X2.83Y-3.59
X2.83Y-3.69
X2.83Y-3.79
X2.83Y-3.89
X2.83Y-4.19
X2.83Y-4.29
X2.83Y-4.39
X2.83Y-4.49
X2.83Y-4.59
X2.83Y-4.69
X2.83Y-4.79
X2.83Y-4.89
X2.83Y-5.21
X2.83Y-5.31
X2.83Y-5.41
X2.83Y-5.51
X2.87Y-1.7805
X2.8705Y-1.8805
X2.93Y-2.59
X2.93Y-2.69
X2.93Y-2.79
X2.93Y-2.89
X2.93Y-3.19
X2.93Y-3.29
X2.93Y-3.39
X2.93Y-3.49
X2.93Y-3.59
X2.93Y-3.69
X2.93Y-3.79
X2.93Y-3.89
X2.93Y-4.19
X2.93Y-4.29
X2.93Y-4.39
X2.93Y-4.49
X2.93Y-4.59
X2.93Y-4.69
X2.93Y-4.79
X2.93Y-4.89
X2.93Y-5.21
X2.93Y-5.31
X2.93Y-5.41
X2.93Y-5.51
X2.97Y-1.7805
X2.97Y-1.8805
X3.03Y-2.59
X3.03Y-2.69
X3.03Y-2.79
X3.03Y-2.89
X3.03Y-3.19
X3.03Y-3.29
X3.03Y-3.39
X3.03Y-3.49
X3.03Y-3.59
X3.03Y-3.69
X3.03Y-3.79
X3.03Y-3.89
X3.03Y-4.19
X3.03Y-4.29
X3.03Y-4.39
X3.03Y-4.49
X3.03Y-4.59
X3.03Y-4.69
X3.03Y-4.79
X3.03Y-4.89
X3.03Y-5.21
X3.03Y-5.31
X3.03Y-5.41
X3.03Y-5.51
X3.13Y-2.59
X3.13Y-2.69
X3.13Y-2.79
X3.13Y-2.89
X3.13Y-3.19
X3.13Y-3.29
X3.13Y-3.39
X3.13Y-3.49
X3.13Y-3.59
X3.13Y-3.69
X3.13Y-3.79
X3.13Y-3.89
X3.13Y-4.19
X3.13Y-4.29
X3.13Y-4.39
X3.13Y-4.49
X3.13Y-4.59
X3.13Y-4.69
X3.13Y-4.79
X3.13Y-4.89
X3.13Y-5.21
X3.13Y-5.31
X3.13Y-5.41
X3.13Y-5.51
X3.23Y-2.59
X3.23Y-2.69
X3.23Y-2.79
X3.23Y-2.89
X3.23Y-3.19
X3.23Y-3.29
X3.23Y-3.39
X3.23Y-3.49
X3.23Y-3.59
X3.23Y-3.69
X3.23Y-3.79
X3.23Y-3.89
X3.23Y-4.19
X3.23Y-4.29
X3.23Y-4.39
X3.23Y-4.49
X3.23Y-4.59
X3.23Y-4.69
X3.23Y-4.79
X3.23Y-4.89
X3.23Y-5.21
X3.23Y-5.31
X3.23Y-5.41
X3.23Y-5.51
X3.32Y-2.32
X3.33Y-2.59
X3.33Y-2.69
X3.33Y-2.79
X3.33Y-2.89
X3.33Y-3.19
X3.33Y-3.29
X3.33Y-3.39
X3.33Y-3.49
X3.33Y-3.59
X3.33Y-3.69
X3.33Y-3.79
X3.33Y-3.89
X3.33Y-4.19
X3.33Y-4.29
X3.33Y-4.39
X3.33Y-4.49
X3.33Y-4.59
X3.33Y-4.69
X3.33Y-4.79
X3.33Y-4.89
X3.33Y-5.21
X3.33Y-5.31
X3.33Y-5.41
X3.33Y-5.51
X3.42Y-2.32
X3.43Y-2.59
X3.43Y-2.69
X3.43Y-2.79
X3.43Y-2.89
X3.43Y-3.19
X3.43Y-3.29
X3.43Y-3.39
X3.43Y-3.49
X3.43Y-3.59
X3.43Y-3.69
X3.43Y-3.79
X3.43Y-3.89
X3.43Y-4.19
X3.43Y-4.29
X3.43Y-4.39
X3.43Y-4.49
X3.43Y-4.59
X3.43Y-4.69
X3.43Y-4.79
X3.43Y-4.89
X3.43Y-5.21
X3.43Y-5.31
X3.43Y-5.41
X3.43Y-5.51
X3.53Y-2.59
X3.53Y-2.69
X3.53Y-2.79
X3.53Y-2.89
X3.53Y-3.19
X3.53Y-3.29
X3.53Y-3.39
X3.53Y-3.49
X3.53Y-3.59
X3.53Y-3.69
X3.53Y-3.79
X3.53Y-3.89
X3.53Y-4.19
X3.53Y-4.29
X3.53Y-4.39
X3.53Y-4.49
X3.53Y-4.59
X3.53Y-4.69
X3.53Y-4.79
X3.53Y-4.89
X3.53Y-5.21
X3.53Y-5.31
X3.53Y-5.41
X3.53Y-5.51
X3.63Y-2.59
X3.63Y-2.69
X3.63Y-2.79
X3.63Y-2.89
X3.63Y-3.19
X3.63Y-3.29
X3.63Y-3.39
X3.63Y-3.49
X3.63Y-3.59
X3.63Y-3.69
X3.63Y-3.79
X3.63Y-3.89
X3.63Y-4.19
X3.63Y-4.29
X3.63Y-4.39
X3.63Y-4.49
X3.63Y-4.59
X3.63Y-4.69
X3.63Y-4.79
X3.63Y-4.89
X3.63Y-5.21
X3.63Y-5.31
X3.63Y-5.41
X3.63Y-5.51
X3.73Y-2.59
X3.73Y-2.69
X3.73Y-2.79
X3.73Y-2.89
X3.73Y-3.19
X3.73Y-3.29
X3.73Y-3.39
X3.73Y-3.49
X3.73Y-3.59
X3.73Y-3.69
X3.73Y-3.79
X3.73Y-3.89
X3.73Y-4.19
X3.73Y-4.29
X3.73Y-4.39
X3.73Y-4.49
X3.73Y-4.59
X3.73Y-4.69
X3.73Y-4.79
X3.73Y-4.89
X3.73Y-5.21
X3.73Y-5.31
X3.73Y-5.41
X3.73Y-5.51
X3.7998Y-2.32
X3.83Y-2.59
X3.83Y-2.69
X3.83Y-2.79
X3.83Y-2.89
X3.83Y-3.19
X3.83Y-3.29
X3.83Y-3.39
X3.83Y-3.49
X3.83Y-3.59
X3.83Y-3.69
X3.83Y-3.79
X3.83Y-3.89
X3.83Y-4.19
X3.83Y-4.29
X3.83Y-4.39
X3.83Y-4.49
X3.83Y-4.59
X3.83Y-4.69
X3.83Y-4.79
X3.83Y-4.89
X3.83Y-5.21
X3.83Y-5.31
X3.83Y-5.41
X3.83Y-5.51
X3.8998Y-2.32
X3.93Y-2.59
X3.93Y-2.69
X3.93Y-2.79
X3.93Y-2.89
X3.93Y-3.19
X3.93Y-3.29
X3.93Y-3.39
X3.93Y-3.49
X3.93Y-3.59
X3.93Y-3.69
X3.93Y-3.79
X3.93Y-3.89
X3.93Y-4.19
X3.93Y-4.29
X3.93Y-4.39
X3.93Y-4.49
X3.93Y-4.59
X3.93Y-4.69
X3.93Y-4.79
X3.93Y-4.89
X3.93Y-5.21
X3.93Y-5.31
X3.93Y-5.41
X3.93Y-5.51
X4.03Y-2.59
X4.03Y-2.69
X4.03Y-2.79
X4.03Y-2.89
X4.03Y-3.19
X4.03Y-3.29
X4.03Y-3.39
X4.03Y-3.49
X4.03Y-3.59
X4.03Y-3.69
X4.03Y-3.79
X4.03Y-3.89
X4.03Y-4.19
X4.03Y-4.29
X4.03Y-4.39
X4.03Y-4.49
X4.03Y-4.59
X4.03Y-4.69
X4.03Y-4.79
X4.03Y-4.89
X4.03Y-5.21
X4.03Y-5.31
X4.03Y-5.41
X4.03Y-5.51
X4.13Y-2.59
X4.13Y-2.69
X4.13Y-2.79
X4.13Y-2.89
X4.13Y-3.19
X4.13Y-3.29
X4.13Y-3.39
X4.13Y-3.49
X4.13Y-3.59
X4.13Y-3.69
X4.13Y-3.79
X4.13Y-3.89
X4.13Y-4.19
X4.13Y-4.29
X4.13Y-4.39
X4.13Y-4.49
X4.13Y-4.59
X4.13Y-4.69
X4.13Y-4.79
X4.13Y-4.89
X4.13Y-5.21
X4.13Y-5.31
X4.13Y-5.41
X4.13Y-5.51
X4.23Y-2.59
X4.23Y-2.69
X4.23Y-2.79
X4.23Y-2.89
X4.23Y-3.19
X4.23Y-3.29
X4.23Y-3.39
X4.23Y-3.49
X4.23Y-3.59
X4.23Y-3.69
X4.23Y-3.79
X4.23Y-3.89
X4.23Y-4.19
X4.23Y-4.29
X4.23Y-4.39
X4.23Y-4.49
X4.23Y-4.59
X4.23Y-4.69
X4.23Y-4.79
X4.23Y-4.89
X4.23Y-5.21
X4.23Y-5.31
X4.23Y-5.41
X4.23Y-5.51
X4.27Y-2.32
X4.33Y-2.59
X4.33Y-2.69
X4.33Y-2.79
X4.33Y-2.89
X4.33Y-3.19
X4.33Y-3.29
X4.33Y-3.39
X4.33Y-3.49
X4.33Y-3.59
X4.33Y-3.69
X4.33Y-3.79
X4.33Y-3.89
X4.33Y-4.19
X4.33Y-4.29
X4.33Y-4.39
X4.33Y-4.49
X4.33Y-4.59
X4.33Y-4.69
X4.33Y-4.79
X4.33Y-4.89
X4.33Y-5.21
X4.33Y-5.31
X4.33Y-5.41
X4.33Y-5.51
X4.37Y-2.32
X4.43Y-2.59
X4.43Y-2.69
X4.43Y-2.79
X4.43Y-2.89
X4.43Y-3.19
X4.43Y-3.29
X4.43Y-3.39
X4.43Y-3.49
X4.43Y-3.59
X4.43Y-3.69
X4.43Y-3.79
X4.43Y-3.89
X4.43Y-4.19
X4.43Y-4.29
X4.43Y-4.39
X4.43Y-4.49
X4.43Y-4.59
X4.43Y-4.69
X4.43Y-4.79
X4.43Y-4.89
X4.43Y-5.21
X4.43Y-5.31
X4.43Y-5.41
X4.43Y-5.51
X4.53Y-2.59
X4.53Y-2.69
X4.53Y-2.79
X4.53Y-2.89
X4.53Y-3.19
X4.53Y-3.29
X4.53Y-3.39
X4.53Y-3.49
X4.53Y-3.59
X4.53Y-3.69
X4.53Y-3.79
X4.53Y-3.89
X4.53Y-4.19
X4.53Y-4.29
X4.53Y-4.39
X4.53Y-4.49
X4.53Y-4.59
X4.53Y-4.69
X4.53Y-4.79
X4.53Y-4.89
X4.53Y-5.21
X4.53Y-5.31
X4.53Y-5.41
X4.53Y-5.51
X4.63Y-2.59
X4.63Y-2.69
X4.63Y-2.79
X4.63Y-2.89
X4.63Y-3.19
X4.63Y-3.29
X4.63Y-3.39
X4.63Y-3.49
X4.63Y-3.59
X4.63Y-3.69
X4.63Y-3.79
X4.63Y-3.89
X4.63Y-4.19
X4.63Y-4.29
X4.63Y-4.39
X4.63Y-4.49
X4.63Y-4.59
X4.63Y-4.69
X4.63Y-4.79
X4.63Y-4.89
X4.63Y-5.21
X4.63Y-5.31
X4.63Y-5.41
X4.63Y-5.51
X4.73Y-2.59
X4.73Y-2.69
X4.73Y-2.79
X4.73Y-2.89
X4.73Y-3.19
X4.73Y-3.29
X4.73Y-3.39
X4.73Y-3.49
X4.73Y-3.59
X4.73Y-3.69
X4.73Y-3.79
X4.73Y-3.89
X4.73Y-4.19
X4.73Y-4.29
X4.73Y-4.39
X4.73Y-4.49
X4.73Y-4.59
X4.73Y-4.69
X4.73Y-4.79
X4.73Y-4.89
X4.73Y-5.21
X4.73Y-5.31
X4.73Y-5.41
X4.73Y-5.51
X4.74Y-2.32
X4.83Y-2.59
X4.83Y-2.69
X4.83Y-2.79
X4.83Y-2.89
X4.83Y-3.19
X4.83Y-3.29
X4.83Y-3.39
X4.83Y-3.49
X4.83Y-3.59
X4.83Y-3.69
X4.83Y-3.79
X4.83Y-3.89
X4.83Y-4.19
X4.83Y-4.29
X4.83Y-4.39
X4.83Y-4.49
X4.83Y-4.59
X4.83Y-4.69
X4.83Y-4.79
X4.83Y-4.89
X4.83Y-5.21
X4.83Y-5.31
X4.83Y-5.41
X4.83Y-5.51
X4.84Y-2.32
X4.93Y-2.59
X4.93Y-2.69
X4.93Y-2.79
X4.93Y-2.89
X4.93Y-3.19
X4.93Y-3.29
X4.93Y-3.39
X4.93Y-3.49
X4.93Y-3.59
X4.93Y-3.69
X4.93Y-3.79
X4.93Y-3.89
X4.93Y-4.19
X4.93Y-4.29
X4.93Y-4.39
X4.93Y-4.49
X4.93Y-4.59
X4.93Y-4.69
X4.93Y-4.79
X4.93Y-4.89
X4.93Y-5.21
X4.93Y-5.31
X4.93Y-5.41
X4.93Y-5.51
X5.03Y-2.59
X5.03Y-2.69
X5.03Y-2.79
X5.03Y-2.89
X5.03Y-3.19
X5.03Y-3.29
X5.03Y-3.39
X5.03Y-3.49
X5.03Y-3.59
X5.03Y-3.69
X5.03Y-3.79
X5.03Y-3.89
X5.03Y-4.19
X5.03Y-4.29
X5.03Y-4.39
X5.03Y-4.49
X5.03Y-4.59
X5.03Y-4.69
X5.03Y-4.79
X5.03Y-4.89
X5.03Y-5.21
X5.03Y-5.31
X5.03Y-5.41
X5.03Y-5.51
X5.13Y-2.59
X5.13Y-2.69
X5.13Y-2.79
X5.13Y-2.89
X5.13Y-3.19
X5.13Y-3.29
X5.13Y-3.39
X5.13Y-3.49
X5.13Y-3.59
X5.13Y-3.69
X5.13Y-3.79
X5.13Y-3.89
X5.13Y-4.19
X5.13Y-4.29
X5.13Y-4.39
X5.13Y-4.49
X5.13Y-4.59
X5.13Y-4.69
X5.13Y-4.79
X5.13Y-4.89
X5.13Y-5.21
X5.13Y-5.31
X5.13Y-5.41
X5.13Y-5.51
X5.23Y-2.59
X5.23Y-2.69
X5.23Y-2.79
X5.23Y-2.89
X5.23Y-3.19
X5.23Y-3.29
X5.23Y-3.39
X5.23Y-3.49
X5.23Y-3.59
X5.23Y-3.69
X5.23Y-3.79
X5.23Y-3.89
X5.23Y-4.19
X5.23Y-4.29
X5.23Y-4.39
X5.23Y-4.49
X5.23Y-4.59
X5.23Y-4.69
X5.23Y-4.79
X5.23Y-4.89
X5.23Y-5.21
X5.23Y-5.31
X5.23Y-5.41
X5.23Y-5.51
X5.33Y-2.59
X5.33Y-2.69
X5.33Y-2.79
X5.33Y-2.89
X5.33Y-3.19
X5.33Y-3.29
X5.33Y-3.39
X5.33Y-3.49
X5.33Y-3.59
X5.33Y-3.69
X5.33Y-3.79
X5.33Y-3.89
X5.33Y-4.19
X5.33Y-4.29
X5.33Y-4.39
X5.33Y-4.49
X5.33Y-4.59
X5.33Y-4.69
X5.33Y-4.79
X5.33Y-4.89
X5.33Y-5.21
X5.33Y-5.31
X5.33Y-5.41
X5.33Y-5.51
X5.43Y-2.59
X5.43Y-2.69
X5.43Y-2.79
X5.43Y-2.89
X5.43Y-3.19
X5.43Y-3.29
X5.43Y-3.39
X5.43Y-3.49
X5.43Y-3.59
X5.43Y-3.69
X5.43Y-3.79
X5.43Y-3.89
X5.43Y-4.19
X5.43Y-4.29
X5.43Y-4.39
X5.43Y-4.49
X5.43Y-4.59
X5.43Y-4.69
X5.43Y-4.79
X5.43Y-4.89
X5.43Y-5.21
X5.43Y-5.31
X5.43Y-5.41
X5.43Y-5.51
X5.53Y-2.59
X5.53Y-2.69
X5.53Y-2.79
X5.53Y-2.89
X5.53Y-3.19
X5.53Y-3.29
X5.53Y-3.39
X5.53Y-3.49
X5.53Y-3.59
X5.53Y-3.69
X5.53Y-3.79
X5.53Y-3.89
X5.53Y-4.19
X5.53Y-4.29
X5.53Y-4.39
X5.53Y-4.49
X5.53Y-4.59
X5.53Y-4.69
X5.53Y-4.79
X5.53Y-4.89
X5.53Y-5.21
X5.53Y-5.31
X5.53Y-5.41
X5.53Y-5.51
X5.63Y-2.59
X5.63Y-2.69
X5.63Y-2.79
X5.63Y-2.89
X5.63Y-3.19
X5.63Y-3.29
X5.63Y-3.39
X5.63Y-3.49
X5.63Y-3.59
X5.63Y-3.69
X5.63Y-3.79
X5.63Y-3.89
X5.63Y-4.19
X5.63Y-4.29
X5.63Y-4.39
X5.63Y-4.49
X5.63Y-4.59
X5.63Y-4.69
X5.63Y-4.79
X5.63Y-4.89
X5.63Y-5.21
X5.63Y-5.31
X5.63Y-5.41
X5.63Y-5.51
X5.73Y-2.45
X5.73Y-2.59
X5.73Y-2.69
X5.73Y-2.79
X5.73Y-2.89
X5.73Y-3.19
X5.73Y-3.29
X5.73Y-3.39
X5.73Y-3.49
X5.73Y-3.59
X5.73Y-3.69
X5.73Y-3.79
X5.73Y-3.89
X5.73Y-4.19
X5.73Y-4.29
X5.73Y-4.39
X5.73Y-4.49
X5.73Y-4.59
X5.73Y-4.69
X5.73Y-4.79
X5.73Y-4.89
X5.73Y-5.21
X5.73Y-5.31
X5.73Y-5.41
X5.73Y-5.51
X5.83Y-2.45
X5.83Y-2.59
X5.83Y-2.69
X5.83Y-2.79
X5.83Y-2.89
X5.83Y-3.19
X5.83Y-3.29
X5.83Y-3.39
X5.83Y-3.49
X5.83Y-3.59
X5.83Y-3.69
X5.83Y-3.79
X5.83Y-3.89
X5.83Y-4.19
X5.83Y-4.29
X5.83Y-4.39
X5.83Y-4.49
X5.83Y-4.59
X5.83Y-4.69
X5.83Y-4.79
X5.83Y-4.89
X5.83Y-5.21
X5.83Y-5.31
X5.83Y-5.41
X5.83Y-5.51
X5.93Y-2.45
X5.93Y-2.59
X5.93Y-2.69
X5.93Y-2.79
X5.93Y-2.89
X5.93Y-3.19
X5.93Y-3.29
X5.93Y-3.39
X5.93Y-3.49
X5.93Y-3.59
X5.93Y-3.69
X5.93Y-3.79
X5.93Y-3.89
X5.93Y-4.19
X5.93Y-4.29
X5.93Y-4.39
X5.93Y-4.49
X5.93Y-4.59
X5.93Y-4.69
X5.93Y-4.79
X5.93Y-4.89
X5.93Y-5.21
X5.93Y-5.31
X5.93Y-5.41
X5.93Y-5.51
X6.03Y-2.59
X6.03Y-2.69
X6.03Y-2.79
X6.03Y-2.89
X6.03Y-3.19
X6.03Y-3.29
X6.03Y-3.39
X6.03Y-3.49
X6.03Y-3.59
X6.03Y-3.69
X6.03Y-3.79
X6.03Y-3.89
X6.03Y-4.19
X6.03Y-4.29
X6.03Y-4.39
X6.03Y-4.49
X6.03Y-4.59
X6.03Y-4.69
X6.03Y-4.79
X6.03Y-4.89
X6.03Y-5.21
X6.03Y-5.31
X6.03Y-5.41
X6.03Y-5.51
X6.13Y-2.59
X6.13Y-2.69
X6.13Y-2.79
X6.13Y-2.89
X6.13Y-3.19
X6.13Y-3.29
X6.13Y-3.39
X6.13Y-3.49
X6.13Y-3.59
X6.13Y-3.69
X6.13Y-3.79
X6.13Y-3.89
X6.13Y-4.19
X6.13Y-4.29
X6.13Y-4.39
X6.13Y-4.49
X6.13Y-4.59
X6.13Y-4.69
X6.13Y-4.79
X6.13Y-4.89
X6.13Y-5.21
X6.13Y-5.31
X6.13Y-5.41
X6.13Y-5.51
X6.23Y-2.59
X6.23Y-2.69
X6.23Y-2.79
X6.23Y-2.89
X6.23Y-3.19
X6.23Y-3.29
X6.23Y-3.39
X6.23Y-3.49
X6.23Y-3.59
X6.23Y-3.69
X6.23Y-3.79
X6.23Y-3.89
X6.23Y-4.19
X6.23Y-4.29
X6.23Y-4.39
X6.23Y-4.49
X6.23Y-4.59
X6.23Y-4.69
X6.23Y-4.79
X6.23Y-4.89
X6.23Y-5.21
X6.23Y-5.31
X6.23Y-5.41
X6.23Y-5.51
X6.33Y-2.59
X6.33Y-2.69
X6.33Y-2.79
X6.33Y-2.89
X6.33Y-3.19
X6.33Y-3.29
X6.33Y-3.39
X6.33Y-3.49
X6.33Y-3.59
X6.33Y-3.69
X6.33Y-3.79
X6.33Y-3.89
X6.33Y-4.19
X6.33Y-4.29
X6.33Y-4.39
X6.33Y-4.49
X6.33Y-4.59
X6.33Y-4.69
X6.33Y-4.79
X6.33Y-4.89
X6.33Y-5.21
X6.33Y-5.31
X6.33Y-5.41
X6.33Y-5.51
X6.3304Y-2.449
X6.43Y-2.59
X6.43Y-2.69
X6.43Y-2.79
X6.43Y-2.89
X6.43Y-3.19
X6.43Y-3.29
X6.43Y-3.39
X6.43Y-3.49
X6.43Y-3.59
X6.43Y-3.69
X6.43Y-3.79
X6.43Y-3.89
X6.43Y-4.19
X6.43Y-4.29
X6.43Y-4.39
X6.43Y-4.49
X6.43Y-4.59
X6.43Y-4.69
X6.43Y-4.79
X6.43Y-4.89
X6.43Y-5.21
X6.43Y-5.31
X6.43Y-5.41
X6.43Y-5.51
X6.4304Y-2.449
X6.53Y-2.59
X6.53Y-2.69
X6.53Y-2.79
X6.53Y-2.89
X6.53Y-3.19
X6.53Y-3.29
X6.53Y-3.39
X6.53Y-3.49
X6.53Y-3.59
X6.53Y-3.69
X6.53Y-3.79
X6.53Y-3.89
X6.53Y-4.19
X6.53Y-4.29
X6.53Y-4.39
X6.53Y-4.49
X6.53Y-4.59
X6.53Y-4.69
X6.53Y-4.79
X6.53Y-4.89
X6.53Y-5.21
X6.53Y-5.31
X6.53Y-5.41
X6.53Y-5.51
X6.5304Y-2.449
X6.63Y-2.59
X6.63Y-2.69
X6.63Y-2.79
X6.63Y-2.89
X6.63Y-3.19
X6.63Y-3.29
X6.63Y-3.39
X6.63Y-3.49
X6.63Y-3.59
X6.63Y-3.69
X6.63Y-3.79
X6.63Y-3.89
X6.63Y-4.19
X6.63Y-4.29
X6.63Y-4.39
X6.63Y-4.49
X6.63Y-4.59
X6.63Y-4.69
X6.63Y-4.79
X6.63Y-4.89
X6.63Y-5.21
X6.63Y-5.31
X6.63Y-5.41
X6.63Y-5.51
X6.6304Y-2.449
X6.73Y-2.59
X6.73Y-2.69
X6.73Y-2.79
X6.73Y-2.89
X6.73Y-3.19
X6.73Y-3.29
X6.73Y-3.39
X6.73Y-3.49
X6.73Y-3.59
X6.73Y-3.69
X6.73Y-3.79
X6.73Y-3.89
X6.73Y-4.19
X6.73Y-4.29
X6.73Y-4.39
X6.73Y-4.49
X6.73Y-4.59
X6.73Y-4.69
X6.73Y-4.79
X6.73Y-4.89
X6.73Y-5.21
X6.73Y-5.31
X6.73Y-5.41
X6.73Y-5.51
X6.7304Y-2.449
X6.83Y-2.59
X6.83Y-2.69
X6.83Y-2.79
X6.83Y-2.89
X6.83Y-3.19
X6.83Y-3.29
X6.83Y-3.39
X6.83Y-3.49
X6.83Y-3.59
X6.83Y-3.69
X6.83Y-3.79
X6.83Y-3.89
X6.83Y-4.19
X6.83Y-4.29
X6.83Y-4.39
X6.83Y-4.49
X6.83Y-4.59
X6.83Y-4.69
X6.83Y-4.79
X6.83Y-4.89
X6.83Y-5.21
X6.83Y-5.31
X6.83Y-5.41
X6.83Y-5.51
X6.8304Y-2.449
X6.93Y-2.59
X6.93Y-2.69
X6.93Y-2.79
X6.93Y-2.89
X6.93Y-3.19
X6.93Y-3.29
X6.93Y-3.39
X6.93Y-3.49
X6.93Y-3.59
X6.93Y-3.69
X6.93Y-3.79
X6.93Y-3.89
X6.93Y-4.19
X6.93Y-4.29
X6.93Y-4.39
X6.93Y-4.49
X6.93Y-4.59
X6.93Y-4.69
X6.93Y-4.79
X6.93Y-4.89
X6.93Y-5.21
X6.93Y-5.31
X6.93Y-5.41
X6.93Y-5.51
X6.9304Y-2.449
X7.03Y-2.59
X7.03Y-2.69
X7.03Y-2.79
X7.03Y-2.89
X7.03Y-3.19
X7.03Y-3.29
X7.03Y-3.39
X7.03Y-3.49
X7.03Y-3.59
X7.03Y-3.69
X7.03Y-3.79
X7.03Y-3.89
X7.03Y-4.19
X7.03Y-4.29
X7.03Y-4.39
X7.03Y-4.49
X7.03Y-4.59
X7.03Y-4.69
X7.03Y-4.79
X7.03Y-4.89
X7.03Y-5.21
X7.03Y-5.31
X7.03Y-5.41
X7.03Y-5.51
X7.0304Y-2.449
X7.13Y-2.59
X7.13Y-2.69
X7.13Y-2.79
X7.13Y-2.89
X7.13Y-3.19
X7.13Y-3.29
X7.13Y-3.39
X7.13Y-3.49
X7.13Y-3.59
X7.13Y-3.69
X7.13Y-3.79
X7.13Y-3.89
X7.13Y-4.19
X7.13Y-4.29
X7.13Y-4.39
X7.13Y-4.49
X7.13Y-4.59
X7.13Y-4.69
X7.13Y-4.79
X7.13Y-4.89
X7.13Y-5.21
X7.13Y-5.31
X7.13Y-5.41
X7.13Y-5.51
X7.1304Y-2.449
X7.23Y-2.59
X7.23Y-2.69
X7.23Y-2.79
X7.23Y-2.89
X7.23Y-3.19
X7.23Y-3.29
X7.23Y-3.39
X7.23Y-3.49
X7.23Y-3.59
X7.23Y-3.69
X7.23Y-3.79
X7.23Y-3.89
X7.23Y-4.19
X7.23Y-4.29
X7.23Y-4.39
X7.23Y-4.49
X7.23Y-4.59
X7.23Y-4.69
X7.23Y-4.79
X7.23Y-4.89
X7.23Y-5.21
X7.23Y-5.31
X7.23Y-5.41
X7.23Y-5.51
X7.2304Y-2.449
X7.33Y-2.59
X7.33Y-2.69
X7.33Y-2.79
X7.33Y-2.89
X7.33Y-3.19
X7.33Y-3.29
X7.33Y-3.39
X7.33Y-3.49
X7.33Y-3.59
X7.33Y-3.69
X7.33Y-3.79
X7.33Y-3.89
X7.33Y-4.19
X7.33Y-4.29
X7.33Y-4.39
X7.33Y-4.49
X7.33Y-4.59
X7.33Y-4.69
X7.33Y-4.79
X7.33Y-4.89
X7.33Y-5.21
X7.33Y-5.31
X7.33Y-5.41
X7.33Y-5.51
X7.3304Y-2.449
X7.43Y-2.59
X7.43Y-2.69
X7.43Y-2.79
X7.43Y-2.89
X7.43Y-3.19
X7.43Y-3.29
X7.43Y-3.39
X7.43Y-3.49
X7.43Y-3.59
X7.43Y-3.69
X7.43Y-3.79
X7.43Y-3.89
X7.43Y-4.19
X7.43Y-4.29
X7.43Y-4.39
X7.43Y-4.49
X7.43Y-4.59
X7.43Y-4.69
X7.43Y-4.79
X7.43Y-4.89
X7.43Y-5.21
X7.43Y-5.31
X7.43Y-5.41
X7.43Y-5.51
X7.4304Y-2.449
X7.53Y-2.59
X7.53Y-2.69
X7.53Y-2.79
X7.53Y-2.89
X7.53Y-3.19
X7.53Y-3.29
X7.53Y-3.39
X7.53Y-3.49
X7.53Y-3.59
X7.53Y-3.69
X7.53Y-3.79
X7.53Y-3.89
X7.53Y-4.19
X7.53Y-4.29
X7.53Y-4.39
X7.53Y-4.49
X7.53Y-4.59
X7.53Y-4.69
X7.53Y-4.79
X7.53Y-4.89
X7.53Y-5.21
X7.53Y-5.31
X7.53Y-5.41
X7.53Y-5.51
X7.5304Y-2.449
X7.63Y-2.59
X7.63Y-2.69
X7.63Y-2.79
X7.63Y-2.89
X7.63Y-3.19
X7.63Y-3.29
X7.63Y-3.39
X7.63Y-3.49
X7.63Y-3.59
X7.63Y-3.69
X7.63Y-3.79
X7.63Y-3.89
X7.63Y-4.19
X7.63Y-4.29
X7.63Y-4.39
X7.63Y-4.49
X7.63Y-4.59
X7.63Y-4.69
X7.63Y-4.79
X7.63Y-4.89
X7.63Y-5.21
X7.63Y-5.31
X7.63Y-5.41
X7.63Y-5.51
X7.6304Y-2.449
X7.73Y-2.59
X7.73Y-2.69
X7.73Y-2.79
X7.73Y-2.89
X7.73Y-3.19
X7.73Y-3.29
X7.73Y-3.39
X7.73Y-3.49
X7.73Y-3.59
X7.73Y-3.69
X7.73Y-3.79
X7.73Y-3.89
X7.73Y-4.19
X7.73Y-4.29
X7.73Y-4.39
X7.73Y-4.49
X7.73Y-4.59
X7.73Y-4.69
X7.73Y-4.79
X7.73Y-4.89
X7.73Y-5.21
X7.73Y-5.31
X7.73Y-5.41
X7.73Y-5.51
X7.7304Y-2.449
X7.83Y-2.59
X7.83Y-2.69
X7.83Y-2.79
X7.83Y-2.89
X7.83Y-3.19
X7.83Y-3.29
X7.83Y-3.39
X7.83Y-3.49
X7.83Y-3.59
X7.83Y-3.69
X7.83Y-3.79
X7.83Y-3.89
X7.83Y-4.19
X7.83Y-4.29
X7.83Y-4.39
X7.83Y-4.49
X7.83Y-4.59
X7.83Y-4.69
X7.83Y-4.79
X7.83Y-4.89
X7.83Y-5.21
X7.83Y-5.31
X7.83Y-5.41
X7.83Y-5.51
X7.8304Y-2.449
X7.93Y-2.59
X7.93Y-2.69
X7.93Y-2.79
X7.93Y-2.89
X7.93Y-3.19
X7.93Y-3.29
X7.93Y-3.39
X7.93Y-3.49
X7.93Y-3.59
X7.93Y-3.69
X7.93Y-3.79
X7.93Y-3.89
X7.93Y-4.19
X7.93Y-4.29
X7.93Y-4.39
X7.93Y-4.49
X7.93Y-4.59
X7.93Y-4.69
X7.93Y-4.79
X7.93Y-4.89
X7.93Y-5.21
X7.93Y-5.31
X7.93Y-5.41
X7.93Y-5.51
X7.9304Y-2.449
X8.03Y-2.59
X8.03Y-2.69
X8.03Y-2.79
X8.03Y-2.89
X8.03Y-3.19
X8.03Y-3.29
X8.03Y-3.39
X8.03Y-3.49
X8.03Y-3.59
X8.03Y-3.69
X8.03Y-3.79
X8.03Y-3.89
X8.03Y-4.19
X8.03Y-4.29
X8.03Y-4.39
X8.03Y-4.49
X8.03Y-4.59
X8.03Y-4.69
X8.03Y-4.79
X8.03Y-4.89
X8.03Y-5.21
X8.03Y-5.31
X8.03Y-5.41
X8.03Y-5.51
X8.0304Y-2.449
X8.13Y-2.59
X8.13Y-2.69
X8.13Y-2.79
X8.13Y-2.89
X8.13Y-3.19
X8.13Y-3.29
X8.13Y-3.39
X8.13Y-3.49
X8.13Y-3.59
X8.13Y-3.69
X8.13Y-3.79
X8.13Y-3.89
X8.13Y-4.19
X8.13Y-4.29
X8.13Y-4.39
X8.13Y-4.49
X8.13Y-4.59
X8.13Y-4.69
X8.13Y-4.79
X8.13Y-4.89
X8.13Y-5.21
X8.13Y-5.31
X8.13Y-5.41
X8.13Y-5.51
X8.1304Y-2.449
X8.23Y-2.59
X8.23Y-2.69
X8.23Y-2.79
X8.23Y-2.89
X8.23Y-3.19
X8.23Y-3.29
X8.23Y-3.39
X8.23Y-3.49
X8.23Y-3.59
X8.23Y-3.69
X8.23Y-3.79
X8.23Y-3.89
X8.23Y-4.19
X8.23Y-4.29
X8.23Y-4.39
X8.23Y-4.49
X8.23Y-4.59
X8.23Y-4.69
X8.23Y-4.79
X8.23Y-4.89
X8.23Y-5.21
X8.23Y-5.31
X8.23Y-5.41
X8.23Y-5.51
X8.2304Y-2.449
X8.33Y-2.59
X8.33Y-2.69
X8.33Y-2.79
X8.33Y-2.89
X8.33Y-3.19
X8.33Y-3.29
X8.33Y-3.39
X8.33Y-3.49
X8.33Y-3.59
X8.33Y-3.69
X8.33Y-3.79
X8.33Y-3.89
X8.33Y-4.19
X8.33Y-4.29
X8.33Y-4.39
X8.33Y-4.49
X8.33Y-4.59
X8.33Y-4.69
X8.33Y-4.79
X8.33Y-4.89
X8.33Y-5.21
X8.33Y-5.31
X8.33Y-5.41
X8.33Y-5.51
X8.3304Y-2.449
X8.43Y-2.59
X8.43Y-2.69
X8.43Y-2.79
X8.43Y-2.89
X8.43Y-3.19
X8.43Y-3.29
X8.43Y-3.39
X8.43Y-3.49
X8.43Y-3.59
X8.43Y-3.69
X8.43Y-3.79
X8.43Y-3.89
X8.43Y-4.19
X8.43Y-4.29
X8.43Y-4.39
X8.43Y-4.49
X8.43Y-4.59
X8.43Y-4.69
X8.43Y-4.79
X8.43Y-4.89
X8.43Y-5.21
X8.43Y-5.31
X8.43Y-5.41
X8.43Y-5.51
X8.4304Y-2.449
X8.53Y-2.59
X8.53Y-2.69
X8.53Y-2.79
X8.53Y-2.89
X8.53Y-3.19
X8.53Y-3.29
X8.53Y-3.39
X8.53Y-3.49
X8.53Y-3.59
X8.53Y-3.69
X8.53Y-3.79
X8.53Y-3.89
X8.53Y-4.19
X8.53Y-4.29
X8.53Y-4.39
X8.53Y-4.49
X8.53Y-4.59
X8.53Y-4.69
X8.53Y-4.79
X8.53Y-4.89
X8.53Y-5.21
X8.53Y-5.31
X8.53Y-5.41
X8.53Y-5.51
X8.5304Y-2.449
X8.63Y-2.59
X8.63Y-2.69
X8.63Y-2.79
X8.63Y-2.89
X8.63Y-3.19
X8.63Y-3.29
X8.63Y-3.39
X8.63Y-3.49
X8.63Y-3.59
X8.63Y-3.69
X8.63Y-3.79
X8.63Y-3.89
X8.63Y-4.19
X8.63Y-4.29
X8.63Y-4.39
X8.63Y-4.49
X8.63Y-4.59
X8.63Y-4.69
X8.63Y-4.79
X8.63Y-4.89
X8.63Y-5.21
X8.63Y-5.31
X8.63Y-5.41
X8.63Y-5.51
X8.6304Y-2.449
X8.86Y-3.15
X8.86Y-3.25
X8.86Y-3.35
X8.86Y-3.45
X8.86Y-3.55
X8.86Y-3.65
X8.86Y-3.75
X8.86Y-3.85
X8.86Y-4.19
X8.86Y-4.29
X8.86Y-4.39
X8.86Y-4.49
X8.86Y-4.59
X8.86Y-4.69
X8.86Y-4.79
X8.86Y-4.89
X8.96Y-3.15
X8.96Y-3.25
X8.96Y-3.35
X8.96Y-3.45
X8.96Y-3.55
X8.96Y-3.65
X8.96Y-3.75
X8.96Y-3.85
X9.03Y-5.1002
X9.03Y-5.2002
X9.97Y-3.1
X9.97Y-3.2
X9.97Y-3.3
X9.97Y-3.4
X9.97Y-3.5
X9.97Y-3.6
X9.97Y-3.7
X9.97Y-3.8
X9.97Y-3.9
X9.97Y-4.0
X9.97Y-4.1
X9.97Y-4.2
X9.97Y-4.3
X9.97Y-4.4
X9.97Y-4.5
X9.97Y-4.6
X10.1124Y-3.1
X10.1124Y-3.2
X10.1124Y-3.3
X10.1124Y-3.4
X10.1124Y-3.5
X10.1124Y-3.6
X10.1124Y-3.7
X10.1124Y-3.8
X10.1124Y-3.9
X10.1124Y-4.0
X10.1124Y-4.1
X10.1124Y-4.2
X10.1124Y-4.3
X10.1124Y-4.4
X10.1124Y-4.5
X10.1124Y-4.6
T5
X9.115Y-4.08
X9.115Y-4.2572
X9.117Y-4.48
X9.117Y-4.6572
X9.3709Y-4.08
X9.3709Y-4.2572
X9.373Y-4.48
X9.373Y-4.6572
X9.53Y-4.48
X9.53Y-4.6572
X9.532Y-4.08
X9.532Y-4.2572
X9.7859Y-4.48
X9.7859Y-4.6572
X9.788Y-4.08
X9.788Y-4.2572
T6
X5.3816Y-2.1654
X5.48Y-2.1654
X5.5784Y-2.1654
X5.9501Y-2.1654
X6.0486Y-2.1654
X6.147Y-2.1654
X6.5187Y-2.1654
X6.6171Y-2.1654
X6.7156Y-2.1654
X7.0873Y-2.1654
X7.1857Y-2.1654
X7.2841Y-2.1654
X7.6559Y-2.1654
X7.7543Y-2.1654
X7.8527Y-2.1654
X8.2244Y-2.1654
X8.3229Y-2.1654
X8.4213Y-2.1654
X8.793Y-2.1654
X8.8914Y-2.1654
X8.9899Y-2.1654
X9.3616Y-2.1654
X9.46Y-2.1654
X9.5584Y-2.1654
T7
X3.46Y-1.7224
X3.9398Y-1.7224
X4.41Y-1.7224
X4.88Y-1.7224
T8
X9.2248Y-5.102
X9.3233Y-5.0035
X9.52Y-5.1019
X9.7167Y-5.0035
X9.8152Y-5.102
T9
X3.46Y-1.8445
X3.9398Y-1.8445
X4.41Y-1.8445
X4.88Y-1.8445
T10
X3.46Y-2.1713
X3.9398Y-2.1713
X4.41Y-2.1713
X4.88Y-2.1713
T11
X1.63Y-5.48
X1.64Y-1.79
X10.05Y-1.79
X10.06Y-5.48
T5
G00X5.291Y-1.8918
M15
G01X5.291Y-1.8485
M16
G05
G00X5.669Y-1.8485
M15
G01X5.669Y-1.8918
M16
G05
G00X5.8596Y-1.8918
M15
G01X5.8596Y-1.8485
M16
G05
G00X6.2375Y-1.8485
M15
G01X6.2375Y-1.8918
M16
G05
G00X6.4282Y-1.8918
M15
G01X6.4282Y-1.8485
M16
G05
G00X6.8061Y-1.8485
M15
G01X6.8061Y-1.8918
M16
G05
G00X6.9967Y-1.8918
M15
G01X6.9967Y-1.8485
M16
G05
G00X7.3747Y-1.8485
M15
G01X7.3747Y-1.8918
M16
G05
G00X7.5653Y-1.8918
M15
G01X7.5653Y-1.8485
M16
G05
G00X7.9433Y-1.8485
M15
G01X7.9433Y-1.8918
M16
G05
G00X8.1339Y-1.8918
M15
G01X8.1339Y-1.8485
M16
G05
G00X8.5118Y-1.8485
M15
G01X8.5118Y-1.8918
M16
G05
G00X8.7025Y-1.8918
M15
G01X8.7025Y-1.8485
M16
G05
G00X9.0804Y-1.8485
M15
G01X9.0804Y-1.8918
M16
G05
G00X9.271Y-1.8918
M15
G01X9.271Y-1.8485
M16
G05
G00X9.649Y-1.8485
M15
G01X9.649Y-1.8918
M16
G05
T0
M30
